G04 (created by PCBNEW (2013-may-18)-stable) date 2014年05月08日 星期四 20时23分29秒*
%MOIN*%
G04 Gerber Fmt 3.4, Leading zero omitted, Abs format*
%FSLAX34Y34*%
G01*
G70*
G90*
G04 APERTURE LIST*
%ADD10C,0.00590551*%
%ADD11C,0.0693*%
%ADD12R,0.055X0.055*%
%ADD13C,0.055*%
%ADD14R,0.0787402X0.0629921*%
%ADD15C,0.11811*%
%ADD16R,0.059X0.0512*%
%ADD17R,0.0512X0.059*%
%ADD18R,0.0787402X0.0433071*%
%ADD19C,0.035*%
%ADD20C,0.04*%
%ADD21C,0.02*%
%ADD22C,0.005*%
G04 APERTURE END LIST*
G54D10*
G54D11*
X72400Y-30500D03*
X72400Y-31500D03*
X71400Y-30500D03*
X71400Y-31500D03*
X70400Y-30500D03*
X70400Y-31500D03*
X69400Y-30500D03*
X69400Y-31500D03*
X68400Y-30500D03*
X68400Y-31500D03*
G54D12*
X37400Y-53950D03*
G54D13*
X37400Y-52950D03*
X37400Y-51950D03*
G54D14*
X68600Y-47000D03*
X68550Y-41700D03*
X68600Y-52300D03*
X68550Y-36400D03*
G54D15*
X48462Y-49592D03*
X41572Y-49592D03*
X45509Y-31088D03*
X37635Y-31088D03*
G54D16*
X72400Y-33175D03*
X72400Y-32425D03*
X71400Y-33175D03*
X71400Y-32425D03*
X69400Y-33175D03*
X69400Y-32425D03*
G54D17*
X39775Y-51950D03*
X40525Y-51950D03*
X39775Y-52950D03*
X40525Y-52950D03*
G54D16*
X68400Y-33175D03*
X68400Y-32425D03*
G54D18*
X41650Y-51879D03*
X41650Y-53020D03*
X38650Y-51879D03*
X38650Y-53020D03*
X37650Y-34270D03*
X37650Y-33129D03*
G54D19*
X70800Y-37300D03*
X71400Y-42300D03*
X73400Y-53200D03*
X72000Y-47600D03*
X67400Y-54700D03*
X66400Y-33800D03*
X71800Y-53000D03*
X73200Y-52000D03*
X73600Y-49200D03*
X73600Y-46600D03*
X73600Y-44000D03*
X73600Y-41100D03*
X73600Y-38600D03*
X73300Y-35800D03*
X71900Y-34400D03*
X71900Y-35600D03*
X70600Y-35200D03*
X70200Y-33800D03*
X51100Y-40900D03*
X51100Y-46100D03*
X51100Y-51500D03*
X51000Y-36100D03*
G54D20*
X68400Y-34900D02*
X68400Y-33175D01*
X70800Y-37300D02*
X68400Y-34900D01*
X69400Y-33175D02*
X69400Y-35100D01*
X71400Y-37100D02*
X71400Y-42300D01*
X69400Y-35100D02*
X71400Y-37100D01*
X72000Y-49500D02*
X72600Y-48900D01*
X72000Y-51800D02*
X72000Y-49500D01*
X73400Y-53200D02*
X72000Y-51800D01*
X72400Y-33175D02*
X72400Y-36500D01*
X72400Y-36500D02*
X72600Y-36700D01*
X72600Y-36700D02*
X72600Y-48900D01*
X71400Y-33175D02*
X71400Y-36300D01*
X72000Y-36900D02*
X72000Y-47600D01*
X71400Y-36300D02*
X72000Y-36900D01*
X68600Y-52300D02*
X68600Y-53500D01*
X68600Y-53500D02*
X67400Y-54700D01*
X68600Y-47000D02*
X68600Y-52300D01*
X68550Y-41700D02*
X68550Y-46950D01*
X68550Y-46950D02*
X68600Y-47000D01*
X68550Y-36400D02*
X68550Y-41700D01*
X68550Y-35950D02*
X68550Y-36400D01*
X66400Y-33800D02*
X68550Y-35950D01*
G54D21*
X71800Y-53400D02*
X71800Y-53000D01*
X73000Y-54600D02*
X71800Y-53400D01*
X73300Y-54600D02*
X73000Y-54600D01*
X74000Y-53900D02*
X73300Y-54600D01*
X74000Y-52800D02*
X74000Y-53900D01*
X73200Y-52000D02*
X74000Y-52800D01*
X73600Y-46600D02*
X73600Y-49200D01*
X73600Y-41100D02*
X73600Y-44000D01*
X73600Y-36100D02*
X73600Y-38600D01*
X73300Y-35800D02*
X73600Y-36100D01*
X71900Y-35600D02*
X71900Y-34400D01*
G54D20*
X70600Y-34200D02*
X70600Y-35200D01*
X70200Y-33800D02*
X70600Y-34200D01*
X38650Y-53020D02*
X39704Y-53020D01*
X39704Y-53020D02*
X39775Y-52950D01*
X37400Y-52950D02*
X38579Y-52950D01*
X38579Y-52950D02*
X38650Y-53020D01*
X38650Y-51879D02*
X39704Y-51879D01*
X39704Y-51879D02*
X39775Y-51950D01*
X37400Y-51950D02*
X38579Y-51950D01*
X38579Y-51950D02*
X38650Y-51879D01*
X51100Y-36200D02*
X51100Y-40900D01*
X51100Y-40900D02*
X51100Y-46100D01*
X51100Y-46100D02*
X51100Y-51500D01*
X51000Y-36100D02*
X51100Y-36200D01*
X72400Y-31500D02*
X72400Y-32425D01*
X71400Y-31500D02*
X71400Y-32425D01*
X69400Y-31500D02*
X69400Y-32425D01*
X68400Y-31500D02*
X68400Y-32425D01*
X37635Y-31088D02*
X37635Y-33114D01*
X37635Y-33114D02*
X37650Y-33129D01*
X48462Y-49592D02*
X45607Y-49592D01*
X42179Y-53020D02*
X41650Y-53020D01*
X45607Y-49592D02*
X42179Y-53020D01*
X40525Y-52950D02*
X41579Y-52950D01*
X41579Y-52950D02*
X41650Y-53020D01*
X41650Y-51879D02*
X41650Y-49670D01*
X41650Y-49670D02*
X41572Y-49592D01*
X40525Y-51950D02*
X41579Y-51950D01*
X41579Y-51950D02*
X41650Y-51879D01*
X37650Y-34270D02*
X37650Y-45670D01*
X37650Y-45670D02*
X41572Y-49592D01*
G54D10*
G36*
X62275Y-54889D02*
X62019Y-55145D01*
X51435Y-55145D01*
X51435Y-51500D01*
X51435Y-46100D01*
X51435Y-40900D01*
X51435Y-36200D01*
X51409Y-36071D01*
X51409Y-36071D01*
X51336Y-35963D01*
X51236Y-35863D01*
X51128Y-35790D01*
X51000Y-35765D01*
X50871Y-35790D01*
X50763Y-35863D01*
X50690Y-35971D01*
X50665Y-36100D01*
X50690Y-36228D01*
X50763Y-36336D01*
X50765Y-36338D01*
X50765Y-40900D01*
X50765Y-46100D01*
X50765Y-51500D01*
X50790Y-51628D01*
X50863Y-51736D01*
X50971Y-51809D01*
X51100Y-51835D01*
X51228Y-51809D01*
X51336Y-51736D01*
X51409Y-51628D01*
X51435Y-51500D01*
X51435Y-55145D01*
X49187Y-55145D01*
X49187Y-49449D01*
X49077Y-49182D01*
X48873Y-48977D01*
X48606Y-48867D01*
X48318Y-48867D01*
X48051Y-48977D01*
X47847Y-49181D01*
X47815Y-49257D01*
X46234Y-49257D01*
X46234Y-30945D01*
X46124Y-30678D01*
X45920Y-30474D01*
X45654Y-30363D01*
X45365Y-30363D01*
X45098Y-30473D01*
X44894Y-30677D01*
X44783Y-30943D01*
X44783Y-31232D01*
X44893Y-31499D01*
X45097Y-31703D01*
X45364Y-31814D01*
X45652Y-31814D01*
X45919Y-31704D01*
X46123Y-31500D01*
X46234Y-31233D01*
X46234Y-30945D01*
X46234Y-49257D01*
X45607Y-49257D01*
X45479Y-49283D01*
X45443Y-49307D01*
X45370Y-49355D01*
X42297Y-52428D01*
X42297Y-49449D01*
X42187Y-49182D01*
X41983Y-48977D01*
X41717Y-48867D01*
X41428Y-48867D01*
X41351Y-48898D01*
X38360Y-45907D01*
X38360Y-30945D01*
X38250Y-30678D01*
X38046Y-30474D01*
X37780Y-30363D01*
X37491Y-30363D01*
X37224Y-30473D01*
X37020Y-30677D01*
X36909Y-30943D01*
X36909Y-31232D01*
X37019Y-31499D01*
X37223Y-31703D01*
X37300Y-31735D01*
X37300Y-32777D01*
X37229Y-32777D01*
X37179Y-32798D01*
X37141Y-32836D01*
X37121Y-32885D01*
X37121Y-32939D01*
X37121Y-33372D01*
X37141Y-33422D01*
X37179Y-33460D01*
X37229Y-33480D01*
X37283Y-33480D01*
X38070Y-33480D01*
X38120Y-33460D01*
X38158Y-33422D01*
X38178Y-33372D01*
X38178Y-33318D01*
X38178Y-32885D01*
X38158Y-32836D01*
X38120Y-32798D01*
X38070Y-32777D01*
X38016Y-32777D01*
X37970Y-32777D01*
X37970Y-31735D01*
X38045Y-31704D01*
X38249Y-31500D01*
X38360Y-31233D01*
X38360Y-30945D01*
X38360Y-45907D01*
X37985Y-45531D01*
X37985Y-34622D01*
X38070Y-34622D01*
X38120Y-34601D01*
X38158Y-34563D01*
X38178Y-34514D01*
X38178Y-34460D01*
X38178Y-34027D01*
X38158Y-33977D01*
X38120Y-33939D01*
X38070Y-33919D01*
X38016Y-33919D01*
X37229Y-33919D01*
X37179Y-33939D01*
X37141Y-33977D01*
X37121Y-34027D01*
X37121Y-34081D01*
X37121Y-34514D01*
X37141Y-34563D01*
X37179Y-34601D01*
X37229Y-34622D01*
X37283Y-34622D01*
X37315Y-34622D01*
X37315Y-45670D01*
X37340Y-45798D01*
X37413Y-45907D01*
X40878Y-49372D01*
X40846Y-49447D01*
X40846Y-49736D01*
X40956Y-50003D01*
X41160Y-50207D01*
X41315Y-50271D01*
X41315Y-51527D01*
X41229Y-51527D01*
X41179Y-51548D01*
X41141Y-51586D01*
X41129Y-51615D01*
X40910Y-51615D01*
X40895Y-51578D01*
X40857Y-51540D01*
X40807Y-51520D01*
X40754Y-51519D01*
X40242Y-51519D01*
X40192Y-51540D01*
X40154Y-51578D01*
X40150Y-51589D01*
X40145Y-51578D01*
X40107Y-51540D01*
X40057Y-51520D01*
X40004Y-51519D01*
X39492Y-51519D01*
X39442Y-51540D01*
X39438Y-51544D01*
X39110Y-51544D01*
X39070Y-51527D01*
X39016Y-51527D01*
X38229Y-51527D01*
X38179Y-51548D01*
X38141Y-51586D01*
X38129Y-51615D01*
X37644Y-51615D01*
X37632Y-51602D01*
X37481Y-51540D01*
X37318Y-51539D01*
X37168Y-51602D01*
X37052Y-51717D01*
X36990Y-51868D01*
X36989Y-52031D01*
X37052Y-52181D01*
X37167Y-52297D01*
X37318Y-52359D01*
X37481Y-52360D01*
X37631Y-52297D01*
X37644Y-52285D01*
X38579Y-52285D01*
X38707Y-52259D01*
X38707Y-52259D01*
X38750Y-52230D01*
X38750Y-52230D01*
X39070Y-52230D01*
X39110Y-52214D01*
X39383Y-52214D01*
X39383Y-52271D01*
X39404Y-52321D01*
X39442Y-52359D01*
X39492Y-52379D01*
X39545Y-52380D01*
X40057Y-52380D01*
X40107Y-52359D01*
X40145Y-52321D01*
X40149Y-52310D01*
X40154Y-52321D01*
X40192Y-52359D01*
X40242Y-52379D01*
X40295Y-52380D01*
X40807Y-52380D01*
X40857Y-52359D01*
X40895Y-52321D01*
X40910Y-52285D01*
X41579Y-52285D01*
X41707Y-52259D01*
X41707Y-52259D01*
X41750Y-52230D01*
X41750Y-52230D01*
X42070Y-52230D01*
X42120Y-52210D01*
X42158Y-52172D01*
X42178Y-52122D01*
X42178Y-52068D01*
X42178Y-51635D01*
X42158Y-51586D01*
X42120Y-51548D01*
X42070Y-51527D01*
X42016Y-51527D01*
X41985Y-51527D01*
X41985Y-50205D01*
X42186Y-50004D01*
X42297Y-49737D01*
X42297Y-49449D01*
X42297Y-52428D01*
X42056Y-52669D01*
X42016Y-52669D01*
X41750Y-52669D01*
X41707Y-52640D01*
X41579Y-52615D01*
X40910Y-52615D01*
X40895Y-52578D01*
X40857Y-52540D01*
X40807Y-52520D01*
X40754Y-52519D01*
X40242Y-52519D01*
X40192Y-52540D01*
X40154Y-52578D01*
X40150Y-52589D01*
X40145Y-52578D01*
X40107Y-52540D01*
X40057Y-52520D01*
X40004Y-52519D01*
X39492Y-52519D01*
X39442Y-52540D01*
X39404Y-52578D01*
X39384Y-52628D01*
X39383Y-52681D01*
X39383Y-52685D01*
X39110Y-52685D01*
X39070Y-52669D01*
X39016Y-52669D01*
X38750Y-52669D01*
X38707Y-52640D01*
X38579Y-52615D01*
X37644Y-52615D01*
X37632Y-52602D01*
X37481Y-52540D01*
X37318Y-52539D01*
X37168Y-52602D01*
X37052Y-52717D01*
X36990Y-52868D01*
X36989Y-53031D01*
X37052Y-53181D01*
X37167Y-53297D01*
X37318Y-53359D01*
X37481Y-53360D01*
X37631Y-53297D01*
X37644Y-53285D01*
X38129Y-53285D01*
X38141Y-53313D01*
X38179Y-53351D01*
X38229Y-53372D01*
X38283Y-53372D01*
X39070Y-53372D01*
X39110Y-53355D01*
X39438Y-53355D01*
X39442Y-53359D01*
X39492Y-53379D01*
X39545Y-53380D01*
X40057Y-53380D01*
X40107Y-53359D01*
X40145Y-53321D01*
X40149Y-53310D01*
X40154Y-53321D01*
X40192Y-53359D01*
X40242Y-53379D01*
X40295Y-53380D01*
X40807Y-53380D01*
X40857Y-53359D01*
X40895Y-53321D01*
X40910Y-53285D01*
X41129Y-53285D01*
X41141Y-53313D01*
X41179Y-53351D01*
X41229Y-53372D01*
X41283Y-53372D01*
X42070Y-53372D01*
X42110Y-53355D01*
X42179Y-53355D01*
X42307Y-53330D01*
X42307Y-53330D01*
X42416Y-53257D01*
X45746Y-49927D01*
X47815Y-49927D01*
X47846Y-50003D01*
X48050Y-50207D01*
X48317Y-50318D01*
X48605Y-50318D01*
X48872Y-50208D01*
X49076Y-50004D01*
X49187Y-49737D01*
X49187Y-49449D01*
X49187Y-55145D01*
X37900Y-55145D01*
X37900Y-54269D01*
X37900Y-53630D01*
X37865Y-53547D01*
X37802Y-53484D01*
X37719Y-53450D01*
X37630Y-53449D01*
X37531Y-53450D01*
X37475Y-53506D01*
X37475Y-53875D01*
X37843Y-53875D01*
X37900Y-53818D01*
X37900Y-53630D01*
X37900Y-54269D01*
X37900Y-54081D01*
X37843Y-54025D01*
X37475Y-54025D01*
X37475Y-54393D01*
X37531Y-54450D01*
X37630Y-54450D01*
X37719Y-54449D01*
X37802Y-54415D01*
X37865Y-54352D01*
X37900Y-54269D01*
X37900Y-55145D01*
X37325Y-55145D01*
X37325Y-54393D01*
X37325Y-54025D01*
X37325Y-53875D01*
X37325Y-53506D01*
X37268Y-53450D01*
X37169Y-53449D01*
X37080Y-53450D01*
X36997Y-53484D01*
X36934Y-53547D01*
X36899Y-53630D01*
X36900Y-53818D01*
X36956Y-53875D01*
X37325Y-53875D01*
X37325Y-54025D01*
X36956Y-54025D01*
X36900Y-54081D01*
X36899Y-54269D01*
X36934Y-54352D01*
X36997Y-54415D01*
X37080Y-54449D01*
X37169Y-54450D01*
X37268Y-54450D01*
X37325Y-54393D01*
X37325Y-55145D01*
X37280Y-55145D01*
X36754Y-54619D01*
X36754Y-30380D01*
X37880Y-29254D01*
X61819Y-29254D01*
X62275Y-29710D01*
X62275Y-54889D01*
X62275Y-54889D01*
G37*
G54D22*
X62275Y-54889D02*
X62019Y-55145D01*
X51435Y-55145D01*
X51435Y-51500D01*
X51435Y-46100D01*
X51435Y-40900D01*
X51435Y-36200D01*
X51409Y-36071D01*
X51409Y-36071D01*
X51336Y-35963D01*
X51236Y-35863D01*
X51128Y-35790D01*
X51000Y-35765D01*
X50871Y-35790D01*
X50763Y-35863D01*
X50690Y-35971D01*
X50665Y-36100D01*
X50690Y-36228D01*
X50763Y-36336D01*
X50765Y-36338D01*
X50765Y-40900D01*
X50765Y-46100D01*
X50765Y-51500D01*
X50790Y-51628D01*
X50863Y-51736D01*
X50971Y-51809D01*
X51100Y-51835D01*
X51228Y-51809D01*
X51336Y-51736D01*
X51409Y-51628D01*
X51435Y-51500D01*
X51435Y-55145D01*
X49187Y-55145D01*
X49187Y-49449D01*
X49077Y-49182D01*
X48873Y-48977D01*
X48606Y-48867D01*
X48318Y-48867D01*
X48051Y-48977D01*
X47847Y-49181D01*
X47815Y-49257D01*
X46234Y-49257D01*
X46234Y-30945D01*
X46124Y-30678D01*
X45920Y-30474D01*
X45654Y-30363D01*
X45365Y-30363D01*
X45098Y-30473D01*
X44894Y-30677D01*
X44783Y-30943D01*
X44783Y-31232D01*
X44893Y-31499D01*
X45097Y-31703D01*
X45364Y-31814D01*
X45652Y-31814D01*
X45919Y-31704D01*
X46123Y-31500D01*
X46234Y-31233D01*
X46234Y-30945D01*
X46234Y-49257D01*
X45607Y-49257D01*
X45479Y-49283D01*
X45443Y-49307D01*
X45370Y-49355D01*
X42297Y-52428D01*
X42297Y-49449D01*
X42187Y-49182D01*
X41983Y-48977D01*
X41717Y-48867D01*
X41428Y-48867D01*
X41351Y-48898D01*
X38360Y-45907D01*
X38360Y-30945D01*
X38250Y-30678D01*
X38046Y-30474D01*
X37780Y-30363D01*
X37491Y-30363D01*
X37224Y-30473D01*
X37020Y-30677D01*
X36909Y-30943D01*
X36909Y-31232D01*
X37019Y-31499D01*
X37223Y-31703D01*
X37300Y-31735D01*
X37300Y-32777D01*
X37229Y-32777D01*
X37179Y-32798D01*
X37141Y-32836D01*
X37121Y-32885D01*
X37121Y-32939D01*
X37121Y-33372D01*
X37141Y-33422D01*
X37179Y-33460D01*
X37229Y-33480D01*
X37283Y-33480D01*
X38070Y-33480D01*
X38120Y-33460D01*
X38158Y-33422D01*
X38178Y-33372D01*
X38178Y-33318D01*
X38178Y-32885D01*
X38158Y-32836D01*
X38120Y-32798D01*
X38070Y-32777D01*
X38016Y-32777D01*
X37970Y-32777D01*
X37970Y-31735D01*
X38045Y-31704D01*
X38249Y-31500D01*
X38360Y-31233D01*
X38360Y-30945D01*
X38360Y-45907D01*
X37985Y-45531D01*
X37985Y-34622D01*
X38070Y-34622D01*
X38120Y-34601D01*
X38158Y-34563D01*
X38178Y-34514D01*
X38178Y-34460D01*
X38178Y-34027D01*
X38158Y-33977D01*
X38120Y-33939D01*
X38070Y-33919D01*
X38016Y-33919D01*
X37229Y-33919D01*
X37179Y-33939D01*
X37141Y-33977D01*
X37121Y-34027D01*
X37121Y-34081D01*
X37121Y-34514D01*
X37141Y-34563D01*
X37179Y-34601D01*
X37229Y-34622D01*
X37283Y-34622D01*
X37315Y-34622D01*
X37315Y-45670D01*
X37340Y-45798D01*
X37413Y-45907D01*
X40878Y-49372D01*
X40846Y-49447D01*
X40846Y-49736D01*
X40956Y-50003D01*
X41160Y-50207D01*
X41315Y-50271D01*
X41315Y-51527D01*
X41229Y-51527D01*
X41179Y-51548D01*
X41141Y-51586D01*
X41129Y-51615D01*
X40910Y-51615D01*
X40895Y-51578D01*
X40857Y-51540D01*
X40807Y-51520D01*
X40754Y-51519D01*
X40242Y-51519D01*
X40192Y-51540D01*
X40154Y-51578D01*
X40150Y-51589D01*
X40145Y-51578D01*
X40107Y-51540D01*
X40057Y-51520D01*
X40004Y-51519D01*
X39492Y-51519D01*
X39442Y-51540D01*
X39438Y-51544D01*
X39110Y-51544D01*
X39070Y-51527D01*
X39016Y-51527D01*
X38229Y-51527D01*
X38179Y-51548D01*
X38141Y-51586D01*
X38129Y-51615D01*
X37644Y-51615D01*
X37632Y-51602D01*
X37481Y-51540D01*
X37318Y-51539D01*
X37168Y-51602D01*
X37052Y-51717D01*
X36990Y-51868D01*
X36989Y-52031D01*
X37052Y-52181D01*
X37167Y-52297D01*
X37318Y-52359D01*
X37481Y-52360D01*
X37631Y-52297D01*
X37644Y-52285D01*
X38579Y-52285D01*
X38707Y-52259D01*
X38707Y-52259D01*
X38750Y-52230D01*
X38750Y-52230D01*
X39070Y-52230D01*
X39110Y-52214D01*
X39383Y-52214D01*
X39383Y-52271D01*
X39404Y-52321D01*
X39442Y-52359D01*
X39492Y-52379D01*
X39545Y-52380D01*
X40057Y-52380D01*
X40107Y-52359D01*
X40145Y-52321D01*
X40149Y-52310D01*
X40154Y-52321D01*
X40192Y-52359D01*
X40242Y-52379D01*
X40295Y-52380D01*
X40807Y-52380D01*
X40857Y-52359D01*
X40895Y-52321D01*
X40910Y-52285D01*
X41579Y-52285D01*
X41707Y-52259D01*
X41707Y-52259D01*
X41750Y-52230D01*
X41750Y-52230D01*
X42070Y-52230D01*
X42120Y-52210D01*
X42158Y-52172D01*
X42178Y-52122D01*
X42178Y-52068D01*
X42178Y-51635D01*
X42158Y-51586D01*
X42120Y-51548D01*
X42070Y-51527D01*
X42016Y-51527D01*
X41985Y-51527D01*
X41985Y-50205D01*
X42186Y-50004D01*
X42297Y-49737D01*
X42297Y-49449D01*
X42297Y-52428D01*
X42056Y-52669D01*
X42016Y-52669D01*
X41750Y-52669D01*
X41707Y-52640D01*
X41579Y-52615D01*
X40910Y-52615D01*
X40895Y-52578D01*
X40857Y-52540D01*
X40807Y-52520D01*
X40754Y-52519D01*
X40242Y-52519D01*
X40192Y-52540D01*
X40154Y-52578D01*
X40150Y-52589D01*
X40145Y-52578D01*
X40107Y-52540D01*
X40057Y-52520D01*
X40004Y-52519D01*
X39492Y-52519D01*
X39442Y-52540D01*
X39404Y-52578D01*
X39384Y-52628D01*
X39383Y-52681D01*
X39383Y-52685D01*
X39110Y-52685D01*
X39070Y-52669D01*
X39016Y-52669D01*
X38750Y-52669D01*
X38707Y-52640D01*
X38579Y-52615D01*
X37644Y-52615D01*
X37632Y-52602D01*
X37481Y-52540D01*
X37318Y-52539D01*
X37168Y-52602D01*
X37052Y-52717D01*
X36990Y-52868D01*
X36989Y-53031D01*
X37052Y-53181D01*
X37167Y-53297D01*
X37318Y-53359D01*
X37481Y-53360D01*
X37631Y-53297D01*
X37644Y-53285D01*
X38129Y-53285D01*
X38141Y-53313D01*
X38179Y-53351D01*
X38229Y-53372D01*
X38283Y-53372D01*
X39070Y-53372D01*
X39110Y-53355D01*
X39438Y-53355D01*
X39442Y-53359D01*
X39492Y-53379D01*
X39545Y-53380D01*
X40057Y-53380D01*
X40107Y-53359D01*
X40145Y-53321D01*
X40149Y-53310D01*
X40154Y-53321D01*
X40192Y-53359D01*
X40242Y-53379D01*
X40295Y-53380D01*
X40807Y-53380D01*
X40857Y-53359D01*
X40895Y-53321D01*
X40910Y-53285D01*
X41129Y-53285D01*
X41141Y-53313D01*
X41179Y-53351D01*
X41229Y-53372D01*
X41283Y-53372D01*
X42070Y-53372D01*
X42110Y-53355D01*
X42179Y-53355D01*
X42307Y-53330D01*
X42307Y-53330D01*
X42416Y-53257D01*
X45746Y-49927D01*
X47815Y-49927D01*
X47846Y-50003D01*
X48050Y-50207D01*
X48317Y-50318D01*
X48605Y-50318D01*
X48872Y-50208D01*
X49076Y-50004D01*
X49187Y-49737D01*
X49187Y-49449D01*
X49187Y-55145D01*
X37900Y-55145D01*
X37900Y-54269D01*
X37900Y-53630D01*
X37865Y-53547D01*
X37802Y-53484D01*
X37719Y-53450D01*
X37630Y-53449D01*
X37531Y-53450D01*
X37475Y-53506D01*
X37475Y-53875D01*
X37843Y-53875D01*
X37900Y-53818D01*
X37900Y-53630D01*
X37900Y-54269D01*
X37900Y-54081D01*
X37843Y-54025D01*
X37475Y-54025D01*
X37475Y-54393D01*
X37531Y-54450D01*
X37630Y-54450D01*
X37719Y-54449D01*
X37802Y-54415D01*
X37865Y-54352D01*
X37900Y-54269D01*
X37900Y-55145D01*
X37325Y-55145D01*
X37325Y-54393D01*
X37325Y-54025D01*
X37325Y-53875D01*
X37325Y-53506D01*
X37268Y-53450D01*
X37169Y-53449D01*
X37080Y-53450D01*
X36997Y-53484D01*
X36934Y-53547D01*
X36899Y-53630D01*
X36900Y-53818D01*
X36956Y-53875D01*
X37325Y-53875D01*
X37325Y-54025D01*
X36956Y-54025D01*
X36900Y-54081D01*
X36899Y-54269D01*
X36934Y-54352D01*
X36997Y-54415D01*
X37080Y-54449D01*
X37169Y-54450D01*
X37268Y-54450D01*
X37325Y-54393D01*
X37325Y-55145D01*
X37280Y-55145D01*
X36754Y-54619D01*
X36754Y-30380D01*
X37880Y-29254D01*
X61819Y-29254D01*
X62275Y-29710D01*
X62275Y-54889D01*
G54D10*
G36*
X74445Y-31819D02*
X73589Y-32675D01*
X72979Y-32675D01*
X72979Y-30561D01*
X72959Y-30335D01*
X72911Y-30221D01*
X72821Y-30184D01*
X72715Y-30290D01*
X72715Y-30078D01*
X72678Y-29988D01*
X72461Y-29920D01*
X72235Y-29940D01*
X72121Y-29988D01*
X72084Y-30078D01*
X72400Y-30393D01*
X72715Y-30078D01*
X72715Y-30290D01*
X72506Y-30500D01*
X72821Y-30815D01*
X72911Y-30778D01*
X72979Y-30561D01*
X72979Y-32675D01*
X72830Y-32675D01*
X72830Y-32654D01*
X72830Y-32142D01*
X72809Y-32092D01*
X72771Y-32054D01*
X72735Y-32039D01*
X72735Y-31845D01*
X72807Y-31773D01*
X72881Y-31596D01*
X72881Y-31404D01*
X72808Y-31227D01*
X72673Y-31092D01*
X72579Y-31052D01*
X72678Y-31011D01*
X72715Y-30921D01*
X72400Y-30606D01*
X72293Y-30712D01*
X72293Y-30500D01*
X71978Y-30184D01*
X71900Y-30216D01*
X71821Y-30184D01*
X71715Y-30290D01*
X71715Y-30078D01*
X71678Y-29988D01*
X71461Y-29920D01*
X71235Y-29940D01*
X71121Y-29988D01*
X71084Y-30078D01*
X71400Y-30393D01*
X71715Y-30078D01*
X71715Y-30290D01*
X71506Y-30500D01*
X71821Y-30815D01*
X71900Y-30783D01*
X71978Y-30815D01*
X72293Y-30500D01*
X72293Y-30712D01*
X72084Y-30921D01*
X72121Y-31011D01*
X72235Y-31047D01*
X72127Y-31091D01*
X71992Y-31226D01*
X71918Y-31403D01*
X71918Y-31595D01*
X71991Y-31772D01*
X72065Y-31845D01*
X72065Y-32039D01*
X72028Y-32054D01*
X71990Y-32092D01*
X71970Y-32142D01*
X71969Y-32195D01*
X71969Y-32675D01*
X71830Y-32675D01*
X71830Y-32654D01*
X71830Y-32142D01*
X71809Y-32092D01*
X71771Y-32054D01*
X71735Y-32039D01*
X71735Y-31845D01*
X71807Y-31773D01*
X71881Y-31596D01*
X71881Y-31404D01*
X71808Y-31227D01*
X71673Y-31092D01*
X71579Y-31052D01*
X71678Y-31011D01*
X71715Y-30921D01*
X71400Y-30606D01*
X71293Y-30712D01*
X71293Y-30500D01*
X70978Y-30184D01*
X70900Y-30216D01*
X70821Y-30184D01*
X70715Y-30290D01*
X70715Y-30078D01*
X70678Y-29988D01*
X70461Y-29920D01*
X70235Y-29940D01*
X70121Y-29988D01*
X70084Y-30078D01*
X70400Y-30393D01*
X70715Y-30078D01*
X70715Y-30290D01*
X70506Y-30500D01*
X70821Y-30815D01*
X70900Y-30783D01*
X70978Y-30815D01*
X71293Y-30500D01*
X71293Y-30712D01*
X71084Y-30921D01*
X71121Y-31011D01*
X71235Y-31047D01*
X71127Y-31091D01*
X70992Y-31226D01*
X70952Y-31320D01*
X70911Y-31221D01*
X70821Y-31184D01*
X70715Y-31290D01*
X70715Y-31078D01*
X70683Y-31000D01*
X70715Y-30921D01*
X70400Y-30606D01*
X70293Y-30712D01*
X70293Y-30500D01*
X69978Y-30184D01*
X69900Y-30216D01*
X69821Y-30184D01*
X69715Y-30290D01*
X69715Y-30078D01*
X69678Y-29988D01*
X69461Y-29920D01*
X69235Y-29940D01*
X69121Y-29988D01*
X69084Y-30078D01*
X69400Y-30393D01*
X69715Y-30078D01*
X69715Y-30290D01*
X69506Y-30500D01*
X69821Y-30815D01*
X69900Y-30783D01*
X69978Y-30815D01*
X70293Y-30500D01*
X70293Y-30712D01*
X70084Y-30921D01*
X70116Y-31000D01*
X70084Y-31078D01*
X70400Y-31393D01*
X70715Y-31078D01*
X70715Y-31290D01*
X70506Y-31500D01*
X70821Y-31815D01*
X70911Y-31778D01*
X70947Y-31664D01*
X70991Y-31772D01*
X71065Y-31845D01*
X71065Y-32039D01*
X71028Y-32054D01*
X70990Y-32092D01*
X70970Y-32142D01*
X70969Y-32195D01*
X70969Y-32675D01*
X70715Y-32675D01*
X70715Y-31921D01*
X70400Y-31606D01*
X70084Y-31921D01*
X70121Y-32011D01*
X70338Y-32079D01*
X70564Y-32059D01*
X70678Y-32011D01*
X70715Y-31921D01*
X70715Y-32675D01*
X69830Y-32675D01*
X69830Y-32654D01*
X69830Y-32142D01*
X69809Y-32092D01*
X69771Y-32054D01*
X69735Y-32039D01*
X69735Y-31845D01*
X69807Y-31773D01*
X69847Y-31679D01*
X69888Y-31778D01*
X69978Y-31815D01*
X70293Y-31500D01*
X69978Y-31184D01*
X69888Y-31221D01*
X69852Y-31335D01*
X69808Y-31227D01*
X69673Y-31092D01*
X69579Y-31052D01*
X69678Y-31011D01*
X69715Y-30921D01*
X69400Y-30606D01*
X69293Y-30712D01*
X69293Y-30500D01*
X68978Y-30184D01*
X68900Y-30216D01*
X68821Y-30184D01*
X68715Y-30290D01*
X68715Y-30078D01*
X68678Y-29988D01*
X68461Y-29920D01*
X68235Y-29940D01*
X68121Y-29988D01*
X68084Y-30078D01*
X68400Y-30393D01*
X68715Y-30078D01*
X68715Y-30290D01*
X68506Y-30500D01*
X68821Y-30815D01*
X68900Y-30783D01*
X68978Y-30815D01*
X69293Y-30500D01*
X69293Y-30712D01*
X69084Y-30921D01*
X69121Y-31011D01*
X69235Y-31047D01*
X69127Y-31091D01*
X68992Y-31226D01*
X68918Y-31403D01*
X68918Y-31595D01*
X68991Y-31772D01*
X69065Y-31845D01*
X69065Y-32039D01*
X69028Y-32054D01*
X68990Y-32092D01*
X68970Y-32142D01*
X68969Y-32195D01*
X68969Y-32675D01*
X68830Y-32675D01*
X68830Y-32654D01*
X68830Y-32142D01*
X68809Y-32092D01*
X68771Y-32054D01*
X68735Y-32039D01*
X68735Y-31845D01*
X68807Y-31773D01*
X68881Y-31596D01*
X68881Y-31404D01*
X68808Y-31227D01*
X68673Y-31092D01*
X68579Y-31052D01*
X68678Y-31011D01*
X68715Y-30921D01*
X68400Y-30606D01*
X68293Y-30712D01*
X68293Y-30500D01*
X67978Y-30184D01*
X67888Y-30221D01*
X67820Y-30438D01*
X67840Y-30664D01*
X67888Y-30778D01*
X67978Y-30815D01*
X68293Y-30500D01*
X68293Y-30712D01*
X68084Y-30921D01*
X68121Y-31011D01*
X68235Y-31047D01*
X68127Y-31091D01*
X67992Y-31226D01*
X67918Y-31403D01*
X67918Y-31595D01*
X67991Y-31772D01*
X68065Y-31845D01*
X68065Y-32039D01*
X68028Y-32054D01*
X67990Y-32092D01*
X67970Y-32142D01*
X67969Y-32195D01*
X67969Y-32675D01*
X66310Y-32675D01*
X65525Y-31889D01*
X65525Y-29710D01*
X65980Y-29254D01*
X74019Y-29254D01*
X74445Y-29680D01*
X74445Y-31819D01*
X74445Y-31819D01*
G37*
G54D22*
X74445Y-31819D02*
X73589Y-32675D01*
X72979Y-32675D01*
X72979Y-30561D01*
X72959Y-30335D01*
X72911Y-30221D01*
X72821Y-30184D01*
X72715Y-30290D01*
X72715Y-30078D01*
X72678Y-29988D01*
X72461Y-29920D01*
X72235Y-29940D01*
X72121Y-29988D01*
X72084Y-30078D01*
X72400Y-30393D01*
X72715Y-30078D01*
X72715Y-30290D01*
X72506Y-30500D01*
X72821Y-30815D01*
X72911Y-30778D01*
X72979Y-30561D01*
X72979Y-32675D01*
X72830Y-32675D01*
X72830Y-32654D01*
X72830Y-32142D01*
X72809Y-32092D01*
X72771Y-32054D01*
X72735Y-32039D01*
X72735Y-31845D01*
X72807Y-31773D01*
X72881Y-31596D01*
X72881Y-31404D01*
X72808Y-31227D01*
X72673Y-31092D01*
X72579Y-31052D01*
X72678Y-31011D01*
X72715Y-30921D01*
X72400Y-30606D01*
X72293Y-30712D01*
X72293Y-30500D01*
X71978Y-30184D01*
X71900Y-30216D01*
X71821Y-30184D01*
X71715Y-30290D01*
X71715Y-30078D01*
X71678Y-29988D01*
X71461Y-29920D01*
X71235Y-29940D01*
X71121Y-29988D01*
X71084Y-30078D01*
X71400Y-30393D01*
X71715Y-30078D01*
X71715Y-30290D01*
X71506Y-30500D01*
X71821Y-30815D01*
X71900Y-30783D01*
X71978Y-30815D01*
X72293Y-30500D01*
X72293Y-30712D01*
X72084Y-30921D01*
X72121Y-31011D01*
X72235Y-31047D01*
X72127Y-31091D01*
X71992Y-31226D01*
X71918Y-31403D01*
X71918Y-31595D01*
X71991Y-31772D01*
X72065Y-31845D01*
X72065Y-32039D01*
X72028Y-32054D01*
X71990Y-32092D01*
X71970Y-32142D01*
X71969Y-32195D01*
X71969Y-32675D01*
X71830Y-32675D01*
X71830Y-32654D01*
X71830Y-32142D01*
X71809Y-32092D01*
X71771Y-32054D01*
X71735Y-32039D01*
X71735Y-31845D01*
X71807Y-31773D01*
X71881Y-31596D01*
X71881Y-31404D01*
X71808Y-31227D01*
X71673Y-31092D01*
X71579Y-31052D01*
X71678Y-31011D01*
X71715Y-30921D01*
X71400Y-30606D01*
X71293Y-30712D01*
X71293Y-30500D01*
X70978Y-30184D01*
X70900Y-30216D01*
X70821Y-30184D01*
X70715Y-30290D01*
X70715Y-30078D01*
X70678Y-29988D01*
X70461Y-29920D01*
X70235Y-29940D01*
X70121Y-29988D01*
X70084Y-30078D01*
X70400Y-30393D01*
X70715Y-30078D01*
X70715Y-30290D01*
X70506Y-30500D01*
X70821Y-30815D01*
X70900Y-30783D01*
X70978Y-30815D01*
X71293Y-30500D01*
X71293Y-30712D01*
X71084Y-30921D01*
X71121Y-31011D01*
X71235Y-31047D01*
X71127Y-31091D01*
X70992Y-31226D01*
X70952Y-31320D01*
X70911Y-31221D01*
X70821Y-31184D01*
X70715Y-31290D01*
X70715Y-31078D01*
X70683Y-31000D01*
X70715Y-30921D01*
X70400Y-30606D01*
X70293Y-30712D01*
X70293Y-30500D01*
X69978Y-30184D01*
X69900Y-30216D01*
X69821Y-30184D01*
X69715Y-30290D01*
X69715Y-30078D01*
X69678Y-29988D01*
X69461Y-29920D01*
X69235Y-29940D01*
X69121Y-29988D01*
X69084Y-30078D01*
X69400Y-30393D01*
X69715Y-30078D01*
X69715Y-30290D01*
X69506Y-30500D01*
X69821Y-30815D01*
X69900Y-30783D01*
X69978Y-30815D01*
X70293Y-30500D01*
X70293Y-30712D01*
X70084Y-30921D01*
X70116Y-31000D01*
X70084Y-31078D01*
X70400Y-31393D01*
X70715Y-31078D01*
X70715Y-31290D01*
X70506Y-31500D01*
X70821Y-31815D01*
X70911Y-31778D01*
X70947Y-31664D01*
X70991Y-31772D01*
X71065Y-31845D01*
X71065Y-32039D01*
X71028Y-32054D01*
X70990Y-32092D01*
X70970Y-32142D01*
X70969Y-32195D01*
X70969Y-32675D01*
X70715Y-32675D01*
X70715Y-31921D01*
X70400Y-31606D01*
X70084Y-31921D01*
X70121Y-32011D01*
X70338Y-32079D01*
X70564Y-32059D01*
X70678Y-32011D01*
X70715Y-31921D01*
X70715Y-32675D01*
X69830Y-32675D01*
X69830Y-32654D01*
X69830Y-32142D01*
X69809Y-32092D01*
X69771Y-32054D01*
X69735Y-32039D01*
X69735Y-31845D01*
X69807Y-31773D01*
X69847Y-31679D01*
X69888Y-31778D01*
X69978Y-31815D01*
X70293Y-31500D01*
X69978Y-31184D01*
X69888Y-31221D01*
X69852Y-31335D01*
X69808Y-31227D01*
X69673Y-31092D01*
X69579Y-31052D01*
X69678Y-31011D01*
X69715Y-30921D01*
X69400Y-30606D01*
X69293Y-30712D01*
X69293Y-30500D01*
X68978Y-30184D01*
X68900Y-30216D01*
X68821Y-30184D01*
X68715Y-30290D01*
X68715Y-30078D01*
X68678Y-29988D01*
X68461Y-29920D01*
X68235Y-29940D01*
X68121Y-29988D01*
X68084Y-30078D01*
X68400Y-30393D01*
X68715Y-30078D01*
X68715Y-30290D01*
X68506Y-30500D01*
X68821Y-30815D01*
X68900Y-30783D01*
X68978Y-30815D01*
X69293Y-30500D01*
X69293Y-30712D01*
X69084Y-30921D01*
X69121Y-31011D01*
X69235Y-31047D01*
X69127Y-31091D01*
X68992Y-31226D01*
X68918Y-31403D01*
X68918Y-31595D01*
X68991Y-31772D01*
X69065Y-31845D01*
X69065Y-32039D01*
X69028Y-32054D01*
X68990Y-32092D01*
X68970Y-32142D01*
X68969Y-32195D01*
X68969Y-32675D01*
X68830Y-32675D01*
X68830Y-32654D01*
X68830Y-32142D01*
X68809Y-32092D01*
X68771Y-32054D01*
X68735Y-32039D01*
X68735Y-31845D01*
X68807Y-31773D01*
X68881Y-31596D01*
X68881Y-31404D01*
X68808Y-31227D01*
X68673Y-31092D01*
X68579Y-31052D01*
X68678Y-31011D01*
X68715Y-30921D01*
X68400Y-30606D01*
X68293Y-30712D01*
X68293Y-30500D01*
X67978Y-30184D01*
X67888Y-30221D01*
X67820Y-30438D01*
X67840Y-30664D01*
X67888Y-30778D01*
X67978Y-30815D01*
X68293Y-30500D01*
X68293Y-30712D01*
X68084Y-30921D01*
X68121Y-31011D01*
X68235Y-31047D01*
X68127Y-31091D01*
X67992Y-31226D01*
X67918Y-31403D01*
X67918Y-31595D01*
X67991Y-31772D01*
X68065Y-31845D01*
X68065Y-32039D01*
X68028Y-32054D01*
X67990Y-32092D01*
X67970Y-32142D01*
X67969Y-32195D01*
X67969Y-32675D01*
X66310Y-32675D01*
X65525Y-31889D01*
X65525Y-29710D01*
X65980Y-29254D01*
X74019Y-29254D01*
X74445Y-29680D01*
X74445Y-31819D01*
G54D10*
G36*
X71065Y-36291D02*
X69735Y-34961D01*
X69735Y-33560D01*
X69771Y-33545D01*
X69809Y-33507D01*
X69829Y-33457D01*
X69830Y-33404D01*
X69830Y-32925D01*
X70969Y-32925D01*
X70969Y-32945D01*
X70969Y-33457D01*
X70990Y-33507D01*
X71028Y-33545D01*
X71065Y-33560D01*
X71065Y-36291D01*
X71065Y-36291D01*
G37*
G54D22*
X71065Y-36291D02*
X69735Y-34961D01*
X69735Y-33560D01*
X69771Y-33545D01*
X69809Y-33507D01*
X69829Y-33457D01*
X69830Y-33404D01*
X69830Y-32925D01*
X70969Y-32925D01*
X70969Y-32945D01*
X70969Y-33457D01*
X70990Y-33507D01*
X71028Y-33545D01*
X71065Y-33560D01*
X71065Y-36291D01*
G54D10*
G36*
X72065Y-36491D02*
X71735Y-36161D01*
X71735Y-33560D01*
X71771Y-33545D01*
X71809Y-33507D01*
X71829Y-33457D01*
X71830Y-33404D01*
X71830Y-32925D01*
X71969Y-32925D01*
X71969Y-32945D01*
X71969Y-33457D01*
X71990Y-33507D01*
X72028Y-33545D01*
X72065Y-33560D01*
X72065Y-36491D01*
X72065Y-36491D01*
G37*
G54D22*
X72065Y-36491D02*
X71735Y-36161D01*
X71735Y-33560D01*
X71771Y-33545D01*
X71809Y-33507D01*
X71829Y-33457D01*
X71830Y-33404D01*
X71830Y-32925D01*
X71969Y-32925D01*
X71969Y-32945D01*
X71969Y-33457D01*
X71990Y-33507D01*
X72028Y-33545D01*
X72065Y-33560D01*
X72065Y-36491D01*
G54D10*
G36*
X74445Y-54719D02*
X74019Y-55145D01*
X69218Y-55145D01*
X69218Y-52570D01*
X69218Y-52029D01*
X69218Y-47270D01*
X69218Y-46729D01*
X69218Y-46640D01*
X69184Y-46557D01*
X69168Y-46541D01*
X69168Y-41970D01*
X69168Y-41429D01*
X69168Y-36670D01*
X69168Y-36531D01*
X69112Y-36475D01*
X68625Y-36475D01*
X68625Y-36883D01*
X68681Y-36939D01*
X68988Y-36939D01*
X69070Y-36905D01*
X69134Y-36842D01*
X69168Y-36759D01*
X69168Y-36670D01*
X69168Y-41429D01*
X69168Y-41340D01*
X69134Y-41257D01*
X69070Y-41194D01*
X68988Y-41160D01*
X68681Y-41160D01*
X68625Y-41216D01*
X68625Y-41625D01*
X69112Y-41625D01*
X69168Y-41568D01*
X69168Y-41429D01*
X69168Y-41970D01*
X69168Y-41831D01*
X69112Y-41775D01*
X68625Y-41775D01*
X68625Y-42183D01*
X68681Y-42239D01*
X68988Y-42239D01*
X69070Y-42205D01*
X69134Y-42142D01*
X69168Y-42059D01*
X69168Y-41970D01*
X69168Y-46541D01*
X69120Y-46494D01*
X69038Y-46460D01*
X68731Y-46460D01*
X68675Y-46516D01*
X68675Y-46925D01*
X69162Y-46925D01*
X69218Y-46868D01*
X69218Y-46729D01*
X69218Y-47270D01*
X69218Y-47131D01*
X69162Y-47075D01*
X68675Y-47075D01*
X68675Y-47483D01*
X68731Y-47539D01*
X69038Y-47539D01*
X69120Y-47505D01*
X69184Y-47442D01*
X69218Y-47359D01*
X69218Y-47270D01*
X69218Y-52029D01*
X69218Y-51940D01*
X69184Y-51857D01*
X69120Y-51794D01*
X69038Y-51760D01*
X68731Y-51760D01*
X68675Y-51816D01*
X68675Y-52225D01*
X69162Y-52225D01*
X69218Y-52168D01*
X69218Y-52029D01*
X69218Y-52570D01*
X69218Y-52431D01*
X69162Y-52375D01*
X68675Y-52375D01*
X68675Y-52783D01*
X68731Y-52839D01*
X69038Y-52839D01*
X69120Y-52805D01*
X69184Y-52742D01*
X69218Y-52659D01*
X69218Y-52570D01*
X69218Y-55145D01*
X68525Y-55145D01*
X68525Y-52783D01*
X68525Y-52375D01*
X68525Y-52225D01*
X68525Y-51816D01*
X68525Y-47483D01*
X68525Y-47075D01*
X68525Y-46925D01*
X68525Y-46516D01*
X68475Y-46466D01*
X68475Y-42183D01*
X68475Y-41775D01*
X68475Y-41625D01*
X68475Y-41216D01*
X68475Y-36883D01*
X68475Y-36475D01*
X68475Y-36325D01*
X68475Y-35916D01*
X68418Y-35860D01*
X68111Y-35860D01*
X68029Y-35894D01*
X67965Y-35957D01*
X67931Y-36040D01*
X67931Y-36129D01*
X67931Y-36268D01*
X67987Y-36325D01*
X68475Y-36325D01*
X68475Y-36475D01*
X67987Y-36475D01*
X67931Y-36531D01*
X67931Y-36670D01*
X67931Y-36759D01*
X67965Y-36842D01*
X68029Y-36905D01*
X68111Y-36939D01*
X68418Y-36939D01*
X68475Y-36883D01*
X68475Y-41216D01*
X68418Y-41160D01*
X68111Y-41160D01*
X68029Y-41194D01*
X67965Y-41257D01*
X67931Y-41340D01*
X67931Y-41429D01*
X67931Y-41568D01*
X67987Y-41625D01*
X68475Y-41625D01*
X68475Y-41775D01*
X67987Y-41775D01*
X67931Y-41831D01*
X67931Y-41970D01*
X67931Y-42059D01*
X67965Y-42142D01*
X68029Y-42205D01*
X68111Y-42239D01*
X68418Y-42239D01*
X68475Y-42183D01*
X68475Y-46466D01*
X68468Y-46460D01*
X68161Y-46460D01*
X68079Y-46494D01*
X68015Y-46557D01*
X67981Y-46640D01*
X67981Y-46729D01*
X67981Y-46868D01*
X68037Y-46925D01*
X68525Y-46925D01*
X68525Y-47075D01*
X68037Y-47075D01*
X67981Y-47131D01*
X67981Y-47270D01*
X67981Y-47359D01*
X68015Y-47442D01*
X68079Y-47505D01*
X68161Y-47539D01*
X68468Y-47539D01*
X68525Y-47483D01*
X68525Y-51816D01*
X68468Y-51760D01*
X68161Y-51760D01*
X68079Y-51794D01*
X68015Y-51857D01*
X67981Y-51940D01*
X67981Y-52029D01*
X67981Y-52168D01*
X68037Y-52225D01*
X68525Y-52225D01*
X68525Y-52375D01*
X68037Y-52375D01*
X67981Y-52431D01*
X67981Y-52570D01*
X67981Y-52659D01*
X68015Y-52742D01*
X68079Y-52805D01*
X68161Y-52839D01*
X68468Y-52839D01*
X68525Y-52783D01*
X68525Y-55145D01*
X62780Y-55145D01*
X62525Y-54889D01*
X62525Y-29710D01*
X62980Y-29254D01*
X64819Y-29254D01*
X65275Y-29710D01*
X65275Y-31910D01*
X66289Y-32925D01*
X67969Y-32925D01*
X67969Y-32945D01*
X67969Y-33457D01*
X67990Y-33507D01*
X68028Y-33545D01*
X68065Y-33560D01*
X68065Y-34900D01*
X68090Y-35028D01*
X68163Y-35136D01*
X68886Y-35860D01*
X68681Y-35860D01*
X68625Y-35916D01*
X68625Y-36325D01*
X69112Y-36325D01*
X69168Y-36268D01*
X69168Y-36142D01*
X70563Y-37536D01*
X70671Y-37609D01*
X70799Y-37634D01*
X70928Y-37609D01*
X71036Y-37536D01*
X71065Y-37494D01*
X71065Y-42300D01*
X71090Y-42428D01*
X71163Y-42536D01*
X71271Y-42609D01*
X71400Y-42635D01*
X71528Y-42609D01*
X71636Y-42536D01*
X71665Y-42494D01*
X71665Y-47600D01*
X71690Y-47728D01*
X71763Y-47836D01*
X71871Y-47909D01*
X72000Y-47935D01*
X72128Y-47909D01*
X72236Y-47836D01*
X72265Y-47794D01*
X72265Y-48761D01*
X71763Y-49263D01*
X71690Y-49371D01*
X71665Y-49500D01*
X71665Y-51800D01*
X71690Y-51928D01*
X71763Y-52036D01*
X73163Y-53436D01*
X73271Y-53509D01*
X73400Y-53534D01*
X73528Y-53509D01*
X73636Y-53436D01*
X73709Y-53328D01*
X73734Y-53200D01*
X73709Y-53071D01*
X73636Y-52963D01*
X72335Y-51661D01*
X72335Y-49638D01*
X72836Y-49136D01*
X72909Y-49028D01*
X72909Y-49028D01*
X72934Y-48900D01*
X72935Y-48900D01*
X72935Y-36700D01*
X72909Y-36571D01*
X72909Y-36571D01*
X72885Y-36535D01*
X72836Y-36463D01*
X72836Y-36463D01*
X72735Y-36361D01*
X72735Y-33560D01*
X72771Y-33545D01*
X72809Y-33507D01*
X72829Y-33457D01*
X72830Y-33404D01*
X72830Y-32925D01*
X73589Y-32925D01*
X74445Y-33780D01*
X74445Y-54719D01*
X74445Y-54719D01*
G37*
G54D22*
X74445Y-54719D02*
X74019Y-55145D01*
X69218Y-55145D01*
X69218Y-52570D01*
X69218Y-52029D01*
X69218Y-47270D01*
X69218Y-46729D01*
X69218Y-46640D01*
X69184Y-46557D01*
X69168Y-46541D01*
X69168Y-41970D01*
X69168Y-41429D01*
X69168Y-36670D01*
X69168Y-36531D01*
X69112Y-36475D01*
X68625Y-36475D01*
X68625Y-36883D01*
X68681Y-36939D01*
X68988Y-36939D01*
X69070Y-36905D01*
X69134Y-36842D01*
X69168Y-36759D01*
X69168Y-36670D01*
X69168Y-41429D01*
X69168Y-41340D01*
X69134Y-41257D01*
X69070Y-41194D01*
X68988Y-41160D01*
X68681Y-41160D01*
X68625Y-41216D01*
X68625Y-41625D01*
X69112Y-41625D01*
X69168Y-41568D01*
X69168Y-41429D01*
X69168Y-41970D01*
X69168Y-41831D01*
X69112Y-41775D01*
X68625Y-41775D01*
X68625Y-42183D01*
X68681Y-42239D01*
X68988Y-42239D01*
X69070Y-42205D01*
X69134Y-42142D01*
X69168Y-42059D01*
X69168Y-41970D01*
X69168Y-46541D01*
X69120Y-46494D01*
X69038Y-46460D01*
X68731Y-46460D01*
X68675Y-46516D01*
X68675Y-46925D01*
X69162Y-46925D01*
X69218Y-46868D01*
X69218Y-46729D01*
X69218Y-47270D01*
X69218Y-47131D01*
X69162Y-47075D01*
X68675Y-47075D01*
X68675Y-47483D01*
X68731Y-47539D01*
X69038Y-47539D01*
X69120Y-47505D01*
X69184Y-47442D01*
X69218Y-47359D01*
X69218Y-47270D01*
X69218Y-52029D01*
X69218Y-51940D01*
X69184Y-51857D01*
X69120Y-51794D01*
X69038Y-51760D01*
X68731Y-51760D01*
X68675Y-51816D01*
X68675Y-52225D01*
X69162Y-52225D01*
X69218Y-52168D01*
X69218Y-52029D01*
X69218Y-52570D01*
X69218Y-52431D01*
X69162Y-52375D01*
X68675Y-52375D01*
X68675Y-52783D01*
X68731Y-52839D01*
X69038Y-52839D01*
X69120Y-52805D01*
X69184Y-52742D01*
X69218Y-52659D01*
X69218Y-52570D01*
X69218Y-55145D01*
X68525Y-55145D01*
X68525Y-52783D01*
X68525Y-52375D01*
X68525Y-52225D01*
X68525Y-51816D01*
X68525Y-47483D01*
X68525Y-47075D01*
X68525Y-46925D01*
X68525Y-46516D01*
X68475Y-46466D01*
X68475Y-42183D01*
X68475Y-41775D01*
X68475Y-41625D01*
X68475Y-41216D01*
X68475Y-36883D01*
X68475Y-36475D01*
X68475Y-36325D01*
X68475Y-35916D01*
X68418Y-35860D01*
X68111Y-35860D01*
X68029Y-35894D01*
X67965Y-35957D01*
X67931Y-36040D01*
X67931Y-36129D01*
X67931Y-36268D01*
X67987Y-36325D01*
X68475Y-36325D01*
X68475Y-36475D01*
X67987Y-36475D01*
X67931Y-36531D01*
X67931Y-36670D01*
X67931Y-36759D01*
X67965Y-36842D01*
X68029Y-36905D01*
X68111Y-36939D01*
X68418Y-36939D01*
X68475Y-36883D01*
X68475Y-41216D01*
X68418Y-41160D01*
X68111Y-41160D01*
X68029Y-41194D01*
X67965Y-41257D01*
X67931Y-41340D01*
X67931Y-41429D01*
X67931Y-41568D01*
X67987Y-41625D01*
X68475Y-41625D01*
X68475Y-41775D01*
X67987Y-41775D01*
X67931Y-41831D01*
X67931Y-41970D01*
X67931Y-42059D01*
X67965Y-42142D01*
X68029Y-42205D01*
X68111Y-42239D01*
X68418Y-42239D01*
X68475Y-42183D01*
X68475Y-46466D01*
X68468Y-46460D01*
X68161Y-46460D01*
X68079Y-46494D01*
X68015Y-46557D01*
X67981Y-46640D01*
X67981Y-46729D01*
X67981Y-46868D01*
X68037Y-46925D01*
X68525Y-46925D01*
X68525Y-47075D01*
X68037Y-47075D01*
X67981Y-47131D01*
X67981Y-47270D01*
X67981Y-47359D01*
X68015Y-47442D01*
X68079Y-47505D01*
X68161Y-47539D01*
X68468Y-47539D01*
X68525Y-47483D01*
X68525Y-51816D01*
X68468Y-51760D01*
X68161Y-51760D01*
X68079Y-51794D01*
X68015Y-51857D01*
X67981Y-51940D01*
X67981Y-52029D01*
X67981Y-52168D01*
X68037Y-52225D01*
X68525Y-52225D01*
X68525Y-52375D01*
X68037Y-52375D01*
X67981Y-52431D01*
X67981Y-52570D01*
X67981Y-52659D01*
X68015Y-52742D01*
X68079Y-52805D01*
X68161Y-52839D01*
X68468Y-52839D01*
X68525Y-52783D01*
X68525Y-55145D01*
X62780Y-55145D01*
X62525Y-54889D01*
X62525Y-29710D01*
X62980Y-29254D01*
X64819Y-29254D01*
X65275Y-29710D01*
X65275Y-31910D01*
X66289Y-32925D01*
X67969Y-32925D01*
X67969Y-32945D01*
X67969Y-33457D01*
X67990Y-33507D01*
X68028Y-33545D01*
X68065Y-33560D01*
X68065Y-34900D01*
X68090Y-35028D01*
X68163Y-35136D01*
X68886Y-35860D01*
X68681Y-35860D01*
X68625Y-35916D01*
X68625Y-36325D01*
X69112Y-36325D01*
X69168Y-36268D01*
X69168Y-36142D01*
X70563Y-37536D01*
X70671Y-37609D01*
X70799Y-37634D01*
X70928Y-37609D01*
X71036Y-37536D01*
X71065Y-37494D01*
X71065Y-42300D01*
X71090Y-42428D01*
X71163Y-42536D01*
X71271Y-42609D01*
X71400Y-42635D01*
X71528Y-42609D01*
X71636Y-42536D01*
X71665Y-42494D01*
X71665Y-47600D01*
X71690Y-47728D01*
X71763Y-47836D01*
X71871Y-47909D01*
X72000Y-47935D01*
X72128Y-47909D01*
X72236Y-47836D01*
X72265Y-47794D01*
X72265Y-48761D01*
X71763Y-49263D01*
X71690Y-49371D01*
X71665Y-49500D01*
X71665Y-51800D01*
X71690Y-51928D01*
X71763Y-52036D01*
X73163Y-53436D01*
X73271Y-53509D01*
X73400Y-53534D01*
X73528Y-53509D01*
X73636Y-53436D01*
X73709Y-53328D01*
X73734Y-53200D01*
X73709Y-53071D01*
X73636Y-52963D01*
X72335Y-51661D01*
X72335Y-49638D01*
X72836Y-49136D01*
X72909Y-49028D01*
X72909Y-49028D01*
X72934Y-48900D01*
X72935Y-48900D01*
X72935Y-36700D01*
X72909Y-36571D01*
X72909Y-36571D01*
X72885Y-36535D01*
X72836Y-36463D01*
X72836Y-36463D01*
X72735Y-36361D01*
X72735Y-33560D01*
X72771Y-33545D01*
X72809Y-33507D01*
X72829Y-33457D01*
X72830Y-33404D01*
X72830Y-32925D01*
X73589Y-32925D01*
X74445Y-33780D01*
X74445Y-54719D01*
M02*
