<?xml version="1.0" encoding="UTF-8" standalone="no"?>
<svg
   xmlns:dc="http://purl.org/dc/elements/1.1/"
   xmlns:cc="http://creativecommons.org/ns#"
   xmlns:rdf="http://www.w3.org/1999/02/22-rdf-syntax-ns#"
   xmlns:svg="http://www.w3.org/2000/svg"
   xmlns="http://www.w3.org/2000/svg"
   xmlns:sodipodi="http://sodipodi.sourceforge.net/DTD/sodipodi-0.dtd"
   xmlns:inkscape="http://www.inkscape.org/namespaces/inkscape"
   version="1.1"
   width="990"
   height="765"
   viewBox="0 0 109999.78 85000.001"
   id="svg3413"
   inkscape:version="0.48.4 r9939"
   sodipodi:docname="power-B.svg">
  <metadata
     id="metadata3649">
    <rdf:RDF>
      <cc:Work
         rdf:about="">
        <dc:format>image/svg+xml</dc:format>
        <dc:type
           rdf:resource="http://purl.org/dc/dcmitype/StillImage" />
        <dc:title>SVG Picture created as power-B_SilkS.svg date 2014/04/17 14:29:10 </dc:title>
      </cc:Work>
    </rdf:RDF>
  </metadata>
  <defs
     id="defs3647" />
  <sodipodi:namedview
     pagecolor="#ffffff"
     bordercolor="#666666"
     borderopacity="1"
     objecttolerance="10"
     gridtolerance="10"
     guidetolerance="10"
     inkscape:pageopacity="0"
     inkscape:pageshadow="2"
     inkscape:window-width="1920"
     inkscape:window-height="1156"
     id="namedview3645"
     showgrid="false"
     inkscape:zoom="0.47728836"
     inkscape:cx="339.56864"
     inkscape:cy="-203.12756"
     inkscape:window-x="0"
     inkscape:window-y="23"
     inkscape:window-maximized="1"
     inkscape:current-layer="svg3413" />
  <title
     id="title3415">SVG Picture created as power-B_SilkS.svg date 2014/04/17 14:29:10 </title>
  <desc
     id="desc3417">Picture generated by PCBNEW </desc>
  <g
     style="fill:#000000;fill-opacity:1;stroke:#000000;stroke-linecap:round;stroke-linejoin:round;stroke-opacity:1"
     transform="translate(1.2180652,57525.566)"
     id="g8" />
  <g
     transform="matrix(2.7741071,0,0,2.7741071,377.39754,2885.9734)"
     style="fill:#ffff00;fill-opacity:0;stroke:#ffff00;stroke-width:39.37009811;stroke-linecap:round;stroke-linejoin:round;stroke-opacity:1"
     id="g10">
    <path
       inkscape:connector-curvature="0"
       d="M 38712,1067 712,1067"
       id="path12" />
    <path
       inkscape:connector-curvature="0"
       d="m 38712,27267 0,-26200"
       id="path14" />
    <path
       inkscape:connector-curvature="0"
       d="m 712,27267 38000,0"
       id="path16" />
    <path
       inkscape:connector-curvature="0"
       d="m 712,1067 0,26200"
       id="path18" />
  </g>
  <g
     transform="translate(1.2180652,57525.566)"
     style="fill:#808000;fill-opacity:0;stroke:#808000;stroke-width:19.68499947;stroke-linecap:round;stroke-linejoin:round;stroke-opacity:1"
     id="g20" />
  <g
     transform="matrix(2.7741071,0,0,2.7741071,377.39754,2885.9734)"
     style="fill:#808000;fill-opacity:1;stroke:#808000;stroke-width:19.68499947;stroke-linecap:round;stroke-linejoin:round;stroke-opacity:1"
     id="g22">
    <circle
       sodipodi:ry="336.65701"
       sodipodi:rx="336.65701"
       sodipodi:cy="2467.5"
       sodipodi:cx="36512.5"
       d="m 36849.157,2467.5 c 0,185.9305 -150.726,336.657 -336.657,336.657 -185.931,0 -336.657,-150.7265 -336.657,-336.657 0,-185.9305 150.726,-336.657 336.657,-336.657 185.931,0 336.657,150.7265 336.657,336.657 z"
       cx="36512.5"
       cy="2467.5"
       r="336.65701"
       id="circle24" />
    <circle
       sodipodi:ry="336.65701"
       sodipodi:rx="336.65701"
       sodipodi:cy="3467.5"
       sodipodi:cx="36512.5"
       d="m 36849.157,3467.5 c 0,185.9305 -150.726,336.657 -336.657,336.657 -185.931,0 -336.657,-150.7265 -336.657,-336.657 0,-185.9305 150.726,-336.657 336.657,-336.657 185.931,0 336.657,150.7265 336.657,336.657 z"
       cx="36512.5"
       cy="3467.5"
       r="336.65701"
       id="circle26" />
    <circle
       sodipodi:ry="336.65701"
       sodipodi:rx="336.65701"
       sodipodi:cy="2467.5"
       sodipodi:cx="35512.5"
       d="m 35849.157,2467.5 c 0,185.9305 -150.726,336.657 -336.657,336.657 -185.931,0 -336.657,-150.7265 -336.657,-336.657 0,-185.9305 150.726,-336.657 336.657,-336.657 185.931,0 336.657,150.7265 336.657,336.657 z"
       cx="35512.5"
       cy="2467.5"
       r="336.65701"
       id="circle28" />
    <circle
       sodipodi:ry="336.65701"
       sodipodi:rx="336.65701"
       sodipodi:cy="3467.5"
       sodipodi:cx="35512.5"
       d="m 35849.157,3467.5 c 0,185.9305 -150.726,336.657 -336.657,336.657 -185.931,0 -336.657,-150.7265 -336.657,-336.657 0,-185.9305 150.726,-336.657 336.657,-336.657 185.931,0 336.657,150.7265 336.657,336.657 z"
       cx="35512.5"
       cy="3467.5"
       r="336.65701"
       id="circle30" />
    <circle
       sodipodi:ry="336.65701"
       sodipodi:rx="336.65701"
       sodipodi:cy="2467.5"
       sodipodi:cx="34512.5"
       d="m 34849.157,2467.5 c 0,185.9305 -150.726,336.657 -336.657,336.657 -185.931,0 -336.657,-150.7265 -336.657,-336.657 0,-185.9305 150.726,-336.657 336.657,-336.657 185.931,0 336.657,150.7265 336.657,336.657 z"
       cx="34512.5"
       cy="2467.5"
       r="336.65701"
       id="circle32" />
    <circle
       sodipodi:ry="336.65701"
       sodipodi:rx="336.65701"
       sodipodi:cy="3467.5"
       sodipodi:cx="34512.5"
       d="m 34849.157,3467.5 c 0,185.9305 -150.726,336.657 -336.657,336.657 -185.931,0 -336.657,-150.7265 -336.657,-336.657 0,-185.9305 150.726,-336.657 336.657,-336.657 185.931,0 336.657,150.7265 336.657,336.657 z"
       cx="34512.5"
       cy="3467.5"
       r="336.65701"
       id="circle34" />
    <circle
       sodipodi:ry="336.65701"
       sodipodi:rx="336.65701"
       sodipodi:cy="2467.5"
       sodipodi:cx="33512.5"
       d="m 33849.157,2467.5 c 0,185.9305 -150.726,336.657 -336.657,336.657 -185.931,0 -336.657,-150.7265 -336.657,-336.657 0,-185.9305 150.726,-336.657 336.657,-336.657 185.931,0 336.657,150.7265 336.657,336.657 z"
       cx="33512.5"
       cy="2467.5"
       r="336.65701"
       id="circle36" />
    <circle
       sodipodi:ry="336.65701"
       sodipodi:rx="336.65701"
       sodipodi:cy="3467.5"
       sodipodi:cx="33512.5"
       d="m 33849.157,3467.5 c 0,185.9305 -150.726,336.657 -336.657,336.657 -185.931,0 -336.657,-150.7265 -336.657,-336.657 0,-185.9305 150.726,-336.657 336.657,-336.657 185.931,0 336.657,150.7265 336.657,336.657 z"
       cx="33512.5"
       cy="3467.5"
       r="336.65701"
       id="circle38" />
    <circle
       sodipodi:ry="336.65701"
       sodipodi:rx="336.65701"
       sodipodi:cy="2467.5"
       sodipodi:cx="32512.5"
       d="m 32849.157,2467.5 c 0,185.9305 -150.726,336.657 -336.657,336.657 -185.931,0 -336.657,-150.7265 -336.657,-336.657 0,-185.9305 150.726,-336.657 336.657,-336.657 185.931,0 336.657,150.7265 336.657,336.657 z"
       cx="32512.5"
       cy="2467.5"
       r="336.65701"
       id="circle40" />
    <circle
       sodipodi:ry="336.65701"
       sodipodi:rx="336.65701"
       sodipodi:cy="3467.5"
       sodipodi:cx="32512.5"
       d="m 32849.157,3467.5 c 0,185.9305 -150.726,336.657 -336.657,336.657 -185.931,0 -336.657,-150.7265 -336.657,-336.657 0,-185.9305 150.726,-336.657 336.657,-336.657 185.931,0 336.657,150.7265 336.657,336.657 z"
       cx="32512.5"
       cy="3467.5"
       r="336.65701"
       id="circle42" />
    <polyline
       style="fill-rule:evenodd"
       points="1777,26182 1247,26182 1247,25652 1777,25652 1777,26182 "
       id="polyline44" />
    <circle
       sodipodi:ry="265.15701"
       sodipodi:rx="265.15701"
       sodipodi:cy="24917.5"
       sodipodi:cx="1512.5"
       d="m 1777.657,24917.5 c 0,146.442 -118.7148,265.157 -265.157,265.157 -146.4422,0 -265.157,-118.715 -265.157,-265.157 0,-146.442 118.7148,-265.157 265.157,-265.157 146.4422,0 265.157,118.715 265.157,265.157 z"
       cx="1512.5"
       cy="24917.5"
       r="265.15701"
       id="circle46" />
    <circle
       sodipodi:ry="265.15701"
       sodipodi:rx="265.15701"
       sodipodi:cy="23917.5"
       sodipodi:cx="1512.5"
       d="m 1777.657,23917.5 c 0,146.442 -118.7148,265.157 -265.157,265.157 -146.4422,0 -265.157,-118.715 -265.157,-265.157 0,-146.442 118.7148,-265.157 265.157,-265.157 146.4422,0 265.157,118.715 265.157,265.157 z"
       cx="1512.5"
       cy="23917.5"
       r="265.15701"
       id="circle48" />
    <polyline
       style="fill-rule:evenodd"
       points="32328,19272 32328,18662 33096,18662 33096,19272 32328,19272 "
       id="polyline50" />
    <polyline
       style="fill-rule:evenodd"
       points="32278,13972 32278,13362 33046,13362 33046,13972 32278,13972 "
       id="polyline52" />
    <polyline
       style="fill-rule:evenodd"
       points="32328,24572 32328,23962 33096,23962 33096,24572 32328,24572 "
       id="polyline54" />
    <polyline
       style="fill-rule:evenodd"
       points="32278,8672 32278,8062 33046,8062 33046,8672 32278,8672 "
       id="polyline56" />
    <circle
       sodipodi:ry="580.70898"
       sodipodi:rx="580.70898"
       sodipodi:cy="21560.199"
       sodipodi:cx="12574.5"
       d="m 13155.209,21560.199 c 0,320.717 -259.992,580.709 -580.709,580.709 -320.717,0 -580.709,-259.992 -580.709,-580.709 0,-320.716 259.992,-580.709 580.709,-580.709 320.717,0 580.709,259.993 580.709,580.709 z"
       cx="12574.5"
       cy="21560.199"
       r="580.70898"
       id="circle58" />
    <circle
       sodipodi:ry="580.70898"
       sodipodi:rx="580.70898"
       sodipodi:cy="21560.199"
       sodipodi:cx="5684.7402"
       d="m 6265.4492,21560.199 c 0,320.717 -259.9922,580.709 -580.709,580.709 -320.7167,0 -580.709,-259.992 -580.709,-580.709 0,-320.716 259.9923,-580.709 580.709,-580.709 320.7168,0 580.709,259.993 580.709,580.709 z"
       cx="5684.7402"
       cy="21560.199"
       r="580.70898"
       id="circle60" />
    <circle
       sodipodi:ry="580.70898"
       sodipodi:rx="580.70898"
       sodipodi:cy="3056.28"
       sodipodi:cx="9621.75"
       d="m 10202.459,3056.28 c 0,320.7167 -259.9923,580.709 -580.709,580.709 -320.7167,0 -580.709,-259.9923 -580.709,-580.709 0,-320.7167 259.9923,-580.709 580.709,-580.709 320.7167,0 580.709,259.9923 580.709,580.709 z"
       cx="9621.75"
       cy="3056.28"
       r="580.70898"
       id="circle62" />
    <circle
       sodipodi:ry="580.70898"
       sodipodi:rx="580.70898"
       sodipodi:cy="3056.28"
       sodipodi:cx="1747.74"
       d="m 2328.449,3056.28 c 0,320.7167 -259.9923,580.709 -580.709,580.709 -320.7167,0 -580.709,-259.9923 -580.709,-580.709 0,-320.7167 259.9923,-580.709 580.709,-580.709 320.7167,0 580.709,259.9923 580.709,580.709 z"
       cx="1747.74"
       cy="3056.28"
       r="580.70898"
       id="circle64" />
  </g>
  <g
     transform="matrix(2.7741071,0,0,2.7741071,377.39754,2885.9734)"
     style="fill:#00a000;fill-opacity:1;stroke:#00a000;stroke-width:19.68499947;stroke-linecap:round;stroke-linejoin:round;stroke-opacity:1"
     id="g66">
    <polyline
       style="fill-rule:evenodd"
       points="36227,4896 36797,4896 36797,5388 36227,5388 36227,4896 "
       id="polyline68" />
    <polyline
       style="fill-rule:evenodd"
       points="36227,4146 36797,4146 36797,4638 36227,4638 36227,4146 "
       id="polyline70" />
    <polyline
       style="fill-rule:evenodd"
       points="35227,4896 35797,4896 35797,5388 35227,5388 35227,4896 "
       id="polyline72" />
    <polyline
       style="fill-rule:evenodd"
       points="35227,4146 35797,4146 35797,4638 35227,4638 35227,4146 "
       id="polyline74" />
    <polyline
       style="fill-rule:evenodd"
       points="33227,4896 33797,4896 33797,5388 33227,5388 33227,4896 "
       id="polyline76" />
    <polyline
       style="fill-rule:evenodd"
       points="33227,4146 33797,4146 33797,4638 33227,4638 33227,4146 "
       id="polyline78" />
    <polyline
       style="fill-rule:evenodd"
       points="4133,23632 4133,24202 3641,24202 3641,23632 4133,23632 "
       id="polyline80" />
    <polyline
       style="fill-rule:evenodd"
       points="4883,23632 4883,24202 4391,24202 4391,23632 4883,23632 "
       id="polyline82" />
    <polyline
       style="fill-rule:evenodd"
       points="4133,24632 4133,25202 3641,25202 3641,24632 4133,24632 "
       id="polyline84" />
    <polyline
       style="fill-rule:evenodd"
       points="4883,24632 4883,25202 4391,25202 4391,24632 4883,24632 "
       id="polyline86" />
    <polyline
       style="fill-rule:evenodd"
       points="32227,4896 32797,4896 32797,5388 32227,5388 32227,4896 "
       id="polyline88" />
    <polyline
       style="fill-rule:evenodd"
       points="32227,4146 32797,4146 32797,4638 32227,4638 32227,4146 "
       id="polyline90" />
    <polyline
       style="fill-rule:evenodd"
       points="5378,23639 6146,23639 6146,24053 5378,24053 5378,23639 "
       id="polyline92" />
    <polyline
       style="fill-rule:evenodd"
       points="5378,24781 6146,24781 6146,25195 5378,25195 5378,24781 "
       id="polyline94" />
    <polyline
       style="fill-rule:evenodd"
       points="2378,23639 3146,23639 3146,24053 2378,24053 2378,23639 "
       id="polyline96" />
    <polyline
       style="fill-rule:evenodd"
       points="2378,24781 3146,24781 3146,25195 2378,25195 2378,24781 "
       id="polyline98" />
    <polyline
       style="fill-rule:evenodd"
       points="2146,6445 1378,6445 1378,6031 2146,6031 2146,6445 "
       id="polyline100" />
    <polyline
       style="fill-rule:evenodd"
       points="2146,5303 1378,5303 1378,4889 2146,4889 2146,5303 "
       id="polyline102" />
  </g>
  <g
     transform="matrix(2.7741071,0,0,2.7741071,377.39754,2885.9734)"
     style="fill:#808000;fill-opacity:1;stroke:#808000;stroke-width:19.68499947;stroke-linecap:round;stroke-linejoin:round;stroke-opacity:1"
     id="g104">
    <circle
       sodipodi:ry="790.15698"
       sodipodi:rx="790.15698"
       sodipodi:cy="5967.5"
       sodipodi:cx="37812.5"
       d="m 38602.657,5967.5 c 0,436.3917 -353.765,790.157 -790.157,790.157 -436.392,0 -790.157,-353.7653 -790.157,-790.157 0,-436.3917 353.765,-790.157 790.157,-790.157 436.392,0 790.157,353.7653 790.157,790.157 z"
       cx="37812.5"
       cy="5967.5"
       r="790.15698"
       id="circle106" />
    <circle
       sodipodi:ry="790.15698"
       sodipodi:rx="790.15698"
       sodipodi:cy="22767.5"
       sodipodi:cx="37812.5"
       d="m 38602.657,22767.5 c 0,436.392 -353.765,790.157 -790.157,790.157 -436.392,0 -790.157,-353.765 -790.157,-790.157 0,-436.392 353.765,-790.157 790.157,-790.157 436.392,0 790.157,353.765 790.157,790.157 z"
       cx="37812.5"
       cy="22767.5"
       r="790.15698"
       id="circle108" />
    <circle
       sodipodi:ry="790.15698"
       sodipodi:rx="790.15698"
       sodipodi:cy="1967.5"
       sodipodi:cx="21312.5"
       d="m 22102.657,1967.5 c 0,436.3917 -353.765,790.157 -790.157,790.157 -436.392,0 -790.157,-353.7653 -790.157,-790.157 0,-436.3917 353.765,-790.157 790.157,-790.157 436.392,0 790.157,353.7653 790.157,790.157 z"
       cx="21312.5"
       cy="1967.5"
       r="790.15698"
       id="circle110" />
    <circle
       sodipodi:ry="790.15698"
       sodipodi:rx="790.15698"
       sodipodi:cy="25067.5"
       sodipodi:cx="8712.5"
       d="m 9502.657,25067.5 c 0,436.392 -353.7653,790.157 -790.157,790.157 -436.3917,0 -790.157,-353.765 -790.157,-790.157 0,-436.392 353.7653,-790.157 790.157,-790.157 436.3917,0 790.157,353.765 790.157,790.157 z"
       cx="8712.5"
       cy="25067.5"
       r="790.15698"
       id="circle112" />
  </g>
  <g
     transform="matrix(2.7741071,0,0,2.7741071,377.39754,2885.9734)"
     style="fill:#c0c0c0;fill-opacity:1;stroke:#c0c0c0;stroke-width:19.68499947;stroke-linecap:round;stroke-linejoin:round;stroke-opacity:1"
     id="g114">
    <circle
       sodipodi:ry="165.157"
       sodipodi:rx="165.157"
       sodipodi:cy="9267.5"
       sodipodi:cx="34912.5"
       d="m 35077.657,9267.5 c 0,91.2137 -73.943,165.157 -165.157,165.157 -91.214,0 -165.157,-73.9433 -165.157,-165.157 0,-91.2137 73.943,-165.157 165.157,-165.157 91.214,0 165.157,73.9433 165.157,165.157 z"
       cx="34912.5"
       cy="9267.5"
       r="165.157"
       id="circle116" />
    <circle
       sodipodi:ry="165.157"
       sodipodi:rx="165.157"
       sodipodi:cy="14267.5"
       sodipodi:cx="35512.5"
       d="m 35677.657,14267.5 c 0,91.214 -73.943,165.157 -165.157,165.157 -91.214,0 -165.157,-73.943 -165.157,-165.157 0,-91.214 73.943,-165.157 165.157,-165.157 91.214,0 165.157,73.943 165.157,165.157 z"
       cx="35512.5"
       cy="14267.5"
       r="165.157"
       id="circle118" />
    <circle
       sodipodi:ry="165.157"
       sodipodi:rx="165.157"
       sodipodi:cy="25167.5"
       sodipodi:cx="37512.5"
       d="m 37677.657,25167.5 c 0,91.214 -73.943,165.157 -165.157,165.157 -91.214,0 -165.157,-73.943 -165.157,-165.157 0,-91.214 73.943,-165.157 165.157,-165.157 91.214,0 165.157,73.943 165.157,165.157 z"
       cx="37512.5"
       cy="25167.5"
       r="165.157"
       id="circle120" />
    <circle
       sodipodi:ry="165.157"
       sodipodi:rx="165.157"
       sodipodi:cy="19567.5"
       sodipodi:cx="36112.5"
       d="m 36277.657,19567.5 c 0,91.214 -73.943,165.157 -165.157,165.157 -91.214,0 -165.157,-73.943 -165.157,-165.157 0,-91.214 73.943,-165.157 165.157,-165.157 91.214,0 165.157,73.943 165.157,165.157 z"
       cx="36112.5"
       cy="19567.5"
       r="165.157"
       id="circle122" />
    <circle
       sodipodi:ry="165.157"
       sodipodi:rx="165.157"
       sodipodi:cy="26667.5"
       sodipodi:cx="31512.5"
       d="m 31677.657,26667.5 c 0,91.214 -73.943,165.157 -165.157,165.157 -91.214,0 -165.157,-73.943 -165.157,-165.157 0,-91.214 73.943,-165.157 165.157,-165.157 91.214,0 165.157,73.943 165.157,165.157 z"
       cx="31512.5"
       cy="26667.5"
       r="165.157"
       id="circle124" />
    <circle
       sodipodi:ry="165.157"
       sodipodi:rx="165.157"
       sodipodi:cy="5767.5"
       sodipodi:cx="30512.5"
       d="m 30677.657,5767.5 c 0,91.2137 -73.943,165.157 -165.157,165.157 -91.214,0 -165.157,-73.9433 -165.157,-165.157 0,-91.2137 73.943,-165.157 165.157,-165.157 91.214,0 165.157,73.9433 165.157,165.157 z"
       cx="30512.5"
       cy="5767.5"
       r="165.157"
       id="circle126" />
    <circle
       sodipodi:ry="165.157"
       sodipodi:rx="165.157"
       sodipodi:cy="24967.5"
       sodipodi:cx="35912.5"
       d="m 36077.657,24967.5 c 0,91.214 -73.943,165.157 -165.157,165.157 -91.214,0 -165.157,-73.943 -165.157,-165.157 0,-91.214 73.943,-165.157 165.157,-165.157 91.214,0 165.157,73.943 165.157,165.157 z"
       cx="35912.5"
       cy="24967.5"
       r="165.157"
       id="circle128" />
    <circle
       sodipodi:ry="165.157"
       sodipodi:rx="165.157"
       sodipodi:cy="23967.5"
       sodipodi:cx="37312.5"
       d="m 37477.657,23967.5 c 0,91.214 -73.943,165.157 -165.157,165.157 -91.214,0 -165.157,-73.943 -165.157,-165.157 0,-91.214 73.943,-165.157 165.157,-165.157 91.214,0 165.157,73.943 165.157,165.157 z"
       cx="37312.5"
       cy="23967.5"
       r="165.157"
       id="circle130" />
    <circle
       sodipodi:ry="165.157"
       sodipodi:rx="165.157"
       sodipodi:cy="21167.5"
       sodipodi:cx="37712.5"
       d="m 37877.657,21167.5 c 0,91.214 -73.943,165.157 -165.157,165.157 -91.214,0 -165.157,-73.943 -165.157,-165.157 0,-91.214 73.943,-165.157 165.157,-165.157 91.214,0 165.157,73.943 165.157,165.157 z"
       cx="37712.5"
       cy="21167.5"
       r="165.157"
       id="circle132" />
    <circle
       sodipodi:ry="165.157"
       sodipodi:rx="165.157"
       sodipodi:cy="18567.5"
       sodipodi:cx="37712.5"
       d="m 37877.657,18567.5 c 0,91.214 -73.943,165.157 -165.157,165.157 -91.214,0 -165.157,-73.943 -165.157,-165.157 0,-91.214 73.943,-165.157 165.157,-165.157 91.214,0 165.157,73.943 165.157,165.157 z"
       cx="37712.5"
       cy="18567.5"
       r="165.157"
       id="circle134" />
    <circle
       sodipodi:ry="165.157"
       sodipodi:rx="165.157"
       sodipodi:cy="15967.5"
       sodipodi:cx="37712.5"
       d="m 37877.657,15967.5 c 0,91.214 -73.943,165.157 -165.157,165.157 -91.214,0 -165.157,-73.943 -165.157,-165.157 0,-91.214 73.943,-165.157 165.157,-165.157 91.214,0 165.157,73.943 165.157,165.157 z"
       cx="37712.5"
       cy="15967.5"
       r="165.157"
       id="circle136" />
    <circle
       sodipodi:ry="165.157"
       sodipodi:rx="165.157"
       sodipodi:cy="13067.5"
       sodipodi:cx="37712.5"
       d="m 37877.657,13067.5 c 0,91.214 -73.943,165.157 -165.157,165.157 -91.214,0 -165.157,-73.943 -165.157,-165.157 0,-91.214 73.943,-165.157 165.157,-165.157 91.214,0 165.157,73.943 165.157,165.157 z"
       cx="37712.5"
       cy="13067.5"
       r="165.157"
       id="circle138" />
    <circle
       sodipodi:ry="165.157"
       sodipodi:rx="165.157"
       sodipodi:cy="10567.5"
       sodipodi:cx="37712.5"
       d="m 37877.657,10567.5 c 0,91.214 -73.943,165.157 -165.157,165.157 -91.214,0 -165.157,-73.943 -165.157,-165.157 0,-91.214 73.943,-165.157 165.157,-165.157 91.214,0 165.157,73.943 165.157,165.157 z"
       cx="37712.5"
       cy="10567.5"
       r="165.157"
       id="circle140" />
    <circle
       sodipodi:ry="165.157"
       sodipodi:rx="165.157"
       sodipodi:cy="7767.5"
       sodipodi:cx="37412.5"
       d="m 37577.657,7767.5 c 0,91.2137 -73.943,165.157 -165.157,165.157 -91.214,0 -165.157,-73.9433 -165.157,-165.157 0,-91.2137 73.943,-165.157 165.157,-165.157 91.214,0 165.157,73.9433 165.157,165.157 z"
       cx="37412.5"
       cy="7767.5"
       r="165.157"
       id="circle142" />
    <circle
       sodipodi:ry="165.157"
       sodipodi:rx="165.157"
       sodipodi:cy="6367.5"
       sodipodi:cx="36012.5"
       d="m 36177.657,6367.5 c 0,91.2137 -73.943,165.157 -165.157,165.157 -91.214,0 -165.157,-73.9433 -165.157,-165.157 0,-91.2137 73.943,-165.157 165.157,-165.157 91.214,0 165.157,73.9433 165.157,165.157 z"
       cx="36012.5"
       cy="6367.5"
       r="165.157"
       id="circle144" />
    <circle
       sodipodi:ry="165.157"
       sodipodi:rx="165.157"
       sodipodi:cy="7567.5"
       sodipodi:cx="36012.5"
       d="m 36177.657,7567.5 c 0,91.2137 -73.943,165.157 -165.157,165.157 -91.214,0 -165.157,-73.9433 -165.157,-165.157 0,-91.2137 73.943,-165.157 165.157,-165.157 91.214,0 165.157,73.9433 165.157,165.157 z"
       cx="36012.5"
       cy="7567.5"
       r="165.157"
       id="circle146" />
    <circle
       sodipodi:ry="165.157"
       sodipodi:rx="165.157"
       sodipodi:cy="7167.5"
       sodipodi:cx="34712.5"
       d="m 34877.657,7167.5 c 0,91.2137 -73.943,165.157 -165.157,165.157 -91.214,0 -165.157,-73.9433 -165.157,-165.157 0,-91.2137 73.943,-165.157 165.157,-165.157 91.214,0 165.157,73.9433 165.157,165.157 z"
       cx="34712.5"
       cy="7167.5"
       r="165.157"
       id="circle148" />
    <circle
       sodipodi:ry="165.157"
       sodipodi:rx="165.157"
       sodipodi:cy="5767.5"
       sodipodi:cx="34312.5"
       d="m 34477.657,5767.5 c 0,91.2137 -73.943,165.157 -165.157,165.157 -91.214,0 -165.157,-73.9433 -165.157,-165.157 0,-91.2137 73.943,-165.157 165.157,-165.157 91.214,0 165.157,73.9433 165.157,165.157 z"
       cx="34312.5"
       cy="5767.5"
       r="165.157"
       id="circle150" />
    <circle
       sodipodi:ry="165.157"
       sodipodi:rx="165.157"
       sodipodi:cy="12867.5"
       sodipodi:cx="15212.5"
       d="m 15377.657,12867.5 c 0,91.214 -73.943,165.157 -165.157,165.157 -91.214,0 -165.157,-73.943 -165.157,-165.157 0,-91.214 73.943,-165.157 165.157,-165.157 91.214,0 165.157,73.943 165.157,165.157 z"
       cx="15212.5"
       cy="12867.5"
       r="165.157"
       id="circle152" />
    <circle
       sodipodi:ry="165.157"
       sodipodi:rx="165.157"
       sodipodi:cy="18067.5"
       sodipodi:cx="15212.5"
       d="m 15377.657,18067.5 c 0,91.214 -73.943,165.157 -165.157,165.157 -91.214,0 -165.157,-73.943 -165.157,-165.157 0,-91.214 73.943,-165.157 165.157,-165.157 91.214,0 165.157,73.943 165.157,165.157 z"
       cx="15212.5"
       cy="18067.5"
       r="165.157"
       id="circle154" />
    <circle
       sodipodi:ry="165.157"
       sodipodi:rx="165.157"
       sodipodi:cy="23467.5"
       sodipodi:cx="15212.5"
       d="m 15377.657,23467.5 c 0,91.214 -73.943,165.157 -165.157,165.157 -91.214,0 -165.157,-73.943 -165.157,-165.157 0,-91.214 73.943,-165.157 165.157,-165.157 91.214,0 165.157,73.943 165.157,165.157 z"
       cx="15212.5"
       cy="23467.5"
       r="165.157"
       id="circle156" />
    <circle
       sodipodi:ry="165.157"
       sodipodi:rx="165.157"
       sodipodi:cy="8067.5"
       sodipodi:cx="15112.5"
       d="m 15277.657,8067.5 c 0,91.2137 -73.943,165.157 -165.157,165.157 -91.214,0 -165.157,-73.9433 -165.157,-165.157 0,-91.2137 73.943,-165.157 165.157,-165.157 91.214,0 165.157,73.9433 165.157,165.157 z"
       cx="15112.5"
       cy="8067.5"
       r="165.157"
       id="circle158" />
  </g>
  <g
     transform="matrix(2.7741071,0,0,2.7741071,377.39754,2885.9734)"
     style="fill:#00a000;fill-opacity:1;stroke:#00a000;stroke-width:400;stroke-linecap:round;stroke-linejoin:round;stroke-opacity:1"
     id="g160">
    <path
       inkscape:connector-curvature="0"
       d="m 32512,6867 0,-1725"
       id="path162" />
    <path
       inkscape:connector-curvature="0"
       d="M 34912,9267 32512,6867"
       id="path164" />
    <path
       inkscape:connector-curvature="0"
       d="m 33512,5142 0,1925"
       id="path166" />
    <path
       inkscape:connector-curvature="0"
       d="m 35512,9067 0,5200"
       id="path168" />
    <path
       inkscape:connector-curvature="0"
       d="m 33512,7067 2000,2000"
       id="path170" />
    <path
       inkscape:connector-curvature="0"
       d="m 36112,21467 600,-600"
       id="path172" />
    <path
       inkscape:connector-curvature="0"
       d="m 36112,23767 0,-2300"
       id="path174" />
    <path
       inkscape:connector-curvature="0"
       d="M 37512,25167 36112,23767"
       id="path176" />
    <path
       inkscape:connector-curvature="0"
       d="m 36512,5142 0,3325"
       id="path178" />
    <path
       inkscape:connector-curvature="0"
       d="m 36512,8467 200,200"
       id="path180" />
    <path
       inkscape:connector-curvature="0"
       d="m 36712,8667 0,12200"
       id="path182" />
    <path
       inkscape:connector-curvature="0"
       d="m 35512,5142 0,3125"
       id="path184" />
    <path
       inkscape:connector-curvature="0"
       d="m 36112,8867 0,10700"
       id="path186" />
    <path
       inkscape:connector-curvature="0"
       d="m 35512,8267 600,600"
       id="path188" />
    <path
       inkscape:connector-curvature="0"
       d="m 32712,24267 0,1200"
       id="path190" />
    <path
       inkscape:connector-curvature="0"
       d="m 32712,25467 -1200,1200"
       id="path192" />
    <path
       inkscape:connector-curvature="0"
       d="m 32712,18967 0,5300"
       id="path194" />
    <path
       inkscape:connector-curvature="0"
       d="m 32662,13667 0,5250"
       id="path196" />
    <path
       inkscape:connector-curvature="0"
       d="m 32662,18917 50,50"
       id="path198" />
    <path
       inkscape:connector-curvature="0"
       d="m 32662,8367 0,5300"
       id="path200" />
    <path
       inkscape:connector-curvature="0"
       d="m 32662,7917 0,450"
       id="path202" />
    <path
       inkscape:connector-curvature="0"
       d="m 30512,5767 2150,2150"
       id="path204" />
  </g>
  <g
     transform="matrix(2.7741071,0,0,2.7741071,377.39754,2885.9734)"
     style="fill:#00a000;fill-opacity:1;stroke:#00a000;stroke-width:200;stroke-linecap:round;stroke-linejoin:round;stroke-opacity:1"
     id="g206">
    <path
       inkscape:connector-curvature="0"
       d="m 35912,25367 0,-400"
       id="path208" />
    <path
       inkscape:connector-curvature="0"
       d="M 37112,26567 35912,25367"
       id="path210" />
    <path
       inkscape:connector-curvature="0"
       d="m 37412,26567 -300,0"
       id="path212" />
    <path
       inkscape:connector-curvature="0"
       d="m 38112,25867 -700,700"
       id="path214" />
    <path
       inkscape:connector-curvature="0"
       d="m 38112,24767 0,1100"
       id="path216" />
    <path
       inkscape:connector-curvature="0"
       d="m 37312,23967 800,800"
       id="path218" />
    <path
       inkscape:connector-curvature="0"
       d="m 37712,18567 0,2600"
       id="path220" />
    <path
       inkscape:connector-curvature="0"
       d="m 37712,13067 0,2900"
       id="path222" />
    <path
       inkscape:connector-curvature="0"
       d="m 37712,8067 0,2500"
       id="path224" />
    <path
       inkscape:connector-curvature="0"
       d="m 37412,7767 300,300"
       id="path226" />
    <path
       inkscape:connector-curvature="0"
       d="m 36012,7567 0,-1200"
       id="path228" />
  </g>
  <g
     transform="matrix(2.7741071,0,0,2.7741071,377.39754,2885.9734)"
     style="fill:#00a000;fill-opacity:1;stroke:#00a000;stroke-width:400;stroke-linecap:round;stroke-linejoin:round;stroke-opacity:1"
     id="g230">
    <path
       inkscape:connector-curvature="0"
       d="m 34712,6167 0,1000"
       id="path232" />
    <path
       inkscape:connector-curvature="0"
       d="m 34312,5767 400,400"
       id="path234" />
    <path
       inkscape:connector-curvature="0"
       d="m 2762,24988 1054,0"
       id="path236" />
    <path
       inkscape:connector-curvature="0"
       d="m 3816,24988 71,-71"
       id="path238" />
    <path
       inkscape:connector-curvature="0"
       d="m 1512,24917 1179,0"
       id="path240" />
    <path
       inkscape:connector-curvature="0"
       d="m 2691,24917 71,71"
       id="path242" />
    <path
       inkscape:connector-curvature="0"
       d="m 2762,23846 1054,0"
       id="path244" />
    <path
       inkscape:connector-curvature="0"
       d="m 3816,23846 71,71"
       id="path246" />
    <path
       inkscape:connector-curvature="0"
       d="m 1512,23917 1179,0"
       id="path248" />
    <path
       inkscape:connector-curvature="0"
       d="m 2691,23917 71,-71"
       id="path250" />
    <path
       inkscape:connector-curvature="0"
       d="m 15212,8167 0,4700"
       id="path252" />
    <path
       inkscape:connector-curvature="0"
       d="m 15212,12867 0,5200"
       id="path254" />
    <path
       inkscape:connector-curvature="0"
       d="m 15212,18067 0,5400"
       id="path256" />
    <path
       inkscape:connector-curvature="0"
       d="m 15112,8067 100,100"
       id="path258" />
    <path
       inkscape:connector-curvature="0"
       d="m 33512,3467 0,925"
       id="path260" />
    <path
       inkscape:connector-curvature="0"
       d="m 35512,3467 0,925"
       id="path262" />
    <path
       inkscape:connector-curvature="0"
       d="m 36512,3467 0,925"
       id="path264" />
    <path
       inkscape:connector-curvature="0"
       d="m 1747,3056 0,2025"
       id="path266" />
    <path
       inkscape:connector-curvature="0"
       d="m 1747,5081 15,15"
       id="path268" />
    <path
       inkscape:connector-curvature="0"
       d="m 12574,21560 -2855,0"
       id="path270" />
    <path
       inkscape:connector-curvature="0"
       d="m 6291,24988 -529,0"
       id="path272" />
    <path
       inkscape:connector-curvature="0"
       d="M 9719,21560 6291,24988"
       id="path274" />
    <path
       inkscape:connector-curvature="0"
       d="m 4637,24917 1054,0"
       id="path276" />
    <path
       inkscape:connector-curvature="0"
       d="m 5691,24917 71,71"
       id="path278" />
    <path
       inkscape:connector-curvature="0"
       d="m 5762,23846 0,-2209"
       id="path280" />
    <path
       inkscape:connector-curvature="0"
       d="m 5762,21637 -78,-77"
       id="path282" />
    <path
       inkscape:connector-curvature="0"
       d="m 4637,23917 1054,0"
       id="path284" />
    <path
       inkscape:connector-curvature="0"
       d="m 5691,23917 71,-71"
       id="path286" />
    <path
       inkscape:connector-curvature="0"
       d="m 1762,6238 0,11399"
       id="path288" />
    <path
       inkscape:connector-curvature="0"
       d="m 1762,17637 3922,3923"
       id="path290" />
    <path
       inkscape:connector-curvature="0"
       d="m 32512,3467 0,925"
       id="path292" />
  </g>
  <g
     transform="matrix(2.7741071,0,0,2.7741071,377.39754,2885.9734)"
     style="fill:#00a000;fill-opacity:1;stroke:#00a000;stroke-width:19.68499947;stroke-linecap:round;stroke-linejoin:round;stroke-opacity:1"
     id="g294">
    <polyline
       style="fill-rule:evenodd"
       points="26387,26857 26131,27112 15547,27112 15547,23467 15547,18067 15547,12867 15547,8167 15521,8039 15521,8039 15449,7930 15349,7830 15240,7758 15112,7732 14984,7758 14875,7830 14803,7939 14777,8067 14803,8195 14875,8304 14877,8306 14877,12867 14877,18067 14877,23467 14903,23595 14975,23704 15084,23776 15212,23802 15340,23776 15449,23704 15521,23595 15547,23467 15547,27112 13300,27112 13300,21416 13189,21149 12986,20945 12719,20834 12430,20834 12164,20944 11959,21148 11927,21225 10347,21225 10347,2912 10237,2645 10033,2441 9766,2330 9478,2330 9211,2440 9007,2644 8896,2911 8896,3199 9006,3466 9210,3671 9476,3781 9765,3781 10032,3671 10236,3467 10347,3201 10347,2912 10347,21225 9719,21225 9591,21250 9555,21274 9482,21323 6410,24395 6410,21416 6300,21149 6096,20945 5829,20834 5541,20834 5464,20866 2473,17875 2473,2912 2363,2645 2159,2441 1892,2330 1604,2330 1337,2440 1133,2644 1022,2911 1022,3199 1132,3466 1336,3671 1412,3702 1412,4745 1342,4745 1292,4765 1254,4803 1233,4853 1233,4906 1233,5339 1254,5389 1292,5427 1341,5448 1395,5448 2182,5448 2232,5427 2270,5389 2291,5340 2291,5286 2291,4853 2270,4803 2232,4765 2183,4745 2129,4745 2082,4745 2082,3702 2158,3671 2362,3467 2473,3201 2473,2912 2473,17875 2097,17499 2097,6589 2182,6589 2232,6569 2270,6531 2291,6481 2291,6428 2291,5995 2270,5945 2232,5907 2183,5886 2129,5886 1342,5886 1292,5907 1254,5945 1233,5994 1233,6048 1233,6481 1254,6531 1292,6569 1341,6589 1395,6589 1427,6589 1427,17637 1453,17766 1525,17874 4990,21339 4959,21415 4959,21703 5069,21970 5273,22174 5427,22239 5427,23495 5342,23495 5292,23515 5254,23553 5242,23582 5023,23582 5008,23546 4970,23508 4920,23487 4866,23487 4354,23487 4305,23507 4267,23545 4262,23557 4258,23546 4220,23508 4170,23487 4116,23487 3604,23487 3555,23507 3551,23511 3222,23511 3183,23495 3129,23495 2342,23495 2292,23515 2254,23553 2242,23582 1757,23582 1745,23570 1594,23507 1431,23507 1280,23569 1165,23684 1102,23835 1102,23998 1164,24149 1279,24264 1430,24327 1593,24327 1744,24265 1757,24252 2691,24252 2819,24226 2819,24226 2862,24198 2862,24198 3182,24198 3223,24181 3496,24181 3496,24239 3516,24288 3554,24326 3604,24347 3658,24347 4170,24347 4219,24327 4257,24289 4262,24277 4266,24288 4304,24326 4354,24347 4408,24347 4920,24347 4969,24327 5007,24289 5023,24252 5691,24252 5819,24226 5819,24226 5862,24198 5862,24198 6182,24198 6232,24177 6270,24139 6291,24090 6291,24036 6291,23603 6270,23553 6232,23515 6183,23495 6129,23495 6097,23495 6097,22173 6299,21971 6410,21705 6410,21416 6410,24395 6169,24636 6129,24636 5862,24636 5819,24608 5691,24582 5023,24582 5008,24546 4970,24508 4920,24487 4866,24487 4354,24487 4305,24507 4267,24545 4262,24557 4258,24546 4220,24508 4170,24487 4116,24487 3604,24487 3555,24507 3517,24545 3496,24595 3496,24649 3496,24653 3222,24653 3183,24636 3129,24636 2862,24636 2819,24608 2691,24582 1757,24582 1745,24570 1594,24507 1431,24507 1280,24569 1165,24684 1102,24835 1102,24998 1164,25149 1279,25264 1430,25327 1593,25327 1744,25265 1757,25252 2242,25252 2254,25281 2292,25319 2341,25339 2395,25339 3182,25339 3223,25323 3551,25323 3554,25326 3604,25347 3658,25347 4170,25347 4219,25327 4257,25289 4262,25277 4266,25288 4304,25326 4354,25347 4408,25347 4920,25347 4969,25327 5007,25289 5023,25252 5242,25252 5254,25281 5292,25319 5341,25339 5395,25339 6182,25339 6223,25323 6291,25323 6419,25297 6419,25297 6528,25225 9858,21895 11927,21895 11959,21970 12162,22174 12429,22285 12718,22285 12984,22175 13189,21971 13299,21705 13300,21416 13300,27112 9647,27112 9647,24882 9505,24538 9242,24275 8899,24132 8527,24132 8183,24274 7920,24537 7777,24880 7777,25252 7919,25596 8182,25859 8525,26002 8897,26002 9241,25860 9504,25597 9647,25254 9647,24882 9647,27112 2012,27112 2012,26237 2012,25597 1978,25515 1915,25451 1832,25417 1742,25417 1643,25417 1587,25473 1587,25842 1956,25842 2012,25786 2012,25597 2012,26237 2012,26048 1956,25992 1587,25992 1587,26361 1643,26417 1742,26417 1832,26417 1915,26383 1978,26319 2012,26237 2012,27112 1437,27112 1437,26361 1437,25992 1437,25842 1437,25473 1381,25417 1282,25417 1192,25417 1109,25451 1046,25515 1012,25597 1012,25786 1068,25842 1437,25842 1437,25992 1068,25992 1012,26048 1012,26237 1046,26319 1109,26383 1192,26417 1282,26417 1381,26417 1437,26361 1437,27112 1393,27112 867,26586 867,2348 1993,1222 20735,1222 20520,1437 20377,1780 20377,2152 20519,2496 20782,2759 21125,2902 21497,2902 21841,2760 22104,2497 22247,2154 22247,1782 22105,1438 21889,1222 25931,1222 26387,1677 26387,26857 "
       id="polyline296" />
  </g>
  <g
     transform="matrix(2.7741071,0,0,2.7741071,377.39754,2885.9734)"
     style="fill:#00a000;fill-opacity:0;stroke:#00a000;stroke-width:50;stroke-linecap:round;stroke-linejoin:round;stroke-opacity:1"
     id="g298">
    <polyline
       fill="none;"
       points="26387,26857 26131,27112 15547,27112 15547,23467 15547,18067 15547,12867 15547,8167 15521,8039 15521,8039 15449,7930 15349,7830 15240,7758 15112,7732 14984,7758 14875,7830 14803,7939 14777,8067 14803,8195 14875,8304 14877,8306 14877,12867 14877,18067 14877,23467 14903,23595 14975,23704 15084,23776 15212,23802 15340,23776 15449,23704 15521,23595 15547,23467 15547,27112 13300,27112 13300,21416 13189,21149 12986,20945 12719,20834 12430,20834 12164,20944 11959,21148 11927,21225 10347,21225 10347,2912 10237,2645 10033,2441 9766,2330 9478,2330 9211,2440 9007,2644 8896,2911 8896,3199 9006,3466 9210,3671 9476,3781 9765,3781 10032,3671 10236,3467 10347,3201 10347,2912 10347,21225 9719,21225 9591,21250 9555,21274 9482,21323 6410,24395 6410,21416 6300,21149 6096,20945 5829,20834 5541,20834 5464,20866 2473,17875 2473,2912 2363,2645 2159,2441 1892,2330 1604,2330 1337,2440 1133,2644 1022,2911 1022,3199 1132,3466 1336,3671 1412,3702 1412,4745 1342,4745 1292,4765 1254,4803 1233,4853 1233,4906 1233,5339 1254,5389 1292,5427 1341,5448 1395,5448 2182,5448 2232,5427 2270,5389 2291,5340 2291,5286 2291,4853 2270,4803 2232,4765 2183,4745 2129,4745 2082,4745 2082,3702 2158,3671 2362,3467 2473,3201 2473,2912 2473,17875 2097,17499 2097,6589 2182,6589 2232,6569 2270,6531 2291,6481 2291,6428 2291,5995 2270,5945 2232,5907 2183,5886 2129,5886 1342,5886 1292,5907 1254,5945 1233,5994 1233,6048 1233,6481 1254,6531 1292,6569 1341,6589 1395,6589 1427,6589 1427,17637 1453,17766 1525,17874 4990,21339 4959,21415 4959,21703 5069,21970 5273,22174 5427,22239 5427,23495 5342,23495 5292,23515 5254,23553 5242,23582 5023,23582 5008,23546 4970,23508 4920,23487 4866,23487 4354,23487 4305,23507 4267,23545 4262,23557 4258,23546 4220,23508 4170,23487 4116,23487 3604,23487 3555,23507 3551,23511 3222,23511 3183,23495 3129,23495 2342,23495 2292,23515 2254,23553 2242,23582 1757,23582 1745,23570 1594,23507 1431,23507 1280,23569 1165,23684 1102,23835 1102,23998 1164,24149 1279,24264 1430,24327 1593,24327 1744,24265 1757,24252 2691,24252 2819,24226 2819,24226 2862,24198 2862,24198 3182,24198 3223,24181 3496,24181 3496,24239 3516,24288 3554,24326 3604,24347 3658,24347 4170,24347 4219,24327 4257,24289 4262,24277 4266,24288 4304,24326 4354,24347 4408,24347 4920,24347 4969,24327 5007,24289 5023,24252 5691,24252 5819,24226 5819,24226 5862,24198 5862,24198 6182,24198 6232,24177 6270,24139 6291,24090 6291,24036 6291,23603 6270,23553 6232,23515 6183,23495 6129,23495 6097,23495 6097,22173 6299,21971 6410,21705 6410,21416 6410,24395 6169,24636 6129,24636 5862,24636 5819,24608 5691,24582 5023,24582 5008,24546 4970,24508 4920,24487 4866,24487 4354,24487 4305,24507 4267,24545 4262,24557 4258,24546 4220,24508 4170,24487 4116,24487 3604,24487 3555,24507 3517,24545 3496,24595 3496,24649 3496,24653 3222,24653 3183,24636 3129,24636 2862,24636 2819,24608 2691,24582 1757,24582 1745,24570 1594,24507 1431,24507 1280,24569 1165,24684 1102,24835 1102,24998 1164,25149 1279,25264 1430,25327 1593,25327 1744,25265 1757,25252 2242,25252 2254,25281 2292,25319 2341,25339 2395,25339 3182,25339 3223,25323 3551,25323 3554,25326 3604,25347 3658,25347 4170,25347 4219,25327 4257,25289 4262,25277 4266,25288 4304,25326 4354,25347 4408,25347 4920,25347 4969,25327 5007,25289 5023,25252 5242,25252 5254,25281 5292,25319 5341,25339 5395,25339 6182,25339 6223,25323 6291,25323 6419,25297 6419,25297 6528,25225 9858,21895 11927,21895 11959,21970 12162,22174 12429,22285 12718,22285 12984,22175 13189,21971 13299,21705 13300,21416 13300,27112 9647,27112 9647,24882 9505,24538 9242,24275 8899,24132 8527,24132 8183,24274 7920,24537 7777,24880 7777,25252 7919,25596 8182,25859 8525,26002 8897,26002 9241,25860 9504,25597 9647,25254 9647,24882 9647,27112 2012,27112 2012,26237 2012,25597 1978,25515 1915,25451 1832,25417 1742,25417 1643,25417 1587,25473 1587,25842 1956,25842 2012,25786 2012,25597 2012,26237 2012,26048 1956,25992 1587,25992 1587,26361 1643,26417 1742,26417 1832,26417 1915,26383 1978,26319 2012,26237 2012,27112 1437,27112 1437,26361 1437,25992 1437,25842 1437,25473 1381,25417 1282,25417 1192,25417 1109,25451 1046,25515 1012,25597 1012,25786 1068,25842 1437,25842 1437,25992 1068,25992 1012,26048 1012,26237 1046,26319 1109,26383 1192,26417 1282,26417 1381,26417 1437,26361 1437,27112 1393,27112 867,26586 867,2348 1993,1222 20735,1222 20520,1437 20377,1780 20377,2152 20519,2496 20782,2759 21125,2902 21497,2902 21841,2760 22104,2497 22247,2154 22247,1782 22105,1438 21889,1222 25931,1222 26387,1677 26387,26857 "
       id="polyline300" />
  </g>
  <g
     transform="matrix(2.7741071,0,0,2.7741071,377.39754,2885.9734)"
     style="fill:#00a000;fill-opacity:1;stroke:#00a000;stroke-width:19.68499947;stroke-linecap:round;stroke-linejoin:round;stroke-opacity:1"
     id="g302">
    <polyline
       style="fill-rule:evenodd"
       points="38557,3786 37702,4642 37091,4642 37091,2529 37071,2303 37024,2188 36933,2152 36827,2258 36827,2046 36791,1955 36574,1888 36348,1908 36233,1955 36197,2046 36512,2361 36827,2046 36827,2258 36618,2467 36933,2782 37024,2746 37091,2529 37091,4642 36942,4642 36942,4621 36942,4109 36922,4060 36884,4022 36847,4006 36847,3813 36920,3740 36993,3563 36994,3372 36920,3195 36785,3059 36691,3020 36791,2979 36827,2888 36512,2573 36406,2679 36406,2467 36091,2152 36012,2183 35933,2152 35827,2258 35827,2046 35791,1955 35574,1888 35348,1908 35233,1955 35197,2046 35512,2361 35827,2046 35827,2258 35618,2467 35933,2782 36012,2751 36091,2782 36406,2467 36406,2679 36197,2888 36233,2979 36347,3014 36240,3059 36104,3194 36031,3371 36030,3562 36104,3739 36177,3813 36177,4006 36141,4021 36103,4059 36082,4109 36082,4163 36082,4642 35942,4642 35942,4621 35942,4109 35922,4060 35884,4022 35847,4006 35847,3813 35920,3740 35993,3563 35994,3372 35920,3195 35785,3059 35691,3020 35791,2979 35827,2888 35512,2573 35406,2679 35406,2467 35091,2152 35012,2183 34933,2152 34827,2258 34827,2046 34791,1955 34574,1888 34348,1908 34233,1955 34197,2046 34512,2361 34827,2046 34827,2258 34618,2467 34933,2782 35012,2751 35091,2782 35406,2467 35406,2679 35197,2888 35233,2979 35347,3014 35240,3059 35104,3194 35065,3288 35024,3188 34933,3152 34827,3258 34827,3046 34796,2967 34827,2888 34512,2573 34406,2679 34406,2467 34091,2152 34012,2183 33933,2152 33827,2258 33827,2046 33791,1955 33574,1888 33348,1908 33233,1955 33197,2046 33512,2361 33827,2046 33827,2258 33618,2467 33933,2782 34012,2751 34091,2782 34406,2467 34406,2679 34197,2888 34228,2967 34197,3046 34512,3361 34827,3046 34827,3258 34618,3467 34933,3782 35024,3746 35059,3632 35104,3739 35177,3813 35177,4006 35141,4021 35103,4059 35082,4109 35082,4163 35082,4642 34827,4642 34827,3888 34512,3573 34197,3888 34233,3979 34450,4046 34676,4026 34791,3979 34827,3888 34827,4642 33942,4642 33942,4621 33942,4109 33922,4060 33884,4022 33847,4006 33847,3813 33920,3740 33959,3646 34000,3746 34091,3782 34406,3467 34091,3152 34000,3188 33965,3302 33920,3195 33785,3059 33691,3020 33791,2979 33827,2888 33512,2573 33406,2679 33406,2467 33091,2152 33012,2183 32933,2152 32827,2258 32827,2046 32791,1955 32574,1888 32348,1908 32233,1955 32197,2046 32512,2361 32827,2046 32827,2258 32618,2467 32933,2782 33012,2751 33091,2782 33406,2467 33406,2679 33197,2888 33233,2979 33347,3014 33240,3059 33104,3194 33031,3371 33030,3562 33104,3739 33177,3813 33177,4006 33141,4021 33103,4059 33082,4109 33082,4163 33082,4642 32942,4642 32942,4621 32942,4109 32922,4060 32884,4022 32847,4006 32847,3813 32920,3740 32993,3563 32994,3372 32920,3195 32785,3059 32691,3020 32791,2979 32827,2888 32512,2573 32406,2679 32406,2467 32091,2152 32000,2188 31933,2405 31953,2631 32000,2746 32091,2782 32406,2467 32406,2679 32197,2888 32233,2979 32347,3014 32240,3059 32104,3194 32031,3371 32030,3562 32104,3739 32177,3813 32177,4006 32141,4021 32103,4059 32082,4109 32082,4163 32082,4642 30422,4642 29637,3857 29637,1677 30093,1222 38131,1222 38557,1648 38557,3786 "
       id="polyline304" />
  </g>
  <g
     transform="matrix(2.7741071,0,0,2.7741071,377.39754,2885.9734)"
     style="fill:#00a000;fill-opacity:0;stroke:#00a000;stroke-width:50;stroke-linecap:round;stroke-linejoin:round;stroke-opacity:1"
     id="g306">
    <polyline
       fill="none;"
       points="38557,3786 37702,4642 37091,4642 37091,2529 37071,2303 37024,2188 36933,2152 36827,2258 36827,2046 36791,1955 36574,1888 36348,1908 36233,1955 36197,2046 36512,2361 36827,2046 36827,2258 36618,2467 36933,2782 37024,2746 37091,2529 37091,4642 36942,4642 36942,4621 36942,4109 36922,4060 36884,4022 36847,4006 36847,3813 36920,3740 36993,3563 36994,3372 36920,3195 36785,3059 36691,3020 36791,2979 36827,2888 36512,2573 36406,2679 36406,2467 36091,2152 36012,2183 35933,2152 35827,2258 35827,2046 35791,1955 35574,1888 35348,1908 35233,1955 35197,2046 35512,2361 35827,2046 35827,2258 35618,2467 35933,2782 36012,2751 36091,2782 36406,2467 36406,2679 36197,2888 36233,2979 36347,3014 36240,3059 36104,3194 36031,3371 36030,3562 36104,3739 36177,3813 36177,4006 36141,4021 36103,4059 36082,4109 36082,4163 36082,4642 35942,4642 35942,4621 35942,4109 35922,4060 35884,4022 35847,4006 35847,3813 35920,3740 35993,3563 35994,3372 35920,3195 35785,3059 35691,3020 35791,2979 35827,2888 35512,2573 35406,2679 35406,2467 35091,2152 35012,2183 34933,2152 34827,2258 34827,2046 34791,1955 34574,1888 34348,1908 34233,1955 34197,2046 34512,2361 34827,2046 34827,2258 34618,2467 34933,2782 35012,2751 35091,2782 35406,2467 35406,2679 35197,2888 35233,2979 35347,3014 35240,3059 35104,3194 35065,3288 35024,3188 34933,3152 34827,3258 34827,3046 34796,2967 34827,2888 34512,2573 34406,2679 34406,2467 34091,2152 34012,2183 33933,2152 33827,2258 33827,2046 33791,1955 33574,1888 33348,1908 33233,1955 33197,2046 33512,2361 33827,2046 33827,2258 33618,2467 33933,2782 34012,2751 34091,2782 34406,2467 34406,2679 34197,2888 34228,2967 34197,3046 34512,3361 34827,3046 34827,3258 34618,3467 34933,3782 35024,3746 35059,3632 35104,3739 35177,3813 35177,4006 35141,4021 35103,4059 35082,4109 35082,4163 35082,4642 34827,4642 34827,3888 34512,3573 34197,3888 34233,3979 34450,4046 34676,4026 34791,3979 34827,3888 34827,4642 33942,4642 33942,4621 33942,4109 33922,4060 33884,4022 33847,4006 33847,3813 33920,3740 33959,3646 34000,3746 34091,3782 34406,3467 34091,3152 34000,3188 33965,3302 33920,3195 33785,3059 33691,3020 33791,2979 33827,2888 33512,2573 33406,2679 33406,2467 33091,2152 33012,2183 32933,2152 32827,2258 32827,2046 32791,1955 32574,1888 32348,1908 32233,1955 32197,2046 32512,2361 32827,2046 32827,2258 32618,2467 32933,2782 33012,2751 33091,2782 33406,2467 33406,2679 33197,2888 33233,2979 33347,3014 33240,3059 33104,3194 33031,3371 33030,3562 33104,3739 33177,3813 33177,4006 33141,4021 33103,4059 33082,4109 33082,4163 33082,4642 32942,4642 32942,4621 32942,4109 32922,4060 32884,4022 32847,4006 32847,3813 32920,3740 32993,3563 32994,3372 32920,3195 32785,3059 32691,3020 32791,2979 32827,2888 32512,2573 32406,2679 32406,2467 32091,2152 32000,2188 31933,2405 31953,2631 32000,2746 32091,2782 32406,2467 32406,2679 32197,2888 32233,2979 32347,3014 32240,3059 32104,3194 32031,3371 32030,3562 32104,3739 32177,3813 32177,4006 32141,4021 32103,4059 32082,4109 32082,4163 32082,4642 30422,4642 29637,3857 29637,1677 30093,1222 38131,1222 38557,1648 38557,3786 "
       id="polyline308" />
  </g>
  <g
     transform="matrix(2.7741071,0,0,2.7741071,377.39754,2885.9734)"
     style="fill:#00a000;fill-opacity:1;stroke:#00a000;stroke-width:19.68499947;stroke-linecap:round;stroke-linejoin:round;stroke-opacity:1"
     id="g310">
    <polyline
       style="fill-rule:evenodd"
       points="35177,8258 33847,6928 33847,5528 33883,5513 33921,5475 33942,5425 33942,5371 33942,4892 35082,4892 35082,4913 35082,5425 35102,5474 35140,5512 35177,5528 35177,8258 "
       id="polyline312" />
  </g>
  <g
     transform="matrix(2.7741071,0,0,2.7741071,377.39754,2885.9734)"
     style="fill:#00a000;fill-opacity:0;stroke:#00a000;stroke-width:50;stroke-linecap:round;stroke-linejoin:round;stroke-opacity:1"
     id="g314">
    <polyline
       fill="none;"
       points="35177,8258 33847,6928 33847,5528 33883,5513 33921,5475 33942,5425 33942,5371 33942,4892 35082,4892 35082,4913 35082,5425 35102,5474 35140,5512 35177,5528 35177,8258 "
       id="polyline316" />
  </g>
  <g
     transform="matrix(2.7741071,0,0,2.7741071,377.39754,2885.9734)"
     style="fill:#00a000;fill-opacity:1;stroke:#00a000;stroke-width:19.68499947;stroke-linecap:round;stroke-linejoin:round;stroke-opacity:1"
     id="g318">
    <polyline
       style="fill-rule:evenodd"
       points="36177,8458 35847,8128 35847,5528 35883,5513 35921,5475 35942,5425 35942,5371 35942,4892 36082,4892 36082,4913 36082,5425 36102,5474 36140,5512 36177,5528 36177,8458 "
       id="polyline320" />
  </g>
  <g
     transform="matrix(2.7741071,0,0,2.7741071,377.39754,2885.9734)"
     style="fill:#00a000;fill-opacity:0;stroke:#00a000;stroke-width:50;stroke-linecap:round;stroke-linejoin:round;stroke-opacity:1"
     id="g322">
    <polyline
       fill="none;"
       points="36177,8458 35847,8128 35847,5528 35883,5513 35921,5475 35942,5425 35942,5371 35942,4892 36082,4892 36082,4913 36082,5425 36102,5474 36140,5512 36177,5528 36177,8458 "
       id="polyline324" />
  </g>
  <g
     transform="matrix(2.7741071,0,0,2.7741071,377.39754,2885.9734)"
     style="fill:#00a000;fill-opacity:1;stroke:#00a000;stroke-width:19.68499947;stroke-linecap:round;stroke-linejoin:round;stroke-opacity:1"
     id="g326">
    <polyline
       style="fill-rule:evenodd"
       points="38557,26686 38131,27112 33331,27112 33331,24537 33331,23997 33331,19237 33331,18697 33331,18607 33296,18524 33281,18509 33281,13937 33281,13397 33281,8637 33281,8498 33224,8442 32737,8442 32737,8851 32793,8907 33100,8907 33183,8873 33246,8810 33281,8727 33281,8637 33281,13397 33281,13307 33246,13224 33183,13161 33100,13127 32793,13127 32737,13183 32737,13592 33224,13592 33281,13536 33281,13397 33281,13937 33281,13798 33224,13742 32737,13742 32737,14151 32793,14207 33100,14207 33183,14173 33246,14110 33281,14027 33281,13937 33281,18509 33233,18461 33150,18427 32843,18427 32787,18483 32787,18892 33274,18892 33331,18836 33331,18697 33331,19237 33331,19098 33274,19042 32787,19042 32787,19451 32843,19507 33150,19507 33233,19473 33296,19410 33331,19327 33331,19237 33331,23997 33331,23907 33296,23824 33233,23761 33150,23727 32843,23727 32787,23783 32787,24192 33274,24192 33331,24136 33331,23997 33331,24537 33331,24398 33274,24342 32787,24342 32787,24751 32843,24807 33150,24807 33233,24773 33296,24710 33331,24627 33331,24537 33331,27112 32637,27112 32637,24751 32637,24342 32637,24192 32637,23783 32637,19451 32637,19042 32637,18892 32637,18483 32587,18433 32587,14151 32587,13742 32587,13592 32587,13183 32587,8851 32587,8442 32587,8292 32587,7883 32531,7827 32224,7827 32141,7861 32078,7924 32043,8007 32043,8097 32043,8236 32100,8292 32587,8292 32587,8442 32100,8442 32043,8498 32043,8637 32043,8727 32078,8810 32141,8873 32224,8907 32531,8907 32587,8851 32587,13183 32531,13127 32224,13127 32141,13161 32078,13224 32043,13307 32043,13397 32043,13536 32100,13592 32587,13592 32587,13742 32100,13742 32043,13798 32043,13937 32043,14027 32078,14110 32141,14173 32224,14207 32531,14207 32587,14151 32587,18433 32581,18427 32274,18427 32191,18461 32128,18524 32093,18607 32093,18697 32093,18836 32150,18892 32637,18892 32637,19042 32150,19042 32093,19098 32093,19237 32093,19327 32128,19410 32191,19473 32274,19507 32581,19507 32637,19451 32637,23783 32581,23727 32274,23727 32191,23761 32128,23824 32093,23907 32093,23997 32093,24136 32150,24192 32637,24192 32637,24342 32150,24342 32093,24398 32093,24537 32093,24627 32128,24710 32191,24773 32274,24807 32581,24807 32637,24751 32637,27112 26893,27112 26637,26857 26637,1677 27093,1222 28931,1222 29387,1677 29387,3877 30402,4892 32082,4892 32082,4913 32082,5425 32102,5474 32140,5512 32177,5528 32177,6867 32203,6995 32275,7104 32998,7827 32793,7827 32737,7883 32737,8292 33224,8292 33281,8236 33281,8109 34675,9504 34784,9576 34912,9602 35040,9576 35149,9504 35177,9462 35177,14267 35203,14395 35275,14504 35384,14576 35512,14602 35640,14576 35749,14504 35777,14462 35777,19567 35803,19695 35875,19804 35984,19876 36112,19902 36240,19876 36349,19804 36377,19762 36377,20728 35875,21230 35803,21339 35777,21467 35777,23767 35803,23895 35875,24004 37275,25404 37384,25476 37512,25502 37640,25476 37749,25404 37821,25295 37847,25167 37821,25039 37749,24930 36447,23628 36447,21606 36949,21104 37021,20995 37021,20995 37047,20867 37047,20867 37047,8667 37021,8539 37021,8539 36997,8503 36949,8430 36949,8430 36847,8328 36847,5528 36883,5513 36921,5475 36942,5425 36942,5371 36942,4892 37702,4892 37842,5032 37627,5032 37283,5174 37020,5437 36877,5780 36877,6152 37019,6496 37282,6759 37625,6902 37997,6902 38341,6760 38557,6544 38557,22190 38342,21975 37999,21832 37627,21832 37283,21974 37020,22237 36877,22580 36877,22952 37019,23296 37282,23559 37625,23702 37997,23702 38341,23560 38557,23344 38557,26686 "
       id="polyline328" />
  </g>
  <g
     transform="matrix(2.7741071,0,0,2.7741071,377.39754,2885.9734)"
     style="fill:#00a000;fill-opacity:0;stroke:#00a000;stroke-width:50;stroke-linecap:round;stroke-linejoin:round;stroke-opacity:1"
     id="g330">
    <polyline
       fill="none;"
       points="38557,26686 38131,27112 33331,27112 33331,24537 33331,23997 33331,19237 33331,18697 33331,18607 33296,18524 33281,18509 33281,13937 33281,13397 33281,8637 33281,8498 33224,8442 32737,8442 32737,8851 32793,8907 33100,8907 33183,8873 33246,8810 33281,8727 33281,8637 33281,13397 33281,13307 33246,13224 33183,13161 33100,13127 32793,13127 32737,13183 32737,13592 33224,13592 33281,13536 33281,13397 33281,13937 33281,13798 33224,13742 32737,13742 32737,14151 32793,14207 33100,14207 33183,14173 33246,14110 33281,14027 33281,13937 33281,18509 33233,18461 33150,18427 32843,18427 32787,18483 32787,18892 33274,18892 33331,18836 33331,18697 33331,19237 33331,19098 33274,19042 32787,19042 32787,19451 32843,19507 33150,19507 33233,19473 33296,19410 33331,19327 33331,19237 33331,23997 33331,23907 33296,23824 33233,23761 33150,23727 32843,23727 32787,23783 32787,24192 33274,24192 33331,24136 33331,23997 33331,24537 33331,24398 33274,24342 32787,24342 32787,24751 32843,24807 33150,24807 33233,24773 33296,24710 33331,24627 33331,24537 33331,27112 32637,27112 32637,24751 32637,24342 32637,24192 32637,23783 32637,19451 32637,19042 32637,18892 32637,18483 32587,18433 32587,14151 32587,13742 32587,13592 32587,13183 32587,8851 32587,8442 32587,8292 32587,7883 32531,7827 32224,7827 32141,7861 32078,7924 32043,8007 32043,8097 32043,8236 32100,8292 32587,8292 32587,8442 32100,8442 32043,8498 32043,8637 32043,8727 32078,8810 32141,8873 32224,8907 32531,8907 32587,8851 32587,13183 32531,13127 32224,13127 32141,13161 32078,13224 32043,13307 32043,13397 32043,13536 32100,13592 32587,13592 32587,13742 32100,13742 32043,13798 32043,13937 32043,14027 32078,14110 32141,14173 32224,14207 32531,14207 32587,14151 32587,18433 32581,18427 32274,18427 32191,18461 32128,18524 32093,18607 32093,18697 32093,18836 32150,18892 32637,18892 32637,19042 32150,19042 32093,19098 32093,19237 32093,19327 32128,19410 32191,19473 32274,19507 32581,19507 32637,19451 32637,23783 32581,23727 32274,23727 32191,23761 32128,23824 32093,23907 32093,23997 32093,24136 32150,24192 32637,24192 32637,24342 32150,24342 32093,24398 32093,24537 32093,24627 32128,24710 32191,24773 32274,24807 32581,24807 32637,24751 32637,27112 26893,27112 26637,26857 26637,1677 27093,1222 28931,1222 29387,1677 29387,3877 30402,4892 32082,4892 32082,4913 32082,5425 32102,5474 32140,5512 32177,5528 32177,6867 32203,6995 32275,7104 32998,7827 32793,7827 32737,7883 32737,8292 33224,8292 33281,8236 33281,8109 34675,9504 34784,9576 34912,9602 35040,9576 35149,9504 35177,9462 35177,14267 35203,14395 35275,14504 35384,14576 35512,14602 35640,14576 35749,14504 35777,14462 35777,19567 35803,19695 35875,19804 35984,19876 36112,19902 36240,19876 36349,19804 36377,19762 36377,20728 35875,21230 35803,21339 35777,21467 35777,23767 35803,23895 35875,24004 37275,25404 37384,25476 37512,25502 37640,25476 37749,25404 37821,25295 37847,25167 37821,25039 37749,24930 36447,23628 36447,21606 36949,21104 37021,20995 37021,20995 37047,20867 37047,20867 37047,8667 37021,8539 37021,8539 36997,8503 36949,8430 36949,8430 36847,8328 36847,5528 36883,5513 36921,5475 36942,5425 36942,5371 36942,4892 37702,4892 37842,5032 37627,5032 37283,5174 37020,5437 36877,5780 36877,6152 37019,6496 37282,6759 37625,6902 37997,6902 38341,6760 38557,6544 38557,22190 38342,21975 37999,21832 37627,21832 37283,21974 37020,22237 36877,22580 36877,22952 37019,23296 37282,23559 37625,23702 37997,23702 38341,23560 38557,23344 38557,26686 "
       id="polyline332" />
  </g>
  <g
     transform="translate(1.2180652,57525.566)"
     style="fill:#ffffff;fill-opacity:0;stroke:#ffffff;stroke-width:19.68499947;stroke-linecap:round;stroke-linejoin:round;stroke-opacity:1"
     id="g334" />
  <g
     transform="matrix(2.7741071,0,0,2.7741071,377.39754,2885.9734)"
     style="fill:#ffffff;fill-opacity:1;stroke:#ffffff;stroke-width:19.68499947;stroke-linecap:round;stroke-linejoin:round;stroke-opacity:1"
     id="g336">
    <circle
       sodipodi:ry="115.157"
       sodipodi:rx="115.157"
       sodipodi:cy="9267.5"
       sodipodi:cx="34912.5"
       d="m 35027.657,9267.5 c 0,63.5995 -51.558,115.157 -115.157,115.157 -63.599,0 -115.157,-51.5575 -115.157,-115.157 0,-63.5995 51.558,-115.157 115.157,-115.157 63.599,0 115.157,51.5575 115.157,115.157 z"
       cx="34912.5"
       cy="9267.5"
       r="115.157"
       id="circle338" />
    <circle
       sodipodi:ry="115.157"
       sodipodi:rx="115.157"
       sodipodi:cy="14267.5"
       sodipodi:cx="35512.5"
       d="m 35627.657,14267.5 c 0,63.599 -51.558,115.157 -115.157,115.157 -63.599,0 -115.157,-51.558 -115.157,-115.157 0,-63.599 51.558,-115.157 115.157,-115.157 63.599,0 115.157,51.558 115.157,115.157 z"
       cx="35512.5"
       cy="14267.5"
       r="115.157"
       id="circle340" />
    <circle
       sodipodi:ry="115.157"
       sodipodi:rx="115.157"
       sodipodi:cy="25167.5"
       sodipodi:cx="37512.5"
       d="m 37627.657,25167.5 c 0,63.599 -51.558,115.157 -115.157,115.157 -63.599,0 -115.157,-51.558 -115.157,-115.157 0,-63.599 51.558,-115.157 115.157,-115.157 63.599,0 115.157,51.558 115.157,115.157 z"
       cx="37512.5"
       cy="25167.5"
       r="115.157"
       id="circle342" />
    <circle
       sodipodi:ry="115.157"
       sodipodi:rx="115.157"
       sodipodi:cy="19567.5"
       sodipodi:cx="36112.5"
       d="m 36227.657,19567.5 c 0,63.599 -51.558,115.157 -115.157,115.157 -63.599,0 -115.157,-51.558 -115.157,-115.157 0,-63.599 51.558,-115.157 115.157,-115.157 63.599,0 115.157,51.558 115.157,115.157 z"
       cx="36112.5"
       cy="19567.5"
       r="115.157"
       id="circle344" />
    <circle
       sodipodi:ry="115.157"
       sodipodi:rx="115.157"
       sodipodi:cy="26667.5"
       sodipodi:cx="31512.5"
       d="m 31627.657,26667.5 c 0,63.599 -51.558,115.157 -115.157,115.157 -63.599,0 -115.157,-51.558 -115.157,-115.157 0,-63.599 51.558,-115.157 115.157,-115.157 63.599,0 115.157,51.558 115.157,115.157 z"
       cx="31512.5"
       cy="26667.5"
       r="115.157"
       id="circle346" />
    <circle
       sodipodi:ry="115.157"
       sodipodi:rx="115.157"
       sodipodi:cy="5767.5"
       sodipodi:cx="30512.5"
       d="m 30627.657,5767.5 c 0,63.5995 -51.558,115.157 -115.157,115.157 -63.599,0 -115.157,-51.5575 -115.157,-115.157 0,-63.5995 51.558,-115.157 115.157,-115.157 63.599,0 115.157,51.5575 115.157,115.157 z"
       cx="30512.5"
       cy="5767.5"
       r="115.157"
       id="circle348" />
    <circle
       sodipodi:ry="115.157"
       sodipodi:rx="115.157"
       sodipodi:cy="24967.5"
       sodipodi:cx="35912.5"
       d="m 36027.657,24967.5 c 0,63.599 -51.558,115.157 -115.157,115.157 -63.599,0 -115.157,-51.558 -115.157,-115.157 0,-63.599 51.558,-115.157 115.157,-115.157 63.599,0 115.157,51.558 115.157,115.157 z"
       cx="35912.5"
       cy="24967.5"
       r="115.157"
       id="circle350" />
    <circle
       sodipodi:ry="115.157"
       sodipodi:rx="115.157"
       sodipodi:cy="23967.5"
       sodipodi:cx="37312.5"
       d="m 37427.657,23967.5 c 0,63.599 -51.558,115.157 -115.157,115.157 -63.599,0 -115.157,-51.558 -115.157,-115.157 0,-63.599 51.558,-115.157 115.157,-115.157 63.599,0 115.157,51.558 115.157,115.157 z"
       cx="37312.5"
       cy="23967.5"
       r="115.157"
       id="circle352" />
    <circle
       sodipodi:ry="115.157"
       sodipodi:rx="115.157"
       sodipodi:cy="21167.5"
       sodipodi:cx="37712.5"
       d="m 37827.657,21167.5 c 0,63.599 -51.558,115.157 -115.157,115.157 -63.599,0 -115.157,-51.558 -115.157,-115.157 0,-63.599 51.558,-115.157 115.157,-115.157 63.599,0 115.157,51.558 115.157,115.157 z"
       cx="37712.5"
       cy="21167.5"
       r="115.157"
       id="circle354" />
    <circle
       sodipodi:ry="115.157"
       sodipodi:rx="115.157"
       sodipodi:cy="18567.5"
       sodipodi:cx="37712.5"
       d="m 37827.657,18567.5 c 0,63.599 -51.558,115.157 -115.157,115.157 -63.599,0 -115.157,-51.558 -115.157,-115.157 0,-63.599 51.558,-115.157 115.157,-115.157 63.599,0 115.157,51.558 115.157,115.157 z"
       cx="37712.5"
       cy="18567.5"
       r="115.157"
       id="circle356" />
    <circle
       sodipodi:ry="115.157"
       sodipodi:rx="115.157"
       sodipodi:cy="15967.5"
       sodipodi:cx="37712.5"
       d="m 37827.657,15967.5 c 0,63.599 -51.558,115.157 -115.157,115.157 -63.599,0 -115.157,-51.558 -115.157,-115.157 0,-63.599 51.558,-115.157 115.157,-115.157 63.599,0 115.157,51.558 115.157,115.157 z"
       cx="37712.5"
       cy="15967.5"
       r="115.157"
       id="circle358" />
    <circle
       sodipodi:ry="115.157"
       sodipodi:rx="115.157"
       sodipodi:cy="13067.5"
       sodipodi:cx="37712.5"
       d="m 37827.657,13067.5 c 0,63.599 -51.558,115.157 -115.157,115.157 -63.599,0 -115.157,-51.558 -115.157,-115.157 0,-63.599 51.558,-115.157 115.157,-115.157 63.599,0 115.157,51.558 115.157,115.157 z"
       cx="37712.5"
       cy="13067.5"
       r="115.157"
       id="circle360" />
    <circle
       sodipodi:ry="115.157"
       sodipodi:rx="115.157"
       sodipodi:cy="10567.5"
       sodipodi:cx="37712.5"
       d="m 37827.657,10567.5 c 0,63.599 -51.558,115.157 -115.157,115.157 -63.599,0 -115.157,-51.558 -115.157,-115.157 0,-63.599 51.558,-115.157 115.157,-115.157 63.599,0 115.157,51.558 115.157,115.157 z"
       cx="37712.5"
       cy="10567.5"
       r="115.157"
       id="circle362" />
    <circle
       sodipodi:ry="115.157"
       sodipodi:rx="115.157"
       sodipodi:cy="7767.5"
       sodipodi:cx="37412.5"
       d="m 37527.657,7767.5 c 0,63.5995 -51.558,115.157 -115.157,115.157 -63.599,0 -115.157,-51.5575 -115.157,-115.157 0,-63.5995 51.558,-115.157 115.157,-115.157 63.599,0 115.157,51.5575 115.157,115.157 z"
       cx="37412.5"
       cy="7767.5"
       r="115.157"
       id="circle364" />
    <circle
       sodipodi:ry="115.157"
       sodipodi:rx="115.157"
       sodipodi:cy="6367.5"
       sodipodi:cx="36012.5"
       d="m 36127.657,6367.5 c 0,63.5995 -51.558,115.157 -115.157,115.157 -63.599,0 -115.157,-51.5575 -115.157,-115.157 0,-63.5995 51.558,-115.157 115.157,-115.157 63.599,0 115.157,51.5575 115.157,115.157 z"
       cx="36012.5"
       cy="6367.5"
       r="115.157"
       id="circle366" />
    <circle
       sodipodi:ry="115.157"
       sodipodi:rx="115.157"
       sodipodi:cy="7567.5"
       sodipodi:cx="36012.5"
       d="m 36127.657,7567.5 c 0,63.5995 -51.558,115.157 -115.157,115.157 -63.599,0 -115.157,-51.5575 -115.157,-115.157 0,-63.5995 51.558,-115.157 115.157,-115.157 63.599,0 115.157,51.5575 115.157,115.157 z"
       cx="36012.5"
       cy="7567.5"
       r="115.157"
       id="circle368" />
    <circle
       sodipodi:ry="115.157"
       sodipodi:rx="115.157"
       sodipodi:cy="7167.5"
       sodipodi:cx="34712.5"
       d="m 34827.657,7167.5 c 0,63.5995 -51.558,115.157 -115.157,115.157 -63.599,0 -115.157,-51.5575 -115.157,-115.157 0,-63.5995 51.558,-115.157 115.157,-115.157 63.599,0 115.157,51.5575 115.157,115.157 z"
       cx="34712.5"
       cy="7167.5"
       r="115.157"
       id="circle370" />
    <circle
       sodipodi:ry="115.157"
       sodipodi:rx="115.157"
       sodipodi:cy="5767.5"
       sodipodi:cx="34312.5"
       d="m 34427.657,5767.5 c 0,63.5995 -51.558,115.157 -115.157,115.157 -63.599,0 -115.157,-51.5575 -115.157,-115.157 0,-63.5995 51.558,-115.157 115.157,-115.157 63.599,0 115.157,51.5575 115.157,115.157 z"
       cx="34312.5"
       cy="5767.5"
       r="115.157"
       id="circle372" />
    <circle
       sodipodi:ry="115.157"
       sodipodi:rx="115.157"
       sodipodi:cy="12867.5"
       sodipodi:cx="15212.5"
       d="m 15327.657,12867.5 c 0,63.599 -51.558,115.157 -115.157,115.157 -63.599,0 -115.157,-51.558 -115.157,-115.157 0,-63.599 51.558,-115.157 115.157,-115.157 63.599,0 115.157,51.558 115.157,115.157 z"
       cx="15212.5"
       cy="12867.5"
       r="115.157"
       id="circle374" />
    <circle
       sodipodi:ry="115.157"
       sodipodi:rx="115.157"
       sodipodi:cy="18067.5"
       sodipodi:cx="15212.5"
       d="m 15327.657,18067.5 c 0,63.599 -51.558,115.157 -115.157,115.157 -63.599,0 -115.157,-51.558 -115.157,-115.157 0,-63.599 51.558,-115.157 115.157,-115.157 63.599,0 115.157,51.558 115.157,115.157 z"
       cx="15212.5"
       cy="18067.5"
       r="115.157"
       id="circle376" />
    <circle
       sodipodi:ry="115.157"
       sodipodi:rx="115.157"
       sodipodi:cy="23467.5"
       sodipodi:cx="15212.5"
       d="m 15327.657,23467.5 c 0,63.599 -51.558,115.157 -115.157,115.157 -63.599,0 -115.157,-51.558 -115.157,-115.157 0,-63.599 51.558,-115.157 115.157,-115.157 63.599,0 115.157,51.558 115.157,115.157 z"
       cx="15212.5"
       cy="23467.5"
       r="115.157"
       id="circle378" />
    <circle
       sodipodi:ry="115.157"
       sodipodi:rx="115.157"
       sodipodi:cy="8067.5"
       sodipodi:cx="15112.5"
       d="m 15227.657,8067.5 c 0,63.5995 -51.558,115.157 -115.157,115.157 -63.599,0 -115.157,-51.5575 -115.157,-115.157 0,-63.5995 51.558,-115.157 115.157,-115.157 63.599,0 115.157,51.5575 115.157,115.157 z"
       cx="15112.5"
       cy="8067.5"
       r="115.157"
       id="circle380" />
    <circle
       sodipodi:ry="186.657"
       sodipodi:rx="186.657"
       sodipodi:cy="2467.5"
       sodipodi:cx="36512.5"
       d="m 36699.157,2467.5 c 0,103.0878 -83.569,186.657 -186.657,186.657 -103.088,0 -186.657,-83.5692 -186.657,-186.657 0,-103.0878 83.569,-186.657 186.657,-186.657 103.088,0 186.657,83.5692 186.657,186.657 z"
       cx="36512.5"
       cy="2467.5"
       r="186.657"
       id="circle382" />
    <circle
       sodipodi:ry="186.657"
       sodipodi:rx="186.657"
       sodipodi:cy="3467.5"
       sodipodi:cx="36512.5"
       d="m 36699.157,3467.5 c 0,103.0878 -83.569,186.657 -186.657,186.657 -103.088,0 -186.657,-83.5692 -186.657,-186.657 0,-103.0878 83.569,-186.657 186.657,-186.657 103.088,0 186.657,83.5692 186.657,186.657 z"
       cx="36512.5"
       cy="3467.5"
       r="186.657"
       id="circle384" />
    <circle
       sodipodi:ry="186.657"
       sodipodi:rx="186.657"
       sodipodi:cy="2467.5"
       sodipodi:cx="35512.5"
       d="m 35699.157,2467.5 c 0,103.0878 -83.569,186.657 -186.657,186.657 -103.088,0 -186.657,-83.5692 -186.657,-186.657 0,-103.0878 83.569,-186.657 186.657,-186.657 103.088,0 186.657,83.5692 186.657,186.657 z"
       cx="35512.5"
       cy="2467.5"
       r="186.657"
       id="circle386" />
    <circle
       sodipodi:ry="186.657"
       sodipodi:rx="186.657"
       sodipodi:cy="3467.5"
       sodipodi:cx="35512.5"
       d="m 35699.157,3467.5 c 0,103.0878 -83.569,186.657 -186.657,186.657 -103.088,0 -186.657,-83.5692 -186.657,-186.657 0,-103.0878 83.569,-186.657 186.657,-186.657 103.088,0 186.657,83.5692 186.657,186.657 z"
       cx="35512.5"
       cy="3467.5"
       r="186.657"
       id="circle388" />
    <circle
       sodipodi:ry="186.657"
       sodipodi:rx="186.657"
       sodipodi:cy="2467.5"
       sodipodi:cx="34512.5"
       d="m 34699.157,2467.5 c 0,103.0878 -83.569,186.657 -186.657,186.657 -103.088,0 -186.657,-83.5692 -186.657,-186.657 0,-103.0878 83.569,-186.657 186.657,-186.657 103.088,0 186.657,83.5692 186.657,186.657 z"
       cx="34512.5"
       cy="2467.5"
       r="186.657"
       id="circle390" />
    <circle
       sodipodi:ry="186.657"
       sodipodi:rx="186.657"
       sodipodi:cy="3467.5"
       sodipodi:cx="34512.5"
       d="m 34699.157,3467.5 c 0,103.0878 -83.569,186.657 -186.657,186.657 -103.088,0 -186.657,-83.5692 -186.657,-186.657 0,-103.0878 83.569,-186.657 186.657,-186.657 103.088,0 186.657,83.5692 186.657,186.657 z"
       cx="34512.5"
       cy="3467.5"
       r="186.657"
       id="circle392" />
    <circle
       sodipodi:ry="186.657"
       sodipodi:rx="186.657"
       sodipodi:cy="2467.5"
       sodipodi:cx="33512.5"
       d="m 33699.157,2467.5 c 0,103.0878 -83.569,186.657 -186.657,186.657 -103.088,0 -186.657,-83.5692 -186.657,-186.657 0,-103.0878 83.569,-186.657 186.657,-186.657 103.088,0 186.657,83.5692 186.657,186.657 z"
       cx="33512.5"
       cy="2467.5"
       r="186.657"
       id="circle394" />
    <circle
       sodipodi:ry="186.657"
       sodipodi:rx="186.657"
       sodipodi:cy="3467.5"
       sodipodi:cx="33512.5"
       d="m 33699.157,3467.5 c 0,103.0878 -83.569,186.657 -186.657,186.657 -103.088,0 -186.657,-83.5692 -186.657,-186.657 0,-103.0878 83.569,-186.657 186.657,-186.657 103.088,0 186.657,83.5692 186.657,186.657 z"
       cx="33512.5"
       cy="3467.5"
       r="186.657"
       id="circle396" />
    <circle
       sodipodi:ry="186.657"
       sodipodi:rx="186.657"
       sodipodi:cy="2467.5"
       sodipodi:cx="32512.5"
       d="m 32699.157,2467.5 c 0,103.0878 -83.569,186.657 -186.657,186.657 -103.088,0 -186.657,-83.5692 -186.657,-186.657 0,-103.0878 83.569,-186.657 186.657,-186.657 103.088,0 186.657,83.5692 186.657,186.657 z"
       cx="32512.5"
       cy="2467.5"
       r="186.657"
       id="circle398" />
    <circle
       sodipodi:ry="186.657"
       sodipodi:rx="186.657"
       sodipodi:cy="3467.5"
       sodipodi:cx="32512.5"
       d="m 32699.157,3467.5 c 0,103.0878 -83.569,186.657 -186.657,186.657 -103.088,0 -186.657,-83.5692 -186.657,-186.657 0,-103.0878 83.569,-186.657 186.657,-186.657 103.088,0 186.657,83.5692 186.657,186.657 z"
       cx="32512.5"
       cy="3467.5"
       r="186.657"
       id="circle400" />
    <circle
       sodipodi:ry="150.157"
       sodipodi:rx="150.157"
       sodipodi:cy="25917.5"
       sodipodi:cx="1512.5"
       d="m 1662.657,25917.5 c 0,82.929 -67.2276,150.157 -150.157,150.157 -82.9294,0 -150.157,-67.228 -150.157,-150.157 0,-82.929 67.2276,-150.157 150.157,-150.157 82.9294,0 150.157,67.228 150.157,150.157 z"
       cx="1512.5"
       cy="25917.5"
       r="150.157"
       id="circle402" />
    <circle
       sodipodi:ry="150.157"
       sodipodi:rx="150.157"
       sodipodi:cy="24917.5"
       sodipodi:cx="1512.5"
       d="m 1662.657,24917.5 c 0,82.929 -67.2276,150.157 -150.157,150.157 -82.9294,0 -150.157,-67.228 -150.157,-150.157 0,-82.929 67.2276,-150.157 150.157,-150.157 82.9294,0 150.157,67.228 150.157,150.157 z"
       cx="1512.5"
       cy="24917.5"
       r="150.157"
       id="circle404" />
    <circle
       sodipodi:ry="150.157"
       sodipodi:rx="150.157"
       sodipodi:cy="23917.5"
       sodipodi:cx="1512.5"
       d="m 1662.657,23917.5 c 0,82.929 -67.2276,150.157 -150.157,150.157 -82.9294,0 -150.157,-67.228 -150.157,-150.157 0,-82.929 67.2276,-150.157 150.157,-150.157 82.9294,0 150.157,67.228 150.157,150.157 z"
       cx="1512.5"
       cy="23917.5"
       r="150.157"
       id="circle406" />
    <circle
       sodipodi:ry="127.953"
       sodipodi:rx="127.953"
       sodipodi:cy="18967.5"
       sodipodi:cx="32712.5"
       d="m 32840.453,18967.5 c 0,70.666 -57.287,127.953 -127.953,127.953 -70.666,0 -127.953,-57.287 -127.953,-127.953 0,-70.666 57.287,-127.953 127.953,-127.953 70.666,0 127.953,57.287 127.953,127.953 z"
       cx="32712.5"
       cy="18967.5"
       r="127.953"
       id="circle408" />
    <circle
       sodipodi:ry="127.953"
       sodipodi:rx="127.953"
       sodipodi:cy="13667.5"
       sodipodi:cx="32662.5"
       d="m 32790.453,13667.5 c 0,70.666 -57.287,127.953 -127.953,127.953 -70.666,0 -127.953,-57.287 -127.953,-127.953 0,-70.666 57.287,-127.953 127.953,-127.953 70.666,0 127.953,57.287 127.953,127.953 z"
       cx="32662.5"
       cy="13667.5"
       r="127.953"
       id="circle410" />
    <circle
       sodipodi:ry="127.953"
       sodipodi:rx="127.953"
       sodipodi:cy="24267.5"
       sodipodi:cx="32712.5"
       d="m 32840.453,24267.5 c 0,70.666 -57.287,127.953 -127.953,127.953 -70.666,0 -127.953,-57.287 -127.953,-127.953 0,-70.666 57.287,-127.953 127.953,-127.953 70.666,0 127.953,57.287 127.953,127.953 z"
       cx="32712.5"
       cy="24267.5"
       r="127.953"
       id="circle412" />
    <circle
       sodipodi:ry="127.953"
       sodipodi:rx="127.953"
       sodipodi:cy="8367.5"
       sodipodi:cx="32662.5"
       d="m 32790.453,8367.5 c 0,70.6665 -57.287,127.953 -127.953,127.953 -70.666,0 -127.953,-57.2865 -127.953,-127.953 0,-70.6665 57.287,-127.953 127.953,-127.953 70.666,0 127.953,57.2865 127.953,127.953 z"
       cx="32662.5"
       cy="8367.5"
       r="127.953"
       id="circle414" />
    <circle
       sodipodi:ry="226.37801"
       sodipodi:rx="226.37801"
       sodipodi:cy="21560.199"
       sodipodi:cx="12574.5"
       d="m 12800.878,21560.199 c 0,125.025 -101.353,226.378 -226.378,226.378 -125.025,0 -226.378,-101.353 -226.378,-226.378 0,-125.025 101.353,-226.378 226.378,-226.378 125.025,0 226.378,101.353 226.378,226.378 z"
       cx="12574.5"
       cy="21560.199"
       r="226.37801"
       id="circle416" />
    <circle
       sodipodi:ry="226.37801"
       sodipodi:rx="226.37801"
       sodipodi:cy="21560.199"
       sodipodi:cx="5684.7402"
       d="m 5911.1182,21560.199 c 0,125.025 -101.3528,226.378 -226.378,226.378 -125.0251,0 -226.378,-101.353 -226.378,-226.378 0,-125.025 101.3529,-226.378 226.378,-226.378 125.0252,0 226.378,101.353 226.378,226.378 z"
       cx="5684.7402"
       cy="21560.199"
       r="226.37801"
       id="circle418" />
    <circle
       sodipodi:ry="226.37801"
       sodipodi:rx="226.37801"
       sodipodi:cy="3056.28"
       sodipodi:cx="9621.75"
       d="m 9848.128,3056.28 c 0,125.0251 -101.3529,226.378 -226.378,226.378 -125.0251,0 -226.378,-101.3529 -226.378,-226.378 0,-125.0251 101.3529,-226.378 226.378,-226.378 125.0251,0 226.378,101.3529 226.378,226.378 z"
       cx="9621.75"
       cy="3056.28"
       r="226.37801"
       id="circle420" />
    <circle
       sodipodi:ry="226.37801"
       sodipodi:rx="226.37801"
       sodipodi:cy="3056.28"
       sodipodi:cx="1747.74"
       d="m 1974.118,3056.28 c 0,125.0251 -101.3529,226.378 -226.378,226.378 -125.0251,0 -226.378,-101.3529 -226.378,-226.378 0,-125.0251 101.3529,-226.378 226.378,-226.378 125.0251,0 226.378,101.3529 226.378,226.378 z"
       cx="1747.74"
       cy="3056.28"
       r="226.37801"
       id="circle422" />
    <circle
       sodipodi:ry="590.15698"
       sodipodi:rx="590.15698"
       sodipodi:cy="5967.5"
       sodipodi:cx="37812.5"
       d="m 38402.657,5967.5 c 0,325.9347 -264.222,590.157 -590.157,590.157 -325.935,0 -590.157,-264.2223 -590.157,-590.157 0,-325.9347 264.222,-590.157 590.157,-590.157 325.935,0 590.157,264.2223 590.157,590.157 z"
       cx="37812.5"
       cy="5967.5"
       r="590.15698"
       id="circle424" />
    <circle
       sodipodi:ry="590.15698"
       sodipodi:rx="590.15698"
       sodipodi:cy="22767.5"
       sodipodi:cx="37812.5"
       d="m 38402.657,22767.5 c 0,325.935 -264.222,590.157 -590.157,590.157 -325.935,0 -590.157,-264.222 -590.157,-590.157 0,-325.935 264.222,-590.157 590.157,-590.157 325.935,0 590.157,264.222 590.157,590.157 z"
       cx="37812.5"
       cy="22767.5"
       r="590.15698"
       id="circle426" />
    <circle
       sodipodi:ry="590.15698"
       sodipodi:rx="590.15698"
       sodipodi:cy="1967.5"
       sodipodi:cx="21312.5"
       d="m 21902.657,1967.5 c 0,325.9347 -264.222,590.157 -590.157,590.157 -325.935,0 -590.157,-264.2223 -590.157,-590.157 0,-325.9347 264.222,-590.157 590.157,-590.157 325.935,0 590.157,264.2223 590.157,590.157 z"
       cx="21312.5"
       cy="1967.5"
       r="590.15698"
       id="circle428" />
    <circle
       sodipodi:ry="590.15698"
       sodipodi:rx="590.15698"
       sodipodi:cy="25067.5"
       sodipodi:cx="8712.5"
       d="m 9302.657,25067.5 c 0,325.935 -264.2223,590.157 -590.157,590.157 -325.9347,0 -590.157,-264.222 -590.157,-590.157 0,-325.935 264.2223,-590.157 590.157,-590.157 325.9347,0 590.157,264.222 590.157,590.157 z"
       cx="8712.5"
       cy="25067.5"
       r="590.15698"
       id="circle430" />
  </g>
  <g
     style="fill:#000000;fill-opacity:1;stroke:#000000;stroke-linecap:round;stroke-linejoin:round;stroke-opacity:1"
     id="g3419"
     transform="translate(0,57530.002)" />
  <g
     style="fill:#ffff00;fill-opacity:0;stroke:#ffff00;stroke-width:39.37009811;stroke-linecap:round;stroke-linejoin:round;stroke-opacity:1"
     id="g3421"
     transform="matrix(2.7741071,0,0,2.7741071,374.0185,2898.2793)">
    <path
       d="M 38712,1067 712,1067"
       id="path3423"
       inkscape:connector-curvature="0" />
    <path
       d="m 38712,27267 0,-26200"
       id="path3425"
       inkscape:connector-curvature="0" />
    <path
       d="m 712,27267 38000,0"
       id="path3427"
       inkscape:connector-curvature="0" />
    <path
       d="m 712,1067 0,26200"
       id="path3429"
       inkscape:connector-curvature="0" />
  </g>
  <g
     style="fill:#a000a0;fill-opacity:0;stroke:#a000a0;stroke-width:24;stroke-linecap:round;stroke-linejoin:round;stroke-opacity:1"
     id="g3431"
     transform="matrix(2.7741071,0,0,2.7741071,374.0185,2898.2793)">
    <path
       d="m 36170,4691 0,-56 -118,0"
       id="path3433"
       inkscape:connector-curvature="0" />
    <path
       d="m 36063,4725 -6,5 -5,12 0,28 5,11 6,6 11,5 11,0 17,-5 68,-68 0,73"
       id="path3435"
       inkscape:connector-curvature="0" />
    <path
       d="m 36091,4893 79,0"
       id="path3437"
       inkscape:connector-curvature="0" />
    <path
       d="m 36046,4865 84,-28 0,73"
       id="path3439"
       inkscape:connector-curvature="0" />
    <path
       d="m 35170,4691 0,-56 -118,0"
       id="path3441"
       inkscape:connector-curvature="0" />
    <path
       d="m 35063,4725 -6,5 -5,12 0,28 5,11 6,6 11,5 11,0 17,-5 68,-68 0,73"
       id="path3443"
       inkscape:connector-curvature="0" />
    <path
       d="m 35052,4832 0,73 45,-40 0,17 5,11 6,6 11,6 28,0 12,-6 5,-6 6,-11 0,-34 -6,-11 -5,-5"
       id="path3445"
       inkscape:connector-curvature="0" />
    <path
       d="m 33170,4691 0,-56 -118,0"
       id="path3447"
       inkscape:connector-curvature="0" />
    <path
       d="m 33063,4725 -6,5 -5,12 0,28 5,11 6,6 11,5 11,0 17,-5 68,-68 0,73"
       id="path3449"
       inkscape:connector-curvature="0" />
    <path
       d="m 33170,4905 0,-68"
       id="path3451"
       inkscape:connector-curvature="0" />
    <path
       d="m 33170,4871 -118,0 17,-11 11,-12 5,-11"
       id="path3453"
       inkscape:connector-curvature="0" />
    <path
       d="m 4282,23575 56,0 0,-118"
       id="path3455"
       inkscape:connector-curvature="0" />
    <path
       d="m 4181,23575 67,0"
       id="path3457"
       inkscape:connector-curvature="0" />
    <path
       d="m 4214,23575 0,-118 11,17 12,11 11,5"
       id="path3459"
       inkscape:connector-curvature="0" />
    <path
       d="m 4282,24575 56,0 0,-118"
       id="path3461"
       inkscape:connector-curvature="0" />
    <path
       d="m 4248,24468 -6,-6 -11,-5 -28,0 -11,5 -6,6 -5,11 0,11 5,17 68,68 -73,0"
       id="path3463"
       inkscape:connector-curvature="0" />
    <path
       d="m 32170,4691 0,-56 -118,0"
       id="path3465"
       inkscape:connector-curvature="0" />
    <path
       d="m 32063,4725 -6,5 -5,12 0,28 5,11 6,6 11,5 11,0 17,-5 68,-68 0,73"
       id="path3467"
       inkscape:connector-curvature="0" />
    <path
       d="m 32052,4865 0,12 5,11 6,5 11,6 23,6 28,0 22,-6 12,-6 5,-5 6,-11 0,-12 -6,-11 -5,-6 -12,-5 -22,-6 -28,0 -23,6 -11,5 -6,6 -5,11"
       id="path3469"
       inkscape:connector-curvature="0" />
  </g>
  <g
     style="fill:#a000a0;fill-opacity:0;stroke:#a000a0;stroke-width:59.05509949;stroke-linecap:round;stroke-linejoin:round;stroke-opacity:1"
     id="g3471"
     transform="matrix(2.7741071,0,0,2.7741071,374.0185,2898.2793)">
    <path
       d="m 6967,24450 18,-19 19,-56 0,-38 -19,-56 -37,-37 -38,-19 -75,-19 -56,0 -75,19 -37,19 -38,37 -19,56 0,38 19,56 19,19"
       id="path3473"
       inkscape:connector-curvature="0" />
    <path
       d="m 6610,24787 0,-75 19,-37 19,-19 56,-37 75,-19 150,0 38,19 18,18 19,38 0,75 -19,37 -18,19 -38,19 -94,0 -37,-19 -19,-19 -19,-37 0,-75 19,-38 19,-18 37,-19"
       id="path3475"
       inkscape:connector-curvature="0" />
    <path
       d="m 4740,23494 0,37 19,38 19,18 37,19 75,19 94,0 75,-19 37,-19 19,-18 19,-38 0,-37 -19,-38 -19,-19 -37,-18 -75,-19 -94,0 -75,19 -37,18 -19,19 -19,38"
       id="path3477"
       inkscape:connector-curvature="0" />
    <path
       d="m 5096,23794 19,18 19,-18 -19,-19 -19,19 38,0"
       id="path3479"
       inkscape:connector-curvature="0" />
    <path
       d="m 4740,24056 0,38 19,37 19,19 37,19 75,18 94,0 75,-18 37,-19 19,-19 19,-37 0,-38 -19,-37 -19,-19 -37,-19 -75,-19 -94,0 -75,19 -37,19 -19,19 -19,37"
       id="path3481"
       inkscape:connector-curvature="0" />
    <path
       d="m 4778,24337 -19,19 -19,38 0,93 19,38 19,19 37,18 38,0 56,-18 225,-225 0,243"
       id="path3483"
       inkscape:connector-curvature="0" />
    <path
       d="m 4778,24712 -19,19 -19,38 0,93 19,38 19,19 37,18 38,0 56,-18 225,-225 0,243"
       id="path3485"
       inkscape:connector-curvature="0" />
    <path
       d="m 4871,25275 263,0"
       id="path3487"
       inkscape:connector-curvature="0" />
    <path
       d="m 4871,25106 207,0 37,19 19,37 0,56 -19,38 -19,19"
       id="path3489"
       inkscape:connector-curvature="0" />
    <path
       d="m 4928,25593 0,-131"
       id="path3491"
       inkscape:connector-curvature="0" />
    <path
       d="m 5134,25462 -394,0 0,188"
       id="path3493"
       inkscape:connector-curvature="0" />
    <path
       d="m 3967,24450 18,-19 19,-56 0,-38 -19,-56 -37,-37 -38,-19 -75,-19 -56,0 -75,19 -37,19 -38,37 -19,56 0,38 19,56 19,19"
       id="path3495"
       inkscape:connector-curvature="0" />
    <path
       d="m 4004,24825 0,-225"
       id="path3497"
       inkscape:connector-curvature="0" />
    <path
       d="m 4004,24712 -394,0 57,-37 37,-38 19,-37"
       id="path3499"
       inkscape:connector-curvature="0" />
    <path
       d="m 1740,23494 0,37 19,38 19,18 37,19 75,19 94,0 75,-19 37,-19 19,-18 19,-38 0,-37 -19,-38 -19,-19 -37,-18 -75,-19 -94,0 -75,19 -37,18 -19,19 -19,38"
       id="path3501"
       inkscape:connector-curvature="0" />
    <path
       d="m 2096,23794 19,18 19,-18 -19,-19 -19,19 38,0"
       id="path3503"
       inkscape:connector-curvature="0" />
    <path
       d="m 1740,24056 0,38 19,37 19,19 37,19 75,18 94,0 75,-18 37,-19 19,-19 19,-37 0,-38 -19,-37 -19,-19 -37,-19 -75,-19 -94,0 -75,19 -37,19 -19,19 -19,37"
       id="path3505"
       inkscape:connector-curvature="0" />
    <path
       d="m 1778,24337 -19,19 -19,38 0,93 19,38 19,19 37,18 38,0 56,-18 225,-225 0,243"
       id="path3507"
       inkscape:connector-curvature="0" />
    <path
       d="m 1778,24712 -19,19 -19,38 0,93 19,38 19,19 37,18 38,0 56,-18 225,-225 0,243"
       id="path3509"
       inkscape:connector-curvature="0" />
    <path
       d="m 1871,25275 263,0"
       id="path3511"
       inkscape:connector-curvature="0" />
    <path
       d="m 1871,25106 207,0 37,19 19,37 0,56 -19,38 -19,19"
       id="path3513"
       inkscape:connector-curvature="0" />
    <path
       d="m 1928,25593 0,-131"
       id="path3515"
       inkscape:connector-curvature="0" />
    <path
       d="m 2134,25462 -394,0 0,188"
       id="path3517"
       inkscape:connector-curvature="0" />
    <path
       d="m 801,5315 19,-18 19,-57 0,-37 -19,-56 -38,-38 -37,-18 -75,-19 -56,0 -75,19 -38,18 -37,38 -19,56 0,37 19,57 18,18"
       id="path3519"
       inkscape:connector-curvature="0" />
    <path
       d="m 839,5690 0,-225"
       id="path3521"
       inkscape:connector-curvature="0" />
    <path
       d="m 839,5578 -394,0 56,-38 38,-37 18,-38"
       id="path3523"
       inkscape:connector-curvature="0" />
    <path
       d="m 445,5822 0,243 150,-131 0,56 19,38 18,19 38,18 94,0 37,-18 19,-19 19,-38 0,-112 -19,-38 -19,-18"
       id="path3525"
       inkscape:connector-curvature="0" />
    <path
       d="m 2315,4547 0,37 19,38 19,19 37,18 75,19 94,0 75,-19 37,-18 19,-19 19,-38 0,-37 -19,-38 -19,-18 -37,-19 -75,-19 -94,0 -75,19 -37,19 -19,18 -19,38"
       id="path3527"
       inkscape:connector-curvature="0" />
    <path
       d="m 2671,4847 19,19 19,-19 -19,-19 -19,19 38,0"
       id="path3529"
       inkscape:connector-curvature="0" />
    <path
       d="m 2315,5109 0,38 19,37 19,19 37,19 75,18 94,0 75,-18 37,-19 19,-19 19,-37 0,-38 -19,-37 -19,-19 -37,-19 -75,-18 -94,0 -75,18 -37,19 -19,19 -19,37"
       id="path3531"
       inkscape:connector-curvature="0" />
    <path
       d="m 2353,5390 -19,19 -19,38 0,93 19,38 19,19 37,18 38,0 56,-18 225,-225 0,243"
       id="path3533"
       inkscape:connector-curvature="0" />
    <path
       d="m 2353,5765 -19,19 -19,38 0,93 19,38 19,19 37,18 38,0 56,-18 225,-225 0,243"
       id="path3535"
       inkscape:connector-curvature="0" />
    <path
       d="m 2446,6328 263,0"
       id="path3537"
       inkscape:connector-curvature="0" />
    <path
       d="m 2446,6159 207,0 37,19 19,37 0,57 -19,37 -19,19"
       id="path3539"
       inkscape:connector-curvature="0" />
    <path
       d="m 2503,6647 0,-132"
       id="path3541"
       inkscape:connector-curvature="0" />
    <path
       d="m 2709,6515 -394,0 0,188"
       id="path3543"
       inkscape:connector-curvature="0" />
  </g>
  <g
     style="fill:#a000a0;fill-opacity:0;stroke:#a000a0;stroke-width:50;stroke-linecap:round;stroke-linejoin:round;stroke-opacity:1"
     id="g3545"
     transform="matrix(2.7741071,0,0,2.7741071,374.0185,2898.2793)">
    <path
       d="m 36262,5017 500,0"
       id="path3547"
       inkscape:connector-curvature="0" />
    <path
       d="m 36262,4517 490,0"
       id="path3549"
       inkscape:connector-curvature="0" />
    <path
       d="m 36262,4367 0,800"
       id="path3551"
       inkscape:connector-curvature="0" />
    <path
       d="m 36262,5167 500,0"
       id="path3553"
       inkscape:connector-curvature="0" />
    <path
       d="m 36762,5167 0,-800"
       id="path3555"
       inkscape:connector-curvature="0" />
    <path
       d="m 36762,4367 -500,0"
       id="path3557"
       inkscape:connector-curvature="0" />
    <path
       d="m 35262,5017 500,0"
       id="path3559"
       inkscape:connector-curvature="0" />
    <path
       d="m 35262,4517 490,0"
       id="path3561"
       inkscape:connector-curvature="0" />
    <path
       d="m 35262,4367 0,800"
       id="path3563"
       inkscape:connector-curvature="0" />
    <path
       d="m 35262,5167 500,0"
       id="path3565"
       inkscape:connector-curvature="0" />
    <path
       d="m 35762,5167 0,-800"
       id="path3567"
       inkscape:connector-curvature="0" />
    <path
       d="m 35762,4367 -500,0"
       id="path3569"
       inkscape:connector-curvature="0" />
    <path
       d="m 33262,5017 500,0"
       id="path3571"
       inkscape:connector-curvature="0" />
    <path
       d="m 33262,4517 490,0"
       id="path3573"
       inkscape:connector-curvature="0" />
    <path
       d="m 33262,4367 0,800"
       id="path3575"
       inkscape:connector-curvature="0" />
    <path
       d="m 33262,5167 500,0"
       id="path3577"
       inkscape:connector-curvature="0" />
    <path
       d="m 33762,5167 0,-800"
       id="path3579"
       inkscape:connector-curvature="0" />
    <path
       d="m 33762,4367 -500,0"
       id="path3581"
       inkscape:connector-curvature="0" />
    <path
       d="m 4012,23667 0,500"
       id="path3583"
       inkscape:connector-curvature="0" />
    <path
       d="m 4512,23667 0,490"
       id="path3585"
       inkscape:connector-curvature="0" />
    <path
       d="m 4662,23667 -800,0"
       id="path3587"
       inkscape:connector-curvature="0" />
    <path
       d="m 3862,23667 0,500"
       id="path3589"
       inkscape:connector-curvature="0" />
    <path
       d="m 3862,24167 800,0"
       id="path3591"
       inkscape:connector-curvature="0" />
    <path
       d="m 4662,24167 0,-500"
       id="path3593"
       inkscape:connector-curvature="0" />
    <path
       d="m 4012,24667 0,500"
       id="path3595"
       inkscape:connector-curvature="0" />
    <path
       d="m 4512,24667 0,490"
       id="path3597"
       inkscape:connector-curvature="0" />
    <path
       d="m 4662,24667 -800,0"
       id="path3599"
       inkscape:connector-curvature="0" />
    <path
       d="m 3862,24667 0,500"
       id="path3601"
       inkscape:connector-curvature="0" />
    <path
       d="m 3862,25167 800,0"
       id="path3603"
       inkscape:connector-curvature="0" />
    <path
       d="m 4662,25167 0,-500"
       id="path3605"
       inkscape:connector-curvature="0" />
    <path
       d="m 32262,5017 500,0"
       id="path3607"
       inkscape:connector-curvature="0" />
    <path
       d="m 32262,4517 490,0"
       id="path3609"
       inkscape:connector-curvature="0" />
    <path
       d="m 32262,4367 0,800"
       id="path3611"
       inkscape:connector-curvature="0" />
    <path
       d="m 32262,5167 500,0"
       id="path3613"
       inkscape:connector-curvature="0" />
    <path
       d="m 32762,5167 0,-800"
       id="path3615"
       inkscape:connector-curvature="0" />
    <path
       d="m 32762,4367 -500,0"
       id="path3617"
       inkscape:connector-curvature="0" />
  </g>
  <g
     style="fill:#a000a0;fill-opacity:0;stroke:#a000a0;stroke-width:59.05509949;stroke-linecap:round;stroke-linejoin:round;stroke-opacity:1"
     id="g3619"
     transform="matrix(2.7741071,0,0,2.7741071,374.0185,2898.2793)">
    <path
       d="m 5290,23551 0,1732"
       id="path3621"
       inkscape:connector-curvature="0" />
    <path
       d="m 5290,25283 944,0"
       id="path3623"
       inkscape:connector-curvature="0" />
    <path
       d="m 6234,25283 0,-1732"
       id="path3625"
       inkscape:connector-curvature="0" />
    <path
       d="m 6234,23551 -944,0"
       id="path3627"
       inkscape:connector-curvature="0" />
    <path
       d="m 2290,23551 0,1732"
       id="path3629"
       inkscape:connector-curvature="0" />
    <path
       d="m 2290,25283 944,0"
       id="path3631"
       inkscape:connector-curvature="0" />
    <path
       d="m 3234,25283 0,-1732"
       id="path3633"
       inkscape:connector-curvature="0" />
    <path
       d="m 3234,23551 -944,0"
       id="path3635"
       inkscape:connector-curvature="0" />
    <path
       d="m 2234,6533 0,-1732"
       id="path3637"
       inkscape:connector-curvature="0" />
    <path
       d="m 2234,4801 -944,0"
       id="path3639"
       inkscape:connector-curvature="0" />
    <path
       d="m 1290,4801 0,1732"
       id="path3641"
       inkscape:connector-curvature="0" />
    <path
       d="m 1290,6533 944,0"
       id="path3643"
       inkscape:connector-curvature="0" />
  </g>
</svg>
