G04 (created by PCBNEW (2013-may-18)-stable) date 2014年01月28日 星期二 10时03分07秒*
%MOIN*%
G04 Gerber Fmt 3.4, Leading zero omitted, Abs format*
%FSLAX34Y34*%
G01*
G70*
G90*
G04 APERTURE LIST*
%ADD10C,0.00590551*%
%ADD11C,0.012*%
%ADD12C,0.008*%
%ADD13C,0.015*%
%ADD14C,0.01*%
%ADD15C,0.016*%
%ADD16C,0.011811*%
%ADD17C,0.0107*%
%ADD18C,0.0035*%
G04 APERTURE END LIST*
G54D10*
X64600Y-45000D02*
X64600Y-47400D01*
X64600Y-47400D02*
X72400Y-47400D01*
X72400Y-47400D02*
X72400Y-45000D01*
X72400Y-45000D02*
X64600Y-45000D01*
X64600Y-41500D02*
X64600Y-43900D01*
X64600Y-43900D02*
X72400Y-43900D01*
X72400Y-43900D02*
X72400Y-41500D01*
X72400Y-41500D02*
X64600Y-41500D01*
X64600Y-38000D02*
X64600Y-40400D01*
X64600Y-40400D02*
X72400Y-40400D01*
X72400Y-40400D02*
X72400Y-38000D01*
X72400Y-38000D02*
X64600Y-38000D01*
X64600Y-34500D02*
X64600Y-36900D01*
X64600Y-36900D02*
X72400Y-36900D01*
X72400Y-36900D02*
X72400Y-34500D01*
X72400Y-34500D02*
X64600Y-34500D01*
X59236Y-34110D02*
X60811Y-34110D01*
X59236Y-41984D02*
X60811Y-41984D01*
X59236Y-46905D02*
X59236Y-33125D01*
X39157Y-38047D02*
X40732Y-38047D01*
X39157Y-44937D02*
X40732Y-44937D01*
X40732Y-46905D02*
X40732Y-33125D01*
X39157Y-46905D02*
X60811Y-46905D01*
X60811Y-46905D02*
X60811Y-33125D01*
X60811Y-33125D02*
X39157Y-33125D01*
X39157Y-33125D02*
X39157Y-46905D01*
G54D11*
X37500Y-42500D02*
X36500Y-42500D01*
X36500Y-42500D02*
X36500Y-40500D01*
X36500Y-40500D02*
X37500Y-40500D01*
X37500Y-40500D02*
X37500Y-42500D01*
G54D12*
X64100Y-37500D02*
G75*
G03X64100Y-37500I-1600J0D01*
G74*
G01*
X79600Y-41500D02*
G75*
G03X79600Y-41500I-1600J0D01*
G74*
G01*
X79600Y-37500D02*
G75*
G03X79600Y-37500I-1600J0D01*
G74*
G01*
X76100Y-40500D02*
G75*
G03X76100Y-40500I-1600J0D01*
G74*
G01*
X76600Y-35500D02*
G75*
G03X76600Y-35500I-1600J0D01*
G74*
G01*
X76600Y-44000D02*
G75*
G03X76600Y-44000I-1600J0D01*
G74*
G01*
X79600Y-46000D02*
G75*
G03X79600Y-46000I-1600J0D01*
G74*
G01*
G54D13*
X38900Y-34000D02*
G75*
G03X38900Y-34000I-900J0D01*
G74*
G01*
X38900Y-46500D02*
G75*
G03X38900Y-46500I-900J0D01*
G74*
G01*
G54D14*
X80000Y-43750D02*
X79750Y-44000D01*
X83000Y-43750D02*
X83250Y-44000D01*
X83000Y-36250D02*
X83250Y-36000D01*
X80000Y-36250D02*
X79750Y-36000D01*
X83250Y-39250D02*
X83000Y-39250D01*
X83000Y-39250D02*
X83000Y-36250D01*
X83000Y-36250D02*
X80000Y-36250D01*
X80000Y-36250D02*
X80000Y-43750D01*
X80000Y-43750D02*
X83000Y-43750D01*
X83000Y-43750D02*
X83000Y-40750D01*
X83000Y-40750D02*
X83250Y-40750D01*
X83250Y-44000D02*
X83250Y-36000D01*
X79750Y-36000D02*
X79750Y-44000D01*
X79750Y-44000D02*
X83250Y-44000D01*
X79750Y-36000D02*
X83250Y-36000D01*
G54D15*
X82275Y-42952D02*
X82696Y-42677D01*
X82696Y-42677D02*
X82275Y-42401D01*
X82275Y-42401D02*
X82275Y-42952D01*
G54D13*
X82400Y-34000D02*
G75*
G03X82400Y-34000I-900J0D01*
G74*
G01*
X82400Y-46500D02*
G75*
G03X82400Y-46500I-900J0D01*
G74*
G01*
G54D10*
X70200Y-46265D02*
X70200Y-46584D01*
X70218Y-46621D01*
X70237Y-46640D01*
X70275Y-46659D01*
X70350Y-46659D01*
X70387Y-46640D01*
X70406Y-46621D01*
X70425Y-46584D01*
X70425Y-46265D01*
X70799Y-46265D02*
X70612Y-46265D01*
X70593Y-46453D01*
X70612Y-46434D01*
X70649Y-46415D01*
X70743Y-46415D01*
X70781Y-46434D01*
X70799Y-46453D01*
X70818Y-46490D01*
X70818Y-46584D01*
X70799Y-46621D01*
X70781Y-46640D01*
X70743Y-46659D01*
X70649Y-46659D01*
X70612Y-46640D01*
X70593Y-46621D01*
X65234Y-46659D02*
X65103Y-46471D01*
X65009Y-46659D02*
X65009Y-46265D01*
X65159Y-46265D01*
X65197Y-46284D01*
X65215Y-46303D01*
X65234Y-46340D01*
X65234Y-46396D01*
X65215Y-46434D01*
X65197Y-46453D01*
X65159Y-46471D01*
X65009Y-46471D01*
X65534Y-46453D02*
X65590Y-46471D01*
X65609Y-46490D01*
X65628Y-46528D01*
X65628Y-46584D01*
X65609Y-46621D01*
X65590Y-46640D01*
X65553Y-46659D01*
X65403Y-46659D01*
X65403Y-46265D01*
X65534Y-46265D01*
X65571Y-46284D01*
X65590Y-46303D01*
X65609Y-46340D01*
X65609Y-46378D01*
X65590Y-46415D01*
X65571Y-46434D01*
X65534Y-46453D01*
X65403Y-46453D01*
X65796Y-46509D02*
X66096Y-46509D01*
X66359Y-46265D02*
X66396Y-46265D01*
X66434Y-46284D01*
X66453Y-46303D01*
X66471Y-46340D01*
X66490Y-46415D01*
X66490Y-46509D01*
X66471Y-46584D01*
X66453Y-46621D01*
X66434Y-46640D01*
X66396Y-46659D01*
X66359Y-46659D01*
X66321Y-46640D01*
X66303Y-46621D01*
X66284Y-46584D01*
X66265Y-46509D01*
X66265Y-46415D01*
X66284Y-46340D01*
X66303Y-46303D01*
X66321Y-46284D01*
X66359Y-46265D01*
X66846Y-46265D02*
X66659Y-46265D01*
X66640Y-46453D01*
X66659Y-46434D01*
X66696Y-46415D01*
X66790Y-46415D01*
X66828Y-46434D01*
X66846Y-46453D01*
X66865Y-46490D01*
X66865Y-46584D01*
X66846Y-46621D01*
X66828Y-46640D01*
X66790Y-46659D01*
X66696Y-46659D01*
X66659Y-46640D01*
X66640Y-46621D01*
X67109Y-46265D02*
X67146Y-46265D01*
X67184Y-46284D01*
X67203Y-46303D01*
X67221Y-46340D01*
X67240Y-46415D01*
X67240Y-46509D01*
X67221Y-46584D01*
X67203Y-46621D01*
X67184Y-46640D01*
X67146Y-46659D01*
X67109Y-46659D01*
X67071Y-46640D01*
X67053Y-46621D01*
X67034Y-46584D01*
X67015Y-46509D01*
X67015Y-46415D01*
X67034Y-46340D01*
X67053Y-46303D01*
X67071Y-46284D01*
X67109Y-46265D01*
X67596Y-46265D02*
X67409Y-46265D01*
X67390Y-46453D01*
X67409Y-46434D01*
X67446Y-46415D01*
X67540Y-46415D01*
X67577Y-46434D01*
X67596Y-46453D01*
X67615Y-46490D01*
X67615Y-46584D01*
X67596Y-46621D01*
X67577Y-46640D01*
X67540Y-46659D01*
X67446Y-46659D01*
X67409Y-46640D01*
X67390Y-46621D01*
X67784Y-46659D02*
X67784Y-46265D01*
X67877Y-46265D01*
X67934Y-46284D01*
X67971Y-46321D01*
X67990Y-46359D01*
X68009Y-46434D01*
X68009Y-46490D01*
X67990Y-46565D01*
X67971Y-46603D01*
X67934Y-46640D01*
X67877Y-46659D01*
X67784Y-46659D01*
X70200Y-42765D02*
X70200Y-43084D01*
X70218Y-43121D01*
X70237Y-43140D01*
X70275Y-43159D01*
X70350Y-43159D01*
X70387Y-43140D01*
X70406Y-43121D01*
X70425Y-43084D01*
X70425Y-42765D01*
X70781Y-42896D02*
X70781Y-43159D01*
X70687Y-42746D02*
X70593Y-43028D01*
X70837Y-43028D01*
X65234Y-43159D02*
X65103Y-42971D01*
X65009Y-43159D02*
X65009Y-42765D01*
X65159Y-42765D01*
X65197Y-42784D01*
X65215Y-42803D01*
X65234Y-42840D01*
X65234Y-42896D01*
X65215Y-42934D01*
X65197Y-42953D01*
X65159Y-42971D01*
X65009Y-42971D01*
X65534Y-42953D02*
X65590Y-42971D01*
X65609Y-42990D01*
X65628Y-43028D01*
X65628Y-43084D01*
X65609Y-43121D01*
X65590Y-43140D01*
X65553Y-43159D01*
X65403Y-43159D01*
X65403Y-42765D01*
X65534Y-42765D01*
X65571Y-42784D01*
X65590Y-42803D01*
X65609Y-42840D01*
X65609Y-42878D01*
X65590Y-42915D01*
X65571Y-42934D01*
X65534Y-42953D01*
X65403Y-42953D01*
X65796Y-43009D02*
X66096Y-43009D01*
X66359Y-42765D02*
X66396Y-42765D01*
X66434Y-42784D01*
X66453Y-42803D01*
X66471Y-42840D01*
X66490Y-42915D01*
X66490Y-43009D01*
X66471Y-43084D01*
X66453Y-43121D01*
X66434Y-43140D01*
X66396Y-43159D01*
X66359Y-43159D01*
X66321Y-43140D01*
X66303Y-43121D01*
X66284Y-43084D01*
X66265Y-43009D01*
X66265Y-42915D01*
X66284Y-42840D01*
X66303Y-42803D01*
X66321Y-42784D01*
X66359Y-42765D01*
X66846Y-42765D02*
X66659Y-42765D01*
X66640Y-42953D01*
X66659Y-42934D01*
X66696Y-42915D01*
X66790Y-42915D01*
X66828Y-42934D01*
X66846Y-42953D01*
X66865Y-42990D01*
X66865Y-43084D01*
X66846Y-43121D01*
X66828Y-43140D01*
X66790Y-43159D01*
X66696Y-43159D01*
X66659Y-43140D01*
X66640Y-43121D01*
X67240Y-43159D02*
X67015Y-43159D01*
X67128Y-43159D02*
X67128Y-42765D01*
X67090Y-42821D01*
X67053Y-42859D01*
X67015Y-42878D01*
X67390Y-42803D02*
X67409Y-42784D01*
X67446Y-42765D01*
X67540Y-42765D01*
X67577Y-42784D01*
X67596Y-42803D01*
X67615Y-42840D01*
X67615Y-42878D01*
X67596Y-42934D01*
X67371Y-43159D01*
X67615Y-43159D01*
X67784Y-43159D02*
X67784Y-42765D01*
X67877Y-42765D01*
X67934Y-42784D01*
X67971Y-42821D01*
X67990Y-42859D01*
X68009Y-42934D01*
X68009Y-42990D01*
X67990Y-43065D01*
X67971Y-43103D01*
X67934Y-43140D01*
X67877Y-43159D01*
X67784Y-43159D01*
X70200Y-39265D02*
X70200Y-39584D01*
X70218Y-39621D01*
X70237Y-39640D01*
X70275Y-39659D01*
X70350Y-39659D01*
X70387Y-39640D01*
X70406Y-39621D01*
X70425Y-39584D01*
X70425Y-39265D01*
X70574Y-39265D02*
X70818Y-39265D01*
X70687Y-39415D01*
X70743Y-39415D01*
X70781Y-39434D01*
X70799Y-39453D01*
X70818Y-39490D01*
X70818Y-39584D01*
X70799Y-39621D01*
X70781Y-39640D01*
X70743Y-39659D01*
X70631Y-39659D01*
X70593Y-39640D01*
X70574Y-39621D01*
X65243Y-39659D02*
X65112Y-39471D01*
X65018Y-39659D02*
X65018Y-39265D01*
X65168Y-39265D01*
X65206Y-39284D01*
X65225Y-39303D01*
X65243Y-39340D01*
X65243Y-39396D01*
X65225Y-39434D01*
X65206Y-39453D01*
X65168Y-39471D01*
X65018Y-39471D01*
X65543Y-39453D02*
X65600Y-39471D01*
X65618Y-39490D01*
X65637Y-39528D01*
X65637Y-39584D01*
X65618Y-39621D01*
X65600Y-39640D01*
X65562Y-39659D01*
X65412Y-39659D01*
X65412Y-39265D01*
X65543Y-39265D01*
X65581Y-39284D01*
X65600Y-39303D01*
X65618Y-39340D01*
X65618Y-39378D01*
X65600Y-39415D01*
X65581Y-39434D01*
X65543Y-39453D01*
X65412Y-39453D01*
X65806Y-39509D02*
X66106Y-39509D01*
X66368Y-39265D02*
X66406Y-39265D01*
X66443Y-39284D01*
X66462Y-39303D01*
X66481Y-39340D01*
X66500Y-39415D01*
X66500Y-39509D01*
X66481Y-39584D01*
X66462Y-39621D01*
X66443Y-39640D01*
X66406Y-39659D01*
X66368Y-39659D01*
X66331Y-39640D01*
X66312Y-39621D01*
X66293Y-39584D01*
X66275Y-39509D01*
X66275Y-39415D01*
X66293Y-39340D01*
X66312Y-39303D01*
X66331Y-39284D01*
X66368Y-39265D01*
X66856Y-39265D02*
X66668Y-39265D01*
X66649Y-39453D01*
X66668Y-39434D01*
X66706Y-39415D01*
X66799Y-39415D01*
X66837Y-39434D01*
X66856Y-39453D01*
X66874Y-39490D01*
X66874Y-39584D01*
X66856Y-39621D01*
X66837Y-39640D01*
X66799Y-39659D01*
X66706Y-39659D01*
X66668Y-39640D01*
X66649Y-39621D01*
X67249Y-39659D02*
X67024Y-39659D01*
X67137Y-39659D02*
X67137Y-39265D01*
X67099Y-39321D01*
X67062Y-39359D01*
X67024Y-39378D01*
X67606Y-39265D02*
X67418Y-39265D01*
X67399Y-39453D01*
X67418Y-39434D01*
X67456Y-39415D01*
X67549Y-39415D01*
X67587Y-39434D01*
X67606Y-39453D01*
X67624Y-39490D01*
X67624Y-39584D01*
X67606Y-39621D01*
X67587Y-39640D01*
X67549Y-39659D01*
X67456Y-39659D01*
X67418Y-39640D01*
X67399Y-39621D01*
X67774Y-39640D02*
X67831Y-39659D01*
X67924Y-39659D01*
X67962Y-39640D01*
X67981Y-39621D01*
X67999Y-39584D01*
X67999Y-39546D01*
X67981Y-39509D01*
X67962Y-39490D01*
X67924Y-39471D01*
X67849Y-39453D01*
X67812Y-39434D01*
X67793Y-39415D01*
X67774Y-39378D01*
X67774Y-39340D01*
X67793Y-39303D01*
X67812Y-39284D01*
X67849Y-39265D01*
X67943Y-39265D01*
X67999Y-39284D01*
X70200Y-35765D02*
X70200Y-36084D01*
X70218Y-36121D01*
X70237Y-36140D01*
X70275Y-36159D01*
X70350Y-36159D01*
X70387Y-36140D01*
X70406Y-36121D01*
X70425Y-36084D01*
X70425Y-35765D01*
X70593Y-35803D02*
X70612Y-35784D01*
X70649Y-35765D01*
X70743Y-35765D01*
X70781Y-35784D01*
X70799Y-35803D01*
X70818Y-35840D01*
X70818Y-35878D01*
X70799Y-35934D01*
X70574Y-36159D01*
X70818Y-36159D01*
X65243Y-36159D02*
X65112Y-35971D01*
X65018Y-36159D02*
X65018Y-35765D01*
X65168Y-35765D01*
X65206Y-35784D01*
X65225Y-35803D01*
X65243Y-35840D01*
X65243Y-35896D01*
X65225Y-35934D01*
X65206Y-35953D01*
X65168Y-35971D01*
X65018Y-35971D01*
X65543Y-35953D02*
X65600Y-35971D01*
X65618Y-35990D01*
X65637Y-36028D01*
X65637Y-36084D01*
X65618Y-36121D01*
X65600Y-36140D01*
X65562Y-36159D01*
X65412Y-36159D01*
X65412Y-35765D01*
X65543Y-35765D01*
X65581Y-35784D01*
X65600Y-35803D01*
X65618Y-35840D01*
X65618Y-35878D01*
X65600Y-35915D01*
X65581Y-35934D01*
X65543Y-35953D01*
X65412Y-35953D01*
X65806Y-36009D02*
X66106Y-36009D01*
X66368Y-35765D02*
X66406Y-35765D01*
X66443Y-35784D01*
X66462Y-35803D01*
X66481Y-35840D01*
X66500Y-35915D01*
X66500Y-36009D01*
X66481Y-36084D01*
X66462Y-36121D01*
X66443Y-36140D01*
X66406Y-36159D01*
X66368Y-36159D01*
X66331Y-36140D01*
X66312Y-36121D01*
X66293Y-36084D01*
X66275Y-36009D01*
X66275Y-35915D01*
X66293Y-35840D01*
X66312Y-35803D01*
X66331Y-35784D01*
X66368Y-35765D01*
X66856Y-35765D02*
X66668Y-35765D01*
X66649Y-35953D01*
X66668Y-35934D01*
X66706Y-35915D01*
X66799Y-35915D01*
X66837Y-35934D01*
X66856Y-35953D01*
X66874Y-35990D01*
X66874Y-36084D01*
X66856Y-36121D01*
X66837Y-36140D01*
X66799Y-36159D01*
X66706Y-36159D01*
X66668Y-36140D01*
X66649Y-36121D01*
X67249Y-36159D02*
X67024Y-36159D01*
X67137Y-36159D02*
X67137Y-35765D01*
X67099Y-35821D01*
X67062Y-35859D01*
X67024Y-35878D01*
X67606Y-35765D02*
X67418Y-35765D01*
X67399Y-35953D01*
X67418Y-35934D01*
X67456Y-35915D01*
X67549Y-35915D01*
X67587Y-35934D01*
X67606Y-35953D01*
X67624Y-35990D01*
X67624Y-36084D01*
X67606Y-36121D01*
X67587Y-36140D01*
X67549Y-36159D01*
X67456Y-36159D01*
X67418Y-36140D01*
X67399Y-36121D01*
X67774Y-36140D02*
X67831Y-36159D01*
X67924Y-36159D01*
X67962Y-36140D01*
X67981Y-36121D01*
X67999Y-36084D01*
X67999Y-36046D01*
X67981Y-36009D01*
X67962Y-35990D01*
X67924Y-35971D01*
X67849Y-35953D01*
X67812Y-35934D01*
X67793Y-35915D01*
X67774Y-35878D01*
X67774Y-35840D01*
X67793Y-35803D01*
X67812Y-35784D01*
X67849Y-35765D01*
X67943Y-35765D01*
X67999Y-35784D01*
G54D16*
X48596Y-42499D02*
X48596Y-43137D01*
X48634Y-43212D01*
X48671Y-43249D01*
X48746Y-43287D01*
X48896Y-43287D01*
X48971Y-43249D01*
X49009Y-43212D01*
X49046Y-43137D01*
X49046Y-42499D01*
X49834Y-43287D02*
X49384Y-43287D01*
X49609Y-43287D02*
X49609Y-42499D01*
X49534Y-42612D01*
X49459Y-42687D01*
X49384Y-42724D01*
X47162Y-39743D02*
X47162Y-38956D01*
X47612Y-39743D02*
X47275Y-39293D01*
X47612Y-38956D02*
X47162Y-39406D01*
X47950Y-39743D02*
X47950Y-38956D01*
X48250Y-38956D01*
X48325Y-38994D01*
X48362Y-39031D01*
X48400Y-39106D01*
X48400Y-39218D01*
X48362Y-39293D01*
X48325Y-39331D01*
X48250Y-39368D01*
X47950Y-39368D01*
X48700Y-39706D02*
X48812Y-39743D01*
X49000Y-39743D01*
X49074Y-39706D01*
X49112Y-39668D01*
X49149Y-39593D01*
X49149Y-39518D01*
X49112Y-39443D01*
X49074Y-39406D01*
X49000Y-39368D01*
X48850Y-39331D01*
X48775Y-39293D01*
X48737Y-39256D01*
X48700Y-39181D01*
X48700Y-39106D01*
X48737Y-39031D01*
X48775Y-38994D01*
X48850Y-38956D01*
X49037Y-38956D01*
X49149Y-38994D01*
X49487Y-39443D02*
X50087Y-39443D01*
X50837Y-38956D02*
X50462Y-38956D01*
X50424Y-39331D01*
X50462Y-39293D01*
X50537Y-39256D01*
X50724Y-39256D01*
X50799Y-39293D01*
X50837Y-39331D01*
X50874Y-39406D01*
X50874Y-39593D01*
X50837Y-39668D01*
X50799Y-39706D01*
X50724Y-39743D01*
X50537Y-39743D01*
X50462Y-39706D01*
X50424Y-39668D01*
G54D17*
X38775Y-41815D02*
X38094Y-41815D01*
X38094Y-41652D01*
X38127Y-41612D01*
X38159Y-41591D01*
X38224Y-41571D01*
X38321Y-41571D01*
X38386Y-41591D01*
X38418Y-41612D01*
X38451Y-41652D01*
X38451Y-41815D01*
X38775Y-41163D02*
X38775Y-41408D01*
X38775Y-41286D02*
X38094Y-41286D01*
X38191Y-41326D01*
X38256Y-41367D01*
X38289Y-41408D01*
G54D11*
G54D12*
X63423Y-37558D02*
X63442Y-37575D01*
X63461Y-37625D01*
X63461Y-37658D01*
X63442Y-37708D01*
X63404Y-37741D01*
X63366Y-37758D01*
X63290Y-37775D01*
X63233Y-37775D01*
X63157Y-37758D01*
X63119Y-37741D01*
X63080Y-37708D01*
X63061Y-37658D01*
X63061Y-37625D01*
X63080Y-37575D01*
X63100Y-37558D01*
X63461Y-37225D02*
X63461Y-37425D01*
X63461Y-37325D02*
X63061Y-37325D01*
X63119Y-37358D01*
X63157Y-37391D01*
X63176Y-37425D01*
X61924Y-37733D02*
X61943Y-37750D01*
X61962Y-37800D01*
X61962Y-37833D01*
X61943Y-37883D01*
X61905Y-37916D01*
X61867Y-37933D01*
X61791Y-37950D01*
X61734Y-37950D01*
X61658Y-37933D01*
X61620Y-37916D01*
X61581Y-37883D01*
X61562Y-37833D01*
X61562Y-37800D01*
X61581Y-37750D01*
X61601Y-37733D01*
X61962Y-37583D02*
X61562Y-37583D01*
X61562Y-37450D01*
X61581Y-37416D01*
X61601Y-37400D01*
X61639Y-37383D01*
X61696Y-37383D01*
X61734Y-37400D01*
X61753Y-37416D01*
X61772Y-37450D01*
X61772Y-37583D01*
X61962Y-37050D02*
X61962Y-37250D01*
X61962Y-37150D02*
X61562Y-37150D01*
X61620Y-37183D01*
X61658Y-37216D01*
X61677Y-37250D01*
X62514Y-38927D02*
X62514Y-38470D01*
X62742Y-38698D02*
X62285Y-38698D01*
X78923Y-41558D02*
X78942Y-41575D01*
X78961Y-41625D01*
X78961Y-41658D01*
X78942Y-41708D01*
X78904Y-41741D01*
X78866Y-41758D01*
X78790Y-41775D01*
X78733Y-41775D01*
X78657Y-41758D01*
X78619Y-41741D01*
X78580Y-41708D01*
X78561Y-41658D01*
X78561Y-41625D01*
X78580Y-41575D01*
X78600Y-41558D01*
X78561Y-41441D02*
X78561Y-41208D01*
X78961Y-41358D01*
X77424Y-41733D02*
X77443Y-41750D01*
X77462Y-41800D01*
X77462Y-41833D01*
X77443Y-41883D01*
X77405Y-41916D01*
X77367Y-41933D01*
X77291Y-41950D01*
X77234Y-41950D01*
X77158Y-41933D01*
X77120Y-41916D01*
X77081Y-41883D01*
X77062Y-41833D01*
X77062Y-41800D01*
X77081Y-41750D01*
X77101Y-41733D01*
X77462Y-41583D02*
X77062Y-41583D01*
X77062Y-41450D01*
X77081Y-41416D01*
X77101Y-41400D01*
X77139Y-41383D01*
X77196Y-41383D01*
X77234Y-41400D01*
X77253Y-41416D01*
X77272Y-41450D01*
X77272Y-41583D01*
X77462Y-41050D02*
X77462Y-41250D01*
X77462Y-41150D02*
X77062Y-41150D01*
X77120Y-41183D01*
X77158Y-41216D01*
X77177Y-41250D01*
X78014Y-42927D02*
X78014Y-42470D01*
X78242Y-42698D02*
X77785Y-42698D01*
X78923Y-37558D02*
X78942Y-37575D01*
X78961Y-37625D01*
X78961Y-37658D01*
X78942Y-37708D01*
X78904Y-37741D01*
X78866Y-37758D01*
X78790Y-37775D01*
X78733Y-37775D01*
X78657Y-37758D01*
X78619Y-37741D01*
X78580Y-37708D01*
X78561Y-37658D01*
X78561Y-37625D01*
X78580Y-37575D01*
X78600Y-37558D01*
X78561Y-37441D02*
X78561Y-37225D01*
X78714Y-37341D01*
X78714Y-37291D01*
X78733Y-37258D01*
X78752Y-37241D01*
X78790Y-37225D01*
X78885Y-37225D01*
X78923Y-37241D01*
X78942Y-37258D01*
X78961Y-37291D01*
X78961Y-37391D01*
X78942Y-37425D01*
X78923Y-37441D01*
X77424Y-37733D02*
X77443Y-37750D01*
X77462Y-37800D01*
X77462Y-37833D01*
X77443Y-37883D01*
X77405Y-37916D01*
X77367Y-37933D01*
X77291Y-37950D01*
X77234Y-37950D01*
X77158Y-37933D01*
X77120Y-37916D01*
X77081Y-37883D01*
X77062Y-37833D01*
X77062Y-37800D01*
X77081Y-37750D01*
X77101Y-37733D01*
X77462Y-37583D02*
X77062Y-37583D01*
X77062Y-37450D01*
X77081Y-37416D01*
X77101Y-37400D01*
X77139Y-37383D01*
X77196Y-37383D01*
X77234Y-37400D01*
X77253Y-37416D01*
X77272Y-37450D01*
X77272Y-37583D01*
X77462Y-37050D02*
X77462Y-37250D01*
X77462Y-37150D02*
X77062Y-37150D01*
X77120Y-37183D01*
X77158Y-37216D01*
X77177Y-37250D01*
X78014Y-38927D02*
X78014Y-38470D01*
X78242Y-38698D02*
X77785Y-38698D01*
X75423Y-40558D02*
X75442Y-40575D01*
X75461Y-40625D01*
X75461Y-40658D01*
X75442Y-40708D01*
X75404Y-40741D01*
X75366Y-40758D01*
X75290Y-40775D01*
X75233Y-40775D01*
X75157Y-40758D01*
X75119Y-40741D01*
X75080Y-40708D01*
X75061Y-40658D01*
X75061Y-40625D01*
X75080Y-40575D01*
X75100Y-40558D01*
X75061Y-40258D02*
X75061Y-40325D01*
X75080Y-40358D01*
X75100Y-40375D01*
X75157Y-40408D01*
X75233Y-40425D01*
X75385Y-40425D01*
X75423Y-40408D01*
X75442Y-40391D01*
X75461Y-40358D01*
X75461Y-40291D01*
X75442Y-40258D01*
X75423Y-40241D01*
X75385Y-40225D01*
X75290Y-40225D01*
X75252Y-40241D01*
X75233Y-40258D01*
X75214Y-40291D01*
X75214Y-40358D01*
X75233Y-40391D01*
X75252Y-40408D01*
X75290Y-40425D01*
X73924Y-40733D02*
X73943Y-40750D01*
X73962Y-40800D01*
X73962Y-40833D01*
X73943Y-40883D01*
X73905Y-40916D01*
X73867Y-40933D01*
X73791Y-40950D01*
X73734Y-40950D01*
X73658Y-40933D01*
X73620Y-40916D01*
X73581Y-40883D01*
X73562Y-40833D01*
X73562Y-40800D01*
X73581Y-40750D01*
X73601Y-40733D01*
X73962Y-40583D02*
X73562Y-40583D01*
X73562Y-40450D01*
X73581Y-40416D01*
X73601Y-40400D01*
X73639Y-40383D01*
X73696Y-40383D01*
X73734Y-40400D01*
X73753Y-40416D01*
X73772Y-40450D01*
X73772Y-40583D01*
X73962Y-40050D02*
X73962Y-40250D01*
X73962Y-40150D02*
X73562Y-40150D01*
X73620Y-40183D01*
X73658Y-40216D01*
X73677Y-40250D01*
X74514Y-41927D02*
X74514Y-41470D01*
X74742Y-41698D02*
X74285Y-41698D01*
X74323Y-35558D02*
X74342Y-35575D01*
X74361Y-35625D01*
X74361Y-35658D01*
X74342Y-35708D01*
X74304Y-35741D01*
X74266Y-35758D01*
X74190Y-35775D01*
X74133Y-35775D01*
X74057Y-35758D01*
X74019Y-35741D01*
X73980Y-35708D01*
X73961Y-35658D01*
X73961Y-35625D01*
X73980Y-35575D01*
X74000Y-35558D01*
X74000Y-35425D02*
X73980Y-35408D01*
X73961Y-35375D01*
X73961Y-35291D01*
X73980Y-35258D01*
X74000Y-35241D01*
X74038Y-35225D01*
X74076Y-35225D01*
X74133Y-35241D01*
X74361Y-35441D01*
X74361Y-35225D01*
X75822Y-35733D02*
X75841Y-35750D01*
X75860Y-35800D01*
X75860Y-35833D01*
X75841Y-35883D01*
X75803Y-35916D01*
X75765Y-35933D01*
X75689Y-35950D01*
X75632Y-35950D01*
X75556Y-35933D01*
X75518Y-35916D01*
X75479Y-35883D01*
X75460Y-35833D01*
X75460Y-35800D01*
X75479Y-35750D01*
X75499Y-35733D01*
X75860Y-35583D02*
X75460Y-35583D01*
X75460Y-35450D01*
X75479Y-35416D01*
X75499Y-35400D01*
X75537Y-35383D01*
X75594Y-35383D01*
X75632Y-35400D01*
X75651Y-35416D01*
X75670Y-35450D01*
X75670Y-35583D01*
X75860Y-35050D02*
X75860Y-35250D01*
X75860Y-35150D02*
X75460Y-35150D01*
X75518Y-35183D01*
X75556Y-35216D01*
X75575Y-35250D01*
X75014Y-34529D02*
X75014Y-34072D01*
X75242Y-34300D02*
X74785Y-34300D01*
X75923Y-44058D02*
X75942Y-44075D01*
X75961Y-44125D01*
X75961Y-44158D01*
X75942Y-44208D01*
X75904Y-44241D01*
X75866Y-44258D01*
X75790Y-44275D01*
X75733Y-44275D01*
X75657Y-44258D01*
X75619Y-44241D01*
X75580Y-44208D01*
X75561Y-44158D01*
X75561Y-44125D01*
X75580Y-44075D01*
X75600Y-44058D01*
X75695Y-43758D02*
X75961Y-43758D01*
X75542Y-43841D02*
X75828Y-43925D01*
X75828Y-43708D01*
X74424Y-44233D02*
X74443Y-44250D01*
X74462Y-44300D01*
X74462Y-44333D01*
X74443Y-44383D01*
X74405Y-44416D01*
X74367Y-44433D01*
X74291Y-44450D01*
X74234Y-44450D01*
X74158Y-44433D01*
X74120Y-44416D01*
X74081Y-44383D01*
X74062Y-44333D01*
X74062Y-44300D01*
X74081Y-44250D01*
X74101Y-44233D01*
X74462Y-44083D02*
X74062Y-44083D01*
X74062Y-43950D01*
X74081Y-43916D01*
X74101Y-43900D01*
X74139Y-43883D01*
X74196Y-43883D01*
X74234Y-43900D01*
X74253Y-43916D01*
X74272Y-43950D01*
X74272Y-44083D01*
X74462Y-43550D02*
X74462Y-43750D01*
X74462Y-43650D02*
X74062Y-43650D01*
X74120Y-43683D01*
X74158Y-43716D01*
X74177Y-43750D01*
X75014Y-45427D02*
X75014Y-44970D01*
X75242Y-45198D02*
X74785Y-45198D01*
X77323Y-46058D02*
X77342Y-46075D01*
X77361Y-46125D01*
X77361Y-46158D01*
X77342Y-46208D01*
X77304Y-46241D01*
X77266Y-46258D01*
X77190Y-46275D01*
X77133Y-46275D01*
X77057Y-46258D01*
X77019Y-46241D01*
X76980Y-46208D01*
X76961Y-46158D01*
X76961Y-46125D01*
X76980Y-46075D01*
X77000Y-46058D01*
X76961Y-45741D02*
X76961Y-45908D01*
X77152Y-45925D01*
X77133Y-45908D01*
X77114Y-45875D01*
X77114Y-45791D01*
X77133Y-45758D01*
X77152Y-45741D01*
X77190Y-45725D01*
X77285Y-45725D01*
X77323Y-45741D01*
X77342Y-45758D01*
X77361Y-45791D01*
X77361Y-45875D01*
X77342Y-45908D01*
X77323Y-45925D01*
X78822Y-46233D02*
X78841Y-46250D01*
X78860Y-46300D01*
X78860Y-46333D01*
X78841Y-46383D01*
X78803Y-46416D01*
X78765Y-46433D01*
X78689Y-46450D01*
X78632Y-46450D01*
X78556Y-46433D01*
X78518Y-46416D01*
X78479Y-46383D01*
X78460Y-46333D01*
X78460Y-46300D01*
X78479Y-46250D01*
X78499Y-46233D01*
X78860Y-46083D02*
X78460Y-46083D01*
X78460Y-45950D01*
X78479Y-45916D01*
X78499Y-45900D01*
X78537Y-45883D01*
X78594Y-45883D01*
X78632Y-45900D01*
X78651Y-45916D01*
X78670Y-45950D01*
X78670Y-46083D01*
X78860Y-45550D02*
X78860Y-45750D01*
X78860Y-45650D02*
X78460Y-45650D01*
X78518Y-45683D01*
X78556Y-45716D01*
X78575Y-45750D01*
X78014Y-45029D02*
X78014Y-44572D01*
X78242Y-44800D02*
X77785Y-44800D01*
G54D14*
X37609Y-32961D02*
X37380Y-32961D01*
X37495Y-32961D02*
X37495Y-32561D01*
X37457Y-32619D01*
X37419Y-32657D01*
X37380Y-32676D01*
X37780Y-32961D02*
X37780Y-32561D01*
X37933Y-32561D01*
X37971Y-32580D01*
X37990Y-32600D01*
X38009Y-32638D01*
X38009Y-32695D01*
X37990Y-32733D01*
X37971Y-32752D01*
X37933Y-32771D01*
X37780Y-32771D01*
X38180Y-32961D02*
X38180Y-32561D01*
X38371Y-32961D02*
X38371Y-32561D01*
X38600Y-32961D01*
X38600Y-32561D01*
X37609Y-45461D02*
X37380Y-45461D01*
X37495Y-45461D02*
X37495Y-45061D01*
X37457Y-45119D01*
X37419Y-45157D01*
X37380Y-45176D01*
X37780Y-45461D02*
X37780Y-45061D01*
X37933Y-45061D01*
X37971Y-45080D01*
X37990Y-45100D01*
X38009Y-45138D01*
X38009Y-45195D01*
X37990Y-45233D01*
X37971Y-45252D01*
X37933Y-45271D01*
X37780Y-45271D01*
X38180Y-45461D02*
X38180Y-45061D01*
X38371Y-45461D02*
X38371Y-45061D01*
X38600Y-45461D01*
X38600Y-45061D01*
G54D18*
X79783Y-44016D02*
X79083Y-44016D01*
X79083Y-43749D01*
X79116Y-43683D01*
X79150Y-43649D01*
X79216Y-43616D01*
X79316Y-43616D01*
X79383Y-43649D01*
X79416Y-43683D01*
X79450Y-43749D01*
X79450Y-44016D01*
X79150Y-43349D02*
X79116Y-43316D01*
X79083Y-43249D01*
X79083Y-43083D01*
X79116Y-43016D01*
X79150Y-42983D01*
X79216Y-42949D01*
X79283Y-42949D01*
X79383Y-42983D01*
X79783Y-43383D01*
X79783Y-42949D01*
X84216Y-41650D02*
X84250Y-41683D01*
X84283Y-41783D01*
X84283Y-41850D01*
X84250Y-41950D01*
X84183Y-42016D01*
X84116Y-42050D01*
X83983Y-42083D01*
X83883Y-42083D01*
X83750Y-42050D01*
X83683Y-42016D01*
X83616Y-41950D01*
X83583Y-41850D01*
X83583Y-41783D01*
X83616Y-41683D01*
X83650Y-41650D01*
X83583Y-41216D02*
X83583Y-41083D01*
X83616Y-41016D01*
X83683Y-40950D01*
X83816Y-40916D01*
X84050Y-40916D01*
X84183Y-40950D01*
X84250Y-41016D01*
X84283Y-41083D01*
X84283Y-41216D01*
X84250Y-41283D01*
X84183Y-41350D01*
X84050Y-41383D01*
X83816Y-41383D01*
X83683Y-41350D01*
X83616Y-41283D01*
X83583Y-41216D01*
X84283Y-40616D02*
X83583Y-40616D01*
X84283Y-40216D01*
X83583Y-40216D01*
X84283Y-39883D02*
X83583Y-39883D01*
X84283Y-39483D01*
X83583Y-39483D01*
X84350Y-39316D02*
X84350Y-38783D01*
X83583Y-38283D02*
X83583Y-38616D01*
X83916Y-38649D01*
X83883Y-38616D01*
X83850Y-38549D01*
X83850Y-38383D01*
X83883Y-38316D01*
X83916Y-38283D01*
X83983Y-38249D01*
X84150Y-38249D01*
X84216Y-38283D01*
X84250Y-38316D01*
X84283Y-38383D01*
X84283Y-38549D01*
X84250Y-38616D01*
X84216Y-38649D01*
X83583Y-38016D02*
X84283Y-37549D01*
X83583Y-37549D02*
X84283Y-38016D01*
X83650Y-37316D02*
X83616Y-37283D01*
X83583Y-37216D01*
X83583Y-37049D01*
X83616Y-36983D01*
X83650Y-36949D01*
X83716Y-36916D01*
X83783Y-36916D01*
X83883Y-36949D01*
X84283Y-37349D01*
X84283Y-36916D01*
G54D14*
X81109Y-32961D02*
X80880Y-32961D01*
X80995Y-32961D02*
X80995Y-32561D01*
X80957Y-32619D01*
X80919Y-32657D01*
X80880Y-32676D01*
X81280Y-32961D02*
X81280Y-32561D01*
X81433Y-32561D01*
X81471Y-32580D01*
X81490Y-32600D01*
X81509Y-32638D01*
X81509Y-32695D01*
X81490Y-32733D01*
X81471Y-32752D01*
X81433Y-32771D01*
X81280Y-32771D01*
X81680Y-32961D02*
X81680Y-32561D01*
X81871Y-32961D02*
X81871Y-32561D01*
X82100Y-32961D01*
X82100Y-32561D01*
X81109Y-45461D02*
X80880Y-45461D01*
X80995Y-45461D02*
X80995Y-45061D01*
X80957Y-45119D01*
X80919Y-45157D01*
X80880Y-45176D01*
X81280Y-45461D02*
X81280Y-45061D01*
X81433Y-45061D01*
X81471Y-45080D01*
X81490Y-45100D01*
X81509Y-45138D01*
X81509Y-45195D01*
X81490Y-45233D01*
X81471Y-45252D01*
X81433Y-45271D01*
X81280Y-45271D01*
X81680Y-45461D02*
X81680Y-45061D01*
X81871Y-45461D02*
X81871Y-45061D01*
X82100Y-45461D01*
X82100Y-45061D01*
M02*
