M48
INCH,TZ
T1C0.025
T2C0.028
T3C0.032
T4C0.039
T5C0.047
T6C0.120
%
G90
G05
T1
X51000Y-36100
X51100Y-40900
X51100Y-46100
X51100Y-51500
X66400Y-33800
X67400Y-54700
X70200Y-33800
X70600Y-35200
X70800Y-37300
X71400Y-42300
X71800Y-53000
X71900Y-34400
X71900Y-35600
X72000Y-47600
X73200Y-52000
X73300Y-35800
X73400Y-53200
X73600Y-38600
X73600Y-41100
X73600Y-44000
X73600Y-46600
X73600Y-49200
T2
X68550Y-36400
X68550Y-41700
X68600Y-47000
X68600Y-52300
T3
X37400Y-51950
X37400Y-52950
X37400Y-53950
T4
X68400Y-30500
X68400Y-31500
X69400Y-30500
X69400Y-31500
X70400Y-30500
X70400Y-31500
X71400Y-30500
X71400Y-31500
X72400Y-30500
X72400Y-31500
T5
X37635Y-31089
X41572Y-49593
X45509Y-31089
X48462Y-49593
T6
X44600Y-53100
X57200Y-30000
X73700Y-34000
X73700Y-50800
T0
M30
