G04 (created by PCBNEW (2013-may-18)-stable) date 2014年04月10日 星期四 23时30分17秒*
%MOIN*%
G04 Gerber Fmt 3.4, Leading zero omitted, Abs format*
%FSLAX34Y34*%
G01*
G70*
G90*
G04 APERTURE LIST*
%ADD10C,0.00590551*%
%ADD11C,0.01*%
%ADD12C,0.016*%
%ADD13C,0.012*%
%ADD14C,0.008*%
%ADD15C,0.005*%
%ADD16C,0.015*%
%ADD17C,0.0035*%
%ADD18C,0.0106*%
%ADD19C,0.0019685*%
%ADD20C,0.006*%
%ADD21C,0.011811*%
%ADD22C,0.0024*%
G04 APERTURE END LIST*
G54D10*
G54D11*
X74150Y-32500D02*
X74400Y-32750D01*
X74150Y-29500D02*
X74400Y-29250D01*
X66650Y-29500D02*
X66400Y-29250D01*
X66650Y-32500D02*
X66400Y-32750D01*
X69650Y-29250D02*
X69650Y-29500D01*
X69650Y-29500D02*
X66650Y-29500D01*
X66650Y-29500D02*
X66650Y-32500D01*
X66650Y-32500D02*
X74150Y-32500D01*
X74150Y-32500D02*
X74150Y-29500D01*
X74150Y-29500D02*
X71150Y-29500D01*
X71150Y-29500D02*
X71150Y-29250D01*
X74400Y-29250D02*
X66400Y-29250D01*
X66400Y-32750D02*
X74400Y-32750D01*
X74400Y-32750D02*
X74400Y-29250D01*
X66400Y-32750D02*
X66400Y-29250D01*
G54D12*
X73352Y-30225D02*
X73077Y-29804D01*
X73077Y-29804D02*
X72801Y-30225D01*
X72801Y-30225D02*
X73352Y-30225D01*
G54D10*
X60053Y-34696D02*
X56746Y-34696D01*
X56746Y-34696D02*
X56746Y-37373D01*
X56746Y-37373D02*
X57376Y-38003D01*
X57376Y-38003D02*
X59423Y-38003D01*
X59423Y-38003D02*
X60053Y-37373D01*
X60053Y-37373D02*
X60053Y-34696D01*
X59974Y-36350D02*
G75*
G03X59974Y-36350I-1574J0D01*
G74*
G01*
X60053Y-50596D02*
X56746Y-50596D01*
X56746Y-50596D02*
X56746Y-53273D01*
X56746Y-53273D02*
X57376Y-53903D01*
X57376Y-53903D02*
X59423Y-53903D01*
X59423Y-53903D02*
X60053Y-53273D01*
X60053Y-53273D02*
X60053Y-50596D01*
X59974Y-52250D02*
G75*
G03X59974Y-52250I-1574J0D01*
G74*
G01*
X60053Y-39996D02*
X56746Y-39996D01*
X56746Y-39996D02*
X56746Y-42673D01*
X56746Y-42673D02*
X57376Y-43303D01*
X57376Y-43303D02*
X59423Y-43303D01*
X59423Y-43303D02*
X60053Y-42673D01*
X60053Y-42673D02*
X60053Y-39996D01*
X59974Y-41650D02*
G75*
G03X59974Y-41650I-1574J0D01*
G74*
G01*
X60053Y-45296D02*
X56746Y-45296D01*
X56746Y-45296D02*
X56746Y-47973D01*
X56746Y-47973D02*
X57376Y-48603D01*
X57376Y-48603D02*
X59423Y-48603D01*
X59423Y-48603D02*
X60053Y-47973D01*
X60053Y-47973D02*
X60053Y-45296D01*
X59974Y-46950D02*
G75*
G03X59974Y-46950I-1574J0D01*
G74*
G01*
X51246Y-29546D02*
X51246Y-32853D01*
X51246Y-32853D02*
X53923Y-32853D01*
X53923Y-32853D02*
X54553Y-32223D01*
X54553Y-32223D02*
X54553Y-30176D01*
X54553Y-30176D02*
X53923Y-29546D01*
X53923Y-29546D02*
X51246Y-29546D01*
X54474Y-31200D02*
G75*
G03X54474Y-31200I-1574J0D01*
G74*
G01*
X64446Y-38353D02*
X67753Y-38353D01*
X67753Y-38353D02*
X67753Y-35676D01*
X67753Y-35676D02*
X67123Y-35046D01*
X67123Y-35046D02*
X65076Y-35046D01*
X65076Y-35046D02*
X64446Y-35676D01*
X64446Y-35676D02*
X64446Y-38353D01*
X67674Y-36700D02*
G75*
G03X67674Y-36700I-1574J0D01*
G74*
G01*
X67753Y-45646D02*
X64446Y-45646D01*
X64446Y-45646D02*
X64446Y-48323D01*
X64446Y-48323D02*
X65076Y-48953D01*
X65076Y-48953D02*
X67123Y-48953D01*
X67123Y-48953D02*
X67753Y-48323D01*
X67753Y-48323D02*
X67753Y-45646D01*
X67674Y-47300D02*
G75*
G03X67674Y-47300I-1574J0D01*
G74*
G01*
X64446Y-43653D02*
X67753Y-43653D01*
X67753Y-43653D02*
X67753Y-40976D01*
X67753Y-40976D02*
X67123Y-40346D01*
X67123Y-40346D02*
X65076Y-40346D01*
X65076Y-40346D02*
X64446Y-40976D01*
X64446Y-40976D02*
X64446Y-43653D01*
X67674Y-42000D02*
G75*
G03X67674Y-42000I-1574J0D01*
G74*
G01*
X67753Y-50946D02*
X64446Y-50946D01*
X64446Y-50946D02*
X64446Y-53623D01*
X64446Y-53623D02*
X65076Y-54253D01*
X65076Y-54253D02*
X67123Y-54253D01*
X67123Y-54253D02*
X67753Y-53623D01*
X67753Y-53623D02*
X67753Y-50946D01*
X67674Y-52600D02*
G75*
G03X67674Y-52600I-1574J0D01*
G74*
G01*
X60270Y-50281D02*
X64129Y-50281D01*
X64129Y-50281D02*
X64129Y-54218D01*
X64129Y-54218D02*
X60270Y-54218D01*
X60270Y-54218D02*
X60270Y-50281D01*
X60270Y-39681D02*
X64129Y-39681D01*
X64129Y-39681D02*
X64129Y-43618D01*
X64129Y-43618D02*
X60270Y-43618D01*
X60270Y-43618D02*
X60270Y-39681D01*
X60270Y-44981D02*
X64129Y-44981D01*
X64129Y-44981D02*
X64129Y-48918D01*
X64129Y-48918D02*
X60270Y-48918D01*
X60270Y-48918D02*
X60270Y-44981D01*
X60270Y-29631D02*
X64129Y-29631D01*
X64129Y-29631D02*
X64129Y-33568D01*
X64129Y-33568D02*
X60270Y-33568D01*
X60270Y-33568D02*
X60270Y-29631D01*
X60270Y-34381D02*
X64129Y-34381D01*
X64129Y-34381D02*
X64129Y-38318D01*
X64129Y-38318D02*
X60270Y-38318D01*
X60270Y-38318D02*
X60270Y-34381D01*
G54D13*
X37900Y-54450D02*
X36900Y-54450D01*
X36900Y-54450D02*
X36900Y-51450D01*
X36900Y-51450D02*
X37900Y-51450D01*
X37900Y-51450D02*
X37900Y-54450D01*
X36900Y-53450D02*
X37900Y-53450D01*
G54D10*
X64527Y-39036D02*
X64527Y-38563D01*
X64527Y-38563D02*
X65472Y-38563D01*
X65472Y-38563D02*
X65472Y-39036D01*
X65472Y-39036D02*
X64527Y-39036D01*
X64527Y-34836D02*
X64527Y-34363D01*
X64527Y-34363D02*
X65472Y-34363D01*
X65472Y-34363D02*
X65472Y-34836D01*
X65472Y-34836D02*
X64527Y-34836D01*
X64527Y-44336D02*
X64527Y-43863D01*
X64527Y-43863D02*
X65472Y-43863D01*
X65472Y-43863D02*
X65472Y-44336D01*
X65472Y-44336D02*
X64527Y-44336D01*
X64527Y-40136D02*
X64527Y-39663D01*
X64527Y-39663D02*
X65472Y-39663D01*
X65472Y-39663D02*
X65472Y-40136D01*
X65472Y-40136D02*
X64527Y-40136D01*
X64527Y-49636D02*
X64527Y-49163D01*
X64527Y-49163D02*
X65472Y-49163D01*
X65472Y-49163D02*
X65472Y-49636D01*
X65472Y-49636D02*
X64527Y-49636D01*
X39901Y-54867D02*
X39567Y-55201D01*
X39567Y-55201D02*
X38898Y-54532D01*
X38898Y-54532D02*
X39232Y-54198D01*
X39232Y-54198D02*
X39901Y-54867D01*
X64527Y-45436D02*
X64527Y-44963D01*
X64527Y-44963D02*
X65472Y-44963D01*
X65472Y-44963D02*
X65472Y-45436D01*
X65472Y-45436D02*
X64527Y-45436D01*
X64527Y-54936D02*
X64527Y-54463D01*
X64527Y-54463D02*
X65472Y-54463D01*
X65472Y-54463D02*
X65472Y-54936D01*
X65472Y-54936D02*
X64527Y-54936D01*
X64527Y-50736D02*
X64527Y-50263D01*
X64527Y-50263D02*
X65472Y-50263D01*
X65472Y-50263D02*
X65472Y-50736D01*
X65472Y-50736D02*
X64527Y-50736D01*
X52200Y-44450D02*
X53700Y-44450D01*
X53700Y-44450D02*
X53700Y-49450D01*
X53700Y-49450D02*
X50700Y-49450D01*
X50700Y-49450D02*
X50700Y-44450D01*
X50700Y-44450D02*
X52200Y-44450D01*
X52200Y-33850D02*
X53700Y-33850D01*
X53700Y-33850D02*
X53700Y-38850D01*
X53700Y-38850D02*
X50700Y-38850D01*
X50700Y-38850D02*
X50700Y-33850D01*
X50700Y-33850D02*
X52200Y-33850D01*
X52200Y-49750D02*
X53700Y-49750D01*
X53700Y-49750D02*
X53700Y-54750D01*
X53700Y-54750D02*
X50700Y-54750D01*
X50700Y-54750D02*
X50700Y-49750D01*
X50700Y-49750D02*
X52200Y-49750D01*
X52200Y-39150D02*
X53700Y-39150D01*
X53700Y-39150D02*
X53700Y-44150D01*
X53700Y-44150D02*
X50700Y-44150D01*
X50700Y-44150D02*
X50700Y-39150D01*
X50700Y-39150D02*
X52200Y-39150D01*
G54D14*
X68475Y-47625D02*
X67975Y-47150D01*
X67975Y-47625D02*
X69225Y-47625D01*
X69225Y-47625D02*
X69225Y-46375D01*
X69225Y-46375D02*
X67975Y-46375D01*
X67975Y-46375D02*
X67975Y-47625D01*
X68425Y-42325D02*
X67925Y-41850D01*
X67925Y-42325D02*
X69175Y-42325D01*
X69175Y-42325D02*
X69175Y-41075D01*
X69175Y-41075D02*
X67925Y-41075D01*
X67925Y-41075D02*
X67925Y-42325D01*
X68475Y-52925D02*
X67975Y-52450D01*
X67975Y-52925D02*
X69225Y-52925D01*
X69225Y-52925D02*
X69225Y-51675D01*
X69225Y-51675D02*
X67975Y-51675D01*
X67975Y-51675D02*
X67975Y-52925D01*
X68425Y-37025D02*
X67925Y-36550D01*
X67925Y-37025D02*
X69175Y-37025D01*
X69175Y-37025D02*
X69175Y-35775D01*
X69175Y-35775D02*
X67925Y-35775D01*
X67925Y-35775D02*
X67925Y-37025D01*
G54D10*
X37635Y-31088D02*
X37635Y-29513D01*
X45509Y-31088D02*
X45509Y-29513D01*
X50430Y-31088D02*
X36650Y-31088D01*
X41572Y-51167D02*
X41572Y-49592D01*
X48462Y-51167D02*
X48462Y-49592D01*
X50430Y-49592D02*
X36650Y-49592D01*
X50430Y-51167D02*
X50430Y-29513D01*
X50430Y-29513D02*
X36650Y-29513D01*
X36650Y-29513D02*
X36650Y-51167D01*
X36650Y-51167D02*
X50430Y-51167D01*
G54D15*
X48900Y-30450D02*
X48900Y-29950D01*
X49400Y-30450D02*
X49400Y-29960D01*
X49550Y-30450D02*
X48750Y-30450D01*
X48750Y-30450D02*
X48750Y-29950D01*
X48750Y-29950D02*
X49550Y-29950D01*
X49550Y-29950D02*
X49550Y-30450D01*
X52450Y-33600D02*
X52450Y-33100D01*
X52950Y-33600D02*
X52950Y-33110D01*
X53100Y-33600D02*
X52300Y-33600D01*
X52300Y-33600D02*
X52300Y-33100D01*
X52300Y-33100D02*
X53100Y-33100D01*
X53100Y-33100D02*
X53100Y-33600D01*
X48900Y-32450D02*
X48900Y-31950D01*
X49400Y-32450D02*
X49400Y-31960D01*
X49550Y-32450D02*
X48750Y-32450D01*
X48750Y-32450D02*
X48750Y-31950D01*
X48750Y-31950D02*
X49550Y-31950D01*
X49550Y-31950D02*
X49550Y-32450D01*
X65150Y-30850D02*
X65150Y-30350D01*
X65650Y-30850D02*
X65650Y-30360D01*
X65800Y-30850D02*
X65000Y-30850D01*
X65000Y-30850D02*
X65000Y-30350D01*
X65000Y-30350D02*
X65800Y-30350D01*
X65800Y-30350D02*
X65800Y-30850D01*
X55650Y-31200D02*
X56150Y-31200D01*
X55650Y-31700D02*
X56140Y-31700D01*
X55650Y-31850D02*
X55650Y-31050D01*
X55650Y-31050D02*
X56150Y-31050D01*
X56150Y-31050D02*
X56150Y-31850D01*
X56150Y-31850D02*
X55650Y-31850D01*
X56550Y-45900D02*
X56050Y-45900D01*
X56550Y-45400D02*
X56060Y-45400D01*
X56550Y-45250D02*
X56550Y-46050D01*
X56550Y-46050D02*
X56050Y-46050D01*
X56050Y-46050D02*
X56050Y-45250D01*
X56050Y-45250D02*
X56550Y-45250D01*
X56050Y-48000D02*
X56550Y-48000D01*
X56050Y-48500D02*
X56540Y-48500D01*
X56050Y-48650D02*
X56050Y-47850D01*
X56050Y-47850D02*
X56550Y-47850D01*
X56550Y-47850D02*
X56550Y-48650D01*
X56550Y-48650D02*
X56050Y-48650D01*
X56050Y-37400D02*
X56550Y-37400D01*
X56050Y-37900D02*
X56540Y-37900D01*
X56050Y-38050D02*
X56050Y-37250D01*
X56050Y-37250D02*
X56550Y-37250D01*
X56550Y-37250D02*
X56550Y-38050D01*
X56550Y-38050D02*
X56050Y-38050D01*
X56550Y-40600D02*
X56050Y-40600D01*
X56550Y-40100D02*
X56060Y-40100D01*
X56550Y-39950D02*
X56550Y-40750D01*
X56550Y-40750D02*
X56050Y-40750D01*
X56050Y-40750D02*
X56050Y-39950D01*
X56050Y-39950D02*
X56550Y-39950D01*
X56050Y-42700D02*
X56550Y-42700D01*
X56050Y-43200D02*
X56540Y-43200D01*
X56050Y-43350D02*
X56050Y-42550D01*
X56050Y-42550D02*
X56550Y-42550D01*
X56550Y-42550D02*
X56550Y-43350D01*
X56550Y-43350D02*
X56050Y-43350D01*
X56050Y-53300D02*
X56550Y-53300D01*
X56050Y-53800D02*
X56540Y-53800D01*
X56050Y-53950D02*
X56050Y-53150D01*
X56050Y-53150D02*
X56550Y-53150D01*
X56550Y-53150D02*
X56550Y-53950D01*
X56550Y-53950D02*
X56050Y-53950D01*
X56550Y-51200D02*
X56050Y-51200D01*
X56550Y-50700D02*
X56060Y-50700D01*
X56550Y-50550D02*
X56550Y-51350D01*
X56550Y-51350D02*
X56050Y-51350D01*
X56050Y-51350D02*
X56050Y-50550D01*
X56050Y-50550D02*
X56550Y-50550D01*
X56550Y-35300D02*
X56050Y-35300D01*
X56550Y-34800D02*
X56060Y-34800D01*
X56550Y-34650D02*
X56550Y-35450D01*
X56550Y-35450D02*
X56050Y-35450D01*
X56050Y-35450D02*
X56050Y-34650D01*
X56050Y-34650D02*
X56550Y-34650D01*
G54D10*
X73477Y-54066D02*
X73477Y-52333D01*
X73477Y-52333D02*
X74422Y-52333D01*
X74422Y-52333D02*
X74422Y-54066D01*
X74422Y-54066D02*
X73477Y-54066D01*
X72377Y-48766D02*
X72377Y-47033D01*
X72377Y-47033D02*
X73322Y-47033D01*
X73322Y-47033D02*
X73322Y-48766D01*
X73322Y-48766D02*
X72377Y-48766D01*
X73477Y-48766D02*
X73477Y-47033D01*
X73477Y-47033D02*
X74422Y-47033D01*
X74422Y-47033D02*
X74422Y-48766D01*
X74422Y-48766D02*
X73477Y-48766D01*
X68233Y-50027D02*
X69966Y-50027D01*
X69966Y-50027D02*
X69966Y-50972D01*
X69966Y-50972D02*
X68233Y-50972D01*
X68233Y-50972D02*
X68233Y-50027D01*
X67933Y-53627D02*
X69666Y-53627D01*
X69666Y-53627D02*
X69666Y-54572D01*
X69666Y-54572D02*
X67933Y-54572D01*
X67933Y-54572D02*
X67933Y-53627D01*
X72377Y-54066D02*
X72377Y-52333D01*
X72377Y-52333D02*
X73322Y-52333D01*
X73322Y-52333D02*
X73322Y-54066D01*
X73322Y-54066D02*
X72377Y-54066D01*
X47622Y-30833D02*
X47622Y-32566D01*
X47622Y-32566D02*
X46677Y-32566D01*
X46677Y-32566D02*
X46677Y-30833D01*
X46677Y-30833D02*
X47622Y-30833D01*
X68183Y-39427D02*
X69916Y-39427D01*
X69916Y-39427D02*
X69916Y-40372D01*
X69916Y-40372D02*
X68183Y-40372D01*
X68183Y-40372D02*
X68183Y-39427D01*
X72377Y-38166D02*
X72377Y-36433D01*
X72377Y-36433D02*
X73322Y-36433D01*
X73322Y-36433D02*
X73322Y-38166D01*
X73322Y-38166D02*
X72377Y-38166D01*
X54877Y-53116D02*
X54877Y-51383D01*
X54877Y-51383D02*
X55822Y-51383D01*
X55822Y-51383D02*
X55822Y-53116D01*
X55822Y-53116D02*
X54877Y-53116D01*
X48583Y-43827D02*
X50316Y-43827D01*
X50316Y-43827D02*
X50316Y-44772D01*
X50316Y-44772D02*
X48583Y-44772D01*
X48583Y-44772D02*
X48583Y-43827D01*
X54877Y-42516D02*
X54877Y-40783D01*
X54877Y-40783D02*
X55822Y-40783D01*
X55822Y-40783D02*
X55822Y-42516D01*
X55822Y-42516D02*
X54877Y-42516D01*
X46653Y-48878D02*
X47878Y-47653D01*
X47878Y-47653D02*
X48546Y-48321D01*
X48546Y-48321D02*
X47321Y-49546D01*
X47321Y-49546D02*
X46653Y-48878D01*
X54877Y-47816D02*
X54877Y-46083D01*
X54877Y-46083D02*
X55822Y-46083D01*
X55822Y-46083D02*
X55822Y-47816D01*
X55822Y-47816D02*
X54877Y-47816D01*
X54877Y-37216D02*
X54877Y-35483D01*
X54877Y-35483D02*
X55822Y-35483D01*
X55822Y-35483D02*
X55822Y-37216D01*
X55822Y-37216D02*
X54877Y-37216D01*
X48583Y-38527D02*
X50316Y-38527D01*
X50316Y-38527D02*
X50316Y-39472D01*
X50316Y-39472D02*
X48583Y-39472D01*
X48583Y-39472D02*
X48583Y-38527D01*
X56016Y-33672D02*
X54283Y-33672D01*
X54283Y-33672D02*
X54283Y-32727D01*
X54283Y-32727D02*
X56016Y-32727D01*
X56016Y-32727D02*
X56016Y-33672D01*
X40928Y-55146D02*
X39703Y-53921D01*
X39703Y-53921D02*
X40371Y-53253D01*
X40371Y-53253D02*
X41596Y-54478D01*
X41596Y-54478D02*
X40928Y-55146D01*
X68183Y-34127D02*
X69916Y-34127D01*
X69916Y-34127D02*
X69916Y-35072D01*
X69916Y-35072D02*
X68183Y-35072D01*
X68183Y-35072D02*
X68183Y-34127D01*
X67883Y-37727D02*
X69616Y-37727D01*
X69616Y-37727D02*
X69616Y-38672D01*
X69616Y-38672D02*
X67883Y-38672D01*
X67883Y-38672D02*
X67883Y-37727D01*
X73477Y-38166D02*
X73477Y-36433D01*
X73477Y-36433D02*
X74422Y-36433D01*
X74422Y-36433D02*
X74422Y-38166D01*
X74422Y-38166D02*
X73477Y-38166D01*
X46033Y-33227D02*
X47766Y-33227D01*
X47766Y-33227D02*
X47766Y-34172D01*
X47766Y-34172D02*
X46033Y-34172D01*
X46033Y-34172D02*
X46033Y-33227D01*
X46971Y-52303D02*
X48196Y-53528D01*
X48196Y-53528D02*
X47528Y-54196D01*
X47528Y-54196D02*
X46303Y-52971D01*
X46303Y-52971D02*
X46971Y-52303D01*
X67883Y-43027D02*
X69616Y-43027D01*
X69616Y-43027D02*
X69616Y-43972D01*
X69616Y-43972D02*
X67883Y-43972D01*
X67883Y-43972D02*
X67883Y-43027D01*
X72377Y-43466D02*
X72377Y-41733D01*
X72377Y-41733D02*
X73322Y-41733D01*
X73322Y-41733D02*
X73322Y-43466D01*
X73322Y-43466D02*
X72377Y-43466D01*
X73477Y-43466D02*
X73477Y-41733D01*
X73477Y-41733D02*
X74422Y-41733D01*
X74422Y-41733D02*
X74422Y-43466D01*
X74422Y-43466D02*
X73477Y-43466D01*
X68233Y-44727D02*
X69966Y-44727D01*
X69966Y-44727D02*
X69966Y-45672D01*
X69966Y-45672D02*
X68233Y-45672D01*
X68233Y-45672D02*
X68233Y-44727D01*
X67933Y-48327D02*
X69666Y-48327D01*
X69666Y-48327D02*
X69666Y-49272D01*
X69666Y-49272D02*
X67933Y-49272D01*
X67933Y-49272D02*
X67933Y-48327D01*
X69950Y-49150D02*
X69950Y-46650D01*
X69950Y-46650D02*
X71650Y-46650D01*
X71650Y-46650D02*
X71650Y-49150D01*
X71650Y-49150D02*
X69950Y-49150D01*
X69900Y-38550D02*
X69900Y-36050D01*
X69900Y-36050D02*
X71600Y-36050D01*
X71600Y-36050D02*
X71600Y-38550D01*
X71600Y-38550D02*
X69900Y-38550D01*
X69950Y-54450D02*
X69950Y-51950D01*
X69950Y-51950D02*
X71650Y-51950D01*
X71650Y-51950D02*
X71650Y-54450D01*
X71650Y-54450D02*
X69950Y-54450D01*
X69900Y-43850D02*
X69900Y-41350D01*
X69900Y-41350D02*
X71600Y-41350D01*
X71600Y-41350D02*
X71600Y-43850D01*
X71600Y-43850D02*
X69900Y-43850D01*
G54D16*
X74600Y-34000D02*
G75*
G03X74600Y-34000I-900J0D01*
G74*
G01*
X74600Y-50800D02*
G75*
G03X74600Y-50800I-900J0D01*
G74*
G01*
X58100Y-30000D02*
G75*
G03X58100Y-30000I-900J0D01*
G74*
G01*
X45500Y-53100D02*
G75*
G03X45500Y-53100I-900J0D01*
G74*
G01*
G54D17*
X73383Y-33283D02*
X73383Y-32583D01*
X73650Y-32583D01*
X73716Y-32616D01*
X73750Y-32650D01*
X73783Y-32716D01*
X73783Y-32816D01*
X73750Y-32883D01*
X73716Y-32916D01*
X73650Y-32950D01*
X73383Y-32950D01*
X74450Y-33283D02*
X74050Y-33283D01*
X74250Y-33283D02*
X74250Y-32583D01*
X74183Y-32683D01*
X74116Y-32750D01*
X74050Y-32783D01*
X67750Y-28716D02*
X67716Y-28750D01*
X67616Y-28783D01*
X67550Y-28783D01*
X67450Y-28750D01*
X67383Y-28683D01*
X67350Y-28616D01*
X67316Y-28483D01*
X67316Y-28383D01*
X67350Y-28250D01*
X67383Y-28183D01*
X67450Y-28116D01*
X67550Y-28083D01*
X67616Y-28083D01*
X67716Y-28116D01*
X67750Y-28150D01*
X68183Y-28083D02*
X68316Y-28083D01*
X68383Y-28116D01*
X68450Y-28183D01*
X68483Y-28316D01*
X68483Y-28550D01*
X68450Y-28683D01*
X68383Y-28750D01*
X68316Y-28783D01*
X68183Y-28783D01*
X68116Y-28750D01*
X68050Y-28683D01*
X68016Y-28550D01*
X68016Y-28316D01*
X68050Y-28183D01*
X68116Y-28116D01*
X68183Y-28083D01*
X68783Y-28783D02*
X68783Y-28083D01*
X69183Y-28783D01*
X69183Y-28083D01*
X69516Y-28783D02*
X69516Y-28083D01*
X69916Y-28783D01*
X69916Y-28083D01*
X70083Y-28850D02*
X70616Y-28850D01*
X71116Y-28083D02*
X70783Y-28083D01*
X70750Y-28416D01*
X70783Y-28383D01*
X70850Y-28350D01*
X71016Y-28350D01*
X71083Y-28383D01*
X71116Y-28416D01*
X71150Y-28483D01*
X71150Y-28650D01*
X71116Y-28716D01*
X71083Y-28750D01*
X71016Y-28783D01*
X70850Y-28783D01*
X70783Y-28750D01*
X70750Y-28716D01*
X71383Y-28083D02*
X71850Y-28783D01*
X71850Y-28083D02*
X71383Y-28783D01*
X72083Y-28150D02*
X72116Y-28116D01*
X72183Y-28083D01*
X72350Y-28083D01*
X72416Y-28116D01*
X72450Y-28150D01*
X72483Y-28216D01*
X72483Y-28283D01*
X72450Y-28383D01*
X72050Y-28783D01*
X72483Y-28783D01*
G54D10*
X57576Y-36524D02*
X57595Y-36543D01*
X57614Y-36599D01*
X57614Y-36636D01*
X57595Y-36693D01*
X57558Y-36730D01*
X57520Y-36749D01*
X57445Y-36768D01*
X57389Y-36768D01*
X57314Y-36749D01*
X57277Y-36730D01*
X57239Y-36693D01*
X57220Y-36636D01*
X57220Y-36599D01*
X57239Y-36543D01*
X57258Y-36524D01*
X57614Y-36149D02*
X57614Y-36374D01*
X57614Y-36261D02*
X57220Y-36261D01*
X57277Y-36299D01*
X57314Y-36336D01*
X57333Y-36374D01*
X57352Y-35811D02*
X57614Y-35811D01*
X57202Y-35905D02*
X57483Y-35999D01*
X57483Y-35755D01*
X58688Y-37926D02*
X58932Y-37926D01*
X58801Y-38076D01*
X58857Y-38076D01*
X58894Y-38095D01*
X58913Y-38114D01*
X58932Y-38151D01*
X58932Y-38245D01*
X58913Y-38282D01*
X58894Y-38301D01*
X58857Y-38320D01*
X58744Y-38320D01*
X58707Y-38301D01*
X58688Y-38282D01*
X59063Y-37926D02*
X59307Y-37926D01*
X59176Y-38076D01*
X59232Y-38076D01*
X59269Y-38095D01*
X59288Y-38114D01*
X59307Y-38151D01*
X59307Y-38245D01*
X59288Y-38282D01*
X59269Y-38301D01*
X59232Y-38320D01*
X59119Y-38320D01*
X59082Y-38301D01*
X59063Y-38282D01*
X59551Y-37926D02*
X59588Y-37926D01*
X59626Y-37945D01*
X59644Y-37964D01*
X59663Y-38001D01*
X59682Y-38076D01*
X59682Y-38170D01*
X59663Y-38245D01*
X59644Y-38282D01*
X59626Y-38301D01*
X59588Y-38320D01*
X59551Y-38320D01*
X59513Y-38301D01*
X59494Y-38282D01*
X59476Y-38245D01*
X59457Y-38170D01*
X59457Y-38076D01*
X59476Y-38001D01*
X59494Y-37964D01*
X59513Y-37945D01*
X59551Y-37926D01*
X60019Y-38057D02*
X60019Y-38320D01*
X59851Y-38057D02*
X59851Y-38264D01*
X59869Y-38301D01*
X59907Y-38320D01*
X59963Y-38320D01*
X60001Y-38301D01*
X60019Y-38282D01*
X60338Y-38114D02*
X60207Y-38114D01*
X60207Y-38320D02*
X60207Y-37926D01*
X60394Y-37926D01*
X57576Y-52424D02*
X57595Y-52443D01*
X57614Y-52499D01*
X57614Y-52536D01*
X57595Y-52593D01*
X57558Y-52630D01*
X57520Y-52649D01*
X57445Y-52668D01*
X57389Y-52668D01*
X57314Y-52649D01*
X57277Y-52630D01*
X57239Y-52593D01*
X57220Y-52536D01*
X57220Y-52499D01*
X57239Y-52443D01*
X57258Y-52424D01*
X57614Y-52049D02*
X57614Y-52274D01*
X57614Y-52161D02*
X57220Y-52161D01*
X57277Y-52199D01*
X57314Y-52236D01*
X57333Y-52274D01*
X57220Y-51693D02*
X57220Y-51880D01*
X57408Y-51899D01*
X57389Y-51880D01*
X57370Y-51843D01*
X57370Y-51749D01*
X57389Y-51711D01*
X57408Y-51693D01*
X57445Y-51674D01*
X57539Y-51674D01*
X57576Y-51693D01*
X57595Y-51711D01*
X57614Y-51749D01*
X57614Y-51843D01*
X57595Y-51880D01*
X57576Y-51899D01*
X58688Y-53826D02*
X58932Y-53826D01*
X58801Y-53976D01*
X58857Y-53976D01*
X58894Y-53995D01*
X58913Y-54014D01*
X58932Y-54051D01*
X58932Y-54145D01*
X58913Y-54182D01*
X58894Y-54201D01*
X58857Y-54220D01*
X58744Y-54220D01*
X58707Y-54201D01*
X58688Y-54182D01*
X59063Y-53826D02*
X59307Y-53826D01*
X59176Y-53976D01*
X59232Y-53976D01*
X59269Y-53995D01*
X59288Y-54014D01*
X59307Y-54051D01*
X59307Y-54145D01*
X59288Y-54182D01*
X59269Y-54201D01*
X59232Y-54220D01*
X59119Y-54220D01*
X59082Y-54201D01*
X59063Y-54182D01*
X59551Y-53826D02*
X59588Y-53826D01*
X59626Y-53845D01*
X59644Y-53864D01*
X59663Y-53901D01*
X59682Y-53976D01*
X59682Y-54070D01*
X59663Y-54145D01*
X59644Y-54182D01*
X59626Y-54201D01*
X59588Y-54220D01*
X59551Y-54220D01*
X59513Y-54201D01*
X59494Y-54182D01*
X59476Y-54145D01*
X59457Y-54070D01*
X59457Y-53976D01*
X59476Y-53901D01*
X59494Y-53864D01*
X59513Y-53845D01*
X59551Y-53826D01*
X60019Y-53957D02*
X60019Y-54220D01*
X59851Y-53957D02*
X59851Y-54164D01*
X59869Y-54201D01*
X59907Y-54220D01*
X59963Y-54220D01*
X60001Y-54201D01*
X60019Y-54182D01*
X60338Y-54014D02*
X60207Y-54014D01*
X60207Y-54220D02*
X60207Y-53826D01*
X60394Y-53826D01*
X57576Y-41824D02*
X57595Y-41843D01*
X57614Y-41899D01*
X57614Y-41936D01*
X57595Y-41993D01*
X57558Y-42030D01*
X57520Y-42049D01*
X57445Y-42068D01*
X57389Y-42068D01*
X57314Y-42049D01*
X57277Y-42030D01*
X57239Y-41993D01*
X57220Y-41936D01*
X57220Y-41899D01*
X57239Y-41843D01*
X57258Y-41824D01*
X57614Y-41449D02*
X57614Y-41674D01*
X57614Y-41561D02*
X57220Y-41561D01*
X57277Y-41599D01*
X57314Y-41636D01*
X57333Y-41674D01*
X57220Y-41111D02*
X57220Y-41186D01*
X57239Y-41224D01*
X57258Y-41243D01*
X57314Y-41280D01*
X57389Y-41299D01*
X57539Y-41299D01*
X57576Y-41280D01*
X57595Y-41261D01*
X57614Y-41224D01*
X57614Y-41149D01*
X57595Y-41111D01*
X57576Y-41093D01*
X57539Y-41074D01*
X57445Y-41074D01*
X57408Y-41093D01*
X57389Y-41111D01*
X57370Y-41149D01*
X57370Y-41224D01*
X57389Y-41261D01*
X57408Y-41280D01*
X57445Y-41299D01*
X58688Y-43226D02*
X58932Y-43226D01*
X58801Y-43376D01*
X58857Y-43376D01*
X58894Y-43395D01*
X58913Y-43414D01*
X58932Y-43451D01*
X58932Y-43545D01*
X58913Y-43582D01*
X58894Y-43601D01*
X58857Y-43620D01*
X58744Y-43620D01*
X58707Y-43601D01*
X58688Y-43582D01*
X59063Y-43226D02*
X59307Y-43226D01*
X59176Y-43376D01*
X59232Y-43376D01*
X59269Y-43395D01*
X59288Y-43414D01*
X59307Y-43451D01*
X59307Y-43545D01*
X59288Y-43582D01*
X59269Y-43601D01*
X59232Y-43620D01*
X59119Y-43620D01*
X59082Y-43601D01*
X59063Y-43582D01*
X59551Y-43226D02*
X59588Y-43226D01*
X59626Y-43245D01*
X59644Y-43264D01*
X59663Y-43301D01*
X59682Y-43376D01*
X59682Y-43470D01*
X59663Y-43545D01*
X59644Y-43582D01*
X59626Y-43601D01*
X59588Y-43620D01*
X59551Y-43620D01*
X59513Y-43601D01*
X59494Y-43582D01*
X59476Y-43545D01*
X59457Y-43470D01*
X59457Y-43376D01*
X59476Y-43301D01*
X59494Y-43264D01*
X59513Y-43245D01*
X59551Y-43226D01*
X60019Y-43357D02*
X60019Y-43620D01*
X59851Y-43357D02*
X59851Y-43564D01*
X59869Y-43601D01*
X59907Y-43620D01*
X59963Y-43620D01*
X60001Y-43601D01*
X60019Y-43582D01*
X60338Y-43414D02*
X60207Y-43414D01*
X60207Y-43620D02*
X60207Y-43226D01*
X60394Y-43226D01*
X57576Y-47124D02*
X57595Y-47143D01*
X57614Y-47199D01*
X57614Y-47236D01*
X57595Y-47293D01*
X57558Y-47330D01*
X57520Y-47349D01*
X57445Y-47368D01*
X57389Y-47368D01*
X57314Y-47349D01*
X57277Y-47330D01*
X57239Y-47293D01*
X57220Y-47236D01*
X57220Y-47199D01*
X57239Y-47143D01*
X57258Y-47124D01*
X57614Y-46749D02*
X57614Y-46974D01*
X57614Y-46861D02*
X57220Y-46861D01*
X57277Y-46899D01*
X57314Y-46936D01*
X57333Y-46974D01*
X57220Y-46618D02*
X57220Y-46355D01*
X57614Y-46524D01*
X58688Y-48526D02*
X58932Y-48526D01*
X58801Y-48676D01*
X58857Y-48676D01*
X58894Y-48695D01*
X58913Y-48714D01*
X58932Y-48751D01*
X58932Y-48845D01*
X58913Y-48882D01*
X58894Y-48901D01*
X58857Y-48920D01*
X58744Y-48920D01*
X58707Y-48901D01*
X58688Y-48882D01*
X59063Y-48526D02*
X59307Y-48526D01*
X59176Y-48676D01*
X59232Y-48676D01*
X59269Y-48695D01*
X59288Y-48714D01*
X59307Y-48751D01*
X59307Y-48845D01*
X59288Y-48882D01*
X59269Y-48901D01*
X59232Y-48920D01*
X59119Y-48920D01*
X59082Y-48901D01*
X59063Y-48882D01*
X59551Y-48526D02*
X59588Y-48526D01*
X59626Y-48545D01*
X59644Y-48564D01*
X59663Y-48601D01*
X59682Y-48676D01*
X59682Y-48770D01*
X59663Y-48845D01*
X59644Y-48882D01*
X59626Y-48901D01*
X59588Y-48920D01*
X59551Y-48920D01*
X59513Y-48901D01*
X59494Y-48882D01*
X59476Y-48845D01*
X59457Y-48770D01*
X59457Y-48676D01*
X59476Y-48601D01*
X59494Y-48564D01*
X59513Y-48545D01*
X59551Y-48526D01*
X60019Y-48657D02*
X60019Y-48920D01*
X59851Y-48657D02*
X59851Y-48864D01*
X59869Y-48901D01*
X59907Y-48920D01*
X59963Y-48920D01*
X60001Y-48901D01*
X60019Y-48882D01*
X60338Y-48714D02*
X60207Y-48714D01*
X60207Y-48920D02*
X60207Y-48526D01*
X60394Y-48526D01*
X52568Y-32266D02*
X52549Y-32285D01*
X52493Y-32304D01*
X52455Y-32304D01*
X52399Y-32285D01*
X52361Y-32247D01*
X52343Y-32210D01*
X52324Y-32135D01*
X52324Y-32079D01*
X52343Y-32004D01*
X52361Y-31966D01*
X52399Y-31929D01*
X52455Y-31910D01*
X52493Y-31910D01*
X52549Y-31929D01*
X52568Y-31948D01*
X52943Y-32304D02*
X52718Y-32304D01*
X52830Y-32304D02*
X52830Y-31910D01*
X52793Y-31966D01*
X52755Y-32004D01*
X52718Y-32023D01*
X53130Y-32304D02*
X53205Y-32304D01*
X53243Y-32285D01*
X53261Y-32266D01*
X53299Y-32210D01*
X53318Y-32135D01*
X53318Y-31985D01*
X53299Y-31948D01*
X53280Y-31929D01*
X53243Y-31910D01*
X53168Y-31910D01*
X53130Y-31929D01*
X53111Y-31948D01*
X53093Y-31985D01*
X53093Y-32079D01*
X53111Y-32116D01*
X53130Y-32135D01*
X53168Y-32154D01*
X53243Y-32154D01*
X53280Y-32135D01*
X53299Y-32116D01*
X53318Y-32079D01*
X54476Y-30911D02*
X54476Y-30667D01*
X54626Y-30798D01*
X54626Y-30742D01*
X54645Y-30705D01*
X54664Y-30686D01*
X54701Y-30667D01*
X54795Y-30667D01*
X54832Y-30686D01*
X54851Y-30705D01*
X54870Y-30742D01*
X54870Y-30855D01*
X54851Y-30892D01*
X54832Y-30911D01*
X54476Y-30536D02*
X54476Y-30292D01*
X54626Y-30423D01*
X54626Y-30367D01*
X54645Y-30330D01*
X54664Y-30311D01*
X54701Y-30292D01*
X54795Y-30292D01*
X54832Y-30311D01*
X54851Y-30330D01*
X54870Y-30367D01*
X54870Y-30480D01*
X54851Y-30517D01*
X54832Y-30536D01*
X54476Y-30048D02*
X54476Y-30011D01*
X54495Y-29973D01*
X54514Y-29955D01*
X54551Y-29936D01*
X54626Y-29917D01*
X54720Y-29917D01*
X54795Y-29936D01*
X54832Y-29955D01*
X54851Y-29973D01*
X54870Y-30011D01*
X54870Y-30048D01*
X54851Y-30086D01*
X54832Y-30105D01*
X54795Y-30123D01*
X54720Y-30142D01*
X54626Y-30142D01*
X54551Y-30123D01*
X54514Y-30105D01*
X54495Y-30086D01*
X54476Y-30048D01*
X54607Y-29580D02*
X54870Y-29580D01*
X54607Y-29748D02*
X54814Y-29748D01*
X54851Y-29730D01*
X54870Y-29692D01*
X54870Y-29636D01*
X54851Y-29598D01*
X54832Y-29580D01*
X54664Y-29261D02*
X54664Y-29392D01*
X54870Y-29392D02*
X54476Y-29392D01*
X54476Y-29205D01*
X67166Y-37031D02*
X67185Y-37050D01*
X67204Y-37106D01*
X67204Y-37144D01*
X67185Y-37200D01*
X67147Y-37238D01*
X67110Y-37256D01*
X67035Y-37275D01*
X66979Y-37275D01*
X66904Y-37256D01*
X66866Y-37238D01*
X66829Y-37200D01*
X66810Y-37144D01*
X66810Y-37106D01*
X66829Y-37050D01*
X66848Y-37031D01*
X66848Y-36881D02*
X66829Y-36863D01*
X66810Y-36825D01*
X66810Y-36731D01*
X66829Y-36694D01*
X66848Y-36675D01*
X66885Y-36656D01*
X66923Y-36656D01*
X66979Y-36675D01*
X67204Y-36900D01*
X67204Y-36656D01*
X67204Y-36281D02*
X67204Y-36506D01*
X67204Y-36394D02*
X66810Y-36394D01*
X66866Y-36431D01*
X66904Y-36469D01*
X66923Y-36506D01*
X64105Y-34654D02*
X64348Y-34654D01*
X64217Y-34804D01*
X64273Y-34804D01*
X64311Y-34823D01*
X64330Y-34842D01*
X64348Y-34879D01*
X64348Y-34973D01*
X64330Y-35010D01*
X64311Y-35029D01*
X64273Y-35048D01*
X64161Y-35048D01*
X64123Y-35029D01*
X64105Y-35010D01*
X64480Y-34654D02*
X64723Y-34654D01*
X64592Y-34804D01*
X64648Y-34804D01*
X64686Y-34823D01*
X64705Y-34842D01*
X64723Y-34879D01*
X64723Y-34973D01*
X64705Y-35010D01*
X64686Y-35029D01*
X64648Y-35048D01*
X64536Y-35048D01*
X64498Y-35029D01*
X64480Y-35010D01*
X64967Y-34654D02*
X65005Y-34654D01*
X65042Y-34673D01*
X65061Y-34692D01*
X65080Y-34729D01*
X65098Y-34804D01*
X65098Y-34898D01*
X65080Y-34973D01*
X65061Y-35010D01*
X65042Y-35029D01*
X65005Y-35048D01*
X64967Y-35048D01*
X64930Y-35029D01*
X64911Y-35010D01*
X64892Y-34973D01*
X64873Y-34898D01*
X64873Y-34804D01*
X64892Y-34729D01*
X64911Y-34692D01*
X64930Y-34673D01*
X64967Y-34654D01*
X65436Y-34785D02*
X65436Y-35048D01*
X65267Y-34785D02*
X65267Y-34992D01*
X65286Y-35029D01*
X65323Y-35048D01*
X65380Y-35048D01*
X65417Y-35029D01*
X65436Y-35010D01*
X65755Y-34842D02*
X65623Y-34842D01*
X65623Y-35048D02*
X65623Y-34654D01*
X65811Y-34654D01*
X65276Y-47474D02*
X65295Y-47493D01*
X65314Y-47549D01*
X65314Y-47586D01*
X65295Y-47643D01*
X65258Y-47680D01*
X65220Y-47699D01*
X65145Y-47718D01*
X65089Y-47718D01*
X65014Y-47699D01*
X64977Y-47680D01*
X64939Y-47643D01*
X64920Y-47586D01*
X64920Y-47549D01*
X64939Y-47493D01*
X64958Y-47474D01*
X64958Y-47324D02*
X64939Y-47305D01*
X64920Y-47268D01*
X64920Y-47174D01*
X64939Y-47136D01*
X64958Y-47118D01*
X64995Y-47099D01*
X65033Y-47099D01*
X65089Y-47118D01*
X65314Y-47343D01*
X65314Y-47099D01*
X64920Y-46968D02*
X64920Y-46724D01*
X65070Y-46855D01*
X65070Y-46799D01*
X65089Y-46761D01*
X65108Y-46743D01*
X65145Y-46724D01*
X65239Y-46724D01*
X65276Y-46743D01*
X65295Y-46761D01*
X65314Y-46799D01*
X65314Y-46911D01*
X65295Y-46949D01*
X65276Y-46968D01*
X66388Y-48876D02*
X66632Y-48876D01*
X66501Y-49026D01*
X66557Y-49026D01*
X66594Y-49045D01*
X66613Y-49064D01*
X66632Y-49101D01*
X66632Y-49195D01*
X66613Y-49232D01*
X66594Y-49251D01*
X66557Y-49270D01*
X66444Y-49270D01*
X66407Y-49251D01*
X66388Y-49232D01*
X66763Y-48876D02*
X67007Y-48876D01*
X66876Y-49026D01*
X66932Y-49026D01*
X66969Y-49045D01*
X66988Y-49064D01*
X67007Y-49101D01*
X67007Y-49195D01*
X66988Y-49232D01*
X66969Y-49251D01*
X66932Y-49270D01*
X66819Y-49270D01*
X66782Y-49251D01*
X66763Y-49232D01*
X67251Y-48876D02*
X67288Y-48876D01*
X67326Y-48895D01*
X67344Y-48914D01*
X67363Y-48951D01*
X67382Y-49026D01*
X67382Y-49120D01*
X67363Y-49195D01*
X67344Y-49232D01*
X67326Y-49251D01*
X67288Y-49270D01*
X67251Y-49270D01*
X67213Y-49251D01*
X67194Y-49232D01*
X67176Y-49195D01*
X67157Y-49120D01*
X67157Y-49026D01*
X67176Y-48951D01*
X67194Y-48914D01*
X67213Y-48895D01*
X67251Y-48876D01*
X67719Y-49007D02*
X67719Y-49270D01*
X67551Y-49007D02*
X67551Y-49214D01*
X67569Y-49251D01*
X67607Y-49270D01*
X67663Y-49270D01*
X67701Y-49251D01*
X67719Y-49232D01*
X68038Y-49064D02*
X67907Y-49064D01*
X67907Y-49270D02*
X67907Y-48876D01*
X68094Y-48876D01*
X67166Y-42331D02*
X67185Y-42350D01*
X67204Y-42406D01*
X67204Y-42444D01*
X67185Y-42500D01*
X67147Y-42538D01*
X67110Y-42556D01*
X67035Y-42575D01*
X66979Y-42575D01*
X66904Y-42556D01*
X66866Y-42538D01*
X66829Y-42500D01*
X66810Y-42444D01*
X66810Y-42406D01*
X66829Y-42350D01*
X66848Y-42331D01*
X66848Y-42181D02*
X66829Y-42163D01*
X66810Y-42125D01*
X66810Y-42031D01*
X66829Y-41994D01*
X66848Y-41975D01*
X66885Y-41956D01*
X66923Y-41956D01*
X66979Y-41975D01*
X67204Y-42200D01*
X67204Y-41956D01*
X66848Y-41806D02*
X66829Y-41788D01*
X66810Y-41750D01*
X66810Y-41656D01*
X66829Y-41619D01*
X66848Y-41600D01*
X66885Y-41581D01*
X66923Y-41581D01*
X66979Y-41600D01*
X67204Y-41825D01*
X67204Y-41581D01*
X64105Y-39954D02*
X64348Y-39954D01*
X64217Y-40104D01*
X64273Y-40104D01*
X64311Y-40123D01*
X64330Y-40142D01*
X64348Y-40179D01*
X64348Y-40273D01*
X64330Y-40310D01*
X64311Y-40329D01*
X64273Y-40348D01*
X64161Y-40348D01*
X64123Y-40329D01*
X64105Y-40310D01*
X64480Y-39954D02*
X64723Y-39954D01*
X64592Y-40104D01*
X64648Y-40104D01*
X64686Y-40123D01*
X64705Y-40142D01*
X64723Y-40179D01*
X64723Y-40273D01*
X64705Y-40310D01*
X64686Y-40329D01*
X64648Y-40348D01*
X64536Y-40348D01*
X64498Y-40329D01*
X64480Y-40310D01*
X64967Y-39954D02*
X65005Y-39954D01*
X65042Y-39973D01*
X65061Y-39992D01*
X65080Y-40029D01*
X65098Y-40104D01*
X65098Y-40198D01*
X65080Y-40273D01*
X65061Y-40310D01*
X65042Y-40329D01*
X65005Y-40348D01*
X64967Y-40348D01*
X64930Y-40329D01*
X64911Y-40310D01*
X64892Y-40273D01*
X64873Y-40198D01*
X64873Y-40104D01*
X64892Y-40029D01*
X64911Y-39992D01*
X64930Y-39973D01*
X64967Y-39954D01*
X65436Y-40085D02*
X65436Y-40348D01*
X65267Y-40085D02*
X65267Y-40292D01*
X65286Y-40329D01*
X65323Y-40348D01*
X65380Y-40348D01*
X65417Y-40329D01*
X65436Y-40310D01*
X65755Y-40142D02*
X65623Y-40142D01*
X65623Y-40348D02*
X65623Y-39954D01*
X65811Y-39954D01*
X65276Y-52774D02*
X65295Y-52793D01*
X65314Y-52849D01*
X65314Y-52886D01*
X65295Y-52943D01*
X65258Y-52980D01*
X65220Y-52999D01*
X65145Y-53018D01*
X65089Y-53018D01*
X65014Y-52999D01*
X64977Y-52980D01*
X64939Y-52943D01*
X64920Y-52886D01*
X64920Y-52849D01*
X64939Y-52793D01*
X64958Y-52774D01*
X64958Y-52624D02*
X64939Y-52605D01*
X64920Y-52568D01*
X64920Y-52474D01*
X64939Y-52436D01*
X64958Y-52418D01*
X64995Y-52399D01*
X65033Y-52399D01*
X65089Y-52418D01*
X65314Y-52643D01*
X65314Y-52399D01*
X65052Y-52061D02*
X65314Y-52061D01*
X64902Y-52155D02*
X65183Y-52249D01*
X65183Y-52005D01*
X66388Y-54176D02*
X66632Y-54176D01*
X66501Y-54326D01*
X66557Y-54326D01*
X66594Y-54345D01*
X66613Y-54364D01*
X66632Y-54401D01*
X66632Y-54495D01*
X66613Y-54532D01*
X66594Y-54551D01*
X66557Y-54570D01*
X66444Y-54570D01*
X66407Y-54551D01*
X66388Y-54532D01*
X66763Y-54176D02*
X67007Y-54176D01*
X66876Y-54326D01*
X66932Y-54326D01*
X66969Y-54345D01*
X66988Y-54364D01*
X67007Y-54401D01*
X67007Y-54495D01*
X66988Y-54532D01*
X66969Y-54551D01*
X66932Y-54570D01*
X66819Y-54570D01*
X66782Y-54551D01*
X66763Y-54532D01*
X67251Y-54176D02*
X67288Y-54176D01*
X67326Y-54195D01*
X67344Y-54214D01*
X67363Y-54251D01*
X67382Y-54326D01*
X67382Y-54420D01*
X67363Y-54495D01*
X67344Y-54532D01*
X67326Y-54551D01*
X67288Y-54570D01*
X67251Y-54570D01*
X67213Y-54551D01*
X67194Y-54532D01*
X67176Y-54495D01*
X67157Y-54420D01*
X67157Y-54326D01*
X67176Y-54251D01*
X67194Y-54214D01*
X67213Y-54195D01*
X67251Y-54176D01*
X67719Y-54307D02*
X67719Y-54570D01*
X67551Y-54307D02*
X67551Y-54514D01*
X67569Y-54551D01*
X67607Y-54570D01*
X67663Y-54570D01*
X67701Y-54551D01*
X67719Y-54532D01*
X68038Y-54364D02*
X67907Y-54364D01*
X67907Y-54570D02*
X67907Y-54176D01*
X68094Y-54176D01*
X62359Y-52542D02*
X62359Y-52729D01*
X61965Y-52729D01*
X62359Y-52205D02*
X62359Y-52429D01*
X62359Y-52317D02*
X61965Y-52317D01*
X62021Y-52354D01*
X62059Y-52392D01*
X62078Y-52429D01*
X62359Y-52017D02*
X62359Y-51942D01*
X62340Y-51905D01*
X62321Y-51886D01*
X62265Y-51848D01*
X62190Y-51830D01*
X62040Y-51830D01*
X62003Y-51848D01*
X61984Y-51867D01*
X61965Y-51905D01*
X61965Y-51980D01*
X61984Y-52017D01*
X62003Y-52036D01*
X62040Y-52055D01*
X62134Y-52055D01*
X62171Y-52036D01*
X62190Y-52017D01*
X62209Y-51980D01*
X62209Y-51905D01*
X62190Y-51867D01*
X62171Y-51848D01*
X62134Y-51830D01*
X62736Y-49942D02*
X62736Y-50204D01*
X62642Y-49792D02*
X62548Y-50073D01*
X62792Y-50073D01*
X62904Y-49810D02*
X63167Y-49810D01*
X62998Y-50204D01*
X63392Y-49810D02*
X63429Y-49810D01*
X63467Y-49829D01*
X63486Y-49848D01*
X63504Y-49885D01*
X63523Y-49960D01*
X63523Y-50054D01*
X63504Y-50129D01*
X63486Y-50167D01*
X63467Y-50185D01*
X63429Y-50204D01*
X63392Y-50204D01*
X63354Y-50185D01*
X63336Y-50167D01*
X63317Y-50129D01*
X63298Y-50054D01*
X63298Y-49960D01*
X63317Y-49885D01*
X63336Y-49848D01*
X63354Y-49829D01*
X63392Y-49810D01*
X63861Y-49942D02*
X63861Y-50204D01*
X63692Y-49942D02*
X63692Y-50148D01*
X63711Y-50185D01*
X63748Y-50204D01*
X63804Y-50204D01*
X63842Y-50185D01*
X63861Y-50167D01*
X64048Y-50204D02*
X64048Y-49810D01*
X64048Y-49998D02*
X64273Y-49998D01*
X64273Y-50204D02*
X64273Y-49810D01*
X62359Y-41942D02*
X62359Y-42129D01*
X61965Y-42129D01*
X62359Y-41605D02*
X62359Y-41829D01*
X62359Y-41717D02*
X61965Y-41717D01*
X62021Y-41754D01*
X62059Y-41792D01*
X62078Y-41829D01*
X61965Y-41473D02*
X61965Y-41211D01*
X62359Y-41380D01*
X62736Y-39342D02*
X62736Y-39604D01*
X62642Y-39192D02*
X62548Y-39473D01*
X62792Y-39473D01*
X62904Y-39210D02*
X63167Y-39210D01*
X62998Y-39604D01*
X63392Y-39210D02*
X63429Y-39210D01*
X63467Y-39229D01*
X63486Y-39248D01*
X63504Y-39285D01*
X63523Y-39360D01*
X63523Y-39454D01*
X63504Y-39529D01*
X63486Y-39567D01*
X63467Y-39585D01*
X63429Y-39604D01*
X63392Y-39604D01*
X63354Y-39585D01*
X63336Y-39567D01*
X63317Y-39529D01*
X63298Y-39454D01*
X63298Y-39360D01*
X63317Y-39285D01*
X63336Y-39248D01*
X63354Y-39229D01*
X63392Y-39210D01*
X63861Y-39342D02*
X63861Y-39604D01*
X63692Y-39342D02*
X63692Y-39548D01*
X63711Y-39585D01*
X63748Y-39604D01*
X63804Y-39604D01*
X63842Y-39585D01*
X63861Y-39567D01*
X64048Y-39604D02*
X64048Y-39210D01*
X64048Y-39398D02*
X64273Y-39398D01*
X64273Y-39604D02*
X64273Y-39210D01*
X62359Y-47242D02*
X62359Y-47429D01*
X61965Y-47429D01*
X62359Y-46905D02*
X62359Y-47129D01*
X62359Y-47017D02*
X61965Y-47017D01*
X62021Y-47054D01*
X62059Y-47092D01*
X62078Y-47129D01*
X62134Y-46680D02*
X62115Y-46717D01*
X62096Y-46736D01*
X62059Y-46755D01*
X62040Y-46755D01*
X62003Y-46736D01*
X61984Y-46717D01*
X61965Y-46680D01*
X61965Y-46605D01*
X61984Y-46567D01*
X62003Y-46548D01*
X62040Y-46530D01*
X62059Y-46530D01*
X62096Y-46548D01*
X62115Y-46567D01*
X62134Y-46605D01*
X62134Y-46680D01*
X62153Y-46717D01*
X62171Y-46736D01*
X62209Y-46755D01*
X62284Y-46755D01*
X62321Y-46736D01*
X62340Y-46717D01*
X62359Y-46680D01*
X62359Y-46605D01*
X62340Y-46567D01*
X62321Y-46548D01*
X62284Y-46530D01*
X62209Y-46530D01*
X62171Y-46548D01*
X62153Y-46567D01*
X62134Y-46605D01*
X62736Y-44642D02*
X62736Y-44904D01*
X62642Y-44492D02*
X62548Y-44773D01*
X62792Y-44773D01*
X62904Y-44510D02*
X63167Y-44510D01*
X62998Y-44904D01*
X63392Y-44510D02*
X63429Y-44510D01*
X63467Y-44529D01*
X63486Y-44548D01*
X63504Y-44585D01*
X63523Y-44660D01*
X63523Y-44754D01*
X63504Y-44829D01*
X63486Y-44867D01*
X63467Y-44885D01*
X63429Y-44904D01*
X63392Y-44904D01*
X63354Y-44885D01*
X63336Y-44867D01*
X63317Y-44829D01*
X63298Y-44754D01*
X63298Y-44660D01*
X63317Y-44585D01*
X63336Y-44548D01*
X63354Y-44529D01*
X63392Y-44510D01*
X63861Y-44642D02*
X63861Y-44904D01*
X63692Y-44642D02*
X63692Y-44848D01*
X63711Y-44885D01*
X63748Y-44904D01*
X63804Y-44904D01*
X63842Y-44885D01*
X63861Y-44867D01*
X64048Y-44904D02*
X64048Y-44510D01*
X64048Y-44698D02*
X64273Y-44698D01*
X64273Y-44904D02*
X64273Y-44510D01*
X62359Y-31892D02*
X62359Y-32079D01*
X61965Y-32079D01*
X62359Y-31555D02*
X62359Y-31779D01*
X62359Y-31667D02*
X61965Y-31667D01*
X62021Y-31704D01*
X62059Y-31742D01*
X62078Y-31779D01*
X61965Y-31198D02*
X61965Y-31386D01*
X62153Y-31405D01*
X62134Y-31386D01*
X62115Y-31348D01*
X62115Y-31255D01*
X62134Y-31217D01*
X62153Y-31198D01*
X62190Y-31180D01*
X62284Y-31180D01*
X62321Y-31198D01*
X62340Y-31217D01*
X62359Y-31255D01*
X62359Y-31348D01*
X62340Y-31386D01*
X62321Y-31405D01*
X62736Y-29292D02*
X62736Y-29554D01*
X62642Y-29142D02*
X62548Y-29423D01*
X62792Y-29423D01*
X62904Y-29160D02*
X63167Y-29160D01*
X62998Y-29554D01*
X63392Y-29160D02*
X63429Y-29160D01*
X63467Y-29179D01*
X63486Y-29198D01*
X63504Y-29235D01*
X63523Y-29310D01*
X63523Y-29404D01*
X63504Y-29479D01*
X63486Y-29517D01*
X63467Y-29535D01*
X63429Y-29554D01*
X63392Y-29554D01*
X63354Y-29535D01*
X63336Y-29517D01*
X63317Y-29479D01*
X63298Y-29404D01*
X63298Y-29310D01*
X63317Y-29235D01*
X63336Y-29198D01*
X63354Y-29179D01*
X63392Y-29160D01*
X63861Y-29292D02*
X63861Y-29554D01*
X63692Y-29292D02*
X63692Y-29498D01*
X63711Y-29535D01*
X63748Y-29554D01*
X63804Y-29554D01*
X63842Y-29535D01*
X63861Y-29517D01*
X64048Y-29554D02*
X64048Y-29160D01*
X64048Y-29348D02*
X64273Y-29348D01*
X64273Y-29554D02*
X64273Y-29160D01*
X62359Y-36642D02*
X62359Y-36829D01*
X61965Y-36829D01*
X62359Y-36305D02*
X62359Y-36529D01*
X62359Y-36417D02*
X61965Y-36417D01*
X62021Y-36454D01*
X62059Y-36492D01*
X62078Y-36529D01*
X61965Y-35967D02*
X61965Y-36042D01*
X61984Y-36080D01*
X62003Y-36098D01*
X62059Y-36136D01*
X62134Y-36155D01*
X62284Y-36155D01*
X62321Y-36136D01*
X62340Y-36117D01*
X62359Y-36080D01*
X62359Y-36005D01*
X62340Y-35967D01*
X62321Y-35948D01*
X62284Y-35930D01*
X62190Y-35930D01*
X62153Y-35948D01*
X62134Y-35967D01*
X62115Y-36005D01*
X62115Y-36080D01*
X62134Y-36117D01*
X62153Y-36136D01*
X62190Y-36155D01*
X62736Y-34042D02*
X62736Y-34304D01*
X62642Y-33892D02*
X62548Y-34173D01*
X62792Y-34173D01*
X62904Y-33910D02*
X63167Y-33910D01*
X62998Y-34304D01*
X63392Y-33910D02*
X63429Y-33910D01*
X63467Y-33929D01*
X63486Y-33948D01*
X63504Y-33985D01*
X63523Y-34060D01*
X63523Y-34154D01*
X63504Y-34229D01*
X63486Y-34267D01*
X63467Y-34285D01*
X63429Y-34304D01*
X63392Y-34304D01*
X63354Y-34285D01*
X63336Y-34267D01*
X63317Y-34229D01*
X63298Y-34154D01*
X63298Y-34060D01*
X63317Y-33985D01*
X63336Y-33948D01*
X63354Y-33929D01*
X63392Y-33910D01*
X63861Y-34042D02*
X63861Y-34304D01*
X63692Y-34042D02*
X63692Y-34248D01*
X63711Y-34285D01*
X63748Y-34304D01*
X63804Y-34304D01*
X63842Y-34285D01*
X63861Y-34267D01*
X64048Y-34304D02*
X64048Y-33910D01*
X64048Y-34098D02*
X64273Y-34098D01*
X64273Y-34304D02*
X64273Y-33910D01*
G54D18*
X36685Y-53262D02*
X35980Y-53262D01*
X36685Y-53020D02*
X36282Y-53202D01*
X35980Y-53020D02*
X36383Y-53262D01*
X36685Y-52616D02*
X36685Y-52859D01*
X36685Y-52738D02*
X35980Y-52738D01*
X36081Y-52778D01*
X36148Y-52818D01*
X36181Y-52859D01*
G54D13*
G54D19*
X64960Y-39221D02*
X64921Y-39165D01*
X64893Y-39221D02*
X64893Y-39103D01*
X64938Y-39103D01*
X64949Y-39109D01*
X64955Y-39114D01*
X64960Y-39126D01*
X64960Y-39143D01*
X64955Y-39154D01*
X64949Y-39159D01*
X64938Y-39165D01*
X64893Y-39165D01*
X65061Y-39103D02*
X65039Y-39103D01*
X65028Y-39109D01*
X65022Y-39114D01*
X65011Y-39131D01*
X65005Y-39154D01*
X65005Y-39199D01*
X65011Y-39210D01*
X65016Y-39216D01*
X65028Y-39221D01*
X65050Y-39221D01*
X65061Y-39216D01*
X65067Y-39210D01*
X65073Y-39199D01*
X65073Y-39171D01*
X65067Y-39159D01*
X65061Y-39154D01*
X65050Y-39148D01*
X65028Y-39148D01*
X65016Y-39154D01*
X65011Y-39159D01*
X65005Y-39171D01*
X64943Y-38375D02*
X64887Y-38375D01*
X64881Y-38431D01*
X64887Y-38425D01*
X64898Y-38420D01*
X64926Y-38420D01*
X64938Y-38425D01*
X64943Y-38431D01*
X64949Y-38442D01*
X64949Y-38470D01*
X64943Y-38482D01*
X64938Y-38487D01*
X64926Y-38493D01*
X64898Y-38493D01*
X64887Y-38487D01*
X64881Y-38482D01*
X65022Y-38375D02*
X65033Y-38375D01*
X65044Y-38380D01*
X65050Y-38386D01*
X65056Y-38397D01*
X65061Y-38420D01*
X65061Y-38448D01*
X65056Y-38470D01*
X65050Y-38482D01*
X65044Y-38487D01*
X65033Y-38493D01*
X65022Y-38493D01*
X65011Y-38487D01*
X65005Y-38482D01*
X65000Y-38470D01*
X64994Y-38448D01*
X64994Y-38420D01*
X65000Y-38397D01*
X65005Y-38386D01*
X65011Y-38380D01*
X65022Y-38375D01*
X65112Y-38493D02*
X65112Y-38375D01*
X65123Y-38448D02*
X65157Y-38493D01*
X65157Y-38414D02*
X65112Y-38459D01*
X64960Y-35021D02*
X64921Y-34965D01*
X64893Y-35021D02*
X64893Y-34903D01*
X64938Y-34903D01*
X64949Y-34909D01*
X64955Y-34914D01*
X64960Y-34926D01*
X64960Y-34943D01*
X64955Y-34954D01*
X64949Y-34959D01*
X64938Y-34965D01*
X64893Y-34965D01*
X65005Y-34914D02*
X65011Y-34909D01*
X65022Y-34903D01*
X65050Y-34903D01*
X65061Y-34909D01*
X65067Y-34914D01*
X65073Y-34926D01*
X65073Y-34937D01*
X65067Y-34954D01*
X65000Y-35021D01*
X65073Y-35021D01*
X64991Y-34175D02*
X64935Y-34175D01*
X64929Y-34231D01*
X64935Y-34225D01*
X64946Y-34220D01*
X64974Y-34220D01*
X64985Y-34225D01*
X64991Y-34231D01*
X64997Y-34242D01*
X64997Y-34270D01*
X64991Y-34282D01*
X64985Y-34287D01*
X64974Y-34293D01*
X64946Y-34293D01*
X64935Y-34287D01*
X64929Y-34282D01*
X65070Y-34175D02*
X65081Y-34175D01*
X65092Y-34180D01*
X65098Y-34186D01*
X65104Y-34197D01*
X65109Y-34220D01*
X65109Y-34248D01*
X65104Y-34270D01*
X65098Y-34282D01*
X65092Y-34287D01*
X65081Y-34293D01*
X65070Y-34293D01*
X65059Y-34287D01*
X65053Y-34282D01*
X65047Y-34270D01*
X65042Y-34248D01*
X65042Y-34220D01*
X65047Y-34197D01*
X65053Y-34186D01*
X65059Y-34180D01*
X65070Y-34175D01*
X64960Y-44521D02*
X64921Y-44465D01*
X64893Y-44521D02*
X64893Y-44403D01*
X64938Y-44403D01*
X64949Y-44409D01*
X64955Y-44414D01*
X64960Y-44426D01*
X64960Y-44443D01*
X64955Y-44454D01*
X64949Y-44459D01*
X64938Y-44465D01*
X64893Y-44465D01*
X65000Y-44403D02*
X65078Y-44403D01*
X65028Y-44521D01*
X64938Y-43686D02*
X64943Y-43680D01*
X64955Y-43675D01*
X64983Y-43675D01*
X64994Y-43680D01*
X65000Y-43686D01*
X65005Y-43697D01*
X65005Y-43709D01*
X65000Y-43725D01*
X64932Y-43793D01*
X65005Y-43793D01*
X65056Y-43793D02*
X65056Y-43675D01*
X65067Y-43748D02*
X65101Y-43793D01*
X65101Y-43714D02*
X65056Y-43759D01*
X64960Y-40321D02*
X64921Y-40265D01*
X64893Y-40321D02*
X64893Y-40203D01*
X64938Y-40203D01*
X64949Y-40209D01*
X64955Y-40214D01*
X64960Y-40226D01*
X64960Y-40243D01*
X64955Y-40254D01*
X64949Y-40259D01*
X64938Y-40265D01*
X64893Y-40265D01*
X65000Y-40203D02*
X65073Y-40203D01*
X65033Y-40248D01*
X65050Y-40248D01*
X65061Y-40254D01*
X65067Y-40259D01*
X65073Y-40271D01*
X65073Y-40299D01*
X65067Y-40310D01*
X65061Y-40316D01*
X65050Y-40321D01*
X65016Y-40321D01*
X65005Y-40316D01*
X65000Y-40310D01*
X65047Y-39475D02*
X64991Y-39475D01*
X64985Y-39531D01*
X64991Y-39525D01*
X65002Y-39520D01*
X65030Y-39520D01*
X65042Y-39525D01*
X65047Y-39531D01*
X65053Y-39542D01*
X65053Y-39570D01*
X65047Y-39582D01*
X65042Y-39587D01*
X65030Y-39593D01*
X65002Y-39593D01*
X64991Y-39587D01*
X64985Y-39582D01*
X64960Y-49821D02*
X64921Y-49765D01*
X64893Y-49821D02*
X64893Y-49703D01*
X64938Y-49703D01*
X64949Y-49709D01*
X64955Y-49714D01*
X64960Y-49726D01*
X64960Y-49743D01*
X64955Y-49754D01*
X64949Y-49759D01*
X64938Y-49765D01*
X64893Y-49765D01*
X65028Y-49754D02*
X65016Y-49748D01*
X65011Y-49743D01*
X65005Y-49731D01*
X65005Y-49726D01*
X65011Y-49714D01*
X65016Y-49709D01*
X65028Y-49703D01*
X65050Y-49703D01*
X65061Y-49709D01*
X65067Y-49714D01*
X65073Y-49726D01*
X65073Y-49731D01*
X65067Y-49743D01*
X65061Y-49748D01*
X65050Y-49754D01*
X65028Y-49754D01*
X65016Y-49759D01*
X65011Y-49765D01*
X65005Y-49776D01*
X65005Y-49799D01*
X65011Y-49810D01*
X65016Y-49816D01*
X65028Y-49821D01*
X65050Y-49821D01*
X65061Y-49816D01*
X65067Y-49810D01*
X65073Y-49799D01*
X65073Y-49776D01*
X65067Y-49765D01*
X65061Y-49759D01*
X65050Y-49754D01*
X64938Y-48986D02*
X64943Y-48980D01*
X64955Y-48975D01*
X64983Y-48975D01*
X64994Y-48980D01*
X65000Y-48986D01*
X65005Y-48997D01*
X65005Y-49009D01*
X65000Y-49025D01*
X64932Y-49093D01*
X65005Y-49093D01*
X65056Y-49093D02*
X65056Y-48975D01*
X65067Y-49048D02*
X65101Y-49093D01*
X65101Y-49014D02*
X65056Y-49059D01*
X39630Y-54469D02*
X39642Y-54401D01*
X39582Y-54421D02*
X39666Y-54338D01*
X39698Y-54369D01*
X39702Y-54381D01*
X39702Y-54389D01*
X39698Y-54401D01*
X39686Y-54413D01*
X39674Y-54417D01*
X39666Y-54417D01*
X39654Y-54413D01*
X39622Y-54381D01*
X39710Y-54548D02*
X39662Y-54501D01*
X39686Y-54525D02*
X39769Y-54441D01*
X39749Y-54445D01*
X39734Y-54445D01*
X39722Y-54441D01*
X39181Y-54882D02*
X39189Y-54890D01*
X39193Y-54902D01*
X39193Y-54910D01*
X39189Y-54922D01*
X39177Y-54942D01*
X39157Y-54962D01*
X39137Y-54974D01*
X39125Y-54978D01*
X39117Y-54978D01*
X39105Y-54974D01*
X39097Y-54966D01*
X39093Y-54954D01*
X39093Y-54946D01*
X39097Y-54934D01*
X39109Y-54914D01*
X39129Y-54894D01*
X39149Y-54882D01*
X39161Y-54878D01*
X39169Y-54878D01*
X39181Y-54882D01*
X64960Y-45621D02*
X64921Y-45565D01*
X64893Y-45621D02*
X64893Y-45503D01*
X64938Y-45503D01*
X64949Y-45509D01*
X64955Y-45514D01*
X64960Y-45526D01*
X64960Y-45543D01*
X64955Y-45554D01*
X64949Y-45559D01*
X64938Y-45565D01*
X64893Y-45565D01*
X65061Y-45543D02*
X65061Y-45621D01*
X65033Y-45498D02*
X65005Y-45582D01*
X65078Y-45582D01*
X65047Y-44775D02*
X64991Y-44775D01*
X64985Y-44831D01*
X64991Y-44825D01*
X65002Y-44820D01*
X65030Y-44820D01*
X65042Y-44825D01*
X65047Y-44831D01*
X65053Y-44842D01*
X65053Y-44870D01*
X65047Y-44882D01*
X65042Y-44887D01*
X65030Y-44893D01*
X65002Y-44893D01*
X64991Y-44887D01*
X64985Y-44882D01*
X64960Y-55121D02*
X64921Y-55065D01*
X64893Y-55121D02*
X64893Y-55003D01*
X64938Y-55003D01*
X64949Y-55009D01*
X64955Y-55014D01*
X64960Y-55026D01*
X64960Y-55043D01*
X64955Y-55054D01*
X64949Y-55059D01*
X64938Y-55065D01*
X64893Y-55065D01*
X65016Y-55121D02*
X65039Y-55121D01*
X65050Y-55116D01*
X65056Y-55110D01*
X65067Y-55093D01*
X65073Y-55071D01*
X65073Y-55026D01*
X65067Y-55014D01*
X65061Y-55009D01*
X65050Y-55003D01*
X65028Y-55003D01*
X65016Y-55009D01*
X65011Y-55014D01*
X65005Y-55026D01*
X65005Y-55054D01*
X65011Y-55065D01*
X65016Y-55071D01*
X65028Y-55076D01*
X65050Y-55076D01*
X65061Y-55071D01*
X65067Y-55065D01*
X65073Y-55054D01*
X64943Y-54275D02*
X64887Y-54275D01*
X64881Y-54331D01*
X64887Y-54325D01*
X64898Y-54320D01*
X64926Y-54320D01*
X64938Y-54325D01*
X64943Y-54331D01*
X64949Y-54342D01*
X64949Y-54370D01*
X64943Y-54382D01*
X64938Y-54387D01*
X64926Y-54393D01*
X64898Y-54393D01*
X64887Y-54387D01*
X64881Y-54382D01*
X65022Y-54275D02*
X65033Y-54275D01*
X65044Y-54280D01*
X65050Y-54286D01*
X65056Y-54297D01*
X65061Y-54320D01*
X65061Y-54348D01*
X65056Y-54370D01*
X65050Y-54382D01*
X65044Y-54387D01*
X65033Y-54393D01*
X65022Y-54393D01*
X65011Y-54387D01*
X65005Y-54382D01*
X65000Y-54370D01*
X64994Y-54348D01*
X64994Y-54320D01*
X65000Y-54297D01*
X65005Y-54286D01*
X65011Y-54280D01*
X65022Y-54275D01*
X65112Y-54393D02*
X65112Y-54275D01*
X65123Y-54348D02*
X65157Y-54393D01*
X65157Y-54314D02*
X65112Y-54359D01*
X64960Y-50921D02*
X64921Y-50865D01*
X64893Y-50921D02*
X64893Y-50803D01*
X64938Y-50803D01*
X64949Y-50809D01*
X64955Y-50814D01*
X64960Y-50826D01*
X64960Y-50843D01*
X64955Y-50854D01*
X64949Y-50859D01*
X64938Y-50865D01*
X64893Y-50865D01*
X65067Y-50803D02*
X65011Y-50803D01*
X65005Y-50859D01*
X65011Y-50854D01*
X65022Y-50848D01*
X65050Y-50848D01*
X65061Y-50854D01*
X65067Y-50859D01*
X65073Y-50871D01*
X65073Y-50899D01*
X65067Y-50910D01*
X65061Y-50916D01*
X65050Y-50921D01*
X65022Y-50921D01*
X65011Y-50916D01*
X65005Y-50910D01*
X64991Y-50075D02*
X64935Y-50075D01*
X64929Y-50131D01*
X64935Y-50125D01*
X64946Y-50120D01*
X64974Y-50120D01*
X64985Y-50125D01*
X64991Y-50131D01*
X64997Y-50142D01*
X64997Y-50170D01*
X64991Y-50182D01*
X64985Y-50187D01*
X64974Y-50193D01*
X64946Y-50193D01*
X64935Y-50187D01*
X64929Y-50182D01*
X65070Y-50075D02*
X65081Y-50075D01*
X65092Y-50080D01*
X65098Y-50086D01*
X65104Y-50097D01*
X65109Y-50120D01*
X65109Y-50148D01*
X65104Y-50170D01*
X65098Y-50182D01*
X65092Y-50187D01*
X65081Y-50193D01*
X65070Y-50193D01*
X65059Y-50187D01*
X65053Y-50182D01*
X65047Y-50170D01*
X65042Y-50148D01*
X65042Y-50120D01*
X65047Y-50097D01*
X65053Y-50086D01*
X65059Y-50080D01*
X65070Y-50075D01*
G54D10*
X52965Y-47249D02*
X53284Y-47249D01*
X53321Y-47231D01*
X53340Y-47212D01*
X53359Y-47174D01*
X53359Y-47099D01*
X53340Y-47062D01*
X53321Y-47043D01*
X53284Y-47024D01*
X52965Y-47024D01*
X53096Y-46668D02*
X53359Y-46668D01*
X52946Y-46762D02*
X53228Y-46856D01*
X53228Y-46612D01*
X51359Y-49330D02*
X50965Y-49330D01*
X50965Y-49180D01*
X50984Y-49143D01*
X51003Y-49124D01*
X51040Y-49105D01*
X51096Y-49105D01*
X51134Y-49124D01*
X51153Y-49143D01*
X51171Y-49180D01*
X51171Y-49330D01*
X51359Y-48937D02*
X50965Y-48937D01*
X50965Y-48843D01*
X50984Y-48787D01*
X51021Y-48749D01*
X51059Y-48731D01*
X51134Y-48712D01*
X51190Y-48712D01*
X51265Y-48731D01*
X51303Y-48749D01*
X51340Y-48787D01*
X51359Y-48843D01*
X51359Y-48937D01*
X51340Y-48562D02*
X51359Y-48506D01*
X51359Y-48412D01*
X51340Y-48374D01*
X51321Y-48356D01*
X51284Y-48337D01*
X51246Y-48337D01*
X51209Y-48356D01*
X51190Y-48374D01*
X51171Y-48412D01*
X51153Y-48487D01*
X51134Y-48524D01*
X51115Y-48543D01*
X51078Y-48562D01*
X51040Y-48562D01*
X51003Y-48543D01*
X50984Y-48524D01*
X50965Y-48487D01*
X50965Y-48393D01*
X50984Y-48337D01*
X51359Y-47962D02*
X51359Y-48187D01*
X51359Y-48074D02*
X50965Y-48074D01*
X51021Y-48112D01*
X51059Y-48149D01*
X51078Y-48187D01*
X51209Y-47793D02*
X51209Y-47493D01*
X51340Y-47324D02*
X51359Y-47268D01*
X51359Y-47174D01*
X51340Y-47137D01*
X51321Y-47118D01*
X51284Y-47099D01*
X51246Y-47099D01*
X51209Y-47118D01*
X51190Y-47137D01*
X51171Y-47174D01*
X51153Y-47249D01*
X51134Y-47287D01*
X51115Y-47306D01*
X51078Y-47324D01*
X51040Y-47324D01*
X51003Y-47306D01*
X50984Y-47287D01*
X50965Y-47249D01*
X50965Y-47156D01*
X50984Y-47099D01*
X50965Y-46743D02*
X50965Y-46931D01*
X51153Y-46950D01*
X51134Y-46931D01*
X51115Y-46893D01*
X51115Y-46800D01*
X51134Y-46762D01*
X51153Y-46743D01*
X51190Y-46725D01*
X51284Y-46725D01*
X51321Y-46743D01*
X51340Y-46762D01*
X51359Y-46800D01*
X51359Y-46893D01*
X51340Y-46931D01*
X51321Y-46950D01*
X51209Y-46556D02*
X51209Y-46256D01*
X51340Y-46087D02*
X51359Y-46031D01*
X51359Y-45937D01*
X51340Y-45900D01*
X51321Y-45881D01*
X51284Y-45862D01*
X51246Y-45862D01*
X51209Y-45881D01*
X51190Y-45900D01*
X51171Y-45937D01*
X51153Y-46012D01*
X51134Y-46050D01*
X51115Y-46068D01*
X51078Y-46087D01*
X51040Y-46087D01*
X51003Y-46068D01*
X50984Y-46050D01*
X50965Y-46012D01*
X50965Y-45918D01*
X50984Y-45862D01*
X51359Y-45675D02*
X51359Y-45600D01*
X51340Y-45562D01*
X51321Y-45543D01*
X51265Y-45506D01*
X51190Y-45487D01*
X51040Y-45487D01*
X51003Y-45506D01*
X50984Y-45525D01*
X50965Y-45562D01*
X50965Y-45637D01*
X50984Y-45675D01*
X51003Y-45693D01*
X51040Y-45712D01*
X51134Y-45712D01*
X51171Y-45693D01*
X51190Y-45675D01*
X51209Y-45637D01*
X51209Y-45562D01*
X51190Y-45525D01*
X51171Y-45506D01*
X51134Y-45487D01*
X51209Y-45318D02*
X51209Y-45018D01*
X51359Y-44831D02*
X50965Y-44831D01*
X51246Y-44700D01*
X50965Y-44569D01*
X51359Y-44569D01*
X52965Y-36649D02*
X53284Y-36649D01*
X53321Y-36631D01*
X53340Y-36612D01*
X53359Y-36574D01*
X53359Y-36499D01*
X53340Y-36462D01*
X53321Y-36443D01*
X53284Y-36424D01*
X52965Y-36424D01*
X53359Y-36031D02*
X53359Y-36256D01*
X53359Y-36143D02*
X52965Y-36143D01*
X53021Y-36181D01*
X53059Y-36218D01*
X53078Y-36256D01*
X51359Y-38918D02*
X50965Y-38918D01*
X50965Y-38768D01*
X50984Y-38730D01*
X51003Y-38712D01*
X51040Y-38693D01*
X51096Y-38693D01*
X51134Y-38712D01*
X51153Y-38730D01*
X51171Y-38768D01*
X51171Y-38918D01*
X51359Y-38524D02*
X50965Y-38524D01*
X50965Y-38430D01*
X50984Y-38374D01*
X51021Y-38337D01*
X51059Y-38318D01*
X51134Y-38299D01*
X51190Y-38299D01*
X51265Y-38318D01*
X51303Y-38337D01*
X51340Y-38374D01*
X51359Y-38430D01*
X51359Y-38524D01*
X51340Y-38149D02*
X51359Y-38093D01*
X51359Y-37999D01*
X51340Y-37962D01*
X51321Y-37943D01*
X51284Y-37924D01*
X51246Y-37924D01*
X51209Y-37943D01*
X51190Y-37962D01*
X51171Y-37999D01*
X51153Y-38074D01*
X51134Y-38112D01*
X51115Y-38131D01*
X51078Y-38149D01*
X51040Y-38149D01*
X51003Y-38131D01*
X50984Y-38112D01*
X50965Y-38074D01*
X50965Y-37981D01*
X50984Y-37924D01*
X51359Y-37549D02*
X51359Y-37774D01*
X51359Y-37662D02*
X50965Y-37662D01*
X51021Y-37699D01*
X51059Y-37737D01*
X51078Y-37774D01*
X51209Y-37381D02*
X51209Y-37081D01*
X51340Y-36912D02*
X51359Y-36856D01*
X51359Y-36762D01*
X51340Y-36724D01*
X51321Y-36706D01*
X51284Y-36687D01*
X51246Y-36687D01*
X51209Y-36706D01*
X51190Y-36724D01*
X51171Y-36762D01*
X51153Y-36837D01*
X51134Y-36874D01*
X51115Y-36893D01*
X51078Y-36912D01*
X51040Y-36912D01*
X51003Y-36893D01*
X50984Y-36874D01*
X50965Y-36837D01*
X50965Y-36743D01*
X50984Y-36687D01*
X50965Y-36331D02*
X50965Y-36518D01*
X51153Y-36537D01*
X51134Y-36518D01*
X51115Y-36481D01*
X51115Y-36387D01*
X51134Y-36349D01*
X51153Y-36331D01*
X51190Y-36312D01*
X51284Y-36312D01*
X51321Y-36331D01*
X51340Y-36349D01*
X51359Y-36387D01*
X51359Y-36481D01*
X51340Y-36518D01*
X51321Y-36537D01*
X51209Y-36143D02*
X51209Y-35843D01*
X51340Y-35675D02*
X51359Y-35618D01*
X51359Y-35525D01*
X51340Y-35487D01*
X51321Y-35468D01*
X51284Y-35450D01*
X51246Y-35450D01*
X51209Y-35468D01*
X51190Y-35487D01*
X51171Y-35525D01*
X51153Y-35600D01*
X51134Y-35637D01*
X51115Y-35656D01*
X51078Y-35675D01*
X51040Y-35675D01*
X51003Y-35656D01*
X50984Y-35637D01*
X50965Y-35600D01*
X50965Y-35506D01*
X50984Y-35450D01*
X51003Y-35300D02*
X50984Y-35281D01*
X50965Y-35243D01*
X50965Y-35150D01*
X50984Y-35112D01*
X51003Y-35093D01*
X51040Y-35075D01*
X51078Y-35075D01*
X51134Y-35093D01*
X51359Y-35318D01*
X51359Y-35075D01*
X51096Y-34737D02*
X51359Y-34737D01*
X50946Y-34831D02*
X51228Y-34925D01*
X51228Y-34681D01*
X51209Y-34531D02*
X51209Y-34231D01*
X51359Y-34044D02*
X50965Y-34044D01*
X51246Y-33912D01*
X50965Y-33781D01*
X51359Y-33781D01*
X52965Y-52549D02*
X53284Y-52549D01*
X53321Y-52531D01*
X53340Y-52512D01*
X53359Y-52474D01*
X53359Y-52399D01*
X53340Y-52362D01*
X53321Y-52343D01*
X53284Y-52324D01*
X52965Y-52324D01*
X53003Y-52156D02*
X52984Y-52137D01*
X52965Y-52100D01*
X52965Y-52006D01*
X52984Y-51968D01*
X53003Y-51950D01*
X53040Y-51931D01*
X53078Y-51931D01*
X53134Y-51950D01*
X53359Y-52175D01*
X53359Y-51931D01*
X51359Y-54818D02*
X50965Y-54818D01*
X50965Y-54668D01*
X50984Y-54630D01*
X51003Y-54612D01*
X51040Y-54593D01*
X51096Y-54593D01*
X51134Y-54612D01*
X51153Y-54630D01*
X51171Y-54668D01*
X51171Y-54818D01*
X51359Y-54424D02*
X50965Y-54424D01*
X50965Y-54330D01*
X50984Y-54274D01*
X51021Y-54237D01*
X51059Y-54218D01*
X51134Y-54199D01*
X51190Y-54199D01*
X51265Y-54218D01*
X51303Y-54237D01*
X51340Y-54274D01*
X51359Y-54330D01*
X51359Y-54424D01*
X51340Y-54049D02*
X51359Y-53993D01*
X51359Y-53899D01*
X51340Y-53862D01*
X51321Y-53843D01*
X51284Y-53824D01*
X51246Y-53824D01*
X51209Y-53843D01*
X51190Y-53862D01*
X51171Y-53899D01*
X51153Y-53974D01*
X51134Y-54012D01*
X51115Y-54031D01*
X51078Y-54049D01*
X51040Y-54049D01*
X51003Y-54031D01*
X50984Y-54012D01*
X50965Y-53974D01*
X50965Y-53881D01*
X50984Y-53824D01*
X51359Y-53449D02*
X51359Y-53674D01*
X51359Y-53562D02*
X50965Y-53562D01*
X51021Y-53599D01*
X51059Y-53637D01*
X51078Y-53674D01*
X51209Y-53281D02*
X51209Y-52981D01*
X51340Y-52812D02*
X51359Y-52756D01*
X51359Y-52662D01*
X51340Y-52624D01*
X51321Y-52606D01*
X51284Y-52587D01*
X51246Y-52587D01*
X51209Y-52606D01*
X51190Y-52624D01*
X51171Y-52662D01*
X51153Y-52737D01*
X51134Y-52774D01*
X51115Y-52793D01*
X51078Y-52812D01*
X51040Y-52812D01*
X51003Y-52793D01*
X50984Y-52774D01*
X50965Y-52737D01*
X50965Y-52643D01*
X50984Y-52587D01*
X50965Y-52231D02*
X50965Y-52418D01*
X51153Y-52437D01*
X51134Y-52418D01*
X51115Y-52381D01*
X51115Y-52287D01*
X51134Y-52249D01*
X51153Y-52231D01*
X51190Y-52212D01*
X51284Y-52212D01*
X51321Y-52231D01*
X51340Y-52249D01*
X51359Y-52287D01*
X51359Y-52381D01*
X51340Y-52418D01*
X51321Y-52437D01*
X51209Y-52043D02*
X51209Y-51743D01*
X51340Y-51575D02*
X51359Y-51518D01*
X51359Y-51425D01*
X51340Y-51387D01*
X51321Y-51368D01*
X51284Y-51350D01*
X51246Y-51350D01*
X51209Y-51368D01*
X51190Y-51387D01*
X51171Y-51425D01*
X51153Y-51500D01*
X51134Y-51537D01*
X51115Y-51556D01*
X51078Y-51575D01*
X51040Y-51575D01*
X51003Y-51556D01*
X50984Y-51537D01*
X50965Y-51500D01*
X50965Y-51406D01*
X50984Y-51350D01*
X51003Y-51200D02*
X50984Y-51181D01*
X50965Y-51143D01*
X50965Y-51050D01*
X50984Y-51012D01*
X51003Y-50993D01*
X51040Y-50975D01*
X51078Y-50975D01*
X51134Y-50993D01*
X51359Y-51218D01*
X51359Y-50975D01*
X51096Y-50637D02*
X51359Y-50637D01*
X50946Y-50731D02*
X51228Y-50825D01*
X51228Y-50581D01*
X51209Y-50431D02*
X51209Y-50131D01*
X51359Y-49944D02*
X50965Y-49944D01*
X51246Y-49812D01*
X50965Y-49681D01*
X51359Y-49681D01*
X52965Y-41949D02*
X53284Y-41949D01*
X53321Y-41931D01*
X53340Y-41912D01*
X53359Y-41874D01*
X53359Y-41799D01*
X53340Y-41762D01*
X53321Y-41743D01*
X53284Y-41724D01*
X52965Y-41724D01*
X52965Y-41575D02*
X52965Y-41331D01*
X53115Y-41462D01*
X53115Y-41406D01*
X53134Y-41368D01*
X53153Y-41350D01*
X53190Y-41331D01*
X53284Y-41331D01*
X53321Y-41350D01*
X53340Y-41368D01*
X53359Y-41406D01*
X53359Y-41518D01*
X53340Y-41556D01*
X53321Y-41575D01*
X51359Y-44030D02*
X50965Y-44030D01*
X50965Y-43880D01*
X50984Y-43843D01*
X51003Y-43824D01*
X51040Y-43805D01*
X51096Y-43805D01*
X51134Y-43824D01*
X51153Y-43843D01*
X51171Y-43880D01*
X51171Y-44030D01*
X51359Y-43637D02*
X50965Y-43637D01*
X50965Y-43543D01*
X50984Y-43487D01*
X51021Y-43449D01*
X51059Y-43431D01*
X51134Y-43412D01*
X51190Y-43412D01*
X51265Y-43431D01*
X51303Y-43449D01*
X51340Y-43487D01*
X51359Y-43543D01*
X51359Y-43637D01*
X51340Y-43262D02*
X51359Y-43206D01*
X51359Y-43112D01*
X51340Y-43074D01*
X51321Y-43056D01*
X51284Y-43037D01*
X51246Y-43037D01*
X51209Y-43056D01*
X51190Y-43074D01*
X51171Y-43112D01*
X51153Y-43187D01*
X51134Y-43224D01*
X51115Y-43243D01*
X51078Y-43262D01*
X51040Y-43262D01*
X51003Y-43243D01*
X50984Y-43224D01*
X50965Y-43187D01*
X50965Y-43093D01*
X50984Y-43037D01*
X51359Y-42662D02*
X51359Y-42887D01*
X51359Y-42774D02*
X50965Y-42774D01*
X51021Y-42812D01*
X51059Y-42849D01*
X51078Y-42887D01*
X51209Y-42493D02*
X51209Y-42193D01*
X51340Y-42024D02*
X51359Y-41968D01*
X51359Y-41874D01*
X51340Y-41837D01*
X51321Y-41818D01*
X51284Y-41799D01*
X51246Y-41799D01*
X51209Y-41818D01*
X51190Y-41837D01*
X51171Y-41874D01*
X51153Y-41949D01*
X51134Y-41987D01*
X51115Y-42006D01*
X51078Y-42024D01*
X51040Y-42024D01*
X51003Y-42006D01*
X50984Y-41987D01*
X50965Y-41949D01*
X50965Y-41856D01*
X50984Y-41799D01*
X50965Y-41443D02*
X50965Y-41631D01*
X51153Y-41650D01*
X51134Y-41631D01*
X51115Y-41593D01*
X51115Y-41500D01*
X51134Y-41462D01*
X51153Y-41443D01*
X51190Y-41425D01*
X51284Y-41425D01*
X51321Y-41443D01*
X51340Y-41462D01*
X51359Y-41500D01*
X51359Y-41593D01*
X51340Y-41631D01*
X51321Y-41650D01*
X51209Y-41256D02*
X51209Y-40956D01*
X51340Y-40787D02*
X51359Y-40731D01*
X51359Y-40637D01*
X51340Y-40600D01*
X51321Y-40581D01*
X51284Y-40562D01*
X51246Y-40562D01*
X51209Y-40581D01*
X51190Y-40600D01*
X51171Y-40637D01*
X51153Y-40712D01*
X51134Y-40750D01*
X51115Y-40768D01*
X51078Y-40787D01*
X51040Y-40787D01*
X51003Y-40768D01*
X50984Y-40750D01*
X50965Y-40712D01*
X50965Y-40618D01*
X50984Y-40562D01*
X51359Y-40375D02*
X51359Y-40300D01*
X51340Y-40262D01*
X51321Y-40243D01*
X51265Y-40206D01*
X51190Y-40187D01*
X51040Y-40187D01*
X51003Y-40206D01*
X50984Y-40225D01*
X50965Y-40262D01*
X50965Y-40337D01*
X50984Y-40375D01*
X51003Y-40393D01*
X51040Y-40412D01*
X51134Y-40412D01*
X51171Y-40393D01*
X51190Y-40375D01*
X51209Y-40337D01*
X51209Y-40262D01*
X51190Y-40225D01*
X51171Y-40206D01*
X51134Y-40187D01*
X51209Y-40018D02*
X51209Y-39718D01*
X51359Y-39531D02*
X50965Y-39531D01*
X51246Y-39400D01*
X50965Y-39269D01*
X51359Y-39269D01*
G54D20*
X68299Y-47015D02*
X68299Y-47334D01*
X68318Y-47371D01*
X68337Y-47390D01*
X68374Y-47409D01*
X68449Y-47409D01*
X68487Y-47390D01*
X68506Y-47371D01*
X68524Y-47334D01*
X68524Y-47015D01*
X68768Y-47184D02*
X68731Y-47165D01*
X68712Y-47146D01*
X68693Y-47109D01*
X68693Y-47090D01*
X68712Y-47053D01*
X68731Y-47034D01*
X68768Y-47015D01*
X68843Y-47015D01*
X68881Y-47034D01*
X68900Y-47053D01*
X68918Y-47090D01*
X68918Y-47109D01*
X68900Y-47146D01*
X68881Y-47165D01*
X68843Y-47184D01*
X68768Y-47184D01*
X68731Y-47203D01*
X68712Y-47221D01*
X68693Y-47259D01*
X68693Y-47334D01*
X68712Y-47371D01*
X68731Y-47390D01*
X68768Y-47409D01*
X68843Y-47409D01*
X68881Y-47390D01*
X68900Y-47371D01*
X68918Y-47334D01*
X68918Y-47259D01*
X68900Y-47221D01*
X68881Y-47203D01*
X68843Y-47184D01*
G54D15*
X67371Y-46465D02*
X67596Y-46465D01*
X67483Y-46859D02*
X67483Y-46465D01*
X67727Y-46859D02*
X67727Y-46465D01*
X67877Y-46465D01*
X67915Y-46484D01*
X67933Y-46503D01*
X67952Y-46540D01*
X67952Y-46596D01*
X67933Y-46634D01*
X67915Y-46653D01*
X67877Y-46671D01*
X67727Y-46671D01*
X68102Y-46840D02*
X68159Y-46859D01*
X68252Y-46859D01*
X68290Y-46840D01*
X68309Y-46821D01*
X68327Y-46784D01*
X68327Y-46746D01*
X68309Y-46709D01*
X68290Y-46690D01*
X68252Y-46671D01*
X68177Y-46653D01*
X68140Y-46634D01*
X68121Y-46615D01*
X68102Y-46578D01*
X68102Y-46540D01*
X68121Y-46503D01*
X68140Y-46484D01*
X68177Y-46465D01*
X68271Y-46465D01*
X68327Y-46484D01*
X68459Y-46465D02*
X68721Y-46465D01*
X68553Y-46859D01*
X68853Y-46746D02*
X69040Y-46746D01*
X68815Y-46859D02*
X68947Y-46465D01*
X69078Y-46859D01*
X69172Y-46465D02*
X69416Y-46465D01*
X69284Y-46615D01*
X69341Y-46615D01*
X69378Y-46634D01*
X69397Y-46653D01*
X69416Y-46690D01*
X69416Y-46784D01*
X69397Y-46821D01*
X69378Y-46840D01*
X69341Y-46859D01*
X69228Y-46859D01*
X69191Y-46840D01*
X69172Y-46821D01*
X69660Y-46465D02*
X69697Y-46465D01*
X69735Y-46484D01*
X69753Y-46503D01*
X69772Y-46540D01*
X69791Y-46615D01*
X69791Y-46709D01*
X69772Y-46784D01*
X69753Y-46821D01*
X69735Y-46840D01*
X69697Y-46859D01*
X69660Y-46859D01*
X69622Y-46840D01*
X69603Y-46821D01*
X69585Y-46784D01*
X69566Y-46709D01*
X69566Y-46615D01*
X69585Y-46540D01*
X69603Y-46503D01*
X69622Y-46484D01*
X69660Y-46465D01*
G54D20*
X68249Y-41715D02*
X68249Y-42034D01*
X68268Y-42071D01*
X68287Y-42090D01*
X68324Y-42109D01*
X68399Y-42109D01*
X68437Y-42090D01*
X68456Y-42071D01*
X68474Y-42034D01*
X68474Y-41715D01*
X68625Y-41715D02*
X68887Y-41715D01*
X68718Y-42109D01*
G54D15*
X67321Y-41165D02*
X67546Y-41165D01*
X67433Y-41559D02*
X67433Y-41165D01*
X67677Y-41559D02*
X67677Y-41165D01*
X67827Y-41165D01*
X67865Y-41184D01*
X67883Y-41203D01*
X67902Y-41240D01*
X67902Y-41296D01*
X67883Y-41334D01*
X67865Y-41353D01*
X67827Y-41371D01*
X67677Y-41371D01*
X68052Y-41540D02*
X68109Y-41559D01*
X68202Y-41559D01*
X68240Y-41540D01*
X68259Y-41521D01*
X68277Y-41484D01*
X68277Y-41446D01*
X68259Y-41409D01*
X68240Y-41390D01*
X68202Y-41371D01*
X68127Y-41353D01*
X68090Y-41334D01*
X68071Y-41315D01*
X68052Y-41278D01*
X68052Y-41240D01*
X68071Y-41203D01*
X68090Y-41184D01*
X68127Y-41165D01*
X68221Y-41165D01*
X68277Y-41184D01*
X68409Y-41165D02*
X68671Y-41165D01*
X68503Y-41559D01*
X68803Y-41446D02*
X68990Y-41446D01*
X68765Y-41559D02*
X68897Y-41165D01*
X69028Y-41559D01*
X69328Y-41296D02*
X69328Y-41559D01*
X69234Y-41146D02*
X69141Y-41428D01*
X69384Y-41428D01*
X69553Y-41559D02*
X69628Y-41559D01*
X69666Y-41540D01*
X69685Y-41521D01*
X69722Y-41465D01*
X69741Y-41390D01*
X69741Y-41240D01*
X69722Y-41203D01*
X69703Y-41184D01*
X69666Y-41165D01*
X69591Y-41165D01*
X69553Y-41184D01*
X69535Y-41203D01*
X69516Y-41240D01*
X69516Y-41334D01*
X69535Y-41371D01*
X69553Y-41390D01*
X69591Y-41409D01*
X69666Y-41409D01*
X69703Y-41390D01*
X69722Y-41371D01*
X69741Y-41334D01*
G54D20*
X68299Y-52315D02*
X68299Y-52634D01*
X68318Y-52671D01*
X68337Y-52690D01*
X68374Y-52709D01*
X68449Y-52709D01*
X68487Y-52690D01*
X68506Y-52671D01*
X68524Y-52634D01*
X68524Y-52315D01*
X68731Y-52709D02*
X68806Y-52709D01*
X68843Y-52690D01*
X68862Y-52671D01*
X68900Y-52615D01*
X68918Y-52540D01*
X68918Y-52390D01*
X68900Y-52353D01*
X68881Y-52334D01*
X68843Y-52315D01*
X68768Y-52315D01*
X68731Y-52334D01*
X68712Y-52353D01*
X68693Y-52390D01*
X68693Y-52484D01*
X68712Y-52521D01*
X68731Y-52540D01*
X68768Y-52559D01*
X68843Y-52559D01*
X68881Y-52540D01*
X68900Y-52521D01*
X68918Y-52484D01*
G54D15*
X67371Y-51765D02*
X67596Y-51765D01*
X67483Y-52159D02*
X67483Y-51765D01*
X67727Y-52159D02*
X67727Y-51765D01*
X67877Y-51765D01*
X67915Y-51784D01*
X67933Y-51803D01*
X67952Y-51840D01*
X67952Y-51896D01*
X67933Y-51934D01*
X67915Y-51953D01*
X67877Y-51971D01*
X67727Y-51971D01*
X68102Y-52140D02*
X68159Y-52159D01*
X68252Y-52159D01*
X68290Y-52140D01*
X68309Y-52121D01*
X68327Y-52084D01*
X68327Y-52046D01*
X68309Y-52009D01*
X68290Y-51990D01*
X68252Y-51971D01*
X68177Y-51953D01*
X68140Y-51934D01*
X68121Y-51915D01*
X68102Y-51878D01*
X68102Y-51840D01*
X68121Y-51803D01*
X68140Y-51784D01*
X68177Y-51765D01*
X68271Y-51765D01*
X68327Y-51784D01*
X68459Y-51765D02*
X68721Y-51765D01*
X68553Y-52159D01*
X68853Y-52046D02*
X69040Y-52046D01*
X68815Y-52159D02*
X68947Y-51765D01*
X69078Y-52159D01*
X69172Y-51765D02*
X69416Y-51765D01*
X69284Y-51915D01*
X69341Y-51915D01*
X69378Y-51934D01*
X69397Y-51953D01*
X69416Y-51990D01*
X69416Y-52084D01*
X69397Y-52121D01*
X69378Y-52140D01*
X69341Y-52159D01*
X69228Y-52159D01*
X69191Y-52140D01*
X69172Y-52121D01*
X69660Y-51765D02*
X69697Y-51765D01*
X69735Y-51784D01*
X69753Y-51803D01*
X69772Y-51840D01*
X69791Y-51915D01*
X69791Y-52009D01*
X69772Y-52084D01*
X69753Y-52121D01*
X69735Y-52140D01*
X69697Y-52159D01*
X69660Y-52159D01*
X69622Y-52140D01*
X69603Y-52121D01*
X69585Y-52084D01*
X69566Y-52009D01*
X69566Y-51915D01*
X69585Y-51840D01*
X69603Y-51803D01*
X69622Y-51784D01*
X69660Y-51765D01*
G54D20*
X68249Y-36415D02*
X68249Y-36734D01*
X68268Y-36771D01*
X68287Y-36790D01*
X68324Y-36809D01*
X68399Y-36809D01*
X68437Y-36790D01*
X68456Y-36771D01*
X68474Y-36734D01*
X68474Y-36415D01*
X68831Y-36415D02*
X68756Y-36415D01*
X68718Y-36434D01*
X68700Y-36453D01*
X68662Y-36509D01*
X68643Y-36584D01*
X68643Y-36734D01*
X68662Y-36771D01*
X68681Y-36790D01*
X68718Y-36809D01*
X68793Y-36809D01*
X68831Y-36790D01*
X68850Y-36771D01*
X68868Y-36734D01*
X68868Y-36640D01*
X68850Y-36603D01*
X68831Y-36584D01*
X68793Y-36565D01*
X68718Y-36565D01*
X68681Y-36584D01*
X68662Y-36603D01*
X68643Y-36640D01*
G54D15*
X67321Y-35865D02*
X67546Y-35865D01*
X67433Y-36259D02*
X67433Y-35865D01*
X67677Y-36259D02*
X67677Y-35865D01*
X67827Y-35865D01*
X67865Y-35884D01*
X67883Y-35903D01*
X67902Y-35940D01*
X67902Y-35996D01*
X67883Y-36034D01*
X67865Y-36053D01*
X67827Y-36071D01*
X67677Y-36071D01*
X68052Y-36240D02*
X68109Y-36259D01*
X68202Y-36259D01*
X68240Y-36240D01*
X68259Y-36221D01*
X68277Y-36184D01*
X68277Y-36146D01*
X68259Y-36109D01*
X68240Y-36090D01*
X68202Y-36071D01*
X68127Y-36053D01*
X68090Y-36034D01*
X68071Y-36015D01*
X68052Y-35978D01*
X68052Y-35940D01*
X68071Y-35903D01*
X68090Y-35884D01*
X68127Y-35865D01*
X68221Y-35865D01*
X68277Y-35884D01*
X68409Y-35865D02*
X68671Y-35865D01*
X68503Y-36259D01*
X68803Y-36146D02*
X68990Y-36146D01*
X68765Y-36259D02*
X68897Y-35865D01*
X69028Y-36259D01*
X69328Y-35996D02*
X69328Y-36259D01*
X69234Y-35846D02*
X69141Y-36128D01*
X69384Y-36128D01*
X69553Y-36259D02*
X69628Y-36259D01*
X69666Y-36240D01*
X69685Y-36221D01*
X69722Y-36165D01*
X69741Y-36090D01*
X69741Y-35940D01*
X69722Y-35903D01*
X69703Y-35884D01*
X69666Y-35865D01*
X69591Y-35865D01*
X69553Y-35884D01*
X69535Y-35903D01*
X69516Y-35940D01*
X69516Y-36034D01*
X69535Y-36071D01*
X69553Y-36090D01*
X69591Y-36109D01*
X69666Y-36109D01*
X69703Y-36090D01*
X69722Y-36071D01*
X69741Y-36034D01*
G54D21*
X46024Y-41728D02*
X46662Y-41728D01*
X46737Y-41690D01*
X46774Y-41653D01*
X46812Y-41578D01*
X46812Y-41428D01*
X46774Y-41353D01*
X46737Y-41315D01*
X46662Y-41278D01*
X46024Y-41278D01*
X46024Y-40528D02*
X46024Y-40903D01*
X46399Y-40940D01*
X46362Y-40903D01*
X46324Y-40828D01*
X46324Y-40640D01*
X46362Y-40565D01*
X46399Y-40528D01*
X46474Y-40490D01*
X46662Y-40490D01*
X46737Y-40528D01*
X46774Y-40565D01*
X46812Y-40640D01*
X46812Y-40828D01*
X46774Y-40903D01*
X46737Y-40940D01*
X43268Y-43162D02*
X42481Y-43162D01*
X43268Y-42712D02*
X42818Y-43049D01*
X42481Y-42712D02*
X42931Y-43162D01*
X43268Y-42374D02*
X42481Y-42374D01*
X42481Y-42074D01*
X42519Y-41999D01*
X42556Y-41962D01*
X42631Y-41924D01*
X42743Y-41924D01*
X42818Y-41962D01*
X42856Y-41999D01*
X42893Y-42074D01*
X42893Y-42374D01*
X43231Y-41624D02*
X43268Y-41512D01*
X43268Y-41325D01*
X43231Y-41250D01*
X43193Y-41212D01*
X43118Y-41175D01*
X43043Y-41175D01*
X42968Y-41212D01*
X42931Y-41250D01*
X42893Y-41325D01*
X42856Y-41474D01*
X42818Y-41549D01*
X42781Y-41587D01*
X42706Y-41624D01*
X42631Y-41624D01*
X42556Y-41587D01*
X42519Y-41549D01*
X42481Y-41474D01*
X42481Y-41287D01*
X42519Y-41175D01*
X42968Y-40837D02*
X42968Y-40237D01*
X42481Y-39487D02*
X42481Y-39862D01*
X42856Y-39900D01*
X42818Y-39862D01*
X42781Y-39787D01*
X42781Y-39600D01*
X42818Y-39525D01*
X42856Y-39487D01*
X42931Y-39450D01*
X43118Y-39450D01*
X43193Y-39487D01*
X43231Y-39525D01*
X43268Y-39600D01*
X43268Y-39787D01*
X43231Y-39862D01*
X43193Y-39900D01*
G54D22*
X49074Y-30637D02*
X49017Y-30637D01*
X49017Y-30519D01*
X49175Y-30637D02*
X49107Y-30637D01*
X49141Y-30637D02*
X49141Y-30519D01*
X49130Y-30536D01*
X49119Y-30547D01*
X49107Y-30553D01*
X49220Y-30531D02*
X49225Y-30525D01*
X49237Y-30519D01*
X49265Y-30519D01*
X49276Y-30525D01*
X49282Y-30531D01*
X49287Y-30542D01*
X49287Y-30553D01*
X49282Y-30570D01*
X49214Y-30637D01*
X49287Y-30637D01*
X52624Y-33787D02*
X52567Y-33787D01*
X52567Y-33669D01*
X52725Y-33787D02*
X52657Y-33787D01*
X52691Y-33787D02*
X52691Y-33669D01*
X52680Y-33686D01*
X52669Y-33697D01*
X52657Y-33703D01*
X52764Y-33669D02*
X52837Y-33669D01*
X52798Y-33714D01*
X52815Y-33714D01*
X52826Y-33720D01*
X52832Y-33725D01*
X52837Y-33737D01*
X52837Y-33765D01*
X52832Y-33776D01*
X52826Y-33782D01*
X52815Y-33787D01*
X52781Y-33787D01*
X52770Y-33782D01*
X52764Y-33776D01*
X49074Y-32637D02*
X49017Y-32637D01*
X49017Y-32519D01*
X49175Y-32637D02*
X49107Y-32637D01*
X49141Y-32637D02*
X49141Y-32519D01*
X49130Y-32536D01*
X49119Y-32547D01*
X49107Y-32553D01*
X49287Y-32637D02*
X49220Y-32637D01*
X49253Y-32637D02*
X49253Y-32519D01*
X49242Y-32536D01*
X49231Y-32547D01*
X49220Y-32553D01*
X65324Y-31037D02*
X65267Y-31037D01*
X65267Y-30919D01*
X65357Y-30931D02*
X65363Y-30925D01*
X65374Y-30919D01*
X65402Y-30919D01*
X65414Y-30925D01*
X65419Y-30931D01*
X65425Y-30942D01*
X65425Y-30953D01*
X65419Y-30970D01*
X65352Y-31037D01*
X65425Y-31037D01*
X65470Y-30931D02*
X65475Y-30925D01*
X65487Y-30919D01*
X65515Y-30919D01*
X65526Y-30925D01*
X65532Y-30931D01*
X65537Y-30942D01*
X65537Y-30953D01*
X65532Y-30970D01*
X65464Y-31037D01*
X65537Y-31037D01*
X55557Y-31525D02*
X55557Y-31582D01*
X55439Y-31582D01*
X55557Y-31424D02*
X55557Y-31492D01*
X55557Y-31458D02*
X55439Y-31458D01*
X55456Y-31469D01*
X55467Y-31480D01*
X55473Y-31492D01*
X55479Y-31323D02*
X55557Y-31323D01*
X55434Y-31351D02*
X55518Y-31379D01*
X55518Y-31306D01*
X56737Y-45725D02*
X56737Y-45782D01*
X56619Y-45782D01*
X56737Y-45624D02*
X56737Y-45692D01*
X56737Y-45658D02*
X56619Y-45658D01*
X56636Y-45669D01*
X56647Y-45680D01*
X56653Y-45692D01*
X56619Y-45551D02*
X56619Y-45540D01*
X56625Y-45529D01*
X56631Y-45523D01*
X56642Y-45517D01*
X56664Y-45512D01*
X56692Y-45512D01*
X56715Y-45517D01*
X56726Y-45523D01*
X56732Y-45529D01*
X56737Y-45540D01*
X56737Y-45551D01*
X56732Y-45562D01*
X56726Y-45568D01*
X56715Y-45574D01*
X56692Y-45579D01*
X56664Y-45579D01*
X56642Y-45574D01*
X56631Y-45568D01*
X56625Y-45562D01*
X56619Y-45551D01*
X55957Y-48269D02*
X55957Y-48325D01*
X55839Y-48325D01*
X55957Y-48224D02*
X55957Y-48202D01*
X55952Y-48191D01*
X55946Y-48185D01*
X55929Y-48174D01*
X55907Y-48168D01*
X55862Y-48168D01*
X55851Y-48174D01*
X55845Y-48179D01*
X55839Y-48191D01*
X55839Y-48213D01*
X55845Y-48224D01*
X55851Y-48230D01*
X55862Y-48235D01*
X55890Y-48235D01*
X55901Y-48230D01*
X55907Y-48224D01*
X55912Y-48213D01*
X55912Y-48191D01*
X55907Y-48179D01*
X55901Y-48174D01*
X55890Y-48168D01*
X55957Y-37669D02*
X55957Y-37725D01*
X55839Y-37725D01*
X55839Y-37641D02*
X55839Y-37568D01*
X55884Y-37607D01*
X55884Y-37591D01*
X55890Y-37579D01*
X55895Y-37574D01*
X55907Y-37568D01*
X55935Y-37568D01*
X55946Y-37574D01*
X55952Y-37579D01*
X55957Y-37591D01*
X55957Y-37624D01*
X55952Y-37635D01*
X55946Y-37641D01*
X56737Y-40369D02*
X56737Y-40425D01*
X56619Y-40425D01*
X56670Y-40313D02*
X56664Y-40324D01*
X56659Y-40330D01*
X56647Y-40335D01*
X56642Y-40335D01*
X56631Y-40330D01*
X56625Y-40324D01*
X56619Y-40313D01*
X56619Y-40291D01*
X56625Y-40279D01*
X56631Y-40274D01*
X56642Y-40268D01*
X56647Y-40268D01*
X56659Y-40274D01*
X56664Y-40279D01*
X56670Y-40291D01*
X56670Y-40313D01*
X56675Y-40324D01*
X56681Y-40330D01*
X56692Y-40335D01*
X56715Y-40335D01*
X56726Y-40330D01*
X56732Y-40324D01*
X56737Y-40313D01*
X56737Y-40291D01*
X56732Y-40279D01*
X56726Y-40274D01*
X56715Y-40268D01*
X56692Y-40268D01*
X56681Y-40274D01*
X56675Y-40279D01*
X56670Y-40291D01*
X55957Y-42969D02*
X55957Y-43025D01*
X55839Y-43025D01*
X55839Y-42941D02*
X55839Y-42862D01*
X55957Y-42913D01*
X55957Y-53569D02*
X55957Y-53625D01*
X55839Y-53625D01*
X55839Y-53474D02*
X55839Y-53530D01*
X55895Y-53535D01*
X55890Y-53530D01*
X55884Y-53519D01*
X55884Y-53491D01*
X55890Y-53479D01*
X55895Y-53474D01*
X55907Y-53468D01*
X55935Y-53468D01*
X55946Y-53474D01*
X55952Y-53479D01*
X55957Y-53491D01*
X55957Y-53519D01*
X55952Y-53530D01*
X55946Y-53535D01*
X56737Y-50969D02*
X56737Y-51025D01*
X56619Y-51025D01*
X56619Y-50879D02*
X56619Y-50902D01*
X56625Y-50913D01*
X56631Y-50919D01*
X56647Y-50930D01*
X56670Y-50935D01*
X56715Y-50935D01*
X56726Y-50930D01*
X56732Y-50924D01*
X56737Y-50913D01*
X56737Y-50891D01*
X56732Y-50879D01*
X56726Y-50874D01*
X56715Y-50868D01*
X56687Y-50868D01*
X56675Y-50874D01*
X56670Y-50879D01*
X56664Y-50891D01*
X56664Y-50913D01*
X56670Y-50924D01*
X56675Y-50930D01*
X56687Y-50935D01*
X56737Y-35069D02*
X56737Y-35125D01*
X56619Y-35125D01*
X56659Y-34979D02*
X56737Y-34979D01*
X56614Y-35007D02*
X56698Y-35035D01*
X56698Y-34962D01*
G54D10*
X75154Y-53354D02*
X75173Y-53373D01*
X75192Y-53429D01*
X75192Y-53467D01*
X75173Y-53523D01*
X75135Y-53560D01*
X75098Y-53579D01*
X75023Y-53598D01*
X74967Y-53598D01*
X74892Y-53579D01*
X74854Y-53560D01*
X74817Y-53523D01*
X74798Y-53467D01*
X74798Y-53429D01*
X74817Y-53373D01*
X74835Y-53354D01*
X74929Y-53017D02*
X75192Y-53017D01*
X74779Y-53110D02*
X75060Y-53204D01*
X75060Y-52960D01*
X74798Y-52735D02*
X74798Y-52698D01*
X74817Y-52661D01*
X74835Y-52642D01*
X74873Y-52623D01*
X74948Y-52604D01*
X75042Y-52604D01*
X75117Y-52623D01*
X75154Y-52642D01*
X75173Y-52661D01*
X75192Y-52698D01*
X75192Y-52735D01*
X75173Y-52773D01*
X75154Y-52792D01*
X75117Y-52810D01*
X75042Y-52829D01*
X74948Y-52829D01*
X74873Y-52810D01*
X74835Y-52792D01*
X74817Y-52773D01*
X74798Y-52735D01*
X73321Y-53523D02*
X73321Y-53748D01*
X73321Y-53635D02*
X72928Y-53635D01*
X72984Y-53673D01*
X73021Y-53710D01*
X73040Y-53748D01*
X72928Y-53279D02*
X72928Y-53242D01*
X72947Y-53204D01*
X72965Y-53185D01*
X73003Y-53167D01*
X73078Y-53148D01*
X73171Y-53148D01*
X73246Y-53167D01*
X73284Y-53185D01*
X73303Y-53204D01*
X73321Y-53242D01*
X73321Y-53279D01*
X73303Y-53317D01*
X73284Y-53335D01*
X73246Y-53354D01*
X73171Y-53373D01*
X73078Y-53373D01*
X73003Y-53354D01*
X72965Y-53335D01*
X72947Y-53317D01*
X72928Y-53279D01*
X73059Y-52810D02*
X73321Y-52810D01*
X73059Y-52979D02*
X73265Y-52979D01*
X73303Y-52960D01*
X73321Y-52923D01*
X73321Y-52867D01*
X73303Y-52829D01*
X73284Y-52810D01*
X73115Y-52492D02*
X73115Y-52623D01*
X73321Y-52623D02*
X72928Y-52623D01*
X72928Y-52436D01*
X74054Y-48054D02*
X74073Y-48073D01*
X74092Y-48129D01*
X74092Y-48167D01*
X74073Y-48223D01*
X74035Y-48260D01*
X73998Y-48279D01*
X73923Y-48298D01*
X73867Y-48298D01*
X73792Y-48279D01*
X73754Y-48260D01*
X73717Y-48223D01*
X73698Y-48167D01*
X73698Y-48129D01*
X73717Y-48073D01*
X73735Y-48054D01*
X73698Y-47923D02*
X73698Y-47679D01*
X73848Y-47810D01*
X73848Y-47754D01*
X73867Y-47717D01*
X73885Y-47698D01*
X73923Y-47679D01*
X74017Y-47679D01*
X74054Y-47698D01*
X74073Y-47717D01*
X74092Y-47754D01*
X74092Y-47867D01*
X74073Y-47904D01*
X74054Y-47923D01*
X73698Y-47323D02*
X73698Y-47510D01*
X73885Y-47529D01*
X73867Y-47510D01*
X73848Y-47473D01*
X73848Y-47379D01*
X73867Y-47342D01*
X73885Y-47323D01*
X73923Y-47304D01*
X74017Y-47304D01*
X74054Y-47323D01*
X74073Y-47342D01*
X74092Y-47379D01*
X74092Y-47473D01*
X74073Y-47510D01*
X74054Y-47529D01*
X72221Y-48223D02*
X72221Y-48448D01*
X72221Y-48335D02*
X71828Y-48335D01*
X71884Y-48373D01*
X71921Y-48410D01*
X71940Y-48448D01*
X71828Y-47979D02*
X71828Y-47942D01*
X71847Y-47904D01*
X71865Y-47885D01*
X71903Y-47867D01*
X71978Y-47848D01*
X72071Y-47848D01*
X72146Y-47867D01*
X72184Y-47885D01*
X72203Y-47904D01*
X72221Y-47942D01*
X72221Y-47979D01*
X72203Y-48017D01*
X72184Y-48035D01*
X72146Y-48054D01*
X72071Y-48073D01*
X71978Y-48073D01*
X71903Y-48054D01*
X71865Y-48035D01*
X71847Y-48017D01*
X71828Y-47979D01*
X71959Y-47510D02*
X72221Y-47510D01*
X71959Y-47679D02*
X72165Y-47679D01*
X72203Y-47660D01*
X72221Y-47623D01*
X72221Y-47567D01*
X72203Y-47529D01*
X72184Y-47510D01*
X72015Y-47192D02*
X72015Y-47323D01*
X72221Y-47323D02*
X71828Y-47323D01*
X71828Y-47136D01*
X75154Y-48054D02*
X75173Y-48073D01*
X75192Y-48129D01*
X75192Y-48167D01*
X75173Y-48223D01*
X75135Y-48260D01*
X75098Y-48279D01*
X75023Y-48298D01*
X74967Y-48298D01*
X74892Y-48279D01*
X74854Y-48260D01*
X74817Y-48223D01*
X74798Y-48167D01*
X74798Y-48129D01*
X74817Y-48073D01*
X74835Y-48054D01*
X74798Y-47923D02*
X74798Y-47679D01*
X74948Y-47810D01*
X74948Y-47754D01*
X74967Y-47717D01*
X74985Y-47698D01*
X75023Y-47679D01*
X75117Y-47679D01*
X75154Y-47698D01*
X75173Y-47717D01*
X75192Y-47754D01*
X75192Y-47867D01*
X75173Y-47904D01*
X75154Y-47923D01*
X75192Y-47492D02*
X75192Y-47417D01*
X75173Y-47379D01*
X75154Y-47361D01*
X75098Y-47323D01*
X75023Y-47304D01*
X74873Y-47304D01*
X74835Y-47323D01*
X74817Y-47342D01*
X74798Y-47379D01*
X74798Y-47454D01*
X74817Y-47492D01*
X74835Y-47510D01*
X74873Y-47529D01*
X74967Y-47529D01*
X75004Y-47510D01*
X75023Y-47492D01*
X75042Y-47454D01*
X75042Y-47379D01*
X75023Y-47342D01*
X75004Y-47323D01*
X74967Y-47304D01*
X73321Y-48223D02*
X73321Y-48448D01*
X73321Y-48335D02*
X72928Y-48335D01*
X72984Y-48373D01*
X73021Y-48410D01*
X73040Y-48448D01*
X72928Y-47979D02*
X72928Y-47942D01*
X72947Y-47904D01*
X72965Y-47885D01*
X73003Y-47867D01*
X73078Y-47848D01*
X73171Y-47848D01*
X73246Y-47867D01*
X73284Y-47885D01*
X73303Y-47904D01*
X73321Y-47942D01*
X73321Y-47979D01*
X73303Y-48017D01*
X73284Y-48035D01*
X73246Y-48054D01*
X73171Y-48073D01*
X73078Y-48073D01*
X73003Y-48054D01*
X72965Y-48035D01*
X72947Y-48017D01*
X72928Y-47979D01*
X73059Y-47510D02*
X73321Y-47510D01*
X73059Y-47679D02*
X73265Y-47679D01*
X73303Y-47660D01*
X73321Y-47623D01*
X73321Y-47567D01*
X73303Y-47529D01*
X73284Y-47510D01*
X73115Y-47192D02*
X73115Y-47323D01*
X73321Y-47323D02*
X72928Y-47323D01*
X72928Y-47136D01*
X68945Y-51704D02*
X68926Y-51723D01*
X68870Y-51742D01*
X68832Y-51742D01*
X68776Y-51723D01*
X68739Y-51685D01*
X68720Y-51648D01*
X68701Y-51573D01*
X68701Y-51517D01*
X68720Y-51442D01*
X68739Y-51404D01*
X68776Y-51367D01*
X68832Y-51348D01*
X68870Y-51348D01*
X68926Y-51367D01*
X68945Y-51385D01*
X69095Y-51385D02*
X69114Y-51367D01*
X69151Y-51348D01*
X69245Y-51348D01*
X69282Y-51367D01*
X69301Y-51385D01*
X69320Y-51423D01*
X69320Y-51460D01*
X69301Y-51517D01*
X69076Y-51742D01*
X69320Y-51742D01*
X69545Y-51517D02*
X69507Y-51498D01*
X69489Y-51479D01*
X69470Y-51442D01*
X69470Y-51423D01*
X69489Y-51385D01*
X69507Y-51367D01*
X69545Y-51348D01*
X69620Y-51348D01*
X69657Y-51367D01*
X69676Y-51385D01*
X69695Y-51423D01*
X69695Y-51442D01*
X69676Y-51479D01*
X69657Y-51498D01*
X69620Y-51517D01*
X69545Y-51517D01*
X69507Y-51535D01*
X69489Y-51554D01*
X69470Y-51592D01*
X69470Y-51667D01*
X69489Y-51704D01*
X69507Y-51723D01*
X69545Y-51742D01*
X69620Y-51742D01*
X69657Y-51723D01*
X69676Y-51704D01*
X69695Y-51667D01*
X69695Y-51592D01*
X69676Y-51554D01*
X69657Y-51535D01*
X69620Y-51517D01*
X68364Y-49478D02*
X68401Y-49478D01*
X68439Y-49497D01*
X68457Y-49515D01*
X68476Y-49553D01*
X68495Y-49628D01*
X68495Y-49721D01*
X68476Y-49796D01*
X68457Y-49834D01*
X68439Y-49853D01*
X68401Y-49871D01*
X68364Y-49871D01*
X68326Y-49853D01*
X68307Y-49834D01*
X68289Y-49796D01*
X68270Y-49721D01*
X68270Y-49628D01*
X68289Y-49553D01*
X68307Y-49515D01*
X68326Y-49497D01*
X68364Y-49478D01*
X68664Y-49834D02*
X68682Y-49853D01*
X68664Y-49871D01*
X68645Y-49853D01*
X68664Y-49834D01*
X68664Y-49871D01*
X68926Y-49478D02*
X68964Y-49478D01*
X69001Y-49497D01*
X69020Y-49515D01*
X69039Y-49553D01*
X69057Y-49628D01*
X69057Y-49721D01*
X69039Y-49796D01*
X69020Y-49834D01*
X69001Y-49853D01*
X68964Y-49871D01*
X68926Y-49871D01*
X68889Y-49853D01*
X68870Y-49834D01*
X68851Y-49796D01*
X68832Y-49721D01*
X68832Y-49628D01*
X68851Y-49553D01*
X68870Y-49515D01*
X68889Y-49497D01*
X68926Y-49478D01*
X69432Y-49871D02*
X69207Y-49871D01*
X69320Y-49871D02*
X69320Y-49478D01*
X69282Y-49534D01*
X69245Y-49571D01*
X69207Y-49590D01*
X69770Y-49609D02*
X69770Y-49871D01*
X69601Y-49609D02*
X69601Y-49815D01*
X69620Y-49853D01*
X69657Y-49871D01*
X69713Y-49871D01*
X69751Y-49853D01*
X69770Y-49834D01*
X70088Y-49665D02*
X69957Y-49665D01*
X69957Y-49871D02*
X69957Y-49478D01*
X70145Y-49478D01*
X68645Y-55304D02*
X68626Y-55323D01*
X68570Y-55342D01*
X68532Y-55342D01*
X68476Y-55323D01*
X68439Y-55285D01*
X68420Y-55248D01*
X68401Y-55173D01*
X68401Y-55117D01*
X68420Y-55042D01*
X68439Y-55004D01*
X68476Y-54967D01*
X68532Y-54948D01*
X68570Y-54948D01*
X68626Y-54967D01*
X68645Y-54985D01*
X68776Y-54948D02*
X69020Y-54948D01*
X68889Y-55098D01*
X68945Y-55098D01*
X68982Y-55117D01*
X69001Y-55135D01*
X69020Y-55173D01*
X69020Y-55267D01*
X69001Y-55304D01*
X68982Y-55323D01*
X68945Y-55342D01*
X68832Y-55342D01*
X68795Y-55323D01*
X68776Y-55304D01*
X69170Y-54985D02*
X69189Y-54967D01*
X69226Y-54948D01*
X69320Y-54948D01*
X69357Y-54967D01*
X69376Y-54985D01*
X69395Y-55023D01*
X69395Y-55060D01*
X69376Y-55117D01*
X69151Y-55342D01*
X69395Y-55342D01*
X68064Y-53078D02*
X68101Y-53078D01*
X68139Y-53097D01*
X68157Y-53115D01*
X68176Y-53153D01*
X68195Y-53228D01*
X68195Y-53321D01*
X68176Y-53396D01*
X68157Y-53434D01*
X68139Y-53453D01*
X68101Y-53471D01*
X68064Y-53471D01*
X68026Y-53453D01*
X68007Y-53434D01*
X67989Y-53396D01*
X67970Y-53321D01*
X67970Y-53228D01*
X67989Y-53153D01*
X68007Y-53115D01*
X68026Y-53097D01*
X68064Y-53078D01*
X68364Y-53434D02*
X68382Y-53453D01*
X68364Y-53471D01*
X68345Y-53453D01*
X68364Y-53434D01*
X68364Y-53471D01*
X68626Y-53078D02*
X68664Y-53078D01*
X68701Y-53097D01*
X68720Y-53115D01*
X68739Y-53153D01*
X68757Y-53228D01*
X68757Y-53321D01*
X68739Y-53396D01*
X68720Y-53434D01*
X68701Y-53453D01*
X68664Y-53471D01*
X68626Y-53471D01*
X68589Y-53453D01*
X68570Y-53434D01*
X68551Y-53396D01*
X68532Y-53321D01*
X68532Y-53228D01*
X68551Y-53153D01*
X68570Y-53115D01*
X68589Y-53097D01*
X68626Y-53078D01*
X69132Y-53471D02*
X68907Y-53471D01*
X69020Y-53471D02*
X69020Y-53078D01*
X68982Y-53134D01*
X68945Y-53171D01*
X68907Y-53190D01*
X69470Y-53209D02*
X69470Y-53471D01*
X69301Y-53209D02*
X69301Y-53415D01*
X69320Y-53453D01*
X69357Y-53471D01*
X69413Y-53471D01*
X69451Y-53453D01*
X69470Y-53434D01*
X69788Y-53265D02*
X69657Y-53265D01*
X69657Y-53471D02*
X69657Y-53078D01*
X69845Y-53078D01*
X74054Y-53354D02*
X74073Y-53373D01*
X74092Y-53429D01*
X74092Y-53467D01*
X74073Y-53523D01*
X74035Y-53560D01*
X73998Y-53579D01*
X73923Y-53598D01*
X73867Y-53598D01*
X73792Y-53579D01*
X73754Y-53560D01*
X73717Y-53523D01*
X73698Y-53467D01*
X73698Y-53429D01*
X73717Y-53373D01*
X73735Y-53354D01*
X73698Y-53223D02*
X73698Y-52979D01*
X73848Y-53110D01*
X73848Y-53054D01*
X73867Y-53017D01*
X73885Y-52998D01*
X73923Y-52979D01*
X74017Y-52979D01*
X74054Y-52998D01*
X74073Y-53017D01*
X74092Y-53054D01*
X74092Y-53167D01*
X74073Y-53204D01*
X74054Y-53223D01*
X73698Y-52642D02*
X73698Y-52717D01*
X73717Y-52754D01*
X73735Y-52773D01*
X73792Y-52810D01*
X73867Y-52829D01*
X74017Y-52829D01*
X74054Y-52810D01*
X74073Y-52792D01*
X74092Y-52754D01*
X74092Y-52679D01*
X74073Y-52642D01*
X74054Y-52623D01*
X74017Y-52604D01*
X73923Y-52604D01*
X73885Y-52623D01*
X73867Y-52642D01*
X73848Y-52679D01*
X73848Y-52754D01*
X73867Y-52792D01*
X73885Y-52810D01*
X73923Y-52829D01*
X72221Y-53523D02*
X72221Y-53748D01*
X72221Y-53635D02*
X71828Y-53635D01*
X71884Y-53673D01*
X71921Y-53710D01*
X71940Y-53748D01*
X71828Y-53279D02*
X71828Y-53242D01*
X71847Y-53204D01*
X71865Y-53185D01*
X71903Y-53167D01*
X71978Y-53148D01*
X72071Y-53148D01*
X72146Y-53167D01*
X72184Y-53185D01*
X72203Y-53204D01*
X72221Y-53242D01*
X72221Y-53279D01*
X72203Y-53317D01*
X72184Y-53335D01*
X72146Y-53354D01*
X72071Y-53373D01*
X71978Y-53373D01*
X71903Y-53354D01*
X71865Y-53335D01*
X71847Y-53317D01*
X71828Y-53279D01*
X71959Y-52810D02*
X72221Y-52810D01*
X71959Y-52979D02*
X72165Y-52979D01*
X72203Y-52960D01*
X72221Y-52923D01*
X72221Y-52867D01*
X72203Y-52829D01*
X72184Y-52810D01*
X72015Y-52492D02*
X72015Y-52623D01*
X72221Y-52623D02*
X71828Y-52623D01*
X71828Y-52436D01*
X46189Y-32051D02*
X46207Y-32070D01*
X46226Y-32126D01*
X46226Y-32164D01*
X46207Y-32220D01*
X46170Y-32257D01*
X46132Y-32276D01*
X46057Y-32295D01*
X46001Y-32295D01*
X45926Y-32276D01*
X45889Y-32257D01*
X45851Y-32220D01*
X45832Y-32164D01*
X45832Y-32126D01*
X45851Y-32070D01*
X45870Y-32051D01*
X46226Y-31676D02*
X46226Y-31901D01*
X46226Y-31789D02*
X45832Y-31789D01*
X45889Y-31826D01*
X45926Y-31864D01*
X45945Y-31901D01*
X46001Y-31451D02*
X45982Y-31489D01*
X45964Y-31507D01*
X45926Y-31526D01*
X45907Y-31526D01*
X45870Y-31507D01*
X45851Y-31489D01*
X45832Y-31451D01*
X45832Y-31376D01*
X45851Y-31339D01*
X45870Y-31320D01*
X45907Y-31301D01*
X45926Y-31301D01*
X45964Y-31320D01*
X45982Y-31339D01*
X46001Y-31376D01*
X46001Y-31451D01*
X46020Y-31489D01*
X46039Y-31507D01*
X46076Y-31526D01*
X46151Y-31526D01*
X46189Y-31507D01*
X46207Y-31489D01*
X46226Y-31451D01*
X46226Y-31376D01*
X46207Y-31339D01*
X46189Y-31320D01*
X46151Y-31301D01*
X46076Y-31301D01*
X46039Y-31320D01*
X46020Y-31339D01*
X46001Y-31376D01*
X48096Y-32220D02*
X48096Y-32445D01*
X48096Y-32332D02*
X47703Y-32332D01*
X47759Y-32370D01*
X47796Y-32407D01*
X47815Y-32445D01*
X47703Y-31976D02*
X47703Y-31939D01*
X47721Y-31901D01*
X47740Y-31882D01*
X47778Y-31864D01*
X47853Y-31845D01*
X47946Y-31845D01*
X48021Y-31864D01*
X48059Y-31882D01*
X48078Y-31901D01*
X48096Y-31939D01*
X48096Y-31976D01*
X48078Y-32014D01*
X48059Y-32032D01*
X48021Y-32051D01*
X47946Y-32070D01*
X47853Y-32070D01*
X47778Y-32051D01*
X47740Y-32032D01*
X47721Y-32014D01*
X47703Y-31976D01*
X47834Y-31507D02*
X48096Y-31507D01*
X47834Y-31676D02*
X48040Y-31676D01*
X48078Y-31657D01*
X48096Y-31620D01*
X48096Y-31564D01*
X48078Y-31526D01*
X48059Y-31507D01*
X47890Y-31189D02*
X47890Y-31320D01*
X48096Y-31320D02*
X47703Y-31320D01*
X47703Y-31132D01*
X68895Y-41104D02*
X68876Y-41123D01*
X68820Y-41142D01*
X68782Y-41142D01*
X68726Y-41123D01*
X68689Y-41085D01*
X68670Y-41048D01*
X68651Y-40973D01*
X68651Y-40917D01*
X68670Y-40842D01*
X68689Y-40804D01*
X68726Y-40767D01*
X68782Y-40748D01*
X68820Y-40748D01*
X68876Y-40767D01*
X68895Y-40785D01*
X69045Y-40785D02*
X69064Y-40767D01*
X69101Y-40748D01*
X69195Y-40748D01*
X69232Y-40767D01*
X69251Y-40785D01*
X69270Y-40823D01*
X69270Y-40860D01*
X69251Y-40917D01*
X69026Y-41142D01*
X69270Y-41142D01*
X69607Y-40748D02*
X69532Y-40748D01*
X69495Y-40767D01*
X69476Y-40785D01*
X69439Y-40842D01*
X69420Y-40917D01*
X69420Y-41067D01*
X69439Y-41104D01*
X69457Y-41123D01*
X69495Y-41142D01*
X69570Y-41142D01*
X69607Y-41123D01*
X69626Y-41104D01*
X69645Y-41067D01*
X69645Y-40973D01*
X69626Y-40935D01*
X69607Y-40917D01*
X69570Y-40898D01*
X69495Y-40898D01*
X69457Y-40917D01*
X69439Y-40935D01*
X69420Y-40973D01*
X68314Y-38878D02*
X68351Y-38878D01*
X68389Y-38897D01*
X68407Y-38915D01*
X68426Y-38953D01*
X68445Y-39028D01*
X68445Y-39121D01*
X68426Y-39196D01*
X68407Y-39234D01*
X68389Y-39253D01*
X68351Y-39271D01*
X68314Y-39271D01*
X68276Y-39253D01*
X68257Y-39234D01*
X68239Y-39196D01*
X68220Y-39121D01*
X68220Y-39028D01*
X68239Y-38953D01*
X68257Y-38915D01*
X68276Y-38897D01*
X68314Y-38878D01*
X68614Y-39234D02*
X68632Y-39253D01*
X68614Y-39271D01*
X68595Y-39253D01*
X68614Y-39234D01*
X68614Y-39271D01*
X68876Y-38878D02*
X68914Y-38878D01*
X68951Y-38897D01*
X68970Y-38915D01*
X68989Y-38953D01*
X69007Y-39028D01*
X69007Y-39121D01*
X68989Y-39196D01*
X68970Y-39234D01*
X68951Y-39253D01*
X68914Y-39271D01*
X68876Y-39271D01*
X68839Y-39253D01*
X68820Y-39234D01*
X68801Y-39196D01*
X68782Y-39121D01*
X68782Y-39028D01*
X68801Y-38953D01*
X68820Y-38915D01*
X68839Y-38897D01*
X68876Y-38878D01*
X69382Y-39271D02*
X69157Y-39271D01*
X69270Y-39271D02*
X69270Y-38878D01*
X69232Y-38934D01*
X69195Y-38971D01*
X69157Y-38990D01*
X69720Y-39009D02*
X69720Y-39271D01*
X69551Y-39009D02*
X69551Y-39215D01*
X69570Y-39253D01*
X69607Y-39271D01*
X69663Y-39271D01*
X69701Y-39253D01*
X69720Y-39234D01*
X70038Y-39065D02*
X69907Y-39065D01*
X69907Y-39271D02*
X69907Y-38878D01*
X70095Y-38878D01*
X74054Y-37454D02*
X74073Y-37473D01*
X74092Y-37529D01*
X74092Y-37567D01*
X74073Y-37623D01*
X74035Y-37660D01*
X73998Y-37679D01*
X73923Y-37698D01*
X73867Y-37698D01*
X73792Y-37679D01*
X73754Y-37660D01*
X73717Y-37623D01*
X73698Y-37567D01*
X73698Y-37529D01*
X73717Y-37473D01*
X73735Y-37454D01*
X73698Y-37323D02*
X73698Y-37079D01*
X73848Y-37210D01*
X73848Y-37154D01*
X73867Y-37117D01*
X73885Y-37098D01*
X73923Y-37079D01*
X74017Y-37079D01*
X74054Y-37098D01*
X74073Y-37117D01*
X74092Y-37154D01*
X74092Y-37267D01*
X74073Y-37304D01*
X74054Y-37323D01*
X73698Y-36948D02*
X73698Y-36704D01*
X73848Y-36835D01*
X73848Y-36779D01*
X73867Y-36742D01*
X73885Y-36723D01*
X73923Y-36704D01*
X74017Y-36704D01*
X74054Y-36723D01*
X74073Y-36742D01*
X74092Y-36779D01*
X74092Y-36892D01*
X74073Y-36929D01*
X74054Y-36948D01*
X72221Y-37623D02*
X72221Y-37848D01*
X72221Y-37735D02*
X71828Y-37735D01*
X71884Y-37773D01*
X71921Y-37810D01*
X71940Y-37848D01*
X71828Y-37379D02*
X71828Y-37342D01*
X71847Y-37304D01*
X71865Y-37285D01*
X71903Y-37267D01*
X71978Y-37248D01*
X72071Y-37248D01*
X72146Y-37267D01*
X72184Y-37285D01*
X72203Y-37304D01*
X72221Y-37342D01*
X72221Y-37379D01*
X72203Y-37417D01*
X72184Y-37435D01*
X72146Y-37454D01*
X72071Y-37473D01*
X71978Y-37473D01*
X71903Y-37454D01*
X71865Y-37435D01*
X71847Y-37417D01*
X71828Y-37379D01*
X71959Y-36910D02*
X72221Y-36910D01*
X71959Y-37079D02*
X72165Y-37079D01*
X72203Y-37060D01*
X72221Y-37023D01*
X72221Y-36967D01*
X72203Y-36929D01*
X72184Y-36910D01*
X72015Y-36592D02*
X72015Y-36723D01*
X72221Y-36723D02*
X71828Y-36723D01*
X71828Y-36536D01*
X56554Y-52217D02*
X56573Y-52235D01*
X56592Y-52292D01*
X56592Y-52329D01*
X56573Y-52385D01*
X56535Y-52423D01*
X56498Y-52442D01*
X56423Y-52460D01*
X56367Y-52460D01*
X56292Y-52442D01*
X56254Y-52423D01*
X56217Y-52385D01*
X56198Y-52329D01*
X56198Y-52292D01*
X56217Y-52235D01*
X56235Y-52217D01*
X56367Y-51992D02*
X56348Y-52029D01*
X56329Y-52048D01*
X56292Y-52067D01*
X56273Y-52067D01*
X56235Y-52048D01*
X56217Y-52029D01*
X56198Y-51992D01*
X56198Y-51917D01*
X56217Y-51879D01*
X56235Y-51860D01*
X56273Y-51842D01*
X56292Y-51842D01*
X56329Y-51860D01*
X56348Y-51879D01*
X56367Y-51917D01*
X56367Y-51992D01*
X56385Y-52029D01*
X56404Y-52048D01*
X56442Y-52067D01*
X56517Y-52067D01*
X56554Y-52048D01*
X56573Y-52029D01*
X56592Y-51992D01*
X56592Y-51917D01*
X56573Y-51879D01*
X56554Y-51860D01*
X56517Y-51842D01*
X56442Y-51842D01*
X56404Y-51860D01*
X56385Y-51879D01*
X56367Y-51917D01*
X54721Y-52573D02*
X54721Y-52798D01*
X54721Y-52685D02*
X54328Y-52685D01*
X54384Y-52723D01*
X54421Y-52760D01*
X54440Y-52798D01*
X54328Y-52329D02*
X54328Y-52292D01*
X54347Y-52254D01*
X54365Y-52235D01*
X54403Y-52217D01*
X54478Y-52198D01*
X54571Y-52198D01*
X54646Y-52217D01*
X54684Y-52235D01*
X54703Y-52254D01*
X54721Y-52292D01*
X54721Y-52329D01*
X54703Y-52367D01*
X54684Y-52385D01*
X54646Y-52404D01*
X54571Y-52423D01*
X54478Y-52423D01*
X54403Y-52404D01*
X54365Y-52385D01*
X54347Y-52367D01*
X54328Y-52329D01*
X54459Y-51860D02*
X54721Y-51860D01*
X54459Y-52029D02*
X54665Y-52029D01*
X54703Y-52010D01*
X54721Y-51973D01*
X54721Y-51917D01*
X54703Y-51879D01*
X54684Y-51860D01*
X54515Y-51542D02*
X54515Y-51673D01*
X54721Y-51673D02*
X54328Y-51673D01*
X54328Y-51486D01*
X49482Y-45504D02*
X49464Y-45523D01*
X49407Y-45542D01*
X49370Y-45542D01*
X49314Y-45523D01*
X49276Y-45485D01*
X49257Y-45448D01*
X49239Y-45373D01*
X49239Y-45317D01*
X49257Y-45242D01*
X49276Y-45204D01*
X49314Y-45167D01*
X49370Y-45148D01*
X49407Y-45148D01*
X49464Y-45167D01*
X49482Y-45185D01*
X49820Y-45279D02*
X49820Y-45542D01*
X49726Y-45129D02*
X49632Y-45410D01*
X49876Y-45410D01*
X48526Y-43278D02*
X48564Y-43278D01*
X48601Y-43297D01*
X48620Y-43315D01*
X48639Y-43353D01*
X48657Y-43428D01*
X48657Y-43521D01*
X48639Y-43596D01*
X48620Y-43634D01*
X48601Y-43653D01*
X48564Y-43671D01*
X48526Y-43671D01*
X48489Y-43653D01*
X48470Y-43634D01*
X48451Y-43596D01*
X48432Y-43521D01*
X48432Y-43428D01*
X48451Y-43353D01*
X48470Y-43315D01*
X48489Y-43297D01*
X48526Y-43278D01*
X48826Y-43634D02*
X48845Y-43653D01*
X48826Y-43671D01*
X48807Y-43653D01*
X48826Y-43634D01*
X48826Y-43671D01*
X49089Y-43278D02*
X49126Y-43278D01*
X49164Y-43297D01*
X49182Y-43315D01*
X49201Y-43353D01*
X49220Y-43428D01*
X49220Y-43521D01*
X49201Y-43596D01*
X49182Y-43634D01*
X49164Y-43653D01*
X49126Y-43671D01*
X49089Y-43671D01*
X49051Y-43653D01*
X49032Y-43634D01*
X49014Y-43596D01*
X48995Y-43521D01*
X48995Y-43428D01*
X49014Y-43353D01*
X49032Y-43315D01*
X49051Y-43297D01*
X49089Y-43278D01*
X49370Y-43315D02*
X49389Y-43297D01*
X49426Y-43278D01*
X49520Y-43278D01*
X49557Y-43297D01*
X49576Y-43315D01*
X49595Y-43353D01*
X49595Y-43390D01*
X49576Y-43446D01*
X49351Y-43671D01*
X49595Y-43671D01*
X49745Y-43315D02*
X49764Y-43297D01*
X49801Y-43278D01*
X49895Y-43278D01*
X49932Y-43297D01*
X49951Y-43315D01*
X49970Y-43353D01*
X49970Y-43390D01*
X49951Y-43446D01*
X49726Y-43671D01*
X49970Y-43671D01*
X50307Y-43409D02*
X50307Y-43671D01*
X50138Y-43409D02*
X50138Y-43615D01*
X50157Y-43653D01*
X50195Y-43671D01*
X50251Y-43671D01*
X50288Y-43653D01*
X50307Y-43634D01*
X50626Y-43465D02*
X50495Y-43465D01*
X50495Y-43671D02*
X50495Y-43278D01*
X50682Y-43278D01*
X56554Y-41617D02*
X56573Y-41635D01*
X56592Y-41692D01*
X56592Y-41729D01*
X56573Y-41785D01*
X56535Y-41823D01*
X56498Y-41842D01*
X56423Y-41860D01*
X56367Y-41860D01*
X56292Y-41842D01*
X56254Y-41823D01*
X56217Y-41785D01*
X56198Y-41729D01*
X56198Y-41692D01*
X56217Y-41635D01*
X56235Y-41617D01*
X56592Y-41429D02*
X56592Y-41354D01*
X56573Y-41317D01*
X56554Y-41298D01*
X56498Y-41260D01*
X56423Y-41242D01*
X56273Y-41242D01*
X56235Y-41260D01*
X56217Y-41279D01*
X56198Y-41317D01*
X56198Y-41392D01*
X56217Y-41429D01*
X56235Y-41448D01*
X56273Y-41467D01*
X56367Y-41467D01*
X56404Y-41448D01*
X56423Y-41429D01*
X56442Y-41392D01*
X56442Y-41317D01*
X56423Y-41279D01*
X56404Y-41260D01*
X56367Y-41242D01*
X54721Y-41973D02*
X54721Y-42198D01*
X54721Y-42085D02*
X54328Y-42085D01*
X54384Y-42123D01*
X54421Y-42160D01*
X54440Y-42198D01*
X54328Y-41729D02*
X54328Y-41692D01*
X54347Y-41654D01*
X54365Y-41635D01*
X54403Y-41617D01*
X54478Y-41598D01*
X54571Y-41598D01*
X54646Y-41617D01*
X54684Y-41635D01*
X54703Y-41654D01*
X54721Y-41692D01*
X54721Y-41729D01*
X54703Y-41767D01*
X54684Y-41785D01*
X54646Y-41804D01*
X54571Y-41823D01*
X54478Y-41823D01*
X54403Y-41804D01*
X54365Y-41785D01*
X54347Y-41767D01*
X54328Y-41729D01*
X54459Y-41260D02*
X54721Y-41260D01*
X54459Y-41429D02*
X54665Y-41429D01*
X54703Y-41410D01*
X54721Y-41373D01*
X54721Y-41317D01*
X54703Y-41279D01*
X54684Y-41260D01*
X54515Y-40942D02*
X54515Y-41073D01*
X54721Y-41073D02*
X54328Y-41073D01*
X54328Y-40886D01*
X48474Y-49428D02*
X48474Y-49455D01*
X48448Y-49508D01*
X48421Y-49534D01*
X48368Y-49561D01*
X48315Y-49561D01*
X48276Y-49547D01*
X48209Y-49508D01*
X48170Y-49468D01*
X48130Y-49402D01*
X48117Y-49362D01*
X48117Y-49309D01*
X48143Y-49256D01*
X48170Y-49229D01*
X48223Y-49203D01*
X48249Y-49203D01*
X48474Y-48924D02*
X48342Y-49057D01*
X48461Y-49203D01*
X48461Y-49176D01*
X48474Y-49136D01*
X48541Y-49070D01*
X48580Y-49057D01*
X48607Y-49057D01*
X48647Y-49070D01*
X48713Y-49136D01*
X48726Y-49176D01*
X48726Y-49203D01*
X48713Y-49242D01*
X48647Y-49309D01*
X48607Y-49322D01*
X48580Y-49322D01*
X46224Y-48530D02*
X46251Y-48503D01*
X46290Y-48490D01*
X46317Y-48490D01*
X46357Y-48503D01*
X46423Y-48543D01*
X46489Y-48609D01*
X46529Y-48676D01*
X46542Y-48715D01*
X46542Y-48742D01*
X46529Y-48782D01*
X46503Y-48808D01*
X46463Y-48822D01*
X46436Y-48822D01*
X46396Y-48808D01*
X46330Y-48769D01*
X46264Y-48702D01*
X46224Y-48636D01*
X46211Y-48596D01*
X46211Y-48570D01*
X46224Y-48530D01*
X46688Y-48570D02*
X46715Y-48570D01*
X46715Y-48596D01*
X46688Y-48596D01*
X46688Y-48570D01*
X46715Y-48596D01*
X46622Y-48132D02*
X46648Y-48106D01*
X46688Y-48092D01*
X46715Y-48092D01*
X46754Y-48106D01*
X46821Y-48145D01*
X46887Y-48212D01*
X46927Y-48278D01*
X46940Y-48318D01*
X46940Y-48344D01*
X46927Y-48384D01*
X46900Y-48411D01*
X46860Y-48424D01*
X46834Y-48424D01*
X46794Y-48411D01*
X46728Y-48371D01*
X46662Y-48305D01*
X46622Y-48238D01*
X46609Y-48198D01*
X46609Y-48172D01*
X46622Y-48132D01*
X46847Y-47960D02*
X46847Y-47933D01*
X46860Y-47894D01*
X46927Y-47827D01*
X46966Y-47814D01*
X46993Y-47814D01*
X47033Y-47827D01*
X47059Y-47854D01*
X47086Y-47907D01*
X47086Y-48225D01*
X47258Y-48053D01*
X47112Y-47695D02*
X47112Y-47668D01*
X47126Y-47628D01*
X47192Y-47562D01*
X47232Y-47549D01*
X47258Y-47549D01*
X47298Y-47562D01*
X47324Y-47589D01*
X47351Y-47642D01*
X47351Y-47960D01*
X47523Y-47788D01*
X47576Y-47363D02*
X47762Y-47549D01*
X47457Y-47483D02*
X47603Y-47628D01*
X47643Y-47642D01*
X47682Y-47628D01*
X47722Y-47589D01*
X47735Y-47549D01*
X47735Y-47522D01*
X47841Y-47178D02*
X47749Y-47271D01*
X47894Y-47416D02*
X47616Y-47138D01*
X47749Y-47005D01*
X56554Y-47104D02*
X56573Y-47123D01*
X56592Y-47179D01*
X56592Y-47217D01*
X56573Y-47273D01*
X56535Y-47310D01*
X56498Y-47329D01*
X56423Y-47348D01*
X56367Y-47348D01*
X56292Y-47329D01*
X56254Y-47310D01*
X56217Y-47273D01*
X56198Y-47217D01*
X56198Y-47179D01*
X56217Y-47123D01*
X56235Y-47104D01*
X56592Y-46729D02*
X56592Y-46954D01*
X56592Y-46842D02*
X56198Y-46842D01*
X56254Y-46879D01*
X56292Y-46917D01*
X56310Y-46954D01*
X56198Y-46485D02*
X56198Y-46448D01*
X56217Y-46411D01*
X56235Y-46392D01*
X56273Y-46373D01*
X56348Y-46354D01*
X56442Y-46354D01*
X56517Y-46373D01*
X56554Y-46392D01*
X56573Y-46411D01*
X56592Y-46448D01*
X56592Y-46485D01*
X56573Y-46523D01*
X56554Y-46542D01*
X56517Y-46560D01*
X56442Y-46579D01*
X56348Y-46579D01*
X56273Y-46560D01*
X56235Y-46542D01*
X56217Y-46523D01*
X56198Y-46485D01*
X54721Y-47273D02*
X54721Y-47498D01*
X54721Y-47385D02*
X54328Y-47385D01*
X54384Y-47423D01*
X54421Y-47460D01*
X54440Y-47498D01*
X54328Y-47029D02*
X54328Y-46992D01*
X54347Y-46954D01*
X54365Y-46935D01*
X54403Y-46917D01*
X54478Y-46898D01*
X54571Y-46898D01*
X54646Y-46917D01*
X54684Y-46935D01*
X54703Y-46954D01*
X54721Y-46992D01*
X54721Y-47029D01*
X54703Y-47067D01*
X54684Y-47085D01*
X54646Y-47104D01*
X54571Y-47123D01*
X54478Y-47123D01*
X54403Y-47104D01*
X54365Y-47085D01*
X54347Y-47067D01*
X54328Y-47029D01*
X54459Y-46560D02*
X54721Y-46560D01*
X54459Y-46729D02*
X54665Y-46729D01*
X54703Y-46710D01*
X54721Y-46673D01*
X54721Y-46617D01*
X54703Y-46579D01*
X54684Y-46560D01*
X54515Y-46242D02*
X54515Y-46373D01*
X54721Y-46373D02*
X54328Y-46373D01*
X54328Y-46186D01*
X56554Y-36317D02*
X56573Y-36335D01*
X56592Y-36392D01*
X56592Y-36429D01*
X56573Y-36485D01*
X56535Y-36523D01*
X56498Y-36542D01*
X56423Y-36560D01*
X56367Y-36560D01*
X56292Y-36542D01*
X56254Y-36523D01*
X56217Y-36485D01*
X56198Y-36429D01*
X56198Y-36392D01*
X56217Y-36335D01*
X56235Y-36317D01*
X56198Y-36185D02*
X56198Y-35923D01*
X56592Y-36092D01*
X54721Y-36673D02*
X54721Y-36898D01*
X54721Y-36785D02*
X54328Y-36785D01*
X54384Y-36823D01*
X54421Y-36860D01*
X54440Y-36898D01*
X54328Y-36429D02*
X54328Y-36392D01*
X54347Y-36354D01*
X54365Y-36335D01*
X54403Y-36317D01*
X54478Y-36298D01*
X54571Y-36298D01*
X54646Y-36317D01*
X54684Y-36335D01*
X54703Y-36354D01*
X54721Y-36392D01*
X54721Y-36429D01*
X54703Y-36467D01*
X54684Y-36485D01*
X54646Y-36504D01*
X54571Y-36523D01*
X54478Y-36523D01*
X54403Y-36504D01*
X54365Y-36485D01*
X54347Y-36467D01*
X54328Y-36429D01*
X54459Y-35960D02*
X54721Y-35960D01*
X54459Y-36129D02*
X54665Y-36129D01*
X54703Y-36110D01*
X54721Y-36073D01*
X54721Y-36017D01*
X54703Y-35979D01*
X54684Y-35960D01*
X54515Y-35642D02*
X54515Y-35773D01*
X54721Y-35773D02*
X54328Y-35773D01*
X54328Y-35586D01*
X49482Y-40204D02*
X49464Y-40223D01*
X49407Y-40242D01*
X49370Y-40242D01*
X49314Y-40223D01*
X49276Y-40185D01*
X49257Y-40148D01*
X49239Y-40073D01*
X49239Y-40017D01*
X49257Y-39942D01*
X49276Y-39904D01*
X49314Y-39867D01*
X49370Y-39848D01*
X49407Y-39848D01*
X49464Y-39867D01*
X49482Y-39885D01*
X49632Y-39885D02*
X49651Y-39867D01*
X49689Y-39848D01*
X49782Y-39848D01*
X49820Y-39867D01*
X49839Y-39885D01*
X49857Y-39923D01*
X49857Y-39960D01*
X49839Y-40017D01*
X49614Y-40242D01*
X49857Y-40242D01*
X48526Y-37978D02*
X48564Y-37978D01*
X48601Y-37997D01*
X48620Y-38015D01*
X48639Y-38053D01*
X48657Y-38128D01*
X48657Y-38221D01*
X48639Y-38296D01*
X48620Y-38334D01*
X48601Y-38353D01*
X48564Y-38371D01*
X48526Y-38371D01*
X48489Y-38353D01*
X48470Y-38334D01*
X48451Y-38296D01*
X48432Y-38221D01*
X48432Y-38128D01*
X48451Y-38053D01*
X48470Y-38015D01*
X48489Y-37997D01*
X48526Y-37978D01*
X48826Y-38334D02*
X48845Y-38353D01*
X48826Y-38371D01*
X48807Y-38353D01*
X48826Y-38334D01*
X48826Y-38371D01*
X49089Y-37978D02*
X49126Y-37978D01*
X49164Y-37997D01*
X49182Y-38015D01*
X49201Y-38053D01*
X49220Y-38128D01*
X49220Y-38221D01*
X49201Y-38296D01*
X49182Y-38334D01*
X49164Y-38353D01*
X49126Y-38371D01*
X49089Y-38371D01*
X49051Y-38353D01*
X49032Y-38334D01*
X49014Y-38296D01*
X48995Y-38221D01*
X48995Y-38128D01*
X49014Y-38053D01*
X49032Y-38015D01*
X49051Y-37997D01*
X49089Y-37978D01*
X49370Y-38015D02*
X49389Y-37997D01*
X49426Y-37978D01*
X49520Y-37978D01*
X49557Y-37997D01*
X49576Y-38015D01*
X49595Y-38053D01*
X49595Y-38090D01*
X49576Y-38146D01*
X49351Y-38371D01*
X49595Y-38371D01*
X49745Y-38015D02*
X49764Y-37997D01*
X49801Y-37978D01*
X49895Y-37978D01*
X49932Y-37997D01*
X49951Y-38015D01*
X49970Y-38053D01*
X49970Y-38090D01*
X49951Y-38146D01*
X49726Y-38371D01*
X49970Y-38371D01*
X50307Y-38109D02*
X50307Y-38371D01*
X50138Y-38109D02*
X50138Y-38315D01*
X50157Y-38353D01*
X50195Y-38371D01*
X50251Y-38371D01*
X50288Y-38353D01*
X50307Y-38334D01*
X50626Y-38165D02*
X50495Y-38165D01*
X50495Y-38371D02*
X50495Y-37978D01*
X50682Y-37978D01*
X54798Y-32239D02*
X54779Y-32257D01*
X54723Y-32276D01*
X54685Y-32276D01*
X54629Y-32257D01*
X54592Y-32220D01*
X54573Y-32182D01*
X54554Y-32107D01*
X54554Y-32051D01*
X54573Y-31976D01*
X54592Y-31939D01*
X54629Y-31901D01*
X54685Y-31882D01*
X54723Y-31882D01*
X54779Y-31901D01*
X54798Y-31920D01*
X54948Y-31920D02*
X54967Y-31901D01*
X55004Y-31882D01*
X55098Y-31882D01*
X55135Y-31901D01*
X55154Y-31920D01*
X55173Y-31957D01*
X55173Y-31995D01*
X55154Y-32051D01*
X54929Y-32276D01*
X55173Y-32276D01*
X55417Y-31882D02*
X55454Y-31882D01*
X55492Y-31901D01*
X55510Y-31920D01*
X55529Y-31957D01*
X55548Y-32032D01*
X55548Y-32126D01*
X55529Y-32201D01*
X55510Y-32239D01*
X55492Y-32257D01*
X55454Y-32276D01*
X55417Y-32276D01*
X55379Y-32257D01*
X55360Y-32239D01*
X55342Y-32201D01*
X55323Y-32126D01*
X55323Y-32032D01*
X55342Y-31957D01*
X55360Y-31920D01*
X55379Y-31901D01*
X55417Y-31882D01*
X54629Y-34146D02*
X54404Y-34146D01*
X54517Y-34146D02*
X54517Y-33753D01*
X54479Y-33809D01*
X54442Y-33846D01*
X54404Y-33865D01*
X54873Y-33753D02*
X54910Y-33753D01*
X54948Y-33771D01*
X54967Y-33790D01*
X54985Y-33828D01*
X55004Y-33903D01*
X55004Y-33996D01*
X54985Y-34071D01*
X54967Y-34109D01*
X54948Y-34128D01*
X54910Y-34146D01*
X54873Y-34146D01*
X54835Y-34128D01*
X54817Y-34109D01*
X54798Y-34071D01*
X54779Y-33996D01*
X54779Y-33903D01*
X54798Y-33828D01*
X54817Y-33790D01*
X54835Y-33771D01*
X54873Y-33753D01*
X55342Y-33884D02*
X55342Y-34146D01*
X55173Y-33884D02*
X55173Y-34090D01*
X55192Y-34128D01*
X55229Y-34146D01*
X55285Y-34146D01*
X55323Y-34128D01*
X55342Y-34109D01*
X55660Y-33940D02*
X55529Y-33940D01*
X55529Y-34146D02*
X55529Y-33753D01*
X55717Y-33753D01*
X41080Y-53272D02*
X41054Y-53272D01*
X41001Y-53245D01*
X40974Y-53219D01*
X40948Y-53165D01*
X40948Y-53112D01*
X40961Y-53073D01*
X41001Y-53006D01*
X41041Y-52967D01*
X41107Y-52927D01*
X41147Y-52914D01*
X41200Y-52914D01*
X41253Y-52940D01*
X41279Y-52967D01*
X41306Y-53020D01*
X41306Y-53046D01*
X41319Y-53563D02*
X41160Y-53404D01*
X41239Y-53484D02*
X41518Y-53205D01*
X41452Y-53219D01*
X41398Y-53219D01*
X41359Y-53205D01*
X41584Y-53828D02*
X41425Y-53669D01*
X41505Y-53749D02*
X41783Y-53470D01*
X41717Y-53484D01*
X41664Y-53484D01*
X41624Y-53470D01*
X39745Y-54634D02*
X39586Y-54475D01*
X39665Y-54554D02*
X39944Y-54276D01*
X39877Y-54289D01*
X39824Y-54289D01*
X39785Y-54276D01*
X40169Y-54687D02*
X39983Y-54872D01*
X40050Y-54567D02*
X39904Y-54713D01*
X39891Y-54753D01*
X39904Y-54793D01*
X39944Y-54833D01*
X39983Y-54846D01*
X40010Y-54846D01*
X40355Y-54952D02*
X40262Y-54859D01*
X40116Y-55005D02*
X40394Y-54726D01*
X40527Y-54859D01*
X68895Y-35804D02*
X68876Y-35823D01*
X68820Y-35842D01*
X68782Y-35842D01*
X68726Y-35823D01*
X68689Y-35785D01*
X68670Y-35748D01*
X68651Y-35673D01*
X68651Y-35617D01*
X68670Y-35542D01*
X68689Y-35504D01*
X68726Y-35467D01*
X68782Y-35448D01*
X68820Y-35448D01*
X68876Y-35467D01*
X68895Y-35485D01*
X69045Y-35485D02*
X69064Y-35467D01*
X69101Y-35448D01*
X69195Y-35448D01*
X69232Y-35467D01*
X69251Y-35485D01*
X69270Y-35523D01*
X69270Y-35560D01*
X69251Y-35617D01*
X69026Y-35842D01*
X69270Y-35842D01*
X69626Y-35448D02*
X69439Y-35448D01*
X69420Y-35635D01*
X69439Y-35617D01*
X69476Y-35598D01*
X69570Y-35598D01*
X69607Y-35617D01*
X69626Y-35635D01*
X69645Y-35673D01*
X69645Y-35767D01*
X69626Y-35804D01*
X69607Y-35823D01*
X69570Y-35842D01*
X69476Y-35842D01*
X69439Y-35823D01*
X69420Y-35804D01*
X68314Y-33578D02*
X68351Y-33578D01*
X68389Y-33597D01*
X68407Y-33615D01*
X68426Y-33653D01*
X68445Y-33728D01*
X68445Y-33821D01*
X68426Y-33896D01*
X68407Y-33934D01*
X68389Y-33953D01*
X68351Y-33971D01*
X68314Y-33971D01*
X68276Y-33953D01*
X68257Y-33934D01*
X68239Y-33896D01*
X68220Y-33821D01*
X68220Y-33728D01*
X68239Y-33653D01*
X68257Y-33615D01*
X68276Y-33597D01*
X68314Y-33578D01*
X68614Y-33934D02*
X68632Y-33953D01*
X68614Y-33971D01*
X68595Y-33953D01*
X68614Y-33934D01*
X68614Y-33971D01*
X68876Y-33578D02*
X68914Y-33578D01*
X68951Y-33597D01*
X68970Y-33615D01*
X68989Y-33653D01*
X69007Y-33728D01*
X69007Y-33821D01*
X68989Y-33896D01*
X68970Y-33934D01*
X68951Y-33953D01*
X68914Y-33971D01*
X68876Y-33971D01*
X68839Y-33953D01*
X68820Y-33934D01*
X68801Y-33896D01*
X68782Y-33821D01*
X68782Y-33728D01*
X68801Y-33653D01*
X68820Y-33615D01*
X68839Y-33597D01*
X68876Y-33578D01*
X69382Y-33971D02*
X69157Y-33971D01*
X69270Y-33971D02*
X69270Y-33578D01*
X69232Y-33634D01*
X69195Y-33671D01*
X69157Y-33690D01*
X69720Y-33709D02*
X69720Y-33971D01*
X69551Y-33709D02*
X69551Y-33915D01*
X69570Y-33953D01*
X69607Y-33971D01*
X69663Y-33971D01*
X69701Y-33953D01*
X69720Y-33934D01*
X70038Y-33765D02*
X69907Y-33765D01*
X69907Y-33971D02*
X69907Y-33578D01*
X70095Y-33578D01*
X68595Y-39404D02*
X68576Y-39423D01*
X68520Y-39442D01*
X68482Y-39442D01*
X68426Y-39423D01*
X68389Y-39385D01*
X68370Y-39348D01*
X68351Y-39273D01*
X68351Y-39217D01*
X68370Y-39142D01*
X68389Y-39104D01*
X68426Y-39067D01*
X68482Y-39048D01*
X68520Y-39048D01*
X68576Y-39067D01*
X68595Y-39085D01*
X68745Y-39085D02*
X68764Y-39067D01*
X68801Y-39048D01*
X68895Y-39048D01*
X68932Y-39067D01*
X68951Y-39085D01*
X68970Y-39123D01*
X68970Y-39160D01*
X68951Y-39217D01*
X68726Y-39442D01*
X68970Y-39442D01*
X69157Y-39442D02*
X69232Y-39442D01*
X69270Y-39423D01*
X69288Y-39404D01*
X69326Y-39348D01*
X69345Y-39273D01*
X69345Y-39123D01*
X69326Y-39085D01*
X69307Y-39067D01*
X69270Y-39048D01*
X69195Y-39048D01*
X69157Y-39067D01*
X69139Y-39085D01*
X69120Y-39123D01*
X69120Y-39217D01*
X69139Y-39254D01*
X69157Y-39273D01*
X69195Y-39292D01*
X69270Y-39292D01*
X69307Y-39273D01*
X69326Y-39254D01*
X69345Y-39217D01*
X68014Y-37178D02*
X68051Y-37178D01*
X68089Y-37197D01*
X68107Y-37215D01*
X68126Y-37253D01*
X68145Y-37328D01*
X68145Y-37421D01*
X68126Y-37496D01*
X68107Y-37534D01*
X68089Y-37553D01*
X68051Y-37571D01*
X68014Y-37571D01*
X67976Y-37553D01*
X67957Y-37534D01*
X67939Y-37496D01*
X67920Y-37421D01*
X67920Y-37328D01*
X67939Y-37253D01*
X67957Y-37215D01*
X67976Y-37197D01*
X68014Y-37178D01*
X68314Y-37534D02*
X68332Y-37553D01*
X68314Y-37571D01*
X68295Y-37553D01*
X68314Y-37534D01*
X68314Y-37571D01*
X68576Y-37178D02*
X68614Y-37178D01*
X68651Y-37197D01*
X68670Y-37215D01*
X68689Y-37253D01*
X68707Y-37328D01*
X68707Y-37421D01*
X68689Y-37496D01*
X68670Y-37534D01*
X68651Y-37553D01*
X68614Y-37571D01*
X68576Y-37571D01*
X68539Y-37553D01*
X68520Y-37534D01*
X68501Y-37496D01*
X68482Y-37421D01*
X68482Y-37328D01*
X68501Y-37253D01*
X68520Y-37215D01*
X68539Y-37197D01*
X68576Y-37178D01*
X69082Y-37571D02*
X68857Y-37571D01*
X68970Y-37571D02*
X68970Y-37178D01*
X68932Y-37234D01*
X68895Y-37271D01*
X68857Y-37290D01*
X69420Y-37309D02*
X69420Y-37571D01*
X69251Y-37309D02*
X69251Y-37515D01*
X69270Y-37553D01*
X69307Y-37571D01*
X69363Y-37571D01*
X69401Y-37553D01*
X69420Y-37534D01*
X69738Y-37365D02*
X69607Y-37365D01*
X69607Y-37571D02*
X69607Y-37178D01*
X69795Y-37178D01*
X75154Y-37454D02*
X75173Y-37473D01*
X75192Y-37529D01*
X75192Y-37567D01*
X75173Y-37623D01*
X75135Y-37660D01*
X75098Y-37679D01*
X75023Y-37698D01*
X74967Y-37698D01*
X74892Y-37679D01*
X74854Y-37660D01*
X74817Y-37623D01*
X74798Y-37567D01*
X74798Y-37529D01*
X74817Y-37473D01*
X74835Y-37454D01*
X74798Y-37323D02*
X74798Y-37079D01*
X74948Y-37210D01*
X74948Y-37154D01*
X74967Y-37117D01*
X74985Y-37098D01*
X75023Y-37079D01*
X75117Y-37079D01*
X75154Y-37098D01*
X75173Y-37117D01*
X75192Y-37154D01*
X75192Y-37267D01*
X75173Y-37304D01*
X75154Y-37323D01*
X74798Y-36948D02*
X74798Y-36686D01*
X75192Y-36854D01*
X73321Y-37623D02*
X73321Y-37848D01*
X73321Y-37735D02*
X72928Y-37735D01*
X72984Y-37773D01*
X73021Y-37810D01*
X73040Y-37848D01*
X72928Y-37379D02*
X72928Y-37342D01*
X72947Y-37304D01*
X72965Y-37285D01*
X73003Y-37267D01*
X73078Y-37248D01*
X73171Y-37248D01*
X73246Y-37267D01*
X73284Y-37285D01*
X73303Y-37304D01*
X73321Y-37342D01*
X73321Y-37379D01*
X73303Y-37417D01*
X73284Y-37435D01*
X73246Y-37454D01*
X73171Y-37473D01*
X73078Y-37473D01*
X73003Y-37454D01*
X72965Y-37435D01*
X72947Y-37417D01*
X72928Y-37379D01*
X73059Y-36910D02*
X73321Y-36910D01*
X73059Y-37079D02*
X73265Y-37079D01*
X73303Y-37060D01*
X73321Y-37023D01*
X73321Y-36967D01*
X73303Y-36929D01*
X73284Y-36910D01*
X73115Y-36592D02*
X73115Y-36723D01*
X73321Y-36723D02*
X72928Y-36723D01*
X72928Y-36536D01*
X46745Y-34904D02*
X46726Y-34923D01*
X46670Y-34942D01*
X46632Y-34942D01*
X46576Y-34923D01*
X46539Y-34885D01*
X46520Y-34848D01*
X46501Y-34773D01*
X46501Y-34717D01*
X46520Y-34642D01*
X46539Y-34604D01*
X46576Y-34567D01*
X46632Y-34548D01*
X46670Y-34548D01*
X46726Y-34567D01*
X46745Y-34585D01*
X47120Y-34942D02*
X46895Y-34942D01*
X47007Y-34942D02*
X47007Y-34548D01*
X46970Y-34604D01*
X46932Y-34642D01*
X46895Y-34660D01*
X47270Y-34585D02*
X47289Y-34567D01*
X47326Y-34548D01*
X47420Y-34548D01*
X47457Y-34567D01*
X47476Y-34585D01*
X47495Y-34623D01*
X47495Y-34660D01*
X47476Y-34717D01*
X47251Y-34942D01*
X47495Y-34942D01*
X45976Y-32678D02*
X46014Y-32678D01*
X46051Y-32697D01*
X46070Y-32715D01*
X46089Y-32753D01*
X46107Y-32828D01*
X46107Y-32921D01*
X46089Y-32996D01*
X46070Y-33034D01*
X46051Y-33053D01*
X46014Y-33071D01*
X45976Y-33071D01*
X45939Y-33053D01*
X45920Y-33034D01*
X45901Y-32996D01*
X45882Y-32921D01*
X45882Y-32828D01*
X45901Y-32753D01*
X45920Y-32715D01*
X45939Y-32697D01*
X45976Y-32678D01*
X46276Y-33034D02*
X46295Y-33053D01*
X46276Y-33071D01*
X46257Y-33053D01*
X46276Y-33034D01*
X46276Y-33071D01*
X46539Y-32678D02*
X46576Y-32678D01*
X46614Y-32697D01*
X46632Y-32715D01*
X46651Y-32753D01*
X46670Y-32828D01*
X46670Y-32921D01*
X46651Y-32996D01*
X46632Y-33034D01*
X46614Y-33053D01*
X46576Y-33071D01*
X46539Y-33071D01*
X46501Y-33053D01*
X46482Y-33034D01*
X46464Y-32996D01*
X46445Y-32921D01*
X46445Y-32828D01*
X46464Y-32753D01*
X46482Y-32715D01*
X46501Y-32697D01*
X46539Y-32678D01*
X46820Y-32715D02*
X46839Y-32697D01*
X46876Y-32678D01*
X46970Y-32678D01*
X47007Y-32697D01*
X47026Y-32715D01*
X47045Y-32753D01*
X47045Y-32790D01*
X47026Y-32846D01*
X46801Y-33071D01*
X47045Y-33071D01*
X47195Y-32715D02*
X47214Y-32697D01*
X47251Y-32678D01*
X47345Y-32678D01*
X47382Y-32697D01*
X47401Y-32715D01*
X47420Y-32753D01*
X47420Y-32790D01*
X47401Y-32846D01*
X47176Y-33071D01*
X47420Y-33071D01*
X47757Y-32809D02*
X47757Y-33071D01*
X47588Y-32809D02*
X47588Y-33015D01*
X47607Y-33053D01*
X47645Y-33071D01*
X47701Y-33071D01*
X47738Y-33053D01*
X47757Y-33034D01*
X48076Y-32865D02*
X47945Y-32865D01*
X47945Y-33071D02*
X47945Y-32678D01*
X48132Y-32678D01*
X46421Y-54124D02*
X46394Y-54124D01*
X46341Y-54098D01*
X46315Y-54071D01*
X46288Y-54018D01*
X46288Y-53965D01*
X46302Y-53926D01*
X46341Y-53859D01*
X46381Y-53820D01*
X46447Y-53780D01*
X46487Y-53767D01*
X46540Y-53767D01*
X46593Y-53793D01*
X46620Y-53820D01*
X46646Y-53873D01*
X46646Y-53899D01*
X46766Y-53965D02*
X46938Y-54138D01*
X46739Y-54151D01*
X46779Y-54191D01*
X46792Y-54230D01*
X46792Y-54257D01*
X46779Y-54297D01*
X46713Y-54363D01*
X46673Y-54376D01*
X46646Y-54376D01*
X46607Y-54363D01*
X46527Y-54284D01*
X46514Y-54244D01*
X46514Y-54217D01*
X47319Y-51874D02*
X47346Y-51901D01*
X47359Y-51940D01*
X47359Y-51967D01*
X47346Y-52007D01*
X47306Y-52073D01*
X47240Y-52139D01*
X47173Y-52179D01*
X47134Y-52192D01*
X47107Y-52192D01*
X47067Y-52179D01*
X47041Y-52153D01*
X47027Y-52113D01*
X47027Y-52086D01*
X47041Y-52046D01*
X47080Y-51980D01*
X47147Y-51914D01*
X47213Y-51874D01*
X47253Y-51861D01*
X47279Y-51861D01*
X47319Y-51874D01*
X47279Y-52338D02*
X47279Y-52365D01*
X47253Y-52365D01*
X47253Y-52338D01*
X47279Y-52338D01*
X47253Y-52365D01*
X47717Y-52272D02*
X47743Y-52298D01*
X47757Y-52338D01*
X47757Y-52365D01*
X47743Y-52404D01*
X47704Y-52471D01*
X47637Y-52537D01*
X47571Y-52577D01*
X47531Y-52590D01*
X47505Y-52590D01*
X47465Y-52577D01*
X47438Y-52550D01*
X47425Y-52510D01*
X47425Y-52484D01*
X47438Y-52444D01*
X47478Y-52378D01*
X47544Y-52312D01*
X47611Y-52272D01*
X47651Y-52259D01*
X47677Y-52259D01*
X47717Y-52272D01*
X47889Y-52497D02*
X47916Y-52497D01*
X47955Y-52510D01*
X48022Y-52577D01*
X48035Y-52616D01*
X48035Y-52643D01*
X48022Y-52683D01*
X47995Y-52709D01*
X47942Y-52736D01*
X47624Y-52736D01*
X47796Y-52908D01*
X48154Y-52762D02*
X48181Y-52762D01*
X48221Y-52776D01*
X48287Y-52842D01*
X48300Y-52882D01*
X48300Y-52908D01*
X48287Y-52948D01*
X48260Y-52974D01*
X48207Y-53001D01*
X47889Y-53001D01*
X48061Y-53173D01*
X48486Y-53226D02*
X48300Y-53412D01*
X48366Y-53107D02*
X48221Y-53253D01*
X48207Y-53293D01*
X48221Y-53332D01*
X48260Y-53372D01*
X48300Y-53385D01*
X48327Y-53385D01*
X48671Y-53491D02*
X48578Y-53399D01*
X48433Y-53544D02*
X48711Y-53266D01*
X48844Y-53399D01*
X68595Y-44704D02*
X68576Y-44723D01*
X68520Y-44742D01*
X68482Y-44742D01*
X68426Y-44723D01*
X68389Y-44685D01*
X68370Y-44648D01*
X68351Y-44573D01*
X68351Y-44517D01*
X68370Y-44442D01*
X68389Y-44404D01*
X68426Y-44367D01*
X68482Y-44348D01*
X68520Y-44348D01*
X68576Y-44367D01*
X68595Y-44385D01*
X68726Y-44348D02*
X68970Y-44348D01*
X68839Y-44498D01*
X68895Y-44498D01*
X68932Y-44517D01*
X68951Y-44535D01*
X68970Y-44573D01*
X68970Y-44667D01*
X68951Y-44704D01*
X68932Y-44723D01*
X68895Y-44742D01*
X68782Y-44742D01*
X68745Y-44723D01*
X68726Y-44704D01*
X69214Y-44348D02*
X69251Y-44348D01*
X69288Y-44367D01*
X69307Y-44385D01*
X69326Y-44423D01*
X69345Y-44498D01*
X69345Y-44592D01*
X69326Y-44667D01*
X69307Y-44704D01*
X69288Y-44723D01*
X69251Y-44742D01*
X69214Y-44742D01*
X69176Y-44723D01*
X69157Y-44704D01*
X69139Y-44667D01*
X69120Y-44592D01*
X69120Y-44498D01*
X69139Y-44423D01*
X69157Y-44385D01*
X69176Y-44367D01*
X69214Y-44348D01*
X68014Y-42478D02*
X68051Y-42478D01*
X68089Y-42497D01*
X68107Y-42515D01*
X68126Y-42553D01*
X68145Y-42628D01*
X68145Y-42721D01*
X68126Y-42796D01*
X68107Y-42834D01*
X68089Y-42853D01*
X68051Y-42871D01*
X68014Y-42871D01*
X67976Y-42853D01*
X67957Y-42834D01*
X67939Y-42796D01*
X67920Y-42721D01*
X67920Y-42628D01*
X67939Y-42553D01*
X67957Y-42515D01*
X67976Y-42497D01*
X68014Y-42478D01*
X68314Y-42834D02*
X68332Y-42853D01*
X68314Y-42871D01*
X68295Y-42853D01*
X68314Y-42834D01*
X68314Y-42871D01*
X68576Y-42478D02*
X68614Y-42478D01*
X68651Y-42497D01*
X68670Y-42515D01*
X68689Y-42553D01*
X68707Y-42628D01*
X68707Y-42721D01*
X68689Y-42796D01*
X68670Y-42834D01*
X68651Y-42853D01*
X68614Y-42871D01*
X68576Y-42871D01*
X68539Y-42853D01*
X68520Y-42834D01*
X68501Y-42796D01*
X68482Y-42721D01*
X68482Y-42628D01*
X68501Y-42553D01*
X68520Y-42515D01*
X68539Y-42497D01*
X68576Y-42478D01*
X69082Y-42871D02*
X68857Y-42871D01*
X68970Y-42871D02*
X68970Y-42478D01*
X68932Y-42534D01*
X68895Y-42571D01*
X68857Y-42590D01*
X69420Y-42609D02*
X69420Y-42871D01*
X69251Y-42609D02*
X69251Y-42815D01*
X69270Y-42853D01*
X69307Y-42871D01*
X69363Y-42871D01*
X69401Y-42853D01*
X69420Y-42834D01*
X69738Y-42665D02*
X69607Y-42665D01*
X69607Y-42871D02*
X69607Y-42478D01*
X69795Y-42478D01*
X74054Y-42754D02*
X74073Y-42773D01*
X74092Y-42829D01*
X74092Y-42867D01*
X74073Y-42923D01*
X74035Y-42960D01*
X73998Y-42979D01*
X73923Y-42998D01*
X73867Y-42998D01*
X73792Y-42979D01*
X73754Y-42960D01*
X73717Y-42923D01*
X73698Y-42867D01*
X73698Y-42829D01*
X73717Y-42773D01*
X73735Y-42754D01*
X73698Y-42623D02*
X73698Y-42379D01*
X73848Y-42510D01*
X73848Y-42454D01*
X73867Y-42417D01*
X73885Y-42398D01*
X73923Y-42379D01*
X74017Y-42379D01*
X74054Y-42398D01*
X74073Y-42417D01*
X74092Y-42454D01*
X74092Y-42567D01*
X74073Y-42604D01*
X74054Y-42623D01*
X73829Y-42042D02*
X74092Y-42042D01*
X73679Y-42135D02*
X73960Y-42229D01*
X73960Y-41986D01*
X72221Y-42923D02*
X72221Y-43148D01*
X72221Y-43035D02*
X71828Y-43035D01*
X71884Y-43073D01*
X71921Y-43110D01*
X71940Y-43148D01*
X71828Y-42679D02*
X71828Y-42642D01*
X71847Y-42604D01*
X71865Y-42585D01*
X71903Y-42567D01*
X71978Y-42548D01*
X72071Y-42548D01*
X72146Y-42567D01*
X72184Y-42585D01*
X72203Y-42604D01*
X72221Y-42642D01*
X72221Y-42679D01*
X72203Y-42717D01*
X72184Y-42735D01*
X72146Y-42754D01*
X72071Y-42773D01*
X71978Y-42773D01*
X71903Y-42754D01*
X71865Y-42735D01*
X71847Y-42717D01*
X71828Y-42679D01*
X71959Y-42210D02*
X72221Y-42210D01*
X71959Y-42379D02*
X72165Y-42379D01*
X72203Y-42360D01*
X72221Y-42323D01*
X72221Y-42267D01*
X72203Y-42229D01*
X72184Y-42210D01*
X72015Y-41892D02*
X72015Y-42023D01*
X72221Y-42023D02*
X71828Y-42023D01*
X71828Y-41836D01*
X75154Y-42754D02*
X75173Y-42773D01*
X75192Y-42829D01*
X75192Y-42867D01*
X75173Y-42923D01*
X75135Y-42960D01*
X75098Y-42979D01*
X75023Y-42998D01*
X74967Y-42998D01*
X74892Y-42979D01*
X74854Y-42960D01*
X74817Y-42923D01*
X74798Y-42867D01*
X74798Y-42829D01*
X74817Y-42773D01*
X74835Y-42754D01*
X74798Y-42623D02*
X74798Y-42379D01*
X74948Y-42510D01*
X74948Y-42454D01*
X74967Y-42417D01*
X74985Y-42398D01*
X75023Y-42379D01*
X75117Y-42379D01*
X75154Y-42398D01*
X75173Y-42417D01*
X75192Y-42454D01*
X75192Y-42567D01*
X75173Y-42604D01*
X75154Y-42623D01*
X74967Y-42154D02*
X74948Y-42192D01*
X74929Y-42210D01*
X74892Y-42229D01*
X74873Y-42229D01*
X74835Y-42210D01*
X74817Y-42192D01*
X74798Y-42154D01*
X74798Y-42079D01*
X74817Y-42042D01*
X74835Y-42023D01*
X74873Y-42004D01*
X74892Y-42004D01*
X74929Y-42023D01*
X74948Y-42042D01*
X74967Y-42079D01*
X74967Y-42154D01*
X74985Y-42192D01*
X75004Y-42210D01*
X75042Y-42229D01*
X75117Y-42229D01*
X75154Y-42210D01*
X75173Y-42192D01*
X75192Y-42154D01*
X75192Y-42079D01*
X75173Y-42042D01*
X75154Y-42023D01*
X75117Y-42004D01*
X75042Y-42004D01*
X75004Y-42023D01*
X74985Y-42042D01*
X74967Y-42079D01*
X73321Y-42923D02*
X73321Y-43148D01*
X73321Y-43035D02*
X72928Y-43035D01*
X72984Y-43073D01*
X73021Y-43110D01*
X73040Y-43148D01*
X72928Y-42679D02*
X72928Y-42642D01*
X72947Y-42604D01*
X72965Y-42585D01*
X73003Y-42567D01*
X73078Y-42548D01*
X73171Y-42548D01*
X73246Y-42567D01*
X73284Y-42585D01*
X73303Y-42604D01*
X73321Y-42642D01*
X73321Y-42679D01*
X73303Y-42717D01*
X73284Y-42735D01*
X73246Y-42754D01*
X73171Y-42773D01*
X73078Y-42773D01*
X73003Y-42754D01*
X72965Y-42735D01*
X72947Y-42717D01*
X72928Y-42679D01*
X73059Y-42210D02*
X73321Y-42210D01*
X73059Y-42379D02*
X73265Y-42379D01*
X73303Y-42360D01*
X73321Y-42323D01*
X73321Y-42267D01*
X73303Y-42229D01*
X73284Y-42210D01*
X73115Y-41892D02*
X73115Y-42023D01*
X73321Y-42023D02*
X72928Y-42023D01*
X72928Y-41836D01*
X68945Y-46404D02*
X68926Y-46423D01*
X68870Y-46442D01*
X68832Y-46442D01*
X68776Y-46423D01*
X68739Y-46385D01*
X68720Y-46348D01*
X68701Y-46273D01*
X68701Y-46217D01*
X68720Y-46142D01*
X68739Y-46104D01*
X68776Y-46067D01*
X68832Y-46048D01*
X68870Y-46048D01*
X68926Y-46067D01*
X68945Y-46085D01*
X69095Y-46085D02*
X69114Y-46067D01*
X69151Y-46048D01*
X69245Y-46048D01*
X69282Y-46067D01*
X69301Y-46085D01*
X69320Y-46123D01*
X69320Y-46160D01*
X69301Y-46217D01*
X69076Y-46442D01*
X69320Y-46442D01*
X69451Y-46048D02*
X69713Y-46048D01*
X69545Y-46442D01*
X68364Y-44178D02*
X68401Y-44178D01*
X68439Y-44197D01*
X68457Y-44215D01*
X68476Y-44253D01*
X68495Y-44328D01*
X68495Y-44421D01*
X68476Y-44496D01*
X68457Y-44534D01*
X68439Y-44553D01*
X68401Y-44571D01*
X68364Y-44571D01*
X68326Y-44553D01*
X68307Y-44534D01*
X68289Y-44496D01*
X68270Y-44421D01*
X68270Y-44328D01*
X68289Y-44253D01*
X68307Y-44215D01*
X68326Y-44197D01*
X68364Y-44178D01*
X68664Y-44534D02*
X68682Y-44553D01*
X68664Y-44571D01*
X68645Y-44553D01*
X68664Y-44534D01*
X68664Y-44571D01*
X68926Y-44178D02*
X68964Y-44178D01*
X69001Y-44197D01*
X69020Y-44215D01*
X69039Y-44253D01*
X69057Y-44328D01*
X69057Y-44421D01*
X69039Y-44496D01*
X69020Y-44534D01*
X69001Y-44553D01*
X68964Y-44571D01*
X68926Y-44571D01*
X68889Y-44553D01*
X68870Y-44534D01*
X68851Y-44496D01*
X68832Y-44421D01*
X68832Y-44328D01*
X68851Y-44253D01*
X68870Y-44215D01*
X68889Y-44197D01*
X68926Y-44178D01*
X69432Y-44571D02*
X69207Y-44571D01*
X69320Y-44571D02*
X69320Y-44178D01*
X69282Y-44234D01*
X69245Y-44271D01*
X69207Y-44290D01*
X69770Y-44309D02*
X69770Y-44571D01*
X69601Y-44309D02*
X69601Y-44515D01*
X69620Y-44553D01*
X69657Y-44571D01*
X69713Y-44571D01*
X69751Y-44553D01*
X69770Y-44534D01*
X70088Y-44365D02*
X69957Y-44365D01*
X69957Y-44571D02*
X69957Y-44178D01*
X70145Y-44178D01*
X68645Y-50004D02*
X68626Y-50023D01*
X68570Y-50042D01*
X68532Y-50042D01*
X68476Y-50023D01*
X68439Y-49985D01*
X68420Y-49948D01*
X68401Y-49873D01*
X68401Y-49817D01*
X68420Y-49742D01*
X68439Y-49704D01*
X68476Y-49667D01*
X68532Y-49648D01*
X68570Y-49648D01*
X68626Y-49667D01*
X68645Y-49685D01*
X68776Y-49648D02*
X69020Y-49648D01*
X68889Y-49798D01*
X68945Y-49798D01*
X68982Y-49817D01*
X69001Y-49835D01*
X69020Y-49873D01*
X69020Y-49967D01*
X69001Y-50004D01*
X68982Y-50023D01*
X68945Y-50042D01*
X68832Y-50042D01*
X68795Y-50023D01*
X68776Y-50004D01*
X69395Y-50042D02*
X69170Y-50042D01*
X69282Y-50042D02*
X69282Y-49648D01*
X69245Y-49704D01*
X69207Y-49742D01*
X69170Y-49760D01*
X68064Y-47778D02*
X68101Y-47778D01*
X68139Y-47797D01*
X68157Y-47815D01*
X68176Y-47853D01*
X68195Y-47928D01*
X68195Y-48021D01*
X68176Y-48096D01*
X68157Y-48134D01*
X68139Y-48153D01*
X68101Y-48171D01*
X68064Y-48171D01*
X68026Y-48153D01*
X68007Y-48134D01*
X67989Y-48096D01*
X67970Y-48021D01*
X67970Y-47928D01*
X67989Y-47853D01*
X68007Y-47815D01*
X68026Y-47797D01*
X68064Y-47778D01*
X68364Y-48134D02*
X68382Y-48153D01*
X68364Y-48171D01*
X68345Y-48153D01*
X68364Y-48134D01*
X68364Y-48171D01*
X68626Y-47778D02*
X68664Y-47778D01*
X68701Y-47797D01*
X68720Y-47815D01*
X68739Y-47853D01*
X68757Y-47928D01*
X68757Y-48021D01*
X68739Y-48096D01*
X68720Y-48134D01*
X68701Y-48153D01*
X68664Y-48171D01*
X68626Y-48171D01*
X68589Y-48153D01*
X68570Y-48134D01*
X68551Y-48096D01*
X68532Y-48021D01*
X68532Y-47928D01*
X68551Y-47853D01*
X68570Y-47815D01*
X68589Y-47797D01*
X68626Y-47778D01*
X69132Y-48171D02*
X68907Y-48171D01*
X69020Y-48171D02*
X69020Y-47778D01*
X68982Y-47834D01*
X68945Y-47871D01*
X68907Y-47890D01*
X69470Y-47909D02*
X69470Y-48171D01*
X69301Y-47909D02*
X69301Y-48115D01*
X69320Y-48153D01*
X69357Y-48171D01*
X69413Y-48171D01*
X69451Y-48153D01*
X69470Y-48134D01*
X69788Y-47965D02*
X69657Y-47965D01*
X69657Y-48171D02*
X69657Y-47778D01*
X69845Y-47778D01*
X71559Y-48134D02*
X71371Y-48265D01*
X71559Y-48359D02*
X71165Y-48359D01*
X71165Y-48209D01*
X71184Y-48171D01*
X71203Y-48153D01*
X71240Y-48134D01*
X71296Y-48134D01*
X71334Y-48153D01*
X71353Y-48171D01*
X71371Y-48209D01*
X71371Y-48359D01*
X71165Y-48021D02*
X71559Y-47890D01*
X71165Y-47759D01*
X71165Y-47665D02*
X71165Y-47421D01*
X71315Y-47553D01*
X71315Y-47496D01*
X71334Y-47459D01*
X71353Y-47440D01*
X71390Y-47421D01*
X71484Y-47421D01*
X71521Y-47440D01*
X71540Y-47459D01*
X71559Y-47496D01*
X71559Y-47609D01*
X71540Y-47646D01*
X71521Y-47665D01*
X70609Y-47034D02*
X70609Y-47259D01*
X70609Y-47146D02*
X70215Y-47146D01*
X70271Y-47184D01*
X70309Y-47221D01*
X70328Y-47259D01*
X70215Y-46790D02*
X70215Y-46753D01*
X70234Y-46715D01*
X70253Y-46696D01*
X70290Y-46678D01*
X70365Y-46659D01*
X70459Y-46659D01*
X70534Y-46678D01*
X70571Y-46696D01*
X70590Y-46715D01*
X70609Y-46753D01*
X70609Y-46790D01*
X70590Y-46828D01*
X70571Y-46846D01*
X70534Y-46865D01*
X70459Y-46884D01*
X70365Y-46884D01*
X70290Y-46865D01*
X70253Y-46846D01*
X70234Y-46828D01*
X70215Y-46790D01*
X70609Y-46490D02*
X70215Y-46490D01*
X70459Y-46453D02*
X70609Y-46340D01*
X70346Y-46340D02*
X70496Y-46490D01*
X71509Y-37534D02*
X71321Y-37665D01*
X71509Y-37759D02*
X71115Y-37759D01*
X71115Y-37609D01*
X71134Y-37571D01*
X71153Y-37553D01*
X71190Y-37534D01*
X71246Y-37534D01*
X71284Y-37553D01*
X71303Y-37571D01*
X71321Y-37609D01*
X71321Y-37759D01*
X71115Y-37421D02*
X71509Y-37290D01*
X71115Y-37159D01*
X71509Y-36821D02*
X71509Y-37046D01*
X71509Y-36934D02*
X71115Y-36934D01*
X71171Y-36971D01*
X71209Y-37009D01*
X71228Y-37046D01*
X70559Y-36434D02*
X70559Y-36659D01*
X70559Y-36546D02*
X70165Y-36546D01*
X70221Y-36584D01*
X70259Y-36621D01*
X70278Y-36659D01*
X70165Y-36190D02*
X70165Y-36153D01*
X70184Y-36115D01*
X70203Y-36096D01*
X70240Y-36078D01*
X70315Y-36059D01*
X70409Y-36059D01*
X70484Y-36078D01*
X70521Y-36096D01*
X70540Y-36115D01*
X70559Y-36153D01*
X70559Y-36190D01*
X70540Y-36228D01*
X70521Y-36246D01*
X70484Y-36265D01*
X70409Y-36284D01*
X70315Y-36284D01*
X70240Y-36265D01*
X70203Y-36246D01*
X70184Y-36228D01*
X70165Y-36190D01*
X70559Y-35890D02*
X70165Y-35890D01*
X70409Y-35853D02*
X70559Y-35740D01*
X70296Y-35740D02*
X70446Y-35890D01*
X71559Y-53434D02*
X71371Y-53565D01*
X71559Y-53659D02*
X71165Y-53659D01*
X71165Y-53509D01*
X71184Y-53471D01*
X71203Y-53453D01*
X71240Y-53434D01*
X71296Y-53434D01*
X71334Y-53453D01*
X71353Y-53471D01*
X71371Y-53509D01*
X71371Y-53659D01*
X71165Y-53321D02*
X71559Y-53190D01*
X71165Y-53059D01*
X71296Y-52759D02*
X71559Y-52759D01*
X71146Y-52853D02*
X71428Y-52946D01*
X71428Y-52703D01*
X70609Y-52334D02*
X70609Y-52559D01*
X70609Y-52446D02*
X70215Y-52446D01*
X70271Y-52484D01*
X70309Y-52521D01*
X70328Y-52559D01*
X70215Y-52090D02*
X70215Y-52053D01*
X70234Y-52015D01*
X70253Y-51996D01*
X70290Y-51978D01*
X70365Y-51959D01*
X70459Y-51959D01*
X70534Y-51978D01*
X70571Y-51996D01*
X70590Y-52015D01*
X70609Y-52053D01*
X70609Y-52090D01*
X70590Y-52128D01*
X70571Y-52146D01*
X70534Y-52165D01*
X70459Y-52184D01*
X70365Y-52184D01*
X70290Y-52165D01*
X70253Y-52146D01*
X70234Y-52128D01*
X70215Y-52090D01*
X70609Y-51790D02*
X70215Y-51790D01*
X70459Y-51753D02*
X70609Y-51640D01*
X70346Y-51640D02*
X70496Y-51790D01*
X71509Y-42834D02*
X71321Y-42965D01*
X71509Y-43059D02*
X71115Y-43059D01*
X71115Y-42909D01*
X71134Y-42871D01*
X71153Y-42853D01*
X71190Y-42834D01*
X71246Y-42834D01*
X71284Y-42853D01*
X71303Y-42871D01*
X71321Y-42909D01*
X71321Y-43059D01*
X71115Y-42721D02*
X71509Y-42590D01*
X71115Y-42459D01*
X71153Y-42346D02*
X71134Y-42328D01*
X71115Y-42290D01*
X71115Y-42196D01*
X71134Y-42159D01*
X71153Y-42140D01*
X71190Y-42121D01*
X71228Y-42121D01*
X71284Y-42140D01*
X71509Y-42365D01*
X71509Y-42121D01*
X70559Y-41734D02*
X70559Y-41959D01*
X70559Y-41846D02*
X70165Y-41846D01*
X70221Y-41884D01*
X70259Y-41921D01*
X70278Y-41959D01*
X70165Y-41490D02*
X70165Y-41453D01*
X70184Y-41415D01*
X70203Y-41396D01*
X70240Y-41378D01*
X70315Y-41359D01*
X70409Y-41359D01*
X70484Y-41378D01*
X70521Y-41396D01*
X70540Y-41415D01*
X70559Y-41453D01*
X70559Y-41490D01*
X70540Y-41528D01*
X70521Y-41546D01*
X70484Y-41565D01*
X70409Y-41584D01*
X70315Y-41584D01*
X70240Y-41565D01*
X70203Y-41546D01*
X70184Y-41528D01*
X70165Y-41490D01*
X70559Y-41190D02*
X70165Y-41190D01*
X70409Y-41153D02*
X70559Y-41040D01*
X70296Y-41040D02*
X70446Y-41190D01*
G54D11*
X73309Y-32961D02*
X73080Y-32961D01*
X73195Y-32961D02*
X73195Y-32561D01*
X73157Y-32619D01*
X73119Y-32657D01*
X73080Y-32676D01*
X73480Y-32961D02*
X73480Y-32561D01*
X73633Y-32561D01*
X73671Y-32580D01*
X73690Y-32600D01*
X73709Y-32638D01*
X73709Y-32695D01*
X73690Y-32733D01*
X73671Y-32752D01*
X73633Y-32771D01*
X73480Y-32771D01*
X73880Y-32961D02*
X73880Y-32561D01*
X74071Y-32961D02*
X74071Y-32561D01*
X74300Y-32961D01*
X74300Y-32561D01*
X73309Y-49761D02*
X73080Y-49761D01*
X73195Y-49761D02*
X73195Y-49361D01*
X73157Y-49419D01*
X73119Y-49457D01*
X73080Y-49476D01*
X73480Y-49761D02*
X73480Y-49361D01*
X73633Y-49361D01*
X73671Y-49380D01*
X73690Y-49400D01*
X73709Y-49438D01*
X73709Y-49495D01*
X73690Y-49533D01*
X73671Y-49552D01*
X73633Y-49571D01*
X73480Y-49571D01*
X73880Y-49761D02*
X73880Y-49361D01*
X74071Y-49761D02*
X74071Y-49361D01*
X74300Y-49761D01*
X74300Y-49361D01*
X56809Y-28961D02*
X56580Y-28961D01*
X56695Y-28961D02*
X56695Y-28561D01*
X56657Y-28619D01*
X56619Y-28657D01*
X56580Y-28676D01*
X56980Y-28961D02*
X56980Y-28561D01*
X57133Y-28561D01*
X57171Y-28580D01*
X57190Y-28600D01*
X57209Y-28638D01*
X57209Y-28695D01*
X57190Y-28733D01*
X57171Y-28752D01*
X57133Y-28771D01*
X56980Y-28771D01*
X57380Y-28961D02*
X57380Y-28561D01*
X57571Y-28961D02*
X57571Y-28561D01*
X57800Y-28961D01*
X57800Y-28561D01*
X44209Y-52061D02*
X43980Y-52061D01*
X44095Y-52061D02*
X44095Y-51661D01*
X44057Y-51719D01*
X44019Y-51757D01*
X43980Y-51776D01*
X44380Y-52061D02*
X44380Y-51661D01*
X44533Y-51661D01*
X44571Y-51680D01*
X44590Y-51700D01*
X44609Y-51738D01*
X44609Y-51795D01*
X44590Y-51833D01*
X44571Y-51852D01*
X44533Y-51871D01*
X44380Y-51871D01*
X44780Y-52061D02*
X44780Y-51661D01*
X44971Y-52061D02*
X44971Y-51661D01*
X45200Y-52061D01*
X45200Y-51661D01*
M02*
