G04 (created by PCBNEW (2013-may-18)-stable) date 2014年05月08日 星期四 20时23分29秒*
%MOIN*%
G04 Gerber Fmt 3.4, Leading zero omitted, Abs format*
%FSLAX34Y34*%
G01*
G70*
G90*
G04 APERTURE LIST*
%ADD10C,0.00590551*%
%ADD11C,0.0693*%
%ADD12R,0.137795X0.401575*%
%ADD13R,0.055X0.055*%
%ADD14C,0.055*%
%ADD15R,0.2X0.06*%
%ADD16R,0.015X0.05*%
%ADD17R,0.0787402X0.0629921*%
%ADD18C,0.11811*%
%ADD19R,0.0512X0.059*%
%ADD20R,0.059X0.0512*%
%ADD21R,0.0787402X0.0433071*%
%ADD22R,0.0433071X0.0787402*%
%ADD23R,0.11X0.05*%
%ADD24C,0.035*%
%ADD25C,0.04*%
%ADD26C,0.01*%
%ADD27C,0.02*%
%ADD28C,0.005*%
G04 APERTURE END LIST*
G54D10*
G54D11*
X72400Y-30500D03*
X72400Y-31500D03*
X71400Y-30500D03*
X71400Y-31500D03*
X70400Y-30500D03*
X70400Y-31500D03*
X69400Y-30500D03*
X69400Y-31500D03*
X68400Y-30500D03*
X68400Y-31500D03*
G54D10*
G36*
X58793Y-36743D02*
X58793Y-38554D01*
X58006Y-38554D01*
X58006Y-36743D01*
X58793Y-36743D01*
X58793Y-36743D01*
G37*
G36*
X58793Y-34145D02*
X58793Y-35956D01*
X58006Y-35956D01*
X58006Y-34145D01*
X58793Y-34145D01*
X58793Y-34145D01*
G37*
G36*
X58793Y-52643D02*
X58793Y-54454D01*
X58006Y-54454D01*
X58006Y-52643D01*
X58793Y-52643D01*
X58793Y-52643D01*
G37*
G36*
X58793Y-50045D02*
X58793Y-51856D01*
X58006Y-51856D01*
X58006Y-50045D01*
X58793Y-50045D01*
X58793Y-50045D01*
G37*
G36*
X58793Y-42043D02*
X58793Y-43854D01*
X58006Y-43854D01*
X58006Y-42043D01*
X58793Y-42043D01*
X58793Y-42043D01*
G37*
G36*
X58793Y-39445D02*
X58793Y-41256D01*
X58006Y-41256D01*
X58006Y-39445D01*
X58793Y-39445D01*
X58793Y-39445D01*
G37*
G36*
X58793Y-47343D02*
X58793Y-49154D01*
X58006Y-49154D01*
X58006Y-47343D01*
X58793Y-47343D01*
X58793Y-47343D01*
G37*
G36*
X58793Y-44745D02*
X58793Y-46556D01*
X58006Y-46556D01*
X58006Y-44745D01*
X58793Y-44745D01*
X58793Y-44745D01*
G37*
G36*
X53293Y-30806D02*
X55104Y-30806D01*
X55104Y-31593D01*
X53293Y-31593D01*
X53293Y-30806D01*
X53293Y-30806D01*
G37*
G36*
X50695Y-30806D02*
X52506Y-30806D01*
X52506Y-31593D01*
X50695Y-31593D01*
X50695Y-30806D01*
X50695Y-30806D01*
G37*
G36*
X65706Y-36306D02*
X65706Y-34495D01*
X66493Y-34495D01*
X66493Y-36306D01*
X65706Y-36306D01*
X65706Y-36306D01*
G37*
G36*
X65706Y-38904D02*
X65706Y-37093D01*
X66493Y-37093D01*
X66493Y-38904D01*
X65706Y-38904D01*
X65706Y-38904D01*
G37*
G36*
X66493Y-47693D02*
X66493Y-49504D01*
X65706Y-49504D01*
X65706Y-47693D01*
X66493Y-47693D01*
X66493Y-47693D01*
G37*
G36*
X66493Y-45095D02*
X66493Y-46906D01*
X65706Y-46906D01*
X65706Y-45095D01*
X66493Y-45095D01*
X66493Y-45095D01*
G37*
G36*
X65706Y-41606D02*
X65706Y-39795D01*
X66493Y-39795D01*
X66493Y-41606D01*
X65706Y-41606D01*
X65706Y-41606D01*
G37*
G36*
X65706Y-44204D02*
X65706Y-42393D01*
X66493Y-42393D01*
X66493Y-44204D01*
X65706Y-44204D01*
X65706Y-44204D01*
G37*
G36*
X66493Y-52993D02*
X66493Y-54804D01*
X65706Y-54804D01*
X65706Y-52993D01*
X66493Y-52993D01*
X66493Y-52993D01*
G37*
G36*
X66493Y-50395D02*
X66493Y-52206D01*
X65706Y-52206D01*
X65706Y-50395D01*
X66493Y-50395D01*
X66493Y-50395D01*
G37*
G54D12*
X60900Y-52250D03*
X63499Y-52250D03*
X60900Y-41650D03*
X63499Y-41650D03*
X60900Y-46950D03*
X63499Y-46950D03*
X60900Y-31600D03*
X63499Y-31600D03*
X60900Y-36350D03*
X63499Y-36350D03*
G54D13*
X37400Y-53950D03*
G54D14*
X37400Y-52950D03*
X37400Y-51950D03*
G54D15*
X49700Y-45450D03*
X49700Y-46450D03*
X49700Y-48450D03*
X54700Y-48450D03*
X54700Y-45450D03*
X49700Y-34850D03*
X49700Y-35850D03*
X49700Y-37850D03*
X54700Y-37850D03*
X54700Y-34850D03*
X49700Y-50750D03*
X49700Y-51750D03*
X49700Y-53750D03*
X54700Y-53750D03*
X54700Y-50750D03*
X49700Y-40150D03*
X49700Y-41150D03*
X49700Y-43150D03*
X54700Y-43150D03*
X54700Y-40150D03*
G54D16*
X68216Y-47850D03*
X68472Y-47850D03*
X68728Y-47850D03*
X68984Y-47850D03*
X68984Y-46150D03*
X68728Y-46150D03*
X68472Y-46150D03*
X68216Y-46150D03*
G54D17*
X68600Y-47000D03*
G54D16*
X68166Y-42550D03*
X68422Y-42550D03*
X68678Y-42550D03*
X68934Y-42550D03*
X68934Y-40850D03*
X68678Y-40850D03*
X68422Y-40850D03*
X68166Y-40850D03*
G54D17*
X68550Y-41700D03*
G54D16*
X68216Y-53150D03*
X68472Y-53150D03*
X68728Y-53150D03*
X68984Y-53150D03*
X68984Y-51450D03*
X68728Y-51450D03*
X68472Y-51450D03*
X68216Y-51450D03*
G54D17*
X68600Y-52300D03*
G54D16*
X68166Y-37250D03*
X68422Y-37250D03*
X68678Y-37250D03*
X68934Y-37250D03*
X68934Y-35550D03*
X68678Y-35550D03*
X68422Y-35550D03*
X68166Y-35550D03*
G54D17*
X68550Y-36400D03*
G54D18*
X48462Y-49592D03*
X41572Y-49592D03*
X45509Y-31088D03*
X37635Y-31088D03*
G54D19*
X48775Y-30200D03*
X49525Y-30200D03*
X52325Y-33350D03*
X53075Y-33350D03*
X48775Y-32200D03*
X49525Y-32200D03*
X65025Y-30600D03*
X65775Y-30600D03*
G54D20*
X55900Y-31075D03*
X55900Y-31825D03*
X56300Y-46025D03*
X56300Y-45275D03*
X56300Y-47875D03*
X56300Y-48625D03*
X56300Y-37275D03*
X56300Y-38025D03*
X56300Y-40725D03*
X56300Y-39975D03*
X56300Y-42575D03*
X56300Y-43325D03*
X56300Y-53175D03*
X56300Y-53925D03*
X56300Y-51325D03*
X56300Y-50575D03*
X56300Y-35425D03*
X56300Y-34675D03*
G54D21*
X73950Y-53770D03*
X73950Y-52629D03*
X72850Y-48470D03*
X72850Y-47329D03*
X73950Y-48470D03*
X73950Y-47329D03*
G54D22*
X68529Y-50500D03*
X69670Y-50500D03*
X68229Y-54100D03*
X69370Y-54100D03*
G54D21*
X72850Y-53770D03*
X72850Y-52629D03*
X47150Y-31129D03*
X47150Y-32270D03*
G54D22*
X68479Y-39900D03*
X69620Y-39900D03*
G54D21*
X72850Y-37870D03*
X72850Y-36729D03*
X55350Y-52820D03*
X55350Y-51679D03*
G54D22*
X48879Y-44300D03*
X50020Y-44300D03*
G54D21*
X55350Y-42220D03*
X55350Y-41079D03*
G54D10*
G36*
X47321Y-49435D02*
X46764Y-48878D01*
X47071Y-48572D01*
X47627Y-49128D01*
X47321Y-49435D01*
X47321Y-49435D01*
G37*
G36*
X48128Y-48627D02*
X47572Y-48071D01*
X47878Y-47764D01*
X48435Y-48321D01*
X48128Y-48627D01*
X48128Y-48627D01*
G37*
G54D21*
X55350Y-47520D03*
X55350Y-46379D03*
X55350Y-36920D03*
X55350Y-35779D03*
G54D22*
X48879Y-39000D03*
X50020Y-39000D03*
X55720Y-33200D03*
X54579Y-33200D03*
X68479Y-34600D03*
X69620Y-34600D03*
X68179Y-38200D03*
X69320Y-38200D03*
G54D21*
X73950Y-37870D03*
X73950Y-36729D03*
G54D22*
X46329Y-33700D03*
X47470Y-33700D03*
G54D10*
G36*
X46414Y-52971D02*
X46971Y-52414D01*
X47277Y-52721D01*
X46721Y-53277D01*
X46414Y-52971D01*
X46414Y-52971D01*
G37*
G36*
X47222Y-53778D02*
X47778Y-53222D01*
X48085Y-53528D01*
X47528Y-54085D01*
X47222Y-53778D01*
X47222Y-53778D01*
G37*
G54D22*
X68179Y-43500D03*
X69320Y-43500D03*
G54D21*
X72850Y-43170D03*
X72850Y-42029D03*
X73950Y-43170D03*
X73950Y-42029D03*
G54D22*
X68529Y-45200D03*
X69670Y-45200D03*
X68229Y-48800D03*
X69370Y-48800D03*
G54D23*
X69900Y-47900D03*
X71750Y-48900D03*
X71750Y-46900D03*
X69850Y-37300D03*
X71700Y-38300D03*
X71700Y-36300D03*
X69900Y-53200D03*
X71750Y-54200D03*
X71750Y-52200D03*
X69850Y-42600D03*
X71700Y-43600D03*
X71700Y-41600D03*
G54D24*
X70800Y-37300D03*
X71400Y-42300D03*
X73400Y-53200D03*
X72000Y-47600D03*
X67400Y-54700D03*
X66400Y-33800D03*
X71800Y-53000D03*
X73200Y-52000D03*
X73600Y-49200D03*
X73600Y-46600D03*
X73600Y-44000D03*
X73600Y-41100D03*
X73600Y-38600D03*
X73300Y-35800D03*
X71900Y-34400D03*
X71900Y-35600D03*
X70600Y-35200D03*
X70200Y-33800D03*
X51100Y-40900D03*
X51100Y-46100D03*
X51100Y-51500D03*
X51000Y-36100D03*
G54D25*
X73950Y-37870D02*
X73950Y-37650D01*
X73600Y-37300D02*
X70800Y-37300D01*
X73950Y-37650D02*
X73600Y-37300D01*
G54D26*
X68166Y-37250D02*
X68166Y-38186D01*
X68166Y-38186D02*
X68179Y-38200D01*
G54D27*
X68179Y-38200D02*
X68350Y-38200D01*
X71200Y-38800D02*
X71700Y-38300D01*
X68950Y-38800D02*
X71200Y-38800D01*
X68350Y-38200D02*
X68950Y-38800D01*
G54D25*
X72850Y-37870D02*
X73950Y-37870D01*
X71700Y-38300D02*
X72420Y-38300D01*
X72420Y-38300D02*
X72850Y-37870D01*
X58400Y-37649D02*
X59601Y-37649D01*
X59601Y-37649D02*
X60900Y-36350D01*
X56300Y-38025D02*
X58024Y-38025D01*
X58024Y-38025D02*
X58400Y-37649D01*
X73950Y-42950D02*
X73950Y-43170D01*
X73600Y-42600D02*
X73950Y-42950D01*
X71700Y-42600D02*
X73600Y-42600D01*
X71400Y-42300D02*
X71700Y-42600D01*
X72420Y-43600D02*
X72850Y-43170D01*
X71700Y-43600D02*
X72420Y-43600D01*
X72850Y-43170D02*
X73950Y-43170D01*
G54D27*
X68350Y-43500D02*
X68950Y-44100D01*
X68950Y-44100D02*
X71200Y-44100D01*
X71200Y-44100D02*
X71700Y-43600D01*
X68179Y-43500D02*
X68350Y-43500D01*
G54D26*
X68166Y-43486D02*
X68179Y-43500D01*
X68166Y-42550D02*
X68166Y-43486D01*
G54D25*
X58400Y-42949D02*
X59601Y-42949D01*
X59601Y-42949D02*
X60900Y-41650D01*
X56300Y-43325D02*
X58024Y-43325D01*
X58024Y-43325D02*
X58400Y-42949D01*
X73950Y-53750D02*
X73950Y-53770D01*
X73400Y-53200D02*
X73950Y-53750D01*
G54D26*
X68216Y-53150D02*
X68216Y-54086D01*
X68216Y-54086D02*
X68229Y-54100D01*
G54D27*
X68229Y-54100D02*
X68400Y-54100D01*
X71250Y-54700D02*
X71750Y-54200D01*
X69000Y-54700D02*
X71250Y-54700D01*
X68400Y-54100D02*
X69000Y-54700D01*
G54D25*
X72900Y-53770D02*
X74000Y-53770D01*
X71750Y-54200D02*
X72470Y-54200D01*
X72470Y-54200D02*
X72900Y-53770D01*
X58400Y-50950D02*
X59601Y-50950D01*
X59601Y-50950D02*
X60900Y-52250D01*
X56300Y-50575D02*
X58024Y-50575D01*
X58024Y-50575D02*
X58400Y-50950D01*
X73950Y-48250D02*
X73950Y-48470D01*
X73600Y-47900D02*
X73950Y-48250D01*
X72300Y-47900D02*
X73600Y-47900D01*
X72000Y-47600D02*
X72300Y-47900D01*
X72470Y-48900D02*
X72900Y-48470D01*
X71750Y-48900D02*
X72470Y-48900D01*
X72900Y-48470D02*
X74000Y-48470D01*
G54D27*
X68400Y-48800D02*
X69000Y-49400D01*
X69000Y-49400D02*
X71250Y-49400D01*
X71250Y-49400D02*
X71750Y-48900D01*
X68229Y-48800D02*
X68400Y-48800D01*
G54D26*
X68216Y-48786D02*
X68229Y-48800D01*
X68216Y-47850D02*
X68216Y-48786D01*
G54D25*
X58400Y-45650D02*
X59601Y-45650D01*
X59601Y-45650D02*
X60900Y-46950D01*
X56300Y-45275D02*
X58024Y-45275D01*
X58024Y-45275D02*
X58400Y-45650D01*
X60100Y-54600D02*
X38050Y-54600D01*
X38050Y-54600D02*
X37400Y-53950D01*
X61900Y-34000D02*
X59450Y-34000D01*
X59450Y-34000D02*
X58400Y-35050D01*
X61900Y-39000D02*
X59750Y-39000D01*
X59750Y-39000D02*
X58400Y-40350D01*
X61900Y-49600D02*
X59750Y-49600D01*
X59750Y-49600D02*
X58400Y-48249D01*
X58400Y-53549D02*
X59049Y-53549D01*
X61900Y-32599D02*
X60900Y-31600D01*
X61900Y-54400D02*
X61900Y-49600D01*
X61900Y-49600D02*
X61900Y-39000D01*
X61900Y-39000D02*
X61900Y-34000D01*
X61900Y-34000D02*
X61900Y-32599D01*
X61700Y-54600D02*
X61900Y-54400D01*
X60100Y-54600D02*
X61700Y-54600D01*
X59049Y-53549D02*
X60100Y-54600D01*
X56300Y-48625D02*
X58024Y-48625D01*
X58024Y-48625D02*
X58400Y-48249D01*
X56300Y-39975D02*
X58024Y-39975D01*
X58024Y-39975D02*
X58400Y-40350D01*
X56300Y-53925D02*
X58024Y-53925D01*
X58024Y-53925D02*
X58400Y-53549D01*
X56300Y-34675D02*
X58024Y-34675D01*
X58024Y-34675D02*
X58400Y-35050D01*
G54D27*
X65255Y-38800D02*
X65255Y-39044D01*
G54D25*
X65299Y-38800D02*
X66100Y-37999D01*
X65255Y-38800D02*
X65299Y-38800D01*
G54D27*
X65255Y-39044D02*
X65000Y-39300D01*
X65000Y-39300D02*
X63100Y-39300D01*
X63100Y-39300D02*
X62600Y-38800D01*
G54D25*
X66599Y-53899D02*
X66100Y-53899D01*
X67400Y-54700D02*
X66599Y-53899D01*
X63499Y-31600D02*
X64200Y-31600D01*
X64200Y-31600D02*
X66400Y-33800D01*
G54D27*
X71700Y-36300D02*
X71700Y-35800D01*
X71750Y-52950D02*
X71750Y-52200D01*
X71800Y-53000D02*
X71750Y-52950D01*
X72500Y-51300D02*
X73200Y-52000D01*
X72500Y-50300D02*
X72500Y-51300D01*
X73600Y-49200D02*
X72500Y-50300D01*
X73600Y-44000D02*
X73600Y-46600D01*
X73600Y-38600D02*
X73600Y-41100D01*
X71900Y-34400D02*
X73300Y-35800D01*
X71700Y-35800D02*
X71900Y-35600D01*
G54D25*
X69620Y-34600D02*
X69620Y-34379D01*
X70600Y-35200D02*
X71700Y-36300D01*
X69620Y-34379D02*
X70200Y-33800D01*
X63499Y-31600D02*
X64025Y-31600D01*
X64025Y-31600D02*
X65025Y-30600D01*
X69300Y-47000D02*
X68600Y-47000D01*
X69670Y-46629D02*
X69300Y-47000D01*
X69670Y-45200D02*
X69670Y-46629D01*
X68984Y-47384D02*
X68600Y-47000D01*
X68984Y-47850D02*
X68984Y-47384D01*
G54D26*
X68728Y-47128D02*
X68600Y-47000D01*
X68728Y-47850D02*
X68728Y-47128D01*
X68728Y-47850D02*
X68984Y-47850D01*
G54D25*
X72470Y-46900D02*
X72900Y-47329D01*
X71750Y-46900D02*
X72470Y-46900D01*
X72900Y-47329D02*
X74000Y-47329D01*
X69400Y-46900D02*
X69300Y-47000D01*
X71750Y-46900D02*
X69400Y-46900D01*
X67749Y-47000D02*
X66150Y-48599D01*
X68600Y-47000D02*
X67749Y-47000D01*
X68600Y-52300D02*
X67749Y-52300D01*
X67749Y-52300D02*
X66150Y-53899D01*
X71750Y-52200D02*
X69400Y-52200D01*
X69400Y-52200D02*
X69300Y-52300D01*
X72900Y-52629D02*
X74000Y-52629D01*
X72470Y-52200D02*
X72900Y-52629D01*
X71750Y-52200D02*
X72470Y-52200D01*
G54D26*
X68728Y-53150D02*
X68984Y-53150D01*
X68728Y-53150D02*
X68728Y-52428D01*
X68728Y-52428D02*
X68600Y-52300D01*
G54D25*
X68984Y-53150D02*
X68984Y-52684D01*
X68984Y-52684D02*
X68600Y-52300D01*
X69670Y-51929D02*
X69300Y-52300D01*
X69300Y-52300D02*
X68600Y-52300D01*
X69670Y-50500D02*
X69670Y-51929D01*
X69620Y-39900D02*
X69620Y-41329D01*
X69250Y-41700D02*
X68550Y-41700D01*
X69620Y-41329D02*
X69250Y-41700D01*
X68934Y-42084D02*
X68550Y-41700D01*
X68934Y-42550D02*
X68934Y-42084D01*
G54D26*
X68678Y-41828D02*
X68550Y-41700D01*
X68678Y-42550D02*
X68678Y-41828D01*
X68678Y-42550D02*
X68934Y-42550D01*
G54D25*
X72420Y-41600D02*
X72850Y-42029D01*
X71700Y-41600D02*
X72420Y-41600D01*
X72850Y-42029D02*
X73950Y-42029D01*
X69350Y-41600D02*
X69250Y-41700D01*
X71700Y-41600D02*
X69350Y-41600D01*
X67699Y-41700D02*
X66100Y-43299D01*
X68550Y-41700D02*
X67699Y-41700D01*
X68550Y-36400D02*
X67699Y-36400D01*
X67699Y-36400D02*
X66100Y-37999D01*
X71700Y-36300D02*
X69350Y-36300D01*
X69350Y-36300D02*
X69250Y-36400D01*
X72850Y-36729D02*
X73950Y-36729D01*
X71700Y-36300D02*
X72420Y-36300D01*
X72420Y-36300D02*
X72850Y-36729D01*
G54D26*
X68678Y-37250D02*
X68934Y-37250D01*
X68678Y-37250D02*
X68678Y-36528D01*
X68678Y-36528D02*
X68550Y-36400D01*
G54D25*
X68934Y-37250D02*
X68934Y-36784D01*
X68934Y-36784D02*
X68550Y-36400D01*
X69620Y-34600D02*
X69620Y-36029D01*
X69620Y-36029D02*
X69250Y-36400D01*
X69250Y-36400D02*
X68550Y-36400D01*
G54D27*
X65255Y-44100D02*
X65255Y-44344D01*
X63100Y-44600D02*
X62600Y-44100D01*
X65000Y-44600D02*
X63100Y-44600D01*
X65255Y-44344D02*
X65000Y-44600D01*
X65255Y-49400D02*
X65255Y-49644D01*
X63100Y-49900D02*
X62600Y-49400D01*
X65000Y-49900D02*
X63100Y-49900D01*
X65255Y-49644D02*
X65000Y-49900D01*
G54D25*
X65255Y-54700D02*
X65299Y-54700D01*
X65299Y-54700D02*
X66100Y-53899D01*
X65255Y-49400D02*
X65299Y-49400D01*
X65299Y-49400D02*
X66100Y-48599D01*
X65255Y-44100D02*
X65299Y-44100D01*
X65299Y-44100D02*
X66100Y-43299D01*
G54D27*
X63499Y-31600D02*
X63499Y-31600D01*
X63499Y-31600D02*
X62600Y-32500D01*
X62600Y-32500D02*
X62600Y-38800D01*
X62600Y-38800D02*
X62600Y-44100D01*
X62600Y-44100D02*
X62600Y-49400D01*
X65255Y-54944D02*
X65255Y-54700D01*
X62600Y-49400D02*
X62600Y-54400D01*
X62600Y-54400D02*
X63300Y-55100D01*
X63300Y-55100D02*
X65100Y-55100D01*
X65100Y-55100D02*
X65255Y-54944D01*
G54D25*
X46329Y-33700D02*
X46329Y-37020D01*
X37400Y-45950D02*
X37400Y-51950D01*
X46329Y-37020D02*
X37400Y-45950D01*
X70400Y-30500D02*
X70400Y-31500D01*
X71400Y-30500D02*
X72400Y-30500D01*
X70400Y-30500D02*
X71400Y-30500D01*
X69400Y-30500D02*
X70400Y-30500D01*
X68400Y-30500D02*
X69400Y-30500D01*
X65775Y-30600D02*
X68300Y-30600D01*
X68300Y-30600D02*
X68400Y-30500D01*
X49700Y-41150D02*
X50850Y-41150D01*
X50850Y-41150D02*
X51100Y-40900D01*
X49700Y-46450D02*
X50750Y-46450D01*
X50750Y-46450D02*
X51100Y-46100D01*
X49700Y-35850D02*
X50750Y-35850D01*
X50850Y-51750D02*
X49700Y-51750D01*
X51100Y-51500D02*
X50850Y-51750D01*
X50750Y-35850D02*
X51000Y-36100D01*
X55720Y-33200D02*
X55720Y-33279D01*
X51850Y-35850D02*
X49700Y-35850D01*
X53500Y-34200D02*
X51850Y-35850D01*
X54800Y-34200D02*
X53500Y-34200D01*
X55720Y-33279D02*
X54800Y-34200D01*
X55900Y-31825D02*
X55900Y-33020D01*
X55900Y-33020D02*
X55720Y-33200D01*
X53075Y-33350D02*
X53075Y-33825D01*
X52050Y-34850D02*
X49700Y-34850D01*
X53075Y-33825D02*
X52050Y-34850D01*
X49700Y-50750D02*
X48942Y-50750D01*
X48942Y-50750D02*
X46846Y-52846D01*
X47196Y-49003D02*
X47196Y-47803D01*
X47200Y-47900D02*
X47200Y-47800D01*
X47200Y-47807D02*
X47200Y-47900D01*
X47196Y-47803D02*
X47200Y-47807D01*
X48879Y-44300D02*
X48700Y-44300D01*
X48200Y-44800D02*
X48200Y-44700D01*
X48700Y-44300D02*
X48200Y-44800D01*
X48879Y-39000D02*
X48700Y-39000D01*
X48200Y-39500D02*
X48200Y-39400D01*
X48700Y-39000D02*
X48200Y-39500D01*
X49700Y-45450D02*
X48750Y-45450D01*
X48750Y-45450D02*
X48200Y-46000D01*
X49700Y-40150D02*
X48750Y-40150D01*
X48750Y-40150D02*
X48200Y-40700D01*
X49700Y-34850D02*
X48750Y-34850D01*
X48750Y-34850D02*
X48200Y-35400D01*
X48200Y-35400D02*
X48200Y-39400D01*
X46200Y-52200D02*
X46846Y-52846D01*
X46200Y-48800D02*
X46200Y-52200D01*
X48200Y-46800D02*
X47200Y-47800D01*
X47200Y-47800D02*
X46200Y-48800D01*
X48200Y-39400D02*
X48200Y-40700D01*
X48200Y-40700D02*
X48200Y-44700D01*
X48200Y-44700D02*
X48200Y-46000D01*
X48200Y-46000D02*
X48200Y-46800D01*
X53075Y-33350D02*
X54429Y-33350D01*
X54429Y-33350D02*
X54579Y-33200D01*
X66100Y-40700D02*
X64448Y-40700D01*
X64448Y-40700D02*
X63499Y-41650D01*
G54D26*
X68150Y-39300D02*
X67549Y-39900D01*
X68750Y-39300D02*
X68150Y-39300D01*
X68934Y-39484D02*
X68750Y-39300D01*
X68934Y-40850D02*
X68934Y-39484D01*
X68166Y-40517D02*
X67549Y-39900D01*
X68166Y-40850D02*
X68166Y-40517D01*
G54D25*
X66749Y-40700D02*
X67549Y-39900D01*
X66100Y-40700D02*
X66749Y-40700D01*
G54D26*
X68728Y-51450D02*
X68728Y-50698D01*
X68728Y-50698D02*
X68529Y-50500D01*
G54D25*
X66100Y-46000D02*
X64448Y-46000D01*
X64448Y-46000D02*
X63499Y-46950D01*
G54D26*
X68200Y-44600D02*
X67599Y-45200D01*
X68800Y-44600D02*
X68200Y-44600D01*
X68984Y-44784D02*
X68800Y-44600D01*
X68984Y-46150D02*
X68984Y-44784D01*
X68216Y-45817D02*
X67599Y-45200D01*
X68216Y-46150D02*
X68216Y-45817D01*
G54D25*
X66799Y-46000D02*
X67599Y-45200D01*
X66150Y-46000D02*
X66799Y-46000D01*
G54D26*
X68422Y-42872D02*
X69050Y-43500D01*
X69050Y-43500D02*
X69320Y-43500D01*
X68422Y-42550D02*
X68422Y-42872D01*
G54D25*
X69320Y-43129D02*
X69850Y-42600D01*
X69320Y-43500D02*
X69320Y-43129D01*
X66100Y-51300D02*
X64448Y-51300D01*
X64448Y-51300D02*
X63499Y-52250D01*
G54D26*
X68984Y-50084D02*
X68800Y-49900D01*
X68800Y-49900D02*
X68200Y-49900D01*
G54D25*
X66150Y-51300D02*
X66799Y-51300D01*
X66799Y-51300D02*
X67599Y-50500D01*
G54D26*
X68216Y-51450D02*
X68216Y-51117D01*
X68216Y-51117D02*
X67599Y-50500D01*
X68984Y-51450D02*
X68984Y-50084D01*
X68200Y-49900D02*
X67599Y-50500D01*
G54D25*
X69370Y-54100D02*
X69370Y-53729D01*
X69370Y-53729D02*
X69900Y-53200D01*
G54D26*
X68472Y-53150D02*
X68472Y-53472D01*
X69100Y-54100D02*
X69370Y-54100D01*
X68472Y-53472D02*
X69100Y-54100D01*
G54D25*
X51600Y-31200D02*
X51600Y-32625D01*
X51600Y-32625D02*
X52325Y-33350D01*
X47470Y-33700D02*
X48400Y-33700D01*
X49525Y-32575D02*
X49525Y-32200D01*
X48400Y-33700D02*
X49525Y-32575D01*
X49525Y-32200D02*
X50600Y-32200D01*
X50600Y-32200D02*
X51600Y-31200D01*
X49525Y-30200D02*
X53199Y-30200D01*
X53199Y-30200D02*
X54199Y-31200D01*
X54199Y-31200D02*
X55775Y-31200D01*
X55775Y-31200D02*
X55900Y-31075D01*
X47150Y-31129D02*
X47845Y-31129D01*
X47845Y-31129D02*
X48775Y-30200D01*
X45509Y-31088D02*
X47109Y-31088D01*
X47109Y-31088D02*
X47150Y-31129D01*
X47150Y-32270D02*
X48704Y-32270D01*
X48704Y-32270D02*
X48775Y-32200D01*
X47150Y-32270D02*
X38817Y-32270D01*
X38817Y-32270D02*
X37635Y-31088D01*
G54D26*
X68678Y-40098D02*
X68479Y-39900D01*
X68678Y-40850D02*
X68678Y-40098D01*
G54D25*
X54700Y-37850D02*
X54700Y-37570D01*
X54700Y-37570D02*
X55350Y-36920D01*
X55350Y-36920D02*
X55945Y-36920D01*
X55945Y-36920D02*
X56300Y-37275D01*
X55350Y-35779D02*
X53720Y-35779D01*
X51650Y-37850D02*
X49700Y-37850D01*
X53720Y-35779D02*
X51650Y-37850D01*
X50020Y-39000D02*
X50020Y-38170D01*
X50020Y-38170D02*
X49700Y-37850D01*
X55350Y-35779D02*
X55945Y-35779D01*
X55945Y-35779D02*
X56300Y-35425D01*
X55350Y-46379D02*
X53720Y-46379D01*
X51650Y-48450D02*
X49700Y-48450D01*
X53720Y-46379D02*
X51650Y-48450D01*
X48003Y-48196D02*
X49446Y-48196D01*
X49446Y-48196D02*
X49700Y-48450D01*
X55350Y-46379D02*
X55945Y-46379D01*
X55945Y-46379D02*
X56300Y-46025D01*
G54D26*
X68472Y-48172D02*
X69100Y-48800D01*
X69100Y-48800D02*
X69370Y-48800D01*
X68472Y-47850D02*
X68472Y-48172D01*
G54D25*
X69370Y-48429D02*
X69900Y-47900D01*
X69370Y-48800D02*
X69370Y-48429D01*
X54700Y-48450D02*
X54700Y-48170D01*
X54700Y-48170D02*
X55350Y-47520D01*
X55350Y-47520D02*
X55945Y-47520D01*
X55945Y-47520D02*
X56300Y-47875D01*
X54700Y-53750D02*
X54700Y-53470D01*
X54700Y-53470D02*
X55350Y-52820D01*
X55350Y-52820D02*
X55945Y-52820D01*
X55945Y-52820D02*
X56300Y-53175D01*
X55350Y-51679D02*
X53720Y-51679D01*
X51650Y-53750D02*
X49700Y-53750D01*
X53720Y-51679D02*
X51650Y-53750D01*
X47653Y-53653D02*
X49603Y-53653D01*
X49603Y-53653D02*
X49700Y-53750D01*
X55350Y-51679D02*
X55945Y-51679D01*
X55945Y-51679D02*
X56300Y-51325D01*
X54700Y-43150D02*
X54700Y-42870D01*
X54700Y-42870D02*
X55350Y-42220D01*
X55350Y-42220D02*
X55945Y-42220D01*
X55945Y-42220D02*
X56300Y-42575D01*
X55350Y-41079D02*
X53720Y-41079D01*
X51650Y-43150D02*
X49700Y-43150D01*
X53720Y-41079D02*
X51650Y-43150D01*
X50020Y-44300D02*
X50020Y-43470D01*
X50020Y-43470D02*
X49700Y-43150D01*
X55350Y-41079D02*
X55945Y-41079D01*
X55945Y-41079D02*
X56300Y-40725D01*
G54D26*
X68728Y-45398D02*
X68529Y-45200D01*
X68728Y-46150D02*
X68728Y-45398D01*
G54D25*
X69320Y-38200D02*
X69320Y-37829D01*
X69320Y-37829D02*
X69850Y-37300D01*
G54D26*
X68422Y-37250D02*
X68422Y-37572D01*
X69050Y-38200D02*
X69320Y-38200D01*
X68422Y-37572D02*
X69050Y-38200D01*
X68678Y-35550D02*
X68678Y-34798D01*
X68678Y-34798D02*
X68479Y-34600D01*
G54D25*
X66100Y-35400D02*
X64448Y-35400D01*
X64448Y-35400D02*
X63499Y-36350D01*
X66100Y-35400D02*
X66749Y-35400D01*
X66749Y-35400D02*
X67549Y-34600D01*
G54D26*
X68166Y-35550D02*
X68166Y-35217D01*
X68166Y-35217D02*
X67549Y-34600D01*
X68934Y-35550D02*
X68934Y-34184D01*
X68934Y-34184D02*
X68750Y-34000D01*
X68750Y-34000D02*
X68150Y-34000D01*
X68150Y-34000D02*
X67549Y-34600D01*
G54D10*
G36*
X62275Y-54889D02*
X62019Y-55145D01*
X61814Y-55145D01*
X61814Y-33563D01*
X61814Y-29636D01*
X61814Y-29547D01*
X61780Y-29464D01*
X61717Y-29401D01*
X61634Y-29367D01*
X61032Y-29367D01*
X60975Y-29423D01*
X60975Y-31525D01*
X61758Y-31525D01*
X61814Y-31468D01*
X61814Y-29636D01*
X61814Y-33563D01*
X61814Y-31731D01*
X61758Y-31675D01*
X60975Y-31675D01*
X60975Y-33776D01*
X61032Y-33832D01*
X61634Y-33832D01*
X61717Y-33798D01*
X61780Y-33735D01*
X61814Y-33652D01*
X61814Y-33563D01*
X61814Y-55145D01*
X61724Y-55145D01*
X61724Y-54231D01*
X61724Y-50215D01*
X61724Y-48931D01*
X61724Y-44915D01*
X61724Y-43631D01*
X61724Y-39615D01*
X61724Y-38331D01*
X61724Y-34315D01*
X61704Y-34265D01*
X61666Y-34227D01*
X61616Y-34207D01*
X61563Y-34207D01*
X60825Y-34207D01*
X60825Y-33776D01*
X60825Y-31675D01*
X60825Y-31525D01*
X60825Y-29423D01*
X60769Y-29367D01*
X60167Y-29367D01*
X60084Y-29401D01*
X60021Y-29464D01*
X59986Y-29547D01*
X59986Y-29636D01*
X59986Y-31468D01*
X60043Y-31525D01*
X60825Y-31525D01*
X60825Y-31675D01*
X60043Y-31675D01*
X59986Y-31731D01*
X59986Y-33563D01*
X59986Y-33652D01*
X60021Y-33735D01*
X60084Y-33798D01*
X60167Y-33832D01*
X60769Y-33832D01*
X60825Y-33776D01*
X60825Y-34207D01*
X60185Y-34207D01*
X60135Y-34227D01*
X60097Y-34265D01*
X60076Y-34315D01*
X60076Y-34368D01*
X60076Y-36700D01*
X59462Y-37314D01*
X58928Y-37314D01*
X58928Y-36716D01*
X58928Y-35929D01*
X58928Y-34118D01*
X58908Y-34068D01*
X58870Y-34030D01*
X58820Y-34010D01*
X58766Y-34010D01*
X57979Y-34010D01*
X57929Y-34030D01*
X57891Y-34068D01*
X57871Y-34118D01*
X57871Y-34172D01*
X57871Y-35983D01*
X57891Y-36032D01*
X57929Y-36070D01*
X57979Y-36091D01*
X58033Y-36091D01*
X58820Y-36091D01*
X58870Y-36070D01*
X58908Y-36032D01*
X58928Y-35983D01*
X58928Y-35929D01*
X58928Y-36716D01*
X58908Y-36667D01*
X58870Y-36629D01*
X58820Y-36608D01*
X58766Y-36608D01*
X57979Y-36608D01*
X57929Y-36629D01*
X57891Y-36667D01*
X57871Y-36716D01*
X57871Y-36770D01*
X57871Y-37690D01*
X56706Y-37690D01*
X56671Y-37654D01*
X56660Y-37650D01*
X56671Y-37645D01*
X56709Y-37607D01*
X56729Y-37557D01*
X56730Y-37504D01*
X56730Y-36992D01*
X56709Y-36942D01*
X56671Y-36904D01*
X56621Y-36884D01*
X56568Y-36883D01*
X56382Y-36883D01*
X56182Y-36683D01*
X56074Y-36611D01*
X55945Y-36585D01*
X55810Y-36585D01*
X55770Y-36569D01*
X55716Y-36569D01*
X54929Y-36569D01*
X54879Y-36589D01*
X54841Y-36627D01*
X54821Y-36677D01*
X54821Y-36731D01*
X54821Y-36975D01*
X54463Y-37333D01*
X54409Y-37414D01*
X53673Y-37414D01*
X53623Y-37435D01*
X53585Y-37473D01*
X53565Y-37523D01*
X53564Y-37576D01*
X53564Y-38176D01*
X53585Y-38226D01*
X53623Y-38264D01*
X53673Y-38284D01*
X53726Y-38285D01*
X55726Y-38285D01*
X55776Y-38264D01*
X55814Y-38226D01*
X55834Y-38176D01*
X55835Y-38123D01*
X55835Y-37523D01*
X55814Y-37473D01*
X55776Y-37435D01*
X55726Y-37415D01*
X55673Y-37414D01*
X55329Y-37414D01*
X55472Y-37272D01*
X55770Y-37272D01*
X55808Y-37256D01*
X55869Y-37318D01*
X55869Y-37557D01*
X55890Y-37607D01*
X55928Y-37645D01*
X55939Y-37649D01*
X55928Y-37654D01*
X55890Y-37692D01*
X55870Y-37742D01*
X55869Y-37795D01*
X55869Y-38307D01*
X55890Y-38357D01*
X55928Y-38395D01*
X55978Y-38415D01*
X56031Y-38416D01*
X56621Y-38416D01*
X56671Y-38395D01*
X56706Y-38360D01*
X57871Y-38360D01*
X57871Y-38581D01*
X57891Y-38631D01*
X57929Y-38669D01*
X57979Y-38689D01*
X58033Y-38689D01*
X58820Y-38689D01*
X58870Y-38669D01*
X58908Y-38631D01*
X58928Y-38581D01*
X58928Y-38527D01*
X58928Y-37984D01*
X59601Y-37984D01*
X59729Y-37958D01*
X59729Y-37958D01*
X59838Y-37886D01*
X60076Y-37647D01*
X60076Y-38384D01*
X60097Y-38434D01*
X60135Y-38472D01*
X60184Y-38492D01*
X60238Y-38492D01*
X61616Y-38492D01*
X61666Y-38472D01*
X61704Y-38434D01*
X61724Y-38384D01*
X61724Y-38331D01*
X61724Y-39615D01*
X61704Y-39565D01*
X61666Y-39527D01*
X61616Y-39507D01*
X61563Y-39507D01*
X60185Y-39507D01*
X60135Y-39527D01*
X60097Y-39565D01*
X60076Y-39615D01*
X60076Y-39668D01*
X60076Y-42000D01*
X59462Y-42614D01*
X58928Y-42614D01*
X58928Y-42016D01*
X58928Y-41229D01*
X58928Y-39418D01*
X58908Y-39368D01*
X58870Y-39330D01*
X58820Y-39310D01*
X58766Y-39310D01*
X57979Y-39310D01*
X57929Y-39330D01*
X57891Y-39368D01*
X57871Y-39418D01*
X57871Y-39472D01*
X57871Y-41283D01*
X57891Y-41332D01*
X57929Y-41370D01*
X57979Y-41391D01*
X58033Y-41391D01*
X58820Y-41391D01*
X58870Y-41370D01*
X58908Y-41332D01*
X58928Y-41283D01*
X58928Y-41229D01*
X58928Y-42016D01*
X58908Y-41967D01*
X58870Y-41929D01*
X58820Y-41908D01*
X58766Y-41908D01*
X57979Y-41908D01*
X57929Y-41929D01*
X57891Y-41967D01*
X57871Y-42016D01*
X57871Y-42070D01*
X57871Y-42990D01*
X56820Y-42990D01*
X56820Y-40275D01*
X56820Y-39674D01*
X56785Y-39591D01*
X56722Y-39528D01*
X56639Y-39494D01*
X56550Y-39493D01*
X56431Y-39494D01*
X56375Y-39550D01*
X56375Y-39900D01*
X56763Y-39900D01*
X56820Y-39843D01*
X56820Y-39674D01*
X56820Y-40275D01*
X56820Y-40106D01*
X56763Y-40050D01*
X56375Y-40050D01*
X56375Y-40057D01*
X56225Y-40057D01*
X56225Y-40050D01*
X56217Y-40050D01*
X56217Y-39900D01*
X56225Y-39900D01*
X56225Y-39550D01*
X56168Y-39494D01*
X56049Y-39493D01*
X55960Y-39494D01*
X55877Y-39528D01*
X55814Y-39591D01*
X55779Y-39674D01*
X55779Y-39739D01*
X55776Y-39735D01*
X55726Y-39715D01*
X55673Y-39714D01*
X53673Y-39714D01*
X53623Y-39735D01*
X53585Y-39773D01*
X53565Y-39823D01*
X53564Y-39876D01*
X53564Y-40476D01*
X53585Y-40526D01*
X53623Y-40564D01*
X53673Y-40584D01*
X53726Y-40585D01*
X55726Y-40585D01*
X55776Y-40564D01*
X55814Y-40526D01*
X55834Y-40476D01*
X55835Y-40423D01*
X55835Y-40379D01*
X55877Y-40421D01*
X55878Y-40422D01*
X55870Y-40442D01*
X55869Y-40495D01*
X55869Y-40681D01*
X55808Y-40743D01*
X55770Y-40727D01*
X55716Y-40727D01*
X54929Y-40727D01*
X54889Y-40744D01*
X53720Y-40744D01*
X53592Y-40769D01*
X53483Y-40842D01*
X51511Y-42815D01*
X50831Y-42815D01*
X50814Y-42773D01*
X50776Y-42735D01*
X50726Y-42715D01*
X50673Y-42714D01*
X48673Y-42714D01*
X48623Y-42735D01*
X48585Y-42773D01*
X48565Y-42823D01*
X48564Y-42876D01*
X48564Y-43476D01*
X48585Y-43526D01*
X48623Y-43564D01*
X48673Y-43584D01*
X48726Y-43585D01*
X49661Y-43585D01*
X49685Y-43609D01*
X49685Y-43839D01*
X49669Y-43879D01*
X49669Y-43933D01*
X49669Y-44720D01*
X49689Y-44770D01*
X49727Y-44808D01*
X49777Y-44828D01*
X49831Y-44828D01*
X50264Y-44828D01*
X50313Y-44808D01*
X50351Y-44770D01*
X50372Y-44720D01*
X50372Y-44666D01*
X50372Y-43879D01*
X50355Y-43839D01*
X50355Y-43585D01*
X50726Y-43585D01*
X50776Y-43564D01*
X50814Y-43526D01*
X50831Y-43485D01*
X51650Y-43485D01*
X51778Y-43459D01*
X51778Y-43459D01*
X51886Y-43386D01*
X53859Y-41414D01*
X54889Y-41414D01*
X54929Y-41430D01*
X54983Y-41430D01*
X55770Y-41430D01*
X55810Y-41414D01*
X55945Y-41414D01*
X56074Y-41388D01*
X56074Y-41388D01*
X56182Y-41316D01*
X56382Y-41116D01*
X56621Y-41116D01*
X56671Y-41095D01*
X56709Y-41057D01*
X56729Y-41007D01*
X56730Y-40954D01*
X56730Y-40442D01*
X56721Y-40422D01*
X56722Y-40421D01*
X56785Y-40358D01*
X56820Y-40275D01*
X56820Y-42990D01*
X56706Y-42990D01*
X56671Y-42954D01*
X56660Y-42950D01*
X56671Y-42945D01*
X56709Y-42907D01*
X56729Y-42857D01*
X56730Y-42804D01*
X56730Y-42292D01*
X56709Y-42242D01*
X56671Y-42204D01*
X56621Y-42184D01*
X56568Y-42183D01*
X56382Y-42183D01*
X56182Y-41983D01*
X56074Y-41911D01*
X55945Y-41885D01*
X55810Y-41885D01*
X55770Y-41869D01*
X55716Y-41869D01*
X54929Y-41869D01*
X54879Y-41889D01*
X54841Y-41927D01*
X54821Y-41977D01*
X54821Y-42031D01*
X54821Y-42275D01*
X54463Y-42633D01*
X54409Y-42714D01*
X53673Y-42714D01*
X53623Y-42735D01*
X53585Y-42773D01*
X53565Y-42823D01*
X53564Y-42876D01*
X53564Y-43476D01*
X53585Y-43526D01*
X53623Y-43564D01*
X53673Y-43584D01*
X53726Y-43585D01*
X55726Y-43585D01*
X55776Y-43564D01*
X55814Y-43526D01*
X55834Y-43476D01*
X55835Y-43423D01*
X55835Y-42823D01*
X55814Y-42773D01*
X55776Y-42735D01*
X55726Y-42715D01*
X55673Y-42714D01*
X55329Y-42714D01*
X55472Y-42572D01*
X55770Y-42572D01*
X55808Y-42556D01*
X55869Y-42618D01*
X55869Y-42857D01*
X55890Y-42907D01*
X55928Y-42945D01*
X55939Y-42949D01*
X55928Y-42954D01*
X55890Y-42992D01*
X55870Y-43042D01*
X55869Y-43095D01*
X55869Y-43607D01*
X55890Y-43657D01*
X55928Y-43695D01*
X55978Y-43715D01*
X56031Y-43716D01*
X56621Y-43716D01*
X56671Y-43695D01*
X56706Y-43660D01*
X57871Y-43660D01*
X57871Y-43881D01*
X57891Y-43931D01*
X57929Y-43969D01*
X57979Y-43989D01*
X58033Y-43989D01*
X58820Y-43989D01*
X58870Y-43969D01*
X58908Y-43931D01*
X58928Y-43881D01*
X58928Y-43827D01*
X58928Y-43284D01*
X59601Y-43284D01*
X59729Y-43258D01*
X59729Y-43258D01*
X59838Y-43186D01*
X60076Y-42947D01*
X60076Y-43684D01*
X60097Y-43734D01*
X60135Y-43772D01*
X60184Y-43792D01*
X60238Y-43792D01*
X61616Y-43792D01*
X61666Y-43772D01*
X61704Y-43734D01*
X61724Y-43684D01*
X61724Y-43631D01*
X61724Y-44915D01*
X61704Y-44865D01*
X61666Y-44827D01*
X61616Y-44807D01*
X61563Y-44807D01*
X60185Y-44807D01*
X60135Y-44827D01*
X60097Y-44865D01*
X60076Y-44915D01*
X60076Y-44968D01*
X60076Y-45652D01*
X59838Y-45413D01*
X59729Y-45341D01*
X59601Y-45315D01*
X58928Y-45315D01*
X58928Y-44718D01*
X58908Y-44668D01*
X58870Y-44630D01*
X58820Y-44610D01*
X58766Y-44610D01*
X57979Y-44610D01*
X57929Y-44630D01*
X57891Y-44668D01*
X57871Y-44718D01*
X57871Y-44772D01*
X57871Y-44940D01*
X56706Y-44940D01*
X56671Y-44904D01*
X56621Y-44884D01*
X56568Y-44883D01*
X55978Y-44883D01*
X55928Y-44904D01*
X55890Y-44942D01*
X55870Y-44992D01*
X55869Y-45045D01*
X55869Y-45557D01*
X55890Y-45607D01*
X55928Y-45645D01*
X55939Y-45649D01*
X55928Y-45654D01*
X55890Y-45692D01*
X55870Y-45742D01*
X55869Y-45795D01*
X55869Y-45981D01*
X55835Y-46016D01*
X55835Y-45723D01*
X55835Y-45123D01*
X55814Y-45073D01*
X55776Y-45035D01*
X55726Y-45015D01*
X55673Y-45014D01*
X53673Y-45014D01*
X53623Y-45035D01*
X53585Y-45073D01*
X53565Y-45123D01*
X53564Y-45176D01*
X53564Y-45776D01*
X53585Y-45826D01*
X53623Y-45864D01*
X53673Y-45884D01*
X53726Y-45885D01*
X55726Y-45885D01*
X55776Y-45864D01*
X55814Y-45826D01*
X55834Y-45776D01*
X55835Y-45723D01*
X55835Y-46016D01*
X55808Y-46043D01*
X55770Y-46027D01*
X55716Y-46027D01*
X54929Y-46027D01*
X54889Y-46044D01*
X53720Y-46044D01*
X53592Y-46069D01*
X53483Y-46142D01*
X51511Y-48115D01*
X50831Y-48115D01*
X50814Y-48073D01*
X50776Y-48035D01*
X50726Y-48015D01*
X50673Y-48014D01*
X49738Y-48014D01*
X49683Y-47959D01*
X49574Y-47886D01*
X49446Y-47861D01*
X48165Y-47861D01*
X47954Y-47650D01*
X47905Y-47629D01*
X47851Y-47629D01*
X47838Y-47635D01*
X48436Y-47036D01*
X48509Y-46928D01*
X48509Y-46928D01*
X48534Y-46800D01*
X48535Y-46800D01*
X48535Y-46138D01*
X48575Y-46098D01*
X48565Y-46123D01*
X48564Y-46176D01*
X48564Y-46776D01*
X48585Y-46826D01*
X48623Y-46864D01*
X48673Y-46884D01*
X48726Y-46885D01*
X50726Y-46885D01*
X50776Y-46864D01*
X50814Y-46826D01*
X50834Y-46776D01*
X50834Y-46768D01*
X50878Y-46759D01*
X50878Y-46759D01*
X50986Y-46686D01*
X51336Y-46336D01*
X51409Y-46228D01*
X51434Y-46100D01*
X51409Y-45971D01*
X51336Y-45863D01*
X51228Y-45790D01*
X51099Y-45765D01*
X50971Y-45790D01*
X50863Y-45863D01*
X50711Y-46015D01*
X50673Y-46014D01*
X48673Y-46014D01*
X48648Y-46025D01*
X48788Y-45885D01*
X50726Y-45885D01*
X50776Y-45864D01*
X50814Y-45826D01*
X50834Y-45776D01*
X50835Y-45723D01*
X50835Y-45123D01*
X50814Y-45073D01*
X50776Y-45035D01*
X50726Y-45015D01*
X50673Y-45014D01*
X48673Y-45014D01*
X48623Y-45035D01*
X48585Y-45073D01*
X48565Y-45123D01*
X48564Y-45176D01*
X48564Y-45178D01*
X48535Y-45198D01*
X48535Y-44938D01*
X48645Y-44828D01*
X48689Y-44828D01*
X49122Y-44828D01*
X49172Y-44808D01*
X49210Y-44770D01*
X49230Y-44720D01*
X49230Y-44666D01*
X49230Y-43879D01*
X49210Y-43829D01*
X49172Y-43791D01*
X49122Y-43771D01*
X49068Y-43771D01*
X48635Y-43771D01*
X48586Y-43791D01*
X48548Y-43829D01*
X48535Y-43861D01*
X48535Y-40838D01*
X48575Y-40798D01*
X48565Y-40823D01*
X48564Y-40876D01*
X48564Y-41476D01*
X48585Y-41526D01*
X48623Y-41564D01*
X48673Y-41584D01*
X48726Y-41585D01*
X50726Y-41585D01*
X50776Y-41564D01*
X50814Y-41526D01*
X50831Y-41485D01*
X50850Y-41485D01*
X50978Y-41459D01*
X50978Y-41459D01*
X51086Y-41386D01*
X51336Y-41136D01*
X51409Y-41028D01*
X51434Y-40900D01*
X51409Y-40771D01*
X51336Y-40663D01*
X51228Y-40590D01*
X51100Y-40565D01*
X50971Y-40590D01*
X50863Y-40663D01*
X50783Y-40742D01*
X50776Y-40735D01*
X50726Y-40715D01*
X50673Y-40714D01*
X48673Y-40714D01*
X48648Y-40725D01*
X48788Y-40585D01*
X50726Y-40585D01*
X50776Y-40564D01*
X50814Y-40526D01*
X50834Y-40476D01*
X50835Y-40423D01*
X50835Y-39823D01*
X50814Y-39773D01*
X50776Y-39735D01*
X50726Y-39715D01*
X50673Y-39714D01*
X48673Y-39714D01*
X48623Y-39735D01*
X48585Y-39773D01*
X48565Y-39823D01*
X48564Y-39876D01*
X48564Y-39878D01*
X48535Y-39898D01*
X48535Y-39638D01*
X48645Y-39528D01*
X48689Y-39528D01*
X49122Y-39528D01*
X49172Y-39508D01*
X49210Y-39470D01*
X49230Y-39420D01*
X49230Y-39366D01*
X49230Y-38579D01*
X49210Y-38529D01*
X49172Y-38491D01*
X49122Y-38471D01*
X49068Y-38471D01*
X48635Y-38471D01*
X48586Y-38491D01*
X48548Y-38529D01*
X48535Y-38561D01*
X48535Y-35538D01*
X48575Y-35498D01*
X48565Y-35523D01*
X48564Y-35576D01*
X48564Y-36176D01*
X48585Y-36226D01*
X48623Y-36264D01*
X48673Y-36284D01*
X48726Y-36285D01*
X50711Y-36285D01*
X50763Y-36336D01*
X50871Y-36409D01*
X51000Y-36434D01*
X51128Y-36409D01*
X51236Y-36336D01*
X51309Y-36228D01*
X51318Y-36185D01*
X51850Y-36185D01*
X51978Y-36159D01*
X51978Y-36159D01*
X52086Y-36086D01*
X53564Y-34608D01*
X53564Y-35176D01*
X53585Y-35226D01*
X53623Y-35264D01*
X53673Y-35284D01*
X53726Y-35285D01*
X55726Y-35285D01*
X55776Y-35264D01*
X55814Y-35226D01*
X55834Y-35176D01*
X55835Y-35123D01*
X55835Y-35079D01*
X55877Y-35121D01*
X55878Y-35122D01*
X55870Y-35142D01*
X55869Y-35195D01*
X55869Y-35381D01*
X55808Y-35443D01*
X55770Y-35427D01*
X55716Y-35427D01*
X54929Y-35427D01*
X54889Y-35444D01*
X53720Y-35444D01*
X53592Y-35469D01*
X53483Y-35542D01*
X51511Y-37515D01*
X50831Y-37515D01*
X50814Y-37473D01*
X50776Y-37435D01*
X50726Y-37415D01*
X50673Y-37414D01*
X48673Y-37414D01*
X48623Y-37435D01*
X48585Y-37473D01*
X48565Y-37523D01*
X48564Y-37576D01*
X48564Y-38176D01*
X48585Y-38226D01*
X48623Y-38264D01*
X48673Y-38284D01*
X48726Y-38285D01*
X49661Y-38285D01*
X49685Y-38309D01*
X49685Y-38539D01*
X49669Y-38579D01*
X49669Y-38633D01*
X49669Y-39420D01*
X49689Y-39470D01*
X49727Y-39508D01*
X49777Y-39528D01*
X49831Y-39528D01*
X50264Y-39528D01*
X50313Y-39508D01*
X50351Y-39470D01*
X50372Y-39420D01*
X50372Y-39366D01*
X50372Y-38579D01*
X50355Y-38539D01*
X50355Y-38285D01*
X50726Y-38285D01*
X50776Y-38264D01*
X50814Y-38226D01*
X50831Y-38185D01*
X51650Y-38185D01*
X51778Y-38159D01*
X51778Y-38159D01*
X51886Y-38086D01*
X53859Y-36114D01*
X54889Y-36114D01*
X54929Y-36130D01*
X54983Y-36130D01*
X55770Y-36130D01*
X55810Y-36114D01*
X55945Y-36114D01*
X56074Y-36088D01*
X56074Y-36088D01*
X56182Y-36016D01*
X56382Y-35816D01*
X56621Y-35816D01*
X56671Y-35795D01*
X56709Y-35757D01*
X56729Y-35707D01*
X56730Y-35654D01*
X56730Y-35142D01*
X56721Y-35122D01*
X56722Y-35121D01*
X56785Y-35058D01*
X56820Y-34975D01*
X56820Y-34374D01*
X56785Y-34291D01*
X56722Y-34228D01*
X56639Y-34194D01*
X56550Y-34193D01*
X56431Y-34194D01*
X56375Y-34250D01*
X56375Y-34600D01*
X56763Y-34600D01*
X56820Y-34543D01*
X56820Y-34374D01*
X56820Y-34975D01*
X56820Y-34806D01*
X56763Y-34750D01*
X56375Y-34750D01*
X56375Y-34757D01*
X56225Y-34757D01*
X56225Y-34750D01*
X56217Y-34750D01*
X56217Y-34600D01*
X56225Y-34600D01*
X56225Y-34250D01*
X56168Y-34194D01*
X56049Y-34193D01*
X55960Y-34194D01*
X55877Y-34228D01*
X55814Y-34291D01*
X55779Y-34374D01*
X55779Y-34439D01*
X55776Y-34435D01*
X55726Y-34415D01*
X55673Y-34414D01*
X55058Y-34414D01*
X55745Y-33728D01*
X55964Y-33728D01*
X56013Y-33708D01*
X56051Y-33670D01*
X56072Y-33620D01*
X56072Y-33566D01*
X56072Y-33322D01*
X56136Y-33257D01*
X56209Y-33149D01*
X56209Y-33149D01*
X56235Y-33020D01*
X56235Y-32210D01*
X56271Y-32195D01*
X56309Y-32157D01*
X56329Y-32107D01*
X56330Y-32054D01*
X56330Y-31542D01*
X56309Y-31492D01*
X56271Y-31454D01*
X56260Y-31450D01*
X56271Y-31445D01*
X56309Y-31407D01*
X56329Y-31357D01*
X56330Y-31304D01*
X56330Y-30792D01*
X56309Y-30742D01*
X56271Y-30704D01*
X56221Y-30684D01*
X56168Y-30683D01*
X55578Y-30683D01*
X55528Y-30704D01*
X55490Y-30742D01*
X55470Y-30792D01*
X55469Y-30845D01*
X55469Y-30865D01*
X55239Y-30865D01*
X55239Y-30779D01*
X55219Y-30729D01*
X55181Y-30691D01*
X55131Y-30671D01*
X55077Y-30671D01*
X54144Y-30671D01*
X53436Y-29963D01*
X53327Y-29890D01*
X53199Y-29865D01*
X49910Y-29865D01*
X49895Y-29828D01*
X49857Y-29790D01*
X49807Y-29770D01*
X49754Y-29769D01*
X49242Y-29769D01*
X49192Y-29790D01*
X49154Y-29828D01*
X49150Y-29839D01*
X49145Y-29828D01*
X49107Y-29790D01*
X49057Y-29770D01*
X49004Y-29769D01*
X48492Y-29769D01*
X48442Y-29790D01*
X48404Y-29828D01*
X48384Y-29878D01*
X48383Y-29931D01*
X48383Y-30117D01*
X47707Y-30794D01*
X47610Y-30794D01*
X47570Y-30777D01*
X47516Y-30777D01*
X47229Y-30777D01*
X47109Y-30753D01*
X46155Y-30753D01*
X46124Y-30678D01*
X45920Y-30474D01*
X45654Y-30363D01*
X45365Y-30363D01*
X45098Y-30473D01*
X44894Y-30677D01*
X44783Y-30943D01*
X44783Y-31232D01*
X44893Y-31499D01*
X45097Y-31703D01*
X45364Y-31814D01*
X45652Y-31814D01*
X45919Y-31704D01*
X46123Y-31500D01*
X46155Y-31423D01*
X46643Y-31423D01*
X46679Y-31460D01*
X46729Y-31480D01*
X46783Y-31480D01*
X47570Y-31480D01*
X47610Y-31464D01*
X47845Y-31464D01*
X47974Y-31438D01*
X47974Y-31438D01*
X48082Y-31366D01*
X48818Y-30630D01*
X49057Y-30630D01*
X49107Y-30609D01*
X49145Y-30571D01*
X49149Y-30560D01*
X49154Y-30571D01*
X49192Y-30609D01*
X49242Y-30629D01*
X49295Y-30630D01*
X49807Y-30630D01*
X49857Y-30609D01*
X49895Y-30571D01*
X49910Y-30535D01*
X53060Y-30535D01*
X53217Y-30691D01*
X53179Y-30729D01*
X53158Y-30779D01*
X53158Y-30833D01*
X53158Y-31620D01*
X53179Y-31670D01*
X53217Y-31708D01*
X53266Y-31728D01*
X53320Y-31728D01*
X55131Y-31728D01*
X55181Y-31708D01*
X55219Y-31670D01*
X55239Y-31620D01*
X55239Y-31566D01*
X55239Y-31535D01*
X55472Y-31535D01*
X55470Y-31542D01*
X55469Y-31595D01*
X55469Y-32107D01*
X55490Y-32157D01*
X55528Y-32195D01*
X55565Y-32210D01*
X55565Y-32671D01*
X55477Y-32671D01*
X55427Y-32691D01*
X55389Y-32729D01*
X55369Y-32779D01*
X55369Y-32833D01*
X55369Y-33156D01*
X54930Y-33595D01*
X54930Y-33566D01*
X54930Y-32779D01*
X54910Y-32729D01*
X54872Y-32691D01*
X54822Y-32671D01*
X54768Y-32671D01*
X54335Y-32671D01*
X54286Y-32691D01*
X54248Y-32729D01*
X54227Y-32779D01*
X54227Y-32833D01*
X54227Y-33015D01*
X53460Y-33015D01*
X53445Y-32978D01*
X53407Y-32940D01*
X53357Y-32920D01*
X53304Y-32919D01*
X52792Y-32919D01*
X52742Y-32940D01*
X52704Y-32978D01*
X52700Y-32989D01*
X52695Y-32978D01*
X52657Y-32940D01*
X52607Y-32920D01*
X52554Y-32919D01*
X52368Y-32919D01*
X51935Y-32487D01*
X51935Y-31728D01*
X52533Y-31728D01*
X52582Y-31708D01*
X52620Y-31670D01*
X52641Y-31620D01*
X52641Y-31566D01*
X52641Y-30779D01*
X52620Y-30729D01*
X52582Y-30691D01*
X52533Y-30671D01*
X52479Y-30671D01*
X50668Y-30671D01*
X50618Y-30691D01*
X50580Y-30729D01*
X50560Y-30779D01*
X50560Y-30833D01*
X50560Y-31620D01*
X50580Y-31670D01*
X50618Y-31708D01*
X50618Y-31708D01*
X50462Y-31865D01*
X49910Y-31865D01*
X49895Y-31828D01*
X49857Y-31790D01*
X49807Y-31770D01*
X49754Y-31769D01*
X49242Y-31769D01*
X49192Y-31790D01*
X49154Y-31828D01*
X49150Y-31839D01*
X49145Y-31828D01*
X49107Y-31790D01*
X49057Y-31770D01*
X49004Y-31769D01*
X48492Y-31769D01*
X48442Y-31790D01*
X48404Y-31828D01*
X48384Y-31878D01*
X48383Y-31931D01*
X48383Y-31935D01*
X47610Y-31935D01*
X47570Y-31919D01*
X47516Y-31919D01*
X46729Y-31919D01*
X46689Y-31935D01*
X38956Y-31935D01*
X38329Y-31309D01*
X38360Y-31233D01*
X38360Y-30945D01*
X38250Y-30678D01*
X38046Y-30474D01*
X37780Y-30363D01*
X37491Y-30363D01*
X37224Y-30473D01*
X37020Y-30677D01*
X36909Y-30943D01*
X36909Y-31232D01*
X37019Y-31499D01*
X37223Y-31703D01*
X37490Y-31814D01*
X37778Y-31814D01*
X37855Y-31782D01*
X38580Y-32507D01*
X38689Y-32580D01*
X38689Y-32580D01*
X38817Y-32605D01*
X46689Y-32605D01*
X46729Y-32622D01*
X46783Y-32622D01*
X47570Y-32622D01*
X47610Y-32605D01*
X48438Y-32605D01*
X48442Y-32609D01*
X48492Y-32629D01*
X48545Y-32630D01*
X48996Y-32630D01*
X48261Y-33365D01*
X47822Y-33365D01*
X47822Y-33279D01*
X47801Y-33229D01*
X47763Y-33191D01*
X47714Y-33171D01*
X47660Y-33171D01*
X47227Y-33171D01*
X47177Y-33191D01*
X47139Y-33229D01*
X47119Y-33279D01*
X47119Y-33333D01*
X47119Y-34120D01*
X47139Y-34170D01*
X47177Y-34208D01*
X47227Y-34228D01*
X47281Y-34228D01*
X47714Y-34228D01*
X47763Y-34208D01*
X47801Y-34170D01*
X47822Y-34120D01*
X47822Y-34066D01*
X47822Y-34035D01*
X48400Y-34035D01*
X48528Y-34009D01*
X48528Y-34009D01*
X48636Y-33936D01*
X49761Y-32811D01*
X49834Y-32703D01*
X49834Y-32703D01*
X49852Y-32611D01*
X49857Y-32609D01*
X49895Y-32571D01*
X49910Y-32535D01*
X50600Y-32535D01*
X50728Y-32509D01*
X50728Y-32509D01*
X50837Y-32436D01*
X51265Y-32008D01*
X51265Y-32625D01*
X51291Y-32753D01*
X51363Y-32862D01*
X51933Y-33432D01*
X51933Y-33671D01*
X51954Y-33721D01*
X51992Y-33759D01*
X52042Y-33779D01*
X52095Y-33780D01*
X52607Y-33780D01*
X52657Y-33759D01*
X52695Y-33721D01*
X52699Y-33710D01*
X52704Y-33721D01*
X52704Y-33721D01*
X51911Y-34515D01*
X50831Y-34515D01*
X50814Y-34473D01*
X50776Y-34435D01*
X50726Y-34415D01*
X50673Y-34414D01*
X48673Y-34414D01*
X48623Y-34435D01*
X48585Y-34473D01*
X48565Y-34523D01*
X48564Y-34576D01*
X48564Y-34578D01*
X48513Y-34613D01*
X47963Y-35163D01*
X47890Y-35271D01*
X47865Y-35400D01*
X47865Y-39400D01*
X47865Y-39500D01*
X47865Y-40700D01*
X47865Y-44700D01*
X47865Y-44800D01*
X47865Y-46000D01*
X47865Y-46661D01*
X46963Y-47563D01*
X46959Y-47566D01*
X46680Y-47845D01*
X46680Y-34066D01*
X46680Y-33279D01*
X46660Y-33229D01*
X46622Y-33191D01*
X46572Y-33171D01*
X46518Y-33171D01*
X46085Y-33171D01*
X46036Y-33191D01*
X45998Y-33229D01*
X45977Y-33279D01*
X45977Y-33333D01*
X45977Y-34120D01*
X45994Y-34160D01*
X45994Y-36882D01*
X37163Y-45713D01*
X37090Y-45821D01*
X37065Y-45950D01*
X37065Y-51705D01*
X37052Y-51717D01*
X36990Y-51868D01*
X36989Y-52031D01*
X37052Y-52181D01*
X37167Y-52297D01*
X37318Y-52359D01*
X37481Y-52360D01*
X37631Y-52297D01*
X37747Y-52182D01*
X37809Y-52031D01*
X37810Y-51868D01*
X37747Y-51718D01*
X37735Y-51705D01*
X37735Y-46088D01*
X46566Y-37257D01*
X46566Y-37257D01*
X46614Y-37185D01*
X46638Y-37149D01*
X46638Y-37149D01*
X46664Y-37020D01*
X46664Y-37020D01*
X46664Y-34160D01*
X46680Y-34120D01*
X46680Y-34066D01*
X46680Y-47845D01*
X45963Y-48563D01*
X45890Y-48671D01*
X45865Y-48800D01*
X45865Y-52200D01*
X45890Y-52328D01*
X45963Y-52436D01*
X46360Y-52834D01*
X46300Y-52895D01*
X46279Y-52944D01*
X46279Y-52998D01*
X46300Y-53047D01*
X46338Y-53085D01*
X46644Y-53392D01*
X46694Y-53412D01*
X46747Y-53412D01*
X46797Y-53392D01*
X46835Y-53354D01*
X47392Y-52797D01*
X47408Y-52757D01*
X48564Y-51601D01*
X48564Y-52076D01*
X48585Y-52126D01*
X48623Y-52164D01*
X48673Y-52184D01*
X48726Y-52185D01*
X50726Y-52185D01*
X50776Y-52164D01*
X50814Y-52126D01*
X50831Y-52085D01*
X50850Y-52085D01*
X50978Y-52059D01*
X50978Y-52059D01*
X51086Y-51986D01*
X51336Y-51736D01*
X51409Y-51628D01*
X51434Y-51500D01*
X51409Y-51371D01*
X51336Y-51263D01*
X51228Y-51190D01*
X51100Y-51165D01*
X50971Y-51190D01*
X50863Y-51263D01*
X50783Y-51342D01*
X50776Y-51335D01*
X50726Y-51315D01*
X50673Y-51314D01*
X48851Y-51314D01*
X48981Y-51185D01*
X50726Y-51185D01*
X50776Y-51164D01*
X50814Y-51126D01*
X50834Y-51076D01*
X50835Y-51023D01*
X50835Y-50423D01*
X50814Y-50373D01*
X50776Y-50335D01*
X50726Y-50315D01*
X50673Y-50314D01*
X49187Y-50314D01*
X49187Y-49449D01*
X49077Y-49182D01*
X48873Y-48977D01*
X48606Y-48867D01*
X48318Y-48867D01*
X48051Y-48977D01*
X47847Y-49181D01*
X47736Y-49447D01*
X47736Y-49736D01*
X47846Y-50003D01*
X48050Y-50207D01*
X48317Y-50318D01*
X48605Y-50318D01*
X48872Y-50208D01*
X49076Y-50004D01*
X49187Y-49737D01*
X49187Y-49449D01*
X49187Y-50314D01*
X48673Y-50314D01*
X48623Y-50335D01*
X48585Y-50373D01*
X48565Y-50423D01*
X48564Y-50476D01*
X48564Y-50653D01*
X46935Y-52283D01*
X46895Y-52300D01*
X46857Y-52338D01*
X46834Y-52360D01*
X46535Y-52061D01*
X46535Y-48938D01*
X46635Y-48838D01*
X46629Y-48851D01*
X46629Y-48905D01*
X46650Y-48954D01*
X46688Y-48992D01*
X47245Y-49549D01*
X47294Y-49570D01*
X47348Y-49570D01*
X47397Y-49549D01*
X47435Y-49511D01*
X47742Y-49205D01*
X47762Y-49155D01*
X47762Y-49102D01*
X47742Y-49052D01*
X47704Y-49014D01*
X47531Y-48841D01*
X47531Y-48221D01*
X48052Y-48742D01*
X48101Y-48762D01*
X48155Y-48762D01*
X48205Y-48742D01*
X48243Y-48704D01*
X48416Y-48531D01*
X48564Y-48531D01*
X48564Y-48776D01*
X48585Y-48826D01*
X48623Y-48864D01*
X48673Y-48884D01*
X48726Y-48885D01*
X50726Y-48885D01*
X50776Y-48864D01*
X50814Y-48826D01*
X50831Y-48785D01*
X51650Y-48785D01*
X51778Y-48759D01*
X51778Y-48759D01*
X51886Y-48686D01*
X53859Y-46714D01*
X54889Y-46714D01*
X54929Y-46730D01*
X54983Y-46730D01*
X55770Y-46730D01*
X55810Y-46714D01*
X55945Y-46714D01*
X56074Y-46688D01*
X56074Y-46688D01*
X56182Y-46616D01*
X56382Y-46416D01*
X56621Y-46416D01*
X56671Y-46395D01*
X56709Y-46357D01*
X56729Y-46307D01*
X56730Y-46254D01*
X56730Y-45742D01*
X56709Y-45692D01*
X56671Y-45654D01*
X56660Y-45650D01*
X56671Y-45645D01*
X56706Y-45610D01*
X57871Y-45610D01*
X57871Y-46583D01*
X57891Y-46632D01*
X57929Y-46670D01*
X57979Y-46691D01*
X58033Y-46691D01*
X58820Y-46691D01*
X58870Y-46670D01*
X58908Y-46632D01*
X58928Y-46583D01*
X58928Y-46529D01*
X58928Y-45985D01*
X59462Y-45985D01*
X60076Y-46599D01*
X60076Y-48984D01*
X60097Y-49034D01*
X60135Y-49072D01*
X60184Y-49092D01*
X60238Y-49092D01*
X61616Y-49092D01*
X61666Y-49072D01*
X61704Y-49034D01*
X61724Y-48984D01*
X61724Y-48931D01*
X61724Y-50215D01*
X61704Y-50165D01*
X61666Y-50127D01*
X61616Y-50107D01*
X61563Y-50107D01*
X60185Y-50107D01*
X60135Y-50127D01*
X60097Y-50165D01*
X60076Y-50215D01*
X60076Y-50268D01*
X60076Y-50952D01*
X59838Y-50713D01*
X59729Y-50641D01*
X59601Y-50615D01*
X58928Y-50615D01*
X58928Y-50018D01*
X58928Y-49127D01*
X58928Y-47316D01*
X58908Y-47267D01*
X58870Y-47229D01*
X58820Y-47208D01*
X58766Y-47208D01*
X57979Y-47208D01*
X57929Y-47229D01*
X57891Y-47267D01*
X57871Y-47316D01*
X57871Y-47370D01*
X57871Y-49181D01*
X57891Y-49231D01*
X57929Y-49269D01*
X57979Y-49289D01*
X58033Y-49289D01*
X58820Y-49289D01*
X58870Y-49269D01*
X58908Y-49231D01*
X58928Y-49181D01*
X58928Y-49127D01*
X58928Y-50018D01*
X58908Y-49968D01*
X58870Y-49930D01*
X58820Y-49910D01*
X58766Y-49910D01*
X57979Y-49910D01*
X57929Y-49930D01*
X57891Y-49968D01*
X57871Y-50018D01*
X57871Y-50072D01*
X57871Y-50240D01*
X56820Y-50240D01*
X56820Y-48925D01*
X56820Y-48324D01*
X56785Y-48241D01*
X56722Y-48178D01*
X56721Y-48177D01*
X56729Y-48157D01*
X56730Y-48104D01*
X56730Y-47592D01*
X56709Y-47542D01*
X56671Y-47504D01*
X56621Y-47484D01*
X56568Y-47483D01*
X56382Y-47483D01*
X56182Y-47283D01*
X56074Y-47211D01*
X55945Y-47185D01*
X55810Y-47185D01*
X55770Y-47169D01*
X55716Y-47169D01*
X54929Y-47169D01*
X54879Y-47189D01*
X54841Y-47227D01*
X54821Y-47277D01*
X54821Y-47331D01*
X54821Y-47575D01*
X54463Y-47933D01*
X54409Y-48014D01*
X53673Y-48014D01*
X53623Y-48035D01*
X53585Y-48073D01*
X53565Y-48123D01*
X53564Y-48176D01*
X53564Y-48776D01*
X53585Y-48826D01*
X53623Y-48864D01*
X53673Y-48884D01*
X53726Y-48885D01*
X55726Y-48885D01*
X55776Y-48864D01*
X55779Y-48860D01*
X55779Y-48925D01*
X55814Y-49008D01*
X55877Y-49071D01*
X55960Y-49105D01*
X56049Y-49106D01*
X56168Y-49106D01*
X56225Y-49049D01*
X56225Y-48700D01*
X56217Y-48700D01*
X56217Y-48550D01*
X56225Y-48550D01*
X56225Y-48542D01*
X56375Y-48542D01*
X56375Y-48550D01*
X56763Y-48550D01*
X56820Y-48493D01*
X56820Y-48324D01*
X56820Y-48925D01*
X56820Y-48756D01*
X56763Y-48700D01*
X56375Y-48700D01*
X56375Y-49049D01*
X56431Y-49106D01*
X56550Y-49106D01*
X56639Y-49105D01*
X56722Y-49071D01*
X56785Y-49008D01*
X56820Y-48925D01*
X56820Y-50240D01*
X56706Y-50240D01*
X56671Y-50204D01*
X56621Y-50184D01*
X56568Y-50183D01*
X55978Y-50183D01*
X55928Y-50204D01*
X55890Y-50242D01*
X55870Y-50292D01*
X55869Y-50345D01*
X55869Y-50857D01*
X55890Y-50907D01*
X55928Y-50945D01*
X55939Y-50949D01*
X55928Y-50954D01*
X55890Y-50992D01*
X55870Y-51042D01*
X55869Y-51095D01*
X55869Y-51281D01*
X55835Y-51316D01*
X55835Y-51023D01*
X55835Y-50423D01*
X55814Y-50373D01*
X55776Y-50335D01*
X55726Y-50315D01*
X55673Y-50314D01*
X53673Y-50314D01*
X53623Y-50335D01*
X53585Y-50373D01*
X53565Y-50423D01*
X53564Y-50476D01*
X53564Y-51076D01*
X53585Y-51126D01*
X53623Y-51164D01*
X53673Y-51184D01*
X53726Y-51185D01*
X55726Y-51185D01*
X55776Y-51164D01*
X55814Y-51126D01*
X55834Y-51076D01*
X55835Y-51023D01*
X55835Y-51316D01*
X55808Y-51343D01*
X55770Y-51327D01*
X55716Y-51327D01*
X54929Y-51327D01*
X54889Y-51344D01*
X53720Y-51344D01*
X53592Y-51369D01*
X53483Y-51442D01*
X51511Y-53415D01*
X50831Y-53415D01*
X50814Y-53373D01*
X50776Y-53335D01*
X50726Y-53315D01*
X50673Y-53314D01*
X48673Y-53314D01*
X48664Y-53318D01*
X48066Y-53318D01*
X47855Y-53107D01*
X47805Y-53087D01*
X47752Y-53087D01*
X47702Y-53107D01*
X47664Y-53145D01*
X47107Y-53702D01*
X47087Y-53751D01*
X47087Y-53805D01*
X47107Y-53855D01*
X47145Y-53893D01*
X47451Y-54199D01*
X47501Y-54220D01*
X47555Y-54220D01*
X47604Y-54199D01*
X47642Y-54161D01*
X47815Y-53988D01*
X48564Y-53988D01*
X48564Y-54076D01*
X48585Y-54126D01*
X48623Y-54164D01*
X48673Y-54184D01*
X48726Y-54185D01*
X50726Y-54185D01*
X50776Y-54164D01*
X50814Y-54126D01*
X50831Y-54085D01*
X51650Y-54085D01*
X51778Y-54059D01*
X51778Y-54059D01*
X51886Y-53986D01*
X53859Y-52014D01*
X54889Y-52014D01*
X54929Y-52030D01*
X54983Y-52030D01*
X55770Y-52030D01*
X55810Y-52014D01*
X55945Y-52014D01*
X56074Y-51988D01*
X56074Y-51988D01*
X56182Y-51916D01*
X56382Y-51716D01*
X56621Y-51716D01*
X56671Y-51695D01*
X56709Y-51657D01*
X56729Y-51607D01*
X56730Y-51554D01*
X56730Y-51042D01*
X56709Y-50992D01*
X56671Y-50954D01*
X56660Y-50950D01*
X56671Y-50945D01*
X56706Y-50910D01*
X57871Y-50910D01*
X57871Y-51883D01*
X57891Y-51932D01*
X57929Y-51970D01*
X57979Y-51991D01*
X58033Y-51991D01*
X58820Y-51991D01*
X58870Y-51970D01*
X58908Y-51932D01*
X58928Y-51883D01*
X58928Y-51829D01*
X58928Y-51285D01*
X59462Y-51285D01*
X60076Y-51899D01*
X60076Y-54284D01*
X60097Y-54334D01*
X60135Y-54372D01*
X60184Y-54392D01*
X60238Y-54392D01*
X61616Y-54392D01*
X61666Y-54372D01*
X61704Y-54334D01*
X61724Y-54284D01*
X61724Y-54231D01*
X61724Y-55145D01*
X58928Y-55145D01*
X58928Y-54427D01*
X58928Y-52616D01*
X58908Y-52567D01*
X58870Y-52529D01*
X58820Y-52508D01*
X58766Y-52508D01*
X57979Y-52508D01*
X57929Y-52529D01*
X57891Y-52567D01*
X57871Y-52616D01*
X57871Y-52670D01*
X57871Y-54481D01*
X57891Y-54531D01*
X57929Y-54569D01*
X57979Y-54589D01*
X58033Y-54589D01*
X58820Y-54589D01*
X58870Y-54569D01*
X58908Y-54531D01*
X58928Y-54481D01*
X58928Y-54427D01*
X58928Y-55145D01*
X56820Y-55145D01*
X56820Y-54225D01*
X56820Y-53624D01*
X56785Y-53541D01*
X56722Y-53478D01*
X56721Y-53477D01*
X56729Y-53457D01*
X56730Y-53404D01*
X56730Y-52892D01*
X56709Y-52842D01*
X56671Y-52804D01*
X56621Y-52784D01*
X56568Y-52783D01*
X56382Y-52783D01*
X56182Y-52583D01*
X56074Y-52511D01*
X55945Y-52485D01*
X55810Y-52485D01*
X55770Y-52469D01*
X55716Y-52469D01*
X54929Y-52469D01*
X54879Y-52489D01*
X54841Y-52527D01*
X54821Y-52577D01*
X54821Y-52631D01*
X54821Y-52875D01*
X54463Y-53233D01*
X54409Y-53314D01*
X53673Y-53314D01*
X53623Y-53335D01*
X53585Y-53373D01*
X53565Y-53423D01*
X53564Y-53476D01*
X53564Y-54076D01*
X53585Y-54126D01*
X53623Y-54164D01*
X53673Y-54184D01*
X53726Y-54185D01*
X55726Y-54185D01*
X55776Y-54164D01*
X55779Y-54160D01*
X55779Y-54225D01*
X55814Y-54308D01*
X55877Y-54371D01*
X55960Y-54405D01*
X56049Y-54406D01*
X56168Y-54406D01*
X56225Y-54349D01*
X56225Y-54000D01*
X56217Y-54000D01*
X56217Y-53850D01*
X56225Y-53850D01*
X56225Y-53842D01*
X56375Y-53842D01*
X56375Y-53850D01*
X56763Y-53850D01*
X56820Y-53793D01*
X56820Y-53624D01*
X56820Y-54225D01*
X56820Y-54056D01*
X56763Y-54000D01*
X56375Y-54000D01*
X56375Y-54349D01*
X56431Y-54406D01*
X56550Y-54406D01*
X56639Y-54405D01*
X56722Y-54371D01*
X56785Y-54308D01*
X56820Y-54225D01*
X56820Y-55145D01*
X42297Y-55145D01*
X42297Y-49449D01*
X42187Y-49182D01*
X41983Y-48977D01*
X41717Y-48867D01*
X41428Y-48867D01*
X41161Y-48977D01*
X40957Y-49181D01*
X40846Y-49447D01*
X40846Y-49736D01*
X40956Y-50003D01*
X41160Y-50207D01*
X41427Y-50318D01*
X41715Y-50318D01*
X41982Y-50208D01*
X42186Y-50004D01*
X42297Y-49737D01*
X42297Y-49449D01*
X42297Y-55145D01*
X37900Y-55145D01*
X37900Y-54269D01*
X37900Y-53630D01*
X37865Y-53547D01*
X37810Y-53491D01*
X37810Y-52868D01*
X37747Y-52718D01*
X37632Y-52602D01*
X37481Y-52540D01*
X37318Y-52539D01*
X37168Y-52602D01*
X37052Y-52717D01*
X36990Y-52868D01*
X36989Y-53031D01*
X37052Y-53181D01*
X37167Y-53297D01*
X37318Y-53359D01*
X37481Y-53360D01*
X37631Y-53297D01*
X37747Y-53182D01*
X37809Y-53031D01*
X37810Y-52868D01*
X37810Y-53491D01*
X37802Y-53484D01*
X37719Y-53450D01*
X37630Y-53449D01*
X37531Y-53450D01*
X37475Y-53506D01*
X37475Y-53875D01*
X37843Y-53875D01*
X37900Y-53818D01*
X37900Y-53630D01*
X37900Y-54269D01*
X37900Y-54081D01*
X37843Y-54025D01*
X37475Y-54025D01*
X37475Y-54393D01*
X37531Y-54450D01*
X37630Y-54450D01*
X37719Y-54449D01*
X37802Y-54415D01*
X37865Y-54352D01*
X37900Y-54269D01*
X37900Y-55145D01*
X37325Y-55145D01*
X37325Y-54393D01*
X37325Y-54025D01*
X37325Y-53875D01*
X37325Y-53506D01*
X37268Y-53450D01*
X37169Y-53449D01*
X37080Y-53450D01*
X36997Y-53484D01*
X36934Y-53547D01*
X36899Y-53630D01*
X36900Y-53818D01*
X36956Y-53875D01*
X37325Y-53875D01*
X37325Y-54025D01*
X36956Y-54025D01*
X36900Y-54081D01*
X36899Y-54269D01*
X36934Y-54352D01*
X36997Y-54415D01*
X37080Y-54449D01*
X37169Y-54450D01*
X37268Y-54450D01*
X37325Y-54393D01*
X37325Y-55145D01*
X37280Y-55145D01*
X36754Y-54619D01*
X36754Y-30380D01*
X37880Y-29254D01*
X61819Y-29254D01*
X62275Y-29710D01*
X62275Y-29900D01*
X62275Y-30200D01*
X62275Y-54889D01*
X62275Y-54889D01*
G37*
G54D28*
X62275Y-54889D02*
X62019Y-55145D01*
X61814Y-55145D01*
X61814Y-33563D01*
X61814Y-29636D01*
X61814Y-29547D01*
X61780Y-29464D01*
X61717Y-29401D01*
X61634Y-29367D01*
X61032Y-29367D01*
X60975Y-29423D01*
X60975Y-31525D01*
X61758Y-31525D01*
X61814Y-31468D01*
X61814Y-29636D01*
X61814Y-33563D01*
X61814Y-31731D01*
X61758Y-31675D01*
X60975Y-31675D01*
X60975Y-33776D01*
X61032Y-33832D01*
X61634Y-33832D01*
X61717Y-33798D01*
X61780Y-33735D01*
X61814Y-33652D01*
X61814Y-33563D01*
X61814Y-55145D01*
X61724Y-55145D01*
X61724Y-54231D01*
X61724Y-50215D01*
X61724Y-48931D01*
X61724Y-44915D01*
X61724Y-43631D01*
X61724Y-39615D01*
X61724Y-38331D01*
X61724Y-34315D01*
X61704Y-34265D01*
X61666Y-34227D01*
X61616Y-34207D01*
X61563Y-34207D01*
X60825Y-34207D01*
X60825Y-33776D01*
X60825Y-31675D01*
X60825Y-31525D01*
X60825Y-29423D01*
X60769Y-29367D01*
X60167Y-29367D01*
X60084Y-29401D01*
X60021Y-29464D01*
X59986Y-29547D01*
X59986Y-29636D01*
X59986Y-31468D01*
X60043Y-31525D01*
X60825Y-31525D01*
X60825Y-31675D01*
X60043Y-31675D01*
X59986Y-31731D01*
X59986Y-33563D01*
X59986Y-33652D01*
X60021Y-33735D01*
X60084Y-33798D01*
X60167Y-33832D01*
X60769Y-33832D01*
X60825Y-33776D01*
X60825Y-34207D01*
X60185Y-34207D01*
X60135Y-34227D01*
X60097Y-34265D01*
X60076Y-34315D01*
X60076Y-34368D01*
X60076Y-36700D01*
X59462Y-37314D01*
X58928Y-37314D01*
X58928Y-36716D01*
X58928Y-35929D01*
X58928Y-34118D01*
X58908Y-34068D01*
X58870Y-34030D01*
X58820Y-34010D01*
X58766Y-34010D01*
X57979Y-34010D01*
X57929Y-34030D01*
X57891Y-34068D01*
X57871Y-34118D01*
X57871Y-34172D01*
X57871Y-35983D01*
X57891Y-36032D01*
X57929Y-36070D01*
X57979Y-36091D01*
X58033Y-36091D01*
X58820Y-36091D01*
X58870Y-36070D01*
X58908Y-36032D01*
X58928Y-35983D01*
X58928Y-35929D01*
X58928Y-36716D01*
X58908Y-36667D01*
X58870Y-36629D01*
X58820Y-36608D01*
X58766Y-36608D01*
X57979Y-36608D01*
X57929Y-36629D01*
X57891Y-36667D01*
X57871Y-36716D01*
X57871Y-36770D01*
X57871Y-37690D01*
X56706Y-37690D01*
X56671Y-37654D01*
X56660Y-37650D01*
X56671Y-37645D01*
X56709Y-37607D01*
X56729Y-37557D01*
X56730Y-37504D01*
X56730Y-36992D01*
X56709Y-36942D01*
X56671Y-36904D01*
X56621Y-36884D01*
X56568Y-36883D01*
X56382Y-36883D01*
X56182Y-36683D01*
X56074Y-36611D01*
X55945Y-36585D01*
X55810Y-36585D01*
X55770Y-36569D01*
X55716Y-36569D01*
X54929Y-36569D01*
X54879Y-36589D01*
X54841Y-36627D01*
X54821Y-36677D01*
X54821Y-36731D01*
X54821Y-36975D01*
X54463Y-37333D01*
X54409Y-37414D01*
X53673Y-37414D01*
X53623Y-37435D01*
X53585Y-37473D01*
X53565Y-37523D01*
X53564Y-37576D01*
X53564Y-38176D01*
X53585Y-38226D01*
X53623Y-38264D01*
X53673Y-38284D01*
X53726Y-38285D01*
X55726Y-38285D01*
X55776Y-38264D01*
X55814Y-38226D01*
X55834Y-38176D01*
X55835Y-38123D01*
X55835Y-37523D01*
X55814Y-37473D01*
X55776Y-37435D01*
X55726Y-37415D01*
X55673Y-37414D01*
X55329Y-37414D01*
X55472Y-37272D01*
X55770Y-37272D01*
X55808Y-37256D01*
X55869Y-37318D01*
X55869Y-37557D01*
X55890Y-37607D01*
X55928Y-37645D01*
X55939Y-37649D01*
X55928Y-37654D01*
X55890Y-37692D01*
X55870Y-37742D01*
X55869Y-37795D01*
X55869Y-38307D01*
X55890Y-38357D01*
X55928Y-38395D01*
X55978Y-38415D01*
X56031Y-38416D01*
X56621Y-38416D01*
X56671Y-38395D01*
X56706Y-38360D01*
X57871Y-38360D01*
X57871Y-38581D01*
X57891Y-38631D01*
X57929Y-38669D01*
X57979Y-38689D01*
X58033Y-38689D01*
X58820Y-38689D01*
X58870Y-38669D01*
X58908Y-38631D01*
X58928Y-38581D01*
X58928Y-38527D01*
X58928Y-37984D01*
X59601Y-37984D01*
X59729Y-37958D01*
X59729Y-37958D01*
X59838Y-37886D01*
X60076Y-37647D01*
X60076Y-38384D01*
X60097Y-38434D01*
X60135Y-38472D01*
X60184Y-38492D01*
X60238Y-38492D01*
X61616Y-38492D01*
X61666Y-38472D01*
X61704Y-38434D01*
X61724Y-38384D01*
X61724Y-38331D01*
X61724Y-39615D01*
X61704Y-39565D01*
X61666Y-39527D01*
X61616Y-39507D01*
X61563Y-39507D01*
X60185Y-39507D01*
X60135Y-39527D01*
X60097Y-39565D01*
X60076Y-39615D01*
X60076Y-39668D01*
X60076Y-42000D01*
X59462Y-42614D01*
X58928Y-42614D01*
X58928Y-42016D01*
X58928Y-41229D01*
X58928Y-39418D01*
X58908Y-39368D01*
X58870Y-39330D01*
X58820Y-39310D01*
X58766Y-39310D01*
X57979Y-39310D01*
X57929Y-39330D01*
X57891Y-39368D01*
X57871Y-39418D01*
X57871Y-39472D01*
X57871Y-41283D01*
X57891Y-41332D01*
X57929Y-41370D01*
X57979Y-41391D01*
X58033Y-41391D01*
X58820Y-41391D01*
X58870Y-41370D01*
X58908Y-41332D01*
X58928Y-41283D01*
X58928Y-41229D01*
X58928Y-42016D01*
X58908Y-41967D01*
X58870Y-41929D01*
X58820Y-41908D01*
X58766Y-41908D01*
X57979Y-41908D01*
X57929Y-41929D01*
X57891Y-41967D01*
X57871Y-42016D01*
X57871Y-42070D01*
X57871Y-42990D01*
X56820Y-42990D01*
X56820Y-40275D01*
X56820Y-39674D01*
X56785Y-39591D01*
X56722Y-39528D01*
X56639Y-39494D01*
X56550Y-39493D01*
X56431Y-39494D01*
X56375Y-39550D01*
X56375Y-39900D01*
X56763Y-39900D01*
X56820Y-39843D01*
X56820Y-39674D01*
X56820Y-40275D01*
X56820Y-40106D01*
X56763Y-40050D01*
X56375Y-40050D01*
X56375Y-40057D01*
X56225Y-40057D01*
X56225Y-40050D01*
X56217Y-40050D01*
X56217Y-39900D01*
X56225Y-39900D01*
X56225Y-39550D01*
X56168Y-39494D01*
X56049Y-39493D01*
X55960Y-39494D01*
X55877Y-39528D01*
X55814Y-39591D01*
X55779Y-39674D01*
X55779Y-39739D01*
X55776Y-39735D01*
X55726Y-39715D01*
X55673Y-39714D01*
X53673Y-39714D01*
X53623Y-39735D01*
X53585Y-39773D01*
X53565Y-39823D01*
X53564Y-39876D01*
X53564Y-40476D01*
X53585Y-40526D01*
X53623Y-40564D01*
X53673Y-40584D01*
X53726Y-40585D01*
X55726Y-40585D01*
X55776Y-40564D01*
X55814Y-40526D01*
X55834Y-40476D01*
X55835Y-40423D01*
X55835Y-40379D01*
X55877Y-40421D01*
X55878Y-40422D01*
X55870Y-40442D01*
X55869Y-40495D01*
X55869Y-40681D01*
X55808Y-40743D01*
X55770Y-40727D01*
X55716Y-40727D01*
X54929Y-40727D01*
X54889Y-40744D01*
X53720Y-40744D01*
X53592Y-40769D01*
X53483Y-40842D01*
X51511Y-42815D01*
X50831Y-42815D01*
X50814Y-42773D01*
X50776Y-42735D01*
X50726Y-42715D01*
X50673Y-42714D01*
X48673Y-42714D01*
X48623Y-42735D01*
X48585Y-42773D01*
X48565Y-42823D01*
X48564Y-42876D01*
X48564Y-43476D01*
X48585Y-43526D01*
X48623Y-43564D01*
X48673Y-43584D01*
X48726Y-43585D01*
X49661Y-43585D01*
X49685Y-43609D01*
X49685Y-43839D01*
X49669Y-43879D01*
X49669Y-43933D01*
X49669Y-44720D01*
X49689Y-44770D01*
X49727Y-44808D01*
X49777Y-44828D01*
X49831Y-44828D01*
X50264Y-44828D01*
X50313Y-44808D01*
X50351Y-44770D01*
X50372Y-44720D01*
X50372Y-44666D01*
X50372Y-43879D01*
X50355Y-43839D01*
X50355Y-43585D01*
X50726Y-43585D01*
X50776Y-43564D01*
X50814Y-43526D01*
X50831Y-43485D01*
X51650Y-43485D01*
X51778Y-43459D01*
X51778Y-43459D01*
X51886Y-43386D01*
X53859Y-41414D01*
X54889Y-41414D01*
X54929Y-41430D01*
X54983Y-41430D01*
X55770Y-41430D01*
X55810Y-41414D01*
X55945Y-41414D01*
X56074Y-41388D01*
X56074Y-41388D01*
X56182Y-41316D01*
X56382Y-41116D01*
X56621Y-41116D01*
X56671Y-41095D01*
X56709Y-41057D01*
X56729Y-41007D01*
X56730Y-40954D01*
X56730Y-40442D01*
X56721Y-40422D01*
X56722Y-40421D01*
X56785Y-40358D01*
X56820Y-40275D01*
X56820Y-42990D01*
X56706Y-42990D01*
X56671Y-42954D01*
X56660Y-42950D01*
X56671Y-42945D01*
X56709Y-42907D01*
X56729Y-42857D01*
X56730Y-42804D01*
X56730Y-42292D01*
X56709Y-42242D01*
X56671Y-42204D01*
X56621Y-42184D01*
X56568Y-42183D01*
X56382Y-42183D01*
X56182Y-41983D01*
X56074Y-41911D01*
X55945Y-41885D01*
X55810Y-41885D01*
X55770Y-41869D01*
X55716Y-41869D01*
X54929Y-41869D01*
X54879Y-41889D01*
X54841Y-41927D01*
X54821Y-41977D01*
X54821Y-42031D01*
X54821Y-42275D01*
X54463Y-42633D01*
X54409Y-42714D01*
X53673Y-42714D01*
X53623Y-42735D01*
X53585Y-42773D01*
X53565Y-42823D01*
X53564Y-42876D01*
X53564Y-43476D01*
X53585Y-43526D01*
X53623Y-43564D01*
X53673Y-43584D01*
X53726Y-43585D01*
X55726Y-43585D01*
X55776Y-43564D01*
X55814Y-43526D01*
X55834Y-43476D01*
X55835Y-43423D01*
X55835Y-42823D01*
X55814Y-42773D01*
X55776Y-42735D01*
X55726Y-42715D01*
X55673Y-42714D01*
X55329Y-42714D01*
X55472Y-42572D01*
X55770Y-42572D01*
X55808Y-42556D01*
X55869Y-42618D01*
X55869Y-42857D01*
X55890Y-42907D01*
X55928Y-42945D01*
X55939Y-42949D01*
X55928Y-42954D01*
X55890Y-42992D01*
X55870Y-43042D01*
X55869Y-43095D01*
X55869Y-43607D01*
X55890Y-43657D01*
X55928Y-43695D01*
X55978Y-43715D01*
X56031Y-43716D01*
X56621Y-43716D01*
X56671Y-43695D01*
X56706Y-43660D01*
X57871Y-43660D01*
X57871Y-43881D01*
X57891Y-43931D01*
X57929Y-43969D01*
X57979Y-43989D01*
X58033Y-43989D01*
X58820Y-43989D01*
X58870Y-43969D01*
X58908Y-43931D01*
X58928Y-43881D01*
X58928Y-43827D01*
X58928Y-43284D01*
X59601Y-43284D01*
X59729Y-43258D01*
X59729Y-43258D01*
X59838Y-43186D01*
X60076Y-42947D01*
X60076Y-43684D01*
X60097Y-43734D01*
X60135Y-43772D01*
X60184Y-43792D01*
X60238Y-43792D01*
X61616Y-43792D01*
X61666Y-43772D01*
X61704Y-43734D01*
X61724Y-43684D01*
X61724Y-43631D01*
X61724Y-44915D01*
X61704Y-44865D01*
X61666Y-44827D01*
X61616Y-44807D01*
X61563Y-44807D01*
X60185Y-44807D01*
X60135Y-44827D01*
X60097Y-44865D01*
X60076Y-44915D01*
X60076Y-44968D01*
X60076Y-45652D01*
X59838Y-45413D01*
X59729Y-45341D01*
X59601Y-45315D01*
X58928Y-45315D01*
X58928Y-44718D01*
X58908Y-44668D01*
X58870Y-44630D01*
X58820Y-44610D01*
X58766Y-44610D01*
X57979Y-44610D01*
X57929Y-44630D01*
X57891Y-44668D01*
X57871Y-44718D01*
X57871Y-44772D01*
X57871Y-44940D01*
X56706Y-44940D01*
X56671Y-44904D01*
X56621Y-44884D01*
X56568Y-44883D01*
X55978Y-44883D01*
X55928Y-44904D01*
X55890Y-44942D01*
X55870Y-44992D01*
X55869Y-45045D01*
X55869Y-45557D01*
X55890Y-45607D01*
X55928Y-45645D01*
X55939Y-45649D01*
X55928Y-45654D01*
X55890Y-45692D01*
X55870Y-45742D01*
X55869Y-45795D01*
X55869Y-45981D01*
X55835Y-46016D01*
X55835Y-45723D01*
X55835Y-45123D01*
X55814Y-45073D01*
X55776Y-45035D01*
X55726Y-45015D01*
X55673Y-45014D01*
X53673Y-45014D01*
X53623Y-45035D01*
X53585Y-45073D01*
X53565Y-45123D01*
X53564Y-45176D01*
X53564Y-45776D01*
X53585Y-45826D01*
X53623Y-45864D01*
X53673Y-45884D01*
X53726Y-45885D01*
X55726Y-45885D01*
X55776Y-45864D01*
X55814Y-45826D01*
X55834Y-45776D01*
X55835Y-45723D01*
X55835Y-46016D01*
X55808Y-46043D01*
X55770Y-46027D01*
X55716Y-46027D01*
X54929Y-46027D01*
X54889Y-46044D01*
X53720Y-46044D01*
X53592Y-46069D01*
X53483Y-46142D01*
X51511Y-48115D01*
X50831Y-48115D01*
X50814Y-48073D01*
X50776Y-48035D01*
X50726Y-48015D01*
X50673Y-48014D01*
X49738Y-48014D01*
X49683Y-47959D01*
X49574Y-47886D01*
X49446Y-47861D01*
X48165Y-47861D01*
X47954Y-47650D01*
X47905Y-47629D01*
X47851Y-47629D01*
X47838Y-47635D01*
X48436Y-47036D01*
X48509Y-46928D01*
X48509Y-46928D01*
X48534Y-46800D01*
X48535Y-46800D01*
X48535Y-46138D01*
X48575Y-46098D01*
X48565Y-46123D01*
X48564Y-46176D01*
X48564Y-46776D01*
X48585Y-46826D01*
X48623Y-46864D01*
X48673Y-46884D01*
X48726Y-46885D01*
X50726Y-46885D01*
X50776Y-46864D01*
X50814Y-46826D01*
X50834Y-46776D01*
X50834Y-46768D01*
X50878Y-46759D01*
X50878Y-46759D01*
X50986Y-46686D01*
X51336Y-46336D01*
X51409Y-46228D01*
X51434Y-46100D01*
X51409Y-45971D01*
X51336Y-45863D01*
X51228Y-45790D01*
X51099Y-45765D01*
X50971Y-45790D01*
X50863Y-45863D01*
X50711Y-46015D01*
X50673Y-46014D01*
X48673Y-46014D01*
X48648Y-46025D01*
X48788Y-45885D01*
X50726Y-45885D01*
X50776Y-45864D01*
X50814Y-45826D01*
X50834Y-45776D01*
X50835Y-45723D01*
X50835Y-45123D01*
X50814Y-45073D01*
X50776Y-45035D01*
X50726Y-45015D01*
X50673Y-45014D01*
X48673Y-45014D01*
X48623Y-45035D01*
X48585Y-45073D01*
X48565Y-45123D01*
X48564Y-45176D01*
X48564Y-45178D01*
X48535Y-45198D01*
X48535Y-44938D01*
X48645Y-44828D01*
X48689Y-44828D01*
X49122Y-44828D01*
X49172Y-44808D01*
X49210Y-44770D01*
X49230Y-44720D01*
X49230Y-44666D01*
X49230Y-43879D01*
X49210Y-43829D01*
X49172Y-43791D01*
X49122Y-43771D01*
X49068Y-43771D01*
X48635Y-43771D01*
X48586Y-43791D01*
X48548Y-43829D01*
X48535Y-43861D01*
X48535Y-40838D01*
X48575Y-40798D01*
X48565Y-40823D01*
X48564Y-40876D01*
X48564Y-41476D01*
X48585Y-41526D01*
X48623Y-41564D01*
X48673Y-41584D01*
X48726Y-41585D01*
X50726Y-41585D01*
X50776Y-41564D01*
X50814Y-41526D01*
X50831Y-41485D01*
X50850Y-41485D01*
X50978Y-41459D01*
X50978Y-41459D01*
X51086Y-41386D01*
X51336Y-41136D01*
X51409Y-41028D01*
X51434Y-40900D01*
X51409Y-40771D01*
X51336Y-40663D01*
X51228Y-40590D01*
X51100Y-40565D01*
X50971Y-40590D01*
X50863Y-40663D01*
X50783Y-40742D01*
X50776Y-40735D01*
X50726Y-40715D01*
X50673Y-40714D01*
X48673Y-40714D01*
X48648Y-40725D01*
X48788Y-40585D01*
X50726Y-40585D01*
X50776Y-40564D01*
X50814Y-40526D01*
X50834Y-40476D01*
X50835Y-40423D01*
X50835Y-39823D01*
X50814Y-39773D01*
X50776Y-39735D01*
X50726Y-39715D01*
X50673Y-39714D01*
X48673Y-39714D01*
X48623Y-39735D01*
X48585Y-39773D01*
X48565Y-39823D01*
X48564Y-39876D01*
X48564Y-39878D01*
X48535Y-39898D01*
X48535Y-39638D01*
X48645Y-39528D01*
X48689Y-39528D01*
X49122Y-39528D01*
X49172Y-39508D01*
X49210Y-39470D01*
X49230Y-39420D01*
X49230Y-39366D01*
X49230Y-38579D01*
X49210Y-38529D01*
X49172Y-38491D01*
X49122Y-38471D01*
X49068Y-38471D01*
X48635Y-38471D01*
X48586Y-38491D01*
X48548Y-38529D01*
X48535Y-38561D01*
X48535Y-35538D01*
X48575Y-35498D01*
X48565Y-35523D01*
X48564Y-35576D01*
X48564Y-36176D01*
X48585Y-36226D01*
X48623Y-36264D01*
X48673Y-36284D01*
X48726Y-36285D01*
X50711Y-36285D01*
X50763Y-36336D01*
X50871Y-36409D01*
X51000Y-36434D01*
X51128Y-36409D01*
X51236Y-36336D01*
X51309Y-36228D01*
X51318Y-36185D01*
X51850Y-36185D01*
X51978Y-36159D01*
X51978Y-36159D01*
X52086Y-36086D01*
X53564Y-34608D01*
X53564Y-35176D01*
X53585Y-35226D01*
X53623Y-35264D01*
X53673Y-35284D01*
X53726Y-35285D01*
X55726Y-35285D01*
X55776Y-35264D01*
X55814Y-35226D01*
X55834Y-35176D01*
X55835Y-35123D01*
X55835Y-35079D01*
X55877Y-35121D01*
X55878Y-35122D01*
X55870Y-35142D01*
X55869Y-35195D01*
X55869Y-35381D01*
X55808Y-35443D01*
X55770Y-35427D01*
X55716Y-35427D01*
X54929Y-35427D01*
X54889Y-35444D01*
X53720Y-35444D01*
X53592Y-35469D01*
X53483Y-35542D01*
X51511Y-37515D01*
X50831Y-37515D01*
X50814Y-37473D01*
X50776Y-37435D01*
X50726Y-37415D01*
X50673Y-37414D01*
X48673Y-37414D01*
X48623Y-37435D01*
X48585Y-37473D01*
X48565Y-37523D01*
X48564Y-37576D01*
X48564Y-38176D01*
X48585Y-38226D01*
X48623Y-38264D01*
X48673Y-38284D01*
X48726Y-38285D01*
X49661Y-38285D01*
X49685Y-38309D01*
X49685Y-38539D01*
X49669Y-38579D01*
X49669Y-38633D01*
X49669Y-39420D01*
X49689Y-39470D01*
X49727Y-39508D01*
X49777Y-39528D01*
X49831Y-39528D01*
X50264Y-39528D01*
X50313Y-39508D01*
X50351Y-39470D01*
X50372Y-39420D01*
X50372Y-39366D01*
X50372Y-38579D01*
X50355Y-38539D01*
X50355Y-38285D01*
X50726Y-38285D01*
X50776Y-38264D01*
X50814Y-38226D01*
X50831Y-38185D01*
X51650Y-38185D01*
X51778Y-38159D01*
X51778Y-38159D01*
X51886Y-38086D01*
X53859Y-36114D01*
X54889Y-36114D01*
X54929Y-36130D01*
X54983Y-36130D01*
X55770Y-36130D01*
X55810Y-36114D01*
X55945Y-36114D01*
X56074Y-36088D01*
X56074Y-36088D01*
X56182Y-36016D01*
X56382Y-35816D01*
X56621Y-35816D01*
X56671Y-35795D01*
X56709Y-35757D01*
X56729Y-35707D01*
X56730Y-35654D01*
X56730Y-35142D01*
X56721Y-35122D01*
X56722Y-35121D01*
X56785Y-35058D01*
X56820Y-34975D01*
X56820Y-34374D01*
X56785Y-34291D01*
X56722Y-34228D01*
X56639Y-34194D01*
X56550Y-34193D01*
X56431Y-34194D01*
X56375Y-34250D01*
X56375Y-34600D01*
X56763Y-34600D01*
X56820Y-34543D01*
X56820Y-34374D01*
X56820Y-34975D01*
X56820Y-34806D01*
X56763Y-34750D01*
X56375Y-34750D01*
X56375Y-34757D01*
X56225Y-34757D01*
X56225Y-34750D01*
X56217Y-34750D01*
X56217Y-34600D01*
X56225Y-34600D01*
X56225Y-34250D01*
X56168Y-34194D01*
X56049Y-34193D01*
X55960Y-34194D01*
X55877Y-34228D01*
X55814Y-34291D01*
X55779Y-34374D01*
X55779Y-34439D01*
X55776Y-34435D01*
X55726Y-34415D01*
X55673Y-34414D01*
X55058Y-34414D01*
X55745Y-33728D01*
X55964Y-33728D01*
X56013Y-33708D01*
X56051Y-33670D01*
X56072Y-33620D01*
X56072Y-33566D01*
X56072Y-33322D01*
X56136Y-33257D01*
X56209Y-33149D01*
X56209Y-33149D01*
X56235Y-33020D01*
X56235Y-32210D01*
X56271Y-32195D01*
X56309Y-32157D01*
X56329Y-32107D01*
X56330Y-32054D01*
X56330Y-31542D01*
X56309Y-31492D01*
X56271Y-31454D01*
X56260Y-31450D01*
X56271Y-31445D01*
X56309Y-31407D01*
X56329Y-31357D01*
X56330Y-31304D01*
X56330Y-30792D01*
X56309Y-30742D01*
X56271Y-30704D01*
X56221Y-30684D01*
X56168Y-30683D01*
X55578Y-30683D01*
X55528Y-30704D01*
X55490Y-30742D01*
X55470Y-30792D01*
X55469Y-30845D01*
X55469Y-30865D01*
X55239Y-30865D01*
X55239Y-30779D01*
X55219Y-30729D01*
X55181Y-30691D01*
X55131Y-30671D01*
X55077Y-30671D01*
X54144Y-30671D01*
X53436Y-29963D01*
X53327Y-29890D01*
X53199Y-29865D01*
X49910Y-29865D01*
X49895Y-29828D01*
X49857Y-29790D01*
X49807Y-29770D01*
X49754Y-29769D01*
X49242Y-29769D01*
X49192Y-29790D01*
X49154Y-29828D01*
X49150Y-29839D01*
X49145Y-29828D01*
X49107Y-29790D01*
X49057Y-29770D01*
X49004Y-29769D01*
X48492Y-29769D01*
X48442Y-29790D01*
X48404Y-29828D01*
X48384Y-29878D01*
X48383Y-29931D01*
X48383Y-30117D01*
X47707Y-30794D01*
X47610Y-30794D01*
X47570Y-30777D01*
X47516Y-30777D01*
X47229Y-30777D01*
X47109Y-30753D01*
X46155Y-30753D01*
X46124Y-30678D01*
X45920Y-30474D01*
X45654Y-30363D01*
X45365Y-30363D01*
X45098Y-30473D01*
X44894Y-30677D01*
X44783Y-30943D01*
X44783Y-31232D01*
X44893Y-31499D01*
X45097Y-31703D01*
X45364Y-31814D01*
X45652Y-31814D01*
X45919Y-31704D01*
X46123Y-31500D01*
X46155Y-31423D01*
X46643Y-31423D01*
X46679Y-31460D01*
X46729Y-31480D01*
X46783Y-31480D01*
X47570Y-31480D01*
X47610Y-31464D01*
X47845Y-31464D01*
X47974Y-31438D01*
X47974Y-31438D01*
X48082Y-31366D01*
X48818Y-30630D01*
X49057Y-30630D01*
X49107Y-30609D01*
X49145Y-30571D01*
X49149Y-30560D01*
X49154Y-30571D01*
X49192Y-30609D01*
X49242Y-30629D01*
X49295Y-30630D01*
X49807Y-30630D01*
X49857Y-30609D01*
X49895Y-30571D01*
X49910Y-30535D01*
X53060Y-30535D01*
X53217Y-30691D01*
X53179Y-30729D01*
X53158Y-30779D01*
X53158Y-30833D01*
X53158Y-31620D01*
X53179Y-31670D01*
X53217Y-31708D01*
X53266Y-31728D01*
X53320Y-31728D01*
X55131Y-31728D01*
X55181Y-31708D01*
X55219Y-31670D01*
X55239Y-31620D01*
X55239Y-31566D01*
X55239Y-31535D01*
X55472Y-31535D01*
X55470Y-31542D01*
X55469Y-31595D01*
X55469Y-32107D01*
X55490Y-32157D01*
X55528Y-32195D01*
X55565Y-32210D01*
X55565Y-32671D01*
X55477Y-32671D01*
X55427Y-32691D01*
X55389Y-32729D01*
X55369Y-32779D01*
X55369Y-32833D01*
X55369Y-33156D01*
X54930Y-33595D01*
X54930Y-33566D01*
X54930Y-32779D01*
X54910Y-32729D01*
X54872Y-32691D01*
X54822Y-32671D01*
X54768Y-32671D01*
X54335Y-32671D01*
X54286Y-32691D01*
X54248Y-32729D01*
X54227Y-32779D01*
X54227Y-32833D01*
X54227Y-33015D01*
X53460Y-33015D01*
X53445Y-32978D01*
X53407Y-32940D01*
X53357Y-32920D01*
X53304Y-32919D01*
X52792Y-32919D01*
X52742Y-32940D01*
X52704Y-32978D01*
X52700Y-32989D01*
X52695Y-32978D01*
X52657Y-32940D01*
X52607Y-32920D01*
X52554Y-32919D01*
X52368Y-32919D01*
X51935Y-32487D01*
X51935Y-31728D01*
X52533Y-31728D01*
X52582Y-31708D01*
X52620Y-31670D01*
X52641Y-31620D01*
X52641Y-31566D01*
X52641Y-30779D01*
X52620Y-30729D01*
X52582Y-30691D01*
X52533Y-30671D01*
X52479Y-30671D01*
X50668Y-30671D01*
X50618Y-30691D01*
X50580Y-30729D01*
X50560Y-30779D01*
X50560Y-30833D01*
X50560Y-31620D01*
X50580Y-31670D01*
X50618Y-31708D01*
X50618Y-31708D01*
X50462Y-31865D01*
X49910Y-31865D01*
X49895Y-31828D01*
X49857Y-31790D01*
X49807Y-31770D01*
X49754Y-31769D01*
X49242Y-31769D01*
X49192Y-31790D01*
X49154Y-31828D01*
X49150Y-31839D01*
X49145Y-31828D01*
X49107Y-31790D01*
X49057Y-31770D01*
X49004Y-31769D01*
X48492Y-31769D01*
X48442Y-31790D01*
X48404Y-31828D01*
X48384Y-31878D01*
X48383Y-31931D01*
X48383Y-31935D01*
X47610Y-31935D01*
X47570Y-31919D01*
X47516Y-31919D01*
X46729Y-31919D01*
X46689Y-31935D01*
X38956Y-31935D01*
X38329Y-31309D01*
X38360Y-31233D01*
X38360Y-30945D01*
X38250Y-30678D01*
X38046Y-30474D01*
X37780Y-30363D01*
X37491Y-30363D01*
X37224Y-30473D01*
X37020Y-30677D01*
X36909Y-30943D01*
X36909Y-31232D01*
X37019Y-31499D01*
X37223Y-31703D01*
X37490Y-31814D01*
X37778Y-31814D01*
X37855Y-31782D01*
X38580Y-32507D01*
X38689Y-32580D01*
X38689Y-32580D01*
X38817Y-32605D01*
X46689Y-32605D01*
X46729Y-32622D01*
X46783Y-32622D01*
X47570Y-32622D01*
X47610Y-32605D01*
X48438Y-32605D01*
X48442Y-32609D01*
X48492Y-32629D01*
X48545Y-32630D01*
X48996Y-32630D01*
X48261Y-33365D01*
X47822Y-33365D01*
X47822Y-33279D01*
X47801Y-33229D01*
X47763Y-33191D01*
X47714Y-33171D01*
X47660Y-33171D01*
X47227Y-33171D01*
X47177Y-33191D01*
X47139Y-33229D01*
X47119Y-33279D01*
X47119Y-33333D01*
X47119Y-34120D01*
X47139Y-34170D01*
X47177Y-34208D01*
X47227Y-34228D01*
X47281Y-34228D01*
X47714Y-34228D01*
X47763Y-34208D01*
X47801Y-34170D01*
X47822Y-34120D01*
X47822Y-34066D01*
X47822Y-34035D01*
X48400Y-34035D01*
X48528Y-34009D01*
X48528Y-34009D01*
X48636Y-33936D01*
X49761Y-32811D01*
X49834Y-32703D01*
X49834Y-32703D01*
X49852Y-32611D01*
X49857Y-32609D01*
X49895Y-32571D01*
X49910Y-32535D01*
X50600Y-32535D01*
X50728Y-32509D01*
X50728Y-32509D01*
X50837Y-32436D01*
X51265Y-32008D01*
X51265Y-32625D01*
X51291Y-32753D01*
X51363Y-32862D01*
X51933Y-33432D01*
X51933Y-33671D01*
X51954Y-33721D01*
X51992Y-33759D01*
X52042Y-33779D01*
X52095Y-33780D01*
X52607Y-33780D01*
X52657Y-33759D01*
X52695Y-33721D01*
X52699Y-33710D01*
X52704Y-33721D01*
X52704Y-33721D01*
X51911Y-34515D01*
X50831Y-34515D01*
X50814Y-34473D01*
X50776Y-34435D01*
X50726Y-34415D01*
X50673Y-34414D01*
X48673Y-34414D01*
X48623Y-34435D01*
X48585Y-34473D01*
X48565Y-34523D01*
X48564Y-34576D01*
X48564Y-34578D01*
X48513Y-34613D01*
X47963Y-35163D01*
X47890Y-35271D01*
X47865Y-35400D01*
X47865Y-39400D01*
X47865Y-39500D01*
X47865Y-40700D01*
X47865Y-44700D01*
X47865Y-44800D01*
X47865Y-46000D01*
X47865Y-46661D01*
X46963Y-47563D01*
X46959Y-47566D01*
X46680Y-47845D01*
X46680Y-34066D01*
X46680Y-33279D01*
X46660Y-33229D01*
X46622Y-33191D01*
X46572Y-33171D01*
X46518Y-33171D01*
X46085Y-33171D01*
X46036Y-33191D01*
X45998Y-33229D01*
X45977Y-33279D01*
X45977Y-33333D01*
X45977Y-34120D01*
X45994Y-34160D01*
X45994Y-36882D01*
X37163Y-45713D01*
X37090Y-45821D01*
X37065Y-45950D01*
X37065Y-51705D01*
X37052Y-51717D01*
X36990Y-51868D01*
X36989Y-52031D01*
X37052Y-52181D01*
X37167Y-52297D01*
X37318Y-52359D01*
X37481Y-52360D01*
X37631Y-52297D01*
X37747Y-52182D01*
X37809Y-52031D01*
X37810Y-51868D01*
X37747Y-51718D01*
X37735Y-51705D01*
X37735Y-46088D01*
X46566Y-37257D01*
X46566Y-37257D01*
X46614Y-37185D01*
X46638Y-37149D01*
X46638Y-37149D01*
X46664Y-37020D01*
X46664Y-37020D01*
X46664Y-34160D01*
X46680Y-34120D01*
X46680Y-34066D01*
X46680Y-47845D01*
X45963Y-48563D01*
X45890Y-48671D01*
X45865Y-48800D01*
X45865Y-52200D01*
X45890Y-52328D01*
X45963Y-52436D01*
X46360Y-52834D01*
X46300Y-52895D01*
X46279Y-52944D01*
X46279Y-52998D01*
X46300Y-53047D01*
X46338Y-53085D01*
X46644Y-53392D01*
X46694Y-53412D01*
X46747Y-53412D01*
X46797Y-53392D01*
X46835Y-53354D01*
X47392Y-52797D01*
X47408Y-52757D01*
X48564Y-51601D01*
X48564Y-52076D01*
X48585Y-52126D01*
X48623Y-52164D01*
X48673Y-52184D01*
X48726Y-52185D01*
X50726Y-52185D01*
X50776Y-52164D01*
X50814Y-52126D01*
X50831Y-52085D01*
X50850Y-52085D01*
X50978Y-52059D01*
X50978Y-52059D01*
X51086Y-51986D01*
X51336Y-51736D01*
X51409Y-51628D01*
X51434Y-51500D01*
X51409Y-51371D01*
X51336Y-51263D01*
X51228Y-51190D01*
X51100Y-51165D01*
X50971Y-51190D01*
X50863Y-51263D01*
X50783Y-51342D01*
X50776Y-51335D01*
X50726Y-51315D01*
X50673Y-51314D01*
X48851Y-51314D01*
X48981Y-51185D01*
X50726Y-51185D01*
X50776Y-51164D01*
X50814Y-51126D01*
X50834Y-51076D01*
X50835Y-51023D01*
X50835Y-50423D01*
X50814Y-50373D01*
X50776Y-50335D01*
X50726Y-50315D01*
X50673Y-50314D01*
X49187Y-50314D01*
X49187Y-49449D01*
X49077Y-49182D01*
X48873Y-48977D01*
X48606Y-48867D01*
X48318Y-48867D01*
X48051Y-48977D01*
X47847Y-49181D01*
X47736Y-49447D01*
X47736Y-49736D01*
X47846Y-50003D01*
X48050Y-50207D01*
X48317Y-50318D01*
X48605Y-50318D01*
X48872Y-50208D01*
X49076Y-50004D01*
X49187Y-49737D01*
X49187Y-49449D01*
X49187Y-50314D01*
X48673Y-50314D01*
X48623Y-50335D01*
X48585Y-50373D01*
X48565Y-50423D01*
X48564Y-50476D01*
X48564Y-50653D01*
X46935Y-52283D01*
X46895Y-52300D01*
X46857Y-52338D01*
X46834Y-52360D01*
X46535Y-52061D01*
X46535Y-48938D01*
X46635Y-48838D01*
X46629Y-48851D01*
X46629Y-48905D01*
X46650Y-48954D01*
X46688Y-48992D01*
X47245Y-49549D01*
X47294Y-49570D01*
X47348Y-49570D01*
X47397Y-49549D01*
X47435Y-49511D01*
X47742Y-49205D01*
X47762Y-49155D01*
X47762Y-49102D01*
X47742Y-49052D01*
X47704Y-49014D01*
X47531Y-48841D01*
X47531Y-48221D01*
X48052Y-48742D01*
X48101Y-48762D01*
X48155Y-48762D01*
X48205Y-48742D01*
X48243Y-48704D01*
X48416Y-48531D01*
X48564Y-48531D01*
X48564Y-48776D01*
X48585Y-48826D01*
X48623Y-48864D01*
X48673Y-48884D01*
X48726Y-48885D01*
X50726Y-48885D01*
X50776Y-48864D01*
X50814Y-48826D01*
X50831Y-48785D01*
X51650Y-48785D01*
X51778Y-48759D01*
X51778Y-48759D01*
X51886Y-48686D01*
X53859Y-46714D01*
X54889Y-46714D01*
X54929Y-46730D01*
X54983Y-46730D01*
X55770Y-46730D01*
X55810Y-46714D01*
X55945Y-46714D01*
X56074Y-46688D01*
X56074Y-46688D01*
X56182Y-46616D01*
X56382Y-46416D01*
X56621Y-46416D01*
X56671Y-46395D01*
X56709Y-46357D01*
X56729Y-46307D01*
X56730Y-46254D01*
X56730Y-45742D01*
X56709Y-45692D01*
X56671Y-45654D01*
X56660Y-45650D01*
X56671Y-45645D01*
X56706Y-45610D01*
X57871Y-45610D01*
X57871Y-46583D01*
X57891Y-46632D01*
X57929Y-46670D01*
X57979Y-46691D01*
X58033Y-46691D01*
X58820Y-46691D01*
X58870Y-46670D01*
X58908Y-46632D01*
X58928Y-46583D01*
X58928Y-46529D01*
X58928Y-45985D01*
X59462Y-45985D01*
X60076Y-46599D01*
X60076Y-48984D01*
X60097Y-49034D01*
X60135Y-49072D01*
X60184Y-49092D01*
X60238Y-49092D01*
X61616Y-49092D01*
X61666Y-49072D01*
X61704Y-49034D01*
X61724Y-48984D01*
X61724Y-48931D01*
X61724Y-50215D01*
X61704Y-50165D01*
X61666Y-50127D01*
X61616Y-50107D01*
X61563Y-50107D01*
X60185Y-50107D01*
X60135Y-50127D01*
X60097Y-50165D01*
X60076Y-50215D01*
X60076Y-50268D01*
X60076Y-50952D01*
X59838Y-50713D01*
X59729Y-50641D01*
X59601Y-50615D01*
X58928Y-50615D01*
X58928Y-50018D01*
X58928Y-49127D01*
X58928Y-47316D01*
X58908Y-47267D01*
X58870Y-47229D01*
X58820Y-47208D01*
X58766Y-47208D01*
X57979Y-47208D01*
X57929Y-47229D01*
X57891Y-47267D01*
X57871Y-47316D01*
X57871Y-47370D01*
X57871Y-49181D01*
X57891Y-49231D01*
X57929Y-49269D01*
X57979Y-49289D01*
X58033Y-49289D01*
X58820Y-49289D01*
X58870Y-49269D01*
X58908Y-49231D01*
X58928Y-49181D01*
X58928Y-49127D01*
X58928Y-50018D01*
X58908Y-49968D01*
X58870Y-49930D01*
X58820Y-49910D01*
X58766Y-49910D01*
X57979Y-49910D01*
X57929Y-49930D01*
X57891Y-49968D01*
X57871Y-50018D01*
X57871Y-50072D01*
X57871Y-50240D01*
X56820Y-50240D01*
X56820Y-48925D01*
X56820Y-48324D01*
X56785Y-48241D01*
X56722Y-48178D01*
X56721Y-48177D01*
X56729Y-48157D01*
X56730Y-48104D01*
X56730Y-47592D01*
X56709Y-47542D01*
X56671Y-47504D01*
X56621Y-47484D01*
X56568Y-47483D01*
X56382Y-47483D01*
X56182Y-47283D01*
X56074Y-47211D01*
X55945Y-47185D01*
X55810Y-47185D01*
X55770Y-47169D01*
X55716Y-47169D01*
X54929Y-47169D01*
X54879Y-47189D01*
X54841Y-47227D01*
X54821Y-47277D01*
X54821Y-47331D01*
X54821Y-47575D01*
X54463Y-47933D01*
X54409Y-48014D01*
X53673Y-48014D01*
X53623Y-48035D01*
X53585Y-48073D01*
X53565Y-48123D01*
X53564Y-48176D01*
X53564Y-48776D01*
X53585Y-48826D01*
X53623Y-48864D01*
X53673Y-48884D01*
X53726Y-48885D01*
X55726Y-48885D01*
X55776Y-48864D01*
X55779Y-48860D01*
X55779Y-48925D01*
X55814Y-49008D01*
X55877Y-49071D01*
X55960Y-49105D01*
X56049Y-49106D01*
X56168Y-49106D01*
X56225Y-49049D01*
X56225Y-48700D01*
X56217Y-48700D01*
X56217Y-48550D01*
X56225Y-48550D01*
X56225Y-48542D01*
X56375Y-48542D01*
X56375Y-48550D01*
X56763Y-48550D01*
X56820Y-48493D01*
X56820Y-48324D01*
X56820Y-48925D01*
X56820Y-48756D01*
X56763Y-48700D01*
X56375Y-48700D01*
X56375Y-49049D01*
X56431Y-49106D01*
X56550Y-49106D01*
X56639Y-49105D01*
X56722Y-49071D01*
X56785Y-49008D01*
X56820Y-48925D01*
X56820Y-50240D01*
X56706Y-50240D01*
X56671Y-50204D01*
X56621Y-50184D01*
X56568Y-50183D01*
X55978Y-50183D01*
X55928Y-50204D01*
X55890Y-50242D01*
X55870Y-50292D01*
X55869Y-50345D01*
X55869Y-50857D01*
X55890Y-50907D01*
X55928Y-50945D01*
X55939Y-50949D01*
X55928Y-50954D01*
X55890Y-50992D01*
X55870Y-51042D01*
X55869Y-51095D01*
X55869Y-51281D01*
X55835Y-51316D01*
X55835Y-51023D01*
X55835Y-50423D01*
X55814Y-50373D01*
X55776Y-50335D01*
X55726Y-50315D01*
X55673Y-50314D01*
X53673Y-50314D01*
X53623Y-50335D01*
X53585Y-50373D01*
X53565Y-50423D01*
X53564Y-50476D01*
X53564Y-51076D01*
X53585Y-51126D01*
X53623Y-51164D01*
X53673Y-51184D01*
X53726Y-51185D01*
X55726Y-51185D01*
X55776Y-51164D01*
X55814Y-51126D01*
X55834Y-51076D01*
X55835Y-51023D01*
X55835Y-51316D01*
X55808Y-51343D01*
X55770Y-51327D01*
X55716Y-51327D01*
X54929Y-51327D01*
X54889Y-51344D01*
X53720Y-51344D01*
X53592Y-51369D01*
X53483Y-51442D01*
X51511Y-53415D01*
X50831Y-53415D01*
X50814Y-53373D01*
X50776Y-53335D01*
X50726Y-53315D01*
X50673Y-53314D01*
X48673Y-53314D01*
X48664Y-53318D01*
X48066Y-53318D01*
X47855Y-53107D01*
X47805Y-53087D01*
X47752Y-53087D01*
X47702Y-53107D01*
X47664Y-53145D01*
X47107Y-53702D01*
X47087Y-53751D01*
X47087Y-53805D01*
X47107Y-53855D01*
X47145Y-53893D01*
X47451Y-54199D01*
X47501Y-54220D01*
X47555Y-54220D01*
X47604Y-54199D01*
X47642Y-54161D01*
X47815Y-53988D01*
X48564Y-53988D01*
X48564Y-54076D01*
X48585Y-54126D01*
X48623Y-54164D01*
X48673Y-54184D01*
X48726Y-54185D01*
X50726Y-54185D01*
X50776Y-54164D01*
X50814Y-54126D01*
X50831Y-54085D01*
X51650Y-54085D01*
X51778Y-54059D01*
X51778Y-54059D01*
X51886Y-53986D01*
X53859Y-52014D01*
X54889Y-52014D01*
X54929Y-52030D01*
X54983Y-52030D01*
X55770Y-52030D01*
X55810Y-52014D01*
X55945Y-52014D01*
X56074Y-51988D01*
X56074Y-51988D01*
X56182Y-51916D01*
X56382Y-51716D01*
X56621Y-51716D01*
X56671Y-51695D01*
X56709Y-51657D01*
X56729Y-51607D01*
X56730Y-51554D01*
X56730Y-51042D01*
X56709Y-50992D01*
X56671Y-50954D01*
X56660Y-50950D01*
X56671Y-50945D01*
X56706Y-50910D01*
X57871Y-50910D01*
X57871Y-51883D01*
X57891Y-51932D01*
X57929Y-51970D01*
X57979Y-51991D01*
X58033Y-51991D01*
X58820Y-51991D01*
X58870Y-51970D01*
X58908Y-51932D01*
X58928Y-51883D01*
X58928Y-51829D01*
X58928Y-51285D01*
X59462Y-51285D01*
X60076Y-51899D01*
X60076Y-54284D01*
X60097Y-54334D01*
X60135Y-54372D01*
X60184Y-54392D01*
X60238Y-54392D01*
X61616Y-54392D01*
X61666Y-54372D01*
X61704Y-54334D01*
X61724Y-54284D01*
X61724Y-54231D01*
X61724Y-55145D01*
X58928Y-55145D01*
X58928Y-54427D01*
X58928Y-52616D01*
X58908Y-52567D01*
X58870Y-52529D01*
X58820Y-52508D01*
X58766Y-52508D01*
X57979Y-52508D01*
X57929Y-52529D01*
X57891Y-52567D01*
X57871Y-52616D01*
X57871Y-52670D01*
X57871Y-54481D01*
X57891Y-54531D01*
X57929Y-54569D01*
X57979Y-54589D01*
X58033Y-54589D01*
X58820Y-54589D01*
X58870Y-54569D01*
X58908Y-54531D01*
X58928Y-54481D01*
X58928Y-54427D01*
X58928Y-55145D01*
X56820Y-55145D01*
X56820Y-54225D01*
X56820Y-53624D01*
X56785Y-53541D01*
X56722Y-53478D01*
X56721Y-53477D01*
X56729Y-53457D01*
X56730Y-53404D01*
X56730Y-52892D01*
X56709Y-52842D01*
X56671Y-52804D01*
X56621Y-52784D01*
X56568Y-52783D01*
X56382Y-52783D01*
X56182Y-52583D01*
X56074Y-52511D01*
X55945Y-52485D01*
X55810Y-52485D01*
X55770Y-52469D01*
X55716Y-52469D01*
X54929Y-52469D01*
X54879Y-52489D01*
X54841Y-52527D01*
X54821Y-52577D01*
X54821Y-52631D01*
X54821Y-52875D01*
X54463Y-53233D01*
X54409Y-53314D01*
X53673Y-53314D01*
X53623Y-53335D01*
X53585Y-53373D01*
X53565Y-53423D01*
X53564Y-53476D01*
X53564Y-54076D01*
X53585Y-54126D01*
X53623Y-54164D01*
X53673Y-54184D01*
X53726Y-54185D01*
X55726Y-54185D01*
X55776Y-54164D01*
X55779Y-54160D01*
X55779Y-54225D01*
X55814Y-54308D01*
X55877Y-54371D01*
X55960Y-54405D01*
X56049Y-54406D01*
X56168Y-54406D01*
X56225Y-54349D01*
X56225Y-54000D01*
X56217Y-54000D01*
X56217Y-53850D01*
X56225Y-53850D01*
X56225Y-53842D01*
X56375Y-53842D01*
X56375Y-53850D01*
X56763Y-53850D01*
X56820Y-53793D01*
X56820Y-53624D01*
X56820Y-54225D01*
X56820Y-54056D01*
X56763Y-54000D01*
X56375Y-54000D01*
X56375Y-54349D01*
X56431Y-54406D01*
X56550Y-54406D01*
X56639Y-54405D01*
X56722Y-54371D01*
X56785Y-54308D01*
X56820Y-54225D01*
X56820Y-55145D01*
X42297Y-55145D01*
X42297Y-49449D01*
X42187Y-49182D01*
X41983Y-48977D01*
X41717Y-48867D01*
X41428Y-48867D01*
X41161Y-48977D01*
X40957Y-49181D01*
X40846Y-49447D01*
X40846Y-49736D01*
X40956Y-50003D01*
X41160Y-50207D01*
X41427Y-50318D01*
X41715Y-50318D01*
X41982Y-50208D01*
X42186Y-50004D01*
X42297Y-49737D01*
X42297Y-49449D01*
X42297Y-55145D01*
X37900Y-55145D01*
X37900Y-54269D01*
X37900Y-53630D01*
X37865Y-53547D01*
X37810Y-53491D01*
X37810Y-52868D01*
X37747Y-52718D01*
X37632Y-52602D01*
X37481Y-52540D01*
X37318Y-52539D01*
X37168Y-52602D01*
X37052Y-52717D01*
X36990Y-52868D01*
X36989Y-53031D01*
X37052Y-53181D01*
X37167Y-53297D01*
X37318Y-53359D01*
X37481Y-53360D01*
X37631Y-53297D01*
X37747Y-53182D01*
X37809Y-53031D01*
X37810Y-52868D01*
X37810Y-53491D01*
X37802Y-53484D01*
X37719Y-53450D01*
X37630Y-53449D01*
X37531Y-53450D01*
X37475Y-53506D01*
X37475Y-53875D01*
X37843Y-53875D01*
X37900Y-53818D01*
X37900Y-53630D01*
X37900Y-54269D01*
X37900Y-54081D01*
X37843Y-54025D01*
X37475Y-54025D01*
X37475Y-54393D01*
X37531Y-54450D01*
X37630Y-54450D01*
X37719Y-54449D01*
X37802Y-54415D01*
X37865Y-54352D01*
X37900Y-54269D01*
X37900Y-55145D01*
X37325Y-55145D01*
X37325Y-54393D01*
X37325Y-54025D01*
X37325Y-53875D01*
X37325Y-53506D01*
X37268Y-53450D01*
X37169Y-53449D01*
X37080Y-53450D01*
X36997Y-53484D01*
X36934Y-53547D01*
X36899Y-53630D01*
X36900Y-53818D01*
X36956Y-53875D01*
X37325Y-53875D01*
X37325Y-54025D01*
X36956Y-54025D01*
X36900Y-54081D01*
X36899Y-54269D01*
X36934Y-54352D01*
X36997Y-54415D01*
X37080Y-54449D01*
X37169Y-54450D01*
X37268Y-54450D01*
X37325Y-54393D01*
X37325Y-55145D01*
X37280Y-55145D01*
X36754Y-54619D01*
X36754Y-30380D01*
X37880Y-29254D01*
X61819Y-29254D01*
X62275Y-29710D01*
X62275Y-29900D01*
X62275Y-30200D01*
X62275Y-54889D01*
G54D10*
G36*
X69009Y-37325D02*
X68971Y-37325D01*
X68971Y-37332D01*
X68929Y-37332D01*
X68921Y-37325D01*
X68896Y-37325D01*
X68715Y-37325D01*
X68690Y-37325D01*
X68682Y-37332D01*
X68640Y-37332D01*
X68640Y-37325D01*
X68632Y-37325D01*
X68632Y-37175D01*
X68640Y-37175D01*
X68640Y-37167D01*
X68682Y-37167D01*
X68690Y-37175D01*
X68715Y-37175D01*
X68896Y-37175D01*
X68921Y-37175D01*
X68929Y-37167D01*
X68971Y-37167D01*
X68971Y-37175D01*
X69009Y-37175D01*
X69009Y-37325D01*
X69009Y-37325D01*
G37*
G54D28*
X69009Y-37325D02*
X68971Y-37325D01*
X68971Y-37332D01*
X68929Y-37332D01*
X68921Y-37325D01*
X68896Y-37325D01*
X68715Y-37325D01*
X68690Y-37325D01*
X68682Y-37332D01*
X68640Y-37332D01*
X68640Y-37325D01*
X68632Y-37325D01*
X68632Y-37175D01*
X68640Y-37175D01*
X68640Y-37167D01*
X68682Y-37167D01*
X68690Y-37175D01*
X68715Y-37175D01*
X68896Y-37175D01*
X68921Y-37175D01*
X68929Y-37167D01*
X68971Y-37167D01*
X68971Y-37175D01*
X69009Y-37175D01*
X69009Y-37325D01*
G54D10*
G36*
X69009Y-42625D02*
X68971Y-42625D01*
X68971Y-42632D01*
X68929Y-42632D01*
X68921Y-42625D01*
X68896Y-42625D01*
X68715Y-42625D01*
X68690Y-42625D01*
X68682Y-42632D01*
X68640Y-42632D01*
X68640Y-42625D01*
X68632Y-42625D01*
X68632Y-42475D01*
X68640Y-42475D01*
X68640Y-42467D01*
X68682Y-42467D01*
X68690Y-42475D01*
X68715Y-42475D01*
X68896Y-42475D01*
X68921Y-42475D01*
X68929Y-42467D01*
X68971Y-42467D01*
X68971Y-42475D01*
X69009Y-42475D01*
X69009Y-42625D01*
X69009Y-42625D01*
G37*
G54D28*
X69009Y-42625D02*
X68971Y-42625D01*
X68971Y-42632D01*
X68929Y-42632D01*
X68921Y-42625D01*
X68896Y-42625D01*
X68715Y-42625D01*
X68690Y-42625D01*
X68682Y-42632D01*
X68640Y-42632D01*
X68640Y-42625D01*
X68632Y-42625D01*
X68632Y-42475D01*
X68640Y-42475D01*
X68640Y-42467D01*
X68682Y-42467D01*
X68690Y-42475D01*
X68715Y-42475D01*
X68896Y-42475D01*
X68921Y-42475D01*
X68929Y-42467D01*
X68971Y-42467D01*
X68971Y-42475D01*
X69009Y-42475D01*
X69009Y-42625D01*
G54D10*
G36*
X69059Y-47925D02*
X69021Y-47925D01*
X69021Y-47932D01*
X68979Y-47932D01*
X68971Y-47925D01*
X68946Y-47925D01*
X68765Y-47925D01*
X68740Y-47925D01*
X68732Y-47932D01*
X68690Y-47932D01*
X68690Y-47925D01*
X68682Y-47925D01*
X68682Y-47775D01*
X68690Y-47775D01*
X68690Y-47767D01*
X68732Y-47767D01*
X68740Y-47775D01*
X68765Y-47775D01*
X68946Y-47775D01*
X68971Y-47775D01*
X68979Y-47767D01*
X69021Y-47767D01*
X69021Y-47775D01*
X69059Y-47775D01*
X69059Y-47925D01*
X69059Y-47925D01*
G37*
G54D28*
X69059Y-47925D02*
X69021Y-47925D01*
X69021Y-47932D01*
X68979Y-47932D01*
X68971Y-47925D01*
X68946Y-47925D01*
X68765Y-47925D01*
X68740Y-47925D01*
X68732Y-47932D01*
X68690Y-47932D01*
X68690Y-47925D01*
X68682Y-47925D01*
X68682Y-47775D01*
X68690Y-47775D01*
X68690Y-47767D01*
X68732Y-47767D01*
X68740Y-47775D01*
X68765Y-47775D01*
X68946Y-47775D01*
X68971Y-47775D01*
X68979Y-47767D01*
X69021Y-47767D01*
X69021Y-47775D01*
X69059Y-47775D01*
X69059Y-47925D01*
G54D10*
G36*
X69059Y-53225D02*
X69021Y-53225D01*
X69021Y-53232D01*
X68979Y-53232D01*
X68971Y-53225D01*
X68946Y-53225D01*
X68765Y-53225D01*
X68740Y-53225D01*
X68732Y-53232D01*
X68690Y-53232D01*
X68690Y-53225D01*
X68682Y-53225D01*
X68682Y-53075D01*
X68690Y-53075D01*
X68690Y-53067D01*
X68732Y-53067D01*
X68740Y-53075D01*
X68765Y-53075D01*
X68946Y-53075D01*
X68971Y-53075D01*
X68979Y-53067D01*
X69021Y-53067D01*
X69021Y-53075D01*
X69059Y-53075D01*
X69059Y-53225D01*
X69059Y-53225D01*
G37*
G54D28*
X69059Y-53225D02*
X69021Y-53225D01*
X69021Y-53232D01*
X68979Y-53232D01*
X68971Y-53225D01*
X68946Y-53225D01*
X68765Y-53225D01*
X68740Y-53225D01*
X68732Y-53232D01*
X68690Y-53232D01*
X68690Y-53225D01*
X68682Y-53225D01*
X68682Y-53075D01*
X68690Y-53075D01*
X68690Y-53067D01*
X68732Y-53067D01*
X68740Y-53075D01*
X68765Y-53075D01*
X68946Y-53075D01*
X68971Y-53075D01*
X68979Y-53067D01*
X69021Y-53067D01*
X69021Y-53075D01*
X69059Y-53075D01*
X69059Y-53225D01*
G54D10*
G36*
X74445Y-54719D02*
X74019Y-55145D01*
X66628Y-55145D01*
X66628Y-54777D01*
X66628Y-52966D01*
X66608Y-52917D01*
X66570Y-52879D01*
X66520Y-52858D01*
X66466Y-52858D01*
X65679Y-52858D01*
X65629Y-52879D01*
X65591Y-52917D01*
X65571Y-52966D01*
X65571Y-53020D01*
X65571Y-54831D01*
X65591Y-54881D01*
X65629Y-54919D01*
X65679Y-54939D01*
X65733Y-54939D01*
X66520Y-54939D01*
X66570Y-54919D01*
X66608Y-54881D01*
X66628Y-54831D01*
X66628Y-54777D01*
X66628Y-55145D01*
X62780Y-55145D01*
X62525Y-54889D01*
X62525Y-29710D01*
X62585Y-29650D01*
X62585Y-31468D01*
X62641Y-31525D01*
X63424Y-31525D01*
X63424Y-29423D01*
X63367Y-29367D01*
X62868Y-29367D01*
X62980Y-29254D01*
X64819Y-29254D01*
X65275Y-29710D01*
X65275Y-30079D01*
X65156Y-30080D01*
X65100Y-30136D01*
X65100Y-30525D01*
X65107Y-30525D01*
X65107Y-30675D01*
X65100Y-30675D01*
X65100Y-31063D01*
X65156Y-31120D01*
X65275Y-31120D01*
X65275Y-31910D01*
X66289Y-32925D01*
X73589Y-32925D01*
X73682Y-33017D01*
X74445Y-33780D01*
X74445Y-36311D01*
X74388Y-36287D01*
X74299Y-36287D01*
X74081Y-36287D01*
X74025Y-36343D01*
X74025Y-36654D01*
X74032Y-36654D01*
X74032Y-36804D01*
X74025Y-36804D01*
X74025Y-37114D01*
X74081Y-37170D01*
X74299Y-37170D01*
X74388Y-37170D01*
X74445Y-37147D01*
X74445Y-37565D01*
X74420Y-37539D01*
X74370Y-37519D01*
X74316Y-37519D01*
X74257Y-37519D01*
X74235Y-37485D01*
X74186Y-37413D01*
X74186Y-37413D01*
X73875Y-37101D01*
X73875Y-36804D01*
X73875Y-36654D01*
X73875Y-36343D01*
X73818Y-36287D01*
X73600Y-36287D01*
X73511Y-36287D01*
X73428Y-36321D01*
X73400Y-36350D01*
X73371Y-36321D01*
X73288Y-36287D01*
X73199Y-36287D01*
X72981Y-36287D01*
X72925Y-36343D01*
X72925Y-36654D01*
X73387Y-36654D01*
X73412Y-36654D01*
X73875Y-36654D01*
X73875Y-36804D01*
X73412Y-36804D01*
X73387Y-36804D01*
X72925Y-36804D01*
X72925Y-36812D01*
X72775Y-36812D01*
X72775Y-36804D01*
X72767Y-36804D01*
X72767Y-36654D01*
X72775Y-36654D01*
X72775Y-36343D01*
X72718Y-36287D01*
X72500Y-36287D01*
X72475Y-36287D01*
X72475Y-36287D01*
X72475Y-36224D01*
X72418Y-36224D01*
X72475Y-36168D01*
X72475Y-36005D01*
X72440Y-35922D01*
X72377Y-35859D01*
X72294Y-35825D01*
X72205Y-35824D01*
X71831Y-35825D01*
X71775Y-35881D01*
X71775Y-36225D01*
X71782Y-36225D01*
X71782Y-36375D01*
X71775Y-36375D01*
X71775Y-36718D01*
X71831Y-36775D01*
X72205Y-36775D01*
X72231Y-36775D01*
X72231Y-36804D01*
X72287Y-36804D01*
X72231Y-36860D01*
X72231Y-36965D01*
X71625Y-36965D01*
X71625Y-36718D01*
X71625Y-36375D01*
X71625Y-36225D01*
X71625Y-35881D01*
X71568Y-35825D01*
X71194Y-35824D01*
X71105Y-35825D01*
X71022Y-35859D01*
X70959Y-35922D01*
X70924Y-36005D01*
X70925Y-36168D01*
X70981Y-36225D01*
X71625Y-36225D01*
X71625Y-36375D01*
X70981Y-36375D01*
X70925Y-36431D01*
X70924Y-36594D01*
X70959Y-36677D01*
X71022Y-36740D01*
X71105Y-36774D01*
X71194Y-36775D01*
X71568Y-36775D01*
X71625Y-36718D01*
X71625Y-36965D01*
X70800Y-36965D01*
X70671Y-36990D01*
X70563Y-37063D01*
X70535Y-37105D01*
X70535Y-37023D01*
X70514Y-36973D01*
X70476Y-36935D01*
X70426Y-36915D01*
X70373Y-36914D01*
X70062Y-36914D01*
X70062Y-34949D01*
X70062Y-34250D01*
X70062Y-34161D01*
X70028Y-34078D01*
X69964Y-34015D01*
X69881Y-33981D01*
X69752Y-33981D01*
X69695Y-34037D01*
X69695Y-34525D01*
X70006Y-34525D01*
X70062Y-34468D01*
X70062Y-34250D01*
X70062Y-34949D01*
X70062Y-34731D01*
X70006Y-34675D01*
X69695Y-34675D01*
X69695Y-35162D01*
X69752Y-35218D01*
X69881Y-35218D01*
X69964Y-35184D01*
X70028Y-35121D01*
X70062Y-35038D01*
X70062Y-34949D01*
X70062Y-36914D01*
X69545Y-36914D01*
X69545Y-35162D01*
X69545Y-34675D01*
X69545Y-34525D01*
X69545Y-34037D01*
X69489Y-33981D01*
X69359Y-33981D01*
X69277Y-34015D01*
X69213Y-34078D01*
X69179Y-34161D01*
X69179Y-34250D01*
X69179Y-34468D01*
X69235Y-34525D01*
X69545Y-34525D01*
X69545Y-34675D01*
X69235Y-34675D01*
X69179Y-34731D01*
X69179Y-34949D01*
X69179Y-35038D01*
X69213Y-35121D01*
X69277Y-35184D01*
X69359Y-35218D01*
X69489Y-35218D01*
X69545Y-35162D01*
X69545Y-36914D01*
X69273Y-36914D01*
X69225Y-36934D01*
X69199Y-36872D01*
X69144Y-36817D01*
X69168Y-36759D01*
X69168Y-36670D01*
X69168Y-36129D01*
X69168Y-36040D01*
X69134Y-35957D01*
X69088Y-35911D01*
X69123Y-35876D01*
X69143Y-35826D01*
X69144Y-35773D01*
X69144Y-35273D01*
X69123Y-35223D01*
X69119Y-35219D01*
X69119Y-34184D01*
X69118Y-34183D01*
X69104Y-34113D01*
X69104Y-34113D01*
X69091Y-34093D01*
X69064Y-34053D01*
X69064Y-34053D01*
X68880Y-33869D01*
X68820Y-33829D01*
X68750Y-33815D01*
X68150Y-33815D01*
X68079Y-33829D01*
X68059Y-33842D01*
X68019Y-33869D01*
X67610Y-34277D01*
X67549Y-34265D01*
X67421Y-34291D01*
X67312Y-34363D01*
X66628Y-35047D01*
X66628Y-34468D01*
X66608Y-34418D01*
X66570Y-34380D01*
X66520Y-34360D01*
X66466Y-34360D01*
X65679Y-34360D01*
X65629Y-34380D01*
X65591Y-34418D01*
X65571Y-34468D01*
X65571Y-34522D01*
X65571Y-35065D01*
X64950Y-35065D01*
X64950Y-31063D01*
X64950Y-30675D01*
X64950Y-30525D01*
X64950Y-30136D01*
X64893Y-30080D01*
X64724Y-30079D01*
X64641Y-30114D01*
X64578Y-30177D01*
X64544Y-30260D01*
X64543Y-30349D01*
X64544Y-30468D01*
X64600Y-30525D01*
X64950Y-30525D01*
X64950Y-30675D01*
X64600Y-30675D01*
X64544Y-30731D01*
X64543Y-30850D01*
X64544Y-30939D01*
X64578Y-31022D01*
X64641Y-31085D01*
X64724Y-31120D01*
X64893Y-31120D01*
X64950Y-31063D01*
X64950Y-35065D01*
X64448Y-35065D01*
X64413Y-35072D01*
X64413Y-33563D01*
X64413Y-29636D01*
X64413Y-29547D01*
X64378Y-29464D01*
X64315Y-29401D01*
X64232Y-29367D01*
X63630Y-29367D01*
X63574Y-29423D01*
X63574Y-31525D01*
X64356Y-31525D01*
X64413Y-31468D01*
X64413Y-29636D01*
X64413Y-33563D01*
X64413Y-31731D01*
X64356Y-31675D01*
X63574Y-31675D01*
X63574Y-33776D01*
X63630Y-33832D01*
X64232Y-33832D01*
X64315Y-33798D01*
X64378Y-33735D01*
X64413Y-33652D01*
X64413Y-33563D01*
X64413Y-35072D01*
X64323Y-35090D01*
X64323Y-34315D01*
X64302Y-34265D01*
X64264Y-34227D01*
X64215Y-34207D01*
X64161Y-34207D01*
X63424Y-34207D01*
X63424Y-33776D01*
X63424Y-31675D01*
X62641Y-31675D01*
X62585Y-31731D01*
X62585Y-33563D01*
X62585Y-33652D01*
X62619Y-33735D01*
X62682Y-33798D01*
X62765Y-33832D01*
X63367Y-33832D01*
X63424Y-33776D01*
X63424Y-34207D01*
X62783Y-34207D01*
X62733Y-34227D01*
X62695Y-34265D01*
X62675Y-34315D01*
X62675Y-34368D01*
X62675Y-38384D01*
X62695Y-38434D01*
X62733Y-38472D01*
X62783Y-38492D01*
X62836Y-38492D01*
X64214Y-38492D01*
X64264Y-38472D01*
X64302Y-38434D01*
X64323Y-38384D01*
X64323Y-38331D01*
X64323Y-35999D01*
X64587Y-35735D01*
X65571Y-35735D01*
X65571Y-36333D01*
X65591Y-36382D01*
X65629Y-36420D01*
X65679Y-36441D01*
X65733Y-36441D01*
X66520Y-36441D01*
X66570Y-36420D01*
X66608Y-36382D01*
X66628Y-36333D01*
X66628Y-36279D01*
X66628Y-35735D01*
X66749Y-35735D01*
X66877Y-35710D01*
X66877Y-35710D01*
X66986Y-35637D01*
X67655Y-34968D01*
X67957Y-35270D01*
X67956Y-35273D01*
X67955Y-35326D01*
X67955Y-35826D01*
X67976Y-35876D01*
X68011Y-35911D01*
X67965Y-35957D01*
X67931Y-36040D01*
X67931Y-36129D01*
X67931Y-36268D01*
X67987Y-36325D01*
X68475Y-36325D01*
X68475Y-36317D01*
X68625Y-36317D01*
X68625Y-36325D01*
X69112Y-36325D01*
X69168Y-36268D01*
X69168Y-36129D01*
X69168Y-36670D01*
X69168Y-36531D01*
X69112Y-36475D01*
X68625Y-36475D01*
X68625Y-36482D01*
X68475Y-36482D01*
X68475Y-36475D01*
X67987Y-36475D01*
X67931Y-36531D01*
X67931Y-36670D01*
X67931Y-36759D01*
X67965Y-36842D01*
X68011Y-36888D01*
X67976Y-36923D01*
X67956Y-36973D01*
X67955Y-37026D01*
X67955Y-37526D01*
X67976Y-37576D01*
X67981Y-37580D01*
X67981Y-37671D01*
X67935Y-37671D01*
X67886Y-37691D01*
X67848Y-37729D01*
X67827Y-37779D01*
X67827Y-37833D01*
X67827Y-38620D01*
X67848Y-38670D01*
X67886Y-38708D01*
X67935Y-38728D01*
X67989Y-38728D01*
X68422Y-38728D01*
X68472Y-38708D01*
X68498Y-38681D01*
X68783Y-38966D01*
X68860Y-39017D01*
X68950Y-39035D01*
X71200Y-39035D01*
X71289Y-39017D01*
X71366Y-38966D01*
X71647Y-38685D01*
X72276Y-38685D01*
X72326Y-38664D01*
X72355Y-38635D01*
X72420Y-38635D01*
X72549Y-38609D01*
X72549Y-38609D01*
X72657Y-38536D01*
X72972Y-38222D01*
X73270Y-38222D01*
X73310Y-38205D01*
X73489Y-38205D01*
X73529Y-38222D01*
X73583Y-38222D01*
X74370Y-38222D01*
X74420Y-38201D01*
X74445Y-38176D01*
X74445Y-41611D01*
X74388Y-41587D01*
X74299Y-41587D01*
X74081Y-41587D01*
X74025Y-41643D01*
X74025Y-41954D01*
X74032Y-41954D01*
X74032Y-42104D01*
X74025Y-42104D01*
X74025Y-42414D01*
X74081Y-42470D01*
X74299Y-42470D01*
X74388Y-42470D01*
X74445Y-42447D01*
X74445Y-42865D01*
X74420Y-42839D01*
X74370Y-42819D01*
X74316Y-42819D01*
X74257Y-42819D01*
X74235Y-42785D01*
X74186Y-42713D01*
X74186Y-42713D01*
X73875Y-42401D01*
X73875Y-42104D01*
X73875Y-41954D01*
X73875Y-41643D01*
X73818Y-41587D01*
X73600Y-41587D01*
X73511Y-41587D01*
X73428Y-41621D01*
X73400Y-41650D01*
X73371Y-41621D01*
X73288Y-41587D01*
X73199Y-41587D01*
X72981Y-41587D01*
X72925Y-41643D01*
X72925Y-41954D01*
X73387Y-41954D01*
X73412Y-41954D01*
X73875Y-41954D01*
X73875Y-42104D01*
X73412Y-42104D01*
X73387Y-42104D01*
X72925Y-42104D01*
X72925Y-42112D01*
X72775Y-42112D01*
X72775Y-42104D01*
X72767Y-42104D01*
X72767Y-41954D01*
X72775Y-41954D01*
X72775Y-41643D01*
X72718Y-41587D01*
X72500Y-41587D01*
X72475Y-41587D01*
X72475Y-41587D01*
X72475Y-41524D01*
X72418Y-41524D01*
X72475Y-41468D01*
X72475Y-41305D01*
X72440Y-41222D01*
X72377Y-41159D01*
X72294Y-41125D01*
X72205Y-41124D01*
X71831Y-41125D01*
X71775Y-41181D01*
X71775Y-41525D01*
X71782Y-41525D01*
X71782Y-41675D01*
X71775Y-41675D01*
X71775Y-42018D01*
X71831Y-42075D01*
X72205Y-42075D01*
X72231Y-42075D01*
X72231Y-42104D01*
X72287Y-42104D01*
X72231Y-42160D01*
X72231Y-42265D01*
X71838Y-42265D01*
X71636Y-42063D01*
X71603Y-42040D01*
X71625Y-42018D01*
X71625Y-41675D01*
X71625Y-41525D01*
X71625Y-41181D01*
X71568Y-41125D01*
X71194Y-41124D01*
X71105Y-41125D01*
X71022Y-41159D01*
X70959Y-41222D01*
X70924Y-41305D01*
X70925Y-41468D01*
X70981Y-41525D01*
X71625Y-41525D01*
X71625Y-41675D01*
X70981Y-41675D01*
X70925Y-41731D01*
X70924Y-41894D01*
X70959Y-41977D01*
X71022Y-42040D01*
X71105Y-42074D01*
X71155Y-42075D01*
X71090Y-42171D01*
X71065Y-42300D01*
X71090Y-42428D01*
X71163Y-42536D01*
X71463Y-42836D01*
X71463Y-42836D01*
X71535Y-42885D01*
X71571Y-42909D01*
X71571Y-42909D01*
X71699Y-42934D01*
X71700Y-42935D01*
X72321Y-42935D01*
X72321Y-42981D01*
X72321Y-43225D01*
X72315Y-43231D01*
X72276Y-43215D01*
X72223Y-43214D01*
X71123Y-43214D01*
X71073Y-43235D01*
X71035Y-43273D01*
X71015Y-43323D01*
X71014Y-43376D01*
X71014Y-43865D01*
X69672Y-43865D01*
X69672Y-43251D01*
X69938Y-42985D01*
X70426Y-42985D01*
X70476Y-42964D01*
X70514Y-42926D01*
X70534Y-42876D01*
X70535Y-42823D01*
X70535Y-42323D01*
X70514Y-42273D01*
X70476Y-42235D01*
X70426Y-42215D01*
X70373Y-42214D01*
X70062Y-42214D01*
X70062Y-40249D01*
X70062Y-39550D01*
X70062Y-39461D01*
X70028Y-39378D01*
X69964Y-39315D01*
X69881Y-39281D01*
X69752Y-39281D01*
X69695Y-39337D01*
X69695Y-39825D01*
X70006Y-39825D01*
X70062Y-39768D01*
X70062Y-39550D01*
X70062Y-40249D01*
X70062Y-40031D01*
X70006Y-39975D01*
X69695Y-39975D01*
X69695Y-40462D01*
X69752Y-40518D01*
X69881Y-40518D01*
X69964Y-40484D01*
X70028Y-40421D01*
X70062Y-40338D01*
X70062Y-40249D01*
X70062Y-42214D01*
X69545Y-42214D01*
X69545Y-40462D01*
X69545Y-39975D01*
X69545Y-39825D01*
X69545Y-39337D01*
X69489Y-39281D01*
X69359Y-39281D01*
X69277Y-39315D01*
X69213Y-39378D01*
X69179Y-39461D01*
X69179Y-39550D01*
X69179Y-39768D01*
X69235Y-39825D01*
X69545Y-39825D01*
X69545Y-39975D01*
X69235Y-39975D01*
X69179Y-40031D01*
X69179Y-40249D01*
X69179Y-40338D01*
X69213Y-40421D01*
X69277Y-40484D01*
X69359Y-40518D01*
X69489Y-40518D01*
X69545Y-40462D01*
X69545Y-42214D01*
X69273Y-42214D01*
X69225Y-42234D01*
X69199Y-42172D01*
X69144Y-42117D01*
X69168Y-42059D01*
X69168Y-41970D01*
X69168Y-41429D01*
X69168Y-41340D01*
X69134Y-41257D01*
X69088Y-41211D01*
X69123Y-41176D01*
X69143Y-41126D01*
X69144Y-41073D01*
X69144Y-40573D01*
X69123Y-40523D01*
X69119Y-40519D01*
X69119Y-39484D01*
X69118Y-39483D01*
X69104Y-39413D01*
X69104Y-39413D01*
X69091Y-39393D01*
X69064Y-39353D01*
X69064Y-39353D01*
X68880Y-39169D01*
X68820Y-39129D01*
X68750Y-39115D01*
X68150Y-39115D01*
X68079Y-39129D01*
X68059Y-39142D01*
X68019Y-39169D01*
X67610Y-39577D01*
X67549Y-39565D01*
X67421Y-39591D01*
X67312Y-39663D01*
X66628Y-40347D01*
X66628Y-39768D01*
X66628Y-38877D01*
X66628Y-37066D01*
X66608Y-37017D01*
X66570Y-36979D01*
X66520Y-36958D01*
X66466Y-36958D01*
X65679Y-36958D01*
X65629Y-36979D01*
X65591Y-37017D01*
X65571Y-37066D01*
X65571Y-37120D01*
X65571Y-38931D01*
X65591Y-38981D01*
X65629Y-39019D01*
X65679Y-39039D01*
X65733Y-39039D01*
X66520Y-39039D01*
X66570Y-39019D01*
X66608Y-38981D01*
X66628Y-38931D01*
X66628Y-38877D01*
X66628Y-39768D01*
X66608Y-39718D01*
X66570Y-39680D01*
X66520Y-39660D01*
X66466Y-39660D01*
X65679Y-39660D01*
X65629Y-39680D01*
X65591Y-39718D01*
X65571Y-39768D01*
X65571Y-39822D01*
X65571Y-40365D01*
X64448Y-40365D01*
X64323Y-40390D01*
X64323Y-39615D01*
X64302Y-39565D01*
X64264Y-39527D01*
X64215Y-39507D01*
X64161Y-39507D01*
X62783Y-39507D01*
X62733Y-39527D01*
X62695Y-39565D01*
X62675Y-39615D01*
X62675Y-39668D01*
X62675Y-43684D01*
X62695Y-43734D01*
X62733Y-43772D01*
X62783Y-43792D01*
X62836Y-43792D01*
X64214Y-43792D01*
X64264Y-43772D01*
X64302Y-43734D01*
X64323Y-43684D01*
X64323Y-43631D01*
X64323Y-41299D01*
X64587Y-41035D01*
X65571Y-41035D01*
X65571Y-41633D01*
X65591Y-41682D01*
X65629Y-41720D01*
X65679Y-41741D01*
X65733Y-41741D01*
X66520Y-41741D01*
X66570Y-41720D01*
X66608Y-41682D01*
X66628Y-41633D01*
X66628Y-41579D01*
X66628Y-41035D01*
X66749Y-41035D01*
X66877Y-41010D01*
X66877Y-41010D01*
X66986Y-40937D01*
X67655Y-40268D01*
X67957Y-40570D01*
X67956Y-40573D01*
X67955Y-40626D01*
X67955Y-41126D01*
X67976Y-41176D01*
X68011Y-41211D01*
X67965Y-41257D01*
X67931Y-41340D01*
X67931Y-41429D01*
X67931Y-41568D01*
X67987Y-41625D01*
X68475Y-41625D01*
X68475Y-41617D01*
X68625Y-41617D01*
X68625Y-41625D01*
X69112Y-41625D01*
X69168Y-41568D01*
X69168Y-41429D01*
X69168Y-41970D01*
X69168Y-41831D01*
X69112Y-41775D01*
X68625Y-41775D01*
X68625Y-41782D01*
X68475Y-41782D01*
X68475Y-41775D01*
X67987Y-41775D01*
X67931Y-41831D01*
X67931Y-41970D01*
X67931Y-42059D01*
X67965Y-42142D01*
X68011Y-42188D01*
X67976Y-42223D01*
X67956Y-42273D01*
X67955Y-42326D01*
X67955Y-42826D01*
X67976Y-42876D01*
X67981Y-42880D01*
X67981Y-42971D01*
X67935Y-42971D01*
X67886Y-42991D01*
X67848Y-43029D01*
X67827Y-43079D01*
X67827Y-43133D01*
X67827Y-43920D01*
X67848Y-43970D01*
X67886Y-44008D01*
X67935Y-44028D01*
X67989Y-44028D01*
X68422Y-44028D01*
X68472Y-44008D01*
X68498Y-43981D01*
X68783Y-44266D01*
X68860Y-44317D01*
X68950Y-44335D01*
X71200Y-44335D01*
X71289Y-44317D01*
X71366Y-44266D01*
X71647Y-43985D01*
X72276Y-43985D01*
X72326Y-43964D01*
X72355Y-43935D01*
X72420Y-43935D01*
X72549Y-43909D01*
X72549Y-43909D01*
X72657Y-43836D01*
X72972Y-43522D01*
X73270Y-43522D01*
X73310Y-43505D01*
X73489Y-43505D01*
X73529Y-43522D01*
X73583Y-43522D01*
X74370Y-43522D01*
X74420Y-43501D01*
X74445Y-43476D01*
X74445Y-46911D01*
X74388Y-46887D01*
X74299Y-46887D01*
X74081Y-46887D01*
X74025Y-46943D01*
X74025Y-47254D01*
X74032Y-47254D01*
X74032Y-47404D01*
X74025Y-47404D01*
X74025Y-47714D01*
X74081Y-47770D01*
X74299Y-47770D01*
X74388Y-47770D01*
X74445Y-47747D01*
X74445Y-48165D01*
X74420Y-48139D01*
X74370Y-48119D01*
X74316Y-48119D01*
X74257Y-48119D01*
X74235Y-48085D01*
X74186Y-48013D01*
X74186Y-48013D01*
X73875Y-47701D01*
X73875Y-47404D01*
X73875Y-47254D01*
X73875Y-46943D01*
X73818Y-46887D01*
X73600Y-46887D01*
X73511Y-46887D01*
X73428Y-46921D01*
X73400Y-46950D01*
X73371Y-46921D01*
X73288Y-46887D01*
X73199Y-46887D01*
X72981Y-46887D01*
X72925Y-46943D01*
X72925Y-47254D01*
X73387Y-47254D01*
X73412Y-47254D01*
X73875Y-47254D01*
X73875Y-47404D01*
X73412Y-47404D01*
X73387Y-47404D01*
X72925Y-47404D01*
X72925Y-47412D01*
X72775Y-47412D01*
X72775Y-47404D01*
X72767Y-47404D01*
X72767Y-47254D01*
X72775Y-47254D01*
X72775Y-46943D01*
X72718Y-46887D01*
X72525Y-46887D01*
X72525Y-46887D01*
X72525Y-46824D01*
X72468Y-46824D01*
X72525Y-46768D01*
X72525Y-46605D01*
X72490Y-46522D01*
X72427Y-46459D01*
X72344Y-46425D01*
X72255Y-46424D01*
X71881Y-46425D01*
X71825Y-46481D01*
X71825Y-46825D01*
X71832Y-46825D01*
X71832Y-46975D01*
X71825Y-46975D01*
X71825Y-47318D01*
X71826Y-47320D01*
X71763Y-47363D01*
X71690Y-47471D01*
X71675Y-47549D01*
X71675Y-47318D01*
X71675Y-46975D01*
X71675Y-46825D01*
X71675Y-46481D01*
X71618Y-46425D01*
X71244Y-46424D01*
X71155Y-46425D01*
X71072Y-46459D01*
X71009Y-46522D01*
X70974Y-46605D01*
X70975Y-46768D01*
X71031Y-46825D01*
X71675Y-46825D01*
X71675Y-46975D01*
X71031Y-46975D01*
X70975Y-47031D01*
X70974Y-47194D01*
X71009Y-47277D01*
X71072Y-47340D01*
X71155Y-47374D01*
X71244Y-47375D01*
X71618Y-47375D01*
X71675Y-47318D01*
X71675Y-47549D01*
X71665Y-47600D01*
X71690Y-47728D01*
X71763Y-47836D01*
X72063Y-48136D01*
X72063Y-48136D01*
X72135Y-48185D01*
X72171Y-48209D01*
X72171Y-48209D01*
X72299Y-48234D01*
X72300Y-48235D01*
X72321Y-48235D01*
X72321Y-48281D01*
X72321Y-48515D01*
X72273Y-48514D01*
X71173Y-48514D01*
X71123Y-48535D01*
X71085Y-48573D01*
X71065Y-48623D01*
X71064Y-48676D01*
X71064Y-49165D01*
X69722Y-49165D01*
X69722Y-48551D01*
X69988Y-48285D01*
X70476Y-48285D01*
X70526Y-48264D01*
X70564Y-48226D01*
X70584Y-48176D01*
X70585Y-48123D01*
X70585Y-47623D01*
X70564Y-47573D01*
X70526Y-47535D01*
X70476Y-47515D01*
X70423Y-47514D01*
X70112Y-47514D01*
X70112Y-45549D01*
X70112Y-44850D01*
X70112Y-44761D01*
X70078Y-44678D01*
X70014Y-44615D01*
X69931Y-44581D01*
X69802Y-44581D01*
X69745Y-44637D01*
X69745Y-45125D01*
X70056Y-45125D01*
X70112Y-45068D01*
X70112Y-44850D01*
X70112Y-45549D01*
X70112Y-45331D01*
X70056Y-45275D01*
X69745Y-45275D01*
X69745Y-45762D01*
X69802Y-45818D01*
X69931Y-45818D01*
X70014Y-45784D01*
X70078Y-45721D01*
X70112Y-45638D01*
X70112Y-45549D01*
X70112Y-47514D01*
X69595Y-47514D01*
X69595Y-45762D01*
X69595Y-45275D01*
X69595Y-45125D01*
X69595Y-44637D01*
X69539Y-44581D01*
X69409Y-44581D01*
X69327Y-44615D01*
X69263Y-44678D01*
X69229Y-44761D01*
X69229Y-44850D01*
X69229Y-45068D01*
X69285Y-45125D01*
X69595Y-45125D01*
X69595Y-45275D01*
X69285Y-45275D01*
X69229Y-45331D01*
X69229Y-45549D01*
X69229Y-45638D01*
X69263Y-45721D01*
X69327Y-45784D01*
X69409Y-45818D01*
X69539Y-45818D01*
X69595Y-45762D01*
X69595Y-47514D01*
X69323Y-47514D01*
X69275Y-47534D01*
X69249Y-47472D01*
X69194Y-47417D01*
X69218Y-47359D01*
X69218Y-47270D01*
X69218Y-46729D01*
X69218Y-46640D01*
X69184Y-46557D01*
X69138Y-46511D01*
X69173Y-46476D01*
X69193Y-46426D01*
X69194Y-46373D01*
X69194Y-45873D01*
X69173Y-45823D01*
X69169Y-45819D01*
X69169Y-44784D01*
X69168Y-44783D01*
X69154Y-44713D01*
X69154Y-44713D01*
X69141Y-44693D01*
X69114Y-44653D01*
X69114Y-44653D01*
X68930Y-44469D01*
X68870Y-44429D01*
X68800Y-44415D01*
X68200Y-44415D01*
X68129Y-44429D01*
X68109Y-44442D01*
X68069Y-44469D01*
X67660Y-44877D01*
X67599Y-44865D01*
X67471Y-44891D01*
X67362Y-44963D01*
X66660Y-45665D01*
X66628Y-45665D01*
X66628Y-45068D01*
X66628Y-44177D01*
X66628Y-42366D01*
X66608Y-42317D01*
X66570Y-42279D01*
X66520Y-42258D01*
X66466Y-42258D01*
X65679Y-42258D01*
X65629Y-42279D01*
X65591Y-42317D01*
X65571Y-42366D01*
X65571Y-42420D01*
X65571Y-44231D01*
X65591Y-44281D01*
X65629Y-44319D01*
X65679Y-44339D01*
X65733Y-44339D01*
X66520Y-44339D01*
X66570Y-44319D01*
X66608Y-44281D01*
X66628Y-44231D01*
X66628Y-44177D01*
X66628Y-45068D01*
X66608Y-45018D01*
X66570Y-44980D01*
X66520Y-44960D01*
X66466Y-44960D01*
X65679Y-44960D01*
X65629Y-44980D01*
X65591Y-45018D01*
X65571Y-45068D01*
X65571Y-45122D01*
X65571Y-45665D01*
X64448Y-45665D01*
X64323Y-45690D01*
X64323Y-44915D01*
X64302Y-44865D01*
X64264Y-44827D01*
X64215Y-44807D01*
X64161Y-44807D01*
X62783Y-44807D01*
X62733Y-44827D01*
X62695Y-44865D01*
X62675Y-44915D01*
X62675Y-44968D01*
X62675Y-48984D01*
X62695Y-49034D01*
X62733Y-49072D01*
X62783Y-49092D01*
X62836Y-49092D01*
X64214Y-49092D01*
X64264Y-49072D01*
X64302Y-49034D01*
X64323Y-48984D01*
X64323Y-48931D01*
X64323Y-46599D01*
X64587Y-46335D01*
X65571Y-46335D01*
X65571Y-46933D01*
X65591Y-46982D01*
X65629Y-47020D01*
X65679Y-47041D01*
X65733Y-47041D01*
X66520Y-47041D01*
X66570Y-47020D01*
X66608Y-46982D01*
X66628Y-46933D01*
X66628Y-46879D01*
X66628Y-46335D01*
X66799Y-46335D01*
X66927Y-46310D01*
X66927Y-46310D01*
X67036Y-46237D01*
X67705Y-45568D01*
X68007Y-45870D01*
X68006Y-45873D01*
X68005Y-45926D01*
X68005Y-46426D01*
X68026Y-46476D01*
X68061Y-46511D01*
X68015Y-46557D01*
X67981Y-46640D01*
X67981Y-46729D01*
X67981Y-46868D01*
X68037Y-46925D01*
X68525Y-46925D01*
X68525Y-46917D01*
X68675Y-46917D01*
X68675Y-46925D01*
X69162Y-46925D01*
X69218Y-46868D01*
X69218Y-46729D01*
X69218Y-47270D01*
X69218Y-47131D01*
X69162Y-47075D01*
X68675Y-47075D01*
X68675Y-47082D01*
X68525Y-47082D01*
X68525Y-47075D01*
X68037Y-47075D01*
X67981Y-47131D01*
X67981Y-47270D01*
X67981Y-47359D01*
X68015Y-47442D01*
X68061Y-47488D01*
X68026Y-47523D01*
X68006Y-47573D01*
X68005Y-47626D01*
X68005Y-48126D01*
X68026Y-48176D01*
X68031Y-48180D01*
X68031Y-48271D01*
X67985Y-48271D01*
X67936Y-48291D01*
X67898Y-48329D01*
X67877Y-48379D01*
X67877Y-48433D01*
X67877Y-49220D01*
X67898Y-49270D01*
X67936Y-49308D01*
X67985Y-49328D01*
X68039Y-49328D01*
X68472Y-49328D01*
X68522Y-49308D01*
X68548Y-49281D01*
X68833Y-49566D01*
X68910Y-49617D01*
X69000Y-49635D01*
X71250Y-49635D01*
X71339Y-49617D01*
X71416Y-49566D01*
X71697Y-49285D01*
X72326Y-49285D01*
X72376Y-49264D01*
X72405Y-49235D01*
X72470Y-49235D01*
X72599Y-49209D01*
X72599Y-49209D01*
X72707Y-49136D01*
X73022Y-48822D01*
X73270Y-48822D01*
X73310Y-48805D01*
X73489Y-48805D01*
X73529Y-48822D01*
X73583Y-48822D01*
X74370Y-48822D01*
X74420Y-48801D01*
X74445Y-48776D01*
X74445Y-52211D01*
X74388Y-52187D01*
X74299Y-52187D01*
X74081Y-52187D01*
X74025Y-52243D01*
X74025Y-52554D01*
X74032Y-52554D01*
X74032Y-52704D01*
X74025Y-52704D01*
X74025Y-53014D01*
X74081Y-53070D01*
X74299Y-53070D01*
X74388Y-53070D01*
X74445Y-53047D01*
X74445Y-53465D01*
X74420Y-53439D01*
X74370Y-53419D01*
X74316Y-53419D01*
X74093Y-53419D01*
X73744Y-53070D01*
X73818Y-53070D01*
X73875Y-53014D01*
X73875Y-52704D01*
X73875Y-52554D01*
X73875Y-52243D01*
X73818Y-52187D01*
X73600Y-52187D01*
X73511Y-52187D01*
X73428Y-52221D01*
X73400Y-52250D01*
X73371Y-52221D01*
X73288Y-52187D01*
X73199Y-52187D01*
X72981Y-52187D01*
X72925Y-52243D01*
X72925Y-52554D01*
X73387Y-52554D01*
X73412Y-52554D01*
X73875Y-52554D01*
X73875Y-52704D01*
X73412Y-52704D01*
X73387Y-52704D01*
X72925Y-52704D01*
X72925Y-53014D01*
X72981Y-53070D01*
X73091Y-53070D01*
X73090Y-53071D01*
X73065Y-53200D01*
X73090Y-53328D01*
X73151Y-53419D01*
X72775Y-53419D01*
X72775Y-53014D01*
X72775Y-52704D01*
X72767Y-52704D01*
X72767Y-52554D01*
X72775Y-52554D01*
X72775Y-52243D01*
X72718Y-52187D01*
X72525Y-52187D01*
X72525Y-52187D01*
X72525Y-52124D01*
X72468Y-52124D01*
X72525Y-52068D01*
X72525Y-51905D01*
X72490Y-51822D01*
X72427Y-51759D01*
X72344Y-51725D01*
X72255Y-51724D01*
X71881Y-51725D01*
X71825Y-51781D01*
X71825Y-52125D01*
X71832Y-52125D01*
X71832Y-52275D01*
X71825Y-52275D01*
X71825Y-52618D01*
X71881Y-52675D01*
X72231Y-52675D01*
X72231Y-52704D01*
X72287Y-52704D01*
X72231Y-52760D01*
X72231Y-52890D01*
X72265Y-52972D01*
X72328Y-53036D01*
X72411Y-53070D01*
X72500Y-53070D01*
X72718Y-53070D01*
X72775Y-53014D01*
X72775Y-53419D01*
X72429Y-53419D01*
X72379Y-53439D01*
X72341Y-53477D01*
X72321Y-53527D01*
X72321Y-53581D01*
X72321Y-53815D01*
X72273Y-53814D01*
X71675Y-53814D01*
X71675Y-52618D01*
X71675Y-52275D01*
X71675Y-52125D01*
X71675Y-51781D01*
X71618Y-51725D01*
X71244Y-51724D01*
X71155Y-51725D01*
X71072Y-51759D01*
X71009Y-51822D01*
X70974Y-51905D01*
X70975Y-52068D01*
X71031Y-52125D01*
X71675Y-52125D01*
X71675Y-52275D01*
X71031Y-52275D01*
X70975Y-52331D01*
X70974Y-52494D01*
X71009Y-52577D01*
X71072Y-52640D01*
X71155Y-52674D01*
X71244Y-52675D01*
X71618Y-52675D01*
X71675Y-52618D01*
X71675Y-53814D01*
X71173Y-53814D01*
X71123Y-53835D01*
X71085Y-53873D01*
X71065Y-53923D01*
X71064Y-53976D01*
X71064Y-54465D01*
X69722Y-54465D01*
X69722Y-53851D01*
X69988Y-53585D01*
X70476Y-53585D01*
X70526Y-53564D01*
X70564Y-53526D01*
X70584Y-53476D01*
X70585Y-53423D01*
X70585Y-52923D01*
X70564Y-52873D01*
X70526Y-52835D01*
X70476Y-52815D01*
X70423Y-52814D01*
X70112Y-52814D01*
X70112Y-50849D01*
X70112Y-50150D01*
X70112Y-50061D01*
X70078Y-49978D01*
X70014Y-49915D01*
X69931Y-49881D01*
X69802Y-49881D01*
X69745Y-49937D01*
X69745Y-50425D01*
X70056Y-50425D01*
X70112Y-50368D01*
X70112Y-50150D01*
X70112Y-50849D01*
X70112Y-50631D01*
X70056Y-50575D01*
X69745Y-50575D01*
X69745Y-51062D01*
X69802Y-51118D01*
X69931Y-51118D01*
X70014Y-51084D01*
X70078Y-51021D01*
X70112Y-50938D01*
X70112Y-50849D01*
X70112Y-52814D01*
X69595Y-52814D01*
X69595Y-51062D01*
X69595Y-50575D01*
X69595Y-50425D01*
X69595Y-49937D01*
X69539Y-49881D01*
X69409Y-49881D01*
X69327Y-49915D01*
X69263Y-49978D01*
X69229Y-50061D01*
X69229Y-50150D01*
X69229Y-50368D01*
X69285Y-50425D01*
X69595Y-50425D01*
X69595Y-50575D01*
X69285Y-50575D01*
X69229Y-50631D01*
X69229Y-50849D01*
X69229Y-50938D01*
X69263Y-51021D01*
X69327Y-51084D01*
X69409Y-51118D01*
X69539Y-51118D01*
X69595Y-51062D01*
X69595Y-52814D01*
X69323Y-52814D01*
X69275Y-52834D01*
X69249Y-52772D01*
X69194Y-52717D01*
X69218Y-52659D01*
X69218Y-52570D01*
X69218Y-52029D01*
X69218Y-51940D01*
X69184Y-51857D01*
X69138Y-51811D01*
X69173Y-51776D01*
X69193Y-51726D01*
X69194Y-51673D01*
X69194Y-51173D01*
X69173Y-51123D01*
X69169Y-51119D01*
X69169Y-50084D01*
X69168Y-50083D01*
X69154Y-50013D01*
X69154Y-50013D01*
X69141Y-49993D01*
X69114Y-49953D01*
X69114Y-49953D01*
X68930Y-49769D01*
X68870Y-49729D01*
X68800Y-49715D01*
X68200Y-49715D01*
X68129Y-49729D01*
X68109Y-49742D01*
X68069Y-49769D01*
X67660Y-50177D01*
X67599Y-50165D01*
X67471Y-50191D01*
X67362Y-50263D01*
X66660Y-50965D01*
X66628Y-50965D01*
X66628Y-50368D01*
X66628Y-49477D01*
X66628Y-47666D01*
X66608Y-47617D01*
X66570Y-47579D01*
X66520Y-47558D01*
X66466Y-47558D01*
X65679Y-47558D01*
X65629Y-47579D01*
X65591Y-47617D01*
X65571Y-47666D01*
X65571Y-47720D01*
X65571Y-49531D01*
X65591Y-49581D01*
X65629Y-49619D01*
X65679Y-49639D01*
X65733Y-49639D01*
X66520Y-49639D01*
X66570Y-49619D01*
X66608Y-49581D01*
X66628Y-49531D01*
X66628Y-49477D01*
X66628Y-50368D01*
X66608Y-50318D01*
X66570Y-50280D01*
X66520Y-50260D01*
X66466Y-50260D01*
X65679Y-50260D01*
X65629Y-50280D01*
X65591Y-50318D01*
X65571Y-50368D01*
X65571Y-50422D01*
X65571Y-50965D01*
X64448Y-50965D01*
X64323Y-50990D01*
X64323Y-50215D01*
X64302Y-50165D01*
X64264Y-50127D01*
X64215Y-50107D01*
X64161Y-50107D01*
X62783Y-50107D01*
X62733Y-50127D01*
X62695Y-50165D01*
X62675Y-50215D01*
X62675Y-50268D01*
X62675Y-54284D01*
X62695Y-54334D01*
X62733Y-54372D01*
X62783Y-54392D01*
X62836Y-54392D01*
X64214Y-54392D01*
X64264Y-54372D01*
X64302Y-54334D01*
X64323Y-54284D01*
X64323Y-54231D01*
X64323Y-51899D01*
X64587Y-51635D01*
X65571Y-51635D01*
X65571Y-52233D01*
X65591Y-52282D01*
X65629Y-52320D01*
X65679Y-52341D01*
X65733Y-52341D01*
X66520Y-52341D01*
X66570Y-52320D01*
X66608Y-52282D01*
X66628Y-52233D01*
X66628Y-52179D01*
X66628Y-51635D01*
X66799Y-51635D01*
X66927Y-51610D01*
X66927Y-51610D01*
X67036Y-51537D01*
X67705Y-50868D01*
X68007Y-51170D01*
X68006Y-51173D01*
X68005Y-51226D01*
X68005Y-51726D01*
X68026Y-51776D01*
X68061Y-51811D01*
X68015Y-51857D01*
X67981Y-51940D01*
X67981Y-52029D01*
X67981Y-52168D01*
X68037Y-52225D01*
X68525Y-52225D01*
X68525Y-52217D01*
X68675Y-52217D01*
X68675Y-52225D01*
X69162Y-52225D01*
X69218Y-52168D01*
X69218Y-52029D01*
X69218Y-52570D01*
X69218Y-52431D01*
X69162Y-52375D01*
X68675Y-52375D01*
X68675Y-52382D01*
X68525Y-52382D01*
X68525Y-52375D01*
X68037Y-52375D01*
X67981Y-52431D01*
X67981Y-52570D01*
X67981Y-52659D01*
X68015Y-52742D01*
X68061Y-52788D01*
X68026Y-52823D01*
X68006Y-52873D01*
X68005Y-52926D01*
X68005Y-53426D01*
X68026Y-53476D01*
X68031Y-53480D01*
X68031Y-53571D01*
X67985Y-53571D01*
X67936Y-53591D01*
X67898Y-53629D01*
X67877Y-53679D01*
X67877Y-53733D01*
X67877Y-54520D01*
X67898Y-54570D01*
X67936Y-54608D01*
X67985Y-54628D01*
X68039Y-54628D01*
X68472Y-54628D01*
X68522Y-54608D01*
X68548Y-54581D01*
X68833Y-54866D01*
X68910Y-54917D01*
X69000Y-54935D01*
X71250Y-54935D01*
X71339Y-54917D01*
X71416Y-54866D01*
X71697Y-54585D01*
X72326Y-54585D01*
X72376Y-54564D01*
X72405Y-54535D01*
X72470Y-54535D01*
X72599Y-54509D01*
X72599Y-54509D01*
X72707Y-54436D01*
X73022Y-54122D01*
X73270Y-54122D01*
X73310Y-54105D01*
X73489Y-54105D01*
X73529Y-54122D01*
X73583Y-54122D01*
X74370Y-54122D01*
X74420Y-54101D01*
X74445Y-54076D01*
X74445Y-54719D01*
X74445Y-54719D01*
G37*
G54D28*
X74445Y-54719D02*
X74019Y-55145D01*
X66628Y-55145D01*
X66628Y-54777D01*
X66628Y-52966D01*
X66608Y-52917D01*
X66570Y-52879D01*
X66520Y-52858D01*
X66466Y-52858D01*
X65679Y-52858D01*
X65629Y-52879D01*
X65591Y-52917D01*
X65571Y-52966D01*
X65571Y-53020D01*
X65571Y-54831D01*
X65591Y-54881D01*
X65629Y-54919D01*
X65679Y-54939D01*
X65733Y-54939D01*
X66520Y-54939D01*
X66570Y-54919D01*
X66608Y-54881D01*
X66628Y-54831D01*
X66628Y-54777D01*
X66628Y-55145D01*
X62780Y-55145D01*
X62525Y-54889D01*
X62525Y-29710D01*
X62585Y-29650D01*
X62585Y-31468D01*
X62641Y-31525D01*
X63424Y-31525D01*
X63424Y-29423D01*
X63367Y-29367D01*
X62868Y-29367D01*
X62980Y-29254D01*
X64819Y-29254D01*
X65275Y-29710D01*
X65275Y-30079D01*
X65156Y-30080D01*
X65100Y-30136D01*
X65100Y-30525D01*
X65107Y-30525D01*
X65107Y-30675D01*
X65100Y-30675D01*
X65100Y-31063D01*
X65156Y-31120D01*
X65275Y-31120D01*
X65275Y-31910D01*
X66289Y-32925D01*
X73589Y-32925D01*
X73682Y-33017D01*
X74445Y-33780D01*
X74445Y-36311D01*
X74388Y-36287D01*
X74299Y-36287D01*
X74081Y-36287D01*
X74025Y-36343D01*
X74025Y-36654D01*
X74032Y-36654D01*
X74032Y-36804D01*
X74025Y-36804D01*
X74025Y-37114D01*
X74081Y-37170D01*
X74299Y-37170D01*
X74388Y-37170D01*
X74445Y-37147D01*
X74445Y-37565D01*
X74420Y-37539D01*
X74370Y-37519D01*
X74316Y-37519D01*
X74257Y-37519D01*
X74235Y-37485D01*
X74186Y-37413D01*
X74186Y-37413D01*
X73875Y-37101D01*
X73875Y-36804D01*
X73875Y-36654D01*
X73875Y-36343D01*
X73818Y-36287D01*
X73600Y-36287D01*
X73511Y-36287D01*
X73428Y-36321D01*
X73400Y-36350D01*
X73371Y-36321D01*
X73288Y-36287D01*
X73199Y-36287D01*
X72981Y-36287D01*
X72925Y-36343D01*
X72925Y-36654D01*
X73387Y-36654D01*
X73412Y-36654D01*
X73875Y-36654D01*
X73875Y-36804D01*
X73412Y-36804D01*
X73387Y-36804D01*
X72925Y-36804D01*
X72925Y-36812D01*
X72775Y-36812D01*
X72775Y-36804D01*
X72767Y-36804D01*
X72767Y-36654D01*
X72775Y-36654D01*
X72775Y-36343D01*
X72718Y-36287D01*
X72500Y-36287D01*
X72475Y-36287D01*
X72475Y-36287D01*
X72475Y-36224D01*
X72418Y-36224D01*
X72475Y-36168D01*
X72475Y-36005D01*
X72440Y-35922D01*
X72377Y-35859D01*
X72294Y-35825D01*
X72205Y-35824D01*
X71831Y-35825D01*
X71775Y-35881D01*
X71775Y-36225D01*
X71782Y-36225D01*
X71782Y-36375D01*
X71775Y-36375D01*
X71775Y-36718D01*
X71831Y-36775D01*
X72205Y-36775D01*
X72231Y-36775D01*
X72231Y-36804D01*
X72287Y-36804D01*
X72231Y-36860D01*
X72231Y-36965D01*
X71625Y-36965D01*
X71625Y-36718D01*
X71625Y-36375D01*
X71625Y-36225D01*
X71625Y-35881D01*
X71568Y-35825D01*
X71194Y-35824D01*
X71105Y-35825D01*
X71022Y-35859D01*
X70959Y-35922D01*
X70924Y-36005D01*
X70925Y-36168D01*
X70981Y-36225D01*
X71625Y-36225D01*
X71625Y-36375D01*
X70981Y-36375D01*
X70925Y-36431D01*
X70924Y-36594D01*
X70959Y-36677D01*
X71022Y-36740D01*
X71105Y-36774D01*
X71194Y-36775D01*
X71568Y-36775D01*
X71625Y-36718D01*
X71625Y-36965D01*
X70800Y-36965D01*
X70671Y-36990D01*
X70563Y-37063D01*
X70535Y-37105D01*
X70535Y-37023D01*
X70514Y-36973D01*
X70476Y-36935D01*
X70426Y-36915D01*
X70373Y-36914D01*
X70062Y-36914D01*
X70062Y-34949D01*
X70062Y-34250D01*
X70062Y-34161D01*
X70028Y-34078D01*
X69964Y-34015D01*
X69881Y-33981D01*
X69752Y-33981D01*
X69695Y-34037D01*
X69695Y-34525D01*
X70006Y-34525D01*
X70062Y-34468D01*
X70062Y-34250D01*
X70062Y-34949D01*
X70062Y-34731D01*
X70006Y-34675D01*
X69695Y-34675D01*
X69695Y-35162D01*
X69752Y-35218D01*
X69881Y-35218D01*
X69964Y-35184D01*
X70028Y-35121D01*
X70062Y-35038D01*
X70062Y-34949D01*
X70062Y-36914D01*
X69545Y-36914D01*
X69545Y-35162D01*
X69545Y-34675D01*
X69545Y-34525D01*
X69545Y-34037D01*
X69489Y-33981D01*
X69359Y-33981D01*
X69277Y-34015D01*
X69213Y-34078D01*
X69179Y-34161D01*
X69179Y-34250D01*
X69179Y-34468D01*
X69235Y-34525D01*
X69545Y-34525D01*
X69545Y-34675D01*
X69235Y-34675D01*
X69179Y-34731D01*
X69179Y-34949D01*
X69179Y-35038D01*
X69213Y-35121D01*
X69277Y-35184D01*
X69359Y-35218D01*
X69489Y-35218D01*
X69545Y-35162D01*
X69545Y-36914D01*
X69273Y-36914D01*
X69225Y-36934D01*
X69199Y-36872D01*
X69144Y-36817D01*
X69168Y-36759D01*
X69168Y-36670D01*
X69168Y-36129D01*
X69168Y-36040D01*
X69134Y-35957D01*
X69088Y-35911D01*
X69123Y-35876D01*
X69143Y-35826D01*
X69144Y-35773D01*
X69144Y-35273D01*
X69123Y-35223D01*
X69119Y-35219D01*
X69119Y-34184D01*
X69118Y-34183D01*
X69104Y-34113D01*
X69104Y-34113D01*
X69091Y-34093D01*
X69064Y-34053D01*
X69064Y-34053D01*
X68880Y-33869D01*
X68820Y-33829D01*
X68750Y-33815D01*
X68150Y-33815D01*
X68079Y-33829D01*
X68059Y-33842D01*
X68019Y-33869D01*
X67610Y-34277D01*
X67549Y-34265D01*
X67421Y-34291D01*
X67312Y-34363D01*
X66628Y-35047D01*
X66628Y-34468D01*
X66608Y-34418D01*
X66570Y-34380D01*
X66520Y-34360D01*
X66466Y-34360D01*
X65679Y-34360D01*
X65629Y-34380D01*
X65591Y-34418D01*
X65571Y-34468D01*
X65571Y-34522D01*
X65571Y-35065D01*
X64950Y-35065D01*
X64950Y-31063D01*
X64950Y-30675D01*
X64950Y-30525D01*
X64950Y-30136D01*
X64893Y-30080D01*
X64724Y-30079D01*
X64641Y-30114D01*
X64578Y-30177D01*
X64544Y-30260D01*
X64543Y-30349D01*
X64544Y-30468D01*
X64600Y-30525D01*
X64950Y-30525D01*
X64950Y-30675D01*
X64600Y-30675D01*
X64544Y-30731D01*
X64543Y-30850D01*
X64544Y-30939D01*
X64578Y-31022D01*
X64641Y-31085D01*
X64724Y-31120D01*
X64893Y-31120D01*
X64950Y-31063D01*
X64950Y-35065D01*
X64448Y-35065D01*
X64413Y-35072D01*
X64413Y-33563D01*
X64413Y-29636D01*
X64413Y-29547D01*
X64378Y-29464D01*
X64315Y-29401D01*
X64232Y-29367D01*
X63630Y-29367D01*
X63574Y-29423D01*
X63574Y-31525D01*
X64356Y-31525D01*
X64413Y-31468D01*
X64413Y-29636D01*
X64413Y-33563D01*
X64413Y-31731D01*
X64356Y-31675D01*
X63574Y-31675D01*
X63574Y-33776D01*
X63630Y-33832D01*
X64232Y-33832D01*
X64315Y-33798D01*
X64378Y-33735D01*
X64413Y-33652D01*
X64413Y-33563D01*
X64413Y-35072D01*
X64323Y-35090D01*
X64323Y-34315D01*
X64302Y-34265D01*
X64264Y-34227D01*
X64215Y-34207D01*
X64161Y-34207D01*
X63424Y-34207D01*
X63424Y-33776D01*
X63424Y-31675D01*
X62641Y-31675D01*
X62585Y-31731D01*
X62585Y-33563D01*
X62585Y-33652D01*
X62619Y-33735D01*
X62682Y-33798D01*
X62765Y-33832D01*
X63367Y-33832D01*
X63424Y-33776D01*
X63424Y-34207D01*
X62783Y-34207D01*
X62733Y-34227D01*
X62695Y-34265D01*
X62675Y-34315D01*
X62675Y-34368D01*
X62675Y-38384D01*
X62695Y-38434D01*
X62733Y-38472D01*
X62783Y-38492D01*
X62836Y-38492D01*
X64214Y-38492D01*
X64264Y-38472D01*
X64302Y-38434D01*
X64323Y-38384D01*
X64323Y-38331D01*
X64323Y-35999D01*
X64587Y-35735D01*
X65571Y-35735D01*
X65571Y-36333D01*
X65591Y-36382D01*
X65629Y-36420D01*
X65679Y-36441D01*
X65733Y-36441D01*
X66520Y-36441D01*
X66570Y-36420D01*
X66608Y-36382D01*
X66628Y-36333D01*
X66628Y-36279D01*
X66628Y-35735D01*
X66749Y-35735D01*
X66877Y-35710D01*
X66877Y-35710D01*
X66986Y-35637D01*
X67655Y-34968D01*
X67957Y-35270D01*
X67956Y-35273D01*
X67955Y-35326D01*
X67955Y-35826D01*
X67976Y-35876D01*
X68011Y-35911D01*
X67965Y-35957D01*
X67931Y-36040D01*
X67931Y-36129D01*
X67931Y-36268D01*
X67987Y-36325D01*
X68475Y-36325D01*
X68475Y-36317D01*
X68625Y-36317D01*
X68625Y-36325D01*
X69112Y-36325D01*
X69168Y-36268D01*
X69168Y-36129D01*
X69168Y-36670D01*
X69168Y-36531D01*
X69112Y-36475D01*
X68625Y-36475D01*
X68625Y-36482D01*
X68475Y-36482D01*
X68475Y-36475D01*
X67987Y-36475D01*
X67931Y-36531D01*
X67931Y-36670D01*
X67931Y-36759D01*
X67965Y-36842D01*
X68011Y-36888D01*
X67976Y-36923D01*
X67956Y-36973D01*
X67955Y-37026D01*
X67955Y-37526D01*
X67976Y-37576D01*
X67981Y-37580D01*
X67981Y-37671D01*
X67935Y-37671D01*
X67886Y-37691D01*
X67848Y-37729D01*
X67827Y-37779D01*
X67827Y-37833D01*
X67827Y-38620D01*
X67848Y-38670D01*
X67886Y-38708D01*
X67935Y-38728D01*
X67989Y-38728D01*
X68422Y-38728D01*
X68472Y-38708D01*
X68498Y-38681D01*
X68783Y-38966D01*
X68860Y-39017D01*
X68950Y-39035D01*
X71200Y-39035D01*
X71289Y-39017D01*
X71366Y-38966D01*
X71647Y-38685D01*
X72276Y-38685D01*
X72326Y-38664D01*
X72355Y-38635D01*
X72420Y-38635D01*
X72549Y-38609D01*
X72549Y-38609D01*
X72657Y-38536D01*
X72972Y-38222D01*
X73270Y-38222D01*
X73310Y-38205D01*
X73489Y-38205D01*
X73529Y-38222D01*
X73583Y-38222D01*
X74370Y-38222D01*
X74420Y-38201D01*
X74445Y-38176D01*
X74445Y-41611D01*
X74388Y-41587D01*
X74299Y-41587D01*
X74081Y-41587D01*
X74025Y-41643D01*
X74025Y-41954D01*
X74032Y-41954D01*
X74032Y-42104D01*
X74025Y-42104D01*
X74025Y-42414D01*
X74081Y-42470D01*
X74299Y-42470D01*
X74388Y-42470D01*
X74445Y-42447D01*
X74445Y-42865D01*
X74420Y-42839D01*
X74370Y-42819D01*
X74316Y-42819D01*
X74257Y-42819D01*
X74235Y-42785D01*
X74186Y-42713D01*
X74186Y-42713D01*
X73875Y-42401D01*
X73875Y-42104D01*
X73875Y-41954D01*
X73875Y-41643D01*
X73818Y-41587D01*
X73600Y-41587D01*
X73511Y-41587D01*
X73428Y-41621D01*
X73400Y-41650D01*
X73371Y-41621D01*
X73288Y-41587D01*
X73199Y-41587D01*
X72981Y-41587D01*
X72925Y-41643D01*
X72925Y-41954D01*
X73387Y-41954D01*
X73412Y-41954D01*
X73875Y-41954D01*
X73875Y-42104D01*
X73412Y-42104D01*
X73387Y-42104D01*
X72925Y-42104D01*
X72925Y-42112D01*
X72775Y-42112D01*
X72775Y-42104D01*
X72767Y-42104D01*
X72767Y-41954D01*
X72775Y-41954D01*
X72775Y-41643D01*
X72718Y-41587D01*
X72500Y-41587D01*
X72475Y-41587D01*
X72475Y-41587D01*
X72475Y-41524D01*
X72418Y-41524D01*
X72475Y-41468D01*
X72475Y-41305D01*
X72440Y-41222D01*
X72377Y-41159D01*
X72294Y-41125D01*
X72205Y-41124D01*
X71831Y-41125D01*
X71775Y-41181D01*
X71775Y-41525D01*
X71782Y-41525D01*
X71782Y-41675D01*
X71775Y-41675D01*
X71775Y-42018D01*
X71831Y-42075D01*
X72205Y-42075D01*
X72231Y-42075D01*
X72231Y-42104D01*
X72287Y-42104D01*
X72231Y-42160D01*
X72231Y-42265D01*
X71838Y-42265D01*
X71636Y-42063D01*
X71603Y-42040D01*
X71625Y-42018D01*
X71625Y-41675D01*
X71625Y-41525D01*
X71625Y-41181D01*
X71568Y-41125D01*
X71194Y-41124D01*
X71105Y-41125D01*
X71022Y-41159D01*
X70959Y-41222D01*
X70924Y-41305D01*
X70925Y-41468D01*
X70981Y-41525D01*
X71625Y-41525D01*
X71625Y-41675D01*
X70981Y-41675D01*
X70925Y-41731D01*
X70924Y-41894D01*
X70959Y-41977D01*
X71022Y-42040D01*
X71105Y-42074D01*
X71155Y-42075D01*
X71090Y-42171D01*
X71065Y-42300D01*
X71090Y-42428D01*
X71163Y-42536D01*
X71463Y-42836D01*
X71463Y-42836D01*
X71535Y-42885D01*
X71571Y-42909D01*
X71571Y-42909D01*
X71699Y-42934D01*
X71700Y-42935D01*
X72321Y-42935D01*
X72321Y-42981D01*
X72321Y-43225D01*
X72315Y-43231D01*
X72276Y-43215D01*
X72223Y-43214D01*
X71123Y-43214D01*
X71073Y-43235D01*
X71035Y-43273D01*
X71015Y-43323D01*
X71014Y-43376D01*
X71014Y-43865D01*
X69672Y-43865D01*
X69672Y-43251D01*
X69938Y-42985D01*
X70426Y-42985D01*
X70476Y-42964D01*
X70514Y-42926D01*
X70534Y-42876D01*
X70535Y-42823D01*
X70535Y-42323D01*
X70514Y-42273D01*
X70476Y-42235D01*
X70426Y-42215D01*
X70373Y-42214D01*
X70062Y-42214D01*
X70062Y-40249D01*
X70062Y-39550D01*
X70062Y-39461D01*
X70028Y-39378D01*
X69964Y-39315D01*
X69881Y-39281D01*
X69752Y-39281D01*
X69695Y-39337D01*
X69695Y-39825D01*
X70006Y-39825D01*
X70062Y-39768D01*
X70062Y-39550D01*
X70062Y-40249D01*
X70062Y-40031D01*
X70006Y-39975D01*
X69695Y-39975D01*
X69695Y-40462D01*
X69752Y-40518D01*
X69881Y-40518D01*
X69964Y-40484D01*
X70028Y-40421D01*
X70062Y-40338D01*
X70062Y-40249D01*
X70062Y-42214D01*
X69545Y-42214D01*
X69545Y-40462D01*
X69545Y-39975D01*
X69545Y-39825D01*
X69545Y-39337D01*
X69489Y-39281D01*
X69359Y-39281D01*
X69277Y-39315D01*
X69213Y-39378D01*
X69179Y-39461D01*
X69179Y-39550D01*
X69179Y-39768D01*
X69235Y-39825D01*
X69545Y-39825D01*
X69545Y-39975D01*
X69235Y-39975D01*
X69179Y-40031D01*
X69179Y-40249D01*
X69179Y-40338D01*
X69213Y-40421D01*
X69277Y-40484D01*
X69359Y-40518D01*
X69489Y-40518D01*
X69545Y-40462D01*
X69545Y-42214D01*
X69273Y-42214D01*
X69225Y-42234D01*
X69199Y-42172D01*
X69144Y-42117D01*
X69168Y-42059D01*
X69168Y-41970D01*
X69168Y-41429D01*
X69168Y-41340D01*
X69134Y-41257D01*
X69088Y-41211D01*
X69123Y-41176D01*
X69143Y-41126D01*
X69144Y-41073D01*
X69144Y-40573D01*
X69123Y-40523D01*
X69119Y-40519D01*
X69119Y-39484D01*
X69118Y-39483D01*
X69104Y-39413D01*
X69104Y-39413D01*
X69091Y-39393D01*
X69064Y-39353D01*
X69064Y-39353D01*
X68880Y-39169D01*
X68820Y-39129D01*
X68750Y-39115D01*
X68150Y-39115D01*
X68079Y-39129D01*
X68059Y-39142D01*
X68019Y-39169D01*
X67610Y-39577D01*
X67549Y-39565D01*
X67421Y-39591D01*
X67312Y-39663D01*
X66628Y-40347D01*
X66628Y-39768D01*
X66628Y-38877D01*
X66628Y-37066D01*
X66608Y-37017D01*
X66570Y-36979D01*
X66520Y-36958D01*
X66466Y-36958D01*
X65679Y-36958D01*
X65629Y-36979D01*
X65591Y-37017D01*
X65571Y-37066D01*
X65571Y-37120D01*
X65571Y-38931D01*
X65591Y-38981D01*
X65629Y-39019D01*
X65679Y-39039D01*
X65733Y-39039D01*
X66520Y-39039D01*
X66570Y-39019D01*
X66608Y-38981D01*
X66628Y-38931D01*
X66628Y-38877D01*
X66628Y-39768D01*
X66608Y-39718D01*
X66570Y-39680D01*
X66520Y-39660D01*
X66466Y-39660D01*
X65679Y-39660D01*
X65629Y-39680D01*
X65591Y-39718D01*
X65571Y-39768D01*
X65571Y-39822D01*
X65571Y-40365D01*
X64448Y-40365D01*
X64323Y-40390D01*
X64323Y-39615D01*
X64302Y-39565D01*
X64264Y-39527D01*
X64215Y-39507D01*
X64161Y-39507D01*
X62783Y-39507D01*
X62733Y-39527D01*
X62695Y-39565D01*
X62675Y-39615D01*
X62675Y-39668D01*
X62675Y-43684D01*
X62695Y-43734D01*
X62733Y-43772D01*
X62783Y-43792D01*
X62836Y-43792D01*
X64214Y-43792D01*
X64264Y-43772D01*
X64302Y-43734D01*
X64323Y-43684D01*
X64323Y-43631D01*
X64323Y-41299D01*
X64587Y-41035D01*
X65571Y-41035D01*
X65571Y-41633D01*
X65591Y-41682D01*
X65629Y-41720D01*
X65679Y-41741D01*
X65733Y-41741D01*
X66520Y-41741D01*
X66570Y-41720D01*
X66608Y-41682D01*
X66628Y-41633D01*
X66628Y-41579D01*
X66628Y-41035D01*
X66749Y-41035D01*
X66877Y-41010D01*
X66877Y-41010D01*
X66986Y-40937D01*
X67655Y-40268D01*
X67957Y-40570D01*
X67956Y-40573D01*
X67955Y-40626D01*
X67955Y-41126D01*
X67976Y-41176D01*
X68011Y-41211D01*
X67965Y-41257D01*
X67931Y-41340D01*
X67931Y-41429D01*
X67931Y-41568D01*
X67987Y-41625D01*
X68475Y-41625D01*
X68475Y-41617D01*
X68625Y-41617D01*
X68625Y-41625D01*
X69112Y-41625D01*
X69168Y-41568D01*
X69168Y-41429D01*
X69168Y-41970D01*
X69168Y-41831D01*
X69112Y-41775D01*
X68625Y-41775D01*
X68625Y-41782D01*
X68475Y-41782D01*
X68475Y-41775D01*
X67987Y-41775D01*
X67931Y-41831D01*
X67931Y-41970D01*
X67931Y-42059D01*
X67965Y-42142D01*
X68011Y-42188D01*
X67976Y-42223D01*
X67956Y-42273D01*
X67955Y-42326D01*
X67955Y-42826D01*
X67976Y-42876D01*
X67981Y-42880D01*
X67981Y-42971D01*
X67935Y-42971D01*
X67886Y-42991D01*
X67848Y-43029D01*
X67827Y-43079D01*
X67827Y-43133D01*
X67827Y-43920D01*
X67848Y-43970D01*
X67886Y-44008D01*
X67935Y-44028D01*
X67989Y-44028D01*
X68422Y-44028D01*
X68472Y-44008D01*
X68498Y-43981D01*
X68783Y-44266D01*
X68860Y-44317D01*
X68950Y-44335D01*
X71200Y-44335D01*
X71289Y-44317D01*
X71366Y-44266D01*
X71647Y-43985D01*
X72276Y-43985D01*
X72326Y-43964D01*
X72355Y-43935D01*
X72420Y-43935D01*
X72549Y-43909D01*
X72549Y-43909D01*
X72657Y-43836D01*
X72972Y-43522D01*
X73270Y-43522D01*
X73310Y-43505D01*
X73489Y-43505D01*
X73529Y-43522D01*
X73583Y-43522D01*
X74370Y-43522D01*
X74420Y-43501D01*
X74445Y-43476D01*
X74445Y-46911D01*
X74388Y-46887D01*
X74299Y-46887D01*
X74081Y-46887D01*
X74025Y-46943D01*
X74025Y-47254D01*
X74032Y-47254D01*
X74032Y-47404D01*
X74025Y-47404D01*
X74025Y-47714D01*
X74081Y-47770D01*
X74299Y-47770D01*
X74388Y-47770D01*
X74445Y-47747D01*
X74445Y-48165D01*
X74420Y-48139D01*
X74370Y-48119D01*
X74316Y-48119D01*
X74257Y-48119D01*
X74235Y-48085D01*
X74186Y-48013D01*
X74186Y-48013D01*
X73875Y-47701D01*
X73875Y-47404D01*
X73875Y-47254D01*
X73875Y-46943D01*
X73818Y-46887D01*
X73600Y-46887D01*
X73511Y-46887D01*
X73428Y-46921D01*
X73400Y-46950D01*
X73371Y-46921D01*
X73288Y-46887D01*
X73199Y-46887D01*
X72981Y-46887D01*
X72925Y-46943D01*
X72925Y-47254D01*
X73387Y-47254D01*
X73412Y-47254D01*
X73875Y-47254D01*
X73875Y-47404D01*
X73412Y-47404D01*
X73387Y-47404D01*
X72925Y-47404D01*
X72925Y-47412D01*
X72775Y-47412D01*
X72775Y-47404D01*
X72767Y-47404D01*
X72767Y-47254D01*
X72775Y-47254D01*
X72775Y-46943D01*
X72718Y-46887D01*
X72525Y-46887D01*
X72525Y-46887D01*
X72525Y-46824D01*
X72468Y-46824D01*
X72525Y-46768D01*
X72525Y-46605D01*
X72490Y-46522D01*
X72427Y-46459D01*
X72344Y-46425D01*
X72255Y-46424D01*
X71881Y-46425D01*
X71825Y-46481D01*
X71825Y-46825D01*
X71832Y-46825D01*
X71832Y-46975D01*
X71825Y-46975D01*
X71825Y-47318D01*
X71826Y-47320D01*
X71763Y-47363D01*
X71690Y-47471D01*
X71675Y-47549D01*
X71675Y-47318D01*
X71675Y-46975D01*
X71675Y-46825D01*
X71675Y-46481D01*
X71618Y-46425D01*
X71244Y-46424D01*
X71155Y-46425D01*
X71072Y-46459D01*
X71009Y-46522D01*
X70974Y-46605D01*
X70975Y-46768D01*
X71031Y-46825D01*
X71675Y-46825D01*
X71675Y-46975D01*
X71031Y-46975D01*
X70975Y-47031D01*
X70974Y-47194D01*
X71009Y-47277D01*
X71072Y-47340D01*
X71155Y-47374D01*
X71244Y-47375D01*
X71618Y-47375D01*
X71675Y-47318D01*
X71675Y-47549D01*
X71665Y-47600D01*
X71690Y-47728D01*
X71763Y-47836D01*
X72063Y-48136D01*
X72063Y-48136D01*
X72135Y-48185D01*
X72171Y-48209D01*
X72171Y-48209D01*
X72299Y-48234D01*
X72300Y-48235D01*
X72321Y-48235D01*
X72321Y-48281D01*
X72321Y-48515D01*
X72273Y-48514D01*
X71173Y-48514D01*
X71123Y-48535D01*
X71085Y-48573D01*
X71065Y-48623D01*
X71064Y-48676D01*
X71064Y-49165D01*
X69722Y-49165D01*
X69722Y-48551D01*
X69988Y-48285D01*
X70476Y-48285D01*
X70526Y-48264D01*
X70564Y-48226D01*
X70584Y-48176D01*
X70585Y-48123D01*
X70585Y-47623D01*
X70564Y-47573D01*
X70526Y-47535D01*
X70476Y-47515D01*
X70423Y-47514D01*
X70112Y-47514D01*
X70112Y-45549D01*
X70112Y-44850D01*
X70112Y-44761D01*
X70078Y-44678D01*
X70014Y-44615D01*
X69931Y-44581D01*
X69802Y-44581D01*
X69745Y-44637D01*
X69745Y-45125D01*
X70056Y-45125D01*
X70112Y-45068D01*
X70112Y-44850D01*
X70112Y-45549D01*
X70112Y-45331D01*
X70056Y-45275D01*
X69745Y-45275D01*
X69745Y-45762D01*
X69802Y-45818D01*
X69931Y-45818D01*
X70014Y-45784D01*
X70078Y-45721D01*
X70112Y-45638D01*
X70112Y-45549D01*
X70112Y-47514D01*
X69595Y-47514D01*
X69595Y-45762D01*
X69595Y-45275D01*
X69595Y-45125D01*
X69595Y-44637D01*
X69539Y-44581D01*
X69409Y-44581D01*
X69327Y-44615D01*
X69263Y-44678D01*
X69229Y-44761D01*
X69229Y-44850D01*
X69229Y-45068D01*
X69285Y-45125D01*
X69595Y-45125D01*
X69595Y-45275D01*
X69285Y-45275D01*
X69229Y-45331D01*
X69229Y-45549D01*
X69229Y-45638D01*
X69263Y-45721D01*
X69327Y-45784D01*
X69409Y-45818D01*
X69539Y-45818D01*
X69595Y-45762D01*
X69595Y-47514D01*
X69323Y-47514D01*
X69275Y-47534D01*
X69249Y-47472D01*
X69194Y-47417D01*
X69218Y-47359D01*
X69218Y-47270D01*
X69218Y-46729D01*
X69218Y-46640D01*
X69184Y-46557D01*
X69138Y-46511D01*
X69173Y-46476D01*
X69193Y-46426D01*
X69194Y-46373D01*
X69194Y-45873D01*
X69173Y-45823D01*
X69169Y-45819D01*
X69169Y-44784D01*
X69168Y-44783D01*
X69154Y-44713D01*
X69154Y-44713D01*
X69141Y-44693D01*
X69114Y-44653D01*
X69114Y-44653D01*
X68930Y-44469D01*
X68870Y-44429D01*
X68800Y-44415D01*
X68200Y-44415D01*
X68129Y-44429D01*
X68109Y-44442D01*
X68069Y-44469D01*
X67660Y-44877D01*
X67599Y-44865D01*
X67471Y-44891D01*
X67362Y-44963D01*
X66660Y-45665D01*
X66628Y-45665D01*
X66628Y-45068D01*
X66628Y-44177D01*
X66628Y-42366D01*
X66608Y-42317D01*
X66570Y-42279D01*
X66520Y-42258D01*
X66466Y-42258D01*
X65679Y-42258D01*
X65629Y-42279D01*
X65591Y-42317D01*
X65571Y-42366D01*
X65571Y-42420D01*
X65571Y-44231D01*
X65591Y-44281D01*
X65629Y-44319D01*
X65679Y-44339D01*
X65733Y-44339D01*
X66520Y-44339D01*
X66570Y-44319D01*
X66608Y-44281D01*
X66628Y-44231D01*
X66628Y-44177D01*
X66628Y-45068D01*
X66608Y-45018D01*
X66570Y-44980D01*
X66520Y-44960D01*
X66466Y-44960D01*
X65679Y-44960D01*
X65629Y-44980D01*
X65591Y-45018D01*
X65571Y-45068D01*
X65571Y-45122D01*
X65571Y-45665D01*
X64448Y-45665D01*
X64323Y-45690D01*
X64323Y-44915D01*
X64302Y-44865D01*
X64264Y-44827D01*
X64215Y-44807D01*
X64161Y-44807D01*
X62783Y-44807D01*
X62733Y-44827D01*
X62695Y-44865D01*
X62675Y-44915D01*
X62675Y-44968D01*
X62675Y-48984D01*
X62695Y-49034D01*
X62733Y-49072D01*
X62783Y-49092D01*
X62836Y-49092D01*
X64214Y-49092D01*
X64264Y-49072D01*
X64302Y-49034D01*
X64323Y-48984D01*
X64323Y-48931D01*
X64323Y-46599D01*
X64587Y-46335D01*
X65571Y-46335D01*
X65571Y-46933D01*
X65591Y-46982D01*
X65629Y-47020D01*
X65679Y-47041D01*
X65733Y-47041D01*
X66520Y-47041D01*
X66570Y-47020D01*
X66608Y-46982D01*
X66628Y-46933D01*
X66628Y-46879D01*
X66628Y-46335D01*
X66799Y-46335D01*
X66927Y-46310D01*
X66927Y-46310D01*
X67036Y-46237D01*
X67705Y-45568D01*
X68007Y-45870D01*
X68006Y-45873D01*
X68005Y-45926D01*
X68005Y-46426D01*
X68026Y-46476D01*
X68061Y-46511D01*
X68015Y-46557D01*
X67981Y-46640D01*
X67981Y-46729D01*
X67981Y-46868D01*
X68037Y-46925D01*
X68525Y-46925D01*
X68525Y-46917D01*
X68675Y-46917D01*
X68675Y-46925D01*
X69162Y-46925D01*
X69218Y-46868D01*
X69218Y-46729D01*
X69218Y-47270D01*
X69218Y-47131D01*
X69162Y-47075D01*
X68675Y-47075D01*
X68675Y-47082D01*
X68525Y-47082D01*
X68525Y-47075D01*
X68037Y-47075D01*
X67981Y-47131D01*
X67981Y-47270D01*
X67981Y-47359D01*
X68015Y-47442D01*
X68061Y-47488D01*
X68026Y-47523D01*
X68006Y-47573D01*
X68005Y-47626D01*
X68005Y-48126D01*
X68026Y-48176D01*
X68031Y-48180D01*
X68031Y-48271D01*
X67985Y-48271D01*
X67936Y-48291D01*
X67898Y-48329D01*
X67877Y-48379D01*
X67877Y-48433D01*
X67877Y-49220D01*
X67898Y-49270D01*
X67936Y-49308D01*
X67985Y-49328D01*
X68039Y-49328D01*
X68472Y-49328D01*
X68522Y-49308D01*
X68548Y-49281D01*
X68833Y-49566D01*
X68910Y-49617D01*
X69000Y-49635D01*
X71250Y-49635D01*
X71339Y-49617D01*
X71416Y-49566D01*
X71697Y-49285D01*
X72326Y-49285D01*
X72376Y-49264D01*
X72405Y-49235D01*
X72470Y-49235D01*
X72599Y-49209D01*
X72599Y-49209D01*
X72707Y-49136D01*
X73022Y-48822D01*
X73270Y-48822D01*
X73310Y-48805D01*
X73489Y-48805D01*
X73529Y-48822D01*
X73583Y-48822D01*
X74370Y-48822D01*
X74420Y-48801D01*
X74445Y-48776D01*
X74445Y-52211D01*
X74388Y-52187D01*
X74299Y-52187D01*
X74081Y-52187D01*
X74025Y-52243D01*
X74025Y-52554D01*
X74032Y-52554D01*
X74032Y-52704D01*
X74025Y-52704D01*
X74025Y-53014D01*
X74081Y-53070D01*
X74299Y-53070D01*
X74388Y-53070D01*
X74445Y-53047D01*
X74445Y-53465D01*
X74420Y-53439D01*
X74370Y-53419D01*
X74316Y-53419D01*
X74093Y-53419D01*
X73744Y-53070D01*
X73818Y-53070D01*
X73875Y-53014D01*
X73875Y-52704D01*
X73875Y-52554D01*
X73875Y-52243D01*
X73818Y-52187D01*
X73600Y-52187D01*
X73511Y-52187D01*
X73428Y-52221D01*
X73400Y-52250D01*
X73371Y-52221D01*
X73288Y-52187D01*
X73199Y-52187D01*
X72981Y-52187D01*
X72925Y-52243D01*
X72925Y-52554D01*
X73387Y-52554D01*
X73412Y-52554D01*
X73875Y-52554D01*
X73875Y-52704D01*
X73412Y-52704D01*
X73387Y-52704D01*
X72925Y-52704D01*
X72925Y-53014D01*
X72981Y-53070D01*
X73091Y-53070D01*
X73090Y-53071D01*
X73065Y-53200D01*
X73090Y-53328D01*
X73151Y-53419D01*
X72775Y-53419D01*
X72775Y-53014D01*
X72775Y-52704D01*
X72767Y-52704D01*
X72767Y-52554D01*
X72775Y-52554D01*
X72775Y-52243D01*
X72718Y-52187D01*
X72525Y-52187D01*
X72525Y-52187D01*
X72525Y-52124D01*
X72468Y-52124D01*
X72525Y-52068D01*
X72525Y-51905D01*
X72490Y-51822D01*
X72427Y-51759D01*
X72344Y-51725D01*
X72255Y-51724D01*
X71881Y-51725D01*
X71825Y-51781D01*
X71825Y-52125D01*
X71832Y-52125D01*
X71832Y-52275D01*
X71825Y-52275D01*
X71825Y-52618D01*
X71881Y-52675D01*
X72231Y-52675D01*
X72231Y-52704D01*
X72287Y-52704D01*
X72231Y-52760D01*
X72231Y-52890D01*
X72265Y-52972D01*
X72328Y-53036D01*
X72411Y-53070D01*
X72500Y-53070D01*
X72718Y-53070D01*
X72775Y-53014D01*
X72775Y-53419D01*
X72429Y-53419D01*
X72379Y-53439D01*
X72341Y-53477D01*
X72321Y-53527D01*
X72321Y-53581D01*
X72321Y-53815D01*
X72273Y-53814D01*
X71675Y-53814D01*
X71675Y-52618D01*
X71675Y-52275D01*
X71675Y-52125D01*
X71675Y-51781D01*
X71618Y-51725D01*
X71244Y-51724D01*
X71155Y-51725D01*
X71072Y-51759D01*
X71009Y-51822D01*
X70974Y-51905D01*
X70975Y-52068D01*
X71031Y-52125D01*
X71675Y-52125D01*
X71675Y-52275D01*
X71031Y-52275D01*
X70975Y-52331D01*
X70974Y-52494D01*
X71009Y-52577D01*
X71072Y-52640D01*
X71155Y-52674D01*
X71244Y-52675D01*
X71618Y-52675D01*
X71675Y-52618D01*
X71675Y-53814D01*
X71173Y-53814D01*
X71123Y-53835D01*
X71085Y-53873D01*
X71065Y-53923D01*
X71064Y-53976D01*
X71064Y-54465D01*
X69722Y-54465D01*
X69722Y-53851D01*
X69988Y-53585D01*
X70476Y-53585D01*
X70526Y-53564D01*
X70564Y-53526D01*
X70584Y-53476D01*
X70585Y-53423D01*
X70585Y-52923D01*
X70564Y-52873D01*
X70526Y-52835D01*
X70476Y-52815D01*
X70423Y-52814D01*
X70112Y-52814D01*
X70112Y-50849D01*
X70112Y-50150D01*
X70112Y-50061D01*
X70078Y-49978D01*
X70014Y-49915D01*
X69931Y-49881D01*
X69802Y-49881D01*
X69745Y-49937D01*
X69745Y-50425D01*
X70056Y-50425D01*
X70112Y-50368D01*
X70112Y-50150D01*
X70112Y-50849D01*
X70112Y-50631D01*
X70056Y-50575D01*
X69745Y-50575D01*
X69745Y-51062D01*
X69802Y-51118D01*
X69931Y-51118D01*
X70014Y-51084D01*
X70078Y-51021D01*
X70112Y-50938D01*
X70112Y-50849D01*
X70112Y-52814D01*
X69595Y-52814D01*
X69595Y-51062D01*
X69595Y-50575D01*
X69595Y-50425D01*
X69595Y-49937D01*
X69539Y-49881D01*
X69409Y-49881D01*
X69327Y-49915D01*
X69263Y-49978D01*
X69229Y-50061D01*
X69229Y-50150D01*
X69229Y-50368D01*
X69285Y-50425D01*
X69595Y-50425D01*
X69595Y-50575D01*
X69285Y-50575D01*
X69229Y-50631D01*
X69229Y-50849D01*
X69229Y-50938D01*
X69263Y-51021D01*
X69327Y-51084D01*
X69409Y-51118D01*
X69539Y-51118D01*
X69595Y-51062D01*
X69595Y-52814D01*
X69323Y-52814D01*
X69275Y-52834D01*
X69249Y-52772D01*
X69194Y-52717D01*
X69218Y-52659D01*
X69218Y-52570D01*
X69218Y-52029D01*
X69218Y-51940D01*
X69184Y-51857D01*
X69138Y-51811D01*
X69173Y-51776D01*
X69193Y-51726D01*
X69194Y-51673D01*
X69194Y-51173D01*
X69173Y-51123D01*
X69169Y-51119D01*
X69169Y-50084D01*
X69168Y-50083D01*
X69154Y-50013D01*
X69154Y-50013D01*
X69141Y-49993D01*
X69114Y-49953D01*
X69114Y-49953D01*
X68930Y-49769D01*
X68870Y-49729D01*
X68800Y-49715D01*
X68200Y-49715D01*
X68129Y-49729D01*
X68109Y-49742D01*
X68069Y-49769D01*
X67660Y-50177D01*
X67599Y-50165D01*
X67471Y-50191D01*
X67362Y-50263D01*
X66660Y-50965D01*
X66628Y-50965D01*
X66628Y-50368D01*
X66628Y-49477D01*
X66628Y-47666D01*
X66608Y-47617D01*
X66570Y-47579D01*
X66520Y-47558D01*
X66466Y-47558D01*
X65679Y-47558D01*
X65629Y-47579D01*
X65591Y-47617D01*
X65571Y-47666D01*
X65571Y-47720D01*
X65571Y-49531D01*
X65591Y-49581D01*
X65629Y-49619D01*
X65679Y-49639D01*
X65733Y-49639D01*
X66520Y-49639D01*
X66570Y-49619D01*
X66608Y-49581D01*
X66628Y-49531D01*
X66628Y-49477D01*
X66628Y-50368D01*
X66608Y-50318D01*
X66570Y-50280D01*
X66520Y-50260D01*
X66466Y-50260D01*
X65679Y-50260D01*
X65629Y-50280D01*
X65591Y-50318D01*
X65571Y-50368D01*
X65571Y-50422D01*
X65571Y-50965D01*
X64448Y-50965D01*
X64323Y-50990D01*
X64323Y-50215D01*
X64302Y-50165D01*
X64264Y-50127D01*
X64215Y-50107D01*
X64161Y-50107D01*
X62783Y-50107D01*
X62733Y-50127D01*
X62695Y-50165D01*
X62675Y-50215D01*
X62675Y-50268D01*
X62675Y-54284D01*
X62695Y-54334D01*
X62733Y-54372D01*
X62783Y-54392D01*
X62836Y-54392D01*
X64214Y-54392D01*
X64264Y-54372D01*
X64302Y-54334D01*
X64323Y-54284D01*
X64323Y-54231D01*
X64323Y-51899D01*
X64587Y-51635D01*
X65571Y-51635D01*
X65571Y-52233D01*
X65591Y-52282D01*
X65629Y-52320D01*
X65679Y-52341D01*
X65733Y-52341D01*
X66520Y-52341D01*
X66570Y-52320D01*
X66608Y-52282D01*
X66628Y-52233D01*
X66628Y-52179D01*
X66628Y-51635D01*
X66799Y-51635D01*
X66927Y-51610D01*
X66927Y-51610D01*
X67036Y-51537D01*
X67705Y-50868D01*
X68007Y-51170D01*
X68006Y-51173D01*
X68005Y-51226D01*
X68005Y-51726D01*
X68026Y-51776D01*
X68061Y-51811D01*
X68015Y-51857D01*
X67981Y-51940D01*
X67981Y-52029D01*
X67981Y-52168D01*
X68037Y-52225D01*
X68525Y-52225D01*
X68525Y-52217D01*
X68675Y-52217D01*
X68675Y-52225D01*
X69162Y-52225D01*
X69218Y-52168D01*
X69218Y-52029D01*
X69218Y-52570D01*
X69218Y-52431D01*
X69162Y-52375D01*
X68675Y-52375D01*
X68675Y-52382D01*
X68525Y-52382D01*
X68525Y-52375D01*
X68037Y-52375D01*
X67981Y-52431D01*
X67981Y-52570D01*
X67981Y-52659D01*
X68015Y-52742D01*
X68061Y-52788D01*
X68026Y-52823D01*
X68006Y-52873D01*
X68005Y-52926D01*
X68005Y-53426D01*
X68026Y-53476D01*
X68031Y-53480D01*
X68031Y-53571D01*
X67985Y-53571D01*
X67936Y-53591D01*
X67898Y-53629D01*
X67877Y-53679D01*
X67877Y-53733D01*
X67877Y-54520D01*
X67898Y-54570D01*
X67936Y-54608D01*
X67985Y-54628D01*
X68039Y-54628D01*
X68472Y-54628D01*
X68522Y-54608D01*
X68548Y-54581D01*
X68833Y-54866D01*
X68910Y-54917D01*
X69000Y-54935D01*
X71250Y-54935D01*
X71339Y-54917D01*
X71416Y-54866D01*
X71697Y-54585D01*
X72326Y-54585D01*
X72376Y-54564D01*
X72405Y-54535D01*
X72470Y-54535D01*
X72599Y-54509D01*
X72599Y-54509D01*
X72707Y-54436D01*
X73022Y-54122D01*
X73270Y-54122D01*
X73310Y-54105D01*
X73489Y-54105D01*
X73529Y-54122D01*
X73583Y-54122D01*
X74370Y-54122D01*
X74420Y-54101D01*
X74445Y-54076D01*
X74445Y-54719D01*
G54D10*
G36*
X74445Y-31819D02*
X73589Y-32675D01*
X72979Y-32675D01*
X72979Y-30561D01*
X72959Y-30335D01*
X72911Y-30221D01*
X72821Y-30184D01*
X72715Y-30290D01*
X72715Y-30078D01*
X72678Y-29988D01*
X72461Y-29920D01*
X72235Y-29940D01*
X72121Y-29988D01*
X72084Y-30078D01*
X72400Y-30393D01*
X72715Y-30078D01*
X72715Y-30290D01*
X72506Y-30500D01*
X72821Y-30815D01*
X72911Y-30778D01*
X72979Y-30561D01*
X72979Y-32675D01*
X72881Y-32675D01*
X72881Y-31404D01*
X72808Y-31227D01*
X72673Y-31092D01*
X72579Y-31052D01*
X72678Y-31011D01*
X72715Y-30921D01*
X72400Y-30606D01*
X72293Y-30712D01*
X72293Y-30500D01*
X71978Y-30184D01*
X71900Y-30216D01*
X71821Y-30184D01*
X71715Y-30290D01*
X71715Y-30078D01*
X71678Y-29988D01*
X71461Y-29920D01*
X71235Y-29940D01*
X71121Y-29988D01*
X71084Y-30078D01*
X71400Y-30393D01*
X71715Y-30078D01*
X71715Y-30290D01*
X71506Y-30500D01*
X71821Y-30815D01*
X71900Y-30783D01*
X71978Y-30815D01*
X72293Y-30500D01*
X72293Y-30712D01*
X72084Y-30921D01*
X72121Y-31011D01*
X72235Y-31047D01*
X72127Y-31091D01*
X71992Y-31226D01*
X71918Y-31403D01*
X71918Y-31595D01*
X71991Y-31772D01*
X72126Y-31907D01*
X72303Y-31981D01*
X72495Y-31981D01*
X72672Y-31908D01*
X72807Y-31773D01*
X72881Y-31596D01*
X72881Y-31404D01*
X72881Y-32675D01*
X71881Y-32675D01*
X71881Y-31404D01*
X71808Y-31227D01*
X71673Y-31092D01*
X71579Y-31052D01*
X71678Y-31011D01*
X71715Y-30921D01*
X71400Y-30606D01*
X71293Y-30712D01*
X71293Y-30500D01*
X70978Y-30184D01*
X70900Y-30216D01*
X70821Y-30184D01*
X70715Y-30290D01*
X70715Y-30078D01*
X70678Y-29988D01*
X70461Y-29920D01*
X70235Y-29940D01*
X70121Y-29988D01*
X70084Y-30078D01*
X70400Y-30393D01*
X70715Y-30078D01*
X70715Y-30290D01*
X70506Y-30500D01*
X70821Y-30815D01*
X70900Y-30783D01*
X70978Y-30815D01*
X71293Y-30500D01*
X71293Y-30712D01*
X71084Y-30921D01*
X71121Y-31011D01*
X71235Y-31047D01*
X71127Y-31091D01*
X70992Y-31226D01*
X70952Y-31320D01*
X70911Y-31221D01*
X70821Y-31184D01*
X70715Y-31290D01*
X70715Y-31078D01*
X70683Y-31000D01*
X70715Y-30921D01*
X70400Y-30606D01*
X70293Y-30712D01*
X70293Y-30500D01*
X69978Y-30184D01*
X69900Y-30216D01*
X69821Y-30184D01*
X69715Y-30290D01*
X69715Y-30078D01*
X69678Y-29988D01*
X69461Y-29920D01*
X69235Y-29940D01*
X69121Y-29988D01*
X69084Y-30078D01*
X69400Y-30393D01*
X69715Y-30078D01*
X69715Y-30290D01*
X69506Y-30500D01*
X69821Y-30815D01*
X69900Y-30783D01*
X69978Y-30815D01*
X70293Y-30500D01*
X70293Y-30712D01*
X70084Y-30921D01*
X70116Y-31000D01*
X70084Y-31078D01*
X70400Y-31393D01*
X70715Y-31078D01*
X70715Y-31290D01*
X70506Y-31500D01*
X70821Y-31815D01*
X70911Y-31778D01*
X70947Y-31664D01*
X70991Y-31772D01*
X71126Y-31907D01*
X71303Y-31981D01*
X71495Y-31981D01*
X71672Y-31908D01*
X71807Y-31773D01*
X71881Y-31596D01*
X71881Y-31404D01*
X71881Y-32675D01*
X70715Y-32675D01*
X70715Y-31921D01*
X70400Y-31606D01*
X70293Y-31712D01*
X70293Y-31500D01*
X69978Y-31184D01*
X69888Y-31221D01*
X69852Y-31335D01*
X69808Y-31227D01*
X69673Y-31092D01*
X69579Y-31052D01*
X69678Y-31011D01*
X69715Y-30921D01*
X69400Y-30606D01*
X69293Y-30712D01*
X69293Y-30500D01*
X68978Y-30184D01*
X68900Y-30216D01*
X68821Y-30184D01*
X68715Y-30290D01*
X68715Y-30078D01*
X68678Y-29988D01*
X68461Y-29920D01*
X68235Y-29940D01*
X68121Y-29988D01*
X68084Y-30078D01*
X68400Y-30393D01*
X68715Y-30078D01*
X68715Y-30290D01*
X68506Y-30500D01*
X68821Y-30815D01*
X68900Y-30783D01*
X68978Y-30815D01*
X69293Y-30500D01*
X69293Y-30712D01*
X69084Y-30921D01*
X69121Y-31011D01*
X69235Y-31047D01*
X69127Y-31091D01*
X68992Y-31226D01*
X68918Y-31403D01*
X68918Y-31595D01*
X68991Y-31772D01*
X69126Y-31907D01*
X69303Y-31981D01*
X69495Y-31981D01*
X69672Y-31908D01*
X69807Y-31773D01*
X69847Y-31679D01*
X69888Y-31778D01*
X69978Y-31815D01*
X70293Y-31500D01*
X70293Y-31712D01*
X70084Y-31921D01*
X70121Y-32011D01*
X70338Y-32079D01*
X70564Y-32059D01*
X70678Y-32011D01*
X70715Y-31921D01*
X70715Y-32675D01*
X68881Y-32675D01*
X68881Y-31404D01*
X68808Y-31227D01*
X68673Y-31092D01*
X68579Y-31052D01*
X68678Y-31011D01*
X68715Y-30921D01*
X68400Y-30606D01*
X68293Y-30712D01*
X68293Y-30500D01*
X67978Y-30184D01*
X67888Y-30221D01*
X67820Y-30438D01*
X67840Y-30664D01*
X67888Y-30778D01*
X67978Y-30815D01*
X68293Y-30500D01*
X68293Y-30712D01*
X68084Y-30921D01*
X68121Y-31011D01*
X68235Y-31047D01*
X68127Y-31091D01*
X67992Y-31226D01*
X67918Y-31403D01*
X67918Y-31595D01*
X67991Y-31772D01*
X68126Y-31907D01*
X68303Y-31981D01*
X68495Y-31981D01*
X68672Y-31908D01*
X68807Y-31773D01*
X68881Y-31596D01*
X68881Y-31404D01*
X68881Y-32675D01*
X66310Y-32675D01*
X66256Y-32620D01*
X66256Y-30850D01*
X66256Y-30349D01*
X66255Y-30260D01*
X66221Y-30177D01*
X66158Y-30114D01*
X66075Y-30079D01*
X65906Y-30080D01*
X65850Y-30136D01*
X65850Y-30525D01*
X66199Y-30525D01*
X66256Y-30468D01*
X66256Y-30349D01*
X66256Y-30850D01*
X66256Y-30731D01*
X66199Y-30675D01*
X65850Y-30675D01*
X65850Y-31063D01*
X65906Y-31120D01*
X66075Y-31120D01*
X66158Y-31085D01*
X66221Y-31022D01*
X66255Y-30939D01*
X66256Y-30850D01*
X66256Y-32620D01*
X65525Y-31889D01*
X65525Y-31120D01*
X65643Y-31120D01*
X65700Y-31063D01*
X65700Y-30675D01*
X65692Y-30675D01*
X65692Y-30525D01*
X65700Y-30525D01*
X65700Y-30136D01*
X65643Y-30080D01*
X65525Y-30079D01*
X65525Y-29710D01*
X65980Y-29254D01*
X74019Y-29254D01*
X74445Y-29680D01*
X74445Y-31819D01*
X74445Y-31819D01*
G37*
G54D28*
X74445Y-31819D02*
X73589Y-32675D01*
X72979Y-32675D01*
X72979Y-30561D01*
X72959Y-30335D01*
X72911Y-30221D01*
X72821Y-30184D01*
X72715Y-30290D01*
X72715Y-30078D01*
X72678Y-29988D01*
X72461Y-29920D01*
X72235Y-29940D01*
X72121Y-29988D01*
X72084Y-30078D01*
X72400Y-30393D01*
X72715Y-30078D01*
X72715Y-30290D01*
X72506Y-30500D01*
X72821Y-30815D01*
X72911Y-30778D01*
X72979Y-30561D01*
X72979Y-32675D01*
X72881Y-32675D01*
X72881Y-31404D01*
X72808Y-31227D01*
X72673Y-31092D01*
X72579Y-31052D01*
X72678Y-31011D01*
X72715Y-30921D01*
X72400Y-30606D01*
X72293Y-30712D01*
X72293Y-30500D01*
X71978Y-30184D01*
X71900Y-30216D01*
X71821Y-30184D01*
X71715Y-30290D01*
X71715Y-30078D01*
X71678Y-29988D01*
X71461Y-29920D01*
X71235Y-29940D01*
X71121Y-29988D01*
X71084Y-30078D01*
X71400Y-30393D01*
X71715Y-30078D01*
X71715Y-30290D01*
X71506Y-30500D01*
X71821Y-30815D01*
X71900Y-30783D01*
X71978Y-30815D01*
X72293Y-30500D01*
X72293Y-30712D01*
X72084Y-30921D01*
X72121Y-31011D01*
X72235Y-31047D01*
X72127Y-31091D01*
X71992Y-31226D01*
X71918Y-31403D01*
X71918Y-31595D01*
X71991Y-31772D01*
X72126Y-31907D01*
X72303Y-31981D01*
X72495Y-31981D01*
X72672Y-31908D01*
X72807Y-31773D01*
X72881Y-31596D01*
X72881Y-31404D01*
X72881Y-32675D01*
X71881Y-32675D01*
X71881Y-31404D01*
X71808Y-31227D01*
X71673Y-31092D01*
X71579Y-31052D01*
X71678Y-31011D01*
X71715Y-30921D01*
X71400Y-30606D01*
X71293Y-30712D01*
X71293Y-30500D01*
X70978Y-30184D01*
X70900Y-30216D01*
X70821Y-30184D01*
X70715Y-30290D01*
X70715Y-30078D01*
X70678Y-29988D01*
X70461Y-29920D01*
X70235Y-29940D01*
X70121Y-29988D01*
X70084Y-30078D01*
X70400Y-30393D01*
X70715Y-30078D01*
X70715Y-30290D01*
X70506Y-30500D01*
X70821Y-30815D01*
X70900Y-30783D01*
X70978Y-30815D01*
X71293Y-30500D01*
X71293Y-30712D01*
X71084Y-30921D01*
X71121Y-31011D01*
X71235Y-31047D01*
X71127Y-31091D01*
X70992Y-31226D01*
X70952Y-31320D01*
X70911Y-31221D01*
X70821Y-31184D01*
X70715Y-31290D01*
X70715Y-31078D01*
X70683Y-31000D01*
X70715Y-30921D01*
X70400Y-30606D01*
X70293Y-30712D01*
X70293Y-30500D01*
X69978Y-30184D01*
X69900Y-30216D01*
X69821Y-30184D01*
X69715Y-30290D01*
X69715Y-30078D01*
X69678Y-29988D01*
X69461Y-29920D01*
X69235Y-29940D01*
X69121Y-29988D01*
X69084Y-30078D01*
X69400Y-30393D01*
X69715Y-30078D01*
X69715Y-30290D01*
X69506Y-30500D01*
X69821Y-30815D01*
X69900Y-30783D01*
X69978Y-30815D01*
X70293Y-30500D01*
X70293Y-30712D01*
X70084Y-30921D01*
X70116Y-31000D01*
X70084Y-31078D01*
X70400Y-31393D01*
X70715Y-31078D01*
X70715Y-31290D01*
X70506Y-31500D01*
X70821Y-31815D01*
X70911Y-31778D01*
X70947Y-31664D01*
X70991Y-31772D01*
X71126Y-31907D01*
X71303Y-31981D01*
X71495Y-31981D01*
X71672Y-31908D01*
X71807Y-31773D01*
X71881Y-31596D01*
X71881Y-31404D01*
X71881Y-32675D01*
X70715Y-32675D01*
X70715Y-31921D01*
X70400Y-31606D01*
X70293Y-31712D01*
X70293Y-31500D01*
X69978Y-31184D01*
X69888Y-31221D01*
X69852Y-31335D01*
X69808Y-31227D01*
X69673Y-31092D01*
X69579Y-31052D01*
X69678Y-31011D01*
X69715Y-30921D01*
X69400Y-30606D01*
X69293Y-30712D01*
X69293Y-30500D01*
X68978Y-30184D01*
X68900Y-30216D01*
X68821Y-30184D01*
X68715Y-30290D01*
X68715Y-30078D01*
X68678Y-29988D01*
X68461Y-29920D01*
X68235Y-29940D01*
X68121Y-29988D01*
X68084Y-30078D01*
X68400Y-30393D01*
X68715Y-30078D01*
X68715Y-30290D01*
X68506Y-30500D01*
X68821Y-30815D01*
X68900Y-30783D01*
X68978Y-30815D01*
X69293Y-30500D01*
X69293Y-30712D01*
X69084Y-30921D01*
X69121Y-31011D01*
X69235Y-31047D01*
X69127Y-31091D01*
X68992Y-31226D01*
X68918Y-31403D01*
X68918Y-31595D01*
X68991Y-31772D01*
X69126Y-31907D01*
X69303Y-31981D01*
X69495Y-31981D01*
X69672Y-31908D01*
X69807Y-31773D01*
X69847Y-31679D01*
X69888Y-31778D01*
X69978Y-31815D01*
X70293Y-31500D01*
X70293Y-31712D01*
X70084Y-31921D01*
X70121Y-32011D01*
X70338Y-32079D01*
X70564Y-32059D01*
X70678Y-32011D01*
X70715Y-31921D01*
X70715Y-32675D01*
X68881Y-32675D01*
X68881Y-31404D01*
X68808Y-31227D01*
X68673Y-31092D01*
X68579Y-31052D01*
X68678Y-31011D01*
X68715Y-30921D01*
X68400Y-30606D01*
X68293Y-30712D01*
X68293Y-30500D01*
X67978Y-30184D01*
X67888Y-30221D01*
X67820Y-30438D01*
X67840Y-30664D01*
X67888Y-30778D01*
X67978Y-30815D01*
X68293Y-30500D01*
X68293Y-30712D01*
X68084Y-30921D01*
X68121Y-31011D01*
X68235Y-31047D01*
X68127Y-31091D01*
X67992Y-31226D01*
X67918Y-31403D01*
X67918Y-31595D01*
X67991Y-31772D01*
X68126Y-31907D01*
X68303Y-31981D01*
X68495Y-31981D01*
X68672Y-31908D01*
X68807Y-31773D01*
X68881Y-31596D01*
X68881Y-31404D01*
X68881Y-32675D01*
X66310Y-32675D01*
X66256Y-32620D01*
X66256Y-30850D01*
X66256Y-30349D01*
X66255Y-30260D01*
X66221Y-30177D01*
X66158Y-30114D01*
X66075Y-30079D01*
X65906Y-30080D01*
X65850Y-30136D01*
X65850Y-30525D01*
X66199Y-30525D01*
X66256Y-30468D01*
X66256Y-30349D01*
X66256Y-30850D01*
X66256Y-30731D01*
X66199Y-30675D01*
X65850Y-30675D01*
X65850Y-31063D01*
X65906Y-31120D01*
X66075Y-31120D01*
X66158Y-31085D01*
X66221Y-31022D01*
X66255Y-30939D01*
X66256Y-30850D01*
X66256Y-32620D01*
X65525Y-31889D01*
X65525Y-31120D01*
X65643Y-31120D01*
X65700Y-31063D01*
X65700Y-30675D01*
X65692Y-30675D01*
X65692Y-30525D01*
X65700Y-30525D01*
X65700Y-30136D01*
X65643Y-30080D01*
X65525Y-30079D01*
X65525Y-29710D01*
X65980Y-29254D01*
X74019Y-29254D01*
X74445Y-29680D01*
X74445Y-31819D01*
M02*
