M48
INCH,TZ
T1C0.032
T2C0.039
T3C0.047
T4C0.120
%
G90
G05
T1
X37000Y-41000
X37000Y-42000
X62500Y-37000
X62500Y-38000
X74500Y-40000
X74500Y-41000
X75000Y-35000
X75000Y-36000
X75000Y-43500
X75000Y-44500
X78000Y-37000
X78000Y-38000
X78000Y-41000
X78000Y-42000
X78000Y-45500
X78000Y-46500
T2
X81000Y-38000
X81000Y-39000
X81000Y-40000
X81000Y-41000
X81000Y-42000
X82000Y-38000
X82000Y-39000
X82000Y-40000
X82000Y-41000
X82000Y-42000
T3
X40732Y-38047
X40732Y-44937
X59236Y-34110
X59236Y-41984
X65500Y-35000
X65500Y-38500
X65500Y-42000
X65500Y-45500
X66500Y-35000
X66500Y-38500
X66500Y-42000
X66500Y-45500
X68500Y-35000
X68500Y-38500
X68500Y-42000
X68500Y-45500
X69500Y-35000
X69500Y-38500
X69500Y-42000
X69500Y-45500
X70500Y-35000
X70500Y-38500
X70500Y-42000
X70500Y-45500
T4
X38000Y-34000
X38000Y-46500
X81500Y-34000
X81500Y-46500
T0
M30
