G04 (created by PCBNEW (2013-may-18)-stable) date 2014年01月28日 星期二 10时03分07秒*
%MOIN*%
G04 Gerber Fmt 3.4, Leading zero omitted, Abs format*
%FSLAX34Y34*%
G01*
G70*
G90*
G04 APERTURE LIST*
%ADD10C,0.00590551*%
%ADD11C,0.0708661*%
%ADD12C,0.11811*%
%ADD13R,0.055X0.055*%
%ADD14C,0.055*%
%ADD15R,0.065X0.065*%
%ADD16C,0.065*%
%ADD17C,0.16*%
%ADD18C,0.0593*%
%ADD19C,0.02*%
%ADD20C,0.01*%
G04 APERTURE END LIST*
G54D10*
G54D11*
X65500Y-45500D03*
X66500Y-45500D03*
X68500Y-45500D03*
X69500Y-45500D03*
X70500Y-45500D03*
X65500Y-42000D03*
X66500Y-42000D03*
X68500Y-42000D03*
X69500Y-42000D03*
X70500Y-42000D03*
X65500Y-38500D03*
X66500Y-38500D03*
X68500Y-38500D03*
X69500Y-38500D03*
X70500Y-38500D03*
X65500Y-35000D03*
X66500Y-35000D03*
X68500Y-35000D03*
X69500Y-35000D03*
X70500Y-35000D03*
G54D12*
X40732Y-44937D03*
X40732Y-38047D03*
X59236Y-41984D03*
X59236Y-34110D03*
G54D13*
X37000Y-42000D03*
G54D14*
X37000Y-41000D03*
G54D15*
X62500Y-38000D03*
G54D16*
X62500Y-37000D03*
G54D15*
X78000Y-42000D03*
G54D16*
X78000Y-41000D03*
G54D15*
X78000Y-38000D03*
G54D16*
X78000Y-37000D03*
G54D15*
X74500Y-41000D03*
G54D16*
X74500Y-40000D03*
G54D15*
X75000Y-35000D03*
G54D16*
X75000Y-36000D03*
G54D15*
X75000Y-44500D03*
G54D16*
X75000Y-43500D03*
G54D15*
X78000Y-45500D03*
G54D16*
X78000Y-46500D03*
G54D17*
X38000Y-34000D03*
X38000Y-46500D03*
G54D18*
X82000Y-42000D03*
X81000Y-42000D03*
X82000Y-41000D03*
X81000Y-41000D03*
X82000Y-40000D03*
X81000Y-40000D03*
X82000Y-39000D03*
X81000Y-39000D03*
X82000Y-38000D03*
X81000Y-38000D03*
G54D17*
X81500Y-34000D03*
X81500Y-46500D03*
G54D19*
X78000Y-38000D02*
X81000Y-38000D01*
X70500Y-38500D02*
X71000Y-38000D01*
X71000Y-38000D02*
X78000Y-38000D01*
X37000Y-41000D02*
X37779Y-41000D01*
X37779Y-41000D02*
X40732Y-38047D01*
X62500Y-38000D02*
X65000Y-38000D01*
X65000Y-38000D02*
X65500Y-38500D01*
X62500Y-38000D02*
X62500Y-41200D01*
X62500Y-41200D02*
X61715Y-41984D01*
X65500Y-42000D02*
X65500Y-45500D01*
X65500Y-38500D02*
X65500Y-35000D01*
X65500Y-42000D02*
X65500Y-38500D01*
X59236Y-41984D02*
X61715Y-41984D01*
X62500Y-37000D02*
X63500Y-37000D01*
X66500Y-34500D02*
X66500Y-35000D01*
X66000Y-34000D02*
X66500Y-34500D01*
X65000Y-34000D02*
X66000Y-34000D01*
X64500Y-34500D02*
X65000Y-34000D01*
X64500Y-36000D02*
X64500Y-34500D01*
X63500Y-37000D02*
X64500Y-36000D01*
X62500Y-37000D02*
X62500Y-34890D01*
X62500Y-34890D02*
X61720Y-34110D01*
X66500Y-42000D02*
X66500Y-45500D01*
X66500Y-38500D02*
X66500Y-42000D01*
X66500Y-35000D02*
X66500Y-38500D01*
X59236Y-34110D02*
X61720Y-34110D01*
X37000Y-42000D02*
X37795Y-42000D01*
X37795Y-42000D02*
X40732Y-44937D01*
X78000Y-45500D02*
X78000Y-45000D01*
X78000Y-45000D02*
X81000Y-42000D01*
X70500Y-45500D02*
X78000Y-45500D01*
X80000Y-36000D02*
X82000Y-38000D01*
X75000Y-36000D02*
X80000Y-36000D01*
X69500Y-35000D02*
X70500Y-36000D01*
X70500Y-36000D02*
X75000Y-36000D01*
X78000Y-42000D02*
X79000Y-42000D01*
X79000Y-42000D02*
X81000Y-40000D01*
X70500Y-42000D02*
X78000Y-42000D01*
X74500Y-40000D02*
X80000Y-40000D01*
X80000Y-40000D02*
X81000Y-39000D01*
X68500Y-42000D02*
X70500Y-40000D01*
X70500Y-40000D02*
X74500Y-40000D01*
X75000Y-43500D02*
X78500Y-43500D01*
X78500Y-43500D02*
X81000Y-41000D01*
X68500Y-45500D02*
X70500Y-43500D01*
X70500Y-43500D02*
X75000Y-43500D01*
G54D10*
G36*
X82950Y-42979D02*
X82551Y-43377D01*
X82551Y-42080D01*
X82546Y-41988D01*
X82546Y-40891D01*
X82463Y-40690D01*
X82309Y-40536D01*
X82220Y-40500D01*
X82309Y-40463D01*
X82463Y-40309D01*
X82546Y-40109D01*
X82546Y-39891D01*
X82463Y-39690D01*
X82309Y-39536D01*
X82220Y-39500D01*
X82309Y-39463D01*
X82463Y-39309D01*
X82546Y-39109D01*
X82546Y-38891D01*
X82463Y-38690D01*
X82309Y-38536D01*
X82220Y-38500D01*
X82309Y-38463D01*
X82463Y-38309D01*
X82546Y-38109D01*
X82546Y-37891D01*
X82463Y-37690D01*
X82309Y-37536D01*
X82109Y-37453D01*
X81948Y-37453D01*
X80247Y-35752D01*
X80133Y-35676D01*
X80000Y-35650D01*
X75463Y-35650D01*
X75384Y-35571D01*
X75466Y-35536D01*
X75537Y-35466D01*
X75575Y-35374D01*
X75575Y-34625D01*
X75537Y-34533D01*
X75466Y-34463D01*
X75374Y-34425D01*
X75275Y-34424D01*
X75112Y-34425D01*
X75050Y-34487D01*
X75050Y-34950D01*
X75512Y-34950D01*
X75575Y-34887D01*
X75575Y-34625D01*
X75575Y-35374D01*
X75575Y-35112D01*
X75512Y-35050D01*
X75050Y-35050D01*
X75050Y-35057D01*
X74950Y-35057D01*
X74950Y-35050D01*
X74950Y-34950D01*
X74950Y-34487D01*
X74887Y-34425D01*
X74724Y-34424D01*
X74625Y-34425D01*
X74533Y-34463D01*
X74462Y-34533D01*
X74424Y-34625D01*
X74425Y-34887D01*
X74487Y-34950D01*
X74950Y-34950D01*
X74950Y-35050D01*
X74487Y-35050D01*
X74425Y-35112D01*
X74424Y-35374D01*
X74462Y-35466D01*
X74533Y-35536D01*
X74615Y-35571D01*
X74536Y-35650D01*
X71108Y-35650D01*
X71108Y-35094D01*
X71098Y-34854D01*
X71026Y-34679D01*
X70925Y-34645D01*
X70854Y-34716D01*
X70854Y-34574D01*
X70820Y-34473D01*
X70594Y-34391D01*
X70354Y-34401D01*
X70179Y-34473D01*
X70145Y-34574D01*
X70500Y-34929D01*
X70854Y-34574D01*
X70854Y-34716D01*
X70570Y-35000D01*
X70925Y-35354D01*
X71026Y-35320D01*
X71108Y-35094D01*
X71108Y-35650D01*
X70644Y-35650D01*
X70595Y-35600D01*
X70645Y-35598D01*
X70820Y-35526D01*
X70854Y-35425D01*
X70500Y-35070D01*
X70494Y-35076D01*
X70423Y-35005D01*
X70429Y-35000D01*
X70074Y-34645D01*
X70015Y-34665D01*
X70012Y-34658D01*
X69842Y-34487D01*
X69620Y-34395D01*
X69380Y-34395D01*
X69158Y-34487D01*
X68999Y-34645D01*
X68842Y-34487D01*
X68620Y-34395D01*
X68380Y-34395D01*
X68158Y-34487D01*
X67987Y-34657D01*
X67895Y-34879D01*
X67895Y-35119D01*
X67987Y-35341D01*
X68157Y-35512D01*
X68379Y-35604D01*
X68619Y-35604D01*
X68841Y-35512D01*
X69000Y-35354D01*
X69157Y-35512D01*
X69379Y-35604D01*
X69609Y-35604D01*
X70252Y-36247D01*
X70366Y-36323D01*
X70500Y-36350D01*
X74536Y-36350D01*
X74673Y-36487D01*
X74885Y-36574D01*
X75113Y-36575D01*
X75325Y-36487D01*
X75463Y-36350D01*
X79855Y-36350D01*
X80958Y-37453D01*
X80891Y-37453D01*
X80690Y-37536D01*
X80577Y-37650D01*
X78579Y-37650D01*
X78579Y-37087D01*
X78569Y-36859D01*
X78501Y-36697D01*
X78404Y-36666D01*
X78333Y-36737D01*
X78333Y-36595D01*
X78302Y-36498D01*
X78087Y-36420D01*
X77859Y-36430D01*
X77697Y-36498D01*
X77666Y-36595D01*
X78000Y-36929D01*
X78333Y-36595D01*
X78333Y-36737D01*
X78070Y-37000D01*
X78404Y-37333D01*
X78501Y-37302D01*
X78579Y-37087D01*
X78579Y-37650D01*
X78575Y-37650D01*
X78575Y-37625D01*
X78537Y-37533D01*
X78466Y-37463D01*
X78374Y-37425D01*
X78326Y-37425D01*
X78333Y-37404D01*
X78000Y-37070D01*
X77929Y-37141D01*
X77929Y-37000D01*
X77595Y-36666D01*
X77498Y-36697D01*
X77420Y-36912D01*
X77430Y-37140D01*
X77498Y-37302D01*
X77595Y-37333D01*
X77929Y-37000D01*
X77929Y-37141D01*
X77666Y-37404D01*
X77673Y-37424D01*
X77625Y-37424D01*
X77533Y-37462D01*
X77463Y-37533D01*
X77425Y-37625D01*
X77425Y-37650D01*
X71000Y-37650D01*
X70866Y-37676D01*
X70752Y-37752D01*
X70609Y-37895D01*
X70380Y-37895D01*
X70158Y-37987D01*
X69987Y-38157D01*
X69984Y-38165D01*
X69925Y-38145D01*
X69854Y-38216D01*
X69854Y-38074D01*
X69820Y-37973D01*
X69594Y-37891D01*
X69354Y-37901D01*
X69179Y-37973D01*
X69145Y-38074D01*
X69500Y-38429D01*
X69854Y-38074D01*
X69854Y-38216D01*
X69570Y-38500D01*
X69925Y-38854D01*
X69984Y-38834D01*
X69987Y-38841D01*
X70157Y-39012D01*
X70379Y-39104D01*
X70619Y-39104D01*
X70841Y-39012D01*
X71012Y-38842D01*
X71104Y-38620D01*
X71104Y-38390D01*
X71144Y-38350D01*
X77424Y-38350D01*
X77424Y-38374D01*
X77462Y-38466D01*
X77533Y-38536D01*
X77625Y-38574D01*
X77724Y-38575D01*
X78374Y-38575D01*
X78466Y-38537D01*
X78536Y-38466D01*
X78574Y-38374D01*
X78574Y-38350D01*
X80577Y-38350D01*
X80690Y-38463D01*
X80779Y-38499D01*
X80690Y-38536D01*
X80536Y-38690D01*
X80453Y-38890D01*
X80453Y-39051D01*
X79855Y-39650D01*
X74963Y-39650D01*
X74826Y-39512D01*
X74614Y-39425D01*
X74386Y-39424D01*
X74174Y-39512D01*
X74036Y-39650D01*
X70500Y-39650D01*
X70366Y-39676D01*
X70252Y-39752D01*
X70252Y-39752D01*
X70252Y-39752D01*
X69854Y-40150D01*
X69854Y-38925D01*
X69500Y-38570D01*
X69429Y-38641D01*
X69429Y-38500D01*
X69074Y-38145D01*
X69015Y-38165D01*
X69012Y-38158D01*
X68842Y-37987D01*
X68620Y-37895D01*
X68380Y-37895D01*
X68158Y-37987D01*
X67987Y-38157D01*
X67895Y-38379D01*
X67895Y-38619D01*
X67987Y-38841D01*
X68157Y-39012D01*
X68379Y-39104D01*
X68619Y-39104D01*
X68841Y-39012D01*
X69012Y-38842D01*
X69015Y-38834D01*
X69074Y-38854D01*
X69429Y-38500D01*
X69429Y-38641D01*
X69145Y-38925D01*
X69179Y-39026D01*
X69405Y-39108D01*
X69645Y-39098D01*
X69820Y-39026D01*
X69854Y-38925D01*
X69854Y-40150D01*
X68609Y-41395D01*
X68380Y-41395D01*
X68158Y-41487D01*
X67987Y-41657D01*
X67895Y-41879D01*
X67895Y-42119D01*
X67987Y-42341D01*
X68157Y-42512D01*
X68379Y-42604D01*
X68619Y-42604D01*
X68841Y-42512D01*
X69012Y-42342D01*
X69015Y-42334D01*
X69074Y-42354D01*
X69429Y-42000D01*
X69423Y-41994D01*
X69494Y-41923D01*
X69500Y-41929D01*
X69854Y-41574D01*
X69820Y-41473D01*
X69601Y-41393D01*
X70644Y-40350D01*
X74036Y-40350D01*
X74115Y-40428D01*
X74033Y-40463D01*
X73962Y-40533D01*
X73924Y-40625D01*
X73925Y-40887D01*
X73987Y-40950D01*
X74450Y-40950D01*
X74450Y-40942D01*
X74550Y-40942D01*
X74550Y-40950D01*
X75012Y-40950D01*
X75075Y-40887D01*
X75075Y-40625D01*
X75037Y-40533D01*
X74966Y-40463D01*
X74884Y-40428D01*
X74963Y-40350D01*
X80000Y-40350D01*
X80133Y-40323D01*
X80133Y-40323D01*
X80247Y-40247D01*
X80453Y-40041D01*
X80453Y-40051D01*
X78855Y-41650D01*
X78579Y-41650D01*
X78579Y-41087D01*
X78569Y-40859D01*
X78501Y-40697D01*
X78404Y-40666D01*
X78333Y-40737D01*
X78333Y-40595D01*
X78302Y-40498D01*
X78087Y-40420D01*
X77859Y-40430D01*
X77697Y-40498D01*
X77666Y-40595D01*
X78000Y-40929D01*
X78333Y-40595D01*
X78333Y-40737D01*
X78070Y-41000D01*
X78404Y-41333D01*
X78501Y-41302D01*
X78579Y-41087D01*
X78579Y-41650D01*
X78575Y-41650D01*
X78575Y-41625D01*
X78537Y-41533D01*
X78466Y-41463D01*
X78374Y-41425D01*
X78326Y-41425D01*
X78333Y-41404D01*
X78000Y-41070D01*
X77929Y-41141D01*
X77929Y-41000D01*
X77595Y-40666D01*
X77498Y-40697D01*
X77420Y-40912D01*
X77430Y-41140D01*
X77498Y-41302D01*
X77595Y-41333D01*
X77929Y-41000D01*
X77929Y-41141D01*
X77666Y-41404D01*
X77673Y-41424D01*
X77625Y-41424D01*
X77533Y-41462D01*
X77463Y-41533D01*
X77425Y-41625D01*
X77425Y-41650D01*
X75075Y-41650D01*
X75075Y-41374D01*
X75075Y-41112D01*
X75012Y-41050D01*
X74550Y-41050D01*
X74550Y-41512D01*
X74612Y-41575D01*
X74775Y-41575D01*
X74874Y-41574D01*
X74966Y-41536D01*
X75037Y-41466D01*
X75075Y-41374D01*
X75075Y-41650D01*
X74450Y-41650D01*
X74450Y-41512D01*
X74450Y-41050D01*
X73987Y-41050D01*
X73925Y-41112D01*
X73924Y-41374D01*
X73962Y-41466D01*
X74033Y-41536D01*
X74125Y-41574D01*
X74224Y-41575D01*
X74387Y-41575D01*
X74450Y-41512D01*
X74450Y-41650D01*
X71004Y-41650D01*
X70842Y-41487D01*
X70620Y-41395D01*
X70380Y-41395D01*
X70158Y-41487D01*
X69987Y-41657D01*
X69984Y-41665D01*
X69925Y-41645D01*
X69570Y-42000D01*
X69925Y-42354D01*
X69984Y-42334D01*
X69987Y-42341D01*
X70157Y-42512D01*
X70379Y-42604D01*
X70619Y-42604D01*
X70841Y-42512D01*
X71004Y-42350D01*
X77424Y-42350D01*
X77424Y-42374D01*
X77462Y-42466D01*
X77533Y-42536D01*
X77625Y-42574D01*
X77724Y-42575D01*
X78374Y-42575D01*
X78466Y-42537D01*
X78536Y-42466D01*
X78574Y-42374D01*
X78574Y-42350D01*
X79000Y-42350D01*
X79133Y-42323D01*
X79133Y-42323D01*
X79247Y-42247D01*
X80453Y-41041D01*
X80453Y-41051D01*
X78355Y-43150D01*
X75463Y-43150D01*
X75326Y-43012D01*
X75114Y-42925D01*
X74886Y-42924D01*
X74674Y-43012D01*
X74536Y-43150D01*
X70500Y-43150D01*
X70366Y-43176D01*
X70252Y-43252D01*
X70252Y-43252D01*
X70252Y-43252D01*
X69854Y-43650D01*
X69854Y-42425D01*
X69500Y-42070D01*
X69145Y-42425D01*
X69179Y-42526D01*
X69405Y-42608D01*
X69645Y-42598D01*
X69820Y-42526D01*
X69854Y-42425D01*
X69854Y-43650D01*
X68609Y-44895D01*
X68380Y-44895D01*
X68158Y-44987D01*
X67987Y-45157D01*
X67895Y-45379D01*
X67895Y-45619D01*
X67987Y-45841D01*
X68157Y-46012D01*
X68379Y-46104D01*
X68619Y-46104D01*
X68841Y-46012D01*
X69012Y-45842D01*
X69015Y-45834D01*
X69074Y-45854D01*
X69429Y-45500D01*
X69423Y-45494D01*
X69494Y-45423D01*
X69500Y-45429D01*
X69854Y-45074D01*
X69820Y-44973D01*
X69601Y-44893D01*
X70644Y-43850D01*
X74536Y-43850D01*
X74615Y-43928D01*
X74533Y-43963D01*
X74462Y-44033D01*
X74424Y-44125D01*
X74425Y-44387D01*
X74487Y-44450D01*
X74950Y-44450D01*
X74950Y-44442D01*
X75050Y-44442D01*
X75050Y-44450D01*
X75512Y-44450D01*
X75575Y-44387D01*
X75575Y-44125D01*
X75537Y-44033D01*
X75466Y-43963D01*
X75384Y-43928D01*
X75463Y-43850D01*
X78500Y-43850D01*
X78633Y-43823D01*
X78633Y-43823D01*
X78747Y-43747D01*
X80453Y-42041D01*
X80453Y-42051D01*
X77752Y-44752D01*
X77676Y-44866D01*
X77664Y-44924D01*
X77625Y-44924D01*
X77533Y-44962D01*
X77463Y-45033D01*
X77425Y-45125D01*
X77425Y-45150D01*
X75575Y-45150D01*
X75575Y-44874D01*
X75575Y-44612D01*
X75512Y-44550D01*
X75050Y-44550D01*
X75050Y-45012D01*
X75112Y-45075D01*
X75275Y-45075D01*
X75374Y-45074D01*
X75466Y-45036D01*
X75537Y-44966D01*
X75575Y-44874D01*
X75575Y-45150D01*
X74950Y-45150D01*
X74950Y-45012D01*
X74950Y-44550D01*
X74487Y-44550D01*
X74425Y-44612D01*
X74424Y-44874D01*
X74462Y-44966D01*
X74533Y-45036D01*
X74625Y-45074D01*
X74724Y-45075D01*
X74887Y-45075D01*
X74950Y-45012D01*
X74950Y-45150D01*
X71004Y-45150D01*
X70842Y-44987D01*
X70620Y-44895D01*
X70380Y-44895D01*
X70158Y-44987D01*
X69987Y-45157D01*
X69984Y-45165D01*
X69925Y-45145D01*
X69570Y-45500D01*
X69925Y-45854D01*
X69984Y-45834D01*
X69987Y-45841D01*
X70157Y-46012D01*
X70379Y-46104D01*
X70619Y-46104D01*
X70841Y-46012D01*
X71004Y-45850D01*
X77424Y-45850D01*
X77424Y-45874D01*
X77462Y-45966D01*
X77533Y-46036D01*
X77625Y-46074D01*
X77673Y-46074D01*
X77666Y-46095D01*
X78000Y-46429D01*
X78333Y-46095D01*
X78326Y-46075D01*
X78374Y-46075D01*
X78466Y-46037D01*
X78536Y-45966D01*
X78574Y-45874D01*
X78575Y-45775D01*
X78575Y-45125D01*
X78537Y-45033D01*
X78499Y-44995D01*
X80948Y-42546D01*
X81108Y-42546D01*
X81309Y-42463D01*
X81463Y-42309D01*
X81497Y-42227D01*
X81521Y-42285D01*
X81616Y-42312D01*
X81929Y-42000D01*
X81616Y-41687D01*
X81521Y-41714D01*
X81499Y-41777D01*
X81463Y-41690D01*
X81309Y-41536D01*
X81220Y-41500D01*
X81309Y-41463D01*
X81463Y-41309D01*
X81499Y-41220D01*
X81536Y-41309D01*
X81690Y-41463D01*
X81772Y-41497D01*
X81714Y-41521D01*
X81687Y-41616D01*
X82000Y-41929D01*
X82312Y-41616D01*
X82285Y-41521D01*
X82222Y-41499D01*
X82309Y-41463D01*
X82463Y-41309D01*
X82546Y-41109D01*
X82546Y-40891D01*
X82546Y-41988D01*
X82540Y-41863D01*
X82478Y-41714D01*
X82383Y-41687D01*
X82070Y-42000D01*
X82383Y-42312D01*
X82478Y-42285D01*
X82551Y-42080D01*
X82551Y-43377D01*
X82312Y-43616D01*
X82312Y-42383D01*
X82000Y-42070D01*
X81687Y-42383D01*
X81714Y-42478D01*
X81919Y-42551D01*
X82136Y-42540D01*
X82285Y-42478D01*
X82312Y-42383D01*
X82312Y-43616D01*
X81979Y-43950D01*
X81479Y-43950D01*
X79464Y-45964D01*
X78579Y-46849D01*
X78579Y-46587D01*
X78569Y-46359D01*
X78501Y-46197D01*
X78404Y-46166D01*
X78070Y-46500D01*
X78404Y-46833D01*
X78501Y-46802D01*
X78579Y-46587D01*
X78579Y-46849D01*
X78333Y-47095D01*
X78333Y-46904D01*
X78000Y-46570D01*
X77929Y-46641D01*
X77929Y-46500D01*
X77595Y-46166D01*
X77498Y-46197D01*
X77420Y-46412D01*
X77430Y-46640D01*
X77498Y-46802D01*
X77595Y-46833D01*
X77929Y-46500D01*
X77929Y-46641D01*
X77666Y-46904D01*
X77697Y-47001D01*
X77912Y-47079D01*
X78140Y-47069D01*
X78302Y-47001D01*
X78333Y-46904D01*
X78333Y-47095D01*
X77979Y-47450D01*
X69854Y-47450D01*
X69854Y-45925D01*
X69500Y-45570D01*
X69145Y-45925D01*
X69179Y-46026D01*
X69405Y-46108D01*
X69645Y-46098D01*
X69820Y-46026D01*
X69854Y-45925D01*
X69854Y-47450D01*
X67550Y-47450D01*
X67550Y-34050D01*
X79479Y-34050D01*
X80979Y-35550D01*
X81979Y-35550D01*
X82950Y-36520D01*
X82950Y-42979D01*
X82950Y-42979D01*
G37*
G54D20*
X82950Y-42979D02*
X82551Y-43377D01*
X82551Y-42080D01*
X82546Y-41988D01*
X82546Y-40891D01*
X82463Y-40690D01*
X82309Y-40536D01*
X82220Y-40500D01*
X82309Y-40463D01*
X82463Y-40309D01*
X82546Y-40109D01*
X82546Y-39891D01*
X82463Y-39690D01*
X82309Y-39536D01*
X82220Y-39500D01*
X82309Y-39463D01*
X82463Y-39309D01*
X82546Y-39109D01*
X82546Y-38891D01*
X82463Y-38690D01*
X82309Y-38536D01*
X82220Y-38500D01*
X82309Y-38463D01*
X82463Y-38309D01*
X82546Y-38109D01*
X82546Y-37891D01*
X82463Y-37690D01*
X82309Y-37536D01*
X82109Y-37453D01*
X81948Y-37453D01*
X80247Y-35752D01*
X80133Y-35676D01*
X80000Y-35650D01*
X75463Y-35650D01*
X75384Y-35571D01*
X75466Y-35536D01*
X75537Y-35466D01*
X75575Y-35374D01*
X75575Y-34625D01*
X75537Y-34533D01*
X75466Y-34463D01*
X75374Y-34425D01*
X75275Y-34424D01*
X75112Y-34425D01*
X75050Y-34487D01*
X75050Y-34950D01*
X75512Y-34950D01*
X75575Y-34887D01*
X75575Y-34625D01*
X75575Y-35374D01*
X75575Y-35112D01*
X75512Y-35050D01*
X75050Y-35050D01*
X75050Y-35057D01*
X74950Y-35057D01*
X74950Y-35050D01*
X74950Y-34950D01*
X74950Y-34487D01*
X74887Y-34425D01*
X74724Y-34424D01*
X74625Y-34425D01*
X74533Y-34463D01*
X74462Y-34533D01*
X74424Y-34625D01*
X74425Y-34887D01*
X74487Y-34950D01*
X74950Y-34950D01*
X74950Y-35050D01*
X74487Y-35050D01*
X74425Y-35112D01*
X74424Y-35374D01*
X74462Y-35466D01*
X74533Y-35536D01*
X74615Y-35571D01*
X74536Y-35650D01*
X71108Y-35650D01*
X71108Y-35094D01*
X71098Y-34854D01*
X71026Y-34679D01*
X70925Y-34645D01*
X70854Y-34716D01*
X70854Y-34574D01*
X70820Y-34473D01*
X70594Y-34391D01*
X70354Y-34401D01*
X70179Y-34473D01*
X70145Y-34574D01*
X70500Y-34929D01*
X70854Y-34574D01*
X70854Y-34716D01*
X70570Y-35000D01*
X70925Y-35354D01*
X71026Y-35320D01*
X71108Y-35094D01*
X71108Y-35650D01*
X70644Y-35650D01*
X70595Y-35600D01*
X70645Y-35598D01*
X70820Y-35526D01*
X70854Y-35425D01*
X70500Y-35070D01*
X70494Y-35076D01*
X70423Y-35005D01*
X70429Y-35000D01*
X70074Y-34645D01*
X70015Y-34665D01*
X70012Y-34658D01*
X69842Y-34487D01*
X69620Y-34395D01*
X69380Y-34395D01*
X69158Y-34487D01*
X68999Y-34645D01*
X68842Y-34487D01*
X68620Y-34395D01*
X68380Y-34395D01*
X68158Y-34487D01*
X67987Y-34657D01*
X67895Y-34879D01*
X67895Y-35119D01*
X67987Y-35341D01*
X68157Y-35512D01*
X68379Y-35604D01*
X68619Y-35604D01*
X68841Y-35512D01*
X69000Y-35354D01*
X69157Y-35512D01*
X69379Y-35604D01*
X69609Y-35604D01*
X70252Y-36247D01*
X70366Y-36323D01*
X70500Y-36350D01*
X74536Y-36350D01*
X74673Y-36487D01*
X74885Y-36574D01*
X75113Y-36575D01*
X75325Y-36487D01*
X75463Y-36350D01*
X79855Y-36350D01*
X80958Y-37453D01*
X80891Y-37453D01*
X80690Y-37536D01*
X80577Y-37650D01*
X78579Y-37650D01*
X78579Y-37087D01*
X78569Y-36859D01*
X78501Y-36697D01*
X78404Y-36666D01*
X78333Y-36737D01*
X78333Y-36595D01*
X78302Y-36498D01*
X78087Y-36420D01*
X77859Y-36430D01*
X77697Y-36498D01*
X77666Y-36595D01*
X78000Y-36929D01*
X78333Y-36595D01*
X78333Y-36737D01*
X78070Y-37000D01*
X78404Y-37333D01*
X78501Y-37302D01*
X78579Y-37087D01*
X78579Y-37650D01*
X78575Y-37650D01*
X78575Y-37625D01*
X78537Y-37533D01*
X78466Y-37463D01*
X78374Y-37425D01*
X78326Y-37425D01*
X78333Y-37404D01*
X78000Y-37070D01*
X77929Y-37141D01*
X77929Y-37000D01*
X77595Y-36666D01*
X77498Y-36697D01*
X77420Y-36912D01*
X77430Y-37140D01*
X77498Y-37302D01*
X77595Y-37333D01*
X77929Y-37000D01*
X77929Y-37141D01*
X77666Y-37404D01*
X77673Y-37424D01*
X77625Y-37424D01*
X77533Y-37462D01*
X77463Y-37533D01*
X77425Y-37625D01*
X77425Y-37650D01*
X71000Y-37650D01*
X70866Y-37676D01*
X70752Y-37752D01*
X70609Y-37895D01*
X70380Y-37895D01*
X70158Y-37987D01*
X69987Y-38157D01*
X69984Y-38165D01*
X69925Y-38145D01*
X69854Y-38216D01*
X69854Y-38074D01*
X69820Y-37973D01*
X69594Y-37891D01*
X69354Y-37901D01*
X69179Y-37973D01*
X69145Y-38074D01*
X69500Y-38429D01*
X69854Y-38074D01*
X69854Y-38216D01*
X69570Y-38500D01*
X69925Y-38854D01*
X69984Y-38834D01*
X69987Y-38841D01*
X70157Y-39012D01*
X70379Y-39104D01*
X70619Y-39104D01*
X70841Y-39012D01*
X71012Y-38842D01*
X71104Y-38620D01*
X71104Y-38390D01*
X71144Y-38350D01*
X77424Y-38350D01*
X77424Y-38374D01*
X77462Y-38466D01*
X77533Y-38536D01*
X77625Y-38574D01*
X77724Y-38575D01*
X78374Y-38575D01*
X78466Y-38537D01*
X78536Y-38466D01*
X78574Y-38374D01*
X78574Y-38350D01*
X80577Y-38350D01*
X80690Y-38463D01*
X80779Y-38499D01*
X80690Y-38536D01*
X80536Y-38690D01*
X80453Y-38890D01*
X80453Y-39051D01*
X79855Y-39650D01*
X74963Y-39650D01*
X74826Y-39512D01*
X74614Y-39425D01*
X74386Y-39424D01*
X74174Y-39512D01*
X74036Y-39650D01*
X70500Y-39650D01*
X70366Y-39676D01*
X70252Y-39752D01*
X70252Y-39752D01*
X70252Y-39752D01*
X69854Y-40150D01*
X69854Y-38925D01*
X69500Y-38570D01*
X69429Y-38641D01*
X69429Y-38500D01*
X69074Y-38145D01*
X69015Y-38165D01*
X69012Y-38158D01*
X68842Y-37987D01*
X68620Y-37895D01*
X68380Y-37895D01*
X68158Y-37987D01*
X67987Y-38157D01*
X67895Y-38379D01*
X67895Y-38619D01*
X67987Y-38841D01*
X68157Y-39012D01*
X68379Y-39104D01*
X68619Y-39104D01*
X68841Y-39012D01*
X69012Y-38842D01*
X69015Y-38834D01*
X69074Y-38854D01*
X69429Y-38500D01*
X69429Y-38641D01*
X69145Y-38925D01*
X69179Y-39026D01*
X69405Y-39108D01*
X69645Y-39098D01*
X69820Y-39026D01*
X69854Y-38925D01*
X69854Y-40150D01*
X68609Y-41395D01*
X68380Y-41395D01*
X68158Y-41487D01*
X67987Y-41657D01*
X67895Y-41879D01*
X67895Y-42119D01*
X67987Y-42341D01*
X68157Y-42512D01*
X68379Y-42604D01*
X68619Y-42604D01*
X68841Y-42512D01*
X69012Y-42342D01*
X69015Y-42334D01*
X69074Y-42354D01*
X69429Y-42000D01*
X69423Y-41994D01*
X69494Y-41923D01*
X69500Y-41929D01*
X69854Y-41574D01*
X69820Y-41473D01*
X69601Y-41393D01*
X70644Y-40350D01*
X74036Y-40350D01*
X74115Y-40428D01*
X74033Y-40463D01*
X73962Y-40533D01*
X73924Y-40625D01*
X73925Y-40887D01*
X73987Y-40950D01*
X74450Y-40950D01*
X74450Y-40942D01*
X74550Y-40942D01*
X74550Y-40950D01*
X75012Y-40950D01*
X75075Y-40887D01*
X75075Y-40625D01*
X75037Y-40533D01*
X74966Y-40463D01*
X74884Y-40428D01*
X74963Y-40350D01*
X80000Y-40350D01*
X80133Y-40323D01*
X80133Y-40323D01*
X80247Y-40247D01*
X80453Y-40041D01*
X80453Y-40051D01*
X78855Y-41650D01*
X78579Y-41650D01*
X78579Y-41087D01*
X78569Y-40859D01*
X78501Y-40697D01*
X78404Y-40666D01*
X78333Y-40737D01*
X78333Y-40595D01*
X78302Y-40498D01*
X78087Y-40420D01*
X77859Y-40430D01*
X77697Y-40498D01*
X77666Y-40595D01*
X78000Y-40929D01*
X78333Y-40595D01*
X78333Y-40737D01*
X78070Y-41000D01*
X78404Y-41333D01*
X78501Y-41302D01*
X78579Y-41087D01*
X78579Y-41650D01*
X78575Y-41650D01*
X78575Y-41625D01*
X78537Y-41533D01*
X78466Y-41463D01*
X78374Y-41425D01*
X78326Y-41425D01*
X78333Y-41404D01*
X78000Y-41070D01*
X77929Y-41141D01*
X77929Y-41000D01*
X77595Y-40666D01*
X77498Y-40697D01*
X77420Y-40912D01*
X77430Y-41140D01*
X77498Y-41302D01*
X77595Y-41333D01*
X77929Y-41000D01*
X77929Y-41141D01*
X77666Y-41404D01*
X77673Y-41424D01*
X77625Y-41424D01*
X77533Y-41462D01*
X77463Y-41533D01*
X77425Y-41625D01*
X77425Y-41650D01*
X75075Y-41650D01*
X75075Y-41374D01*
X75075Y-41112D01*
X75012Y-41050D01*
X74550Y-41050D01*
X74550Y-41512D01*
X74612Y-41575D01*
X74775Y-41575D01*
X74874Y-41574D01*
X74966Y-41536D01*
X75037Y-41466D01*
X75075Y-41374D01*
X75075Y-41650D01*
X74450Y-41650D01*
X74450Y-41512D01*
X74450Y-41050D01*
X73987Y-41050D01*
X73925Y-41112D01*
X73924Y-41374D01*
X73962Y-41466D01*
X74033Y-41536D01*
X74125Y-41574D01*
X74224Y-41575D01*
X74387Y-41575D01*
X74450Y-41512D01*
X74450Y-41650D01*
X71004Y-41650D01*
X70842Y-41487D01*
X70620Y-41395D01*
X70380Y-41395D01*
X70158Y-41487D01*
X69987Y-41657D01*
X69984Y-41665D01*
X69925Y-41645D01*
X69570Y-42000D01*
X69925Y-42354D01*
X69984Y-42334D01*
X69987Y-42341D01*
X70157Y-42512D01*
X70379Y-42604D01*
X70619Y-42604D01*
X70841Y-42512D01*
X71004Y-42350D01*
X77424Y-42350D01*
X77424Y-42374D01*
X77462Y-42466D01*
X77533Y-42536D01*
X77625Y-42574D01*
X77724Y-42575D01*
X78374Y-42575D01*
X78466Y-42537D01*
X78536Y-42466D01*
X78574Y-42374D01*
X78574Y-42350D01*
X79000Y-42350D01*
X79133Y-42323D01*
X79133Y-42323D01*
X79247Y-42247D01*
X80453Y-41041D01*
X80453Y-41051D01*
X78355Y-43150D01*
X75463Y-43150D01*
X75326Y-43012D01*
X75114Y-42925D01*
X74886Y-42924D01*
X74674Y-43012D01*
X74536Y-43150D01*
X70500Y-43150D01*
X70366Y-43176D01*
X70252Y-43252D01*
X70252Y-43252D01*
X70252Y-43252D01*
X69854Y-43650D01*
X69854Y-42425D01*
X69500Y-42070D01*
X69145Y-42425D01*
X69179Y-42526D01*
X69405Y-42608D01*
X69645Y-42598D01*
X69820Y-42526D01*
X69854Y-42425D01*
X69854Y-43650D01*
X68609Y-44895D01*
X68380Y-44895D01*
X68158Y-44987D01*
X67987Y-45157D01*
X67895Y-45379D01*
X67895Y-45619D01*
X67987Y-45841D01*
X68157Y-46012D01*
X68379Y-46104D01*
X68619Y-46104D01*
X68841Y-46012D01*
X69012Y-45842D01*
X69015Y-45834D01*
X69074Y-45854D01*
X69429Y-45500D01*
X69423Y-45494D01*
X69494Y-45423D01*
X69500Y-45429D01*
X69854Y-45074D01*
X69820Y-44973D01*
X69601Y-44893D01*
X70644Y-43850D01*
X74536Y-43850D01*
X74615Y-43928D01*
X74533Y-43963D01*
X74462Y-44033D01*
X74424Y-44125D01*
X74425Y-44387D01*
X74487Y-44450D01*
X74950Y-44450D01*
X74950Y-44442D01*
X75050Y-44442D01*
X75050Y-44450D01*
X75512Y-44450D01*
X75575Y-44387D01*
X75575Y-44125D01*
X75537Y-44033D01*
X75466Y-43963D01*
X75384Y-43928D01*
X75463Y-43850D01*
X78500Y-43850D01*
X78633Y-43823D01*
X78633Y-43823D01*
X78747Y-43747D01*
X80453Y-42041D01*
X80453Y-42051D01*
X77752Y-44752D01*
X77676Y-44866D01*
X77664Y-44924D01*
X77625Y-44924D01*
X77533Y-44962D01*
X77463Y-45033D01*
X77425Y-45125D01*
X77425Y-45150D01*
X75575Y-45150D01*
X75575Y-44874D01*
X75575Y-44612D01*
X75512Y-44550D01*
X75050Y-44550D01*
X75050Y-45012D01*
X75112Y-45075D01*
X75275Y-45075D01*
X75374Y-45074D01*
X75466Y-45036D01*
X75537Y-44966D01*
X75575Y-44874D01*
X75575Y-45150D01*
X74950Y-45150D01*
X74950Y-45012D01*
X74950Y-44550D01*
X74487Y-44550D01*
X74425Y-44612D01*
X74424Y-44874D01*
X74462Y-44966D01*
X74533Y-45036D01*
X74625Y-45074D01*
X74724Y-45075D01*
X74887Y-45075D01*
X74950Y-45012D01*
X74950Y-45150D01*
X71004Y-45150D01*
X70842Y-44987D01*
X70620Y-44895D01*
X70380Y-44895D01*
X70158Y-44987D01*
X69987Y-45157D01*
X69984Y-45165D01*
X69925Y-45145D01*
X69570Y-45500D01*
X69925Y-45854D01*
X69984Y-45834D01*
X69987Y-45841D01*
X70157Y-46012D01*
X70379Y-46104D01*
X70619Y-46104D01*
X70841Y-46012D01*
X71004Y-45850D01*
X77424Y-45850D01*
X77424Y-45874D01*
X77462Y-45966D01*
X77533Y-46036D01*
X77625Y-46074D01*
X77673Y-46074D01*
X77666Y-46095D01*
X78000Y-46429D01*
X78333Y-46095D01*
X78326Y-46075D01*
X78374Y-46075D01*
X78466Y-46037D01*
X78536Y-45966D01*
X78574Y-45874D01*
X78575Y-45775D01*
X78575Y-45125D01*
X78537Y-45033D01*
X78499Y-44995D01*
X80948Y-42546D01*
X81108Y-42546D01*
X81309Y-42463D01*
X81463Y-42309D01*
X81497Y-42227D01*
X81521Y-42285D01*
X81616Y-42312D01*
X81929Y-42000D01*
X81616Y-41687D01*
X81521Y-41714D01*
X81499Y-41777D01*
X81463Y-41690D01*
X81309Y-41536D01*
X81220Y-41500D01*
X81309Y-41463D01*
X81463Y-41309D01*
X81499Y-41220D01*
X81536Y-41309D01*
X81690Y-41463D01*
X81772Y-41497D01*
X81714Y-41521D01*
X81687Y-41616D01*
X82000Y-41929D01*
X82312Y-41616D01*
X82285Y-41521D01*
X82222Y-41499D01*
X82309Y-41463D01*
X82463Y-41309D01*
X82546Y-41109D01*
X82546Y-40891D01*
X82546Y-41988D01*
X82540Y-41863D01*
X82478Y-41714D01*
X82383Y-41687D01*
X82070Y-42000D01*
X82383Y-42312D01*
X82478Y-42285D01*
X82551Y-42080D01*
X82551Y-43377D01*
X82312Y-43616D01*
X82312Y-42383D01*
X82000Y-42070D01*
X81687Y-42383D01*
X81714Y-42478D01*
X81919Y-42551D01*
X82136Y-42540D01*
X82285Y-42478D01*
X82312Y-42383D01*
X82312Y-43616D01*
X81979Y-43950D01*
X81479Y-43950D01*
X79464Y-45964D01*
X78579Y-46849D01*
X78579Y-46587D01*
X78569Y-46359D01*
X78501Y-46197D01*
X78404Y-46166D01*
X78070Y-46500D01*
X78404Y-46833D01*
X78501Y-46802D01*
X78579Y-46587D01*
X78579Y-46849D01*
X78333Y-47095D01*
X78333Y-46904D01*
X78000Y-46570D01*
X77929Y-46641D01*
X77929Y-46500D01*
X77595Y-46166D01*
X77498Y-46197D01*
X77420Y-46412D01*
X77430Y-46640D01*
X77498Y-46802D01*
X77595Y-46833D01*
X77929Y-46500D01*
X77929Y-46641D01*
X77666Y-46904D01*
X77697Y-47001D01*
X77912Y-47079D01*
X78140Y-47069D01*
X78302Y-47001D01*
X78333Y-46904D01*
X78333Y-47095D01*
X77979Y-47450D01*
X69854Y-47450D01*
X69854Y-45925D01*
X69500Y-45570D01*
X69145Y-45925D01*
X69179Y-46026D01*
X69405Y-46108D01*
X69645Y-46098D01*
X69820Y-46026D01*
X69854Y-45925D01*
X69854Y-47450D01*
X67550Y-47450D01*
X67550Y-34050D01*
X79479Y-34050D01*
X80979Y-35550D01*
X81979Y-35550D01*
X82950Y-36520D01*
X82950Y-42979D01*
M02*
