G04 (created by PCBNEW (2013-may-18)-stable) date 2014年04月10日 星期四 23时30分17秒*
%MOIN*%
G04 Gerber Fmt 3.4, Leading zero omitted, Abs format*
%FSLAX34Y34*%
G01*
G70*
G90*
G04 APERTURE LIST*
%ADD10C,0.00590551*%
%ADD11C,0.005*%
%ADD12C,0.0024*%
G04 APERTURE END LIST*
G54D10*
G54D11*
X72150Y-33050D02*
X72650Y-33050D01*
X72150Y-32550D02*
X72640Y-32550D01*
X72150Y-32400D02*
X72150Y-33200D01*
X72150Y-33200D02*
X72650Y-33200D01*
X72650Y-33200D02*
X72650Y-32400D01*
X72650Y-32400D02*
X72150Y-32400D01*
X71150Y-33050D02*
X71650Y-33050D01*
X71150Y-32550D02*
X71640Y-32550D01*
X71150Y-32400D02*
X71150Y-33200D01*
X71150Y-33200D02*
X71650Y-33200D01*
X71650Y-33200D02*
X71650Y-32400D01*
X71650Y-32400D02*
X71150Y-32400D01*
X69150Y-33050D02*
X69650Y-33050D01*
X69150Y-32550D02*
X69640Y-32550D01*
X69150Y-32400D02*
X69150Y-33200D01*
X69150Y-33200D02*
X69650Y-33200D01*
X69650Y-33200D02*
X69650Y-32400D01*
X69650Y-32400D02*
X69150Y-32400D01*
X39900Y-51700D02*
X39900Y-52200D01*
X40400Y-51700D02*
X40400Y-52190D01*
X40550Y-51700D02*
X39750Y-51700D01*
X39750Y-51700D02*
X39750Y-52200D01*
X39750Y-52200D02*
X40550Y-52200D01*
X40550Y-52200D02*
X40550Y-51700D01*
X39900Y-52700D02*
X39900Y-53200D01*
X40400Y-52700D02*
X40400Y-53190D01*
X40550Y-52700D02*
X39750Y-52700D01*
X39750Y-52700D02*
X39750Y-53200D01*
X39750Y-53200D02*
X40550Y-53200D01*
X40550Y-53200D02*
X40550Y-52700D01*
X68150Y-33050D02*
X68650Y-33050D01*
X68150Y-32550D02*
X68640Y-32550D01*
X68150Y-32400D02*
X68150Y-33200D01*
X68150Y-33200D02*
X68650Y-33200D01*
X68650Y-33200D02*
X68650Y-32400D01*
X68650Y-32400D02*
X68150Y-32400D01*
G54D10*
X41177Y-51583D02*
X41177Y-53316D01*
X41177Y-53316D02*
X42122Y-53316D01*
X42122Y-53316D02*
X42122Y-51583D01*
X42122Y-51583D02*
X41177Y-51583D01*
X38177Y-51583D02*
X38177Y-53316D01*
X38177Y-53316D02*
X39122Y-53316D01*
X39122Y-53316D02*
X39122Y-51583D01*
X39122Y-51583D02*
X38177Y-51583D01*
X38122Y-34566D02*
X38122Y-32833D01*
X38122Y-32833D02*
X37177Y-32833D01*
X37177Y-32833D02*
X37177Y-34566D01*
X37177Y-34566D02*
X38122Y-34566D01*
G54D12*
X72057Y-32724D02*
X72057Y-32667D01*
X71939Y-32667D01*
X71951Y-32757D02*
X71945Y-32763D01*
X71939Y-32774D01*
X71939Y-32802D01*
X71945Y-32814D01*
X71951Y-32819D01*
X71962Y-32825D01*
X71973Y-32825D01*
X71990Y-32819D01*
X72057Y-32752D01*
X72057Y-32825D01*
X71979Y-32926D02*
X72057Y-32926D01*
X71934Y-32898D02*
X72018Y-32870D01*
X72018Y-32943D01*
X71057Y-32724D02*
X71057Y-32667D01*
X70939Y-32667D01*
X70951Y-32757D02*
X70945Y-32763D01*
X70939Y-32774D01*
X70939Y-32802D01*
X70945Y-32814D01*
X70951Y-32819D01*
X70962Y-32825D01*
X70973Y-32825D01*
X70990Y-32819D01*
X71057Y-32752D01*
X71057Y-32825D01*
X70939Y-32864D02*
X70939Y-32937D01*
X70984Y-32898D01*
X70984Y-32915D01*
X70990Y-32926D01*
X70995Y-32932D01*
X71007Y-32937D01*
X71035Y-32937D01*
X71046Y-32932D01*
X71052Y-32926D01*
X71057Y-32915D01*
X71057Y-32881D01*
X71052Y-32870D01*
X71046Y-32864D01*
X69057Y-32724D02*
X69057Y-32667D01*
X68939Y-32667D01*
X68951Y-32757D02*
X68945Y-32763D01*
X68939Y-32774D01*
X68939Y-32802D01*
X68945Y-32814D01*
X68951Y-32819D01*
X68962Y-32825D01*
X68973Y-32825D01*
X68990Y-32819D01*
X69057Y-32752D01*
X69057Y-32825D01*
X69057Y-32937D02*
X69057Y-32870D01*
X69057Y-32903D02*
X68939Y-32903D01*
X68956Y-32892D01*
X68967Y-32881D01*
X68973Y-32870D01*
X40169Y-51607D02*
X40225Y-51607D01*
X40225Y-51489D01*
X40068Y-51607D02*
X40135Y-51607D01*
X40102Y-51607D02*
X40102Y-51489D01*
X40113Y-51506D01*
X40124Y-51517D01*
X40135Y-51523D01*
X40169Y-52607D02*
X40225Y-52607D01*
X40225Y-52489D01*
X40135Y-52501D02*
X40130Y-52495D01*
X40119Y-52489D01*
X40091Y-52489D01*
X40079Y-52495D01*
X40074Y-52501D01*
X40068Y-52512D01*
X40068Y-52523D01*
X40074Y-52540D01*
X40141Y-52607D01*
X40068Y-52607D01*
X68057Y-32724D02*
X68057Y-32667D01*
X67939Y-32667D01*
X67951Y-32757D02*
X67945Y-32763D01*
X67939Y-32774D01*
X67939Y-32802D01*
X67945Y-32814D01*
X67951Y-32819D01*
X67962Y-32825D01*
X67973Y-32825D01*
X67990Y-32819D01*
X68057Y-32752D01*
X68057Y-32825D01*
X67939Y-32898D02*
X67939Y-32909D01*
X67945Y-32920D01*
X67951Y-32926D01*
X67962Y-32932D01*
X67984Y-32937D01*
X68012Y-32937D01*
X68035Y-32932D01*
X68046Y-32926D01*
X68052Y-32920D01*
X68057Y-32909D01*
X68057Y-32898D01*
X68052Y-32887D01*
X68046Y-32881D01*
X68035Y-32875D01*
X68012Y-32870D01*
X67984Y-32870D01*
X67962Y-32875D01*
X67951Y-32881D01*
X67945Y-32887D01*
X67939Y-32898D01*
G54D10*
X42854Y-52482D02*
X42873Y-52464D01*
X42892Y-52407D01*
X42892Y-52370D01*
X42873Y-52314D01*
X42835Y-52276D01*
X42798Y-52257D01*
X42723Y-52239D01*
X42667Y-52239D01*
X42592Y-52257D01*
X42554Y-52276D01*
X42517Y-52314D01*
X42498Y-52370D01*
X42498Y-52407D01*
X42517Y-52464D01*
X42535Y-52482D01*
X42498Y-52820D02*
X42498Y-52745D01*
X42517Y-52707D01*
X42535Y-52689D01*
X42592Y-52651D01*
X42667Y-52632D01*
X42817Y-52632D01*
X42854Y-52651D01*
X42873Y-52670D01*
X42892Y-52707D01*
X42892Y-52782D01*
X42873Y-52820D01*
X42854Y-52839D01*
X42817Y-52857D01*
X42723Y-52857D01*
X42685Y-52839D01*
X42667Y-52820D01*
X42648Y-52782D01*
X42648Y-52707D01*
X42667Y-52670D01*
X42685Y-52651D01*
X42723Y-52632D01*
X40628Y-51526D02*
X40628Y-51564D01*
X40647Y-51601D01*
X40665Y-51620D01*
X40703Y-51639D01*
X40778Y-51657D01*
X40871Y-51657D01*
X40946Y-51639D01*
X40984Y-51620D01*
X41003Y-51601D01*
X41021Y-51564D01*
X41021Y-51526D01*
X41003Y-51489D01*
X40984Y-51470D01*
X40946Y-51451D01*
X40871Y-51432D01*
X40778Y-51432D01*
X40703Y-51451D01*
X40665Y-51470D01*
X40647Y-51489D01*
X40628Y-51526D01*
X40984Y-51826D02*
X41003Y-51845D01*
X41021Y-51826D01*
X41003Y-51807D01*
X40984Y-51826D01*
X41021Y-51826D01*
X40628Y-52089D02*
X40628Y-52126D01*
X40647Y-52164D01*
X40665Y-52182D01*
X40703Y-52201D01*
X40778Y-52220D01*
X40871Y-52220D01*
X40946Y-52201D01*
X40984Y-52182D01*
X41003Y-52164D01*
X41021Y-52126D01*
X41021Y-52089D01*
X41003Y-52051D01*
X40984Y-52032D01*
X40946Y-52014D01*
X40871Y-51995D01*
X40778Y-51995D01*
X40703Y-52014D01*
X40665Y-52032D01*
X40647Y-52051D01*
X40628Y-52089D01*
X40665Y-52370D02*
X40647Y-52389D01*
X40628Y-52426D01*
X40628Y-52520D01*
X40647Y-52557D01*
X40665Y-52576D01*
X40703Y-52595D01*
X40740Y-52595D01*
X40796Y-52576D01*
X41021Y-52351D01*
X41021Y-52595D01*
X40665Y-52745D02*
X40647Y-52764D01*
X40628Y-52801D01*
X40628Y-52895D01*
X40647Y-52932D01*
X40665Y-52951D01*
X40703Y-52970D01*
X40740Y-52970D01*
X40796Y-52951D01*
X41021Y-52726D01*
X41021Y-52970D01*
X40759Y-53307D02*
X41021Y-53307D01*
X40759Y-53138D02*
X40965Y-53138D01*
X41003Y-53157D01*
X41021Y-53195D01*
X41021Y-53251D01*
X41003Y-53288D01*
X40984Y-53307D01*
X40815Y-53626D02*
X40815Y-53495D01*
X41021Y-53495D02*
X40628Y-53495D01*
X40628Y-53682D01*
X39854Y-52482D02*
X39873Y-52464D01*
X39892Y-52407D01*
X39892Y-52370D01*
X39873Y-52314D01*
X39835Y-52276D01*
X39798Y-52257D01*
X39723Y-52239D01*
X39667Y-52239D01*
X39592Y-52257D01*
X39554Y-52276D01*
X39517Y-52314D01*
X39498Y-52370D01*
X39498Y-52407D01*
X39517Y-52464D01*
X39535Y-52482D01*
X39892Y-52857D02*
X39892Y-52632D01*
X39892Y-52745D02*
X39498Y-52745D01*
X39554Y-52707D01*
X39592Y-52670D01*
X39610Y-52632D01*
X37628Y-51526D02*
X37628Y-51564D01*
X37647Y-51601D01*
X37665Y-51620D01*
X37703Y-51639D01*
X37778Y-51657D01*
X37871Y-51657D01*
X37946Y-51639D01*
X37984Y-51620D01*
X38003Y-51601D01*
X38021Y-51564D01*
X38021Y-51526D01*
X38003Y-51489D01*
X37984Y-51470D01*
X37946Y-51451D01*
X37871Y-51432D01*
X37778Y-51432D01*
X37703Y-51451D01*
X37665Y-51470D01*
X37647Y-51489D01*
X37628Y-51526D01*
X37984Y-51826D02*
X38003Y-51845D01*
X38021Y-51826D01*
X38003Y-51807D01*
X37984Y-51826D01*
X38021Y-51826D01*
X37628Y-52089D02*
X37628Y-52126D01*
X37647Y-52164D01*
X37665Y-52182D01*
X37703Y-52201D01*
X37778Y-52220D01*
X37871Y-52220D01*
X37946Y-52201D01*
X37984Y-52182D01*
X38003Y-52164D01*
X38021Y-52126D01*
X38021Y-52089D01*
X38003Y-52051D01*
X37984Y-52032D01*
X37946Y-52014D01*
X37871Y-51995D01*
X37778Y-51995D01*
X37703Y-52014D01*
X37665Y-52032D01*
X37647Y-52051D01*
X37628Y-52089D01*
X37665Y-52370D02*
X37647Y-52389D01*
X37628Y-52426D01*
X37628Y-52520D01*
X37647Y-52557D01*
X37665Y-52576D01*
X37703Y-52595D01*
X37740Y-52595D01*
X37796Y-52576D01*
X38021Y-52351D01*
X38021Y-52595D01*
X37665Y-52745D02*
X37647Y-52764D01*
X37628Y-52801D01*
X37628Y-52895D01*
X37647Y-52932D01*
X37665Y-52951D01*
X37703Y-52970D01*
X37740Y-52970D01*
X37796Y-52951D01*
X38021Y-52726D01*
X38021Y-52970D01*
X37759Y-53307D02*
X38021Y-53307D01*
X37759Y-53138D02*
X37965Y-53138D01*
X38003Y-53157D01*
X38021Y-53195D01*
X38021Y-53251D01*
X38003Y-53288D01*
X37984Y-53307D01*
X37815Y-53626D02*
X37815Y-53495D01*
X38021Y-53495D02*
X37628Y-53495D01*
X37628Y-53682D01*
X36689Y-33348D02*
X36707Y-33329D01*
X36726Y-33273D01*
X36726Y-33235D01*
X36707Y-33179D01*
X36670Y-33142D01*
X36632Y-33123D01*
X36557Y-33104D01*
X36501Y-33104D01*
X36426Y-33123D01*
X36389Y-33142D01*
X36351Y-33179D01*
X36332Y-33235D01*
X36332Y-33273D01*
X36351Y-33329D01*
X36370Y-33348D01*
X36726Y-33723D02*
X36726Y-33498D01*
X36726Y-33610D02*
X36332Y-33610D01*
X36389Y-33573D01*
X36426Y-33535D01*
X36445Y-33498D01*
X36332Y-33854D02*
X36332Y-34098D01*
X36482Y-33967D01*
X36482Y-34023D01*
X36501Y-34060D01*
X36520Y-34079D01*
X36557Y-34098D01*
X36651Y-34098D01*
X36689Y-34079D01*
X36707Y-34060D01*
X36726Y-34023D01*
X36726Y-33910D01*
X36707Y-33873D01*
X36689Y-33854D01*
X38203Y-32579D02*
X38203Y-32617D01*
X38221Y-32654D01*
X38240Y-32673D01*
X38278Y-32692D01*
X38353Y-32711D01*
X38446Y-32711D01*
X38521Y-32692D01*
X38559Y-32673D01*
X38578Y-32654D01*
X38596Y-32617D01*
X38596Y-32579D01*
X38578Y-32542D01*
X38559Y-32523D01*
X38521Y-32504D01*
X38446Y-32486D01*
X38353Y-32486D01*
X38278Y-32504D01*
X38240Y-32523D01*
X38221Y-32542D01*
X38203Y-32579D01*
X38559Y-32879D02*
X38578Y-32898D01*
X38596Y-32879D01*
X38578Y-32861D01*
X38559Y-32879D01*
X38596Y-32879D01*
X38203Y-33142D02*
X38203Y-33179D01*
X38221Y-33217D01*
X38240Y-33235D01*
X38278Y-33254D01*
X38353Y-33273D01*
X38446Y-33273D01*
X38521Y-33254D01*
X38559Y-33235D01*
X38578Y-33217D01*
X38596Y-33179D01*
X38596Y-33142D01*
X38578Y-33104D01*
X38559Y-33086D01*
X38521Y-33067D01*
X38446Y-33048D01*
X38353Y-33048D01*
X38278Y-33067D01*
X38240Y-33086D01*
X38221Y-33104D01*
X38203Y-33142D01*
X38240Y-33423D02*
X38221Y-33442D01*
X38203Y-33479D01*
X38203Y-33573D01*
X38221Y-33610D01*
X38240Y-33629D01*
X38278Y-33648D01*
X38315Y-33648D01*
X38371Y-33629D01*
X38596Y-33404D01*
X38596Y-33648D01*
X38240Y-33798D02*
X38221Y-33817D01*
X38203Y-33854D01*
X38203Y-33948D01*
X38221Y-33985D01*
X38240Y-34004D01*
X38278Y-34023D01*
X38315Y-34023D01*
X38371Y-34004D01*
X38596Y-33779D01*
X38596Y-34023D01*
X38334Y-34360D02*
X38596Y-34360D01*
X38334Y-34192D02*
X38540Y-34192D01*
X38578Y-34210D01*
X38596Y-34248D01*
X38596Y-34304D01*
X38578Y-34342D01*
X38559Y-34360D01*
X38390Y-34679D02*
X38390Y-34548D01*
X38596Y-34548D02*
X38203Y-34548D01*
X38203Y-34735D01*
M02*
