M48
;DRILL file {Pcbnew (2013-may-18)-stable} date 2014年05月08日 星期四 20时23分33秒
;FORMAT={2:4/ absolute / inch / keep zeros}
FMAT,2
INCH,TZ
T1C0.025
T2C0.028
T3C0.032
T4C0.039
T5C0.047
%
G90
G05
M72
T1
X051000Y-036100
X051100Y-040900
X051100Y-046100
X051100Y-051500
X066400Y-033800
X067400Y-054700
X070200Y-033800
X070600Y-035200
X070800Y-037300
X071400Y-042300
X071800Y-053000
X071900Y-034400
X071900Y-035600
X072000Y-047600
X073200Y-052000
X073300Y-035800
X073400Y-053200
X073600Y-038600
X073600Y-041100
X073600Y-044000
X073600Y-046600
X073600Y-049200
T2
X068550Y-036400
X068550Y-041700
X068600Y-047000
X068600Y-052300
T3
X037400Y-051950
X037400Y-052950
X037400Y-053950
T4
X068400Y-030500
X068400Y-031500
X069400Y-030500
X069400Y-031500
X070400Y-030500
X070400Y-031500
X071400Y-030500
X071400Y-031500
X072400Y-030500
X072400Y-031500
T5
X037635Y-031089
X041572Y-049593
X045509Y-031089
X048462Y-049593
T0
M30
