<?xml version="1.0" standalone="no"?>
 <!DOCTYPE svg PUBLIC "-//W3C//DTD SVG 1.1//EN" 
 "http://www.w3.org/Graphics/SVG/1.1/DTD/svg11.dtd"> 
<svg xmlns="http://www.w3.org/2000/svg" version="1.1" 
    width="27.94cm" height="21.59cm" viewBox="0 0 110000 85000 ">
<title>SVG Picture created as power.svg date 2014/01/28 11:31:55 </title>
  <desc>Picture generated by Eeschema-SVG </desc>
<g style="fill:#000000; fill-opacity:1;stroke:#000000; stroke-opacity:1;
stroke-linecap:round; stroke-linejoin:round; "
 transform="translate(0 0) scale(1 1)">
</g>
<g style="fill:#000000; fill-opacity:0.0; 
stroke:#000000; stroke-width:0; stroke-opacity:1; 
stroke-linecap:round; stroke-linejoin:round;">
</g>
<g style="fill:#A00000; fill-opacity:0.0; 
stroke:#A00000; stroke-width:60; stroke-opacity:1; 
stroke-linecap:round; stroke-linejoin:round;">
<rect x="28000" y="47500" width="2000" height="3000" rx="0" />
<circle cx="30350" cy="50000" r="350" /> 
<path d="M30700 50000
L32500 50000
" />
<path d="M31430 49840
L31080 49840
" />
<path d="M31260 49840
L31260 49240
L31200 49330
L31140 49390
L31080 49410
" />
<circle cx="30350" cy="48000" r="350" /> 
<path d="M30700 48000
L32500 48000
" />
<path d="M31080 47300
L31110 47270
L31170 47240
L31310 47240
L31370 47270
L31400 47300
L31430 47360
L31430 47410
L31400 47500
L31060 47840
L31430 47840
" />
</g>
<g style="fill:#00A0A0; fill-opacity:0.0; 
stroke:#00A0A0; stroke-width:60; stroke-opacity:1; 
stroke-linecap:round; stroke-linejoin:round;">
<path d="M29690 49290
L29290 49290
L29290 49140
L29310 49100
L29330 49090
L29370 49070
L29430 49070
L29460 49090
L29480 49100
L29500 49140
L29500 49290
" />
<path d="M29690 48690
L29690 48910
" />
<path d="M29690 48800
L29290 48800
L29350 48840
L29390 48880
L29410 48910
" />
<path d="M28650 49850
L28670 49870
L28690 49920
L28690 49960
L28670 50020
L28630 50060
L28600 50070
L28520 50090
L28460 50090
L28390 50070
L28350 50060
L28310 50020
L28290 49960
L28290 49920
L28310 49870
L28330 49850
" />
<path d="M28290 49600
L28290 49520
L28310 49480
L28350 49450
L28430 49430
L28560 49430
L28630 49450
L28670 49480
L28690 49520
L28690 49600
L28670 49640
L28630 49670
L28560 49690
L28430 49690
L28350 49670
L28310 49640
L28290 49600
" />
<path d="M28690 49250
L28290 49250
L28690 49030
L28290 49030
" />
<path d="M28690 48830
L28290 48830
L28690 48610
L28290 48610
" />
<path d="M28730 48510
L28730 48210
" />
<path d="M28330 48130
L28310 48110
L28290 48080
L28290 47980
L28310 47940
L28330 47920
L28370 47910
L28410 47910
L28460 47920
L28690 48150
L28690 47910
" />
</g>
<g style="fill:#00A0A0; fill-opacity:0.0; 
stroke:#00A0A0; stroke-width:0; stroke-opacity:1; 
stroke-linecap:round; stroke-linejoin:round;">
</g>
<g style="fill:#A00000; fill-opacity:0.0; 
stroke:#A00000; stroke-width:60; stroke-opacity:1; 
stroke-linecap:round; stroke-linejoin:round;">
<rect x="37000" y="47500" width="4000" height="3000" rx="0" />
<rect x="41000" y="50500" width="0" height="0" rx="0" />
<path d="M37000 48000
L34000 48000
" />
</g>
<g style="fill:#00A0A0; fill-opacity:0.0; 
stroke:#00A0A0; stroke-width:60; stroke-opacity:1; 
stroke-linecap:round; stroke-linejoin:round;">
<path d="M34550 47710
L34780 47710
" />
<path d="M34500 47850
L34660 47350
L34830 47850
" />
<path d="M35280 47800
L35260 47830
L35190 47850
L35140 47850
L35070 47830
L35020 47780
L35000 47730
L34980 47640
L34980 47570
L35000 47470
L35020 47420
L35070 47380
L35140 47350
L35190 47350
L35260 47380
L35280 47400
" />
<path d="M35640 48040
L35620 48020
L35570 47950
L35550 47900
L35520 47830
L35500 47710
L35500 47610
L35520 47500
L35550 47420
L35570 47380
L35620 47300
L35640 47280
" />
<path d="M35830 47850
L35830 47350
L36110 47850
L36110 47350
" />
<path d="M36300 48040
L36330 48020
L36370 47950
L36400 47900
L36420 47830
L36440 47710
L36440 47610
L36420 47500
L36400 47420
L36370 47380
L36330 47300
L36300 47280
" />
</g>
<g style="fill:#A00000; fill-opacity:0.0; 
stroke:#A00000; stroke-width:60; stroke-opacity:1; 
stroke-linecap:round; stroke-linejoin:round;">
<path d="M35640 48550
L35360 48550
" />
<path d="M35500 48550
L35500 48050
L35450 48120
L35400 48170
L35360 48200
" />
<path d="M37000 50000
L34000 50000
" />
</g>
<g style="fill:#00A0A0; fill-opacity:0.0; 
stroke:#00A0A0; stroke-width:60; stroke-opacity:1; 
stroke-linecap:round; stroke-linejoin:round;">
<path d="M34610 49710
L34840 49710
" />
<path d="M34560 49850
L34720 49350
L34890 49850
" />
<path d="M35340 49800
L35320 49830
L35250 49850
L35200 49850
L35130 49830
L35080 49780
L35060 49730
L35040 49640
L35040 49570
L35060 49470
L35080 49420
L35130 49380
L35200 49350
L35250 49350
L35320 49380
L35340 49400
" />
<path d="M35700 50040
L35680 50020
L35630 49950
L35610 49900
L35580 49830
L35560 49710
L35560 49610
L35580 49500
L35610 49420
L35630 49380
L35680 49300
L35700 49280
" />
<path d="M36130 49850
L35890 49850
L35890 49350
" />
<path d="M36240 50040
L36270 50020
L36310 49950
L36340 49900
L36360 49830
L36380 49710
L36380 49610
L36360 49500
L36340 49420
L36310 49380
L36270 49300
L36240 49280
" />
</g>
<g style="fill:#A00000; fill-opacity:0.0; 
stroke:#A00000; stroke-width:60; stroke-opacity:1; 
stroke-linecap:round; stroke-linejoin:round;">
<path d="M35360 50100
L35380 50080
L35430 50050
L35550 50050
L35590 50080
L35620 50100
L35640 50150
L35640 50200
L35620 50270
L35330 50550
L35640 50550
" />
<path d="M41000 50000
L44000 50000
" />
</g>
<g style="fill:#00A0A0; fill-opacity:0.0; 
stroke:#00A0A0; stroke-width:60; stroke-opacity:1; 
stroke-linecap:round; stroke-linejoin:round;">
<path d="M41870 49660
L42250 49660
" />
<path d="M42060 49850
L42060 49470
" />
<path d="M42420 49350
L42580 49850
L42750 49350
" />
<path d="M42990 49850
L42940 49830
L42920 49800
L42900 49760
L42900 49610
L42920 49570
L42940 49540
L42990 49520
L43060 49520
L43110 49540
L43130 49570
L43160 49610
L43160 49760
L43130 49800
L43110 49830
L43060 49850
L42990 49850
" />
</g>
<g style="fill:#A00000; fill-opacity:0.0; 
stroke:#A00000; stroke-width:60; stroke-opacity:1; 
stroke-linecap:round; stroke-linejoin:round;">
<path d="M42330 50050
L42640 50050
L42470 50240
L42550 50240
L42590 50270
L42620 50290
L42640 50340
L42640 50460
L42620 50500
L42590 50530
L42550 50550
L42400 50550
L42360 50530
L42330 50500
" />
<path d="M41000 48000
L44000 48000
" />
</g>
<g style="fill:#00A0A0; fill-opacity:0.0; 
stroke:#00A0A0; stroke-width:60; stroke-opacity:1; 
stroke-linecap:round; stroke-linejoin:round;">
<path d="M41870 47660
L42250 47660
" />
<path d="M42420 47350
L42580 47850
L42750 47350
" />
<path d="M42990 47850
L42940 47830
L42920 47800
L42900 47760
L42900 47610
L42920 47570
L42940 47540
L42990 47520
L43060 47520
L43110 47540
L43130 47570
L43160 47610
L43160 47760
L43130 47800
L43110 47830
L43060 47850
L42990 47850
" />
</g>
<g style="fill:#A00000; fill-opacity:0.0; 
stroke:#A00000; stroke-width:60; stroke-opacity:1; 
stroke-linecap:round; stroke-linejoin:round;">
<path d="M42590 48220
L42590 48550
" />
<path d="M42470 48030
L42360 48390
L42660 48390
" />
</g>
<g style="fill:#00A0A0; fill-opacity:0.0; 
stroke:#00A0A0; stroke-width:60; stroke-opacity:1; 
stroke-linecap:round; stroke-linejoin:round;">
<path d="M38540 47610
L38540 48100
L38570 48160
L38600 48180
L38660 48210
L38770 48210
L38830 48180
L38860 48160
L38890 48100
L38890 47610
" />
<path d="M39490 48210
L39140 48210
" />
<path d="M39320 48210
L39320 47610
L39260 47700
L39200 47760
L39140 47780
" />
<path d="M37600 50210
L37600 49610
" />
<path d="M37950 50210
L37690 49870
" />
<path d="M37950 49610
L37600 49960
" />
<path d="M38200 50210
L38200 49610
L38430 49610
L38490 49640
L38520 49670
L38550 49730
L38550 49810
L38520 49870
L38490 49900
L38430 49930
L38200 49930
" />
<path d="M38770 50180
L38860 50210
L39000 50210
L39060 50180
L39090 50160
L39120 50100
L39120 50040
L39090 49980
L39060 49960
L39000 49930
L38890 49900
L38830 49870
L38800 49840
L38770 49780
L38770 49730
L38800 49670
L38830 49640
L38890 49610
L39030 49610
L39120 49640
" />
<path d="M39370 49980
L39830 49980
" />
<path d="M40400 49610
L40110 49610
L40080 49900
L40110 49870
L40170 49840
L40310 49840
L40370 49870
L40400 49900
L40430 49960
L40430 50100
L40400 50160
L40370 50180
L40310 50210
L40170 50210
L40110 50180
L40080 50160
" />
</g>
<g style="fill:#00A0A0; fill-opacity:0.0; 
stroke:#00A0A0; stroke-width:0; stroke-opacity:1; 
stroke-linecap:round; stroke-linejoin:round;">
</g>
<g style="fill:#A00000; fill-opacity:0.0; 
stroke:#A00000; stroke-width:60; stroke-opacity:1; 
stroke-linecap:round; stroke-linejoin:round;">
<rect x="50000" y="47000" width="4000" height="4000" rx="0" />
<rect x="54000" y="47500" width="0" height="0" rx="0" />
<path d="M50000 50000
L47000 50000
" />
</g>
<g style="fill:#00A0A0; fill-opacity:0.0; 
stroke:#00A0A0; stroke-width:60; stroke-opacity:1; 
stroke-linecap:round; stroke-linejoin:round;">
<path d="M47750 49660
L48130 49660
" />
<path d="M47940 49850
L47940 49470
" />
<path d="M48300 49350
L48460 49850
L48630 49350
" />
<path d="M48800 49850
L48800 49520
" />
<path d="M48800 49350
L48780 49380
L48800 49400
L48820 49380
L48800 49350
L48800 49400
" />
<path d="M49040 49520
L49040 49850
" />
<path d="M49040 49570
L49060 49540
L49110 49520
L49180 49520
L49230 49540
L49250 49590
L49250 49850
" />
</g>
<g style="fill:#A00000; fill-opacity:0.0; 
stroke:#A00000; stroke-width:60; stroke-opacity:1; 
stroke-linecap:round; stroke-linejoin:round;">
<path d="M48640 50550
L48360 50550
" />
<path d="M48500 50550
L48500 50050
L48450 50120
L48400 50170
L48360 50200
" />
<path d="M50000 48000
L47000 48000
" />
</g>
<g style="fill:#00A0A0; fill-opacity:0.0; 
stroke:#00A0A0; stroke-width:60; stroke-opacity:1; 
stroke-linecap:round; stroke-linejoin:round;">
<path d="M47750 47660
L48130 47660
" />
<path d="M48300 47350
L48460 47850
L48630 47350
" />
<path d="M48800 47850
L48800 47520
" />
<path d="M48800 47350
L48780 47380
L48800 47400
L48820 47380
L48800 47350
L48800 47400
" />
<path d="M49040 47520
L49040 47850
" />
<path d="M49040 47570
L49060 47540
L49110 47520
L49180 47520
L49230 47540
L49250 47590
L49250 47850
" />
</g>
<g style="fill:#A00000; fill-opacity:0.0; 
stroke:#A00000; stroke-width:60; stroke-opacity:1; 
stroke-linecap:round; stroke-linejoin:round;">
<path d="M48360 48100
L48380 48080
L48430 48050
L48550 48050
L48590 48080
L48620 48100
L48640 48150
L48640 48200
L48620 48270
L48330 48550
L48640 48550
" />
<path d="M54000 47500
L57000 47500
" />
</g>
<g style="fill:#00A0A0; fill-opacity:0.0; 
stroke:#00A0A0; stroke-width:60; stroke-opacity:1; 
stroke-linecap:round; stroke-linejoin:round;">
<path d="M54870 47160
L55250 47160
" />
<path d="M55420 46850
L55580 47350
L55750 46850
" />
<path d="M55990 47350
L55940 47330
L55920 47300
L55900 47260
L55900 47110
L55920 47070
L55940 47040
L55990 47020
L56060 47020
L56110 47040
L56130 47070
L56160 47110
L56160 47260
L56130 47300
L56110 47330
L56060 47350
L55990 47350
" />
</g>
<g style="fill:#A00000; fill-opacity:0.0; 
stroke:#A00000; stroke-width:60; stroke-opacity:1; 
stroke-linecap:round; stroke-linejoin:round;">
<path d="M55590 47720
L55590 48050
" />
<path d="M55470 47530
L55360 47890
L55660 47890
" />
<path d="M54000 49000
L57000 49000
" />
</g>
<g style="fill:#00A0A0; fill-opacity:0.0; 
stroke:#00A0A0; stroke-width:60; stroke-opacity:1; 
stroke-linecap:round; stroke-linejoin:round;">
<path d="M55090 48800
L55070 48830
L55000 48850
L54950 48850
L54880 48830
L54830 48780
L54810 48730
L54790 48640
L54790 48570
L54810 48470
L54830 48420
L54880 48380
L54950 48350
L55000 48350
L55070 48380
L55090 48400
" />
<path d="M55380 48850
L55330 48830
L55310 48800
L55290 48760
L55290 48610
L55310 48570
L55330 48540
L55380 48520
L55450 48520
L55500 48540
L55520 48570
L55550 48610
L55550 48760
L55520 48800
L55500 48830
L55450 48850
L55380 48850
" />
<path d="M55760 48850
L55760 48520
" />
<path d="M55760 48570
L55780 48540
L55830 48520
L55900 48520
L55950 48540
L55970 48590
L55970 48850
" />
<path d="M55970 48590
L56000 48540
L56040 48520
L56120 48520
L56160 48540
L56190 48590
L56190 48850
" />
</g>
<g style="fill:#A00000; fill-opacity:0.0; 
stroke:#A00000; stroke-width:60; stroke-opacity:1; 
stroke-linecap:round; stroke-linejoin:round;">
<path d="M55620 49050
L55380 49050
L55360 49290
L55380 49270
L55430 49240
L55550 49240
L55590 49270
L55620 49290
L55640 49340
L55640 49460
L55620 49500
L55590 49530
L55550 49550
L55430 49550
L55380 49530
L55360 49500
" />
<path d="M54000 50500
L57000 50500
" />
</g>
<g style="fill:#00A0A0; fill-opacity:0.0; 
stroke:#00A0A0; stroke-width:60; stroke-opacity:1; 
stroke-linecap:round; stroke-linejoin:round;">
<path d="M54870 50160
L55250 50160
" />
<path d="M55060 50350
L55060 49970
" />
<path d="M55420 49850
L55580 50350
L55750 49850
" />
<path d="M55990 50350
L55940 50330
L55920 50300
L55900 50260
L55900 50110
L55920 50070
L55940 50040
L55990 50020
L56060 50020
L56110 50040
L56130 50070
L56160 50110
L56160 50260
L56130 50300
L56110 50330
L56060 50350
L55990 50350
" />
</g>
<g style="fill:#A00000; fill-opacity:0.0; 
stroke:#A00000; stroke-width:60; stroke-opacity:1; 
stroke-linecap:round; stroke-linejoin:round;">
<path d="M55590 50550
L55500 50550
L55450 50580
L55430 50600
L55380 50670
L55360 50770
L55360 50960
L55380 51000
L55400 51030
L55450 51050
L55550 51050
L55590 51030
L55620 51000
L55640 50960
L55640 50840
L55620 50790
L55590 50770
L55550 50740
L55450 50740
L55400 50770
L55380 50790
L55360 50840
" />
</g>
<g style="fill:#00A0A0; fill-opacity:0.0; 
stroke:#00A0A0; stroke-width:60; stroke-opacity:1; 
stroke-linecap:round; stroke-linejoin:round;">
<path d="M51540 49670
L51540 50160
L51570 50220
L51600 50240
L51660 50270
L51770 50270
L51830 50240
L51860 50220
L51890 50160
L51890 49670
" />
<path d="M52460 49670
L52170 49670
L52140 49960
L52170 49930
L52230 49900
L52370 49900
L52430 49930
L52460 49960
L52490 50020
L52490 50160
L52460 50220
L52430 50240
L52370 50270
L52230 50270
L52170 50240
L52140 50220
" />
<path d="M50080 46770
L49880 46490
" />
<path d="M49730 46770
L49730 46170
L49960 46170
L50020 46200
L50050 46230
L50080 46290
L50080 46370
L50050 46430
L50020 46460
L49960 46490
L49730 46490
" />
<path d="M50530 46460
L50620 46490
L50650 46520
L50680 46570
L50680 46660
L50650 46720
L50620 46740
L50560 46770
L50330 46770
L50330 46170
L50530 46170
L50590 46200
L50620 46230
L50650 46290
L50650 46340
L50620 46400
L50590 46430
L50530 46460
L50330 46460
" />
<path d="M50930 46540
L51390 46540
" />
<path d="M51790 46170
L51840 46170
L51900 46200
L51930 46230
L51960 46290
L51990 46400
L51990 46540
L51960 46660
L51930 46720
L51900 46740
L51840 46770
L51790 46770
L51730 46740
L51700 46720
L51670 46660
L51640 46540
L51640 46400
L51670 46290
L51700 46230
L51730 46200
L51790 46170
" />
<path d="M52530 46170
L52240 46170
L52210 46460
L52240 46430
L52300 46400
L52440 46400
L52500 46430
L52530 46460
L52560 46520
L52560 46660
L52530 46720
L52500 46740
L52440 46770
L52300 46770
L52240 46740
L52210 46720
" />
<path d="M52930 46170
L52980 46170
L53040 46200
L53070 46230
L53100 46290
L53130 46400
L53130 46540
L53100 46660
L53070 46720
L53040 46740
L52980 46770
L52930 46770
L52870 46740
L52840 46720
L52810 46660
L52780 46540
L52780 46400
L52810 46290
L52840 46230
L52870 46200
L52930 46170
" />
<path d="M53670 46170
L53380 46170
L53350 46460
L53380 46430
L53440 46400
L53580 46400
L53640 46430
L53670 46460
L53700 46520
L53700 46660
L53670 46720
L53640 46740
L53580 46770
L53440 46770
L53380 46740
L53350 46720
" />
<path d="M53950 46770
L53950 46170
L54100 46170
L54180 46200
L54240 46260
L54270 46320
L54300 46430
L54300 46520
L54270 46630
L54240 46690
L54180 46740
L54100 46770
L53950 46770
" />
</g>
<g style="fill:#00A0A0; fill-opacity:0.0; 
stroke:#00A0A0; stroke-width:0; stroke-opacity:1; 
stroke-linecap:round; stroke-linejoin:round;">
</g>
<g style="fill:#A00000; fill-opacity:0.0; 
stroke:#A00000; stroke-width:60; stroke-opacity:1; 
stroke-linecap:round; stroke-linejoin:round;">
<rect x="50000" y="40000" width="4000" height="4000" rx="0" />
<rect x="54000" y="40500" width="0" height="0" rx="0" />
<path d="M50000 43000
L47000 43000
" />
</g>
<g style="fill:#00A0A0; fill-opacity:0.0; 
stroke:#00A0A0; stroke-width:60; stroke-opacity:1; 
stroke-linecap:round; stroke-linejoin:round;">
<path d="M47750 42660
L48130 42660
" />
<path d="M47940 42850
L47940 42470
" />
<path d="M48300 42350
L48460 42850
L48630 42350
" />
<path d="M48800 42850
L48800 42520
" />
<path d="M48800 42350
L48780 42380
L48800 42400
L48820 42380
L48800 42350
L48800 42400
" />
<path d="M49040 42520
L49040 42850
" />
<path d="M49040 42570
L49060 42540
L49110 42520
L49180 42520
L49230 42540
L49250 42590
L49250 42850
" />
</g>
<g style="fill:#A00000; fill-opacity:0.0; 
stroke:#A00000; stroke-width:60; stroke-opacity:1; 
stroke-linecap:round; stroke-linejoin:round;">
<path d="M48640 43550
L48360 43550
" />
<path d="M48500 43550
L48500 43050
L48450 43120
L48400 43170
L48360 43200
" />
<path d="M50000 41000
L47000 41000
" />
</g>
<g style="fill:#00A0A0; fill-opacity:0.0; 
stroke:#00A0A0; stroke-width:60; stroke-opacity:1; 
stroke-linecap:round; stroke-linejoin:round;">
<path d="M47750 40660
L48130 40660
" />
<path d="M48300 40350
L48460 40850
L48630 40350
" />
<path d="M48800 40850
L48800 40520
" />
<path d="M48800 40350
L48780 40380
L48800 40400
L48820 40380
L48800 40350
L48800 40400
" />
<path d="M49040 40520
L49040 40850
" />
<path d="M49040 40570
L49060 40540
L49110 40520
L49180 40520
L49230 40540
L49250 40590
L49250 40850
" />
</g>
<g style="fill:#A00000; fill-opacity:0.0; 
stroke:#A00000; stroke-width:60; stroke-opacity:1; 
stroke-linecap:round; stroke-linejoin:round;">
<path d="M48360 41100
L48380 41080
L48430 41050
L48550 41050
L48590 41080
L48620 41100
L48640 41150
L48640 41200
L48620 41270
L48330 41550
L48640 41550
" />
<path d="M54000 40500
L57000 40500
" />
</g>
<g style="fill:#00A0A0; fill-opacity:0.0; 
stroke:#00A0A0; stroke-width:60; stroke-opacity:1; 
stroke-linecap:round; stroke-linejoin:round;">
<path d="M54870 40160
L55250 40160
" />
<path d="M55420 39850
L55580 40350
L55750 39850
" />
<path d="M55990 40350
L55940 40330
L55920 40300
L55900 40260
L55900 40110
L55920 40070
L55940 40040
L55990 40020
L56060 40020
L56110 40040
L56130 40070
L56160 40110
L56160 40260
L56130 40300
L56110 40330
L56060 40350
L55990 40350
" />
</g>
<g style="fill:#A00000; fill-opacity:0.0; 
stroke:#A00000; stroke-width:60; stroke-opacity:1; 
stroke-linecap:round; stroke-linejoin:round;">
<path d="M55590 40720
L55590 41050
" />
<path d="M55470 40530
L55360 40890
L55660 40890
" />
<path d="M54000 42000
L57000 42000
" />
</g>
<g style="fill:#00A0A0; fill-opacity:0.0; 
stroke:#00A0A0; stroke-width:60; stroke-opacity:1; 
stroke-linecap:round; stroke-linejoin:round;">
<path d="M55090 41800
L55070 41830
L55000 41850
L54950 41850
L54880 41830
L54830 41780
L54810 41730
L54790 41640
L54790 41570
L54810 41470
L54830 41420
L54880 41380
L54950 41350
L55000 41350
L55070 41380
L55090 41400
" />
<path d="M55380 41850
L55330 41830
L55310 41800
L55290 41760
L55290 41610
L55310 41570
L55330 41540
L55380 41520
L55450 41520
L55500 41540
L55520 41570
L55550 41610
L55550 41760
L55520 41800
L55500 41830
L55450 41850
L55380 41850
" />
<path d="M55760 41850
L55760 41520
" />
<path d="M55760 41570
L55780 41540
L55830 41520
L55900 41520
L55950 41540
L55970 41590
L55970 41850
" />
<path d="M55970 41590
L56000 41540
L56040 41520
L56120 41520
L56160 41540
L56190 41590
L56190 41850
" />
</g>
<g style="fill:#A00000; fill-opacity:0.0; 
stroke:#A00000; stroke-width:60; stroke-opacity:1; 
stroke-linecap:round; stroke-linejoin:round;">
<path d="M55620 42050
L55380 42050
L55360 42290
L55380 42270
L55430 42240
L55550 42240
L55590 42270
L55620 42290
L55640 42340
L55640 42460
L55620 42500
L55590 42530
L55550 42550
L55430 42550
L55380 42530
L55360 42500
" />
<path d="M54000 43500
L57000 43500
" />
</g>
<g style="fill:#00A0A0; fill-opacity:0.0; 
stroke:#00A0A0; stroke-width:60; stroke-opacity:1; 
stroke-linecap:round; stroke-linejoin:round;">
<path d="M54870 43160
L55250 43160
" />
<path d="M55060 43350
L55060 42970
" />
<path d="M55420 42850
L55580 43350
L55750 42850
" />
<path d="M55990 43350
L55940 43330
L55920 43300
L55900 43260
L55900 43110
L55920 43070
L55940 43040
L55990 43020
L56060 43020
L56110 43040
L56130 43070
L56160 43110
L56160 43260
L56130 43300
L56110 43330
L56060 43350
L55990 43350
" />
</g>
<g style="fill:#A00000; fill-opacity:0.0; 
stroke:#A00000; stroke-width:60; stroke-opacity:1; 
stroke-linecap:round; stroke-linejoin:round;">
<path d="M55590 43550
L55500 43550
L55450 43580
L55430 43600
L55380 43670
L55360 43770
L55360 43960
L55380 44000
L55400 44030
L55450 44050
L55550 44050
L55590 44030
L55620 44000
L55640 43960
L55640 43840
L55620 43790
L55590 43770
L55550 43740
L55450 43740
L55400 43770
L55380 43790
L55360 43840
" />
</g>
<g style="fill:#00A0A0; fill-opacity:0.0; 
stroke:#00A0A0; stroke-width:60; stroke-opacity:1; 
stroke-linecap:round; stroke-linejoin:round;">
<path d="M51540 42670
L51540 43160
L51570 43220
L51600 43240
L51660 43270
L51770 43270
L51830 43240
L51860 43220
L51890 43160
L51890 42670
" />
<path d="M52430 42870
L52430 43270
" />
<path d="M52290 42640
L52140 43070
L52520 43070
" />
<path d="M50080 39770
L49880 39490
" />
<path d="M49730 39770
L49730 39170
L49960 39170
L50020 39200
L50050 39230
L50080 39290
L50080 39370
L50050 39430
L50020 39460
L49960 39490
L49730 39490
" />
<path d="M50530 39460
L50620 39490
L50650 39520
L50680 39570
L50680 39660
L50650 39720
L50620 39740
L50560 39770
L50330 39770
L50330 39170
L50530 39170
L50590 39200
L50620 39230
L50650 39290
L50650 39340
L50620 39400
L50590 39430
L50530 39460
L50330 39460
" />
<path d="M50930 39540
L51390 39540
" />
<path d="M51790 39170
L51840 39170
L51900 39200
L51930 39230
L51960 39290
L51990 39400
L51990 39540
L51960 39660
L51930 39720
L51900 39740
L51840 39770
L51790 39770
L51730 39740
L51700 39720
L51670 39660
L51640 39540
L51640 39400
L51670 39290
L51700 39230
L51730 39200
L51790 39170
" />
<path d="M52530 39170
L52240 39170
L52210 39460
L52240 39430
L52300 39400
L52440 39400
L52500 39430
L52530 39460
L52560 39520
L52560 39660
L52530 39720
L52500 39740
L52440 39770
L52300 39770
L52240 39740
L52210 39720
" />
<path d="M53130 39770
L52780 39770
" />
<path d="M52960 39770
L52960 39170
L52900 39260
L52840 39320
L52780 39340
" />
<path d="M53350 39230
L53380 39200
L53440 39170
L53580 39170
L53640 39200
L53670 39230
L53700 39290
L53700 39340
L53670 39430
L53330 39770
L53700 39770
" />
<path d="M53950 39770
L53950 39170
L54100 39170
L54180 39200
L54240 39260
L54270 39320
L54300 39430
L54300 39520
L54270 39630
L54240 39690
L54180 39740
L54100 39770
L53950 39770
" />
</g>
<g style="fill:#00A0A0; fill-opacity:0.0; 
stroke:#00A0A0; stroke-width:0; stroke-opacity:1; 
stroke-linecap:round; stroke-linejoin:round;">
</g>
<g style="fill:#A00000; fill-opacity:0.0; 
stroke:#A00000; stroke-width:60; stroke-opacity:1; 
stroke-linecap:round; stroke-linejoin:round;">
<rect x="50000" y="33000" width="4000" height="4000" rx="0" />
<rect x="54000" y="33500" width="0" height="0" rx="0" />
<path d="M50000 36000
L47000 36000
" />
</g>
<g style="fill:#00A0A0; fill-opacity:0.0; 
stroke:#00A0A0; stroke-width:60; stroke-opacity:1; 
stroke-linecap:round; stroke-linejoin:round;">
<path d="M47750 35660
L48130 35660
" />
<path d="M47940 35850
L47940 35470
" />
<path d="M48300 35350
L48460 35850
L48630 35350
" />
<path d="M48800 35850
L48800 35520
" />
<path d="M48800 35350
L48780 35380
L48800 35400
L48820 35380
L48800 35350
L48800 35400
" />
<path d="M49040 35520
L49040 35850
" />
<path d="M49040 35570
L49060 35540
L49110 35520
L49180 35520
L49230 35540
L49250 35590
L49250 35850
" />
</g>
<g style="fill:#A00000; fill-opacity:0.0; 
stroke:#A00000; stroke-width:60; stroke-opacity:1; 
stroke-linecap:round; stroke-linejoin:round;">
<path d="M48640 36550
L48360 36550
" />
<path d="M48500 36550
L48500 36050
L48450 36120
L48400 36170
L48360 36200
" />
<path d="M50000 34000
L47000 34000
" />
</g>
<g style="fill:#00A0A0; fill-opacity:0.0; 
stroke:#00A0A0; stroke-width:60; stroke-opacity:1; 
stroke-linecap:round; stroke-linejoin:round;">
<path d="M47750 33660
L48130 33660
" />
<path d="M48300 33350
L48460 33850
L48630 33350
" />
<path d="M48800 33850
L48800 33520
" />
<path d="M48800 33350
L48780 33380
L48800 33400
L48820 33380
L48800 33350
L48800 33400
" />
<path d="M49040 33520
L49040 33850
" />
<path d="M49040 33570
L49060 33540
L49110 33520
L49180 33520
L49230 33540
L49250 33590
L49250 33850
" />
</g>
<g style="fill:#A00000; fill-opacity:0.0; 
stroke:#A00000; stroke-width:60; stroke-opacity:1; 
stroke-linecap:round; stroke-linejoin:round;">
<path d="M48360 34100
L48380 34080
L48430 34050
L48550 34050
L48590 34080
L48620 34100
L48640 34150
L48640 34200
L48620 34270
L48330 34550
L48640 34550
" />
<path d="M54000 34000
L57000 34000
" />
</g>
<g style="fill:#00A0A0; fill-opacity:0.0; 
stroke:#00A0A0; stroke-width:60; stroke-opacity:1; 
stroke-linecap:round; stroke-linejoin:round;">
<path d="M54870 33660
L55250 33660
" />
<path d="M55420 33350
L55580 33850
L55750 33350
" />
<path d="M55990 33850
L55940 33830
L55920 33800
L55900 33760
L55900 33610
L55920 33570
L55940 33540
L55990 33520
L56060 33520
L56110 33540
L56130 33570
L56160 33610
L56160 33760
L56130 33800
L56110 33830
L56060 33850
L55990 33850
" />
</g>
<g style="fill:#A00000; fill-opacity:0.0; 
stroke:#A00000; stroke-width:60; stroke-opacity:1; 
stroke-linecap:round; stroke-linejoin:round;">
<path d="M55620 34050
L55380 34050
L55360 34290
L55380 34270
L55430 34240
L55550 34240
L55590 34270
L55620 34290
L55640 34340
L55640 34460
L55620 34500
L55590 34530
L55550 34550
L55430 34550
L55380 34530
L55360 34500
" />
<path d="M54000 36000
L57000 36000
" />
</g>
<g style="fill:#00A0A0; fill-opacity:0.0; 
stroke:#00A0A0; stroke-width:60; stroke-opacity:1; 
stroke-linecap:round; stroke-linejoin:round;">
<path d="M54870 35660
L55250 35660
" />
<path d="M55060 35850
L55060 35470
" />
<path d="M55420 35350
L55580 35850
L55750 35350
" />
<path d="M55990 35850
L55940 35830
L55920 35800
L55900 35760
L55900 35610
L55920 35570
L55940 35540
L55990 35520
L56060 35520
L56110 35540
L56130 35570
L56160 35610
L56160 35760
L56130 35800
L56110 35830
L56060 35850
L55990 35850
" />
</g>
<g style="fill:#A00000; fill-opacity:0.0; 
stroke:#A00000; stroke-width:60; stroke-opacity:1; 
stroke-linecap:round; stroke-linejoin:round;">
<path d="M55590 36050
L55500 36050
L55450 36080
L55430 36100
L55380 36170
L55360 36270
L55360 36460
L55380 36500
L55400 36530
L55450 36550
L55550 36550
L55590 36530
L55620 36500
L55640 36460
L55640 36340
L55620 36290
L55590 36270
L55550 36240
L55450 36240
L55400 36270
L55380 36290
L55360 36340
" />
</g>
<g style="fill:#00A0A0; fill-opacity:0.0; 
stroke:#00A0A0; stroke-width:60; stroke-opacity:1; 
stroke-linecap:round; stroke-linejoin:round;">
<path d="M51540 35670
L51540 36160
L51570 36220
L51600 36240
L51660 36270
L51770 36270
L51830 36240
L51860 36220
L51890 36160
L51890 35670
" />
<path d="M52120 35670
L52490 35670
L52290 35900
L52370 35900
L52430 35930
L52460 35960
L52490 36020
L52490 36160
L52460 36220
L52430 36240
L52370 36270
L52200 36270
L52140 36240
L52120 36220
" />
<path d="M50100 32770
L49900 32490
" />
<path d="M49750 32770
L49750 32170
L49980 32170
L50040 32200
L50070 32230
L50100 32290
L50100 32370
L50070 32430
L50040 32460
L49980 32490
L49750 32490
" />
<path d="M50550 32460
L50640 32490
L50670 32520
L50700 32570
L50700 32660
L50670 32720
L50640 32740
L50580 32770
L50350 32770
L50350 32170
L50550 32170
L50610 32200
L50640 32230
L50670 32290
L50670 32340
L50640 32400
L50610 32430
L50550 32460
L50350 32460
" />
<path d="M50950 32540
L51410 32540
" />
<path d="M51810 32170
L51860 32170
L51920 32200
L51950 32230
L51980 32290
L52010 32400
L52010 32540
L51980 32660
L51950 32720
L51920 32740
L51860 32770
L51810 32770
L51750 32740
L51720 32720
L51690 32660
L51660 32540
L51660 32400
L51690 32290
L51720 32230
L51750 32200
L51810 32170
" />
<path d="M52550 32170
L52260 32170
L52230 32460
L52260 32430
L52320 32400
L52460 32400
L52520 32430
L52550 32460
L52580 32520
L52580 32660
L52550 32720
L52520 32740
L52460 32770
L52320 32770
L52260 32740
L52230 32720
" />
<path d="M53150 32770
L52800 32770
" />
<path d="M52980 32770
L52980 32170
L52920 32260
L52860 32320
L52800 32340
" />
<path d="M53690 32170
L53400 32170
L53370 32460
L53400 32430
L53460 32400
L53600 32400
L53660 32430
L53690 32460
L53720 32520
L53720 32660
L53690 32720
L53660 32740
L53600 32770
L53460 32770
L53400 32740
L53370 32720
" />
<path d="M53940 32740
L54030 32770
L54170 32770
L54230 32740
L54260 32720
L54290 32660
L54290 32600
L54260 32540
L54230 32520
L54170 32490
L54060 32460
L54000 32430
L53970 32400
L53940 32340
L53940 32290
L53970 32230
L54000 32200
L54060 32170
L54200 32170
L54290 32200
" />
</g>
<g style="fill:#00A0A0; fill-opacity:0.0; 
stroke:#00A0A0; stroke-width:0; stroke-opacity:1; 
stroke-linecap:round; stroke-linejoin:round;">
</g>
<g style="fill:#A00000; fill-opacity:0.0; 
stroke:#A00000; stroke-width:60; stroke-opacity:1; 
stroke-linecap:round; stroke-linejoin:round;">
<rect x="50000" y="26000" width="4000" height="4000" rx="0" />
<rect x="54000" y="26500" width="0" height="0" rx="0" />
<path d="M50000 29000
L47000 29000
" />
</g>
<g style="fill:#00A0A0; fill-opacity:0.0; 
stroke:#00A0A0; stroke-width:60; stroke-opacity:1; 
stroke-linecap:round; stroke-linejoin:round;">
<path d="M47750 28660
L48130 28660
" />
<path d="M47940 28850
L47940 28470
" />
<path d="M48300 28350
L48460 28850
L48630 28350
" />
<path d="M48800 28850
L48800 28520
" />
<path d="M48800 28350
L48780 28380
L48800 28400
L48820 28380
L48800 28350
L48800 28400
" />
<path d="M49040 28520
L49040 28850
" />
<path d="M49040 28570
L49060 28540
L49110 28520
L49180 28520
L49230 28540
L49250 28590
L49250 28850
" />
</g>
<g style="fill:#A00000; fill-opacity:0.0; 
stroke:#A00000; stroke-width:60; stroke-opacity:1; 
stroke-linecap:round; stroke-linejoin:round;">
<path d="M48640 29550
L48360 29550
" />
<path d="M48500 29550
L48500 29050
L48450 29120
L48400 29170
L48360 29200
" />
<path d="M50000 27000
L47000 27000
" />
</g>
<g style="fill:#00A0A0; fill-opacity:0.0; 
stroke:#00A0A0; stroke-width:60; stroke-opacity:1; 
stroke-linecap:round; stroke-linejoin:round;">
<path d="M47750 26660
L48130 26660
" />
<path d="M48300 26350
L48460 26850
L48630 26350
" />
<path d="M48800 26850
L48800 26520
" />
<path d="M48800 26350
L48780 26380
L48800 26400
L48820 26380
L48800 26350
L48800 26400
" />
<path d="M49040 26520
L49040 26850
" />
<path d="M49040 26570
L49060 26540
L49110 26520
L49180 26520
L49230 26540
L49250 26590
L49250 26850
" />
</g>
<g style="fill:#A00000; fill-opacity:0.0; 
stroke:#A00000; stroke-width:60; stroke-opacity:1; 
stroke-linecap:round; stroke-linejoin:round;">
<path d="M48360 27100
L48380 27080
L48430 27050
L48550 27050
L48590 27080
L48620 27100
L48640 27150
L48640 27200
L48620 27270
L48330 27550
L48640 27550
" />
<path d="M54000 27000
L57000 27000
" />
</g>
<g style="fill:#00A0A0; fill-opacity:0.0; 
stroke:#00A0A0; stroke-width:60; stroke-opacity:1; 
stroke-linecap:round; stroke-linejoin:round;">
<path d="M54870 26660
L55250 26660
" />
<path d="M55420 26350
L55580 26850
L55750 26350
" />
<path d="M55990 26850
L55940 26830
L55920 26800
L55900 26760
L55900 26610
L55920 26570
L55940 26540
L55990 26520
L56060 26520
L56110 26540
L56130 26570
L56160 26610
L56160 26760
L56130 26800
L56110 26830
L56060 26850
L55990 26850
" />
</g>
<g style="fill:#A00000; fill-opacity:0.0; 
stroke:#A00000; stroke-width:60; stroke-opacity:1; 
stroke-linecap:round; stroke-linejoin:round;">
<path d="M55620 27050
L55380 27050
L55360 27290
L55380 27270
L55430 27240
L55550 27240
L55590 27270
L55620 27290
L55640 27340
L55640 27460
L55620 27500
L55590 27530
L55550 27550
L55430 27550
L55380 27530
L55360 27500
" />
<path d="M54000 29000
L57000 29000
" />
</g>
<g style="fill:#00A0A0; fill-opacity:0.0; 
stroke:#00A0A0; stroke-width:60; stroke-opacity:1; 
stroke-linecap:round; stroke-linejoin:round;">
<path d="M54870 28660
L55250 28660
" />
<path d="M55060 28850
L55060 28470
" />
<path d="M55420 28350
L55580 28850
L55750 28350
" />
<path d="M55990 28850
L55940 28830
L55920 28800
L55900 28760
L55900 28610
L55920 28570
L55940 28540
L55990 28520
L56060 28520
L56110 28540
L56130 28570
L56160 28610
L56160 28760
L56130 28800
L56110 28830
L56060 28850
L55990 28850
" />
</g>
<g style="fill:#A00000; fill-opacity:0.0; 
stroke:#A00000; stroke-width:60; stroke-opacity:1; 
stroke-linecap:round; stroke-linejoin:round;">
<path d="M55590 29050
L55500 29050
L55450 29080
L55430 29100
L55380 29170
L55360 29270
L55360 29460
L55380 29500
L55400 29530
L55450 29550
L55550 29550
L55590 29530
L55620 29500
L55640 29460
L55640 29340
L55620 29290
L55590 29270
L55550 29240
L55450 29240
L55400 29270
L55380 29290
L55360 29340
" />
</g>
<g style="fill:#00A0A0; fill-opacity:0.0; 
stroke:#00A0A0; stroke-width:60; stroke-opacity:1; 
stroke-linecap:round; stroke-linejoin:round;">
<path d="M51540 28670
L51540 29160
L51570 29220
L51600 29240
L51660 29270
L51770 29270
L51830 29240
L51860 29220
L51890 29160
L51890 28670
" />
<path d="M52140 28730
L52170 28700
L52230 28670
L52370 28670
L52430 28700
L52460 28730
L52490 28790
L52490 28840
L52460 28930
L52120 29270
L52490 29270
" />
<path d="M50100 25770
L49900 25490
" />
<path d="M49750 25770
L49750 25170
L49980 25170
L50040 25200
L50070 25230
L50100 25290
L50100 25370
L50070 25430
L50040 25460
L49980 25490
L49750 25490
" />
<path d="M50550 25460
L50640 25490
L50670 25520
L50700 25570
L50700 25660
L50670 25720
L50640 25740
L50580 25770
L50350 25770
L50350 25170
L50550 25170
L50610 25200
L50640 25230
L50670 25290
L50670 25340
L50640 25400
L50610 25430
L50550 25460
L50350 25460
" />
<path d="M50950 25540
L51410 25540
" />
<path d="M51810 25170
L51860 25170
L51920 25200
L51950 25230
L51980 25290
L52010 25400
L52010 25540
L51980 25660
L51950 25720
L51920 25740
L51860 25770
L51810 25770
L51750 25740
L51720 25720
L51690 25660
L51660 25540
L51660 25400
L51690 25290
L51720 25230
L51750 25200
L51810 25170
" />
<path d="M52550 25170
L52260 25170
L52230 25460
L52260 25430
L52320 25400
L52460 25400
L52520 25430
L52550 25460
L52580 25520
L52580 25660
L52550 25720
L52520 25740
L52460 25770
L52320 25770
L52260 25740
L52230 25720
" />
<path d="M53150 25770
L52800 25770
" />
<path d="M52980 25770
L52980 25170
L52920 25260
L52860 25320
L52800 25340
" />
<path d="M53690 25170
L53400 25170
L53370 25460
L53400 25430
L53460 25400
L53600 25400
L53660 25430
L53690 25460
L53720 25520
L53720 25660
L53690 25720
L53660 25740
L53600 25770
L53460 25770
L53400 25740
L53370 25720
" />
<path d="M53940 25740
L54030 25770
L54170 25770
L54230 25740
L54260 25720
L54290 25660
L54290 25600
L54260 25540
L54230 25520
L54170 25490
L54060 25460
L54000 25430
L53970 25400
L53940 25340
L53940 25290
L53970 25230
L54000 25200
L54060 25170
L54200 25170
L54290 25200
" />
</g>
<g style="fill:#00A0A0; fill-opacity:0.0; 
stroke:#00A0A0; stroke-width:0; stroke-opacity:1; 
stroke-linecap:round; stroke-linejoin:round;">
</g>
<g style="fill:#A00000; fill-opacity:0.0; 
stroke:#A00000; stroke-width:60; stroke-opacity:1; 
stroke-linecap:round; stroke-linejoin:round;">
<path d="M46200 24520
L46810 24520
" />
<path d="M46510 24820
L46510 24210
" />
</g>
<g style="fill:#A00000; fill-opacity:0.0; 
stroke:#A00000; stroke-width:150; stroke-opacity:1; 
stroke-linecap:round; stroke-linejoin:round;">
<path d="M45001.3 22997.5 A1800 1800 0.0 0 0 46996.1 22999.3 " />
<polyline fill="none;"
points="47000,24000
45000,24000
45500,24000
45500,24000
" /> 
</g>
<g style="fill:#A00000; fill-opacity:0.0; 
stroke:#A00000; stroke-width:60; stroke-opacity:1; 
stroke-linecap:round; stroke-linejoin:round;">
<path d="M46000 24000
L46000 25500
" />
<path d="M46000 23300
L46000 21500
" />
</g>
<g style="fill:#00A0A0; fill-opacity:0.0; 
stroke:#00A0A0; stroke-width:60; stroke-opacity:1; 
stroke-linecap:round; stroke-linejoin:round;">
<path d="M44920 24680
L44900 24710
L44830 24730
L44780 24730
L44710 24710
L44660 24660
L44640 24610
L44620 24520
L44620 24450
L44640 24350
L44660 24300
L44710 24260
L44780 24230
L44830 24230
L44900 24260
L44920 24280
" />
<path d="M45400 24730
L45120 24730
" />
<path d="M45260 24730
L45260 24230
L45210 24300
L45160 24350
L45120 24380
" />
<path d="M44420 22680
L44400 22710
L44330 22730
L44280 22730
L44210 22710
L44160 22660
L44140 22610
L44120 22520
L44120 22450
L44140 22350
L44160 22300
L44210 22260
L44280 22230
L44330 22230
L44400 22260
L44420 22280
" />
<path d="M44640 22730
L44640 22230
L44830 22230
L44880 22260
L44900 22280
L44920 22330
L44920 22400
L44900 22450
L44880 22470
L44830 22490
L44640 22490
" />
<path d="M45400 22730
L45120 22730
" />
<path d="M45260 22730
L45260 22230
L45210 22300
L45160 22350
L45120 22380
" />
</g>
<g style="fill:#00A0A0; fill-opacity:0.0; 
stroke:#00A0A0; stroke-width:0; stroke-opacity:1; 
stroke-linecap:round; stroke-linejoin:round;">
</g>
<g style="fill:#A00000; fill-opacity:0.0; 
stroke:#A00000; stroke-width:60; stroke-opacity:1; 
stroke-linecap:round; stroke-linejoin:round;">
<path d="M70700 53520
L71310 53520
" />
<path d="M71010 53820
L71010 53210
" />
</g>
<g style="fill:#A00000; fill-opacity:0.0; 
stroke:#A00000; stroke-width:150; stroke-opacity:1; 
stroke-linecap:round; stroke-linejoin:round;">
<path d="M69501.3 51997.5 A1800 1800 0.0 0 0 71496.1 51999.3 " />
<polyline fill="none;"
points="71500,53000
69500,53000
70000,53000
70000,53000
" /> 
</g>
<g style="fill:#A00000; fill-opacity:0.0; 
stroke:#A00000; stroke-width:60; stroke-opacity:1; 
stroke-linecap:round; stroke-linejoin:round;">
<path d="M70500 53000
L70500 54500
" />
<path d="M70500 52300
L70500 50500
" />
</g>
<g style="fill:#00A0A0; fill-opacity:0.0; 
stroke:#00A0A0; stroke-width:60; stroke-opacity:1; 
stroke-linecap:round; stroke-linejoin:round;">
<path d="M69420 53680
L69400 53710
L69330 53730
L69280 53730
L69210 53710
L69160 53660
L69140 53610
L69120 53520
L69120 53450
L69140 53350
L69160 53300
L69210 53260
L69280 53230
L69330 53230
L69400 53260
L69420 53280
" />
<path d="M69590 53230
L69920 53230
L69710 53730
" />
<path d="M68920 51680
L68900 51710
L68830 51730
L68780 51730
L68710 51710
L68660 51660
L68640 51610
L68620 51520
L68620 51450
L68640 51350
L68660 51300
L68710 51260
L68780 51230
L68830 51230
L68900 51260
L68920 51280
" />
<path d="M69140 51730
L69140 51230
L69330 51230
L69380 51260
L69400 51280
L69420 51330
L69420 51400
L69400 51450
L69380 51470
L69330 51490
L69140 51490
" />
<path d="M69900 51730
L69620 51730
" />
<path d="M69760 51730
L69760 51230
L69710 51300
L69660 51350
L69620 51380
" />
</g>
<g style="fill:#00A0A0; fill-opacity:0.0; 
stroke:#00A0A0; stroke-width:0; stroke-opacity:1; 
stroke-linecap:round; stroke-linejoin:round;">
</g>
<g style="fill:#A00000; fill-opacity:0.0; 
stroke:#A00000; stroke-width:60; stroke-opacity:1; 
stroke-linecap:round; stroke-linejoin:round;">
<path d="M67200 33020
L67810 33020
" />
<path d="M67510 33320
L67510 32710
" />
</g>
<g style="fill:#A00000; fill-opacity:0.0; 
stroke:#A00000; stroke-width:150; stroke-opacity:1; 
stroke-linecap:round; stroke-linejoin:round;">
<path d="M66001.3 31497.5 A1800 1800 0.0 0 0 67996.1 31499.3 " />
<polyline fill="none;"
points="68000,32500
66000,32500
66500,32500
66500,32500
" /> 
</g>
<g style="fill:#A00000; fill-opacity:0.0; 
stroke:#A00000; stroke-width:60; stroke-opacity:1; 
stroke-linecap:round; stroke-linejoin:round;">
<path d="M67000 32500
L67000 34000
" />
<path d="M67000 31800
L67000 30000
" />
</g>
<g style="fill:#00A0A0; fill-opacity:0.0; 
stroke:#00A0A0; stroke-width:60; stroke-opacity:1; 
stroke-linecap:round; stroke-linejoin:round;">
<path d="M65920 33180
L65900 33210
L65830 33230
L65780 33230
L65710 33210
L65660 33160
L65640 33110
L65620 33020
L65620 32950
L65640 32850
L65660 32800
L65710 32760
L65780 32730
L65830 32730
L65900 32760
L65920 32780
" />
<path d="M66090 32730
L66400 32730
L66230 32920
L66310 32920
L66350 32950
L66380 32970
L66400 33020
L66400 33140
L66380 33180
L66350 33210
L66310 33230
L66160 33230
L66120 33210
L66090 33180
" />
<path d="M65420 31180
L65400 31210
L65330 31230
L65280 31230
L65210 31210
L65160 31160
L65140 31110
L65120 31020
L65120 30950
L65140 30850
L65160 30800
L65210 30760
L65280 30730
L65330 30730
L65400 30760
L65420 30780
" />
<path d="M65640 31230
L65640 30730
L65830 30730
L65880 30760
L65900 30780
L65920 30830
L65920 30900
L65900 30950
L65880 30970
L65830 30990
L65640 30990
" />
<path d="M66400 31230
L66120 31230
" />
<path d="M66260 31230
L66260 30730
L66210 30800
L66160 30850
L66120 30880
" />
</g>
<g style="fill:#00A0A0; fill-opacity:0.0; 
stroke:#00A0A0; stroke-width:0; stroke-opacity:1; 
stroke-linecap:round; stroke-linejoin:round;">
</g>
<g style="fill:#A00000; fill-opacity:0.0; 
stroke:#A00000; stroke-width:60; stroke-opacity:1; 
stroke-linecap:round; stroke-linejoin:round;">
<path d="M70700 49020
L71310 49020
" />
<path d="M71010 49320
L71010 48710
" />
</g>
<g style="fill:#A00000; fill-opacity:0.0; 
stroke:#A00000; stroke-width:150; stroke-opacity:1; 
stroke-linecap:round; stroke-linejoin:round;">
<path d="M69501.3 47497.5 A1800 1800 0.0 0 0 71496.1 47499.3 " />
<polyline fill="none;"
points="71500,48500
69500,48500
70000,48500
70000,48500
" /> 
</g>
<g style="fill:#A00000; fill-opacity:0.0; 
stroke:#A00000; stroke-width:60; stroke-opacity:1; 
stroke-linecap:round; stroke-linejoin:round;">
<path d="M70500 48500
L70500 50000
" />
<path d="M70500 47800
L70500 46000
" />
</g>
<g style="fill:#00A0A0; fill-opacity:0.0; 
stroke:#00A0A0; stroke-width:60; stroke-opacity:1; 
stroke-linecap:round; stroke-linejoin:round;">
<path d="M69420 49180
L69400 49210
L69330 49230
L69280 49230
L69210 49210
L69160 49160
L69140 49110
L69120 49020
L69120 48950
L69140 48850
L69160 48800
L69210 48760
L69280 48730
L69330 48730
L69400 48760
L69420 48780
" />
<path d="M69850 48730
L69760 48730
L69710 48760
L69690 48780
L69640 48850
L69620 48950
L69620 49140
L69640 49180
L69660 49210
L69710 49230
L69810 49230
L69850 49210
L69880 49180
L69900 49140
L69900 49020
L69880 48970
L69850 48950
L69810 48920
L69710 48920
L69660 48950
L69640 48970
L69620 49020
" />
<path d="M68920 47180
L68900 47210
L68830 47230
L68780 47230
L68710 47210
L68660 47160
L68640 47110
L68620 47020
L68620 46950
L68640 46850
L68660 46800
L68710 46760
L68780 46730
L68830 46730
L68900 46760
L68920 46780
" />
<path d="M69140 47230
L69140 46730
L69330 46730
L69380 46760
L69400 46780
L69420 46830
L69420 46900
L69400 46950
L69380 46970
L69330 46990
L69140 46990
" />
<path d="M69900 47230
L69620 47230
" />
<path d="M69760 47230
L69760 46730
L69710 46800
L69660 46850
L69620 46880
" />
</g>
<g style="fill:#00A0A0; fill-opacity:0.0; 
stroke:#00A0A0; stroke-width:0; stroke-opacity:1; 
stroke-linecap:round; stroke-linejoin:round;">
</g>
<g style="fill:#A00000; fill-opacity:0.0; 
stroke:#A00000; stroke-width:60; stroke-opacity:1; 
stroke-linecap:round; stroke-linejoin:round;">
<path d="M67200 28020
L67810 28020
" />
<path d="M67510 28320
L67510 27710
" />
</g>
<g style="fill:#A00000; fill-opacity:0.0; 
stroke:#A00000; stroke-width:150; stroke-opacity:1; 
stroke-linecap:round; stroke-linejoin:round;">
<path d="M66001.3 26497.5 A1800 1800 0.0 0 0 67996.1 26499.3 " />
<polyline fill="none;"
points="68000,27500
66000,27500
66500,27500
66500,27500
" /> 
</g>
<g style="fill:#A00000; fill-opacity:0.0; 
stroke:#A00000; stroke-width:60; stroke-opacity:1; 
stroke-linecap:round; stroke-linejoin:round;">
<path d="M67000 27500
L67000 29000
" />
<path d="M67000 26800
L67000 25000
" />
</g>
<g style="fill:#00A0A0; fill-opacity:0.0; 
stroke:#00A0A0; stroke-width:60; stroke-opacity:1; 
stroke-linecap:round; stroke-linejoin:round;">
<path d="M65920 28180
L65900 28210
L65830 28230
L65780 28230
L65710 28210
L65660 28160
L65640 28110
L65620 28020
L65620 27950
L65640 27850
L65660 27800
L65710 27760
L65780 27730
L65830 27730
L65900 27760
L65920 27780
" />
<path d="M66120 27780
L66140 27760
L66190 27730
L66310 27730
L66350 27760
L66380 27780
L66400 27830
L66400 27880
L66380 27950
L66090 28230
L66400 28230
" />
<path d="M65420 26180
L65400 26210
L65330 26230
L65280 26230
L65210 26210
L65160 26160
L65140 26110
L65120 26020
L65120 25950
L65140 25850
L65160 25800
L65210 25760
L65280 25730
L65330 25730
L65400 25760
L65420 25780
" />
<path d="M65640 26230
L65640 25730
L65830 25730
L65880 25760
L65900 25780
L65920 25830
L65920 25900
L65900 25950
L65880 25970
L65830 25990
L65640 25990
" />
<path d="M66400 26230
L66120 26230
" />
<path d="M66260 26230
L66260 25730
L66210 25800
L66160 25850
L66120 25880
" />
</g>
<g style="fill:#00A0A0; fill-opacity:0.0; 
stroke:#00A0A0; stroke-width:0; stroke-opacity:1; 
stroke-linecap:round; stroke-linejoin:round;">
</g>
<g style="fill:#A00000; fill-opacity:0.0; 
stroke:#A00000; stroke-width:60; stroke-opacity:1; 
stroke-linecap:round; stroke-linejoin:round;">
<path d="M67200 49020
L67810 49020
" />
<path d="M67510 49320
L67510 48710
" />
</g>
<g style="fill:#A00000; fill-opacity:0.0; 
stroke:#A00000; stroke-width:150; stroke-opacity:1; 
stroke-linecap:round; stroke-linejoin:round;">
<path d="M66001.3 47497.5 A1800 1800 0.0 0 0 67996.1 47499.3 " />
<polyline fill="none;"
points="68000,48500
66000,48500
66500,48500
66500,48500
" /> 
</g>
<g style="fill:#A00000; fill-opacity:0.0; 
stroke:#A00000; stroke-width:60; stroke-opacity:1; 
stroke-linecap:round; stroke-linejoin:round;">
<path d="M67000 48500
L67000 50000
" />
<path d="M67000 47800
L67000 46000
" />
</g>
<g style="fill:#00A0A0; fill-opacity:0.0; 
stroke:#00A0A0; stroke-width:60; stroke-opacity:1; 
stroke-linecap:round; stroke-linejoin:round;">
<path d="M65920 49180
L65900 49210
L65830 49230
L65780 49230
L65710 49210
L65660 49160
L65640 49110
L65620 49020
L65620 48950
L65640 48850
L65660 48800
L65710 48760
L65780 48730
L65830 48730
L65900 48760
L65920 48780
" />
<path d="M66350 48900
L66350 49230
" />
<path d="M66230 48710
L66120 49070
L66420 49070
" />
<path d="M65420 47180
L65400 47210
L65330 47230
L65280 47230
L65210 47210
L65160 47160
L65140 47110
L65120 47020
L65120 46950
L65140 46850
L65160 46800
L65210 46760
L65280 46730
L65330 46730
L65400 46760
L65420 46780
" />
<path d="M65640 47230
L65640 46730
L65830 46730
L65880 46760
L65900 46780
L65920 46830
L65920 46900
L65900 46950
L65880 46970
L65830 46990
L65640 46990
" />
<path d="M66400 47230
L66120 47230
" />
<path d="M66260 47230
L66260 46730
L66210 46800
L66160 46850
L66120 46880
" />
</g>
<g style="fill:#00A0A0; fill-opacity:0.0; 
stroke:#00A0A0; stroke-width:0; stroke-opacity:1; 
stroke-linecap:round; stroke-linejoin:round;">
</g>
<g style="fill:#A00000; fill-opacity:0.0; 
stroke:#A00000; stroke-width:60; stroke-opacity:1; 
stroke-linecap:round; stroke-linejoin:round;">
<path d="M67200 53520
L67810 53520
" />
<path d="M67510 53820
L67510 53210
" />
</g>
<g style="fill:#A00000; fill-opacity:0.0; 
stroke:#A00000; stroke-width:150; stroke-opacity:1; 
stroke-linecap:round; stroke-linejoin:round;">
<path d="M66001.3 51997.5 A1800 1800 0.0 0 0 67996.1 51999.3 " />
<polyline fill="none;"
points="68000,53000
66000,53000
66500,53000
66500,53000
" /> 
</g>
<g style="fill:#A00000; fill-opacity:0.0; 
stroke:#A00000; stroke-width:60; stroke-opacity:1; 
stroke-linecap:round; stroke-linejoin:round;">
<path d="M67000 53000
L67000 54500
" />
<path d="M67000 52300
L67000 50500
" />
</g>
<g style="fill:#00A0A0; fill-opacity:0.0; 
stroke:#00A0A0; stroke-width:60; stroke-opacity:1; 
stroke-linecap:round; stroke-linejoin:round;">
<path d="M65920 53680
L65900 53710
L65830 53730
L65780 53730
L65710 53710
L65660 53660
L65640 53610
L65620 53520
L65620 53450
L65640 53350
L65660 53300
L65710 53260
L65780 53230
L65830 53230
L65900 53260
L65920 53280
" />
<path d="M66380 53230
L66140 53230
L66120 53470
L66140 53450
L66190 53420
L66310 53420
L66350 53450
L66380 53470
L66400 53520
L66400 53640
L66380 53680
L66350 53710
L66310 53730
L66190 53730
L66140 53710
L66120 53680
" />
<path d="M65420 51680
L65400 51710
L65330 51730
L65280 51730
L65210 51710
L65160 51660
L65140 51610
L65120 51520
L65120 51450
L65140 51350
L65160 51300
L65210 51260
L65280 51230
L65330 51230
L65400 51260
L65420 51280
" />
<path d="M65640 51730
L65640 51230
L65830 51230
L65880 51260
L65900 51280
L65920 51330
L65920 51400
L65900 51450
L65880 51470
L65830 51490
L65640 51490
" />
<path d="M66400 51730
L66120 51730
" />
<path d="M66260 51730
L66260 51230
L66210 51300
L66160 51350
L66120 51380
" />
</g>
<g style="fill:#00A000; fill-opacity:0.0; 
stroke:#00A000; stroke-width:60; stroke-opacity:1; 
stroke-linecap:round; stroke-linejoin:round;">
<path d="M32500 50000
L34000 50000
" />
<path d="M32500 48000
L34000 48000
" />
<path d="M44000 48000
L47000 48000
" />
<path d="M44000 50000
L47000 50000
" />
<path d="M44500 21500
L44500 48000
" />
<path d="M44500 41000
L47000 41000
" />
</g>
<g style="fill:#00A000; fill-opacity:0.0; 
stroke:#00A000; stroke-width:0; stroke-opacity:1; 
stroke-linecap:round; stroke-linejoin:round;">
</g>
<g style="fill:#00A000; fill-opacity:1.0; 
stroke:#00A000; stroke-width:100; stroke-opacity:1; 
stroke-linecap:round; stroke-linejoin:round;">
<circle cx="44500" cy="48000" r="160" /> 
</g>
<g style="fill:#00A000; fill-opacity:1.0; 
stroke:#00A000; stroke-width:60; stroke-opacity:1; 
stroke-linecap:round; stroke-linejoin:round;">
<path d="M44500 34000
L47000 34000
" />
</g>
<g style="fill:#00A000; fill-opacity:1.0; 
stroke:#00A000; stroke-width:0; stroke-opacity:1; 
stroke-linecap:round; stroke-linejoin:round;">
</g>
<g style="fill:#00A000; fill-opacity:1.0; 
stroke:#00A000; stroke-width:100; stroke-opacity:1; 
stroke-linecap:round; stroke-linejoin:round;">
<circle cx="44500" cy="41000" r="160" /> 
</g>
<g style="fill:#00A000; fill-opacity:1.0; 
stroke:#00A000; stroke-width:60; stroke-opacity:1; 
stroke-linecap:round; stroke-linejoin:round;">
<path d="M44500 27000
L47000 27000
" />
</g>
<g style="fill:#00A000; fill-opacity:1.0; 
stroke:#00A000; stroke-width:0; stroke-opacity:1; 
stroke-linecap:round; stroke-linejoin:round;">
</g>
<g style="fill:#00A000; fill-opacity:1.0; 
stroke:#00A000; stroke-width:100; stroke-opacity:1; 
stroke-linecap:round; stroke-linejoin:round;">
<circle cx="44500" cy="34000" r="160" /> 
</g>
<g style="fill:#00A000; fill-opacity:1.0; 
stroke:#00A000; stroke-width:60; stroke-opacity:1; 
stroke-linecap:round; stroke-linejoin:round;">
<path d="M46000 43000
L47000 43000
" />
</g>
<g style="fill:#00A000; fill-opacity:1.0; 
stroke:#00A000; stroke-width:0; stroke-opacity:1; 
stroke-linecap:round; stroke-linejoin:round;">
</g>
<g style="fill:#00A000; fill-opacity:1.0; 
stroke:#00A000; stroke-width:100; stroke-opacity:1; 
stroke-linecap:round; stroke-linejoin:round;">
<circle cx="46000" cy="50000" r="160" /> 
</g>
<g style="fill:#00A000; fill-opacity:1.0; 
stroke:#00A000; stroke-width:60; stroke-opacity:1; 
stroke-linecap:round; stroke-linejoin:round;">
<path d="M46000 36000
L47000 36000
" />
</g>
<g style="fill:#00A000; fill-opacity:1.0; 
stroke:#00A000; stroke-width:0; stroke-opacity:1; 
stroke-linecap:round; stroke-linejoin:round;">
</g>
<g style="fill:#00A000; fill-opacity:1.0; 
stroke:#00A000; stroke-width:100; stroke-opacity:1; 
stroke-linecap:round; stroke-linejoin:round;">
<circle cx="46000" cy="43000" r="160" /> 
</g>
<g style="fill:#00A000; fill-opacity:1.0; 
stroke:#00A000; stroke-width:60; stroke-opacity:1; 
stroke-linecap:round; stroke-linejoin:round;">
<path d="M46000 29000
L47000 29000
" />
</g>
<g style="fill:#00A000; fill-opacity:1.0; 
stroke:#00A000; stroke-width:0; stroke-opacity:1; 
stroke-linecap:round; stroke-linejoin:round;">
</g>
<g style="fill:#00A000; fill-opacity:1.0; 
stroke:#00A000; stroke-width:100; stroke-opacity:1; 
stroke-linecap:round; stroke-linejoin:round;">
<circle cx="46000" cy="36000" r="160" /> 
</g>
<g style="fill:#00A000; fill-opacity:1.0; 
stroke:#00A000; stroke-width:60; stroke-opacity:1; 
stroke-linecap:round; stroke-linejoin:round;">
<path d="M57000 49000
L66000 49000
" />
<path d="M59000 29000
L59000 49000
" />
<path d="M59000 34000
L57000 34000
" />
</g>
<g style="fill:#00A000; fill-opacity:1.0; 
stroke:#00A000; stroke-width:0; stroke-opacity:1; 
stroke-linecap:round; stroke-linejoin:round;">
</g>
<g style="fill:#00A000; fill-opacity:1.0; 
stroke:#00A000; stroke-width:100; stroke-opacity:1; 
stroke-linecap:round; stroke-linejoin:round;">
<circle cx="59000" cy="42000" r="160" /> 
</g>
<g style="fill:#00A000; fill-opacity:1.0; 
stroke:#00A000; stroke-width:60; stroke-opacity:1; 
stroke-linecap:round; stroke-linejoin:round;">
<path d="M57000 29000
L67000 29000
" />
</g>
<g style="fill:#00A000; fill-opacity:1.0; 
stroke:#00A000; stroke-width:0; stroke-opacity:1; 
stroke-linecap:round; stroke-linejoin:round;">
</g>
<g style="fill:#00A000; fill-opacity:1.0; 
stroke:#00A000; stroke-width:100; stroke-opacity:1; 
stroke-linecap:round; stroke-linejoin:round;">
<circle cx="59000" cy="34000" r="160" /> 
</g>
<g style="fill:#00A000; fill-opacity:1.0; 
stroke:#00A000; stroke-width:60; stroke-opacity:1; 
stroke-linecap:round; stroke-linejoin:round;">
<path d="M57000 50500
L65000 50500
" />
<path d="M65000 41000
L65000 54500
" />
<path d="M65000 41000
L76000 41000
" />
<path d="M57000 47500
L64500 47500
" />
<path d="M64500 47500
L64500 40000
" />
<path d="M64500 40000
L76000 40000
" />
<path d="M57000 43500
L64000 43500
" />
<path d="M64000 43500
L64000 39000
" />
<path d="M64000 39000
L76000 39000
" />
<path d="M57000 40500
L63500 40500
" />
<path d="M63500 40500
L63500 38000
" />
<path d="M63500 38000
L76000 38000
" />
<path d="M57000 36000
L63000 36000
" />
<path d="M63000 36000
L63000 37000
" />
<path d="M63000 37000
L76000 37000
" />
<path d="M57000 27000
L63500 27000
" />
<path d="M63500 36000
L84000 36000
" />
</g>
<g style="fill:#00A000; fill-opacity:1.0; 
stroke:#00A000; stroke-width:0; stroke-opacity:1; 
stroke-linecap:round; stroke-linejoin:round;">
</g>
<g style="fill:#00A000; fill-opacity:1.0; 
stroke:#00A000; stroke-width:100; stroke-opacity:1; 
stroke-linecap:round; stroke-linejoin:round;">
<circle cx="46000" cy="29000" r="160" /> 
</g>
<g style="fill:#00A000; fill-opacity:1.0; 
stroke:#00A000; stroke-width:0; stroke-opacity:1; 
stroke-linecap:round; stroke-linejoin:round;">
</g>
<g style="fill:#00A000; fill-opacity:1.0; 
stroke:#00A000; stroke-width:100; stroke-opacity:1; 
stroke-linecap:round; stroke-linejoin:round;">
<circle cx="44500" cy="27000" r="160" /> 
</g>
<g style="fill:#00A000; fill-opacity:1.0; 
stroke:#00A000; stroke-width:60; stroke-opacity:1; 
stroke-linecap:round; stroke-linejoin:round;">
<path d="M46000 25500
L46000 50000
" />
<path d="M44500 21500
L46000 21500
" />
</g>
<g style="fill:#00A000; fill-opacity:1.0; 
stroke:#00A000; stroke-width:0; stroke-opacity:1; 
stroke-linecap:round; stroke-linejoin:round;">
</g>
<g style="fill:#00A000; fill-opacity:1.0; 
stroke:#00A000; stroke-width:100; stroke-opacity:1; 
stroke-linecap:round; stroke-linejoin:round;">
<circle cx="63500" cy="27000" r="160" /> 
</g>
<g style="fill:#00A000; fill-opacity:1.0; 
stroke:#00A000; stroke-width:0; stroke-opacity:1; 
stroke-linecap:round; stroke-linejoin:round;">
</g>
<g style="fill:#00A000; fill-opacity:1.0; 
stroke:#00A000; stroke-width:100; stroke-opacity:1; 
stroke-linecap:round; stroke-linejoin:round;">
<circle cx="59000" cy="29000" r="160" /> 
</g>
<g style="fill:#00A000; fill-opacity:1.0; 
stroke:#00A000; stroke-width:0; stroke-opacity:1; 
stroke-linecap:round; stroke-linejoin:round;">
</g>
<g style="fill:#00A000; fill-opacity:1.0; 
stroke:#00A000; stroke-width:100; stroke-opacity:1; 
stroke-linecap:round; stroke-linejoin:round;">
<circle cx="67000" cy="37000" r="160" /> 
</g>
<g style="fill:#00A000; fill-opacity:1.0; 
stroke:#00A000; stroke-width:60; stroke-opacity:1; 
stroke-linecap:round; stroke-linejoin:round;">
<path d="M65000 54500
L67000 54500
" />
</g>
<g style="fill:#00A000; fill-opacity:1.0; 
stroke:#00A000; stroke-width:0; stroke-opacity:1; 
stroke-linecap:round; stroke-linejoin:round;">
</g>
<g style="fill:#00A000; fill-opacity:1.0; 
stroke:#00A000; stroke-width:100; stroke-opacity:1; 
stroke-linecap:round; stroke-linejoin:round;">
<circle cx="65000" cy="50500" r="160" /> 
</g>
<g style="fill:#00A000; fill-opacity:1.0; 
stroke:#00A000; stroke-width:60; stroke-opacity:1; 
stroke-linecap:round; stroke-linejoin:round;">
<path d="M66000 49000
L66000 50000
" />
<path d="M66000 50000
L70500 50000
" />
</g>
<g style="fill:#00A000; fill-opacity:1.0; 
stroke:#00A000; stroke-width:0; stroke-opacity:1; 
stroke-linecap:round; stroke-linejoin:round;">
</g>
<g style="fill:#00A000; fill-opacity:1.0; 
stroke:#00A000; stroke-width:100; stroke-opacity:1; 
stroke-linecap:round; stroke-linejoin:round;">
<circle cx="59000" cy="49000" r="160" /> 
</g>
<g style="fill:#00A000; fill-opacity:1.0; 
stroke:#00A000; stroke-width:60; stroke-opacity:1; 
stroke-linecap:round; stroke-linejoin:round;">
<path d="M67000 50000
L67000 50500
" />
</g>
<g style="fill:#00A000; fill-opacity:1.0; 
stroke:#00A000; stroke-width:0; stroke-opacity:1; 
stroke-linecap:round; stroke-linejoin:round;">
</g>
<g style="fill:#00A000; fill-opacity:1.0; 
stroke:#00A000; stroke-width:100; stroke-opacity:1; 
stroke-linecap:round; stroke-linejoin:round;">
<circle cx="67000" cy="50000" r="160" /> 
</g>
<g style="fill:#00A000; fill-opacity:1.0; 
stroke:#00A000; stroke-width:60; stroke-opacity:1; 
stroke-linecap:round; stroke-linejoin:round;">
<path d="M70500 50000
L70500 50500
" />
<path d="M64500 46000
L67000 46000
" />
</g>
<g style="fill:#00A000; fill-opacity:1.0; 
stroke:#00A000; stroke-width:0; stroke-opacity:1; 
stroke-linecap:round; stroke-linejoin:round;">
</g>
<g style="fill:#00A000; fill-opacity:1.0; 
stroke:#00A000; stroke-width:100; stroke-opacity:1; 
stroke-linecap:round; stroke-linejoin:round;">
<circle cx="64500" cy="46000" r="160" /> 
</g>
<g style="fill:#00A000; fill-opacity:1.0; 
stroke:#00A000; stroke-width:60; stroke-opacity:1; 
stroke-linecap:round; stroke-linejoin:round;">
<path d="M70500 38000
L70500 46000
" />
</g>
<g style="fill:#00A000; fill-opacity:1.0; 
stroke:#00A000; stroke-width:0; stroke-opacity:1; 
stroke-linecap:round; stroke-linejoin:round;">
</g>
<g style="fill:#00A000; fill-opacity:1.0; 
stroke:#00A000; stroke-width:100; stroke-opacity:1; 
stroke-linecap:round; stroke-linejoin:round;">
<circle cx="70500" cy="38000" r="160" /> 
</g>
<g style="fill:#00A000; fill-opacity:1.0; 
stroke:#00A000; stroke-width:60; stroke-opacity:1; 
stroke-linecap:round; stroke-linejoin:round;">
<path d="M72000 39000
L72000 54500
" />
<path d="M72000 54500
L70500 54500
" />
</g>
<g style="fill:#00A000; fill-opacity:1.0; 
stroke:#00A000; stroke-width:0; stroke-opacity:1; 
stroke-linecap:round; stroke-linejoin:round;">
</g>
<g style="fill:#00A000; fill-opacity:1.0; 
stroke:#00A000; stroke-width:100; stroke-opacity:1; 
stroke-linecap:round; stroke-linejoin:round;">
<circle cx="72000" cy="39000" r="160" /> 
</g>
<g style="fill:#00A000; fill-opacity:1.0; 
stroke:#00A000; stroke-width:60; stroke-opacity:1; 
stroke-linecap:round; stroke-linejoin:round;">
<path d="M63500 25000
L63500 36000
" />
<path d="M67000 29000
L67000 30000
" />
<path d="M63500 25000
L67000 25000
" />
<path d="M67000 34000
L67000 37000
" />
</g>
<g style="fill:#00A000; fill-opacity:1.0; 
stroke:#00A000; stroke-width:0; stroke-opacity:1; 
stroke-linecap:round; stroke-linejoin:round;">
</g>
<g style="fill:#A00000; fill-opacity:0.0; 
stroke:#A00000; stroke-width:60; stroke-opacity:1; 
stroke-linecap:round; stroke-linejoin:round;">
<rect x="79000" y="36500" width="2000" height="5000" rx="0" />
<circle cx="81350" cy="41000" r="350" /> 
<path d="M81700 41000
L84000 41000
" />
</g>
<g style="fill:#00A0A0; fill-opacity:0.0; 
stroke:#00A0A0; stroke-width:60; stroke-opacity:1; 
stroke-linecap:round; stroke-linejoin:round;">
</g>
<g style="fill:#A00000; fill-opacity:0.0; 
stroke:#A00000; stroke-width:60; stroke-opacity:1; 
stroke-linecap:round; stroke-linejoin:round;">
<path d="M82680 40840
L82330 40840
" />
<path d="M82510 40840
L82510 40240
L82450 40330
L82390 40390
L82330 40410
" />
<circle cx="78650" cy="41000" r="350" /> 
<path d="M78300 41000
L76000 41000
" />
</g>
<g style="fill:#00A0A0; fill-opacity:0.0; 
stroke:#00A0A0; stroke-width:60; stroke-opacity:1; 
stroke-linecap:round; stroke-linejoin:round;">
</g>
<g style="fill:#A00000; fill-opacity:0.0; 
stroke:#A00000; stroke-width:60; stroke-opacity:1; 
stroke-linecap:round; stroke-linejoin:round;">
<path d="M77330 40300
L77360 40270
L77420 40240
L77560 40240
L77620 40270
L77650 40300
L77680 40360
L77680 40410
L77650 40500
L77310 40840
L77680 40840
" />
<circle cx="81350" cy="40000" r="350" /> 
<path d="M81700 40000
L84000 40000
" />
</g>
<g style="fill:#00A0A0; fill-opacity:0.0; 
stroke:#00A0A0; stroke-width:60; stroke-opacity:1; 
stroke-linecap:round; stroke-linejoin:round;">
</g>
<g style="fill:#A00000; fill-opacity:0.0; 
stroke:#A00000; stroke-width:60; stroke-opacity:1; 
stroke-linecap:round; stroke-linejoin:round;">
<path d="M82310 39240
L82680 39240
L82480 39470
L82560 39470
L82620 39500
L82650 39530
L82680 39590
L82680 39730
L82650 39790
L82620 39810
L82560 39840
L82390 39840
L82330 39810
L82310 39790
" />
<circle cx="78650" cy="40000" r="350" /> 
<path d="M78300 40000
L76000 40000
" />
</g>
<g style="fill:#00A0A0; fill-opacity:0.0; 
stroke:#00A0A0; stroke-width:60; stroke-opacity:1; 
stroke-linecap:round; stroke-linejoin:round;">
</g>
<g style="fill:#A00000; fill-opacity:0.0; 
stroke:#A00000; stroke-width:60; stroke-opacity:1; 
stroke-linecap:round; stroke-linejoin:round;">
<path d="M77620 39440
L77620 39840
" />
<path d="M77480 39210
L77330 39640
L77710 39640
" />
<circle cx="81350" cy="39000" r="350" /> 
<path d="M81700 39000
L84000 39000
" />
</g>
<g style="fill:#00A0A0; fill-opacity:0.0; 
stroke:#00A0A0; stroke-width:60; stroke-opacity:1; 
stroke-linecap:round; stroke-linejoin:round;">
</g>
<g style="fill:#A00000; fill-opacity:0.0; 
stroke:#A00000; stroke-width:60; stroke-opacity:1; 
stroke-linecap:round; stroke-linejoin:round;">
<path d="M82650 38240
L82360 38240
L82330 38530
L82360 38500
L82420 38470
L82560 38470
L82620 38500
L82650 38530
L82680 38590
L82680 38730
L82650 38790
L82620 38810
L82560 38840
L82420 38840
L82360 38810
L82330 38790
" />
<circle cx="78650" cy="39000" r="350" /> 
<path d="M78300 39000
L76000 39000
" />
</g>
<g style="fill:#00A0A0; fill-opacity:0.0; 
stroke:#00A0A0; stroke-width:60; stroke-opacity:1; 
stroke-linecap:round; stroke-linejoin:round;">
</g>
<g style="fill:#A00000; fill-opacity:0.0; 
stroke:#A00000; stroke-width:60; stroke-opacity:1; 
stroke-linecap:round; stroke-linejoin:round;">
<path d="M77620 38240
L77510 38240
L77450 38270
L77420 38300
L77360 38390
L77330 38500
L77330 38730
L77360 38790
L77390 38810
L77450 38840
L77560 38840
L77620 38810
L77650 38790
L77680 38730
L77680 38590
L77650 38530
L77620 38500
L77560 38470
L77450 38470
L77390 38500
L77360 38530
L77330 38590
" />
<circle cx="81350" cy="38000" r="350" /> 
<path d="M81700 38000
L84000 38000
" />
</g>
<g style="fill:#00A0A0; fill-opacity:0.0; 
stroke:#00A0A0; stroke-width:60; stroke-opacity:1; 
stroke-linecap:round; stroke-linejoin:round;">
</g>
<g style="fill:#A00000; fill-opacity:0.0; 
stroke:#A00000; stroke-width:60; stroke-opacity:1; 
stroke-linecap:round; stroke-linejoin:round;">
<path d="M82310 37240
L82710 37240
L82450 37840
" />
<circle cx="78650" cy="38000" r="350" /> 
<path d="M78300 38000
L76000 38000
" />
</g>
<g style="fill:#00A0A0; fill-opacity:0.0; 
stroke:#00A0A0; stroke-width:60; stroke-opacity:1; 
stroke-linecap:round; stroke-linejoin:round;">
</g>
<g style="fill:#A00000; fill-opacity:0.0; 
stroke:#A00000; stroke-width:60; stroke-opacity:1; 
stroke-linecap:round; stroke-linejoin:round;">
<path d="M77450 37500
L77390 37470
L77360 37440
L77330 37390
L77330 37360
L77360 37300
L77390 37270
L77450 37240
L77560 37240
L77620 37270
L77650 37300
L77680 37360
L77680 37390
L77650 37440
L77620 37470
L77560 37500
L77450 37500
L77390 37530
L77360 37560
L77330 37610
L77330 37730
L77360 37790
L77390 37810
L77450 37840
L77560 37840
L77620 37810
L77650 37790
L77680 37730
L77680 37610
L77650 37560
L77620 37530
L77560 37500
" />
<circle cx="81350" cy="37000" r="350" /> 
<path d="M81700 37000
L84000 37000
" />
</g>
<g style="fill:#00A0A0; fill-opacity:0.0; 
stroke:#00A0A0; stroke-width:60; stroke-opacity:1; 
stroke-linecap:round; stroke-linejoin:round;">
</g>
<g style="fill:#A00000; fill-opacity:0.0; 
stroke:#A00000; stroke-width:60; stroke-opacity:1; 
stroke-linecap:round; stroke-linejoin:round;">
<path d="M82390 36840
L82510 36840
L82560 36810
L82590 36790
L82650 36700
L82680 36590
L82680 36360
L82650 36300
L82620 36270
L82560 36240
L82450 36240
L82390 36270
L82360 36300
L82330 36360
L82330 36500
L82360 36560
L82390 36590
L82450 36610
L82560 36610
L82620 36590
L82650 36560
L82680 36500
" />
<circle cx="78650" cy="37000" r="350" /> 
<path d="M78300 37000
L76000 37000
" />
</g>
<g style="fill:#00A0A0; fill-opacity:0.0; 
stroke:#00A0A0; stroke-width:60; stroke-opacity:1; 
stroke-linecap:round; stroke-linejoin:round;">
</g>
<g style="fill:#A00000; fill-opacity:0.0; 
stroke:#A00000; stroke-width:60; stroke-opacity:1; 
stroke-linecap:round; stroke-linejoin:round;">
<path d="M77390 36840
L77040 36840
" />
<path d="M77220 36840
L77220 36240
L77160 36330
L77100 36390
L77040 36410
" />
<path d="M77760 36240
L77810 36240
L77870 36270
L77900 36300
L77930 36360
L77960 36470
L77960 36610
L77930 36730
L77900 36790
L77870 36810
L77810 36840
L77760 36840
L77700 36810
L77670 36790
L77640 36730
L77610 36610
L77610 36470
L77640 36360
L77670 36300
L77700 36270
L77760 36240
" />
</g>
<g style="fill:#00A0A0; fill-opacity:0.0; 
stroke:#00A0A0; stroke-width:60; stroke-opacity:1; 
stroke-linecap:round; stroke-linejoin:round;">
<path d="M79550 42270
L79550 41670
L79780 41670
L79840 41700
L79870 41730
L79900 41790
L79900 41870
L79870 41930
L79840 41960
L79780 41990
L79550 41990
" />
<path d="M80120 41730
L80150 41700
L80210 41670
L80350 41670
L80410 41700
L80440 41730
L80470 41790
L80470 41840
L80440 41930
L80100 42270
L80470 42270
" />
<path d="M80180 40540
L80210 40560
L80230 40630
L80230 40680
L80210 40750
L80160 40800
L80110 40820
L80020 40840
L79950 40840
L79850 40820
L79800 40800
L79760 40750
L79730 40680
L79730 40630
L79760 40560
L79780 40540
" />
<path d="M79730 40230
L79730 40130
L79760 40080
L79800 40040
L79900 40010
L80070 40010
L80160 40040
L80210 40080
L80230 40130
L80230 40230
L80210 40270
L80160 40320
L80070 40340
L79900 40340
L79800 40320
L79760 40270
L79730 40230
" />
<path d="M80230 39800
L79730 39800
L80230 39520
L79730 39520
" />
<path d="M80230 39280
L79730 39280
L80230 39000
L79730 39000
" />
<path d="M80280 38880
L80280 38500
" />
<path d="M79730 38140
L79730 38380
L79970 38400
L79950 38380
L79920 38330
L79920 38210
L79950 38170
L79970 38140
L80020 38120
L80140 38120
L80180 38140
L80210 38170
L80230 38210
L80230 38330
L80210 38380
L80180 38400
" />
<path d="M79730 37950
L80230 37620
" />
<path d="M79730 37620
L80230 37950
" />
<path d="M79780 37440
L79760 37420
L79730 37370
L79730 37250
L79760 37210
L79780 37180
L79830 37160
L79880 37160
L79950 37180
L80230 37470
L80230 37160
" />
</g>
<g style="fill:#00A000; fill-opacity:0.0; 
stroke:#00A000; stroke-width:60; stroke-opacity:1; 
stroke-linecap:round; stroke-linejoin:round;">
<path d="M57000 42000
L84000 42000
" />
<path d="M84000 42000
L84000 41000
" />
<path d="M84000 36000
L84000 37000
" />
</g> 
</svg>
