G04 (created by PCBNEW (2013-may-18)-stable) date 2014年01月29日 星期三 11时55分50秒*
%MOIN*%
G04 Gerber Fmt 3.4, Leading zero omitted, Abs format*
%FSLAX34Y34*%
G01*
G70*
G90*
G04 APERTURE LIST*
%ADD10C,0.00590551*%
%ADD11C,0.0593*%
%ADD12R,0.0275591X0.0314961*%
%ADD13R,0.0314961X0.0275591*%
%ADD14R,0.0433071X0.0787402*%
%ADD15R,0.0787402X0.0433071*%
%ADD16R,0.09X0.02*%
%ADD17R,0.02X0.09*%
%ADD18C,0.0944882*%
%ADD19R,0.028X0.02*%
%ADD20R,0.02X0.028*%
%ADD21R,0.025X0.05*%
%ADD22R,0.05X0.025*%
%ADD23C,0.035*%
%ADD24C,0.01*%
G04 APERTURE END LIST*
G54D10*
G54D11*
X45350Y-43250D03*
X44350Y-43250D03*
X45350Y-42250D03*
X44350Y-42250D03*
X45350Y-41250D03*
X44350Y-41250D03*
X45350Y-40250D03*
X44350Y-40250D03*
X45350Y-39250D03*
X44350Y-39250D03*
G54D12*
X61294Y-39950D03*
X61805Y-39950D03*
G54D13*
X66250Y-40494D03*
X66250Y-41005D03*
G54D12*
X61794Y-43650D03*
X62305Y-43650D03*
G54D14*
X63179Y-43850D03*
X64320Y-43850D03*
G54D15*
X63550Y-40620D03*
X63550Y-39479D03*
G54D16*
X64150Y-38850D03*
X66000Y-39850D03*
X66000Y-37850D03*
G54D17*
X67750Y-46750D03*
X68750Y-44900D03*
X66750Y-44900D03*
G54D18*
X70950Y-46550D03*
X69950Y-47550D03*
X69950Y-45550D03*
X71950Y-45550D03*
X71950Y-47550D03*
X71050Y-40650D03*
X70050Y-41650D03*
X70050Y-39650D03*
X72050Y-39650D03*
X72050Y-41650D03*
X64250Y-46550D03*
X63250Y-47550D03*
X63250Y-45550D03*
X65250Y-45550D03*
X65250Y-47550D03*
X71050Y-35750D03*
X70050Y-36750D03*
X70050Y-34750D03*
X72050Y-34750D03*
X72050Y-36750D03*
X65550Y-35750D03*
X64550Y-36750D03*
X64550Y-34750D03*
X66550Y-34750D03*
X66550Y-36750D03*
G54D19*
X70910Y-44340D03*
X70910Y-43950D03*
X70910Y-43560D03*
X69990Y-43560D03*
X69990Y-43950D03*
X69990Y-44340D03*
G54D20*
X67260Y-40910D03*
X67650Y-40910D03*
X68040Y-40910D03*
X68040Y-39990D03*
X67650Y-39990D03*
X67260Y-39990D03*
G54D19*
X62310Y-39240D03*
X62310Y-38850D03*
X62310Y-38460D03*
X61390Y-38460D03*
X61390Y-38850D03*
X61390Y-39240D03*
G54D21*
X62800Y-40650D03*
X62300Y-40650D03*
X61800Y-40650D03*
X61300Y-40650D03*
X61300Y-42850D03*
X61800Y-42850D03*
X62300Y-42850D03*
X62800Y-42850D03*
X65200Y-43850D03*
X65700Y-43850D03*
X66200Y-43850D03*
X66700Y-43850D03*
X66700Y-41650D03*
X66200Y-41650D03*
X65700Y-41650D03*
X65200Y-41650D03*
G54D22*
X54050Y-41000D03*
X54050Y-40500D03*
X54050Y-40000D03*
X54050Y-39500D03*
X51850Y-39500D03*
X51850Y-40000D03*
X51850Y-40500D03*
X51850Y-41000D03*
G54D12*
X55494Y-40050D03*
X56005Y-40050D03*
G54D13*
X54750Y-40005D03*
X54750Y-39494D03*
X51050Y-40505D03*
X51050Y-39994D03*
G54D12*
X50305Y-40450D03*
X49794Y-40450D03*
G54D14*
X69020Y-41750D03*
X67879Y-41750D03*
X53420Y-38650D03*
X52279Y-38650D03*
G54D15*
X58750Y-37879D03*
X58750Y-39020D03*
G54D14*
X48979Y-36850D03*
X50120Y-36850D03*
X65620Y-40750D03*
X64479Y-40750D03*
X67620Y-39150D03*
X66479Y-39150D03*
G54D15*
X60400Y-38820D03*
X60400Y-37679D03*
X69150Y-43920D03*
X69150Y-42779D03*
X67550Y-42879D03*
X67550Y-44020D03*
G54D14*
X51879Y-41850D03*
X53020Y-41850D03*
G54D15*
X63150Y-37029D03*
X63150Y-38170D03*
X72050Y-43179D03*
X72050Y-44320D03*
X60450Y-41679D03*
X60450Y-42820D03*
X48050Y-40379D03*
X48050Y-41520D03*
X58850Y-43420D03*
X58850Y-42279D03*
X63550Y-42820D03*
X63550Y-41679D03*
X54250Y-41779D03*
X54250Y-42920D03*
G54D14*
X49079Y-41350D03*
X50220Y-41350D03*
G54D15*
X55750Y-40679D03*
X55750Y-41820D03*
G54D16*
X56850Y-40650D03*
X58700Y-41650D03*
X58700Y-39650D03*
G54D17*
X49250Y-40050D03*
X50250Y-38200D03*
X48250Y-38200D03*
G54D18*
X55750Y-35750D03*
X54750Y-36750D03*
X54750Y-34750D03*
X56750Y-34750D03*
X56750Y-36750D03*
X51850Y-46550D03*
X50850Y-47550D03*
X50850Y-45550D03*
X52850Y-45550D03*
X52850Y-47550D03*
X57750Y-46550D03*
X56750Y-47550D03*
X56750Y-45550D03*
X58750Y-45550D03*
X58750Y-47550D03*
G54D23*
X62100Y-42050D03*
X58150Y-42850D03*
X62150Y-37350D03*
X61150Y-36350D03*
X70050Y-42900D03*
X67150Y-43450D03*
X63950Y-38300D03*
X58700Y-40450D03*
X60700Y-43600D03*
X62204Y-45275D03*
X61417Y-46062D03*
X60629Y-34645D03*
X59448Y-35826D03*
X55050Y-43600D03*
X56025Y-42625D03*
X66275Y-44375D03*
G54D24*
X65700Y-42150D02*
X63194Y-42150D01*
X59750Y-39470D02*
X60400Y-38820D01*
X59750Y-41900D02*
X59750Y-39470D01*
X59900Y-42050D02*
X59750Y-41900D01*
X61000Y-42050D02*
X59900Y-42050D01*
X61472Y-41577D02*
X61000Y-42050D01*
X62622Y-41577D02*
X61472Y-41577D01*
X63194Y-42150D02*
X62622Y-41577D01*
X67850Y-40280D02*
X67419Y-40280D01*
X65700Y-42150D02*
X65700Y-41650D01*
X66850Y-42150D02*
X65700Y-42150D01*
X67000Y-42000D02*
X66850Y-42150D01*
X67000Y-40700D02*
X67000Y-42000D01*
X67419Y-40280D02*
X67000Y-40700D01*
X65700Y-40829D02*
X65620Y-40750D01*
X65700Y-41650D02*
X65700Y-40829D01*
X67650Y-39179D02*
X67620Y-39150D01*
X67650Y-39990D02*
X67650Y-39179D01*
X61390Y-38850D02*
X61390Y-38850D01*
X67650Y-39990D02*
X67650Y-39990D01*
X69990Y-43949D02*
X69990Y-43950D01*
X69961Y-43920D02*
X69990Y-43949D01*
X69150Y-43920D02*
X69961Y-43920D01*
X69990Y-43949D02*
X69990Y-43949D01*
X69990Y-43949D02*
X69990Y-43950D01*
X47550Y-43250D02*
X45350Y-43250D01*
X51481Y-47181D02*
X47550Y-43250D01*
X52218Y-47181D02*
X51481Y-47181D01*
X52491Y-46908D02*
X52218Y-47181D01*
X57108Y-46908D02*
X52491Y-46908D01*
X57381Y-47181D02*
X57108Y-46908D01*
X58000Y-47181D02*
X57381Y-47181D01*
X58381Y-46800D02*
X58000Y-47181D01*
X58381Y-46181D02*
X58381Y-46800D01*
X58118Y-45918D02*
X58381Y-46181D01*
X58118Y-45300D02*
X58118Y-45918D01*
X58508Y-44911D02*
X58118Y-45300D01*
X59488Y-44911D02*
X58508Y-44911D01*
X61458Y-46880D02*
X59488Y-44911D01*
X63580Y-46880D02*
X61458Y-46880D01*
X63891Y-47191D02*
X63580Y-46880D01*
X64708Y-47191D02*
X63891Y-47191D01*
X64979Y-46920D02*
X64708Y-47191D01*
X65819Y-46920D02*
X64979Y-46920D01*
X66848Y-47950D02*
X65819Y-46920D01*
X68651Y-47950D02*
X66848Y-47950D01*
X69794Y-46806D02*
X68651Y-47950D01*
X70325Y-46806D02*
X69794Y-46806D01*
X70074Y-43949D02*
X69990Y-43949D01*
X70572Y-44448D02*
X70074Y-43949D01*
X70572Y-45927D02*
X70572Y-44448D01*
X70325Y-46174D02*
X70572Y-45927D01*
X70325Y-46806D02*
X70325Y-46174D01*
X67650Y-40280D02*
X67650Y-39990D01*
X70427Y-40280D02*
X67850Y-40280D01*
X67850Y-40280D02*
X67650Y-40280D01*
X70687Y-40020D02*
X70427Y-40280D01*
X71301Y-40020D02*
X70687Y-40020D01*
X72801Y-41520D02*
X71301Y-40020D01*
X72801Y-45581D02*
X72801Y-41520D01*
X71202Y-47181D02*
X72801Y-45581D01*
X70699Y-47181D02*
X71202Y-47181D01*
X70325Y-46806D02*
X70699Y-47181D01*
X61390Y-38850D02*
X60598Y-38850D01*
X60598Y-38850D02*
X60429Y-38850D01*
X60429Y-38850D02*
X60400Y-38820D01*
X58250Y-42850D02*
X58150Y-42850D01*
X62800Y-42750D02*
X62800Y-42850D01*
X62100Y-42050D02*
X62800Y-42750D01*
X58850Y-43420D02*
X58770Y-43420D01*
X58250Y-41650D02*
X58700Y-41650D01*
X58250Y-42900D02*
X58250Y-42850D01*
X58250Y-42850D02*
X58250Y-41650D01*
X58770Y-43420D02*
X58250Y-42900D01*
X47984Y-39250D02*
X48050Y-39184D01*
X45350Y-39250D02*
X47984Y-39250D01*
X48050Y-40379D02*
X48050Y-39184D01*
X48050Y-38400D02*
X48250Y-38200D01*
X48050Y-39184D02*
X48050Y-38400D01*
X63520Y-42850D02*
X63550Y-42820D01*
X62800Y-42850D02*
X63520Y-42850D01*
X48141Y-40745D02*
X48050Y-40745D01*
X48638Y-41242D02*
X48141Y-40745D01*
X48638Y-41740D02*
X48638Y-41242D01*
X48792Y-41893D02*
X48638Y-41740D01*
X49366Y-41893D02*
X48792Y-41893D01*
X49494Y-41765D02*
X49366Y-41893D01*
X49494Y-41244D02*
X49494Y-41765D01*
X49932Y-40806D02*
X49494Y-41244D01*
X51256Y-40806D02*
X49932Y-40806D01*
X51449Y-41000D02*
X51256Y-40806D01*
X51850Y-41000D02*
X51449Y-41000D01*
X48050Y-40379D02*
X48050Y-40745D01*
X58700Y-41650D02*
X58245Y-41650D01*
X51879Y-41850D02*
X51879Y-41491D01*
X51879Y-41029D02*
X51850Y-41000D01*
X51879Y-41491D02*
X51879Y-41029D01*
X51956Y-41491D02*
X51879Y-41491D01*
X53004Y-40443D02*
X51956Y-41491D01*
X53004Y-38234D02*
X53004Y-40443D01*
X53133Y-38106D02*
X53004Y-38234D01*
X54050Y-38106D02*
X53133Y-38106D01*
X54947Y-39003D02*
X54050Y-38106D01*
X56249Y-39003D02*
X54947Y-39003D01*
X58245Y-40999D02*
X56249Y-39003D01*
X58245Y-41650D02*
X58245Y-40999D01*
X44350Y-43250D02*
X44250Y-43250D01*
X62970Y-38170D02*
X63150Y-38170D01*
X62150Y-37350D02*
X62970Y-38170D01*
X58750Y-33950D02*
X61150Y-36350D01*
X53000Y-33950D02*
X58750Y-33950D01*
X50900Y-36050D02*
X53000Y-33950D01*
X46550Y-36050D02*
X50900Y-36050D01*
X43650Y-38950D02*
X46550Y-36050D01*
X43650Y-42650D02*
X43650Y-38950D01*
X44250Y-43250D02*
X43650Y-42650D01*
X70600Y-43500D02*
X70619Y-43500D01*
X70619Y-43480D02*
X70600Y-43500D01*
X70619Y-43469D02*
X70619Y-43480D01*
X70050Y-42900D02*
X70619Y-43469D01*
X70619Y-43500D02*
X70619Y-43735D01*
X67550Y-43850D02*
X67550Y-44020D01*
X67150Y-43450D02*
X67550Y-43850D01*
X63820Y-38170D02*
X63950Y-38300D01*
X63150Y-38170D02*
X63820Y-38170D01*
X70909Y-43950D02*
X70910Y-43950D01*
X70619Y-43735D02*
X70834Y-43950D01*
X70834Y-43950D02*
X70909Y-43950D01*
X71679Y-43950D02*
X72050Y-44320D01*
X70910Y-43950D02*
X71679Y-43950D01*
X67650Y-41520D02*
X67879Y-41750D01*
X67650Y-40910D02*
X67650Y-41520D01*
X62470Y-38850D02*
X63150Y-38170D01*
X62310Y-38850D02*
X62470Y-38850D01*
X62309Y-38850D02*
X62310Y-38850D01*
X66870Y-44020D02*
X66785Y-43935D01*
X66785Y-43935D02*
X66700Y-43850D01*
X67550Y-44020D02*
X66870Y-44020D01*
X67650Y-40909D02*
X67650Y-40910D01*
X68489Y-40789D02*
X70080Y-40789D01*
X70080Y-40789D02*
X70687Y-41395D01*
X70687Y-41395D02*
X70687Y-42205D01*
X70687Y-42205D02*
X70619Y-42272D01*
X70619Y-42272D02*
X70619Y-43500D01*
X68489Y-40789D02*
X68319Y-40619D01*
X68319Y-40619D02*
X67867Y-40619D01*
X67867Y-40619D02*
X67650Y-40837D01*
X67650Y-40837D02*
X67650Y-40909D01*
X60450Y-42820D02*
X60450Y-43350D01*
X58700Y-40450D02*
X58700Y-39650D01*
X60450Y-43350D02*
X60700Y-43600D01*
X50120Y-38070D02*
X50250Y-38200D01*
X50120Y-36850D02*
X50120Y-38070D01*
X51850Y-39079D02*
X52279Y-38650D01*
X51850Y-39500D02*
X51850Y-39079D01*
X52279Y-38650D02*
X52645Y-38650D01*
X58750Y-39020D02*
X58750Y-38654D01*
X58700Y-39650D02*
X58943Y-39650D01*
X58750Y-39020D02*
X58750Y-39387D01*
X58943Y-39650D02*
X58943Y-39581D01*
X58943Y-39581D02*
X58750Y-39387D01*
X60450Y-42820D02*
X60860Y-42820D01*
X61270Y-42820D02*
X61300Y-42850D01*
X60860Y-42820D02*
X61270Y-42820D01*
X49754Y-36758D02*
X49754Y-36850D01*
X49302Y-36306D02*
X49754Y-36758D01*
X46659Y-36306D02*
X49302Y-36306D01*
X43900Y-39064D02*
X46659Y-36306D01*
X43900Y-39450D02*
X43900Y-39064D01*
X44181Y-39731D02*
X43900Y-39450D01*
X44831Y-39731D02*
X44181Y-39731D01*
X45350Y-40250D02*
X44831Y-39731D01*
X50120Y-36850D02*
X49754Y-36850D01*
X50120Y-36850D02*
X50487Y-36850D01*
X52645Y-38273D02*
X52645Y-38650D01*
X53030Y-37888D02*
X52645Y-38273D01*
X54125Y-37888D02*
X53030Y-37888D01*
X51947Y-35389D02*
X50487Y-36850D01*
X55110Y-35389D02*
X51947Y-35389D01*
X55374Y-35125D02*
X55110Y-35389D01*
X56005Y-35125D02*
X55374Y-35125D01*
X56374Y-35494D02*
X56005Y-35125D01*
X56374Y-36005D02*
X56374Y-35494D01*
X55999Y-36381D02*
X56374Y-36005D01*
X55381Y-36381D02*
X55999Y-36381D01*
X55118Y-36118D02*
X55381Y-36381D01*
X54485Y-36118D02*
X55118Y-36118D01*
X54125Y-36478D02*
X54485Y-36118D01*
X54125Y-37888D02*
X54125Y-36478D01*
X54891Y-38654D02*
X54125Y-37888D01*
X58750Y-38654D02*
X54891Y-38654D01*
X56025Y-42625D02*
X56025Y-42639D01*
X62479Y-45550D02*
X63250Y-45550D01*
X62204Y-45275D02*
X62479Y-45550D01*
X59842Y-44488D02*
X61417Y-46062D01*
X57874Y-44488D02*
X59842Y-44488D01*
X56025Y-42639D02*
X57874Y-44488D01*
X56750Y-36750D02*
X58525Y-36750D01*
X60734Y-34750D02*
X64550Y-34750D01*
X60629Y-34645D02*
X60734Y-34750D01*
X58525Y-36750D02*
X59448Y-35826D01*
X54750Y-39494D02*
X56456Y-39494D01*
X57700Y-40950D02*
X56025Y-42625D01*
X57700Y-40737D02*
X57700Y-40950D01*
X56456Y-39494D02*
X57700Y-40737D01*
X55750Y-41820D02*
X55750Y-42350D01*
X54250Y-43300D02*
X54250Y-42920D01*
X54550Y-43600D02*
X54250Y-43300D01*
X55050Y-43600D02*
X54550Y-43600D01*
X55750Y-42350D02*
X56025Y-42625D01*
X66200Y-44300D02*
X66275Y-44375D01*
X66200Y-43850D02*
X66200Y-44300D01*
X58850Y-42279D02*
X58850Y-41912D01*
X58750Y-37879D02*
X58750Y-38245D01*
X58750Y-38245D02*
X58841Y-38245D01*
X58841Y-38245D02*
X59300Y-38704D01*
X59300Y-38704D02*
X59300Y-41828D01*
X59300Y-41828D02*
X59216Y-41912D01*
X59216Y-41912D02*
X58850Y-41912D01*
X67550Y-42879D02*
X67006Y-42879D01*
X61390Y-38460D02*
X61535Y-38460D01*
X60943Y-37868D02*
X60943Y-37679D01*
X61535Y-38460D02*
X60943Y-37868D01*
X60400Y-37679D02*
X60943Y-37679D01*
X68040Y-39990D02*
X68290Y-39990D01*
X66000Y-37850D02*
X66300Y-37850D01*
X66479Y-39150D02*
X66479Y-38606D01*
X69139Y-42412D02*
X69020Y-42293D01*
X69150Y-42412D02*
X69139Y-42412D01*
X69020Y-41750D02*
X69020Y-42293D01*
X69150Y-42779D02*
X69150Y-42412D01*
X64288Y-39479D02*
X63550Y-39479D01*
X64750Y-39017D02*
X64288Y-39479D01*
X64750Y-37508D02*
X64750Y-39017D01*
X64270Y-37029D02*
X64750Y-37508D01*
X64550Y-36750D02*
X64270Y-37029D01*
X66200Y-43484D02*
X66200Y-43850D01*
X66805Y-42879D02*
X66200Y-43484D01*
X67006Y-42879D02*
X66805Y-42879D01*
X69487Y-41650D02*
X69387Y-41750D01*
X70050Y-41650D02*
X69487Y-41650D01*
X69020Y-41750D02*
X69387Y-41750D01*
X69314Y-43309D02*
X69150Y-43145D01*
X69990Y-43309D02*
X69314Y-43309D01*
X68630Y-39650D02*
X70050Y-39650D01*
X68290Y-39990D02*
X68630Y-39650D01*
X61297Y-39952D02*
X61294Y-39950D01*
X61297Y-39583D02*
X61390Y-39490D01*
X61297Y-39952D02*
X61297Y-39583D01*
X61390Y-39240D02*
X61390Y-39365D01*
X61390Y-39365D02*
X61390Y-39490D01*
X61680Y-38605D02*
X61535Y-38460D01*
X61680Y-39074D02*
X61680Y-38605D01*
X61390Y-39365D02*
X61680Y-39074D01*
X66300Y-38427D02*
X66300Y-37850D01*
X66479Y-38606D02*
X66300Y-38427D01*
X69990Y-43560D02*
X69990Y-43309D01*
X69150Y-42779D02*
X69150Y-43145D01*
X72050Y-41650D02*
X72050Y-43179D01*
X72598Y-44901D02*
X71950Y-45550D01*
X72598Y-44014D02*
X72598Y-44901D01*
X72130Y-43545D02*
X72598Y-44014D01*
X72050Y-43545D02*
X72130Y-43545D01*
X72050Y-43179D02*
X72050Y-43545D01*
X66300Y-36999D02*
X66550Y-36750D01*
X66300Y-37850D02*
X66300Y-36999D01*
X61300Y-39955D02*
X61297Y-39952D01*
X61300Y-40650D02*
X61300Y-39955D01*
X61300Y-40650D02*
X61300Y-41050D01*
X60450Y-41679D02*
X60993Y-41679D01*
X63550Y-41679D02*
X63006Y-41679D01*
X61300Y-41375D02*
X61300Y-41050D01*
X61297Y-41375D02*
X61300Y-41375D01*
X60993Y-41679D02*
X61297Y-41375D01*
X62702Y-41375D02*
X63006Y-41679D01*
X61300Y-41375D02*
X62702Y-41375D01*
X63687Y-41312D02*
X63550Y-41312D01*
X64112Y-40887D02*
X63687Y-41312D01*
X64112Y-40750D02*
X64112Y-40887D01*
X63550Y-41679D02*
X63550Y-41312D01*
X64295Y-40750D02*
X64112Y-40750D01*
X64295Y-40750D02*
X64479Y-40750D01*
X65535Y-39150D02*
X66479Y-39150D01*
X64479Y-40206D02*
X65535Y-39150D01*
X64479Y-40750D02*
X64479Y-40206D01*
X64270Y-37029D02*
X63150Y-37029D01*
X70909Y-40790D02*
X71050Y-40650D01*
X70909Y-43559D02*
X70909Y-40790D01*
X70909Y-43559D02*
X70910Y-43560D01*
X54600Y-40500D02*
X54050Y-40500D01*
X54950Y-40850D02*
X54600Y-40500D01*
X54950Y-42350D02*
X54950Y-40850D01*
X57750Y-45150D02*
X54950Y-42350D01*
X57750Y-46550D02*
X57750Y-45150D01*
X70950Y-44379D02*
X70929Y-44360D01*
X70950Y-46550D02*
X70950Y-44379D01*
X70929Y-44360D02*
X70909Y-44340D01*
X70929Y-44359D02*
X70910Y-44340D01*
X70929Y-44360D02*
X70929Y-44359D01*
X61794Y-42855D02*
X61800Y-42850D01*
X61794Y-43650D02*
X61794Y-42855D01*
X62879Y-44150D02*
X63179Y-43850D01*
X62050Y-44150D02*
X62879Y-44150D01*
X61794Y-43894D02*
X62050Y-44150D01*
X61794Y-43650D02*
X61794Y-43894D01*
X62305Y-42855D02*
X62300Y-42850D01*
X62305Y-43650D02*
X62305Y-42855D01*
X61805Y-40644D02*
X61800Y-40650D01*
X61805Y-39950D02*
X61805Y-40644D01*
X69990Y-44340D02*
X69791Y-44340D01*
X68850Y-44850D02*
X68750Y-44900D01*
X69359Y-44340D02*
X68850Y-44850D01*
X69791Y-44340D02*
X69359Y-44340D01*
X69792Y-44340D02*
X69990Y-44340D01*
X69791Y-44340D02*
X69792Y-44340D01*
X62304Y-39245D02*
X62310Y-39240D01*
X62309Y-39240D02*
X62304Y-39245D01*
X62450Y-39250D02*
X62309Y-39240D01*
X62850Y-38850D02*
X62450Y-39250D01*
X64150Y-38850D02*
X62850Y-38850D01*
X62300Y-39250D02*
X62300Y-40650D01*
X62304Y-39245D02*
X62300Y-39250D01*
X66250Y-40100D02*
X66000Y-39850D01*
X66250Y-40494D02*
X66250Y-40100D01*
X64770Y-44300D02*
X64320Y-43850D01*
X65700Y-44300D02*
X64770Y-44300D01*
X66750Y-45750D02*
X67750Y-46750D01*
X66750Y-44900D02*
X66750Y-45750D01*
X65700Y-43850D02*
X65700Y-44300D01*
X66300Y-44900D02*
X66750Y-44900D01*
X65700Y-44300D02*
X66300Y-44900D01*
X67259Y-42140D02*
X67259Y-40910D01*
X65700Y-43700D02*
X67259Y-42140D01*
X65700Y-43850D02*
X65700Y-43700D01*
X67259Y-40910D02*
X67259Y-40909D01*
X67259Y-40910D02*
X67260Y-40910D01*
X49394Y-40050D02*
X49794Y-40450D01*
X49250Y-40050D02*
X49394Y-40050D01*
X49079Y-40220D02*
X49250Y-40050D01*
X49079Y-41350D02*
X49079Y-40220D01*
X50994Y-40450D02*
X51050Y-40505D01*
X50305Y-40450D02*
X50994Y-40450D01*
X51844Y-40505D02*
X51850Y-40500D01*
X51050Y-40505D02*
X51844Y-40505D01*
X54794Y-40050D02*
X54750Y-40005D01*
X55494Y-40050D02*
X54794Y-40050D01*
X54744Y-40000D02*
X54750Y-40005D01*
X54050Y-40000D02*
X54744Y-40000D01*
X55779Y-40650D02*
X55750Y-40679D01*
X56850Y-40650D02*
X55779Y-40650D01*
X56005Y-40423D02*
X55750Y-40679D01*
X56005Y-40050D02*
X56005Y-40423D01*
X66200Y-41055D02*
X66250Y-41005D01*
X66200Y-41650D02*
X66200Y-41055D01*
X67259Y-39996D02*
X66250Y-41005D01*
X67259Y-39989D02*
X67259Y-39996D01*
X67259Y-39759D02*
X67259Y-39989D01*
X67050Y-39550D02*
X67259Y-39759D01*
X67050Y-38450D02*
X67050Y-39550D01*
X69750Y-35750D02*
X67050Y-38450D01*
X71050Y-35750D02*
X69750Y-35750D01*
X67259Y-39989D02*
X67260Y-39990D01*
X54050Y-35750D02*
X55750Y-35750D01*
X51050Y-38750D02*
X54050Y-35750D01*
X51050Y-39994D02*
X51050Y-38750D01*
X51055Y-40000D02*
X51050Y-39994D01*
X51850Y-40000D02*
X51055Y-40000D01*
X60900Y-37050D02*
X62309Y-38459D01*
X59950Y-37050D02*
X60900Y-37050D01*
X59550Y-37450D02*
X59950Y-37050D01*
X59550Y-43250D02*
X59550Y-37450D01*
X62850Y-46550D02*
X59550Y-43250D01*
X64250Y-46550D02*
X62850Y-46550D01*
X62309Y-38459D02*
X62310Y-38460D01*
X68450Y-41250D02*
X68150Y-40950D01*
X68450Y-42250D02*
X68450Y-41250D01*
X68250Y-42450D02*
X68450Y-42250D01*
X68250Y-47450D02*
X68250Y-42450D01*
X67950Y-47750D02*
X68250Y-47450D01*
X67050Y-47750D02*
X67950Y-47750D01*
X65850Y-46550D02*
X67050Y-47750D01*
X64250Y-46550D02*
X65850Y-46550D01*
X68110Y-40910D02*
X68040Y-40910D01*
X68150Y-40950D02*
X68110Y-40910D01*
X65550Y-37050D02*
X65550Y-35750D01*
X65050Y-37550D02*
X65550Y-37050D01*
X65050Y-39050D02*
X65050Y-37550D01*
X63550Y-40550D02*
X65050Y-39050D01*
X63550Y-40620D02*
X63550Y-40550D01*
X63520Y-40650D02*
X63550Y-40620D01*
X62800Y-40650D02*
X63520Y-40650D01*
X54050Y-41979D02*
X54050Y-41579D01*
X51850Y-44179D02*
X54050Y-41979D01*
X51850Y-46550D02*
X51850Y-44179D01*
X54050Y-41579D02*
X54050Y-41000D01*
X54050Y-41579D02*
X54250Y-41779D01*
G54D10*
G36*
X69696Y-44640D02*
X69708Y-44651D01*
X69800Y-44689D01*
X69899Y-44690D01*
X70179Y-44690D01*
X70271Y-44652D01*
X70272Y-44650D01*
X70272Y-44899D01*
X70072Y-44823D01*
X69785Y-44831D01*
X69558Y-44926D01*
X69510Y-45039D01*
X69580Y-45110D01*
X69439Y-45110D01*
X69326Y-45158D01*
X69223Y-45427D01*
X69231Y-45714D01*
X69326Y-45941D01*
X69439Y-45989D01*
X69879Y-45550D01*
X69439Y-45110D01*
X69580Y-45110D01*
X69950Y-45479D01*
X69955Y-45473D01*
X70026Y-45544D01*
X70020Y-45550D01*
X70026Y-45555D01*
X69955Y-45626D01*
X69950Y-45620D01*
X69510Y-46060D01*
X69558Y-46173D01*
X69827Y-46276D01*
X70025Y-46270D01*
X70025Y-46506D01*
X69794Y-46506D01*
X69794Y-46506D01*
X69680Y-46529D01*
X69582Y-46594D01*
X69582Y-46594D01*
X68526Y-47650D01*
X68470Y-47650D01*
X68527Y-47564D01*
X68549Y-47450D01*
X68550Y-47450D01*
X68550Y-45579D01*
X68600Y-45599D01*
X68699Y-45600D01*
X68899Y-45600D01*
X68991Y-45562D01*
X69061Y-45491D01*
X69099Y-45399D01*
X69100Y-45300D01*
X69100Y-45024D01*
X69484Y-44640D01*
X69696Y-44640D01*
X69696Y-44640D01*
G37*
G54D24*
X69696Y-44640D02*
X69708Y-44651D01*
X69800Y-44689D01*
X69899Y-44690D01*
X70179Y-44690D01*
X70271Y-44652D01*
X70272Y-44650D01*
X70272Y-44899D01*
X70072Y-44823D01*
X69785Y-44831D01*
X69558Y-44926D01*
X69510Y-45039D01*
X69580Y-45110D01*
X69439Y-45110D01*
X69326Y-45158D01*
X69223Y-45427D01*
X69231Y-45714D01*
X69326Y-45941D01*
X69439Y-45989D01*
X69879Y-45550D01*
X69439Y-45110D01*
X69580Y-45110D01*
X69950Y-45479D01*
X69955Y-45473D01*
X70026Y-45544D01*
X70020Y-45550D01*
X70026Y-45555D01*
X69955Y-45626D01*
X69950Y-45620D01*
X69510Y-46060D01*
X69558Y-46173D01*
X69827Y-46276D01*
X70025Y-46270D01*
X70025Y-46506D01*
X69794Y-46506D01*
X69794Y-46506D01*
X69680Y-46529D01*
X69582Y-46594D01*
X69582Y-46594D01*
X68526Y-47650D01*
X68470Y-47650D01*
X68527Y-47564D01*
X68549Y-47450D01*
X68550Y-47450D01*
X68550Y-45579D01*
X68600Y-45599D01*
X68699Y-45600D01*
X68899Y-45600D01*
X68991Y-45562D01*
X69061Y-45491D01*
X69099Y-45399D01*
X69100Y-45300D01*
X69100Y-45024D01*
X69484Y-44640D01*
X69696Y-44640D01*
G54D10*
G36*
X71406Y-44250D02*
X71406Y-44586D01*
X71444Y-44678D01*
X71514Y-44749D01*
X71606Y-44787D01*
X71705Y-44787D01*
X72493Y-44787D01*
X72501Y-44784D01*
X72501Y-44823D01*
X72072Y-44823D01*
X71785Y-44831D01*
X71558Y-44926D01*
X71510Y-45039D01*
X71950Y-45479D01*
X72389Y-45039D01*
X72341Y-44926D01*
X72072Y-44823D01*
X72501Y-44823D01*
X72501Y-45127D01*
X72460Y-45110D01*
X72020Y-45550D01*
X72026Y-45555D01*
X71955Y-45626D01*
X71950Y-45620D01*
X71944Y-45626D01*
X71873Y-45555D01*
X71879Y-45550D01*
X71439Y-45110D01*
X71326Y-45158D01*
X71250Y-45358D01*
X71250Y-44593D01*
X71261Y-44581D01*
X71299Y-44489D01*
X71300Y-44390D01*
X71300Y-44250D01*
X71406Y-44250D01*
X71406Y-44250D01*
G37*
G54D24*
X71406Y-44250D02*
X71406Y-44586D01*
X71444Y-44678D01*
X71514Y-44749D01*
X71606Y-44787D01*
X71705Y-44787D01*
X72493Y-44787D01*
X72501Y-44784D01*
X72501Y-44823D01*
X72072Y-44823D01*
X71785Y-44831D01*
X71558Y-44926D01*
X71510Y-45039D01*
X71950Y-45479D01*
X72389Y-45039D01*
X72341Y-44926D01*
X72072Y-44823D01*
X72501Y-44823D01*
X72501Y-45127D01*
X72460Y-45110D01*
X72020Y-45550D01*
X72026Y-45555D01*
X71955Y-45626D01*
X71950Y-45620D01*
X71944Y-45626D01*
X71873Y-45555D01*
X71879Y-45550D01*
X71439Y-45110D01*
X71326Y-45158D01*
X71250Y-45358D01*
X71250Y-44593D01*
X71261Y-44581D01*
X71299Y-44489D01*
X71300Y-44390D01*
X71300Y-44250D01*
X71406Y-44250D01*
G54D10*
G36*
X66250Y-43792D02*
X66250Y-43800D01*
X66257Y-43800D01*
X66257Y-43900D01*
X66250Y-43900D01*
X66250Y-44287D01*
X66312Y-44350D01*
X66374Y-44350D01*
X66430Y-44326D01*
X66400Y-44400D01*
X66399Y-44499D01*
X66399Y-44575D01*
X66130Y-44306D01*
X66150Y-44287D01*
X66150Y-43900D01*
X66142Y-43900D01*
X66142Y-43800D01*
X66150Y-43800D01*
X66150Y-43792D01*
X66250Y-43792D01*
X66250Y-43792D01*
G37*
G54D24*
X66250Y-43792D02*
X66250Y-43800D01*
X66257Y-43800D01*
X66257Y-43900D01*
X66250Y-43900D01*
X66250Y-44287D01*
X66312Y-44350D01*
X66374Y-44350D01*
X66430Y-44326D01*
X66400Y-44400D01*
X66399Y-44499D01*
X66399Y-44575D01*
X66130Y-44306D01*
X66150Y-44287D01*
X66150Y-43900D01*
X66142Y-43900D01*
X66142Y-43800D01*
X66150Y-43800D01*
X66150Y-43792D01*
X66250Y-43792D01*
G54D10*
G36*
X70040Y-43502D02*
X70040Y-43510D01*
X70047Y-43510D01*
X70047Y-43599D01*
X69932Y-43599D01*
X69932Y-43510D01*
X69940Y-43510D01*
X69940Y-43502D01*
X70040Y-43502D01*
X70040Y-43502D01*
G37*
G54D24*
X70040Y-43502D02*
X70040Y-43510D01*
X70047Y-43510D01*
X70047Y-43599D01*
X69932Y-43599D01*
X69932Y-43510D01*
X69940Y-43510D01*
X69940Y-43502D01*
X70040Y-43502D01*
G54D10*
G36*
X60975Y-43253D02*
X61033Y-43311D01*
X61125Y-43349D01*
X61224Y-43350D01*
X61445Y-43350D01*
X61444Y-43350D01*
X61406Y-43442D01*
X61406Y-43542D01*
X61406Y-43856D01*
X61444Y-43948D01*
X61514Y-44019D01*
X61527Y-44024D01*
X61581Y-44106D01*
X61837Y-44362D01*
X61935Y-44427D01*
X62050Y-44450D01*
X62815Y-44450D01*
X62820Y-44455D01*
X62912Y-44493D01*
X63012Y-44493D01*
X63445Y-44493D01*
X63537Y-44455D01*
X63607Y-44385D01*
X63645Y-44293D01*
X63645Y-44194D01*
X63645Y-43406D01*
X63607Y-43314D01*
X63580Y-43287D01*
X63919Y-43287D01*
X63892Y-43314D01*
X63854Y-43406D01*
X63854Y-43505D01*
X63854Y-44293D01*
X63892Y-44385D01*
X63962Y-44455D01*
X64054Y-44493D01*
X64153Y-44493D01*
X64540Y-44493D01*
X64558Y-44512D01*
X64656Y-44577D01*
X64770Y-44600D01*
X65575Y-44600D01*
X65799Y-44823D01*
X65372Y-44823D01*
X63372Y-44823D01*
X63085Y-44831D01*
X62858Y-44926D01*
X62810Y-45039D01*
X63250Y-45479D01*
X63689Y-45039D01*
X63641Y-44926D01*
X63372Y-44823D01*
X65372Y-44823D01*
X65085Y-44831D01*
X64858Y-44926D01*
X64810Y-45039D01*
X65250Y-45479D01*
X65689Y-45039D01*
X65641Y-44926D01*
X65372Y-44823D01*
X65799Y-44823D01*
X66085Y-45110D01*
X65760Y-45110D01*
X65320Y-45550D01*
X65760Y-45989D01*
X65873Y-45941D01*
X65976Y-45672D01*
X65968Y-45385D01*
X65873Y-45158D01*
X65760Y-45110D01*
X66085Y-45110D01*
X66087Y-45112D01*
X66185Y-45177D01*
X66300Y-45200D01*
X66399Y-45200D01*
X66399Y-45399D01*
X66437Y-45491D01*
X66450Y-45503D01*
X66450Y-45750D01*
X66472Y-45864D01*
X66537Y-45962D01*
X67399Y-46824D01*
X67399Y-47249D01*
X67437Y-47341D01*
X67508Y-47411D01*
X67600Y-47449D01*
X67650Y-47450D01*
X67174Y-47450D01*
X66062Y-46337D01*
X66062Y-46337D01*
X65964Y-46272D01*
X65850Y-46250D01*
X65850Y-46250D01*
X65457Y-46250D01*
X65641Y-46173D01*
X65689Y-46060D01*
X65250Y-45620D01*
X65244Y-45626D01*
X65173Y-45555D01*
X65179Y-45550D01*
X64739Y-45110D01*
X64626Y-45158D01*
X64523Y-45427D01*
X64531Y-45714D01*
X64617Y-45920D01*
X64394Y-45827D01*
X64106Y-45827D01*
X63881Y-45920D01*
X63976Y-45672D01*
X63968Y-45385D01*
X63873Y-45158D01*
X63760Y-45110D01*
X63320Y-45550D01*
X63326Y-45555D01*
X63255Y-45626D01*
X63250Y-45620D01*
X63244Y-45626D01*
X63173Y-45555D01*
X63179Y-45550D01*
X62739Y-45110D01*
X62626Y-45158D01*
X62523Y-45427D01*
X62531Y-45714D01*
X62597Y-45873D01*
X60749Y-44025D01*
X60784Y-44025D01*
X60940Y-43960D01*
X61060Y-43841D01*
X61124Y-43684D01*
X61125Y-43515D01*
X61060Y-43359D01*
X60960Y-43259D01*
X60975Y-43253D01*
X60975Y-43253D01*
G37*
G54D24*
X60975Y-43253D02*
X61033Y-43311D01*
X61125Y-43349D01*
X61224Y-43350D01*
X61445Y-43350D01*
X61444Y-43350D01*
X61406Y-43442D01*
X61406Y-43542D01*
X61406Y-43856D01*
X61444Y-43948D01*
X61514Y-44019D01*
X61527Y-44024D01*
X61581Y-44106D01*
X61837Y-44362D01*
X61935Y-44427D01*
X62050Y-44450D01*
X62815Y-44450D01*
X62820Y-44455D01*
X62912Y-44493D01*
X63012Y-44493D01*
X63445Y-44493D01*
X63537Y-44455D01*
X63607Y-44385D01*
X63645Y-44293D01*
X63645Y-44194D01*
X63645Y-43406D01*
X63607Y-43314D01*
X63580Y-43287D01*
X63919Y-43287D01*
X63892Y-43314D01*
X63854Y-43406D01*
X63854Y-43505D01*
X63854Y-44293D01*
X63892Y-44385D01*
X63962Y-44455D01*
X64054Y-44493D01*
X64153Y-44493D01*
X64540Y-44493D01*
X64558Y-44512D01*
X64656Y-44577D01*
X64770Y-44600D01*
X65575Y-44600D01*
X65799Y-44823D01*
X65372Y-44823D01*
X63372Y-44823D01*
X63085Y-44831D01*
X62858Y-44926D01*
X62810Y-45039D01*
X63250Y-45479D01*
X63689Y-45039D01*
X63641Y-44926D01*
X63372Y-44823D01*
X65372Y-44823D01*
X65085Y-44831D01*
X64858Y-44926D01*
X64810Y-45039D01*
X65250Y-45479D01*
X65689Y-45039D01*
X65641Y-44926D01*
X65372Y-44823D01*
X65799Y-44823D01*
X66085Y-45110D01*
X65760Y-45110D01*
X65320Y-45550D01*
X65760Y-45989D01*
X65873Y-45941D01*
X65976Y-45672D01*
X65968Y-45385D01*
X65873Y-45158D01*
X65760Y-45110D01*
X66085Y-45110D01*
X66087Y-45112D01*
X66185Y-45177D01*
X66300Y-45200D01*
X66399Y-45200D01*
X66399Y-45399D01*
X66437Y-45491D01*
X66450Y-45503D01*
X66450Y-45750D01*
X66472Y-45864D01*
X66537Y-45962D01*
X67399Y-46824D01*
X67399Y-47249D01*
X67437Y-47341D01*
X67508Y-47411D01*
X67600Y-47449D01*
X67650Y-47450D01*
X67174Y-47450D01*
X66062Y-46337D01*
X66062Y-46337D01*
X65964Y-46272D01*
X65850Y-46250D01*
X65850Y-46250D01*
X65457Y-46250D01*
X65641Y-46173D01*
X65689Y-46060D01*
X65250Y-45620D01*
X65244Y-45626D01*
X65173Y-45555D01*
X65179Y-45550D01*
X64739Y-45110D01*
X64626Y-45158D01*
X64523Y-45427D01*
X64531Y-45714D01*
X64617Y-45920D01*
X64394Y-45827D01*
X64106Y-45827D01*
X63881Y-45920D01*
X63976Y-45672D01*
X63968Y-45385D01*
X63873Y-45158D01*
X63760Y-45110D01*
X63320Y-45550D01*
X63326Y-45555D01*
X63255Y-45626D01*
X63250Y-45620D01*
X63244Y-45626D01*
X63173Y-45555D01*
X63179Y-45550D01*
X62739Y-45110D01*
X62626Y-45158D01*
X62523Y-45427D01*
X62531Y-45714D01*
X62597Y-45873D01*
X60749Y-44025D01*
X60784Y-44025D01*
X60940Y-43960D01*
X61060Y-43841D01*
X61124Y-43684D01*
X61125Y-43515D01*
X61060Y-43359D01*
X60960Y-43259D01*
X60975Y-43253D01*
G54D10*
G36*
X69200Y-42721D02*
X69200Y-42729D01*
X69207Y-42729D01*
X69207Y-42829D01*
X69200Y-42829D01*
X69200Y-43183D01*
X69262Y-43245D01*
X69494Y-43245D01*
X69593Y-43245D01*
X69685Y-43207D01*
X69720Y-43171D01*
X69771Y-43222D01*
X69708Y-43248D01*
X69637Y-43318D01*
X69599Y-43410D01*
X69600Y-43447D01*
X69616Y-43463D01*
X69593Y-43454D01*
X69494Y-43454D01*
X68706Y-43454D01*
X68614Y-43492D01*
X68550Y-43557D01*
X68550Y-43142D01*
X68614Y-43207D01*
X68706Y-43245D01*
X68805Y-43245D01*
X69037Y-43245D01*
X69100Y-43183D01*
X69100Y-42829D01*
X69092Y-42829D01*
X69092Y-42729D01*
X69100Y-42729D01*
X69100Y-42721D01*
X69200Y-42721D01*
X69200Y-42721D01*
G37*
G54D24*
X69200Y-42721D02*
X69200Y-42729D01*
X69207Y-42729D01*
X69207Y-42829D01*
X69200Y-42829D01*
X69200Y-43183D01*
X69262Y-43245D01*
X69494Y-43245D01*
X69593Y-43245D01*
X69685Y-43207D01*
X69720Y-43171D01*
X69771Y-43222D01*
X69708Y-43248D01*
X69637Y-43318D01*
X69599Y-43410D01*
X69600Y-43447D01*
X69616Y-43463D01*
X69593Y-43454D01*
X69494Y-43454D01*
X68706Y-43454D01*
X68614Y-43492D01*
X68550Y-43557D01*
X68550Y-43142D01*
X68614Y-43207D01*
X68706Y-43245D01*
X68805Y-43245D01*
X69037Y-43245D01*
X69100Y-43183D01*
X69100Y-42829D01*
X69092Y-42829D01*
X69092Y-42729D01*
X69100Y-42729D01*
X69100Y-42721D01*
X69200Y-42721D01*
G54D10*
G36*
X67490Y-42324D02*
X67520Y-42355D01*
X67612Y-42393D01*
X67712Y-42393D01*
X67961Y-42393D01*
X67957Y-42412D01*
X67894Y-42412D01*
X67662Y-42412D01*
X67600Y-42475D01*
X67600Y-42829D01*
X67607Y-42829D01*
X67607Y-42929D01*
X67600Y-42929D01*
X67600Y-42937D01*
X67500Y-42937D01*
X67500Y-42929D01*
X67492Y-42929D01*
X67492Y-42829D01*
X67500Y-42829D01*
X67500Y-42475D01*
X67437Y-42412D01*
X67411Y-42412D01*
X67471Y-42352D01*
X67490Y-42324D01*
X67490Y-42324D01*
G37*
G54D24*
X67490Y-42324D02*
X67520Y-42355D01*
X67612Y-42393D01*
X67712Y-42393D01*
X67961Y-42393D01*
X67957Y-42412D01*
X67894Y-42412D01*
X67662Y-42412D01*
X67600Y-42475D01*
X67600Y-42829D01*
X67607Y-42829D01*
X67607Y-42929D01*
X67600Y-42929D01*
X67600Y-42937D01*
X67500Y-42937D01*
X67500Y-42929D01*
X67492Y-42929D01*
X67492Y-42829D01*
X67500Y-42829D01*
X67500Y-42475D01*
X67437Y-42412D01*
X67411Y-42412D01*
X67471Y-42352D01*
X67490Y-42324D01*
G54D10*
G36*
X54650Y-42245D02*
X54650Y-42350D01*
X54670Y-42454D01*
X54594Y-42454D01*
X54362Y-42454D01*
X54300Y-42516D01*
X54300Y-42870D01*
X54831Y-42870D01*
X54893Y-42808D01*
X54893Y-42717D01*
X55146Y-42970D01*
X54831Y-42970D01*
X54300Y-42970D01*
X54200Y-42970D01*
X53668Y-42970D01*
X53606Y-43033D01*
X53606Y-43186D01*
X53644Y-43278D01*
X53714Y-43349D01*
X53806Y-43387D01*
X53905Y-43387D01*
X54137Y-43387D01*
X54200Y-43324D01*
X54200Y-42970D01*
X54300Y-42970D01*
X54300Y-43324D01*
X54362Y-43387D01*
X54594Y-43387D01*
X54693Y-43387D01*
X54785Y-43349D01*
X54855Y-43278D01*
X54893Y-43186D01*
X54893Y-43033D01*
X54831Y-42970D01*
X55146Y-42970D01*
X57077Y-44901D01*
X56872Y-44823D01*
X52972Y-44823D01*
X52685Y-44831D01*
X52458Y-44926D01*
X52410Y-45039D01*
X52850Y-45479D01*
X53289Y-45039D01*
X53241Y-44926D01*
X52972Y-44823D01*
X56872Y-44823D01*
X56585Y-44831D01*
X56358Y-44926D01*
X56310Y-45039D01*
X56380Y-45110D01*
X56239Y-45110D01*
X53360Y-45110D01*
X52920Y-45550D01*
X53360Y-45989D01*
X53473Y-45941D01*
X53576Y-45672D01*
X53568Y-45385D01*
X53473Y-45158D01*
X53360Y-45110D01*
X56239Y-45110D01*
X56126Y-45158D01*
X56023Y-45427D01*
X56031Y-45714D01*
X56126Y-45941D01*
X56239Y-45989D01*
X56679Y-45550D01*
X56239Y-45110D01*
X56380Y-45110D01*
X56750Y-45479D01*
X56755Y-45473D01*
X56826Y-45544D01*
X56820Y-45550D01*
X56826Y-45555D01*
X56755Y-45626D01*
X56750Y-45620D01*
X56310Y-46060D01*
X56358Y-46173D01*
X56627Y-46276D01*
X56914Y-46268D01*
X57120Y-46182D01*
X57027Y-46405D01*
X57027Y-46608D01*
X52572Y-46608D01*
X52572Y-46406D01*
X52479Y-46181D01*
X52727Y-46276D01*
X53014Y-46268D01*
X53241Y-46173D01*
X53289Y-46060D01*
X52850Y-45620D01*
X52844Y-45626D01*
X52773Y-45555D01*
X52779Y-45550D01*
X52339Y-45110D01*
X52226Y-45158D01*
X52150Y-45358D01*
X52150Y-44303D01*
X53625Y-42827D01*
X53668Y-42870D01*
X54200Y-42870D01*
X54200Y-42516D01*
X54137Y-42454D01*
X53999Y-42454D01*
X54207Y-42245D01*
X54650Y-42245D01*
X54650Y-42245D01*
G37*
G54D24*
X54650Y-42245D02*
X54650Y-42350D01*
X54670Y-42454D01*
X54594Y-42454D01*
X54362Y-42454D01*
X54300Y-42516D01*
X54300Y-42870D01*
X54831Y-42870D01*
X54893Y-42808D01*
X54893Y-42717D01*
X55146Y-42970D01*
X54831Y-42970D01*
X54300Y-42970D01*
X54200Y-42970D01*
X53668Y-42970D01*
X53606Y-43033D01*
X53606Y-43186D01*
X53644Y-43278D01*
X53714Y-43349D01*
X53806Y-43387D01*
X53905Y-43387D01*
X54137Y-43387D01*
X54200Y-43324D01*
X54200Y-42970D01*
X54300Y-42970D01*
X54300Y-43324D01*
X54362Y-43387D01*
X54594Y-43387D01*
X54693Y-43387D01*
X54785Y-43349D01*
X54855Y-43278D01*
X54893Y-43186D01*
X54893Y-43033D01*
X54831Y-42970D01*
X55146Y-42970D01*
X57077Y-44901D01*
X56872Y-44823D01*
X52972Y-44823D01*
X52685Y-44831D01*
X52458Y-44926D01*
X52410Y-45039D01*
X52850Y-45479D01*
X53289Y-45039D01*
X53241Y-44926D01*
X52972Y-44823D01*
X56872Y-44823D01*
X56585Y-44831D01*
X56358Y-44926D01*
X56310Y-45039D01*
X56380Y-45110D01*
X56239Y-45110D01*
X53360Y-45110D01*
X52920Y-45550D01*
X53360Y-45989D01*
X53473Y-45941D01*
X53576Y-45672D01*
X53568Y-45385D01*
X53473Y-45158D01*
X53360Y-45110D01*
X56239Y-45110D01*
X56126Y-45158D01*
X56023Y-45427D01*
X56031Y-45714D01*
X56126Y-45941D01*
X56239Y-45989D01*
X56679Y-45550D01*
X56239Y-45110D01*
X56380Y-45110D01*
X56750Y-45479D01*
X56755Y-45473D01*
X56826Y-45544D01*
X56820Y-45550D01*
X56826Y-45555D01*
X56755Y-45626D01*
X56750Y-45620D01*
X56310Y-46060D01*
X56358Y-46173D01*
X56627Y-46276D01*
X56914Y-46268D01*
X57120Y-46182D01*
X57027Y-46405D01*
X57027Y-46608D01*
X52572Y-46608D01*
X52572Y-46406D01*
X52479Y-46181D01*
X52727Y-46276D01*
X53014Y-46268D01*
X53241Y-46173D01*
X53289Y-46060D01*
X52850Y-45620D01*
X52844Y-45626D01*
X52773Y-45555D01*
X52779Y-45550D01*
X52339Y-45110D01*
X52226Y-45158D01*
X52150Y-45358D01*
X52150Y-44303D01*
X53625Y-42827D01*
X53668Y-42870D01*
X54200Y-42870D01*
X54200Y-42516D01*
X54137Y-42454D01*
X53999Y-42454D01*
X54207Y-42245D01*
X54650Y-42245D01*
G54D10*
G36*
X58900Y-42221D02*
X58900Y-42229D01*
X58907Y-42229D01*
X58907Y-42329D01*
X58900Y-42329D01*
X58900Y-42683D01*
X58962Y-42745D01*
X59194Y-42745D01*
X59250Y-42745D01*
X59250Y-42954D01*
X59194Y-42954D01*
X58728Y-42954D01*
X58575Y-42800D01*
X58575Y-42765D01*
X58566Y-42745D01*
X58737Y-42745D01*
X58800Y-42683D01*
X58800Y-42329D01*
X58792Y-42329D01*
X58792Y-42229D01*
X58800Y-42229D01*
X58800Y-42221D01*
X58900Y-42221D01*
X58900Y-42221D01*
G37*
G54D24*
X58900Y-42221D02*
X58900Y-42229D01*
X58907Y-42229D01*
X58907Y-42329D01*
X58900Y-42329D01*
X58900Y-42683D01*
X58962Y-42745D01*
X59194Y-42745D01*
X59250Y-42745D01*
X59250Y-42954D01*
X59194Y-42954D01*
X58728Y-42954D01*
X58575Y-42800D01*
X58575Y-42765D01*
X58566Y-42745D01*
X58737Y-42745D01*
X58800Y-42683D01*
X58800Y-42329D01*
X58792Y-42329D01*
X58792Y-42229D01*
X58800Y-42229D01*
X58800Y-42221D01*
X58900Y-42221D01*
G54D10*
G36*
X71418Y-41279D02*
X71323Y-41527D01*
X71331Y-41814D01*
X71426Y-42041D01*
X71539Y-42089D01*
X71979Y-41650D01*
X71973Y-41644D01*
X72044Y-41573D01*
X72050Y-41579D01*
X72055Y-41573D01*
X72126Y-41644D01*
X72120Y-41650D01*
X72126Y-41655D01*
X72061Y-41720D01*
X72055Y-41726D01*
X72050Y-41720D01*
X71610Y-42160D01*
X71658Y-42273D01*
X71927Y-42376D01*
X72214Y-42368D01*
X72441Y-42273D01*
X72489Y-42160D01*
X72501Y-42172D01*
X72501Y-42715D01*
X72493Y-42712D01*
X72394Y-42712D01*
X71705Y-42712D01*
X71606Y-42712D01*
X71514Y-42750D01*
X71444Y-42821D01*
X71406Y-42913D01*
X71406Y-43066D01*
X71468Y-43129D01*
X72000Y-43129D01*
X72000Y-42775D01*
X71937Y-42712D01*
X71705Y-42712D01*
X72394Y-42712D01*
X72162Y-42712D01*
X72100Y-42775D01*
X72100Y-43129D01*
X72107Y-43129D01*
X72107Y-43229D01*
X72100Y-43229D01*
X72000Y-43229D01*
X71468Y-43229D01*
X71406Y-43291D01*
X71406Y-43445D01*
X71444Y-43537D01*
X71514Y-43607D01*
X71606Y-43645D01*
X71705Y-43645D01*
X71937Y-43645D01*
X72000Y-43583D01*
X72000Y-43229D01*
X72100Y-43229D01*
X72100Y-43583D01*
X72162Y-43645D01*
X72394Y-43645D01*
X72493Y-43645D01*
X72501Y-43642D01*
X72501Y-43857D01*
X72493Y-43854D01*
X72394Y-43854D01*
X72007Y-43854D01*
X71891Y-43737D01*
X71793Y-43672D01*
X71679Y-43650D01*
X71679Y-43650D01*
X71300Y-43650D01*
X71300Y-43610D01*
X71300Y-43410D01*
X71262Y-43318D01*
X71209Y-43266D01*
X71209Y-41365D01*
X71418Y-41279D01*
X71418Y-41279D01*
G37*
G54D24*
X71418Y-41279D02*
X71323Y-41527D01*
X71331Y-41814D01*
X71426Y-42041D01*
X71539Y-42089D01*
X71979Y-41650D01*
X71973Y-41644D01*
X72044Y-41573D01*
X72050Y-41579D01*
X72055Y-41573D01*
X72126Y-41644D01*
X72120Y-41650D01*
X72126Y-41655D01*
X72061Y-41720D01*
X72055Y-41726D01*
X72050Y-41720D01*
X71610Y-42160D01*
X71658Y-42273D01*
X71927Y-42376D01*
X72214Y-42368D01*
X72441Y-42273D01*
X72489Y-42160D01*
X72501Y-42172D01*
X72501Y-42715D01*
X72493Y-42712D01*
X72394Y-42712D01*
X71705Y-42712D01*
X71606Y-42712D01*
X71514Y-42750D01*
X71444Y-42821D01*
X71406Y-42913D01*
X71406Y-43066D01*
X71468Y-43129D01*
X72000Y-43129D01*
X72000Y-42775D01*
X71937Y-42712D01*
X71705Y-42712D01*
X72394Y-42712D01*
X72162Y-42712D01*
X72100Y-42775D01*
X72100Y-43129D01*
X72107Y-43129D01*
X72107Y-43229D01*
X72100Y-43229D01*
X72000Y-43229D01*
X71468Y-43229D01*
X71406Y-43291D01*
X71406Y-43445D01*
X71444Y-43537D01*
X71514Y-43607D01*
X71606Y-43645D01*
X71705Y-43645D01*
X71937Y-43645D01*
X72000Y-43583D01*
X72000Y-43229D01*
X72100Y-43229D01*
X72100Y-43583D01*
X72162Y-43645D01*
X72394Y-43645D01*
X72493Y-43645D01*
X72501Y-43642D01*
X72501Y-43857D01*
X72493Y-43854D01*
X72394Y-43854D01*
X72007Y-43854D01*
X71891Y-43737D01*
X71793Y-43672D01*
X71679Y-43650D01*
X71679Y-43650D01*
X71300Y-43650D01*
X71300Y-43610D01*
X71300Y-43410D01*
X71262Y-43318D01*
X71209Y-43266D01*
X71209Y-41365D01*
X71418Y-41279D01*
G54D10*
G36*
X69631Y-41089D02*
X69610Y-41139D01*
X70050Y-41579D01*
X70055Y-41573D01*
X70126Y-41644D01*
X70120Y-41650D01*
X70126Y-41655D01*
X70055Y-41726D01*
X70050Y-41720D01*
X69610Y-42160D01*
X69658Y-42273D01*
X69927Y-42376D01*
X70214Y-42368D01*
X70319Y-42324D01*
X70319Y-42568D01*
X70291Y-42539D01*
X70134Y-42475D01*
X69965Y-42474D01*
X69809Y-42539D01*
X69793Y-42555D01*
X69793Y-42513D01*
X69755Y-42421D01*
X69685Y-42350D01*
X69593Y-42312D01*
X69494Y-42312D01*
X69422Y-42312D01*
X69449Y-42285D01*
X69487Y-42193D01*
X69487Y-42094D01*
X69487Y-42067D01*
X69539Y-42089D01*
X69979Y-41650D01*
X69539Y-41210D01*
X69461Y-41243D01*
X69449Y-41214D01*
X69378Y-41144D01*
X69286Y-41106D01*
X69133Y-41106D01*
X69070Y-41168D01*
X69070Y-41700D01*
X69078Y-41700D01*
X69078Y-41800D01*
X69070Y-41800D01*
X69070Y-41807D01*
X68970Y-41807D01*
X68970Y-41800D01*
X68962Y-41800D01*
X68962Y-41700D01*
X68970Y-41700D01*
X68970Y-41168D01*
X68908Y-41106D01*
X68754Y-41106D01*
X68717Y-41121D01*
X68717Y-41121D01*
X68696Y-41089D01*
X69631Y-41089D01*
X69631Y-41089D01*
G37*
G54D24*
X69631Y-41089D02*
X69610Y-41139D01*
X70050Y-41579D01*
X70055Y-41573D01*
X70126Y-41644D01*
X70120Y-41650D01*
X70126Y-41655D01*
X70055Y-41726D01*
X70050Y-41720D01*
X69610Y-42160D01*
X69658Y-42273D01*
X69927Y-42376D01*
X70214Y-42368D01*
X70319Y-42324D01*
X70319Y-42568D01*
X70291Y-42539D01*
X70134Y-42475D01*
X69965Y-42474D01*
X69809Y-42539D01*
X69793Y-42555D01*
X69793Y-42513D01*
X69755Y-42421D01*
X69685Y-42350D01*
X69593Y-42312D01*
X69494Y-42312D01*
X69422Y-42312D01*
X69449Y-42285D01*
X69487Y-42193D01*
X69487Y-42094D01*
X69487Y-42067D01*
X69539Y-42089D01*
X69979Y-41650D01*
X69539Y-41210D01*
X69461Y-41243D01*
X69449Y-41214D01*
X69378Y-41144D01*
X69286Y-41106D01*
X69133Y-41106D01*
X69070Y-41168D01*
X69070Y-41700D01*
X69078Y-41700D01*
X69078Y-41800D01*
X69070Y-41800D01*
X69070Y-41807D01*
X68970Y-41807D01*
X68970Y-41800D01*
X68962Y-41800D01*
X68962Y-41700D01*
X68970Y-41700D01*
X68970Y-41168D01*
X68908Y-41106D01*
X68754Y-41106D01*
X68717Y-41121D01*
X68717Y-41121D01*
X68696Y-41089D01*
X69631Y-41089D01*
G54D10*
G36*
X57550Y-40728D02*
X57945Y-41124D01*
X57945Y-41354D01*
X56094Y-41354D01*
X55862Y-41354D01*
X55800Y-41416D01*
X55800Y-41770D01*
X56331Y-41770D01*
X56393Y-41708D01*
X56393Y-41554D01*
X56355Y-41462D01*
X56285Y-41392D01*
X56193Y-41354D01*
X56094Y-41354D01*
X57945Y-41354D01*
X57945Y-41650D01*
X57950Y-41671D01*
X57950Y-41870D01*
X56331Y-41870D01*
X55800Y-41870D01*
X55800Y-42224D01*
X55862Y-42287D01*
X56094Y-42287D01*
X56193Y-42287D01*
X56285Y-42249D01*
X56355Y-42178D01*
X56393Y-42086D01*
X56393Y-41933D01*
X56331Y-41870D01*
X57950Y-41870D01*
X57950Y-42472D01*
X57909Y-42489D01*
X57789Y-42608D01*
X57725Y-42765D01*
X57724Y-42934D01*
X57789Y-43090D01*
X57908Y-43210D01*
X58065Y-43274D01*
X58200Y-43275D01*
X58206Y-43280D01*
X58206Y-43686D01*
X58244Y-43778D01*
X58314Y-43849D01*
X58406Y-43887D01*
X58505Y-43887D01*
X59293Y-43887D01*
X59385Y-43849D01*
X59455Y-43779D01*
X59493Y-43687D01*
X59493Y-43617D01*
X62456Y-46580D01*
X61582Y-46580D01*
X59700Y-44698D01*
X59700Y-44698D01*
X59603Y-44633D01*
X59488Y-44611D01*
X59488Y-44611D01*
X58508Y-44611D01*
X58508Y-44611D01*
X58393Y-44633D01*
X58296Y-44698D01*
X58296Y-44698D01*
X58000Y-44994D01*
X57962Y-44937D01*
X55311Y-42287D01*
X55405Y-42287D01*
X55637Y-42287D01*
X55700Y-42224D01*
X55700Y-41870D01*
X55692Y-41870D01*
X55692Y-41770D01*
X55700Y-41770D01*
X55700Y-41416D01*
X55637Y-41354D01*
X55405Y-41354D01*
X55306Y-41354D01*
X55250Y-41377D01*
X55250Y-41122D01*
X55306Y-41145D01*
X55405Y-41145D01*
X56193Y-41145D01*
X56285Y-41107D01*
X56355Y-41037D01*
X56371Y-40999D01*
X56449Y-41000D01*
X57349Y-41000D01*
X57441Y-40962D01*
X57511Y-40891D01*
X57549Y-40799D01*
X57550Y-40728D01*
X57550Y-40728D01*
G37*
G54D24*
X57550Y-40728D02*
X57945Y-41124D01*
X57945Y-41354D01*
X56094Y-41354D01*
X55862Y-41354D01*
X55800Y-41416D01*
X55800Y-41770D01*
X56331Y-41770D01*
X56393Y-41708D01*
X56393Y-41554D01*
X56355Y-41462D01*
X56285Y-41392D01*
X56193Y-41354D01*
X56094Y-41354D01*
X57945Y-41354D01*
X57945Y-41650D01*
X57950Y-41671D01*
X57950Y-41870D01*
X56331Y-41870D01*
X55800Y-41870D01*
X55800Y-42224D01*
X55862Y-42287D01*
X56094Y-42287D01*
X56193Y-42287D01*
X56285Y-42249D01*
X56355Y-42178D01*
X56393Y-42086D01*
X56393Y-41933D01*
X56331Y-41870D01*
X57950Y-41870D01*
X57950Y-42472D01*
X57909Y-42489D01*
X57789Y-42608D01*
X57725Y-42765D01*
X57724Y-42934D01*
X57789Y-43090D01*
X57908Y-43210D01*
X58065Y-43274D01*
X58200Y-43275D01*
X58206Y-43280D01*
X58206Y-43686D01*
X58244Y-43778D01*
X58314Y-43849D01*
X58406Y-43887D01*
X58505Y-43887D01*
X59293Y-43887D01*
X59385Y-43849D01*
X59455Y-43779D01*
X59493Y-43687D01*
X59493Y-43617D01*
X62456Y-46580D01*
X61582Y-46580D01*
X59700Y-44698D01*
X59700Y-44698D01*
X59603Y-44633D01*
X59488Y-44611D01*
X59488Y-44611D01*
X58508Y-44611D01*
X58508Y-44611D01*
X58393Y-44633D01*
X58296Y-44698D01*
X58296Y-44698D01*
X58000Y-44994D01*
X57962Y-44937D01*
X55311Y-42287D01*
X55405Y-42287D01*
X55637Y-42287D01*
X55700Y-42224D01*
X55700Y-41870D01*
X55692Y-41870D01*
X55692Y-41770D01*
X55700Y-41770D01*
X55700Y-41416D01*
X55637Y-41354D01*
X55405Y-41354D01*
X55306Y-41354D01*
X55250Y-41377D01*
X55250Y-41122D01*
X55306Y-41145D01*
X55405Y-41145D01*
X56193Y-41145D01*
X56285Y-41107D01*
X56355Y-41037D01*
X56371Y-40999D01*
X56449Y-41000D01*
X57349Y-41000D01*
X57441Y-40962D01*
X57511Y-40891D01*
X57549Y-40799D01*
X57550Y-40728D01*
G54D10*
G36*
X64475Y-39200D02*
X64138Y-39536D01*
X64131Y-39529D01*
X63600Y-39529D01*
X63500Y-39529D01*
X62968Y-39529D01*
X62906Y-39591D01*
X62906Y-39745D01*
X62944Y-39837D01*
X63014Y-39907D01*
X63106Y-39945D01*
X63205Y-39945D01*
X63437Y-39945D01*
X63500Y-39883D01*
X63500Y-39529D01*
X63600Y-39529D01*
X63600Y-39883D01*
X63662Y-39945D01*
X63730Y-39945D01*
X63521Y-40154D01*
X63106Y-40154D01*
X63045Y-40179D01*
X62974Y-40150D01*
X62875Y-40149D01*
X62625Y-40149D01*
X62600Y-40160D01*
X62600Y-39543D01*
X62661Y-39481D01*
X62675Y-39448D01*
X62906Y-39218D01*
X62906Y-39366D01*
X62968Y-39429D01*
X63500Y-39429D01*
X63500Y-39421D01*
X63600Y-39421D01*
X63600Y-39429D01*
X64131Y-39429D01*
X64193Y-39366D01*
X64193Y-39213D01*
X64188Y-39200D01*
X64475Y-39200D01*
X64475Y-39200D01*
G37*
G54D24*
X64475Y-39200D02*
X64138Y-39536D01*
X64131Y-39529D01*
X63600Y-39529D01*
X63500Y-39529D01*
X62968Y-39529D01*
X62906Y-39591D01*
X62906Y-39745D01*
X62944Y-39837D01*
X63014Y-39907D01*
X63106Y-39945D01*
X63205Y-39945D01*
X63437Y-39945D01*
X63500Y-39883D01*
X63500Y-39529D01*
X63600Y-39529D01*
X63600Y-39883D01*
X63662Y-39945D01*
X63730Y-39945D01*
X63521Y-40154D01*
X63106Y-40154D01*
X63045Y-40179D01*
X62974Y-40150D01*
X62875Y-40149D01*
X62625Y-40149D01*
X62600Y-40160D01*
X62600Y-39543D01*
X62661Y-39481D01*
X62675Y-39448D01*
X62906Y-39218D01*
X62906Y-39366D01*
X62968Y-39429D01*
X63500Y-39429D01*
X63500Y-39421D01*
X63600Y-39421D01*
X63600Y-39429D01*
X64131Y-39429D01*
X64193Y-39366D01*
X64193Y-39213D01*
X64188Y-39200D01*
X64475Y-39200D01*
G54D10*
G36*
X53925Y-38406D02*
X54219Y-38700D01*
X53824Y-38700D01*
X53470Y-38700D01*
X53470Y-39231D01*
X53533Y-39293D01*
X53563Y-39293D01*
X53549Y-39325D01*
X53550Y-39387D01*
X53612Y-39450D01*
X54000Y-39450D01*
X54000Y-39187D01*
X53937Y-39125D01*
X53874Y-39124D01*
X53887Y-39093D01*
X53887Y-38994D01*
X53887Y-38762D01*
X53824Y-38700D01*
X54219Y-38700D01*
X54625Y-39106D01*
X54543Y-39106D01*
X54451Y-39144D01*
X54434Y-39160D01*
X54349Y-39125D01*
X54250Y-39124D01*
X54162Y-39125D01*
X54100Y-39187D01*
X54100Y-39450D01*
X54487Y-39450D01*
X54493Y-39444D01*
X54700Y-39444D01*
X54700Y-39436D01*
X54800Y-39436D01*
X54800Y-39444D01*
X55094Y-39444D01*
X55157Y-39381D01*
X55157Y-39405D01*
X55157Y-39306D01*
X55156Y-39303D01*
X56124Y-39303D01*
X57121Y-40299D01*
X56375Y-40299D01*
X56393Y-40257D01*
X56393Y-40157D01*
X56393Y-39843D01*
X56355Y-39751D01*
X56285Y-39680D01*
X56193Y-39642D01*
X56094Y-39642D01*
X55818Y-39642D01*
X55749Y-39670D01*
X55681Y-39642D01*
X55582Y-39642D01*
X55306Y-39642D01*
X55214Y-39680D01*
X55145Y-39750D01*
X55129Y-39750D01*
X55129Y-39749D01*
X55157Y-39681D01*
X55157Y-39582D01*
X55157Y-39606D01*
X55094Y-39544D01*
X54800Y-39544D01*
X54800Y-39551D01*
X54700Y-39551D01*
X54700Y-39544D01*
X54405Y-39544D01*
X54399Y-39550D01*
X54100Y-39550D01*
X54100Y-39557D01*
X54000Y-39557D01*
X54000Y-39550D01*
X53612Y-39550D01*
X53550Y-39612D01*
X53549Y-39674D01*
X53581Y-39750D01*
X53550Y-39825D01*
X53549Y-39924D01*
X53549Y-40174D01*
X53581Y-40250D01*
X53550Y-40325D01*
X53549Y-40424D01*
X53549Y-40674D01*
X53581Y-40750D01*
X53550Y-40825D01*
X53549Y-40924D01*
X53549Y-41174D01*
X53563Y-41206D01*
X53286Y-41206D01*
X52754Y-41206D01*
X52662Y-41244D01*
X52592Y-41314D01*
X52554Y-41406D01*
X52554Y-41505D01*
X52554Y-41737D01*
X52616Y-41800D01*
X52970Y-41800D01*
X52970Y-41268D01*
X52908Y-41206D01*
X52754Y-41206D01*
X53286Y-41206D01*
X53133Y-41206D01*
X53070Y-41268D01*
X53070Y-41800D01*
X53424Y-41800D01*
X53487Y-41737D01*
X53487Y-41505D01*
X53487Y-41406D01*
X53449Y-41314D01*
X53378Y-41244D01*
X53286Y-41206D01*
X53563Y-41206D01*
X53587Y-41266D01*
X53658Y-41336D01*
X53707Y-41357D01*
X53644Y-41420D01*
X53606Y-41512D01*
X53606Y-41612D01*
X53606Y-41998D01*
X53487Y-42117D01*
X53487Y-41962D01*
X53424Y-41900D01*
X53070Y-41900D01*
X52970Y-41900D01*
X52616Y-41900D01*
X52554Y-41962D01*
X52554Y-42194D01*
X52554Y-42293D01*
X52592Y-42385D01*
X52662Y-42455D01*
X52754Y-42493D01*
X52908Y-42493D01*
X52970Y-42431D01*
X52970Y-41900D01*
X53070Y-41900D01*
X53070Y-42431D01*
X53122Y-42482D01*
X51637Y-43967D01*
X51572Y-44064D01*
X51550Y-44179D01*
X51550Y-44823D01*
X50972Y-44823D01*
X50685Y-44831D01*
X50458Y-44926D01*
X50410Y-45039D01*
X50850Y-45479D01*
X51289Y-45039D01*
X51241Y-44926D01*
X50972Y-44823D01*
X51550Y-44823D01*
X51550Y-45342D01*
X51473Y-45158D01*
X51360Y-45110D01*
X50920Y-45550D01*
X50926Y-45555D01*
X50855Y-45626D01*
X50850Y-45620D01*
X50844Y-45626D01*
X50773Y-45555D01*
X50779Y-45550D01*
X50339Y-45110D01*
X50226Y-45158D01*
X50131Y-45407D01*
X47762Y-43037D01*
X47762Y-43037D01*
X47664Y-42972D01*
X47550Y-42950D01*
X47550Y-42950D01*
X45817Y-42950D01*
X45813Y-42940D01*
X45659Y-42786D01*
X45570Y-42750D01*
X45659Y-42713D01*
X45813Y-42559D01*
X45896Y-42359D01*
X45896Y-42141D01*
X45813Y-41940D01*
X45659Y-41786D01*
X45570Y-41750D01*
X45659Y-41713D01*
X45813Y-41559D01*
X45896Y-41359D01*
X45896Y-41141D01*
X45813Y-40940D01*
X45659Y-40786D01*
X45570Y-40750D01*
X45659Y-40713D01*
X45813Y-40559D01*
X45896Y-40359D01*
X45896Y-40141D01*
X45813Y-39940D01*
X45659Y-39786D01*
X45570Y-39750D01*
X45659Y-39713D01*
X45813Y-39559D01*
X45817Y-39550D01*
X47750Y-39550D01*
X47750Y-39912D01*
X47606Y-39912D01*
X47514Y-39950D01*
X47444Y-40020D01*
X47406Y-40112D01*
X47406Y-40212D01*
X47406Y-40645D01*
X47444Y-40737D01*
X47514Y-40807D01*
X47606Y-40845D01*
X47705Y-40845D01*
X47769Y-40845D01*
X47772Y-40860D01*
X47837Y-40957D01*
X47935Y-41022D01*
X48009Y-41037D01*
X48025Y-41054D01*
X48025Y-41054D01*
X47999Y-41054D01*
X47999Y-41116D01*
X47937Y-41054D01*
X47705Y-41054D01*
X47606Y-41054D01*
X47514Y-41092D01*
X47444Y-41162D01*
X47406Y-41254D01*
X47406Y-41408D01*
X47468Y-41470D01*
X48000Y-41470D01*
X48000Y-41462D01*
X48100Y-41462D01*
X48100Y-41470D01*
X48107Y-41470D01*
X48107Y-41570D01*
X48100Y-41570D01*
X48000Y-41570D01*
X47468Y-41570D01*
X47406Y-41633D01*
X47406Y-41786D01*
X47444Y-41878D01*
X47514Y-41949D01*
X47606Y-41987D01*
X47705Y-41987D01*
X47937Y-41987D01*
X48000Y-41924D01*
X48000Y-41570D01*
X48100Y-41570D01*
X48100Y-41924D01*
X48162Y-41987D01*
X48394Y-41987D01*
X48461Y-41987D01*
X48580Y-42105D01*
X48677Y-42171D01*
X48792Y-42193D01*
X49366Y-42193D01*
X49480Y-42171D01*
X49578Y-42105D01*
X49706Y-41977D01*
X49706Y-41977D01*
X49771Y-41880D01*
X49777Y-41849D01*
X49792Y-41885D01*
X49862Y-41955D01*
X49954Y-41993D01*
X50108Y-41993D01*
X50170Y-41931D01*
X50170Y-41400D01*
X50162Y-41400D01*
X50162Y-41300D01*
X50170Y-41300D01*
X50170Y-41292D01*
X50270Y-41292D01*
X50270Y-41300D01*
X50624Y-41300D01*
X50687Y-41237D01*
X50687Y-41106D01*
X51131Y-41106D01*
X51237Y-41212D01*
X51335Y-41277D01*
X51414Y-41292D01*
X51446Y-41325D01*
X51415Y-41400D01*
X50624Y-41400D01*
X50270Y-41400D01*
X50270Y-41931D01*
X50333Y-41993D01*
X50486Y-41993D01*
X50578Y-41955D01*
X50649Y-41885D01*
X50687Y-41793D01*
X50687Y-41694D01*
X50687Y-41462D01*
X50624Y-41400D01*
X51415Y-41400D01*
X51412Y-41406D01*
X51412Y-41505D01*
X51412Y-42293D01*
X51450Y-42385D01*
X51520Y-42455D01*
X51612Y-42493D01*
X51712Y-42493D01*
X52145Y-42493D01*
X52237Y-42455D01*
X52307Y-42385D01*
X52345Y-42293D01*
X52345Y-42194D01*
X52345Y-41526D01*
X53216Y-40655D01*
X53281Y-40558D01*
X53304Y-40443D01*
X53304Y-39293D01*
X53308Y-39293D01*
X53370Y-39231D01*
X53370Y-38700D01*
X53362Y-38700D01*
X53362Y-38600D01*
X53370Y-38600D01*
X53370Y-38592D01*
X53470Y-38592D01*
X53470Y-38600D01*
X53824Y-38600D01*
X53887Y-38537D01*
X53887Y-38406D01*
X53925Y-38406D01*
X53925Y-38406D01*
G37*
G54D24*
X53925Y-38406D02*
X54219Y-38700D01*
X53824Y-38700D01*
X53470Y-38700D01*
X53470Y-39231D01*
X53533Y-39293D01*
X53563Y-39293D01*
X53549Y-39325D01*
X53550Y-39387D01*
X53612Y-39450D01*
X54000Y-39450D01*
X54000Y-39187D01*
X53937Y-39125D01*
X53874Y-39124D01*
X53887Y-39093D01*
X53887Y-38994D01*
X53887Y-38762D01*
X53824Y-38700D01*
X54219Y-38700D01*
X54625Y-39106D01*
X54543Y-39106D01*
X54451Y-39144D01*
X54434Y-39160D01*
X54349Y-39125D01*
X54250Y-39124D01*
X54162Y-39125D01*
X54100Y-39187D01*
X54100Y-39450D01*
X54487Y-39450D01*
X54493Y-39444D01*
X54700Y-39444D01*
X54700Y-39436D01*
X54800Y-39436D01*
X54800Y-39444D01*
X55094Y-39444D01*
X55157Y-39381D01*
X55157Y-39405D01*
X55157Y-39306D01*
X55156Y-39303D01*
X56124Y-39303D01*
X57121Y-40299D01*
X56375Y-40299D01*
X56393Y-40257D01*
X56393Y-40157D01*
X56393Y-39843D01*
X56355Y-39751D01*
X56285Y-39680D01*
X56193Y-39642D01*
X56094Y-39642D01*
X55818Y-39642D01*
X55749Y-39670D01*
X55681Y-39642D01*
X55582Y-39642D01*
X55306Y-39642D01*
X55214Y-39680D01*
X55145Y-39750D01*
X55129Y-39750D01*
X55129Y-39749D01*
X55157Y-39681D01*
X55157Y-39582D01*
X55157Y-39606D01*
X55094Y-39544D01*
X54800Y-39544D01*
X54800Y-39551D01*
X54700Y-39551D01*
X54700Y-39544D01*
X54405Y-39544D01*
X54399Y-39550D01*
X54100Y-39550D01*
X54100Y-39557D01*
X54000Y-39557D01*
X54000Y-39550D01*
X53612Y-39550D01*
X53550Y-39612D01*
X53549Y-39674D01*
X53581Y-39750D01*
X53550Y-39825D01*
X53549Y-39924D01*
X53549Y-40174D01*
X53581Y-40250D01*
X53550Y-40325D01*
X53549Y-40424D01*
X53549Y-40674D01*
X53581Y-40750D01*
X53550Y-40825D01*
X53549Y-40924D01*
X53549Y-41174D01*
X53563Y-41206D01*
X53286Y-41206D01*
X52754Y-41206D01*
X52662Y-41244D01*
X52592Y-41314D01*
X52554Y-41406D01*
X52554Y-41505D01*
X52554Y-41737D01*
X52616Y-41800D01*
X52970Y-41800D01*
X52970Y-41268D01*
X52908Y-41206D01*
X52754Y-41206D01*
X53286Y-41206D01*
X53133Y-41206D01*
X53070Y-41268D01*
X53070Y-41800D01*
X53424Y-41800D01*
X53487Y-41737D01*
X53487Y-41505D01*
X53487Y-41406D01*
X53449Y-41314D01*
X53378Y-41244D01*
X53286Y-41206D01*
X53563Y-41206D01*
X53587Y-41266D01*
X53658Y-41336D01*
X53707Y-41357D01*
X53644Y-41420D01*
X53606Y-41512D01*
X53606Y-41612D01*
X53606Y-41998D01*
X53487Y-42117D01*
X53487Y-41962D01*
X53424Y-41900D01*
X53070Y-41900D01*
X52970Y-41900D01*
X52616Y-41900D01*
X52554Y-41962D01*
X52554Y-42194D01*
X52554Y-42293D01*
X52592Y-42385D01*
X52662Y-42455D01*
X52754Y-42493D01*
X52908Y-42493D01*
X52970Y-42431D01*
X52970Y-41900D01*
X53070Y-41900D01*
X53070Y-42431D01*
X53122Y-42482D01*
X51637Y-43967D01*
X51572Y-44064D01*
X51550Y-44179D01*
X51550Y-44823D01*
X50972Y-44823D01*
X50685Y-44831D01*
X50458Y-44926D01*
X50410Y-45039D01*
X50850Y-45479D01*
X51289Y-45039D01*
X51241Y-44926D01*
X50972Y-44823D01*
X51550Y-44823D01*
X51550Y-45342D01*
X51473Y-45158D01*
X51360Y-45110D01*
X50920Y-45550D01*
X50926Y-45555D01*
X50855Y-45626D01*
X50850Y-45620D01*
X50844Y-45626D01*
X50773Y-45555D01*
X50779Y-45550D01*
X50339Y-45110D01*
X50226Y-45158D01*
X50131Y-45407D01*
X47762Y-43037D01*
X47762Y-43037D01*
X47664Y-42972D01*
X47550Y-42950D01*
X47550Y-42950D01*
X45817Y-42950D01*
X45813Y-42940D01*
X45659Y-42786D01*
X45570Y-42750D01*
X45659Y-42713D01*
X45813Y-42559D01*
X45896Y-42359D01*
X45896Y-42141D01*
X45813Y-41940D01*
X45659Y-41786D01*
X45570Y-41750D01*
X45659Y-41713D01*
X45813Y-41559D01*
X45896Y-41359D01*
X45896Y-41141D01*
X45813Y-40940D01*
X45659Y-40786D01*
X45570Y-40750D01*
X45659Y-40713D01*
X45813Y-40559D01*
X45896Y-40359D01*
X45896Y-40141D01*
X45813Y-39940D01*
X45659Y-39786D01*
X45570Y-39750D01*
X45659Y-39713D01*
X45813Y-39559D01*
X45817Y-39550D01*
X47750Y-39550D01*
X47750Y-39912D01*
X47606Y-39912D01*
X47514Y-39950D01*
X47444Y-40020D01*
X47406Y-40112D01*
X47406Y-40212D01*
X47406Y-40645D01*
X47444Y-40737D01*
X47514Y-40807D01*
X47606Y-40845D01*
X47705Y-40845D01*
X47769Y-40845D01*
X47772Y-40860D01*
X47837Y-40957D01*
X47935Y-41022D01*
X48009Y-41037D01*
X48025Y-41054D01*
X48025Y-41054D01*
X47999Y-41054D01*
X47999Y-41116D01*
X47937Y-41054D01*
X47705Y-41054D01*
X47606Y-41054D01*
X47514Y-41092D01*
X47444Y-41162D01*
X47406Y-41254D01*
X47406Y-41408D01*
X47468Y-41470D01*
X48000Y-41470D01*
X48000Y-41462D01*
X48100Y-41462D01*
X48100Y-41470D01*
X48107Y-41470D01*
X48107Y-41570D01*
X48100Y-41570D01*
X48000Y-41570D01*
X47468Y-41570D01*
X47406Y-41633D01*
X47406Y-41786D01*
X47444Y-41878D01*
X47514Y-41949D01*
X47606Y-41987D01*
X47705Y-41987D01*
X47937Y-41987D01*
X48000Y-41924D01*
X48000Y-41570D01*
X48100Y-41570D01*
X48100Y-41924D01*
X48162Y-41987D01*
X48394Y-41987D01*
X48461Y-41987D01*
X48580Y-42105D01*
X48677Y-42171D01*
X48792Y-42193D01*
X49366Y-42193D01*
X49480Y-42171D01*
X49578Y-42105D01*
X49706Y-41977D01*
X49706Y-41977D01*
X49771Y-41880D01*
X49777Y-41849D01*
X49792Y-41885D01*
X49862Y-41955D01*
X49954Y-41993D01*
X50108Y-41993D01*
X50170Y-41931D01*
X50170Y-41400D01*
X50162Y-41400D01*
X50162Y-41300D01*
X50170Y-41300D01*
X50170Y-41292D01*
X50270Y-41292D01*
X50270Y-41300D01*
X50624Y-41300D01*
X50687Y-41237D01*
X50687Y-41106D01*
X51131Y-41106D01*
X51237Y-41212D01*
X51335Y-41277D01*
X51414Y-41292D01*
X51446Y-41325D01*
X51415Y-41400D01*
X50624Y-41400D01*
X50270Y-41400D01*
X50270Y-41931D01*
X50333Y-41993D01*
X50486Y-41993D01*
X50578Y-41955D01*
X50649Y-41885D01*
X50687Y-41793D01*
X50687Y-41694D01*
X50687Y-41462D01*
X50624Y-41400D01*
X51415Y-41400D01*
X51412Y-41406D01*
X51412Y-41505D01*
X51412Y-42293D01*
X51450Y-42385D01*
X51520Y-42455D01*
X51612Y-42493D01*
X51712Y-42493D01*
X52145Y-42493D01*
X52237Y-42455D01*
X52307Y-42385D01*
X52345Y-42293D01*
X52345Y-42194D01*
X52345Y-41526D01*
X53216Y-40655D01*
X53281Y-40558D01*
X53304Y-40443D01*
X53304Y-39293D01*
X53308Y-39293D01*
X53370Y-39231D01*
X53370Y-38700D01*
X53362Y-38700D01*
X53362Y-38600D01*
X53370Y-38600D01*
X53370Y-38592D01*
X53470Y-38592D01*
X53470Y-38600D01*
X53824Y-38600D01*
X53887Y-38537D01*
X53887Y-38406D01*
X53925Y-38406D01*
G54D10*
G36*
X53686Y-35689D02*
X50837Y-38537D01*
X50772Y-38635D01*
X50750Y-38750D01*
X50750Y-39645D01*
X50680Y-39714D01*
X50642Y-39806D01*
X50642Y-39905D01*
X50642Y-40137D01*
X50585Y-40080D01*
X50493Y-40042D01*
X50394Y-40042D01*
X50118Y-40042D01*
X50049Y-40070D01*
X49981Y-40042D01*
X49882Y-40042D01*
X49810Y-40042D01*
X49606Y-39837D01*
X49606Y-39837D01*
X49600Y-39833D01*
X49600Y-39833D01*
X49600Y-39550D01*
X49562Y-39458D01*
X49491Y-39388D01*
X49399Y-39350D01*
X49300Y-39349D01*
X49100Y-39349D01*
X49008Y-39387D01*
X48938Y-39458D01*
X48900Y-39550D01*
X48899Y-39649D01*
X48899Y-39975D01*
X48867Y-40008D01*
X48801Y-40106D01*
X48779Y-40220D01*
X48779Y-40720D01*
X48721Y-40744D01*
X48650Y-40814D01*
X48646Y-40825D01*
X48606Y-40786D01*
X48655Y-40737D01*
X48693Y-40645D01*
X48693Y-40546D01*
X48693Y-40113D01*
X48655Y-40021D01*
X48585Y-39950D01*
X48493Y-39912D01*
X48394Y-39912D01*
X48350Y-39912D01*
X48350Y-39184D01*
X48350Y-38900D01*
X48399Y-38900D01*
X48491Y-38862D01*
X48561Y-38791D01*
X48599Y-38699D01*
X48600Y-38600D01*
X48600Y-37700D01*
X48562Y-37608D01*
X48491Y-37538D01*
X48399Y-37500D01*
X48300Y-37499D01*
X48100Y-37499D01*
X48008Y-37537D01*
X47938Y-37608D01*
X47900Y-37700D01*
X47899Y-37799D01*
X47899Y-38125D01*
X47837Y-38187D01*
X47772Y-38285D01*
X47750Y-38400D01*
X47750Y-38950D01*
X45817Y-38950D01*
X45813Y-38940D01*
X45659Y-38786D01*
X45459Y-38703D01*
X45241Y-38703D01*
X45040Y-38786D01*
X44886Y-38940D01*
X44852Y-39022D01*
X44828Y-38964D01*
X44733Y-38937D01*
X44420Y-39250D01*
X44426Y-39255D01*
X44355Y-39326D01*
X44350Y-39320D01*
X44344Y-39326D01*
X44273Y-39255D01*
X44279Y-39250D01*
X44273Y-39244D01*
X44344Y-39173D01*
X44350Y-39179D01*
X44662Y-38866D01*
X44635Y-38771D01*
X44622Y-38766D01*
X46783Y-36606D01*
X48512Y-36606D01*
X48512Y-36737D01*
X48575Y-36800D01*
X48929Y-36800D01*
X48929Y-36792D01*
X49029Y-36792D01*
X49029Y-36800D01*
X49037Y-36800D01*
X49037Y-36900D01*
X49029Y-36900D01*
X48929Y-36900D01*
X48575Y-36900D01*
X48512Y-36962D01*
X48512Y-37194D01*
X48512Y-37293D01*
X48550Y-37385D01*
X48621Y-37455D01*
X48713Y-37493D01*
X48866Y-37493D01*
X48929Y-37431D01*
X48929Y-36900D01*
X49029Y-36900D01*
X49029Y-37431D01*
X49091Y-37493D01*
X49245Y-37493D01*
X49337Y-37455D01*
X49407Y-37385D01*
X49445Y-37293D01*
X49445Y-37194D01*
X49445Y-36962D01*
X49383Y-36900D01*
X49445Y-36900D01*
X49445Y-36900D01*
X49445Y-36874D01*
X49462Y-36890D01*
X49464Y-36900D01*
X49477Y-36964D01*
X49542Y-37062D01*
X49639Y-37127D01*
X49654Y-37130D01*
X49654Y-37293D01*
X49692Y-37385D01*
X49762Y-37455D01*
X49820Y-37479D01*
X49820Y-38070D01*
X49843Y-38185D01*
X49899Y-38269D01*
X49899Y-38699D01*
X49937Y-38791D01*
X50008Y-38861D01*
X50100Y-38899D01*
X50199Y-38900D01*
X50399Y-38900D01*
X50491Y-38862D01*
X50561Y-38791D01*
X50599Y-38699D01*
X50600Y-38600D01*
X50600Y-37700D01*
X50562Y-37608D01*
X50491Y-37538D01*
X50420Y-37508D01*
X50420Y-37479D01*
X50478Y-37455D01*
X50549Y-37385D01*
X50587Y-37293D01*
X50587Y-37194D01*
X50587Y-37130D01*
X50602Y-37127D01*
X50699Y-37062D01*
X52072Y-35689D01*
X53686Y-35689D01*
X53686Y-35689D01*
G37*
G54D24*
X53686Y-35689D02*
X50837Y-38537D01*
X50772Y-38635D01*
X50750Y-38750D01*
X50750Y-39645D01*
X50680Y-39714D01*
X50642Y-39806D01*
X50642Y-39905D01*
X50642Y-40137D01*
X50585Y-40080D01*
X50493Y-40042D01*
X50394Y-40042D01*
X50118Y-40042D01*
X50049Y-40070D01*
X49981Y-40042D01*
X49882Y-40042D01*
X49810Y-40042D01*
X49606Y-39837D01*
X49606Y-39837D01*
X49600Y-39833D01*
X49600Y-39833D01*
X49600Y-39550D01*
X49562Y-39458D01*
X49491Y-39388D01*
X49399Y-39350D01*
X49300Y-39349D01*
X49100Y-39349D01*
X49008Y-39387D01*
X48938Y-39458D01*
X48900Y-39550D01*
X48899Y-39649D01*
X48899Y-39975D01*
X48867Y-40008D01*
X48801Y-40106D01*
X48779Y-40220D01*
X48779Y-40720D01*
X48721Y-40744D01*
X48650Y-40814D01*
X48646Y-40825D01*
X48606Y-40786D01*
X48655Y-40737D01*
X48693Y-40645D01*
X48693Y-40546D01*
X48693Y-40113D01*
X48655Y-40021D01*
X48585Y-39950D01*
X48493Y-39912D01*
X48394Y-39912D01*
X48350Y-39912D01*
X48350Y-39184D01*
X48350Y-38900D01*
X48399Y-38900D01*
X48491Y-38862D01*
X48561Y-38791D01*
X48599Y-38699D01*
X48600Y-38600D01*
X48600Y-37700D01*
X48562Y-37608D01*
X48491Y-37538D01*
X48399Y-37500D01*
X48300Y-37499D01*
X48100Y-37499D01*
X48008Y-37537D01*
X47938Y-37608D01*
X47900Y-37700D01*
X47899Y-37799D01*
X47899Y-38125D01*
X47837Y-38187D01*
X47772Y-38285D01*
X47750Y-38400D01*
X47750Y-38950D01*
X45817Y-38950D01*
X45813Y-38940D01*
X45659Y-38786D01*
X45459Y-38703D01*
X45241Y-38703D01*
X45040Y-38786D01*
X44886Y-38940D01*
X44852Y-39022D01*
X44828Y-38964D01*
X44733Y-38937D01*
X44420Y-39250D01*
X44426Y-39255D01*
X44355Y-39326D01*
X44350Y-39320D01*
X44344Y-39326D01*
X44273Y-39255D01*
X44279Y-39250D01*
X44273Y-39244D01*
X44344Y-39173D01*
X44350Y-39179D01*
X44662Y-38866D01*
X44635Y-38771D01*
X44622Y-38766D01*
X46783Y-36606D01*
X48512Y-36606D01*
X48512Y-36737D01*
X48575Y-36800D01*
X48929Y-36800D01*
X48929Y-36792D01*
X49029Y-36792D01*
X49029Y-36800D01*
X49037Y-36800D01*
X49037Y-36900D01*
X49029Y-36900D01*
X48929Y-36900D01*
X48575Y-36900D01*
X48512Y-36962D01*
X48512Y-37194D01*
X48512Y-37293D01*
X48550Y-37385D01*
X48621Y-37455D01*
X48713Y-37493D01*
X48866Y-37493D01*
X48929Y-37431D01*
X48929Y-36900D01*
X49029Y-36900D01*
X49029Y-37431D01*
X49091Y-37493D01*
X49245Y-37493D01*
X49337Y-37455D01*
X49407Y-37385D01*
X49445Y-37293D01*
X49445Y-37194D01*
X49445Y-36962D01*
X49383Y-36900D01*
X49445Y-36900D01*
X49445Y-36900D01*
X49445Y-36874D01*
X49462Y-36890D01*
X49464Y-36900D01*
X49477Y-36964D01*
X49542Y-37062D01*
X49639Y-37127D01*
X49654Y-37130D01*
X49654Y-37293D01*
X49692Y-37385D01*
X49762Y-37455D01*
X49820Y-37479D01*
X49820Y-38070D01*
X49843Y-38185D01*
X49899Y-38269D01*
X49899Y-38699D01*
X49937Y-38791D01*
X50008Y-38861D01*
X50100Y-38899D01*
X50199Y-38900D01*
X50399Y-38900D01*
X50491Y-38862D01*
X50561Y-38791D01*
X50599Y-38699D01*
X50600Y-38600D01*
X50600Y-37700D01*
X50562Y-37608D01*
X50491Y-37538D01*
X50420Y-37508D01*
X50420Y-37479D01*
X50478Y-37455D01*
X50549Y-37385D01*
X50587Y-37293D01*
X50587Y-37194D01*
X50587Y-37130D01*
X50602Y-37127D01*
X50699Y-37062D01*
X52072Y-35689D01*
X53686Y-35689D01*
G54D10*
G36*
X54755Y-34673D02*
X54826Y-34744D01*
X54820Y-34750D01*
X54826Y-34755D01*
X54755Y-34826D01*
X54750Y-34820D01*
X54744Y-34826D01*
X54673Y-34755D01*
X54679Y-34750D01*
X54673Y-34744D01*
X54744Y-34673D01*
X54750Y-34679D01*
X54755Y-34673D01*
X54755Y-34673D01*
G37*
G54D24*
X54755Y-34673D02*
X54826Y-34744D01*
X54820Y-34750D01*
X54826Y-34755D01*
X54755Y-34826D01*
X54750Y-34820D01*
X54744Y-34826D01*
X54673Y-34755D01*
X54679Y-34750D01*
X54673Y-34744D01*
X54744Y-34673D01*
X54750Y-34679D01*
X54755Y-34673D01*
G54D10*
G36*
X73200Y-33700D02*
X73200Y-34023D01*
X72172Y-34023D01*
X70172Y-34023D01*
X66672Y-34023D01*
X64672Y-34023D01*
X64385Y-34031D01*
X64158Y-34126D01*
X64110Y-34239D01*
X64180Y-34310D01*
X64039Y-34310D01*
X63926Y-34358D01*
X63823Y-34627D01*
X63831Y-34914D01*
X63926Y-35141D01*
X64039Y-35189D01*
X64479Y-34750D01*
X64039Y-34310D01*
X64180Y-34310D01*
X64550Y-34679D01*
X64989Y-34239D01*
X64941Y-34126D01*
X64672Y-34023D01*
X66672Y-34023D01*
X66385Y-34031D01*
X66158Y-34126D01*
X66110Y-34239D01*
X66550Y-34679D01*
X66989Y-34239D01*
X66941Y-34126D01*
X66672Y-34023D01*
X70172Y-34023D01*
X69885Y-34031D01*
X69658Y-34126D01*
X69610Y-34239D01*
X69680Y-34310D01*
X69539Y-34310D01*
X67060Y-34310D01*
X66620Y-34750D01*
X67060Y-35189D01*
X67173Y-35141D01*
X67276Y-34872D01*
X67268Y-34585D01*
X67173Y-34358D01*
X67060Y-34310D01*
X69539Y-34310D01*
X69426Y-34358D01*
X69323Y-34627D01*
X69331Y-34914D01*
X69426Y-35141D01*
X69539Y-35189D01*
X69979Y-34750D01*
X69539Y-34310D01*
X69680Y-34310D01*
X70050Y-34679D01*
X70489Y-34239D01*
X70441Y-34126D01*
X70172Y-34023D01*
X72172Y-34023D01*
X71885Y-34031D01*
X71658Y-34126D01*
X71610Y-34239D01*
X72050Y-34679D01*
X72489Y-34239D01*
X72441Y-34126D01*
X72172Y-34023D01*
X73200Y-34023D01*
X73200Y-34310D01*
X72560Y-34310D01*
X72120Y-34750D01*
X72560Y-35189D01*
X72673Y-35141D01*
X72776Y-34872D01*
X72768Y-34585D01*
X72673Y-34358D01*
X72560Y-34310D01*
X73200Y-34310D01*
X73200Y-36310D01*
X72560Y-36310D01*
X72120Y-36750D01*
X72191Y-36820D01*
X72050Y-36820D01*
X71610Y-37260D01*
X71658Y-37373D01*
X71927Y-37476D01*
X72214Y-37468D01*
X72441Y-37373D01*
X72489Y-37260D01*
X72050Y-36820D01*
X72191Y-36820D01*
X72560Y-37189D01*
X72673Y-37141D01*
X72776Y-36872D01*
X72768Y-36585D01*
X72673Y-36358D01*
X72560Y-36310D01*
X73200Y-36310D01*
X73200Y-38923D01*
X72172Y-38923D01*
X70172Y-38923D01*
X69885Y-38931D01*
X69658Y-39026D01*
X69610Y-39139D01*
X70050Y-39579D01*
X70489Y-39139D01*
X70441Y-39026D01*
X70172Y-38923D01*
X72172Y-38923D01*
X71885Y-38931D01*
X71658Y-39026D01*
X71610Y-39139D01*
X72050Y-39579D01*
X72489Y-39139D01*
X72441Y-39026D01*
X72172Y-38923D01*
X73200Y-38923D01*
X73200Y-39210D01*
X72560Y-39210D01*
X72120Y-39650D01*
X72560Y-40089D01*
X72673Y-40041D01*
X72776Y-39772D01*
X72768Y-39485D01*
X72673Y-39258D01*
X72560Y-39210D01*
X73200Y-39210D01*
X73200Y-47110D01*
X72460Y-47110D01*
X72020Y-47550D01*
X72091Y-47620D01*
X71950Y-47620D01*
X71510Y-48060D01*
X71558Y-48173D01*
X71827Y-48276D01*
X72114Y-48268D01*
X72341Y-48173D01*
X72389Y-48060D01*
X71950Y-47620D01*
X72091Y-47620D01*
X72460Y-47989D01*
X72573Y-47941D01*
X72676Y-47672D01*
X72668Y-47385D01*
X72573Y-47158D01*
X72460Y-47110D01*
X73200Y-47110D01*
X73200Y-48400D01*
X42500Y-48400D01*
X42500Y-33700D01*
X52844Y-33700D01*
X52787Y-33737D01*
X50775Y-35750D01*
X46550Y-35750D01*
X46435Y-35772D01*
X46337Y-35837D01*
X43437Y-38737D01*
X43372Y-38835D01*
X43350Y-38950D01*
X43350Y-42650D01*
X43372Y-42764D01*
X43437Y-42862D01*
X43803Y-43227D01*
X43803Y-43358D01*
X43886Y-43559D01*
X44040Y-43713D01*
X44240Y-43796D01*
X44458Y-43796D01*
X44659Y-43713D01*
X44813Y-43559D01*
X44849Y-43470D01*
X44886Y-43559D01*
X45040Y-43713D01*
X45240Y-43796D01*
X45458Y-43796D01*
X45659Y-43713D01*
X45813Y-43559D01*
X45817Y-43550D01*
X47425Y-43550D01*
X50707Y-46831D01*
X50685Y-46831D01*
X50458Y-46926D01*
X50410Y-47039D01*
X50480Y-47110D01*
X50339Y-47110D01*
X50226Y-47158D01*
X50123Y-47427D01*
X50131Y-47714D01*
X50226Y-47941D01*
X50339Y-47989D01*
X50779Y-47550D01*
X50339Y-47110D01*
X50480Y-47110D01*
X50850Y-47479D01*
X50855Y-47473D01*
X50926Y-47544D01*
X50920Y-47550D01*
X50991Y-47620D01*
X50850Y-47620D01*
X50410Y-48060D01*
X50458Y-48173D01*
X50727Y-48276D01*
X51014Y-48268D01*
X51241Y-48173D01*
X51289Y-48060D01*
X50850Y-47620D01*
X50991Y-47620D01*
X51360Y-47989D01*
X51473Y-47941D01*
X51576Y-47672D01*
X51570Y-47481D01*
X52125Y-47481D01*
X52131Y-47714D01*
X52226Y-47941D01*
X52339Y-47989D01*
X52779Y-47550D01*
X52773Y-47544D01*
X52844Y-47473D01*
X52850Y-47479D01*
X52855Y-47473D01*
X52926Y-47544D01*
X52920Y-47550D01*
X52991Y-47620D01*
X52850Y-47620D01*
X52410Y-48060D01*
X52458Y-48173D01*
X52727Y-48276D01*
X53014Y-48268D01*
X53241Y-48173D01*
X53289Y-48060D01*
X52850Y-47620D01*
X52991Y-47620D01*
X53360Y-47989D01*
X53473Y-47941D01*
X53576Y-47672D01*
X53568Y-47385D01*
X53494Y-47208D01*
X56106Y-47208D01*
X56023Y-47427D01*
X56031Y-47714D01*
X56126Y-47941D01*
X56239Y-47989D01*
X56679Y-47550D01*
X56673Y-47544D01*
X56744Y-47473D01*
X56750Y-47479D01*
X56755Y-47473D01*
X56826Y-47544D01*
X56820Y-47550D01*
X56891Y-47620D01*
X56750Y-47620D01*
X56310Y-48060D01*
X56358Y-48173D01*
X56627Y-48276D01*
X56914Y-48268D01*
X57141Y-48173D01*
X57189Y-48060D01*
X56750Y-47620D01*
X56891Y-47620D01*
X57260Y-47989D01*
X57373Y-47941D01*
X57476Y-47672D01*
X57470Y-47481D01*
X58000Y-47481D01*
X58025Y-47476D01*
X58031Y-47714D01*
X58126Y-47941D01*
X58239Y-47989D01*
X58679Y-47550D01*
X58673Y-47544D01*
X58744Y-47473D01*
X58750Y-47479D01*
X59189Y-47039D01*
X59141Y-46926D01*
X58872Y-46823D01*
X58675Y-46829D01*
X58681Y-46800D01*
X58681Y-46274D01*
X58914Y-46268D01*
X59141Y-46173D01*
X59189Y-46060D01*
X58750Y-45620D01*
X58744Y-45626D01*
X58673Y-45555D01*
X58679Y-45550D01*
X58673Y-45544D01*
X58744Y-45473D01*
X58750Y-45479D01*
X58755Y-45473D01*
X58826Y-45544D01*
X58820Y-45550D01*
X59260Y-45989D01*
X59373Y-45941D01*
X59476Y-45672D01*
X59468Y-45385D01*
X59418Y-45265D01*
X61246Y-47093D01*
X61271Y-47110D01*
X59260Y-47110D01*
X58820Y-47550D01*
X58891Y-47620D01*
X58750Y-47620D01*
X58310Y-48060D01*
X58358Y-48173D01*
X58627Y-48276D01*
X58914Y-48268D01*
X59141Y-48173D01*
X59189Y-48060D01*
X58750Y-47620D01*
X58891Y-47620D01*
X59260Y-47989D01*
X59373Y-47941D01*
X59476Y-47672D01*
X59468Y-47385D01*
X59373Y-47158D01*
X59260Y-47110D01*
X61271Y-47110D01*
X61343Y-47158D01*
X61458Y-47180D01*
X62617Y-47180D01*
X62523Y-47427D01*
X62531Y-47714D01*
X62626Y-47941D01*
X62739Y-47989D01*
X63179Y-47550D01*
X63173Y-47544D01*
X63244Y-47473D01*
X63250Y-47479D01*
X63255Y-47473D01*
X63326Y-47544D01*
X63320Y-47550D01*
X63391Y-47620D01*
X63250Y-47620D01*
X62810Y-48060D01*
X62858Y-48173D01*
X63127Y-48276D01*
X63414Y-48268D01*
X63641Y-48173D01*
X63689Y-48060D01*
X63250Y-47620D01*
X63391Y-47620D01*
X63760Y-47989D01*
X63873Y-47941D01*
X63976Y-47672D01*
X63971Y-47491D01*
X64525Y-47491D01*
X64531Y-47714D01*
X64626Y-47941D01*
X64739Y-47989D01*
X65179Y-47550D01*
X65173Y-47544D01*
X65244Y-47473D01*
X65250Y-47479D01*
X65255Y-47473D01*
X65326Y-47544D01*
X65320Y-47550D01*
X65391Y-47620D01*
X65250Y-47620D01*
X64810Y-48060D01*
X64858Y-48173D01*
X65127Y-48276D01*
X65414Y-48268D01*
X65641Y-48173D01*
X65689Y-48060D01*
X65250Y-47620D01*
X65391Y-47620D01*
X65760Y-47989D01*
X65873Y-47941D01*
X65976Y-47672D01*
X65971Y-47496D01*
X66636Y-48162D01*
X66734Y-48227D01*
X66848Y-48250D01*
X68651Y-48250D01*
X68766Y-48227D01*
X68863Y-48162D01*
X69255Y-47770D01*
X69326Y-47941D01*
X69439Y-47989D01*
X69879Y-47550D01*
X69873Y-47544D01*
X69944Y-47473D01*
X69950Y-47479D01*
X69955Y-47473D01*
X70026Y-47544D01*
X70020Y-47550D01*
X70091Y-47620D01*
X69950Y-47620D01*
X69510Y-48060D01*
X69558Y-48173D01*
X69827Y-48276D01*
X70114Y-48268D01*
X70341Y-48173D01*
X70389Y-48060D01*
X69950Y-47620D01*
X70091Y-47620D01*
X70460Y-47989D01*
X70573Y-47941D01*
X70676Y-47672D01*
X70670Y-47475D01*
X70699Y-47481D01*
X71202Y-47481D01*
X71225Y-47476D01*
X71231Y-47714D01*
X71326Y-47941D01*
X71439Y-47989D01*
X71879Y-47550D01*
X71873Y-47544D01*
X71944Y-47473D01*
X71950Y-47479D01*
X72389Y-47039D01*
X72341Y-46926D01*
X72072Y-46823D01*
X71981Y-46826D01*
X73013Y-45793D01*
X73013Y-45793D01*
X73078Y-45696D01*
X73101Y-45581D01*
X73101Y-45581D01*
X73101Y-41520D01*
X73101Y-41520D01*
X73078Y-41405D01*
X73078Y-41405D01*
X73013Y-41307D01*
X72077Y-40371D01*
X72214Y-40368D01*
X72441Y-40273D01*
X72489Y-40160D01*
X72050Y-39720D01*
X72044Y-39726D01*
X71973Y-39655D01*
X71979Y-39650D01*
X71539Y-39210D01*
X71426Y-39258D01*
X71323Y-39527D01*
X71329Y-39725D01*
X71301Y-39720D01*
X71301Y-39720D01*
X70774Y-39720D01*
X70768Y-39485D01*
X70673Y-39258D01*
X70560Y-39210D01*
X70120Y-39650D01*
X70126Y-39655D01*
X70055Y-39726D01*
X70050Y-39720D01*
X70044Y-39726D01*
X69973Y-39655D01*
X69979Y-39650D01*
X69539Y-39210D01*
X69426Y-39258D01*
X69323Y-39527D01*
X69325Y-39599D01*
X69331Y-39814D01*
X69400Y-39980D01*
X68390Y-39980D01*
X68390Y-39939D01*
X68327Y-39939D01*
X68390Y-39877D01*
X68390Y-39899D01*
X68389Y-39800D01*
X68351Y-39708D01*
X68281Y-39637D01*
X68189Y-39599D01*
X68152Y-39600D01*
X68090Y-39662D01*
X68090Y-39600D01*
X68084Y-39600D01*
X68087Y-39593D01*
X68087Y-39494D01*
X68087Y-38706D01*
X68049Y-38614D01*
X67979Y-38544D01*
X67887Y-38506D01*
X67787Y-38506D01*
X67418Y-38506D01*
X69340Y-36584D01*
X69323Y-36627D01*
X69331Y-36914D01*
X69426Y-37141D01*
X69539Y-37189D01*
X69979Y-36750D01*
X69973Y-36744D01*
X70044Y-36673D01*
X70050Y-36679D01*
X70055Y-36673D01*
X70126Y-36744D01*
X70120Y-36750D01*
X70191Y-36820D01*
X70050Y-36820D01*
X69610Y-37260D01*
X69658Y-37373D01*
X69927Y-37476D01*
X70214Y-37468D01*
X70441Y-37373D01*
X70489Y-37260D01*
X70050Y-36820D01*
X70191Y-36820D01*
X70560Y-37189D01*
X70673Y-37141D01*
X70776Y-36872D01*
X70768Y-36585D01*
X70682Y-36379D01*
X70905Y-36472D01*
X71193Y-36472D01*
X71418Y-36379D01*
X71323Y-36627D01*
X71331Y-36914D01*
X71426Y-37141D01*
X71539Y-37189D01*
X71979Y-36750D01*
X71973Y-36744D01*
X72044Y-36673D01*
X72050Y-36679D01*
X72489Y-36239D01*
X72441Y-36126D01*
X72172Y-36023D01*
X71885Y-36031D01*
X71679Y-36117D01*
X71772Y-35894D01*
X71772Y-35606D01*
X71679Y-35381D01*
X71927Y-35476D01*
X72214Y-35468D01*
X72441Y-35373D01*
X72489Y-35260D01*
X72050Y-34820D01*
X72044Y-34826D01*
X71973Y-34755D01*
X71979Y-34750D01*
X71539Y-34310D01*
X71426Y-34358D01*
X71323Y-34627D01*
X71331Y-34914D01*
X71417Y-35120D01*
X71194Y-35027D01*
X70906Y-35027D01*
X70681Y-35120D01*
X70776Y-34872D01*
X70768Y-34585D01*
X70673Y-34358D01*
X70560Y-34310D01*
X70120Y-34750D01*
X70126Y-34755D01*
X70055Y-34826D01*
X70050Y-34820D01*
X69610Y-35260D01*
X69658Y-35373D01*
X69858Y-35450D01*
X69750Y-35450D01*
X69635Y-35472D01*
X69537Y-35537D01*
X69537Y-35537D01*
X68765Y-36310D01*
X67060Y-36310D01*
X66620Y-36750D01*
X66691Y-36820D01*
X66550Y-36820D01*
X66110Y-37260D01*
X66158Y-37373D01*
X66427Y-37476D01*
X66714Y-37468D01*
X66941Y-37373D01*
X66989Y-37260D01*
X66550Y-36820D01*
X66691Y-36820D01*
X67060Y-37189D01*
X67173Y-37141D01*
X67276Y-36872D01*
X67268Y-36585D01*
X67173Y-36358D01*
X67060Y-36310D01*
X68765Y-36310D01*
X67575Y-37499D01*
X66400Y-37499D01*
X66112Y-37500D01*
X66050Y-37562D01*
X66050Y-37800D01*
X66637Y-37800D01*
X66700Y-37737D01*
X66700Y-37700D01*
X66662Y-37608D01*
X66591Y-37538D01*
X66499Y-37500D01*
X66400Y-37499D01*
X67575Y-37499D01*
X67175Y-37900D01*
X66637Y-37900D01*
X66050Y-37900D01*
X66050Y-38137D01*
X66112Y-38200D01*
X66400Y-38200D01*
X66499Y-38199D01*
X66591Y-38161D01*
X66662Y-38091D01*
X66700Y-37999D01*
X66700Y-37962D01*
X66637Y-37900D01*
X67175Y-37900D01*
X66837Y-38237D01*
X66772Y-38335D01*
X66750Y-38450D01*
X66750Y-38508D01*
X66745Y-38506D01*
X66213Y-38506D01*
X66121Y-38544D01*
X66050Y-38614D01*
X66012Y-38706D01*
X66012Y-38805D01*
X66012Y-39037D01*
X66075Y-39100D01*
X66429Y-39100D01*
X66429Y-38568D01*
X66366Y-38506D01*
X66213Y-38506D01*
X66745Y-38506D01*
X66591Y-38506D01*
X66529Y-38568D01*
X66529Y-39100D01*
X66537Y-39100D01*
X66537Y-39200D01*
X66529Y-39200D01*
X66529Y-39207D01*
X66429Y-39207D01*
X66429Y-39200D01*
X66075Y-39200D01*
X66012Y-39262D01*
X66012Y-39494D01*
X66012Y-39499D01*
X65500Y-39499D01*
X65408Y-39537D01*
X65338Y-39608D01*
X65300Y-39700D01*
X65299Y-39799D01*
X65299Y-39999D01*
X65337Y-40091D01*
X65352Y-40106D01*
X64745Y-40106D01*
X64591Y-40106D01*
X64529Y-40168D01*
X64529Y-40700D01*
X64883Y-40700D01*
X64945Y-40637D01*
X64945Y-40405D01*
X64945Y-40306D01*
X64907Y-40214D01*
X64837Y-40144D01*
X64745Y-40106D01*
X65352Y-40106D01*
X65353Y-40106D01*
X65262Y-40144D01*
X65192Y-40214D01*
X65154Y-40306D01*
X65154Y-40405D01*
X65154Y-41149D01*
X65025Y-41149D01*
X64945Y-41182D01*
X64945Y-41094D01*
X64945Y-40862D01*
X64883Y-40800D01*
X64529Y-40800D01*
X64529Y-41331D01*
X64591Y-41393D01*
X64745Y-41393D01*
X64825Y-41360D01*
X64824Y-41449D01*
X64824Y-41850D01*
X64193Y-41850D01*
X64193Y-41791D01*
X64131Y-41729D01*
X63600Y-41729D01*
X63600Y-41737D01*
X63500Y-41737D01*
X63500Y-41729D01*
X63492Y-41729D01*
X63492Y-41629D01*
X63500Y-41629D01*
X63500Y-41275D01*
X63437Y-41212D01*
X63205Y-41212D01*
X63106Y-41212D01*
X63014Y-41250D01*
X62944Y-41321D01*
X62906Y-41413D01*
X62906Y-41437D01*
X62834Y-41365D01*
X62834Y-41365D01*
X62736Y-41300D01*
X62622Y-41277D01*
X62622Y-41277D01*
X61472Y-41277D01*
X61357Y-41300D01*
X61259Y-41365D01*
X61259Y-41365D01*
X61093Y-41532D01*
X61093Y-41413D01*
X61055Y-41321D01*
X60985Y-41250D01*
X60893Y-41212D01*
X60794Y-41212D01*
X60562Y-41212D01*
X60500Y-41275D01*
X60500Y-41629D01*
X60507Y-41629D01*
X60507Y-41729D01*
X60500Y-41729D01*
X60500Y-41737D01*
X60400Y-41737D01*
X60400Y-41729D01*
X60392Y-41729D01*
X60392Y-41629D01*
X60400Y-41629D01*
X60400Y-41275D01*
X60337Y-41212D01*
X60105Y-41212D01*
X60050Y-41212D01*
X60050Y-39595D01*
X60357Y-39287D01*
X60843Y-39287D01*
X60935Y-39249D01*
X61005Y-39179D01*
X61017Y-39150D01*
X61022Y-39150D01*
X61062Y-39190D01*
X61176Y-39190D01*
X61200Y-39199D01*
X61299Y-39200D01*
X61579Y-39200D01*
X61603Y-39190D01*
X61717Y-39190D01*
X61780Y-39127D01*
X61780Y-39090D01*
X61761Y-39045D01*
X61779Y-38999D01*
X61780Y-38900D01*
X61780Y-38700D01*
X61761Y-38655D01*
X61780Y-38609D01*
X61780Y-38572D01*
X61717Y-38510D01*
X61603Y-38510D01*
X61579Y-38500D01*
X61480Y-38499D01*
X61332Y-38499D01*
X61332Y-38410D01*
X61340Y-38410D01*
X61340Y-38172D01*
X61277Y-38110D01*
X61299Y-38109D01*
X61200Y-38110D01*
X61108Y-38148D01*
X61037Y-38218D01*
X60999Y-38310D01*
X61000Y-38347D01*
X61062Y-38409D01*
X61000Y-38409D01*
X61000Y-38457D01*
X60935Y-38392D01*
X60843Y-38354D01*
X60744Y-38354D01*
X59956Y-38354D01*
X59864Y-38392D01*
X59850Y-38407D01*
X59850Y-38092D01*
X59864Y-38107D01*
X59956Y-38145D01*
X60055Y-38145D01*
X60287Y-38145D01*
X60350Y-38083D01*
X60350Y-37729D01*
X60342Y-37729D01*
X60342Y-37629D01*
X60350Y-37629D01*
X60350Y-37621D01*
X60450Y-37621D01*
X60450Y-37629D01*
X60981Y-37629D01*
X61018Y-37592D01*
X61154Y-37729D01*
X60981Y-37729D01*
X60450Y-37729D01*
X60450Y-38083D01*
X60512Y-38145D01*
X60744Y-38145D01*
X60843Y-38145D01*
X60935Y-38107D01*
X61005Y-38037D01*
X61043Y-37945D01*
X61043Y-37791D01*
X60981Y-37729D01*
X61154Y-37729D01*
X61535Y-38110D01*
X61480Y-38109D01*
X61502Y-38110D01*
X61440Y-38172D01*
X61440Y-38410D01*
X61717Y-38410D01*
X61776Y-38350D01*
X61919Y-38494D01*
X61919Y-38609D01*
X61938Y-38654D01*
X61920Y-38700D01*
X61919Y-38799D01*
X61919Y-38999D01*
X61938Y-39044D01*
X61920Y-39090D01*
X61919Y-39189D01*
X61919Y-39389D01*
X61957Y-39481D01*
X62000Y-39523D01*
X62000Y-39545D01*
X61993Y-39542D01*
X61894Y-39542D01*
X61681Y-39542D01*
X61742Y-39481D01*
X61780Y-39389D01*
X61780Y-39352D01*
X61717Y-39290D01*
X61440Y-39290D01*
X61440Y-39297D01*
X61340Y-39297D01*
X61340Y-39290D01*
X61062Y-39290D01*
X61000Y-39352D01*
X60999Y-39389D01*
X61037Y-39481D01*
X61101Y-39544D01*
X61014Y-39580D01*
X60944Y-39651D01*
X60906Y-39743D01*
X60906Y-39837D01*
X60968Y-39900D01*
X61244Y-39900D01*
X61244Y-39892D01*
X61344Y-39892D01*
X61344Y-39900D01*
X61351Y-39900D01*
X61351Y-40000D01*
X61344Y-40000D01*
X61244Y-40000D01*
X60968Y-40000D01*
X60906Y-40062D01*
X60906Y-40156D01*
X60944Y-40248D01*
X60960Y-40265D01*
X60925Y-40350D01*
X60924Y-40449D01*
X60925Y-40537D01*
X60987Y-40600D01*
X61250Y-40600D01*
X61250Y-40212D01*
X61244Y-40206D01*
X61244Y-40000D01*
X61344Y-40000D01*
X61344Y-40294D01*
X61350Y-40300D01*
X61350Y-40600D01*
X61357Y-40600D01*
X61357Y-40700D01*
X61350Y-40700D01*
X61250Y-40700D01*
X60987Y-40700D01*
X60925Y-40762D01*
X60924Y-40850D01*
X60925Y-40949D01*
X60963Y-41041D01*
X61033Y-41112D01*
X61125Y-41150D01*
X61187Y-41150D01*
X61250Y-41087D01*
X61250Y-40700D01*
X61350Y-40700D01*
X61350Y-41087D01*
X61412Y-41150D01*
X61474Y-41150D01*
X61550Y-41118D01*
X61625Y-41149D01*
X61724Y-41150D01*
X61974Y-41150D01*
X62050Y-41118D01*
X62125Y-41149D01*
X62224Y-41150D01*
X62474Y-41150D01*
X62550Y-41118D01*
X62625Y-41149D01*
X62724Y-41150D01*
X62974Y-41150D01*
X63066Y-41112D01*
X63095Y-41082D01*
X63106Y-41087D01*
X63205Y-41087D01*
X63993Y-41087D01*
X64012Y-41079D01*
X64012Y-41094D01*
X64012Y-41193D01*
X64026Y-41226D01*
X63993Y-41212D01*
X63894Y-41212D01*
X63662Y-41212D01*
X63600Y-41275D01*
X63600Y-41629D01*
X64131Y-41629D01*
X64193Y-41566D01*
X64193Y-41413D01*
X64180Y-41380D01*
X64213Y-41393D01*
X64366Y-41393D01*
X64429Y-41331D01*
X64429Y-40800D01*
X64421Y-40800D01*
X64421Y-40700D01*
X64429Y-40700D01*
X64429Y-40168D01*
X64392Y-40131D01*
X65262Y-39262D01*
X65262Y-39262D01*
X65327Y-39164D01*
X65350Y-39050D01*
X65350Y-38103D01*
X65408Y-38161D01*
X65500Y-38199D01*
X65599Y-38200D01*
X65887Y-38200D01*
X65950Y-38137D01*
X65950Y-37900D01*
X65942Y-37900D01*
X65942Y-37800D01*
X65950Y-37800D01*
X65950Y-37562D01*
X65887Y-37500D01*
X65599Y-37499D01*
X65524Y-37500D01*
X65762Y-37262D01*
X65762Y-37262D01*
X65827Y-37164D01*
X65850Y-37050D01*
X65850Y-36957D01*
X65926Y-37141D01*
X66039Y-37189D01*
X66479Y-36750D01*
X66473Y-36744D01*
X66544Y-36673D01*
X66550Y-36679D01*
X66989Y-36239D01*
X66941Y-36126D01*
X66672Y-36023D01*
X66385Y-36031D01*
X66179Y-36117D01*
X66272Y-35894D01*
X66272Y-35606D01*
X66179Y-35381D01*
X66427Y-35476D01*
X66714Y-35468D01*
X66941Y-35373D01*
X66989Y-35260D01*
X66550Y-34820D01*
X66544Y-34826D01*
X66473Y-34755D01*
X66479Y-34750D01*
X66039Y-34310D01*
X65926Y-34358D01*
X65823Y-34627D01*
X65831Y-34914D01*
X65917Y-35120D01*
X65694Y-35027D01*
X65406Y-35027D01*
X65181Y-35120D01*
X65276Y-34872D01*
X65268Y-34585D01*
X65173Y-34358D01*
X65060Y-34310D01*
X64620Y-34750D01*
X64626Y-34755D01*
X64555Y-34826D01*
X64550Y-34820D01*
X64110Y-35260D01*
X64158Y-35373D01*
X64427Y-35476D01*
X64714Y-35468D01*
X64920Y-35382D01*
X64827Y-35605D01*
X64827Y-35893D01*
X64920Y-36118D01*
X64672Y-36023D01*
X64385Y-36031D01*
X64158Y-36126D01*
X64110Y-36239D01*
X64180Y-36310D01*
X64039Y-36310D01*
X63926Y-36358D01*
X63848Y-36562D01*
X63494Y-36562D01*
X62805Y-36562D01*
X62706Y-36562D01*
X62614Y-36600D01*
X62544Y-36671D01*
X62506Y-36763D01*
X62506Y-36916D01*
X62568Y-36979D01*
X63100Y-36979D01*
X63100Y-36625D01*
X63037Y-36562D01*
X62805Y-36562D01*
X63494Y-36562D01*
X63262Y-36562D01*
X63200Y-36625D01*
X63200Y-36979D01*
X63731Y-36979D01*
X63793Y-36916D01*
X63793Y-36763D01*
X63755Y-36671D01*
X63685Y-36600D01*
X63593Y-36562D01*
X63494Y-36562D01*
X63848Y-36562D01*
X63823Y-36627D01*
X63831Y-36914D01*
X63900Y-37079D01*
X63731Y-37079D01*
X63200Y-37079D01*
X63200Y-37433D01*
X63262Y-37495D01*
X63494Y-37495D01*
X63593Y-37495D01*
X63685Y-37457D01*
X63755Y-37387D01*
X63793Y-37295D01*
X63793Y-37141D01*
X63731Y-37079D01*
X63900Y-37079D01*
X63926Y-37141D01*
X64039Y-37189D01*
X64479Y-36750D01*
X64039Y-36310D01*
X64180Y-36310D01*
X64550Y-36679D01*
X64555Y-36673D01*
X64626Y-36744D01*
X64620Y-36750D01*
X64626Y-36755D01*
X64555Y-36826D01*
X64550Y-36820D01*
X64110Y-37260D01*
X64158Y-37373D01*
X64427Y-37476D01*
X64714Y-37468D01*
X64770Y-37444D01*
X64750Y-37550D01*
X64750Y-38546D01*
X64741Y-38538D01*
X64649Y-38500D01*
X64550Y-38499D01*
X64327Y-38499D01*
X64374Y-38384D01*
X64375Y-38215D01*
X64310Y-38059D01*
X64191Y-37939D01*
X64034Y-37875D01*
X63865Y-37874D01*
X63857Y-37878D01*
X63857Y-37878D01*
X63820Y-37870D01*
X63820Y-37870D01*
X63779Y-37870D01*
X63755Y-37812D01*
X63685Y-37742D01*
X63593Y-37704D01*
X63494Y-37704D01*
X62928Y-37704D01*
X62719Y-37495D01*
X62805Y-37495D01*
X63037Y-37495D01*
X63100Y-37433D01*
X63100Y-37079D01*
X62568Y-37079D01*
X62518Y-37129D01*
X62510Y-37109D01*
X62391Y-36989D01*
X62234Y-36925D01*
X62065Y-36924D01*
X61909Y-36989D01*
X61789Y-37108D01*
X61725Y-37265D01*
X61724Y-37434D01*
X61736Y-37462D01*
X61112Y-36837D01*
X61112Y-36837D01*
X61014Y-36772D01*
X60900Y-36750D01*
X60900Y-36750D01*
X59950Y-36750D01*
X59949Y-36750D01*
X59835Y-36772D01*
X59737Y-36837D01*
X59737Y-36837D01*
X59337Y-37237D01*
X59272Y-37335D01*
X59252Y-37437D01*
X59193Y-37412D01*
X59094Y-37412D01*
X58405Y-37412D01*
X58306Y-37412D01*
X58214Y-37450D01*
X58144Y-37521D01*
X58106Y-37613D01*
X58106Y-37766D01*
X58168Y-37829D01*
X58700Y-37829D01*
X58700Y-37475D01*
X58637Y-37412D01*
X58405Y-37412D01*
X59094Y-37412D01*
X58862Y-37412D01*
X58800Y-37475D01*
X58800Y-37829D01*
X58807Y-37829D01*
X58807Y-37929D01*
X58800Y-37929D01*
X58700Y-37929D01*
X58168Y-37929D01*
X58106Y-37991D01*
X58106Y-38145D01*
X58144Y-38237D01*
X58214Y-38307D01*
X58306Y-38345D01*
X58405Y-38345D01*
X58637Y-38345D01*
X58700Y-38283D01*
X58700Y-37929D01*
X58800Y-37929D01*
X58800Y-38283D01*
X58862Y-38345D01*
X59094Y-38345D01*
X59193Y-38345D01*
X59250Y-38322D01*
X59250Y-38577D01*
X59193Y-38554D01*
X59094Y-38554D01*
X59030Y-38554D01*
X59027Y-38539D01*
X58962Y-38442D01*
X58864Y-38377D01*
X58750Y-38354D01*
X55015Y-38354D01*
X54425Y-37764D01*
X54425Y-37399D01*
X54627Y-37476D01*
X54914Y-37468D01*
X55141Y-37373D01*
X55189Y-37260D01*
X54750Y-36820D01*
X54744Y-36826D01*
X54673Y-36755D01*
X54679Y-36750D01*
X54673Y-36744D01*
X54744Y-36673D01*
X54750Y-36679D01*
X54755Y-36673D01*
X54826Y-36744D01*
X54820Y-36750D01*
X55260Y-37189D01*
X55373Y-37141D01*
X55476Y-36872D01*
X55470Y-36681D01*
X55999Y-36681D01*
X56025Y-36675D01*
X56031Y-36914D01*
X56126Y-37141D01*
X56239Y-37189D01*
X56679Y-36750D01*
X56673Y-36744D01*
X56744Y-36673D01*
X56750Y-36679D01*
X57189Y-36239D01*
X57141Y-36126D01*
X56872Y-36023D01*
X56670Y-36029D01*
X56674Y-36005D01*
X56674Y-35494D01*
X56674Y-35494D01*
X56671Y-35475D01*
X56914Y-35468D01*
X57141Y-35373D01*
X57189Y-35260D01*
X56750Y-34820D01*
X56744Y-34826D01*
X56673Y-34755D01*
X56679Y-34750D01*
X56673Y-34744D01*
X56744Y-34673D01*
X56750Y-34679D01*
X56755Y-34673D01*
X56826Y-34744D01*
X56820Y-34750D01*
X57260Y-35189D01*
X57373Y-35141D01*
X57476Y-34872D01*
X57468Y-34585D01*
X57373Y-34358D01*
X57260Y-34310D01*
X57260Y-34310D01*
X57305Y-34265D01*
X57290Y-34250D01*
X58625Y-34250D01*
X58685Y-34310D01*
X60685Y-36310D01*
X57260Y-36310D01*
X56820Y-36750D01*
X56891Y-36820D01*
X56750Y-36820D01*
X56310Y-37260D01*
X56358Y-37373D01*
X56627Y-37476D01*
X56914Y-37468D01*
X57141Y-37373D01*
X57189Y-37260D01*
X56750Y-36820D01*
X56891Y-36820D01*
X57260Y-37189D01*
X57373Y-37141D01*
X57476Y-36872D01*
X57468Y-36585D01*
X57373Y-36358D01*
X57260Y-36310D01*
X60685Y-36310D01*
X60725Y-36349D01*
X60724Y-36434D01*
X60789Y-36590D01*
X60908Y-36710D01*
X61065Y-36774D01*
X61234Y-36775D01*
X61390Y-36710D01*
X61510Y-36591D01*
X61574Y-36434D01*
X61575Y-36265D01*
X61510Y-36109D01*
X61391Y-35989D01*
X61234Y-35925D01*
X61149Y-35924D01*
X58962Y-33737D01*
X58962Y-33737D01*
X58905Y-33700D01*
X73200Y-33700D01*
X73200Y-33700D01*
G37*
G54D24*
X73200Y-33700D02*
X73200Y-34023D01*
X72172Y-34023D01*
X70172Y-34023D01*
X66672Y-34023D01*
X64672Y-34023D01*
X64385Y-34031D01*
X64158Y-34126D01*
X64110Y-34239D01*
X64180Y-34310D01*
X64039Y-34310D01*
X63926Y-34358D01*
X63823Y-34627D01*
X63831Y-34914D01*
X63926Y-35141D01*
X64039Y-35189D01*
X64479Y-34750D01*
X64039Y-34310D01*
X64180Y-34310D01*
X64550Y-34679D01*
X64989Y-34239D01*
X64941Y-34126D01*
X64672Y-34023D01*
X66672Y-34023D01*
X66385Y-34031D01*
X66158Y-34126D01*
X66110Y-34239D01*
X66550Y-34679D01*
X66989Y-34239D01*
X66941Y-34126D01*
X66672Y-34023D01*
X70172Y-34023D01*
X69885Y-34031D01*
X69658Y-34126D01*
X69610Y-34239D01*
X69680Y-34310D01*
X69539Y-34310D01*
X67060Y-34310D01*
X66620Y-34750D01*
X67060Y-35189D01*
X67173Y-35141D01*
X67276Y-34872D01*
X67268Y-34585D01*
X67173Y-34358D01*
X67060Y-34310D01*
X69539Y-34310D01*
X69426Y-34358D01*
X69323Y-34627D01*
X69331Y-34914D01*
X69426Y-35141D01*
X69539Y-35189D01*
X69979Y-34750D01*
X69539Y-34310D01*
X69680Y-34310D01*
X70050Y-34679D01*
X70489Y-34239D01*
X70441Y-34126D01*
X70172Y-34023D01*
X72172Y-34023D01*
X71885Y-34031D01*
X71658Y-34126D01*
X71610Y-34239D01*
X72050Y-34679D01*
X72489Y-34239D01*
X72441Y-34126D01*
X72172Y-34023D01*
X73200Y-34023D01*
X73200Y-34310D01*
X72560Y-34310D01*
X72120Y-34750D01*
X72560Y-35189D01*
X72673Y-35141D01*
X72776Y-34872D01*
X72768Y-34585D01*
X72673Y-34358D01*
X72560Y-34310D01*
X73200Y-34310D01*
X73200Y-36310D01*
X72560Y-36310D01*
X72120Y-36750D01*
X72191Y-36820D01*
X72050Y-36820D01*
X71610Y-37260D01*
X71658Y-37373D01*
X71927Y-37476D01*
X72214Y-37468D01*
X72441Y-37373D01*
X72489Y-37260D01*
X72050Y-36820D01*
X72191Y-36820D01*
X72560Y-37189D01*
X72673Y-37141D01*
X72776Y-36872D01*
X72768Y-36585D01*
X72673Y-36358D01*
X72560Y-36310D01*
X73200Y-36310D01*
X73200Y-38923D01*
X72172Y-38923D01*
X70172Y-38923D01*
X69885Y-38931D01*
X69658Y-39026D01*
X69610Y-39139D01*
X70050Y-39579D01*
X70489Y-39139D01*
X70441Y-39026D01*
X70172Y-38923D01*
X72172Y-38923D01*
X71885Y-38931D01*
X71658Y-39026D01*
X71610Y-39139D01*
X72050Y-39579D01*
X72489Y-39139D01*
X72441Y-39026D01*
X72172Y-38923D01*
X73200Y-38923D01*
X73200Y-39210D01*
X72560Y-39210D01*
X72120Y-39650D01*
X72560Y-40089D01*
X72673Y-40041D01*
X72776Y-39772D01*
X72768Y-39485D01*
X72673Y-39258D01*
X72560Y-39210D01*
X73200Y-39210D01*
X73200Y-47110D01*
X72460Y-47110D01*
X72020Y-47550D01*
X72091Y-47620D01*
X71950Y-47620D01*
X71510Y-48060D01*
X71558Y-48173D01*
X71827Y-48276D01*
X72114Y-48268D01*
X72341Y-48173D01*
X72389Y-48060D01*
X71950Y-47620D01*
X72091Y-47620D01*
X72460Y-47989D01*
X72573Y-47941D01*
X72676Y-47672D01*
X72668Y-47385D01*
X72573Y-47158D01*
X72460Y-47110D01*
X73200Y-47110D01*
X73200Y-48400D01*
X42500Y-48400D01*
X42500Y-33700D01*
X52844Y-33700D01*
X52787Y-33737D01*
X50775Y-35750D01*
X46550Y-35750D01*
X46435Y-35772D01*
X46337Y-35837D01*
X43437Y-38737D01*
X43372Y-38835D01*
X43350Y-38950D01*
X43350Y-42650D01*
X43372Y-42764D01*
X43437Y-42862D01*
X43803Y-43227D01*
X43803Y-43358D01*
X43886Y-43559D01*
X44040Y-43713D01*
X44240Y-43796D01*
X44458Y-43796D01*
X44659Y-43713D01*
X44813Y-43559D01*
X44849Y-43470D01*
X44886Y-43559D01*
X45040Y-43713D01*
X45240Y-43796D01*
X45458Y-43796D01*
X45659Y-43713D01*
X45813Y-43559D01*
X45817Y-43550D01*
X47425Y-43550D01*
X50707Y-46831D01*
X50685Y-46831D01*
X50458Y-46926D01*
X50410Y-47039D01*
X50480Y-47110D01*
X50339Y-47110D01*
X50226Y-47158D01*
X50123Y-47427D01*
X50131Y-47714D01*
X50226Y-47941D01*
X50339Y-47989D01*
X50779Y-47550D01*
X50339Y-47110D01*
X50480Y-47110D01*
X50850Y-47479D01*
X50855Y-47473D01*
X50926Y-47544D01*
X50920Y-47550D01*
X50991Y-47620D01*
X50850Y-47620D01*
X50410Y-48060D01*
X50458Y-48173D01*
X50727Y-48276D01*
X51014Y-48268D01*
X51241Y-48173D01*
X51289Y-48060D01*
X50850Y-47620D01*
X50991Y-47620D01*
X51360Y-47989D01*
X51473Y-47941D01*
X51576Y-47672D01*
X51570Y-47481D01*
X52125Y-47481D01*
X52131Y-47714D01*
X52226Y-47941D01*
X52339Y-47989D01*
X52779Y-47550D01*
X52773Y-47544D01*
X52844Y-47473D01*
X52850Y-47479D01*
X52855Y-47473D01*
X52926Y-47544D01*
X52920Y-47550D01*
X52991Y-47620D01*
X52850Y-47620D01*
X52410Y-48060D01*
X52458Y-48173D01*
X52727Y-48276D01*
X53014Y-48268D01*
X53241Y-48173D01*
X53289Y-48060D01*
X52850Y-47620D01*
X52991Y-47620D01*
X53360Y-47989D01*
X53473Y-47941D01*
X53576Y-47672D01*
X53568Y-47385D01*
X53494Y-47208D01*
X56106Y-47208D01*
X56023Y-47427D01*
X56031Y-47714D01*
X56126Y-47941D01*
X56239Y-47989D01*
X56679Y-47550D01*
X56673Y-47544D01*
X56744Y-47473D01*
X56750Y-47479D01*
X56755Y-47473D01*
X56826Y-47544D01*
X56820Y-47550D01*
X56891Y-47620D01*
X56750Y-47620D01*
X56310Y-48060D01*
X56358Y-48173D01*
X56627Y-48276D01*
X56914Y-48268D01*
X57141Y-48173D01*
X57189Y-48060D01*
X56750Y-47620D01*
X56891Y-47620D01*
X57260Y-47989D01*
X57373Y-47941D01*
X57476Y-47672D01*
X57470Y-47481D01*
X58000Y-47481D01*
X58025Y-47476D01*
X58031Y-47714D01*
X58126Y-47941D01*
X58239Y-47989D01*
X58679Y-47550D01*
X58673Y-47544D01*
X58744Y-47473D01*
X58750Y-47479D01*
X59189Y-47039D01*
X59141Y-46926D01*
X58872Y-46823D01*
X58675Y-46829D01*
X58681Y-46800D01*
X58681Y-46274D01*
X58914Y-46268D01*
X59141Y-46173D01*
X59189Y-46060D01*
X58750Y-45620D01*
X58744Y-45626D01*
X58673Y-45555D01*
X58679Y-45550D01*
X58673Y-45544D01*
X58744Y-45473D01*
X58750Y-45479D01*
X58755Y-45473D01*
X58826Y-45544D01*
X58820Y-45550D01*
X59260Y-45989D01*
X59373Y-45941D01*
X59476Y-45672D01*
X59468Y-45385D01*
X59418Y-45265D01*
X61246Y-47093D01*
X61271Y-47110D01*
X59260Y-47110D01*
X58820Y-47550D01*
X58891Y-47620D01*
X58750Y-47620D01*
X58310Y-48060D01*
X58358Y-48173D01*
X58627Y-48276D01*
X58914Y-48268D01*
X59141Y-48173D01*
X59189Y-48060D01*
X58750Y-47620D01*
X58891Y-47620D01*
X59260Y-47989D01*
X59373Y-47941D01*
X59476Y-47672D01*
X59468Y-47385D01*
X59373Y-47158D01*
X59260Y-47110D01*
X61271Y-47110D01*
X61343Y-47158D01*
X61458Y-47180D01*
X62617Y-47180D01*
X62523Y-47427D01*
X62531Y-47714D01*
X62626Y-47941D01*
X62739Y-47989D01*
X63179Y-47550D01*
X63173Y-47544D01*
X63244Y-47473D01*
X63250Y-47479D01*
X63255Y-47473D01*
X63326Y-47544D01*
X63320Y-47550D01*
X63391Y-47620D01*
X63250Y-47620D01*
X62810Y-48060D01*
X62858Y-48173D01*
X63127Y-48276D01*
X63414Y-48268D01*
X63641Y-48173D01*
X63689Y-48060D01*
X63250Y-47620D01*
X63391Y-47620D01*
X63760Y-47989D01*
X63873Y-47941D01*
X63976Y-47672D01*
X63971Y-47491D01*
X64525Y-47491D01*
X64531Y-47714D01*
X64626Y-47941D01*
X64739Y-47989D01*
X65179Y-47550D01*
X65173Y-47544D01*
X65244Y-47473D01*
X65250Y-47479D01*
X65255Y-47473D01*
X65326Y-47544D01*
X65320Y-47550D01*
X65391Y-47620D01*
X65250Y-47620D01*
X64810Y-48060D01*
X64858Y-48173D01*
X65127Y-48276D01*
X65414Y-48268D01*
X65641Y-48173D01*
X65689Y-48060D01*
X65250Y-47620D01*
X65391Y-47620D01*
X65760Y-47989D01*
X65873Y-47941D01*
X65976Y-47672D01*
X65971Y-47496D01*
X66636Y-48162D01*
X66734Y-48227D01*
X66848Y-48250D01*
X68651Y-48250D01*
X68766Y-48227D01*
X68863Y-48162D01*
X69255Y-47770D01*
X69326Y-47941D01*
X69439Y-47989D01*
X69879Y-47550D01*
X69873Y-47544D01*
X69944Y-47473D01*
X69950Y-47479D01*
X69955Y-47473D01*
X70026Y-47544D01*
X70020Y-47550D01*
X70091Y-47620D01*
X69950Y-47620D01*
X69510Y-48060D01*
X69558Y-48173D01*
X69827Y-48276D01*
X70114Y-48268D01*
X70341Y-48173D01*
X70389Y-48060D01*
X69950Y-47620D01*
X70091Y-47620D01*
X70460Y-47989D01*
X70573Y-47941D01*
X70676Y-47672D01*
X70670Y-47475D01*
X70699Y-47481D01*
X71202Y-47481D01*
X71225Y-47476D01*
X71231Y-47714D01*
X71326Y-47941D01*
X71439Y-47989D01*
X71879Y-47550D01*
X71873Y-47544D01*
X71944Y-47473D01*
X71950Y-47479D01*
X72389Y-47039D01*
X72341Y-46926D01*
X72072Y-46823D01*
X71981Y-46826D01*
X73013Y-45793D01*
X73013Y-45793D01*
X73078Y-45696D01*
X73101Y-45581D01*
X73101Y-45581D01*
X73101Y-41520D01*
X73101Y-41520D01*
X73078Y-41405D01*
X73078Y-41405D01*
X73013Y-41307D01*
X72077Y-40371D01*
X72214Y-40368D01*
X72441Y-40273D01*
X72489Y-40160D01*
X72050Y-39720D01*
X72044Y-39726D01*
X71973Y-39655D01*
X71979Y-39650D01*
X71539Y-39210D01*
X71426Y-39258D01*
X71323Y-39527D01*
X71329Y-39725D01*
X71301Y-39720D01*
X71301Y-39720D01*
X70774Y-39720D01*
X70768Y-39485D01*
X70673Y-39258D01*
X70560Y-39210D01*
X70120Y-39650D01*
X70126Y-39655D01*
X70055Y-39726D01*
X70050Y-39720D01*
X70044Y-39726D01*
X69973Y-39655D01*
X69979Y-39650D01*
X69539Y-39210D01*
X69426Y-39258D01*
X69323Y-39527D01*
X69325Y-39599D01*
X69331Y-39814D01*
X69400Y-39980D01*
X68390Y-39980D01*
X68390Y-39939D01*
X68327Y-39939D01*
X68390Y-39877D01*
X68390Y-39899D01*
X68389Y-39800D01*
X68351Y-39708D01*
X68281Y-39637D01*
X68189Y-39599D01*
X68152Y-39600D01*
X68090Y-39662D01*
X68090Y-39600D01*
X68084Y-39600D01*
X68087Y-39593D01*
X68087Y-39494D01*
X68087Y-38706D01*
X68049Y-38614D01*
X67979Y-38544D01*
X67887Y-38506D01*
X67787Y-38506D01*
X67418Y-38506D01*
X69340Y-36584D01*
X69323Y-36627D01*
X69331Y-36914D01*
X69426Y-37141D01*
X69539Y-37189D01*
X69979Y-36750D01*
X69973Y-36744D01*
X70044Y-36673D01*
X70050Y-36679D01*
X70055Y-36673D01*
X70126Y-36744D01*
X70120Y-36750D01*
X70191Y-36820D01*
X70050Y-36820D01*
X69610Y-37260D01*
X69658Y-37373D01*
X69927Y-37476D01*
X70214Y-37468D01*
X70441Y-37373D01*
X70489Y-37260D01*
X70050Y-36820D01*
X70191Y-36820D01*
X70560Y-37189D01*
X70673Y-37141D01*
X70776Y-36872D01*
X70768Y-36585D01*
X70682Y-36379D01*
X70905Y-36472D01*
X71193Y-36472D01*
X71418Y-36379D01*
X71323Y-36627D01*
X71331Y-36914D01*
X71426Y-37141D01*
X71539Y-37189D01*
X71979Y-36750D01*
X71973Y-36744D01*
X72044Y-36673D01*
X72050Y-36679D01*
X72489Y-36239D01*
X72441Y-36126D01*
X72172Y-36023D01*
X71885Y-36031D01*
X71679Y-36117D01*
X71772Y-35894D01*
X71772Y-35606D01*
X71679Y-35381D01*
X71927Y-35476D01*
X72214Y-35468D01*
X72441Y-35373D01*
X72489Y-35260D01*
X72050Y-34820D01*
X72044Y-34826D01*
X71973Y-34755D01*
X71979Y-34750D01*
X71539Y-34310D01*
X71426Y-34358D01*
X71323Y-34627D01*
X71331Y-34914D01*
X71417Y-35120D01*
X71194Y-35027D01*
X70906Y-35027D01*
X70681Y-35120D01*
X70776Y-34872D01*
X70768Y-34585D01*
X70673Y-34358D01*
X70560Y-34310D01*
X70120Y-34750D01*
X70126Y-34755D01*
X70055Y-34826D01*
X70050Y-34820D01*
X69610Y-35260D01*
X69658Y-35373D01*
X69858Y-35450D01*
X69750Y-35450D01*
X69635Y-35472D01*
X69537Y-35537D01*
X69537Y-35537D01*
X68765Y-36310D01*
X67060Y-36310D01*
X66620Y-36750D01*
X66691Y-36820D01*
X66550Y-36820D01*
X66110Y-37260D01*
X66158Y-37373D01*
X66427Y-37476D01*
X66714Y-37468D01*
X66941Y-37373D01*
X66989Y-37260D01*
X66550Y-36820D01*
X66691Y-36820D01*
X67060Y-37189D01*
X67173Y-37141D01*
X67276Y-36872D01*
X67268Y-36585D01*
X67173Y-36358D01*
X67060Y-36310D01*
X68765Y-36310D01*
X67575Y-37499D01*
X66400Y-37499D01*
X66112Y-37500D01*
X66050Y-37562D01*
X66050Y-37800D01*
X66637Y-37800D01*
X66700Y-37737D01*
X66700Y-37700D01*
X66662Y-37608D01*
X66591Y-37538D01*
X66499Y-37500D01*
X66400Y-37499D01*
X67575Y-37499D01*
X67175Y-37900D01*
X66637Y-37900D01*
X66050Y-37900D01*
X66050Y-38137D01*
X66112Y-38200D01*
X66400Y-38200D01*
X66499Y-38199D01*
X66591Y-38161D01*
X66662Y-38091D01*
X66700Y-37999D01*
X66700Y-37962D01*
X66637Y-37900D01*
X67175Y-37900D01*
X66837Y-38237D01*
X66772Y-38335D01*
X66750Y-38450D01*
X66750Y-38508D01*
X66745Y-38506D01*
X66213Y-38506D01*
X66121Y-38544D01*
X66050Y-38614D01*
X66012Y-38706D01*
X66012Y-38805D01*
X66012Y-39037D01*
X66075Y-39100D01*
X66429Y-39100D01*
X66429Y-38568D01*
X66366Y-38506D01*
X66213Y-38506D01*
X66745Y-38506D01*
X66591Y-38506D01*
X66529Y-38568D01*
X66529Y-39100D01*
X66537Y-39100D01*
X66537Y-39200D01*
X66529Y-39200D01*
X66529Y-39207D01*
X66429Y-39207D01*
X66429Y-39200D01*
X66075Y-39200D01*
X66012Y-39262D01*
X66012Y-39494D01*
X66012Y-39499D01*
X65500Y-39499D01*
X65408Y-39537D01*
X65338Y-39608D01*
X65300Y-39700D01*
X65299Y-39799D01*
X65299Y-39999D01*
X65337Y-40091D01*
X65352Y-40106D01*
X64745Y-40106D01*
X64591Y-40106D01*
X64529Y-40168D01*
X64529Y-40700D01*
X64883Y-40700D01*
X64945Y-40637D01*
X64945Y-40405D01*
X64945Y-40306D01*
X64907Y-40214D01*
X64837Y-40144D01*
X64745Y-40106D01*
X65352Y-40106D01*
X65353Y-40106D01*
X65262Y-40144D01*
X65192Y-40214D01*
X65154Y-40306D01*
X65154Y-40405D01*
X65154Y-41149D01*
X65025Y-41149D01*
X64945Y-41182D01*
X64945Y-41094D01*
X64945Y-40862D01*
X64883Y-40800D01*
X64529Y-40800D01*
X64529Y-41331D01*
X64591Y-41393D01*
X64745Y-41393D01*
X64825Y-41360D01*
X64824Y-41449D01*
X64824Y-41850D01*
X64193Y-41850D01*
X64193Y-41791D01*
X64131Y-41729D01*
X63600Y-41729D01*
X63600Y-41737D01*
X63500Y-41737D01*
X63500Y-41729D01*
X63492Y-41729D01*
X63492Y-41629D01*
X63500Y-41629D01*
X63500Y-41275D01*
X63437Y-41212D01*
X63205Y-41212D01*
X63106Y-41212D01*
X63014Y-41250D01*
X62944Y-41321D01*
X62906Y-41413D01*
X62906Y-41437D01*
X62834Y-41365D01*
X62834Y-41365D01*
X62736Y-41300D01*
X62622Y-41277D01*
X62622Y-41277D01*
X61472Y-41277D01*
X61357Y-41300D01*
X61259Y-41365D01*
X61259Y-41365D01*
X61093Y-41532D01*
X61093Y-41413D01*
X61055Y-41321D01*
X60985Y-41250D01*
X60893Y-41212D01*
X60794Y-41212D01*
X60562Y-41212D01*
X60500Y-41275D01*
X60500Y-41629D01*
X60507Y-41629D01*
X60507Y-41729D01*
X60500Y-41729D01*
X60500Y-41737D01*
X60400Y-41737D01*
X60400Y-41729D01*
X60392Y-41729D01*
X60392Y-41629D01*
X60400Y-41629D01*
X60400Y-41275D01*
X60337Y-41212D01*
X60105Y-41212D01*
X60050Y-41212D01*
X60050Y-39595D01*
X60357Y-39287D01*
X60843Y-39287D01*
X60935Y-39249D01*
X61005Y-39179D01*
X61017Y-39150D01*
X61022Y-39150D01*
X61062Y-39190D01*
X61176Y-39190D01*
X61200Y-39199D01*
X61299Y-39200D01*
X61579Y-39200D01*
X61603Y-39190D01*
X61717Y-39190D01*
X61780Y-39127D01*
X61780Y-39090D01*
X61761Y-39045D01*
X61779Y-38999D01*
X61780Y-38900D01*
X61780Y-38700D01*
X61761Y-38655D01*
X61780Y-38609D01*
X61780Y-38572D01*
X61717Y-38510D01*
X61603Y-38510D01*
X61579Y-38500D01*
X61480Y-38499D01*
X61332Y-38499D01*
X61332Y-38410D01*
X61340Y-38410D01*
X61340Y-38172D01*
X61277Y-38110D01*
X61299Y-38109D01*
X61200Y-38110D01*
X61108Y-38148D01*
X61037Y-38218D01*
X60999Y-38310D01*
X61000Y-38347D01*
X61062Y-38409D01*
X61000Y-38409D01*
X61000Y-38457D01*
X60935Y-38392D01*
X60843Y-38354D01*
X60744Y-38354D01*
X59956Y-38354D01*
X59864Y-38392D01*
X59850Y-38407D01*
X59850Y-38092D01*
X59864Y-38107D01*
X59956Y-38145D01*
X60055Y-38145D01*
X60287Y-38145D01*
X60350Y-38083D01*
X60350Y-37729D01*
X60342Y-37729D01*
X60342Y-37629D01*
X60350Y-37629D01*
X60350Y-37621D01*
X60450Y-37621D01*
X60450Y-37629D01*
X60981Y-37629D01*
X61018Y-37592D01*
X61154Y-37729D01*
X60981Y-37729D01*
X60450Y-37729D01*
X60450Y-38083D01*
X60512Y-38145D01*
X60744Y-38145D01*
X60843Y-38145D01*
X60935Y-38107D01*
X61005Y-38037D01*
X61043Y-37945D01*
X61043Y-37791D01*
X60981Y-37729D01*
X61154Y-37729D01*
X61535Y-38110D01*
X61480Y-38109D01*
X61502Y-38110D01*
X61440Y-38172D01*
X61440Y-38410D01*
X61717Y-38410D01*
X61776Y-38350D01*
X61919Y-38494D01*
X61919Y-38609D01*
X61938Y-38654D01*
X61920Y-38700D01*
X61919Y-38799D01*
X61919Y-38999D01*
X61938Y-39044D01*
X61920Y-39090D01*
X61919Y-39189D01*
X61919Y-39389D01*
X61957Y-39481D01*
X62000Y-39523D01*
X62000Y-39545D01*
X61993Y-39542D01*
X61894Y-39542D01*
X61681Y-39542D01*
X61742Y-39481D01*
X61780Y-39389D01*
X61780Y-39352D01*
X61717Y-39290D01*
X61440Y-39290D01*
X61440Y-39297D01*
X61340Y-39297D01*
X61340Y-39290D01*
X61062Y-39290D01*
X61000Y-39352D01*
X60999Y-39389D01*
X61037Y-39481D01*
X61101Y-39544D01*
X61014Y-39580D01*
X60944Y-39651D01*
X60906Y-39743D01*
X60906Y-39837D01*
X60968Y-39900D01*
X61244Y-39900D01*
X61244Y-39892D01*
X61344Y-39892D01*
X61344Y-39900D01*
X61351Y-39900D01*
X61351Y-40000D01*
X61344Y-40000D01*
X61244Y-40000D01*
X60968Y-40000D01*
X60906Y-40062D01*
X60906Y-40156D01*
X60944Y-40248D01*
X60960Y-40265D01*
X60925Y-40350D01*
X60924Y-40449D01*
X60925Y-40537D01*
X60987Y-40600D01*
X61250Y-40600D01*
X61250Y-40212D01*
X61244Y-40206D01*
X61244Y-40000D01*
X61344Y-40000D01*
X61344Y-40294D01*
X61350Y-40300D01*
X61350Y-40600D01*
X61357Y-40600D01*
X61357Y-40700D01*
X61350Y-40700D01*
X61250Y-40700D01*
X60987Y-40700D01*
X60925Y-40762D01*
X60924Y-40850D01*
X60925Y-40949D01*
X60963Y-41041D01*
X61033Y-41112D01*
X61125Y-41150D01*
X61187Y-41150D01*
X61250Y-41087D01*
X61250Y-40700D01*
X61350Y-40700D01*
X61350Y-41087D01*
X61412Y-41150D01*
X61474Y-41150D01*
X61550Y-41118D01*
X61625Y-41149D01*
X61724Y-41150D01*
X61974Y-41150D01*
X62050Y-41118D01*
X62125Y-41149D01*
X62224Y-41150D01*
X62474Y-41150D01*
X62550Y-41118D01*
X62625Y-41149D01*
X62724Y-41150D01*
X62974Y-41150D01*
X63066Y-41112D01*
X63095Y-41082D01*
X63106Y-41087D01*
X63205Y-41087D01*
X63993Y-41087D01*
X64012Y-41079D01*
X64012Y-41094D01*
X64012Y-41193D01*
X64026Y-41226D01*
X63993Y-41212D01*
X63894Y-41212D01*
X63662Y-41212D01*
X63600Y-41275D01*
X63600Y-41629D01*
X64131Y-41629D01*
X64193Y-41566D01*
X64193Y-41413D01*
X64180Y-41380D01*
X64213Y-41393D01*
X64366Y-41393D01*
X64429Y-41331D01*
X64429Y-40800D01*
X64421Y-40800D01*
X64421Y-40700D01*
X64429Y-40700D01*
X64429Y-40168D01*
X64392Y-40131D01*
X65262Y-39262D01*
X65262Y-39262D01*
X65327Y-39164D01*
X65350Y-39050D01*
X65350Y-38103D01*
X65408Y-38161D01*
X65500Y-38199D01*
X65599Y-38200D01*
X65887Y-38200D01*
X65950Y-38137D01*
X65950Y-37900D01*
X65942Y-37900D01*
X65942Y-37800D01*
X65950Y-37800D01*
X65950Y-37562D01*
X65887Y-37500D01*
X65599Y-37499D01*
X65524Y-37500D01*
X65762Y-37262D01*
X65762Y-37262D01*
X65827Y-37164D01*
X65850Y-37050D01*
X65850Y-36957D01*
X65926Y-37141D01*
X66039Y-37189D01*
X66479Y-36750D01*
X66473Y-36744D01*
X66544Y-36673D01*
X66550Y-36679D01*
X66989Y-36239D01*
X66941Y-36126D01*
X66672Y-36023D01*
X66385Y-36031D01*
X66179Y-36117D01*
X66272Y-35894D01*
X66272Y-35606D01*
X66179Y-35381D01*
X66427Y-35476D01*
X66714Y-35468D01*
X66941Y-35373D01*
X66989Y-35260D01*
X66550Y-34820D01*
X66544Y-34826D01*
X66473Y-34755D01*
X66479Y-34750D01*
X66039Y-34310D01*
X65926Y-34358D01*
X65823Y-34627D01*
X65831Y-34914D01*
X65917Y-35120D01*
X65694Y-35027D01*
X65406Y-35027D01*
X65181Y-35120D01*
X65276Y-34872D01*
X65268Y-34585D01*
X65173Y-34358D01*
X65060Y-34310D01*
X64620Y-34750D01*
X64626Y-34755D01*
X64555Y-34826D01*
X64550Y-34820D01*
X64110Y-35260D01*
X64158Y-35373D01*
X64427Y-35476D01*
X64714Y-35468D01*
X64920Y-35382D01*
X64827Y-35605D01*
X64827Y-35893D01*
X64920Y-36118D01*
X64672Y-36023D01*
X64385Y-36031D01*
X64158Y-36126D01*
X64110Y-36239D01*
X64180Y-36310D01*
X64039Y-36310D01*
X63926Y-36358D01*
X63848Y-36562D01*
X63494Y-36562D01*
X62805Y-36562D01*
X62706Y-36562D01*
X62614Y-36600D01*
X62544Y-36671D01*
X62506Y-36763D01*
X62506Y-36916D01*
X62568Y-36979D01*
X63100Y-36979D01*
X63100Y-36625D01*
X63037Y-36562D01*
X62805Y-36562D01*
X63494Y-36562D01*
X63262Y-36562D01*
X63200Y-36625D01*
X63200Y-36979D01*
X63731Y-36979D01*
X63793Y-36916D01*
X63793Y-36763D01*
X63755Y-36671D01*
X63685Y-36600D01*
X63593Y-36562D01*
X63494Y-36562D01*
X63848Y-36562D01*
X63823Y-36627D01*
X63831Y-36914D01*
X63900Y-37079D01*
X63731Y-37079D01*
X63200Y-37079D01*
X63200Y-37433D01*
X63262Y-37495D01*
X63494Y-37495D01*
X63593Y-37495D01*
X63685Y-37457D01*
X63755Y-37387D01*
X63793Y-37295D01*
X63793Y-37141D01*
X63731Y-37079D01*
X63900Y-37079D01*
X63926Y-37141D01*
X64039Y-37189D01*
X64479Y-36750D01*
X64039Y-36310D01*
X64180Y-36310D01*
X64550Y-36679D01*
X64555Y-36673D01*
X64626Y-36744D01*
X64620Y-36750D01*
X64626Y-36755D01*
X64555Y-36826D01*
X64550Y-36820D01*
X64110Y-37260D01*
X64158Y-37373D01*
X64427Y-37476D01*
X64714Y-37468D01*
X64770Y-37444D01*
X64750Y-37550D01*
X64750Y-38546D01*
X64741Y-38538D01*
X64649Y-38500D01*
X64550Y-38499D01*
X64327Y-38499D01*
X64374Y-38384D01*
X64375Y-38215D01*
X64310Y-38059D01*
X64191Y-37939D01*
X64034Y-37875D01*
X63865Y-37874D01*
X63857Y-37878D01*
X63857Y-37878D01*
X63820Y-37870D01*
X63820Y-37870D01*
X63779Y-37870D01*
X63755Y-37812D01*
X63685Y-37742D01*
X63593Y-37704D01*
X63494Y-37704D01*
X62928Y-37704D01*
X62719Y-37495D01*
X62805Y-37495D01*
X63037Y-37495D01*
X63100Y-37433D01*
X63100Y-37079D01*
X62568Y-37079D01*
X62518Y-37129D01*
X62510Y-37109D01*
X62391Y-36989D01*
X62234Y-36925D01*
X62065Y-36924D01*
X61909Y-36989D01*
X61789Y-37108D01*
X61725Y-37265D01*
X61724Y-37434D01*
X61736Y-37462D01*
X61112Y-36837D01*
X61112Y-36837D01*
X61014Y-36772D01*
X60900Y-36750D01*
X60900Y-36750D01*
X59950Y-36750D01*
X59949Y-36750D01*
X59835Y-36772D01*
X59737Y-36837D01*
X59737Y-36837D01*
X59337Y-37237D01*
X59272Y-37335D01*
X59252Y-37437D01*
X59193Y-37412D01*
X59094Y-37412D01*
X58405Y-37412D01*
X58306Y-37412D01*
X58214Y-37450D01*
X58144Y-37521D01*
X58106Y-37613D01*
X58106Y-37766D01*
X58168Y-37829D01*
X58700Y-37829D01*
X58700Y-37475D01*
X58637Y-37412D01*
X58405Y-37412D01*
X59094Y-37412D01*
X58862Y-37412D01*
X58800Y-37475D01*
X58800Y-37829D01*
X58807Y-37829D01*
X58807Y-37929D01*
X58800Y-37929D01*
X58700Y-37929D01*
X58168Y-37929D01*
X58106Y-37991D01*
X58106Y-38145D01*
X58144Y-38237D01*
X58214Y-38307D01*
X58306Y-38345D01*
X58405Y-38345D01*
X58637Y-38345D01*
X58700Y-38283D01*
X58700Y-37929D01*
X58800Y-37929D01*
X58800Y-38283D01*
X58862Y-38345D01*
X59094Y-38345D01*
X59193Y-38345D01*
X59250Y-38322D01*
X59250Y-38577D01*
X59193Y-38554D01*
X59094Y-38554D01*
X59030Y-38554D01*
X59027Y-38539D01*
X58962Y-38442D01*
X58864Y-38377D01*
X58750Y-38354D01*
X55015Y-38354D01*
X54425Y-37764D01*
X54425Y-37399D01*
X54627Y-37476D01*
X54914Y-37468D01*
X55141Y-37373D01*
X55189Y-37260D01*
X54750Y-36820D01*
X54744Y-36826D01*
X54673Y-36755D01*
X54679Y-36750D01*
X54673Y-36744D01*
X54744Y-36673D01*
X54750Y-36679D01*
X54755Y-36673D01*
X54826Y-36744D01*
X54820Y-36750D01*
X55260Y-37189D01*
X55373Y-37141D01*
X55476Y-36872D01*
X55470Y-36681D01*
X55999Y-36681D01*
X56025Y-36675D01*
X56031Y-36914D01*
X56126Y-37141D01*
X56239Y-37189D01*
X56679Y-36750D01*
X56673Y-36744D01*
X56744Y-36673D01*
X56750Y-36679D01*
X57189Y-36239D01*
X57141Y-36126D01*
X56872Y-36023D01*
X56670Y-36029D01*
X56674Y-36005D01*
X56674Y-35494D01*
X56674Y-35494D01*
X56671Y-35475D01*
X56914Y-35468D01*
X57141Y-35373D01*
X57189Y-35260D01*
X56750Y-34820D01*
X56744Y-34826D01*
X56673Y-34755D01*
X56679Y-34750D01*
X56673Y-34744D01*
X56744Y-34673D01*
X56750Y-34679D01*
X56755Y-34673D01*
X56826Y-34744D01*
X56820Y-34750D01*
X57260Y-35189D01*
X57373Y-35141D01*
X57476Y-34872D01*
X57468Y-34585D01*
X57373Y-34358D01*
X57260Y-34310D01*
X57260Y-34310D01*
X57305Y-34265D01*
X57290Y-34250D01*
X58625Y-34250D01*
X58685Y-34310D01*
X60685Y-36310D01*
X57260Y-36310D01*
X56820Y-36750D01*
X56891Y-36820D01*
X56750Y-36820D01*
X56310Y-37260D01*
X56358Y-37373D01*
X56627Y-37476D01*
X56914Y-37468D01*
X57141Y-37373D01*
X57189Y-37260D01*
X56750Y-36820D01*
X56891Y-36820D01*
X57260Y-37189D01*
X57373Y-37141D01*
X57476Y-36872D01*
X57468Y-36585D01*
X57373Y-36358D01*
X57260Y-36310D01*
X60685Y-36310D01*
X60725Y-36349D01*
X60724Y-36434D01*
X60789Y-36590D01*
X60908Y-36710D01*
X61065Y-36774D01*
X61234Y-36775D01*
X61390Y-36710D01*
X61510Y-36591D01*
X61574Y-36434D01*
X61575Y-36265D01*
X61510Y-36109D01*
X61391Y-35989D01*
X61234Y-35925D01*
X61149Y-35924D01*
X58962Y-33737D01*
X58962Y-33737D01*
X58905Y-33700D01*
X73200Y-33700D01*
M02*
