M48
INCH,TZ
T1C0.025
T2C0.039
T3C0.059
T4C0.063
%
G90
G05
T1
X55050Y-43600
X56025Y-42625
X58150Y-42850
X58700Y-40450
X59449Y-35827
X60630Y-34646
X60700Y-43600
X61150Y-36350
X61417Y-46063
X62100Y-42050
X62150Y-37350
X62205Y-45276
X63950Y-38300
X66275Y-44375
X67150Y-43450
X70050Y-42900
T2
X44350Y-39250
X44350Y-40250
X44350Y-41250
X44350Y-42250
X44350Y-43250
X45350Y-39250
X45350Y-40250
X45350Y-41250
X45350Y-42250
X45350Y-43250
T3
X51850Y-46550
X55750Y-35750
X57750Y-46550
X64250Y-46550
X65550Y-35750
X70950Y-46550
X71050Y-35750
X71050Y-40650
T4
X50850Y-45550
X50850Y-47550
X52850Y-45550
X52850Y-47550
X54750Y-34750
X54750Y-36750
X56750Y-34750
X56750Y-36750
X56750Y-45550
X56750Y-47550
X58750Y-45550
X58750Y-47550
X63250Y-45550
X63250Y-47550
X64550Y-34750
X64550Y-36750
X65250Y-45550
X65250Y-47550
X66550Y-34750
X66550Y-36750
X69950Y-45550
X69950Y-47550
X70050Y-34750
X70050Y-36750
X70050Y-39650
X70050Y-41650
X71950Y-45550
X71950Y-47550
X72050Y-34750
X72050Y-36750
X72050Y-39650
X72050Y-41650
T0
M30
