G04 (created by PCBNEW (2013-may-18)-stable) date 2014年01月29日 星期三 11时55分50秒*
%MOIN*%
G04 Gerber Fmt 3.4, Leading zero omitted, Abs format*
%FSLAX34Y34*%
G01*
G70*
G90*
G04 APERTURE LIST*
%ADD10C,0.00590551*%
%ADD11C,0.01*%
%ADD12C,0.016*%
%ADD13C,0.005*%
%ADD14C,0.0035*%
%ADD15C,0.0019685*%
%ADD16C,0.0059*%
G04 APERTURE END LIST*
G54D10*
G54D11*
X43350Y-45000D02*
X43100Y-45250D01*
X46350Y-45000D02*
X46600Y-45250D01*
X46350Y-37500D02*
X46600Y-37250D01*
X43350Y-37500D02*
X43100Y-37250D01*
X46600Y-40500D02*
X46350Y-40500D01*
X46350Y-40500D02*
X46350Y-37500D01*
X46350Y-37500D02*
X43350Y-37500D01*
X43350Y-37500D02*
X43350Y-45000D01*
X43350Y-45000D02*
X46350Y-45000D01*
X46350Y-45000D02*
X46350Y-42000D01*
X46350Y-42000D02*
X46600Y-42000D01*
X46600Y-45250D02*
X46600Y-37250D01*
X43100Y-37250D02*
X43100Y-45250D01*
X43100Y-45250D02*
X46600Y-45250D01*
X43100Y-37250D02*
X46600Y-37250D01*
G54D12*
X45625Y-44202D02*
X46046Y-43927D01*
X46046Y-43927D02*
X45625Y-43651D01*
X45625Y-43651D02*
X45625Y-44202D01*
G54D10*
X61077Y-40186D02*
X61077Y-39713D01*
X61077Y-39713D02*
X62022Y-39713D01*
X62022Y-39713D02*
X62022Y-40186D01*
X62022Y-40186D02*
X61077Y-40186D01*
X66013Y-40277D02*
X66486Y-40277D01*
X66486Y-40277D02*
X66486Y-41222D01*
X66486Y-41222D02*
X66013Y-41222D01*
X66013Y-41222D02*
X66013Y-40277D01*
X61577Y-43886D02*
X61577Y-43413D01*
X61577Y-43413D02*
X62522Y-43413D01*
X62522Y-43413D02*
X62522Y-43886D01*
X62522Y-43886D02*
X61577Y-43886D01*
X62883Y-43377D02*
X64616Y-43377D01*
X64616Y-43377D02*
X64616Y-44322D01*
X64616Y-44322D02*
X62883Y-44322D01*
X62883Y-44322D02*
X62883Y-43377D01*
X63077Y-40916D02*
X63077Y-39183D01*
X63077Y-39183D02*
X64022Y-39183D01*
X64022Y-39183D02*
X64022Y-40916D01*
X64022Y-40916D02*
X63077Y-40916D01*
X64200Y-40100D02*
X64200Y-37600D01*
X64200Y-37600D02*
X65900Y-37600D01*
X65900Y-37600D02*
X65900Y-40100D01*
X65900Y-40100D02*
X64200Y-40100D01*
X69000Y-46700D02*
X66500Y-46700D01*
X66500Y-46700D02*
X66500Y-45000D01*
X66500Y-45000D02*
X69000Y-45000D01*
X69000Y-45000D02*
X69000Y-46700D01*
X69375Y-48124D02*
X69375Y-44975D01*
X69375Y-44975D02*
X72524Y-44975D01*
X72524Y-44975D02*
X72524Y-48124D01*
X72524Y-48124D02*
X69375Y-48124D01*
X69475Y-42224D02*
X69475Y-39075D01*
X69475Y-39075D02*
X72624Y-39075D01*
X72624Y-39075D02*
X72624Y-42224D01*
X72624Y-42224D02*
X69475Y-42224D01*
X62675Y-48124D02*
X62675Y-44975D01*
X62675Y-44975D02*
X65824Y-44975D01*
X65824Y-44975D02*
X65824Y-48124D01*
X65824Y-48124D02*
X62675Y-48124D01*
X69475Y-37324D02*
X69475Y-34175D01*
X69475Y-34175D02*
X72624Y-34175D01*
X72624Y-34175D02*
X72624Y-37324D01*
X72624Y-37324D02*
X69475Y-37324D01*
X63975Y-37324D02*
X63975Y-34175D01*
X63975Y-34175D02*
X67124Y-34175D01*
X67124Y-34175D02*
X67124Y-37324D01*
X67124Y-37324D02*
X63975Y-37324D01*
X69741Y-44540D02*
X69741Y-43359D01*
X69741Y-43359D02*
X71158Y-43359D01*
X71158Y-43359D02*
X71158Y-44540D01*
X71158Y-44540D02*
X69741Y-44540D01*
X67059Y-39741D02*
X68240Y-39741D01*
X68240Y-39741D02*
X68240Y-41158D01*
X68240Y-41158D02*
X67059Y-41158D01*
X67059Y-41158D02*
X67059Y-39741D01*
X61141Y-39440D02*
X61141Y-38259D01*
X61141Y-38259D02*
X62558Y-38259D01*
X62558Y-38259D02*
X62558Y-39440D01*
X62558Y-39440D02*
X61141Y-39440D01*
G54D13*
X63000Y-42530D02*
X63000Y-40970D01*
X63000Y-40970D02*
X61100Y-40970D01*
X61100Y-40970D02*
X61100Y-42530D01*
X61100Y-42530D02*
X63000Y-42530D01*
X62800Y-42530D02*
X62800Y-42960D01*
X62300Y-42530D02*
X62300Y-42960D01*
X61800Y-42530D02*
X61800Y-42960D01*
X61300Y-42960D02*
X61300Y-42530D01*
X61300Y-40970D02*
X61300Y-40540D01*
X61800Y-40540D02*
X61800Y-40970D01*
X62300Y-40540D02*
X62300Y-40970D01*
X62800Y-40540D02*
X62800Y-40970D01*
X62896Y-41260D02*
G75*
G03X62896Y-41260I-186J0D01*
G74*
G01*
X65000Y-41970D02*
X65000Y-43530D01*
X65000Y-43530D02*
X66900Y-43530D01*
X66900Y-43530D02*
X66900Y-41970D01*
X66900Y-41970D02*
X65000Y-41970D01*
X65200Y-41970D02*
X65200Y-41540D01*
X65700Y-41970D02*
X65700Y-41540D01*
X66200Y-41970D02*
X66200Y-41540D01*
X66700Y-41540D02*
X66700Y-41970D01*
X66700Y-43530D02*
X66700Y-43960D01*
X66200Y-43960D02*
X66200Y-43530D01*
X65700Y-43960D02*
X65700Y-43530D01*
X65200Y-43960D02*
X65200Y-43530D01*
X65476Y-43240D02*
G75*
G03X65476Y-43240I-186J0D01*
G74*
G01*
X52170Y-41200D02*
X53730Y-41200D01*
X53730Y-41200D02*
X53730Y-39300D01*
X53730Y-39300D02*
X52170Y-39300D01*
X52170Y-39300D02*
X52170Y-41200D01*
X52170Y-41000D02*
X51740Y-41000D01*
X52170Y-40500D02*
X51740Y-40500D01*
X52170Y-40000D02*
X51740Y-40000D01*
X51740Y-39500D02*
X52170Y-39500D01*
X53730Y-39500D02*
X54160Y-39500D01*
X54160Y-40000D02*
X53730Y-40000D01*
X54160Y-40500D02*
X53730Y-40500D01*
X54160Y-41000D02*
X53730Y-41000D01*
X53626Y-40910D02*
G75*
G03X53626Y-40910I-186J0D01*
G74*
G01*
G54D10*
X55277Y-40286D02*
X55277Y-39813D01*
X55277Y-39813D02*
X56222Y-39813D01*
X56222Y-39813D02*
X56222Y-40286D01*
X56222Y-40286D02*
X55277Y-40286D01*
X54986Y-40222D02*
X54513Y-40222D01*
X54513Y-40222D02*
X54513Y-39277D01*
X54513Y-39277D02*
X54986Y-39277D01*
X54986Y-39277D02*
X54986Y-40222D01*
X51286Y-40722D02*
X50813Y-40722D01*
X50813Y-40722D02*
X50813Y-39777D01*
X50813Y-39777D02*
X51286Y-39777D01*
X51286Y-39777D02*
X51286Y-40722D01*
X50522Y-40213D02*
X50522Y-40686D01*
X50522Y-40686D02*
X49577Y-40686D01*
X49577Y-40686D02*
X49577Y-40213D01*
X49577Y-40213D02*
X50522Y-40213D01*
X69316Y-42222D02*
X67583Y-42222D01*
X67583Y-42222D02*
X67583Y-41277D01*
X67583Y-41277D02*
X69316Y-41277D01*
X69316Y-41277D02*
X69316Y-42222D01*
X53716Y-39122D02*
X51983Y-39122D01*
X51983Y-39122D02*
X51983Y-38177D01*
X51983Y-38177D02*
X53716Y-38177D01*
X53716Y-38177D02*
X53716Y-39122D01*
X59222Y-37583D02*
X59222Y-39316D01*
X59222Y-39316D02*
X58277Y-39316D01*
X58277Y-39316D02*
X58277Y-37583D01*
X58277Y-37583D02*
X59222Y-37583D01*
X48683Y-36377D02*
X50416Y-36377D01*
X50416Y-36377D02*
X50416Y-37322D01*
X50416Y-37322D02*
X48683Y-37322D01*
X48683Y-37322D02*
X48683Y-36377D01*
X65916Y-41222D02*
X64183Y-41222D01*
X64183Y-41222D02*
X64183Y-40277D01*
X64183Y-40277D02*
X65916Y-40277D01*
X65916Y-40277D02*
X65916Y-41222D01*
X67916Y-39622D02*
X66183Y-39622D01*
X66183Y-39622D02*
X66183Y-38677D01*
X66183Y-38677D02*
X67916Y-38677D01*
X67916Y-38677D02*
X67916Y-39622D01*
X59927Y-39116D02*
X59927Y-37383D01*
X59927Y-37383D02*
X60872Y-37383D01*
X60872Y-37383D02*
X60872Y-39116D01*
X60872Y-39116D02*
X59927Y-39116D01*
X68677Y-44216D02*
X68677Y-42483D01*
X68677Y-42483D02*
X69622Y-42483D01*
X69622Y-42483D02*
X69622Y-44216D01*
X69622Y-44216D02*
X68677Y-44216D01*
X68022Y-42583D02*
X68022Y-44316D01*
X68022Y-44316D02*
X67077Y-44316D01*
X67077Y-44316D02*
X67077Y-42583D01*
X67077Y-42583D02*
X68022Y-42583D01*
X51583Y-41377D02*
X53316Y-41377D01*
X53316Y-41377D02*
X53316Y-42322D01*
X53316Y-42322D02*
X51583Y-42322D01*
X51583Y-42322D02*
X51583Y-41377D01*
X63622Y-36733D02*
X63622Y-38466D01*
X63622Y-38466D02*
X62677Y-38466D01*
X62677Y-38466D02*
X62677Y-36733D01*
X62677Y-36733D02*
X63622Y-36733D01*
X72522Y-42883D02*
X72522Y-44616D01*
X72522Y-44616D02*
X71577Y-44616D01*
X71577Y-44616D02*
X71577Y-42883D01*
X71577Y-42883D02*
X72522Y-42883D01*
X60922Y-41383D02*
X60922Y-43116D01*
X60922Y-43116D02*
X59977Y-43116D01*
X59977Y-43116D02*
X59977Y-41383D01*
X59977Y-41383D02*
X60922Y-41383D01*
X48522Y-40083D02*
X48522Y-41816D01*
X48522Y-41816D02*
X47577Y-41816D01*
X47577Y-41816D02*
X47577Y-40083D01*
X47577Y-40083D02*
X48522Y-40083D01*
X58377Y-43716D02*
X58377Y-41983D01*
X58377Y-41983D02*
X59322Y-41983D01*
X59322Y-41983D02*
X59322Y-43716D01*
X59322Y-43716D02*
X58377Y-43716D01*
X63077Y-43116D02*
X63077Y-41383D01*
X63077Y-41383D02*
X64022Y-41383D01*
X64022Y-41383D02*
X64022Y-43116D01*
X64022Y-43116D02*
X63077Y-43116D01*
X54722Y-41483D02*
X54722Y-43216D01*
X54722Y-43216D02*
X53777Y-43216D01*
X53777Y-43216D02*
X53777Y-41483D01*
X53777Y-41483D02*
X54722Y-41483D01*
X48783Y-40877D02*
X50516Y-40877D01*
X50516Y-40877D02*
X50516Y-41822D01*
X50516Y-41822D02*
X48783Y-41822D01*
X48783Y-41822D02*
X48783Y-40877D01*
X56222Y-40383D02*
X56222Y-42116D01*
X56222Y-42116D02*
X55277Y-42116D01*
X55277Y-42116D02*
X55277Y-40383D01*
X55277Y-40383D02*
X56222Y-40383D01*
X56900Y-41900D02*
X56900Y-39400D01*
X56900Y-39400D02*
X58600Y-39400D01*
X58600Y-39400D02*
X58600Y-41900D01*
X58600Y-41900D02*
X56900Y-41900D01*
X50500Y-40000D02*
X48000Y-40000D01*
X48000Y-40000D02*
X48000Y-38300D01*
X48000Y-38300D02*
X50500Y-38300D01*
X50500Y-38300D02*
X50500Y-40000D01*
X54175Y-37324D02*
X54175Y-34175D01*
X54175Y-34175D02*
X57324Y-34175D01*
X57324Y-34175D02*
X57324Y-37324D01*
X57324Y-37324D02*
X54175Y-37324D01*
X50275Y-48124D02*
X50275Y-44975D01*
X50275Y-44975D02*
X53424Y-44975D01*
X53424Y-44975D02*
X53424Y-48124D01*
X53424Y-48124D02*
X50275Y-48124D01*
X56175Y-48124D02*
X56175Y-44975D01*
X56175Y-44975D02*
X59324Y-44975D01*
X59324Y-44975D02*
X59324Y-48124D01*
X59324Y-48124D02*
X56175Y-48124D01*
G54D14*
X43133Y-45266D02*
X42433Y-45266D01*
X42433Y-44999D01*
X42466Y-44933D01*
X42500Y-44899D01*
X42566Y-44866D01*
X42666Y-44866D01*
X42733Y-44899D01*
X42766Y-44933D01*
X42800Y-44999D01*
X42800Y-45266D01*
X42433Y-44266D02*
X42433Y-44399D01*
X42466Y-44466D01*
X42500Y-44499D01*
X42600Y-44566D01*
X42733Y-44599D01*
X43000Y-44599D01*
X43066Y-44566D01*
X43100Y-44533D01*
X43133Y-44466D01*
X43133Y-44333D01*
X43100Y-44266D01*
X43066Y-44233D01*
X43000Y-44199D01*
X42833Y-44199D01*
X42766Y-44233D01*
X42733Y-44266D01*
X42700Y-44333D01*
X42700Y-44466D01*
X42733Y-44533D01*
X42766Y-44566D01*
X42833Y-44599D01*
X47566Y-42900D02*
X47600Y-42933D01*
X47633Y-43033D01*
X47633Y-43100D01*
X47600Y-43200D01*
X47533Y-43266D01*
X47466Y-43300D01*
X47333Y-43333D01*
X47233Y-43333D01*
X47100Y-43300D01*
X47033Y-43266D01*
X46966Y-43200D01*
X46933Y-43100D01*
X46933Y-43033D01*
X46966Y-42933D01*
X47000Y-42900D01*
X46933Y-42466D02*
X46933Y-42333D01*
X46966Y-42266D01*
X47033Y-42200D01*
X47166Y-42166D01*
X47400Y-42166D01*
X47533Y-42200D01*
X47600Y-42266D01*
X47633Y-42333D01*
X47633Y-42466D01*
X47600Y-42533D01*
X47533Y-42600D01*
X47400Y-42633D01*
X47166Y-42633D01*
X47033Y-42600D01*
X46966Y-42533D01*
X46933Y-42466D01*
X47633Y-41866D02*
X46933Y-41866D01*
X47633Y-41466D01*
X46933Y-41466D01*
X47633Y-41133D02*
X46933Y-41133D01*
X47633Y-40733D01*
X46933Y-40733D01*
X47700Y-40566D02*
X47700Y-40033D01*
X46933Y-39533D02*
X46933Y-39866D01*
X47266Y-39899D01*
X47233Y-39866D01*
X47200Y-39799D01*
X47200Y-39633D01*
X47233Y-39566D01*
X47266Y-39533D01*
X47333Y-39499D01*
X47500Y-39499D01*
X47566Y-39533D01*
X47600Y-39566D01*
X47633Y-39633D01*
X47633Y-39799D01*
X47600Y-39866D01*
X47566Y-39899D01*
X46933Y-39266D02*
X47633Y-38799D01*
X46933Y-38799D02*
X47633Y-39266D01*
X47000Y-38566D02*
X46966Y-38533D01*
X46933Y-38466D01*
X46933Y-38299D01*
X46966Y-38233D01*
X47000Y-38199D01*
X47066Y-38166D01*
X47133Y-38166D01*
X47233Y-38199D01*
X47633Y-38599D01*
X47633Y-38166D01*
G54D15*
X61510Y-40371D02*
X61471Y-40315D01*
X61443Y-40371D02*
X61443Y-40253D01*
X61488Y-40253D01*
X61499Y-40259D01*
X61505Y-40264D01*
X61510Y-40276D01*
X61510Y-40293D01*
X61505Y-40304D01*
X61499Y-40309D01*
X61488Y-40315D01*
X61443Y-40315D01*
X61555Y-40264D02*
X61561Y-40259D01*
X61572Y-40253D01*
X61600Y-40253D01*
X61611Y-40259D01*
X61617Y-40264D01*
X61623Y-40276D01*
X61623Y-40287D01*
X61617Y-40304D01*
X61550Y-40371D01*
X61623Y-40371D01*
X61490Y-39643D02*
X61423Y-39643D01*
X61457Y-39643D02*
X61457Y-39525D01*
X61445Y-39542D01*
X61434Y-39553D01*
X61423Y-39559D01*
X61564Y-39525D02*
X61575Y-39525D01*
X61586Y-39530D01*
X61592Y-39536D01*
X61597Y-39547D01*
X61603Y-39570D01*
X61603Y-39598D01*
X61597Y-39620D01*
X61592Y-39632D01*
X61586Y-39637D01*
X61575Y-39643D01*
X61564Y-39643D01*
X61552Y-39637D01*
X61547Y-39632D01*
X61541Y-39620D01*
X61535Y-39598D01*
X61535Y-39570D01*
X61541Y-39547D01*
X61547Y-39536D01*
X61552Y-39530D01*
X61564Y-39525D01*
X61676Y-39525D02*
X61687Y-39525D01*
X61699Y-39530D01*
X61704Y-39536D01*
X61710Y-39547D01*
X61715Y-39570D01*
X61715Y-39598D01*
X61710Y-39620D01*
X61704Y-39632D01*
X61699Y-39637D01*
X61687Y-39643D01*
X61676Y-39643D01*
X61665Y-39637D01*
X61659Y-39632D01*
X61654Y-39620D01*
X61648Y-39598D01*
X61648Y-39570D01*
X61654Y-39547D01*
X61659Y-39536D01*
X61665Y-39530D01*
X61676Y-39525D01*
X65923Y-40750D02*
X65867Y-40789D01*
X65923Y-40817D02*
X65805Y-40817D01*
X65805Y-40772D01*
X65811Y-40761D01*
X65816Y-40755D01*
X65828Y-40750D01*
X65845Y-40750D01*
X65856Y-40755D01*
X65861Y-40761D01*
X65867Y-40772D01*
X65867Y-40817D01*
X65805Y-40710D02*
X65805Y-40637D01*
X65850Y-40676D01*
X65850Y-40660D01*
X65856Y-40648D01*
X65861Y-40643D01*
X65873Y-40637D01*
X65901Y-40637D01*
X65912Y-40643D01*
X65918Y-40648D01*
X65923Y-40660D01*
X65923Y-40693D01*
X65918Y-40705D01*
X65912Y-40710D01*
X66652Y-40896D02*
X66652Y-40963D01*
X66652Y-40929D02*
X66534Y-40929D01*
X66550Y-40941D01*
X66562Y-40952D01*
X66567Y-40963D01*
X66534Y-40823D02*
X66534Y-40811D01*
X66539Y-40800D01*
X66545Y-40794D01*
X66556Y-40789D01*
X66579Y-40783D01*
X66607Y-40783D01*
X66629Y-40789D01*
X66640Y-40794D01*
X66646Y-40800D01*
X66652Y-40811D01*
X66652Y-40823D01*
X66646Y-40834D01*
X66640Y-40839D01*
X66629Y-40845D01*
X66607Y-40851D01*
X66579Y-40851D01*
X66556Y-40845D01*
X66545Y-40839D01*
X66539Y-40834D01*
X66534Y-40823D01*
X66534Y-40710D02*
X66534Y-40699D01*
X66539Y-40688D01*
X66545Y-40682D01*
X66556Y-40676D01*
X66579Y-40671D01*
X66607Y-40671D01*
X66629Y-40676D01*
X66640Y-40682D01*
X66646Y-40688D01*
X66652Y-40699D01*
X66652Y-40710D01*
X66646Y-40721D01*
X66640Y-40727D01*
X66629Y-40733D01*
X66607Y-40738D01*
X66579Y-40738D01*
X66556Y-40733D01*
X66545Y-40727D01*
X66539Y-40721D01*
X66534Y-40710D01*
X66652Y-40620D02*
X66534Y-40620D01*
X66607Y-40609D02*
X66652Y-40575D01*
X66573Y-40575D02*
X66618Y-40620D01*
X62010Y-44071D02*
X61971Y-44015D01*
X61943Y-44071D02*
X61943Y-43953D01*
X61988Y-43953D01*
X61999Y-43959D01*
X62005Y-43964D01*
X62010Y-43976D01*
X62010Y-43993D01*
X62005Y-44004D01*
X61999Y-44009D01*
X61988Y-44015D01*
X61943Y-44015D01*
X62123Y-44071D02*
X62055Y-44071D01*
X62089Y-44071D02*
X62089Y-43953D01*
X62078Y-43970D01*
X62066Y-43981D01*
X62055Y-43987D01*
X62055Y-43343D02*
X61988Y-43343D01*
X62021Y-43343D02*
X62021Y-43225D01*
X62010Y-43242D01*
X61999Y-43253D01*
X61988Y-43259D01*
X62106Y-43343D02*
X62106Y-43225D01*
X62117Y-43298D02*
X62151Y-43343D01*
X62151Y-43264D02*
X62106Y-43309D01*
G54D10*
X63782Y-45054D02*
X63764Y-45073D01*
X63707Y-45092D01*
X63670Y-45092D01*
X63614Y-45073D01*
X63576Y-45035D01*
X63557Y-44998D01*
X63539Y-44923D01*
X63539Y-44867D01*
X63557Y-44792D01*
X63576Y-44754D01*
X63614Y-44717D01*
X63670Y-44698D01*
X63707Y-44698D01*
X63764Y-44717D01*
X63782Y-44735D01*
X63932Y-44735D02*
X63951Y-44717D01*
X63989Y-44698D01*
X64082Y-44698D01*
X64120Y-44717D01*
X64139Y-44735D01*
X64157Y-44773D01*
X64157Y-44810D01*
X64139Y-44867D01*
X63914Y-45092D01*
X64157Y-45092D01*
X63782Y-43221D02*
X63557Y-43221D01*
X63670Y-43221D02*
X63670Y-42828D01*
X63632Y-42884D01*
X63595Y-42921D01*
X63557Y-42940D01*
X64120Y-42959D02*
X64120Y-43221D01*
X63951Y-42959D02*
X63951Y-43165D01*
X63970Y-43203D01*
X64007Y-43221D01*
X64064Y-43221D01*
X64101Y-43203D01*
X64120Y-43184D01*
X64754Y-40017D02*
X64773Y-40035D01*
X64792Y-40092D01*
X64792Y-40129D01*
X64773Y-40185D01*
X64735Y-40223D01*
X64698Y-40242D01*
X64623Y-40260D01*
X64567Y-40260D01*
X64492Y-40242D01*
X64454Y-40223D01*
X64417Y-40185D01*
X64398Y-40129D01*
X64398Y-40092D01*
X64417Y-40035D01*
X64435Y-40017D01*
X64792Y-39642D02*
X64792Y-39867D01*
X64792Y-39754D02*
X64398Y-39754D01*
X64454Y-39792D01*
X64492Y-39829D01*
X64510Y-39867D01*
X62921Y-40017D02*
X62921Y-40242D01*
X62921Y-40129D02*
X62528Y-40129D01*
X62584Y-40167D01*
X62621Y-40204D01*
X62640Y-40242D01*
X62659Y-39679D02*
X62921Y-39679D01*
X62659Y-39848D02*
X62865Y-39848D01*
X62903Y-39829D01*
X62921Y-39792D01*
X62921Y-39735D01*
X62903Y-39698D01*
X62884Y-39679D01*
X65809Y-39084D02*
X65621Y-39215D01*
X65809Y-39309D02*
X65415Y-39309D01*
X65415Y-39159D01*
X65434Y-39121D01*
X65453Y-39103D01*
X65490Y-39084D01*
X65546Y-39084D01*
X65584Y-39103D01*
X65603Y-39121D01*
X65621Y-39159D01*
X65621Y-39309D01*
X65415Y-38971D02*
X65809Y-38840D01*
X65415Y-38709D01*
X65453Y-38596D02*
X65434Y-38578D01*
X65415Y-38540D01*
X65415Y-38446D01*
X65434Y-38409D01*
X65453Y-38390D01*
X65490Y-38371D01*
X65528Y-38371D01*
X65584Y-38390D01*
X65809Y-38615D01*
X65809Y-38371D01*
X64859Y-37984D02*
X64859Y-38209D01*
X64859Y-38096D02*
X64465Y-38096D01*
X64521Y-38134D01*
X64559Y-38171D01*
X64578Y-38209D01*
X64465Y-37740D02*
X64465Y-37703D01*
X64484Y-37665D01*
X64503Y-37646D01*
X64540Y-37628D01*
X64615Y-37609D01*
X64709Y-37609D01*
X64784Y-37628D01*
X64821Y-37646D01*
X64840Y-37665D01*
X64859Y-37703D01*
X64859Y-37740D01*
X64840Y-37778D01*
X64821Y-37796D01*
X64784Y-37815D01*
X64709Y-37834D01*
X64615Y-37834D01*
X64540Y-37815D01*
X64503Y-37796D01*
X64484Y-37778D01*
X64465Y-37740D01*
X64859Y-37440D02*
X64465Y-37440D01*
X64709Y-37403D02*
X64859Y-37290D01*
X64596Y-37290D02*
X64746Y-37440D01*
X67515Y-45409D02*
X67384Y-45221D01*
X67290Y-45409D02*
X67290Y-45015D01*
X67440Y-45015D01*
X67478Y-45034D01*
X67496Y-45053D01*
X67515Y-45090D01*
X67515Y-45146D01*
X67496Y-45184D01*
X67478Y-45203D01*
X67440Y-45221D01*
X67290Y-45221D01*
X67628Y-45015D02*
X67759Y-45409D01*
X67890Y-45015D01*
X68228Y-45409D02*
X68003Y-45409D01*
X68115Y-45409D02*
X68115Y-45015D01*
X68078Y-45071D01*
X68040Y-45109D01*
X68003Y-45128D01*
X66228Y-46359D02*
X66003Y-46359D01*
X66115Y-46359D02*
X66115Y-45965D01*
X66078Y-46021D01*
X66040Y-46059D01*
X66003Y-46078D01*
X66471Y-45965D02*
X66509Y-45965D01*
X66546Y-45984D01*
X66565Y-46003D01*
X66584Y-46040D01*
X66603Y-46115D01*
X66603Y-46209D01*
X66584Y-46284D01*
X66565Y-46321D01*
X66546Y-46340D01*
X66509Y-46359D01*
X66471Y-46359D01*
X66434Y-46340D01*
X66415Y-46321D01*
X66396Y-46284D01*
X66378Y-46209D01*
X66378Y-46115D01*
X66396Y-46040D01*
X66415Y-46003D01*
X66434Y-45984D01*
X66471Y-45965D01*
X66846Y-45965D02*
X66884Y-45965D01*
X66921Y-45984D01*
X66940Y-46003D01*
X66959Y-46040D01*
X66978Y-46115D01*
X66978Y-46209D01*
X66959Y-46284D01*
X66940Y-46321D01*
X66921Y-46340D01*
X66884Y-46359D01*
X66846Y-46359D01*
X66809Y-46340D01*
X66790Y-46321D01*
X66771Y-46284D01*
X66753Y-46209D01*
X66753Y-46115D01*
X66771Y-46040D01*
X66790Y-46003D01*
X66809Y-45984D01*
X66846Y-45965D01*
X67146Y-46359D02*
X67146Y-45965D01*
X67184Y-46209D02*
X67296Y-46359D01*
X67296Y-46096D02*
X67146Y-46246D01*
X69101Y-46702D02*
X68707Y-46702D01*
X68707Y-46552D01*
X68726Y-46515D01*
X68745Y-46496D01*
X68782Y-46477D01*
X68839Y-46477D01*
X68876Y-46496D01*
X68895Y-46515D01*
X68914Y-46552D01*
X68914Y-46702D01*
X69101Y-46102D02*
X69101Y-46327D01*
X69101Y-46215D02*
X68707Y-46215D01*
X68764Y-46252D01*
X68801Y-46290D01*
X68820Y-46327D01*
X73117Y-46716D02*
X72723Y-46716D01*
X73117Y-46529D02*
X72723Y-46529D01*
X73117Y-46304D01*
X72723Y-46304D01*
X69201Y-40802D02*
X68807Y-40802D01*
X68807Y-40652D01*
X68826Y-40615D01*
X68845Y-40596D01*
X68882Y-40577D01*
X68939Y-40577D01*
X68976Y-40596D01*
X68995Y-40615D01*
X69014Y-40652D01*
X69014Y-40802D01*
X68845Y-40427D02*
X68826Y-40409D01*
X68807Y-40371D01*
X68807Y-40277D01*
X68826Y-40240D01*
X68845Y-40221D01*
X68882Y-40202D01*
X68920Y-40202D01*
X68976Y-40221D01*
X69201Y-40446D01*
X69201Y-40202D01*
X73217Y-41285D02*
X72823Y-41285D01*
X73011Y-41285D02*
X73011Y-41060D01*
X73217Y-41060D02*
X72823Y-41060D01*
X72823Y-40798D02*
X72823Y-40723D01*
X72842Y-40685D01*
X72879Y-40648D01*
X72954Y-40629D01*
X73085Y-40629D01*
X73160Y-40648D01*
X73198Y-40685D01*
X73217Y-40723D01*
X73217Y-40798D01*
X73198Y-40835D01*
X73160Y-40873D01*
X73085Y-40891D01*
X72954Y-40891D01*
X72879Y-40873D01*
X72842Y-40835D01*
X72823Y-40798D01*
X73217Y-40273D02*
X73217Y-40460D01*
X72823Y-40460D01*
X73217Y-40141D02*
X72823Y-40141D01*
X72823Y-40048D01*
X72842Y-39991D01*
X72879Y-39954D01*
X72917Y-39935D01*
X72992Y-39916D01*
X73048Y-39916D01*
X73123Y-39935D01*
X73160Y-39954D01*
X73198Y-39991D01*
X73217Y-40048D01*
X73217Y-40141D01*
X62401Y-46702D02*
X62007Y-46702D01*
X62007Y-46552D01*
X62026Y-46515D01*
X62045Y-46496D01*
X62082Y-46477D01*
X62139Y-46477D01*
X62176Y-46496D01*
X62195Y-46515D01*
X62214Y-46552D01*
X62214Y-46702D01*
X62007Y-46346D02*
X62007Y-46102D01*
X62157Y-46234D01*
X62157Y-46177D01*
X62176Y-46140D01*
X62195Y-46121D01*
X62232Y-46102D01*
X62326Y-46102D01*
X62363Y-46121D01*
X62382Y-46140D01*
X62401Y-46177D01*
X62401Y-46290D01*
X62382Y-46327D01*
X62363Y-46346D01*
X66459Y-47890D02*
X66271Y-48021D01*
X66459Y-48115D02*
X66065Y-48115D01*
X66065Y-47965D01*
X66084Y-47928D01*
X66103Y-47909D01*
X66140Y-47890D01*
X66196Y-47890D01*
X66234Y-47909D01*
X66253Y-47928D01*
X66271Y-47965D01*
X66271Y-48115D01*
X66440Y-47740D02*
X66459Y-47684D01*
X66459Y-47590D01*
X66440Y-47553D01*
X66421Y-47534D01*
X66384Y-47515D01*
X66346Y-47515D01*
X66309Y-47534D01*
X66290Y-47553D01*
X66271Y-47590D01*
X66253Y-47665D01*
X66234Y-47703D01*
X66215Y-47721D01*
X66178Y-47740D01*
X66140Y-47740D01*
X66103Y-47721D01*
X66084Y-47703D01*
X66065Y-47665D01*
X66065Y-47571D01*
X66084Y-47515D01*
X66065Y-47403D02*
X66065Y-47178D01*
X66459Y-47290D02*
X66065Y-47290D01*
X69201Y-35902D02*
X68807Y-35902D01*
X68807Y-35752D01*
X68826Y-35715D01*
X68845Y-35696D01*
X68882Y-35677D01*
X68939Y-35677D01*
X68976Y-35696D01*
X68995Y-35715D01*
X69014Y-35752D01*
X69014Y-35902D01*
X68939Y-35340D02*
X69201Y-35340D01*
X68789Y-35434D02*
X69070Y-35527D01*
X69070Y-35284D01*
X72823Y-36104D02*
X72823Y-36029D01*
X72842Y-35991D01*
X72879Y-35954D01*
X72954Y-35935D01*
X73085Y-35935D01*
X73160Y-35954D01*
X73198Y-35991D01*
X73217Y-36029D01*
X73217Y-36104D01*
X73198Y-36141D01*
X73160Y-36179D01*
X73085Y-36198D01*
X72954Y-36198D01*
X72879Y-36179D01*
X72842Y-36141D01*
X72823Y-36104D01*
X72823Y-35766D02*
X73142Y-35766D01*
X73179Y-35748D01*
X73198Y-35729D01*
X73217Y-35691D01*
X73217Y-35616D01*
X73198Y-35579D01*
X73179Y-35560D01*
X73142Y-35541D01*
X72823Y-35541D01*
X72823Y-35410D02*
X72823Y-35185D01*
X73217Y-35298D02*
X72823Y-35298D01*
X63701Y-35902D02*
X63307Y-35902D01*
X63307Y-35752D01*
X63326Y-35715D01*
X63345Y-35696D01*
X63382Y-35677D01*
X63439Y-35677D01*
X63476Y-35696D01*
X63495Y-35715D01*
X63514Y-35752D01*
X63514Y-35902D01*
X63307Y-35321D02*
X63307Y-35509D01*
X63495Y-35527D01*
X63476Y-35509D01*
X63457Y-35471D01*
X63457Y-35377D01*
X63476Y-35340D01*
X63495Y-35321D01*
X63532Y-35302D01*
X63626Y-35302D01*
X63663Y-35321D01*
X63682Y-35340D01*
X63701Y-35377D01*
X63701Y-35471D01*
X63682Y-35509D01*
X63663Y-35527D01*
X67323Y-36038D02*
X67717Y-35907D01*
X67323Y-35776D01*
X67342Y-35438D02*
X67323Y-35476D01*
X67323Y-35532D01*
X67342Y-35588D01*
X67379Y-35626D01*
X67417Y-35645D01*
X67492Y-35663D01*
X67548Y-35663D01*
X67623Y-35645D01*
X67660Y-35626D01*
X67698Y-35588D01*
X67717Y-35532D01*
X67717Y-35495D01*
X67698Y-35438D01*
X67679Y-35420D01*
X67548Y-35420D01*
X67548Y-35495D01*
X69211Y-44092D02*
X69530Y-44092D01*
X69567Y-44073D01*
X69586Y-44054D01*
X69605Y-44017D01*
X69605Y-43942D01*
X69586Y-43905D01*
X69567Y-43886D01*
X69530Y-43867D01*
X69211Y-43867D01*
X69605Y-43473D02*
X69605Y-43698D01*
X69605Y-43586D02*
X69211Y-43586D01*
X69267Y-43623D01*
X69305Y-43661D01*
X69324Y-43698D01*
X71652Y-44506D02*
X71258Y-44506D01*
X71446Y-44506D02*
X71446Y-44281D01*
X71652Y-44281D02*
X71258Y-44281D01*
X71258Y-44019D02*
X71258Y-43944D01*
X71277Y-43906D01*
X71315Y-43869D01*
X71390Y-43850D01*
X71521Y-43850D01*
X71596Y-43869D01*
X71633Y-43906D01*
X71652Y-43944D01*
X71652Y-44019D01*
X71633Y-44056D01*
X71596Y-44094D01*
X71521Y-44113D01*
X71390Y-44113D01*
X71315Y-44094D01*
X71277Y-44056D01*
X71258Y-44019D01*
X71652Y-43494D02*
X71652Y-43681D01*
X71258Y-43681D01*
X71652Y-43363D02*
X71258Y-43363D01*
X71258Y-43269D01*
X71277Y-43213D01*
X71315Y-43175D01*
X71352Y-43156D01*
X71427Y-43138D01*
X71483Y-43138D01*
X71558Y-43156D01*
X71596Y-43175D01*
X71633Y-43213D01*
X71652Y-43269D01*
X71652Y-43363D01*
X67507Y-39211D02*
X67507Y-39530D01*
X67526Y-39567D01*
X67545Y-39586D01*
X67582Y-39605D01*
X67657Y-39605D01*
X67694Y-39586D01*
X67713Y-39567D01*
X67732Y-39530D01*
X67732Y-39211D01*
X67882Y-39211D02*
X68126Y-39211D01*
X67994Y-39361D01*
X68051Y-39361D01*
X68088Y-39380D01*
X68107Y-39399D01*
X68126Y-39436D01*
X68126Y-39530D01*
X68107Y-39567D01*
X68088Y-39586D01*
X68051Y-39605D01*
X67938Y-39605D01*
X67901Y-39586D01*
X67882Y-39567D01*
X67365Y-41652D02*
X67233Y-41465D01*
X67140Y-41652D02*
X67140Y-41258D01*
X67290Y-41258D01*
X67327Y-41277D01*
X67346Y-41296D01*
X67365Y-41333D01*
X67365Y-41390D01*
X67346Y-41427D01*
X67327Y-41446D01*
X67290Y-41465D01*
X67140Y-41465D01*
X67515Y-41633D02*
X67571Y-41652D01*
X67664Y-41652D01*
X67702Y-41633D01*
X67721Y-41615D01*
X67739Y-41577D01*
X67739Y-41540D01*
X67721Y-41502D01*
X67702Y-41483D01*
X67664Y-41465D01*
X67590Y-41446D01*
X67552Y-41427D01*
X67533Y-41408D01*
X67515Y-41371D01*
X67515Y-41333D01*
X67533Y-41296D01*
X67552Y-41277D01*
X67590Y-41258D01*
X67683Y-41258D01*
X67739Y-41277D01*
X67852Y-41258D02*
X68077Y-41258D01*
X67964Y-41652D02*
X67964Y-41258D01*
X68414Y-41652D02*
X68189Y-41652D01*
X68302Y-41652D02*
X68302Y-41258D01*
X68264Y-41315D01*
X68227Y-41352D01*
X68189Y-41371D01*
X60611Y-38992D02*
X60930Y-38992D01*
X60967Y-38973D01*
X60986Y-38954D01*
X61005Y-38917D01*
X61005Y-38842D01*
X60986Y-38805D01*
X60967Y-38786D01*
X60930Y-38767D01*
X60611Y-38767D01*
X60611Y-38392D02*
X60611Y-38580D01*
X60799Y-38598D01*
X60780Y-38580D01*
X60761Y-38542D01*
X60761Y-38448D01*
X60780Y-38411D01*
X60799Y-38392D01*
X60836Y-38373D01*
X60930Y-38373D01*
X60967Y-38392D01*
X60986Y-38411D01*
X61005Y-38448D01*
X61005Y-38542D01*
X60986Y-38580D01*
X60967Y-38598D01*
X63052Y-39134D02*
X62865Y-39266D01*
X63052Y-39359D02*
X62658Y-39359D01*
X62658Y-39209D01*
X62677Y-39172D01*
X62696Y-39153D01*
X62733Y-39134D01*
X62790Y-39134D01*
X62827Y-39153D01*
X62846Y-39172D01*
X62865Y-39209D01*
X62865Y-39359D01*
X63033Y-38984D02*
X63052Y-38928D01*
X63052Y-38835D01*
X63033Y-38797D01*
X63015Y-38778D01*
X62977Y-38760D01*
X62940Y-38760D01*
X62902Y-38778D01*
X62883Y-38797D01*
X62865Y-38835D01*
X62846Y-38909D01*
X62827Y-38947D01*
X62808Y-38966D01*
X62771Y-38984D01*
X62733Y-38984D01*
X62696Y-38966D01*
X62677Y-38947D01*
X62658Y-38909D01*
X62658Y-38816D01*
X62677Y-38760D01*
X62658Y-38647D02*
X62658Y-38422D01*
X63052Y-38535D02*
X62658Y-38535D01*
X62696Y-38310D02*
X62677Y-38291D01*
X62658Y-38253D01*
X62658Y-38160D01*
X62677Y-38122D01*
X62696Y-38103D01*
X62733Y-38085D01*
X62771Y-38085D01*
X62827Y-38103D01*
X63052Y-38328D01*
X63052Y-38085D01*
G54D16*
X61825Y-41974D02*
X61825Y-42213D01*
X61839Y-42241D01*
X61853Y-42255D01*
X61881Y-42269D01*
X61937Y-42269D01*
X61965Y-42255D01*
X61979Y-42241D01*
X61993Y-42213D01*
X61993Y-41974D01*
X62260Y-42072D02*
X62260Y-42269D01*
X62190Y-41960D02*
X62120Y-42171D01*
X62302Y-42171D01*
X61804Y-41174D02*
X61902Y-41469D01*
X62000Y-41174D01*
X62253Y-41188D02*
X62225Y-41174D01*
X62183Y-41174D01*
X62141Y-41188D01*
X62113Y-41216D01*
X62099Y-41244D01*
X62085Y-41300D01*
X62085Y-41342D01*
X62099Y-41399D01*
X62113Y-41427D01*
X62141Y-41455D01*
X62183Y-41469D01*
X62211Y-41469D01*
X62253Y-41455D01*
X62267Y-41441D01*
X62267Y-41342D01*
X62211Y-41342D01*
X65725Y-42174D02*
X65725Y-42413D01*
X65739Y-42441D01*
X65753Y-42455D01*
X65781Y-42469D01*
X65837Y-42469D01*
X65865Y-42455D01*
X65879Y-42441D01*
X65893Y-42413D01*
X65893Y-42174D01*
X66020Y-42202D02*
X66034Y-42188D01*
X66062Y-42174D01*
X66132Y-42174D01*
X66160Y-42188D01*
X66174Y-42202D01*
X66188Y-42230D01*
X66188Y-42258D01*
X66174Y-42300D01*
X66006Y-42469D01*
X66188Y-42469D01*
X65683Y-43269D02*
X65683Y-42974D01*
X65823Y-43269D02*
X65823Y-42974D01*
X65992Y-43269D01*
X65992Y-42974D01*
X66090Y-42974D02*
X66259Y-42974D01*
X66174Y-43269D02*
X66174Y-42974D01*
X52374Y-40474D02*
X52613Y-40474D01*
X52641Y-40460D01*
X52655Y-40446D01*
X52669Y-40418D01*
X52669Y-40362D01*
X52655Y-40334D01*
X52641Y-40320D01*
X52613Y-40306D01*
X52374Y-40306D01*
X52374Y-40039D02*
X52374Y-40095D01*
X52388Y-40123D01*
X52402Y-40137D01*
X52444Y-40165D01*
X52500Y-40179D01*
X52613Y-40179D01*
X52641Y-40165D01*
X52655Y-40151D01*
X52669Y-40123D01*
X52669Y-40067D01*
X52655Y-40039D01*
X52641Y-40025D01*
X52613Y-40011D01*
X52542Y-40011D01*
X52514Y-40025D01*
X52500Y-40039D01*
X52486Y-40067D01*
X52486Y-40123D01*
X52500Y-40151D01*
X52514Y-40165D01*
X52542Y-40179D01*
X53174Y-40636D02*
X53469Y-40537D01*
X53174Y-40439D01*
X53188Y-40186D02*
X53174Y-40214D01*
X53174Y-40257D01*
X53188Y-40299D01*
X53216Y-40327D01*
X53244Y-40341D01*
X53300Y-40355D01*
X53342Y-40355D01*
X53399Y-40341D01*
X53427Y-40327D01*
X53455Y-40299D01*
X53469Y-40257D01*
X53469Y-40228D01*
X53455Y-40186D01*
X53441Y-40172D01*
X53342Y-40172D01*
X53342Y-40228D01*
X53202Y-40060D02*
X53188Y-40046D01*
X53174Y-40018D01*
X53174Y-39947D01*
X53188Y-39919D01*
X53202Y-39905D01*
X53230Y-39891D01*
X53258Y-39891D01*
X53300Y-39905D01*
X53469Y-40074D01*
X53469Y-39891D01*
G54D15*
X55710Y-40471D02*
X55671Y-40415D01*
X55643Y-40471D02*
X55643Y-40353D01*
X55688Y-40353D01*
X55699Y-40359D01*
X55705Y-40364D01*
X55710Y-40376D01*
X55710Y-40393D01*
X55705Y-40404D01*
X55699Y-40409D01*
X55688Y-40415D01*
X55643Y-40415D01*
X55811Y-40393D02*
X55811Y-40471D01*
X55783Y-40348D02*
X55755Y-40432D01*
X55828Y-40432D01*
X55699Y-39743D02*
X55631Y-39743D01*
X55665Y-39743D02*
X55665Y-39625D01*
X55654Y-39642D01*
X55643Y-39653D01*
X55631Y-39659D01*
X55772Y-39625D02*
X55783Y-39625D01*
X55794Y-39630D01*
X55800Y-39636D01*
X55806Y-39647D01*
X55811Y-39670D01*
X55811Y-39698D01*
X55806Y-39720D01*
X55800Y-39732D01*
X55794Y-39737D01*
X55783Y-39743D01*
X55772Y-39743D01*
X55761Y-39737D01*
X55755Y-39732D01*
X55750Y-39720D01*
X55744Y-39698D01*
X55744Y-39670D01*
X55750Y-39647D01*
X55755Y-39636D01*
X55761Y-39630D01*
X55772Y-39625D01*
X55862Y-39743D02*
X55862Y-39625D01*
X55873Y-39698D02*
X55907Y-39743D01*
X55907Y-39664D02*
X55862Y-39709D01*
X55171Y-39789D02*
X55115Y-39828D01*
X55171Y-39856D02*
X55053Y-39856D01*
X55053Y-39811D01*
X55059Y-39800D01*
X55064Y-39794D01*
X55076Y-39789D01*
X55093Y-39789D01*
X55104Y-39794D01*
X55109Y-39800D01*
X55115Y-39811D01*
X55115Y-39856D01*
X55053Y-39682D02*
X55053Y-39738D01*
X55109Y-39744D01*
X55104Y-39738D01*
X55098Y-39727D01*
X55098Y-39699D01*
X55104Y-39688D01*
X55109Y-39682D01*
X55121Y-39676D01*
X55149Y-39676D01*
X55160Y-39682D01*
X55166Y-39688D01*
X55171Y-39699D01*
X55171Y-39727D01*
X55166Y-39738D01*
X55160Y-39744D01*
X54443Y-39809D02*
X54443Y-39876D01*
X54443Y-39842D02*
X54325Y-39842D01*
X54342Y-39854D01*
X54353Y-39865D01*
X54359Y-39876D01*
X54325Y-39735D02*
X54325Y-39724D01*
X54330Y-39713D01*
X54336Y-39707D01*
X54347Y-39702D01*
X54370Y-39696D01*
X54398Y-39696D01*
X54420Y-39702D01*
X54432Y-39707D01*
X54437Y-39713D01*
X54443Y-39724D01*
X54443Y-39735D01*
X54437Y-39747D01*
X54432Y-39752D01*
X54420Y-39758D01*
X54398Y-39764D01*
X54370Y-39764D01*
X54347Y-39758D01*
X54336Y-39752D01*
X54330Y-39747D01*
X54325Y-39735D01*
X54325Y-39623D02*
X54325Y-39612D01*
X54330Y-39600D01*
X54336Y-39595D01*
X54347Y-39589D01*
X54370Y-39584D01*
X54398Y-39584D01*
X54420Y-39589D01*
X54432Y-39595D01*
X54437Y-39600D01*
X54443Y-39612D01*
X54443Y-39623D01*
X54437Y-39634D01*
X54432Y-39640D01*
X54420Y-39645D01*
X54398Y-39651D01*
X54370Y-39651D01*
X54347Y-39645D01*
X54336Y-39640D01*
X54330Y-39634D01*
X54325Y-39623D01*
X51471Y-40289D02*
X51415Y-40328D01*
X51471Y-40356D02*
X51353Y-40356D01*
X51353Y-40311D01*
X51359Y-40300D01*
X51364Y-40294D01*
X51376Y-40289D01*
X51393Y-40289D01*
X51404Y-40294D01*
X51409Y-40300D01*
X51415Y-40311D01*
X51415Y-40356D01*
X51353Y-40188D02*
X51353Y-40210D01*
X51359Y-40221D01*
X51364Y-40227D01*
X51381Y-40238D01*
X51404Y-40244D01*
X51449Y-40244D01*
X51460Y-40238D01*
X51466Y-40233D01*
X51471Y-40221D01*
X51471Y-40199D01*
X51466Y-40188D01*
X51460Y-40182D01*
X51449Y-40176D01*
X51421Y-40176D01*
X51409Y-40182D01*
X51404Y-40188D01*
X51398Y-40199D01*
X51398Y-40221D01*
X51404Y-40233D01*
X51409Y-40238D01*
X51421Y-40244D01*
X50743Y-40244D02*
X50743Y-40311D01*
X50743Y-40278D02*
X50625Y-40278D01*
X50642Y-40289D01*
X50653Y-40300D01*
X50659Y-40311D01*
X50743Y-40193D02*
X50625Y-40193D01*
X50698Y-40182D02*
X50743Y-40148D01*
X50664Y-40148D02*
X50709Y-40193D01*
X50050Y-40123D02*
X50010Y-40067D01*
X49982Y-40123D02*
X49982Y-40005D01*
X50027Y-40005D01*
X50038Y-40011D01*
X50044Y-40016D01*
X50050Y-40028D01*
X50050Y-40045D01*
X50044Y-40056D01*
X50038Y-40061D01*
X50027Y-40067D01*
X49982Y-40067D01*
X50089Y-40005D02*
X50168Y-40005D01*
X50117Y-40123D01*
X49960Y-40852D02*
X49892Y-40852D01*
X49926Y-40852D02*
X49926Y-40734D01*
X49915Y-40750D01*
X49903Y-40762D01*
X49892Y-40767D01*
X50033Y-40734D02*
X50044Y-40734D01*
X50055Y-40739D01*
X50061Y-40745D01*
X50066Y-40756D01*
X50072Y-40779D01*
X50072Y-40807D01*
X50066Y-40829D01*
X50061Y-40840D01*
X50055Y-40846D01*
X50044Y-40852D01*
X50033Y-40852D01*
X50021Y-40846D01*
X50016Y-40840D01*
X50010Y-40829D01*
X50005Y-40807D01*
X50005Y-40779D01*
X50010Y-40756D01*
X50016Y-40745D01*
X50021Y-40739D01*
X50033Y-40734D01*
X50123Y-40852D02*
X50123Y-40734D01*
X50134Y-40807D02*
X50168Y-40852D01*
X50168Y-40773D02*
X50123Y-40818D01*
G54D10*
X68285Y-40789D02*
X68267Y-40807D01*
X68210Y-40826D01*
X68173Y-40826D01*
X68117Y-40807D01*
X68079Y-40770D01*
X68060Y-40732D01*
X68042Y-40657D01*
X68042Y-40601D01*
X68060Y-40526D01*
X68079Y-40489D01*
X68117Y-40451D01*
X68173Y-40432D01*
X68210Y-40432D01*
X68267Y-40451D01*
X68285Y-40470D01*
X68510Y-40601D02*
X68473Y-40582D01*
X68454Y-40564D01*
X68435Y-40526D01*
X68435Y-40507D01*
X68454Y-40470D01*
X68473Y-40451D01*
X68510Y-40432D01*
X68585Y-40432D01*
X68623Y-40451D01*
X68642Y-40470D01*
X68660Y-40507D01*
X68660Y-40526D01*
X68642Y-40564D01*
X68623Y-40582D01*
X68585Y-40601D01*
X68510Y-40601D01*
X68473Y-40620D01*
X68454Y-40639D01*
X68435Y-40676D01*
X68435Y-40751D01*
X68454Y-40789D01*
X68473Y-40807D01*
X68510Y-40826D01*
X68585Y-40826D01*
X68623Y-40807D01*
X68642Y-40789D01*
X68660Y-40751D01*
X68660Y-40676D01*
X68642Y-40639D01*
X68623Y-40620D01*
X68585Y-40601D01*
X68285Y-42696D02*
X68060Y-42696D01*
X68173Y-42696D02*
X68173Y-42303D01*
X68135Y-42359D01*
X68098Y-42396D01*
X68060Y-42415D01*
X68623Y-42434D02*
X68623Y-42696D01*
X68454Y-42434D02*
X68454Y-42640D01*
X68473Y-42678D01*
X68510Y-42696D01*
X68567Y-42696D01*
X68604Y-42678D01*
X68623Y-42659D01*
X52498Y-37689D02*
X52479Y-37707D01*
X52423Y-37726D01*
X52385Y-37726D01*
X52329Y-37707D01*
X52292Y-37670D01*
X52273Y-37632D01*
X52254Y-37557D01*
X52254Y-37501D01*
X52273Y-37426D01*
X52292Y-37389D01*
X52329Y-37351D01*
X52385Y-37332D01*
X52423Y-37332D01*
X52479Y-37351D01*
X52498Y-37370D01*
X52873Y-37726D02*
X52648Y-37726D01*
X52760Y-37726D02*
X52760Y-37332D01*
X52723Y-37389D01*
X52685Y-37426D01*
X52648Y-37445D01*
X53098Y-37501D02*
X53060Y-37482D01*
X53042Y-37464D01*
X53023Y-37426D01*
X53023Y-37407D01*
X53042Y-37370D01*
X53060Y-37351D01*
X53098Y-37332D01*
X53173Y-37332D01*
X53210Y-37351D01*
X53229Y-37370D01*
X53248Y-37407D01*
X53248Y-37426D01*
X53229Y-37464D01*
X53210Y-37482D01*
X53173Y-37501D01*
X53098Y-37501D01*
X53060Y-37520D01*
X53042Y-37539D01*
X53023Y-37576D01*
X53023Y-37651D01*
X53042Y-37689D01*
X53060Y-37707D01*
X53098Y-37726D01*
X53173Y-37726D01*
X53210Y-37707D01*
X53229Y-37689D01*
X53248Y-37651D01*
X53248Y-37576D01*
X53229Y-37539D01*
X53210Y-37520D01*
X53173Y-37501D01*
X52685Y-39596D02*
X52460Y-39596D01*
X52573Y-39596D02*
X52573Y-39203D01*
X52535Y-39259D01*
X52498Y-39296D01*
X52460Y-39315D01*
X53023Y-39334D02*
X53023Y-39596D01*
X52854Y-39334D02*
X52854Y-39540D01*
X52873Y-39578D01*
X52910Y-39596D01*
X52967Y-39596D01*
X53004Y-39578D01*
X53023Y-39559D01*
X57789Y-38801D02*
X57807Y-38820D01*
X57826Y-38876D01*
X57826Y-38914D01*
X57807Y-38970D01*
X57770Y-39007D01*
X57732Y-39026D01*
X57657Y-39045D01*
X57601Y-39045D01*
X57526Y-39026D01*
X57489Y-39007D01*
X57451Y-38970D01*
X57432Y-38914D01*
X57432Y-38876D01*
X57451Y-38820D01*
X57470Y-38801D01*
X57826Y-38426D02*
X57826Y-38651D01*
X57826Y-38539D02*
X57432Y-38539D01*
X57489Y-38576D01*
X57526Y-38614D01*
X57545Y-38651D01*
X57432Y-38089D02*
X57432Y-38164D01*
X57451Y-38201D01*
X57470Y-38220D01*
X57526Y-38257D01*
X57601Y-38276D01*
X57751Y-38276D01*
X57789Y-38257D01*
X57807Y-38239D01*
X57826Y-38201D01*
X57826Y-38126D01*
X57807Y-38089D01*
X57789Y-38070D01*
X57751Y-38051D01*
X57657Y-38051D01*
X57620Y-38070D01*
X57601Y-38089D01*
X57582Y-38126D01*
X57582Y-38201D01*
X57601Y-38239D01*
X57620Y-38257D01*
X57657Y-38276D01*
X59696Y-38614D02*
X59696Y-38839D01*
X59696Y-38726D02*
X59303Y-38726D01*
X59359Y-38764D01*
X59396Y-38801D01*
X59415Y-38839D01*
X59434Y-38276D02*
X59696Y-38276D01*
X59434Y-38445D02*
X59640Y-38445D01*
X59678Y-38426D01*
X59696Y-38389D01*
X59696Y-38332D01*
X59678Y-38295D01*
X59659Y-38276D01*
X49395Y-38054D02*
X49376Y-38073D01*
X49320Y-38092D01*
X49282Y-38092D01*
X49226Y-38073D01*
X49189Y-38035D01*
X49170Y-37998D01*
X49151Y-37923D01*
X49151Y-37867D01*
X49170Y-37792D01*
X49189Y-37754D01*
X49226Y-37717D01*
X49282Y-37698D01*
X49320Y-37698D01*
X49376Y-37717D01*
X49395Y-37735D01*
X49770Y-38092D02*
X49545Y-38092D01*
X49657Y-38092D02*
X49657Y-37698D01*
X49620Y-37754D01*
X49582Y-37792D01*
X49545Y-37810D01*
X50107Y-37829D02*
X50107Y-38092D01*
X50014Y-37679D02*
X49920Y-37960D01*
X50163Y-37960D01*
X49582Y-36221D02*
X49357Y-36221D01*
X49470Y-36221D02*
X49470Y-35828D01*
X49432Y-35884D01*
X49395Y-35921D01*
X49357Y-35940D01*
X49920Y-35959D02*
X49920Y-36221D01*
X49751Y-35959D02*
X49751Y-36165D01*
X49770Y-36203D01*
X49807Y-36221D01*
X49864Y-36221D01*
X49901Y-36203D01*
X49920Y-36184D01*
X64885Y-39789D02*
X64867Y-39807D01*
X64810Y-39826D01*
X64773Y-39826D01*
X64717Y-39807D01*
X64679Y-39770D01*
X64660Y-39732D01*
X64642Y-39657D01*
X64642Y-39601D01*
X64660Y-39526D01*
X64679Y-39489D01*
X64717Y-39451D01*
X64773Y-39432D01*
X64810Y-39432D01*
X64867Y-39451D01*
X64885Y-39470D01*
X65073Y-39826D02*
X65148Y-39826D01*
X65185Y-39807D01*
X65204Y-39789D01*
X65242Y-39732D01*
X65260Y-39657D01*
X65260Y-39507D01*
X65242Y-39470D01*
X65223Y-39451D01*
X65185Y-39432D01*
X65110Y-39432D01*
X65073Y-39451D01*
X65054Y-39470D01*
X65035Y-39507D01*
X65035Y-39601D01*
X65054Y-39639D01*
X65073Y-39657D01*
X65110Y-39676D01*
X65185Y-39676D01*
X65223Y-39657D01*
X65242Y-39639D01*
X65260Y-39601D01*
X64885Y-41696D02*
X64660Y-41696D01*
X64773Y-41696D02*
X64773Y-41303D01*
X64735Y-41359D01*
X64698Y-41396D01*
X64660Y-41415D01*
X65223Y-41434D02*
X65223Y-41696D01*
X65054Y-41434D02*
X65054Y-41640D01*
X65073Y-41678D01*
X65110Y-41696D01*
X65167Y-41696D01*
X65204Y-41678D01*
X65223Y-41659D01*
X66885Y-38189D02*
X66867Y-38207D01*
X66810Y-38226D01*
X66773Y-38226D01*
X66717Y-38207D01*
X66679Y-38170D01*
X66660Y-38132D01*
X66642Y-38057D01*
X66642Y-38001D01*
X66660Y-37926D01*
X66679Y-37889D01*
X66717Y-37851D01*
X66773Y-37832D01*
X66810Y-37832D01*
X66867Y-37851D01*
X66885Y-37870D01*
X67017Y-37832D02*
X67279Y-37832D01*
X67110Y-38226D01*
X66885Y-40096D02*
X66660Y-40096D01*
X66773Y-40096D02*
X66773Y-39703D01*
X66735Y-39759D01*
X66698Y-39796D01*
X66660Y-39815D01*
X67223Y-39834D02*
X67223Y-40096D01*
X67054Y-39834D02*
X67054Y-40040D01*
X67073Y-40078D01*
X67110Y-40096D01*
X67167Y-40096D01*
X67204Y-40078D01*
X67223Y-40059D01*
X61604Y-38217D02*
X61623Y-38235D01*
X61642Y-38292D01*
X61642Y-38329D01*
X61623Y-38385D01*
X61585Y-38423D01*
X61548Y-38442D01*
X61473Y-38460D01*
X61417Y-38460D01*
X61342Y-38442D01*
X61304Y-38423D01*
X61267Y-38385D01*
X61248Y-38329D01*
X61248Y-38292D01*
X61267Y-38235D01*
X61285Y-38217D01*
X61248Y-37860D02*
X61248Y-38048D01*
X61435Y-38067D01*
X61417Y-38048D01*
X61398Y-38010D01*
X61398Y-37917D01*
X61417Y-37879D01*
X61435Y-37860D01*
X61473Y-37842D01*
X61567Y-37842D01*
X61604Y-37860D01*
X61623Y-37879D01*
X61642Y-37917D01*
X61642Y-38010D01*
X61623Y-38048D01*
X61604Y-38067D01*
X59771Y-38217D02*
X59771Y-38442D01*
X59771Y-38329D02*
X59378Y-38329D01*
X59434Y-38367D01*
X59471Y-38404D01*
X59490Y-38442D01*
X59509Y-37879D02*
X59771Y-37879D01*
X59509Y-38048D02*
X59715Y-38048D01*
X59753Y-38029D01*
X59771Y-37992D01*
X59771Y-37935D01*
X59753Y-37898D01*
X59734Y-37879D01*
X70354Y-43317D02*
X70373Y-43335D01*
X70392Y-43392D01*
X70392Y-43429D01*
X70373Y-43485D01*
X70335Y-43523D01*
X70298Y-43542D01*
X70223Y-43560D01*
X70167Y-43560D01*
X70092Y-43542D01*
X70054Y-43523D01*
X70017Y-43485D01*
X69998Y-43429D01*
X69998Y-43392D01*
X70017Y-43335D01*
X70035Y-43317D01*
X69998Y-43185D02*
X69998Y-42942D01*
X70148Y-43073D01*
X70148Y-43017D01*
X70167Y-42979D01*
X70185Y-42960D01*
X70223Y-42942D01*
X70317Y-42942D01*
X70354Y-42960D01*
X70373Y-42979D01*
X70392Y-43017D01*
X70392Y-43129D01*
X70373Y-43167D01*
X70354Y-43185D01*
X68521Y-43317D02*
X68521Y-43542D01*
X68521Y-43429D02*
X68128Y-43429D01*
X68184Y-43467D01*
X68221Y-43504D01*
X68240Y-43542D01*
X68259Y-42979D02*
X68521Y-42979D01*
X68259Y-43148D02*
X68465Y-43148D01*
X68503Y-43129D01*
X68521Y-43092D01*
X68521Y-43035D01*
X68503Y-42998D01*
X68484Y-42979D01*
X66589Y-43801D02*
X66607Y-43820D01*
X66626Y-43876D01*
X66626Y-43914D01*
X66607Y-43970D01*
X66570Y-44007D01*
X66532Y-44026D01*
X66457Y-44045D01*
X66401Y-44045D01*
X66326Y-44026D01*
X66289Y-44007D01*
X66251Y-43970D01*
X66232Y-43914D01*
X66232Y-43876D01*
X66251Y-43820D01*
X66270Y-43801D01*
X66626Y-43426D02*
X66626Y-43651D01*
X66626Y-43539D02*
X66232Y-43539D01*
X66289Y-43576D01*
X66326Y-43614D01*
X66345Y-43651D01*
X66232Y-43182D02*
X66232Y-43145D01*
X66251Y-43107D01*
X66270Y-43089D01*
X66307Y-43070D01*
X66382Y-43051D01*
X66476Y-43051D01*
X66551Y-43070D01*
X66589Y-43089D01*
X66607Y-43107D01*
X66626Y-43145D01*
X66626Y-43182D01*
X66607Y-43220D01*
X66589Y-43239D01*
X66551Y-43257D01*
X66476Y-43276D01*
X66382Y-43276D01*
X66307Y-43257D01*
X66270Y-43239D01*
X66251Y-43220D01*
X66232Y-43182D01*
X68496Y-43614D02*
X68496Y-43839D01*
X68496Y-43726D02*
X68103Y-43726D01*
X68159Y-43764D01*
X68196Y-43801D01*
X68215Y-43839D01*
X68234Y-43276D02*
X68496Y-43276D01*
X68234Y-43445D02*
X68440Y-43445D01*
X68478Y-43426D01*
X68496Y-43389D01*
X68496Y-43332D01*
X68478Y-43295D01*
X68459Y-43276D01*
X52295Y-43054D02*
X52276Y-43073D01*
X52220Y-43092D01*
X52182Y-43092D01*
X52126Y-43073D01*
X52089Y-43035D01*
X52070Y-42998D01*
X52051Y-42923D01*
X52051Y-42867D01*
X52070Y-42792D01*
X52089Y-42754D01*
X52126Y-42717D01*
X52182Y-42698D01*
X52220Y-42698D01*
X52276Y-42717D01*
X52295Y-42735D01*
X52670Y-43092D02*
X52445Y-43092D01*
X52557Y-43092D02*
X52557Y-42698D01*
X52520Y-42754D01*
X52482Y-42792D01*
X52445Y-42810D01*
X52801Y-42698D02*
X53063Y-42698D01*
X52895Y-43092D01*
X52482Y-41221D02*
X52257Y-41221D01*
X52370Y-41221D02*
X52370Y-40828D01*
X52332Y-40884D01*
X52295Y-40921D01*
X52257Y-40940D01*
X52820Y-40959D02*
X52820Y-41221D01*
X52651Y-40959D02*
X52651Y-41165D01*
X52670Y-41203D01*
X52707Y-41221D01*
X52764Y-41221D01*
X52801Y-41203D01*
X52820Y-41184D01*
X62189Y-37764D02*
X62207Y-37782D01*
X62226Y-37839D01*
X62226Y-37876D01*
X62207Y-37932D01*
X62170Y-37970D01*
X62132Y-37989D01*
X62057Y-38007D01*
X62001Y-38007D01*
X61926Y-37989D01*
X61889Y-37970D01*
X61851Y-37932D01*
X61832Y-37876D01*
X61832Y-37839D01*
X61851Y-37782D01*
X61870Y-37764D01*
X61832Y-37426D02*
X61832Y-37501D01*
X61851Y-37539D01*
X61870Y-37557D01*
X61926Y-37595D01*
X62001Y-37614D01*
X62151Y-37614D01*
X62189Y-37595D01*
X62207Y-37576D01*
X62226Y-37539D01*
X62226Y-37464D01*
X62207Y-37426D01*
X62189Y-37407D01*
X62151Y-37389D01*
X62057Y-37389D01*
X62020Y-37407D01*
X62001Y-37426D01*
X61982Y-37464D01*
X61982Y-37539D01*
X62001Y-37576D01*
X62020Y-37595D01*
X62057Y-37614D01*
X64096Y-37764D02*
X64096Y-37989D01*
X64096Y-37876D02*
X63703Y-37876D01*
X63759Y-37914D01*
X63796Y-37951D01*
X63815Y-37989D01*
X63834Y-37426D02*
X64096Y-37426D01*
X63834Y-37595D02*
X64040Y-37595D01*
X64078Y-37576D01*
X64096Y-37539D01*
X64096Y-37482D01*
X64078Y-37445D01*
X64059Y-37426D01*
X71089Y-43914D02*
X71107Y-43932D01*
X71126Y-43989D01*
X71126Y-44026D01*
X71107Y-44082D01*
X71070Y-44120D01*
X71032Y-44139D01*
X70957Y-44157D01*
X70901Y-44157D01*
X70826Y-44139D01*
X70789Y-44120D01*
X70751Y-44082D01*
X70732Y-44026D01*
X70732Y-43989D01*
X70751Y-43932D01*
X70770Y-43914D01*
X70864Y-43576D02*
X71126Y-43576D01*
X70714Y-43670D02*
X70995Y-43764D01*
X70995Y-43520D01*
X72996Y-43914D02*
X72996Y-44139D01*
X72996Y-44026D02*
X72603Y-44026D01*
X72659Y-44064D01*
X72696Y-44101D01*
X72715Y-44139D01*
X72734Y-43576D02*
X72996Y-43576D01*
X72734Y-43745D02*
X72940Y-43745D01*
X72978Y-43726D01*
X72996Y-43689D01*
X72996Y-43632D01*
X72978Y-43595D01*
X72959Y-43576D01*
X59489Y-42601D02*
X59507Y-42620D01*
X59526Y-42676D01*
X59526Y-42714D01*
X59507Y-42770D01*
X59470Y-42807D01*
X59432Y-42826D01*
X59357Y-42845D01*
X59301Y-42845D01*
X59226Y-42826D01*
X59189Y-42807D01*
X59151Y-42770D01*
X59132Y-42714D01*
X59132Y-42676D01*
X59151Y-42620D01*
X59170Y-42601D01*
X59170Y-42451D02*
X59151Y-42432D01*
X59132Y-42395D01*
X59132Y-42301D01*
X59151Y-42264D01*
X59170Y-42245D01*
X59207Y-42226D01*
X59245Y-42226D01*
X59301Y-42245D01*
X59526Y-42470D01*
X59526Y-42226D01*
X59132Y-41982D02*
X59132Y-41945D01*
X59151Y-41907D01*
X59170Y-41889D01*
X59207Y-41870D01*
X59282Y-41851D01*
X59376Y-41851D01*
X59451Y-41870D01*
X59489Y-41889D01*
X59507Y-41907D01*
X59526Y-41945D01*
X59526Y-41982D01*
X59507Y-42020D01*
X59489Y-42039D01*
X59451Y-42057D01*
X59376Y-42076D01*
X59282Y-42076D01*
X59207Y-42057D01*
X59170Y-42039D01*
X59151Y-42020D01*
X59132Y-41982D01*
X61396Y-42414D02*
X61396Y-42639D01*
X61396Y-42526D02*
X61003Y-42526D01*
X61059Y-42564D01*
X61096Y-42601D01*
X61115Y-42639D01*
X61134Y-42076D02*
X61396Y-42076D01*
X61134Y-42245D02*
X61340Y-42245D01*
X61378Y-42226D01*
X61396Y-42189D01*
X61396Y-42132D01*
X61378Y-42095D01*
X61359Y-42076D01*
X47089Y-41301D02*
X47107Y-41320D01*
X47126Y-41376D01*
X47126Y-41414D01*
X47107Y-41470D01*
X47070Y-41507D01*
X47032Y-41526D01*
X46957Y-41545D01*
X46901Y-41545D01*
X46826Y-41526D01*
X46789Y-41507D01*
X46751Y-41470D01*
X46732Y-41414D01*
X46732Y-41376D01*
X46751Y-41320D01*
X46770Y-41301D01*
X47126Y-40926D02*
X47126Y-41151D01*
X47126Y-41039D02*
X46732Y-41039D01*
X46789Y-41076D01*
X46826Y-41114D01*
X46845Y-41151D01*
X46732Y-40795D02*
X46732Y-40551D01*
X46882Y-40682D01*
X46882Y-40626D01*
X46901Y-40589D01*
X46920Y-40570D01*
X46957Y-40551D01*
X47051Y-40551D01*
X47089Y-40570D01*
X47107Y-40589D01*
X47126Y-40626D01*
X47126Y-40739D01*
X47107Y-40776D01*
X47089Y-40795D01*
X48996Y-41114D02*
X48996Y-41339D01*
X48996Y-41226D02*
X48603Y-41226D01*
X48659Y-41264D01*
X48696Y-41301D01*
X48715Y-41339D01*
X48734Y-40776D02*
X48996Y-40776D01*
X48734Y-40945D02*
X48940Y-40945D01*
X48978Y-40926D01*
X48996Y-40889D01*
X48996Y-40832D01*
X48978Y-40795D01*
X48959Y-40776D01*
X60054Y-43004D02*
X60073Y-43023D01*
X60092Y-43079D01*
X60092Y-43117D01*
X60073Y-43173D01*
X60035Y-43210D01*
X59998Y-43229D01*
X59923Y-43248D01*
X59867Y-43248D01*
X59792Y-43229D01*
X59754Y-43210D01*
X59717Y-43173D01*
X59698Y-43117D01*
X59698Y-43079D01*
X59717Y-43023D01*
X59735Y-43004D01*
X60092Y-42629D02*
X60092Y-42854D01*
X60092Y-42742D02*
X59698Y-42742D01*
X59754Y-42779D01*
X59792Y-42817D01*
X59810Y-42854D01*
X59698Y-42273D02*
X59698Y-42460D01*
X59885Y-42479D01*
X59867Y-42460D01*
X59848Y-42423D01*
X59848Y-42329D01*
X59867Y-42292D01*
X59885Y-42273D01*
X59923Y-42254D01*
X60017Y-42254D01*
X60054Y-42273D01*
X60073Y-42292D01*
X60092Y-42329D01*
X60092Y-42423D01*
X60073Y-42460D01*
X60054Y-42479D01*
X58221Y-42817D02*
X58221Y-43042D01*
X58221Y-42929D02*
X57828Y-42929D01*
X57884Y-42967D01*
X57921Y-43004D01*
X57940Y-43042D01*
X57959Y-42479D02*
X58221Y-42479D01*
X57959Y-42648D02*
X58165Y-42648D01*
X58203Y-42629D01*
X58221Y-42592D01*
X58221Y-42535D01*
X58203Y-42498D01*
X58184Y-42479D01*
X64754Y-42404D02*
X64773Y-42423D01*
X64792Y-42479D01*
X64792Y-42517D01*
X64773Y-42573D01*
X64735Y-42610D01*
X64698Y-42629D01*
X64623Y-42648D01*
X64567Y-42648D01*
X64492Y-42629D01*
X64454Y-42610D01*
X64417Y-42573D01*
X64398Y-42517D01*
X64398Y-42479D01*
X64417Y-42423D01*
X64435Y-42404D01*
X64792Y-42029D02*
X64792Y-42254D01*
X64792Y-42142D02*
X64398Y-42142D01*
X64454Y-42179D01*
X64492Y-42217D01*
X64510Y-42254D01*
X64792Y-41842D02*
X64792Y-41767D01*
X64773Y-41729D01*
X64754Y-41711D01*
X64698Y-41673D01*
X64623Y-41654D01*
X64473Y-41654D01*
X64435Y-41673D01*
X64417Y-41692D01*
X64398Y-41729D01*
X64398Y-41804D01*
X64417Y-41842D01*
X64435Y-41860D01*
X64473Y-41879D01*
X64567Y-41879D01*
X64604Y-41860D01*
X64623Y-41842D01*
X64642Y-41804D01*
X64642Y-41729D01*
X64623Y-41692D01*
X64604Y-41673D01*
X64567Y-41654D01*
X62921Y-42217D02*
X62921Y-42442D01*
X62921Y-42329D02*
X62528Y-42329D01*
X62584Y-42367D01*
X62621Y-42404D01*
X62640Y-42442D01*
X62659Y-41879D02*
X62921Y-41879D01*
X62659Y-42048D02*
X62865Y-42048D01*
X62903Y-42029D01*
X62921Y-41992D01*
X62921Y-41935D01*
X62903Y-41898D01*
X62884Y-41879D01*
X53289Y-42701D02*
X53307Y-42720D01*
X53326Y-42776D01*
X53326Y-42814D01*
X53307Y-42870D01*
X53270Y-42907D01*
X53232Y-42926D01*
X53157Y-42945D01*
X53101Y-42945D01*
X53026Y-42926D01*
X52989Y-42907D01*
X52951Y-42870D01*
X52932Y-42814D01*
X52932Y-42776D01*
X52951Y-42720D01*
X52970Y-42701D01*
X53326Y-42326D02*
X53326Y-42551D01*
X53326Y-42439D02*
X52932Y-42439D01*
X52989Y-42476D01*
X53026Y-42514D01*
X53045Y-42551D01*
X53326Y-41951D02*
X53326Y-42176D01*
X53326Y-42064D02*
X52932Y-42064D01*
X52989Y-42101D01*
X53026Y-42139D01*
X53045Y-42176D01*
X55196Y-42514D02*
X55196Y-42739D01*
X55196Y-42626D02*
X54803Y-42626D01*
X54859Y-42664D01*
X54896Y-42701D01*
X54915Y-42739D01*
X54934Y-42176D02*
X55196Y-42176D01*
X54934Y-42345D02*
X55140Y-42345D01*
X55178Y-42326D01*
X55196Y-42289D01*
X55196Y-42232D01*
X55178Y-42195D01*
X55159Y-42176D01*
X49495Y-42554D02*
X49476Y-42573D01*
X49420Y-42592D01*
X49382Y-42592D01*
X49326Y-42573D01*
X49289Y-42535D01*
X49270Y-42498D01*
X49251Y-42423D01*
X49251Y-42367D01*
X49270Y-42292D01*
X49289Y-42254D01*
X49326Y-42217D01*
X49382Y-42198D01*
X49420Y-42198D01*
X49476Y-42217D01*
X49495Y-42235D01*
X49645Y-42235D02*
X49664Y-42217D01*
X49701Y-42198D01*
X49795Y-42198D01*
X49832Y-42217D01*
X49851Y-42235D01*
X49870Y-42273D01*
X49870Y-42310D01*
X49851Y-42367D01*
X49626Y-42592D01*
X49870Y-42592D01*
X50245Y-42592D02*
X50020Y-42592D01*
X50132Y-42592D02*
X50132Y-42198D01*
X50095Y-42254D01*
X50057Y-42292D01*
X50020Y-42310D01*
X49270Y-40328D02*
X49307Y-40328D01*
X49345Y-40347D01*
X49364Y-40365D01*
X49382Y-40403D01*
X49401Y-40478D01*
X49401Y-40571D01*
X49382Y-40646D01*
X49364Y-40684D01*
X49345Y-40703D01*
X49307Y-40721D01*
X49270Y-40721D01*
X49232Y-40703D01*
X49214Y-40684D01*
X49195Y-40646D01*
X49176Y-40571D01*
X49176Y-40478D01*
X49195Y-40403D01*
X49214Y-40365D01*
X49232Y-40347D01*
X49270Y-40328D01*
X49570Y-40684D02*
X49589Y-40703D01*
X49570Y-40721D01*
X49551Y-40703D01*
X49570Y-40684D01*
X49570Y-40721D01*
X49964Y-40721D02*
X49739Y-40721D01*
X49851Y-40721D02*
X49851Y-40328D01*
X49814Y-40384D01*
X49776Y-40421D01*
X49739Y-40440D01*
X50301Y-40459D02*
X50301Y-40721D01*
X50132Y-40459D02*
X50132Y-40665D01*
X50151Y-40703D01*
X50188Y-40721D01*
X50245Y-40721D01*
X50282Y-40703D01*
X50301Y-40684D01*
X54789Y-41601D02*
X54807Y-41620D01*
X54826Y-41676D01*
X54826Y-41714D01*
X54807Y-41770D01*
X54770Y-41807D01*
X54732Y-41826D01*
X54657Y-41845D01*
X54601Y-41845D01*
X54526Y-41826D01*
X54489Y-41807D01*
X54451Y-41770D01*
X54432Y-41714D01*
X54432Y-41676D01*
X54451Y-41620D01*
X54470Y-41601D01*
X54826Y-41226D02*
X54826Y-41451D01*
X54826Y-41339D02*
X54432Y-41339D01*
X54489Y-41376D01*
X54526Y-41414D01*
X54545Y-41451D01*
X54470Y-41076D02*
X54451Y-41057D01*
X54432Y-41020D01*
X54432Y-40926D01*
X54451Y-40889D01*
X54470Y-40870D01*
X54507Y-40851D01*
X54545Y-40851D01*
X54601Y-40870D01*
X54826Y-41095D01*
X54826Y-40851D01*
X56303Y-41826D02*
X56303Y-41788D01*
X56321Y-41751D01*
X56340Y-41732D01*
X56378Y-41714D01*
X56453Y-41695D01*
X56546Y-41695D01*
X56621Y-41714D01*
X56659Y-41732D01*
X56678Y-41751D01*
X56696Y-41788D01*
X56696Y-41826D01*
X56678Y-41863D01*
X56659Y-41882D01*
X56621Y-41901D01*
X56546Y-41920D01*
X56453Y-41920D01*
X56378Y-41901D01*
X56340Y-41882D01*
X56321Y-41863D01*
X56303Y-41826D01*
X56659Y-41526D02*
X56678Y-41507D01*
X56696Y-41526D01*
X56678Y-41545D01*
X56659Y-41526D01*
X56696Y-41526D01*
X56696Y-41132D02*
X56696Y-41357D01*
X56696Y-41245D02*
X56303Y-41245D01*
X56359Y-41282D01*
X56396Y-41320D01*
X56415Y-41357D01*
X56434Y-40795D02*
X56696Y-40795D01*
X56434Y-40964D02*
X56640Y-40964D01*
X56678Y-40945D01*
X56696Y-40907D01*
X56696Y-40851D01*
X56678Y-40814D01*
X56659Y-40795D01*
X58509Y-40884D02*
X58321Y-41015D01*
X58509Y-41109D02*
X58115Y-41109D01*
X58115Y-40959D01*
X58134Y-40921D01*
X58153Y-40903D01*
X58190Y-40884D01*
X58246Y-40884D01*
X58284Y-40903D01*
X58303Y-40921D01*
X58321Y-40959D01*
X58321Y-41109D01*
X58115Y-40771D02*
X58509Y-40640D01*
X58115Y-40509D01*
X58115Y-40415D02*
X58115Y-40171D01*
X58265Y-40303D01*
X58265Y-40246D01*
X58284Y-40209D01*
X58303Y-40190D01*
X58340Y-40171D01*
X58434Y-40171D01*
X58471Y-40190D01*
X58490Y-40209D01*
X58509Y-40246D01*
X58509Y-40359D01*
X58490Y-40396D01*
X58471Y-40415D01*
X57559Y-39784D02*
X57559Y-40009D01*
X57559Y-39896D02*
X57165Y-39896D01*
X57221Y-39934D01*
X57259Y-39971D01*
X57278Y-40009D01*
X57165Y-39540D02*
X57165Y-39503D01*
X57184Y-39465D01*
X57203Y-39446D01*
X57240Y-39428D01*
X57315Y-39409D01*
X57409Y-39409D01*
X57484Y-39428D01*
X57521Y-39446D01*
X57540Y-39465D01*
X57559Y-39503D01*
X57559Y-39540D01*
X57540Y-39578D01*
X57521Y-39596D01*
X57484Y-39615D01*
X57409Y-39634D01*
X57315Y-39634D01*
X57240Y-39615D01*
X57203Y-39596D01*
X57184Y-39578D01*
X57165Y-39540D01*
X57559Y-39240D02*
X57165Y-39240D01*
X57409Y-39203D02*
X57559Y-39090D01*
X57296Y-39090D02*
X57446Y-39240D01*
X49015Y-38709D02*
X48884Y-38521D01*
X48790Y-38709D02*
X48790Y-38315D01*
X48940Y-38315D01*
X48978Y-38334D01*
X48996Y-38353D01*
X49015Y-38390D01*
X49015Y-38446D01*
X48996Y-38484D01*
X48978Y-38503D01*
X48940Y-38521D01*
X48790Y-38521D01*
X49128Y-38315D02*
X49259Y-38709D01*
X49390Y-38315D01*
X49690Y-38446D02*
X49690Y-38709D01*
X49596Y-38296D02*
X49503Y-38578D01*
X49746Y-38578D01*
X47915Y-39659D02*
X47690Y-39659D01*
X47803Y-39659D02*
X47803Y-39265D01*
X47765Y-39321D01*
X47728Y-39359D01*
X47690Y-39378D01*
X48159Y-39265D02*
X48196Y-39265D01*
X48234Y-39284D01*
X48253Y-39303D01*
X48271Y-39340D01*
X48290Y-39415D01*
X48290Y-39509D01*
X48271Y-39584D01*
X48253Y-39621D01*
X48234Y-39640D01*
X48196Y-39659D01*
X48159Y-39659D01*
X48121Y-39640D01*
X48103Y-39621D01*
X48084Y-39584D01*
X48065Y-39509D01*
X48065Y-39415D01*
X48084Y-39340D01*
X48103Y-39303D01*
X48121Y-39284D01*
X48159Y-39265D01*
X48459Y-39659D02*
X48459Y-39265D01*
X48496Y-39509D02*
X48609Y-39659D01*
X48609Y-39396D02*
X48459Y-39546D01*
X53901Y-35902D02*
X53507Y-35902D01*
X53507Y-35752D01*
X53526Y-35715D01*
X53545Y-35696D01*
X53582Y-35677D01*
X53639Y-35677D01*
X53676Y-35696D01*
X53695Y-35715D01*
X53714Y-35752D01*
X53714Y-35902D01*
X53901Y-35490D02*
X53901Y-35415D01*
X53882Y-35377D01*
X53863Y-35359D01*
X53807Y-35321D01*
X53732Y-35302D01*
X53582Y-35302D01*
X53545Y-35321D01*
X53526Y-35340D01*
X53507Y-35377D01*
X53507Y-35452D01*
X53526Y-35490D01*
X53545Y-35509D01*
X53582Y-35527D01*
X53676Y-35527D01*
X53714Y-35509D01*
X53732Y-35490D01*
X53751Y-35452D01*
X53751Y-35377D01*
X53732Y-35340D01*
X53714Y-35321D01*
X53676Y-35302D01*
X57523Y-36291D02*
X57523Y-36216D01*
X57542Y-36179D01*
X57579Y-36141D01*
X57654Y-36123D01*
X57785Y-36123D01*
X57860Y-36141D01*
X57898Y-36179D01*
X57917Y-36216D01*
X57917Y-36291D01*
X57898Y-36329D01*
X57860Y-36366D01*
X57785Y-36385D01*
X57654Y-36385D01*
X57579Y-36366D01*
X57542Y-36329D01*
X57523Y-36291D01*
X57523Y-35954D02*
X57842Y-35954D01*
X57879Y-35935D01*
X57898Y-35916D01*
X57917Y-35879D01*
X57917Y-35804D01*
X57898Y-35766D01*
X57879Y-35748D01*
X57842Y-35729D01*
X57523Y-35729D01*
X57523Y-35598D02*
X57523Y-35373D01*
X57917Y-35485D02*
X57523Y-35485D01*
X57561Y-35260D02*
X57542Y-35241D01*
X57523Y-35204D01*
X57523Y-35110D01*
X57542Y-35073D01*
X57561Y-35054D01*
X57598Y-35035D01*
X57636Y-35035D01*
X57692Y-35054D01*
X57917Y-35279D01*
X57917Y-35035D01*
X50001Y-46702D02*
X49607Y-46702D01*
X49607Y-46552D01*
X49626Y-46515D01*
X49645Y-46496D01*
X49682Y-46477D01*
X49739Y-46477D01*
X49776Y-46496D01*
X49795Y-46515D01*
X49814Y-46552D01*
X49814Y-46702D01*
X49776Y-46252D02*
X49757Y-46290D01*
X49739Y-46309D01*
X49701Y-46327D01*
X49682Y-46327D01*
X49645Y-46309D01*
X49626Y-46290D01*
X49607Y-46252D01*
X49607Y-46177D01*
X49626Y-46140D01*
X49645Y-46121D01*
X49682Y-46102D01*
X49701Y-46102D01*
X49739Y-46121D01*
X49757Y-46140D01*
X49776Y-46177D01*
X49776Y-46252D01*
X49795Y-46290D01*
X49814Y-46309D01*
X49851Y-46327D01*
X49926Y-46327D01*
X49963Y-46309D01*
X49982Y-46290D01*
X50001Y-46252D01*
X50001Y-46177D01*
X49982Y-46140D01*
X49963Y-46121D01*
X49926Y-46102D01*
X49851Y-46102D01*
X49814Y-46121D01*
X49795Y-46140D01*
X49776Y-46177D01*
X53623Y-47026D02*
X54017Y-46894D01*
X53623Y-46763D01*
X53642Y-46426D02*
X53623Y-46463D01*
X53623Y-46520D01*
X53642Y-46576D01*
X53679Y-46613D01*
X53717Y-46632D01*
X53792Y-46651D01*
X53848Y-46651D01*
X53923Y-46632D01*
X53960Y-46613D01*
X53998Y-46576D01*
X54017Y-46520D01*
X54017Y-46482D01*
X53998Y-46426D01*
X53979Y-46407D01*
X53848Y-46407D01*
X53848Y-46482D01*
X53661Y-46257D02*
X53642Y-46238D01*
X53623Y-46201D01*
X53623Y-46107D01*
X53642Y-46070D01*
X53661Y-46051D01*
X53698Y-46032D01*
X53736Y-46032D01*
X53792Y-46051D01*
X54017Y-46276D01*
X54017Y-46032D01*
X55901Y-46702D02*
X55507Y-46702D01*
X55507Y-46552D01*
X55526Y-46515D01*
X55545Y-46496D01*
X55582Y-46477D01*
X55639Y-46477D01*
X55676Y-46496D01*
X55695Y-46515D01*
X55714Y-46552D01*
X55714Y-46702D01*
X55507Y-46346D02*
X55507Y-46084D01*
X55901Y-46252D01*
X59917Y-46904D02*
X59523Y-46904D01*
X59917Y-46716D02*
X59523Y-46716D01*
X59917Y-46491D01*
X59523Y-46491D01*
X59561Y-46323D02*
X59542Y-46304D01*
X59523Y-46266D01*
X59523Y-46173D01*
X59542Y-46135D01*
X59561Y-46116D01*
X59598Y-46098D01*
X59636Y-46098D01*
X59692Y-46116D01*
X59917Y-46341D01*
X59917Y-46098D01*
M02*
