G04 (created by PCBNEW (2013-may-18)-stable) date 2014年01月29日 星期三 11时55分50秒*
%MOIN*%
G04 Gerber Fmt 3.4, Leading zero omitted, Abs format*
%FSLAX34Y34*%
G01*
G70*
G90*
G04 APERTURE LIST*
%ADD10C,0.00590551*%
%ADD11C,0.0593*%
%ADD12C,0.0944882*%
%ADD13C,0.035*%
%ADD14C,0.01*%
G04 APERTURE END LIST*
G54D10*
G54D11*
X45350Y-43250D03*
X44350Y-43250D03*
X45350Y-42250D03*
X44350Y-42250D03*
X45350Y-41250D03*
X44350Y-41250D03*
X45350Y-40250D03*
X44350Y-40250D03*
X45350Y-39250D03*
X44350Y-39250D03*
G54D12*
X70950Y-46550D03*
X69950Y-47550D03*
X69950Y-45550D03*
X71950Y-45550D03*
X71950Y-47550D03*
X71050Y-40650D03*
X70050Y-41650D03*
X70050Y-39650D03*
X72050Y-39650D03*
X72050Y-41650D03*
X64250Y-46550D03*
X63250Y-47550D03*
X63250Y-45550D03*
X65250Y-45550D03*
X65250Y-47550D03*
X71050Y-35750D03*
X70050Y-36750D03*
X70050Y-34750D03*
X72050Y-34750D03*
X72050Y-36750D03*
X65550Y-35750D03*
X64550Y-36750D03*
X64550Y-34750D03*
X66550Y-34750D03*
X66550Y-36750D03*
X55750Y-35750D03*
X54750Y-36750D03*
X54750Y-34750D03*
X56750Y-34750D03*
X56750Y-36750D03*
X51850Y-46550D03*
X50850Y-47550D03*
X50850Y-45550D03*
X52850Y-45550D03*
X52850Y-47550D03*
X57750Y-46550D03*
X56750Y-47550D03*
X56750Y-45550D03*
X58750Y-45550D03*
X58750Y-47550D03*
G54D13*
X62100Y-42050D03*
X58150Y-42850D03*
X62150Y-37350D03*
X61150Y-36350D03*
X70050Y-42900D03*
X67150Y-43450D03*
X63950Y-38300D03*
X58700Y-40450D03*
X60700Y-43600D03*
X62204Y-45275D03*
X61417Y-46062D03*
X60629Y-34645D03*
X59448Y-35826D03*
X55050Y-43600D03*
X56025Y-42625D03*
X66275Y-44375D03*
G54D14*
X58950Y-42050D02*
X62100Y-42050D01*
X58150Y-42850D02*
X58950Y-42050D01*
X61150Y-36350D02*
X62150Y-37350D01*
X66600Y-42900D02*
X70050Y-42900D01*
X66600Y-42900D02*
X67150Y-43450D01*
X65050Y-41350D02*
X66600Y-42900D01*
X65050Y-39400D02*
X65050Y-41350D01*
X63950Y-38300D02*
X65050Y-39400D01*
X57650Y-41500D02*
X58700Y-40450D01*
X57650Y-43350D02*
X57650Y-41500D01*
X58500Y-44200D02*
X57650Y-43350D01*
X60100Y-44200D02*
X58500Y-44200D01*
X60700Y-43600D02*
X60100Y-44200D01*
X61417Y-46062D02*
X62204Y-45275D01*
X59448Y-35826D02*
X60629Y-34645D01*
X56025Y-42625D02*
X55050Y-43600D01*
G54D10*
G36*
X73200Y-33700D02*
X73200Y-34023D01*
X72172Y-34023D01*
X70172Y-34023D01*
X66672Y-34023D01*
X64672Y-34023D01*
X56872Y-34023D01*
X54872Y-34023D01*
X54585Y-34031D01*
X54358Y-34126D01*
X54310Y-34239D01*
X54380Y-34310D01*
X54239Y-34310D01*
X54126Y-34358D01*
X54023Y-34627D01*
X54031Y-34914D01*
X54126Y-35141D01*
X54239Y-35189D01*
X54679Y-34750D01*
X54239Y-34310D01*
X54380Y-34310D01*
X54750Y-34679D01*
X55189Y-34239D01*
X55141Y-34126D01*
X54872Y-34023D01*
X56872Y-34023D01*
X56585Y-34031D01*
X56358Y-34126D01*
X56310Y-34239D01*
X56380Y-34310D01*
X56239Y-34310D01*
X56126Y-34358D01*
X56023Y-34627D01*
X56031Y-34914D01*
X56117Y-35120D01*
X55894Y-35027D01*
X55606Y-35027D01*
X55381Y-35120D01*
X55476Y-34872D01*
X55468Y-34585D01*
X55373Y-34358D01*
X55260Y-34310D01*
X54820Y-34750D01*
X54826Y-34755D01*
X54755Y-34826D01*
X54750Y-34820D01*
X54310Y-35260D01*
X54358Y-35373D01*
X54627Y-35476D01*
X54914Y-35468D01*
X55120Y-35382D01*
X55027Y-35605D01*
X55027Y-35893D01*
X55120Y-36118D01*
X54872Y-36023D01*
X54585Y-36031D01*
X54358Y-36126D01*
X54310Y-36239D01*
X54380Y-36310D01*
X54239Y-36310D01*
X54126Y-36358D01*
X54023Y-36627D01*
X54031Y-36914D01*
X54126Y-37141D01*
X54239Y-37189D01*
X54679Y-36750D01*
X54239Y-36310D01*
X54380Y-36310D01*
X54750Y-36679D01*
X54755Y-36673D01*
X54826Y-36744D01*
X54820Y-36750D01*
X54891Y-36820D01*
X54750Y-36820D01*
X54310Y-37260D01*
X54358Y-37373D01*
X54627Y-37476D01*
X54914Y-37468D01*
X55141Y-37373D01*
X55189Y-37260D01*
X54750Y-36820D01*
X54891Y-36820D01*
X55260Y-37189D01*
X55373Y-37141D01*
X55476Y-36872D01*
X55468Y-36585D01*
X55382Y-36379D01*
X55605Y-36472D01*
X55893Y-36472D01*
X56118Y-36379D01*
X56023Y-36627D01*
X56031Y-36914D01*
X56126Y-37141D01*
X56239Y-37189D01*
X56679Y-36750D01*
X56673Y-36744D01*
X56744Y-36673D01*
X56750Y-36679D01*
X57189Y-36239D01*
X57141Y-36126D01*
X56872Y-36023D01*
X56585Y-36031D01*
X56379Y-36117D01*
X56472Y-35894D01*
X56472Y-35606D01*
X56379Y-35381D01*
X56627Y-35476D01*
X56914Y-35468D01*
X57141Y-35373D01*
X57189Y-35260D01*
X56750Y-34820D01*
X56744Y-34826D01*
X56673Y-34755D01*
X56679Y-34750D01*
X56239Y-34310D01*
X56380Y-34310D01*
X56750Y-34679D01*
X57189Y-34239D01*
X57141Y-34126D01*
X56872Y-34023D01*
X64672Y-34023D01*
X64385Y-34031D01*
X64158Y-34126D01*
X64110Y-34239D01*
X64180Y-34310D01*
X64039Y-34310D01*
X57260Y-34310D01*
X56820Y-34750D01*
X57260Y-35189D01*
X57373Y-35141D01*
X57476Y-34872D01*
X57468Y-34585D01*
X57373Y-34358D01*
X57260Y-34310D01*
X64039Y-34310D01*
X63926Y-34358D01*
X63823Y-34627D01*
X63831Y-34914D01*
X63926Y-35141D01*
X64039Y-35189D01*
X64479Y-34750D01*
X64039Y-34310D01*
X64180Y-34310D01*
X64550Y-34679D01*
X64989Y-34239D01*
X64941Y-34126D01*
X64672Y-34023D01*
X66672Y-34023D01*
X66385Y-34031D01*
X66158Y-34126D01*
X66110Y-34239D01*
X66180Y-34310D01*
X66039Y-34310D01*
X65926Y-34358D01*
X65823Y-34627D01*
X65831Y-34914D01*
X65917Y-35120D01*
X65694Y-35027D01*
X65406Y-35027D01*
X65181Y-35120D01*
X65276Y-34872D01*
X65268Y-34585D01*
X65173Y-34358D01*
X65060Y-34310D01*
X64620Y-34750D01*
X64626Y-34755D01*
X64555Y-34826D01*
X64550Y-34820D01*
X64110Y-35260D01*
X64158Y-35373D01*
X64427Y-35476D01*
X64714Y-35468D01*
X64920Y-35382D01*
X64827Y-35605D01*
X64827Y-35893D01*
X64840Y-35924D01*
X61065Y-35924D01*
X60909Y-35989D01*
X60789Y-36108D01*
X60725Y-36265D01*
X60725Y-36310D01*
X57260Y-36310D01*
X56820Y-36750D01*
X56891Y-36820D01*
X56750Y-36820D01*
X56310Y-37260D01*
X56358Y-37373D01*
X56627Y-37476D01*
X56914Y-37468D01*
X57141Y-37373D01*
X57189Y-37260D01*
X56750Y-36820D01*
X56891Y-36820D01*
X57260Y-37189D01*
X57373Y-37141D01*
X57476Y-36872D01*
X57468Y-36585D01*
X57373Y-36358D01*
X57260Y-36310D01*
X60725Y-36310D01*
X60724Y-36434D01*
X60789Y-36590D01*
X60908Y-36710D01*
X61065Y-36774D01*
X61150Y-36775D01*
X61725Y-37349D01*
X61724Y-37434D01*
X61789Y-37590D01*
X61908Y-37710D01*
X62065Y-37774D01*
X62234Y-37775D01*
X62390Y-37710D01*
X62510Y-37591D01*
X62574Y-37434D01*
X62575Y-37265D01*
X62510Y-37109D01*
X62391Y-36989D01*
X62234Y-36925D01*
X62149Y-36924D01*
X61574Y-36350D01*
X61575Y-36265D01*
X61510Y-36109D01*
X61391Y-35989D01*
X61234Y-35925D01*
X61065Y-35924D01*
X64840Y-35924D01*
X64920Y-36118D01*
X64672Y-36023D01*
X64385Y-36031D01*
X64158Y-36126D01*
X64110Y-36239D01*
X64180Y-36310D01*
X64039Y-36310D01*
X63926Y-36358D01*
X63823Y-36627D01*
X63831Y-36914D01*
X63926Y-37141D01*
X64039Y-37189D01*
X64479Y-36750D01*
X64039Y-36310D01*
X64180Y-36310D01*
X64550Y-36679D01*
X64555Y-36673D01*
X64626Y-36744D01*
X64620Y-36750D01*
X64691Y-36820D01*
X64550Y-36820D01*
X64110Y-37260D01*
X64158Y-37373D01*
X64427Y-37476D01*
X64714Y-37468D01*
X64941Y-37373D01*
X64989Y-37260D01*
X64550Y-36820D01*
X64691Y-36820D01*
X65060Y-37189D01*
X65173Y-37141D01*
X65276Y-36872D01*
X65268Y-36585D01*
X65182Y-36379D01*
X65405Y-36472D01*
X65693Y-36472D01*
X65918Y-36379D01*
X65823Y-36627D01*
X65831Y-36914D01*
X65926Y-37141D01*
X66039Y-37189D01*
X66479Y-36750D01*
X66473Y-36744D01*
X66544Y-36673D01*
X66550Y-36679D01*
X66989Y-36239D01*
X66941Y-36126D01*
X66672Y-36023D01*
X66385Y-36031D01*
X66179Y-36117D01*
X66272Y-35894D01*
X66272Y-35606D01*
X66179Y-35381D01*
X66427Y-35476D01*
X66714Y-35468D01*
X66941Y-35373D01*
X66989Y-35260D01*
X66550Y-34820D01*
X66544Y-34826D01*
X66473Y-34755D01*
X66479Y-34750D01*
X66039Y-34310D01*
X66180Y-34310D01*
X66550Y-34679D01*
X66989Y-34239D01*
X66941Y-34126D01*
X66672Y-34023D01*
X70172Y-34023D01*
X69885Y-34031D01*
X69658Y-34126D01*
X69610Y-34239D01*
X69680Y-34310D01*
X69539Y-34310D01*
X67060Y-34310D01*
X66620Y-34750D01*
X67060Y-35189D01*
X67173Y-35141D01*
X67276Y-34872D01*
X67268Y-34585D01*
X67173Y-34358D01*
X67060Y-34310D01*
X69539Y-34310D01*
X69426Y-34358D01*
X69323Y-34627D01*
X69331Y-34914D01*
X69426Y-35141D01*
X69539Y-35189D01*
X69979Y-34750D01*
X69539Y-34310D01*
X69680Y-34310D01*
X70050Y-34679D01*
X70489Y-34239D01*
X70441Y-34126D01*
X70172Y-34023D01*
X72172Y-34023D01*
X71885Y-34031D01*
X71658Y-34126D01*
X71610Y-34239D01*
X71680Y-34310D01*
X71539Y-34310D01*
X71426Y-34358D01*
X71323Y-34627D01*
X71331Y-34914D01*
X71417Y-35120D01*
X71194Y-35027D01*
X70906Y-35027D01*
X70681Y-35120D01*
X70776Y-34872D01*
X70768Y-34585D01*
X70673Y-34358D01*
X70560Y-34310D01*
X70120Y-34750D01*
X70126Y-34755D01*
X70055Y-34826D01*
X70050Y-34820D01*
X69610Y-35260D01*
X69658Y-35373D01*
X69927Y-35476D01*
X70214Y-35468D01*
X70420Y-35382D01*
X70327Y-35605D01*
X70327Y-35893D01*
X70420Y-36118D01*
X70172Y-36023D01*
X69885Y-36031D01*
X69658Y-36126D01*
X69610Y-36239D01*
X69680Y-36310D01*
X69539Y-36310D01*
X67060Y-36310D01*
X66620Y-36750D01*
X66691Y-36820D01*
X66550Y-36820D01*
X66110Y-37260D01*
X66158Y-37373D01*
X66427Y-37476D01*
X66714Y-37468D01*
X66941Y-37373D01*
X66989Y-37260D01*
X66550Y-36820D01*
X66691Y-36820D01*
X67060Y-37189D01*
X67173Y-37141D01*
X67276Y-36872D01*
X67268Y-36585D01*
X67173Y-36358D01*
X67060Y-36310D01*
X69539Y-36310D01*
X69426Y-36358D01*
X69323Y-36627D01*
X69331Y-36914D01*
X69426Y-37141D01*
X69539Y-37189D01*
X69979Y-36750D01*
X69539Y-36310D01*
X69680Y-36310D01*
X70050Y-36679D01*
X70055Y-36673D01*
X70126Y-36744D01*
X70120Y-36750D01*
X70191Y-36820D01*
X70050Y-36820D01*
X69610Y-37260D01*
X69658Y-37373D01*
X69927Y-37476D01*
X70214Y-37468D01*
X70441Y-37373D01*
X70489Y-37260D01*
X70050Y-36820D01*
X70191Y-36820D01*
X70560Y-37189D01*
X70673Y-37141D01*
X70776Y-36872D01*
X70768Y-36585D01*
X70682Y-36379D01*
X70905Y-36472D01*
X71193Y-36472D01*
X71418Y-36379D01*
X71323Y-36627D01*
X71331Y-36914D01*
X71426Y-37141D01*
X71539Y-37189D01*
X71979Y-36750D01*
X71973Y-36744D01*
X72044Y-36673D01*
X72050Y-36679D01*
X72489Y-36239D01*
X72441Y-36126D01*
X72172Y-36023D01*
X71885Y-36031D01*
X71679Y-36117D01*
X71772Y-35894D01*
X71772Y-35606D01*
X71679Y-35381D01*
X71927Y-35476D01*
X72214Y-35468D01*
X72441Y-35373D01*
X72489Y-35260D01*
X72050Y-34820D01*
X72044Y-34826D01*
X71973Y-34755D01*
X71979Y-34750D01*
X71539Y-34310D01*
X71680Y-34310D01*
X72050Y-34679D01*
X72489Y-34239D01*
X72441Y-34126D01*
X72172Y-34023D01*
X73200Y-34023D01*
X73200Y-34310D01*
X72560Y-34310D01*
X72120Y-34750D01*
X72560Y-35189D01*
X72673Y-35141D01*
X72776Y-34872D01*
X72768Y-34585D01*
X72673Y-34358D01*
X72560Y-34310D01*
X73200Y-34310D01*
X73200Y-36310D01*
X72560Y-36310D01*
X72120Y-36750D01*
X72191Y-36820D01*
X72050Y-36820D01*
X71610Y-37260D01*
X71658Y-37373D01*
X71927Y-37476D01*
X72214Y-37468D01*
X72441Y-37373D01*
X72489Y-37260D01*
X72050Y-36820D01*
X72191Y-36820D01*
X72560Y-37189D01*
X72673Y-37141D01*
X72776Y-36872D01*
X72768Y-36585D01*
X72673Y-36358D01*
X72560Y-36310D01*
X73200Y-36310D01*
X73200Y-37874D01*
X63865Y-37874D01*
X63709Y-37939D01*
X63589Y-38058D01*
X63525Y-38215D01*
X63524Y-38384D01*
X63589Y-38540D01*
X63708Y-38660D01*
X63801Y-38698D01*
X44430Y-38698D01*
X44213Y-38709D01*
X44064Y-38771D01*
X44037Y-38866D01*
X44108Y-38937D01*
X43966Y-38937D01*
X43871Y-38964D01*
X43798Y-39169D01*
X43809Y-39386D01*
X43871Y-39535D01*
X43966Y-39562D01*
X44279Y-39250D01*
X43966Y-38937D01*
X44108Y-38937D01*
X44350Y-39179D01*
X44662Y-38866D01*
X44635Y-38771D01*
X44430Y-38698D01*
X63801Y-38698D01*
X63813Y-38703D01*
X45241Y-38703D01*
X45040Y-38786D01*
X44886Y-38940D01*
X44852Y-39022D01*
X44828Y-38964D01*
X44733Y-38937D01*
X44420Y-39250D01*
X44733Y-39562D01*
X44828Y-39535D01*
X44850Y-39472D01*
X44886Y-39559D01*
X45040Y-39713D01*
X45129Y-39749D01*
X45040Y-39786D01*
X44886Y-39940D01*
X44850Y-40029D01*
X44813Y-39940D01*
X44659Y-39786D01*
X44577Y-39752D01*
X44635Y-39728D01*
X44662Y-39633D01*
X44350Y-39320D01*
X44037Y-39633D01*
X44064Y-39728D01*
X44127Y-39750D01*
X44040Y-39786D01*
X43886Y-39940D01*
X43803Y-40140D01*
X43803Y-40358D01*
X43886Y-40559D01*
X44040Y-40713D01*
X44129Y-40749D01*
X44040Y-40786D01*
X43886Y-40940D01*
X43803Y-41140D01*
X43803Y-41358D01*
X43886Y-41559D01*
X44040Y-41713D01*
X44129Y-41749D01*
X44040Y-41786D01*
X43886Y-41940D01*
X43803Y-42140D01*
X43803Y-42358D01*
X43886Y-42559D01*
X44040Y-42713D01*
X44129Y-42749D01*
X44040Y-42786D01*
X43886Y-42940D01*
X43803Y-43140D01*
X43803Y-43358D01*
X43886Y-43559D01*
X44040Y-43713D01*
X44240Y-43796D01*
X44458Y-43796D01*
X44659Y-43713D01*
X44813Y-43559D01*
X44849Y-43470D01*
X44886Y-43559D01*
X45040Y-43713D01*
X45240Y-43796D01*
X45458Y-43796D01*
X45659Y-43713D01*
X45813Y-43559D01*
X45896Y-43359D01*
X45896Y-43141D01*
X45813Y-42940D01*
X45659Y-42786D01*
X45570Y-42750D01*
X45659Y-42713D01*
X45813Y-42559D01*
X45896Y-42359D01*
X45896Y-42141D01*
X45813Y-41940D01*
X45659Y-41786D01*
X45570Y-41750D01*
X45659Y-41713D01*
X45813Y-41559D01*
X45896Y-41359D01*
X45896Y-41141D01*
X45813Y-40940D01*
X45659Y-40786D01*
X45570Y-40750D01*
X45659Y-40713D01*
X45813Y-40559D01*
X45896Y-40359D01*
X45896Y-40141D01*
X45813Y-39940D01*
X45659Y-39786D01*
X45570Y-39750D01*
X45659Y-39713D01*
X45813Y-39559D01*
X45896Y-39359D01*
X45896Y-39141D01*
X45813Y-38940D01*
X45659Y-38786D01*
X45459Y-38703D01*
X45241Y-38703D01*
X63813Y-38703D01*
X63865Y-38724D01*
X63950Y-38725D01*
X64750Y-39524D01*
X64750Y-40024D01*
X58615Y-40024D01*
X58459Y-40089D01*
X58339Y-40208D01*
X58275Y-40365D01*
X58274Y-40450D01*
X57437Y-41287D01*
X57372Y-41385D01*
X57350Y-41500D01*
X57350Y-43350D01*
X57372Y-43464D01*
X57437Y-43562D01*
X58287Y-44412D01*
X58385Y-44477D01*
X58500Y-44500D01*
X60100Y-44500D01*
X60214Y-44477D01*
X60312Y-44412D01*
X60699Y-44025D01*
X60784Y-44025D01*
X60940Y-43960D01*
X61060Y-43841D01*
X61124Y-43684D01*
X61125Y-43515D01*
X61060Y-43359D01*
X60941Y-43239D01*
X60784Y-43175D01*
X60615Y-43174D01*
X60459Y-43239D01*
X60339Y-43358D01*
X60275Y-43515D01*
X60274Y-43600D01*
X59975Y-43900D01*
X58624Y-43900D01*
X57952Y-43228D01*
X58065Y-43274D01*
X58234Y-43275D01*
X58390Y-43210D01*
X58510Y-43091D01*
X58574Y-42934D01*
X58575Y-42849D01*
X59074Y-42350D01*
X61798Y-42350D01*
X61858Y-42410D01*
X62015Y-42474D01*
X62184Y-42475D01*
X62340Y-42410D01*
X62460Y-42291D01*
X62524Y-42134D01*
X62525Y-41965D01*
X62460Y-41809D01*
X62341Y-41689D01*
X62184Y-41625D01*
X62015Y-41624D01*
X61859Y-41689D01*
X61798Y-41750D01*
X58950Y-41750D01*
X58949Y-41750D01*
X58835Y-41772D01*
X58737Y-41837D01*
X58737Y-41837D01*
X58150Y-42425D01*
X58065Y-42424D01*
X57950Y-42472D01*
X57950Y-41624D01*
X58699Y-40875D01*
X58784Y-40875D01*
X58940Y-40810D01*
X59060Y-40691D01*
X59124Y-40534D01*
X59125Y-40365D01*
X59060Y-40209D01*
X58941Y-40089D01*
X58784Y-40025D01*
X58615Y-40024D01*
X64750Y-40024D01*
X64750Y-41350D01*
X64772Y-41464D01*
X64837Y-41562D01*
X66387Y-43112D01*
X66387Y-43112D01*
X66725Y-43449D01*
X66724Y-43534D01*
X66789Y-43690D01*
X66908Y-43810D01*
X67065Y-43874D01*
X67234Y-43875D01*
X67390Y-43810D01*
X67510Y-43691D01*
X67574Y-43534D01*
X67575Y-43365D01*
X67510Y-43209D01*
X67500Y-43200D01*
X69748Y-43200D01*
X69808Y-43260D01*
X69965Y-43324D01*
X70134Y-43325D01*
X70290Y-43260D01*
X70410Y-43141D01*
X70474Y-42984D01*
X70475Y-42815D01*
X70410Y-42659D01*
X70291Y-42539D01*
X70134Y-42475D01*
X69965Y-42474D01*
X69809Y-42539D01*
X69748Y-42600D01*
X66724Y-42600D01*
X65350Y-41225D01*
X65350Y-39400D01*
X65349Y-39400D01*
X65327Y-39285D01*
X65327Y-39285D01*
X65262Y-39187D01*
X64374Y-38300D01*
X64375Y-38215D01*
X64310Y-38059D01*
X64191Y-37939D01*
X64034Y-37875D01*
X63865Y-37874D01*
X73200Y-37874D01*
X73200Y-38923D01*
X72172Y-38923D01*
X70172Y-38923D01*
X69885Y-38931D01*
X69658Y-39026D01*
X69610Y-39139D01*
X69680Y-39210D01*
X69539Y-39210D01*
X69426Y-39258D01*
X69323Y-39527D01*
X69331Y-39814D01*
X69426Y-40041D01*
X69539Y-40089D01*
X69979Y-39650D01*
X69539Y-39210D01*
X69680Y-39210D01*
X70050Y-39579D01*
X70489Y-39139D01*
X70441Y-39026D01*
X70172Y-38923D01*
X72172Y-38923D01*
X71885Y-38931D01*
X71658Y-39026D01*
X71610Y-39139D01*
X71680Y-39210D01*
X71539Y-39210D01*
X71426Y-39258D01*
X71323Y-39527D01*
X71331Y-39814D01*
X71417Y-40020D01*
X71194Y-39927D01*
X70906Y-39927D01*
X70681Y-40020D01*
X70776Y-39772D01*
X70768Y-39485D01*
X70673Y-39258D01*
X70560Y-39210D01*
X70120Y-39650D01*
X70126Y-39655D01*
X70055Y-39726D01*
X70050Y-39720D01*
X69610Y-40160D01*
X69658Y-40273D01*
X69927Y-40376D01*
X70214Y-40368D01*
X70420Y-40282D01*
X70327Y-40505D01*
X70327Y-40793D01*
X70420Y-41018D01*
X70172Y-40923D01*
X69885Y-40931D01*
X69658Y-41026D01*
X69610Y-41139D01*
X69680Y-41210D01*
X69539Y-41210D01*
X69426Y-41258D01*
X69323Y-41527D01*
X69331Y-41814D01*
X69426Y-42041D01*
X69539Y-42089D01*
X69979Y-41650D01*
X69539Y-41210D01*
X69680Y-41210D01*
X70050Y-41579D01*
X70055Y-41573D01*
X70126Y-41644D01*
X70120Y-41650D01*
X70191Y-41720D01*
X70050Y-41720D01*
X69610Y-42160D01*
X69658Y-42273D01*
X69927Y-42376D01*
X70214Y-42368D01*
X70441Y-42273D01*
X70489Y-42160D01*
X70050Y-41720D01*
X70191Y-41720D01*
X70560Y-42089D01*
X70673Y-42041D01*
X70776Y-41772D01*
X70768Y-41485D01*
X70682Y-41279D01*
X70905Y-41372D01*
X71193Y-41372D01*
X71418Y-41279D01*
X71323Y-41527D01*
X71331Y-41814D01*
X71426Y-42041D01*
X71539Y-42089D01*
X71979Y-41650D01*
X71973Y-41644D01*
X72044Y-41573D01*
X72050Y-41579D01*
X72489Y-41139D01*
X72441Y-41026D01*
X72172Y-40923D01*
X71885Y-40931D01*
X71679Y-41017D01*
X71772Y-40794D01*
X71772Y-40506D01*
X71679Y-40281D01*
X71927Y-40376D01*
X72214Y-40368D01*
X72441Y-40273D01*
X72489Y-40160D01*
X72050Y-39720D01*
X72044Y-39726D01*
X71973Y-39655D01*
X71979Y-39650D01*
X71539Y-39210D01*
X71680Y-39210D01*
X72050Y-39579D01*
X72489Y-39139D01*
X72441Y-39026D01*
X72172Y-38923D01*
X73200Y-38923D01*
X73200Y-39210D01*
X72560Y-39210D01*
X72120Y-39650D01*
X72560Y-40089D01*
X72673Y-40041D01*
X72776Y-39772D01*
X72768Y-39485D01*
X72673Y-39258D01*
X72560Y-39210D01*
X73200Y-39210D01*
X73200Y-41210D01*
X72560Y-41210D01*
X72120Y-41650D01*
X72191Y-41720D01*
X72050Y-41720D01*
X71610Y-42160D01*
X71658Y-42273D01*
X71927Y-42376D01*
X72214Y-42368D01*
X72441Y-42273D01*
X72489Y-42160D01*
X72050Y-41720D01*
X72191Y-41720D01*
X72560Y-42089D01*
X72673Y-42041D01*
X72776Y-41772D01*
X72768Y-41485D01*
X72673Y-41258D01*
X72560Y-41210D01*
X73200Y-41210D01*
X73200Y-44823D01*
X72072Y-44823D01*
X70072Y-44823D01*
X65372Y-44823D01*
X63372Y-44823D01*
X58872Y-44823D01*
X56872Y-44823D01*
X52972Y-44823D01*
X50972Y-44823D01*
X50685Y-44831D01*
X50458Y-44926D01*
X50410Y-45039D01*
X50480Y-45110D01*
X50339Y-45110D01*
X50226Y-45158D01*
X50123Y-45427D01*
X50131Y-45714D01*
X50226Y-45941D01*
X50339Y-45989D01*
X50779Y-45550D01*
X50339Y-45110D01*
X50480Y-45110D01*
X50850Y-45479D01*
X51289Y-45039D01*
X51241Y-44926D01*
X50972Y-44823D01*
X52972Y-44823D01*
X52685Y-44831D01*
X52458Y-44926D01*
X52410Y-45039D01*
X52480Y-45110D01*
X52339Y-45110D01*
X52226Y-45158D01*
X52123Y-45427D01*
X52131Y-45714D01*
X52217Y-45920D01*
X51994Y-45827D01*
X51706Y-45827D01*
X51481Y-45920D01*
X51576Y-45672D01*
X51568Y-45385D01*
X51473Y-45158D01*
X51360Y-45110D01*
X50920Y-45550D01*
X50926Y-45555D01*
X50855Y-45626D01*
X50850Y-45620D01*
X50410Y-46060D01*
X50458Y-46173D01*
X50727Y-46276D01*
X51014Y-46268D01*
X51220Y-46182D01*
X51127Y-46405D01*
X51127Y-46693D01*
X51220Y-46918D01*
X50972Y-46823D01*
X50685Y-46831D01*
X50458Y-46926D01*
X50410Y-47039D01*
X50480Y-47110D01*
X50339Y-47110D01*
X50226Y-47158D01*
X50123Y-47427D01*
X50131Y-47714D01*
X50226Y-47941D01*
X50339Y-47989D01*
X50779Y-47550D01*
X50339Y-47110D01*
X50480Y-47110D01*
X50850Y-47479D01*
X50855Y-47473D01*
X50926Y-47544D01*
X50920Y-47550D01*
X50991Y-47620D01*
X50850Y-47620D01*
X50410Y-48060D01*
X50458Y-48173D01*
X50727Y-48276D01*
X51014Y-48268D01*
X51241Y-48173D01*
X51289Y-48060D01*
X50850Y-47620D01*
X50991Y-47620D01*
X51360Y-47989D01*
X51473Y-47941D01*
X51576Y-47672D01*
X51568Y-47385D01*
X51482Y-47179D01*
X51705Y-47272D01*
X51993Y-47272D01*
X52218Y-47179D01*
X52123Y-47427D01*
X52131Y-47714D01*
X52226Y-47941D01*
X52339Y-47989D01*
X52779Y-47550D01*
X52773Y-47544D01*
X52844Y-47473D01*
X52850Y-47479D01*
X53289Y-47039D01*
X53241Y-46926D01*
X52972Y-46823D01*
X52685Y-46831D01*
X52479Y-46917D01*
X52572Y-46694D01*
X52572Y-46406D01*
X52479Y-46181D01*
X52727Y-46276D01*
X53014Y-46268D01*
X53241Y-46173D01*
X53289Y-46060D01*
X52850Y-45620D01*
X52844Y-45626D01*
X52773Y-45555D01*
X52779Y-45550D01*
X52339Y-45110D01*
X52480Y-45110D01*
X52850Y-45479D01*
X53289Y-45039D01*
X53241Y-44926D01*
X52972Y-44823D01*
X56872Y-44823D01*
X56585Y-44831D01*
X56358Y-44926D01*
X56310Y-45039D01*
X56380Y-45110D01*
X56239Y-45110D01*
X53360Y-45110D01*
X52920Y-45550D01*
X53360Y-45989D01*
X53473Y-45941D01*
X53576Y-45672D01*
X53568Y-45385D01*
X53473Y-45158D01*
X53360Y-45110D01*
X56239Y-45110D01*
X56126Y-45158D01*
X56023Y-45427D01*
X56031Y-45714D01*
X56126Y-45941D01*
X56239Y-45989D01*
X56679Y-45550D01*
X56239Y-45110D01*
X56380Y-45110D01*
X56750Y-45479D01*
X57189Y-45039D01*
X57141Y-44926D01*
X56872Y-44823D01*
X58872Y-44823D01*
X58585Y-44831D01*
X58358Y-44926D01*
X58310Y-45039D01*
X58380Y-45110D01*
X58239Y-45110D01*
X58126Y-45158D01*
X58023Y-45427D01*
X58031Y-45714D01*
X58117Y-45920D01*
X57894Y-45827D01*
X57606Y-45827D01*
X57381Y-45920D01*
X57476Y-45672D01*
X57468Y-45385D01*
X57373Y-45158D01*
X57260Y-45110D01*
X56820Y-45550D01*
X56826Y-45555D01*
X56755Y-45626D01*
X56750Y-45620D01*
X56310Y-46060D01*
X56358Y-46173D01*
X56627Y-46276D01*
X56914Y-46268D01*
X57120Y-46182D01*
X57027Y-46405D01*
X57027Y-46693D01*
X57120Y-46918D01*
X56872Y-46823D01*
X56585Y-46831D01*
X56358Y-46926D01*
X56310Y-47039D01*
X56380Y-47110D01*
X56239Y-47110D01*
X53360Y-47110D01*
X52920Y-47550D01*
X52991Y-47620D01*
X52850Y-47620D01*
X52410Y-48060D01*
X52458Y-48173D01*
X52727Y-48276D01*
X53014Y-48268D01*
X53241Y-48173D01*
X53289Y-48060D01*
X52850Y-47620D01*
X52991Y-47620D01*
X53360Y-47989D01*
X53473Y-47941D01*
X53576Y-47672D01*
X53568Y-47385D01*
X53473Y-47158D01*
X53360Y-47110D01*
X56239Y-47110D01*
X56126Y-47158D01*
X56023Y-47427D01*
X56031Y-47714D01*
X56126Y-47941D01*
X56239Y-47989D01*
X56679Y-47550D01*
X56239Y-47110D01*
X56380Y-47110D01*
X56750Y-47479D01*
X56755Y-47473D01*
X56826Y-47544D01*
X56820Y-47550D01*
X56891Y-47620D01*
X56750Y-47620D01*
X56310Y-48060D01*
X56358Y-48173D01*
X56627Y-48276D01*
X56914Y-48268D01*
X57141Y-48173D01*
X57189Y-48060D01*
X56750Y-47620D01*
X56891Y-47620D01*
X57260Y-47989D01*
X57373Y-47941D01*
X57476Y-47672D01*
X57468Y-47385D01*
X57382Y-47179D01*
X57605Y-47272D01*
X57893Y-47272D01*
X58118Y-47179D01*
X58023Y-47427D01*
X58031Y-47714D01*
X58126Y-47941D01*
X58239Y-47989D01*
X58679Y-47550D01*
X58673Y-47544D01*
X58744Y-47473D01*
X58750Y-47479D01*
X59189Y-47039D01*
X59141Y-46926D01*
X58872Y-46823D01*
X58585Y-46831D01*
X58379Y-46917D01*
X58472Y-46694D01*
X58472Y-46406D01*
X58379Y-46181D01*
X58627Y-46276D01*
X58914Y-46268D01*
X59141Y-46173D01*
X59189Y-46060D01*
X58750Y-45620D01*
X58744Y-45626D01*
X58673Y-45555D01*
X58679Y-45550D01*
X58239Y-45110D01*
X58380Y-45110D01*
X58750Y-45479D01*
X59189Y-45039D01*
X59141Y-44926D01*
X58872Y-44823D01*
X63372Y-44823D01*
X63085Y-44831D01*
X62858Y-44926D01*
X62810Y-45039D01*
X62880Y-45110D01*
X62739Y-45110D01*
X59260Y-45110D01*
X58820Y-45550D01*
X59260Y-45989D01*
X59373Y-45941D01*
X59476Y-45672D01*
X59468Y-45385D01*
X59373Y-45158D01*
X59260Y-45110D01*
X62739Y-45110D01*
X62626Y-45158D01*
X62523Y-45427D01*
X62531Y-45714D01*
X62626Y-45941D01*
X62739Y-45989D01*
X63179Y-45550D01*
X62739Y-45110D01*
X62880Y-45110D01*
X63250Y-45479D01*
X63689Y-45039D01*
X63641Y-44926D01*
X63372Y-44823D01*
X65372Y-44823D01*
X65085Y-44831D01*
X64858Y-44926D01*
X64810Y-45039D01*
X64880Y-45110D01*
X64739Y-45110D01*
X64626Y-45158D01*
X64523Y-45427D01*
X64531Y-45714D01*
X64617Y-45920D01*
X64394Y-45827D01*
X64106Y-45827D01*
X63881Y-45920D01*
X63976Y-45672D01*
X63968Y-45385D01*
X63873Y-45158D01*
X63760Y-45110D01*
X63320Y-45550D01*
X63326Y-45555D01*
X63255Y-45626D01*
X63250Y-45620D01*
X62810Y-46060D01*
X62858Y-46173D01*
X63127Y-46276D01*
X63414Y-46268D01*
X63620Y-46182D01*
X63527Y-46405D01*
X63527Y-46693D01*
X63620Y-46918D01*
X63372Y-46823D01*
X63085Y-46831D01*
X62858Y-46926D01*
X62810Y-47039D01*
X62880Y-47110D01*
X62739Y-47110D01*
X59260Y-47110D01*
X58820Y-47550D01*
X58891Y-47620D01*
X58750Y-47620D01*
X58310Y-48060D01*
X58358Y-48173D01*
X58627Y-48276D01*
X58914Y-48268D01*
X59141Y-48173D01*
X59189Y-48060D01*
X58750Y-47620D01*
X58891Y-47620D01*
X59260Y-47989D01*
X59373Y-47941D01*
X59476Y-47672D01*
X59468Y-47385D01*
X59373Y-47158D01*
X59260Y-47110D01*
X62739Y-47110D01*
X62626Y-47158D01*
X62523Y-47427D01*
X62531Y-47714D01*
X62626Y-47941D01*
X62739Y-47989D01*
X63179Y-47550D01*
X62739Y-47110D01*
X62880Y-47110D01*
X63250Y-47479D01*
X63255Y-47473D01*
X63326Y-47544D01*
X63320Y-47550D01*
X63391Y-47620D01*
X63250Y-47620D01*
X62810Y-48060D01*
X62858Y-48173D01*
X63127Y-48276D01*
X63414Y-48268D01*
X63641Y-48173D01*
X63689Y-48060D01*
X63250Y-47620D01*
X63391Y-47620D01*
X63760Y-47989D01*
X63873Y-47941D01*
X63976Y-47672D01*
X63968Y-47385D01*
X63882Y-47179D01*
X64105Y-47272D01*
X64393Y-47272D01*
X64618Y-47179D01*
X64523Y-47427D01*
X64531Y-47714D01*
X64626Y-47941D01*
X64739Y-47989D01*
X65179Y-47550D01*
X65173Y-47544D01*
X65244Y-47473D01*
X65250Y-47479D01*
X65689Y-47039D01*
X65641Y-46926D01*
X65372Y-46823D01*
X65085Y-46831D01*
X64879Y-46917D01*
X64972Y-46694D01*
X64972Y-46406D01*
X64879Y-46181D01*
X65127Y-46276D01*
X65414Y-46268D01*
X65641Y-46173D01*
X65689Y-46060D01*
X65250Y-45620D01*
X65244Y-45626D01*
X65173Y-45555D01*
X65179Y-45550D01*
X64739Y-45110D01*
X64880Y-45110D01*
X65250Y-45479D01*
X65689Y-45039D01*
X65641Y-44926D01*
X65372Y-44823D01*
X70072Y-44823D01*
X69785Y-44831D01*
X69558Y-44926D01*
X69510Y-45039D01*
X69580Y-45110D01*
X69439Y-45110D01*
X65760Y-45110D01*
X65320Y-45550D01*
X65760Y-45989D01*
X65873Y-45941D01*
X65976Y-45672D01*
X65968Y-45385D01*
X65873Y-45158D01*
X65760Y-45110D01*
X69439Y-45110D01*
X69326Y-45158D01*
X69223Y-45427D01*
X69231Y-45714D01*
X69326Y-45941D01*
X69439Y-45989D01*
X69879Y-45550D01*
X69439Y-45110D01*
X69580Y-45110D01*
X69950Y-45479D01*
X70389Y-45039D01*
X70341Y-44926D01*
X70072Y-44823D01*
X72072Y-44823D01*
X71785Y-44831D01*
X71558Y-44926D01*
X71510Y-45039D01*
X71580Y-45110D01*
X71439Y-45110D01*
X71326Y-45158D01*
X71223Y-45427D01*
X71231Y-45714D01*
X71317Y-45920D01*
X71094Y-45827D01*
X70806Y-45827D01*
X70581Y-45920D01*
X70676Y-45672D01*
X70668Y-45385D01*
X70573Y-45158D01*
X70460Y-45110D01*
X70020Y-45550D01*
X70026Y-45555D01*
X69955Y-45626D01*
X69950Y-45620D01*
X69510Y-46060D01*
X69558Y-46173D01*
X69827Y-46276D01*
X70114Y-46268D01*
X70320Y-46182D01*
X70227Y-46405D01*
X70227Y-46693D01*
X70320Y-46918D01*
X70072Y-46823D01*
X69785Y-46831D01*
X69558Y-46926D01*
X69510Y-47039D01*
X69580Y-47110D01*
X69439Y-47110D01*
X65760Y-47110D01*
X65320Y-47550D01*
X65391Y-47620D01*
X65250Y-47620D01*
X64810Y-48060D01*
X64858Y-48173D01*
X65127Y-48276D01*
X65414Y-48268D01*
X65641Y-48173D01*
X65689Y-48060D01*
X65250Y-47620D01*
X65391Y-47620D01*
X65760Y-47989D01*
X65873Y-47941D01*
X65976Y-47672D01*
X65968Y-47385D01*
X65873Y-47158D01*
X65760Y-47110D01*
X69439Y-47110D01*
X69326Y-47158D01*
X69223Y-47427D01*
X69231Y-47714D01*
X69326Y-47941D01*
X69439Y-47989D01*
X69879Y-47550D01*
X69439Y-47110D01*
X69580Y-47110D01*
X69950Y-47479D01*
X69955Y-47473D01*
X70026Y-47544D01*
X70020Y-47550D01*
X70091Y-47620D01*
X69950Y-47620D01*
X69510Y-48060D01*
X69558Y-48173D01*
X69827Y-48276D01*
X70114Y-48268D01*
X70341Y-48173D01*
X70389Y-48060D01*
X69950Y-47620D01*
X70091Y-47620D01*
X70460Y-47989D01*
X70573Y-47941D01*
X70676Y-47672D01*
X70668Y-47385D01*
X70582Y-47179D01*
X70805Y-47272D01*
X71093Y-47272D01*
X71318Y-47179D01*
X71223Y-47427D01*
X71231Y-47714D01*
X71326Y-47941D01*
X71439Y-47989D01*
X71879Y-47550D01*
X71873Y-47544D01*
X71944Y-47473D01*
X71950Y-47479D01*
X72389Y-47039D01*
X72341Y-46926D01*
X72072Y-46823D01*
X71785Y-46831D01*
X71579Y-46917D01*
X71672Y-46694D01*
X71672Y-46406D01*
X71579Y-46181D01*
X71827Y-46276D01*
X72114Y-46268D01*
X72341Y-46173D01*
X72389Y-46060D01*
X71950Y-45620D01*
X71944Y-45626D01*
X71873Y-45555D01*
X71879Y-45550D01*
X71439Y-45110D01*
X71580Y-45110D01*
X71950Y-45479D01*
X72389Y-45039D01*
X72341Y-44926D01*
X72072Y-44823D01*
X73200Y-44823D01*
X73200Y-45110D01*
X72460Y-45110D01*
X72020Y-45550D01*
X72460Y-45989D01*
X72573Y-45941D01*
X72676Y-45672D01*
X72668Y-45385D01*
X72573Y-45158D01*
X72460Y-45110D01*
X73200Y-45110D01*
X73200Y-47110D01*
X72460Y-47110D01*
X72020Y-47550D01*
X72091Y-47620D01*
X71950Y-47620D01*
X71510Y-48060D01*
X71558Y-48173D01*
X71827Y-48276D01*
X72114Y-48268D01*
X72341Y-48173D01*
X72389Y-48060D01*
X71950Y-47620D01*
X72091Y-47620D01*
X72460Y-47989D01*
X72573Y-47941D01*
X72676Y-47672D01*
X72668Y-47385D01*
X72573Y-47158D01*
X72460Y-47110D01*
X73200Y-47110D01*
X73200Y-48400D01*
X42500Y-48400D01*
X42500Y-33700D01*
X73200Y-33700D01*
X73200Y-33700D01*
G37*
G54D14*
X73200Y-33700D02*
X73200Y-34023D01*
X72172Y-34023D01*
X70172Y-34023D01*
X66672Y-34023D01*
X64672Y-34023D01*
X56872Y-34023D01*
X54872Y-34023D01*
X54585Y-34031D01*
X54358Y-34126D01*
X54310Y-34239D01*
X54380Y-34310D01*
X54239Y-34310D01*
X54126Y-34358D01*
X54023Y-34627D01*
X54031Y-34914D01*
X54126Y-35141D01*
X54239Y-35189D01*
X54679Y-34750D01*
X54239Y-34310D01*
X54380Y-34310D01*
X54750Y-34679D01*
X55189Y-34239D01*
X55141Y-34126D01*
X54872Y-34023D01*
X56872Y-34023D01*
X56585Y-34031D01*
X56358Y-34126D01*
X56310Y-34239D01*
X56380Y-34310D01*
X56239Y-34310D01*
X56126Y-34358D01*
X56023Y-34627D01*
X56031Y-34914D01*
X56117Y-35120D01*
X55894Y-35027D01*
X55606Y-35027D01*
X55381Y-35120D01*
X55476Y-34872D01*
X55468Y-34585D01*
X55373Y-34358D01*
X55260Y-34310D01*
X54820Y-34750D01*
X54826Y-34755D01*
X54755Y-34826D01*
X54750Y-34820D01*
X54310Y-35260D01*
X54358Y-35373D01*
X54627Y-35476D01*
X54914Y-35468D01*
X55120Y-35382D01*
X55027Y-35605D01*
X55027Y-35893D01*
X55120Y-36118D01*
X54872Y-36023D01*
X54585Y-36031D01*
X54358Y-36126D01*
X54310Y-36239D01*
X54380Y-36310D01*
X54239Y-36310D01*
X54126Y-36358D01*
X54023Y-36627D01*
X54031Y-36914D01*
X54126Y-37141D01*
X54239Y-37189D01*
X54679Y-36750D01*
X54239Y-36310D01*
X54380Y-36310D01*
X54750Y-36679D01*
X54755Y-36673D01*
X54826Y-36744D01*
X54820Y-36750D01*
X54891Y-36820D01*
X54750Y-36820D01*
X54310Y-37260D01*
X54358Y-37373D01*
X54627Y-37476D01*
X54914Y-37468D01*
X55141Y-37373D01*
X55189Y-37260D01*
X54750Y-36820D01*
X54891Y-36820D01*
X55260Y-37189D01*
X55373Y-37141D01*
X55476Y-36872D01*
X55468Y-36585D01*
X55382Y-36379D01*
X55605Y-36472D01*
X55893Y-36472D01*
X56118Y-36379D01*
X56023Y-36627D01*
X56031Y-36914D01*
X56126Y-37141D01*
X56239Y-37189D01*
X56679Y-36750D01*
X56673Y-36744D01*
X56744Y-36673D01*
X56750Y-36679D01*
X57189Y-36239D01*
X57141Y-36126D01*
X56872Y-36023D01*
X56585Y-36031D01*
X56379Y-36117D01*
X56472Y-35894D01*
X56472Y-35606D01*
X56379Y-35381D01*
X56627Y-35476D01*
X56914Y-35468D01*
X57141Y-35373D01*
X57189Y-35260D01*
X56750Y-34820D01*
X56744Y-34826D01*
X56673Y-34755D01*
X56679Y-34750D01*
X56239Y-34310D01*
X56380Y-34310D01*
X56750Y-34679D01*
X57189Y-34239D01*
X57141Y-34126D01*
X56872Y-34023D01*
X64672Y-34023D01*
X64385Y-34031D01*
X64158Y-34126D01*
X64110Y-34239D01*
X64180Y-34310D01*
X64039Y-34310D01*
X57260Y-34310D01*
X56820Y-34750D01*
X57260Y-35189D01*
X57373Y-35141D01*
X57476Y-34872D01*
X57468Y-34585D01*
X57373Y-34358D01*
X57260Y-34310D01*
X64039Y-34310D01*
X63926Y-34358D01*
X63823Y-34627D01*
X63831Y-34914D01*
X63926Y-35141D01*
X64039Y-35189D01*
X64479Y-34750D01*
X64039Y-34310D01*
X64180Y-34310D01*
X64550Y-34679D01*
X64989Y-34239D01*
X64941Y-34126D01*
X64672Y-34023D01*
X66672Y-34023D01*
X66385Y-34031D01*
X66158Y-34126D01*
X66110Y-34239D01*
X66180Y-34310D01*
X66039Y-34310D01*
X65926Y-34358D01*
X65823Y-34627D01*
X65831Y-34914D01*
X65917Y-35120D01*
X65694Y-35027D01*
X65406Y-35027D01*
X65181Y-35120D01*
X65276Y-34872D01*
X65268Y-34585D01*
X65173Y-34358D01*
X65060Y-34310D01*
X64620Y-34750D01*
X64626Y-34755D01*
X64555Y-34826D01*
X64550Y-34820D01*
X64110Y-35260D01*
X64158Y-35373D01*
X64427Y-35476D01*
X64714Y-35468D01*
X64920Y-35382D01*
X64827Y-35605D01*
X64827Y-35893D01*
X64840Y-35924D01*
X61065Y-35924D01*
X60909Y-35989D01*
X60789Y-36108D01*
X60725Y-36265D01*
X60725Y-36310D01*
X57260Y-36310D01*
X56820Y-36750D01*
X56891Y-36820D01*
X56750Y-36820D01*
X56310Y-37260D01*
X56358Y-37373D01*
X56627Y-37476D01*
X56914Y-37468D01*
X57141Y-37373D01*
X57189Y-37260D01*
X56750Y-36820D01*
X56891Y-36820D01*
X57260Y-37189D01*
X57373Y-37141D01*
X57476Y-36872D01*
X57468Y-36585D01*
X57373Y-36358D01*
X57260Y-36310D01*
X60725Y-36310D01*
X60724Y-36434D01*
X60789Y-36590D01*
X60908Y-36710D01*
X61065Y-36774D01*
X61150Y-36775D01*
X61725Y-37349D01*
X61724Y-37434D01*
X61789Y-37590D01*
X61908Y-37710D01*
X62065Y-37774D01*
X62234Y-37775D01*
X62390Y-37710D01*
X62510Y-37591D01*
X62574Y-37434D01*
X62575Y-37265D01*
X62510Y-37109D01*
X62391Y-36989D01*
X62234Y-36925D01*
X62149Y-36924D01*
X61574Y-36350D01*
X61575Y-36265D01*
X61510Y-36109D01*
X61391Y-35989D01*
X61234Y-35925D01*
X61065Y-35924D01*
X64840Y-35924D01*
X64920Y-36118D01*
X64672Y-36023D01*
X64385Y-36031D01*
X64158Y-36126D01*
X64110Y-36239D01*
X64180Y-36310D01*
X64039Y-36310D01*
X63926Y-36358D01*
X63823Y-36627D01*
X63831Y-36914D01*
X63926Y-37141D01*
X64039Y-37189D01*
X64479Y-36750D01*
X64039Y-36310D01*
X64180Y-36310D01*
X64550Y-36679D01*
X64555Y-36673D01*
X64626Y-36744D01*
X64620Y-36750D01*
X64691Y-36820D01*
X64550Y-36820D01*
X64110Y-37260D01*
X64158Y-37373D01*
X64427Y-37476D01*
X64714Y-37468D01*
X64941Y-37373D01*
X64989Y-37260D01*
X64550Y-36820D01*
X64691Y-36820D01*
X65060Y-37189D01*
X65173Y-37141D01*
X65276Y-36872D01*
X65268Y-36585D01*
X65182Y-36379D01*
X65405Y-36472D01*
X65693Y-36472D01*
X65918Y-36379D01*
X65823Y-36627D01*
X65831Y-36914D01*
X65926Y-37141D01*
X66039Y-37189D01*
X66479Y-36750D01*
X66473Y-36744D01*
X66544Y-36673D01*
X66550Y-36679D01*
X66989Y-36239D01*
X66941Y-36126D01*
X66672Y-36023D01*
X66385Y-36031D01*
X66179Y-36117D01*
X66272Y-35894D01*
X66272Y-35606D01*
X66179Y-35381D01*
X66427Y-35476D01*
X66714Y-35468D01*
X66941Y-35373D01*
X66989Y-35260D01*
X66550Y-34820D01*
X66544Y-34826D01*
X66473Y-34755D01*
X66479Y-34750D01*
X66039Y-34310D01*
X66180Y-34310D01*
X66550Y-34679D01*
X66989Y-34239D01*
X66941Y-34126D01*
X66672Y-34023D01*
X70172Y-34023D01*
X69885Y-34031D01*
X69658Y-34126D01*
X69610Y-34239D01*
X69680Y-34310D01*
X69539Y-34310D01*
X67060Y-34310D01*
X66620Y-34750D01*
X67060Y-35189D01*
X67173Y-35141D01*
X67276Y-34872D01*
X67268Y-34585D01*
X67173Y-34358D01*
X67060Y-34310D01*
X69539Y-34310D01*
X69426Y-34358D01*
X69323Y-34627D01*
X69331Y-34914D01*
X69426Y-35141D01*
X69539Y-35189D01*
X69979Y-34750D01*
X69539Y-34310D01*
X69680Y-34310D01*
X70050Y-34679D01*
X70489Y-34239D01*
X70441Y-34126D01*
X70172Y-34023D01*
X72172Y-34023D01*
X71885Y-34031D01*
X71658Y-34126D01*
X71610Y-34239D01*
X71680Y-34310D01*
X71539Y-34310D01*
X71426Y-34358D01*
X71323Y-34627D01*
X71331Y-34914D01*
X71417Y-35120D01*
X71194Y-35027D01*
X70906Y-35027D01*
X70681Y-35120D01*
X70776Y-34872D01*
X70768Y-34585D01*
X70673Y-34358D01*
X70560Y-34310D01*
X70120Y-34750D01*
X70126Y-34755D01*
X70055Y-34826D01*
X70050Y-34820D01*
X69610Y-35260D01*
X69658Y-35373D01*
X69927Y-35476D01*
X70214Y-35468D01*
X70420Y-35382D01*
X70327Y-35605D01*
X70327Y-35893D01*
X70420Y-36118D01*
X70172Y-36023D01*
X69885Y-36031D01*
X69658Y-36126D01*
X69610Y-36239D01*
X69680Y-36310D01*
X69539Y-36310D01*
X67060Y-36310D01*
X66620Y-36750D01*
X66691Y-36820D01*
X66550Y-36820D01*
X66110Y-37260D01*
X66158Y-37373D01*
X66427Y-37476D01*
X66714Y-37468D01*
X66941Y-37373D01*
X66989Y-37260D01*
X66550Y-36820D01*
X66691Y-36820D01*
X67060Y-37189D01*
X67173Y-37141D01*
X67276Y-36872D01*
X67268Y-36585D01*
X67173Y-36358D01*
X67060Y-36310D01*
X69539Y-36310D01*
X69426Y-36358D01*
X69323Y-36627D01*
X69331Y-36914D01*
X69426Y-37141D01*
X69539Y-37189D01*
X69979Y-36750D01*
X69539Y-36310D01*
X69680Y-36310D01*
X70050Y-36679D01*
X70055Y-36673D01*
X70126Y-36744D01*
X70120Y-36750D01*
X70191Y-36820D01*
X70050Y-36820D01*
X69610Y-37260D01*
X69658Y-37373D01*
X69927Y-37476D01*
X70214Y-37468D01*
X70441Y-37373D01*
X70489Y-37260D01*
X70050Y-36820D01*
X70191Y-36820D01*
X70560Y-37189D01*
X70673Y-37141D01*
X70776Y-36872D01*
X70768Y-36585D01*
X70682Y-36379D01*
X70905Y-36472D01*
X71193Y-36472D01*
X71418Y-36379D01*
X71323Y-36627D01*
X71331Y-36914D01*
X71426Y-37141D01*
X71539Y-37189D01*
X71979Y-36750D01*
X71973Y-36744D01*
X72044Y-36673D01*
X72050Y-36679D01*
X72489Y-36239D01*
X72441Y-36126D01*
X72172Y-36023D01*
X71885Y-36031D01*
X71679Y-36117D01*
X71772Y-35894D01*
X71772Y-35606D01*
X71679Y-35381D01*
X71927Y-35476D01*
X72214Y-35468D01*
X72441Y-35373D01*
X72489Y-35260D01*
X72050Y-34820D01*
X72044Y-34826D01*
X71973Y-34755D01*
X71979Y-34750D01*
X71539Y-34310D01*
X71680Y-34310D01*
X72050Y-34679D01*
X72489Y-34239D01*
X72441Y-34126D01*
X72172Y-34023D01*
X73200Y-34023D01*
X73200Y-34310D01*
X72560Y-34310D01*
X72120Y-34750D01*
X72560Y-35189D01*
X72673Y-35141D01*
X72776Y-34872D01*
X72768Y-34585D01*
X72673Y-34358D01*
X72560Y-34310D01*
X73200Y-34310D01*
X73200Y-36310D01*
X72560Y-36310D01*
X72120Y-36750D01*
X72191Y-36820D01*
X72050Y-36820D01*
X71610Y-37260D01*
X71658Y-37373D01*
X71927Y-37476D01*
X72214Y-37468D01*
X72441Y-37373D01*
X72489Y-37260D01*
X72050Y-36820D01*
X72191Y-36820D01*
X72560Y-37189D01*
X72673Y-37141D01*
X72776Y-36872D01*
X72768Y-36585D01*
X72673Y-36358D01*
X72560Y-36310D01*
X73200Y-36310D01*
X73200Y-37874D01*
X63865Y-37874D01*
X63709Y-37939D01*
X63589Y-38058D01*
X63525Y-38215D01*
X63524Y-38384D01*
X63589Y-38540D01*
X63708Y-38660D01*
X63801Y-38698D01*
X44430Y-38698D01*
X44213Y-38709D01*
X44064Y-38771D01*
X44037Y-38866D01*
X44108Y-38937D01*
X43966Y-38937D01*
X43871Y-38964D01*
X43798Y-39169D01*
X43809Y-39386D01*
X43871Y-39535D01*
X43966Y-39562D01*
X44279Y-39250D01*
X43966Y-38937D01*
X44108Y-38937D01*
X44350Y-39179D01*
X44662Y-38866D01*
X44635Y-38771D01*
X44430Y-38698D01*
X63801Y-38698D01*
X63813Y-38703D01*
X45241Y-38703D01*
X45040Y-38786D01*
X44886Y-38940D01*
X44852Y-39022D01*
X44828Y-38964D01*
X44733Y-38937D01*
X44420Y-39250D01*
X44733Y-39562D01*
X44828Y-39535D01*
X44850Y-39472D01*
X44886Y-39559D01*
X45040Y-39713D01*
X45129Y-39749D01*
X45040Y-39786D01*
X44886Y-39940D01*
X44850Y-40029D01*
X44813Y-39940D01*
X44659Y-39786D01*
X44577Y-39752D01*
X44635Y-39728D01*
X44662Y-39633D01*
X44350Y-39320D01*
X44037Y-39633D01*
X44064Y-39728D01*
X44127Y-39750D01*
X44040Y-39786D01*
X43886Y-39940D01*
X43803Y-40140D01*
X43803Y-40358D01*
X43886Y-40559D01*
X44040Y-40713D01*
X44129Y-40749D01*
X44040Y-40786D01*
X43886Y-40940D01*
X43803Y-41140D01*
X43803Y-41358D01*
X43886Y-41559D01*
X44040Y-41713D01*
X44129Y-41749D01*
X44040Y-41786D01*
X43886Y-41940D01*
X43803Y-42140D01*
X43803Y-42358D01*
X43886Y-42559D01*
X44040Y-42713D01*
X44129Y-42749D01*
X44040Y-42786D01*
X43886Y-42940D01*
X43803Y-43140D01*
X43803Y-43358D01*
X43886Y-43559D01*
X44040Y-43713D01*
X44240Y-43796D01*
X44458Y-43796D01*
X44659Y-43713D01*
X44813Y-43559D01*
X44849Y-43470D01*
X44886Y-43559D01*
X45040Y-43713D01*
X45240Y-43796D01*
X45458Y-43796D01*
X45659Y-43713D01*
X45813Y-43559D01*
X45896Y-43359D01*
X45896Y-43141D01*
X45813Y-42940D01*
X45659Y-42786D01*
X45570Y-42750D01*
X45659Y-42713D01*
X45813Y-42559D01*
X45896Y-42359D01*
X45896Y-42141D01*
X45813Y-41940D01*
X45659Y-41786D01*
X45570Y-41750D01*
X45659Y-41713D01*
X45813Y-41559D01*
X45896Y-41359D01*
X45896Y-41141D01*
X45813Y-40940D01*
X45659Y-40786D01*
X45570Y-40750D01*
X45659Y-40713D01*
X45813Y-40559D01*
X45896Y-40359D01*
X45896Y-40141D01*
X45813Y-39940D01*
X45659Y-39786D01*
X45570Y-39750D01*
X45659Y-39713D01*
X45813Y-39559D01*
X45896Y-39359D01*
X45896Y-39141D01*
X45813Y-38940D01*
X45659Y-38786D01*
X45459Y-38703D01*
X45241Y-38703D01*
X63813Y-38703D01*
X63865Y-38724D01*
X63950Y-38725D01*
X64750Y-39524D01*
X64750Y-40024D01*
X58615Y-40024D01*
X58459Y-40089D01*
X58339Y-40208D01*
X58275Y-40365D01*
X58274Y-40450D01*
X57437Y-41287D01*
X57372Y-41385D01*
X57350Y-41500D01*
X57350Y-43350D01*
X57372Y-43464D01*
X57437Y-43562D01*
X58287Y-44412D01*
X58385Y-44477D01*
X58500Y-44500D01*
X60100Y-44500D01*
X60214Y-44477D01*
X60312Y-44412D01*
X60699Y-44025D01*
X60784Y-44025D01*
X60940Y-43960D01*
X61060Y-43841D01*
X61124Y-43684D01*
X61125Y-43515D01*
X61060Y-43359D01*
X60941Y-43239D01*
X60784Y-43175D01*
X60615Y-43174D01*
X60459Y-43239D01*
X60339Y-43358D01*
X60275Y-43515D01*
X60274Y-43600D01*
X59975Y-43900D01*
X58624Y-43900D01*
X57952Y-43228D01*
X58065Y-43274D01*
X58234Y-43275D01*
X58390Y-43210D01*
X58510Y-43091D01*
X58574Y-42934D01*
X58575Y-42849D01*
X59074Y-42350D01*
X61798Y-42350D01*
X61858Y-42410D01*
X62015Y-42474D01*
X62184Y-42475D01*
X62340Y-42410D01*
X62460Y-42291D01*
X62524Y-42134D01*
X62525Y-41965D01*
X62460Y-41809D01*
X62341Y-41689D01*
X62184Y-41625D01*
X62015Y-41624D01*
X61859Y-41689D01*
X61798Y-41750D01*
X58950Y-41750D01*
X58949Y-41750D01*
X58835Y-41772D01*
X58737Y-41837D01*
X58737Y-41837D01*
X58150Y-42425D01*
X58065Y-42424D01*
X57950Y-42472D01*
X57950Y-41624D01*
X58699Y-40875D01*
X58784Y-40875D01*
X58940Y-40810D01*
X59060Y-40691D01*
X59124Y-40534D01*
X59125Y-40365D01*
X59060Y-40209D01*
X58941Y-40089D01*
X58784Y-40025D01*
X58615Y-40024D01*
X64750Y-40024D01*
X64750Y-41350D01*
X64772Y-41464D01*
X64837Y-41562D01*
X66387Y-43112D01*
X66387Y-43112D01*
X66725Y-43449D01*
X66724Y-43534D01*
X66789Y-43690D01*
X66908Y-43810D01*
X67065Y-43874D01*
X67234Y-43875D01*
X67390Y-43810D01*
X67510Y-43691D01*
X67574Y-43534D01*
X67575Y-43365D01*
X67510Y-43209D01*
X67500Y-43200D01*
X69748Y-43200D01*
X69808Y-43260D01*
X69965Y-43324D01*
X70134Y-43325D01*
X70290Y-43260D01*
X70410Y-43141D01*
X70474Y-42984D01*
X70475Y-42815D01*
X70410Y-42659D01*
X70291Y-42539D01*
X70134Y-42475D01*
X69965Y-42474D01*
X69809Y-42539D01*
X69748Y-42600D01*
X66724Y-42600D01*
X65350Y-41225D01*
X65350Y-39400D01*
X65349Y-39400D01*
X65327Y-39285D01*
X65327Y-39285D01*
X65262Y-39187D01*
X64374Y-38300D01*
X64375Y-38215D01*
X64310Y-38059D01*
X64191Y-37939D01*
X64034Y-37875D01*
X63865Y-37874D01*
X73200Y-37874D01*
X73200Y-38923D01*
X72172Y-38923D01*
X70172Y-38923D01*
X69885Y-38931D01*
X69658Y-39026D01*
X69610Y-39139D01*
X69680Y-39210D01*
X69539Y-39210D01*
X69426Y-39258D01*
X69323Y-39527D01*
X69331Y-39814D01*
X69426Y-40041D01*
X69539Y-40089D01*
X69979Y-39650D01*
X69539Y-39210D01*
X69680Y-39210D01*
X70050Y-39579D01*
X70489Y-39139D01*
X70441Y-39026D01*
X70172Y-38923D01*
X72172Y-38923D01*
X71885Y-38931D01*
X71658Y-39026D01*
X71610Y-39139D01*
X71680Y-39210D01*
X71539Y-39210D01*
X71426Y-39258D01*
X71323Y-39527D01*
X71331Y-39814D01*
X71417Y-40020D01*
X71194Y-39927D01*
X70906Y-39927D01*
X70681Y-40020D01*
X70776Y-39772D01*
X70768Y-39485D01*
X70673Y-39258D01*
X70560Y-39210D01*
X70120Y-39650D01*
X70126Y-39655D01*
X70055Y-39726D01*
X70050Y-39720D01*
X69610Y-40160D01*
X69658Y-40273D01*
X69927Y-40376D01*
X70214Y-40368D01*
X70420Y-40282D01*
X70327Y-40505D01*
X70327Y-40793D01*
X70420Y-41018D01*
X70172Y-40923D01*
X69885Y-40931D01*
X69658Y-41026D01*
X69610Y-41139D01*
X69680Y-41210D01*
X69539Y-41210D01*
X69426Y-41258D01*
X69323Y-41527D01*
X69331Y-41814D01*
X69426Y-42041D01*
X69539Y-42089D01*
X69979Y-41650D01*
X69539Y-41210D01*
X69680Y-41210D01*
X70050Y-41579D01*
X70055Y-41573D01*
X70126Y-41644D01*
X70120Y-41650D01*
X70191Y-41720D01*
X70050Y-41720D01*
X69610Y-42160D01*
X69658Y-42273D01*
X69927Y-42376D01*
X70214Y-42368D01*
X70441Y-42273D01*
X70489Y-42160D01*
X70050Y-41720D01*
X70191Y-41720D01*
X70560Y-42089D01*
X70673Y-42041D01*
X70776Y-41772D01*
X70768Y-41485D01*
X70682Y-41279D01*
X70905Y-41372D01*
X71193Y-41372D01*
X71418Y-41279D01*
X71323Y-41527D01*
X71331Y-41814D01*
X71426Y-42041D01*
X71539Y-42089D01*
X71979Y-41650D01*
X71973Y-41644D01*
X72044Y-41573D01*
X72050Y-41579D01*
X72489Y-41139D01*
X72441Y-41026D01*
X72172Y-40923D01*
X71885Y-40931D01*
X71679Y-41017D01*
X71772Y-40794D01*
X71772Y-40506D01*
X71679Y-40281D01*
X71927Y-40376D01*
X72214Y-40368D01*
X72441Y-40273D01*
X72489Y-40160D01*
X72050Y-39720D01*
X72044Y-39726D01*
X71973Y-39655D01*
X71979Y-39650D01*
X71539Y-39210D01*
X71680Y-39210D01*
X72050Y-39579D01*
X72489Y-39139D01*
X72441Y-39026D01*
X72172Y-38923D01*
X73200Y-38923D01*
X73200Y-39210D01*
X72560Y-39210D01*
X72120Y-39650D01*
X72560Y-40089D01*
X72673Y-40041D01*
X72776Y-39772D01*
X72768Y-39485D01*
X72673Y-39258D01*
X72560Y-39210D01*
X73200Y-39210D01*
X73200Y-41210D01*
X72560Y-41210D01*
X72120Y-41650D01*
X72191Y-41720D01*
X72050Y-41720D01*
X71610Y-42160D01*
X71658Y-42273D01*
X71927Y-42376D01*
X72214Y-42368D01*
X72441Y-42273D01*
X72489Y-42160D01*
X72050Y-41720D01*
X72191Y-41720D01*
X72560Y-42089D01*
X72673Y-42041D01*
X72776Y-41772D01*
X72768Y-41485D01*
X72673Y-41258D01*
X72560Y-41210D01*
X73200Y-41210D01*
X73200Y-44823D01*
X72072Y-44823D01*
X70072Y-44823D01*
X65372Y-44823D01*
X63372Y-44823D01*
X58872Y-44823D01*
X56872Y-44823D01*
X52972Y-44823D01*
X50972Y-44823D01*
X50685Y-44831D01*
X50458Y-44926D01*
X50410Y-45039D01*
X50480Y-45110D01*
X50339Y-45110D01*
X50226Y-45158D01*
X50123Y-45427D01*
X50131Y-45714D01*
X50226Y-45941D01*
X50339Y-45989D01*
X50779Y-45550D01*
X50339Y-45110D01*
X50480Y-45110D01*
X50850Y-45479D01*
X51289Y-45039D01*
X51241Y-44926D01*
X50972Y-44823D01*
X52972Y-44823D01*
X52685Y-44831D01*
X52458Y-44926D01*
X52410Y-45039D01*
X52480Y-45110D01*
X52339Y-45110D01*
X52226Y-45158D01*
X52123Y-45427D01*
X52131Y-45714D01*
X52217Y-45920D01*
X51994Y-45827D01*
X51706Y-45827D01*
X51481Y-45920D01*
X51576Y-45672D01*
X51568Y-45385D01*
X51473Y-45158D01*
X51360Y-45110D01*
X50920Y-45550D01*
X50926Y-45555D01*
X50855Y-45626D01*
X50850Y-45620D01*
X50410Y-46060D01*
X50458Y-46173D01*
X50727Y-46276D01*
X51014Y-46268D01*
X51220Y-46182D01*
X51127Y-46405D01*
X51127Y-46693D01*
X51220Y-46918D01*
X50972Y-46823D01*
X50685Y-46831D01*
X50458Y-46926D01*
X50410Y-47039D01*
X50480Y-47110D01*
X50339Y-47110D01*
X50226Y-47158D01*
X50123Y-47427D01*
X50131Y-47714D01*
X50226Y-47941D01*
X50339Y-47989D01*
X50779Y-47550D01*
X50339Y-47110D01*
X50480Y-47110D01*
X50850Y-47479D01*
X50855Y-47473D01*
X50926Y-47544D01*
X50920Y-47550D01*
X50991Y-47620D01*
X50850Y-47620D01*
X50410Y-48060D01*
X50458Y-48173D01*
X50727Y-48276D01*
X51014Y-48268D01*
X51241Y-48173D01*
X51289Y-48060D01*
X50850Y-47620D01*
X50991Y-47620D01*
X51360Y-47989D01*
X51473Y-47941D01*
X51576Y-47672D01*
X51568Y-47385D01*
X51482Y-47179D01*
X51705Y-47272D01*
X51993Y-47272D01*
X52218Y-47179D01*
X52123Y-47427D01*
X52131Y-47714D01*
X52226Y-47941D01*
X52339Y-47989D01*
X52779Y-47550D01*
X52773Y-47544D01*
X52844Y-47473D01*
X52850Y-47479D01*
X53289Y-47039D01*
X53241Y-46926D01*
X52972Y-46823D01*
X52685Y-46831D01*
X52479Y-46917D01*
X52572Y-46694D01*
X52572Y-46406D01*
X52479Y-46181D01*
X52727Y-46276D01*
X53014Y-46268D01*
X53241Y-46173D01*
X53289Y-46060D01*
X52850Y-45620D01*
X52844Y-45626D01*
X52773Y-45555D01*
X52779Y-45550D01*
X52339Y-45110D01*
X52480Y-45110D01*
X52850Y-45479D01*
X53289Y-45039D01*
X53241Y-44926D01*
X52972Y-44823D01*
X56872Y-44823D01*
X56585Y-44831D01*
X56358Y-44926D01*
X56310Y-45039D01*
X56380Y-45110D01*
X56239Y-45110D01*
X53360Y-45110D01*
X52920Y-45550D01*
X53360Y-45989D01*
X53473Y-45941D01*
X53576Y-45672D01*
X53568Y-45385D01*
X53473Y-45158D01*
X53360Y-45110D01*
X56239Y-45110D01*
X56126Y-45158D01*
X56023Y-45427D01*
X56031Y-45714D01*
X56126Y-45941D01*
X56239Y-45989D01*
X56679Y-45550D01*
X56239Y-45110D01*
X56380Y-45110D01*
X56750Y-45479D01*
X57189Y-45039D01*
X57141Y-44926D01*
X56872Y-44823D01*
X58872Y-44823D01*
X58585Y-44831D01*
X58358Y-44926D01*
X58310Y-45039D01*
X58380Y-45110D01*
X58239Y-45110D01*
X58126Y-45158D01*
X58023Y-45427D01*
X58031Y-45714D01*
X58117Y-45920D01*
X57894Y-45827D01*
X57606Y-45827D01*
X57381Y-45920D01*
X57476Y-45672D01*
X57468Y-45385D01*
X57373Y-45158D01*
X57260Y-45110D01*
X56820Y-45550D01*
X56826Y-45555D01*
X56755Y-45626D01*
X56750Y-45620D01*
X56310Y-46060D01*
X56358Y-46173D01*
X56627Y-46276D01*
X56914Y-46268D01*
X57120Y-46182D01*
X57027Y-46405D01*
X57027Y-46693D01*
X57120Y-46918D01*
X56872Y-46823D01*
X56585Y-46831D01*
X56358Y-46926D01*
X56310Y-47039D01*
X56380Y-47110D01*
X56239Y-47110D01*
X53360Y-47110D01*
X52920Y-47550D01*
X52991Y-47620D01*
X52850Y-47620D01*
X52410Y-48060D01*
X52458Y-48173D01*
X52727Y-48276D01*
X53014Y-48268D01*
X53241Y-48173D01*
X53289Y-48060D01*
X52850Y-47620D01*
X52991Y-47620D01*
X53360Y-47989D01*
X53473Y-47941D01*
X53576Y-47672D01*
X53568Y-47385D01*
X53473Y-47158D01*
X53360Y-47110D01*
X56239Y-47110D01*
X56126Y-47158D01*
X56023Y-47427D01*
X56031Y-47714D01*
X56126Y-47941D01*
X56239Y-47989D01*
X56679Y-47550D01*
X56239Y-47110D01*
X56380Y-47110D01*
X56750Y-47479D01*
X56755Y-47473D01*
X56826Y-47544D01*
X56820Y-47550D01*
X56891Y-47620D01*
X56750Y-47620D01*
X56310Y-48060D01*
X56358Y-48173D01*
X56627Y-48276D01*
X56914Y-48268D01*
X57141Y-48173D01*
X57189Y-48060D01*
X56750Y-47620D01*
X56891Y-47620D01*
X57260Y-47989D01*
X57373Y-47941D01*
X57476Y-47672D01*
X57468Y-47385D01*
X57382Y-47179D01*
X57605Y-47272D01*
X57893Y-47272D01*
X58118Y-47179D01*
X58023Y-47427D01*
X58031Y-47714D01*
X58126Y-47941D01*
X58239Y-47989D01*
X58679Y-47550D01*
X58673Y-47544D01*
X58744Y-47473D01*
X58750Y-47479D01*
X59189Y-47039D01*
X59141Y-46926D01*
X58872Y-46823D01*
X58585Y-46831D01*
X58379Y-46917D01*
X58472Y-46694D01*
X58472Y-46406D01*
X58379Y-46181D01*
X58627Y-46276D01*
X58914Y-46268D01*
X59141Y-46173D01*
X59189Y-46060D01*
X58750Y-45620D01*
X58744Y-45626D01*
X58673Y-45555D01*
X58679Y-45550D01*
X58239Y-45110D01*
X58380Y-45110D01*
X58750Y-45479D01*
X59189Y-45039D01*
X59141Y-44926D01*
X58872Y-44823D01*
X63372Y-44823D01*
X63085Y-44831D01*
X62858Y-44926D01*
X62810Y-45039D01*
X62880Y-45110D01*
X62739Y-45110D01*
X59260Y-45110D01*
X58820Y-45550D01*
X59260Y-45989D01*
X59373Y-45941D01*
X59476Y-45672D01*
X59468Y-45385D01*
X59373Y-45158D01*
X59260Y-45110D01*
X62739Y-45110D01*
X62626Y-45158D01*
X62523Y-45427D01*
X62531Y-45714D01*
X62626Y-45941D01*
X62739Y-45989D01*
X63179Y-45550D01*
X62739Y-45110D01*
X62880Y-45110D01*
X63250Y-45479D01*
X63689Y-45039D01*
X63641Y-44926D01*
X63372Y-44823D01*
X65372Y-44823D01*
X65085Y-44831D01*
X64858Y-44926D01*
X64810Y-45039D01*
X64880Y-45110D01*
X64739Y-45110D01*
X64626Y-45158D01*
X64523Y-45427D01*
X64531Y-45714D01*
X64617Y-45920D01*
X64394Y-45827D01*
X64106Y-45827D01*
X63881Y-45920D01*
X63976Y-45672D01*
X63968Y-45385D01*
X63873Y-45158D01*
X63760Y-45110D01*
X63320Y-45550D01*
X63326Y-45555D01*
X63255Y-45626D01*
X63250Y-45620D01*
X62810Y-46060D01*
X62858Y-46173D01*
X63127Y-46276D01*
X63414Y-46268D01*
X63620Y-46182D01*
X63527Y-46405D01*
X63527Y-46693D01*
X63620Y-46918D01*
X63372Y-46823D01*
X63085Y-46831D01*
X62858Y-46926D01*
X62810Y-47039D01*
X62880Y-47110D01*
X62739Y-47110D01*
X59260Y-47110D01*
X58820Y-47550D01*
X58891Y-47620D01*
X58750Y-47620D01*
X58310Y-48060D01*
X58358Y-48173D01*
X58627Y-48276D01*
X58914Y-48268D01*
X59141Y-48173D01*
X59189Y-48060D01*
X58750Y-47620D01*
X58891Y-47620D01*
X59260Y-47989D01*
X59373Y-47941D01*
X59476Y-47672D01*
X59468Y-47385D01*
X59373Y-47158D01*
X59260Y-47110D01*
X62739Y-47110D01*
X62626Y-47158D01*
X62523Y-47427D01*
X62531Y-47714D01*
X62626Y-47941D01*
X62739Y-47989D01*
X63179Y-47550D01*
X62739Y-47110D01*
X62880Y-47110D01*
X63250Y-47479D01*
X63255Y-47473D01*
X63326Y-47544D01*
X63320Y-47550D01*
X63391Y-47620D01*
X63250Y-47620D01*
X62810Y-48060D01*
X62858Y-48173D01*
X63127Y-48276D01*
X63414Y-48268D01*
X63641Y-48173D01*
X63689Y-48060D01*
X63250Y-47620D01*
X63391Y-47620D01*
X63760Y-47989D01*
X63873Y-47941D01*
X63976Y-47672D01*
X63968Y-47385D01*
X63882Y-47179D01*
X64105Y-47272D01*
X64393Y-47272D01*
X64618Y-47179D01*
X64523Y-47427D01*
X64531Y-47714D01*
X64626Y-47941D01*
X64739Y-47989D01*
X65179Y-47550D01*
X65173Y-47544D01*
X65244Y-47473D01*
X65250Y-47479D01*
X65689Y-47039D01*
X65641Y-46926D01*
X65372Y-46823D01*
X65085Y-46831D01*
X64879Y-46917D01*
X64972Y-46694D01*
X64972Y-46406D01*
X64879Y-46181D01*
X65127Y-46276D01*
X65414Y-46268D01*
X65641Y-46173D01*
X65689Y-46060D01*
X65250Y-45620D01*
X65244Y-45626D01*
X65173Y-45555D01*
X65179Y-45550D01*
X64739Y-45110D01*
X64880Y-45110D01*
X65250Y-45479D01*
X65689Y-45039D01*
X65641Y-44926D01*
X65372Y-44823D01*
X70072Y-44823D01*
X69785Y-44831D01*
X69558Y-44926D01*
X69510Y-45039D01*
X69580Y-45110D01*
X69439Y-45110D01*
X65760Y-45110D01*
X65320Y-45550D01*
X65760Y-45989D01*
X65873Y-45941D01*
X65976Y-45672D01*
X65968Y-45385D01*
X65873Y-45158D01*
X65760Y-45110D01*
X69439Y-45110D01*
X69326Y-45158D01*
X69223Y-45427D01*
X69231Y-45714D01*
X69326Y-45941D01*
X69439Y-45989D01*
X69879Y-45550D01*
X69439Y-45110D01*
X69580Y-45110D01*
X69950Y-45479D01*
X70389Y-45039D01*
X70341Y-44926D01*
X70072Y-44823D01*
X72072Y-44823D01*
X71785Y-44831D01*
X71558Y-44926D01*
X71510Y-45039D01*
X71580Y-45110D01*
X71439Y-45110D01*
X71326Y-45158D01*
X71223Y-45427D01*
X71231Y-45714D01*
X71317Y-45920D01*
X71094Y-45827D01*
X70806Y-45827D01*
X70581Y-45920D01*
X70676Y-45672D01*
X70668Y-45385D01*
X70573Y-45158D01*
X70460Y-45110D01*
X70020Y-45550D01*
X70026Y-45555D01*
X69955Y-45626D01*
X69950Y-45620D01*
X69510Y-46060D01*
X69558Y-46173D01*
X69827Y-46276D01*
X70114Y-46268D01*
X70320Y-46182D01*
X70227Y-46405D01*
X70227Y-46693D01*
X70320Y-46918D01*
X70072Y-46823D01*
X69785Y-46831D01*
X69558Y-46926D01*
X69510Y-47039D01*
X69580Y-47110D01*
X69439Y-47110D01*
X65760Y-47110D01*
X65320Y-47550D01*
X65391Y-47620D01*
X65250Y-47620D01*
X64810Y-48060D01*
X64858Y-48173D01*
X65127Y-48276D01*
X65414Y-48268D01*
X65641Y-48173D01*
X65689Y-48060D01*
X65250Y-47620D01*
X65391Y-47620D01*
X65760Y-47989D01*
X65873Y-47941D01*
X65976Y-47672D01*
X65968Y-47385D01*
X65873Y-47158D01*
X65760Y-47110D01*
X69439Y-47110D01*
X69326Y-47158D01*
X69223Y-47427D01*
X69231Y-47714D01*
X69326Y-47941D01*
X69439Y-47989D01*
X69879Y-47550D01*
X69439Y-47110D01*
X69580Y-47110D01*
X69950Y-47479D01*
X69955Y-47473D01*
X70026Y-47544D01*
X70020Y-47550D01*
X70091Y-47620D01*
X69950Y-47620D01*
X69510Y-48060D01*
X69558Y-48173D01*
X69827Y-48276D01*
X70114Y-48268D01*
X70341Y-48173D01*
X70389Y-48060D01*
X69950Y-47620D01*
X70091Y-47620D01*
X70460Y-47989D01*
X70573Y-47941D01*
X70676Y-47672D01*
X70668Y-47385D01*
X70582Y-47179D01*
X70805Y-47272D01*
X71093Y-47272D01*
X71318Y-47179D01*
X71223Y-47427D01*
X71231Y-47714D01*
X71326Y-47941D01*
X71439Y-47989D01*
X71879Y-47550D01*
X71873Y-47544D01*
X71944Y-47473D01*
X71950Y-47479D01*
X72389Y-47039D01*
X72341Y-46926D01*
X72072Y-46823D01*
X71785Y-46831D01*
X71579Y-46917D01*
X71672Y-46694D01*
X71672Y-46406D01*
X71579Y-46181D01*
X71827Y-46276D01*
X72114Y-46268D01*
X72341Y-46173D01*
X72389Y-46060D01*
X71950Y-45620D01*
X71944Y-45626D01*
X71873Y-45555D01*
X71879Y-45550D01*
X71439Y-45110D01*
X71580Y-45110D01*
X71950Y-45479D01*
X72389Y-45039D01*
X72341Y-44926D01*
X72072Y-44823D01*
X73200Y-44823D01*
X73200Y-45110D01*
X72460Y-45110D01*
X72020Y-45550D01*
X72460Y-45989D01*
X72573Y-45941D01*
X72676Y-45672D01*
X72668Y-45385D01*
X72573Y-45158D01*
X72460Y-45110D01*
X73200Y-45110D01*
X73200Y-47110D01*
X72460Y-47110D01*
X72020Y-47550D01*
X72091Y-47620D01*
X71950Y-47620D01*
X71510Y-48060D01*
X71558Y-48173D01*
X71827Y-48276D01*
X72114Y-48268D01*
X72341Y-48173D01*
X72389Y-48060D01*
X71950Y-47620D01*
X72091Y-47620D01*
X72460Y-47989D01*
X72573Y-47941D01*
X72676Y-47672D01*
X72668Y-47385D01*
X72573Y-47158D01*
X72460Y-47110D01*
X73200Y-47110D01*
X73200Y-48400D01*
X42500Y-48400D01*
X42500Y-33700D01*
X73200Y-33700D01*
M02*
