G04 (created by PCBNEW (2013-may-18)-stable) date 2014年01月31日 星期五 13时49分56秒*
%MOIN*%
G04 Gerber Fmt 3.4, Leading zero omitted, Abs format*
%FSLAX34Y34*%
G01*
G70*
G90*
G04 APERTURE LIST*
%ADD10C,0.00590551*%
%ADD11R,0.055X0.055*%
%ADD12C,0.055*%
%ADD13C,0.07*%
%ADD14R,0.07X0.07*%
%ADD15C,0.035*%
%ADD16C,0.01*%
G04 APERTURE END LIST*
G54D10*
G54D11*
X85696Y-57049D03*
G54D12*
X85696Y-58049D03*
X85696Y-59049D03*
G54D11*
X104900Y-56500D03*
G54D12*
X104900Y-57500D03*
G54D11*
X66003Y-52636D03*
G54D12*
X67003Y-52636D03*
G54D11*
X96400Y-56500D03*
G54D12*
X96400Y-57500D03*
G54D11*
X112900Y-60000D03*
G54D12*
X112900Y-59000D03*
G54D11*
X112900Y-56500D03*
G54D12*
X112900Y-57500D03*
G54D11*
X77035Y-61289D03*
G54D12*
X77035Y-62289D03*
G54D11*
X71129Y-55695D03*
G54D12*
X71129Y-54695D03*
G54D11*
X71129Y-60403D03*
G54D12*
X71129Y-61403D03*
G54D11*
X66110Y-57270D03*
G54D12*
X66110Y-56270D03*
G54D11*
X66110Y-58829D03*
G54D12*
X66110Y-59829D03*
G54D11*
X104900Y-60000D03*
G54D12*
X104900Y-59000D03*
G54D11*
X96400Y-60000D03*
G54D12*
X96400Y-59000D03*
G54D13*
X69161Y-59313D03*
X69161Y-60313D03*
G54D14*
X69161Y-61313D03*
G54D13*
X69358Y-56687D03*
X69358Y-55687D03*
G54D14*
X69358Y-54687D03*
G54D15*
X64929Y-59624D03*
X64929Y-58049D03*
G54D16*
X64929Y-58049D02*
X64929Y-59624D01*
G54D10*
G36*
X77950Y-62679D02*
X77565Y-63063D01*
X77565Y-62365D01*
X77560Y-62276D01*
X77560Y-61515D01*
X77560Y-60965D01*
X77522Y-60873D01*
X77452Y-60802D01*
X77360Y-60764D01*
X77260Y-60764D01*
X76710Y-60764D01*
X76619Y-60802D01*
X76548Y-60872D01*
X76510Y-60964D01*
X76510Y-61064D01*
X76510Y-61614D01*
X76548Y-61706D01*
X76618Y-61776D01*
X76710Y-61814D01*
X76797Y-61814D01*
X76762Y-61829D01*
X76738Y-61921D01*
X77035Y-62219D01*
X77332Y-61921D01*
X77308Y-61829D01*
X77267Y-61814D01*
X77359Y-61814D01*
X77451Y-61776D01*
X77522Y-61706D01*
X77560Y-61614D01*
X77560Y-61515D01*
X77560Y-62276D01*
X77553Y-62157D01*
X77495Y-62016D01*
X77403Y-61992D01*
X77106Y-62289D01*
X77403Y-62586D01*
X77495Y-62562D01*
X77565Y-62365D01*
X77565Y-63063D01*
X77332Y-63296D01*
X77332Y-62657D01*
X77035Y-62360D01*
X76964Y-62431D01*
X76964Y-62289D01*
X76667Y-61992D01*
X76574Y-62016D01*
X76505Y-62213D01*
X76516Y-62422D01*
X76574Y-62562D01*
X76667Y-62586D01*
X76964Y-62289D01*
X76964Y-62431D01*
X76738Y-62657D01*
X76762Y-62750D01*
X76959Y-62819D01*
X77168Y-62808D01*
X77308Y-62750D01*
X77332Y-62657D01*
X77332Y-63296D01*
X76779Y-63850D01*
X71659Y-63850D01*
X71659Y-61479D01*
X71659Y-54771D01*
X71648Y-54562D01*
X71590Y-54422D01*
X71497Y-54398D01*
X71427Y-54468D01*
X71427Y-54327D01*
X71402Y-54234D01*
X71205Y-54165D01*
X70997Y-54176D01*
X70857Y-54234D01*
X70832Y-54327D01*
X71129Y-54624D01*
X71427Y-54327D01*
X71427Y-54468D01*
X71200Y-54695D01*
X71497Y-54992D01*
X71590Y-54968D01*
X71659Y-54771D01*
X71659Y-61479D01*
X71654Y-61390D01*
X71654Y-60629D01*
X71654Y-60079D01*
X71654Y-55920D01*
X71654Y-55370D01*
X71616Y-55278D01*
X71546Y-55208D01*
X71454Y-55170D01*
X71367Y-55170D01*
X71402Y-55155D01*
X71427Y-55063D01*
X71129Y-54765D01*
X71059Y-54836D01*
X71059Y-54695D01*
X70762Y-54398D01*
X70669Y-54422D01*
X70600Y-54619D01*
X70611Y-54828D01*
X70669Y-54968D01*
X70762Y-54992D01*
X71059Y-54695D01*
X71059Y-54836D01*
X70832Y-55063D01*
X70857Y-55155D01*
X70898Y-55170D01*
X70805Y-55170D01*
X70713Y-55208D01*
X70643Y-55278D01*
X70604Y-55370D01*
X70604Y-55469D01*
X70604Y-56019D01*
X70642Y-56111D01*
X70713Y-56182D01*
X70804Y-56220D01*
X70904Y-56220D01*
X71454Y-56220D01*
X71546Y-56182D01*
X71616Y-56112D01*
X71654Y-56020D01*
X71654Y-55920D01*
X71654Y-60079D01*
X71616Y-59987D01*
X71546Y-59917D01*
X71454Y-59878D01*
X71355Y-59878D01*
X70805Y-59878D01*
X70713Y-59916D01*
X70643Y-59987D01*
X70604Y-60078D01*
X70604Y-60178D01*
X70604Y-60728D01*
X70642Y-60820D01*
X70713Y-60890D01*
X70804Y-60928D01*
X70891Y-60928D01*
X70857Y-60943D01*
X70832Y-61036D01*
X71129Y-61333D01*
X71427Y-61036D01*
X71402Y-60943D01*
X71361Y-60928D01*
X71454Y-60928D01*
X71546Y-60891D01*
X71616Y-60820D01*
X71654Y-60728D01*
X71654Y-60629D01*
X71654Y-61390D01*
X71648Y-61271D01*
X71590Y-61131D01*
X71497Y-61106D01*
X71200Y-61403D01*
X71497Y-61701D01*
X71590Y-61676D01*
X71659Y-61479D01*
X71659Y-63850D01*
X71427Y-63850D01*
X71427Y-61771D01*
X71129Y-61474D01*
X71059Y-61545D01*
X71059Y-61403D01*
X70762Y-61106D01*
X70669Y-61131D01*
X70600Y-61328D01*
X70611Y-61536D01*
X70669Y-61676D01*
X70762Y-61701D01*
X71059Y-61403D01*
X71059Y-61545D01*
X70832Y-61771D01*
X70857Y-61864D01*
X71054Y-61933D01*
X71262Y-61922D01*
X71402Y-61864D01*
X71427Y-61771D01*
X71427Y-63850D01*
X69958Y-63850D01*
X69958Y-56568D01*
X69867Y-56347D01*
X69706Y-56187D01*
X69866Y-56027D01*
X69958Y-55807D01*
X69958Y-55568D01*
X69867Y-55347D01*
X69792Y-55273D01*
X69849Y-55249D01*
X69920Y-55179D01*
X69958Y-55087D01*
X69958Y-54987D01*
X69958Y-54386D01*
X69958Y-54287D01*
X69920Y-54195D01*
X69849Y-54125D01*
X69757Y-54087D01*
X69470Y-54087D01*
X69408Y-54149D01*
X69408Y-54637D01*
X69895Y-54637D01*
X69958Y-54574D01*
X69958Y-54386D01*
X69958Y-54987D01*
X69958Y-54799D01*
X69895Y-54737D01*
X69408Y-54737D01*
X69408Y-54745D01*
X69308Y-54745D01*
X69308Y-54737D01*
X69308Y-54637D01*
X69308Y-54149D01*
X69245Y-54087D01*
X68958Y-54087D01*
X68866Y-54125D01*
X68796Y-54195D01*
X68758Y-54287D01*
X68758Y-54386D01*
X68758Y-54574D01*
X68820Y-54637D01*
X69308Y-54637D01*
X69308Y-54737D01*
X68820Y-54737D01*
X68758Y-54799D01*
X68758Y-54987D01*
X68758Y-55087D01*
X68796Y-55179D01*
X68866Y-55249D01*
X68924Y-55273D01*
X68849Y-55347D01*
X68758Y-55567D01*
X68758Y-55806D01*
X68849Y-56026D01*
X69009Y-56187D01*
X68849Y-56347D01*
X68758Y-56567D01*
X68758Y-56806D01*
X68849Y-57026D01*
X69017Y-57195D01*
X69238Y-57287D01*
X69477Y-57287D01*
X69697Y-57196D01*
X69866Y-57027D01*
X69958Y-56807D01*
X69958Y-56568D01*
X69958Y-63850D01*
X69761Y-63850D01*
X69761Y-60194D01*
X69670Y-59973D01*
X69509Y-59813D01*
X69669Y-59653D01*
X69761Y-59433D01*
X69761Y-59194D01*
X69670Y-58973D01*
X69501Y-58805D01*
X69281Y-58713D01*
X69042Y-58713D01*
X68821Y-58804D01*
X68653Y-58973D01*
X68561Y-59193D01*
X68561Y-59432D01*
X68652Y-59652D01*
X68812Y-59813D01*
X68653Y-59973D01*
X68561Y-60193D01*
X68561Y-60432D01*
X68652Y-60652D01*
X68727Y-60727D01*
X68669Y-60751D01*
X68599Y-60821D01*
X68561Y-60913D01*
X68561Y-61012D01*
X68561Y-61200D01*
X68623Y-61263D01*
X69111Y-61263D01*
X69111Y-61255D01*
X69211Y-61255D01*
X69211Y-61263D01*
X69698Y-61263D01*
X69761Y-61200D01*
X69761Y-61012D01*
X69761Y-60913D01*
X69723Y-60821D01*
X69652Y-60751D01*
X69595Y-60727D01*
X69669Y-60653D01*
X69761Y-60433D01*
X69761Y-60194D01*
X69761Y-63850D01*
X69761Y-63850D01*
X69761Y-61613D01*
X69761Y-61425D01*
X69698Y-61363D01*
X69211Y-61363D01*
X69211Y-61850D01*
X69273Y-61913D01*
X69560Y-61913D01*
X69652Y-61875D01*
X69723Y-61805D01*
X69761Y-61713D01*
X69761Y-61613D01*
X69761Y-63850D01*
X69111Y-63850D01*
X69111Y-61850D01*
X69111Y-61363D01*
X68623Y-61363D01*
X68561Y-61425D01*
X68561Y-61613D01*
X68561Y-61713D01*
X68599Y-61805D01*
X68669Y-61875D01*
X68761Y-61913D01*
X69048Y-61913D01*
X69111Y-61850D01*
X69111Y-63850D01*
X67529Y-63850D01*
X67529Y-52532D01*
X67449Y-52339D01*
X67301Y-52191D01*
X67108Y-52111D01*
X66899Y-52111D01*
X66706Y-52190D01*
X66559Y-52338D01*
X66528Y-52411D01*
X66528Y-52410D01*
X66528Y-52311D01*
X66490Y-52219D01*
X66420Y-52149D01*
X66328Y-52111D01*
X66116Y-52111D01*
X66053Y-52173D01*
X66053Y-52586D01*
X66061Y-52586D01*
X66061Y-52686D01*
X66053Y-52686D01*
X66053Y-53098D01*
X66116Y-53161D01*
X66328Y-53161D01*
X66420Y-53123D01*
X66490Y-53053D01*
X66528Y-52961D01*
X66528Y-52861D01*
X66528Y-52861D01*
X66558Y-52933D01*
X66706Y-53081D01*
X66899Y-53161D01*
X67107Y-53161D01*
X67300Y-53081D01*
X67448Y-52933D01*
X67528Y-52741D01*
X67529Y-52532D01*
X67529Y-63850D01*
X66640Y-63850D01*
X66640Y-59904D01*
X66640Y-56345D01*
X66628Y-56137D01*
X66570Y-55997D01*
X66478Y-55972D01*
X66407Y-56043D01*
X66407Y-55902D01*
X66383Y-55809D01*
X66186Y-55740D01*
X65977Y-55751D01*
X65953Y-55761D01*
X65953Y-53098D01*
X65953Y-52686D01*
X65953Y-52586D01*
X65953Y-52173D01*
X65891Y-52111D01*
X65679Y-52111D01*
X65587Y-52149D01*
X65517Y-52219D01*
X65478Y-52311D01*
X65478Y-52410D01*
X65478Y-52523D01*
X65541Y-52586D01*
X65953Y-52586D01*
X65953Y-52686D01*
X65541Y-52686D01*
X65478Y-52748D01*
X65478Y-52861D01*
X65478Y-52961D01*
X65517Y-53053D01*
X65587Y-53123D01*
X65679Y-53161D01*
X65891Y-53161D01*
X65953Y-53098D01*
X65953Y-55761D01*
X65837Y-55809D01*
X65813Y-55902D01*
X66110Y-56199D01*
X66407Y-55902D01*
X66407Y-56043D01*
X66180Y-56270D01*
X66478Y-56567D01*
X66570Y-56542D01*
X66640Y-56345D01*
X66640Y-59904D01*
X66635Y-59815D01*
X66635Y-59054D01*
X66635Y-58504D01*
X66635Y-57495D01*
X66635Y-56945D01*
X66597Y-56853D01*
X66527Y-56783D01*
X66435Y-56745D01*
X66348Y-56745D01*
X66383Y-56730D01*
X66407Y-56637D01*
X66110Y-56340D01*
X66039Y-56411D01*
X66039Y-56270D01*
X65742Y-55972D01*
X65649Y-55997D01*
X65580Y-56194D01*
X65591Y-56402D01*
X65649Y-56542D01*
X65742Y-56567D01*
X66039Y-56270D01*
X66039Y-56411D01*
X65813Y-56637D01*
X65837Y-56730D01*
X65878Y-56745D01*
X65785Y-56745D01*
X65693Y-56783D01*
X65623Y-56853D01*
X65585Y-56945D01*
X65585Y-57044D01*
X65585Y-57594D01*
X65623Y-57686D01*
X65693Y-57756D01*
X65785Y-57795D01*
X65884Y-57795D01*
X66434Y-57795D01*
X66526Y-57757D01*
X66597Y-57686D01*
X66635Y-57595D01*
X66635Y-57495D01*
X66635Y-58504D01*
X66597Y-58412D01*
X66527Y-58342D01*
X66435Y-58304D01*
X66335Y-58304D01*
X65785Y-58304D01*
X65693Y-58342D01*
X65623Y-58412D01*
X65585Y-58504D01*
X65585Y-58603D01*
X65585Y-59153D01*
X65623Y-59245D01*
X65693Y-59315D01*
X65785Y-59354D01*
X65872Y-59354D01*
X65837Y-59368D01*
X65813Y-59461D01*
X66110Y-59758D01*
X66407Y-59461D01*
X66383Y-59368D01*
X66342Y-59354D01*
X66434Y-59354D01*
X66526Y-59316D01*
X66597Y-59245D01*
X66635Y-59154D01*
X66635Y-59054D01*
X66635Y-59815D01*
X66628Y-59696D01*
X66570Y-59556D01*
X66478Y-59532D01*
X66180Y-59829D01*
X66478Y-60126D01*
X66570Y-60101D01*
X66640Y-59904D01*
X66640Y-63850D01*
X66407Y-63850D01*
X66407Y-60196D01*
X66110Y-59899D01*
X66039Y-59970D01*
X66039Y-59829D01*
X65742Y-59532D01*
X65649Y-59556D01*
X65580Y-59753D01*
X65591Y-59961D01*
X65649Y-60101D01*
X65742Y-60126D01*
X66039Y-59829D01*
X66039Y-59970D01*
X65813Y-60196D01*
X65837Y-60289D01*
X66034Y-60359D01*
X66242Y-60347D01*
X66383Y-60289D01*
X66407Y-60196D01*
X66407Y-63850D01*
X60820Y-63850D01*
X59050Y-62079D01*
X59050Y-54920D01*
X62220Y-51750D01*
X76779Y-51750D01*
X77550Y-52520D01*
X77550Y-60120D01*
X77950Y-60520D01*
X77950Y-62679D01*
X77950Y-62679D01*
G37*
G54D16*
X77950Y-62679D02*
X77565Y-63063D01*
X77565Y-62365D01*
X77560Y-62276D01*
X77560Y-61515D01*
X77560Y-60965D01*
X77522Y-60873D01*
X77452Y-60802D01*
X77360Y-60764D01*
X77260Y-60764D01*
X76710Y-60764D01*
X76619Y-60802D01*
X76548Y-60872D01*
X76510Y-60964D01*
X76510Y-61064D01*
X76510Y-61614D01*
X76548Y-61706D01*
X76618Y-61776D01*
X76710Y-61814D01*
X76797Y-61814D01*
X76762Y-61829D01*
X76738Y-61921D01*
X77035Y-62219D01*
X77332Y-61921D01*
X77308Y-61829D01*
X77267Y-61814D01*
X77359Y-61814D01*
X77451Y-61776D01*
X77522Y-61706D01*
X77560Y-61614D01*
X77560Y-61515D01*
X77560Y-62276D01*
X77553Y-62157D01*
X77495Y-62016D01*
X77403Y-61992D01*
X77106Y-62289D01*
X77403Y-62586D01*
X77495Y-62562D01*
X77565Y-62365D01*
X77565Y-63063D01*
X77332Y-63296D01*
X77332Y-62657D01*
X77035Y-62360D01*
X76964Y-62431D01*
X76964Y-62289D01*
X76667Y-61992D01*
X76574Y-62016D01*
X76505Y-62213D01*
X76516Y-62422D01*
X76574Y-62562D01*
X76667Y-62586D01*
X76964Y-62289D01*
X76964Y-62431D01*
X76738Y-62657D01*
X76762Y-62750D01*
X76959Y-62819D01*
X77168Y-62808D01*
X77308Y-62750D01*
X77332Y-62657D01*
X77332Y-63296D01*
X76779Y-63850D01*
X71659Y-63850D01*
X71659Y-61479D01*
X71659Y-54771D01*
X71648Y-54562D01*
X71590Y-54422D01*
X71497Y-54398D01*
X71427Y-54468D01*
X71427Y-54327D01*
X71402Y-54234D01*
X71205Y-54165D01*
X70997Y-54176D01*
X70857Y-54234D01*
X70832Y-54327D01*
X71129Y-54624D01*
X71427Y-54327D01*
X71427Y-54468D01*
X71200Y-54695D01*
X71497Y-54992D01*
X71590Y-54968D01*
X71659Y-54771D01*
X71659Y-61479D01*
X71654Y-61390D01*
X71654Y-60629D01*
X71654Y-60079D01*
X71654Y-55920D01*
X71654Y-55370D01*
X71616Y-55278D01*
X71546Y-55208D01*
X71454Y-55170D01*
X71367Y-55170D01*
X71402Y-55155D01*
X71427Y-55063D01*
X71129Y-54765D01*
X71059Y-54836D01*
X71059Y-54695D01*
X70762Y-54398D01*
X70669Y-54422D01*
X70600Y-54619D01*
X70611Y-54828D01*
X70669Y-54968D01*
X70762Y-54992D01*
X71059Y-54695D01*
X71059Y-54836D01*
X70832Y-55063D01*
X70857Y-55155D01*
X70898Y-55170D01*
X70805Y-55170D01*
X70713Y-55208D01*
X70643Y-55278D01*
X70604Y-55370D01*
X70604Y-55469D01*
X70604Y-56019D01*
X70642Y-56111D01*
X70713Y-56182D01*
X70804Y-56220D01*
X70904Y-56220D01*
X71454Y-56220D01*
X71546Y-56182D01*
X71616Y-56112D01*
X71654Y-56020D01*
X71654Y-55920D01*
X71654Y-60079D01*
X71616Y-59987D01*
X71546Y-59917D01*
X71454Y-59878D01*
X71355Y-59878D01*
X70805Y-59878D01*
X70713Y-59916D01*
X70643Y-59987D01*
X70604Y-60078D01*
X70604Y-60178D01*
X70604Y-60728D01*
X70642Y-60820D01*
X70713Y-60890D01*
X70804Y-60928D01*
X70891Y-60928D01*
X70857Y-60943D01*
X70832Y-61036D01*
X71129Y-61333D01*
X71427Y-61036D01*
X71402Y-60943D01*
X71361Y-60928D01*
X71454Y-60928D01*
X71546Y-60891D01*
X71616Y-60820D01*
X71654Y-60728D01*
X71654Y-60629D01*
X71654Y-61390D01*
X71648Y-61271D01*
X71590Y-61131D01*
X71497Y-61106D01*
X71200Y-61403D01*
X71497Y-61701D01*
X71590Y-61676D01*
X71659Y-61479D01*
X71659Y-63850D01*
X71427Y-63850D01*
X71427Y-61771D01*
X71129Y-61474D01*
X71059Y-61545D01*
X71059Y-61403D01*
X70762Y-61106D01*
X70669Y-61131D01*
X70600Y-61328D01*
X70611Y-61536D01*
X70669Y-61676D01*
X70762Y-61701D01*
X71059Y-61403D01*
X71059Y-61545D01*
X70832Y-61771D01*
X70857Y-61864D01*
X71054Y-61933D01*
X71262Y-61922D01*
X71402Y-61864D01*
X71427Y-61771D01*
X71427Y-63850D01*
X69958Y-63850D01*
X69958Y-56568D01*
X69867Y-56347D01*
X69706Y-56187D01*
X69866Y-56027D01*
X69958Y-55807D01*
X69958Y-55568D01*
X69867Y-55347D01*
X69792Y-55273D01*
X69849Y-55249D01*
X69920Y-55179D01*
X69958Y-55087D01*
X69958Y-54987D01*
X69958Y-54386D01*
X69958Y-54287D01*
X69920Y-54195D01*
X69849Y-54125D01*
X69757Y-54087D01*
X69470Y-54087D01*
X69408Y-54149D01*
X69408Y-54637D01*
X69895Y-54637D01*
X69958Y-54574D01*
X69958Y-54386D01*
X69958Y-54987D01*
X69958Y-54799D01*
X69895Y-54737D01*
X69408Y-54737D01*
X69408Y-54745D01*
X69308Y-54745D01*
X69308Y-54737D01*
X69308Y-54637D01*
X69308Y-54149D01*
X69245Y-54087D01*
X68958Y-54087D01*
X68866Y-54125D01*
X68796Y-54195D01*
X68758Y-54287D01*
X68758Y-54386D01*
X68758Y-54574D01*
X68820Y-54637D01*
X69308Y-54637D01*
X69308Y-54737D01*
X68820Y-54737D01*
X68758Y-54799D01*
X68758Y-54987D01*
X68758Y-55087D01*
X68796Y-55179D01*
X68866Y-55249D01*
X68924Y-55273D01*
X68849Y-55347D01*
X68758Y-55567D01*
X68758Y-55806D01*
X68849Y-56026D01*
X69009Y-56187D01*
X68849Y-56347D01*
X68758Y-56567D01*
X68758Y-56806D01*
X68849Y-57026D01*
X69017Y-57195D01*
X69238Y-57287D01*
X69477Y-57287D01*
X69697Y-57196D01*
X69866Y-57027D01*
X69958Y-56807D01*
X69958Y-56568D01*
X69958Y-63850D01*
X69761Y-63850D01*
X69761Y-60194D01*
X69670Y-59973D01*
X69509Y-59813D01*
X69669Y-59653D01*
X69761Y-59433D01*
X69761Y-59194D01*
X69670Y-58973D01*
X69501Y-58805D01*
X69281Y-58713D01*
X69042Y-58713D01*
X68821Y-58804D01*
X68653Y-58973D01*
X68561Y-59193D01*
X68561Y-59432D01*
X68652Y-59652D01*
X68812Y-59813D01*
X68653Y-59973D01*
X68561Y-60193D01*
X68561Y-60432D01*
X68652Y-60652D01*
X68727Y-60727D01*
X68669Y-60751D01*
X68599Y-60821D01*
X68561Y-60913D01*
X68561Y-61012D01*
X68561Y-61200D01*
X68623Y-61263D01*
X69111Y-61263D01*
X69111Y-61255D01*
X69211Y-61255D01*
X69211Y-61263D01*
X69698Y-61263D01*
X69761Y-61200D01*
X69761Y-61012D01*
X69761Y-60913D01*
X69723Y-60821D01*
X69652Y-60751D01*
X69595Y-60727D01*
X69669Y-60653D01*
X69761Y-60433D01*
X69761Y-60194D01*
X69761Y-63850D01*
X69761Y-63850D01*
X69761Y-61613D01*
X69761Y-61425D01*
X69698Y-61363D01*
X69211Y-61363D01*
X69211Y-61850D01*
X69273Y-61913D01*
X69560Y-61913D01*
X69652Y-61875D01*
X69723Y-61805D01*
X69761Y-61713D01*
X69761Y-61613D01*
X69761Y-63850D01*
X69111Y-63850D01*
X69111Y-61850D01*
X69111Y-61363D01*
X68623Y-61363D01*
X68561Y-61425D01*
X68561Y-61613D01*
X68561Y-61713D01*
X68599Y-61805D01*
X68669Y-61875D01*
X68761Y-61913D01*
X69048Y-61913D01*
X69111Y-61850D01*
X69111Y-63850D01*
X67529Y-63850D01*
X67529Y-52532D01*
X67449Y-52339D01*
X67301Y-52191D01*
X67108Y-52111D01*
X66899Y-52111D01*
X66706Y-52190D01*
X66559Y-52338D01*
X66528Y-52411D01*
X66528Y-52410D01*
X66528Y-52311D01*
X66490Y-52219D01*
X66420Y-52149D01*
X66328Y-52111D01*
X66116Y-52111D01*
X66053Y-52173D01*
X66053Y-52586D01*
X66061Y-52586D01*
X66061Y-52686D01*
X66053Y-52686D01*
X66053Y-53098D01*
X66116Y-53161D01*
X66328Y-53161D01*
X66420Y-53123D01*
X66490Y-53053D01*
X66528Y-52961D01*
X66528Y-52861D01*
X66528Y-52861D01*
X66558Y-52933D01*
X66706Y-53081D01*
X66899Y-53161D01*
X67107Y-53161D01*
X67300Y-53081D01*
X67448Y-52933D01*
X67528Y-52741D01*
X67529Y-52532D01*
X67529Y-63850D01*
X66640Y-63850D01*
X66640Y-59904D01*
X66640Y-56345D01*
X66628Y-56137D01*
X66570Y-55997D01*
X66478Y-55972D01*
X66407Y-56043D01*
X66407Y-55902D01*
X66383Y-55809D01*
X66186Y-55740D01*
X65977Y-55751D01*
X65953Y-55761D01*
X65953Y-53098D01*
X65953Y-52686D01*
X65953Y-52586D01*
X65953Y-52173D01*
X65891Y-52111D01*
X65679Y-52111D01*
X65587Y-52149D01*
X65517Y-52219D01*
X65478Y-52311D01*
X65478Y-52410D01*
X65478Y-52523D01*
X65541Y-52586D01*
X65953Y-52586D01*
X65953Y-52686D01*
X65541Y-52686D01*
X65478Y-52748D01*
X65478Y-52861D01*
X65478Y-52961D01*
X65517Y-53053D01*
X65587Y-53123D01*
X65679Y-53161D01*
X65891Y-53161D01*
X65953Y-53098D01*
X65953Y-55761D01*
X65837Y-55809D01*
X65813Y-55902D01*
X66110Y-56199D01*
X66407Y-55902D01*
X66407Y-56043D01*
X66180Y-56270D01*
X66478Y-56567D01*
X66570Y-56542D01*
X66640Y-56345D01*
X66640Y-59904D01*
X66635Y-59815D01*
X66635Y-59054D01*
X66635Y-58504D01*
X66635Y-57495D01*
X66635Y-56945D01*
X66597Y-56853D01*
X66527Y-56783D01*
X66435Y-56745D01*
X66348Y-56745D01*
X66383Y-56730D01*
X66407Y-56637D01*
X66110Y-56340D01*
X66039Y-56411D01*
X66039Y-56270D01*
X65742Y-55972D01*
X65649Y-55997D01*
X65580Y-56194D01*
X65591Y-56402D01*
X65649Y-56542D01*
X65742Y-56567D01*
X66039Y-56270D01*
X66039Y-56411D01*
X65813Y-56637D01*
X65837Y-56730D01*
X65878Y-56745D01*
X65785Y-56745D01*
X65693Y-56783D01*
X65623Y-56853D01*
X65585Y-56945D01*
X65585Y-57044D01*
X65585Y-57594D01*
X65623Y-57686D01*
X65693Y-57756D01*
X65785Y-57795D01*
X65884Y-57795D01*
X66434Y-57795D01*
X66526Y-57757D01*
X66597Y-57686D01*
X66635Y-57595D01*
X66635Y-57495D01*
X66635Y-58504D01*
X66597Y-58412D01*
X66527Y-58342D01*
X66435Y-58304D01*
X66335Y-58304D01*
X65785Y-58304D01*
X65693Y-58342D01*
X65623Y-58412D01*
X65585Y-58504D01*
X65585Y-58603D01*
X65585Y-59153D01*
X65623Y-59245D01*
X65693Y-59315D01*
X65785Y-59354D01*
X65872Y-59354D01*
X65837Y-59368D01*
X65813Y-59461D01*
X66110Y-59758D01*
X66407Y-59461D01*
X66383Y-59368D01*
X66342Y-59354D01*
X66434Y-59354D01*
X66526Y-59316D01*
X66597Y-59245D01*
X66635Y-59154D01*
X66635Y-59054D01*
X66635Y-59815D01*
X66628Y-59696D01*
X66570Y-59556D01*
X66478Y-59532D01*
X66180Y-59829D01*
X66478Y-60126D01*
X66570Y-60101D01*
X66640Y-59904D01*
X66640Y-63850D01*
X66407Y-63850D01*
X66407Y-60196D01*
X66110Y-59899D01*
X66039Y-59970D01*
X66039Y-59829D01*
X65742Y-59532D01*
X65649Y-59556D01*
X65580Y-59753D01*
X65591Y-59961D01*
X65649Y-60101D01*
X65742Y-60126D01*
X66039Y-59829D01*
X66039Y-59970D01*
X65813Y-60196D01*
X65837Y-60289D01*
X66034Y-60359D01*
X66242Y-60347D01*
X66383Y-60289D01*
X66407Y-60196D01*
X66407Y-63850D01*
X60820Y-63850D01*
X59050Y-62079D01*
X59050Y-54920D01*
X62220Y-51750D01*
X76779Y-51750D01*
X77550Y-52520D01*
X77550Y-60120D01*
X77950Y-60520D01*
X77950Y-62679D01*
G54D10*
G36*
X114200Y-61129D02*
X113429Y-61899D01*
X113429Y-59075D01*
X113429Y-57575D01*
X113425Y-57486D01*
X113425Y-56725D01*
X113425Y-56175D01*
X113387Y-56083D01*
X113316Y-56013D01*
X113224Y-55975D01*
X113125Y-55974D01*
X112575Y-55974D01*
X112483Y-56012D01*
X112413Y-56083D01*
X112375Y-56175D01*
X112374Y-56274D01*
X112374Y-56824D01*
X112412Y-56916D01*
X112483Y-56986D01*
X112575Y-57024D01*
X112662Y-57025D01*
X112627Y-57039D01*
X112602Y-57132D01*
X112900Y-57429D01*
X113197Y-57132D01*
X113172Y-57039D01*
X113131Y-57025D01*
X113224Y-57025D01*
X113316Y-56987D01*
X113386Y-56916D01*
X113424Y-56824D01*
X113425Y-56725D01*
X113425Y-57486D01*
X113418Y-57367D01*
X113360Y-57227D01*
X113267Y-57202D01*
X112970Y-57500D01*
X113267Y-57797D01*
X113360Y-57772D01*
X113429Y-57575D01*
X113429Y-59075D01*
X113418Y-58867D01*
X113360Y-58727D01*
X113267Y-58702D01*
X113197Y-58773D01*
X113197Y-58632D01*
X113197Y-57867D01*
X112900Y-57570D01*
X112829Y-57641D01*
X112829Y-57500D01*
X112532Y-57202D01*
X112439Y-57227D01*
X112370Y-57424D01*
X112381Y-57632D01*
X112439Y-57772D01*
X112532Y-57797D01*
X112829Y-57500D01*
X112829Y-57641D01*
X112602Y-57867D01*
X112627Y-57960D01*
X112824Y-58029D01*
X113032Y-58018D01*
X113172Y-57960D01*
X113197Y-57867D01*
X113197Y-58632D01*
X113172Y-58539D01*
X112975Y-58470D01*
X112767Y-58481D01*
X112627Y-58539D01*
X112602Y-58632D01*
X112900Y-58929D01*
X113197Y-58632D01*
X113197Y-58773D01*
X112970Y-59000D01*
X113267Y-59297D01*
X113360Y-59272D01*
X113429Y-59075D01*
X113429Y-61899D01*
X113425Y-61904D01*
X113425Y-60225D01*
X113425Y-59675D01*
X113387Y-59583D01*
X113316Y-59513D01*
X113224Y-59475D01*
X113137Y-59474D01*
X113172Y-59460D01*
X113197Y-59367D01*
X112900Y-59070D01*
X112829Y-59141D01*
X112829Y-59000D01*
X112532Y-58702D01*
X112439Y-58727D01*
X112370Y-58924D01*
X112381Y-59132D01*
X112439Y-59272D01*
X112532Y-59297D01*
X112829Y-59000D01*
X112829Y-59141D01*
X112602Y-59367D01*
X112627Y-59460D01*
X112668Y-59474D01*
X112575Y-59474D01*
X112483Y-59512D01*
X112413Y-59583D01*
X112375Y-59675D01*
X112374Y-59774D01*
X112374Y-60324D01*
X112412Y-60416D01*
X112483Y-60486D01*
X112575Y-60524D01*
X112674Y-60525D01*
X113224Y-60525D01*
X113316Y-60487D01*
X113386Y-60416D01*
X113424Y-60324D01*
X113425Y-60225D01*
X113425Y-61904D01*
X112979Y-62350D01*
X110479Y-62350D01*
X107729Y-65100D01*
X105429Y-65100D01*
X105429Y-59075D01*
X105429Y-57575D01*
X105425Y-57486D01*
X105425Y-56725D01*
X105425Y-56175D01*
X105387Y-56083D01*
X105316Y-56013D01*
X105224Y-55975D01*
X105125Y-55974D01*
X104575Y-55974D01*
X104483Y-56012D01*
X104413Y-56083D01*
X104375Y-56175D01*
X104374Y-56274D01*
X104374Y-56824D01*
X104412Y-56916D01*
X104483Y-56986D01*
X104575Y-57024D01*
X104662Y-57025D01*
X104627Y-57039D01*
X104602Y-57132D01*
X104900Y-57429D01*
X105197Y-57132D01*
X105172Y-57039D01*
X105131Y-57025D01*
X105224Y-57025D01*
X105316Y-56987D01*
X105386Y-56916D01*
X105424Y-56824D01*
X105425Y-56725D01*
X105425Y-57486D01*
X105418Y-57367D01*
X105360Y-57227D01*
X105267Y-57202D01*
X104970Y-57500D01*
X105267Y-57797D01*
X105360Y-57772D01*
X105429Y-57575D01*
X105429Y-59075D01*
X105418Y-58867D01*
X105360Y-58727D01*
X105267Y-58702D01*
X105197Y-58773D01*
X105197Y-58632D01*
X105197Y-57867D01*
X104900Y-57570D01*
X104829Y-57641D01*
X104829Y-57500D01*
X104532Y-57202D01*
X104439Y-57227D01*
X104370Y-57424D01*
X104381Y-57632D01*
X104439Y-57772D01*
X104532Y-57797D01*
X104829Y-57500D01*
X104829Y-57641D01*
X104602Y-57867D01*
X104627Y-57960D01*
X104824Y-58029D01*
X105032Y-58018D01*
X105172Y-57960D01*
X105197Y-57867D01*
X105197Y-58632D01*
X105172Y-58539D01*
X104975Y-58470D01*
X104767Y-58481D01*
X104627Y-58539D01*
X104602Y-58632D01*
X104900Y-58929D01*
X105197Y-58632D01*
X105197Y-58773D01*
X104970Y-59000D01*
X105267Y-59297D01*
X105360Y-59272D01*
X105429Y-59075D01*
X105429Y-65100D01*
X105425Y-65100D01*
X105425Y-60225D01*
X105425Y-59675D01*
X105387Y-59583D01*
X105316Y-59513D01*
X105224Y-59475D01*
X105137Y-59474D01*
X105172Y-59460D01*
X105197Y-59367D01*
X104900Y-59070D01*
X104829Y-59141D01*
X104829Y-59000D01*
X104532Y-58702D01*
X104439Y-58727D01*
X104370Y-58924D01*
X104381Y-59132D01*
X104439Y-59272D01*
X104532Y-59297D01*
X104829Y-59000D01*
X104829Y-59141D01*
X104602Y-59367D01*
X104627Y-59460D01*
X104668Y-59474D01*
X104575Y-59474D01*
X104483Y-59512D01*
X104413Y-59583D01*
X104375Y-59675D01*
X104374Y-59774D01*
X104374Y-60324D01*
X104412Y-60416D01*
X104483Y-60486D01*
X104575Y-60524D01*
X104674Y-60525D01*
X105224Y-60525D01*
X105316Y-60487D01*
X105386Y-60416D01*
X105424Y-60324D01*
X105425Y-60225D01*
X105425Y-65100D01*
X96929Y-65100D01*
X96929Y-59075D01*
X96929Y-57575D01*
X96925Y-57486D01*
X96925Y-56725D01*
X96925Y-56175D01*
X96887Y-56083D01*
X96816Y-56013D01*
X96724Y-55975D01*
X96625Y-55974D01*
X96075Y-55974D01*
X95983Y-56012D01*
X95913Y-56083D01*
X95875Y-56175D01*
X95874Y-56274D01*
X95874Y-56824D01*
X95912Y-56916D01*
X95983Y-56986D01*
X96075Y-57024D01*
X96162Y-57025D01*
X96127Y-57039D01*
X96102Y-57132D01*
X96400Y-57429D01*
X96697Y-57132D01*
X96672Y-57039D01*
X96631Y-57025D01*
X96724Y-57025D01*
X96816Y-56987D01*
X96886Y-56916D01*
X96924Y-56824D01*
X96925Y-56725D01*
X96925Y-57486D01*
X96918Y-57367D01*
X96860Y-57227D01*
X96767Y-57202D01*
X96470Y-57500D01*
X96767Y-57797D01*
X96860Y-57772D01*
X96929Y-57575D01*
X96929Y-59075D01*
X96918Y-58867D01*
X96860Y-58727D01*
X96767Y-58702D01*
X96697Y-58773D01*
X96697Y-58632D01*
X96697Y-57867D01*
X96400Y-57570D01*
X96329Y-57641D01*
X96329Y-57500D01*
X96032Y-57202D01*
X95939Y-57227D01*
X95870Y-57424D01*
X95881Y-57632D01*
X95939Y-57772D01*
X96032Y-57797D01*
X96329Y-57500D01*
X96329Y-57641D01*
X96102Y-57867D01*
X96127Y-57960D01*
X96324Y-58029D01*
X96532Y-58018D01*
X96672Y-57960D01*
X96697Y-57867D01*
X96697Y-58632D01*
X96672Y-58539D01*
X96475Y-58470D01*
X96267Y-58481D01*
X96127Y-58539D01*
X96102Y-58632D01*
X96400Y-58929D01*
X96697Y-58632D01*
X96697Y-58773D01*
X96470Y-59000D01*
X96767Y-59297D01*
X96860Y-59272D01*
X96929Y-59075D01*
X96929Y-65100D01*
X96925Y-65100D01*
X96925Y-60225D01*
X96925Y-59675D01*
X96887Y-59583D01*
X96816Y-59513D01*
X96724Y-59475D01*
X96637Y-59474D01*
X96672Y-59460D01*
X96697Y-59367D01*
X96400Y-59070D01*
X96329Y-59141D01*
X96329Y-59000D01*
X96032Y-58702D01*
X95939Y-58727D01*
X95870Y-58924D01*
X95881Y-59132D01*
X95939Y-59272D01*
X96032Y-59297D01*
X96329Y-59000D01*
X96329Y-59141D01*
X96102Y-59367D01*
X96127Y-59460D01*
X96168Y-59474D01*
X96075Y-59474D01*
X95983Y-59512D01*
X95913Y-59583D01*
X95875Y-59675D01*
X95874Y-59774D01*
X95874Y-60324D01*
X95912Y-60416D01*
X95983Y-60486D01*
X96075Y-60524D01*
X96174Y-60525D01*
X96724Y-60525D01*
X96816Y-60487D01*
X96886Y-60416D01*
X96924Y-60324D01*
X96925Y-60225D01*
X96925Y-65100D01*
X86226Y-65100D01*
X86226Y-58125D01*
X86221Y-58036D01*
X86221Y-57275D01*
X86221Y-56725D01*
X86183Y-56633D01*
X86113Y-56562D01*
X86021Y-56524D01*
X85922Y-56524D01*
X85372Y-56524D01*
X85280Y-56562D01*
X85210Y-56632D01*
X85171Y-56724D01*
X85171Y-56824D01*
X85171Y-57374D01*
X85209Y-57466D01*
X85280Y-57536D01*
X85371Y-57574D01*
X85458Y-57574D01*
X85424Y-57589D01*
X85399Y-57681D01*
X85696Y-57978D01*
X85993Y-57681D01*
X85969Y-57589D01*
X85928Y-57574D01*
X86021Y-57574D01*
X86113Y-57536D01*
X86183Y-57466D01*
X86221Y-57374D01*
X86221Y-57275D01*
X86221Y-58036D01*
X86215Y-57916D01*
X86157Y-57776D01*
X86064Y-57752D01*
X85767Y-58049D01*
X86064Y-58346D01*
X86157Y-58322D01*
X86226Y-58125D01*
X86226Y-65100D01*
X86221Y-65100D01*
X86221Y-58945D01*
X86142Y-58752D01*
X85994Y-58604D01*
X85868Y-58552D01*
X85969Y-58510D01*
X85993Y-58417D01*
X85696Y-58120D01*
X85626Y-58191D01*
X85626Y-58049D01*
X85329Y-57752D01*
X85236Y-57776D01*
X85166Y-57973D01*
X85178Y-58182D01*
X85236Y-58322D01*
X85329Y-58346D01*
X85626Y-58049D01*
X85626Y-58191D01*
X85399Y-58417D01*
X85424Y-58510D01*
X85533Y-58548D01*
X85399Y-58604D01*
X85252Y-58751D01*
X85171Y-58944D01*
X85171Y-59153D01*
X85251Y-59346D01*
X85399Y-59494D01*
X85591Y-59574D01*
X85800Y-59574D01*
X85993Y-59494D01*
X86141Y-59347D01*
X86221Y-59154D01*
X86221Y-58945D01*
X86221Y-65100D01*
X81770Y-65100D01*
X81050Y-64379D01*
X81050Y-62629D01*
X78550Y-60129D01*
X78550Y-56420D01*
X80550Y-54420D01*
X80550Y-52670D01*
X82020Y-51200D01*
X106479Y-51200D01*
X110229Y-54950D01*
X113729Y-54950D01*
X114200Y-55420D01*
X114200Y-61129D01*
X114200Y-61129D01*
G37*
G54D16*
X114200Y-61129D02*
X113429Y-61899D01*
X113429Y-59075D01*
X113429Y-57575D01*
X113425Y-57486D01*
X113425Y-56725D01*
X113425Y-56175D01*
X113387Y-56083D01*
X113316Y-56013D01*
X113224Y-55975D01*
X113125Y-55974D01*
X112575Y-55974D01*
X112483Y-56012D01*
X112413Y-56083D01*
X112375Y-56175D01*
X112374Y-56274D01*
X112374Y-56824D01*
X112412Y-56916D01*
X112483Y-56986D01*
X112575Y-57024D01*
X112662Y-57025D01*
X112627Y-57039D01*
X112602Y-57132D01*
X112900Y-57429D01*
X113197Y-57132D01*
X113172Y-57039D01*
X113131Y-57025D01*
X113224Y-57025D01*
X113316Y-56987D01*
X113386Y-56916D01*
X113424Y-56824D01*
X113425Y-56725D01*
X113425Y-57486D01*
X113418Y-57367D01*
X113360Y-57227D01*
X113267Y-57202D01*
X112970Y-57500D01*
X113267Y-57797D01*
X113360Y-57772D01*
X113429Y-57575D01*
X113429Y-59075D01*
X113418Y-58867D01*
X113360Y-58727D01*
X113267Y-58702D01*
X113197Y-58773D01*
X113197Y-58632D01*
X113197Y-57867D01*
X112900Y-57570D01*
X112829Y-57641D01*
X112829Y-57500D01*
X112532Y-57202D01*
X112439Y-57227D01*
X112370Y-57424D01*
X112381Y-57632D01*
X112439Y-57772D01*
X112532Y-57797D01*
X112829Y-57500D01*
X112829Y-57641D01*
X112602Y-57867D01*
X112627Y-57960D01*
X112824Y-58029D01*
X113032Y-58018D01*
X113172Y-57960D01*
X113197Y-57867D01*
X113197Y-58632D01*
X113172Y-58539D01*
X112975Y-58470D01*
X112767Y-58481D01*
X112627Y-58539D01*
X112602Y-58632D01*
X112900Y-58929D01*
X113197Y-58632D01*
X113197Y-58773D01*
X112970Y-59000D01*
X113267Y-59297D01*
X113360Y-59272D01*
X113429Y-59075D01*
X113429Y-61899D01*
X113425Y-61904D01*
X113425Y-60225D01*
X113425Y-59675D01*
X113387Y-59583D01*
X113316Y-59513D01*
X113224Y-59475D01*
X113137Y-59474D01*
X113172Y-59460D01*
X113197Y-59367D01*
X112900Y-59070D01*
X112829Y-59141D01*
X112829Y-59000D01*
X112532Y-58702D01*
X112439Y-58727D01*
X112370Y-58924D01*
X112381Y-59132D01*
X112439Y-59272D01*
X112532Y-59297D01*
X112829Y-59000D01*
X112829Y-59141D01*
X112602Y-59367D01*
X112627Y-59460D01*
X112668Y-59474D01*
X112575Y-59474D01*
X112483Y-59512D01*
X112413Y-59583D01*
X112375Y-59675D01*
X112374Y-59774D01*
X112374Y-60324D01*
X112412Y-60416D01*
X112483Y-60486D01*
X112575Y-60524D01*
X112674Y-60525D01*
X113224Y-60525D01*
X113316Y-60487D01*
X113386Y-60416D01*
X113424Y-60324D01*
X113425Y-60225D01*
X113425Y-61904D01*
X112979Y-62350D01*
X110479Y-62350D01*
X107729Y-65100D01*
X105429Y-65100D01*
X105429Y-59075D01*
X105429Y-57575D01*
X105425Y-57486D01*
X105425Y-56725D01*
X105425Y-56175D01*
X105387Y-56083D01*
X105316Y-56013D01*
X105224Y-55975D01*
X105125Y-55974D01*
X104575Y-55974D01*
X104483Y-56012D01*
X104413Y-56083D01*
X104375Y-56175D01*
X104374Y-56274D01*
X104374Y-56824D01*
X104412Y-56916D01*
X104483Y-56986D01*
X104575Y-57024D01*
X104662Y-57025D01*
X104627Y-57039D01*
X104602Y-57132D01*
X104900Y-57429D01*
X105197Y-57132D01*
X105172Y-57039D01*
X105131Y-57025D01*
X105224Y-57025D01*
X105316Y-56987D01*
X105386Y-56916D01*
X105424Y-56824D01*
X105425Y-56725D01*
X105425Y-57486D01*
X105418Y-57367D01*
X105360Y-57227D01*
X105267Y-57202D01*
X104970Y-57500D01*
X105267Y-57797D01*
X105360Y-57772D01*
X105429Y-57575D01*
X105429Y-59075D01*
X105418Y-58867D01*
X105360Y-58727D01*
X105267Y-58702D01*
X105197Y-58773D01*
X105197Y-58632D01*
X105197Y-57867D01*
X104900Y-57570D01*
X104829Y-57641D01*
X104829Y-57500D01*
X104532Y-57202D01*
X104439Y-57227D01*
X104370Y-57424D01*
X104381Y-57632D01*
X104439Y-57772D01*
X104532Y-57797D01*
X104829Y-57500D01*
X104829Y-57641D01*
X104602Y-57867D01*
X104627Y-57960D01*
X104824Y-58029D01*
X105032Y-58018D01*
X105172Y-57960D01*
X105197Y-57867D01*
X105197Y-58632D01*
X105172Y-58539D01*
X104975Y-58470D01*
X104767Y-58481D01*
X104627Y-58539D01*
X104602Y-58632D01*
X104900Y-58929D01*
X105197Y-58632D01*
X105197Y-58773D01*
X104970Y-59000D01*
X105267Y-59297D01*
X105360Y-59272D01*
X105429Y-59075D01*
X105429Y-65100D01*
X105425Y-65100D01*
X105425Y-60225D01*
X105425Y-59675D01*
X105387Y-59583D01*
X105316Y-59513D01*
X105224Y-59475D01*
X105137Y-59474D01*
X105172Y-59460D01*
X105197Y-59367D01*
X104900Y-59070D01*
X104829Y-59141D01*
X104829Y-59000D01*
X104532Y-58702D01*
X104439Y-58727D01*
X104370Y-58924D01*
X104381Y-59132D01*
X104439Y-59272D01*
X104532Y-59297D01*
X104829Y-59000D01*
X104829Y-59141D01*
X104602Y-59367D01*
X104627Y-59460D01*
X104668Y-59474D01*
X104575Y-59474D01*
X104483Y-59512D01*
X104413Y-59583D01*
X104375Y-59675D01*
X104374Y-59774D01*
X104374Y-60324D01*
X104412Y-60416D01*
X104483Y-60486D01*
X104575Y-60524D01*
X104674Y-60525D01*
X105224Y-60525D01*
X105316Y-60487D01*
X105386Y-60416D01*
X105424Y-60324D01*
X105425Y-60225D01*
X105425Y-65100D01*
X96929Y-65100D01*
X96929Y-59075D01*
X96929Y-57575D01*
X96925Y-57486D01*
X96925Y-56725D01*
X96925Y-56175D01*
X96887Y-56083D01*
X96816Y-56013D01*
X96724Y-55975D01*
X96625Y-55974D01*
X96075Y-55974D01*
X95983Y-56012D01*
X95913Y-56083D01*
X95875Y-56175D01*
X95874Y-56274D01*
X95874Y-56824D01*
X95912Y-56916D01*
X95983Y-56986D01*
X96075Y-57024D01*
X96162Y-57025D01*
X96127Y-57039D01*
X96102Y-57132D01*
X96400Y-57429D01*
X96697Y-57132D01*
X96672Y-57039D01*
X96631Y-57025D01*
X96724Y-57025D01*
X96816Y-56987D01*
X96886Y-56916D01*
X96924Y-56824D01*
X96925Y-56725D01*
X96925Y-57486D01*
X96918Y-57367D01*
X96860Y-57227D01*
X96767Y-57202D01*
X96470Y-57500D01*
X96767Y-57797D01*
X96860Y-57772D01*
X96929Y-57575D01*
X96929Y-59075D01*
X96918Y-58867D01*
X96860Y-58727D01*
X96767Y-58702D01*
X96697Y-58773D01*
X96697Y-58632D01*
X96697Y-57867D01*
X96400Y-57570D01*
X96329Y-57641D01*
X96329Y-57500D01*
X96032Y-57202D01*
X95939Y-57227D01*
X95870Y-57424D01*
X95881Y-57632D01*
X95939Y-57772D01*
X96032Y-57797D01*
X96329Y-57500D01*
X96329Y-57641D01*
X96102Y-57867D01*
X96127Y-57960D01*
X96324Y-58029D01*
X96532Y-58018D01*
X96672Y-57960D01*
X96697Y-57867D01*
X96697Y-58632D01*
X96672Y-58539D01*
X96475Y-58470D01*
X96267Y-58481D01*
X96127Y-58539D01*
X96102Y-58632D01*
X96400Y-58929D01*
X96697Y-58632D01*
X96697Y-58773D01*
X96470Y-59000D01*
X96767Y-59297D01*
X96860Y-59272D01*
X96929Y-59075D01*
X96929Y-65100D01*
X96925Y-65100D01*
X96925Y-60225D01*
X96925Y-59675D01*
X96887Y-59583D01*
X96816Y-59513D01*
X96724Y-59475D01*
X96637Y-59474D01*
X96672Y-59460D01*
X96697Y-59367D01*
X96400Y-59070D01*
X96329Y-59141D01*
X96329Y-59000D01*
X96032Y-58702D01*
X95939Y-58727D01*
X95870Y-58924D01*
X95881Y-59132D01*
X95939Y-59272D01*
X96032Y-59297D01*
X96329Y-59000D01*
X96329Y-59141D01*
X96102Y-59367D01*
X96127Y-59460D01*
X96168Y-59474D01*
X96075Y-59474D01*
X95983Y-59512D01*
X95913Y-59583D01*
X95875Y-59675D01*
X95874Y-59774D01*
X95874Y-60324D01*
X95912Y-60416D01*
X95983Y-60486D01*
X96075Y-60524D01*
X96174Y-60525D01*
X96724Y-60525D01*
X96816Y-60487D01*
X96886Y-60416D01*
X96924Y-60324D01*
X96925Y-60225D01*
X96925Y-65100D01*
X86226Y-65100D01*
X86226Y-58125D01*
X86221Y-58036D01*
X86221Y-57275D01*
X86221Y-56725D01*
X86183Y-56633D01*
X86113Y-56562D01*
X86021Y-56524D01*
X85922Y-56524D01*
X85372Y-56524D01*
X85280Y-56562D01*
X85210Y-56632D01*
X85171Y-56724D01*
X85171Y-56824D01*
X85171Y-57374D01*
X85209Y-57466D01*
X85280Y-57536D01*
X85371Y-57574D01*
X85458Y-57574D01*
X85424Y-57589D01*
X85399Y-57681D01*
X85696Y-57978D01*
X85993Y-57681D01*
X85969Y-57589D01*
X85928Y-57574D01*
X86021Y-57574D01*
X86113Y-57536D01*
X86183Y-57466D01*
X86221Y-57374D01*
X86221Y-57275D01*
X86221Y-58036D01*
X86215Y-57916D01*
X86157Y-57776D01*
X86064Y-57752D01*
X85767Y-58049D01*
X86064Y-58346D01*
X86157Y-58322D01*
X86226Y-58125D01*
X86226Y-65100D01*
X86221Y-65100D01*
X86221Y-58945D01*
X86142Y-58752D01*
X85994Y-58604D01*
X85868Y-58552D01*
X85969Y-58510D01*
X85993Y-58417D01*
X85696Y-58120D01*
X85626Y-58191D01*
X85626Y-58049D01*
X85329Y-57752D01*
X85236Y-57776D01*
X85166Y-57973D01*
X85178Y-58182D01*
X85236Y-58322D01*
X85329Y-58346D01*
X85626Y-58049D01*
X85626Y-58191D01*
X85399Y-58417D01*
X85424Y-58510D01*
X85533Y-58548D01*
X85399Y-58604D01*
X85252Y-58751D01*
X85171Y-58944D01*
X85171Y-59153D01*
X85251Y-59346D01*
X85399Y-59494D01*
X85591Y-59574D01*
X85800Y-59574D01*
X85993Y-59494D01*
X86141Y-59347D01*
X86221Y-59154D01*
X86221Y-58945D01*
X86221Y-65100D01*
X81770Y-65100D01*
X81050Y-64379D01*
X81050Y-62629D01*
X78550Y-60129D01*
X78550Y-56420D01*
X80550Y-54420D01*
X80550Y-52670D01*
X82020Y-51200D01*
X106479Y-51200D01*
X110229Y-54950D01*
X113729Y-54950D01*
X114200Y-55420D01*
X114200Y-61129D01*
M02*
