M48
INCH,TZ
T1C0.025
T2C0.032
T3C0.040
%
G90
G05
T1
X16929Y-53150
X16929Y-54724
T2
X18004Y-47736
X18110Y-51370
X18110Y-52370
X18110Y-53929
X18110Y-54929
X19004Y-47736
X23130Y-49795
X23130Y-50795
X23130Y-55504
X23130Y-56504
X29035Y-56390
X29035Y-57390
X37697Y-52150
X37697Y-53150
X37697Y-54150
X51772Y-50780
X51772Y-51780
X51772Y-55209
X51772Y-56209
X62795Y-50780
X62795Y-51780
X62795Y-55209
X62795Y-56209
X74409Y-50287
X74409Y-51287
X74409Y-56980
X74409Y-57980
T3
X21161Y-54413
X21161Y-55413
X21161Y-56413
X21358Y-49787
X21358Y-50787
X21358Y-51787
T0
M30
