G04 (created by PCBNEW (2013-may-18)-stable) date 2014年01月31日 星期五 10时06分07秒*
%MOIN*%
G04 Gerber Fmt 3.4, Leading zero omitted, Abs format*
%FSLAX34Y34*%
G01*
G70*
G90*
G04 APERTURE LIST*
%ADD10C,0.00590551*%
%ADD11C,0.005*%
%ADD12C,0.012*%
%ADD13C,0.008*%
%ADD14C,0.015*%
%ADD15C,0.0106*%
%ADD16C,0.0107*%
%ADD17C,0.0019685*%
%ADD18C,0.006*%
G04 APERTURE END LIST*
G54D10*
X37618Y-50669D02*
X40925Y-50669D01*
X40925Y-50669D02*
X40925Y-47992D01*
X40925Y-47992D02*
X40295Y-47362D01*
X40295Y-47362D02*
X38248Y-47362D01*
X38248Y-47362D02*
X37618Y-47992D01*
X37618Y-47992D02*
X37618Y-50669D01*
X40846Y-49015D02*
G75*
G03X40846Y-49015I-1574J0D01*
G74*
G01*
X58188Y-59429D02*
X61496Y-59429D01*
X61496Y-59429D02*
X61496Y-56751D01*
X61496Y-56751D02*
X60866Y-56122D01*
X60866Y-56122D02*
X58818Y-56122D01*
X58818Y-56122D02*
X58188Y-56751D01*
X58188Y-56751D02*
X58188Y-59429D01*
X61417Y-57775D02*
G75*
G03X61417Y-57775I-1574J0D01*
G74*
G01*
X24724Y-58444D02*
X28031Y-58444D01*
X28031Y-58444D02*
X28031Y-55767D01*
X28031Y-55767D02*
X27401Y-55137D01*
X27401Y-55137D02*
X25354Y-55137D01*
X25354Y-55137D02*
X24724Y-55767D01*
X24724Y-55767D02*
X24724Y-58444D01*
X27952Y-56791D02*
G75*
G03X27952Y-56791I-1574J0D01*
G74*
G01*
X47066Y-50669D02*
X50374Y-50669D01*
X50374Y-50669D02*
X50374Y-47992D01*
X50374Y-47992D02*
X49744Y-47362D01*
X49744Y-47362D02*
X47696Y-47362D01*
X47696Y-47362D02*
X47066Y-47992D01*
X47066Y-47992D02*
X47066Y-50669D01*
X50295Y-49015D02*
G75*
G03X50295Y-49015I-1574J0D01*
G74*
G01*
X37618Y-59330D02*
X40925Y-59330D01*
X40925Y-59330D02*
X40925Y-56653D01*
X40925Y-56653D02*
X40295Y-56023D01*
X40295Y-56023D02*
X38248Y-56023D01*
X38248Y-56023D02*
X37618Y-56653D01*
X37618Y-56653D02*
X37618Y-59330D01*
X40846Y-57677D02*
G75*
G03X40846Y-57677I-1574J0D01*
G74*
G01*
X58188Y-50669D02*
X61496Y-50669D01*
X61496Y-50669D02*
X61496Y-47992D01*
X61496Y-47992D02*
X60866Y-47362D01*
X60866Y-47362D02*
X58818Y-47362D01*
X58818Y-47362D02*
X58188Y-47992D01*
X58188Y-47992D02*
X58188Y-50669D01*
X61417Y-49015D02*
G75*
G03X61417Y-49015I-1574J0D01*
G74*
G01*
X47066Y-59330D02*
X50374Y-59330D01*
X50374Y-59330D02*
X50374Y-56653D01*
X50374Y-56653D02*
X49744Y-56023D01*
X49744Y-56023D02*
X47696Y-56023D01*
X47696Y-56023D02*
X47066Y-56653D01*
X47066Y-56653D02*
X47066Y-59330D01*
X50295Y-57677D02*
G75*
G03X50295Y-57677I-1574J0D01*
G74*
G01*
X42066Y-47047D02*
X45925Y-47047D01*
X45925Y-47047D02*
X45925Y-50984D01*
X45925Y-50984D02*
X42066Y-50984D01*
X42066Y-50984D02*
X42066Y-47047D01*
X28149Y-47381D02*
X28149Y-51240D01*
X28149Y-51240D02*
X24212Y-51240D01*
X24212Y-51240D02*
X24212Y-47381D01*
X24212Y-47381D02*
X28149Y-47381D01*
X53090Y-55807D02*
X56948Y-55807D01*
X56948Y-55807D02*
X56948Y-59744D01*
X56948Y-59744D02*
X53090Y-59744D01*
X53090Y-59744D02*
X53090Y-55807D01*
X32716Y-51181D02*
X36574Y-51181D01*
X36574Y-51181D02*
X36574Y-55118D01*
X36574Y-55118D02*
X32716Y-55118D01*
X32716Y-55118D02*
X32716Y-51181D01*
X53090Y-47047D02*
X56948Y-47047D01*
X56948Y-47047D02*
X56948Y-50984D01*
X56948Y-50984D02*
X53090Y-50984D01*
X53090Y-50984D02*
X53090Y-47047D01*
X42066Y-55708D02*
X45925Y-55708D01*
X45925Y-55708D02*
X45925Y-59645D01*
X45925Y-59645D02*
X42066Y-59645D01*
X42066Y-59645D02*
X42066Y-55708D01*
G54D11*
X12424Y-55149D02*
X12424Y-51149D01*
X12424Y-51149D02*
X15724Y-51149D01*
X15724Y-51149D02*
X15724Y-55149D01*
X15724Y-55149D02*
X12424Y-55149D01*
X14324Y-51149D02*
X14324Y-51449D01*
X14324Y-51449D02*
X13824Y-51449D01*
X13824Y-51449D02*
X13824Y-51149D01*
G54D12*
X37196Y-51649D02*
X38196Y-51649D01*
X38196Y-51649D02*
X38196Y-54649D01*
X38196Y-54649D02*
X37196Y-54649D01*
X37196Y-54649D02*
X37196Y-51649D01*
X38196Y-52649D02*
X37196Y-52649D01*
X62295Y-50279D02*
X63295Y-50279D01*
X63295Y-50279D02*
X63295Y-52279D01*
X63295Y-52279D02*
X62295Y-52279D01*
X62295Y-52279D02*
X62295Y-50279D01*
X17503Y-48236D02*
X17503Y-47236D01*
X17503Y-47236D02*
X19503Y-47236D01*
X19503Y-47236D02*
X19503Y-48236D01*
X19503Y-48236D02*
X17503Y-48236D01*
X51271Y-50279D02*
X52271Y-50279D01*
X52271Y-50279D02*
X52271Y-52279D01*
X52271Y-52279D02*
X51271Y-52279D01*
X51271Y-52279D02*
X51271Y-50279D01*
X74909Y-58480D02*
X73909Y-58480D01*
X73909Y-58480D02*
X73909Y-56480D01*
X73909Y-56480D02*
X74909Y-56480D01*
X74909Y-56480D02*
X74909Y-58480D01*
X73909Y-49787D02*
X74909Y-49787D01*
X74909Y-49787D02*
X74909Y-51787D01*
X74909Y-51787D02*
X73909Y-51787D01*
X73909Y-51787D02*
X73909Y-49787D01*
X28535Y-55889D02*
X29535Y-55889D01*
X29535Y-55889D02*
X29535Y-57889D01*
X29535Y-57889D02*
X28535Y-57889D01*
X28535Y-57889D02*
X28535Y-55889D01*
X23629Y-51295D02*
X22629Y-51295D01*
X22629Y-51295D02*
X22629Y-49295D01*
X22629Y-49295D02*
X23629Y-49295D01*
X23629Y-49295D02*
X23629Y-51295D01*
X22629Y-55003D02*
X23629Y-55003D01*
X23629Y-55003D02*
X23629Y-57003D01*
X23629Y-57003D02*
X22629Y-57003D01*
X22629Y-57003D02*
X22629Y-55003D01*
X18610Y-52870D02*
X17610Y-52870D01*
X17610Y-52870D02*
X17610Y-50870D01*
X17610Y-50870D02*
X18610Y-50870D01*
X18610Y-50870D02*
X18610Y-52870D01*
X17610Y-53429D02*
X18610Y-53429D01*
X18610Y-53429D02*
X18610Y-55429D01*
X18610Y-55429D02*
X17610Y-55429D01*
X17610Y-55429D02*
X17610Y-53429D01*
X63295Y-56708D02*
X62295Y-56708D01*
X62295Y-56708D02*
X62295Y-54708D01*
X62295Y-54708D02*
X63295Y-54708D01*
X63295Y-54708D02*
X63295Y-56708D01*
X52271Y-56708D02*
X51271Y-56708D01*
X51271Y-56708D02*
X51271Y-54708D01*
X51271Y-54708D02*
X52271Y-54708D01*
X52271Y-54708D02*
X52271Y-56708D01*
G54D10*
X18917Y-52598D02*
X18917Y-52125D01*
X18917Y-52125D02*
X19862Y-52125D01*
X19862Y-52125D02*
X19862Y-52598D01*
X19862Y-52598D02*
X18917Y-52598D01*
X18917Y-54173D02*
X18917Y-53700D01*
X18917Y-53700D02*
X19862Y-53700D01*
X19862Y-53700D02*
X19862Y-54173D01*
X19862Y-54173D02*
X18917Y-54173D01*
G54D13*
X66176Y-57900D02*
X65701Y-58400D01*
X66176Y-58400D02*
X66176Y-57150D01*
X66176Y-57150D02*
X64926Y-57150D01*
X64926Y-57150D02*
X64926Y-58400D01*
X64926Y-58400D02*
X66176Y-58400D01*
X66176Y-49140D02*
X65701Y-49640D01*
X66176Y-49640D02*
X66176Y-48390D01*
X66176Y-48390D02*
X64926Y-48390D01*
X64926Y-48390D02*
X64926Y-49640D01*
X64926Y-49640D02*
X66176Y-49640D01*
G54D14*
X21911Y-53413D02*
X22161Y-53413D01*
X22161Y-53413D02*
X22161Y-57413D01*
X22161Y-57413D02*
X21911Y-57413D01*
X20411Y-53413D02*
X21911Y-53413D01*
X21911Y-53413D02*
X21911Y-57413D01*
X21911Y-57413D02*
X20411Y-57413D01*
X20411Y-57413D02*
X20411Y-53413D01*
X20608Y-52787D02*
X20358Y-52787D01*
X20358Y-52787D02*
X20358Y-48787D01*
X20358Y-48787D02*
X20608Y-48787D01*
X22108Y-52787D02*
X20608Y-52787D01*
X20608Y-52787D02*
X20608Y-48787D01*
X20608Y-48787D02*
X22108Y-48787D01*
X22108Y-48787D02*
X22108Y-52787D01*
G54D10*
X35984Y-57480D02*
X34094Y-57480D01*
X34094Y-57480D02*
X34094Y-55905D01*
X34094Y-55905D02*
X35984Y-55905D01*
X35984Y-55905D02*
X35984Y-57480D01*
X34094Y-49212D02*
X35984Y-49212D01*
X35984Y-49212D02*
X35984Y-50787D01*
X35984Y-50787D02*
X34094Y-50787D01*
X34094Y-50787D02*
X34094Y-49212D01*
X35984Y-59448D02*
X34094Y-59448D01*
X34094Y-59448D02*
X34094Y-57874D01*
X34094Y-57874D02*
X35984Y-57874D01*
X35984Y-57874D02*
X35984Y-59448D01*
X34094Y-47244D02*
X35984Y-47244D01*
X35984Y-47244D02*
X35984Y-48818D01*
X35984Y-48818D02*
X34094Y-48818D01*
X34094Y-48818D02*
X34094Y-47244D01*
X71929Y-50019D02*
X71929Y-51751D01*
X71929Y-51751D02*
X70984Y-51751D01*
X70984Y-51751D02*
X70984Y-50019D01*
X70984Y-50019D02*
X71929Y-50019D01*
X72165Y-58346D02*
X72165Y-56614D01*
X72165Y-56614D02*
X73110Y-56614D01*
X73110Y-56614D02*
X73110Y-58346D01*
X73110Y-58346D02*
X72165Y-58346D01*
X70984Y-58346D02*
X70984Y-56614D01*
X70984Y-56614D02*
X71929Y-56614D01*
X71929Y-56614D02*
X71929Y-58346D01*
X71929Y-58346D02*
X70984Y-58346D01*
X66850Y-59429D02*
X66850Y-57696D01*
X66850Y-57696D02*
X67795Y-57696D01*
X67795Y-57696D02*
X67795Y-59429D01*
X67795Y-59429D02*
X66850Y-59429D01*
X64153Y-58149D02*
X62421Y-58149D01*
X62421Y-58149D02*
X62421Y-57204D01*
X62421Y-57204D02*
X64153Y-57204D01*
X64153Y-57204D02*
X64153Y-58149D01*
X73110Y-50019D02*
X73110Y-51751D01*
X73110Y-51751D02*
X72165Y-51751D01*
X72165Y-51751D02*
X72165Y-50019D01*
X72165Y-50019D02*
X73110Y-50019D01*
X66850Y-50669D02*
X66850Y-48937D01*
X66850Y-48937D02*
X67795Y-48937D01*
X67795Y-48937D02*
X67795Y-50669D01*
X67795Y-50669D02*
X66850Y-50669D01*
X64153Y-49389D02*
X62421Y-49389D01*
X62421Y-49389D02*
X62421Y-48444D01*
X62421Y-48444D02*
X64153Y-48444D01*
X64153Y-48444D02*
X64153Y-49389D01*
X18188Y-50570D02*
X16456Y-50570D01*
X16456Y-50570D02*
X16456Y-49625D01*
X16456Y-49625D02*
X18188Y-49625D01*
X18188Y-49625D02*
X18188Y-50570D01*
X13366Y-55433D02*
X13366Y-57165D01*
X13366Y-57165D02*
X12421Y-57165D01*
X12421Y-57165D02*
X12421Y-55433D01*
X12421Y-55433D02*
X13366Y-55433D01*
X12185Y-55433D02*
X12185Y-57165D01*
X12185Y-57165D02*
X11240Y-57165D01*
X11240Y-57165D02*
X11240Y-55433D01*
X11240Y-55433D02*
X12185Y-55433D01*
X68539Y-59222D02*
X68539Y-56722D01*
X68539Y-56722D02*
X70239Y-56722D01*
X70239Y-56722D02*
X70239Y-59222D01*
X70239Y-59222D02*
X68539Y-59222D01*
X68441Y-50462D02*
X68441Y-47962D01*
X68441Y-47962D02*
X70141Y-47962D01*
X70141Y-47962D02*
X70141Y-50462D01*
X70141Y-50462D02*
X68441Y-50462D01*
X10594Y-52687D02*
X10594Y-55187D01*
X10594Y-55187D02*
X8894Y-55187D01*
X8894Y-55187D02*
X8894Y-52687D01*
X8894Y-52687D02*
X10594Y-52687D01*
X28521Y-51824D02*
X31321Y-51824D01*
X31321Y-51824D02*
X31321Y-54474D01*
X31321Y-54474D02*
X28521Y-54474D01*
X28521Y-54474D02*
X28521Y-51824D01*
X40338Y-49160D02*
X40357Y-49178D01*
X40375Y-49235D01*
X40375Y-49272D01*
X40357Y-49328D01*
X40319Y-49366D01*
X40282Y-49385D01*
X40207Y-49403D01*
X40150Y-49403D01*
X40075Y-49385D01*
X40038Y-49366D01*
X40000Y-49328D01*
X39982Y-49272D01*
X39982Y-49235D01*
X40000Y-49178D01*
X40019Y-49160D01*
X39982Y-48803D02*
X39982Y-48991D01*
X40169Y-49010D01*
X40150Y-48991D01*
X40132Y-48953D01*
X40132Y-48860D01*
X40150Y-48822D01*
X40169Y-48803D01*
X40207Y-48785D01*
X40300Y-48785D01*
X40338Y-48803D01*
X40357Y-48822D01*
X40375Y-48860D01*
X40375Y-48953D01*
X40357Y-48991D01*
X40338Y-49010D01*
X37445Y-46970D02*
X37689Y-46970D01*
X37558Y-47120D01*
X37614Y-47120D01*
X37651Y-47139D01*
X37670Y-47157D01*
X37689Y-47195D01*
X37689Y-47289D01*
X37670Y-47326D01*
X37651Y-47345D01*
X37614Y-47364D01*
X37501Y-47364D01*
X37464Y-47345D01*
X37445Y-47326D01*
X37820Y-46970D02*
X38064Y-46970D01*
X37933Y-47120D01*
X37989Y-47120D01*
X38026Y-47139D01*
X38045Y-47157D01*
X38064Y-47195D01*
X38064Y-47289D01*
X38045Y-47326D01*
X38026Y-47345D01*
X37989Y-47364D01*
X37876Y-47364D01*
X37839Y-47345D01*
X37820Y-47326D01*
X38308Y-46970D02*
X38345Y-46970D01*
X38383Y-46989D01*
X38401Y-47007D01*
X38420Y-47045D01*
X38439Y-47120D01*
X38439Y-47214D01*
X38420Y-47289D01*
X38401Y-47326D01*
X38383Y-47345D01*
X38345Y-47364D01*
X38308Y-47364D01*
X38270Y-47345D01*
X38251Y-47326D01*
X38233Y-47289D01*
X38214Y-47214D01*
X38214Y-47120D01*
X38233Y-47045D01*
X38251Y-47007D01*
X38270Y-46989D01*
X38308Y-46970D01*
X38776Y-47101D02*
X38776Y-47364D01*
X38607Y-47101D02*
X38607Y-47307D01*
X38626Y-47345D01*
X38664Y-47364D01*
X38720Y-47364D01*
X38757Y-47345D01*
X38776Y-47326D01*
X60909Y-58107D02*
X60928Y-58126D01*
X60946Y-58182D01*
X60946Y-58219D01*
X60928Y-58276D01*
X60890Y-58313D01*
X60853Y-58332D01*
X60778Y-58351D01*
X60721Y-58351D01*
X60646Y-58332D01*
X60609Y-58313D01*
X60571Y-58276D01*
X60553Y-58219D01*
X60553Y-58182D01*
X60571Y-58126D01*
X60590Y-58107D01*
X60946Y-57732D02*
X60946Y-57957D01*
X60946Y-57844D02*
X60553Y-57844D01*
X60609Y-57882D01*
X60646Y-57919D01*
X60665Y-57957D01*
X60553Y-57488D02*
X60553Y-57451D01*
X60571Y-57413D01*
X60590Y-57395D01*
X60628Y-57376D01*
X60703Y-57357D01*
X60796Y-57357D01*
X60871Y-57376D01*
X60909Y-57395D01*
X60928Y-57413D01*
X60946Y-57451D01*
X60946Y-57488D01*
X60928Y-57526D01*
X60909Y-57544D01*
X60871Y-57563D01*
X60796Y-57582D01*
X60703Y-57582D01*
X60628Y-57563D01*
X60590Y-57544D01*
X60571Y-57526D01*
X60553Y-57488D01*
X58016Y-55730D02*
X58260Y-55730D01*
X58128Y-55880D01*
X58185Y-55880D01*
X58222Y-55898D01*
X58241Y-55917D01*
X58260Y-55955D01*
X58260Y-56048D01*
X58241Y-56086D01*
X58222Y-56105D01*
X58185Y-56123D01*
X58072Y-56123D01*
X58035Y-56105D01*
X58016Y-56086D01*
X58391Y-55730D02*
X58635Y-55730D01*
X58503Y-55880D01*
X58560Y-55880D01*
X58597Y-55898D01*
X58616Y-55917D01*
X58635Y-55955D01*
X58635Y-56048D01*
X58616Y-56086D01*
X58597Y-56105D01*
X58560Y-56123D01*
X58447Y-56123D01*
X58410Y-56105D01*
X58391Y-56086D01*
X58878Y-55730D02*
X58916Y-55730D01*
X58953Y-55748D01*
X58972Y-55767D01*
X58991Y-55805D01*
X59010Y-55880D01*
X59010Y-55973D01*
X58991Y-56048D01*
X58972Y-56086D01*
X58953Y-56105D01*
X58916Y-56123D01*
X58878Y-56123D01*
X58841Y-56105D01*
X58822Y-56086D01*
X58803Y-56048D01*
X58785Y-55973D01*
X58785Y-55880D01*
X58803Y-55805D01*
X58822Y-55767D01*
X58841Y-55748D01*
X58878Y-55730D01*
X59347Y-55861D02*
X59347Y-56123D01*
X59178Y-55861D02*
X59178Y-56067D01*
X59197Y-56105D01*
X59235Y-56123D01*
X59291Y-56123D01*
X59328Y-56105D01*
X59347Y-56086D01*
X27444Y-56935D02*
X27463Y-56954D01*
X27482Y-57010D01*
X27482Y-57048D01*
X27463Y-57104D01*
X27425Y-57141D01*
X27388Y-57160D01*
X27313Y-57179D01*
X27257Y-57179D01*
X27182Y-57160D01*
X27144Y-57141D01*
X27107Y-57104D01*
X27088Y-57048D01*
X27088Y-57010D01*
X27107Y-56954D01*
X27125Y-56935D01*
X27219Y-56598D02*
X27482Y-56598D01*
X27069Y-56691D02*
X27350Y-56785D01*
X27350Y-56541D01*
X24551Y-54745D02*
X24795Y-54745D01*
X24664Y-54895D01*
X24720Y-54895D01*
X24758Y-54914D01*
X24776Y-54933D01*
X24795Y-54970D01*
X24795Y-55064D01*
X24776Y-55102D01*
X24758Y-55120D01*
X24720Y-55139D01*
X24608Y-55139D01*
X24570Y-55120D01*
X24551Y-55102D01*
X24926Y-54745D02*
X25170Y-54745D01*
X25039Y-54895D01*
X25095Y-54895D01*
X25133Y-54914D01*
X25151Y-54933D01*
X25170Y-54970D01*
X25170Y-55064D01*
X25151Y-55102D01*
X25133Y-55120D01*
X25095Y-55139D01*
X24983Y-55139D01*
X24945Y-55120D01*
X24926Y-55102D01*
X25414Y-54745D02*
X25451Y-54745D01*
X25489Y-54764D01*
X25508Y-54783D01*
X25526Y-54820D01*
X25545Y-54895D01*
X25545Y-54989D01*
X25526Y-55064D01*
X25508Y-55102D01*
X25489Y-55120D01*
X25451Y-55139D01*
X25414Y-55139D01*
X25376Y-55120D01*
X25358Y-55102D01*
X25339Y-55064D01*
X25320Y-54989D01*
X25320Y-54895D01*
X25339Y-54820D01*
X25358Y-54783D01*
X25376Y-54764D01*
X25414Y-54745D01*
X25883Y-54877D02*
X25883Y-55139D01*
X25714Y-54877D02*
X25714Y-55083D01*
X25733Y-55120D01*
X25770Y-55139D01*
X25826Y-55139D01*
X25864Y-55120D01*
X25883Y-55102D01*
X49787Y-49160D02*
X49805Y-49178D01*
X49824Y-49235D01*
X49824Y-49272D01*
X49805Y-49328D01*
X49768Y-49366D01*
X49730Y-49385D01*
X49655Y-49403D01*
X49599Y-49403D01*
X49524Y-49385D01*
X49487Y-49366D01*
X49449Y-49328D01*
X49431Y-49272D01*
X49431Y-49235D01*
X49449Y-49178D01*
X49468Y-49160D01*
X49431Y-49028D02*
X49431Y-48766D01*
X49824Y-48935D01*
X46894Y-46970D02*
X47138Y-46970D01*
X47006Y-47120D01*
X47063Y-47120D01*
X47100Y-47139D01*
X47119Y-47157D01*
X47138Y-47195D01*
X47138Y-47289D01*
X47119Y-47326D01*
X47100Y-47345D01*
X47063Y-47364D01*
X46950Y-47364D01*
X46913Y-47345D01*
X46894Y-47326D01*
X47269Y-46970D02*
X47513Y-46970D01*
X47381Y-47120D01*
X47438Y-47120D01*
X47475Y-47139D01*
X47494Y-47157D01*
X47513Y-47195D01*
X47513Y-47289D01*
X47494Y-47326D01*
X47475Y-47345D01*
X47438Y-47364D01*
X47325Y-47364D01*
X47288Y-47345D01*
X47269Y-47326D01*
X47756Y-46970D02*
X47794Y-46970D01*
X47831Y-46989D01*
X47850Y-47007D01*
X47869Y-47045D01*
X47888Y-47120D01*
X47888Y-47214D01*
X47869Y-47289D01*
X47850Y-47326D01*
X47831Y-47345D01*
X47794Y-47364D01*
X47756Y-47364D01*
X47719Y-47345D01*
X47700Y-47326D01*
X47681Y-47289D01*
X47663Y-47214D01*
X47663Y-47120D01*
X47681Y-47045D01*
X47700Y-47007D01*
X47719Y-46989D01*
X47756Y-46970D01*
X48225Y-47101D02*
X48225Y-47364D01*
X48056Y-47101D02*
X48056Y-47307D01*
X48075Y-47345D01*
X48113Y-47364D01*
X48169Y-47364D01*
X48206Y-47345D01*
X48225Y-47326D01*
X40338Y-57821D02*
X40357Y-57840D01*
X40375Y-57896D01*
X40375Y-57934D01*
X40357Y-57990D01*
X40319Y-58027D01*
X40282Y-58046D01*
X40207Y-58065D01*
X40150Y-58065D01*
X40075Y-58046D01*
X40038Y-58027D01*
X40000Y-57990D01*
X39982Y-57934D01*
X39982Y-57896D01*
X40000Y-57840D01*
X40019Y-57821D01*
X39982Y-57484D02*
X39982Y-57559D01*
X40000Y-57596D01*
X40019Y-57615D01*
X40075Y-57652D01*
X40150Y-57671D01*
X40300Y-57671D01*
X40338Y-57652D01*
X40357Y-57634D01*
X40375Y-57596D01*
X40375Y-57521D01*
X40357Y-57484D01*
X40338Y-57465D01*
X40300Y-57446D01*
X40207Y-57446D01*
X40169Y-57465D01*
X40150Y-57484D01*
X40132Y-57521D01*
X40132Y-57596D01*
X40150Y-57634D01*
X40169Y-57652D01*
X40207Y-57671D01*
X37445Y-55631D02*
X37689Y-55631D01*
X37558Y-55781D01*
X37614Y-55781D01*
X37651Y-55800D01*
X37670Y-55819D01*
X37689Y-55856D01*
X37689Y-55950D01*
X37670Y-55988D01*
X37651Y-56006D01*
X37614Y-56025D01*
X37501Y-56025D01*
X37464Y-56006D01*
X37445Y-55988D01*
X37820Y-55631D02*
X38064Y-55631D01*
X37933Y-55781D01*
X37989Y-55781D01*
X38026Y-55800D01*
X38045Y-55819D01*
X38064Y-55856D01*
X38064Y-55950D01*
X38045Y-55988D01*
X38026Y-56006D01*
X37989Y-56025D01*
X37876Y-56025D01*
X37839Y-56006D01*
X37820Y-55988D01*
X38308Y-55631D02*
X38345Y-55631D01*
X38383Y-55650D01*
X38401Y-55669D01*
X38420Y-55706D01*
X38439Y-55781D01*
X38439Y-55875D01*
X38420Y-55950D01*
X38401Y-55988D01*
X38383Y-56006D01*
X38345Y-56025D01*
X38308Y-56025D01*
X38270Y-56006D01*
X38251Y-55988D01*
X38233Y-55950D01*
X38214Y-55875D01*
X38214Y-55781D01*
X38233Y-55706D01*
X38251Y-55669D01*
X38270Y-55650D01*
X38308Y-55631D01*
X38776Y-55763D02*
X38776Y-56025D01*
X38607Y-55763D02*
X38607Y-55969D01*
X38626Y-56006D01*
X38664Y-56025D01*
X38720Y-56025D01*
X38757Y-56006D01*
X38776Y-55988D01*
X60909Y-49160D02*
X60928Y-49178D01*
X60946Y-49235D01*
X60946Y-49272D01*
X60928Y-49328D01*
X60890Y-49366D01*
X60853Y-49385D01*
X60778Y-49403D01*
X60721Y-49403D01*
X60646Y-49385D01*
X60609Y-49366D01*
X60571Y-49328D01*
X60553Y-49272D01*
X60553Y-49235D01*
X60571Y-49178D01*
X60590Y-49160D01*
X60946Y-48972D02*
X60946Y-48897D01*
X60928Y-48860D01*
X60909Y-48841D01*
X60853Y-48803D01*
X60778Y-48785D01*
X60628Y-48785D01*
X60590Y-48803D01*
X60571Y-48822D01*
X60553Y-48860D01*
X60553Y-48935D01*
X60571Y-48972D01*
X60590Y-48991D01*
X60628Y-49010D01*
X60721Y-49010D01*
X60759Y-48991D01*
X60778Y-48972D01*
X60796Y-48935D01*
X60796Y-48860D01*
X60778Y-48822D01*
X60759Y-48803D01*
X60721Y-48785D01*
X58016Y-46970D02*
X58260Y-46970D01*
X58128Y-47120D01*
X58185Y-47120D01*
X58222Y-47139D01*
X58241Y-47157D01*
X58260Y-47195D01*
X58260Y-47289D01*
X58241Y-47326D01*
X58222Y-47345D01*
X58185Y-47364D01*
X58072Y-47364D01*
X58035Y-47345D01*
X58016Y-47326D01*
X58391Y-46970D02*
X58635Y-46970D01*
X58503Y-47120D01*
X58560Y-47120D01*
X58597Y-47139D01*
X58616Y-47157D01*
X58635Y-47195D01*
X58635Y-47289D01*
X58616Y-47326D01*
X58597Y-47345D01*
X58560Y-47364D01*
X58447Y-47364D01*
X58410Y-47345D01*
X58391Y-47326D01*
X58878Y-46970D02*
X58916Y-46970D01*
X58953Y-46989D01*
X58972Y-47007D01*
X58991Y-47045D01*
X59010Y-47120D01*
X59010Y-47214D01*
X58991Y-47289D01*
X58972Y-47326D01*
X58953Y-47345D01*
X58916Y-47364D01*
X58878Y-47364D01*
X58841Y-47345D01*
X58822Y-47326D01*
X58803Y-47289D01*
X58785Y-47214D01*
X58785Y-47120D01*
X58803Y-47045D01*
X58822Y-47007D01*
X58841Y-46989D01*
X58878Y-46970D01*
X59347Y-47101D02*
X59347Y-47364D01*
X59178Y-47101D02*
X59178Y-47307D01*
X59197Y-47345D01*
X59235Y-47364D01*
X59291Y-47364D01*
X59328Y-47345D01*
X59347Y-47326D01*
X49787Y-57821D02*
X49805Y-57840D01*
X49824Y-57896D01*
X49824Y-57934D01*
X49805Y-57990D01*
X49768Y-58027D01*
X49730Y-58046D01*
X49655Y-58065D01*
X49599Y-58065D01*
X49524Y-58046D01*
X49487Y-58027D01*
X49449Y-57990D01*
X49431Y-57934D01*
X49431Y-57896D01*
X49449Y-57840D01*
X49468Y-57821D01*
X49599Y-57596D02*
X49580Y-57634D01*
X49562Y-57652D01*
X49524Y-57671D01*
X49505Y-57671D01*
X49468Y-57652D01*
X49449Y-57634D01*
X49431Y-57596D01*
X49431Y-57521D01*
X49449Y-57484D01*
X49468Y-57465D01*
X49505Y-57446D01*
X49524Y-57446D01*
X49562Y-57465D01*
X49580Y-57484D01*
X49599Y-57521D01*
X49599Y-57596D01*
X49618Y-57634D01*
X49637Y-57652D01*
X49674Y-57671D01*
X49749Y-57671D01*
X49787Y-57652D01*
X49805Y-57634D01*
X49824Y-57596D01*
X49824Y-57521D01*
X49805Y-57484D01*
X49787Y-57465D01*
X49749Y-57446D01*
X49674Y-57446D01*
X49637Y-57465D01*
X49618Y-57484D01*
X49599Y-57521D01*
X46894Y-55631D02*
X47138Y-55631D01*
X47006Y-55781D01*
X47063Y-55781D01*
X47100Y-55800D01*
X47119Y-55819D01*
X47138Y-55856D01*
X47138Y-55950D01*
X47119Y-55988D01*
X47100Y-56006D01*
X47063Y-56025D01*
X46950Y-56025D01*
X46913Y-56006D01*
X46894Y-55988D01*
X47269Y-55631D02*
X47513Y-55631D01*
X47381Y-55781D01*
X47438Y-55781D01*
X47475Y-55800D01*
X47494Y-55819D01*
X47513Y-55856D01*
X47513Y-55950D01*
X47494Y-55988D01*
X47475Y-56006D01*
X47438Y-56025D01*
X47325Y-56025D01*
X47288Y-56006D01*
X47269Y-55988D01*
X47756Y-55631D02*
X47794Y-55631D01*
X47831Y-55650D01*
X47850Y-55669D01*
X47869Y-55706D01*
X47888Y-55781D01*
X47888Y-55875D01*
X47869Y-55950D01*
X47850Y-55988D01*
X47831Y-56006D01*
X47794Y-56025D01*
X47756Y-56025D01*
X47719Y-56006D01*
X47700Y-55988D01*
X47681Y-55950D01*
X47663Y-55875D01*
X47663Y-55781D01*
X47681Y-55706D01*
X47700Y-55669D01*
X47719Y-55650D01*
X47756Y-55631D01*
X48225Y-55763D02*
X48225Y-56025D01*
X48056Y-55763D02*
X48056Y-55969D01*
X48075Y-56006D01*
X48113Y-56025D01*
X48169Y-56025D01*
X48206Y-56006D01*
X48225Y-55988D01*
X44155Y-49120D02*
X44155Y-49308D01*
X43761Y-49308D01*
X43761Y-49026D02*
X43761Y-48783D01*
X43911Y-48914D01*
X43911Y-48858D01*
X43930Y-48820D01*
X43949Y-48802D01*
X43986Y-48783D01*
X44080Y-48783D01*
X44117Y-48802D01*
X44136Y-48820D01*
X44155Y-48858D01*
X44155Y-48970D01*
X44136Y-49008D01*
X44117Y-49026D01*
X44550Y-46614D02*
X44569Y-46595D01*
X44607Y-46576D01*
X44700Y-46576D01*
X44738Y-46595D01*
X44757Y-46614D01*
X44775Y-46651D01*
X44775Y-46689D01*
X44757Y-46745D01*
X44532Y-46970D01*
X44775Y-46970D01*
X44925Y-46614D02*
X44944Y-46595D01*
X44982Y-46576D01*
X45075Y-46576D01*
X45113Y-46595D01*
X45132Y-46614D01*
X45150Y-46651D01*
X45150Y-46689D01*
X45132Y-46745D01*
X44907Y-46970D01*
X45150Y-46970D01*
X45394Y-46576D02*
X45432Y-46576D01*
X45469Y-46595D01*
X45488Y-46614D01*
X45507Y-46651D01*
X45525Y-46726D01*
X45525Y-46820D01*
X45507Y-46895D01*
X45488Y-46932D01*
X45469Y-46951D01*
X45432Y-46970D01*
X45394Y-46970D01*
X45357Y-46951D01*
X45338Y-46932D01*
X45319Y-46895D01*
X45300Y-46820D01*
X45300Y-46726D01*
X45319Y-46651D01*
X45338Y-46614D01*
X45357Y-46595D01*
X45394Y-46576D01*
X45863Y-46707D02*
X45863Y-46970D01*
X45694Y-46707D02*
X45694Y-46914D01*
X45713Y-46951D01*
X45750Y-46970D01*
X45807Y-46970D01*
X45844Y-46951D01*
X45863Y-46932D01*
X26076Y-49470D02*
X25888Y-49470D01*
X25888Y-49076D01*
X26413Y-49470D02*
X26188Y-49470D01*
X26301Y-49470D02*
X26301Y-49076D01*
X26263Y-49132D01*
X26226Y-49170D01*
X26188Y-49189D01*
X28188Y-51197D02*
X28170Y-51178D01*
X28151Y-51140D01*
X28151Y-51047D01*
X28170Y-51009D01*
X28188Y-50990D01*
X28226Y-50972D01*
X28263Y-50972D01*
X28320Y-50990D01*
X28545Y-51215D01*
X28545Y-50972D01*
X28188Y-50822D02*
X28170Y-50803D01*
X28151Y-50765D01*
X28151Y-50672D01*
X28170Y-50634D01*
X28188Y-50615D01*
X28226Y-50597D01*
X28263Y-50597D01*
X28320Y-50615D01*
X28545Y-50840D01*
X28545Y-50597D01*
X28151Y-50353D02*
X28151Y-50315D01*
X28170Y-50278D01*
X28188Y-50259D01*
X28226Y-50240D01*
X28301Y-50222D01*
X28395Y-50222D01*
X28470Y-50240D01*
X28507Y-50259D01*
X28526Y-50278D01*
X28545Y-50315D01*
X28545Y-50353D01*
X28526Y-50390D01*
X28507Y-50409D01*
X28470Y-50428D01*
X28395Y-50447D01*
X28301Y-50447D01*
X28226Y-50428D01*
X28188Y-50409D01*
X28170Y-50390D01*
X28151Y-50353D01*
X28282Y-49884D02*
X28545Y-49884D01*
X28282Y-50053D02*
X28488Y-50053D01*
X28526Y-50034D01*
X28545Y-49997D01*
X28545Y-49940D01*
X28526Y-49903D01*
X28507Y-49884D01*
X55179Y-57880D02*
X55179Y-58068D01*
X54785Y-58068D01*
X54785Y-57580D02*
X54785Y-57655D01*
X54804Y-57693D01*
X54822Y-57711D01*
X54879Y-57749D01*
X54954Y-57768D01*
X55104Y-57768D01*
X55141Y-57749D01*
X55160Y-57730D01*
X55179Y-57693D01*
X55179Y-57618D01*
X55160Y-57580D01*
X55141Y-57561D01*
X55104Y-57543D01*
X55010Y-57543D01*
X54972Y-57561D01*
X54954Y-57580D01*
X54935Y-57618D01*
X54935Y-57693D01*
X54954Y-57730D01*
X54972Y-57749D01*
X55010Y-57768D01*
X55574Y-55374D02*
X55593Y-55355D01*
X55630Y-55336D01*
X55724Y-55336D01*
X55762Y-55355D01*
X55780Y-55374D01*
X55799Y-55411D01*
X55799Y-55449D01*
X55780Y-55505D01*
X55555Y-55730D01*
X55799Y-55730D01*
X55949Y-55374D02*
X55968Y-55355D01*
X56005Y-55336D01*
X56099Y-55336D01*
X56137Y-55355D01*
X56155Y-55374D01*
X56174Y-55411D01*
X56174Y-55449D01*
X56155Y-55505D01*
X55930Y-55730D01*
X56174Y-55730D01*
X56418Y-55336D02*
X56455Y-55336D01*
X56493Y-55355D01*
X56511Y-55374D01*
X56530Y-55411D01*
X56549Y-55486D01*
X56549Y-55580D01*
X56530Y-55655D01*
X56511Y-55692D01*
X56493Y-55711D01*
X56455Y-55730D01*
X56418Y-55730D01*
X56380Y-55711D01*
X56362Y-55692D01*
X56343Y-55655D01*
X56324Y-55580D01*
X56324Y-55486D01*
X56343Y-55411D01*
X56362Y-55374D01*
X56380Y-55355D01*
X56418Y-55336D01*
X56886Y-55467D02*
X56886Y-55730D01*
X56718Y-55467D02*
X56718Y-55673D01*
X56736Y-55711D01*
X56774Y-55730D01*
X56830Y-55730D01*
X56868Y-55711D01*
X56886Y-55692D01*
X34805Y-53254D02*
X34805Y-53442D01*
X34411Y-53442D01*
X34448Y-53142D02*
X34430Y-53123D01*
X34411Y-53085D01*
X34411Y-52992D01*
X34430Y-52954D01*
X34448Y-52935D01*
X34486Y-52917D01*
X34523Y-52917D01*
X34580Y-52935D01*
X34805Y-53160D01*
X34805Y-52917D01*
X35200Y-50748D02*
X35219Y-50729D01*
X35256Y-50710D01*
X35350Y-50710D01*
X35388Y-50729D01*
X35406Y-50748D01*
X35425Y-50785D01*
X35425Y-50823D01*
X35406Y-50879D01*
X35181Y-51104D01*
X35425Y-51104D01*
X35575Y-50748D02*
X35594Y-50729D01*
X35631Y-50710D01*
X35725Y-50710D01*
X35763Y-50729D01*
X35781Y-50748D01*
X35800Y-50785D01*
X35800Y-50823D01*
X35781Y-50879D01*
X35556Y-51104D01*
X35800Y-51104D01*
X36044Y-50710D02*
X36081Y-50710D01*
X36119Y-50729D01*
X36137Y-50748D01*
X36156Y-50785D01*
X36175Y-50860D01*
X36175Y-50954D01*
X36156Y-51029D01*
X36137Y-51066D01*
X36119Y-51085D01*
X36081Y-51104D01*
X36044Y-51104D01*
X36006Y-51085D01*
X35988Y-51066D01*
X35969Y-51029D01*
X35950Y-50954D01*
X35950Y-50860D01*
X35969Y-50785D01*
X35988Y-50748D01*
X36006Y-50729D01*
X36044Y-50710D01*
X36512Y-50841D02*
X36512Y-51104D01*
X36344Y-50841D02*
X36344Y-51047D01*
X36362Y-51085D01*
X36400Y-51104D01*
X36456Y-51104D01*
X36494Y-51085D01*
X36512Y-51066D01*
X55179Y-49120D02*
X55179Y-49308D01*
X54785Y-49308D01*
X54785Y-48802D02*
X54785Y-48989D01*
X54972Y-49008D01*
X54954Y-48989D01*
X54935Y-48952D01*
X54935Y-48858D01*
X54954Y-48820D01*
X54972Y-48802D01*
X55010Y-48783D01*
X55104Y-48783D01*
X55141Y-48802D01*
X55160Y-48820D01*
X55179Y-48858D01*
X55179Y-48952D01*
X55160Y-48989D01*
X55141Y-49008D01*
X55574Y-46614D02*
X55593Y-46595D01*
X55630Y-46576D01*
X55724Y-46576D01*
X55762Y-46595D01*
X55780Y-46614D01*
X55799Y-46651D01*
X55799Y-46689D01*
X55780Y-46745D01*
X55555Y-46970D01*
X55799Y-46970D01*
X55949Y-46614D02*
X55968Y-46595D01*
X56005Y-46576D01*
X56099Y-46576D01*
X56137Y-46595D01*
X56155Y-46614D01*
X56174Y-46651D01*
X56174Y-46689D01*
X56155Y-46745D01*
X55930Y-46970D01*
X56174Y-46970D01*
X56418Y-46576D02*
X56455Y-46576D01*
X56493Y-46595D01*
X56511Y-46614D01*
X56530Y-46651D01*
X56549Y-46726D01*
X56549Y-46820D01*
X56530Y-46895D01*
X56511Y-46932D01*
X56493Y-46951D01*
X56455Y-46970D01*
X56418Y-46970D01*
X56380Y-46951D01*
X56362Y-46932D01*
X56343Y-46895D01*
X56324Y-46820D01*
X56324Y-46726D01*
X56343Y-46651D01*
X56362Y-46614D01*
X56380Y-46595D01*
X56418Y-46576D01*
X56886Y-46707D02*
X56886Y-46970D01*
X56718Y-46707D02*
X56718Y-46914D01*
X56736Y-46951D01*
X56774Y-46970D01*
X56830Y-46970D01*
X56868Y-46951D01*
X56886Y-46932D01*
X44155Y-57782D02*
X44155Y-57969D01*
X43761Y-57969D01*
X43892Y-57482D02*
X44155Y-57482D01*
X43742Y-57575D02*
X44024Y-57669D01*
X44024Y-57425D01*
X44550Y-55275D02*
X44569Y-55256D01*
X44607Y-55238D01*
X44700Y-55238D01*
X44738Y-55256D01*
X44757Y-55275D01*
X44775Y-55313D01*
X44775Y-55350D01*
X44757Y-55406D01*
X44532Y-55631D01*
X44775Y-55631D01*
X44925Y-55275D02*
X44944Y-55256D01*
X44982Y-55238D01*
X45075Y-55238D01*
X45113Y-55256D01*
X45132Y-55275D01*
X45150Y-55313D01*
X45150Y-55350D01*
X45132Y-55406D01*
X44907Y-55631D01*
X45150Y-55631D01*
X45394Y-55238D02*
X45432Y-55238D01*
X45469Y-55256D01*
X45488Y-55275D01*
X45507Y-55313D01*
X45525Y-55388D01*
X45525Y-55481D01*
X45507Y-55556D01*
X45488Y-55594D01*
X45469Y-55613D01*
X45432Y-55631D01*
X45394Y-55631D01*
X45357Y-55613D01*
X45338Y-55594D01*
X45319Y-55556D01*
X45300Y-55481D01*
X45300Y-55388D01*
X45319Y-55313D01*
X45338Y-55275D01*
X45357Y-55256D01*
X45394Y-55238D01*
X45863Y-55369D02*
X45863Y-55631D01*
X45694Y-55369D02*
X45694Y-55575D01*
X45713Y-55613D01*
X45750Y-55631D01*
X45807Y-55631D01*
X45844Y-55613D01*
X45863Y-55594D01*
G54D13*
X13206Y-53492D02*
X13571Y-53492D01*
X13614Y-53471D01*
X13635Y-53449D01*
X13656Y-53406D01*
X13656Y-53321D01*
X13635Y-53278D01*
X13614Y-53256D01*
X13571Y-53235D01*
X13206Y-53235D01*
X13656Y-52785D02*
X13656Y-53042D01*
X13656Y-52913D02*
X13206Y-52913D01*
X13271Y-52956D01*
X13314Y-52999D01*
X13335Y-53042D01*
G54D15*
X38982Y-53462D02*
X38277Y-53462D01*
X38982Y-53220D02*
X38579Y-53401D01*
X38277Y-53220D02*
X38680Y-53462D01*
X38982Y-52816D02*
X38982Y-53058D01*
X38982Y-52937D02*
X38277Y-52937D01*
X38377Y-52977D01*
X38445Y-53018D01*
X38478Y-53058D01*
G54D12*
G54D16*
X64070Y-51595D02*
X63389Y-51595D01*
X63389Y-51432D01*
X63422Y-51391D01*
X63454Y-51371D01*
X63519Y-51350D01*
X63616Y-51350D01*
X63681Y-51371D01*
X63714Y-51391D01*
X63746Y-51432D01*
X63746Y-51595D01*
X63681Y-51106D02*
X63649Y-51147D01*
X63616Y-51167D01*
X63552Y-51187D01*
X63519Y-51187D01*
X63454Y-51167D01*
X63422Y-51147D01*
X63389Y-51106D01*
X63389Y-51024D01*
X63422Y-50984D01*
X63454Y-50963D01*
X63519Y-50943D01*
X63552Y-50943D01*
X63616Y-50963D01*
X63649Y-50984D01*
X63681Y-51024D01*
X63681Y-51106D01*
X63714Y-51147D01*
X63746Y-51167D01*
X63811Y-51187D01*
X63941Y-51187D01*
X64006Y-51167D01*
X64038Y-51147D01*
X64070Y-51106D01*
X64070Y-51024D01*
X64038Y-50984D01*
X64006Y-50963D01*
X63941Y-50943D01*
X63811Y-50943D01*
X63746Y-50963D01*
X63714Y-50984D01*
X63681Y-51024D01*
G54D12*
G54D16*
X17984Y-47011D02*
X17984Y-46330D01*
X18147Y-46330D01*
X18188Y-46363D01*
X18208Y-46395D01*
X18228Y-46460D01*
X18228Y-46557D01*
X18208Y-46622D01*
X18188Y-46655D01*
X18147Y-46687D01*
X17984Y-46687D01*
X18636Y-47011D02*
X18391Y-47011D01*
X18514Y-47011D02*
X18514Y-46330D01*
X18473Y-46428D01*
X18432Y-46493D01*
X18391Y-46525D01*
X18901Y-46330D02*
X18942Y-46330D01*
X18982Y-46363D01*
X19003Y-46395D01*
X19023Y-46460D01*
X19044Y-46590D01*
X19044Y-46752D01*
X19023Y-46882D01*
X19003Y-46947D01*
X18982Y-46979D01*
X18942Y-47011D01*
X18901Y-47011D01*
X18860Y-46979D01*
X18840Y-46947D01*
X18819Y-46882D01*
X18799Y-46752D01*
X18799Y-46590D01*
X18819Y-46460D01*
X18840Y-46395D01*
X18860Y-46363D01*
X18901Y-46330D01*
G54D12*
G54D16*
X53047Y-51595D02*
X52366Y-51595D01*
X52366Y-51432D01*
X52398Y-51391D01*
X52431Y-51371D01*
X52496Y-51350D01*
X52593Y-51350D01*
X52658Y-51371D01*
X52690Y-51391D01*
X52723Y-51432D01*
X52723Y-51595D01*
X52366Y-50984D02*
X52366Y-51065D01*
X52398Y-51106D01*
X52431Y-51126D01*
X52528Y-51167D01*
X52658Y-51187D01*
X52917Y-51187D01*
X52982Y-51167D01*
X53014Y-51147D01*
X53047Y-51106D01*
X53047Y-51024D01*
X53014Y-50984D01*
X52982Y-50963D01*
X52917Y-50943D01*
X52755Y-50943D01*
X52690Y-50963D01*
X52658Y-50984D01*
X52625Y-51024D01*
X52625Y-51106D01*
X52658Y-51147D01*
X52690Y-51167D01*
X52755Y-51187D01*
G54D12*
G54D16*
X73685Y-58000D02*
X73004Y-58000D01*
X73004Y-57836D01*
X73036Y-57796D01*
X73068Y-57775D01*
X73133Y-57755D01*
X73231Y-57755D01*
X73295Y-57775D01*
X73328Y-57796D01*
X73360Y-57836D01*
X73360Y-58000D01*
X73685Y-57347D02*
X73685Y-57592D01*
X73685Y-57470D02*
X73004Y-57470D01*
X73101Y-57510D01*
X73166Y-57551D01*
X73198Y-57592D01*
X73068Y-57184D02*
X73036Y-57164D01*
X73004Y-57123D01*
X73004Y-57021D01*
X73036Y-56980D01*
X73068Y-56960D01*
X73133Y-56940D01*
X73198Y-56940D01*
X73295Y-56960D01*
X73685Y-57205D01*
X73685Y-56940D01*
G54D12*
G54D16*
X75685Y-51307D02*
X75004Y-51307D01*
X75004Y-51144D01*
X75036Y-51103D01*
X75068Y-51082D01*
X75133Y-51062D01*
X75231Y-51062D01*
X75295Y-51082D01*
X75328Y-51103D01*
X75360Y-51144D01*
X75360Y-51307D01*
X75685Y-50654D02*
X75685Y-50899D01*
X75685Y-50777D02*
X75004Y-50777D01*
X75101Y-50817D01*
X75166Y-50858D01*
X75198Y-50899D01*
X75685Y-50247D02*
X75685Y-50491D01*
X75685Y-50369D02*
X75004Y-50369D01*
X75101Y-50410D01*
X75166Y-50451D01*
X75198Y-50491D01*
G54D12*
G54D16*
X30311Y-57205D02*
X29630Y-57205D01*
X29630Y-57042D01*
X29662Y-57001D01*
X29694Y-56981D01*
X29759Y-56961D01*
X29857Y-56961D01*
X29921Y-56981D01*
X29954Y-57001D01*
X29986Y-57042D01*
X29986Y-57205D01*
X29630Y-56573D02*
X29630Y-56777D01*
X29954Y-56798D01*
X29921Y-56777D01*
X29889Y-56736D01*
X29889Y-56635D01*
X29921Y-56594D01*
X29954Y-56573D01*
X30019Y-56553D01*
X30181Y-56553D01*
X30246Y-56573D01*
X30278Y-56594D01*
X30311Y-56635D01*
X30311Y-56736D01*
X30278Y-56777D01*
X30246Y-56798D01*
G54D12*
G54D16*
X22405Y-50611D02*
X21724Y-50611D01*
X21724Y-50448D01*
X21756Y-50407D01*
X21789Y-50386D01*
X21854Y-50366D01*
X21951Y-50366D01*
X22016Y-50386D01*
X22048Y-50407D01*
X22081Y-50448D01*
X22081Y-50611D01*
X21951Y-49999D02*
X22405Y-49999D01*
X21692Y-50101D02*
X22178Y-50203D01*
X22178Y-49938D01*
G54D12*
G54D16*
X24405Y-56319D02*
X23724Y-56319D01*
X23724Y-56156D01*
X23756Y-56116D01*
X23789Y-56095D01*
X23854Y-56075D01*
X23951Y-56075D01*
X24016Y-56095D01*
X24048Y-56116D01*
X24081Y-56156D01*
X24081Y-56319D01*
X23724Y-55932D02*
X23724Y-55667D01*
X23983Y-55810D01*
X23983Y-55749D01*
X24016Y-55708D01*
X24048Y-55688D01*
X24113Y-55667D01*
X24275Y-55667D01*
X24340Y-55688D01*
X24373Y-55708D01*
X24405Y-55749D01*
X24405Y-55871D01*
X24373Y-55912D01*
X24340Y-55932D01*
G54D12*
G54D16*
X17385Y-52185D02*
X16704Y-52185D01*
X16704Y-52022D01*
X16737Y-51982D01*
X16769Y-51961D01*
X16834Y-51941D01*
X16931Y-51941D01*
X16996Y-51961D01*
X17029Y-51982D01*
X17061Y-52022D01*
X17061Y-52185D01*
X16769Y-51778D02*
X16737Y-51757D01*
X16704Y-51717D01*
X16704Y-51615D01*
X16737Y-51574D01*
X16769Y-51554D01*
X16834Y-51533D01*
X16899Y-51533D01*
X16996Y-51554D01*
X17385Y-51798D01*
X17385Y-51533D01*
G54D12*
G54D16*
X19385Y-54745D02*
X18704Y-54745D01*
X18704Y-54581D01*
X18737Y-54541D01*
X18769Y-54520D01*
X18834Y-54500D01*
X18931Y-54500D01*
X18996Y-54520D01*
X19029Y-54541D01*
X19061Y-54581D01*
X19061Y-54745D01*
X19385Y-54092D02*
X19385Y-54337D01*
X19385Y-54215D02*
X18704Y-54215D01*
X18802Y-54255D01*
X18867Y-54296D01*
X18899Y-54337D01*
G54D12*
G54D16*
X62070Y-56024D02*
X61389Y-56024D01*
X61389Y-55861D01*
X61422Y-55820D01*
X61454Y-55800D01*
X61519Y-55779D01*
X61616Y-55779D01*
X61681Y-55800D01*
X61714Y-55820D01*
X61746Y-55861D01*
X61746Y-56024D01*
X62070Y-55576D02*
X62070Y-55494D01*
X62038Y-55453D01*
X62006Y-55433D01*
X61908Y-55392D01*
X61779Y-55372D01*
X61519Y-55372D01*
X61454Y-55392D01*
X61422Y-55413D01*
X61389Y-55453D01*
X61389Y-55535D01*
X61422Y-55576D01*
X61454Y-55596D01*
X61519Y-55616D01*
X61681Y-55616D01*
X61746Y-55596D01*
X61779Y-55576D01*
X61811Y-55535D01*
X61811Y-55453D01*
X61779Y-55413D01*
X61746Y-55392D01*
X61681Y-55372D01*
G54D12*
G54D16*
X51047Y-56024D02*
X50366Y-56024D01*
X50366Y-55861D01*
X50398Y-55820D01*
X50431Y-55800D01*
X50496Y-55779D01*
X50593Y-55779D01*
X50658Y-55800D01*
X50690Y-55820D01*
X50723Y-55861D01*
X50723Y-56024D01*
X50366Y-55637D02*
X50366Y-55351D01*
X51047Y-55535D01*
G54D12*
G54D17*
X19350Y-52784D02*
X19311Y-52727D01*
X19282Y-52784D02*
X19282Y-52665D01*
X19327Y-52665D01*
X19339Y-52671D01*
X19344Y-52677D01*
X19350Y-52688D01*
X19350Y-52705D01*
X19344Y-52716D01*
X19339Y-52722D01*
X19327Y-52727D01*
X19282Y-52727D01*
X19395Y-52677D02*
X19401Y-52671D01*
X19412Y-52665D01*
X19440Y-52665D01*
X19451Y-52671D01*
X19457Y-52677D01*
X19462Y-52688D01*
X19462Y-52699D01*
X19457Y-52716D01*
X19389Y-52784D01*
X19462Y-52784D01*
X19381Y-51937D02*
X19325Y-51937D01*
X19319Y-51993D01*
X19325Y-51988D01*
X19336Y-51982D01*
X19364Y-51982D01*
X19375Y-51988D01*
X19381Y-51993D01*
X19386Y-52005D01*
X19386Y-52033D01*
X19381Y-52044D01*
X19375Y-52050D01*
X19364Y-52055D01*
X19336Y-52055D01*
X19325Y-52050D01*
X19319Y-52044D01*
X19499Y-52055D02*
X19431Y-52055D01*
X19465Y-52055D02*
X19465Y-51937D01*
X19454Y-51954D01*
X19443Y-51965D01*
X19431Y-51971D01*
X19350Y-54358D02*
X19311Y-54302D01*
X19282Y-54358D02*
X19282Y-54240D01*
X19327Y-54240D01*
X19339Y-54246D01*
X19344Y-54251D01*
X19350Y-54263D01*
X19350Y-54280D01*
X19344Y-54291D01*
X19339Y-54296D01*
X19327Y-54302D01*
X19282Y-54302D01*
X19462Y-54358D02*
X19395Y-54358D01*
X19429Y-54358D02*
X19429Y-54240D01*
X19417Y-54257D01*
X19406Y-54268D01*
X19395Y-54274D01*
X19381Y-53512D02*
X19325Y-53512D01*
X19319Y-53568D01*
X19325Y-53562D01*
X19336Y-53557D01*
X19364Y-53557D01*
X19375Y-53562D01*
X19381Y-53568D01*
X19386Y-53579D01*
X19386Y-53607D01*
X19381Y-53619D01*
X19375Y-53624D01*
X19364Y-53630D01*
X19336Y-53630D01*
X19325Y-53624D01*
X19319Y-53619D01*
X19499Y-53630D02*
X19431Y-53630D01*
X19465Y-53630D02*
X19465Y-53512D01*
X19454Y-53529D01*
X19443Y-53540D01*
X19431Y-53546D01*
G54D18*
X65566Y-58075D02*
X65885Y-58075D01*
X65923Y-58057D01*
X65941Y-58038D01*
X65960Y-58000D01*
X65960Y-57925D01*
X65941Y-57888D01*
X65923Y-57869D01*
X65885Y-57850D01*
X65566Y-57850D01*
X65566Y-57700D02*
X65566Y-57456D01*
X65716Y-57587D01*
X65716Y-57531D01*
X65735Y-57494D01*
X65754Y-57475D01*
X65791Y-57456D01*
X65885Y-57456D01*
X65923Y-57475D01*
X65941Y-57494D01*
X65960Y-57531D01*
X65960Y-57644D01*
X65941Y-57681D01*
X65923Y-57700D01*
G54D11*
X65016Y-59004D02*
X65016Y-58779D01*
X65410Y-58891D02*
X65016Y-58891D01*
X65410Y-58648D02*
X65016Y-58648D01*
X65016Y-58497D01*
X65035Y-58460D01*
X65054Y-58441D01*
X65091Y-58422D01*
X65147Y-58422D01*
X65185Y-58441D01*
X65204Y-58460D01*
X65223Y-58497D01*
X65223Y-58648D01*
X65391Y-58272D02*
X65410Y-58216D01*
X65410Y-58122D01*
X65391Y-58085D01*
X65373Y-58066D01*
X65335Y-58047D01*
X65298Y-58047D01*
X65260Y-58066D01*
X65241Y-58085D01*
X65223Y-58122D01*
X65204Y-58197D01*
X65185Y-58235D01*
X65166Y-58254D01*
X65129Y-58272D01*
X65091Y-58272D01*
X65054Y-58254D01*
X65035Y-58235D01*
X65016Y-58197D01*
X65016Y-58103D01*
X65035Y-58047D01*
X65016Y-57916D02*
X65016Y-57653D01*
X65410Y-57822D01*
X65298Y-57522D02*
X65298Y-57334D01*
X65410Y-57559D02*
X65016Y-57428D01*
X65410Y-57297D01*
X65016Y-57203D02*
X65016Y-56959D01*
X65166Y-57090D01*
X65166Y-57034D01*
X65185Y-56996D01*
X65204Y-56978D01*
X65241Y-56959D01*
X65335Y-56959D01*
X65373Y-56978D01*
X65391Y-56996D01*
X65410Y-57034D01*
X65410Y-57147D01*
X65391Y-57184D01*
X65373Y-57203D01*
X65016Y-56715D02*
X65016Y-56678D01*
X65035Y-56640D01*
X65054Y-56621D01*
X65091Y-56602D01*
X65166Y-56584D01*
X65260Y-56584D01*
X65335Y-56602D01*
X65373Y-56621D01*
X65391Y-56640D01*
X65410Y-56678D01*
X65410Y-56715D01*
X65391Y-56753D01*
X65373Y-56771D01*
X65335Y-56790D01*
X65260Y-56809D01*
X65166Y-56809D01*
X65091Y-56790D01*
X65054Y-56771D01*
X65035Y-56753D01*
X65016Y-56715D01*
G54D18*
X65566Y-49315D02*
X65885Y-49315D01*
X65923Y-49297D01*
X65941Y-49278D01*
X65960Y-49240D01*
X65960Y-49165D01*
X65941Y-49128D01*
X65923Y-49109D01*
X65885Y-49090D01*
X65566Y-49090D01*
X65604Y-48921D02*
X65585Y-48903D01*
X65566Y-48865D01*
X65566Y-48771D01*
X65585Y-48734D01*
X65604Y-48715D01*
X65641Y-48696D01*
X65679Y-48696D01*
X65735Y-48715D01*
X65960Y-48940D01*
X65960Y-48696D01*
G54D11*
X65016Y-50244D02*
X65016Y-50019D01*
X65410Y-50132D02*
X65016Y-50132D01*
X65410Y-49888D02*
X65016Y-49888D01*
X65016Y-49738D01*
X65035Y-49700D01*
X65054Y-49681D01*
X65091Y-49663D01*
X65147Y-49663D01*
X65185Y-49681D01*
X65204Y-49700D01*
X65223Y-49738D01*
X65223Y-49888D01*
X65391Y-49512D02*
X65410Y-49456D01*
X65410Y-49362D01*
X65391Y-49325D01*
X65373Y-49306D01*
X65335Y-49287D01*
X65298Y-49287D01*
X65260Y-49306D01*
X65241Y-49325D01*
X65223Y-49362D01*
X65204Y-49437D01*
X65185Y-49475D01*
X65166Y-49494D01*
X65129Y-49512D01*
X65091Y-49512D01*
X65054Y-49494D01*
X65035Y-49475D01*
X65016Y-49437D01*
X65016Y-49344D01*
X65035Y-49287D01*
X65016Y-49156D02*
X65016Y-48893D01*
X65410Y-49062D01*
X65298Y-48762D02*
X65298Y-48574D01*
X65410Y-48799D02*
X65016Y-48668D01*
X65410Y-48537D01*
X65147Y-48237D02*
X65410Y-48237D01*
X64997Y-48330D02*
X65279Y-48424D01*
X65279Y-48180D01*
X65410Y-48011D02*
X65410Y-47936D01*
X65391Y-47899D01*
X65373Y-47880D01*
X65316Y-47843D01*
X65241Y-47824D01*
X65091Y-47824D01*
X65054Y-47843D01*
X65035Y-47861D01*
X65016Y-47899D01*
X65016Y-47974D01*
X65035Y-48011D01*
X65054Y-48030D01*
X65091Y-48049D01*
X65185Y-48049D01*
X65223Y-48030D01*
X65241Y-48011D01*
X65260Y-47974D01*
X65260Y-47899D01*
X65241Y-47861D01*
X65223Y-47843D01*
X65185Y-47824D01*
G54D13*
X20211Y-55451D02*
X20182Y-55489D01*
X20125Y-55527D01*
X20039Y-55584D01*
X20011Y-55622D01*
X20011Y-55661D01*
X20154Y-55641D02*
X20125Y-55680D01*
X20068Y-55718D01*
X19954Y-55737D01*
X19754Y-55737D01*
X19639Y-55718D01*
X19582Y-55680D01*
X19554Y-55641D01*
X19554Y-55565D01*
X19582Y-55527D01*
X19639Y-55489D01*
X19754Y-55470D01*
X19954Y-55470D01*
X20068Y-55489D01*
X20125Y-55527D01*
X20154Y-55565D01*
X20154Y-55641D01*
X20154Y-55089D02*
X20154Y-55318D01*
X20154Y-55203D02*
X19554Y-55203D01*
X19639Y-55241D01*
X19697Y-55280D01*
X19725Y-55318D01*
X20259Y-53156D02*
X20259Y-52556D01*
X20678Y-53156D02*
X20544Y-52870D01*
X20449Y-53156D02*
X20449Y-52556D01*
X20601Y-52556D01*
X20639Y-52584D01*
X20659Y-52613D01*
X20678Y-52670D01*
X20678Y-52756D01*
X20659Y-52813D01*
X20639Y-52841D01*
X20601Y-52870D01*
X20449Y-52870D01*
X20982Y-52841D02*
X20849Y-52841D01*
X20849Y-53156D02*
X20849Y-52556D01*
X21039Y-52556D01*
X21382Y-52556D02*
X21192Y-52556D01*
X21173Y-52841D01*
X21192Y-52813D01*
X21230Y-52784D01*
X21325Y-52784D01*
X21363Y-52813D01*
X21382Y-52841D01*
X21401Y-52899D01*
X21401Y-53041D01*
X21382Y-53099D01*
X21363Y-53127D01*
X21325Y-53156D01*
X21230Y-53156D01*
X21192Y-53127D01*
X21173Y-53099D01*
X21535Y-52556D02*
X21782Y-52556D01*
X21649Y-52784D01*
X21706Y-52784D01*
X21744Y-52813D01*
X21763Y-52841D01*
X21782Y-52899D01*
X21782Y-53041D01*
X21763Y-53099D01*
X21744Y-53127D01*
X21706Y-53156D01*
X21592Y-53156D01*
X21554Y-53127D01*
X21535Y-53099D01*
X22030Y-52556D02*
X22068Y-52556D01*
X22106Y-52584D01*
X22125Y-52613D01*
X22144Y-52670D01*
X22163Y-52784D01*
X22163Y-52927D01*
X22144Y-53041D01*
X22125Y-53099D01*
X22106Y-53127D01*
X22068Y-53156D01*
X22030Y-53156D01*
X21992Y-53127D01*
X21973Y-53099D01*
X21954Y-53041D01*
X21935Y-52927D01*
X21935Y-52784D01*
X21954Y-52670D01*
X21973Y-52613D01*
X21992Y-52584D01*
X22030Y-52556D01*
X22335Y-53156D02*
X22335Y-52556D01*
X22563Y-53156D01*
X22563Y-52556D01*
X22908Y-50825D02*
X22879Y-50863D01*
X22822Y-50901D01*
X22736Y-50958D01*
X22708Y-50996D01*
X22708Y-51035D01*
X22851Y-51015D02*
X22822Y-51054D01*
X22765Y-51092D01*
X22651Y-51111D01*
X22451Y-51111D01*
X22336Y-51092D01*
X22279Y-51054D01*
X22251Y-51015D01*
X22251Y-50939D01*
X22279Y-50901D01*
X22336Y-50863D01*
X22451Y-50844D01*
X22651Y-50844D01*
X22765Y-50863D01*
X22822Y-50901D01*
X22851Y-50939D01*
X22851Y-51015D01*
X22308Y-50692D02*
X22279Y-50673D01*
X22251Y-50635D01*
X22251Y-50539D01*
X22279Y-50501D01*
X22308Y-50482D01*
X22365Y-50463D01*
X22422Y-50463D01*
X22508Y-50482D01*
X22851Y-50711D01*
X22851Y-50463D01*
X19955Y-53530D02*
X19955Y-52930D01*
X20374Y-53530D02*
X20241Y-53244D01*
X20146Y-53530D02*
X20146Y-52930D01*
X20298Y-52930D01*
X20336Y-52958D01*
X20355Y-52987D01*
X20374Y-53044D01*
X20374Y-53130D01*
X20355Y-53187D01*
X20336Y-53215D01*
X20298Y-53244D01*
X20146Y-53244D01*
X20679Y-53215D02*
X20546Y-53215D01*
X20546Y-53530D02*
X20546Y-52930D01*
X20736Y-52930D01*
X21079Y-52930D02*
X20889Y-52930D01*
X20870Y-53215D01*
X20889Y-53187D01*
X20927Y-53158D01*
X21022Y-53158D01*
X21060Y-53187D01*
X21079Y-53215D01*
X21098Y-53273D01*
X21098Y-53415D01*
X21079Y-53473D01*
X21060Y-53501D01*
X21022Y-53530D01*
X20927Y-53530D01*
X20889Y-53501D01*
X20870Y-53473D01*
X21232Y-52930D02*
X21479Y-52930D01*
X21346Y-53158D01*
X21403Y-53158D01*
X21441Y-53187D01*
X21460Y-53215D01*
X21479Y-53273D01*
X21479Y-53415D01*
X21460Y-53473D01*
X21441Y-53501D01*
X21403Y-53530D01*
X21289Y-53530D01*
X21251Y-53501D01*
X21232Y-53473D01*
X21727Y-52930D02*
X21765Y-52930D01*
X21803Y-52958D01*
X21822Y-52987D01*
X21841Y-53044D01*
X21860Y-53158D01*
X21860Y-53301D01*
X21841Y-53415D01*
X21822Y-53473D01*
X21803Y-53501D01*
X21765Y-53530D01*
X21727Y-53530D01*
X21689Y-53501D01*
X21670Y-53473D01*
X21651Y-53415D01*
X21632Y-53301D01*
X21632Y-53158D01*
X21651Y-53044D01*
X21670Y-52987D01*
X21689Y-52958D01*
X21727Y-52930D01*
X22032Y-53530D02*
X22032Y-52930D01*
X22260Y-53530D01*
X22260Y-52930D01*
G54D10*
X34748Y-55749D02*
X34748Y-55356D01*
X34842Y-55356D01*
X34898Y-55374D01*
X34936Y-55412D01*
X34955Y-55449D01*
X34973Y-55524D01*
X34973Y-55581D01*
X34955Y-55656D01*
X34936Y-55693D01*
X34898Y-55731D01*
X34842Y-55749D01*
X34748Y-55749D01*
X35311Y-55487D02*
X35311Y-55749D01*
X35217Y-55337D02*
X35123Y-55618D01*
X35367Y-55618D01*
X34422Y-57669D02*
X34553Y-57669D01*
X34610Y-57875D02*
X34422Y-57875D01*
X34422Y-57482D01*
X34610Y-57482D01*
X34760Y-57857D02*
X34816Y-57875D01*
X34910Y-57875D01*
X34947Y-57857D01*
X34966Y-57838D01*
X34985Y-57800D01*
X34985Y-57763D01*
X34966Y-57725D01*
X34947Y-57707D01*
X34910Y-57688D01*
X34835Y-57669D01*
X34797Y-57650D01*
X34778Y-57632D01*
X34760Y-57594D01*
X34760Y-57557D01*
X34778Y-57519D01*
X34797Y-57500D01*
X34835Y-57482D01*
X34928Y-57482D01*
X34985Y-57500D01*
X35134Y-57519D02*
X35153Y-57500D01*
X35191Y-57482D01*
X35284Y-57482D01*
X35322Y-57500D01*
X35341Y-57519D01*
X35359Y-57557D01*
X35359Y-57594D01*
X35341Y-57650D01*
X35116Y-57875D01*
X35359Y-57875D01*
X35528Y-57875D02*
X35528Y-57482D01*
X35622Y-57482D01*
X35678Y-57500D01*
X35716Y-57538D01*
X35734Y-57575D01*
X35753Y-57650D01*
X35753Y-57707D01*
X35734Y-57782D01*
X35716Y-57819D01*
X35678Y-57857D01*
X35622Y-57875D01*
X35528Y-57875D01*
X34748Y-51261D02*
X34748Y-50868D01*
X34842Y-50868D01*
X34898Y-50886D01*
X34936Y-50924D01*
X34955Y-50961D01*
X34973Y-51036D01*
X34973Y-51092D01*
X34955Y-51167D01*
X34936Y-51205D01*
X34898Y-51242D01*
X34842Y-51261D01*
X34748Y-51261D01*
X35104Y-50868D02*
X35348Y-50868D01*
X35217Y-51017D01*
X35273Y-51017D01*
X35311Y-51036D01*
X35329Y-51055D01*
X35348Y-51092D01*
X35348Y-51186D01*
X35329Y-51224D01*
X35311Y-51242D01*
X35273Y-51261D01*
X35161Y-51261D01*
X35123Y-51242D01*
X35104Y-51224D01*
X34343Y-48929D02*
X34475Y-48929D01*
X34531Y-49135D02*
X34343Y-49135D01*
X34343Y-48742D01*
X34531Y-48742D01*
X34681Y-49116D02*
X34737Y-49135D01*
X34831Y-49135D01*
X34868Y-49116D01*
X34887Y-49098D01*
X34906Y-49060D01*
X34906Y-49023D01*
X34887Y-48985D01*
X34868Y-48967D01*
X34831Y-48948D01*
X34756Y-48929D01*
X34718Y-48910D01*
X34700Y-48892D01*
X34681Y-48854D01*
X34681Y-48817D01*
X34700Y-48779D01*
X34718Y-48760D01*
X34756Y-48742D01*
X34850Y-48742D01*
X34906Y-48760D01*
X35056Y-48779D02*
X35074Y-48760D01*
X35112Y-48742D01*
X35206Y-48742D01*
X35243Y-48760D01*
X35262Y-48779D01*
X35281Y-48817D01*
X35281Y-48854D01*
X35262Y-48910D01*
X35037Y-49135D01*
X35281Y-49135D01*
X35449Y-49135D02*
X35449Y-48742D01*
X35543Y-48742D01*
X35599Y-48760D01*
X35637Y-48798D01*
X35656Y-48835D01*
X35674Y-48910D01*
X35674Y-48967D01*
X35656Y-49041D01*
X35637Y-49079D01*
X35599Y-49116D01*
X35543Y-49135D01*
X35449Y-49135D01*
X34748Y-57718D02*
X34748Y-57324D01*
X34842Y-57324D01*
X34898Y-57343D01*
X34936Y-57380D01*
X34955Y-57418D01*
X34973Y-57493D01*
X34973Y-57549D01*
X34955Y-57624D01*
X34936Y-57662D01*
X34898Y-57699D01*
X34842Y-57718D01*
X34748Y-57718D01*
X35123Y-57362D02*
X35142Y-57343D01*
X35179Y-57324D01*
X35273Y-57324D01*
X35311Y-57343D01*
X35329Y-57362D01*
X35348Y-57399D01*
X35348Y-57437D01*
X35329Y-57493D01*
X35104Y-57718D01*
X35348Y-57718D01*
X34422Y-59638D02*
X34553Y-59638D01*
X34610Y-59844D02*
X34422Y-59844D01*
X34422Y-59450D01*
X34610Y-59450D01*
X34760Y-59825D02*
X34816Y-59844D01*
X34910Y-59844D01*
X34947Y-59825D01*
X34966Y-59806D01*
X34985Y-59769D01*
X34985Y-59731D01*
X34966Y-59694D01*
X34947Y-59675D01*
X34910Y-59656D01*
X34835Y-59638D01*
X34797Y-59619D01*
X34778Y-59600D01*
X34760Y-59563D01*
X34760Y-59525D01*
X34778Y-59488D01*
X34797Y-59469D01*
X34835Y-59450D01*
X34928Y-59450D01*
X34985Y-59469D01*
X35134Y-59488D02*
X35153Y-59469D01*
X35191Y-59450D01*
X35284Y-59450D01*
X35322Y-59469D01*
X35341Y-59488D01*
X35359Y-59525D01*
X35359Y-59563D01*
X35341Y-59619D01*
X35116Y-59844D01*
X35359Y-59844D01*
X35528Y-59844D02*
X35528Y-59450D01*
X35622Y-59450D01*
X35678Y-59469D01*
X35716Y-59506D01*
X35734Y-59544D01*
X35753Y-59619D01*
X35753Y-59675D01*
X35734Y-59750D01*
X35716Y-59788D01*
X35678Y-59825D01*
X35622Y-59844D01*
X35528Y-59844D01*
X34748Y-49293D02*
X34748Y-48899D01*
X34842Y-48899D01*
X34898Y-48918D01*
X34936Y-48955D01*
X34955Y-48993D01*
X34973Y-49068D01*
X34973Y-49124D01*
X34955Y-49199D01*
X34936Y-49236D01*
X34898Y-49274D01*
X34842Y-49293D01*
X34748Y-49293D01*
X35348Y-49293D02*
X35123Y-49293D01*
X35236Y-49293D02*
X35236Y-48899D01*
X35198Y-48955D01*
X35161Y-48993D01*
X35123Y-49011D01*
X34343Y-46961D02*
X34475Y-46961D01*
X34531Y-47167D02*
X34343Y-47167D01*
X34343Y-46773D01*
X34531Y-46773D01*
X34681Y-47148D02*
X34737Y-47167D01*
X34831Y-47167D01*
X34868Y-47148D01*
X34887Y-47129D01*
X34906Y-47092D01*
X34906Y-47054D01*
X34887Y-47017D01*
X34868Y-46998D01*
X34831Y-46979D01*
X34756Y-46961D01*
X34718Y-46942D01*
X34700Y-46923D01*
X34681Y-46886D01*
X34681Y-46848D01*
X34700Y-46811D01*
X34718Y-46792D01*
X34756Y-46773D01*
X34850Y-46773D01*
X34906Y-46792D01*
X35056Y-46811D02*
X35074Y-46792D01*
X35112Y-46773D01*
X35206Y-46773D01*
X35243Y-46792D01*
X35262Y-46811D01*
X35281Y-46848D01*
X35281Y-46886D01*
X35262Y-46942D01*
X35037Y-47167D01*
X35281Y-47167D01*
X35449Y-47167D02*
X35449Y-46773D01*
X35543Y-46773D01*
X35599Y-46792D01*
X35637Y-46829D01*
X35656Y-46867D01*
X35674Y-46942D01*
X35674Y-46998D01*
X35656Y-47073D01*
X35637Y-47110D01*
X35599Y-47148D01*
X35543Y-47167D01*
X35449Y-47167D01*
X70495Y-51237D02*
X70514Y-51256D01*
X70533Y-51312D01*
X70533Y-51349D01*
X70514Y-51406D01*
X70477Y-51443D01*
X70439Y-51462D01*
X70364Y-51481D01*
X70308Y-51481D01*
X70233Y-51462D01*
X70195Y-51443D01*
X70158Y-51406D01*
X70139Y-51349D01*
X70139Y-51312D01*
X70158Y-51256D01*
X70177Y-51237D01*
X70533Y-50862D02*
X70533Y-51087D01*
X70533Y-50974D02*
X70139Y-50974D01*
X70195Y-51012D01*
X70233Y-51049D01*
X70252Y-51087D01*
X70139Y-50506D02*
X70139Y-50693D01*
X70327Y-50712D01*
X70308Y-50693D01*
X70289Y-50656D01*
X70289Y-50562D01*
X70308Y-50524D01*
X70327Y-50506D01*
X70364Y-50487D01*
X70458Y-50487D01*
X70495Y-50506D01*
X70514Y-50524D01*
X70533Y-50562D01*
X70533Y-50656D01*
X70514Y-50693D01*
X70495Y-50712D01*
X72403Y-51237D02*
X72403Y-51462D01*
X72403Y-51349D02*
X72009Y-51349D01*
X72065Y-51387D01*
X72103Y-51424D01*
X72122Y-51462D01*
X72009Y-50993D02*
X72009Y-50956D01*
X72028Y-50918D01*
X72047Y-50899D01*
X72084Y-50881D01*
X72159Y-50862D01*
X72253Y-50862D01*
X72328Y-50881D01*
X72365Y-50899D01*
X72384Y-50918D01*
X72403Y-50956D01*
X72403Y-50993D01*
X72384Y-51031D01*
X72365Y-51049D01*
X72328Y-51068D01*
X72253Y-51087D01*
X72159Y-51087D01*
X72084Y-51068D01*
X72047Y-51049D01*
X72028Y-51031D01*
X72009Y-50993D01*
X72140Y-50524D02*
X72403Y-50524D01*
X72140Y-50693D02*
X72347Y-50693D01*
X72384Y-50674D01*
X72403Y-50637D01*
X72403Y-50581D01*
X72384Y-50543D01*
X72365Y-50524D01*
X73842Y-57634D02*
X73861Y-57653D01*
X73879Y-57709D01*
X73879Y-57747D01*
X73861Y-57803D01*
X73823Y-57841D01*
X73786Y-57859D01*
X73711Y-57878D01*
X73654Y-57878D01*
X73579Y-57859D01*
X73542Y-57841D01*
X73504Y-57803D01*
X73486Y-57747D01*
X73486Y-57709D01*
X73504Y-57653D01*
X73523Y-57634D01*
X73879Y-57260D02*
X73879Y-57485D01*
X73879Y-57372D02*
X73486Y-57372D01*
X73542Y-57410D01*
X73579Y-57447D01*
X73598Y-57485D01*
X73654Y-57035D02*
X73636Y-57072D01*
X73617Y-57091D01*
X73579Y-57110D01*
X73561Y-57110D01*
X73523Y-57091D01*
X73504Y-57072D01*
X73486Y-57035D01*
X73486Y-56960D01*
X73504Y-56922D01*
X73523Y-56903D01*
X73561Y-56885D01*
X73579Y-56885D01*
X73617Y-56903D01*
X73636Y-56922D01*
X73654Y-56960D01*
X73654Y-57035D01*
X73673Y-57072D01*
X73692Y-57091D01*
X73729Y-57110D01*
X73804Y-57110D01*
X73842Y-57091D01*
X73861Y-57072D01*
X73879Y-57035D01*
X73879Y-56960D01*
X73861Y-56922D01*
X73842Y-56903D01*
X73804Y-56885D01*
X73729Y-56885D01*
X73692Y-56903D01*
X73673Y-56922D01*
X73654Y-56960D01*
X72009Y-57634D02*
X72009Y-57859D01*
X72009Y-57747D02*
X71616Y-57747D01*
X71672Y-57784D01*
X71709Y-57822D01*
X71728Y-57859D01*
X71616Y-57391D02*
X71616Y-57353D01*
X71634Y-57316D01*
X71653Y-57297D01*
X71691Y-57278D01*
X71766Y-57260D01*
X71859Y-57260D01*
X71934Y-57278D01*
X71972Y-57297D01*
X71991Y-57316D01*
X72009Y-57353D01*
X72009Y-57391D01*
X71991Y-57428D01*
X71972Y-57447D01*
X71934Y-57466D01*
X71859Y-57485D01*
X71766Y-57485D01*
X71691Y-57466D01*
X71653Y-57447D01*
X71634Y-57428D01*
X71616Y-57391D01*
X71747Y-56922D02*
X72009Y-56922D01*
X71747Y-57091D02*
X71953Y-57091D01*
X71991Y-57072D01*
X72009Y-57035D01*
X72009Y-56978D01*
X71991Y-56941D01*
X71972Y-56922D01*
X72661Y-57634D02*
X72679Y-57653D01*
X72698Y-57709D01*
X72698Y-57747D01*
X72679Y-57803D01*
X72642Y-57841D01*
X72604Y-57859D01*
X72529Y-57878D01*
X72473Y-57878D01*
X72398Y-57859D01*
X72361Y-57841D01*
X72323Y-57803D01*
X72305Y-57747D01*
X72305Y-57709D01*
X72323Y-57653D01*
X72342Y-57634D01*
X72698Y-57260D02*
X72698Y-57485D01*
X72698Y-57372D02*
X72305Y-57372D01*
X72361Y-57410D01*
X72398Y-57447D01*
X72417Y-57485D01*
X72305Y-56922D02*
X72305Y-56997D01*
X72323Y-57035D01*
X72342Y-57053D01*
X72398Y-57091D01*
X72473Y-57110D01*
X72623Y-57110D01*
X72661Y-57091D01*
X72679Y-57072D01*
X72698Y-57035D01*
X72698Y-56960D01*
X72679Y-56922D01*
X72661Y-56903D01*
X72623Y-56885D01*
X72529Y-56885D01*
X72492Y-56903D01*
X72473Y-56922D01*
X72455Y-56960D01*
X72455Y-57035D01*
X72473Y-57072D01*
X72492Y-57091D01*
X72529Y-57110D01*
X70828Y-57634D02*
X70828Y-57859D01*
X70828Y-57747D02*
X70434Y-57747D01*
X70491Y-57784D01*
X70528Y-57822D01*
X70547Y-57859D01*
X70434Y-57391D02*
X70434Y-57353D01*
X70453Y-57316D01*
X70472Y-57297D01*
X70509Y-57278D01*
X70584Y-57260D01*
X70678Y-57260D01*
X70753Y-57278D01*
X70791Y-57297D01*
X70809Y-57316D01*
X70828Y-57353D01*
X70828Y-57391D01*
X70809Y-57428D01*
X70791Y-57447D01*
X70753Y-57466D01*
X70678Y-57485D01*
X70584Y-57485D01*
X70509Y-57466D01*
X70472Y-57447D01*
X70453Y-57428D01*
X70434Y-57391D01*
X70566Y-56922D02*
X70828Y-56922D01*
X70566Y-57091D02*
X70772Y-57091D01*
X70809Y-57072D01*
X70828Y-57035D01*
X70828Y-56978D01*
X70809Y-56941D01*
X70791Y-56922D01*
X68527Y-58717D02*
X68546Y-58736D01*
X68564Y-58792D01*
X68564Y-58830D01*
X68546Y-58886D01*
X68508Y-58923D01*
X68471Y-58942D01*
X68396Y-58961D01*
X68339Y-58961D01*
X68264Y-58942D01*
X68227Y-58923D01*
X68189Y-58886D01*
X68171Y-58830D01*
X68171Y-58792D01*
X68189Y-58736D01*
X68208Y-58717D01*
X68564Y-58342D02*
X68564Y-58567D01*
X68564Y-58455D02*
X68171Y-58455D01*
X68227Y-58492D01*
X68264Y-58530D01*
X68283Y-58567D01*
X68302Y-58005D02*
X68564Y-58005D01*
X68152Y-58098D02*
X68433Y-58192D01*
X68433Y-57949D01*
X66301Y-59130D02*
X66301Y-59092D01*
X66319Y-59055D01*
X66338Y-59036D01*
X66376Y-59017D01*
X66451Y-58998D01*
X66544Y-58998D01*
X66619Y-59017D01*
X66657Y-59036D01*
X66676Y-59055D01*
X66694Y-59092D01*
X66694Y-59130D01*
X66676Y-59167D01*
X66657Y-59186D01*
X66619Y-59205D01*
X66544Y-59223D01*
X66451Y-59223D01*
X66376Y-59205D01*
X66338Y-59186D01*
X66319Y-59167D01*
X66301Y-59130D01*
X66657Y-58830D02*
X66676Y-58811D01*
X66694Y-58830D01*
X66676Y-58848D01*
X66657Y-58830D01*
X66694Y-58830D01*
X66301Y-58567D02*
X66301Y-58530D01*
X66319Y-58492D01*
X66338Y-58473D01*
X66376Y-58455D01*
X66451Y-58436D01*
X66544Y-58436D01*
X66619Y-58455D01*
X66657Y-58473D01*
X66676Y-58492D01*
X66694Y-58530D01*
X66694Y-58567D01*
X66676Y-58605D01*
X66657Y-58623D01*
X66619Y-58642D01*
X66544Y-58661D01*
X66451Y-58661D01*
X66376Y-58642D01*
X66338Y-58623D01*
X66319Y-58605D01*
X66301Y-58567D01*
X66694Y-58061D02*
X66694Y-58286D01*
X66694Y-58173D02*
X66301Y-58173D01*
X66357Y-58211D01*
X66394Y-58248D01*
X66413Y-58286D01*
X66432Y-57724D02*
X66694Y-57724D01*
X66432Y-57892D02*
X66638Y-57892D01*
X66676Y-57874D01*
X66694Y-57836D01*
X66694Y-57780D01*
X66676Y-57742D01*
X66657Y-57724D01*
X62935Y-56716D02*
X62917Y-56735D01*
X62860Y-56753D01*
X62823Y-56753D01*
X62767Y-56735D01*
X62729Y-56697D01*
X62710Y-56660D01*
X62692Y-56585D01*
X62692Y-56528D01*
X62710Y-56453D01*
X62729Y-56416D01*
X62767Y-56378D01*
X62823Y-56360D01*
X62860Y-56360D01*
X62917Y-56378D01*
X62935Y-56397D01*
X63310Y-56753D02*
X63085Y-56753D01*
X63198Y-56753D02*
X63198Y-56360D01*
X63160Y-56416D01*
X63123Y-56453D01*
X63085Y-56472D01*
X63460Y-56397D02*
X63479Y-56378D01*
X63517Y-56360D01*
X63610Y-56360D01*
X63648Y-56378D01*
X63667Y-56397D01*
X63685Y-56435D01*
X63685Y-56472D01*
X63667Y-56528D01*
X63442Y-56753D01*
X63685Y-56753D01*
X62523Y-58230D02*
X62560Y-58230D01*
X62598Y-58248D01*
X62617Y-58267D01*
X62635Y-58305D01*
X62654Y-58380D01*
X62654Y-58473D01*
X62635Y-58548D01*
X62617Y-58586D01*
X62598Y-58605D01*
X62560Y-58623D01*
X62523Y-58623D01*
X62485Y-58605D01*
X62467Y-58586D01*
X62448Y-58548D01*
X62429Y-58473D01*
X62429Y-58380D01*
X62448Y-58305D01*
X62467Y-58267D01*
X62485Y-58248D01*
X62523Y-58230D01*
X62823Y-58586D02*
X62842Y-58605D01*
X62823Y-58623D01*
X62804Y-58605D01*
X62823Y-58586D01*
X62823Y-58623D01*
X63085Y-58230D02*
X63123Y-58230D01*
X63160Y-58248D01*
X63179Y-58267D01*
X63198Y-58305D01*
X63217Y-58380D01*
X63217Y-58473D01*
X63198Y-58548D01*
X63179Y-58586D01*
X63160Y-58605D01*
X63123Y-58623D01*
X63085Y-58623D01*
X63048Y-58605D01*
X63029Y-58586D01*
X63010Y-58548D01*
X62992Y-58473D01*
X62992Y-58380D01*
X63010Y-58305D01*
X63029Y-58267D01*
X63048Y-58248D01*
X63085Y-58230D01*
X63592Y-58623D02*
X63367Y-58623D01*
X63479Y-58623D02*
X63479Y-58230D01*
X63442Y-58286D01*
X63404Y-58323D01*
X63367Y-58342D01*
X63929Y-58361D02*
X63929Y-58623D01*
X63760Y-58361D02*
X63760Y-58567D01*
X63779Y-58605D01*
X63817Y-58623D01*
X63873Y-58623D01*
X63910Y-58605D01*
X63929Y-58586D01*
X71676Y-51237D02*
X71695Y-51256D01*
X71714Y-51312D01*
X71714Y-51349D01*
X71695Y-51406D01*
X71658Y-51443D01*
X71620Y-51462D01*
X71545Y-51481D01*
X71489Y-51481D01*
X71414Y-51462D01*
X71377Y-51443D01*
X71339Y-51406D01*
X71320Y-51349D01*
X71320Y-51312D01*
X71339Y-51256D01*
X71358Y-51237D01*
X71714Y-50862D02*
X71714Y-51087D01*
X71714Y-50974D02*
X71320Y-50974D01*
X71377Y-51012D01*
X71414Y-51049D01*
X71433Y-51087D01*
X71320Y-50731D02*
X71320Y-50468D01*
X71714Y-50637D01*
X73584Y-51237D02*
X73584Y-51462D01*
X73584Y-51349D02*
X73190Y-51349D01*
X73247Y-51387D01*
X73284Y-51424D01*
X73303Y-51462D01*
X73190Y-50993D02*
X73190Y-50956D01*
X73209Y-50918D01*
X73228Y-50899D01*
X73265Y-50881D01*
X73340Y-50862D01*
X73434Y-50862D01*
X73509Y-50881D01*
X73547Y-50899D01*
X73565Y-50918D01*
X73584Y-50956D01*
X73584Y-50993D01*
X73565Y-51031D01*
X73547Y-51049D01*
X73509Y-51068D01*
X73434Y-51087D01*
X73340Y-51087D01*
X73265Y-51068D01*
X73228Y-51049D01*
X73209Y-51031D01*
X73190Y-50993D01*
X73322Y-50524D02*
X73584Y-50524D01*
X73322Y-50693D02*
X73528Y-50693D01*
X73565Y-50674D01*
X73584Y-50637D01*
X73584Y-50581D01*
X73565Y-50543D01*
X73547Y-50524D01*
X68527Y-49957D02*
X68546Y-49976D01*
X68564Y-50032D01*
X68564Y-50070D01*
X68546Y-50126D01*
X68508Y-50164D01*
X68471Y-50182D01*
X68396Y-50201D01*
X68339Y-50201D01*
X68264Y-50182D01*
X68227Y-50164D01*
X68189Y-50126D01*
X68171Y-50070D01*
X68171Y-50032D01*
X68189Y-49976D01*
X68208Y-49957D01*
X68564Y-49582D02*
X68564Y-49807D01*
X68564Y-49695D02*
X68171Y-49695D01*
X68227Y-49732D01*
X68264Y-49770D01*
X68283Y-49807D01*
X68171Y-49451D02*
X68171Y-49207D01*
X68321Y-49339D01*
X68321Y-49282D01*
X68339Y-49245D01*
X68358Y-49226D01*
X68396Y-49207D01*
X68489Y-49207D01*
X68527Y-49226D01*
X68546Y-49245D01*
X68564Y-49282D01*
X68564Y-49395D01*
X68546Y-49432D01*
X68527Y-49451D01*
X66301Y-50370D02*
X66301Y-50332D01*
X66319Y-50295D01*
X66338Y-50276D01*
X66376Y-50257D01*
X66451Y-50239D01*
X66544Y-50239D01*
X66619Y-50257D01*
X66657Y-50276D01*
X66676Y-50295D01*
X66694Y-50332D01*
X66694Y-50370D01*
X66676Y-50407D01*
X66657Y-50426D01*
X66619Y-50445D01*
X66544Y-50464D01*
X66451Y-50464D01*
X66376Y-50445D01*
X66338Y-50426D01*
X66319Y-50407D01*
X66301Y-50370D01*
X66657Y-50070D02*
X66676Y-50051D01*
X66694Y-50070D01*
X66676Y-50089D01*
X66657Y-50070D01*
X66694Y-50070D01*
X66301Y-49807D02*
X66301Y-49770D01*
X66319Y-49732D01*
X66338Y-49714D01*
X66376Y-49695D01*
X66451Y-49676D01*
X66544Y-49676D01*
X66619Y-49695D01*
X66657Y-49714D01*
X66676Y-49732D01*
X66694Y-49770D01*
X66694Y-49807D01*
X66676Y-49845D01*
X66657Y-49864D01*
X66619Y-49882D01*
X66544Y-49901D01*
X66451Y-49901D01*
X66376Y-49882D01*
X66338Y-49864D01*
X66319Y-49845D01*
X66301Y-49807D01*
X66694Y-49301D02*
X66694Y-49526D01*
X66694Y-49414D02*
X66301Y-49414D01*
X66357Y-49451D01*
X66394Y-49489D01*
X66413Y-49526D01*
X66432Y-48964D02*
X66694Y-48964D01*
X66432Y-49132D02*
X66638Y-49132D01*
X66676Y-49114D01*
X66694Y-49076D01*
X66694Y-49020D01*
X66676Y-48982D01*
X66657Y-48964D01*
X62935Y-47956D02*
X62917Y-47975D01*
X62860Y-47994D01*
X62823Y-47994D01*
X62767Y-47975D01*
X62729Y-47937D01*
X62710Y-47900D01*
X62692Y-47825D01*
X62692Y-47769D01*
X62710Y-47694D01*
X62729Y-47656D01*
X62767Y-47619D01*
X62823Y-47600D01*
X62860Y-47600D01*
X62917Y-47619D01*
X62935Y-47637D01*
X63310Y-47994D02*
X63085Y-47994D01*
X63198Y-47994D02*
X63198Y-47600D01*
X63160Y-47656D01*
X63123Y-47694D01*
X63085Y-47712D01*
X63685Y-47994D02*
X63460Y-47994D01*
X63573Y-47994D02*
X63573Y-47600D01*
X63535Y-47656D01*
X63498Y-47694D01*
X63460Y-47712D01*
X62523Y-49470D02*
X62560Y-49470D01*
X62598Y-49489D01*
X62617Y-49507D01*
X62635Y-49545D01*
X62654Y-49620D01*
X62654Y-49714D01*
X62635Y-49789D01*
X62617Y-49826D01*
X62598Y-49845D01*
X62560Y-49864D01*
X62523Y-49864D01*
X62485Y-49845D01*
X62467Y-49826D01*
X62448Y-49789D01*
X62429Y-49714D01*
X62429Y-49620D01*
X62448Y-49545D01*
X62467Y-49507D01*
X62485Y-49489D01*
X62523Y-49470D01*
X62823Y-49826D02*
X62842Y-49845D01*
X62823Y-49864D01*
X62804Y-49845D01*
X62823Y-49826D01*
X62823Y-49864D01*
X63085Y-49470D02*
X63123Y-49470D01*
X63160Y-49489D01*
X63179Y-49507D01*
X63198Y-49545D01*
X63217Y-49620D01*
X63217Y-49714D01*
X63198Y-49789D01*
X63179Y-49826D01*
X63160Y-49845D01*
X63123Y-49864D01*
X63085Y-49864D01*
X63048Y-49845D01*
X63029Y-49826D01*
X63010Y-49789D01*
X62992Y-49714D01*
X62992Y-49620D01*
X63010Y-49545D01*
X63029Y-49507D01*
X63048Y-49489D01*
X63085Y-49470D01*
X63592Y-49864D02*
X63367Y-49864D01*
X63479Y-49864D02*
X63479Y-49470D01*
X63442Y-49526D01*
X63404Y-49564D01*
X63367Y-49582D01*
X63929Y-49601D02*
X63929Y-49864D01*
X63760Y-49601D02*
X63760Y-49807D01*
X63779Y-49845D01*
X63817Y-49864D01*
X63873Y-49864D01*
X63910Y-49845D01*
X63929Y-49826D01*
X17158Y-49137D02*
X17140Y-49156D01*
X17083Y-49175D01*
X17046Y-49175D01*
X16990Y-49156D01*
X16952Y-49118D01*
X16933Y-49081D01*
X16915Y-49006D01*
X16915Y-48950D01*
X16933Y-48875D01*
X16952Y-48837D01*
X16990Y-48800D01*
X17046Y-48781D01*
X17083Y-48781D01*
X17140Y-48800D01*
X17158Y-48818D01*
X17290Y-48781D02*
X17533Y-48781D01*
X17402Y-48931D01*
X17458Y-48931D01*
X17496Y-48950D01*
X17514Y-48968D01*
X17533Y-49006D01*
X17533Y-49100D01*
X17514Y-49137D01*
X17496Y-49156D01*
X17458Y-49175D01*
X17346Y-49175D01*
X17308Y-49156D01*
X17290Y-49137D01*
X17158Y-51045D02*
X16933Y-51045D01*
X17046Y-51045D02*
X17046Y-50651D01*
X17008Y-50707D01*
X16971Y-50745D01*
X16933Y-50763D01*
X17496Y-50782D02*
X17496Y-51045D01*
X17327Y-50782D02*
X17327Y-50988D01*
X17346Y-51026D01*
X17383Y-51045D01*
X17440Y-51045D01*
X17477Y-51026D01*
X17496Y-51007D01*
X11932Y-56463D02*
X11951Y-56482D01*
X11970Y-56538D01*
X11970Y-56575D01*
X11951Y-56631D01*
X11914Y-56669D01*
X11876Y-56688D01*
X11801Y-56706D01*
X11745Y-56706D01*
X11670Y-56688D01*
X11632Y-56669D01*
X11595Y-56631D01*
X11576Y-56575D01*
X11576Y-56538D01*
X11595Y-56482D01*
X11614Y-56463D01*
X11614Y-56313D02*
X11595Y-56294D01*
X11576Y-56257D01*
X11576Y-56163D01*
X11595Y-56125D01*
X11614Y-56107D01*
X11651Y-56088D01*
X11689Y-56088D01*
X11745Y-56107D01*
X11970Y-56332D01*
X11970Y-56088D01*
X13446Y-57063D02*
X13446Y-57025D01*
X13465Y-56988D01*
X13484Y-56969D01*
X13521Y-56950D01*
X13596Y-56931D01*
X13690Y-56931D01*
X13765Y-56950D01*
X13802Y-56969D01*
X13821Y-56988D01*
X13840Y-57025D01*
X13840Y-57063D01*
X13821Y-57100D01*
X13802Y-57119D01*
X13765Y-57138D01*
X13690Y-57156D01*
X13596Y-57156D01*
X13521Y-57138D01*
X13484Y-57119D01*
X13465Y-57100D01*
X13446Y-57063D01*
X13802Y-56763D02*
X13821Y-56744D01*
X13840Y-56763D01*
X13821Y-56781D01*
X13802Y-56763D01*
X13840Y-56763D01*
X13446Y-56500D02*
X13446Y-56463D01*
X13465Y-56425D01*
X13484Y-56407D01*
X13521Y-56388D01*
X13596Y-56369D01*
X13690Y-56369D01*
X13765Y-56388D01*
X13802Y-56407D01*
X13821Y-56425D01*
X13840Y-56463D01*
X13840Y-56500D01*
X13821Y-56538D01*
X13802Y-56556D01*
X13765Y-56575D01*
X13690Y-56594D01*
X13596Y-56594D01*
X13521Y-56575D01*
X13484Y-56556D01*
X13465Y-56538D01*
X13446Y-56500D01*
X13840Y-55994D02*
X13840Y-56219D01*
X13840Y-56107D02*
X13446Y-56107D01*
X13502Y-56144D01*
X13540Y-56182D01*
X13559Y-56219D01*
X13577Y-55657D02*
X13840Y-55657D01*
X13577Y-55825D02*
X13784Y-55825D01*
X13821Y-55807D01*
X13840Y-55769D01*
X13840Y-55713D01*
X13821Y-55675D01*
X13802Y-55657D01*
X10751Y-56463D02*
X10770Y-56482D01*
X10789Y-56538D01*
X10789Y-56575D01*
X10770Y-56631D01*
X10733Y-56669D01*
X10695Y-56688D01*
X10620Y-56706D01*
X10564Y-56706D01*
X10489Y-56688D01*
X10451Y-56669D01*
X10414Y-56631D01*
X10395Y-56575D01*
X10395Y-56538D01*
X10414Y-56482D01*
X10433Y-56463D01*
X10789Y-56088D02*
X10789Y-56313D01*
X10789Y-56200D02*
X10395Y-56200D01*
X10451Y-56238D01*
X10489Y-56275D01*
X10508Y-56313D01*
X12265Y-56875D02*
X12265Y-56838D01*
X12284Y-56800D01*
X12303Y-56781D01*
X12340Y-56763D01*
X12415Y-56744D01*
X12509Y-56744D01*
X12584Y-56763D01*
X12621Y-56781D01*
X12640Y-56800D01*
X12659Y-56838D01*
X12659Y-56875D01*
X12640Y-56913D01*
X12621Y-56931D01*
X12584Y-56950D01*
X12509Y-56969D01*
X12415Y-56969D01*
X12340Y-56950D01*
X12303Y-56931D01*
X12284Y-56913D01*
X12265Y-56875D01*
X12621Y-56575D02*
X12640Y-56556D01*
X12659Y-56575D01*
X12640Y-56594D01*
X12621Y-56575D01*
X12659Y-56575D01*
X12659Y-56182D02*
X12659Y-56407D01*
X12659Y-56294D02*
X12265Y-56294D01*
X12321Y-56332D01*
X12359Y-56369D01*
X12378Y-56407D01*
X12396Y-55844D02*
X12659Y-55844D01*
X12396Y-56013D02*
X12603Y-56013D01*
X12640Y-55994D01*
X12659Y-55957D01*
X12659Y-55900D01*
X12640Y-55863D01*
X12621Y-55844D01*
X70149Y-58206D02*
X69961Y-58338D01*
X70149Y-58431D02*
X69755Y-58431D01*
X69755Y-58281D01*
X69774Y-58244D01*
X69792Y-58225D01*
X69830Y-58206D01*
X69886Y-58206D01*
X69924Y-58225D01*
X69942Y-58244D01*
X69961Y-58281D01*
X69961Y-58431D01*
X69755Y-58094D02*
X70149Y-57963D01*
X69755Y-57831D01*
X69792Y-57719D02*
X69774Y-57700D01*
X69755Y-57663D01*
X69755Y-57569D01*
X69774Y-57531D01*
X69792Y-57513D01*
X69830Y-57494D01*
X69867Y-57494D01*
X69924Y-57513D01*
X70149Y-57738D01*
X70149Y-57494D01*
X69199Y-57106D02*
X69199Y-57331D01*
X69199Y-57219D02*
X68805Y-57219D01*
X68861Y-57256D01*
X68899Y-57294D01*
X68917Y-57331D01*
X68805Y-56863D02*
X68805Y-56825D01*
X68824Y-56788D01*
X68842Y-56769D01*
X68880Y-56750D01*
X68955Y-56731D01*
X69049Y-56731D01*
X69124Y-56750D01*
X69161Y-56769D01*
X69180Y-56788D01*
X69199Y-56825D01*
X69199Y-56863D01*
X69180Y-56900D01*
X69161Y-56919D01*
X69124Y-56938D01*
X69049Y-56956D01*
X68955Y-56956D01*
X68880Y-56938D01*
X68842Y-56919D01*
X68824Y-56900D01*
X68805Y-56863D01*
X69199Y-56563D02*
X68805Y-56563D01*
X69049Y-56525D02*
X69199Y-56413D01*
X68936Y-56413D02*
X69086Y-56563D01*
X70050Y-49446D02*
X69863Y-49578D01*
X70050Y-49671D02*
X69656Y-49671D01*
X69656Y-49521D01*
X69675Y-49484D01*
X69694Y-49465D01*
X69731Y-49446D01*
X69788Y-49446D01*
X69825Y-49465D01*
X69844Y-49484D01*
X69863Y-49521D01*
X69863Y-49671D01*
X69656Y-49334D02*
X70050Y-49203D01*
X69656Y-49071D01*
X70050Y-48734D02*
X70050Y-48959D01*
X70050Y-48847D02*
X69656Y-48847D01*
X69713Y-48884D01*
X69750Y-48922D01*
X69769Y-48959D01*
X69100Y-48346D02*
X69100Y-48571D01*
X69100Y-48459D02*
X68706Y-48459D01*
X68763Y-48496D01*
X68800Y-48534D01*
X68819Y-48571D01*
X68706Y-48103D02*
X68706Y-48065D01*
X68725Y-48028D01*
X68744Y-48009D01*
X68781Y-47990D01*
X68856Y-47971D01*
X68950Y-47971D01*
X69025Y-47990D01*
X69063Y-48009D01*
X69081Y-48028D01*
X69100Y-48065D01*
X69100Y-48103D01*
X69081Y-48140D01*
X69063Y-48159D01*
X69025Y-48178D01*
X68950Y-48196D01*
X68856Y-48196D01*
X68781Y-48178D01*
X68744Y-48159D01*
X68725Y-48140D01*
X68706Y-48103D01*
X69100Y-47803D02*
X68706Y-47803D01*
X68950Y-47765D02*
X69100Y-47653D01*
X68838Y-47653D02*
X68988Y-47803D01*
X9303Y-54171D02*
X9115Y-54302D01*
X9303Y-54396D02*
X8909Y-54396D01*
X8909Y-54246D01*
X8928Y-54208D01*
X8947Y-54190D01*
X8984Y-54171D01*
X9040Y-54171D01*
X9078Y-54190D01*
X9097Y-54208D01*
X9115Y-54246D01*
X9115Y-54396D01*
X8909Y-54058D02*
X9303Y-53927D01*
X8909Y-53796D01*
X8909Y-53702D02*
X8909Y-53458D01*
X9059Y-53590D01*
X9059Y-53533D01*
X9078Y-53496D01*
X9097Y-53477D01*
X9134Y-53458D01*
X9228Y-53458D01*
X9265Y-53477D01*
X9284Y-53496D01*
X9303Y-53533D01*
X9303Y-53646D01*
X9284Y-53683D01*
X9265Y-53702D01*
X10253Y-55271D02*
X10253Y-55496D01*
X10253Y-55383D02*
X9859Y-55383D01*
X9915Y-55421D01*
X9953Y-55458D01*
X9972Y-55496D01*
X9859Y-55027D02*
X9859Y-54990D01*
X9878Y-54952D01*
X9897Y-54933D01*
X9934Y-54915D01*
X10009Y-54896D01*
X10103Y-54896D01*
X10178Y-54915D01*
X10215Y-54933D01*
X10234Y-54952D01*
X10253Y-54990D01*
X10253Y-55027D01*
X10234Y-55065D01*
X10215Y-55083D01*
X10178Y-55102D01*
X10103Y-55121D01*
X10009Y-55121D01*
X9934Y-55102D01*
X9897Y-55083D01*
X9878Y-55065D01*
X9859Y-55027D01*
X10253Y-54727D02*
X9859Y-54727D01*
X10103Y-54690D02*
X10253Y-54577D01*
X9990Y-54577D02*
X10140Y-54727D01*
X29640Y-54647D02*
X29865Y-54647D01*
X29753Y-55041D02*
X29753Y-54647D01*
X30203Y-55041D02*
X29978Y-55041D01*
X30090Y-55041D02*
X30090Y-54647D01*
X30053Y-54703D01*
X30015Y-54741D01*
X29978Y-54760D01*
X28075Y-51281D02*
X28300Y-51281D01*
X28188Y-51675D02*
X28188Y-51281D01*
X28656Y-51675D02*
X28525Y-51487D01*
X28431Y-51675D02*
X28431Y-51281D01*
X28581Y-51281D01*
X28619Y-51300D01*
X28637Y-51318D01*
X28656Y-51356D01*
X28656Y-51412D01*
X28637Y-51450D01*
X28619Y-51468D01*
X28581Y-51487D01*
X28431Y-51487D01*
X28806Y-51562D02*
X28994Y-51562D01*
X28769Y-51675D02*
X28900Y-51281D01*
X29031Y-51675D01*
X29162Y-51675D02*
X29162Y-51281D01*
X29387Y-51675D01*
X29387Y-51281D01*
X29556Y-51656D02*
X29612Y-51675D01*
X29706Y-51675D01*
X29744Y-51656D01*
X29762Y-51637D01*
X29781Y-51600D01*
X29781Y-51562D01*
X29762Y-51525D01*
X29744Y-51506D01*
X29706Y-51487D01*
X29631Y-51468D01*
X29594Y-51450D01*
X29575Y-51431D01*
X29556Y-51393D01*
X29556Y-51356D01*
X29575Y-51318D01*
X29594Y-51300D01*
X29631Y-51281D01*
X29725Y-51281D01*
X29781Y-51300D01*
X30081Y-51468D02*
X29950Y-51468D01*
X29950Y-51675D02*
X29950Y-51281D01*
X30137Y-51281D01*
X30362Y-51281D02*
X30437Y-51281D01*
X30475Y-51300D01*
X30512Y-51337D01*
X30531Y-51412D01*
X30531Y-51543D01*
X30512Y-51618D01*
X30475Y-51656D01*
X30437Y-51675D01*
X30362Y-51675D01*
X30325Y-51656D01*
X30287Y-51618D01*
X30269Y-51543D01*
X30269Y-51412D01*
X30287Y-51337D01*
X30325Y-51300D01*
X30362Y-51281D01*
X30662Y-51281D02*
X30906Y-51281D01*
X30775Y-51431D01*
X30831Y-51431D01*
X30868Y-51450D01*
X30887Y-51468D01*
X30906Y-51506D01*
X30906Y-51600D01*
X30887Y-51637D01*
X30868Y-51656D01*
X30831Y-51675D01*
X30718Y-51675D01*
X30681Y-51656D01*
X30662Y-51637D01*
X31075Y-51525D02*
X31375Y-51525D01*
X31525Y-51281D02*
X31768Y-51281D01*
X31637Y-51431D01*
X31693Y-51431D01*
X31731Y-51450D01*
X31750Y-51468D01*
X31768Y-51506D01*
X31768Y-51600D01*
X31750Y-51637D01*
X31731Y-51656D01*
X31693Y-51675D01*
X31581Y-51675D01*
X31543Y-51656D01*
X31525Y-51637D01*
M02*
