G04 (created by PCBNEW (2013-may-18)-stable) date 2014年02月07日 星期五 16时20分23秒*
%MOIN*%
G04 Gerber Fmt 3.4, Leading zero omitted, Abs format*
%FSLAX34Y34*%
G01*
G70*
G90*
G04 APERTURE LIST*
%ADD10C,0.00590551*%
%ADD11R,0.137795X0.401575*%
%ADD12R,0.075X0.025*%
%ADD13R,0.055X0.055*%
%ADD14C,0.055*%
%ADD15R,0.0275591X0.0314961*%
%ADD16R,0.015X0.05*%
%ADD17R,0.0787402X0.0629921*%
%ADD18C,0.07*%
%ADD19R,0.07X0.07*%
%ADD20R,0.0984252X0.0866142*%
%ADD21R,0.0787402X0.0433071*%
%ADD22R,0.0433071X0.0787402*%
%ADD23R,0.02X0.09*%
%ADD24R,0.081X0.038*%
%ADD25R,0.16X0.16*%
%ADD26C,0.06*%
%ADD27C,0.035*%
%ADD28C,0.02*%
%ADD29C,0.0590551*%
%ADD30C,0.01*%
%ADD31C,0.015*%
G04 APERTURE END LIST*
G54D10*
G36*
X51474Y-36606D02*
X51474Y-35031D01*
X52025Y-35031D01*
X52025Y-36606D01*
X51474Y-36606D01*
X51474Y-36606D01*
G37*
G36*
X51474Y-38968D02*
X51474Y-37393D01*
X52025Y-37393D01*
X52025Y-38968D01*
X51474Y-38968D01*
X51474Y-38968D01*
G37*
G36*
X68924Y-45106D02*
X68924Y-43531D01*
X69475Y-43531D01*
X69475Y-45106D01*
X68924Y-45106D01*
X68924Y-45106D01*
G37*
G36*
X68924Y-47468D02*
X68924Y-45893D01*
X69475Y-45893D01*
X69475Y-47468D01*
X68924Y-47468D01*
X68924Y-47468D01*
G37*
G36*
X40274Y-45006D02*
X40274Y-43431D01*
X40825Y-43431D01*
X40825Y-45006D01*
X40274Y-45006D01*
X40274Y-45006D01*
G37*
G36*
X40274Y-47368D02*
X40274Y-45793D01*
X40825Y-45793D01*
X40825Y-47368D01*
X40274Y-47368D01*
X40274Y-47368D01*
G37*
G36*
X59624Y-36606D02*
X59624Y-35031D01*
X60175Y-35031D01*
X60175Y-36606D01*
X59624Y-36606D01*
X59624Y-36606D01*
G37*
G36*
X59624Y-38968D02*
X59624Y-37393D01*
X60175Y-37393D01*
X60175Y-38968D01*
X59624Y-38968D01*
X59624Y-38968D01*
G37*
G36*
X51474Y-45106D02*
X51474Y-43531D01*
X52025Y-43531D01*
X52025Y-45106D01*
X51474Y-45106D01*
X51474Y-45106D01*
G37*
G36*
X51474Y-47468D02*
X51474Y-45893D01*
X52025Y-45893D01*
X52025Y-47468D01*
X51474Y-47468D01*
X51474Y-47468D01*
G37*
G36*
X68924Y-36606D02*
X68924Y-35031D01*
X69475Y-35031D01*
X69475Y-36606D01*
X68924Y-36606D01*
X68924Y-36606D01*
G37*
G36*
X68924Y-38968D02*
X68924Y-37393D01*
X69475Y-37393D01*
X69475Y-38968D01*
X68924Y-38968D01*
X68924Y-38968D01*
G37*
G36*
X59624Y-45106D02*
X59624Y-43531D01*
X60175Y-43531D01*
X60175Y-45106D01*
X59624Y-45106D01*
X59624Y-45106D01*
G37*
G36*
X59624Y-47468D02*
X59624Y-45893D01*
X60175Y-45893D01*
X60175Y-47468D01*
X59624Y-47468D01*
X59624Y-47468D01*
G37*
G54D11*
X54400Y-36400D03*
X56999Y-36400D03*
X40125Y-36725D03*
X42724Y-36725D03*
X63700Y-45600D03*
X66299Y-45600D03*
X46825Y-41325D03*
X49424Y-41325D03*
X63700Y-36400D03*
X66299Y-36400D03*
X54400Y-45600D03*
X56999Y-45600D03*
G54D12*
X28400Y-39600D03*
X28400Y-40100D03*
X28400Y-40600D03*
X28400Y-41100D03*
X28400Y-41600D03*
X28400Y-42100D03*
X28400Y-42600D03*
X28400Y-43100D03*
X32400Y-43100D03*
X32400Y-42600D03*
X32400Y-42100D03*
X32400Y-41600D03*
X32400Y-41100D03*
X32400Y-40600D03*
X32400Y-40100D03*
X32400Y-39600D03*
G54D13*
X30975Y-35150D03*
G54D14*
X31975Y-35150D03*
G54D15*
X33319Y-40600D03*
X33830Y-40600D03*
X33319Y-42100D03*
X33830Y-42100D03*
G54D16*
X74884Y-42950D03*
X74628Y-42950D03*
X74372Y-42950D03*
X74116Y-42950D03*
X74116Y-44650D03*
X74372Y-44650D03*
X74628Y-44650D03*
X74884Y-44650D03*
G54D17*
X74500Y-43800D03*
G54D16*
X74116Y-39650D03*
X74372Y-39650D03*
X74628Y-39650D03*
X74884Y-39650D03*
X74884Y-37950D03*
X74628Y-37950D03*
X74372Y-37950D03*
X74116Y-37950D03*
G54D17*
X74500Y-38800D03*
G54D18*
X37550Y-42425D03*
X37550Y-43425D03*
G54D19*
X37550Y-44425D03*
G54D18*
X37800Y-40250D03*
X37800Y-39250D03*
G54D19*
X37800Y-38250D03*
G54D20*
X48975Y-44325D03*
X47124Y-44325D03*
G54D10*
G36*
X45279Y-38333D02*
X44666Y-37720D01*
X45362Y-37025D01*
X45975Y-37637D01*
X45279Y-38333D01*
X45279Y-38333D01*
G37*
G36*
X46587Y-37025D02*
X45975Y-36412D01*
X46670Y-35716D01*
X47283Y-36329D01*
X46587Y-37025D01*
X46587Y-37025D01*
G37*
G54D20*
X48975Y-46175D03*
X47124Y-46175D03*
X47124Y-38350D03*
X48975Y-38350D03*
G54D21*
X80400Y-39429D03*
X80400Y-40570D03*
X79500Y-44429D03*
X79500Y-45570D03*
X80800Y-44429D03*
X80800Y-45570D03*
X76200Y-43570D03*
X76200Y-42429D03*
X74500Y-45429D03*
X74500Y-46570D03*
X79100Y-39429D03*
X79100Y-40570D03*
G54D22*
X74129Y-40700D03*
X75270Y-40700D03*
G54D21*
X74400Y-37170D03*
X74400Y-36029D03*
X33575Y-39795D03*
X33575Y-38654D03*
X29500Y-43729D03*
X29500Y-44870D03*
X28375Y-43729D03*
X28375Y-44870D03*
G54D23*
X77500Y-44100D03*
X76500Y-45950D03*
X78500Y-45950D03*
X77000Y-38800D03*
X76000Y-40650D03*
X78000Y-40650D03*
X30200Y-36800D03*
X29200Y-38650D03*
X31200Y-38650D03*
G54D24*
X41400Y-40325D03*
X41420Y-41325D03*
X41400Y-42325D03*
X45000Y-40325D03*
X45000Y-41325D03*
X45000Y-42325D03*
G54D11*
X63700Y-41000D03*
X66299Y-41000D03*
X54400Y-41000D03*
X56999Y-41000D03*
G54D15*
X38094Y-36225D03*
X38605Y-36225D03*
X37905Y-46400D03*
X37394Y-46400D03*
X39544Y-42700D03*
X40055Y-42700D03*
X39544Y-40000D03*
X40055Y-40000D03*
G54D22*
X39229Y-41850D03*
X40370Y-41850D03*
X39229Y-40825D03*
X40370Y-40825D03*
G54D21*
X42975Y-44929D03*
X42975Y-46070D03*
X45000Y-43679D03*
X45000Y-44820D03*
G54D22*
X52120Y-42350D03*
X50979Y-42350D03*
X59970Y-39900D03*
X58829Y-39900D03*
G54D25*
X48800Y-35700D03*
X45400Y-46800D03*
X72100Y-41600D03*
X82500Y-39200D03*
X82500Y-41600D03*
X82500Y-44000D03*
X35450Y-35100D03*
X35375Y-42375D03*
X35375Y-40325D03*
X52100Y-40500D03*
X61600Y-39200D03*
X61600Y-43800D03*
X61600Y-41500D03*
X72100Y-44000D03*
X72100Y-39300D03*
X32000Y-44500D03*
G54D26*
X32800Y-35900D03*
X36800Y-35900D03*
G54D10*
G36*
X33239Y-44446D02*
X33796Y-43889D01*
X34102Y-44196D01*
X33546Y-44752D01*
X33239Y-44446D01*
X33239Y-44446D01*
G37*
G36*
X34047Y-45253D02*
X34603Y-44697D01*
X34910Y-45003D01*
X34353Y-45560D01*
X34047Y-45253D01*
X34047Y-45253D01*
G37*
G54D18*
X33000Y-37600D03*
X34000Y-37600D03*
G54D19*
X35000Y-37600D03*
G54D10*
G36*
X34605Y-44127D02*
X34410Y-43932D01*
X34632Y-43710D01*
X34827Y-43905D01*
X34605Y-44127D01*
X34605Y-44127D01*
G37*
G36*
X34967Y-44489D02*
X34772Y-44294D01*
X34994Y-44072D01*
X35189Y-44267D01*
X34967Y-44489D01*
X34967Y-44489D01*
G37*
G54D27*
X58500Y-44400D03*
X58500Y-46300D03*
X62300Y-45300D03*
X62100Y-37000D03*
X58600Y-35500D03*
X58600Y-37400D03*
X36200Y-47400D03*
X39500Y-45300D03*
X41400Y-43200D03*
X41400Y-36500D03*
X58200Y-39200D03*
X50800Y-44450D03*
X44050Y-45000D03*
X30525Y-41000D03*
X33550Y-41325D03*
X52800Y-44700D03*
X52800Y-47300D03*
X50800Y-47100D03*
X50700Y-35700D03*
X52800Y-35000D03*
X52800Y-36900D03*
X71400Y-36600D03*
X73100Y-34800D03*
X78900Y-36400D03*
X80700Y-42100D03*
X79200Y-42700D03*
X70500Y-47300D03*
X67600Y-46400D03*
X76600Y-41800D03*
X73900Y-41800D03*
X72700Y-37300D03*
X67800Y-35600D03*
X68200Y-39900D03*
G54D28*
X59900Y-38181D02*
X59381Y-38181D01*
X58581Y-44318D02*
X59900Y-44318D01*
X58500Y-44400D02*
X58581Y-44318D01*
X58500Y-46800D02*
X58500Y-46300D01*
X59500Y-47800D02*
X58500Y-46800D01*
X60400Y-47800D02*
X59500Y-47800D01*
X60700Y-47500D02*
X60400Y-47800D01*
X60700Y-46900D02*
X60700Y-47500D01*
X62300Y-45300D02*
X60700Y-46900D01*
X62100Y-36400D02*
X62100Y-37000D01*
X60300Y-34600D02*
X62100Y-36400D01*
X59500Y-34600D02*
X60300Y-34600D01*
X58600Y-35500D02*
X59500Y-34600D01*
X59381Y-38181D02*
X58600Y-37400D01*
G54D29*
X61600Y-41500D02*
X63200Y-41500D01*
X63200Y-41500D02*
X63700Y-41000D01*
X61600Y-41500D02*
X59700Y-41500D01*
X59700Y-41500D02*
X59900Y-41700D01*
X56999Y-41000D02*
X59200Y-41000D01*
X59200Y-41000D02*
X59900Y-41700D01*
X59970Y-39900D02*
X59970Y-38251D01*
X59970Y-38251D02*
X59900Y-38181D01*
X59900Y-44318D02*
X59900Y-41700D01*
X59900Y-41700D02*
X59900Y-39970D01*
X59900Y-39970D02*
X59970Y-39900D01*
X32800Y-35900D02*
X32800Y-37400D01*
X32800Y-37400D02*
X33000Y-37600D01*
X31975Y-35150D02*
X32098Y-35150D01*
X32824Y-35875D02*
X32800Y-35900D01*
X32098Y-35150D02*
X32824Y-35875D01*
X34000Y-37600D02*
X34000Y-38229D01*
X34000Y-38229D02*
X33575Y-38654D01*
G54D30*
X37800Y-38250D02*
X37800Y-38200D01*
X34400Y-36500D02*
X34400Y-36475D01*
X34425Y-36500D02*
X34400Y-36500D01*
X36100Y-36500D02*
X34425Y-36500D01*
X37800Y-38200D02*
X36100Y-36500D01*
X35450Y-35100D02*
X38100Y-35100D01*
X34478Y-45678D02*
X34478Y-45128D01*
X36200Y-47400D02*
X34478Y-45678D01*
X39500Y-43500D02*
X39500Y-45300D01*
X39900Y-43100D02*
X39500Y-43500D01*
X41300Y-43100D02*
X39900Y-43100D01*
X41400Y-43200D02*
X41300Y-43100D01*
X41400Y-34700D02*
X41400Y-36500D01*
X41000Y-34300D02*
X41400Y-34700D01*
X38900Y-34300D02*
X41000Y-34300D01*
X38100Y-35100D02*
X38900Y-34300D01*
G54D29*
X58829Y-39900D02*
X58829Y-39829D01*
X58829Y-39829D02*
X58200Y-39200D01*
X50979Y-42350D02*
X50979Y-44270D01*
X50979Y-44270D02*
X50800Y-44450D01*
G54D28*
X37394Y-46400D02*
X37394Y-46544D01*
X37394Y-46544D02*
X38500Y-47650D01*
X38500Y-47650D02*
X42550Y-47650D01*
X42550Y-47650D02*
X43800Y-46400D01*
X43800Y-46400D02*
X43800Y-45250D01*
X43800Y-45250D02*
X44050Y-45000D01*
X44229Y-44820D02*
X45000Y-44820D01*
X44050Y-45000D02*
X44229Y-44820D01*
X37394Y-46400D02*
X35750Y-46400D01*
X35750Y-46400D02*
X34478Y-45128D01*
X32400Y-41600D02*
X33275Y-41600D01*
X30825Y-41300D02*
X30825Y-45900D01*
X30525Y-41000D02*
X30825Y-41300D01*
X33275Y-41600D02*
X33550Y-41325D01*
G54D29*
X28375Y-44870D02*
X27945Y-44870D01*
X30650Y-35150D02*
X30975Y-35150D01*
X29575Y-36225D02*
X30650Y-35150D01*
X29575Y-36800D02*
X29575Y-36225D01*
X27275Y-39100D02*
X29575Y-36800D01*
X27275Y-42125D02*
X27275Y-39100D01*
X27500Y-42350D02*
X27275Y-42125D01*
X27500Y-44425D02*
X27500Y-42350D01*
X27945Y-44870D02*
X27500Y-44425D01*
X30975Y-35150D02*
X30975Y-35125D01*
X32350Y-34425D02*
X34400Y-36475D01*
X31675Y-34425D02*
X32350Y-34425D01*
X30975Y-35125D02*
X31675Y-34425D01*
X29500Y-44870D02*
X29795Y-44870D01*
X33707Y-45900D02*
X34478Y-45128D01*
X30825Y-45900D02*
X33707Y-45900D01*
X29795Y-44870D02*
X30825Y-45900D01*
X28375Y-44870D02*
X29500Y-44870D01*
X31200Y-38650D02*
X33570Y-38650D01*
X33570Y-38650D02*
X33575Y-38654D01*
X30975Y-35150D02*
X30975Y-38425D01*
X30975Y-38425D02*
X31200Y-38650D01*
G54D31*
X74372Y-44650D02*
X74372Y-45301D01*
X74372Y-45301D02*
X74500Y-45429D01*
G54D28*
X47124Y-46175D02*
X47124Y-45850D01*
X48050Y-39275D02*
X47124Y-38350D01*
X48050Y-44925D02*
X48050Y-39275D01*
X47124Y-45850D02*
X48050Y-44925D01*
X45000Y-40325D02*
X45000Y-39550D01*
X46200Y-38350D02*
X47124Y-38350D01*
X45000Y-39550D02*
X46200Y-38350D01*
G54D31*
X74628Y-37950D02*
X74628Y-37398D01*
X74628Y-37398D02*
X74400Y-37170D01*
X74884Y-37950D02*
X74884Y-37616D01*
X73800Y-36900D02*
X73800Y-38266D01*
X74000Y-36700D02*
X73800Y-36900D01*
X74800Y-36700D02*
X74000Y-36700D01*
X75000Y-36900D02*
X74800Y-36700D01*
X75000Y-37500D02*
X75000Y-36900D01*
X74884Y-37616D02*
X75000Y-37500D01*
X72100Y-39300D02*
X72766Y-39300D01*
X72766Y-39300D02*
X73800Y-38266D01*
X73800Y-38266D02*
X74116Y-37950D01*
G54D29*
X72100Y-39300D02*
X72100Y-38718D01*
X72100Y-38718D02*
X69200Y-35818D01*
X66299Y-36400D02*
X68618Y-36400D01*
X68618Y-36400D02*
X69200Y-35818D01*
X61600Y-39200D02*
X61600Y-38500D01*
X61600Y-38500D02*
X63700Y-36400D01*
X61600Y-39200D02*
X61600Y-37518D01*
X61600Y-37518D02*
X59900Y-35818D01*
X56999Y-36400D02*
X59318Y-36400D01*
X59318Y-36400D02*
X59900Y-35818D01*
G54D28*
X80800Y-44429D02*
X82070Y-44429D01*
X82070Y-44429D02*
X82500Y-44000D01*
X79500Y-44429D02*
X80800Y-44429D01*
X79500Y-44429D02*
X78670Y-44429D01*
X77150Y-45950D02*
X76500Y-45950D01*
X78670Y-44429D02*
X77150Y-45950D01*
X76500Y-45950D02*
X76500Y-43870D01*
X76500Y-43870D02*
X76200Y-43570D01*
G54D31*
X76200Y-43570D02*
X75504Y-43570D01*
X75504Y-43570D02*
X74884Y-42950D01*
G54D28*
X80400Y-39429D02*
X82270Y-39429D01*
X82270Y-39429D02*
X82500Y-39200D01*
X79100Y-39429D02*
X80400Y-39429D01*
X76000Y-40650D02*
X76950Y-40650D01*
X78170Y-39429D02*
X79100Y-39429D01*
X76950Y-40650D02*
X78170Y-39429D01*
X74129Y-40700D02*
X74129Y-40729D01*
X76000Y-41100D02*
X76000Y-40650D01*
X75700Y-41400D02*
X76000Y-41100D01*
X74800Y-41400D02*
X75700Y-41400D01*
X74129Y-40729D02*
X74800Y-41400D01*
G54D31*
X74116Y-39650D02*
X74116Y-40686D01*
X74116Y-40686D02*
X74129Y-40700D01*
G54D28*
X35375Y-40325D02*
X35450Y-40250D01*
X35450Y-40250D02*
X37800Y-40250D01*
X33830Y-40600D02*
X35100Y-40600D01*
X35100Y-40600D02*
X35375Y-40325D01*
G54D31*
X74884Y-44650D02*
X74884Y-44884D01*
X73800Y-45600D02*
X73800Y-44334D01*
X74100Y-45900D02*
X73800Y-45600D01*
X75000Y-45900D02*
X74100Y-45900D01*
X75100Y-45800D02*
X75000Y-45900D01*
X75100Y-45100D02*
X75100Y-45800D01*
X74884Y-44884D02*
X75100Y-45100D01*
X72100Y-44000D02*
X73466Y-44000D01*
X73466Y-44000D02*
X73800Y-44334D01*
X73800Y-44334D02*
X74116Y-44650D01*
G54D29*
X66299Y-45600D02*
X68118Y-45600D01*
X68118Y-45600D02*
X69200Y-46681D01*
X72100Y-44000D02*
X71881Y-44000D01*
X71881Y-44000D02*
X69200Y-46681D01*
X40370Y-40825D02*
X40870Y-40325D01*
X40870Y-40325D02*
X41400Y-40325D01*
G54D28*
X40055Y-40000D02*
X40370Y-40314D01*
X40370Y-40314D02*
X40370Y-40825D01*
G54D29*
X39229Y-40825D02*
X38925Y-40520D01*
X38925Y-40520D02*
X38925Y-39875D01*
X37825Y-39225D02*
X37800Y-39250D01*
X38925Y-39875D02*
X38275Y-39225D01*
X38275Y-39225D02*
X37825Y-39225D01*
G54D28*
X39229Y-40825D02*
X39544Y-40510D01*
X39544Y-40510D02*
X39544Y-40000D01*
X38605Y-36225D02*
X39625Y-36225D01*
X39625Y-36225D02*
X40125Y-36725D01*
X38094Y-36225D02*
X37125Y-36225D01*
X37125Y-36225D02*
X36800Y-35900D01*
G54D29*
X45000Y-41325D02*
X46825Y-41325D01*
G54D28*
X45000Y-41325D02*
X44425Y-41325D01*
X44350Y-43029D02*
X45000Y-43679D01*
X44350Y-41400D02*
X44350Y-43029D01*
X44425Y-41325D02*
X44350Y-41400D01*
X34980Y-44280D02*
X34819Y-44280D01*
X32700Y-45200D02*
X32000Y-44500D01*
X33600Y-45200D02*
X32700Y-45200D01*
X34400Y-44400D02*
X33600Y-45200D01*
X34700Y-44400D02*
X34400Y-44400D01*
X34819Y-44280D02*
X34700Y-44400D01*
X37905Y-46400D02*
X37905Y-46205D01*
X36600Y-45900D02*
X34980Y-44280D01*
X37600Y-45900D02*
X36600Y-45900D01*
X37905Y-46205D02*
X37600Y-45900D01*
X40550Y-46581D02*
X38087Y-46581D01*
X38087Y-46581D02*
X37905Y-46400D01*
G54D29*
X42975Y-46070D02*
X41060Y-46070D01*
X41060Y-46070D02*
X40550Y-46581D01*
X42725Y-42950D02*
X42725Y-44679D01*
X42725Y-44679D02*
X42975Y-44929D01*
X42725Y-40825D02*
X42725Y-42950D01*
X42725Y-42950D02*
X42725Y-43000D01*
X41506Y-44218D02*
X40550Y-44218D01*
X42725Y-43000D02*
X41506Y-44218D01*
X42724Y-36725D02*
X42725Y-36725D01*
X42225Y-41325D02*
X41420Y-41325D01*
X42725Y-40825D02*
X42225Y-41325D01*
X42725Y-36725D02*
X42725Y-40825D01*
X39229Y-41850D02*
X38925Y-42154D01*
X38925Y-42154D02*
X38925Y-42775D01*
X38275Y-43425D02*
X37550Y-43425D01*
X38925Y-42775D02*
X38275Y-43425D01*
G54D28*
X39229Y-41850D02*
X39544Y-42164D01*
X39544Y-42164D02*
X39544Y-42700D01*
G54D29*
X40370Y-41850D02*
X40845Y-42325D01*
X40845Y-42325D02*
X41400Y-42325D01*
G54D28*
X40055Y-42700D02*
X40370Y-42385D01*
X40370Y-42385D02*
X40370Y-41850D01*
G54D29*
X61600Y-43800D02*
X61900Y-43800D01*
X61900Y-43800D02*
X63700Y-45600D01*
X61600Y-43800D02*
X61600Y-44981D01*
X61600Y-44981D02*
X59900Y-46681D01*
X56999Y-45600D02*
X58818Y-45600D01*
X58818Y-45600D02*
X59900Y-46681D01*
G54D28*
X75270Y-40700D02*
X75270Y-39929D01*
X76400Y-38800D02*
X77000Y-38800D01*
X75270Y-39929D02*
X76400Y-38800D01*
G54D31*
X74372Y-39650D02*
X74372Y-39972D01*
X75100Y-40700D02*
X75270Y-40700D01*
X74372Y-39972D02*
X75100Y-40700D01*
G54D28*
X77500Y-44100D02*
X77500Y-43000D01*
X76929Y-42429D02*
X76200Y-42429D01*
X77500Y-43000D02*
X76929Y-42429D01*
G54D31*
X74628Y-42950D02*
X74628Y-42572D01*
X74770Y-42429D02*
X76200Y-42429D01*
X74628Y-42572D02*
X74770Y-42429D01*
G54D28*
X28400Y-43100D02*
X28400Y-43704D01*
X28400Y-43704D02*
X28375Y-43729D01*
G54D29*
X35000Y-37600D02*
X35000Y-38500D01*
X33704Y-39795D02*
X33575Y-39795D01*
X35000Y-38500D02*
X33704Y-39795D01*
G54D28*
X33575Y-39795D02*
X33270Y-40100D01*
X33270Y-40100D02*
X32400Y-40100D01*
X32400Y-40100D02*
X31925Y-40100D01*
X31925Y-41100D02*
X32400Y-41100D01*
X31725Y-40900D02*
X31925Y-41100D01*
X31725Y-40300D02*
X31725Y-40900D01*
X31925Y-40100D02*
X31725Y-40300D01*
X34619Y-43919D02*
X34073Y-43919D01*
X34073Y-43919D02*
X33671Y-44321D01*
X33650Y-43275D02*
X33650Y-43250D01*
X33667Y-43275D02*
X33650Y-43275D01*
X33671Y-43271D02*
X33667Y-43275D01*
X33000Y-42600D02*
X33650Y-43250D01*
X33671Y-44321D02*
X33671Y-43271D01*
X32400Y-42600D02*
X33000Y-42600D01*
X28400Y-42100D02*
X28025Y-42100D01*
X28900Y-38950D02*
X29200Y-38650D01*
X28175Y-38950D02*
X28900Y-38950D01*
X27800Y-39325D02*
X28175Y-38950D01*
X27800Y-41875D02*
X27800Y-39325D01*
X28025Y-42100D02*
X27800Y-41875D01*
X30200Y-36800D02*
X30200Y-37650D01*
X30200Y-37650D02*
X29200Y-38650D01*
X29025Y-42425D02*
X29025Y-43254D01*
X29025Y-43254D02*
X29500Y-43729D01*
X28400Y-41600D02*
X28850Y-41600D01*
X28850Y-42600D02*
X28400Y-42600D01*
X29025Y-42425D02*
X28850Y-42600D01*
X29025Y-41775D02*
X29025Y-42425D01*
X28850Y-41600D02*
X29025Y-41775D01*
X32400Y-39600D02*
X31975Y-39600D01*
X31925Y-43100D02*
X32400Y-43100D01*
X31400Y-42575D02*
X31925Y-43100D01*
X31400Y-40175D02*
X31400Y-42575D01*
X31975Y-39600D02*
X31400Y-40175D01*
X28400Y-40100D02*
X28400Y-39600D01*
X28400Y-39600D02*
X32400Y-39600D01*
X32400Y-40600D02*
X33319Y-40600D01*
X35375Y-42375D02*
X35425Y-42425D01*
X35425Y-42425D02*
X37550Y-42425D01*
X33830Y-42100D02*
X35100Y-42100D01*
X35100Y-42100D02*
X35375Y-42375D01*
X32400Y-42100D02*
X33319Y-42100D01*
X47124Y-44325D02*
X46800Y-44325D01*
X46800Y-44325D02*
X45750Y-43275D01*
X45000Y-42325D02*
X45025Y-42325D01*
X44000Y-39000D02*
X45320Y-37679D01*
X44000Y-43850D02*
X44000Y-39000D01*
X44425Y-44275D02*
X44000Y-43850D01*
X45550Y-44275D02*
X44425Y-44275D01*
X45750Y-44075D02*
X45550Y-44275D01*
X45750Y-43050D02*
X45750Y-43275D01*
X45750Y-43275D02*
X45750Y-44075D01*
X45025Y-42325D02*
X45750Y-43050D01*
X48800Y-35700D02*
X47300Y-35700D01*
X47300Y-35700D02*
X46629Y-36370D01*
G54D29*
X51750Y-35818D02*
X53819Y-35818D01*
X53819Y-35818D02*
X54400Y-36400D01*
X48975Y-38350D02*
X49218Y-38350D01*
X49218Y-38350D02*
X51750Y-35818D01*
G54D28*
X46629Y-36370D02*
X46995Y-36370D01*
X46995Y-36370D02*
X48975Y-38350D01*
X45400Y-46800D02*
X45800Y-46800D01*
X47750Y-47400D02*
X48975Y-46175D01*
X46400Y-47400D02*
X47750Y-47400D01*
X45800Y-46800D02*
X46400Y-47400D01*
G54D29*
X51750Y-46681D02*
X53319Y-46681D01*
X53319Y-46681D02*
X54400Y-45600D01*
X48975Y-46175D02*
X51243Y-46175D01*
X51243Y-46175D02*
X51750Y-46681D01*
G54D28*
X48975Y-46175D02*
X48975Y-44325D01*
X51750Y-38181D02*
X51750Y-37950D01*
X52418Y-44318D02*
X51750Y-44318D01*
X52800Y-44700D02*
X52418Y-44318D01*
X52300Y-47800D02*
X52800Y-47300D01*
X51200Y-47800D02*
X52300Y-47800D01*
X51000Y-47600D02*
X51200Y-47800D01*
X51000Y-47300D02*
X51000Y-47600D01*
X50800Y-47100D02*
X51000Y-47300D01*
X50700Y-35300D02*
X50700Y-35700D01*
X51500Y-34500D02*
X50700Y-35300D01*
X52300Y-34500D02*
X51500Y-34500D01*
X52800Y-35000D02*
X52300Y-34500D01*
X51750Y-37950D02*
X52800Y-36900D01*
G54D29*
X54400Y-41000D02*
X52591Y-41000D01*
X52591Y-41000D02*
X52120Y-41470D01*
X51750Y-38181D02*
X51750Y-41100D01*
X51750Y-41100D02*
X52120Y-41470D01*
X52120Y-42350D02*
X52120Y-41470D01*
X52120Y-41470D02*
X52120Y-41325D01*
X51950Y-41300D02*
X51950Y-41325D01*
X52095Y-41300D02*
X51950Y-41300D01*
X52120Y-41325D02*
X52095Y-41300D01*
X51750Y-44318D02*
X51750Y-42720D01*
X51750Y-42720D02*
X52120Y-42350D01*
X49424Y-41325D02*
X51950Y-41325D01*
G54D28*
X66299Y-41000D02*
X67100Y-41000D01*
X71970Y-36029D02*
X74400Y-36029D01*
X71400Y-36600D02*
X71970Y-36029D01*
X77300Y-34800D02*
X73100Y-34800D01*
X78900Y-36400D02*
X77300Y-34800D01*
X79800Y-42100D02*
X80700Y-42100D01*
X79200Y-42700D02*
X79800Y-42100D01*
X70000Y-47800D02*
X70500Y-47300D01*
X68600Y-47800D02*
X70000Y-47800D01*
X68200Y-47400D02*
X68600Y-47800D01*
X68200Y-47000D02*
X68200Y-47400D01*
X67600Y-46400D02*
X68200Y-47000D01*
X73900Y-41800D02*
X76600Y-41800D01*
X72700Y-37000D02*
X72700Y-37300D01*
X70300Y-34600D02*
X72700Y-37000D01*
X68500Y-34600D02*
X70300Y-34600D01*
X68500Y-34900D02*
X68500Y-34600D01*
X67800Y-35600D02*
X68500Y-34900D01*
X67100Y-41000D02*
X68200Y-39900D01*
X79500Y-45570D02*
X80800Y-45570D01*
X78500Y-45950D02*
X79120Y-45950D01*
X79120Y-45950D02*
X79500Y-45570D01*
X74500Y-46570D02*
X75970Y-46570D01*
X77750Y-46700D02*
X78500Y-45950D01*
X76100Y-46700D02*
X77750Y-46700D01*
X75970Y-46570D02*
X76100Y-46700D01*
X80400Y-40570D02*
X81470Y-40570D01*
X81470Y-40570D02*
X82500Y-41600D01*
X79100Y-40570D02*
X80400Y-40570D01*
X78000Y-40650D02*
X79020Y-40650D01*
X79020Y-40650D02*
X79100Y-40570D01*
X72100Y-41600D02*
X74000Y-41600D01*
X76850Y-41800D02*
X78000Y-40650D01*
X74200Y-41800D02*
X76850Y-41800D01*
X74000Y-41600D02*
X74200Y-41800D01*
G54D29*
X74500Y-38800D02*
X75000Y-38800D01*
X75000Y-38800D02*
X75500Y-38300D01*
X75500Y-38300D02*
X75500Y-36700D01*
X75500Y-36700D02*
X74829Y-36029D01*
X74829Y-36029D02*
X74400Y-36029D01*
X74500Y-43800D02*
X75000Y-43800D01*
X75029Y-46570D02*
X74500Y-46570D01*
X75600Y-46000D02*
X75029Y-46570D01*
X75600Y-44400D02*
X75600Y-46000D01*
X75000Y-43800D02*
X75600Y-44400D01*
X74500Y-43800D02*
X74000Y-43800D01*
X73500Y-42500D02*
X72600Y-41600D01*
X73500Y-43300D02*
X73500Y-42500D01*
X74000Y-43800D02*
X73500Y-43300D01*
X72600Y-41600D02*
X72100Y-41600D01*
X74500Y-38800D02*
X74000Y-38800D01*
X74000Y-38800D02*
X73500Y-39300D01*
X73500Y-39300D02*
X73500Y-40700D01*
X73500Y-40700D02*
X72600Y-41600D01*
X72600Y-41600D02*
X72100Y-41600D01*
G54D31*
X74116Y-42950D02*
X74116Y-43416D01*
X74116Y-43416D02*
X74500Y-43800D01*
X74372Y-42950D02*
X74372Y-43672D01*
X74372Y-43672D02*
X74500Y-43800D01*
X74116Y-42950D02*
X74372Y-42950D01*
X74628Y-39650D02*
X74628Y-38928D01*
X74628Y-38928D02*
X74500Y-38800D01*
X74884Y-39650D02*
X74884Y-39184D01*
X74884Y-39184D02*
X74500Y-38800D01*
X74628Y-39650D02*
X74884Y-39650D01*
G54D29*
X69200Y-38181D02*
X69200Y-41400D01*
X69200Y-44318D02*
X69200Y-41400D01*
X69200Y-41400D02*
X69600Y-41000D01*
X66299Y-41000D02*
X69600Y-41000D01*
X69600Y-41000D02*
X71500Y-41000D01*
X71500Y-41000D02*
X72100Y-41600D01*
G54D10*
G36*
X34464Y-41349D02*
X34433Y-41362D01*
X34363Y-41433D01*
X34325Y-41525D01*
X34324Y-41624D01*
X34324Y-41750D01*
X34129Y-41750D01*
X34110Y-41730D01*
X34018Y-41692D01*
X33919Y-41692D01*
X33643Y-41692D01*
X33574Y-41720D01*
X33506Y-41692D01*
X33407Y-41692D01*
X33131Y-41692D01*
X33039Y-41730D01*
X33025Y-41745D01*
X33025Y-41712D01*
X32962Y-41650D01*
X32450Y-41650D01*
X32450Y-41657D01*
X32350Y-41657D01*
X32350Y-41650D01*
X31837Y-41650D01*
X31775Y-41712D01*
X31774Y-41774D01*
X31806Y-41850D01*
X31775Y-41925D01*
X31774Y-42024D01*
X31774Y-42274D01*
X31806Y-42350D01*
X31775Y-42425D01*
X31775Y-42455D01*
X31750Y-42430D01*
X31750Y-41395D01*
X31779Y-41415D01*
X31774Y-41425D01*
X31775Y-41487D01*
X31837Y-41550D01*
X32350Y-41550D01*
X32350Y-41542D01*
X32450Y-41542D01*
X32450Y-41550D01*
X32962Y-41550D01*
X33025Y-41487D01*
X33025Y-41425D01*
X32993Y-41349D01*
X33024Y-41274D01*
X33025Y-41175D01*
X33025Y-40954D01*
X33039Y-40969D01*
X33131Y-41007D01*
X33230Y-41007D01*
X33506Y-41007D01*
X33575Y-40979D01*
X33643Y-41007D01*
X33742Y-41007D01*
X34018Y-41007D01*
X34110Y-40969D01*
X34129Y-40950D01*
X34324Y-40950D01*
X34324Y-41174D01*
X34362Y-41266D01*
X34433Y-41336D01*
X34464Y-41349D01*
X34464Y-41349D01*
G37*
G54D30*
X34464Y-41349D02*
X34433Y-41362D01*
X34363Y-41433D01*
X34325Y-41525D01*
X34324Y-41624D01*
X34324Y-41750D01*
X34129Y-41750D01*
X34110Y-41730D01*
X34018Y-41692D01*
X33919Y-41692D01*
X33643Y-41692D01*
X33574Y-41720D01*
X33506Y-41692D01*
X33407Y-41692D01*
X33131Y-41692D01*
X33039Y-41730D01*
X33025Y-41745D01*
X33025Y-41712D01*
X32962Y-41650D01*
X32450Y-41650D01*
X32450Y-41657D01*
X32350Y-41657D01*
X32350Y-41650D01*
X31837Y-41650D01*
X31775Y-41712D01*
X31774Y-41774D01*
X31806Y-41850D01*
X31775Y-41925D01*
X31774Y-42024D01*
X31774Y-42274D01*
X31806Y-42350D01*
X31775Y-42425D01*
X31775Y-42455D01*
X31750Y-42430D01*
X31750Y-41395D01*
X31779Y-41415D01*
X31774Y-41425D01*
X31775Y-41487D01*
X31837Y-41550D01*
X32350Y-41550D01*
X32350Y-41542D01*
X32450Y-41542D01*
X32450Y-41550D01*
X32962Y-41550D01*
X33025Y-41487D01*
X33025Y-41425D01*
X32993Y-41349D01*
X33024Y-41274D01*
X33025Y-41175D01*
X33025Y-40954D01*
X33039Y-40969D01*
X33131Y-41007D01*
X33230Y-41007D01*
X33506Y-41007D01*
X33575Y-40979D01*
X33643Y-41007D01*
X33742Y-41007D01*
X34018Y-41007D01*
X34110Y-40969D01*
X34129Y-40950D01*
X34324Y-40950D01*
X34324Y-41174D01*
X34362Y-41266D01*
X34433Y-41336D01*
X34464Y-41349D01*
G54D10*
G36*
X43950Y-46479D02*
X42479Y-47950D01*
X42250Y-47950D01*
X37344Y-47950D01*
X37344Y-46744D01*
X37344Y-46450D01*
X37068Y-46450D01*
X37006Y-46512D01*
X37006Y-46606D01*
X37044Y-46698D01*
X37114Y-46769D01*
X37206Y-46807D01*
X37305Y-46807D01*
X37281Y-46807D01*
X37344Y-46744D01*
X37344Y-47950D01*
X34729Y-47950D01*
X34729Y-45538D01*
X34729Y-45449D01*
X34478Y-45199D01*
X34103Y-45574D01*
X34103Y-45663D01*
X34211Y-45771D01*
X34303Y-45810D01*
X34402Y-45810D01*
X34494Y-45772D01*
X34565Y-45701D01*
X34729Y-45538D01*
X34729Y-47950D01*
X30270Y-47950D01*
X30143Y-47823D01*
X30143Y-45136D01*
X30143Y-44604D01*
X30105Y-44512D01*
X30035Y-44442D01*
X29943Y-44404D01*
X29844Y-44404D01*
X29612Y-44404D01*
X29550Y-44466D01*
X29550Y-44820D01*
X30081Y-44820D01*
X30143Y-44758D01*
X30143Y-44604D01*
X30143Y-45136D01*
X30143Y-44983D01*
X30081Y-44920D01*
X29550Y-44920D01*
X29550Y-45274D01*
X29612Y-45337D01*
X29844Y-45337D01*
X29943Y-45337D01*
X30035Y-45299D01*
X30105Y-45228D01*
X30143Y-45136D01*
X30143Y-47823D01*
X29450Y-47129D01*
X29450Y-45274D01*
X29450Y-44920D01*
X29450Y-44820D01*
X29450Y-44466D01*
X29387Y-44404D01*
X29155Y-44404D01*
X29056Y-44404D01*
X28964Y-44442D01*
X28937Y-44469D01*
X28910Y-44442D01*
X28818Y-44404D01*
X28719Y-44404D01*
X28487Y-44404D01*
X28425Y-44466D01*
X28425Y-44820D01*
X28918Y-44820D01*
X28956Y-44820D01*
X29450Y-44820D01*
X29450Y-44920D01*
X28956Y-44920D01*
X28918Y-44920D01*
X28425Y-44920D01*
X28425Y-45274D01*
X28487Y-45337D01*
X28719Y-45337D01*
X28818Y-45337D01*
X28910Y-45299D01*
X28937Y-45272D01*
X28964Y-45299D01*
X29056Y-45337D01*
X29155Y-45337D01*
X29387Y-45337D01*
X29450Y-45274D01*
X29450Y-47129D01*
X29285Y-46964D01*
X28325Y-46004D01*
X28325Y-45274D01*
X28325Y-44920D01*
X28325Y-44820D01*
X28325Y-44466D01*
X28262Y-44404D01*
X28030Y-44404D01*
X27931Y-44404D01*
X27839Y-44442D01*
X27769Y-44512D01*
X27731Y-44604D01*
X27731Y-44758D01*
X27793Y-44820D01*
X28325Y-44820D01*
X28325Y-44920D01*
X27793Y-44920D01*
X27731Y-44983D01*
X27731Y-45136D01*
X27769Y-45228D01*
X27839Y-45299D01*
X27931Y-45337D01*
X28030Y-45337D01*
X28262Y-45337D01*
X28325Y-45274D01*
X28325Y-46004D01*
X26869Y-44548D01*
X26869Y-38201D01*
X31001Y-34069D01*
X34552Y-34069D01*
X34508Y-34087D01*
X34438Y-34158D01*
X34400Y-34250D01*
X34399Y-34349D01*
X34400Y-34987D01*
X34462Y-35050D01*
X35400Y-35050D01*
X35400Y-35042D01*
X35500Y-35042D01*
X35500Y-35050D01*
X36437Y-35050D01*
X36500Y-34987D01*
X36500Y-34349D01*
X36499Y-34250D01*
X36461Y-34158D01*
X36391Y-34087D01*
X36347Y-34069D01*
X43248Y-34069D01*
X43950Y-34770D01*
X43950Y-38555D01*
X43752Y-38752D01*
X43676Y-38866D01*
X43663Y-38933D01*
X43663Y-38683D01*
X43663Y-34667D01*
X43625Y-34575D01*
X43554Y-34505D01*
X43463Y-34467D01*
X43363Y-34467D01*
X41985Y-34467D01*
X41893Y-34505D01*
X41823Y-34575D01*
X41785Y-34667D01*
X41785Y-34766D01*
X41785Y-38782D01*
X41823Y-38874D01*
X41893Y-38944D01*
X41985Y-38982D01*
X42084Y-38982D01*
X42179Y-38982D01*
X42179Y-40599D01*
X41999Y-40779D01*
X41682Y-40779D01*
X41704Y-40765D01*
X41854Y-40765D01*
X41946Y-40727D01*
X42016Y-40656D01*
X42054Y-40564D01*
X42055Y-40465D01*
X42055Y-40085D01*
X42017Y-39993D01*
X41946Y-39923D01*
X41854Y-39885D01*
X41755Y-39884D01*
X41704Y-39884D01*
X41608Y-39821D01*
X41400Y-39779D01*
X41064Y-39779D01*
X41064Y-38683D01*
X41064Y-34667D01*
X41026Y-34575D01*
X40956Y-34505D01*
X40864Y-34467D01*
X40765Y-34467D01*
X39387Y-34467D01*
X39295Y-34505D01*
X39224Y-34575D01*
X39186Y-34667D01*
X39186Y-34766D01*
X39186Y-35875D01*
X38904Y-35875D01*
X38885Y-35855D01*
X38793Y-35817D01*
X38694Y-35817D01*
X38418Y-35817D01*
X38349Y-35845D01*
X38281Y-35817D01*
X38182Y-35817D01*
X37906Y-35817D01*
X37814Y-35855D01*
X37795Y-35875D01*
X37350Y-35875D01*
X37350Y-35791D01*
X37266Y-35588D01*
X37111Y-35434D01*
X36909Y-35350D01*
X36691Y-35349D01*
X36500Y-35428D01*
X36500Y-35212D01*
X36437Y-35150D01*
X35500Y-35150D01*
X35500Y-36087D01*
X35562Y-36150D01*
X36299Y-36150D01*
X36306Y-36146D01*
X36333Y-36211D01*
X36488Y-36365D01*
X36690Y-36449D01*
X36855Y-36450D01*
X36877Y-36472D01*
X36991Y-36548D01*
X37125Y-36575D01*
X37795Y-36575D01*
X37814Y-36594D01*
X37906Y-36632D01*
X38005Y-36632D01*
X38281Y-36632D01*
X38350Y-36604D01*
X38418Y-36632D01*
X38517Y-36632D01*
X38793Y-36632D01*
X38885Y-36594D01*
X38904Y-36575D01*
X39186Y-36575D01*
X39186Y-38782D01*
X39224Y-38874D01*
X39295Y-38944D01*
X39386Y-38982D01*
X39486Y-38982D01*
X40864Y-38982D01*
X40956Y-38944D01*
X41026Y-38874D01*
X41064Y-38782D01*
X41064Y-38683D01*
X41064Y-39779D01*
X40870Y-39779D01*
X40662Y-39821D01*
X40488Y-39937D01*
X40443Y-39892D01*
X40443Y-39793D01*
X40405Y-39701D01*
X40335Y-39630D01*
X40243Y-39592D01*
X40144Y-39592D01*
X39868Y-39592D01*
X39799Y-39620D01*
X39731Y-39592D01*
X39632Y-39592D01*
X39379Y-39592D01*
X39310Y-39489D01*
X39310Y-39489D01*
X38660Y-38839D01*
X38483Y-38721D01*
X38379Y-38700D01*
X38399Y-38649D01*
X38400Y-38550D01*
X38400Y-37949D01*
X38399Y-37850D01*
X38361Y-37758D01*
X38291Y-37687D01*
X38199Y-37649D01*
X37912Y-37650D01*
X37850Y-37712D01*
X37850Y-38200D01*
X38337Y-38200D01*
X38400Y-38137D01*
X38400Y-37949D01*
X38400Y-38550D01*
X38400Y-38362D01*
X38337Y-38300D01*
X37850Y-38300D01*
X37850Y-38307D01*
X37750Y-38307D01*
X37750Y-38300D01*
X37750Y-38200D01*
X37750Y-37712D01*
X37687Y-37650D01*
X37400Y-37649D01*
X37308Y-37687D01*
X37238Y-37758D01*
X37200Y-37850D01*
X37199Y-37949D01*
X37200Y-38137D01*
X37262Y-38200D01*
X37750Y-38200D01*
X37750Y-38300D01*
X37262Y-38300D01*
X37200Y-38362D01*
X37199Y-38550D01*
X37200Y-38649D01*
X37238Y-38741D01*
X37308Y-38812D01*
X37365Y-38835D01*
X37291Y-38909D01*
X37200Y-39130D01*
X37199Y-39368D01*
X37291Y-39589D01*
X37451Y-39750D01*
X37301Y-39900D01*
X36425Y-39900D01*
X36425Y-39475D01*
X36387Y-39383D01*
X36316Y-39313D01*
X36224Y-39275D01*
X36125Y-39274D01*
X34996Y-39274D01*
X35385Y-38885D01*
X35385Y-38885D01*
X35385Y-38885D01*
X35503Y-38708D01*
X35545Y-38500D01*
X35545Y-38500D01*
X35545Y-38108D01*
X35561Y-38091D01*
X35599Y-37999D01*
X35600Y-37900D01*
X35600Y-37200D01*
X35562Y-37108D01*
X35491Y-37038D01*
X35400Y-37000D01*
X35400Y-36087D01*
X35400Y-35150D01*
X34462Y-35150D01*
X34400Y-35212D01*
X34399Y-35850D01*
X34400Y-35949D01*
X34438Y-36041D01*
X34508Y-36112D01*
X34600Y-36150D01*
X35337Y-36150D01*
X35400Y-36087D01*
X35400Y-37000D01*
X35399Y-37000D01*
X35300Y-36999D01*
X34600Y-36999D01*
X34508Y-37037D01*
X34438Y-37108D01*
X34418Y-37154D01*
X34396Y-37132D01*
X34351Y-37177D01*
X34317Y-37077D01*
X34093Y-36995D01*
X33855Y-37005D01*
X33682Y-37077D01*
X33648Y-37177D01*
X34000Y-37529D01*
X34005Y-37523D01*
X34076Y-37594D01*
X34070Y-37600D01*
X34076Y-37605D01*
X34005Y-37676D01*
X34000Y-37670D01*
X33929Y-37741D01*
X33929Y-37600D01*
X33577Y-37248D01*
X33512Y-37270D01*
X33508Y-37260D01*
X33345Y-37096D01*
X33345Y-36021D01*
X33349Y-36009D01*
X33349Y-35974D01*
X33369Y-35875D01*
X33369Y-35875D01*
X33369Y-35875D01*
X33327Y-35667D01*
X33327Y-35667D01*
X33280Y-35596D01*
X33209Y-35490D01*
X33209Y-35490D01*
X32483Y-34764D01*
X32307Y-34646D01*
X32098Y-34604D01*
X31975Y-34604D01*
X31873Y-34624D01*
X31871Y-34624D01*
X31868Y-34625D01*
X31766Y-34646D01*
X31680Y-34703D01*
X31678Y-34704D01*
X31676Y-34706D01*
X31589Y-34764D01*
X31531Y-34850D01*
X31530Y-34852D01*
X31529Y-34854D01*
X31500Y-34898D01*
X31499Y-34825D01*
X31461Y-34733D01*
X31391Y-34662D01*
X31299Y-34624D01*
X31087Y-34625D01*
X31025Y-34687D01*
X31025Y-35100D01*
X31032Y-35100D01*
X31032Y-35200D01*
X31025Y-35200D01*
X31025Y-35612D01*
X31087Y-35675D01*
X31299Y-35675D01*
X31391Y-35637D01*
X31461Y-35566D01*
X31499Y-35474D01*
X31500Y-35401D01*
X31528Y-35444D01*
X31529Y-35447D01*
X31531Y-35448D01*
X31589Y-35535D01*
X31675Y-35593D01*
X31677Y-35594D01*
X31679Y-35595D01*
X31766Y-35653D01*
X31847Y-35669D01*
X32254Y-36077D01*
X32254Y-37400D01*
X32296Y-37608D01*
X32414Y-37785D01*
X32436Y-37807D01*
X32491Y-37939D01*
X32659Y-38108D01*
X32880Y-38199D01*
X33101Y-38200D01*
X33039Y-38225D01*
X32969Y-38296D01*
X32931Y-38388D01*
X32931Y-38541D01*
X32993Y-38604D01*
X33525Y-38604D01*
X33525Y-38250D01*
X33462Y-38187D01*
X33230Y-38187D01*
X33149Y-38187D01*
X33339Y-38108D01*
X33508Y-37940D01*
X33512Y-37929D01*
X33577Y-37951D01*
X33929Y-37600D01*
X33929Y-37741D01*
X33648Y-38022D01*
X33682Y-38122D01*
X33859Y-38187D01*
X33687Y-38187D01*
X33625Y-38250D01*
X33625Y-38604D01*
X33632Y-38604D01*
X33632Y-38704D01*
X33625Y-38704D01*
X33625Y-39058D01*
X33647Y-39081D01*
X33525Y-39203D01*
X33525Y-39058D01*
X33525Y-38704D01*
X32993Y-38704D01*
X32931Y-38766D01*
X32931Y-38920D01*
X32969Y-39012D01*
X33039Y-39082D01*
X33131Y-39120D01*
X33230Y-39120D01*
X33462Y-39120D01*
X33525Y-39058D01*
X33525Y-39203D01*
X33454Y-39274D01*
X33366Y-39292D01*
X33310Y-39329D01*
X33131Y-39329D01*
X33039Y-39367D01*
X33012Y-39394D01*
X32987Y-39333D01*
X32916Y-39263D01*
X32824Y-39225D01*
X32725Y-39224D01*
X31975Y-39224D01*
X31914Y-39250D01*
X31503Y-39250D01*
X31511Y-39241D01*
X31549Y-39149D01*
X31550Y-39050D01*
X31550Y-38249D01*
X31549Y-38150D01*
X31511Y-38058D01*
X31441Y-37987D01*
X31349Y-37949D01*
X31312Y-37950D01*
X31250Y-38012D01*
X31250Y-38600D01*
X31487Y-38600D01*
X31550Y-38537D01*
X31550Y-38249D01*
X31550Y-39050D01*
X31550Y-38762D01*
X31487Y-38700D01*
X31250Y-38700D01*
X31250Y-38707D01*
X31150Y-38707D01*
X31150Y-38700D01*
X31150Y-38600D01*
X31150Y-38012D01*
X31087Y-37950D01*
X31050Y-37949D01*
X30958Y-37987D01*
X30925Y-38021D01*
X30925Y-35612D01*
X30925Y-35200D01*
X30925Y-35100D01*
X30925Y-34687D01*
X30862Y-34625D01*
X30650Y-34624D01*
X30558Y-34662D01*
X30488Y-34733D01*
X30450Y-34825D01*
X30449Y-34924D01*
X30450Y-35037D01*
X30512Y-35100D01*
X30925Y-35100D01*
X30925Y-35200D01*
X30512Y-35200D01*
X30450Y-35262D01*
X30449Y-35375D01*
X30450Y-35474D01*
X30488Y-35566D01*
X30558Y-35637D01*
X30650Y-35675D01*
X30862Y-35675D01*
X30925Y-35612D01*
X30925Y-38021D01*
X30888Y-38058D01*
X30850Y-38150D01*
X30849Y-38249D01*
X30850Y-38537D01*
X30912Y-38600D01*
X31150Y-38600D01*
X31150Y-38700D01*
X30912Y-38700D01*
X30850Y-38762D01*
X30849Y-39050D01*
X30850Y-39149D01*
X30888Y-39241D01*
X30896Y-39250D01*
X29503Y-39250D01*
X29511Y-39241D01*
X29549Y-39149D01*
X29550Y-39050D01*
X29550Y-38794D01*
X30447Y-37897D01*
X30523Y-37783D01*
X30550Y-37650D01*
X30550Y-37249D01*
X30550Y-37200D01*
X30550Y-36300D01*
X30512Y-36208D01*
X30441Y-36138D01*
X30349Y-36100D01*
X30250Y-36099D01*
X30050Y-36099D01*
X29958Y-36137D01*
X29888Y-36208D01*
X29850Y-36300D01*
X29849Y-36399D01*
X29849Y-37299D01*
X29850Y-37299D01*
X29850Y-37505D01*
X29388Y-37966D01*
X29349Y-37950D01*
X29250Y-37949D01*
X29050Y-37949D01*
X28958Y-37987D01*
X28888Y-38058D01*
X28850Y-38150D01*
X28849Y-38249D01*
X28849Y-38505D01*
X28755Y-38600D01*
X28175Y-38600D01*
X28041Y-38626D01*
X27927Y-38702D01*
X27552Y-39077D01*
X27476Y-39191D01*
X27450Y-39325D01*
X27450Y-41875D01*
X27476Y-42008D01*
X27552Y-42122D01*
X27777Y-42347D01*
X27800Y-42363D01*
X27775Y-42425D01*
X27774Y-42524D01*
X27774Y-42774D01*
X27806Y-42850D01*
X27775Y-42925D01*
X27774Y-43024D01*
X27774Y-43274D01*
X27801Y-43338D01*
X27769Y-43370D01*
X27731Y-43462D01*
X27731Y-43562D01*
X27731Y-43995D01*
X27769Y-44087D01*
X27839Y-44157D01*
X27931Y-44195D01*
X28030Y-44195D01*
X28818Y-44195D01*
X28910Y-44157D01*
X28937Y-44130D01*
X28964Y-44157D01*
X29056Y-44195D01*
X29155Y-44195D01*
X29943Y-44195D01*
X30035Y-44157D01*
X30105Y-44087D01*
X30143Y-43995D01*
X30143Y-43896D01*
X30143Y-43463D01*
X30105Y-43371D01*
X30035Y-43300D01*
X29943Y-43262D01*
X29844Y-43262D01*
X29528Y-43262D01*
X29375Y-43109D01*
X29375Y-42425D01*
X29375Y-41775D01*
X29374Y-41774D01*
X29348Y-41641D01*
X29272Y-41527D01*
X29272Y-41527D01*
X29097Y-41352D01*
X29015Y-41297D01*
X29024Y-41274D01*
X29025Y-41175D01*
X29025Y-40925D01*
X28993Y-40849D01*
X29024Y-40774D01*
X29025Y-40675D01*
X29025Y-40425D01*
X28993Y-40349D01*
X29024Y-40274D01*
X29025Y-40175D01*
X29025Y-39950D01*
X31137Y-39950D01*
X31076Y-40041D01*
X31050Y-40175D01*
X31050Y-42575D01*
X31076Y-42708D01*
X31152Y-42822D01*
X31677Y-43347D01*
X31677Y-43347D01*
X31791Y-43423D01*
X31905Y-43446D01*
X31905Y-43446D01*
X31914Y-43449D01*
X31150Y-43449D01*
X31058Y-43487D01*
X30988Y-43558D01*
X30950Y-43650D01*
X30949Y-43749D01*
X30949Y-45349D01*
X30987Y-45441D01*
X31058Y-45511D01*
X31150Y-45549D01*
X31249Y-45550D01*
X32849Y-45550D01*
X32849Y-45550D01*
X33600Y-45550D01*
X33733Y-45523D01*
X33733Y-45523D01*
X33847Y-45447D01*
X33867Y-45427D01*
X33943Y-45504D01*
X34032Y-45504D01*
X34407Y-45128D01*
X34402Y-45123D01*
X34473Y-45052D01*
X34478Y-45057D01*
X34484Y-45052D01*
X34554Y-45123D01*
X34549Y-45128D01*
X34799Y-45379D01*
X34888Y-45379D01*
X35051Y-45215D01*
X35122Y-45144D01*
X35160Y-45052D01*
X35160Y-44955D01*
X36352Y-46147D01*
X36352Y-46147D01*
X36466Y-46223D01*
X36599Y-46249D01*
X36600Y-46250D01*
X37006Y-46250D01*
X37006Y-46287D01*
X37068Y-46350D01*
X37344Y-46350D01*
X37344Y-46342D01*
X37444Y-46342D01*
X37444Y-46350D01*
X37451Y-46350D01*
X37451Y-46450D01*
X37444Y-46450D01*
X37444Y-46744D01*
X37506Y-46807D01*
X37482Y-46807D01*
X37581Y-46807D01*
X37650Y-46779D01*
X37718Y-46807D01*
X37817Y-46807D01*
X37818Y-46807D01*
X37839Y-46828D01*
X37953Y-46904D01*
X38087Y-46931D01*
X40024Y-46931D01*
X40024Y-47418D01*
X40062Y-47509D01*
X40132Y-47580D01*
X40224Y-47618D01*
X40323Y-47618D01*
X40875Y-47618D01*
X40967Y-47580D01*
X41037Y-47510D01*
X41075Y-47418D01*
X41075Y-47318D01*
X41075Y-46826D01*
X41286Y-46616D01*
X42975Y-46616D01*
X43183Y-46574D01*
X43239Y-46537D01*
X43418Y-46537D01*
X43510Y-46499D01*
X43580Y-46429D01*
X43618Y-46337D01*
X43618Y-46237D01*
X43618Y-45804D01*
X43580Y-45712D01*
X43510Y-45642D01*
X43418Y-45604D01*
X43319Y-45604D01*
X43239Y-45604D01*
X43183Y-45567D01*
X42975Y-45525D01*
X41060Y-45525D01*
X41060Y-45525D01*
X40905Y-45556D01*
X40875Y-45543D01*
X40776Y-45543D01*
X40224Y-45543D01*
X40132Y-45581D01*
X40062Y-45651D01*
X40024Y-45743D01*
X40024Y-45843D01*
X40024Y-46231D01*
X38293Y-46231D01*
X38293Y-46193D01*
X38255Y-46101D01*
X38229Y-46075D01*
X38229Y-46071D01*
X38153Y-45958D01*
X38153Y-45958D01*
X38150Y-45955D01*
X38150Y-44725D01*
X38150Y-44537D01*
X38087Y-44475D01*
X37600Y-44475D01*
X37600Y-44962D01*
X37662Y-45025D01*
X37949Y-45025D01*
X38041Y-44987D01*
X38111Y-44916D01*
X38149Y-44824D01*
X38150Y-44725D01*
X38150Y-45955D01*
X37847Y-45652D01*
X37733Y-45576D01*
X37600Y-45550D01*
X37500Y-45550D01*
X37500Y-44962D01*
X37500Y-44475D01*
X37012Y-44475D01*
X36950Y-44537D01*
X36949Y-44725D01*
X36950Y-44824D01*
X36988Y-44916D01*
X37058Y-44987D01*
X37150Y-45025D01*
X37437Y-45025D01*
X37500Y-44962D01*
X37500Y-45550D01*
X36744Y-45550D01*
X35439Y-44244D01*
X35439Y-44217D01*
X35401Y-44125D01*
X35331Y-44055D01*
X35136Y-43860D01*
X35068Y-43831D01*
X35039Y-43763D01*
X34969Y-43693D01*
X34774Y-43498D01*
X34682Y-43460D01*
X34583Y-43460D01*
X34491Y-43498D01*
X34421Y-43568D01*
X34420Y-43569D01*
X34073Y-43569D01*
X34021Y-43579D01*
X34021Y-43271D01*
X33994Y-43137D01*
X33994Y-43137D01*
X33918Y-43023D01*
X33906Y-43015D01*
X33897Y-43002D01*
X33402Y-42507D01*
X33506Y-42507D01*
X33575Y-42479D01*
X33643Y-42507D01*
X33742Y-42507D01*
X34018Y-42507D01*
X34110Y-42469D01*
X34129Y-42450D01*
X34324Y-42450D01*
X34324Y-43224D01*
X34362Y-43316D01*
X34433Y-43386D01*
X34525Y-43424D01*
X34624Y-43425D01*
X36224Y-43425D01*
X36316Y-43387D01*
X36386Y-43316D01*
X36424Y-43224D01*
X36425Y-43125D01*
X36425Y-42775D01*
X37051Y-42775D01*
X37201Y-42925D01*
X37041Y-43084D01*
X36950Y-43305D01*
X36949Y-43543D01*
X37041Y-43764D01*
X37115Y-43839D01*
X37058Y-43862D01*
X36988Y-43933D01*
X36950Y-44025D01*
X36949Y-44124D01*
X36950Y-44312D01*
X37012Y-44375D01*
X37500Y-44375D01*
X37500Y-44367D01*
X37600Y-44367D01*
X37600Y-44375D01*
X38087Y-44375D01*
X38150Y-44312D01*
X38150Y-44124D01*
X38149Y-44025D01*
X38127Y-43970D01*
X38275Y-43970D01*
X38483Y-43928D01*
X38483Y-43928D01*
X38660Y-43810D01*
X39310Y-43160D01*
X39310Y-43160D01*
X39310Y-43160D01*
X39348Y-43104D01*
X39356Y-43107D01*
X39455Y-43107D01*
X39731Y-43107D01*
X39800Y-43079D01*
X39868Y-43107D01*
X39967Y-43107D01*
X40243Y-43107D01*
X40335Y-43069D01*
X40405Y-42999D01*
X40443Y-42907D01*
X40443Y-42807D01*
X40443Y-42807D01*
X40508Y-42742D01*
X40637Y-42828D01*
X40845Y-42870D01*
X41400Y-42870D01*
X41608Y-42828D01*
X41704Y-42765D01*
X41854Y-42765D01*
X41946Y-42727D01*
X42016Y-42656D01*
X42054Y-42564D01*
X42055Y-42465D01*
X42055Y-42085D01*
X42017Y-41993D01*
X41946Y-41923D01*
X41854Y-41885D01*
X41755Y-41884D01*
X41704Y-41884D01*
X41682Y-41870D01*
X42179Y-41870D01*
X42179Y-42774D01*
X41280Y-43673D01*
X41075Y-43673D01*
X41075Y-43381D01*
X41037Y-43290D01*
X40967Y-43219D01*
X40875Y-43181D01*
X40776Y-43181D01*
X40224Y-43181D01*
X40132Y-43219D01*
X40062Y-43289D01*
X40024Y-43381D01*
X40024Y-43481D01*
X40024Y-44120D01*
X40004Y-44218D01*
X40024Y-44317D01*
X40024Y-45055D01*
X40062Y-45147D01*
X40132Y-45218D01*
X40224Y-45256D01*
X40323Y-45256D01*
X40875Y-45256D01*
X40967Y-45218D01*
X41037Y-45148D01*
X41075Y-45056D01*
X41075Y-44956D01*
X41075Y-44764D01*
X41506Y-44764D01*
X41714Y-44722D01*
X41714Y-44722D01*
X41891Y-44604D01*
X42179Y-44316D01*
X42179Y-44679D01*
X42221Y-44887D01*
X42331Y-45052D01*
X42331Y-45195D01*
X42369Y-45287D01*
X42439Y-45357D01*
X42531Y-45395D01*
X42630Y-45395D01*
X42710Y-45395D01*
X42766Y-45432D01*
X42975Y-45474D01*
X43183Y-45432D01*
X43239Y-45395D01*
X43418Y-45395D01*
X43510Y-45357D01*
X43580Y-45287D01*
X43618Y-45195D01*
X43618Y-45096D01*
X43618Y-44663D01*
X43580Y-44571D01*
X43510Y-44500D01*
X43418Y-44462D01*
X43319Y-44462D01*
X43279Y-44462D01*
X43270Y-44453D01*
X43270Y-43000D01*
X43270Y-42950D01*
X43270Y-40825D01*
X43270Y-38982D01*
X43462Y-38982D01*
X43554Y-38944D01*
X43625Y-38874D01*
X43663Y-38782D01*
X43663Y-38683D01*
X43663Y-38933D01*
X43650Y-39000D01*
X43650Y-43850D01*
X43676Y-43983D01*
X43752Y-44097D01*
X43950Y-44294D01*
X43950Y-46479D01*
X43950Y-46479D01*
G37*
G54D30*
X43950Y-46479D02*
X42479Y-47950D01*
X42250Y-47950D01*
X37344Y-47950D01*
X37344Y-46744D01*
X37344Y-46450D01*
X37068Y-46450D01*
X37006Y-46512D01*
X37006Y-46606D01*
X37044Y-46698D01*
X37114Y-46769D01*
X37206Y-46807D01*
X37305Y-46807D01*
X37281Y-46807D01*
X37344Y-46744D01*
X37344Y-47950D01*
X34729Y-47950D01*
X34729Y-45538D01*
X34729Y-45449D01*
X34478Y-45199D01*
X34103Y-45574D01*
X34103Y-45663D01*
X34211Y-45771D01*
X34303Y-45810D01*
X34402Y-45810D01*
X34494Y-45772D01*
X34565Y-45701D01*
X34729Y-45538D01*
X34729Y-47950D01*
X30270Y-47950D01*
X30143Y-47823D01*
X30143Y-45136D01*
X30143Y-44604D01*
X30105Y-44512D01*
X30035Y-44442D01*
X29943Y-44404D01*
X29844Y-44404D01*
X29612Y-44404D01*
X29550Y-44466D01*
X29550Y-44820D01*
X30081Y-44820D01*
X30143Y-44758D01*
X30143Y-44604D01*
X30143Y-45136D01*
X30143Y-44983D01*
X30081Y-44920D01*
X29550Y-44920D01*
X29550Y-45274D01*
X29612Y-45337D01*
X29844Y-45337D01*
X29943Y-45337D01*
X30035Y-45299D01*
X30105Y-45228D01*
X30143Y-45136D01*
X30143Y-47823D01*
X29450Y-47129D01*
X29450Y-45274D01*
X29450Y-44920D01*
X29450Y-44820D01*
X29450Y-44466D01*
X29387Y-44404D01*
X29155Y-44404D01*
X29056Y-44404D01*
X28964Y-44442D01*
X28937Y-44469D01*
X28910Y-44442D01*
X28818Y-44404D01*
X28719Y-44404D01*
X28487Y-44404D01*
X28425Y-44466D01*
X28425Y-44820D01*
X28918Y-44820D01*
X28956Y-44820D01*
X29450Y-44820D01*
X29450Y-44920D01*
X28956Y-44920D01*
X28918Y-44920D01*
X28425Y-44920D01*
X28425Y-45274D01*
X28487Y-45337D01*
X28719Y-45337D01*
X28818Y-45337D01*
X28910Y-45299D01*
X28937Y-45272D01*
X28964Y-45299D01*
X29056Y-45337D01*
X29155Y-45337D01*
X29387Y-45337D01*
X29450Y-45274D01*
X29450Y-47129D01*
X29285Y-46964D01*
X28325Y-46004D01*
X28325Y-45274D01*
X28325Y-44920D01*
X28325Y-44820D01*
X28325Y-44466D01*
X28262Y-44404D01*
X28030Y-44404D01*
X27931Y-44404D01*
X27839Y-44442D01*
X27769Y-44512D01*
X27731Y-44604D01*
X27731Y-44758D01*
X27793Y-44820D01*
X28325Y-44820D01*
X28325Y-44920D01*
X27793Y-44920D01*
X27731Y-44983D01*
X27731Y-45136D01*
X27769Y-45228D01*
X27839Y-45299D01*
X27931Y-45337D01*
X28030Y-45337D01*
X28262Y-45337D01*
X28325Y-45274D01*
X28325Y-46004D01*
X26869Y-44548D01*
X26869Y-38201D01*
X31001Y-34069D01*
X34552Y-34069D01*
X34508Y-34087D01*
X34438Y-34158D01*
X34400Y-34250D01*
X34399Y-34349D01*
X34400Y-34987D01*
X34462Y-35050D01*
X35400Y-35050D01*
X35400Y-35042D01*
X35500Y-35042D01*
X35500Y-35050D01*
X36437Y-35050D01*
X36500Y-34987D01*
X36500Y-34349D01*
X36499Y-34250D01*
X36461Y-34158D01*
X36391Y-34087D01*
X36347Y-34069D01*
X43248Y-34069D01*
X43950Y-34770D01*
X43950Y-38555D01*
X43752Y-38752D01*
X43676Y-38866D01*
X43663Y-38933D01*
X43663Y-38683D01*
X43663Y-34667D01*
X43625Y-34575D01*
X43554Y-34505D01*
X43463Y-34467D01*
X43363Y-34467D01*
X41985Y-34467D01*
X41893Y-34505D01*
X41823Y-34575D01*
X41785Y-34667D01*
X41785Y-34766D01*
X41785Y-38782D01*
X41823Y-38874D01*
X41893Y-38944D01*
X41985Y-38982D01*
X42084Y-38982D01*
X42179Y-38982D01*
X42179Y-40599D01*
X41999Y-40779D01*
X41682Y-40779D01*
X41704Y-40765D01*
X41854Y-40765D01*
X41946Y-40727D01*
X42016Y-40656D01*
X42054Y-40564D01*
X42055Y-40465D01*
X42055Y-40085D01*
X42017Y-39993D01*
X41946Y-39923D01*
X41854Y-39885D01*
X41755Y-39884D01*
X41704Y-39884D01*
X41608Y-39821D01*
X41400Y-39779D01*
X41064Y-39779D01*
X41064Y-38683D01*
X41064Y-34667D01*
X41026Y-34575D01*
X40956Y-34505D01*
X40864Y-34467D01*
X40765Y-34467D01*
X39387Y-34467D01*
X39295Y-34505D01*
X39224Y-34575D01*
X39186Y-34667D01*
X39186Y-34766D01*
X39186Y-35875D01*
X38904Y-35875D01*
X38885Y-35855D01*
X38793Y-35817D01*
X38694Y-35817D01*
X38418Y-35817D01*
X38349Y-35845D01*
X38281Y-35817D01*
X38182Y-35817D01*
X37906Y-35817D01*
X37814Y-35855D01*
X37795Y-35875D01*
X37350Y-35875D01*
X37350Y-35791D01*
X37266Y-35588D01*
X37111Y-35434D01*
X36909Y-35350D01*
X36691Y-35349D01*
X36500Y-35428D01*
X36500Y-35212D01*
X36437Y-35150D01*
X35500Y-35150D01*
X35500Y-36087D01*
X35562Y-36150D01*
X36299Y-36150D01*
X36306Y-36146D01*
X36333Y-36211D01*
X36488Y-36365D01*
X36690Y-36449D01*
X36855Y-36450D01*
X36877Y-36472D01*
X36991Y-36548D01*
X37125Y-36575D01*
X37795Y-36575D01*
X37814Y-36594D01*
X37906Y-36632D01*
X38005Y-36632D01*
X38281Y-36632D01*
X38350Y-36604D01*
X38418Y-36632D01*
X38517Y-36632D01*
X38793Y-36632D01*
X38885Y-36594D01*
X38904Y-36575D01*
X39186Y-36575D01*
X39186Y-38782D01*
X39224Y-38874D01*
X39295Y-38944D01*
X39386Y-38982D01*
X39486Y-38982D01*
X40864Y-38982D01*
X40956Y-38944D01*
X41026Y-38874D01*
X41064Y-38782D01*
X41064Y-38683D01*
X41064Y-39779D01*
X40870Y-39779D01*
X40662Y-39821D01*
X40488Y-39937D01*
X40443Y-39892D01*
X40443Y-39793D01*
X40405Y-39701D01*
X40335Y-39630D01*
X40243Y-39592D01*
X40144Y-39592D01*
X39868Y-39592D01*
X39799Y-39620D01*
X39731Y-39592D01*
X39632Y-39592D01*
X39379Y-39592D01*
X39310Y-39489D01*
X39310Y-39489D01*
X38660Y-38839D01*
X38483Y-38721D01*
X38379Y-38700D01*
X38399Y-38649D01*
X38400Y-38550D01*
X38400Y-37949D01*
X38399Y-37850D01*
X38361Y-37758D01*
X38291Y-37687D01*
X38199Y-37649D01*
X37912Y-37650D01*
X37850Y-37712D01*
X37850Y-38200D01*
X38337Y-38200D01*
X38400Y-38137D01*
X38400Y-37949D01*
X38400Y-38550D01*
X38400Y-38362D01*
X38337Y-38300D01*
X37850Y-38300D01*
X37850Y-38307D01*
X37750Y-38307D01*
X37750Y-38300D01*
X37750Y-38200D01*
X37750Y-37712D01*
X37687Y-37650D01*
X37400Y-37649D01*
X37308Y-37687D01*
X37238Y-37758D01*
X37200Y-37850D01*
X37199Y-37949D01*
X37200Y-38137D01*
X37262Y-38200D01*
X37750Y-38200D01*
X37750Y-38300D01*
X37262Y-38300D01*
X37200Y-38362D01*
X37199Y-38550D01*
X37200Y-38649D01*
X37238Y-38741D01*
X37308Y-38812D01*
X37365Y-38835D01*
X37291Y-38909D01*
X37200Y-39130D01*
X37199Y-39368D01*
X37291Y-39589D01*
X37451Y-39750D01*
X37301Y-39900D01*
X36425Y-39900D01*
X36425Y-39475D01*
X36387Y-39383D01*
X36316Y-39313D01*
X36224Y-39275D01*
X36125Y-39274D01*
X34996Y-39274D01*
X35385Y-38885D01*
X35385Y-38885D01*
X35385Y-38885D01*
X35503Y-38708D01*
X35545Y-38500D01*
X35545Y-38500D01*
X35545Y-38108D01*
X35561Y-38091D01*
X35599Y-37999D01*
X35600Y-37900D01*
X35600Y-37200D01*
X35562Y-37108D01*
X35491Y-37038D01*
X35400Y-37000D01*
X35400Y-36087D01*
X35400Y-35150D01*
X34462Y-35150D01*
X34400Y-35212D01*
X34399Y-35850D01*
X34400Y-35949D01*
X34438Y-36041D01*
X34508Y-36112D01*
X34600Y-36150D01*
X35337Y-36150D01*
X35400Y-36087D01*
X35400Y-37000D01*
X35399Y-37000D01*
X35300Y-36999D01*
X34600Y-36999D01*
X34508Y-37037D01*
X34438Y-37108D01*
X34418Y-37154D01*
X34396Y-37132D01*
X34351Y-37177D01*
X34317Y-37077D01*
X34093Y-36995D01*
X33855Y-37005D01*
X33682Y-37077D01*
X33648Y-37177D01*
X34000Y-37529D01*
X34005Y-37523D01*
X34076Y-37594D01*
X34070Y-37600D01*
X34076Y-37605D01*
X34005Y-37676D01*
X34000Y-37670D01*
X33929Y-37741D01*
X33929Y-37600D01*
X33577Y-37248D01*
X33512Y-37270D01*
X33508Y-37260D01*
X33345Y-37096D01*
X33345Y-36021D01*
X33349Y-36009D01*
X33349Y-35974D01*
X33369Y-35875D01*
X33369Y-35875D01*
X33369Y-35875D01*
X33327Y-35667D01*
X33327Y-35667D01*
X33280Y-35596D01*
X33209Y-35490D01*
X33209Y-35490D01*
X32483Y-34764D01*
X32307Y-34646D01*
X32098Y-34604D01*
X31975Y-34604D01*
X31873Y-34624D01*
X31871Y-34624D01*
X31868Y-34625D01*
X31766Y-34646D01*
X31680Y-34703D01*
X31678Y-34704D01*
X31676Y-34706D01*
X31589Y-34764D01*
X31531Y-34850D01*
X31530Y-34852D01*
X31529Y-34854D01*
X31500Y-34898D01*
X31499Y-34825D01*
X31461Y-34733D01*
X31391Y-34662D01*
X31299Y-34624D01*
X31087Y-34625D01*
X31025Y-34687D01*
X31025Y-35100D01*
X31032Y-35100D01*
X31032Y-35200D01*
X31025Y-35200D01*
X31025Y-35612D01*
X31087Y-35675D01*
X31299Y-35675D01*
X31391Y-35637D01*
X31461Y-35566D01*
X31499Y-35474D01*
X31500Y-35401D01*
X31528Y-35444D01*
X31529Y-35447D01*
X31531Y-35448D01*
X31589Y-35535D01*
X31675Y-35593D01*
X31677Y-35594D01*
X31679Y-35595D01*
X31766Y-35653D01*
X31847Y-35669D01*
X32254Y-36077D01*
X32254Y-37400D01*
X32296Y-37608D01*
X32414Y-37785D01*
X32436Y-37807D01*
X32491Y-37939D01*
X32659Y-38108D01*
X32880Y-38199D01*
X33101Y-38200D01*
X33039Y-38225D01*
X32969Y-38296D01*
X32931Y-38388D01*
X32931Y-38541D01*
X32993Y-38604D01*
X33525Y-38604D01*
X33525Y-38250D01*
X33462Y-38187D01*
X33230Y-38187D01*
X33149Y-38187D01*
X33339Y-38108D01*
X33508Y-37940D01*
X33512Y-37929D01*
X33577Y-37951D01*
X33929Y-37600D01*
X33929Y-37741D01*
X33648Y-38022D01*
X33682Y-38122D01*
X33859Y-38187D01*
X33687Y-38187D01*
X33625Y-38250D01*
X33625Y-38604D01*
X33632Y-38604D01*
X33632Y-38704D01*
X33625Y-38704D01*
X33625Y-39058D01*
X33647Y-39081D01*
X33525Y-39203D01*
X33525Y-39058D01*
X33525Y-38704D01*
X32993Y-38704D01*
X32931Y-38766D01*
X32931Y-38920D01*
X32969Y-39012D01*
X33039Y-39082D01*
X33131Y-39120D01*
X33230Y-39120D01*
X33462Y-39120D01*
X33525Y-39058D01*
X33525Y-39203D01*
X33454Y-39274D01*
X33366Y-39292D01*
X33310Y-39329D01*
X33131Y-39329D01*
X33039Y-39367D01*
X33012Y-39394D01*
X32987Y-39333D01*
X32916Y-39263D01*
X32824Y-39225D01*
X32725Y-39224D01*
X31975Y-39224D01*
X31914Y-39250D01*
X31503Y-39250D01*
X31511Y-39241D01*
X31549Y-39149D01*
X31550Y-39050D01*
X31550Y-38249D01*
X31549Y-38150D01*
X31511Y-38058D01*
X31441Y-37987D01*
X31349Y-37949D01*
X31312Y-37950D01*
X31250Y-38012D01*
X31250Y-38600D01*
X31487Y-38600D01*
X31550Y-38537D01*
X31550Y-38249D01*
X31550Y-39050D01*
X31550Y-38762D01*
X31487Y-38700D01*
X31250Y-38700D01*
X31250Y-38707D01*
X31150Y-38707D01*
X31150Y-38700D01*
X31150Y-38600D01*
X31150Y-38012D01*
X31087Y-37950D01*
X31050Y-37949D01*
X30958Y-37987D01*
X30925Y-38021D01*
X30925Y-35612D01*
X30925Y-35200D01*
X30925Y-35100D01*
X30925Y-34687D01*
X30862Y-34625D01*
X30650Y-34624D01*
X30558Y-34662D01*
X30488Y-34733D01*
X30450Y-34825D01*
X30449Y-34924D01*
X30450Y-35037D01*
X30512Y-35100D01*
X30925Y-35100D01*
X30925Y-35200D01*
X30512Y-35200D01*
X30450Y-35262D01*
X30449Y-35375D01*
X30450Y-35474D01*
X30488Y-35566D01*
X30558Y-35637D01*
X30650Y-35675D01*
X30862Y-35675D01*
X30925Y-35612D01*
X30925Y-38021D01*
X30888Y-38058D01*
X30850Y-38150D01*
X30849Y-38249D01*
X30850Y-38537D01*
X30912Y-38600D01*
X31150Y-38600D01*
X31150Y-38700D01*
X30912Y-38700D01*
X30850Y-38762D01*
X30849Y-39050D01*
X30850Y-39149D01*
X30888Y-39241D01*
X30896Y-39250D01*
X29503Y-39250D01*
X29511Y-39241D01*
X29549Y-39149D01*
X29550Y-39050D01*
X29550Y-38794D01*
X30447Y-37897D01*
X30523Y-37783D01*
X30550Y-37650D01*
X30550Y-37249D01*
X30550Y-37200D01*
X30550Y-36300D01*
X30512Y-36208D01*
X30441Y-36138D01*
X30349Y-36100D01*
X30250Y-36099D01*
X30050Y-36099D01*
X29958Y-36137D01*
X29888Y-36208D01*
X29850Y-36300D01*
X29849Y-36399D01*
X29849Y-37299D01*
X29850Y-37299D01*
X29850Y-37505D01*
X29388Y-37966D01*
X29349Y-37950D01*
X29250Y-37949D01*
X29050Y-37949D01*
X28958Y-37987D01*
X28888Y-38058D01*
X28850Y-38150D01*
X28849Y-38249D01*
X28849Y-38505D01*
X28755Y-38600D01*
X28175Y-38600D01*
X28041Y-38626D01*
X27927Y-38702D01*
X27552Y-39077D01*
X27476Y-39191D01*
X27450Y-39325D01*
X27450Y-41875D01*
X27476Y-42008D01*
X27552Y-42122D01*
X27777Y-42347D01*
X27800Y-42363D01*
X27775Y-42425D01*
X27774Y-42524D01*
X27774Y-42774D01*
X27806Y-42850D01*
X27775Y-42925D01*
X27774Y-43024D01*
X27774Y-43274D01*
X27801Y-43338D01*
X27769Y-43370D01*
X27731Y-43462D01*
X27731Y-43562D01*
X27731Y-43995D01*
X27769Y-44087D01*
X27839Y-44157D01*
X27931Y-44195D01*
X28030Y-44195D01*
X28818Y-44195D01*
X28910Y-44157D01*
X28937Y-44130D01*
X28964Y-44157D01*
X29056Y-44195D01*
X29155Y-44195D01*
X29943Y-44195D01*
X30035Y-44157D01*
X30105Y-44087D01*
X30143Y-43995D01*
X30143Y-43896D01*
X30143Y-43463D01*
X30105Y-43371D01*
X30035Y-43300D01*
X29943Y-43262D01*
X29844Y-43262D01*
X29528Y-43262D01*
X29375Y-43109D01*
X29375Y-42425D01*
X29375Y-41775D01*
X29374Y-41774D01*
X29348Y-41641D01*
X29272Y-41527D01*
X29272Y-41527D01*
X29097Y-41352D01*
X29015Y-41297D01*
X29024Y-41274D01*
X29025Y-41175D01*
X29025Y-40925D01*
X28993Y-40849D01*
X29024Y-40774D01*
X29025Y-40675D01*
X29025Y-40425D01*
X28993Y-40349D01*
X29024Y-40274D01*
X29025Y-40175D01*
X29025Y-39950D01*
X31137Y-39950D01*
X31076Y-40041D01*
X31050Y-40175D01*
X31050Y-42575D01*
X31076Y-42708D01*
X31152Y-42822D01*
X31677Y-43347D01*
X31677Y-43347D01*
X31791Y-43423D01*
X31905Y-43446D01*
X31905Y-43446D01*
X31914Y-43449D01*
X31150Y-43449D01*
X31058Y-43487D01*
X30988Y-43558D01*
X30950Y-43650D01*
X30949Y-43749D01*
X30949Y-45349D01*
X30987Y-45441D01*
X31058Y-45511D01*
X31150Y-45549D01*
X31249Y-45550D01*
X32849Y-45550D01*
X32849Y-45550D01*
X33600Y-45550D01*
X33733Y-45523D01*
X33733Y-45523D01*
X33847Y-45447D01*
X33867Y-45427D01*
X33943Y-45504D01*
X34032Y-45504D01*
X34407Y-45128D01*
X34402Y-45123D01*
X34473Y-45052D01*
X34478Y-45057D01*
X34484Y-45052D01*
X34554Y-45123D01*
X34549Y-45128D01*
X34799Y-45379D01*
X34888Y-45379D01*
X35051Y-45215D01*
X35122Y-45144D01*
X35160Y-45052D01*
X35160Y-44955D01*
X36352Y-46147D01*
X36352Y-46147D01*
X36466Y-46223D01*
X36599Y-46249D01*
X36600Y-46250D01*
X37006Y-46250D01*
X37006Y-46287D01*
X37068Y-46350D01*
X37344Y-46350D01*
X37344Y-46342D01*
X37444Y-46342D01*
X37444Y-46350D01*
X37451Y-46350D01*
X37451Y-46450D01*
X37444Y-46450D01*
X37444Y-46744D01*
X37506Y-46807D01*
X37482Y-46807D01*
X37581Y-46807D01*
X37650Y-46779D01*
X37718Y-46807D01*
X37817Y-46807D01*
X37818Y-46807D01*
X37839Y-46828D01*
X37953Y-46904D01*
X38087Y-46931D01*
X40024Y-46931D01*
X40024Y-47418D01*
X40062Y-47509D01*
X40132Y-47580D01*
X40224Y-47618D01*
X40323Y-47618D01*
X40875Y-47618D01*
X40967Y-47580D01*
X41037Y-47510D01*
X41075Y-47418D01*
X41075Y-47318D01*
X41075Y-46826D01*
X41286Y-46616D01*
X42975Y-46616D01*
X43183Y-46574D01*
X43239Y-46537D01*
X43418Y-46537D01*
X43510Y-46499D01*
X43580Y-46429D01*
X43618Y-46337D01*
X43618Y-46237D01*
X43618Y-45804D01*
X43580Y-45712D01*
X43510Y-45642D01*
X43418Y-45604D01*
X43319Y-45604D01*
X43239Y-45604D01*
X43183Y-45567D01*
X42975Y-45525D01*
X41060Y-45525D01*
X41060Y-45525D01*
X40905Y-45556D01*
X40875Y-45543D01*
X40776Y-45543D01*
X40224Y-45543D01*
X40132Y-45581D01*
X40062Y-45651D01*
X40024Y-45743D01*
X40024Y-45843D01*
X40024Y-46231D01*
X38293Y-46231D01*
X38293Y-46193D01*
X38255Y-46101D01*
X38229Y-46075D01*
X38229Y-46071D01*
X38153Y-45958D01*
X38153Y-45958D01*
X38150Y-45955D01*
X38150Y-44725D01*
X38150Y-44537D01*
X38087Y-44475D01*
X37600Y-44475D01*
X37600Y-44962D01*
X37662Y-45025D01*
X37949Y-45025D01*
X38041Y-44987D01*
X38111Y-44916D01*
X38149Y-44824D01*
X38150Y-44725D01*
X38150Y-45955D01*
X37847Y-45652D01*
X37733Y-45576D01*
X37600Y-45550D01*
X37500Y-45550D01*
X37500Y-44962D01*
X37500Y-44475D01*
X37012Y-44475D01*
X36950Y-44537D01*
X36949Y-44725D01*
X36950Y-44824D01*
X36988Y-44916D01*
X37058Y-44987D01*
X37150Y-45025D01*
X37437Y-45025D01*
X37500Y-44962D01*
X37500Y-45550D01*
X36744Y-45550D01*
X35439Y-44244D01*
X35439Y-44217D01*
X35401Y-44125D01*
X35331Y-44055D01*
X35136Y-43860D01*
X35068Y-43831D01*
X35039Y-43763D01*
X34969Y-43693D01*
X34774Y-43498D01*
X34682Y-43460D01*
X34583Y-43460D01*
X34491Y-43498D01*
X34421Y-43568D01*
X34420Y-43569D01*
X34073Y-43569D01*
X34021Y-43579D01*
X34021Y-43271D01*
X33994Y-43137D01*
X33994Y-43137D01*
X33918Y-43023D01*
X33906Y-43015D01*
X33897Y-43002D01*
X33402Y-42507D01*
X33506Y-42507D01*
X33575Y-42479D01*
X33643Y-42507D01*
X33742Y-42507D01*
X34018Y-42507D01*
X34110Y-42469D01*
X34129Y-42450D01*
X34324Y-42450D01*
X34324Y-43224D01*
X34362Y-43316D01*
X34433Y-43386D01*
X34525Y-43424D01*
X34624Y-43425D01*
X36224Y-43425D01*
X36316Y-43387D01*
X36386Y-43316D01*
X36424Y-43224D01*
X36425Y-43125D01*
X36425Y-42775D01*
X37051Y-42775D01*
X37201Y-42925D01*
X37041Y-43084D01*
X36950Y-43305D01*
X36949Y-43543D01*
X37041Y-43764D01*
X37115Y-43839D01*
X37058Y-43862D01*
X36988Y-43933D01*
X36950Y-44025D01*
X36949Y-44124D01*
X36950Y-44312D01*
X37012Y-44375D01*
X37500Y-44375D01*
X37500Y-44367D01*
X37600Y-44367D01*
X37600Y-44375D01*
X38087Y-44375D01*
X38150Y-44312D01*
X38150Y-44124D01*
X38149Y-44025D01*
X38127Y-43970D01*
X38275Y-43970D01*
X38483Y-43928D01*
X38483Y-43928D01*
X38660Y-43810D01*
X39310Y-43160D01*
X39310Y-43160D01*
X39310Y-43160D01*
X39348Y-43104D01*
X39356Y-43107D01*
X39455Y-43107D01*
X39731Y-43107D01*
X39800Y-43079D01*
X39868Y-43107D01*
X39967Y-43107D01*
X40243Y-43107D01*
X40335Y-43069D01*
X40405Y-42999D01*
X40443Y-42907D01*
X40443Y-42807D01*
X40443Y-42807D01*
X40508Y-42742D01*
X40637Y-42828D01*
X40845Y-42870D01*
X41400Y-42870D01*
X41608Y-42828D01*
X41704Y-42765D01*
X41854Y-42765D01*
X41946Y-42727D01*
X42016Y-42656D01*
X42054Y-42564D01*
X42055Y-42465D01*
X42055Y-42085D01*
X42017Y-41993D01*
X41946Y-41923D01*
X41854Y-41885D01*
X41755Y-41884D01*
X41704Y-41884D01*
X41682Y-41870D01*
X42179Y-41870D01*
X42179Y-42774D01*
X41280Y-43673D01*
X41075Y-43673D01*
X41075Y-43381D01*
X41037Y-43290D01*
X40967Y-43219D01*
X40875Y-43181D01*
X40776Y-43181D01*
X40224Y-43181D01*
X40132Y-43219D01*
X40062Y-43289D01*
X40024Y-43381D01*
X40024Y-43481D01*
X40024Y-44120D01*
X40004Y-44218D01*
X40024Y-44317D01*
X40024Y-45055D01*
X40062Y-45147D01*
X40132Y-45218D01*
X40224Y-45256D01*
X40323Y-45256D01*
X40875Y-45256D01*
X40967Y-45218D01*
X41037Y-45148D01*
X41075Y-45056D01*
X41075Y-44956D01*
X41075Y-44764D01*
X41506Y-44764D01*
X41714Y-44722D01*
X41714Y-44722D01*
X41891Y-44604D01*
X42179Y-44316D01*
X42179Y-44679D01*
X42221Y-44887D01*
X42331Y-45052D01*
X42331Y-45195D01*
X42369Y-45287D01*
X42439Y-45357D01*
X42531Y-45395D01*
X42630Y-45395D01*
X42710Y-45395D01*
X42766Y-45432D01*
X42975Y-45474D01*
X43183Y-45432D01*
X43239Y-45395D01*
X43418Y-45395D01*
X43510Y-45357D01*
X43580Y-45287D01*
X43618Y-45195D01*
X43618Y-45096D01*
X43618Y-44663D01*
X43580Y-44571D01*
X43510Y-44500D01*
X43418Y-44462D01*
X43319Y-44462D01*
X43279Y-44462D01*
X43270Y-44453D01*
X43270Y-43000D01*
X43270Y-42950D01*
X43270Y-40825D01*
X43270Y-38982D01*
X43462Y-38982D01*
X43554Y-38944D01*
X43625Y-38874D01*
X43663Y-38782D01*
X43663Y-38683D01*
X43663Y-38933D01*
X43650Y-39000D01*
X43650Y-43850D01*
X43676Y-43983D01*
X43752Y-44097D01*
X43950Y-44294D01*
X43950Y-46479D01*
G54D10*
G36*
X55450Y-47950D02*
X49120Y-47950D01*
X48450Y-47279D01*
X48450Y-47195D01*
X48787Y-46858D01*
X49516Y-46858D01*
X49608Y-46820D01*
X49679Y-46749D01*
X49691Y-46720D01*
X51018Y-46720D01*
X51224Y-46926D01*
X51224Y-47518D01*
X51262Y-47609D01*
X51332Y-47680D01*
X51424Y-47718D01*
X51523Y-47718D01*
X52075Y-47718D01*
X52167Y-47680D01*
X52237Y-47610D01*
X52275Y-47518D01*
X52275Y-47418D01*
X52275Y-47226D01*
X53319Y-47226D01*
X53461Y-47198D01*
X53461Y-47657D01*
X53499Y-47749D01*
X53570Y-47819D01*
X53661Y-47857D01*
X53761Y-47857D01*
X55139Y-47857D01*
X55231Y-47819D01*
X55301Y-47749D01*
X55339Y-47657D01*
X55339Y-47558D01*
X55339Y-43542D01*
X55339Y-42958D01*
X55339Y-39041D01*
X55339Y-38942D01*
X55301Y-38850D01*
X55231Y-38780D01*
X55139Y-38742D01*
X54513Y-38742D01*
X54450Y-38804D01*
X54450Y-40950D01*
X55277Y-40950D01*
X55339Y-40887D01*
X55339Y-39041D01*
X55339Y-42958D01*
X55339Y-41112D01*
X55277Y-41050D01*
X54450Y-41050D01*
X54450Y-43195D01*
X54513Y-43257D01*
X55139Y-43257D01*
X55231Y-43219D01*
X55301Y-43149D01*
X55339Y-43057D01*
X55339Y-42958D01*
X55339Y-43542D01*
X55301Y-43450D01*
X55231Y-43380D01*
X55139Y-43342D01*
X55040Y-43342D01*
X54350Y-43342D01*
X54350Y-43195D01*
X54350Y-41050D01*
X54350Y-40950D01*
X54350Y-38804D01*
X54288Y-38742D01*
X53662Y-38742D01*
X53570Y-38780D01*
X53499Y-38850D01*
X53461Y-38942D01*
X53461Y-39041D01*
X53461Y-40887D01*
X53524Y-40950D01*
X54350Y-40950D01*
X54350Y-41050D01*
X53524Y-41050D01*
X53461Y-41112D01*
X53461Y-42958D01*
X53461Y-43057D01*
X53499Y-43149D01*
X53570Y-43219D01*
X53662Y-43257D01*
X54288Y-43257D01*
X54350Y-43195D01*
X54350Y-43342D01*
X53662Y-43342D01*
X53570Y-43380D01*
X53499Y-43450D01*
X53461Y-43542D01*
X53461Y-43641D01*
X53461Y-45767D01*
X53150Y-46079D01*
X53150Y-41250D01*
X53150Y-39749D01*
X53149Y-39650D01*
X53111Y-39558D01*
X53041Y-39487D01*
X52949Y-39449D01*
X52275Y-39449D01*
X52275Y-38918D01*
X52275Y-37344D01*
X52237Y-37252D01*
X52167Y-37181D01*
X52075Y-37143D01*
X51976Y-37143D01*
X51424Y-37143D01*
X51332Y-37181D01*
X51262Y-37251D01*
X51224Y-37343D01*
X51224Y-37443D01*
X51224Y-39018D01*
X51262Y-39109D01*
X51332Y-39180D01*
X51424Y-39218D01*
X51523Y-39218D01*
X52075Y-39218D01*
X52167Y-39180D01*
X52237Y-39110D01*
X52275Y-39018D01*
X52275Y-38918D01*
X52275Y-39449D01*
X52212Y-39450D01*
X52150Y-39512D01*
X52150Y-40450D01*
X53087Y-40450D01*
X53150Y-40387D01*
X53150Y-39749D01*
X53150Y-41250D01*
X53150Y-40612D01*
X53087Y-40550D01*
X52150Y-40550D01*
X52150Y-41487D01*
X52212Y-41550D01*
X52949Y-41550D01*
X53041Y-41512D01*
X53111Y-41441D01*
X53149Y-41349D01*
X53150Y-41250D01*
X53150Y-46079D01*
X53093Y-46135D01*
X52587Y-46135D01*
X52587Y-42694D01*
X52587Y-42005D01*
X52587Y-41906D01*
X52549Y-41814D01*
X52478Y-41744D01*
X52386Y-41706D01*
X52233Y-41706D01*
X52170Y-41768D01*
X52170Y-42300D01*
X52524Y-42300D01*
X52587Y-42237D01*
X52587Y-42005D01*
X52587Y-42694D01*
X52587Y-42462D01*
X52524Y-42400D01*
X52170Y-42400D01*
X52170Y-42931D01*
X52233Y-42993D01*
X52386Y-42993D01*
X52478Y-42955D01*
X52549Y-42885D01*
X52587Y-42793D01*
X52587Y-42694D01*
X52587Y-46135D01*
X52275Y-46135D01*
X52275Y-45844D01*
X52275Y-45056D01*
X52275Y-43481D01*
X52237Y-43390D01*
X52167Y-43319D01*
X52075Y-43281D01*
X52070Y-43281D01*
X52070Y-42931D01*
X52070Y-42400D01*
X52070Y-42300D01*
X52070Y-41768D01*
X52050Y-41747D01*
X52050Y-41487D01*
X52050Y-40550D01*
X52050Y-40450D01*
X52050Y-39512D01*
X51987Y-39450D01*
X51250Y-39449D01*
X51158Y-39487D01*
X51088Y-39558D01*
X51050Y-39650D01*
X51049Y-39749D01*
X51050Y-40387D01*
X51112Y-40450D01*
X52050Y-40450D01*
X52050Y-40550D01*
X51112Y-40550D01*
X51050Y-40612D01*
X51049Y-41250D01*
X51050Y-41349D01*
X51088Y-41441D01*
X51158Y-41512D01*
X51250Y-41550D01*
X51987Y-41550D01*
X52050Y-41487D01*
X52050Y-41747D01*
X52008Y-41706D01*
X51854Y-41706D01*
X51762Y-41744D01*
X51692Y-41814D01*
X51654Y-41906D01*
X51654Y-42005D01*
X51654Y-42237D01*
X51716Y-42300D01*
X52070Y-42300D01*
X52070Y-42400D01*
X51716Y-42400D01*
X51654Y-42462D01*
X51654Y-42694D01*
X51654Y-42793D01*
X51692Y-42885D01*
X51762Y-42955D01*
X51854Y-42993D01*
X52008Y-42993D01*
X52070Y-42931D01*
X52070Y-43281D01*
X51976Y-43281D01*
X51524Y-43281D01*
X51524Y-42350D01*
X51482Y-42141D01*
X51445Y-42085D01*
X51445Y-41906D01*
X51407Y-41814D01*
X51337Y-41744D01*
X51245Y-41706D01*
X51146Y-41706D01*
X50713Y-41706D01*
X50621Y-41744D01*
X50550Y-41814D01*
X50512Y-41906D01*
X50512Y-42005D01*
X50512Y-42085D01*
X50475Y-42141D01*
X50433Y-42350D01*
X50433Y-44045D01*
X50414Y-44064D01*
X50363Y-44141D01*
X50363Y-43283D01*
X50363Y-39366D01*
X50363Y-39267D01*
X50325Y-39175D01*
X50254Y-39105D01*
X50162Y-39067D01*
X49536Y-39067D01*
X49474Y-39129D01*
X49474Y-41275D01*
X50300Y-41275D01*
X50363Y-41212D01*
X50363Y-39366D01*
X50363Y-43283D01*
X50363Y-41437D01*
X50300Y-41375D01*
X49474Y-41375D01*
X49474Y-43520D01*
X49536Y-43582D01*
X50162Y-43582D01*
X50254Y-43544D01*
X50325Y-43474D01*
X50363Y-43382D01*
X50363Y-43283D01*
X50363Y-44141D01*
X50296Y-44241D01*
X50254Y-44450D01*
X50296Y-44658D01*
X50414Y-44835D01*
X50591Y-44953D01*
X50800Y-44995D01*
X51008Y-44953D01*
X51185Y-44835D01*
X51224Y-44796D01*
X51224Y-45155D01*
X51262Y-45247D01*
X51332Y-45318D01*
X51424Y-45356D01*
X51523Y-45356D01*
X52075Y-45356D01*
X52167Y-45318D01*
X52237Y-45248D01*
X52275Y-45156D01*
X52275Y-45056D01*
X52275Y-45844D01*
X52237Y-45752D01*
X52167Y-45681D01*
X52075Y-45643D01*
X51976Y-45643D01*
X51424Y-45643D01*
X51388Y-45658D01*
X51243Y-45629D01*
X49691Y-45629D01*
X49679Y-45600D01*
X49609Y-45530D01*
X49517Y-45491D01*
X49417Y-45491D01*
X49325Y-45491D01*
X49325Y-45008D01*
X49516Y-45008D01*
X49608Y-44970D01*
X49679Y-44899D01*
X49717Y-44808D01*
X49717Y-44708D01*
X49717Y-43842D01*
X49679Y-43750D01*
X49609Y-43680D01*
X49517Y-43641D01*
X49417Y-43641D01*
X49374Y-43641D01*
X49374Y-43520D01*
X49374Y-41375D01*
X49374Y-41275D01*
X49374Y-39129D01*
X49311Y-39067D01*
X48685Y-39067D01*
X48593Y-39105D01*
X48523Y-39175D01*
X48485Y-39267D01*
X48485Y-39366D01*
X48485Y-41212D01*
X48547Y-41275D01*
X49374Y-41275D01*
X49374Y-41375D01*
X48547Y-41375D01*
X48485Y-41437D01*
X48485Y-43283D01*
X48485Y-43382D01*
X48523Y-43474D01*
X48593Y-43544D01*
X48685Y-43582D01*
X49311Y-43582D01*
X49374Y-43520D01*
X49374Y-43641D01*
X48450Y-43641D01*
X48450Y-39300D01*
X48450Y-39033D01*
X48532Y-39033D01*
X49516Y-39033D01*
X49608Y-38995D01*
X49679Y-38924D01*
X49717Y-38833D01*
X49717Y-38733D01*
X49717Y-38622D01*
X51483Y-36856D01*
X51523Y-36856D01*
X52075Y-36856D01*
X52167Y-36818D01*
X52237Y-36748D01*
X52275Y-36656D01*
X52275Y-36556D01*
X52275Y-36364D01*
X53461Y-36364D01*
X53461Y-38457D01*
X53499Y-38549D01*
X53570Y-38619D01*
X53661Y-38657D01*
X53761Y-38657D01*
X55139Y-38657D01*
X55231Y-38619D01*
X55301Y-38549D01*
X55339Y-38457D01*
X55339Y-38358D01*
X55339Y-34342D01*
X55301Y-34250D01*
X55231Y-34180D01*
X55139Y-34142D01*
X55040Y-34142D01*
X53662Y-34142D01*
X53570Y-34180D01*
X53499Y-34250D01*
X53461Y-34342D01*
X53461Y-34441D01*
X53461Y-35273D01*
X52275Y-35273D01*
X52275Y-34981D01*
X52237Y-34890D01*
X52167Y-34819D01*
X52075Y-34781D01*
X51976Y-34781D01*
X51424Y-34781D01*
X51332Y-34819D01*
X51262Y-34889D01*
X51224Y-34981D01*
X51224Y-35081D01*
X51224Y-35573D01*
X49130Y-37666D01*
X48787Y-37666D01*
X48450Y-37329D01*
X48450Y-36750D01*
X49649Y-36750D01*
X49741Y-36712D01*
X49811Y-36641D01*
X49849Y-36549D01*
X49850Y-36450D01*
X49850Y-34850D01*
X49812Y-34758D01*
X49741Y-34688D01*
X49649Y-34650D01*
X49550Y-34649D01*
X48520Y-34649D01*
X49101Y-34069D01*
X55450Y-34069D01*
X55450Y-47950D01*
X55450Y-47950D01*
G37*
G54D30*
X55450Y-47950D02*
X49120Y-47950D01*
X48450Y-47279D01*
X48450Y-47195D01*
X48787Y-46858D01*
X49516Y-46858D01*
X49608Y-46820D01*
X49679Y-46749D01*
X49691Y-46720D01*
X51018Y-46720D01*
X51224Y-46926D01*
X51224Y-47518D01*
X51262Y-47609D01*
X51332Y-47680D01*
X51424Y-47718D01*
X51523Y-47718D01*
X52075Y-47718D01*
X52167Y-47680D01*
X52237Y-47610D01*
X52275Y-47518D01*
X52275Y-47418D01*
X52275Y-47226D01*
X53319Y-47226D01*
X53461Y-47198D01*
X53461Y-47657D01*
X53499Y-47749D01*
X53570Y-47819D01*
X53661Y-47857D01*
X53761Y-47857D01*
X55139Y-47857D01*
X55231Y-47819D01*
X55301Y-47749D01*
X55339Y-47657D01*
X55339Y-47558D01*
X55339Y-43542D01*
X55339Y-42958D01*
X55339Y-39041D01*
X55339Y-38942D01*
X55301Y-38850D01*
X55231Y-38780D01*
X55139Y-38742D01*
X54513Y-38742D01*
X54450Y-38804D01*
X54450Y-40950D01*
X55277Y-40950D01*
X55339Y-40887D01*
X55339Y-39041D01*
X55339Y-42958D01*
X55339Y-41112D01*
X55277Y-41050D01*
X54450Y-41050D01*
X54450Y-43195D01*
X54513Y-43257D01*
X55139Y-43257D01*
X55231Y-43219D01*
X55301Y-43149D01*
X55339Y-43057D01*
X55339Y-42958D01*
X55339Y-43542D01*
X55301Y-43450D01*
X55231Y-43380D01*
X55139Y-43342D01*
X55040Y-43342D01*
X54350Y-43342D01*
X54350Y-43195D01*
X54350Y-41050D01*
X54350Y-40950D01*
X54350Y-38804D01*
X54288Y-38742D01*
X53662Y-38742D01*
X53570Y-38780D01*
X53499Y-38850D01*
X53461Y-38942D01*
X53461Y-39041D01*
X53461Y-40887D01*
X53524Y-40950D01*
X54350Y-40950D01*
X54350Y-41050D01*
X53524Y-41050D01*
X53461Y-41112D01*
X53461Y-42958D01*
X53461Y-43057D01*
X53499Y-43149D01*
X53570Y-43219D01*
X53662Y-43257D01*
X54288Y-43257D01*
X54350Y-43195D01*
X54350Y-43342D01*
X53662Y-43342D01*
X53570Y-43380D01*
X53499Y-43450D01*
X53461Y-43542D01*
X53461Y-43641D01*
X53461Y-45767D01*
X53150Y-46079D01*
X53150Y-41250D01*
X53150Y-39749D01*
X53149Y-39650D01*
X53111Y-39558D01*
X53041Y-39487D01*
X52949Y-39449D01*
X52275Y-39449D01*
X52275Y-38918D01*
X52275Y-37344D01*
X52237Y-37252D01*
X52167Y-37181D01*
X52075Y-37143D01*
X51976Y-37143D01*
X51424Y-37143D01*
X51332Y-37181D01*
X51262Y-37251D01*
X51224Y-37343D01*
X51224Y-37443D01*
X51224Y-39018D01*
X51262Y-39109D01*
X51332Y-39180D01*
X51424Y-39218D01*
X51523Y-39218D01*
X52075Y-39218D01*
X52167Y-39180D01*
X52237Y-39110D01*
X52275Y-39018D01*
X52275Y-38918D01*
X52275Y-39449D01*
X52212Y-39450D01*
X52150Y-39512D01*
X52150Y-40450D01*
X53087Y-40450D01*
X53150Y-40387D01*
X53150Y-39749D01*
X53150Y-41250D01*
X53150Y-40612D01*
X53087Y-40550D01*
X52150Y-40550D01*
X52150Y-41487D01*
X52212Y-41550D01*
X52949Y-41550D01*
X53041Y-41512D01*
X53111Y-41441D01*
X53149Y-41349D01*
X53150Y-41250D01*
X53150Y-46079D01*
X53093Y-46135D01*
X52587Y-46135D01*
X52587Y-42694D01*
X52587Y-42005D01*
X52587Y-41906D01*
X52549Y-41814D01*
X52478Y-41744D01*
X52386Y-41706D01*
X52233Y-41706D01*
X52170Y-41768D01*
X52170Y-42300D01*
X52524Y-42300D01*
X52587Y-42237D01*
X52587Y-42005D01*
X52587Y-42694D01*
X52587Y-42462D01*
X52524Y-42400D01*
X52170Y-42400D01*
X52170Y-42931D01*
X52233Y-42993D01*
X52386Y-42993D01*
X52478Y-42955D01*
X52549Y-42885D01*
X52587Y-42793D01*
X52587Y-42694D01*
X52587Y-46135D01*
X52275Y-46135D01*
X52275Y-45844D01*
X52275Y-45056D01*
X52275Y-43481D01*
X52237Y-43390D01*
X52167Y-43319D01*
X52075Y-43281D01*
X52070Y-43281D01*
X52070Y-42931D01*
X52070Y-42400D01*
X52070Y-42300D01*
X52070Y-41768D01*
X52050Y-41747D01*
X52050Y-41487D01*
X52050Y-40550D01*
X52050Y-40450D01*
X52050Y-39512D01*
X51987Y-39450D01*
X51250Y-39449D01*
X51158Y-39487D01*
X51088Y-39558D01*
X51050Y-39650D01*
X51049Y-39749D01*
X51050Y-40387D01*
X51112Y-40450D01*
X52050Y-40450D01*
X52050Y-40550D01*
X51112Y-40550D01*
X51050Y-40612D01*
X51049Y-41250D01*
X51050Y-41349D01*
X51088Y-41441D01*
X51158Y-41512D01*
X51250Y-41550D01*
X51987Y-41550D01*
X52050Y-41487D01*
X52050Y-41747D01*
X52008Y-41706D01*
X51854Y-41706D01*
X51762Y-41744D01*
X51692Y-41814D01*
X51654Y-41906D01*
X51654Y-42005D01*
X51654Y-42237D01*
X51716Y-42300D01*
X52070Y-42300D01*
X52070Y-42400D01*
X51716Y-42400D01*
X51654Y-42462D01*
X51654Y-42694D01*
X51654Y-42793D01*
X51692Y-42885D01*
X51762Y-42955D01*
X51854Y-42993D01*
X52008Y-42993D01*
X52070Y-42931D01*
X52070Y-43281D01*
X51976Y-43281D01*
X51524Y-43281D01*
X51524Y-42350D01*
X51482Y-42141D01*
X51445Y-42085D01*
X51445Y-41906D01*
X51407Y-41814D01*
X51337Y-41744D01*
X51245Y-41706D01*
X51146Y-41706D01*
X50713Y-41706D01*
X50621Y-41744D01*
X50550Y-41814D01*
X50512Y-41906D01*
X50512Y-42005D01*
X50512Y-42085D01*
X50475Y-42141D01*
X50433Y-42350D01*
X50433Y-44045D01*
X50414Y-44064D01*
X50363Y-44141D01*
X50363Y-43283D01*
X50363Y-39366D01*
X50363Y-39267D01*
X50325Y-39175D01*
X50254Y-39105D01*
X50162Y-39067D01*
X49536Y-39067D01*
X49474Y-39129D01*
X49474Y-41275D01*
X50300Y-41275D01*
X50363Y-41212D01*
X50363Y-39366D01*
X50363Y-43283D01*
X50363Y-41437D01*
X50300Y-41375D01*
X49474Y-41375D01*
X49474Y-43520D01*
X49536Y-43582D01*
X50162Y-43582D01*
X50254Y-43544D01*
X50325Y-43474D01*
X50363Y-43382D01*
X50363Y-43283D01*
X50363Y-44141D01*
X50296Y-44241D01*
X50254Y-44450D01*
X50296Y-44658D01*
X50414Y-44835D01*
X50591Y-44953D01*
X50800Y-44995D01*
X51008Y-44953D01*
X51185Y-44835D01*
X51224Y-44796D01*
X51224Y-45155D01*
X51262Y-45247D01*
X51332Y-45318D01*
X51424Y-45356D01*
X51523Y-45356D01*
X52075Y-45356D01*
X52167Y-45318D01*
X52237Y-45248D01*
X52275Y-45156D01*
X52275Y-45056D01*
X52275Y-45844D01*
X52237Y-45752D01*
X52167Y-45681D01*
X52075Y-45643D01*
X51976Y-45643D01*
X51424Y-45643D01*
X51388Y-45658D01*
X51243Y-45629D01*
X49691Y-45629D01*
X49679Y-45600D01*
X49609Y-45530D01*
X49517Y-45491D01*
X49417Y-45491D01*
X49325Y-45491D01*
X49325Y-45008D01*
X49516Y-45008D01*
X49608Y-44970D01*
X49679Y-44899D01*
X49717Y-44808D01*
X49717Y-44708D01*
X49717Y-43842D01*
X49679Y-43750D01*
X49609Y-43680D01*
X49517Y-43641D01*
X49417Y-43641D01*
X49374Y-43641D01*
X49374Y-43520D01*
X49374Y-41375D01*
X49374Y-41275D01*
X49374Y-39129D01*
X49311Y-39067D01*
X48685Y-39067D01*
X48593Y-39105D01*
X48523Y-39175D01*
X48485Y-39267D01*
X48485Y-39366D01*
X48485Y-41212D01*
X48547Y-41275D01*
X49374Y-41275D01*
X49374Y-41375D01*
X48547Y-41375D01*
X48485Y-41437D01*
X48485Y-43283D01*
X48485Y-43382D01*
X48523Y-43474D01*
X48593Y-43544D01*
X48685Y-43582D01*
X49311Y-43582D01*
X49374Y-43520D01*
X49374Y-43641D01*
X48450Y-43641D01*
X48450Y-39300D01*
X48450Y-39033D01*
X48532Y-39033D01*
X49516Y-39033D01*
X49608Y-38995D01*
X49679Y-38924D01*
X49717Y-38833D01*
X49717Y-38733D01*
X49717Y-38622D01*
X51483Y-36856D01*
X51523Y-36856D01*
X52075Y-36856D01*
X52167Y-36818D01*
X52237Y-36748D01*
X52275Y-36656D01*
X52275Y-36556D01*
X52275Y-36364D01*
X53461Y-36364D01*
X53461Y-38457D01*
X53499Y-38549D01*
X53570Y-38619D01*
X53661Y-38657D01*
X53761Y-38657D01*
X55139Y-38657D01*
X55231Y-38619D01*
X55301Y-38549D01*
X55339Y-38457D01*
X55339Y-38358D01*
X55339Y-34342D01*
X55301Y-34250D01*
X55231Y-34180D01*
X55139Y-34142D01*
X55040Y-34142D01*
X53662Y-34142D01*
X53570Y-34180D01*
X53499Y-34250D01*
X53461Y-34342D01*
X53461Y-34441D01*
X53461Y-35273D01*
X52275Y-35273D01*
X52275Y-34981D01*
X52237Y-34890D01*
X52167Y-34819D01*
X52075Y-34781D01*
X51976Y-34781D01*
X51424Y-34781D01*
X51332Y-34819D01*
X51262Y-34889D01*
X51224Y-34981D01*
X51224Y-35081D01*
X51224Y-35573D01*
X49130Y-37666D01*
X48787Y-37666D01*
X48450Y-37329D01*
X48450Y-36750D01*
X49649Y-36750D01*
X49741Y-36712D01*
X49811Y-36641D01*
X49849Y-36549D01*
X49850Y-36450D01*
X49850Y-34850D01*
X49812Y-34758D01*
X49741Y-34688D01*
X49649Y-34650D01*
X49550Y-34649D01*
X48520Y-34649D01*
X49101Y-34069D01*
X55450Y-34069D01*
X55450Y-47950D01*
G54D10*
G36*
X64750Y-47950D02*
X64639Y-47950D01*
X64639Y-47558D01*
X64639Y-43542D01*
X64639Y-42958D01*
X64639Y-39041D01*
X64639Y-38358D01*
X64639Y-34342D01*
X64601Y-34250D01*
X64531Y-34180D01*
X64439Y-34142D01*
X64340Y-34142D01*
X62962Y-34142D01*
X62870Y-34180D01*
X62799Y-34250D01*
X62761Y-34342D01*
X62761Y-34441D01*
X62761Y-36567D01*
X62069Y-37259D01*
X61985Y-37133D01*
X60425Y-35573D01*
X60425Y-34981D01*
X60387Y-34890D01*
X60317Y-34819D01*
X60225Y-34781D01*
X60126Y-34781D01*
X59574Y-34781D01*
X59482Y-34819D01*
X59412Y-34889D01*
X59374Y-34981D01*
X59374Y-35081D01*
X59374Y-35573D01*
X59093Y-35854D01*
X57938Y-35854D01*
X57938Y-34342D01*
X57900Y-34250D01*
X57829Y-34180D01*
X57738Y-34142D01*
X57638Y-34142D01*
X56260Y-34142D01*
X56168Y-34180D01*
X56098Y-34250D01*
X56060Y-34342D01*
X56060Y-34441D01*
X56060Y-38457D01*
X56098Y-38549D01*
X56168Y-38619D01*
X56260Y-38657D01*
X56359Y-38657D01*
X57737Y-38657D01*
X57829Y-38619D01*
X57900Y-38549D01*
X57938Y-38457D01*
X57938Y-38358D01*
X57938Y-36945D01*
X59318Y-36945D01*
X59527Y-36903D01*
X59527Y-36903D01*
X59598Y-36856D01*
X59673Y-36856D01*
X60166Y-36856D01*
X61054Y-37744D01*
X61054Y-38149D01*
X60750Y-38149D01*
X60658Y-38187D01*
X60588Y-38258D01*
X60550Y-38350D01*
X60549Y-38449D01*
X60549Y-40049D01*
X60587Y-40141D01*
X60658Y-40211D01*
X60750Y-40249D01*
X60849Y-40250D01*
X62449Y-40250D01*
X62541Y-40212D01*
X62611Y-40141D01*
X62649Y-40049D01*
X62650Y-39950D01*
X62650Y-38350D01*
X62612Y-38259D01*
X62761Y-38110D01*
X62761Y-38457D01*
X62799Y-38549D01*
X62870Y-38619D01*
X62961Y-38657D01*
X63061Y-38657D01*
X64439Y-38657D01*
X64531Y-38619D01*
X64601Y-38549D01*
X64639Y-38457D01*
X64639Y-38358D01*
X64639Y-39041D01*
X64639Y-38942D01*
X64601Y-38850D01*
X64531Y-38780D01*
X64439Y-38742D01*
X63813Y-38742D01*
X63750Y-38804D01*
X63750Y-40950D01*
X64577Y-40950D01*
X64639Y-40887D01*
X64639Y-39041D01*
X64639Y-42958D01*
X64639Y-41112D01*
X64577Y-41050D01*
X63750Y-41050D01*
X63750Y-43195D01*
X63813Y-43257D01*
X64439Y-43257D01*
X64531Y-43219D01*
X64601Y-43149D01*
X64639Y-43057D01*
X64639Y-42958D01*
X64639Y-43542D01*
X64601Y-43450D01*
X64531Y-43380D01*
X64439Y-43342D01*
X64340Y-43342D01*
X63650Y-43342D01*
X63650Y-43195D01*
X63650Y-41050D01*
X63650Y-40950D01*
X63650Y-38804D01*
X63588Y-38742D01*
X62962Y-38742D01*
X62870Y-38780D01*
X62799Y-38850D01*
X62761Y-38942D01*
X62761Y-39041D01*
X62761Y-40887D01*
X62824Y-40950D01*
X63650Y-40950D01*
X63650Y-41050D01*
X62824Y-41050D01*
X62761Y-41112D01*
X62761Y-42958D01*
X62761Y-43057D01*
X62799Y-43149D01*
X62870Y-43219D01*
X62962Y-43257D01*
X63588Y-43257D01*
X63650Y-43195D01*
X63650Y-43342D01*
X62962Y-43342D01*
X62870Y-43380D01*
X62799Y-43450D01*
X62761Y-43542D01*
X62761Y-43641D01*
X62761Y-43889D01*
X62650Y-43778D01*
X62650Y-42950D01*
X62650Y-42250D01*
X62650Y-40749D01*
X62649Y-40650D01*
X62611Y-40558D01*
X62541Y-40487D01*
X62449Y-40449D01*
X61712Y-40450D01*
X61650Y-40512D01*
X61650Y-41450D01*
X62587Y-41450D01*
X62650Y-41387D01*
X62650Y-40749D01*
X62650Y-42250D01*
X62650Y-41612D01*
X62587Y-41550D01*
X61650Y-41550D01*
X61650Y-42487D01*
X61712Y-42550D01*
X62449Y-42550D01*
X62541Y-42512D01*
X62611Y-42441D01*
X62649Y-42349D01*
X62650Y-42250D01*
X62650Y-42950D01*
X62612Y-42858D01*
X62541Y-42788D01*
X62449Y-42750D01*
X62350Y-42749D01*
X61550Y-42749D01*
X61550Y-42487D01*
X61550Y-41550D01*
X61550Y-41450D01*
X61550Y-40512D01*
X61487Y-40450D01*
X60750Y-40449D01*
X60658Y-40487D01*
X60588Y-40558D01*
X60550Y-40650D01*
X60549Y-40749D01*
X60550Y-41387D01*
X60612Y-41450D01*
X61550Y-41450D01*
X61550Y-41550D01*
X60612Y-41550D01*
X60550Y-41612D01*
X60549Y-42250D01*
X60550Y-42349D01*
X60588Y-42441D01*
X60658Y-42512D01*
X60750Y-42550D01*
X61487Y-42550D01*
X61550Y-42487D01*
X61550Y-42749D01*
X60750Y-42749D01*
X60658Y-42787D01*
X60588Y-42858D01*
X60550Y-42950D01*
X60549Y-43049D01*
X60549Y-44649D01*
X60587Y-44741D01*
X60658Y-44811D01*
X60750Y-44849D01*
X60849Y-44850D01*
X60959Y-44850D01*
X60437Y-45372D01*
X60437Y-40244D01*
X60437Y-39555D01*
X60437Y-39456D01*
X60425Y-39428D01*
X60425Y-38918D01*
X60425Y-37344D01*
X60387Y-37252D01*
X60317Y-37181D01*
X60225Y-37143D01*
X60126Y-37143D01*
X59574Y-37143D01*
X59482Y-37181D01*
X59412Y-37251D01*
X59374Y-37343D01*
X59374Y-37443D01*
X59374Y-39018D01*
X59412Y-39109D01*
X59482Y-39180D01*
X59574Y-39218D01*
X59673Y-39218D01*
X60225Y-39218D01*
X60317Y-39180D01*
X60387Y-39110D01*
X60425Y-39018D01*
X60425Y-38918D01*
X60425Y-39428D01*
X60399Y-39364D01*
X60328Y-39294D01*
X60236Y-39256D01*
X60083Y-39256D01*
X60020Y-39318D01*
X60020Y-39850D01*
X60374Y-39850D01*
X60437Y-39787D01*
X60437Y-39555D01*
X60437Y-40244D01*
X60437Y-40012D01*
X60374Y-39950D01*
X60020Y-39950D01*
X60020Y-40481D01*
X60083Y-40543D01*
X60236Y-40543D01*
X60328Y-40505D01*
X60399Y-40435D01*
X60437Y-40343D01*
X60437Y-40244D01*
X60437Y-45372D01*
X60425Y-45384D01*
X60425Y-45056D01*
X60425Y-43481D01*
X60387Y-43390D01*
X60317Y-43319D01*
X60225Y-43281D01*
X60126Y-43281D01*
X59920Y-43281D01*
X59920Y-40481D01*
X59920Y-39950D01*
X59920Y-39850D01*
X59920Y-39318D01*
X59858Y-39256D01*
X59704Y-39256D01*
X59612Y-39294D01*
X59542Y-39364D01*
X59504Y-39456D01*
X59504Y-39555D01*
X59504Y-39787D01*
X59566Y-39850D01*
X59920Y-39850D01*
X59920Y-39950D01*
X59566Y-39950D01*
X59504Y-40012D01*
X59504Y-40244D01*
X59504Y-40343D01*
X59542Y-40435D01*
X59612Y-40505D01*
X59704Y-40543D01*
X59858Y-40543D01*
X59920Y-40481D01*
X59920Y-43281D01*
X59574Y-43281D01*
X59482Y-43319D01*
X59412Y-43389D01*
X59374Y-43481D01*
X59374Y-43531D01*
X59374Y-39900D01*
X59374Y-39829D01*
X59332Y-39620D01*
X59332Y-39620D01*
X59295Y-39564D01*
X59295Y-39456D01*
X59257Y-39364D01*
X59187Y-39294D01*
X59095Y-39256D01*
X59027Y-39256D01*
X58585Y-38814D01*
X58408Y-38696D01*
X58200Y-38654D01*
X57991Y-38696D01*
X57844Y-38794D01*
X57829Y-38780D01*
X57737Y-38742D01*
X57111Y-38742D01*
X57049Y-38804D01*
X57049Y-40950D01*
X57875Y-40950D01*
X57938Y-40887D01*
X57938Y-39709D01*
X58322Y-40093D01*
X58325Y-40108D01*
X58362Y-40164D01*
X58362Y-40343D01*
X58400Y-40435D01*
X58470Y-40505D01*
X58562Y-40543D01*
X58662Y-40543D01*
X59095Y-40543D01*
X59187Y-40505D01*
X59257Y-40435D01*
X59295Y-40343D01*
X59295Y-40244D01*
X59295Y-40164D01*
X59332Y-40108D01*
X59374Y-39900D01*
X59374Y-43531D01*
X59374Y-43581D01*
X59374Y-45155D01*
X59412Y-45247D01*
X59482Y-45318D01*
X59574Y-45356D01*
X59673Y-45356D01*
X60225Y-45356D01*
X60317Y-45318D01*
X60387Y-45248D01*
X60425Y-45156D01*
X60425Y-45056D01*
X60425Y-45384D01*
X60166Y-45643D01*
X60126Y-45643D01*
X59633Y-45643D01*
X59204Y-45214D01*
X59027Y-45096D01*
X58818Y-45054D01*
X57938Y-45054D01*
X57938Y-43542D01*
X57938Y-42958D01*
X57938Y-41112D01*
X57875Y-41050D01*
X57049Y-41050D01*
X57049Y-43195D01*
X57111Y-43257D01*
X57737Y-43257D01*
X57829Y-43219D01*
X57900Y-43149D01*
X57938Y-43057D01*
X57938Y-42958D01*
X57938Y-43542D01*
X57900Y-43450D01*
X57829Y-43380D01*
X57738Y-43342D01*
X57638Y-43342D01*
X56949Y-43342D01*
X56949Y-43195D01*
X56949Y-41050D01*
X56949Y-40950D01*
X56949Y-38804D01*
X56886Y-38742D01*
X56260Y-38742D01*
X56168Y-38780D01*
X56098Y-38850D01*
X56060Y-38942D01*
X56060Y-39041D01*
X56060Y-40887D01*
X56122Y-40950D01*
X56949Y-40950D01*
X56949Y-41050D01*
X56122Y-41050D01*
X56060Y-41112D01*
X56060Y-42958D01*
X56060Y-43057D01*
X56098Y-43149D01*
X56168Y-43219D01*
X56260Y-43257D01*
X56886Y-43257D01*
X56949Y-43195D01*
X56949Y-43342D01*
X56260Y-43342D01*
X56168Y-43380D01*
X56098Y-43450D01*
X56060Y-43542D01*
X56060Y-43641D01*
X56060Y-47657D01*
X56098Y-47749D01*
X56168Y-47819D01*
X56260Y-47857D01*
X56359Y-47857D01*
X57737Y-47857D01*
X57829Y-47819D01*
X57900Y-47749D01*
X57938Y-47657D01*
X57938Y-47558D01*
X57938Y-46145D01*
X58593Y-46145D01*
X59374Y-46926D01*
X59374Y-47518D01*
X59412Y-47609D01*
X59482Y-47680D01*
X59574Y-47718D01*
X59673Y-47718D01*
X60225Y-47718D01*
X60317Y-47680D01*
X60387Y-47610D01*
X60425Y-47518D01*
X60425Y-47418D01*
X60425Y-46926D01*
X61985Y-45366D01*
X62103Y-45189D01*
X62103Y-45189D01*
X62145Y-44981D01*
X62145Y-44850D01*
X62179Y-44850D01*
X62761Y-45432D01*
X62761Y-47657D01*
X62799Y-47749D01*
X62870Y-47819D01*
X62961Y-47857D01*
X63061Y-47857D01*
X64439Y-47857D01*
X64531Y-47819D01*
X64601Y-47749D01*
X64639Y-47657D01*
X64639Y-47558D01*
X64639Y-47950D01*
X55950Y-47950D01*
X55950Y-34069D01*
X64750Y-34069D01*
X64750Y-47950D01*
X64750Y-47950D01*
G37*
G54D30*
X64750Y-47950D02*
X64639Y-47950D01*
X64639Y-47558D01*
X64639Y-43542D01*
X64639Y-42958D01*
X64639Y-39041D01*
X64639Y-38358D01*
X64639Y-34342D01*
X64601Y-34250D01*
X64531Y-34180D01*
X64439Y-34142D01*
X64340Y-34142D01*
X62962Y-34142D01*
X62870Y-34180D01*
X62799Y-34250D01*
X62761Y-34342D01*
X62761Y-34441D01*
X62761Y-36567D01*
X62069Y-37259D01*
X61985Y-37133D01*
X60425Y-35573D01*
X60425Y-34981D01*
X60387Y-34890D01*
X60317Y-34819D01*
X60225Y-34781D01*
X60126Y-34781D01*
X59574Y-34781D01*
X59482Y-34819D01*
X59412Y-34889D01*
X59374Y-34981D01*
X59374Y-35081D01*
X59374Y-35573D01*
X59093Y-35854D01*
X57938Y-35854D01*
X57938Y-34342D01*
X57900Y-34250D01*
X57829Y-34180D01*
X57738Y-34142D01*
X57638Y-34142D01*
X56260Y-34142D01*
X56168Y-34180D01*
X56098Y-34250D01*
X56060Y-34342D01*
X56060Y-34441D01*
X56060Y-38457D01*
X56098Y-38549D01*
X56168Y-38619D01*
X56260Y-38657D01*
X56359Y-38657D01*
X57737Y-38657D01*
X57829Y-38619D01*
X57900Y-38549D01*
X57938Y-38457D01*
X57938Y-38358D01*
X57938Y-36945D01*
X59318Y-36945D01*
X59527Y-36903D01*
X59527Y-36903D01*
X59598Y-36856D01*
X59673Y-36856D01*
X60166Y-36856D01*
X61054Y-37744D01*
X61054Y-38149D01*
X60750Y-38149D01*
X60658Y-38187D01*
X60588Y-38258D01*
X60550Y-38350D01*
X60549Y-38449D01*
X60549Y-40049D01*
X60587Y-40141D01*
X60658Y-40211D01*
X60750Y-40249D01*
X60849Y-40250D01*
X62449Y-40250D01*
X62541Y-40212D01*
X62611Y-40141D01*
X62649Y-40049D01*
X62650Y-39950D01*
X62650Y-38350D01*
X62612Y-38259D01*
X62761Y-38110D01*
X62761Y-38457D01*
X62799Y-38549D01*
X62870Y-38619D01*
X62961Y-38657D01*
X63061Y-38657D01*
X64439Y-38657D01*
X64531Y-38619D01*
X64601Y-38549D01*
X64639Y-38457D01*
X64639Y-38358D01*
X64639Y-39041D01*
X64639Y-38942D01*
X64601Y-38850D01*
X64531Y-38780D01*
X64439Y-38742D01*
X63813Y-38742D01*
X63750Y-38804D01*
X63750Y-40950D01*
X64577Y-40950D01*
X64639Y-40887D01*
X64639Y-39041D01*
X64639Y-42958D01*
X64639Y-41112D01*
X64577Y-41050D01*
X63750Y-41050D01*
X63750Y-43195D01*
X63813Y-43257D01*
X64439Y-43257D01*
X64531Y-43219D01*
X64601Y-43149D01*
X64639Y-43057D01*
X64639Y-42958D01*
X64639Y-43542D01*
X64601Y-43450D01*
X64531Y-43380D01*
X64439Y-43342D01*
X64340Y-43342D01*
X63650Y-43342D01*
X63650Y-43195D01*
X63650Y-41050D01*
X63650Y-40950D01*
X63650Y-38804D01*
X63588Y-38742D01*
X62962Y-38742D01*
X62870Y-38780D01*
X62799Y-38850D01*
X62761Y-38942D01*
X62761Y-39041D01*
X62761Y-40887D01*
X62824Y-40950D01*
X63650Y-40950D01*
X63650Y-41050D01*
X62824Y-41050D01*
X62761Y-41112D01*
X62761Y-42958D01*
X62761Y-43057D01*
X62799Y-43149D01*
X62870Y-43219D01*
X62962Y-43257D01*
X63588Y-43257D01*
X63650Y-43195D01*
X63650Y-43342D01*
X62962Y-43342D01*
X62870Y-43380D01*
X62799Y-43450D01*
X62761Y-43542D01*
X62761Y-43641D01*
X62761Y-43889D01*
X62650Y-43778D01*
X62650Y-42950D01*
X62650Y-42250D01*
X62650Y-40749D01*
X62649Y-40650D01*
X62611Y-40558D01*
X62541Y-40487D01*
X62449Y-40449D01*
X61712Y-40450D01*
X61650Y-40512D01*
X61650Y-41450D01*
X62587Y-41450D01*
X62650Y-41387D01*
X62650Y-40749D01*
X62650Y-42250D01*
X62650Y-41612D01*
X62587Y-41550D01*
X61650Y-41550D01*
X61650Y-42487D01*
X61712Y-42550D01*
X62449Y-42550D01*
X62541Y-42512D01*
X62611Y-42441D01*
X62649Y-42349D01*
X62650Y-42250D01*
X62650Y-42950D01*
X62612Y-42858D01*
X62541Y-42788D01*
X62449Y-42750D01*
X62350Y-42749D01*
X61550Y-42749D01*
X61550Y-42487D01*
X61550Y-41550D01*
X61550Y-41450D01*
X61550Y-40512D01*
X61487Y-40450D01*
X60750Y-40449D01*
X60658Y-40487D01*
X60588Y-40558D01*
X60550Y-40650D01*
X60549Y-40749D01*
X60550Y-41387D01*
X60612Y-41450D01*
X61550Y-41450D01*
X61550Y-41550D01*
X60612Y-41550D01*
X60550Y-41612D01*
X60549Y-42250D01*
X60550Y-42349D01*
X60588Y-42441D01*
X60658Y-42512D01*
X60750Y-42550D01*
X61487Y-42550D01*
X61550Y-42487D01*
X61550Y-42749D01*
X60750Y-42749D01*
X60658Y-42787D01*
X60588Y-42858D01*
X60550Y-42950D01*
X60549Y-43049D01*
X60549Y-44649D01*
X60587Y-44741D01*
X60658Y-44811D01*
X60750Y-44849D01*
X60849Y-44850D01*
X60959Y-44850D01*
X60437Y-45372D01*
X60437Y-40244D01*
X60437Y-39555D01*
X60437Y-39456D01*
X60425Y-39428D01*
X60425Y-38918D01*
X60425Y-37344D01*
X60387Y-37252D01*
X60317Y-37181D01*
X60225Y-37143D01*
X60126Y-37143D01*
X59574Y-37143D01*
X59482Y-37181D01*
X59412Y-37251D01*
X59374Y-37343D01*
X59374Y-37443D01*
X59374Y-39018D01*
X59412Y-39109D01*
X59482Y-39180D01*
X59574Y-39218D01*
X59673Y-39218D01*
X60225Y-39218D01*
X60317Y-39180D01*
X60387Y-39110D01*
X60425Y-39018D01*
X60425Y-38918D01*
X60425Y-39428D01*
X60399Y-39364D01*
X60328Y-39294D01*
X60236Y-39256D01*
X60083Y-39256D01*
X60020Y-39318D01*
X60020Y-39850D01*
X60374Y-39850D01*
X60437Y-39787D01*
X60437Y-39555D01*
X60437Y-40244D01*
X60437Y-40012D01*
X60374Y-39950D01*
X60020Y-39950D01*
X60020Y-40481D01*
X60083Y-40543D01*
X60236Y-40543D01*
X60328Y-40505D01*
X60399Y-40435D01*
X60437Y-40343D01*
X60437Y-40244D01*
X60437Y-45372D01*
X60425Y-45384D01*
X60425Y-45056D01*
X60425Y-43481D01*
X60387Y-43390D01*
X60317Y-43319D01*
X60225Y-43281D01*
X60126Y-43281D01*
X59920Y-43281D01*
X59920Y-40481D01*
X59920Y-39950D01*
X59920Y-39850D01*
X59920Y-39318D01*
X59858Y-39256D01*
X59704Y-39256D01*
X59612Y-39294D01*
X59542Y-39364D01*
X59504Y-39456D01*
X59504Y-39555D01*
X59504Y-39787D01*
X59566Y-39850D01*
X59920Y-39850D01*
X59920Y-39950D01*
X59566Y-39950D01*
X59504Y-40012D01*
X59504Y-40244D01*
X59504Y-40343D01*
X59542Y-40435D01*
X59612Y-40505D01*
X59704Y-40543D01*
X59858Y-40543D01*
X59920Y-40481D01*
X59920Y-43281D01*
X59574Y-43281D01*
X59482Y-43319D01*
X59412Y-43389D01*
X59374Y-43481D01*
X59374Y-43531D01*
X59374Y-39900D01*
X59374Y-39829D01*
X59332Y-39620D01*
X59332Y-39620D01*
X59295Y-39564D01*
X59295Y-39456D01*
X59257Y-39364D01*
X59187Y-39294D01*
X59095Y-39256D01*
X59027Y-39256D01*
X58585Y-38814D01*
X58408Y-38696D01*
X58200Y-38654D01*
X57991Y-38696D01*
X57844Y-38794D01*
X57829Y-38780D01*
X57737Y-38742D01*
X57111Y-38742D01*
X57049Y-38804D01*
X57049Y-40950D01*
X57875Y-40950D01*
X57938Y-40887D01*
X57938Y-39709D01*
X58322Y-40093D01*
X58325Y-40108D01*
X58362Y-40164D01*
X58362Y-40343D01*
X58400Y-40435D01*
X58470Y-40505D01*
X58562Y-40543D01*
X58662Y-40543D01*
X59095Y-40543D01*
X59187Y-40505D01*
X59257Y-40435D01*
X59295Y-40343D01*
X59295Y-40244D01*
X59295Y-40164D01*
X59332Y-40108D01*
X59374Y-39900D01*
X59374Y-43531D01*
X59374Y-43581D01*
X59374Y-45155D01*
X59412Y-45247D01*
X59482Y-45318D01*
X59574Y-45356D01*
X59673Y-45356D01*
X60225Y-45356D01*
X60317Y-45318D01*
X60387Y-45248D01*
X60425Y-45156D01*
X60425Y-45056D01*
X60425Y-45384D01*
X60166Y-45643D01*
X60126Y-45643D01*
X59633Y-45643D01*
X59204Y-45214D01*
X59027Y-45096D01*
X58818Y-45054D01*
X57938Y-45054D01*
X57938Y-43542D01*
X57938Y-42958D01*
X57938Y-41112D01*
X57875Y-41050D01*
X57049Y-41050D01*
X57049Y-43195D01*
X57111Y-43257D01*
X57737Y-43257D01*
X57829Y-43219D01*
X57900Y-43149D01*
X57938Y-43057D01*
X57938Y-42958D01*
X57938Y-43542D01*
X57900Y-43450D01*
X57829Y-43380D01*
X57738Y-43342D01*
X57638Y-43342D01*
X56949Y-43342D01*
X56949Y-43195D01*
X56949Y-41050D01*
X56949Y-40950D01*
X56949Y-38804D01*
X56886Y-38742D01*
X56260Y-38742D01*
X56168Y-38780D01*
X56098Y-38850D01*
X56060Y-38942D01*
X56060Y-39041D01*
X56060Y-40887D01*
X56122Y-40950D01*
X56949Y-40950D01*
X56949Y-41050D01*
X56122Y-41050D01*
X56060Y-41112D01*
X56060Y-42958D01*
X56060Y-43057D01*
X56098Y-43149D01*
X56168Y-43219D01*
X56260Y-43257D01*
X56886Y-43257D01*
X56949Y-43195D01*
X56949Y-43342D01*
X56260Y-43342D01*
X56168Y-43380D01*
X56098Y-43450D01*
X56060Y-43542D01*
X56060Y-43641D01*
X56060Y-47657D01*
X56098Y-47749D01*
X56168Y-47819D01*
X56260Y-47857D01*
X56359Y-47857D01*
X57737Y-47857D01*
X57829Y-47819D01*
X57900Y-47749D01*
X57938Y-47657D01*
X57938Y-47558D01*
X57938Y-46145D01*
X58593Y-46145D01*
X59374Y-46926D01*
X59374Y-47518D01*
X59412Y-47609D01*
X59482Y-47680D01*
X59574Y-47718D01*
X59673Y-47718D01*
X60225Y-47718D01*
X60317Y-47680D01*
X60387Y-47610D01*
X60425Y-47518D01*
X60425Y-47418D01*
X60425Y-46926D01*
X61985Y-45366D01*
X62103Y-45189D01*
X62103Y-45189D01*
X62145Y-44981D01*
X62145Y-44850D01*
X62179Y-44850D01*
X62761Y-45432D01*
X62761Y-47657D01*
X62799Y-47749D01*
X62870Y-47819D01*
X62961Y-47857D01*
X63061Y-47857D01*
X64439Y-47857D01*
X64531Y-47819D01*
X64601Y-47749D01*
X64639Y-47657D01*
X64639Y-47558D01*
X64639Y-47950D01*
X55950Y-47950D01*
X55950Y-34069D01*
X64750Y-34069D01*
X64750Y-47950D01*
G54D10*
G36*
X74941Y-39700D02*
X74921Y-39700D01*
X74921Y-39707D01*
X74898Y-39707D01*
X74890Y-39700D01*
X74846Y-39700D01*
X74826Y-39700D01*
X74826Y-39600D01*
X74846Y-39600D01*
X74890Y-39600D01*
X74898Y-39592D01*
X74921Y-39592D01*
X74921Y-39600D01*
X74941Y-39600D01*
X74941Y-39700D01*
X74941Y-39700D01*
G37*
G54D30*
X74941Y-39700D02*
X74921Y-39700D01*
X74921Y-39707D01*
X74898Y-39707D01*
X74890Y-39700D01*
X74846Y-39700D01*
X74826Y-39700D01*
X74826Y-39600D01*
X74846Y-39600D01*
X74890Y-39600D01*
X74898Y-39592D01*
X74921Y-39592D01*
X74921Y-39600D01*
X74941Y-39600D01*
X74941Y-39700D01*
G54D10*
G36*
X84130Y-45298D02*
X83550Y-45879D01*
X83550Y-44750D01*
X83550Y-43150D01*
X83550Y-42350D01*
X83550Y-40849D01*
X83550Y-39950D01*
X83550Y-38350D01*
X83512Y-38258D01*
X83441Y-38188D01*
X83349Y-38150D01*
X83250Y-38149D01*
X81650Y-38149D01*
X81558Y-38187D01*
X81488Y-38258D01*
X81450Y-38350D01*
X81449Y-38449D01*
X81449Y-39079D01*
X81009Y-39079D01*
X81005Y-39071D01*
X80935Y-39000D01*
X80843Y-38962D01*
X80744Y-38962D01*
X79956Y-38962D01*
X79864Y-39000D01*
X79794Y-39070D01*
X79791Y-39079D01*
X79709Y-39079D01*
X79705Y-39071D01*
X79635Y-39000D01*
X79543Y-38962D01*
X79444Y-38962D01*
X78656Y-38962D01*
X78564Y-39000D01*
X78494Y-39070D01*
X78491Y-39079D01*
X78170Y-39079D01*
X78036Y-39105D01*
X77923Y-39181D01*
X76805Y-40300D01*
X76350Y-40300D01*
X76350Y-40150D01*
X76312Y-40058D01*
X76241Y-39988D01*
X76149Y-39950D01*
X76050Y-39949D01*
X75850Y-39949D01*
X75758Y-39987D01*
X75688Y-40058D01*
X75660Y-40125D01*
X75629Y-40094D01*
X75620Y-40091D01*
X75620Y-40074D01*
X76544Y-39150D01*
X76649Y-39150D01*
X76649Y-39299D01*
X76687Y-39391D01*
X76758Y-39461D01*
X76850Y-39499D01*
X76949Y-39500D01*
X77149Y-39500D01*
X77241Y-39462D01*
X77311Y-39391D01*
X77349Y-39299D01*
X77350Y-39200D01*
X77350Y-38300D01*
X77312Y-38208D01*
X77241Y-38138D01*
X77149Y-38100D01*
X77050Y-38099D01*
X76850Y-38099D01*
X76758Y-38137D01*
X76688Y-38208D01*
X76650Y-38300D01*
X76649Y-38399D01*
X76649Y-38450D01*
X76400Y-38450D01*
X76266Y-38476D01*
X76152Y-38552D01*
X75325Y-39380D01*
X75325Y-37500D01*
X75324Y-37500D01*
X75325Y-37500D01*
X75325Y-36900D01*
X75300Y-36775D01*
X75300Y-36775D01*
X75229Y-36670D01*
X75229Y-36670D01*
X75029Y-36470D01*
X74965Y-36427D01*
X75005Y-36387D01*
X75043Y-36295D01*
X75043Y-35763D01*
X75005Y-35671D01*
X74935Y-35600D01*
X74843Y-35562D01*
X74744Y-35562D01*
X74512Y-35562D01*
X74450Y-35625D01*
X74450Y-35979D01*
X74981Y-35979D01*
X75043Y-35916D01*
X75043Y-35763D01*
X75043Y-36295D01*
X75043Y-36141D01*
X74981Y-36079D01*
X74450Y-36079D01*
X74450Y-36087D01*
X74350Y-36087D01*
X74350Y-36079D01*
X74350Y-35979D01*
X74350Y-35625D01*
X74287Y-35562D01*
X74055Y-35562D01*
X73956Y-35562D01*
X73864Y-35600D01*
X73794Y-35671D01*
X73756Y-35763D01*
X73756Y-35916D01*
X73818Y-35979D01*
X74350Y-35979D01*
X74350Y-36079D01*
X73818Y-36079D01*
X73756Y-36141D01*
X73756Y-36295D01*
X73794Y-36387D01*
X73834Y-36427D01*
X73770Y-36470D01*
X73770Y-36470D01*
X73570Y-36670D01*
X73499Y-36775D01*
X73475Y-36900D01*
X73475Y-38131D01*
X73150Y-38456D01*
X73150Y-38450D01*
X73112Y-38358D01*
X73041Y-38288D01*
X72949Y-38250D01*
X72850Y-38249D01*
X72402Y-38249D01*
X69725Y-35573D01*
X69725Y-34981D01*
X69687Y-34890D01*
X69617Y-34819D01*
X69525Y-34781D01*
X69426Y-34781D01*
X68874Y-34781D01*
X68782Y-34819D01*
X68712Y-34889D01*
X68674Y-34981D01*
X68674Y-35081D01*
X68674Y-35573D01*
X68393Y-35854D01*
X67238Y-35854D01*
X67238Y-34342D01*
X67200Y-34250D01*
X67129Y-34180D01*
X67038Y-34142D01*
X66938Y-34142D01*
X65560Y-34142D01*
X65468Y-34180D01*
X65398Y-34250D01*
X65360Y-34342D01*
X65360Y-34441D01*
X65360Y-38457D01*
X65398Y-38549D01*
X65468Y-38619D01*
X65560Y-38657D01*
X65659Y-38657D01*
X67037Y-38657D01*
X67129Y-38619D01*
X67200Y-38549D01*
X67238Y-38457D01*
X67238Y-38358D01*
X67238Y-36945D01*
X68618Y-36945D01*
X68827Y-36903D01*
X68827Y-36903D01*
X68898Y-36856D01*
X68973Y-36856D01*
X69466Y-36856D01*
X71052Y-38443D01*
X71050Y-38450D01*
X71049Y-38549D01*
X71049Y-40149D01*
X71087Y-40241D01*
X71158Y-40311D01*
X71250Y-40349D01*
X71349Y-40350D01*
X72949Y-40350D01*
X73041Y-40312D01*
X73111Y-40241D01*
X73149Y-40149D01*
X73150Y-40050D01*
X73150Y-39375D01*
X73856Y-38669D01*
X73856Y-38687D01*
X73918Y-38750D01*
X74450Y-38750D01*
X74450Y-38742D01*
X74550Y-38742D01*
X74550Y-38750D01*
X75081Y-38750D01*
X75143Y-38687D01*
X75143Y-38534D01*
X75143Y-38435D01*
X75124Y-38388D01*
X75170Y-38341D01*
X75208Y-38249D01*
X75209Y-38150D01*
X75209Y-37750D01*
X75229Y-37729D01*
X75229Y-37729D01*
X75229Y-37729D01*
X75300Y-37624D01*
X75300Y-37624D01*
X75320Y-37524D01*
X75325Y-37500D01*
X75325Y-39380D01*
X75209Y-39496D01*
X75209Y-39449D01*
X75208Y-39350D01*
X75170Y-39258D01*
X75124Y-39211D01*
X75143Y-39164D01*
X75143Y-39065D01*
X75143Y-38912D01*
X75081Y-38850D01*
X74550Y-38850D01*
X74550Y-38857D01*
X74450Y-38857D01*
X74450Y-38850D01*
X73918Y-38850D01*
X73856Y-38912D01*
X73856Y-39065D01*
X73856Y-39164D01*
X73875Y-39211D01*
X73829Y-39258D01*
X73791Y-39350D01*
X73790Y-39449D01*
X73790Y-39949D01*
X73791Y-39949D01*
X73791Y-40086D01*
X73771Y-40094D01*
X73700Y-40164D01*
X73662Y-40256D01*
X73662Y-40355D01*
X73662Y-41143D01*
X73700Y-41235D01*
X73770Y-41305D01*
X73862Y-41343D01*
X73962Y-41343D01*
X74248Y-41343D01*
X74552Y-41647D01*
X74552Y-41647D01*
X74666Y-41723D01*
X74799Y-41749D01*
X74800Y-41750D01*
X75700Y-41750D01*
X75833Y-41723D01*
X75833Y-41723D01*
X75947Y-41647D01*
X76247Y-41347D01*
X76247Y-41347D01*
X76247Y-41347D01*
X76323Y-41233D01*
X76330Y-41195D01*
X76349Y-41149D01*
X76349Y-41100D01*
X76350Y-41100D01*
X76349Y-41100D01*
X76350Y-41100D01*
X76350Y-41099D01*
X76350Y-41050D01*
X76350Y-41000D01*
X76950Y-41000D01*
X77083Y-40973D01*
X77083Y-40973D01*
X77197Y-40897D01*
X77649Y-40444D01*
X77650Y-40537D01*
X77712Y-40600D01*
X77950Y-40600D01*
X77950Y-40592D01*
X78050Y-40592D01*
X78050Y-40600D01*
X78287Y-40600D01*
X78350Y-40537D01*
X78350Y-40249D01*
X78349Y-40150D01*
X78311Y-40058D01*
X78241Y-39987D01*
X78149Y-39949D01*
X78145Y-39949D01*
X78315Y-39779D01*
X78490Y-39779D01*
X78494Y-39787D01*
X78564Y-39857D01*
X78656Y-39895D01*
X78755Y-39895D01*
X79543Y-39895D01*
X79635Y-39857D01*
X79705Y-39787D01*
X79708Y-39779D01*
X79790Y-39779D01*
X79794Y-39787D01*
X79864Y-39857D01*
X79956Y-39895D01*
X80055Y-39895D01*
X80843Y-39895D01*
X80935Y-39857D01*
X81005Y-39787D01*
X81008Y-39779D01*
X81449Y-39779D01*
X81449Y-40049D01*
X81487Y-40141D01*
X81558Y-40211D01*
X81650Y-40249D01*
X81749Y-40250D01*
X83349Y-40250D01*
X83441Y-40212D01*
X83511Y-40141D01*
X83549Y-40049D01*
X83550Y-39950D01*
X83550Y-40849D01*
X83549Y-40750D01*
X83511Y-40658D01*
X83441Y-40587D01*
X83349Y-40549D01*
X82612Y-40550D01*
X82550Y-40612D01*
X82550Y-41550D01*
X83487Y-41550D01*
X83550Y-41487D01*
X83550Y-40849D01*
X83550Y-42350D01*
X83550Y-41712D01*
X83487Y-41650D01*
X82550Y-41650D01*
X82550Y-42587D01*
X82612Y-42650D01*
X83349Y-42650D01*
X83441Y-42612D01*
X83511Y-42541D01*
X83549Y-42449D01*
X83550Y-42350D01*
X83550Y-43150D01*
X83512Y-43058D01*
X83441Y-42988D01*
X83349Y-42950D01*
X83250Y-42949D01*
X82450Y-42949D01*
X82450Y-42587D01*
X82450Y-41650D01*
X82450Y-41550D01*
X82450Y-40612D01*
X82387Y-40550D01*
X81650Y-40549D01*
X81558Y-40587D01*
X81488Y-40658D01*
X81450Y-40750D01*
X81449Y-40849D01*
X81450Y-41487D01*
X81512Y-41550D01*
X82450Y-41550D01*
X82450Y-41650D01*
X81512Y-41650D01*
X81450Y-41712D01*
X81449Y-42350D01*
X81450Y-42449D01*
X81488Y-42541D01*
X81558Y-42612D01*
X81650Y-42650D01*
X82387Y-42650D01*
X82450Y-42587D01*
X82450Y-42949D01*
X81650Y-42949D01*
X81558Y-42987D01*
X81488Y-43058D01*
X81450Y-43150D01*
X81449Y-43249D01*
X81449Y-44079D01*
X81409Y-44079D01*
X81405Y-44071D01*
X81335Y-44000D01*
X81243Y-43962D01*
X81144Y-43962D01*
X81043Y-43962D01*
X81043Y-40836D01*
X81043Y-40304D01*
X81005Y-40212D01*
X80935Y-40142D01*
X80843Y-40104D01*
X80744Y-40104D01*
X80512Y-40104D01*
X80450Y-40166D01*
X80450Y-40520D01*
X80981Y-40520D01*
X81043Y-40458D01*
X81043Y-40304D01*
X81043Y-40836D01*
X81043Y-40683D01*
X80981Y-40620D01*
X80450Y-40620D01*
X80450Y-40974D01*
X80512Y-41037D01*
X80744Y-41037D01*
X80843Y-41037D01*
X80935Y-40999D01*
X81005Y-40928D01*
X81043Y-40836D01*
X81043Y-43962D01*
X80356Y-43962D01*
X80350Y-43965D01*
X80350Y-40974D01*
X80350Y-40620D01*
X80350Y-40520D01*
X80350Y-40166D01*
X80287Y-40104D01*
X80055Y-40104D01*
X79956Y-40104D01*
X79864Y-40142D01*
X79794Y-40212D01*
X79756Y-40304D01*
X79756Y-40458D01*
X79818Y-40520D01*
X80350Y-40520D01*
X80350Y-40620D01*
X79818Y-40620D01*
X79756Y-40683D01*
X79756Y-40836D01*
X79794Y-40928D01*
X79864Y-40999D01*
X79956Y-41037D01*
X80055Y-41037D01*
X80287Y-41037D01*
X80350Y-40974D01*
X80350Y-43965D01*
X80264Y-44000D01*
X80194Y-44070D01*
X80191Y-44079D01*
X80109Y-44079D01*
X80105Y-44071D01*
X80035Y-44000D01*
X79943Y-43962D01*
X79844Y-43962D01*
X79743Y-43962D01*
X79743Y-40836D01*
X79743Y-40304D01*
X79705Y-40212D01*
X79635Y-40142D01*
X79543Y-40104D01*
X79444Y-40104D01*
X79212Y-40104D01*
X79150Y-40166D01*
X79150Y-40520D01*
X79681Y-40520D01*
X79743Y-40458D01*
X79743Y-40304D01*
X79743Y-40836D01*
X79743Y-40683D01*
X79681Y-40620D01*
X79150Y-40620D01*
X79150Y-40974D01*
X79212Y-41037D01*
X79444Y-41037D01*
X79543Y-41037D01*
X79635Y-40999D01*
X79705Y-40928D01*
X79743Y-40836D01*
X79743Y-43962D01*
X79056Y-43962D01*
X79050Y-43965D01*
X79050Y-40974D01*
X79050Y-40620D01*
X79050Y-40520D01*
X79050Y-40166D01*
X78987Y-40104D01*
X78755Y-40104D01*
X78656Y-40104D01*
X78564Y-40142D01*
X78494Y-40212D01*
X78456Y-40304D01*
X78456Y-40458D01*
X78518Y-40520D01*
X79050Y-40520D01*
X79050Y-40620D01*
X78518Y-40620D01*
X78456Y-40683D01*
X78456Y-40836D01*
X78494Y-40928D01*
X78564Y-40999D01*
X78656Y-41037D01*
X78755Y-41037D01*
X78987Y-41037D01*
X79050Y-40974D01*
X79050Y-43965D01*
X78964Y-44000D01*
X78894Y-44070D01*
X78891Y-44079D01*
X78670Y-44079D01*
X78536Y-44105D01*
X78423Y-44181D01*
X78423Y-44181D01*
X78423Y-44181D01*
X78350Y-44254D01*
X78350Y-41050D01*
X78350Y-40762D01*
X78287Y-40700D01*
X78050Y-40700D01*
X78050Y-41287D01*
X78112Y-41350D01*
X78149Y-41350D01*
X78241Y-41312D01*
X78311Y-41241D01*
X78349Y-41149D01*
X78350Y-41050D01*
X78350Y-44254D01*
X77950Y-44655D01*
X77950Y-41287D01*
X77950Y-40700D01*
X77712Y-40700D01*
X77650Y-40762D01*
X77649Y-41050D01*
X77650Y-41149D01*
X77688Y-41241D01*
X77758Y-41312D01*
X77850Y-41350D01*
X77887Y-41350D01*
X77950Y-41287D01*
X77950Y-44655D01*
X77005Y-45600D01*
X76850Y-45600D01*
X76850Y-45450D01*
X76850Y-45450D01*
X76850Y-43870D01*
X76849Y-43870D01*
X76850Y-43870D01*
X76843Y-43837D01*
X76843Y-43837D01*
X76843Y-43737D01*
X76843Y-43304D01*
X76805Y-43212D01*
X76735Y-43142D01*
X76643Y-43104D01*
X76544Y-43104D01*
X75756Y-43104D01*
X75664Y-43142D01*
X75600Y-43206D01*
X75209Y-42815D01*
X75209Y-42754D01*
X75580Y-42754D01*
X75594Y-42787D01*
X75664Y-42857D01*
X75756Y-42895D01*
X75855Y-42895D01*
X76643Y-42895D01*
X76735Y-42857D01*
X76798Y-42793D01*
X77150Y-43144D01*
X77150Y-43650D01*
X77149Y-43699D01*
X77149Y-44599D01*
X77187Y-44691D01*
X77258Y-44761D01*
X77350Y-44799D01*
X77449Y-44800D01*
X77649Y-44800D01*
X77741Y-44762D01*
X77811Y-44691D01*
X77849Y-44599D01*
X77850Y-44500D01*
X77850Y-43600D01*
X77850Y-43600D01*
X77850Y-43000D01*
X77823Y-42866D01*
X77747Y-42752D01*
X77747Y-42752D01*
X77176Y-42181D01*
X77063Y-42105D01*
X76929Y-42079D01*
X76809Y-42079D01*
X76805Y-42071D01*
X76735Y-42000D01*
X76643Y-41962D01*
X76544Y-41962D01*
X75756Y-41962D01*
X75664Y-42000D01*
X75594Y-42070D01*
X75580Y-42104D01*
X74770Y-42104D01*
X74770Y-42104D01*
X74746Y-42109D01*
X74646Y-42128D01*
X74541Y-42199D01*
X74541Y-42199D01*
X74398Y-42342D01*
X74327Y-42447D01*
X74327Y-42450D01*
X74321Y-42450D01*
X74321Y-42476D01*
X74320Y-42483D01*
X74294Y-42472D01*
X74272Y-42450D01*
X74247Y-42449D01*
X74244Y-42451D01*
X74240Y-42449D01*
X74216Y-42450D01*
X74193Y-42472D01*
X74155Y-42487D01*
X74085Y-42558D01*
X74078Y-42574D01*
X74078Y-42512D01*
X74016Y-42450D01*
X73991Y-42449D01*
X73899Y-42487D01*
X73829Y-42558D01*
X73791Y-42650D01*
X73790Y-42749D01*
X73791Y-42837D01*
X73853Y-42900D01*
X74078Y-42900D01*
X74078Y-42869D01*
X74109Y-42900D01*
X74153Y-42900D01*
X74173Y-42900D01*
X74173Y-43000D01*
X74153Y-43000D01*
X74109Y-43000D01*
X74101Y-43007D01*
X74078Y-43007D01*
X74078Y-43000D01*
X73853Y-43000D01*
X73791Y-43062D01*
X73790Y-43150D01*
X73791Y-43249D01*
X73829Y-43341D01*
X73875Y-43388D01*
X73856Y-43435D01*
X73856Y-43534D01*
X73856Y-43687D01*
X73918Y-43750D01*
X74450Y-43750D01*
X74450Y-43742D01*
X74550Y-43742D01*
X74550Y-43750D01*
X75081Y-43750D01*
X75143Y-43687D01*
X75143Y-43669D01*
X75275Y-43800D01*
X75275Y-43800D01*
X75380Y-43871D01*
X75380Y-43871D01*
X75480Y-43890D01*
X75504Y-43895D01*
X75504Y-43895D01*
X75504Y-43895D01*
X75580Y-43895D01*
X75594Y-43928D01*
X75664Y-43999D01*
X75756Y-44037D01*
X75855Y-44037D01*
X76150Y-44037D01*
X76150Y-45500D01*
X76149Y-45549D01*
X76149Y-46449D01*
X76187Y-46541D01*
X76258Y-46611D01*
X76350Y-46649D01*
X76449Y-46650D01*
X76649Y-46650D01*
X76741Y-46612D01*
X76811Y-46541D01*
X76849Y-46449D01*
X76850Y-46350D01*
X76850Y-46300D01*
X77150Y-46300D01*
X77283Y-46273D01*
X77283Y-46273D01*
X77397Y-46197D01*
X78153Y-45441D01*
X78150Y-45450D01*
X78149Y-45549D01*
X78150Y-45837D01*
X78212Y-45900D01*
X78450Y-45900D01*
X78450Y-45312D01*
X78387Y-45250D01*
X78350Y-45249D01*
X78341Y-45253D01*
X78815Y-44779D01*
X78890Y-44779D01*
X78894Y-44787D01*
X78964Y-44857D01*
X79056Y-44895D01*
X79155Y-44895D01*
X79943Y-44895D01*
X80035Y-44857D01*
X80105Y-44787D01*
X80108Y-44779D01*
X80190Y-44779D01*
X80194Y-44787D01*
X80264Y-44857D01*
X80356Y-44895D01*
X80455Y-44895D01*
X81243Y-44895D01*
X81335Y-44857D01*
X81405Y-44787D01*
X81408Y-44779D01*
X81449Y-44779D01*
X81449Y-44849D01*
X81487Y-44941D01*
X81558Y-45011D01*
X81650Y-45049D01*
X81749Y-45050D01*
X83349Y-45050D01*
X83441Y-45012D01*
X83511Y-44941D01*
X83549Y-44849D01*
X83550Y-44750D01*
X83550Y-45879D01*
X81479Y-47950D01*
X81443Y-47950D01*
X81443Y-45836D01*
X81443Y-45304D01*
X81405Y-45212D01*
X81335Y-45142D01*
X81243Y-45104D01*
X81144Y-45104D01*
X80912Y-45104D01*
X80850Y-45166D01*
X80850Y-45520D01*
X81381Y-45520D01*
X81443Y-45458D01*
X81443Y-45304D01*
X81443Y-45836D01*
X81443Y-45683D01*
X81381Y-45620D01*
X80850Y-45620D01*
X80850Y-45974D01*
X80912Y-46037D01*
X81144Y-46037D01*
X81243Y-46037D01*
X81335Y-45999D01*
X81405Y-45928D01*
X81443Y-45836D01*
X81443Y-47950D01*
X80750Y-47950D01*
X80750Y-45974D01*
X80750Y-45620D01*
X80750Y-45520D01*
X80750Y-45166D01*
X80687Y-45104D01*
X80455Y-45104D01*
X80356Y-45104D01*
X80264Y-45142D01*
X80194Y-45212D01*
X80156Y-45304D01*
X80156Y-45458D01*
X80218Y-45520D01*
X80750Y-45520D01*
X80750Y-45620D01*
X80218Y-45620D01*
X80156Y-45683D01*
X80156Y-45836D01*
X80194Y-45928D01*
X80264Y-45999D01*
X80356Y-46037D01*
X80455Y-46037D01*
X80687Y-46037D01*
X80750Y-45974D01*
X80750Y-47950D01*
X80143Y-47950D01*
X80143Y-45836D01*
X80143Y-45304D01*
X80105Y-45212D01*
X80035Y-45142D01*
X79943Y-45104D01*
X79844Y-45104D01*
X79612Y-45104D01*
X79550Y-45166D01*
X79550Y-45520D01*
X80081Y-45520D01*
X80143Y-45458D01*
X80143Y-45304D01*
X80143Y-45836D01*
X80143Y-45683D01*
X80081Y-45620D01*
X79550Y-45620D01*
X79550Y-45974D01*
X79612Y-46037D01*
X79844Y-46037D01*
X79943Y-46037D01*
X80035Y-45999D01*
X80105Y-45928D01*
X80143Y-45836D01*
X80143Y-47950D01*
X79450Y-47950D01*
X79450Y-45974D01*
X79450Y-45620D01*
X79450Y-45520D01*
X79450Y-45166D01*
X79387Y-45104D01*
X79155Y-45104D01*
X79056Y-45104D01*
X78964Y-45142D01*
X78894Y-45212D01*
X78856Y-45304D01*
X78856Y-45458D01*
X78918Y-45520D01*
X79450Y-45520D01*
X79450Y-45620D01*
X78918Y-45620D01*
X78856Y-45683D01*
X78856Y-45836D01*
X78894Y-45928D01*
X78964Y-45999D01*
X79056Y-46037D01*
X79155Y-46037D01*
X79387Y-46037D01*
X79450Y-45974D01*
X79450Y-47950D01*
X78850Y-47950D01*
X78850Y-46350D01*
X78850Y-45549D01*
X78849Y-45450D01*
X78811Y-45358D01*
X78741Y-45287D01*
X78649Y-45249D01*
X78612Y-45250D01*
X78550Y-45312D01*
X78550Y-45900D01*
X78787Y-45900D01*
X78850Y-45837D01*
X78850Y-45549D01*
X78850Y-46350D01*
X78850Y-46062D01*
X78787Y-46000D01*
X78550Y-46000D01*
X78550Y-46587D01*
X78612Y-46650D01*
X78649Y-46650D01*
X78741Y-46612D01*
X78811Y-46541D01*
X78849Y-46449D01*
X78850Y-46350D01*
X78850Y-47950D01*
X78450Y-47950D01*
X78450Y-46587D01*
X78450Y-46000D01*
X78212Y-46000D01*
X78150Y-46062D01*
X78149Y-46350D01*
X78150Y-46449D01*
X78188Y-46541D01*
X78258Y-46612D01*
X78350Y-46650D01*
X78387Y-46650D01*
X78450Y-46587D01*
X78450Y-47950D01*
X75425Y-47950D01*
X75425Y-45800D01*
X75425Y-45100D01*
X75400Y-44975D01*
X75400Y-44975D01*
X75329Y-44870D01*
X75209Y-44749D01*
X75209Y-44350D01*
X75171Y-44258D01*
X75124Y-44211D01*
X75143Y-44164D01*
X75143Y-44065D01*
X75143Y-43912D01*
X75081Y-43850D01*
X74550Y-43850D01*
X74550Y-43857D01*
X74450Y-43857D01*
X74450Y-43850D01*
X73918Y-43850D01*
X73856Y-43912D01*
X73856Y-43930D01*
X73695Y-43770D01*
X73590Y-43699D01*
X73466Y-43675D01*
X73150Y-43675D01*
X73150Y-43150D01*
X73150Y-42350D01*
X73150Y-40849D01*
X73149Y-40750D01*
X73111Y-40658D01*
X73041Y-40587D01*
X72949Y-40549D01*
X72212Y-40550D01*
X72150Y-40612D01*
X72150Y-41550D01*
X73087Y-41550D01*
X73150Y-41487D01*
X73150Y-40849D01*
X73150Y-42350D01*
X73150Y-41712D01*
X73087Y-41650D01*
X72150Y-41650D01*
X72150Y-42587D01*
X72212Y-42650D01*
X72949Y-42650D01*
X73041Y-42612D01*
X73111Y-42541D01*
X73149Y-42449D01*
X73150Y-42350D01*
X73150Y-43150D01*
X73112Y-43058D01*
X73041Y-42988D01*
X72949Y-42950D01*
X72850Y-42949D01*
X72050Y-42949D01*
X72050Y-42587D01*
X72050Y-41650D01*
X72050Y-41550D01*
X72050Y-40612D01*
X71987Y-40550D01*
X71250Y-40549D01*
X71158Y-40587D01*
X71088Y-40658D01*
X71050Y-40750D01*
X71049Y-40849D01*
X71050Y-41487D01*
X71112Y-41550D01*
X72050Y-41550D01*
X72050Y-41650D01*
X71112Y-41650D01*
X71050Y-41712D01*
X71049Y-42350D01*
X71050Y-42449D01*
X71088Y-42541D01*
X71158Y-42612D01*
X71250Y-42650D01*
X71987Y-42650D01*
X72050Y-42587D01*
X72050Y-42949D01*
X71250Y-42949D01*
X71158Y-42987D01*
X71088Y-43058D01*
X71050Y-43150D01*
X71049Y-43249D01*
X71049Y-44060D01*
X69725Y-45384D01*
X69725Y-45056D01*
X69725Y-43481D01*
X69725Y-38918D01*
X69725Y-37344D01*
X69687Y-37252D01*
X69617Y-37181D01*
X69525Y-37143D01*
X69426Y-37143D01*
X68874Y-37143D01*
X68782Y-37181D01*
X68712Y-37251D01*
X68674Y-37343D01*
X68674Y-37443D01*
X68674Y-39018D01*
X68712Y-39109D01*
X68782Y-39180D01*
X68874Y-39218D01*
X68973Y-39218D01*
X69525Y-39218D01*
X69617Y-39180D01*
X69687Y-39110D01*
X69725Y-39018D01*
X69725Y-38918D01*
X69725Y-43481D01*
X69687Y-43390D01*
X69617Y-43319D01*
X69525Y-43281D01*
X69426Y-43281D01*
X68874Y-43281D01*
X68782Y-43319D01*
X68712Y-43389D01*
X68674Y-43481D01*
X68674Y-43581D01*
X68674Y-45155D01*
X68712Y-45247D01*
X68782Y-45318D01*
X68874Y-45356D01*
X68973Y-45356D01*
X69525Y-45356D01*
X69617Y-45318D01*
X69687Y-45248D01*
X69725Y-45156D01*
X69725Y-45056D01*
X69725Y-45384D01*
X69466Y-45643D01*
X69426Y-45643D01*
X68933Y-45643D01*
X68504Y-45214D01*
X68327Y-45096D01*
X68118Y-45054D01*
X67238Y-45054D01*
X67238Y-43542D01*
X67238Y-42958D01*
X67238Y-39041D01*
X67238Y-38942D01*
X67200Y-38850D01*
X67129Y-38780D01*
X67037Y-38742D01*
X66411Y-38742D01*
X66349Y-38804D01*
X66349Y-40950D01*
X67175Y-40950D01*
X67238Y-40887D01*
X67238Y-39041D01*
X67238Y-42958D01*
X67238Y-41112D01*
X67175Y-41050D01*
X66349Y-41050D01*
X66349Y-43195D01*
X66411Y-43257D01*
X67037Y-43257D01*
X67129Y-43219D01*
X67200Y-43149D01*
X67238Y-43057D01*
X67238Y-42958D01*
X67238Y-43542D01*
X67200Y-43450D01*
X67129Y-43380D01*
X67038Y-43342D01*
X66938Y-43342D01*
X66249Y-43342D01*
X66249Y-43195D01*
X66249Y-41050D01*
X66249Y-40950D01*
X66249Y-38804D01*
X66186Y-38742D01*
X65560Y-38742D01*
X65468Y-38780D01*
X65398Y-38850D01*
X65360Y-38942D01*
X65360Y-39041D01*
X65360Y-40887D01*
X65422Y-40950D01*
X66249Y-40950D01*
X66249Y-41050D01*
X65422Y-41050D01*
X65360Y-41112D01*
X65360Y-42958D01*
X65360Y-43057D01*
X65398Y-43149D01*
X65468Y-43219D01*
X65560Y-43257D01*
X66186Y-43257D01*
X66249Y-43195D01*
X66249Y-43342D01*
X65560Y-43342D01*
X65468Y-43380D01*
X65398Y-43450D01*
X65360Y-43542D01*
X65360Y-43641D01*
X65360Y-47657D01*
X65398Y-47749D01*
X65468Y-47819D01*
X65560Y-47857D01*
X65659Y-47857D01*
X67037Y-47857D01*
X67129Y-47819D01*
X67200Y-47749D01*
X67238Y-47657D01*
X67238Y-47558D01*
X67238Y-46145D01*
X67893Y-46145D01*
X68674Y-46926D01*
X68674Y-47518D01*
X68712Y-47609D01*
X68782Y-47680D01*
X68874Y-47718D01*
X68973Y-47718D01*
X69525Y-47718D01*
X69617Y-47680D01*
X69687Y-47610D01*
X69725Y-47518D01*
X69725Y-47418D01*
X69725Y-46926D01*
X71602Y-45050D01*
X72949Y-45050D01*
X73041Y-45012D01*
X73111Y-44941D01*
X73149Y-44849D01*
X73150Y-44750D01*
X73150Y-44325D01*
X73331Y-44325D01*
X73475Y-44468D01*
X73475Y-45600D01*
X73499Y-45724D01*
X73570Y-45829D01*
X73870Y-46129D01*
X73870Y-46129D01*
X73934Y-46172D01*
X73894Y-46212D01*
X73856Y-46304D01*
X73856Y-46458D01*
X73918Y-46520D01*
X74450Y-46520D01*
X74450Y-46512D01*
X74550Y-46512D01*
X74550Y-46520D01*
X75081Y-46520D01*
X75143Y-46458D01*
X75143Y-46304D01*
X75105Y-46212D01*
X75098Y-46205D01*
X75124Y-46200D01*
X75124Y-46200D01*
X75229Y-46129D01*
X75329Y-46029D01*
X75329Y-46029D01*
X75329Y-46029D01*
X75372Y-45966D01*
X75400Y-45924D01*
X75400Y-45924D01*
X75425Y-45800D01*
X75425Y-47950D01*
X75143Y-47950D01*
X75143Y-46836D01*
X75143Y-46683D01*
X75081Y-46620D01*
X74550Y-46620D01*
X74550Y-46974D01*
X74612Y-47037D01*
X74844Y-47037D01*
X74943Y-47037D01*
X75035Y-46999D01*
X75105Y-46928D01*
X75143Y-46836D01*
X75143Y-47950D01*
X74450Y-47950D01*
X74450Y-46974D01*
X74450Y-46620D01*
X73918Y-46620D01*
X73856Y-46683D01*
X73856Y-46836D01*
X73894Y-46928D01*
X73964Y-46999D01*
X74056Y-47037D01*
X74155Y-47037D01*
X74387Y-47037D01*
X74450Y-46974D01*
X74450Y-47950D01*
X65250Y-47950D01*
X65250Y-34069D01*
X80098Y-34069D01*
X84130Y-38101D01*
X84130Y-45298D01*
X84130Y-45298D01*
G37*
G54D30*
X84130Y-45298D02*
X83550Y-45879D01*
X83550Y-44750D01*
X83550Y-43150D01*
X83550Y-42350D01*
X83550Y-40849D01*
X83550Y-39950D01*
X83550Y-38350D01*
X83512Y-38258D01*
X83441Y-38188D01*
X83349Y-38150D01*
X83250Y-38149D01*
X81650Y-38149D01*
X81558Y-38187D01*
X81488Y-38258D01*
X81450Y-38350D01*
X81449Y-38449D01*
X81449Y-39079D01*
X81009Y-39079D01*
X81005Y-39071D01*
X80935Y-39000D01*
X80843Y-38962D01*
X80744Y-38962D01*
X79956Y-38962D01*
X79864Y-39000D01*
X79794Y-39070D01*
X79791Y-39079D01*
X79709Y-39079D01*
X79705Y-39071D01*
X79635Y-39000D01*
X79543Y-38962D01*
X79444Y-38962D01*
X78656Y-38962D01*
X78564Y-39000D01*
X78494Y-39070D01*
X78491Y-39079D01*
X78170Y-39079D01*
X78036Y-39105D01*
X77923Y-39181D01*
X76805Y-40300D01*
X76350Y-40300D01*
X76350Y-40150D01*
X76312Y-40058D01*
X76241Y-39988D01*
X76149Y-39950D01*
X76050Y-39949D01*
X75850Y-39949D01*
X75758Y-39987D01*
X75688Y-40058D01*
X75660Y-40125D01*
X75629Y-40094D01*
X75620Y-40091D01*
X75620Y-40074D01*
X76544Y-39150D01*
X76649Y-39150D01*
X76649Y-39299D01*
X76687Y-39391D01*
X76758Y-39461D01*
X76850Y-39499D01*
X76949Y-39500D01*
X77149Y-39500D01*
X77241Y-39462D01*
X77311Y-39391D01*
X77349Y-39299D01*
X77350Y-39200D01*
X77350Y-38300D01*
X77312Y-38208D01*
X77241Y-38138D01*
X77149Y-38100D01*
X77050Y-38099D01*
X76850Y-38099D01*
X76758Y-38137D01*
X76688Y-38208D01*
X76650Y-38300D01*
X76649Y-38399D01*
X76649Y-38450D01*
X76400Y-38450D01*
X76266Y-38476D01*
X76152Y-38552D01*
X75325Y-39380D01*
X75325Y-37500D01*
X75324Y-37500D01*
X75325Y-37500D01*
X75325Y-36900D01*
X75300Y-36775D01*
X75300Y-36775D01*
X75229Y-36670D01*
X75229Y-36670D01*
X75029Y-36470D01*
X74965Y-36427D01*
X75005Y-36387D01*
X75043Y-36295D01*
X75043Y-35763D01*
X75005Y-35671D01*
X74935Y-35600D01*
X74843Y-35562D01*
X74744Y-35562D01*
X74512Y-35562D01*
X74450Y-35625D01*
X74450Y-35979D01*
X74981Y-35979D01*
X75043Y-35916D01*
X75043Y-35763D01*
X75043Y-36295D01*
X75043Y-36141D01*
X74981Y-36079D01*
X74450Y-36079D01*
X74450Y-36087D01*
X74350Y-36087D01*
X74350Y-36079D01*
X74350Y-35979D01*
X74350Y-35625D01*
X74287Y-35562D01*
X74055Y-35562D01*
X73956Y-35562D01*
X73864Y-35600D01*
X73794Y-35671D01*
X73756Y-35763D01*
X73756Y-35916D01*
X73818Y-35979D01*
X74350Y-35979D01*
X74350Y-36079D01*
X73818Y-36079D01*
X73756Y-36141D01*
X73756Y-36295D01*
X73794Y-36387D01*
X73834Y-36427D01*
X73770Y-36470D01*
X73770Y-36470D01*
X73570Y-36670D01*
X73499Y-36775D01*
X73475Y-36900D01*
X73475Y-38131D01*
X73150Y-38456D01*
X73150Y-38450D01*
X73112Y-38358D01*
X73041Y-38288D01*
X72949Y-38250D01*
X72850Y-38249D01*
X72402Y-38249D01*
X69725Y-35573D01*
X69725Y-34981D01*
X69687Y-34890D01*
X69617Y-34819D01*
X69525Y-34781D01*
X69426Y-34781D01*
X68874Y-34781D01*
X68782Y-34819D01*
X68712Y-34889D01*
X68674Y-34981D01*
X68674Y-35081D01*
X68674Y-35573D01*
X68393Y-35854D01*
X67238Y-35854D01*
X67238Y-34342D01*
X67200Y-34250D01*
X67129Y-34180D01*
X67038Y-34142D01*
X66938Y-34142D01*
X65560Y-34142D01*
X65468Y-34180D01*
X65398Y-34250D01*
X65360Y-34342D01*
X65360Y-34441D01*
X65360Y-38457D01*
X65398Y-38549D01*
X65468Y-38619D01*
X65560Y-38657D01*
X65659Y-38657D01*
X67037Y-38657D01*
X67129Y-38619D01*
X67200Y-38549D01*
X67238Y-38457D01*
X67238Y-38358D01*
X67238Y-36945D01*
X68618Y-36945D01*
X68827Y-36903D01*
X68827Y-36903D01*
X68898Y-36856D01*
X68973Y-36856D01*
X69466Y-36856D01*
X71052Y-38443D01*
X71050Y-38450D01*
X71049Y-38549D01*
X71049Y-40149D01*
X71087Y-40241D01*
X71158Y-40311D01*
X71250Y-40349D01*
X71349Y-40350D01*
X72949Y-40350D01*
X73041Y-40312D01*
X73111Y-40241D01*
X73149Y-40149D01*
X73150Y-40050D01*
X73150Y-39375D01*
X73856Y-38669D01*
X73856Y-38687D01*
X73918Y-38750D01*
X74450Y-38750D01*
X74450Y-38742D01*
X74550Y-38742D01*
X74550Y-38750D01*
X75081Y-38750D01*
X75143Y-38687D01*
X75143Y-38534D01*
X75143Y-38435D01*
X75124Y-38388D01*
X75170Y-38341D01*
X75208Y-38249D01*
X75209Y-38150D01*
X75209Y-37750D01*
X75229Y-37729D01*
X75229Y-37729D01*
X75229Y-37729D01*
X75300Y-37624D01*
X75300Y-37624D01*
X75320Y-37524D01*
X75325Y-37500D01*
X75325Y-39380D01*
X75209Y-39496D01*
X75209Y-39449D01*
X75208Y-39350D01*
X75170Y-39258D01*
X75124Y-39211D01*
X75143Y-39164D01*
X75143Y-39065D01*
X75143Y-38912D01*
X75081Y-38850D01*
X74550Y-38850D01*
X74550Y-38857D01*
X74450Y-38857D01*
X74450Y-38850D01*
X73918Y-38850D01*
X73856Y-38912D01*
X73856Y-39065D01*
X73856Y-39164D01*
X73875Y-39211D01*
X73829Y-39258D01*
X73791Y-39350D01*
X73790Y-39449D01*
X73790Y-39949D01*
X73791Y-39949D01*
X73791Y-40086D01*
X73771Y-40094D01*
X73700Y-40164D01*
X73662Y-40256D01*
X73662Y-40355D01*
X73662Y-41143D01*
X73700Y-41235D01*
X73770Y-41305D01*
X73862Y-41343D01*
X73962Y-41343D01*
X74248Y-41343D01*
X74552Y-41647D01*
X74552Y-41647D01*
X74666Y-41723D01*
X74799Y-41749D01*
X74800Y-41750D01*
X75700Y-41750D01*
X75833Y-41723D01*
X75833Y-41723D01*
X75947Y-41647D01*
X76247Y-41347D01*
X76247Y-41347D01*
X76247Y-41347D01*
X76323Y-41233D01*
X76330Y-41195D01*
X76349Y-41149D01*
X76349Y-41100D01*
X76350Y-41100D01*
X76349Y-41100D01*
X76350Y-41100D01*
X76350Y-41099D01*
X76350Y-41050D01*
X76350Y-41000D01*
X76950Y-41000D01*
X77083Y-40973D01*
X77083Y-40973D01*
X77197Y-40897D01*
X77649Y-40444D01*
X77650Y-40537D01*
X77712Y-40600D01*
X77950Y-40600D01*
X77950Y-40592D01*
X78050Y-40592D01*
X78050Y-40600D01*
X78287Y-40600D01*
X78350Y-40537D01*
X78350Y-40249D01*
X78349Y-40150D01*
X78311Y-40058D01*
X78241Y-39987D01*
X78149Y-39949D01*
X78145Y-39949D01*
X78315Y-39779D01*
X78490Y-39779D01*
X78494Y-39787D01*
X78564Y-39857D01*
X78656Y-39895D01*
X78755Y-39895D01*
X79543Y-39895D01*
X79635Y-39857D01*
X79705Y-39787D01*
X79708Y-39779D01*
X79790Y-39779D01*
X79794Y-39787D01*
X79864Y-39857D01*
X79956Y-39895D01*
X80055Y-39895D01*
X80843Y-39895D01*
X80935Y-39857D01*
X81005Y-39787D01*
X81008Y-39779D01*
X81449Y-39779D01*
X81449Y-40049D01*
X81487Y-40141D01*
X81558Y-40211D01*
X81650Y-40249D01*
X81749Y-40250D01*
X83349Y-40250D01*
X83441Y-40212D01*
X83511Y-40141D01*
X83549Y-40049D01*
X83550Y-39950D01*
X83550Y-40849D01*
X83549Y-40750D01*
X83511Y-40658D01*
X83441Y-40587D01*
X83349Y-40549D01*
X82612Y-40550D01*
X82550Y-40612D01*
X82550Y-41550D01*
X83487Y-41550D01*
X83550Y-41487D01*
X83550Y-40849D01*
X83550Y-42350D01*
X83550Y-41712D01*
X83487Y-41650D01*
X82550Y-41650D01*
X82550Y-42587D01*
X82612Y-42650D01*
X83349Y-42650D01*
X83441Y-42612D01*
X83511Y-42541D01*
X83549Y-42449D01*
X83550Y-42350D01*
X83550Y-43150D01*
X83512Y-43058D01*
X83441Y-42988D01*
X83349Y-42950D01*
X83250Y-42949D01*
X82450Y-42949D01*
X82450Y-42587D01*
X82450Y-41650D01*
X82450Y-41550D01*
X82450Y-40612D01*
X82387Y-40550D01*
X81650Y-40549D01*
X81558Y-40587D01*
X81488Y-40658D01*
X81450Y-40750D01*
X81449Y-40849D01*
X81450Y-41487D01*
X81512Y-41550D01*
X82450Y-41550D01*
X82450Y-41650D01*
X81512Y-41650D01*
X81450Y-41712D01*
X81449Y-42350D01*
X81450Y-42449D01*
X81488Y-42541D01*
X81558Y-42612D01*
X81650Y-42650D01*
X82387Y-42650D01*
X82450Y-42587D01*
X82450Y-42949D01*
X81650Y-42949D01*
X81558Y-42987D01*
X81488Y-43058D01*
X81450Y-43150D01*
X81449Y-43249D01*
X81449Y-44079D01*
X81409Y-44079D01*
X81405Y-44071D01*
X81335Y-44000D01*
X81243Y-43962D01*
X81144Y-43962D01*
X81043Y-43962D01*
X81043Y-40836D01*
X81043Y-40304D01*
X81005Y-40212D01*
X80935Y-40142D01*
X80843Y-40104D01*
X80744Y-40104D01*
X80512Y-40104D01*
X80450Y-40166D01*
X80450Y-40520D01*
X80981Y-40520D01*
X81043Y-40458D01*
X81043Y-40304D01*
X81043Y-40836D01*
X81043Y-40683D01*
X80981Y-40620D01*
X80450Y-40620D01*
X80450Y-40974D01*
X80512Y-41037D01*
X80744Y-41037D01*
X80843Y-41037D01*
X80935Y-40999D01*
X81005Y-40928D01*
X81043Y-40836D01*
X81043Y-43962D01*
X80356Y-43962D01*
X80350Y-43965D01*
X80350Y-40974D01*
X80350Y-40620D01*
X80350Y-40520D01*
X80350Y-40166D01*
X80287Y-40104D01*
X80055Y-40104D01*
X79956Y-40104D01*
X79864Y-40142D01*
X79794Y-40212D01*
X79756Y-40304D01*
X79756Y-40458D01*
X79818Y-40520D01*
X80350Y-40520D01*
X80350Y-40620D01*
X79818Y-40620D01*
X79756Y-40683D01*
X79756Y-40836D01*
X79794Y-40928D01*
X79864Y-40999D01*
X79956Y-41037D01*
X80055Y-41037D01*
X80287Y-41037D01*
X80350Y-40974D01*
X80350Y-43965D01*
X80264Y-44000D01*
X80194Y-44070D01*
X80191Y-44079D01*
X80109Y-44079D01*
X80105Y-44071D01*
X80035Y-44000D01*
X79943Y-43962D01*
X79844Y-43962D01*
X79743Y-43962D01*
X79743Y-40836D01*
X79743Y-40304D01*
X79705Y-40212D01*
X79635Y-40142D01*
X79543Y-40104D01*
X79444Y-40104D01*
X79212Y-40104D01*
X79150Y-40166D01*
X79150Y-40520D01*
X79681Y-40520D01*
X79743Y-40458D01*
X79743Y-40304D01*
X79743Y-40836D01*
X79743Y-40683D01*
X79681Y-40620D01*
X79150Y-40620D01*
X79150Y-40974D01*
X79212Y-41037D01*
X79444Y-41037D01*
X79543Y-41037D01*
X79635Y-40999D01*
X79705Y-40928D01*
X79743Y-40836D01*
X79743Y-43962D01*
X79056Y-43962D01*
X79050Y-43965D01*
X79050Y-40974D01*
X79050Y-40620D01*
X79050Y-40520D01*
X79050Y-40166D01*
X78987Y-40104D01*
X78755Y-40104D01*
X78656Y-40104D01*
X78564Y-40142D01*
X78494Y-40212D01*
X78456Y-40304D01*
X78456Y-40458D01*
X78518Y-40520D01*
X79050Y-40520D01*
X79050Y-40620D01*
X78518Y-40620D01*
X78456Y-40683D01*
X78456Y-40836D01*
X78494Y-40928D01*
X78564Y-40999D01*
X78656Y-41037D01*
X78755Y-41037D01*
X78987Y-41037D01*
X79050Y-40974D01*
X79050Y-43965D01*
X78964Y-44000D01*
X78894Y-44070D01*
X78891Y-44079D01*
X78670Y-44079D01*
X78536Y-44105D01*
X78423Y-44181D01*
X78423Y-44181D01*
X78423Y-44181D01*
X78350Y-44254D01*
X78350Y-41050D01*
X78350Y-40762D01*
X78287Y-40700D01*
X78050Y-40700D01*
X78050Y-41287D01*
X78112Y-41350D01*
X78149Y-41350D01*
X78241Y-41312D01*
X78311Y-41241D01*
X78349Y-41149D01*
X78350Y-41050D01*
X78350Y-44254D01*
X77950Y-44655D01*
X77950Y-41287D01*
X77950Y-40700D01*
X77712Y-40700D01*
X77650Y-40762D01*
X77649Y-41050D01*
X77650Y-41149D01*
X77688Y-41241D01*
X77758Y-41312D01*
X77850Y-41350D01*
X77887Y-41350D01*
X77950Y-41287D01*
X77950Y-44655D01*
X77005Y-45600D01*
X76850Y-45600D01*
X76850Y-45450D01*
X76850Y-45450D01*
X76850Y-43870D01*
X76849Y-43870D01*
X76850Y-43870D01*
X76843Y-43837D01*
X76843Y-43837D01*
X76843Y-43737D01*
X76843Y-43304D01*
X76805Y-43212D01*
X76735Y-43142D01*
X76643Y-43104D01*
X76544Y-43104D01*
X75756Y-43104D01*
X75664Y-43142D01*
X75600Y-43206D01*
X75209Y-42815D01*
X75209Y-42754D01*
X75580Y-42754D01*
X75594Y-42787D01*
X75664Y-42857D01*
X75756Y-42895D01*
X75855Y-42895D01*
X76643Y-42895D01*
X76735Y-42857D01*
X76798Y-42793D01*
X77150Y-43144D01*
X77150Y-43650D01*
X77149Y-43699D01*
X77149Y-44599D01*
X77187Y-44691D01*
X77258Y-44761D01*
X77350Y-44799D01*
X77449Y-44800D01*
X77649Y-44800D01*
X77741Y-44762D01*
X77811Y-44691D01*
X77849Y-44599D01*
X77850Y-44500D01*
X77850Y-43600D01*
X77850Y-43600D01*
X77850Y-43000D01*
X77823Y-42866D01*
X77747Y-42752D01*
X77747Y-42752D01*
X77176Y-42181D01*
X77063Y-42105D01*
X76929Y-42079D01*
X76809Y-42079D01*
X76805Y-42071D01*
X76735Y-42000D01*
X76643Y-41962D01*
X76544Y-41962D01*
X75756Y-41962D01*
X75664Y-42000D01*
X75594Y-42070D01*
X75580Y-42104D01*
X74770Y-42104D01*
X74770Y-42104D01*
X74746Y-42109D01*
X74646Y-42128D01*
X74541Y-42199D01*
X74541Y-42199D01*
X74398Y-42342D01*
X74327Y-42447D01*
X74327Y-42450D01*
X74321Y-42450D01*
X74321Y-42476D01*
X74320Y-42483D01*
X74294Y-42472D01*
X74272Y-42450D01*
X74247Y-42449D01*
X74244Y-42451D01*
X74240Y-42449D01*
X74216Y-42450D01*
X74193Y-42472D01*
X74155Y-42487D01*
X74085Y-42558D01*
X74078Y-42574D01*
X74078Y-42512D01*
X74016Y-42450D01*
X73991Y-42449D01*
X73899Y-42487D01*
X73829Y-42558D01*
X73791Y-42650D01*
X73790Y-42749D01*
X73791Y-42837D01*
X73853Y-42900D01*
X74078Y-42900D01*
X74078Y-42869D01*
X74109Y-42900D01*
X74153Y-42900D01*
X74173Y-42900D01*
X74173Y-43000D01*
X74153Y-43000D01*
X74109Y-43000D01*
X74101Y-43007D01*
X74078Y-43007D01*
X74078Y-43000D01*
X73853Y-43000D01*
X73791Y-43062D01*
X73790Y-43150D01*
X73791Y-43249D01*
X73829Y-43341D01*
X73875Y-43388D01*
X73856Y-43435D01*
X73856Y-43534D01*
X73856Y-43687D01*
X73918Y-43750D01*
X74450Y-43750D01*
X74450Y-43742D01*
X74550Y-43742D01*
X74550Y-43750D01*
X75081Y-43750D01*
X75143Y-43687D01*
X75143Y-43669D01*
X75275Y-43800D01*
X75275Y-43800D01*
X75380Y-43871D01*
X75380Y-43871D01*
X75480Y-43890D01*
X75504Y-43895D01*
X75504Y-43895D01*
X75504Y-43895D01*
X75580Y-43895D01*
X75594Y-43928D01*
X75664Y-43999D01*
X75756Y-44037D01*
X75855Y-44037D01*
X76150Y-44037D01*
X76150Y-45500D01*
X76149Y-45549D01*
X76149Y-46449D01*
X76187Y-46541D01*
X76258Y-46611D01*
X76350Y-46649D01*
X76449Y-46650D01*
X76649Y-46650D01*
X76741Y-46612D01*
X76811Y-46541D01*
X76849Y-46449D01*
X76850Y-46350D01*
X76850Y-46300D01*
X77150Y-46300D01*
X77283Y-46273D01*
X77283Y-46273D01*
X77397Y-46197D01*
X78153Y-45441D01*
X78150Y-45450D01*
X78149Y-45549D01*
X78150Y-45837D01*
X78212Y-45900D01*
X78450Y-45900D01*
X78450Y-45312D01*
X78387Y-45250D01*
X78350Y-45249D01*
X78341Y-45253D01*
X78815Y-44779D01*
X78890Y-44779D01*
X78894Y-44787D01*
X78964Y-44857D01*
X79056Y-44895D01*
X79155Y-44895D01*
X79943Y-44895D01*
X80035Y-44857D01*
X80105Y-44787D01*
X80108Y-44779D01*
X80190Y-44779D01*
X80194Y-44787D01*
X80264Y-44857D01*
X80356Y-44895D01*
X80455Y-44895D01*
X81243Y-44895D01*
X81335Y-44857D01*
X81405Y-44787D01*
X81408Y-44779D01*
X81449Y-44779D01*
X81449Y-44849D01*
X81487Y-44941D01*
X81558Y-45011D01*
X81650Y-45049D01*
X81749Y-45050D01*
X83349Y-45050D01*
X83441Y-45012D01*
X83511Y-44941D01*
X83549Y-44849D01*
X83550Y-44750D01*
X83550Y-45879D01*
X81479Y-47950D01*
X81443Y-47950D01*
X81443Y-45836D01*
X81443Y-45304D01*
X81405Y-45212D01*
X81335Y-45142D01*
X81243Y-45104D01*
X81144Y-45104D01*
X80912Y-45104D01*
X80850Y-45166D01*
X80850Y-45520D01*
X81381Y-45520D01*
X81443Y-45458D01*
X81443Y-45304D01*
X81443Y-45836D01*
X81443Y-45683D01*
X81381Y-45620D01*
X80850Y-45620D01*
X80850Y-45974D01*
X80912Y-46037D01*
X81144Y-46037D01*
X81243Y-46037D01*
X81335Y-45999D01*
X81405Y-45928D01*
X81443Y-45836D01*
X81443Y-47950D01*
X80750Y-47950D01*
X80750Y-45974D01*
X80750Y-45620D01*
X80750Y-45520D01*
X80750Y-45166D01*
X80687Y-45104D01*
X80455Y-45104D01*
X80356Y-45104D01*
X80264Y-45142D01*
X80194Y-45212D01*
X80156Y-45304D01*
X80156Y-45458D01*
X80218Y-45520D01*
X80750Y-45520D01*
X80750Y-45620D01*
X80218Y-45620D01*
X80156Y-45683D01*
X80156Y-45836D01*
X80194Y-45928D01*
X80264Y-45999D01*
X80356Y-46037D01*
X80455Y-46037D01*
X80687Y-46037D01*
X80750Y-45974D01*
X80750Y-47950D01*
X80143Y-47950D01*
X80143Y-45836D01*
X80143Y-45304D01*
X80105Y-45212D01*
X80035Y-45142D01*
X79943Y-45104D01*
X79844Y-45104D01*
X79612Y-45104D01*
X79550Y-45166D01*
X79550Y-45520D01*
X80081Y-45520D01*
X80143Y-45458D01*
X80143Y-45304D01*
X80143Y-45836D01*
X80143Y-45683D01*
X80081Y-45620D01*
X79550Y-45620D01*
X79550Y-45974D01*
X79612Y-46037D01*
X79844Y-46037D01*
X79943Y-46037D01*
X80035Y-45999D01*
X80105Y-45928D01*
X80143Y-45836D01*
X80143Y-47950D01*
X79450Y-47950D01*
X79450Y-45974D01*
X79450Y-45620D01*
X79450Y-45520D01*
X79450Y-45166D01*
X79387Y-45104D01*
X79155Y-45104D01*
X79056Y-45104D01*
X78964Y-45142D01*
X78894Y-45212D01*
X78856Y-45304D01*
X78856Y-45458D01*
X78918Y-45520D01*
X79450Y-45520D01*
X79450Y-45620D01*
X78918Y-45620D01*
X78856Y-45683D01*
X78856Y-45836D01*
X78894Y-45928D01*
X78964Y-45999D01*
X79056Y-46037D01*
X79155Y-46037D01*
X79387Y-46037D01*
X79450Y-45974D01*
X79450Y-47950D01*
X78850Y-47950D01*
X78850Y-46350D01*
X78850Y-45549D01*
X78849Y-45450D01*
X78811Y-45358D01*
X78741Y-45287D01*
X78649Y-45249D01*
X78612Y-45250D01*
X78550Y-45312D01*
X78550Y-45900D01*
X78787Y-45900D01*
X78850Y-45837D01*
X78850Y-45549D01*
X78850Y-46350D01*
X78850Y-46062D01*
X78787Y-46000D01*
X78550Y-46000D01*
X78550Y-46587D01*
X78612Y-46650D01*
X78649Y-46650D01*
X78741Y-46612D01*
X78811Y-46541D01*
X78849Y-46449D01*
X78850Y-46350D01*
X78850Y-47950D01*
X78450Y-47950D01*
X78450Y-46587D01*
X78450Y-46000D01*
X78212Y-46000D01*
X78150Y-46062D01*
X78149Y-46350D01*
X78150Y-46449D01*
X78188Y-46541D01*
X78258Y-46612D01*
X78350Y-46650D01*
X78387Y-46650D01*
X78450Y-46587D01*
X78450Y-47950D01*
X75425Y-47950D01*
X75425Y-45800D01*
X75425Y-45100D01*
X75400Y-44975D01*
X75400Y-44975D01*
X75329Y-44870D01*
X75209Y-44749D01*
X75209Y-44350D01*
X75171Y-44258D01*
X75124Y-44211D01*
X75143Y-44164D01*
X75143Y-44065D01*
X75143Y-43912D01*
X75081Y-43850D01*
X74550Y-43850D01*
X74550Y-43857D01*
X74450Y-43857D01*
X74450Y-43850D01*
X73918Y-43850D01*
X73856Y-43912D01*
X73856Y-43930D01*
X73695Y-43770D01*
X73590Y-43699D01*
X73466Y-43675D01*
X73150Y-43675D01*
X73150Y-43150D01*
X73150Y-42350D01*
X73150Y-40849D01*
X73149Y-40750D01*
X73111Y-40658D01*
X73041Y-40587D01*
X72949Y-40549D01*
X72212Y-40550D01*
X72150Y-40612D01*
X72150Y-41550D01*
X73087Y-41550D01*
X73150Y-41487D01*
X73150Y-40849D01*
X73150Y-42350D01*
X73150Y-41712D01*
X73087Y-41650D01*
X72150Y-41650D01*
X72150Y-42587D01*
X72212Y-42650D01*
X72949Y-42650D01*
X73041Y-42612D01*
X73111Y-42541D01*
X73149Y-42449D01*
X73150Y-42350D01*
X73150Y-43150D01*
X73112Y-43058D01*
X73041Y-42988D01*
X72949Y-42950D01*
X72850Y-42949D01*
X72050Y-42949D01*
X72050Y-42587D01*
X72050Y-41650D01*
X72050Y-41550D01*
X72050Y-40612D01*
X71987Y-40550D01*
X71250Y-40549D01*
X71158Y-40587D01*
X71088Y-40658D01*
X71050Y-40750D01*
X71049Y-40849D01*
X71050Y-41487D01*
X71112Y-41550D01*
X72050Y-41550D01*
X72050Y-41650D01*
X71112Y-41650D01*
X71050Y-41712D01*
X71049Y-42350D01*
X71050Y-42449D01*
X71088Y-42541D01*
X71158Y-42612D01*
X71250Y-42650D01*
X71987Y-42650D01*
X72050Y-42587D01*
X72050Y-42949D01*
X71250Y-42949D01*
X71158Y-42987D01*
X71088Y-43058D01*
X71050Y-43150D01*
X71049Y-43249D01*
X71049Y-44060D01*
X69725Y-45384D01*
X69725Y-45056D01*
X69725Y-43481D01*
X69725Y-38918D01*
X69725Y-37344D01*
X69687Y-37252D01*
X69617Y-37181D01*
X69525Y-37143D01*
X69426Y-37143D01*
X68874Y-37143D01*
X68782Y-37181D01*
X68712Y-37251D01*
X68674Y-37343D01*
X68674Y-37443D01*
X68674Y-39018D01*
X68712Y-39109D01*
X68782Y-39180D01*
X68874Y-39218D01*
X68973Y-39218D01*
X69525Y-39218D01*
X69617Y-39180D01*
X69687Y-39110D01*
X69725Y-39018D01*
X69725Y-38918D01*
X69725Y-43481D01*
X69687Y-43390D01*
X69617Y-43319D01*
X69525Y-43281D01*
X69426Y-43281D01*
X68874Y-43281D01*
X68782Y-43319D01*
X68712Y-43389D01*
X68674Y-43481D01*
X68674Y-43581D01*
X68674Y-45155D01*
X68712Y-45247D01*
X68782Y-45318D01*
X68874Y-45356D01*
X68973Y-45356D01*
X69525Y-45356D01*
X69617Y-45318D01*
X69687Y-45248D01*
X69725Y-45156D01*
X69725Y-45056D01*
X69725Y-45384D01*
X69466Y-45643D01*
X69426Y-45643D01*
X68933Y-45643D01*
X68504Y-45214D01*
X68327Y-45096D01*
X68118Y-45054D01*
X67238Y-45054D01*
X67238Y-43542D01*
X67238Y-42958D01*
X67238Y-39041D01*
X67238Y-38942D01*
X67200Y-38850D01*
X67129Y-38780D01*
X67037Y-38742D01*
X66411Y-38742D01*
X66349Y-38804D01*
X66349Y-40950D01*
X67175Y-40950D01*
X67238Y-40887D01*
X67238Y-39041D01*
X67238Y-42958D01*
X67238Y-41112D01*
X67175Y-41050D01*
X66349Y-41050D01*
X66349Y-43195D01*
X66411Y-43257D01*
X67037Y-43257D01*
X67129Y-43219D01*
X67200Y-43149D01*
X67238Y-43057D01*
X67238Y-42958D01*
X67238Y-43542D01*
X67200Y-43450D01*
X67129Y-43380D01*
X67038Y-43342D01*
X66938Y-43342D01*
X66249Y-43342D01*
X66249Y-43195D01*
X66249Y-41050D01*
X66249Y-40950D01*
X66249Y-38804D01*
X66186Y-38742D01*
X65560Y-38742D01*
X65468Y-38780D01*
X65398Y-38850D01*
X65360Y-38942D01*
X65360Y-39041D01*
X65360Y-40887D01*
X65422Y-40950D01*
X66249Y-40950D01*
X66249Y-41050D01*
X65422Y-41050D01*
X65360Y-41112D01*
X65360Y-42958D01*
X65360Y-43057D01*
X65398Y-43149D01*
X65468Y-43219D01*
X65560Y-43257D01*
X66186Y-43257D01*
X66249Y-43195D01*
X66249Y-43342D01*
X65560Y-43342D01*
X65468Y-43380D01*
X65398Y-43450D01*
X65360Y-43542D01*
X65360Y-43641D01*
X65360Y-47657D01*
X65398Y-47749D01*
X65468Y-47819D01*
X65560Y-47857D01*
X65659Y-47857D01*
X67037Y-47857D01*
X67129Y-47819D01*
X67200Y-47749D01*
X67238Y-47657D01*
X67238Y-47558D01*
X67238Y-46145D01*
X67893Y-46145D01*
X68674Y-46926D01*
X68674Y-47518D01*
X68712Y-47609D01*
X68782Y-47680D01*
X68874Y-47718D01*
X68973Y-47718D01*
X69525Y-47718D01*
X69617Y-47680D01*
X69687Y-47610D01*
X69725Y-47518D01*
X69725Y-47418D01*
X69725Y-46926D01*
X71602Y-45050D01*
X72949Y-45050D01*
X73041Y-45012D01*
X73111Y-44941D01*
X73149Y-44849D01*
X73150Y-44750D01*
X73150Y-44325D01*
X73331Y-44325D01*
X73475Y-44468D01*
X73475Y-45600D01*
X73499Y-45724D01*
X73570Y-45829D01*
X73870Y-46129D01*
X73870Y-46129D01*
X73934Y-46172D01*
X73894Y-46212D01*
X73856Y-46304D01*
X73856Y-46458D01*
X73918Y-46520D01*
X74450Y-46520D01*
X74450Y-46512D01*
X74550Y-46512D01*
X74550Y-46520D01*
X75081Y-46520D01*
X75143Y-46458D01*
X75143Y-46304D01*
X75105Y-46212D01*
X75098Y-46205D01*
X75124Y-46200D01*
X75124Y-46200D01*
X75229Y-46129D01*
X75329Y-46029D01*
X75329Y-46029D01*
X75329Y-46029D01*
X75372Y-45966D01*
X75400Y-45924D01*
X75400Y-45924D01*
X75425Y-45800D01*
X75425Y-47950D01*
X75143Y-47950D01*
X75143Y-46836D01*
X75143Y-46683D01*
X75081Y-46620D01*
X74550Y-46620D01*
X74550Y-46974D01*
X74612Y-47037D01*
X74844Y-47037D01*
X74943Y-47037D01*
X75035Y-46999D01*
X75105Y-46928D01*
X75143Y-46836D01*
X75143Y-47950D01*
X74450Y-47950D01*
X74450Y-46974D01*
X74450Y-46620D01*
X73918Y-46620D01*
X73856Y-46683D01*
X73856Y-46836D01*
X73894Y-46928D01*
X73964Y-46999D01*
X74056Y-47037D01*
X74155Y-47037D01*
X74387Y-47037D01*
X74450Y-46974D01*
X74450Y-47950D01*
X65250Y-47950D01*
X65250Y-34069D01*
X80098Y-34069D01*
X84130Y-38101D01*
X84130Y-45298D01*
M02*
