M48
INCH,TZ
T1C0.025
T2C0.032
T3C0.040
%
G90
G05
T1
X30525Y-41000
X33550Y-41325
X36200Y-47400
X39500Y-45300
X41400Y-36500
X41400Y-43200
X44050Y-45000
X50700Y-35700
X50800Y-44450
X50800Y-47100
X52800Y-35000
X52800Y-36900
X52800Y-44700
X52800Y-47300
X58200Y-39200
X58500Y-44400
X58500Y-46300
X58600Y-35500
X58600Y-37400
X62100Y-37000
X62300Y-45300
X67600Y-46400
X67800Y-35600
X68200Y-39900
X70500Y-47300
X71400Y-36600
X72700Y-37300
X73100Y-34800
X73900Y-41800
X76600Y-41800
X78900Y-36400
X79200Y-42700
X80700Y-42100
T2
X30975Y-35150
X31975Y-35150
X32800Y-35900
X36800Y-35900
T3
X33000Y-37600
X34000Y-37600
X35000Y-37600
X37550Y-42425
X37550Y-43425
X37550Y-44425
X37800Y-38250
X37800Y-39250
X37800Y-40250
T0
M30
