G04 (created by PCBNEW (2013-may-18)-stable) date 2014年02月07日 星期五 16时20分23秒*
%MOIN*%
G04 Gerber Fmt 3.4, Leading zero omitted, Abs format*
%FSLAX34Y34*%
G01*
G70*
G90*
G04 APERTURE LIST*
%ADD10C,0.00590551*%
%ADD11R,0.055X0.055*%
%ADD12C,0.055*%
%ADD13C,0.07*%
%ADD14R,0.07X0.07*%
%ADD15C,0.06*%
%ADD16C,0.035*%
%ADD17C,0.02*%
%ADD18C,0.01*%
%ADD19C,0.0590551*%
G04 APERTURE END LIST*
G54D10*
G54D11*
X30975Y-35150D03*
G54D12*
X31975Y-35150D03*
G54D13*
X37550Y-42425D03*
X37550Y-43425D03*
G54D14*
X37550Y-44425D03*
G54D13*
X37800Y-40250D03*
X37800Y-39250D03*
G54D14*
X37800Y-38250D03*
G54D15*
X32800Y-35900D03*
X36800Y-35900D03*
G54D13*
X33000Y-37600D03*
X34000Y-37600D03*
G54D14*
X35000Y-37600D03*
G54D16*
X58500Y-44400D03*
X58500Y-46300D03*
X62300Y-45300D03*
X62100Y-37000D03*
X58600Y-35500D03*
X58600Y-37400D03*
X36200Y-47400D03*
X39500Y-45300D03*
X41400Y-43200D03*
X41400Y-36500D03*
X58200Y-39200D03*
X50800Y-44450D03*
X44050Y-45000D03*
X30525Y-41000D03*
X33550Y-41325D03*
X52800Y-44700D03*
X52800Y-47300D03*
X50800Y-47100D03*
X50700Y-35700D03*
X52800Y-35000D03*
X52800Y-36900D03*
X71400Y-36600D03*
X73100Y-34800D03*
X78900Y-36400D03*
X80700Y-42100D03*
X79200Y-42700D03*
X70500Y-47300D03*
X67600Y-46400D03*
X76600Y-41800D03*
X73900Y-41800D03*
X72700Y-37300D03*
X67800Y-35600D03*
X68200Y-39900D03*
G54D17*
X58500Y-46300D02*
X58500Y-44400D01*
X62300Y-37200D02*
X62300Y-45300D01*
X62100Y-37000D02*
X62300Y-37200D01*
X58600Y-37400D02*
X58600Y-35500D01*
G54D18*
X37400Y-47400D02*
X36200Y-47400D01*
X39500Y-45300D02*
X37400Y-47400D01*
X41400Y-36500D02*
X41400Y-43200D01*
G54D19*
X48550Y-34300D02*
X44600Y-38250D01*
X55300Y-34300D02*
X48550Y-34300D01*
X56000Y-35000D02*
X55300Y-34300D01*
X56000Y-37000D02*
X56000Y-35000D01*
X58200Y-39200D02*
X56000Y-37000D01*
X44600Y-38250D02*
X37800Y-38250D01*
X50800Y-44450D02*
X44600Y-38250D01*
X37800Y-38250D02*
X38800Y-38250D01*
X38850Y-38300D02*
X38800Y-38250D01*
X38850Y-39800D02*
X38850Y-38300D01*
X38850Y-39800D02*
X44050Y-45000D01*
G54D17*
X33225Y-41000D02*
X30525Y-41000D01*
X33550Y-41325D02*
X33225Y-41000D01*
G54D19*
X37550Y-44425D02*
X38275Y-44425D01*
X38275Y-38250D02*
X37800Y-38250D01*
X38750Y-38725D02*
X38275Y-38250D01*
X38750Y-43950D02*
X38750Y-38725D01*
X38275Y-44425D02*
X38750Y-43950D01*
G54D17*
X52800Y-47300D02*
X52800Y-44700D01*
X51700Y-46200D02*
X50800Y-47100D01*
X51700Y-36700D02*
X51700Y-46200D01*
X50700Y-35700D02*
X51700Y-36700D01*
X52800Y-36900D02*
X52800Y-35000D01*
X71400Y-36500D02*
X71400Y-36600D01*
X73100Y-34800D02*
X71400Y-36500D01*
X78900Y-40300D02*
X78900Y-36400D01*
X80700Y-42100D02*
X78900Y-40300D01*
X74800Y-47100D02*
X79200Y-42700D01*
X70700Y-47100D02*
X74800Y-47100D01*
X70500Y-47300D02*
X70700Y-47100D01*
X72000Y-46400D02*
X67600Y-46400D01*
X76600Y-41800D02*
X72000Y-46400D01*
X73900Y-38500D02*
X73900Y-41800D01*
X72700Y-37300D02*
X73900Y-38500D01*
X67800Y-39500D02*
X67800Y-35600D01*
X68200Y-39900D02*
X67800Y-39500D01*
G54D10*
G36*
X49950Y-46479D02*
X48479Y-47950D01*
X46750Y-47950D01*
X42500Y-47950D01*
X38400Y-47950D01*
X38400Y-40131D01*
X38308Y-39910D01*
X38148Y-39749D01*
X38308Y-39590D01*
X38399Y-39369D01*
X38400Y-39131D01*
X38308Y-38910D01*
X38234Y-38835D01*
X38291Y-38812D01*
X38361Y-38741D01*
X38399Y-38649D01*
X38400Y-38550D01*
X38400Y-37949D01*
X38399Y-37850D01*
X38361Y-37758D01*
X38291Y-37687D01*
X38199Y-37649D01*
X37912Y-37650D01*
X37850Y-37712D01*
X37850Y-38200D01*
X38337Y-38200D01*
X38400Y-38137D01*
X38400Y-37949D01*
X38400Y-38550D01*
X38400Y-38362D01*
X38337Y-38300D01*
X37850Y-38300D01*
X37850Y-38307D01*
X37750Y-38307D01*
X37750Y-38300D01*
X37750Y-38200D01*
X37750Y-37712D01*
X37687Y-37650D01*
X37400Y-37649D01*
X37350Y-37670D01*
X37350Y-35791D01*
X37266Y-35588D01*
X37111Y-35434D01*
X36909Y-35350D01*
X36691Y-35349D01*
X36488Y-35433D01*
X36334Y-35588D01*
X36250Y-35790D01*
X36249Y-36008D01*
X36333Y-36211D01*
X36488Y-36365D01*
X36690Y-36449D01*
X36908Y-36450D01*
X37111Y-36366D01*
X37265Y-36211D01*
X37349Y-36009D01*
X37350Y-35791D01*
X37350Y-37670D01*
X37308Y-37687D01*
X37238Y-37758D01*
X37200Y-37850D01*
X37199Y-37949D01*
X37200Y-38137D01*
X37262Y-38200D01*
X37750Y-38200D01*
X37750Y-38300D01*
X37262Y-38300D01*
X37200Y-38362D01*
X37199Y-38550D01*
X37200Y-38649D01*
X37238Y-38741D01*
X37308Y-38812D01*
X37365Y-38835D01*
X37291Y-38909D01*
X37200Y-39130D01*
X37199Y-39368D01*
X37291Y-39589D01*
X37451Y-39750D01*
X37291Y-39909D01*
X37200Y-40130D01*
X37199Y-40368D01*
X37291Y-40589D01*
X37459Y-40758D01*
X37680Y-40849D01*
X37918Y-40850D01*
X38139Y-40758D01*
X38308Y-40590D01*
X38399Y-40369D01*
X38400Y-40131D01*
X38400Y-47950D01*
X38150Y-47950D01*
X38150Y-43306D01*
X38058Y-43085D01*
X37898Y-42924D01*
X38058Y-42765D01*
X38149Y-42544D01*
X38150Y-42306D01*
X38058Y-42085D01*
X37890Y-41916D01*
X37669Y-41825D01*
X37431Y-41824D01*
X37210Y-41916D01*
X37041Y-42084D01*
X36950Y-42305D01*
X36949Y-42543D01*
X37041Y-42764D01*
X37201Y-42925D01*
X37041Y-43084D01*
X36950Y-43305D01*
X36949Y-43543D01*
X37041Y-43764D01*
X37115Y-43839D01*
X37058Y-43862D01*
X36988Y-43933D01*
X36950Y-44025D01*
X36949Y-44124D01*
X36950Y-44312D01*
X37012Y-44375D01*
X37500Y-44375D01*
X37500Y-44367D01*
X37600Y-44367D01*
X37600Y-44375D01*
X38087Y-44375D01*
X38150Y-44312D01*
X38150Y-44124D01*
X38149Y-44025D01*
X38111Y-43933D01*
X38041Y-43862D01*
X37984Y-43839D01*
X38058Y-43765D01*
X38149Y-43544D01*
X38150Y-43306D01*
X38150Y-47950D01*
X38150Y-47950D01*
X38150Y-44725D01*
X38150Y-44537D01*
X38087Y-44475D01*
X37600Y-44475D01*
X37600Y-44962D01*
X37662Y-45025D01*
X37949Y-45025D01*
X38041Y-44987D01*
X38111Y-44916D01*
X38149Y-44824D01*
X38150Y-44725D01*
X38150Y-47950D01*
X37500Y-47950D01*
X37500Y-44962D01*
X37500Y-44475D01*
X37012Y-44475D01*
X36950Y-44537D01*
X36949Y-44725D01*
X36950Y-44824D01*
X36988Y-44916D01*
X37058Y-44987D01*
X37150Y-45025D01*
X37437Y-45025D01*
X37500Y-44962D01*
X37500Y-47950D01*
X35600Y-47950D01*
X35600Y-37900D01*
X35600Y-37200D01*
X35562Y-37108D01*
X35491Y-37038D01*
X35399Y-37000D01*
X35300Y-36999D01*
X34600Y-36999D01*
X34508Y-37037D01*
X34438Y-37108D01*
X34418Y-37154D01*
X34396Y-37132D01*
X34351Y-37177D01*
X34317Y-37077D01*
X34093Y-36995D01*
X33855Y-37005D01*
X33682Y-37077D01*
X33648Y-37177D01*
X34000Y-37529D01*
X34005Y-37523D01*
X34076Y-37594D01*
X34070Y-37600D01*
X34076Y-37605D01*
X34005Y-37676D01*
X34000Y-37670D01*
X33929Y-37741D01*
X33929Y-37600D01*
X33577Y-37248D01*
X33512Y-37270D01*
X33508Y-37260D01*
X33350Y-37101D01*
X33350Y-35791D01*
X33266Y-35588D01*
X33111Y-35434D01*
X32909Y-35350D01*
X32691Y-35349D01*
X32500Y-35428D01*
X32500Y-35046D01*
X32420Y-34853D01*
X32272Y-34705D01*
X32079Y-34625D01*
X31871Y-34624D01*
X31678Y-34704D01*
X31530Y-34852D01*
X31500Y-34924D01*
X31500Y-34924D01*
X31499Y-34825D01*
X31461Y-34733D01*
X31391Y-34662D01*
X31299Y-34624D01*
X31087Y-34625D01*
X31025Y-34687D01*
X31025Y-35100D01*
X31032Y-35100D01*
X31032Y-35200D01*
X31025Y-35200D01*
X31025Y-35612D01*
X31087Y-35675D01*
X31299Y-35675D01*
X31391Y-35637D01*
X31461Y-35566D01*
X31499Y-35474D01*
X31500Y-35375D01*
X31500Y-35375D01*
X31529Y-35447D01*
X31677Y-35594D01*
X31870Y-35674D01*
X32078Y-35675D01*
X32272Y-35595D01*
X32419Y-35447D01*
X32499Y-35254D01*
X32500Y-35046D01*
X32500Y-35428D01*
X32488Y-35433D01*
X32334Y-35588D01*
X32250Y-35790D01*
X32249Y-36008D01*
X32333Y-36211D01*
X32488Y-36365D01*
X32690Y-36449D01*
X32908Y-36450D01*
X33111Y-36366D01*
X33265Y-36211D01*
X33349Y-36009D01*
X33350Y-35791D01*
X33350Y-37101D01*
X33340Y-37091D01*
X33119Y-37000D01*
X32881Y-36999D01*
X32660Y-37091D01*
X32491Y-37259D01*
X32400Y-37480D01*
X32399Y-37718D01*
X32491Y-37939D01*
X32659Y-38108D01*
X32880Y-38199D01*
X33118Y-38200D01*
X33339Y-38108D01*
X33508Y-37940D01*
X33512Y-37929D01*
X33577Y-37951D01*
X33929Y-37600D01*
X33929Y-37741D01*
X33648Y-38022D01*
X33682Y-38122D01*
X33906Y-38204D01*
X34144Y-38194D01*
X34317Y-38122D01*
X34351Y-38022D01*
X34351Y-38022D01*
X34396Y-38067D01*
X34418Y-38045D01*
X34437Y-38091D01*
X34508Y-38161D01*
X34600Y-38199D01*
X34699Y-38200D01*
X35399Y-38200D01*
X35491Y-38162D01*
X35561Y-38091D01*
X35599Y-37999D01*
X35600Y-37900D01*
X35600Y-47950D01*
X34351Y-47950D01*
X30925Y-47950D01*
X30925Y-35612D01*
X30925Y-35200D01*
X30925Y-35100D01*
X30925Y-34687D01*
X30862Y-34625D01*
X30650Y-34624D01*
X30558Y-34662D01*
X30488Y-34733D01*
X30450Y-34825D01*
X30449Y-34924D01*
X30450Y-35037D01*
X30512Y-35100D01*
X30925Y-35100D01*
X30925Y-35200D01*
X30512Y-35200D01*
X30450Y-35262D01*
X30449Y-35375D01*
X30450Y-35474D01*
X30488Y-35566D01*
X30558Y-35637D01*
X30650Y-35675D01*
X30862Y-35675D01*
X30925Y-35612D01*
X30925Y-47950D01*
X30270Y-47950D01*
X26869Y-44548D01*
X26869Y-38201D01*
X31001Y-34069D01*
X48498Y-34069D01*
X49950Y-35520D01*
X49950Y-46479D01*
X49950Y-46479D01*
G37*
G54D18*
X49950Y-46479D02*
X48479Y-47950D01*
X46750Y-47950D01*
X42500Y-47950D01*
X38400Y-47950D01*
X38400Y-40131D01*
X38308Y-39910D01*
X38148Y-39749D01*
X38308Y-39590D01*
X38399Y-39369D01*
X38400Y-39131D01*
X38308Y-38910D01*
X38234Y-38835D01*
X38291Y-38812D01*
X38361Y-38741D01*
X38399Y-38649D01*
X38400Y-38550D01*
X38400Y-37949D01*
X38399Y-37850D01*
X38361Y-37758D01*
X38291Y-37687D01*
X38199Y-37649D01*
X37912Y-37650D01*
X37850Y-37712D01*
X37850Y-38200D01*
X38337Y-38200D01*
X38400Y-38137D01*
X38400Y-37949D01*
X38400Y-38550D01*
X38400Y-38362D01*
X38337Y-38300D01*
X37850Y-38300D01*
X37850Y-38307D01*
X37750Y-38307D01*
X37750Y-38300D01*
X37750Y-38200D01*
X37750Y-37712D01*
X37687Y-37650D01*
X37400Y-37649D01*
X37350Y-37670D01*
X37350Y-35791D01*
X37266Y-35588D01*
X37111Y-35434D01*
X36909Y-35350D01*
X36691Y-35349D01*
X36488Y-35433D01*
X36334Y-35588D01*
X36250Y-35790D01*
X36249Y-36008D01*
X36333Y-36211D01*
X36488Y-36365D01*
X36690Y-36449D01*
X36908Y-36450D01*
X37111Y-36366D01*
X37265Y-36211D01*
X37349Y-36009D01*
X37350Y-35791D01*
X37350Y-37670D01*
X37308Y-37687D01*
X37238Y-37758D01*
X37200Y-37850D01*
X37199Y-37949D01*
X37200Y-38137D01*
X37262Y-38200D01*
X37750Y-38200D01*
X37750Y-38300D01*
X37262Y-38300D01*
X37200Y-38362D01*
X37199Y-38550D01*
X37200Y-38649D01*
X37238Y-38741D01*
X37308Y-38812D01*
X37365Y-38835D01*
X37291Y-38909D01*
X37200Y-39130D01*
X37199Y-39368D01*
X37291Y-39589D01*
X37451Y-39750D01*
X37291Y-39909D01*
X37200Y-40130D01*
X37199Y-40368D01*
X37291Y-40589D01*
X37459Y-40758D01*
X37680Y-40849D01*
X37918Y-40850D01*
X38139Y-40758D01*
X38308Y-40590D01*
X38399Y-40369D01*
X38400Y-40131D01*
X38400Y-47950D01*
X38150Y-47950D01*
X38150Y-43306D01*
X38058Y-43085D01*
X37898Y-42924D01*
X38058Y-42765D01*
X38149Y-42544D01*
X38150Y-42306D01*
X38058Y-42085D01*
X37890Y-41916D01*
X37669Y-41825D01*
X37431Y-41824D01*
X37210Y-41916D01*
X37041Y-42084D01*
X36950Y-42305D01*
X36949Y-42543D01*
X37041Y-42764D01*
X37201Y-42925D01*
X37041Y-43084D01*
X36950Y-43305D01*
X36949Y-43543D01*
X37041Y-43764D01*
X37115Y-43839D01*
X37058Y-43862D01*
X36988Y-43933D01*
X36950Y-44025D01*
X36949Y-44124D01*
X36950Y-44312D01*
X37012Y-44375D01*
X37500Y-44375D01*
X37500Y-44367D01*
X37600Y-44367D01*
X37600Y-44375D01*
X38087Y-44375D01*
X38150Y-44312D01*
X38150Y-44124D01*
X38149Y-44025D01*
X38111Y-43933D01*
X38041Y-43862D01*
X37984Y-43839D01*
X38058Y-43765D01*
X38149Y-43544D01*
X38150Y-43306D01*
X38150Y-47950D01*
X38150Y-47950D01*
X38150Y-44725D01*
X38150Y-44537D01*
X38087Y-44475D01*
X37600Y-44475D01*
X37600Y-44962D01*
X37662Y-45025D01*
X37949Y-45025D01*
X38041Y-44987D01*
X38111Y-44916D01*
X38149Y-44824D01*
X38150Y-44725D01*
X38150Y-47950D01*
X37500Y-47950D01*
X37500Y-44962D01*
X37500Y-44475D01*
X37012Y-44475D01*
X36950Y-44537D01*
X36949Y-44725D01*
X36950Y-44824D01*
X36988Y-44916D01*
X37058Y-44987D01*
X37150Y-45025D01*
X37437Y-45025D01*
X37500Y-44962D01*
X37500Y-47950D01*
X35600Y-47950D01*
X35600Y-37900D01*
X35600Y-37200D01*
X35562Y-37108D01*
X35491Y-37038D01*
X35399Y-37000D01*
X35300Y-36999D01*
X34600Y-36999D01*
X34508Y-37037D01*
X34438Y-37108D01*
X34418Y-37154D01*
X34396Y-37132D01*
X34351Y-37177D01*
X34317Y-37077D01*
X34093Y-36995D01*
X33855Y-37005D01*
X33682Y-37077D01*
X33648Y-37177D01*
X34000Y-37529D01*
X34005Y-37523D01*
X34076Y-37594D01*
X34070Y-37600D01*
X34076Y-37605D01*
X34005Y-37676D01*
X34000Y-37670D01*
X33929Y-37741D01*
X33929Y-37600D01*
X33577Y-37248D01*
X33512Y-37270D01*
X33508Y-37260D01*
X33350Y-37101D01*
X33350Y-35791D01*
X33266Y-35588D01*
X33111Y-35434D01*
X32909Y-35350D01*
X32691Y-35349D01*
X32500Y-35428D01*
X32500Y-35046D01*
X32420Y-34853D01*
X32272Y-34705D01*
X32079Y-34625D01*
X31871Y-34624D01*
X31678Y-34704D01*
X31530Y-34852D01*
X31500Y-34924D01*
X31500Y-34924D01*
X31499Y-34825D01*
X31461Y-34733D01*
X31391Y-34662D01*
X31299Y-34624D01*
X31087Y-34625D01*
X31025Y-34687D01*
X31025Y-35100D01*
X31032Y-35100D01*
X31032Y-35200D01*
X31025Y-35200D01*
X31025Y-35612D01*
X31087Y-35675D01*
X31299Y-35675D01*
X31391Y-35637D01*
X31461Y-35566D01*
X31499Y-35474D01*
X31500Y-35375D01*
X31500Y-35375D01*
X31529Y-35447D01*
X31677Y-35594D01*
X31870Y-35674D01*
X32078Y-35675D01*
X32272Y-35595D01*
X32419Y-35447D01*
X32499Y-35254D01*
X32500Y-35046D01*
X32500Y-35428D01*
X32488Y-35433D01*
X32334Y-35588D01*
X32250Y-35790D01*
X32249Y-36008D01*
X32333Y-36211D01*
X32488Y-36365D01*
X32690Y-36449D01*
X32908Y-36450D01*
X33111Y-36366D01*
X33265Y-36211D01*
X33349Y-36009D01*
X33350Y-35791D01*
X33350Y-37101D01*
X33340Y-37091D01*
X33119Y-37000D01*
X32881Y-36999D01*
X32660Y-37091D01*
X32491Y-37259D01*
X32400Y-37480D01*
X32399Y-37718D01*
X32491Y-37939D01*
X32659Y-38108D01*
X32880Y-38199D01*
X33118Y-38200D01*
X33339Y-38108D01*
X33508Y-37940D01*
X33512Y-37929D01*
X33577Y-37951D01*
X33929Y-37600D01*
X33929Y-37741D01*
X33648Y-38022D01*
X33682Y-38122D01*
X33906Y-38204D01*
X34144Y-38194D01*
X34317Y-38122D01*
X34351Y-38022D01*
X34351Y-38022D01*
X34396Y-38067D01*
X34418Y-38045D01*
X34437Y-38091D01*
X34508Y-38161D01*
X34600Y-38199D01*
X34699Y-38200D01*
X35399Y-38200D01*
X35491Y-38162D01*
X35561Y-38091D01*
X35599Y-37999D01*
X35600Y-37900D01*
X35600Y-47950D01*
X34351Y-47950D01*
X30925Y-47950D01*
X30925Y-35612D01*
X30925Y-35200D01*
X30925Y-35100D01*
X30925Y-34687D01*
X30862Y-34625D01*
X30650Y-34624D01*
X30558Y-34662D01*
X30488Y-34733D01*
X30450Y-34825D01*
X30449Y-34924D01*
X30450Y-35037D01*
X30512Y-35100D01*
X30925Y-35100D01*
X30925Y-35200D01*
X30512Y-35200D01*
X30450Y-35262D01*
X30449Y-35375D01*
X30450Y-35474D01*
X30488Y-35566D01*
X30558Y-35637D01*
X30650Y-35675D01*
X30862Y-35675D01*
X30925Y-35612D01*
X30925Y-47950D01*
X30270Y-47950D01*
X26869Y-44548D01*
X26869Y-38201D01*
X31001Y-34069D01*
X48498Y-34069D01*
X49950Y-35520D01*
X49950Y-46479D01*
G54D10*
G36*
X55450Y-47950D02*
X50120Y-47950D01*
X49850Y-47679D01*
X49850Y-47220D01*
X50350Y-46720D01*
X50350Y-44771D01*
X50414Y-44835D01*
X50591Y-44953D01*
X50800Y-44995D01*
X51008Y-44953D01*
X51185Y-44835D01*
X51303Y-44658D01*
X51345Y-44450D01*
X51303Y-44241D01*
X51185Y-44064D01*
X50350Y-43228D01*
X50350Y-35279D01*
X50050Y-34979D01*
X50050Y-34845D01*
X55074Y-34845D01*
X55450Y-35221D01*
X55450Y-47950D01*
X55450Y-47950D01*
G37*
G54D18*
X55450Y-47950D02*
X50120Y-47950D01*
X49850Y-47679D01*
X49850Y-47220D01*
X50350Y-46720D01*
X50350Y-44771D01*
X50414Y-44835D01*
X50591Y-44953D01*
X50800Y-44995D01*
X51008Y-44953D01*
X51185Y-44835D01*
X51303Y-44658D01*
X51345Y-44450D01*
X51303Y-44241D01*
X51185Y-44064D01*
X50350Y-43228D01*
X50350Y-35279D01*
X50050Y-34979D01*
X50050Y-34845D01*
X55074Y-34845D01*
X55450Y-35221D01*
X55450Y-47950D01*
G54D10*
G36*
X64750Y-47950D02*
X55950Y-47950D01*
X55950Y-37721D01*
X57814Y-39585D01*
X57991Y-39703D01*
X58200Y-39745D01*
X58408Y-39703D01*
X58585Y-39585D01*
X58703Y-39408D01*
X58745Y-39200D01*
X58703Y-38991D01*
X58585Y-38814D01*
X56545Y-36774D01*
X56545Y-35000D01*
X56545Y-34999D01*
X56545Y-34999D01*
X56503Y-34791D01*
X56385Y-34614D01*
X56385Y-34614D01*
X55950Y-34178D01*
X55950Y-34069D01*
X64750Y-34069D01*
X64750Y-47950D01*
X64750Y-47950D01*
G37*
G54D18*
X64750Y-47950D02*
X55950Y-47950D01*
X55950Y-37721D01*
X57814Y-39585D01*
X57991Y-39703D01*
X58200Y-39745D01*
X58408Y-39703D01*
X58585Y-39585D01*
X58703Y-39408D01*
X58745Y-39200D01*
X58703Y-38991D01*
X58585Y-38814D01*
X56545Y-36774D01*
X56545Y-35000D01*
X56545Y-34999D01*
X56545Y-34999D01*
X56503Y-34791D01*
X56385Y-34614D01*
X56385Y-34614D01*
X55950Y-34178D01*
X55950Y-34069D01*
X64750Y-34069D01*
X64750Y-47950D01*
G54D10*
G36*
X84130Y-45298D02*
X81479Y-47950D01*
X65250Y-47950D01*
X65250Y-34069D01*
X80098Y-34069D01*
X84130Y-38101D01*
X84130Y-45298D01*
X84130Y-45298D01*
G37*
G54D18*
X84130Y-45298D02*
X81479Y-47950D01*
X65250Y-47950D01*
X65250Y-34069D01*
X80098Y-34069D01*
X84130Y-38101D01*
X84130Y-45298D01*
M02*
