G04 (created by PCBNEW (2013-may-18)-stable) date 2014年02月07日 星期五 16时20分23秒*
%MOIN*%
G04 Gerber Fmt 3.4, Leading zero omitted, Abs format*
%FSLAX34Y34*%
G01*
G70*
G90*
G04 APERTURE LIST*
%ADD10C,0.00590551*%
%ADD11R,0.137795X0.401575*%
%ADD12R,0.075X0.025*%
%ADD13R,0.055X0.055*%
%ADD14C,0.055*%
%ADD15R,0.0275591X0.0314961*%
%ADD16R,0.015X0.05*%
%ADD17R,0.0787402X0.0629921*%
%ADD18C,0.07*%
%ADD19R,0.07X0.07*%
%ADD20R,0.0984252X0.0866142*%
%ADD21R,0.0787402X0.0433071*%
%ADD22R,0.0433071X0.0787402*%
%ADD23R,0.02X0.09*%
%ADD24R,0.081X0.038*%
%ADD25R,0.16X0.16*%
%ADD26C,0.06*%
G04 APERTURE END LIST*
G54D10*
G36*
X51474Y-36606D02*
X51474Y-35031D01*
X52025Y-35031D01*
X52025Y-36606D01*
X51474Y-36606D01*
X51474Y-36606D01*
G37*
G36*
X51474Y-38968D02*
X51474Y-37393D01*
X52025Y-37393D01*
X52025Y-38968D01*
X51474Y-38968D01*
X51474Y-38968D01*
G37*
G36*
X68924Y-45106D02*
X68924Y-43531D01*
X69475Y-43531D01*
X69475Y-45106D01*
X68924Y-45106D01*
X68924Y-45106D01*
G37*
G36*
X68924Y-47468D02*
X68924Y-45893D01*
X69475Y-45893D01*
X69475Y-47468D01*
X68924Y-47468D01*
X68924Y-47468D01*
G37*
G36*
X40274Y-45006D02*
X40274Y-43431D01*
X40825Y-43431D01*
X40825Y-45006D01*
X40274Y-45006D01*
X40274Y-45006D01*
G37*
G36*
X40274Y-47368D02*
X40274Y-45793D01*
X40825Y-45793D01*
X40825Y-47368D01*
X40274Y-47368D01*
X40274Y-47368D01*
G37*
G36*
X59624Y-36606D02*
X59624Y-35031D01*
X60175Y-35031D01*
X60175Y-36606D01*
X59624Y-36606D01*
X59624Y-36606D01*
G37*
G36*
X59624Y-38968D02*
X59624Y-37393D01*
X60175Y-37393D01*
X60175Y-38968D01*
X59624Y-38968D01*
X59624Y-38968D01*
G37*
G36*
X51474Y-45106D02*
X51474Y-43531D01*
X52025Y-43531D01*
X52025Y-45106D01*
X51474Y-45106D01*
X51474Y-45106D01*
G37*
G36*
X51474Y-47468D02*
X51474Y-45893D01*
X52025Y-45893D01*
X52025Y-47468D01*
X51474Y-47468D01*
X51474Y-47468D01*
G37*
G36*
X68924Y-36606D02*
X68924Y-35031D01*
X69475Y-35031D01*
X69475Y-36606D01*
X68924Y-36606D01*
X68924Y-36606D01*
G37*
G36*
X68924Y-38968D02*
X68924Y-37393D01*
X69475Y-37393D01*
X69475Y-38968D01*
X68924Y-38968D01*
X68924Y-38968D01*
G37*
G36*
X59624Y-45106D02*
X59624Y-43531D01*
X60175Y-43531D01*
X60175Y-45106D01*
X59624Y-45106D01*
X59624Y-45106D01*
G37*
G36*
X59624Y-47468D02*
X59624Y-45893D01*
X60175Y-45893D01*
X60175Y-47468D01*
X59624Y-47468D01*
X59624Y-47468D01*
G37*
G54D11*
X54400Y-36400D03*
X56999Y-36400D03*
X40125Y-36725D03*
X42724Y-36725D03*
X63700Y-45600D03*
X66299Y-45600D03*
X46825Y-41325D03*
X49424Y-41325D03*
X63700Y-36400D03*
X66299Y-36400D03*
X54400Y-45600D03*
X56999Y-45600D03*
G54D12*
X28400Y-39600D03*
X28400Y-40100D03*
X28400Y-40600D03*
X28400Y-41100D03*
X28400Y-41600D03*
X28400Y-42100D03*
X28400Y-42600D03*
X28400Y-43100D03*
X32400Y-43100D03*
X32400Y-42600D03*
X32400Y-42100D03*
X32400Y-41600D03*
X32400Y-41100D03*
X32400Y-40600D03*
X32400Y-40100D03*
X32400Y-39600D03*
G54D13*
X30975Y-35150D03*
G54D14*
X31975Y-35150D03*
G54D15*
X33319Y-40600D03*
X33830Y-40600D03*
X33319Y-42100D03*
X33830Y-42100D03*
G54D16*
X74884Y-42950D03*
X74628Y-42950D03*
X74372Y-42950D03*
X74116Y-42950D03*
X74116Y-44650D03*
X74372Y-44650D03*
X74628Y-44650D03*
X74884Y-44650D03*
G54D17*
X74500Y-43800D03*
G54D16*
X74116Y-39650D03*
X74372Y-39650D03*
X74628Y-39650D03*
X74884Y-39650D03*
X74884Y-37950D03*
X74628Y-37950D03*
X74372Y-37950D03*
X74116Y-37950D03*
G54D17*
X74500Y-38800D03*
G54D18*
X37550Y-42425D03*
X37550Y-43425D03*
G54D19*
X37550Y-44425D03*
G54D18*
X37800Y-40250D03*
X37800Y-39250D03*
G54D19*
X37800Y-38250D03*
G54D20*
X48975Y-44325D03*
X47124Y-44325D03*
G54D10*
G36*
X45279Y-38333D02*
X44666Y-37720D01*
X45362Y-37025D01*
X45975Y-37637D01*
X45279Y-38333D01*
X45279Y-38333D01*
G37*
G36*
X46587Y-37025D02*
X45975Y-36412D01*
X46670Y-35716D01*
X47283Y-36329D01*
X46587Y-37025D01*
X46587Y-37025D01*
G37*
G54D20*
X48975Y-46175D03*
X47124Y-46175D03*
X47124Y-38350D03*
X48975Y-38350D03*
G54D21*
X80400Y-39429D03*
X80400Y-40570D03*
X79500Y-44429D03*
X79500Y-45570D03*
X80800Y-44429D03*
X80800Y-45570D03*
X76200Y-43570D03*
X76200Y-42429D03*
X74500Y-45429D03*
X74500Y-46570D03*
X79100Y-39429D03*
X79100Y-40570D03*
G54D22*
X74129Y-40700D03*
X75270Y-40700D03*
G54D21*
X74400Y-37170D03*
X74400Y-36029D03*
X33575Y-39795D03*
X33575Y-38654D03*
X29500Y-43729D03*
X29500Y-44870D03*
X28375Y-43729D03*
X28375Y-44870D03*
G54D23*
X77500Y-44100D03*
X76500Y-45950D03*
X78500Y-45950D03*
X77000Y-38800D03*
X76000Y-40650D03*
X78000Y-40650D03*
X30200Y-36800D03*
X29200Y-38650D03*
X31200Y-38650D03*
G54D24*
X41400Y-40325D03*
X41420Y-41325D03*
X41400Y-42325D03*
X45000Y-40325D03*
X45000Y-41325D03*
X45000Y-42325D03*
G54D11*
X63700Y-41000D03*
X66299Y-41000D03*
X54400Y-41000D03*
X56999Y-41000D03*
G54D15*
X38094Y-36225D03*
X38605Y-36225D03*
X37905Y-46400D03*
X37394Y-46400D03*
X39544Y-42700D03*
X40055Y-42700D03*
X39544Y-40000D03*
X40055Y-40000D03*
G54D22*
X39229Y-41850D03*
X40370Y-41850D03*
X39229Y-40825D03*
X40370Y-40825D03*
G54D21*
X42975Y-44929D03*
X42975Y-46070D03*
X45000Y-43679D03*
X45000Y-44820D03*
G54D22*
X52120Y-42350D03*
X50979Y-42350D03*
X59970Y-39900D03*
X58829Y-39900D03*
G54D25*
X48800Y-35700D03*
X45400Y-46800D03*
X72100Y-41600D03*
X82500Y-39200D03*
X82500Y-41600D03*
X82500Y-44000D03*
X35450Y-35100D03*
X35375Y-42375D03*
X35375Y-40325D03*
X52100Y-40500D03*
X61600Y-39200D03*
X61600Y-43800D03*
X61600Y-41500D03*
X72100Y-44000D03*
X72100Y-39300D03*
X32000Y-44500D03*
G54D26*
X32800Y-35900D03*
X36800Y-35900D03*
G54D10*
G36*
X33239Y-44446D02*
X33796Y-43889D01*
X34102Y-44196D01*
X33546Y-44752D01*
X33239Y-44446D01*
X33239Y-44446D01*
G37*
G36*
X34047Y-45253D02*
X34603Y-44697D01*
X34910Y-45003D01*
X34353Y-45560D01*
X34047Y-45253D01*
X34047Y-45253D01*
G37*
G54D18*
X33000Y-37600D03*
X34000Y-37600D03*
G54D19*
X35000Y-37600D03*
G54D10*
G36*
X34605Y-44127D02*
X34410Y-43932D01*
X34632Y-43710D01*
X34827Y-43905D01*
X34605Y-44127D01*
X34605Y-44127D01*
G37*
G36*
X34967Y-44489D02*
X34772Y-44294D01*
X34994Y-44072D01*
X35189Y-44267D01*
X34967Y-44489D01*
X34967Y-44489D01*
G37*
M02*
