M48
INCH,TZ
T1C0.025
T2C0.032
T3C0.040
%
G90
G05
T1
X64929Y-58050
X64929Y-59624
T2
X66004Y-52636
X66110Y-56270
X66110Y-57270
X66110Y-58829
X66110Y-59829
X67004Y-52636
X71130Y-54695
X71130Y-55695
X71130Y-60404
X71130Y-61404
X77035Y-61290
X77035Y-62290
X85697Y-57050
X85697Y-58050
X85697Y-59050
X96400Y-56500
X96400Y-57500
X96400Y-59000
X96400Y-60000
X104900Y-56500
X104900Y-57500
X104900Y-59000
X104900Y-60000
X112900Y-56500
X112900Y-57500
X112900Y-59000
X112900Y-60000
T3
X69161Y-59313
X69161Y-60313
X69161Y-61313
X69358Y-54687
X69358Y-55687
X69358Y-56687
T0
M30
