G04 (created by PCBNEW (2013-may-18)-stable) date 2014年01月31日 星期五 10时06分07秒*
%MOIN*%
G04 Gerber Fmt 3.4, Leading zero omitted, Abs format*
%FSLAX34Y34*%
G01*
G70*
G90*
G04 APERTURE LIST*
%ADD10C,0.00590551*%
%ADD11R,0.055X0.055*%
%ADD12C,0.055*%
%ADD13C,0.07*%
%ADD14R,0.07X0.07*%
%ADD15C,0.035*%
%ADD16C,0.01*%
G04 APERTURE END LIST*
G54D10*
G54D11*
X37696Y-52149D03*
G54D12*
X37696Y-53149D03*
X37696Y-54149D03*
G54D11*
X62795Y-50779D03*
G54D12*
X62795Y-51779D03*
G54D11*
X18003Y-47736D03*
G54D12*
X19003Y-47736D03*
G54D11*
X51771Y-50779D03*
G54D12*
X51771Y-51779D03*
G54D11*
X74409Y-57980D03*
G54D12*
X74409Y-56980D03*
G54D11*
X74409Y-50287D03*
G54D12*
X74409Y-51287D03*
G54D11*
X29035Y-56389D03*
G54D12*
X29035Y-57389D03*
G54D11*
X23129Y-50795D03*
G54D12*
X23129Y-49795D03*
G54D11*
X23129Y-55503D03*
G54D12*
X23129Y-56503D03*
G54D11*
X18110Y-52370D03*
G54D12*
X18110Y-51370D03*
G54D11*
X18110Y-53929D03*
G54D12*
X18110Y-54929D03*
G54D11*
X62795Y-56208D03*
G54D12*
X62795Y-55208D03*
G54D11*
X51771Y-56208D03*
G54D12*
X51771Y-55208D03*
G54D13*
X21161Y-54413D03*
X21161Y-55413D03*
G54D14*
X21161Y-56413D03*
G54D13*
X21358Y-51787D03*
X21358Y-50787D03*
G54D14*
X21358Y-49787D03*
G54D15*
X16929Y-54724D03*
X16929Y-53149D03*
G54D16*
X16929Y-53149D02*
X16929Y-54724D01*
G54D10*
G36*
X29871Y-57853D02*
X29565Y-58159D01*
X29565Y-57465D01*
X29560Y-57376D01*
X29560Y-56615D01*
X29560Y-56065D01*
X29522Y-55973D01*
X29452Y-55902D01*
X29360Y-55864D01*
X29260Y-55864D01*
X28710Y-55864D01*
X28619Y-55902D01*
X28548Y-55972D01*
X28510Y-56064D01*
X28510Y-56164D01*
X28510Y-56714D01*
X28548Y-56806D01*
X28618Y-56876D01*
X28710Y-56914D01*
X28797Y-56914D01*
X28762Y-56929D01*
X28738Y-57021D01*
X29035Y-57319D01*
X29332Y-57021D01*
X29308Y-56929D01*
X29267Y-56914D01*
X29359Y-56914D01*
X29451Y-56876D01*
X29522Y-56806D01*
X29560Y-56714D01*
X29560Y-56615D01*
X29560Y-57376D01*
X29553Y-57257D01*
X29495Y-57116D01*
X29403Y-57092D01*
X29106Y-57389D01*
X29403Y-57686D01*
X29495Y-57662D01*
X29565Y-57465D01*
X29565Y-58159D01*
X29332Y-58392D01*
X29332Y-57757D01*
X29035Y-57460D01*
X28964Y-57531D01*
X28964Y-57389D01*
X28667Y-57092D01*
X28574Y-57116D01*
X28505Y-57313D01*
X28516Y-57522D01*
X28574Y-57662D01*
X28667Y-57686D01*
X28964Y-57389D01*
X28964Y-57531D01*
X28738Y-57757D01*
X28762Y-57850D01*
X28959Y-57919D01*
X29168Y-57908D01*
X29308Y-57850D01*
X29332Y-57757D01*
X29332Y-58392D01*
X28325Y-59398D01*
X23659Y-59398D01*
X23659Y-56579D01*
X23659Y-49871D01*
X23648Y-49662D01*
X23590Y-49522D01*
X23497Y-49498D01*
X23427Y-49568D01*
X23427Y-49427D01*
X23402Y-49334D01*
X23205Y-49265D01*
X22997Y-49276D01*
X22857Y-49334D01*
X22832Y-49427D01*
X23129Y-49724D01*
X23427Y-49427D01*
X23427Y-49568D01*
X23200Y-49795D01*
X23497Y-50092D01*
X23590Y-50068D01*
X23659Y-49871D01*
X23659Y-56579D01*
X23654Y-56490D01*
X23654Y-55729D01*
X23654Y-55179D01*
X23654Y-51020D01*
X23654Y-50470D01*
X23616Y-50378D01*
X23546Y-50308D01*
X23454Y-50270D01*
X23367Y-50270D01*
X23402Y-50255D01*
X23427Y-50163D01*
X23129Y-49865D01*
X23059Y-49936D01*
X23059Y-49795D01*
X22762Y-49498D01*
X22669Y-49522D01*
X22600Y-49719D01*
X22611Y-49928D01*
X22669Y-50068D01*
X22762Y-50092D01*
X23059Y-49795D01*
X23059Y-49936D01*
X22832Y-50163D01*
X22857Y-50255D01*
X22898Y-50270D01*
X22805Y-50270D01*
X22713Y-50308D01*
X22643Y-50378D01*
X22604Y-50470D01*
X22604Y-50569D01*
X22604Y-51119D01*
X22642Y-51211D01*
X22713Y-51282D01*
X22804Y-51320D01*
X22904Y-51320D01*
X23454Y-51320D01*
X23546Y-51282D01*
X23616Y-51212D01*
X23654Y-51120D01*
X23654Y-51020D01*
X23654Y-55179D01*
X23616Y-55087D01*
X23546Y-55017D01*
X23454Y-54978D01*
X23355Y-54978D01*
X22805Y-54978D01*
X22713Y-55016D01*
X22643Y-55087D01*
X22604Y-55178D01*
X22604Y-55278D01*
X22604Y-55828D01*
X22642Y-55920D01*
X22713Y-55990D01*
X22804Y-56028D01*
X22891Y-56028D01*
X22857Y-56043D01*
X22832Y-56136D01*
X23129Y-56433D01*
X23427Y-56136D01*
X23402Y-56043D01*
X23361Y-56028D01*
X23454Y-56028D01*
X23546Y-55991D01*
X23616Y-55920D01*
X23654Y-55828D01*
X23654Y-55729D01*
X23654Y-56490D01*
X23648Y-56371D01*
X23590Y-56231D01*
X23497Y-56206D01*
X23200Y-56503D01*
X23497Y-56801D01*
X23590Y-56776D01*
X23659Y-56579D01*
X23659Y-59398D01*
X23427Y-59398D01*
X23427Y-56871D01*
X23129Y-56574D01*
X23059Y-56645D01*
X23059Y-56503D01*
X22762Y-56206D01*
X22669Y-56231D01*
X22600Y-56428D01*
X22611Y-56636D01*
X22669Y-56776D01*
X22762Y-56801D01*
X23059Y-56503D01*
X23059Y-56645D01*
X22832Y-56871D01*
X22857Y-56964D01*
X23054Y-57033D01*
X23262Y-57022D01*
X23402Y-56964D01*
X23427Y-56871D01*
X23427Y-59398D01*
X21958Y-59398D01*
X21958Y-51668D01*
X21867Y-51447D01*
X21706Y-51287D01*
X21866Y-51127D01*
X21958Y-50907D01*
X21958Y-50668D01*
X21867Y-50447D01*
X21792Y-50373D01*
X21849Y-50349D01*
X21920Y-50279D01*
X21958Y-50187D01*
X21958Y-50087D01*
X21958Y-49486D01*
X21958Y-49387D01*
X21920Y-49295D01*
X21849Y-49225D01*
X21757Y-49187D01*
X21470Y-49187D01*
X21408Y-49249D01*
X21408Y-49737D01*
X21895Y-49737D01*
X21958Y-49674D01*
X21958Y-49486D01*
X21958Y-50087D01*
X21958Y-49899D01*
X21895Y-49837D01*
X21408Y-49837D01*
X21408Y-49845D01*
X21308Y-49845D01*
X21308Y-49837D01*
X21308Y-49737D01*
X21308Y-49249D01*
X21245Y-49187D01*
X20958Y-49187D01*
X20866Y-49225D01*
X20796Y-49295D01*
X20758Y-49387D01*
X20758Y-49486D01*
X20758Y-49674D01*
X20820Y-49737D01*
X21308Y-49737D01*
X21308Y-49837D01*
X20820Y-49837D01*
X20758Y-49899D01*
X20758Y-50087D01*
X20758Y-50187D01*
X20796Y-50279D01*
X20866Y-50349D01*
X20924Y-50373D01*
X20849Y-50447D01*
X20758Y-50667D01*
X20758Y-50906D01*
X20849Y-51126D01*
X21009Y-51287D01*
X20849Y-51447D01*
X20758Y-51667D01*
X20758Y-51906D01*
X20849Y-52126D01*
X21017Y-52295D01*
X21238Y-52387D01*
X21477Y-52387D01*
X21697Y-52296D01*
X21866Y-52127D01*
X21958Y-51907D01*
X21958Y-51668D01*
X21958Y-59398D01*
X21761Y-59398D01*
X21761Y-55294D01*
X21670Y-55073D01*
X21509Y-54913D01*
X21669Y-54753D01*
X21761Y-54533D01*
X21761Y-54294D01*
X21670Y-54073D01*
X21501Y-53905D01*
X21281Y-53813D01*
X21042Y-53813D01*
X20821Y-53904D01*
X20653Y-54073D01*
X20561Y-54293D01*
X20561Y-54532D01*
X20652Y-54752D01*
X20812Y-54913D01*
X20653Y-55073D01*
X20561Y-55293D01*
X20561Y-55532D01*
X20652Y-55752D01*
X20727Y-55827D01*
X20669Y-55851D01*
X20599Y-55921D01*
X20561Y-56013D01*
X20561Y-56112D01*
X20561Y-56300D01*
X20623Y-56363D01*
X21111Y-56363D01*
X21111Y-56355D01*
X21211Y-56355D01*
X21211Y-56363D01*
X21698Y-56363D01*
X21761Y-56300D01*
X21761Y-56112D01*
X21761Y-56013D01*
X21723Y-55921D01*
X21652Y-55851D01*
X21595Y-55827D01*
X21669Y-55753D01*
X21761Y-55533D01*
X21761Y-55294D01*
X21761Y-59398D01*
X21761Y-59398D01*
X21761Y-56713D01*
X21761Y-56525D01*
X21698Y-56463D01*
X21211Y-56463D01*
X21211Y-56950D01*
X21273Y-57013D01*
X21560Y-57013D01*
X21652Y-56975D01*
X21723Y-56905D01*
X21761Y-56813D01*
X21761Y-56713D01*
X21761Y-59398D01*
X21111Y-59398D01*
X21111Y-56950D01*
X21111Y-56463D01*
X20623Y-56463D01*
X20561Y-56525D01*
X20561Y-56713D01*
X20561Y-56813D01*
X20599Y-56905D01*
X20669Y-56975D01*
X20761Y-57013D01*
X21048Y-57013D01*
X21111Y-56950D01*
X21111Y-59398D01*
X19529Y-59398D01*
X19529Y-47632D01*
X19449Y-47439D01*
X19301Y-47291D01*
X19108Y-47211D01*
X18899Y-47211D01*
X18706Y-47290D01*
X18559Y-47438D01*
X18528Y-47511D01*
X18528Y-47510D01*
X18528Y-47411D01*
X18490Y-47319D01*
X18420Y-47249D01*
X18328Y-47211D01*
X18116Y-47211D01*
X18053Y-47273D01*
X18053Y-47686D01*
X18061Y-47686D01*
X18061Y-47786D01*
X18053Y-47786D01*
X18053Y-48198D01*
X18116Y-48261D01*
X18328Y-48261D01*
X18420Y-48223D01*
X18490Y-48153D01*
X18528Y-48061D01*
X18528Y-47961D01*
X18528Y-47961D01*
X18558Y-48033D01*
X18706Y-48181D01*
X18899Y-48261D01*
X19107Y-48261D01*
X19300Y-48181D01*
X19448Y-48033D01*
X19528Y-47841D01*
X19529Y-47632D01*
X19529Y-59398D01*
X18640Y-59398D01*
X18640Y-55004D01*
X18640Y-51445D01*
X18628Y-51237D01*
X18570Y-51097D01*
X18478Y-51072D01*
X18407Y-51143D01*
X18407Y-51002D01*
X18383Y-50909D01*
X18186Y-50840D01*
X17977Y-50851D01*
X17953Y-50861D01*
X17953Y-48198D01*
X17953Y-47786D01*
X17953Y-47686D01*
X17953Y-47273D01*
X17891Y-47211D01*
X17679Y-47211D01*
X17587Y-47249D01*
X17517Y-47319D01*
X17478Y-47411D01*
X17478Y-47510D01*
X17478Y-47623D01*
X17541Y-47686D01*
X17953Y-47686D01*
X17953Y-47786D01*
X17541Y-47786D01*
X17478Y-47848D01*
X17478Y-47961D01*
X17478Y-48061D01*
X17517Y-48153D01*
X17587Y-48223D01*
X17679Y-48261D01*
X17891Y-48261D01*
X17953Y-48198D01*
X17953Y-50861D01*
X17837Y-50909D01*
X17813Y-51002D01*
X18110Y-51299D01*
X18407Y-51002D01*
X18407Y-51143D01*
X18180Y-51370D01*
X18478Y-51667D01*
X18570Y-51642D01*
X18640Y-51445D01*
X18640Y-55004D01*
X18635Y-54915D01*
X18635Y-54154D01*
X18635Y-53604D01*
X18635Y-52595D01*
X18635Y-52045D01*
X18597Y-51953D01*
X18527Y-51883D01*
X18435Y-51845D01*
X18348Y-51845D01*
X18383Y-51830D01*
X18407Y-51737D01*
X18110Y-51440D01*
X18039Y-51511D01*
X18039Y-51370D01*
X17742Y-51072D01*
X17649Y-51097D01*
X17580Y-51294D01*
X17591Y-51502D01*
X17649Y-51642D01*
X17742Y-51667D01*
X18039Y-51370D01*
X18039Y-51511D01*
X17813Y-51737D01*
X17837Y-51830D01*
X17878Y-51845D01*
X17785Y-51845D01*
X17693Y-51883D01*
X17623Y-51953D01*
X17585Y-52045D01*
X17585Y-52144D01*
X17585Y-52694D01*
X17623Y-52786D01*
X17693Y-52856D01*
X17785Y-52895D01*
X17884Y-52895D01*
X18434Y-52895D01*
X18526Y-52857D01*
X18597Y-52786D01*
X18635Y-52695D01*
X18635Y-52595D01*
X18635Y-53604D01*
X18597Y-53512D01*
X18527Y-53442D01*
X18435Y-53404D01*
X18335Y-53404D01*
X17785Y-53404D01*
X17693Y-53442D01*
X17623Y-53512D01*
X17585Y-53604D01*
X17585Y-53703D01*
X17585Y-54253D01*
X17623Y-54345D01*
X17693Y-54415D01*
X17785Y-54454D01*
X17872Y-54454D01*
X17837Y-54468D01*
X17813Y-54561D01*
X18110Y-54858D01*
X18407Y-54561D01*
X18383Y-54468D01*
X18342Y-54454D01*
X18434Y-54454D01*
X18526Y-54416D01*
X18597Y-54345D01*
X18635Y-54254D01*
X18635Y-54154D01*
X18635Y-54915D01*
X18628Y-54796D01*
X18570Y-54656D01*
X18478Y-54632D01*
X18180Y-54929D01*
X18478Y-55226D01*
X18570Y-55201D01*
X18640Y-55004D01*
X18640Y-59398D01*
X18407Y-59398D01*
X18407Y-55296D01*
X18110Y-54999D01*
X18039Y-55070D01*
X18039Y-54929D01*
X17742Y-54632D01*
X17649Y-54656D01*
X17580Y-54853D01*
X17591Y-55061D01*
X17649Y-55201D01*
X17742Y-55226D01*
X18039Y-54929D01*
X18039Y-55070D01*
X17813Y-55296D01*
X17837Y-55389D01*
X18034Y-55459D01*
X18242Y-55447D01*
X18383Y-55389D01*
X18407Y-55296D01*
X18407Y-59398D01*
X11831Y-59398D01*
X7924Y-55491D01*
X7924Y-52382D01*
X13406Y-46900D01*
X28719Y-46900D01*
X29477Y-47658D01*
X29477Y-55138D01*
X29871Y-55532D01*
X29871Y-57853D01*
X29871Y-57853D01*
G37*
G54D16*
X29871Y-57853D02*
X29565Y-58159D01*
X29565Y-57465D01*
X29560Y-57376D01*
X29560Y-56615D01*
X29560Y-56065D01*
X29522Y-55973D01*
X29452Y-55902D01*
X29360Y-55864D01*
X29260Y-55864D01*
X28710Y-55864D01*
X28619Y-55902D01*
X28548Y-55972D01*
X28510Y-56064D01*
X28510Y-56164D01*
X28510Y-56714D01*
X28548Y-56806D01*
X28618Y-56876D01*
X28710Y-56914D01*
X28797Y-56914D01*
X28762Y-56929D01*
X28738Y-57021D01*
X29035Y-57319D01*
X29332Y-57021D01*
X29308Y-56929D01*
X29267Y-56914D01*
X29359Y-56914D01*
X29451Y-56876D01*
X29522Y-56806D01*
X29560Y-56714D01*
X29560Y-56615D01*
X29560Y-57376D01*
X29553Y-57257D01*
X29495Y-57116D01*
X29403Y-57092D01*
X29106Y-57389D01*
X29403Y-57686D01*
X29495Y-57662D01*
X29565Y-57465D01*
X29565Y-58159D01*
X29332Y-58392D01*
X29332Y-57757D01*
X29035Y-57460D01*
X28964Y-57531D01*
X28964Y-57389D01*
X28667Y-57092D01*
X28574Y-57116D01*
X28505Y-57313D01*
X28516Y-57522D01*
X28574Y-57662D01*
X28667Y-57686D01*
X28964Y-57389D01*
X28964Y-57531D01*
X28738Y-57757D01*
X28762Y-57850D01*
X28959Y-57919D01*
X29168Y-57908D01*
X29308Y-57850D01*
X29332Y-57757D01*
X29332Y-58392D01*
X28325Y-59398D01*
X23659Y-59398D01*
X23659Y-56579D01*
X23659Y-49871D01*
X23648Y-49662D01*
X23590Y-49522D01*
X23497Y-49498D01*
X23427Y-49568D01*
X23427Y-49427D01*
X23402Y-49334D01*
X23205Y-49265D01*
X22997Y-49276D01*
X22857Y-49334D01*
X22832Y-49427D01*
X23129Y-49724D01*
X23427Y-49427D01*
X23427Y-49568D01*
X23200Y-49795D01*
X23497Y-50092D01*
X23590Y-50068D01*
X23659Y-49871D01*
X23659Y-56579D01*
X23654Y-56490D01*
X23654Y-55729D01*
X23654Y-55179D01*
X23654Y-51020D01*
X23654Y-50470D01*
X23616Y-50378D01*
X23546Y-50308D01*
X23454Y-50270D01*
X23367Y-50270D01*
X23402Y-50255D01*
X23427Y-50163D01*
X23129Y-49865D01*
X23059Y-49936D01*
X23059Y-49795D01*
X22762Y-49498D01*
X22669Y-49522D01*
X22600Y-49719D01*
X22611Y-49928D01*
X22669Y-50068D01*
X22762Y-50092D01*
X23059Y-49795D01*
X23059Y-49936D01*
X22832Y-50163D01*
X22857Y-50255D01*
X22898Y-50270D01*
X22805Y-50270D01*
X22713Y-50308D01*
X22643Y-50378D01*
X22604Y-50470D01*
X22604Y-50569D01*
X22604Y-51119D01*
X22642Y-51211D01*
X22713Y-51282D01*
X22804Y-51320D01*
X22904Y-51320D01*
X23454Y-51320D01*
X23546Y-51282D01*
X23616Y-51212D01*
X23654Y-51120D01*
X23654Y-51020D01*
X23654Y-55179D01*
X23616Y-55087D01*
X23546Y-55017D01*
X23454Y-54978D01*
X23355Y-54978D01*
X22805Y-54978D01*
X22713Y-55016D01*
X22643Y-55087D01*
X22604Y-55178D01*
X22604Y-55278D01*
X22604Y-55828D01*
X22642Y-55920D01*
X22713Y-55990D01*
X22804Y-56028D01*
X22891Y-56028D01*
X22857Y-56043D01*
X22832Y-56136D01*
X23129Y-56433D01*
X23427Y-56136D01*
X23402Y-56043D01*
X23361Y-56028D01*
X23454Y-56028D01*
X23546Y-55991D01*
X23616Y-55920D01*
X23654Y-55828D01*
X23654Y-55729D01*
X23654Y-56490D01*
X23648Y-56371D01*
X23590Y-56231D01*
X23497Y-56206D01*
X23200Y-56503D01*
X23497Y-56801D01*
X23590Y-56776D01*
X23659Y-56579D01*
X23659Y-59398D01*
X23427Y-59398D01*
X23427Y-56871D01*
X23129Y-56574D01*
X23059Y-56645D01*
X23059Y-56503D01*
X22762Y-56206D01*
X22669Y-56231D01*
X22600Y-56428D01*
X22611Y-56636D01*
X22669Y-56776D01*
X22762Y-56801D01*
X23059Y-56503D01*
X23059Y-56645D01*
X22832Y-56871D01*
X22857Y-56964D01*
X23054Y-57033D01*
X23262Y-57022D01*
X23402Y-56964D01*
X23427Y-56871D01*
X23427Y-59398D01*
X21958Y-59398D01*
X21958Y-51668D01*
X21867Y-51447D01*
X21706Y-51287D01*
X21866Y-51127D01*
X21958Y-50907D01*
X21958Y-50668D01*
X21867Y-50447D01*
X21792Y-50373D01*
X21849Y-50349D01*
X21920Y-50279D01*
X21958Y-50187D01*
X21958Y-50087D01*
X21958Y-49486D01*
X21958Y-49387D01*
X21920Y-49295D01*
X21849Y-49225D01*
X21757Y-49187D01*
X21470Y-49187D01*
X21408Y-49249D01*
X21408Y-49737D01*
X21895Y-49737D01*
X21958Y-49674D01*
X21958Y-49486D01*
X21958Y-50087D01*
X21958Y-49899D01*
X21895Y-49837D01*
X21408Y-49837D01*
X21408Y-49845D01*
X21308Y-49845D01*
X21308Y-49837D01*
X21308Y-49737D01*
X21308Y-49249D01*
X21245Y-49187D01*
X20958Y-49187D01*
X20866Y-49225D01*
X20796Y-49295D01*
X20758Y-49387D01*
X20758Y-49486D01*
X20758Y-49674D01*
X20820Y-49737D01*
X21308Y-49737D01*
X21308Y-49837D01*
X20820Y-49837D01*
X20758Y-49899D01*
X20758Y-50087D01*
X20758Y-50187D01*
X20796Y-50279D01*
X20866Y-50349D01*
X20924Y-50373D01*
X20849Y-50447D01*
X20758Y-50667D01*
X20758Y-50906D01*
X20849Y-51126D01*
X21009Y-51287D01*
X20849Y-51447D01*
X20758Y-51667D01*
X20758Y-51906D01*
X20849Y-52126D01*
X21017Y-52295D01*
X21238Y-52387D01*
X21477Y-52387D01*
X21697Y-52296D01*
X21866Y-52127D01*
X21958Y-51907D01*
X21958Y-51668D01*
X21958Y-59398D01*
X21761Y-59398D01*
X21761Y-55294D01*
X21670Y-55073D01*
X21509Y-54913D01*
X21669Y-54753D01*
X21761Y-54533D01*
X21761Y-54294D01*
X21670Y-54073D01*
X21501Y-53905D01*
X21281Y-53813D01*
X21042Y-53813D01*
X20821Y-53904D01*
X20653Y-54073D01*
X20561Y-54293D01*
X20561Y-54532D01*
X20652Y-54752D01*
X20812Y-54913D01*
X20653Y-55073D01*
X20561Y-55293D01*
X20561Y-55532D01*
X20652Y-55752D01*
X20727Y-55827D01*
X20669Y-55851D01*
X20599Y-55921D01*
X20561Y-56013D01*
X20561Y-56112D01*
X20561Y-56300D01*
X20623Y-56363D01*
X21111Y-56363D01*
X21111Y-56355D01*
X21211Y-56355D01*
X21211Y-56363D01*
X21698Y-56363D01*
X21761Y-56300D01*
X21761Y-56112D01*
X21761Y-56013D01*
X21723Y-55921D01*
X21652Y-55851D01*
X21595Y-55827D01*
X21669Y-55753D01*
X21761Y-55533D01*
X21761Y-55294D01*
X21761Y-59398D01*
X21761Y-59398D01*
X21761Y-56713D01*
X21761Y-56525D01*
X21698Y-56463D01*
X21211Y-56463D01*
X21211Y-56950D01*
X21273Y-57013D01*
X21560Y-57013D01*
X21652Y-56975D01*
X21723Y-56905D01*
X21761Y-56813D01*
X21761Y-56713D01*
X21761Y-59398D01*
X21111Y-59398D01*
X21111Y-56950D01*
X21111Y-56463D01*
X20623Y-56463D01*
X20561Y-56525D01*
X20561Y-56713D01*
X20561Y-56813D01*
X20599Y-56905D01*
X20669Y-56975D01*
X20761Y-57013D01*
X21048Y-57013D01*
X21111Y-56950D01*
X21111Y-59398D01*
X19529Y-59398D01*
X19529Y-47632D01*
X19449Y-47439D01*
X19301Y-47291D01*
X19108Y-47211D01*
X18899Y-47211D01*
X18706Y-47290D01*
X18559Y-47438D01*
X18528Y-47511D01*
X18528Y-47510D01*
X18528Y-47411D01*
X18490Y-47319D01*
X18420Y-47249D01*
X18328Y-47211D01*
X18116Y-47211D01*
X18053Y-47273D01*
X18053Y-47686D01*
X18061Y-47686D01*
X18061Y-47786D01*
X18053Y-47786D01*
X18053Y-48198D01*
X18116Y-48261D01*
X18328Y-48261D01*
X18420Y-48223D01*
X18490Y-48153D01*
X18528Y-48061D01*
X18528Y-47961D01*
X18528Y-47961D01*
X18558Y-48033D01*
X18706Y-48181D01*
X18899Y-48261D01*
X19107Y-48261D01*
X19300Y-48181D01*
X19448Y-48033D01*
X19528Y-47841D01*
X19529Y-47632D01*
X19529Y-59398D01*
X18640Y-59398D01*
X18640Y-55004D01*
X18640Y-51445D01*
X18628Y-51237D01*
X18570Y-51097D01*
X18478Y-51072D01*
X18407Y-51143D01*
X18407Y-51002D01*
X18383Y-50909D01*
X18186Y-50840D01*
X17977Y-50851D01*
X17953Y-50861D01*
X17953Y-48198D01*
X17953Y-47786D01*
X17953Y-47686D01*
X17953Y-47273D01*
X17891Y-47211D01*
X17679Y-47211D01*
X17587Y-47249D01*
X17517Y-47319D01*
X17478Y-47411D01*
X17478Y-47510D01*
X17478Y-47623D01*
X17541Y-47686D01*
X17953Y-47686D01*
X17953Y-47786D01*
X17541Y-47786D01*
X17478Y-47848D01*
X17478Y-47961D01*
X17478Y-48061D01*
X17517Y-48153D01*
X17587Y-48223D01*
X17679Y-48261D01*
X17891Y-48261D01*
X17953Y-48198D01*
X17953Y-50861D01*
X17837Y-50909D01*
X17813Y-51002D01*
X18110Y-51299D01*
X18407Y-51002D01*
X18407Y-51143D01*
X18180Y-51370D01*
X18478Y-51667D01*
X18570Y-51642D01*
X18640Y-51445D01*
X18640Y-55004D01*
X18635Y-54915D01*
X18635Y-54154D01*
X18635Y-53604D01*
X18635Y-52595D01*
X18635Y-52045D01*
X18597Y-51953D01*
X18527Y-51883D01*
X18435Y-51845D01*
X18348Y-51845D01*
X18383Y-51830D01*
X18407Y-51737D01*
X18110Y-51440D01*
X18039Y-51511D01*
X18039Y-51370D01*
X17742Y-51072D01*
X17649Y-51097D01*
X17580Y-51294D01*
X17591Y-51502D01*
X17649Y-51642D01*
X17742Y-51667D01*
X18039Y-51370D01*
X18039Y-51511D01*
X17813Y-51737D01*
X17837Y-51830D01*
X17878Y-51845D01*
X17785Y-51845D01*
X17693Y-51883D01*
X17623Y-51953D01*
X17585Y-52045D01*
X17585Y-52144D01*
X17585Y-52694D01*
X17623Y-52786D01*
X17693Y-52856D01*
X17785Y-52895D01*
X17884Y-52895D01*
X18434Y-52895D01*
X18526Y-52857D01*
X18597Y-52786D01*
X18635Y-52695D01*
X18635Y-52595D01*
X18635Y-53604D01*
X18597Y-53512D01*
X18527Y-53442D01*
X18435Y-53404D01*
X18335Y-53404D01*
X17785Y-53404D01*
X17693Y-53442D01*
X17623Y-53512D01*
X17585Y-53604D01*
X17585Y-53703D01*
X17585Y-54253D01*
X17623Y-54345D01*
X17693Y-54415D01*
X17785Y-54454D01*
X17872Y-54454D01*
X17837Y-54468D01*
X17813Y-54561D01*
X18110Y-54858D01*
X18407Y-54561D01*
X18383Y-54468D01*
X18342Y-54454D01*
X18434Y-54454D01*
X18526Y-54416D01*
X18597Y-54345D01*
X18635Y-54254D01*
X18635Y-54154D01*
X18635Y-54915D01*
X18628Y-54796D01*
X18570Y-54656D01*
X18478Y-54632D01*
X18180Y-54929D01*
X18478Y-55226D01*
X18570Y-55201D01*
X18640Y-55004D01*
X18640Y-59398D01*
X18407Y-59398D01*
X18407Y-55296D01*
X18110Y-54999D01*
X18039Y-55070D01*
X18039Y-54929D01*
X17742Y-54632D01*
X17649Y-54656D01*
X17580Y-54853D01*
X17591Y-55061D01*
X17649Y-55201D01*
X17742Y-55226D01*
X18039Y-54929D01*
X18039Y-55070D01*
X17813Y-55296D01*
X17837Y-55389D01*
X18034Y-55459D01*
X18242Y-55447D01*
X18383Y-55389D01*
X18407Y-55296D01*
X18407Y-59398D01*
X11831Y-59398D01*
X7924Y-55491D01*
X7924Y-52382D01*
X13406Y-46900D01*
X28719Y-46900D01*
X29477Y-47658D01*
X29477Y-55138D01*
X29871Y-55532D01*
X29871Y-57853D01*
G54D10*
G36*
X75540Y-58640D02*
X74939Y-59241D01*
X74939Y-57056D01*
X74939Y-51363D01*
X74934Y-51273D01*
X74934Y-50512D01*
X74934Y-49962D01*
X74896Y-49870D01*
X74826Y-49800D01*
X74734Y-49762D01*
X74634Y-49762D01*
X74084Y-49762D01*
X73993Y-49800D01*
X73922Y-49870D01*
X73884Y-49962D01*
X73884Y-50061D01*
X73884Y-50611D01*
X73922Y-50703D01*
X73992Y-50774D01*
X74084Y-50812D01*
X74171Y-50812D01*
X74136Y-50826D01*
X74112Y-50919D01*
X74409Y-51216D01*
X74706Y-50919D01*
X74682Y-50826D01*
X74641Y-50812D01*
X74733Y-50812D01*
X74825Y-50774D01*
X74896Y-50704D01*
X74934Y-50612D01*
X74934Y-50512D01*
X74934Y-51273D01*
X74928Y-51154D01*
X74869Y-51014D01*
X74777Y-50990D01*
X74480Y-51287D01*
X74777Y-51584D01*
X74869Y-51560D01*
X74939Y-51363D01*
X74939Y-57056D01*
X74928Y-56847D01*
X74869Y-56707D01*
X74777Y-56683D01*
X74706Y-56753D01*
X74706Y-56612D01*
X74706Y-51655D01*
X74409Y-51358D01*
X74338Y-51428D01*
X74338Y-51287D01*
X74041Y-50990D01*
X73948Y-51014D01*
X73879Y-51211D01*
X73890Y-51420D01*
X73948Y-51560D01*
X74041Y-51584D01*
X74338Y-51287D01*
X74338Y-51428D01*
X74112Y-51655D01*
X74136Y-51747D01*
X74333Y-51817D01*
X74542Y-51805D01*
X74682Y-51747D01*
X74706Y-51655D01*
X74706Y-56612D01*
X74682Y-56519D01*
X74485Y-56450D01*
X74276Y-56461D01*
X74136Y-56519D01*
X74112Y-56612D01*
X74409Y-56909D01*
X74706Y-56612D01*
X74706Y-56753D01*
X74480Y-56980D01*
X74777Y-57277D01*
X74869Y-57253D01*
X74939Y-57056D01*
X74939Y-59241D01*
X74934Y-59246D01*
X74934Y-58205D01*
X74934Y-57655D01*
X74896Y-57563D01*
X74826Y-57493D01*
X74734Y-57455D01*
X74647Y-57455D01*
X74682Y-57440D01*
X74706Y-57348D01*
X74409Y-57051D01*
X74338Y-57121D01*
X74338Y-56980D01*
X74041Y-56683D01*
X73948Y-56707D01*
X73879Y-56904D01*
X73890Y-57113D01*
X73948Y-57253D01*
X74041Y-57277D01*
X74338Y-56980D01*
X74338Y-57121D01*
X74112Y-57348D01*
X74136Y-57440D01*
X74177Y-57455D01*
X74084Y-57455D01*
X73993Y-57493D01*
X73922Y-57563D01*
X73884Y-57655D01*
X73884Y-57754D01*
X73884Y-58304D01*
X73922Y-58396D01*
X73992Y-58467D01*
X74084Y-58505D01*
X74183Y-58505D01*
X74733Y-58505D01*
X74825Y-58467D01*
X74896Y-58397D01*
X74934Y-58305D01*
X74934Y-58205D01*
X74934Y-59246D01*
X73995Y-60186D01*
X63325Y-60186D01*
X63325Y-55284D01*
X63325Y-51855D01*
X63320Y-51766D01*
X63320Y-51005D01*
X63320Y-50455D01*
X63282Y-50363D01*
X63212Y-50292D01*
X63120Y-50254D01*
X63020Y-50254D01*
X62470Y-50254D01*
X62378Y-50292D01*
X62308Y-50362D01*
X62270Y-50454D01*
X62270Y-50554D01*
X62270Y-51104D01*
X62308Y-51195D01*
X62378Y-51266D01*
X62470Y-51304D01*
X62557Y-51304D01*
X62522Y-51318D01*
X62498Y-51411D01*
X62795Y-51708D01*
X63092Y-51411D01*
X63068Y-51318D01*
X63027Y-51304D01*
X63119Y-51304D01*
X63211Y-51266D01*
X63282Y-51196D01*
X63320Y-51104D01*
X63320Y-51005D01*
X63320Y-51766D01*
X63313Y-51646D01*
X63255Y-51506D01*
X63163Y-51482D01*
X62865Y-51779D01*
X63163Y-52076D01*
X63255Y-52052D01*
X63325Y-51855D01*
X63325Y-55284D01*
X63313Y-55075D01*
X63255Y-54935D01*
X63163Y-54911D01*
X63092Y-54982D01*
X63092Y-54840D01*
X63092Y-52147D01*
X62795Y-51850D01*
X62724Y-51920D01*
X62724Y-51779D01*
X62427Y-51482D01*
X62334Y-51506D01*
X62265Y-51703D01*
X62276Y-51912D01*
X62334Y-52052D01*
X62427Y-52076D01*
X62724Y-51779D01*
X62724Y-51920D01*
X62498Y-52147D01*
X62522Y-52240D01*
X62719Y-52309D01*
X62928Y-52298D01*
X63068Y-52240D01*
X63092Y-52147D01*
X63092Y-54840D01*
X63068Y-54748D01*
X62871Y-54678D01*
X62662Y-54690D01*
X62522Y-54748D01*
X62498Y-54840D01*
X62795Y-55137D01*
X63092Y-54840D01*
X63092Y-54982D01*
X62865Y-55208D01*
X63163Y-55505D01*
X63255Y-55481D01*
X63325Y-55284D01*
X63325Y-60186D01*
X63320Y-60186D01*
X63320Y-56434D01*
X63320Y-55884D01*
X63282Y-55792D01*
X63212Y-55721D01*
X63120Y-55683D01*
X63033Y-55683D01*
X63068Y-55669D01*
X63092Y-55576D01*
X62795Y-55279D01*
X62724Y-55350D01*
X62724Y-55208D01*
X62427Y-54911D01*
X62334Y-54935D01*
X62265Y-55132D01*
X62276Y-55341D01*
X62334Y-55481D01*
X62427Y-55505D01*
X62724Y-55208D01*
X62724Y-55350D01*
X62498Y-55576D01*
X62522Y-55669D01*
X62563Y-55683D01*
X62470Y-55683D01*
X62378Y-55721D01*
X62308Y-55791D01*
X62270Y-55883D01*
X62270Y-55983D01*
X62270Y-56533D01*
X62308Y-56625D01*
X62378Y-56695D01*
X62470Y-56733D01*
X62569Y-56733D01*
X63119Y-56733D01*
X63211Y-56695D01*
X63282Y-56625D01*
X63320Y-56533D01*
X63320Y-56434D01*
X63320Y-60186D01*
X52301Y-60186D01*
X52301Y-55284D01*
X52301Y-51855D01*
X52296Y-51766D01*
X52296Y-51005D01*
X52296Y-50455D01*
X52258Y-50363D01*
X52188Y-50292D01*
X52096Y-50254D01*
X51997Y-50254D01*
X51447Y-50254D01*
X51355Y-50292D01*
X51284Y-50362D01*
X51246Y-50454D01*
X51246Y-50554D01*
X51246Y-51104D01*
X51284Y-51195D01*
X51354Y-51266D01*
X51446Y-51304D01*
X51533Y-51304D01*
X51498Y-51318D01*
X51474Y-51411D01*
X51771Y-51708D01*
X52068Y-51411D01*
X52044Y-51318D01*
X52003Y-51304D01*
X52096Y-51304D01*
X52188Y-51266D01*
X52258Y-51196D01*
X52296Y-51104D01*
X52296Y-51005D01*
X52296Y-51766D01*
X52290Y-51646D01*
X52232Y-51506D01*
X52139Y-51482D01*
X51842Y-51779D01*
X52139Y-52076D01*
X52232Y-52052D01*
X52301Y-51855D01*
X52301Y-55284D01*
X52290Y-55075D01*
X52232Y-54935D01*
X52139Y-54911D01*
X52068Y-54982D01*
X52068Y-54840D01*
X52068Y-52147D01*
X51771Y-51850D01*
X51700Y-51920D01*
X51700Y-51779D01*
X51403Y-51482D01*
X51311Y-51506D01*
X51241Y-51703D01*
X51253Y-51912D01*
X51311Y-52052D01*
X51403Y-52076D01*
X51700Y-51779D01*
X51700Y-51920D01*
X51474Y-52147D01*
X51498Y-52240D01*
X51695Y-52309D01*
X51904Y-52298D01*
X52044Y-52240D01*
X52068Y-52147D01*
X52068Y-54840D01*
X52044Y-54748D01*
X51847Y-54678D01*
X51638Y-54690D01*
X51498Y-54748D01*
X51474Y-54840D01*
X51771Y-55137D01*
X52068Y-54840D01*
X52068Y-54982D01*
X51842Y-55208D01*
X52139Y-55505D01*
X52232Y-55481D01*
X52301Y-55284D01*
X52301Y-60186D01*
X52296Y-60186D01*
X52296Y-56434D01*
X52296Y-55884D01*
X52258Y-55792D01*
X52188Y-55721D01*
X52096Y-55683D01*
X52009Y-55683D01*
X52044Y-55669D01*
X52068Y-55576D01*
X51771Y-55279D01*
X51700Y-55350D01*
X51700Y-55208D01*
X51403Y-54911D01*
X51311Y-54935D01*
X51241Y-55132D01*
X51253Y-55341D01*
X51311Y-55481D01*
X51403Y-55505D01*
X51700Y-55208D01*
X51700Y-55350D01*
X51474Y-55576D01*
X51498Y-55669D01*
X51539Y-55683D01*
X51447Y-55683D01*
X51355Y-55721D01*
X51284Y-55791D01*
X51246Y-55883D01*
X51246Y-55983D01*
X51246Y-56533D01*
X51284Y-56625D01*
X51354Y-56695D01*
X51446Y-56733D01*
X51546Y-56733D01*
X52096Y-56733D01*
X52188Y-56695D01*
X52258Y-56625D01*
X52296Y-56533D01*
X52296Y-56434D01*
X52296Y-60186D01*
X38226Y-60186D01*
X38226Y-53225D01*
X38221Y-53136D01*
X38221Y-52375D01*
X38221Y-51825D01*
X38183Y-51733D01*
X38113Y-51662D01*
X38021Y-51624D01*
X37922Y-51624D01*
X37372Y-51624D01*
X37280Y-51662D01*
X37210Y-51732D01*
X37171Y-51824D01*
X37171Y-51924D01*
X37171Y-52474D01*
X37209Y-52566D01*
X37280Y-52636D01*
X37371Y-52674D01*
X37458Y-52674D01*
X37424Y-52689D01*
X37399Y-52781D01*
X37696Y-53078D01*
X37993Y-52781D01*
X37969Y-52689D01*
X37928Y-52674D01*
X38021Y-52674D01*
X38113Y-52636D01*
X38183Y-52566D01*
X38221Y-52474D01*
X38221Y-52375D01*
X38221Y-53136D01*
X38215Y-53016D01*
X38157Y-52876D01*
X38064Y-52852D01*
X37767Y-53149D01*
X38064Y-53446D01*
X38157Y-53422D01*
X38226Y-53225D01*
X38226Y-60186D01*
X38221Y-60186D01*
X38221Y-54045D01*
X38142Y-53852D01*
X37994Y-53704D01*
X37868Y-53652D01*
X37969Y-53610D01*
X37993Y-53517D01*
X37696Y-53220D01*
X37626Y-53291D01*
X37626Y-53149D01*
X37329Y-52852D01*
X37236Y-52876D01*
X37166Y-53073D01*
X37178Y-53282D01*
X37236Y-53422D01*
X37329Y-53446D01*
X37626Y-53149D01*
X37626Y-53291D01*
X37399Y-53517D01*
X37424Y-53610D01*
X37533Y-53648D01*
X37399Y-53704D01*
X37252Y-53851D01*
X37171Y-54044D01*
X37171Y-54253D01*
X37251Y-54446D01*
X37399Y-54594D01*
X37591Y-54674D01*
X37800Y-54674D01*
X37993Y-54594D01*
X38141Y-54447D01*
X38221Y-54254D01*
X38221Y-54045D01*
X38221Y-60186D01*
X34272Y-60186D01*
X33120Y-59034D01*
X33120Y-57853D01*
X30364Y-55097D01*
X30364Y-51989D01*
X32727Y-49627D01*
X32727Y-47264D01*
X33878Y-46112D01*
X72026Y-46112D01*
X75540Y-49627D01*
X75540Y-58640D01*
X75540Y-58640D01*
G37*
G54D16*
X75540Y-58640D02*
X74939Y-59241D01*
X74939Y-57056D01*
X74939Y-51363D01*
X74934Y-51273D01*
X74934Y-50512D01*
X74934Y-49962D01*
X74896Y-49870D01*
X74826Y-49800D01*
X74734Y-49762D01*
X74634Y-49762D01*
X74084Y-49762D01*
X73993Y-49800D01*
X73922Y-49870D01*
X73884Y-49962D01*
X73884Y-50061D01*
X73884Y-50611D01*
X73922Y-50703D01*
X73992Y-50774D01*
X74084Y-50812D01*
X74171Y-50812D01*
X74136Y-50826D01*
X74112Y-50919D01*
X74409Y-51216D01*
X74706Y-50919D01*
X74682Y-50826D01*
X74641Y-50812D01*
X74733Y-50812D01*
X74825Y-50774D01*
X74896Y-50704D01*
X74934Y-50612D01*
X74934Y-50512D01*
X74934Y-51273D01*
X74928Y-51154D01*
X74869Y-51014D01*
X74777Y-50990D01*
X74480Y-51287D01*
X74777Y-51584D01*
X74869Y-51560D01*
X74939Y-51363D01*
X74939Y-57056D01*
X74928Y-56847D01*
X74869Y-56707D01*
X74777Y-56683D01*
X74706Y-56753D01*
X74706Y-56612D01*
X74706Y-51655D01*
X74409Y-51358D01*
X74338Y-51428D01*
X74338Y-51287D01*
X74041Y-50990D01*
X73948Y-51014D01*
X73879Y-51211D01*
X73890Y-51420D01*
X73948Y-51560D01*
X74041Y-51584D01*
X74338Y-51287D01*
X74338Y-51428D01*
X74112Y-51655D01*
X74136Y-51747D01*
X74333Y-51817D01*
X74542Y-51805D01*
X74682Y-51747D01*
X74706Y-51655D01*
X74706Y-56612D01*
X74682Y-56519D01*
X74485Y-56450D01*
X74276Y-56461D01*
X74136Y-56519D01*
X74112Y-56612D01*
X74409Y-56909D01*
X74706Y-56612D01*
X74706Y-56753D01*
X74480Y-56980D01*
X74777Y-57277D01*
X74869Y-57253D01*
X74939Y-57056D01*
X74939Y-59241D01*
X74934Y-59246D01*
X74934Y-58205D01*
X74934Y-57655D01*
X74896Y-57563D01*
X74826Y-57493D01*
X74734Y-57455D01*
X74647Y-57455D01*
X74682Y-57440D01*
X74706Y-57348D01*
X74409Y-57051D01*
X74338Y-57121D01*
X74338Y-56980D01*
X74041Y-56683D01*
X73948Y-56707D01*
X73879Y-56904D01*
X73890Y-57113D01*
X73948Y-57253D01*
X74041Y-57277D01*
X74338Y-56980D01*
X74338Y-57121D01*
X74112Y-57348D01*
X74136Y-57440D01*
X74177Y-57455D01*
X74084Y-57455D01*
X73993Y-57493D01*
X73922Y-57563D01*
X73884Y-57655D01*
X73884Y-57754D01*
X73884Y-58304D01*
X73922Y-58396D01*
X73992Y-58467D01*
X74084Y-58505D01*
X74183Y-58505D01*
X74733Y-58505D01*
X74825Y-58467D01*
X74896Y-58397D01*
X74934Y-58305D01*
X74934Y-58205D01*
X74934Y-59246D01*
X73995Y-60186D01*
X63325Y-60186D01*
X63325Y-55284D01*
X63325Y-51855D01*
X63320Y-51766D01*
X63320Y-51005D01*
X63320Y-50455D01*
X63282Y-50363D01*
X63212Y-50292D01*
X63120Y-50254D01*
X63020Y-50254D01*
X62470Y-50254D01*
X62378Y-50292D01*
X62308Y-50362D01*
X62270Y-50454D01*
X62270Y-50554D01*
X62270Y-51104D01*
X62308Y-51195D01*
X62378Y-51266D01*
X62470Y-51304D01*
X62557Y-51304D01*
X62522Y-51318D01*
X62498Y-51411D01*
X62795Y-51708D01*
X63092Y-51411D01*
X63068Y-51318D01*
X63027Y-51304D01*
X63119Y-51304D01*
X63211Y-51266D01*
X63282Y-51196D01*
X63320Y-51104D01*
X63320Y-51005D01*
X63320Y-51766D01*
X63313Y-51646D01*
X63255Y-51506D01*
X63163Y-51482D01*
X62865Y-51779D01*
X63163Y-52076D01*
X63255Y-52052D01*
X63325Y-51855D01*
X63325Y-55284D01*
X63313Y-55075D01*
X63255Y-54935D01*
X63163Y-54911D01*
X63092Y-54982D01*
X63092Y-54840D01*
X63092Y-52147D01*
X62795Y-51850D01*
X62724Y-51920D01*
X62724Y-51779D01*
X62427Y-51482D01*
X62334Y-51506D01*
X62265Y-51703D01*
X62276Y-51912D01*
X62334Y-52052D01*
X62427Y-52076D01*
X62724Y-51779D01*
X62724Y-51920D01*
X62498Y-52147D01*
X62522Y-52240D01*
X62719Y-52309D01*
X62928Y-52298D01*
X63068Y-52240D01*
X63092Y-52147D01*
X63092Y-54840D01*
X63068Y-54748D01*
X62871Y-54678D01*
X62662Y-54690D01*
X62522Y-54748D01*
X62498Y-54840D01*
X62795Y-55137D01*
X63092Y-54840D01*
X63092Y-54982D01*
X62865Y-55208D01*
X63163Y-55505D01*
X63255Y-55481D01*
X63325Y-55284D01*
X63325Y-60186D01*
X63320Y-60186D01*
X63320Y-56434D01*
X63320Y-55884D01*
X63282Y-55792D01*
X63212Y-55721D01*
X63120Y-55683D01*
X63033Y-55683D01*
X63068Y-55669D01*
X63092Y-55576D01*
X62795Y-55279D01*
X62724Y-55350D01*
X62724Y-55208D01*
X62427Y-54911D01*
X62334Y-54935D01*
X62265Y-55132D01*
X62276Y-55341D01*
X62334Y-55481D01*
X62427Y-55505D01*
X62724Y-55208D01*
X62724Y-55350D01*
X62498Y-55576D01*
X62522Y-55669D01*
X62563Y-55683D01*
X62470Y-55683D01*
X62378Y-55721D01*
X62308Y-55791D01*
X62270Y-55883D01*
X62270Y-55983D01*
X62270Y-56533D01*
X62308Y-56625D01*
X62378Y-56695D01*
X62470Y-56733D01*
X62569Y-56733D01*
X63119Y-56733D01*
X63211Y-56695D01*
X63282Y-56625D01*
X63320Y-56533D01*
X63320Y-56434D01*
X63320Y-60186D01*
X52301Y-60186D01*
X52301Y-55284D01*
X52301Y-51855D01*
X52296Y-51766D01*
X52296Y-51005D01*
X52296Y-50455D01*
X52258Y-50363D01*
X52188Y-50292D01*
X52096Y-50254D01*
X51997Y-50254D01*
X51447Y-50254D01*
X51355Y-50292D01*
X51284Y-50362D01*
X51246Y-50454D01*
X51246Y-50554D01*
X51246Y-51104D01*
X51284Y-51195D01*
X51354Y-51266D01*
X51446Y-51304D01*
X51533Y-51304D01*
X51498Y-51318D01*
X51474Y-51411D01*
X51771Y-51708D01*
X52068Y-51411D01*
X52044Y-51318D01*
X52003Y-51304D01*
X52096Y-51304D01*
X52188Y-51266D01*
X52258Y-51196D01*
X52296Y-51104D01*
X52296Y-51005D01*
X52296Y-51766D01*
X52290Y-51646D01*
X52232Y-51506D01*
X52139Y-51482D01*
X51842Y-51779D01*
X52139Y-52076D01*
X52232Y-52052D01*
X52301Y-51855D01*
X52301Y-55284D01*
X52290Y-55075D01*
X52232Y-54935D01*
X52139Y-54911D01*
X52068Y-54982D01*
X52068Y-54840D01*
X52068Y-52147D01*
X51771Y-51850D01*
X51700Y-51920D01*
X51700Y-51779D01*
X51403Y-51482D01*
X51311Y-51506D01*
X51241Y-51703D01*
X51253Y-51912D01*
X51311Y-52052D01*
X51403Y-52076D01*
X51700Y-51779D01*
X51700Y-51920D01*
X51474Y-52147D01*
X51498Y-52240D01*
X51695Y-52309D01*
X51904Y-52298D01*
X52044Y-52240D01*
X52068Y-52147D01*
X52068Y-54840D01*
X52044Y-54748D01*
X51847Y-54678D01*
X51638Y-54690D01*
X51498Y-54748D01*
X51474Y-54840D01*
X51771Y-55137D01*
X52068Y-54840D01*
X52068Y-54982D01*
X51842Y-55208D01*
X52139Y-55505D01*
X52232Y-55481D01*
X52301Y-55284D01*
X52301Y-60186D01*
X52296Y-60186D01*
X52296Y-56434D01*
X52296Y-55884D01*
X52258Y-55792D01*
X52188Y-55721D01*
X52096Y-55683D01*
X52009Y-55683D01*
X52044Y-55669D01*
X52068Y-55576D01*
X51771Y-55279D01*
X51700Y-55350D01*
X51700Y-55208D01*
X51403Y-54911D01*
X51311Y-54935D01*
X51241Y-55132D01*
X51253Y-55341D01*
X51311Y-55481D01*
X51403Y-55505D01*
X51700Y-55208D01*
X51700Y-55350D01*
X51474Y-55576D01*
X51498Y-55669D01*
X51539Y-55683D01*
X51447Y-55683D01*
X51355Y-55721D01*
X51284Y-55791D01*
X51246Y-55883D01*
X51246Y-55983D01*
X51246Y-56533D01*
X51284Y-56625D01*
X51354Y-56695D01*
X51446Y-56733D01*
X51546Y-56733D01*
X52096Y-56733D01*
X52188Y-56695D01*
X52258Y-56625D01*
X52296Y-56533D01*
X52296Y-56434D01*
X52296Y-60186D01*
X38226Y-60186D01*
X38226Y-53225D01*
X38221Y-53136D01*
X38221Y-52375D01*
X38221Y-51825D01*
X38183Y-51733D01*
X38113Y-51662D01*
X38021Y-51624D01*
X37922Y-51624D01*
X37372Y-51624D01*
X37280Y-51662D01*
X37210Y-51732D01*
X37171Y-51824D01*
X37171Y-51924D01*
X37171Y-52474D01*
X37209Y-52566D01*
X37280Y-52636D01*
X37371Y-52674D01*
X37458Y-52674D01*
X37424Y-52689D01*
X37399Y-52781D01*
X37696Y-53078D01*
X37993Y-52781D01*
X37969Y-52689D01*
X37928Y-52674D01*
X38021Y-52674D01*
X38113Y-52636D01*
X38183Y-52566D01*
X38221Y-52474D01*
X38221Y-52375D01*
X38221Y-53136D01*
X38215Y-53016D01*
X38157Y-52876D01*
X38064Y-52852D01*
X37767Y-53149D01*
X38064Y-53446D01*
X38157Y-53422D01*
X38226Y-53225D01*
X38226Y-60186D01*
X38221Y-60186D01*
X38221Y-54045D01*
X38142Y-53852D01*
X37994Y-53704D01*
X37868Y-53652D01*
X37969Y-53610D01*
X37993Y-53517D01*
X37696Y-53220D01*
X37626Y-53291D01*
X37626Y-53149D01*
X37329Y-52852D01*
X37236Y-52876D01*
X37166Y-53073D01*
X37178Y-53282D01*
X37236Y-53422D01*
X37329Y-53446D01*
X37626Y-53149D01*
X37626Y-53291D01*
X37399Y-53517D01*
X37424Y-53610D01*
X37533Y-53648D01*
X37399Y-53704D01*
X37252Y-53851D01*
X37171Y-54044D01*
X37171Y-54253D01*
X37251Y-54446D01*
X37399Y-54594D01*
X37591Y-54674D01*
X37800Y-54674D01*
X37993Y-54594D01*
X38141Y-54447D01*
X38221Y-54254D01*
X38221Y-54045D01*
X38221Y-60186D01*
X34272Y-60186D01*
X33120Y-59034D01*
X33120Y-57853D01*
X30364Y-55097D01*
X30364Y-51989D01*
X32727Y-49627D01*
X32727Y-47264D01*
X33878Y-46112D01*
X72026Y-46112D01*
X75540Y-49627D01*
X75540Y-58640D01*
M02*
