G04 (created by PCBNEW (2013-may-18)-stable) date 2014年01月31日 星期五 13时49分56秒*
%MOIN*%
G04 Gerber Fmt 3.4, Leading zero omitted, Abs format*
%FSLAX34Y34*%
G01*
G70*
G90*
G04 APERTURE LIST*
%ADD10C,0.00590551*%
%ADD11C,0.005*%
%ADD12C,0.012*%
%ADD13C,0.008*%
%ADD14C,0.015*%
%ADD15C,0.0106*%
%ADD16C,0.0107*%
%ADD17C,0.0019685*%
%ADD18C,0.006*%
G04 APERTURE END LIST*
G54D10*
X85146Y-55553D02*
X88453Y-55553D01*
X88453Y-55553D02*
X88453Y-52876D01*
X88453Y-52876D02*
X87823Y-52246D01*
X87823Y-52246D02*
X85776Y-52246D01*
X85776Y-52246D02*
X85146Y-52876D01*
X85146Y-52876D02*
X85146Y-55553D01*
X88374Y-53900D02*
G75*
G03X88374Y-53900I-1574J0D01*
G74*
G01*
X101746Y-64253D02*
X105053Y-64253D01*
X105053Y-64253D02*
X105053Y-61576D01*
X105053Y-61576D02*
X104423Y-60946D01*
X104423Y-60946D02*
X102376Y-60946D01*
X102376Y-60946D02*
X101746Y-61576D01*
X101746Y-61576D02*
X101746Y-64253D01*
X104974Y-62600D02*
G75*
G03X104974Y-62600I-1574J0D01*
G74*
G01*
X72724Y-63344D02*
X76031Y-63344D01*
X76031Y-63344D02*
X76031Y-60667D01*
X76031Y-60667D02*
X75401Y-60037D01*
X75401Y-60037D02*
X73354Y-60037D01*
X73354Y-60037D02*
X72724Y-60667D01*
X72724Y-60667D02*
X72724Y-63344D01*
X75952Y-61691D02*
G75*
G03X75952Y-61691I-1574J0D01*
G74*
G01*
X93346Y-55553D02*
X96653Y-55553D01*
X96653Y-55553D02*
X96653Y-52876D01*
X96653Y-52876D02*
X96023Y-52246D01*
X96023Y-52246D02*
X93976Y-52246D01*
X93976Y-52246D02*
X93346Y-52876D01*
X93346Y-52876D02*
X93346Y-55553D01*
X96574Y-53900D02*
G75*
G03X96574Y-53900I-1574J0D01*
G74*
G01*
X85146Y-64253D02*
X88453Y-64253D01*
X88453Y-64253D02*
X88453Y-61576D01*
X88453Y-61576D02*
X87823Y-60946D01*
X87823Y-60946D02*
X85776Y-60946D01*
X85776Y-60946D02*
X85146Y-61576D01*
X85146Y-61576D02*
X85146Y-64253D01*
X88374Y-62600D02*
G75*
G03X88374Y-62600I-1574J0D01*
G74*
G01*
X101746Y-55553D02*
X105053Y-55553D01*
X105053Y-55553D02*
X105053Y-52876D01*
X105053Y-52876D02*
X104423Y-52246D01*
X104423Y-52246D02*
X102376Y-52246D01*
X102376Y-52246D02*
X101746Y-52876D01*
X101746Y-52876D02*
X101746Y-55553D01*
X104974Y-53900D02*
G75*
G03X104974Y-53900I-1574J0D01*
G74*
G01*
X93346Y-64253D02*
X96653Y-64253D01*
X96653Y-64253D02*
X96653Y-61576D01*
X96653Y-61576D02*
X96023Y-60946D01*
X96023Y-60946D02*
X93976Y-60946D01*
X93976Y-60946D02*
X93346Y-61576D01*
X93346Y-61576D02*
X93346Y-64253D01*
X96574Y-62600D02*
G75*
G03X96574Y-62600I-1574J0D01*
G74*
G01*
X88970Y-52331D02*
X92829Y-52331D01*
X92829Y-52331D02*
X92829Y-56268D01*
X92829Y-56268D02*
X88970Y-56268D01*
X88970Y-56268D02*
X88970Y-52331D01*
X76149Y-52281D02*
X76149Y-56140D01*
X76149Y-56140D02*
X72212Y-56140D01*
X72212Y-56140D02*
X72212Y-52281D01*
X72212Y-52281D02*
X76149Y-52281D01*
X97270Y-60331D02*
X101129Y-60331D01*
X101129Y-60331D02*
X101129Y-64268D01*
X101129Y-64268D02*
X97270Y-64268D01*
X97270Y-64268D02*
X97270Y-60331D01*
X80716Y-56081D02*
X84574Y-56081D01*
X84574Y-56081D02*
X84574Y-60018D01*
X84574Y-60018D02*
X80716Y-60018D01*
X80716Y-60018D02*
X80716Y-56081D01*
X97270Y-52331D02*
X101129Y-52331D01*
X101129Y-52331D02*
X101129Y-56268D01*
X101129Y-56268D02*
X97270Y-56268D01*
X97270Y-56268D02*
X97270Y-52331D01*
X88970Y-60331D02*
X92829Y-60331D01*
X92829Y-60331D02*
X92829Y-64268D01*
X92829Y-64268D02*
X88970Y-64268D01*
X88970Y-64268D02*
X88970Y-60331D01*
G54D11*
X60424Y-60049D02*
X60424Y-56049D01*
X60424Y-56049D02*
X63724Y-56049D01*
X63724Y-56049D02*
X63724Y-60049D01*
X63724Y-60049D02*
X60424Y-60049D01*
X62324Y-56049D02*
X62324Y-56349D01*
X62324Y-56349D02*
X61824Y-56349D01*
X61824Y-56349D02*
X61824Y-56049D01*
G54D12*
X85196Y-56549D02*
X86196Y-56549D01*
X86196Y-56549D02*
X86196Y-59549D01*
X86196Y-59549D02*
X85196Y-59549D01*
X85196Y-59549D02*
X85196Y-56549D01*
X86196Y-57549D02*
X85196Y-57549D01*
X104400Y-56000D02*
X105400Y-56000D01*
X105400Y-56000D02*
X105400Y-58000D01*
X105400Y-58000D02*
X104400Y-58000D01*
X104400Y-58000D02*
X104400Y-56000D01*
X65503Y-53136D02*
X65503Y-52136D01*
X65503Y-52136D02*
X67503Y-52136D01*
X67503Y-52136D02*
X67503Y-53136D01*
X67503Y-53136D02*
X65503Y-53136D01*
X95900Y-56000D02*
X96900Y-56000D01*
X96900Y-56000D02*
X96900Y-58000D01*
X96900Y-58000D02*
X95900Y-58000D01*
X95900Y-58000D02*
X95900Y-56000D01*
X113400Y-60500D02*
X112400Y-60500D01*
X112400Y-60500D02*
X112400Y-58500D01*
X112400Y-58500D02*
X113400Y-58500D01*
X113400Y-58500D02*
X113400Y-60500D01*
X112400Y-56000D02*
X113400Y-56000D01*
X113400Y-56000D02*
X113400Y-58000D01*
X113400Y-58000D02*
X112400Y-58000D01*
X112400Y-58000D02*
X112400Y-56000D01*
X76535Y-60789D02*
X77535Y-60789D01*
X77535Y-60789D02*
X77535Y-62789D01*
X77535Y-62789D02*
X76535Y-62789D01*
X76535Y-62789D02*
X76535Y-60789D01*
X71629Y-56195D02*
X70629Y-56195D01*
X70629Y-56195D02*
X70629Y-54195D01*
X70629Y-54195D02*
X71629Y-54195D01*
X71629Y-54195D02*
X71629Y-56195D01*
X70629Y-59903D02*
X71629Y-59903D01*
X71629Y-59903D02*
X71629Y-61903D01*
X71629Y-61903D02*
X70629Y-61903D01*
X70629Y-61903D02*
X70629Y-59903D01*
X66610Y-57770D02*
X65610Y-57770D01*
X65610Y-57770D02*
X65610Y-55770D01*
X65610Y-55770D02*
X66610Y-55770D01*
X66610Y-55770D02*
X66610Y-57770D01*
X65610Y-58329D02*
X66610Y-58329D01*
X66610Y-58329D02*
X66610Y-60329D01*
X66610Y-60329D02*
X65610Y-60329D01*
X65610Y-60329D02*
X65610Y-58329D01*
X105400Y-60500D02*
X104400Y-60500D01*
X104400Y-60500D02*
X104400Y-58500D01*
X104400Y-58500D02*
X105400Y-58500D01*
X105400Y-58500D02*
X105400Y-60500D01*
X96900Y-60500D02*
X95900Y-60500D01*
X95900Y-60500D02*
X95900Y-58500D01*
X95900Y-58500D02*
X96900Y-58500D01*
X96900Y-58500D02*
X96900Y-60500D01*
G54D10*
X66917Y-57498D02*
X66917Y-57025D01*
X66917Y-57025D02*
X67862Y-57025D01*
X67862Y-57025D02*
X67862Y-57498D01*
X67862Y-57498D02*
X66917Y-57498D01*
X66917Y-59073D02*
X66917Y-58600D01*
X66917Y-58600D02*
X67862Y-58600D01*
X67862Y-58600D02*
X67862Y-59073D01*
X67862Y-59073D02*
X66917Y-59073D01*
G54D13*
X106225Y-60675D02*
X106725Y-61150D01*
X106725Y-60675D02*
X105475Y-60675D01*
X105475Y-60675D02*
X105475Y-61925D01*
X105475Y-61925D02*
X106725Y-61925D01*
X106725Y-61925D02*
X106725Y-60675D01*
X105975Y-55725D02*
X105475Y-55250D01*
X105475Y-55725D02*
X106725Y-55725D01*
X106725Y-55725D02*
X106725Y-54475D01*
X106725Y-54475D02*
X105475Y-54475D01*
X105475Y-54475D02*
X105475Y-55725D01*
G54D14*
X69911Y-58313D02*
X70161Y-58313D01*
X70161Y-58313D02*
X70161Y-62313D01*
X70161Y-62313D02*
X69911Y-62313D01*
X68411Y-58313D02*
X69911Y-58313D01*
X69911Y-58313D02*
X69911Y-62313D01*
X69911Y-62313D02*
X68411Y-62313D01*
X68411Y-62313D02*
X68411Y-58313D01*
X68608Y-57687D02*
X68358Y-57687D01*
X68358Y-57687D02*
X68358Y-53687D01*
X68358Y-53687D02*
X68608Y-53687D01*
X70108Y-57687D02*
X68608Y-57687D01*
X68608Y-57687D02*
X68608Y-53687D01*
X68608Y-53687D02*
X70108Y-53687D01*
X70108Y-53687D02*
X70108Y-57687D01*
G54D10*
X83984Y-62380D02*
X82094Y-62380D01*
X82094Y-62380D02*
X82094Y-60805D01*
X82094Y-60805D02*
X83984Y-60805D01*
X83984Y-60805D02*
X83984Y-62380D01*
X82094Y-54112D02*
X83984Y-54112D01*
X83984Y-54112D02*
X83984Y-55687D01*
X83984Y-55687D02*
X82094Y-55687D01*
X82094Y-55687D02*
X82094Y-54112D01*
X83984Y-64348D02*
X82094Y-64348D01*
X82094Y-64348D02*
X82094Y-62774D01*
X82094Y-62774D02*
X83984Y-62774D01*
X83984Y-62774D02*
X83984Y-64348D01*
X82094Y-52144D02*
X83984Y-52144D01*
X83984Y-52144D02*
X83984Y-53718D01*
X83984Y-53718D02*
X82094Y-53718D01*
X82094Y-53718D02*
X82094Y-52144D01*
X109827Y-57466D02*
X109827Y-55733D01*
X109827Y-55733D02*
X110772Y-55733D01*
X110772Y-55733D02*
X110772Y-57466D01*
X110772Y-57466D02*
X109827Y-57466D01*
X110927Y-61566D02*
X110927Y-59833D01*
X110927Y-59833D02*
X111872Y-59833D01*
X111872Y-59833D02*
X111872Y-61566D01*
X111872Y-61566D02*
X110927Y-61566D01*
X109877Y-61566D02*
X109877Y-59833D01*
X109877Y-59833D02*
X110822Y-59833D01*
X110822Y-59833D02*
X110822Y-61566D01*
X110822Y-61566D02*
X109877Y-61566D01*
X107266Y-59972D02*
X105533Y-59972D01*
X105533Y-59972D02*
X105533Y-59027D01*
X105533Y-59027D02*
X107266Y-59027D01*
X107266Y-59027D02*
X107266Y-59972D01*
X106472Y-62733D02*
X106472Y-64466D01*
X106472Y-64466D02*
X105527Y-64466D01*
X105527Y-64466D02*
X105527Y-62733D01*
X105527Y-62733D02*
X106472Y-62733D01*
X110927Y-57466D02*
X110927Y-55733D01*
X110927Y-55733D02*
X111872Y-55733D01*
X111872Y-55733D02*
X111872Y-57466D01*
X111872Y-57466D02*
X110927Y-57466D01*
X105533Y-56627D02*
X107266Y-56627D01*
X107266Y-56627D02*
X107266Y-57572D01*
X107266Y-57572D02*
X105533Y-57572D01*
X105533Y-57572D02*
X105533Y-56627D01*
X105527Y-53766D02*
X105527Y-52033D01*
X105527Y-52033D02*
X106472Y-52033D01*
X106472Y-52033D02*
X106472Y-53766D01*
X106472Y-53766D02*
X105527Y-53766D01*
X66188Y-55470D02*
X64456Y-55470D01*
X64456Y-55470D02*
X64456Y-54525D01*
X64456Y-54525D02*
X66188Y-54525D01*
X66188Y-54525D02*
X66188Y-55470D01*
X61366Y-60333D02*
X61366Y-62065D01*
X61366Y-62065D02*
X60421Y-62065D01*
X60421Y-62065D02*
X60421Y-60333D01*
X60421Y-60333D02*
X61366Y-60333D01*
X60185Y-60333D02*
X60185Y-62065D01*
X60185Y-62065D02*
X59240Y-62065D01*
X59240Y-62065D02*
X59240Y-60333D01*
X59240Y-60333D02*
X60185Y-60333D01*
X107450Y-61550D02*
X107450Y-59050D01*
X107450Y-59050D02*
X109150Y-59050D01*
X109150Y-59050D02*
X109150Y-61550D01*
X109150Y-61550D02*
X107450Y-61550D01*
X107450Y-57550D02*
X107450Y-55050D01*
X107450Y-55050D02*
X109150Y-55050D01*
X109150Y-55050D02*
X109150Y-57550D01*
X109150Y-57550D02*
X107450Y-57550D01*
X63620Y-55454D02*
X61120Y-55454D01*
X61120Y-55454D02*
X61120Y-53754D01*
X61120Y-53754D02*
X63620Y-53754D01*
X63620Y-53754D02*
X63620Y-55454D01*
X76521Y-56724D02*
X79321Y-56724D01*
X79321Y-56724D02*
X79321Y-59374D01*
X79321Y-59374D02*
X76521Y-59374D01*
X76521Y-59374D02*
X76521Y-56724D01*
X87866Y-54044D02*
X87885Y-54063D01*
X87904Y-54119D01*
X87904Y-54156D01*
X87885Y-54213D01*
X87847Y-54250D01*
X87810Y-54269D01*
X87735Y-54288D01*
X87679Y-54288D01*
X87604Y-54269D01*
X87566Y-54250D01*
X87529Y-54213D01*
X87510Y-54156D01*
X87510Y-54119D01*
X87529Y-54063D01*
X87548Y-54044D01*
X87510Y-53688D02*
X87510Y-53875D01*
X87698Y-53894D01*
X87679Y-53875D01*
X87660Y-53838D01*
X87660Y-53744D01*
X87679Y-53706D01*
X87698Y-53688D01*
X87735Y-53669D01*
X87829Y-53669D01*
X87866Y-53688D01*
X87885Y-53706D01*
X87904Y-53744D01*
X87904Y-53838D01*
X87885Y-53875D01*
X87866Y-53894D01*
X84973Y-51854D02*
X85217Y-51854D01*
X85086Y-52004D01*
X85142Y-52004D01*
X85180Y-52023D01*
X85198Y-52042D01*
X85217Y-52079D01*
X85217Y-52173D01*
X85198Y-52210D01*
X85180Y-52229D01*
X85142Y-52248D01*
X85030Y-52248D01*
X84992Y-52229D01*
X84973Y-52210D01*
X85348Y-51854D02*
X85592Y-51854D01*
X85461Y-52004D01*
X85517Y-52004D01*
X85555Y-52023D01*
X85573Y-52042D01*
X85592Y-52079D01*
X85592Y-52173D01*
X85573Y-52210D01*
X85555Y-52229D01*
X85517Y-52248D01*
X85405Y-52248D01*
X85367Y-52229D01*
X85348Y-52210D01*
X85836Y-51854D02*
X85873Y-51854D01*
X85911Y-51873D01*
X85930Y-51892D01*
X85948Y-51929D01*
X85967Y-52004D01*
X85967Y-52098D01*
X85948Y-52173D01*
X85930Y-52210D01*
X85911Y-52229D01*
X85873Y-52248D01*
X85836Y-52248D01*
X85798Y-52229D01*
X85780Y-52210D01*
X85761Y-52173D01*
X85742Y-52098D01*
X85742Y-52004D01*
X85761Y-51929D01*
X85780Y-51892D01*
X85798Y-51873D01*
X85836Y-51854D01*
X86305Y-51985D02*
X86305Y-52248D01*
X86136Y-51985D02*
X86136Y-52192D01*
X86155Y-52229D01*
X86192Y-52248D01*
X86248Y-52248D01*
X86286Y-52229D01*
X86305Y-52210D01*
X104466Y-62931D02*
X104485Y-62950D01*
X104504Y-63006D01*
X104504Y-63044D01*
X104485Y-63100D01*
X104447Y-63138D01*
X104410Y-63156D01*
X104335Y-63175D01*
X104279Y-63175D01*
X104204Y-63156D01*
X104166Y-63138D01*
X104129Y-63100D01*
X104110Y-63044D01*
X104110Y-63006D01*
X104129Y-62950D01*
X104148Y-62931D01*
X104504Y-62556D02*
X104504Y-62781D01*
X104504Y-62669D02*
X104110Y-62669D01*
X104166Y-62706D01*
X104204Y-62744D01*
X104223Y-62781D01*
X104110Y-62313D02*
X104110Y-62275D01*
X104129Y-62238D01*
X104148Y-62219D01*
X104185Y-62200D01*
X104260Y-62181D01*
X104354Y-62181D01*
X104429Y-62200D01*
X104466Y-62219D01*
X104485Y-62238D01*
X104504Y-62275D01*
X104504Y-62313D01*
X104485Y-62350D01*
X104466Y-62369D01*
X104429Y-62388D01*
X104354Y-62406D01*
X104260Y-62406D01*
X104185Y-62388D01*
X104148Y-62369D01*
X104129Y-62350D01*
X104110Y-62313D01*
X101573Y-60554D02*
X101817Y-60554D01*
X101686Y-60704D01*
X101742Y-60704D01*
X101780Y-60723D01*
X101798Y-60742D01*
X101817Y-60779D01*
X101817Y-60873D01*
X101798Y-60910D01*
X101780Y-60929D01*
X101742Y-60948D01*
X101630Y-60948D01*
X101592Y-60929D01*
X101573Y-60910D01*
X101948Y-60554D02*
X102192Y-60554D01*
X102061Y-60704D01*
X102117Y-60704D01*
X102155Y-60723D01*
X102173Y-60742D01*
X102192Y-60779D01*
X102192Y-60873D01*
X102173Y-60910D01*
X102155Y-60929D01*
X102117Y-60948D01*
X102005Y-60948D01*
X101967Y-60929D01*
X101948Y-60910D01*
X102436Y-60554D02*
X102473Y-60554D01*
X102511Y-60573D01*
X102530Y-60592D01*
X102548Y-60629D01*
X102567Y-60704D01*
X102567Y-60798D01*
X102548Y-60873D01*
X102530Y-60910D01*
X102511Y-60929D01*
X102473Y-60948D01*
X102436Y-60948D01*
X102398Y-60929D01*
X102380Y-60910D01*
X102361Y-60873D01*
X102342Y-60798D01*
X102342Y-60704D01*
X102361Y-60629D01*
X102380Y-60592D01*
X102398Y-60573D01*
X102436Y-60554D01*
X102905Y-60685D02*
X102905Y-60948D01*
X102736Y-60685D02*
X102736Y-60892D01*
X102755Y-60929D01*
X102792Y-60948D01*
X102848Y-60948D01*
X102886Y-60929D01*
X102905Y-60910D01*
X75444Y-61835D02*
X75463Y-61854D01*
X75482Y-61910D01*
X75482Y-61948D01*
X75463Y-62004D01*
X75425Y-62041D01*
X75388Y-62060D01*
X75313Y-62079D01*
X75257Y-62079D01*
X75182Y-62060D01*
X75144Y-62041D01*
X75107Y-62004D01*
X75088Y-61948D01*
X75088Y-61910D01*
X75107Y-61854D01*
X75125Y-61835D01*
X75219Y-61498D02*
X75482Y-61498D01*
X75069Y-61591D02*
X75350Y-61685D01*
X75350Y-61441D01*
X72551Y-59645D02*
X72795Y-59645D01*
X72664Y-59795D01*
X72720Y-59795D01*
X72758Y-59814D01*
X72776Y-59833D01*
X72795Y-59870D01*
X72795Y-59964D01*
X72776Y-60002D01*
X72758Y-60020D01*
X72720Y-60039D01*
X72608Y-60039D01*
X72570Y-60020D01*
X72551Y-60002D01*
X72926Y-59645D02*
X73170Y-59645D01*
X73039Y-59795D01*
X73095Y-59795D01*
X73133Y-59814D01*
X73151Y-59833D01*
X73170Y-59870D01*
X73170Y-59964D01*
X73151Y-60002D01*
X73133Y-60020D01*
X73095Y-60039D01*
X72983Y-60039D01*
X72945Y-60020D01*
X72926Y-60002D01*
X73414Y-59645D02*
X73451Y-59645D01*
X73489Y-59664D01*
X73508Y-59683D01*
X73526Y-59720D01*
X73545Y-59795D01*
X73545Y-59889D01*
X73526Y-59964D01*
X73508Y-60002D01*
X73489Y-60020D01*
X73451Y-60039D01*
X73414Y-60039D01*
X73376Y-60020D01*
X73358Y-60002D01*
X73339Y-59964D01*
X73320Y-59889D01*
X73320Y-59795D01*
X73339Y-59720D01*
X73358Y-59683D01*
X73376Y-59664D01*
X73414Y-59645D01*
X73883Y-59777D02*
X73883Y-60039D01*
X73714Y-59777D02*
X73714Y-59983D01*
X73733Y-60020D01*
X73770Y-60039D01*
X73826Y-60039D01*
X73864Y-60020D01*
X73883Y-60002D01*
X96066Y-54044D02*
X96085Y-54063D01*
X96104Y-54119D01*
X96104Y-54156D01*
X96085Y-54213D01*
X96047Y-54250D01*
X96010Y-54269D01*
X95935Y-54288D01*
X95879Y-54288D01*
X95804Y-54269D01*
X95766Y-54250D01*
X95729Y-54213D01*
X95710Y-54156D01*
X95710Y-54119D01*
X95729Y-54063D01*
X95748Y-54044D01*
X95710Y-53913D02*
X95710Y-53650D01*
X96104Y-53819D01*
X93173Y-51854D02*
X93417Y-51854D01*
X93286Y-52004D01*
X93342Y-52004D01*
X93380Y-52023D01*
X93398Y-52042D01*
X93417Y-52079D01*
X93417Y-52173D01*
X93398Y-52210D01*
X93380Y-52229D01*
X93342Y-52248D01*
X93230Y-52248D01*
X93192Y-52229D01*
X93173Y-52210D01*
X93548Y-51854D02*
X93792Y-51854D01*
X93661Y-52004D01*
X93717Y-52004D01*
X93755Y-52023D01*
X93773Y-52042D01*
X93792Y-52079D01*
X93792Y-52173D01*
X93773Y-52210D01*
X93755Y-52229D01*
X93717Y-52248D01*
X93605Y-52248D01*
X93567Y-52229D01*
X93548Y-52210D01*
X94036Y-51854D02*
X94073Y-51854D01*
X94111Y-51873D01*
X94130Y-51892D01*
X94148Y-51929D01*
X94167Y-52004D01*
X94167Y-52098D01*
X94148Y-52173D01*
X94130Y-52210D01*
X94111Y-52229D01*
X94073Y-52248D01*
X94036Y-52248D01*
X93998Y-52229D01*
X93980Y-52210D01*
X93961Y-52173D01*
X93942Y-52098D01*
X93942Y-52004D01*
X93961Y-51929D01*
X93980Y-51892D01*
X93998Y-51873D01*
X94036Y-51854D01*
X94505Y-51985D02*
X94505Y-52248D01*
X94336Y-51985D02*
X94336Y-52192D01*
X94355Y-52229D01*
X94392Y-52248D01*
X94448Y-52248D01*
X94486Y-52229D01*
X94505Y-52210D01*
X87866Y-62744D02*
X87885Y-62763D01*
X87904Y-62819D01*
X87904Y-62856D01*
X87885Y-62913D01*
X87847Y-62950D01*
X87810Y-62969D01*
X87735Y-62988D01*
X87679Y-62988D01*
X87604Y-62969D01*
X87566Y-62950D01*
X87529Y-62913D01*
X87510Y-62856D01*
X87510Y-62819D01*
X87529Y-62763D01*
X87548Y-62744D01*
X87510Y-62406D02*
X87510Y-62481D01*
X87529Y-62519D01*
X87548Y-62538D01*
X87604Y-62575D01*
X87679Y-62594D01*
X87829Y-62594D01*
X87866Y-62575D01*
X87885Y-62556D01*
X87904Y-62519D01*
X87904Y-62444D01*
X87885Y-62406D01*
X87866Y-62388D01*
X87829Y-62369D01*
X87735Y-62369D01*
X87698Y-62388D01*
X87679Y-62406D01*
X87660Y-62444D01*
X87660Y-62519D01*
X87679Y-62556D01*
X87698Y-62575D01*
X87735Y-62594D01*
X84973Y-60554D02*
X85217Y-60554D01*
X85086Y-60704D01*
X85142Y-60704D01*
X85180Y-60723D01*
X85198Y-60742D01*
X85217Y-60779D01*
X85217Y-60873D01*
X85198Y-60910D01*
X85180Y-60929D01*
X85142Y-60948D01*
X85030Y-60948D01*
X84992Y-60929D01*
X84973Y-60910D01*
X85348Y-60554D02*
X85592Y-60554D01*
X85461Y-60704D01*
X85517Y-60704D01*
X85555Y-60723D01*
X85573Y-60742D01*
X85592Y-60779D01*
X85592Y-60873D01*
X85573Y-60910D01*
X85555Y-60929D01*
X85517Y-60948D01*
X85405Y-60948D01*
X85367Y-60929D01*
X85348Y-60910D01*
X85836Y-60554D02*
X85873Y-60554D01*
X85911Y-60573D01*
X85930Y-60592D01*
X85948Y-60629D01*
X85967Y-60704D01*
X85967Y-60798D01*
X85948Y-60873D01*
X85930Y-60910D01*
X85911Y-60929D01*
X85873Y-60948D01*
X85836Y-60948D01*
X85798Y-60929D01*
X85780Y-60910D01*
X85761Y-60873D01*
X85742Y-60798D01*
X85742Y-60704D01*
X85761Y-60629D01*
X85780Y-60592D01*
X85798Y-60573D01*
X85836Y-60554D01*
X86305Y-60685D02*
X86305Y-60948D01*
X86136Y-60685D02*
X86136Y-60892D01*
X86155Y-60929D01*
X86192Y-60948D01*
X86248Y-60948D01*
X86286Y-60929D01*
X86305Y-60910D01*
X104466Y-54044D02*
X104485Y-54063D01*
X104504Y-54119D01*
X104504Y-54156D01*
X104485Y-54213D01*
X104447Y-54250D01*
X104410Y-54269D01*
X104335Y-54288D01*
X104279Y-54288D01*
X104204Y-54269D01*
X104166Y-54250D01*
X104129Y-54213D01*
X104110Y-54156D01*
X104110Y-54119D01*
X104129Y-54063D01*
X104148Y-54044D01*
X104504Y-53856D02*
X104504Y-53781D01*
X104485Y-53744D01*
X104466Y-53725D01*
X104410Y-53688D01*
X104335Y-53669D01*
X104185Y-53669D01*
X104148Y-53688D01*
X104129Y-53706D01*
X104110Y-53744D01*
X104110Y-53819D01*
X104129Y-53856D01*
X104148Y-53875D01*
X104185Y-53894D01*
X104279Y-53894D01*
X104316Y-53875D01*
X104335Y-53856D01*
X104354Y-53819D01*
X104354Y-53744D01*
X104335Y-53706D01*
X104316Y-53688D01*
X104279Y-53669D01*
X101573Y-51854D02*
X101817Y-51854D01*
X101686Y-52004D01*
X101742Y-52004D01*
X101780Y-52023D01*
X101798Y-52042D01*
X101817Y-52079D01*
X101817Y-52173D01*
X101798Y-52210D01*
X101780Y-52229D01*
X101742Y-52248D01*
X101630Y-52248D01*
X101592Y-52229D01*
X101573Y-52210D01*
X101948Y-51854D02*
X102192Y-51854D01*
X102061Y-52004D01*
X102117Y-52004D01*
X102155Y-52023D01*
X102173Y-52042D01*
X102192Y-52079D01*
X102192Y-52173D01*
X102173Y-52210D01*
X102155Y-52229D01*
X102117Y-52248D01*
X102005Y-52248D01*
X101967Y-52229D01*
X101948Y-52210D01*
X102436Y-51854D02*
X102473Y-51854D01*
X102511Y-51873D01*
X102530Y-51892D01*
X102548Y-51929D01*
X102567Y-52004D01*
X102567Y-52098D01*
X102548Y-52173D01*
X102530Y-52210D01*
X102511Y-52229D01*
X102473Y-52248D01*
X102436Y-52248D01*
X102398Y-52229D01*
X102380Y-52210D01*
X102361Y-52173D01*
X102342Y-52098D01*
X102342Y-52004D01*
X102361Y-51929D01*
X102380Y-51892D01*
X102398Y-51873D01*
X102436Y-51854D01*
X102905Y-51985D02*
X102905Y-52248D01*
X102736Y-51985D02*
X102736Y-52192D01*
X102755Y-52229D01*
X102792Y-52248D01*
X102848Y-52248D01*
X102886Y-52229D01*
X102905Y-52210D01*
X96066Y-62744D02*
X96085Y-62763D01*
X96104Y-62819D01*
X96104Y-62856D01*
X96085Y-62913D01*
X96047Y-62950D01*
X96010Y-62969D01*
X95935Y-62988D01*
X95879Y-62988D01*
X95804Y-62969D01*
X95766Y-62950D01*
X95729Y-62913D01*
X95710Y-62856D01*
X95710Y-62819D01*
X95729Y-62763D01*
X95748Y-62744D01*
X95879Y-62519D02*
X95860Y-62556D01*
X95841Y-62575D01*
X95804Y-62594D01*
X95785Y-62594D01*
X95748Y-62575D01*
X95729Y-62556D01*
X95710Y-62519D01*
X95710Y-62444D01*
X95729Y-62406D01*
X95748Y-62388D01*
X95785Y-62369D01*
X95804Y-62369D01*
X95841Y-62388D01*
X95860Y-62406D01*
X95879Y-62444D01*
X95879Y-62519D01*
X95898Y-62556D01*
X95916Y-62575D01*
X95954Y-62594D01*
X96029Y-62594D01*
X96066Y-62575D01*
X96085Y-62556D01*
X96104Y-62519D01*
X96104Y-62444D01*
X96085Y-62406D01*
X96066Y-62388D01*
X96029Y-62369D01*
X95954Y-62369D01*
X95916Y-62388D01*
X95898Y-62406D01*
X95879Y-62444D01*
X93173Y-60554D02*
X93417Y-60554D01*
X93286Y-60704D01*
X93342Y-60704D01*
X93380Y-60723D01*
X93398Y-60742D01*
X93417Y-60779D01*
X93417Y-60873D01*
X93398Y-60910D01*
X93380Y-60929D01*
X93342Y-60948D01*
X93230Y-60948D01*
X93192Y-60929D01*
X93173Y-60910D01*
X93548Y-60554D02*
X93792Y-60554D01*
X93661Y-60704D01*
X93717Y-60704D01*
X93755Y-60723D01*
X93773Y-60742D01*
X93792Y-60779D01*
X93792Y-60873D01*
X93773Y-60910D01*
X93755Y-60929D01*
X93717Y-60948D01*
X93605Y-60948D01*
X93567Y-60929D01*
X93548Y-60910D01*
X94036Y-60554D02*
X94073Y-60554D01*
X94111Y-60573D01*
X94130Y-60592D01*
X94148Y-60629D01*
X94167Y-60704D01*
X94167Y-60798D01*
X94148Y-60873D01*
X94130Y-60910D01*
X94111Y-60929D01*
X94073Y-60948D01*
X94036Y-60948D01*
X93998Y-60929D01*
X93980Y-60910D01*
X93961Y-60873D01*
X93942Y-60798D01*
X93942Y-60704D01*
X93961Y-60629D01*
X93980Y-60592D01*
X93998Y-60573D01*
X94036Y-60554D01*
X94505Y-60685D02*
X94505Y-60948D01*
X94336Y-60685D02*
X94336Y-60892D01*
X94355Y-60929D01*
X94392Y-60948D01*
X94448Y-60948D01*
X94486Y-60929D01*
X94505Y-60910D01*
X91059Y-54404D02*
X91059Y-54592D01*
X90665Y-54592D01*
X90665Y-54311D02*
X90665Y-54067D01*
X90815Y-54198D01*
X90815Y-54142D01*
X90834Y-54105D01*
X90853Y-54086D01*
X90890Y-54067D01*
X90984Y-54067D01*
X91021Y-54086D01*
X91040Y-54105D01*
X91059Y-54142D01*
X91059Y-54255D01*
X91040Y-54292D01*
X91021Y-54311D01*
X91454Y-51898D02*
X91473Y-51879D01*
X91511Y-51860D01*
X91604Y-51860D01*
X91642Y-51879D01*
X91661Y-51898D01*
X91679Y-51935D01*
X91679Y-51973D01*
X91661Y-52029D01*
X91436Y-52254D01*
X91679Y-52254D01*
X91829Y-51898D02*
X91848Y-51879D01*
X91886Y-51860D01*
X91979Y-51860D01*
X92017Y-51879D01*
X92036Y-51898D01*
X92054Y-51935D01*
X92054Y-51973D01*
X92036Y-52029D01*
X91811Y-52254D01*
X92054Y-52254D01*
X92298Y-51860D02*
X92336Y-51860D01*
X92373Y-51879D01*
X92392Y-51898D01*
X92411Y-51935D01*
X92429Y-52010D01*
X92429Y-52104D01*
X92411Y-52179D01*
X92392Y-52217D01*
X92373Y-52235D01*
X92336Y-52254D01*
X92298Y-52254D01*
X92261Y-52235D01*
X92242Y-52217D01*
X92223Y-52179D01*
X92204Y-52104D01*
X92204Y-52010D01*
X92223Y-51935D01*
X92242Y-51898D01*
X92261Y-51879D01*
X92298Y-51860D01*
X92767Y-51992D02*
X92767Y-52254D01*
X92598Y-51992D02*
X92598Y-52198D01*
X92617Y-52235D01*
X92654Y-52254D01*
X92711Y-52254D01*
X92748Y-52235D01*
X92767Y-52217D01*
X74076Y-54370D02*
X73888Y-54370D01*
X73888Y-53976D01*
X74413Y-54370D02*
X74188Y-54370D01*
X74301Y-54370D02*
X74301Y-53976D01*
X74263Y-54032D01*
X74226Y-54070D01*
X74188Y-54089D01*
X76188Y-56097D02*
X76170Y-56078D01*
X76151Y-56040D01*
X76151Y-55947D01*
X76170Y-55909D01*
X76188Y-55890D01*
X76226Y-55872D01*
X76263Y-55872D01*
X76320Y-55890D01*
X76545Y-56115D01*
X76545Y-55872D01*
X76188Y-55722D02*
X76170Y-55703D01*
X76151Y-55665D01*
X76151Y-55572D01*
X76170Y-55534D01*
X76188Y-55515D01*
X76226Y-55497D01*
X76263Y-55497D01*
X76320Y-55515D01*
X76545Y-55740D01*
X76545Y-55497D01*
X76151Y-55253D02*
X76151Y-55215D01*
X76170Y-55178D01*
X76188Y-55159D01*
X76226Y-55140D01*
X76301Y-55122D01*
X76395Y-55122D01*
X76470Y-55140D01*
X76507Y-55159D01*
X76526Y-55178D01*
X76545Y-55215D01*
X76545Y-55253D01*
X76526Y-55290D01*
X76507Y-55309D01*
X76470Y-55328D01*
X76395Y-55347D01*
X76301Y-55347D01*
X76226Y-55328D01*
X76188Y-55309D01*
X76170Y-55290D01*
X76151Y-55253D01*
X76282Y-54784D02*
X76545Y-54784D01*
X76282Y-54953D02*
X76488Y-54953D01*
X76526Y-54934D01*
X76545Y-54897D01*
X76545Y-54840D01*
X76526Y-54803D01*
X76507Y-54784D01*
X99359Y-62404D02*
X99359Y-62592D01*
X98965Y-62592D01*
X98965Y-62105D02*
X98965Y-62180D01*
X98984Y-62217D01*
X99003Y-62236D01*
X99059Y-62273D01*
X99134Y-62292D01*
X99284Y-62292D01*
X99321Y-62273D01*
X99340Y-62255D01*
X99359Y-62217D01*
X99359Y-62142D01*
X99340Y-62105D01*
X99321Y-62086D01*
X99284Y-62067D01*
X99190Y-62067D01*
X99153Y-62086D01*
X99134Y-62105D01*
X99115Y-62142D01*
X99115Y-62217D01*
X99134Y-62255D01*
X99153Y-62273D01*
X99190Y-62292D01*
X99754Y-59898D02*
X99773Y-59879D01*
X99811Y-59860D01*
X99904Y-59860D01*
X99942Y-59879D01*
X99961Y-59898D01*
X99979Y-59935D01*
X99979Y-59973D01*
X99961Y-60029D01*
X99736Y-60254D01*
X99979Y-60254D01*
X100129Y-59898D02*
X100148Y-59879D01*
X100186Y-59860D01*
X100279Y-59860D01*
X100317Y-59879D01*
X100336Y-59898D01*
X100354Y-59935D01*
X100354Y-59973D01*
X100336Y-60029D01*
X100111Y-60254D01*
X100354Y-60254D01*
X100598Y-59860D02*
X100636Y-59860D01*
X100673Y-59879D01*
X100692Y-59898D01*
X100711Y-59935D01*
X100729Y-60010D01*
X100729Y-60104D01*
X100711Y-60179D01*
X100692Y-60217D01*
X100673Y-60235D01*
X100636Y-60254D01*
X100598Y-60254D01*
X100561Y-60235D01*
X100542Y-60217D01*
X100523Y-60179D01*
X100504Y-60104D01*
X100504Y-60010D01*
X100523Y-59935D01*
X100542Y-59898D01*
X100561Y-59879D01*
X100598Y-59860D01*
X101067Y-59992D02*
X101067Y-60254D01*
X100898Y-59992D02*
X100898Y-60198D01*
X100917Y-60235D01*
X100954Y-60254D01*
X101011Y-60254D01*
X101048Y-60235D01*
X101067Y-60217D01*
X82805Y-58154D02*
X82805Y-58342D01*
X82411Y-58342D01*
X82448Y-58042D02*
X82430Y-58023D01*
X82411Y-57985D01*
X82411Y-57892D01*
X82430Y-57854D01*
X82448Y-57835D01*
X82486Y-57817D01*
X82523Y-57817D01*
X82580Y-57835D01*
X82805Y-58060D01*
X82805Y-57817D01*
X83200Y-55648D02*
X83219Y-55629D01*
X83256Y-55610D01*
X83350Y-55610D01*
X83388Y-55629D01*
X83406Y-55648D01*
X83425Y-55685D01*
X83425Y-55723D01*
X83406Y-55779D01*
X83181Y-56004D01*
X83425Y-56004D01*
X83575Y-55648D02*
X83594Y-55629D01*
X83631Y-55610D01*
X83725Y-55610D01*
X83763Y-55629D01*
X83781Y-55648D01*
X83800Y-55685D01*
X83800Y-55723D01*
X83781Y-55779D01*
X83556Y-56004D01*
X83800Y-56004D01*
X84044Y-55610D02*
X84081Y-55610D01*
X84119Y-55629D01*
X84137Y-55648D01*
X84156Y-55685D01*
X84175Y-55760D01*
X84175Y-55854D01*
X84156Y-55929D01*
X84137Y-55966D01*
X84119Y-55985D01*
X84081Y-56004D01*
X84044Y-56004D01*
X84006Y-55985D01*
X83988Y-55966D01*
X83969Y-55929D01*
X83950Y-55854D01*
X83950Y-55760D01*
X83969Y-55685D01*
X83988Y-55648D01*
X84006Y-55629D01*
X84044Y-55610D01*
X84512Y-55741D02*
X84512Y-56004D01*
X84344Y-55741D02*
X84344Y-55947D01*
X84362Y-55985D01*
X84400Y-56004D01*
X84456Y-56004D01*
X84494Y-55985D01*
X84512Y-55966D01*
X99359Y-54404D02*
X99359Y-54592D01*
X98965Y-54592D01*
X98965Y-54086D02*
X98965Y-54273D01*
X99153Y-54292D01*
X99134Y-54273D01*
X99115Y-54236D01*
X99115Y-54142D01*
X99134Y-54105D01*
X99153Y-54086D01*
X99190Y-54067D01*
X99284Y-54067D01*
X99321Y-54086D01*
X99340Y-54105D01*
X99359Y-54142D01*
X99359Y-54236D01*
X99340Y-54273D01*
X99321Y-54292D01*
X99754Y-51898D02*
X99773Y-51879D01*
X99811Y-51860D01*
X99904Y-51860D01*
X99942Y-51879D01*
X99961Y-51898D01*
X99979Y-51935D01*
X99979Y-51973D01*
X99961Y-52029D01*
X99736Y-52254D01*
X99979Y-52254D01*
X100129Y-51898D02*
X100148Y-51879D01*
X100186Y-51860D01*
X100279Y-51860D01*
X100317Y-51879D01*
X100336Y-51898D01*
X100354Y-51935D01*
X100354Y-51973D01*
X100336Y-52029D01*
X100111Y-52254D01*
X100354Y-52254D01*
X100598Y-51860D02*
X100636Y-51860D01*
X100673Y-51879D01*
X100692Y-51898D01*
X100711Y-51935D01*
X100729Y-52010D01*
X100729Y-52104D01*
X100711Y-52179D01*
X100692Y-52217D01*
X100673Y-52235D01*
X100636Y-52254D01*
X100598Y-52254D01*
X100561Y-52235D01*
X100542Y-52217D01*
X100523Y-52179D01*
X100504Y-52104D01*
X100504Y-52010D01*
X100523Y-51935D01*
X100542Y-51898D01*
X100561Y-51879D01*
X100598Y-51860D01*
X101067Y-51992D02*
X101067Y-52254D01*
X100898Y-51992D02*
X100898Y-52198D01*
X100917Y-52235D01*
X100954Y-52254D01*
X101011Y-52254D01*
X101048Y-52235D01*
X101067Y-52217D01*
X91059Y-62404D02*
X91059Y-62592D01*
X90665Y-62592D01*
X90796Y-62105D02*
X91059Y-62105D01*
X90646Y-62198D02*
X90928Y-62292D01*
X90928Y-62048D01*
X91454Y-59898D02*
X91473Y-59879D01*
X91511Y-59860D01*
X91604Y-59860D01*
X91642Y-59879D01*
X91661Y-59898D01*
X91679Y-59935D01*
X91679Y-59973D01*
X91661Y-60029D01*
X91436Y-60254D01*
X91679Y-60254D01*
X91829Y-59898D02*
X91848Y-59879D01*
X91886Y-59860D01*
X91979Y-59860D01*
X92017Y-59879D01*
X92036Y-59898D01*
X92054Y-59935D01*
X92054Y-59973D01*
X92036Y-60029D01*
X91811Y-60254D01*
X92054Y-60254D01*
X92298Y-59860D02*
X92336Y-59860D01*
X92373Y-59879D01*
X92392Y-59898D01*
X92411Y-59935D01*
X92429Y-60010D01*
X92429Y-60104D01*
X92411Y-60179D01*
X92392Y-60217D01*
X92373Y-60235D01*
X92336Y-60254D01*
X92298Y-60254D01*
X92261Y-60235D01*
X92242Y-60217D01*
X92223Y-60179D01*
X92204Y-60104D01*
X92204Y-60010D01*
X92223Y-59935D01*
X92242Y-59898D01*
X92261Y-59879D01*
X92298Y-59860D01*
X92767Y-59992D02*
X92767Y-60254D01*
X92598Y-59992D02*
X92598Y-60198D01*
X92617Y-60235D01*
X92654Y-60254D01*
X92711Y-60254D01*
X92748Y-60235D01*
X92767Y-60217D01*
G54D13*
X61206Y-58392D02*
X61571Y-58392D01*
X61614Y-58371D01*
X61635Y-58349D01*
X61656Y-58306D01*
X61656Y-58221D01*
X61635Y-58178D01*
X61614Y-58156D01*
X61571Y-58135D01*
X61206Y-58135D01*
X61656Y-57685D02*
X61656Y-57942D01*
X61656Y-57813D02*
X61206Y-57813D01*
X61271Y-57856D01*
X61314Y-57899D01*
X61335Y-57942D01*
G54D15*
X86982Y-58362D02*
X86277Y-58362D01*
X86982Y-58120D02*
X86579Y-58301D01*
X86277Y-58120D02*
X86680Y-58362D01*
X86982Y-57716D02*
X86982Y-57958D01*
X86982Y-57837D02*
X86277Y-57837D01*
X86377Y-57877D01*
X86445Y-57918D01*
X86478Y-57958D01*
G54D12*
G54D16*
X106175Y-57315D02*
X105494Y-57315D01*
X105494Y-57152D01*
X105527Y-57112D01*
X105559Y-57091D01*
X105624Y-57071D01*
X105721Y-57071D01*
X105786Y-57091D01*
X105818Y-57112D01*
X105851Y-57152D01*
X105851Y-57315D01*
X105786Y-56826D02*
X105754Y-56867D01*
X105721Y-56887D01*
X105656Y-56908D01*
X105624Y-56908D01*
X105559Y-56887D01*
X105527Y-56867D01*
X105494Y-56826D01*
X105494Y-56745D01*
X105527Y-56704D01*
X105559Y-56684D01*
X105624Y-56663D01*
X105656Y-56663D01*
X105721Y-56684D01*
X105754Y-56704D01*
X105786Y-56745D01*
X105786Y-56826D01*
X105818Y-56867D01*
X105851Y-56887D01*
X105916Y-56908D01*
X106045Y-56908D01*
X106110Y-56887D01*
X106143Y-56867D01*
X106175Y-56826D01*
X106175Y-56745D01*
X106143Y-56704D01*
X106110Y-56684D01*
X106045Y-56663D01*
X105916Y-56663D01*
X105851Y-56684D01*
X105818Y-56704D01*
X105786Y-56745D01*
G54D12*
G54D16*
X65980Y-53975D02*
X65980Y-53294D01*
X66143Y-53294D01*
X66184Y-53327D01*
X66204Y-53359D01*
X66224Y-53424D01*
X66224Y-53521D01*
X66204Y-53586D01*
X66184Y-53618D01*
X66143Y-53651D01*
X65980Y-53651D01*
X66632Y-53975D02*
X66387Y-53975D01*
X66510Y-53975D02*
X66510Y-53294D01*
X66469Y-53391D01*
X66428Y-53456D01*
X66387Y-53489D01*
X66897Y-53294D02*
X66938Y-53294D01*
X66978Y-53327D01*
X66999Y-53359D01*
X67019Y-53424D01*
X67040Y-53554D01*
X67040Y-53716D01*
X67019Y-53845D01*
X66999Y-53910D01*
X66978Y-53943D01*
X66938Y-53975D01*
X66897Y-53975D01*
X66856Y-53943D01*
X66836Y-53910D01*
X66815Y-53845D01*
X66795Y-53716D01*
X66795Y-53554D01*
X66815Y-53424D01*
X66836Y-53359D01*
X66856Y-53327D01*
X66897Y-53294D01*
G54D12*
G54D16*
X97675Y-57315D02*
X96994Y-57315D01*
X96994Y-57152D01*
X97027Y-57112D01*
X97059Y-57091D01*
X97124Y-57071D01*
X97221Y-57071D01*
X97286Y-57091D01*
X97318Y-57112D01*
X97351Y-57152D01*
X97351Y-57315D01*
X96994Y-56704D02*
X96994Y-56786D01*
X97027Y-56826D01*
X97059Y-56847D01*
X97156Y-56887D01*
X97286Y-56908D01*
X97545Y-56908D01*
X97610Y-56887D01*
X97643Y-56867D01*
X97675Y-56826D01*
X97675Y-56745D01*
X97643Y-56704D01*
X97610Y-56684D01*
X97545Y-56663D01*
X97383Y-56663D01*
X97318Y-56684D01*
X97286Y-56704D01*
X97254Y-56745D01*
X97254Y-56826D01*
X97286Y-56867D01*
X97318Y-56887D01*
X97383Y-56908D01*
G54D12*
G54D16*
X113275Y-61819D02*
X112594Y-61819D01*
X112594Y-61656D01*
X112627Y-61615D01*
X112659Y-61595D01*
X112724Y-61575D01*
X112821Y-61575D01*
X112886Y-61595D01*
X112918Y-61615D01*
X112951Y-61656D01*
X112951Y-61819D01*
X113275Y-61167D02*
X113275Y-61412D01*
X113275Y-61289D02*
X112594Y-61289D01*
X112691Y-61330D01*
X112756Y-61371D01*
X112789Y-61412D01*
X112659Y-61004D02*
X112627Y-60984D01*
X112594Y-60943D01*
X112594Y-60841D01*
X112627Y-60800D01*
X112659Y-60780D01*
X112724Y-60759D01*
X112789Y-60759D01*
X112886Y-60780D01*
X113275Y-61024D01*
X113275Y-60759D01*
G54D12*
G54D16*
X113175Y-55719D02*
X112494Y-55719D01*
X112494Y-55556D01*
X112527Y-55515D01*
X112559Y-55495D01*
X112624Y-55475D01*
X112721Y-55475D01*
X112786Y-55495D01*
X112818Y-55515D01*
X112851Y-55556D01*
X112851Y-55719D01*
X113175Y-55067D02*
X113175Y-55312D01*
X113175Y-55189D02*
X112494Y-55189D01*
X112591Y-55230D01*
X112656Y-55271D01*
X112689Y-55312D01*
X113175Y-54659D02*
X113175Y-54904D01*
X113175Y-54782D02*
X112494Y-54782D01*
X112591Y-54822D01*
X112656Y-54863D01*
X112689Y-54904D01*
G54D12*
G54D16*
X78311Y-62105D02*
X77630Y-62105D01*
X77630Y-61942D01*
X77662Y-61901D01*
X77694Y-61881D01*
X77759Y-61861D01*
X77857Y-61861D01*
X77921Y-61881D01*
X77954Y-61901D01*
X77986Y-61942D01*
X77986Y-62105D01*
X77630Y-61473D02*
X77630Y-61677D01*
X77954Y-61698D01*
X77921Y-61677D01*
X77889Y-61636D01*
X77889Y-61535D01*
X77921Y-61494D01*
X77954Y-61473D01*
X78019Y-61453D01*
X78181Y-61453D01*
X78246Y-61473D01*
X78278Y-61494D01*
X78311Y-61535D01*
X78311Y-61636D01*
X78278Y-61677D01*
X78246Y-61698D01*
G54D12*
G54D16*
X70405Y-55511D02*
X69724Y-55511D01*
X69724Y-55348D01*
X69756Y-55307D01*
X69789Y-55286D01*
X69854Y-55266D01*
X69951Y-55266D01*
X70016Y-55286D01*
X70048Y-55307D01*
X70081Y-55348D01*
X70081Y-55511D01*
X69951Y-54899D02*
X70405Y-54899D01*
X69692Y-55001D02*
X70178Y-55103D01*
X70178Y-54838D01*
G54D12*
G54D16*
X72405Y-61219D02*
X71724Y-61219D01*
X71724Y-61056D01*
X71756Y-61016D01*
X71789Y-60995D01*
X71854Y-60975D01*
X71951Y-60975D01*
X72016Y-60995D01*
X72048Y-61016D01*
X72081Y-61056D01*
X72081Y-61219D01*
X71724Y-60832D02*
X71724Y-60567D01*
X71983Y-60710D01*
X71983Y-60649D01*
X72016Y-60608D01*
X72048Y-60588D01*
X72113Y-60567D01*
X72275Y-60567D01*
X72340Y-60588D01*
X72373Y-60608D01*
X72405Y-60649D01*
X72405Y-60771D01*
X72373Y-60812D01*
X72340Y-60832D01*
G54D12*
G54D16*
X65385Y-57085D02*
X64704Y-57085D01*
X64704Y-56922D01*
X64737Y-56882D01*
X64769Y-56861D01*
X64834Y-56841D01*
X64931Y-56841D01*
X64996Y-56861D01*
X65029Y-56882D01*
X65061Y-56922D01*
X65061Y-57085D01*
X64769Y-56678D02*
X64737Y-56657D01*
X64704Y-56617D01*
X64704Y-56515D01*
X64737Y-56474D01*
X64769Y-56454D01*
X64834Y-56433D01*
X64899Y-56433D01*
X64996Y-56454D01*
X65385Y-56698D01*
X65385Y-56433D01*
G54D12*
G54D16*
X67385Y-59645D02*
X66704Y-59645D01*
X66704Y-59481D01*
X66737Y-59441D01*
X66769Y-59420D01*
X66834Y-59400D01*
X66931Y-59400D01*
X66996Y-59420D01*
X67029Y-59441D01*
X67061Y-59481D01*
X67061Y-59645D01*
X67385Y-58992D02*
X67385Y-59237D01*
X67385Y-59115D02*
X66704Y-59115D01*
X66802Y-59155D01*
X66867Y-59196D01*
X66899Y-59237D01*
G54D12*
G54D16*
X104175Y-59815D02*
X103494Y-59815D01*
X103494Y-59652D01*
X103527Y-59612D01*
X103559Y-59591D01*
X103624Y-59571D01*
X103721Y-59571D01*
X103786Y-59591D01*
X103818Y-59612D01*
X103851Y-59652D01*
X103851Y-59815D01*
X104175Y-59367D02*
X104175Y-59286D01*
X104143Y-59245D01*
X104110Y-59224D01*
X104013Y-59184D01*
X103883Y-59163D01*
X103624Y-59163D01*
X103559Y-59184D01*
X103527Y-59204D01*
X103494Y-59245D01*
X103494Y-59326D01*
X103527Y-59367D01*
X103559Y-59387D01*
X103624Y-59408D01*
X103786Y-59408D01*
X103851Y-59387D01*
X103883Y-59367D01*
X103916Y-59326D01*
X103916Y-59245D01*
X103883Y-59204D01*
X103851Y-59184D01*
X103786Y-59163D01*
G54D12*
G54D16*
X95675Y-59815D02*
X94994Y-59815D01*
X94994Y-59652D01*
X95027Y-59612D01*
X95059Y-59591D01*
X95124Y-59571D01*
X95221Y-59571D01*
X95286Y-59591D01*
X95318Y-59612D01*
X95351Y-59652D01*
X95351Y-59815D01*
X94994Y-59428D02*
X94994Y-59143D01*
X95675Y-59326D01*
G54D12*
G54D17*
X67350Y-57684D02*
X67311Y-57627D01*
X67282Y-57684D02*
X67282Y-57565D01*
X67327Y-57565D01*
X67339Y-57571D01*
X67344Y-57577D01*
X67350Y-57588D01*
X67350Y-57605D01*
X67344Y-57616D01*
X67339Y-57622D01*
X67327Y-57627D01*
X67282Y-57627D01*
X67395Y-57577D02*
X67401Y-57571D01*
X67412Y-57565D01*
X67440Y-57565D01*
X67451Y-57571D01*
X67457Y-57577D01*
X67462Y-57588D01*
X67462Y-57599D01*
X67457Y-57616D01*
X67389Y-57684D01*
X67462Y-57684D01*
X67381Y-56837D02*
X67325Y-56837D01*
X67319Y-56893D01*
X67325Y-56888D01*
X67336Y-56882D01*
X67364Y-56882D01*
X67375Y-56888D01*
X67381Y-56893D01*
X67386Y-56905D01*
X67386Y-56933D01*
X67381Y-56944D01*
X67375Y-56950D01*
X67364Y-56955D01*
X67336Y-56955D01*
X67325Y-56950D01*
X67319Y-56944D01*
X67499Y-56955D02*
X67431Y-56955D01*
X67465Y-56955D02*
X67465Y-56837D01*
X67454Y-56854D01*
X67443Y-56865D01*
X67431Y-56871D01*
X67350Y-59258D02*
X67311Y-59202D01*
X67282Y-59258D02*
X67282Y-59140D01*
X67327Y-59140D01*
X67339Y-59146D01*
X67344Y-59151D01*
X67350Y-59163D01*
X67350Y-59180D01*
X67344Y-59191D01*
X67339Y-59196D01*
X67327Y-59202D01*
X67282Y-59202D01*
X67462Y-59258D02*
X67395Y-59258D01*
X67429Y-59258D02*
X67429Y-59140D01*
X67417Y-59157D01*
X67406Y-59168D01*
X67395Y-59174D01*
X67381Y-58412D02*
X67325Y-58412D01*
X67319Y-58468D01*
X67325Y-58462D01*
X67336Y-58457D01*
X67364Y-58457D01*
X67375Y-58462D01*
X67381Y-58468D01*
X67386Y-58479D01*
X67386Y-58507D01*
X67381Y-58519D01*
X67375Y-58524D01*
X67364Y-58530D01*
X67336Y-58530D01*
X67325Y-58524D01*
X67319Y-58519D01*
X67499Y-58530D02*
X67431Y-58530D01*
X67465Y-58530D02*
X67465Y-58412D01*
X67454Y-58429D01*
X67443Y-58440D01*
X67431Y-58446D01*
G54D18*
X105799Y-60815D02*
X105799Y-61134D01*
X105818Y-61171D01*
X105837Y-61190D01*
X105874Y-61209D01*
X105949Y-61209D01*
X105987Y-61190D01*
X106006Y-61171D01*
X106024Y-61134D01*
X106024Y-60815D01*
X106175Y-60815D02*
X106418Y-60815D01*
X106287Y-60965D01*
X106343Y-60965D01*
X106381Y-60984D01*
X106400Y-61003D01*
X106418Y-61040D01*
X106418Y-61134D01*
X106400Y-61171D01*
X106381Y-61190D01*
X106343Y-61209D01*
X106231Y-61209D01*
X106193Y-61190D01*
X106175Y-61171D01*
G54D11*
X104871Y-61365D02*
X105096Y-61365D01*
X104983Y-61759D02*
X104983Y-61365D01*
X105227Y-61759D02*
X105227Y-61365D01*
X105377Y-61365D01*
X105415Y-61384D01*
X105433Y-61403D01*
X105452Y-61440D01*
X105452Y-61496D01*
X105433Y-61534D01*
X105415Y-61553D01*
X105377Y-61571D01*
X105227Y-61571D01*
X105602Y-61740D02*
X105659Y-61759D01*
X105752Y-61759D01*
X105790Y-61740D01*
X105809Y-61721D01*
X105827Y-61684D01*
X105827Y-61646D01*
X105809Y-61609D01*
X105790Y-61590D01*
X105752Y-61571D01*
X105677Y-61553D01*
X105640Y-61534D01*
X105621Y-61515D01*
X105602Y-61478D01*
X105602Y-61440D01*
X105621Y-61403D01*
X105640Y-61384D01*
X105677Y-61365D01*
X105771Y-61365D01*
X105827Y-61384D01*
X105959Y-61365D02*
X106221Y-61365D01*
X106053Y-61759D01*
X106353Y-61646D02*
X106540Y-61646D01*
X106315Y-61759D02*
X106447Y-61365D01*
X106578Y-61759D01*
X106672Y-61365D02*
X106916Y-61365D01*
X106784Y-61515D01*
X106841Y-61515D01*
X106878Y-61534D01*
X106897Y-61553D01*
X106916Y-61590D01*
X106916Y-61684D01*
X106897Y-61721D01*
X106878Y-61740D01*
X106841Y-61759D01*
X106728Y-61759D01*
X106691Y-61740D01*
X106672Y-61721D01*
X107160Y-61365D02*
X107197Y-61365D01*
X107235Y-61384D01*
X107253Y-61403D01*
X107272Y-61440D01*
X107291Y-61515D01*
X107291Y-61609D01*
X107272Y-61684D01*
X107253Y-61721D01*
X107235Y-61740D01*
X107197Y-61759D01*
X107160Y-61759D01*
X107122Y-61740D01*
X107103Y-61721D01*
X107085Y-61684D01*
X107066Y-61609D01*
X107066Y-61515D01*
X107085Y-61440D01*
X107103Y-61403D01*
X107122Y-61384D01*
X107160Y-61365D01*
G54D18*
X105799Y-55115D02*
X105799Y-55434D01*
X105818Y-55471D01*
X105837Y-55490D01*
X105874Y-55509D01*
X105949Y-55509D01*
X105987Y-55490D01*
X106006Y-55471D01*
X106024Y-55434D01*
X106024Y-55115D01*
X106193Y-55153D02*
X106212Y-55134D01*
X106250Y-55115D01*
X106343Y-55115D01*
X106381Y-55134D01*
X106400Y-55153D01*
X106418Y-55190D01*
X106418Y-55228D01*
X106400Y-55284D01*
X106175Y-55509D01*
X106418Y-55509D01*
G54D11*
X104871Y-54565D02*
X105096Y-54565D01*
X104983Y-54959D02*
X104983Y-54565D01*
X105227Y-54959D02*
X105227Y-54565D01*
X105377Y-54565D01*
X105415Y-54584D01*
X105433Y-54603D01*
X105452Y-54640D01*
X105452Y-54696D01*
X105433Y-54734D01*
X105415Y-54753D01*
X105377Y-54771D01*
X105227Y-54771D01*
X105602Y-54940D02*
X105659Y-54959D01*
X105752Y-54959D01*
X105790Y-54940D01*
X105809Y-54921D01*
X105827Y-54884D01*
X105827Y-54846D01*
X105809Y-54809D01*
X105790Y-54790D01*
X105752Y-54771D01*
X105677Y-54753D01*
X105640Y-54734D01*
X105621Y-54715D01*
X105602Y-54678D01*
X105602Y-54640D01*
X105621Y-54603D01*
X105640Y-54584D01*
X105677Y-54565D01*
X105771Y-54565D01*
X105827Y-54584D01*
X105959Y-54565D02*
X106221Y-54565D01*
X106053Y-54959D01*
X106353Y-54846D02*
X106540Y-54846D01*
X106315Y-54959D02*
X106447Y-54565D01*
X106578Y-54959D01*
X106878Y-54696D02*
X106878Y-54959D01*
X106784Y-54546D02*
X106691Y-54828D01*
X106934Y-54828D01*
X107103Y-54959D02*
X107178Y-54959D01*
X107216Y-54940D01*
X107235Y-54921D01*
X107272Y-54865D01*
X107291Y-54790D01*
X107291Y-54640D01*
X107272Y-54603D01*
X107253Y-54584D01*
X107216Y-54565D01*
X107141Y-54565D01*
X107103Y-54584D01*
X107085Y-54603D01*
X107066Y-54640D01*
X107066Y-54734D01*
X107085Y-54771D01*
X107103Y-54790D01*
X107141Y-54809D01*
X107216Y-54809D01*
X107253Y-54790D01*
X107272Y-54771D01*
X107291Y-54734D01*
G54D13*
X68211Y-60351D02*
X68182Y-60389D01*
X68125Y-60427D01*
X68039Y-60484D01*
X68011Y-60522D01*
X68011Y-60561D01*
X68154Y-60541D02*
X68125Y-60580D01*
X68068Y-60618D01*
X67954Y-60637D01*
X67754Y-60637D01*
X67639Y-60618D01*
X67582Y-60580D01*
X67554Y-60541D01*
X67554Y-60465D01*
X67582Y-60427D01*
X67639Y-60389D01*
X67754Y-60370D01*
X67954Y-60370D01*
X68068Y-60389D01*
X68125Y-60427D01*
X68154Y-60465D01*
X68154Y-60541D01*
X68154Y-59989D02*
X68154Y-60218D01*
X68154Y-60103D02*
X67554Y-60103D01*
X67639Y-60141D01*
X67697Y-60180D01*
X67725Y-60218D01*
X68259Y-58056D02*
X68259Y-57456D01*
X68678Y-58056D02*
X68544Y-57770D01*
X68449Y-58056D02*
X68449Y-57456D01*
X68601Y-57456D01*
X68639Y-57484D01*
X68659Y-57513D01*
X68678Y-57570D01*
X68678Y-57656D01*
X68659Y-57713D01*
X68639Y-57741D01*
X68601Y-57770D01*
X68449Y-57770D01*
X68982Y-57741D02*
X68849Y-57741D01*
X68849Y-58056D02*
X68849Y-57456D01*
X69039Y-57456D01*
X69382Y-57456D02*
X69192Y-57456D01*
X69173Y-57741D01*
X69192Y-57713D01*
X69230Y-57684D01*
X69325Y-57684D01*
X69363Y-57713D01*
X69382Y-57741D01*
X69401Y-57799D01*
X69401Y-57941D01*
X69382Y-57999D01*
X69363Y-58027D01*
X69325Y-58056D01*
X69230Y-58056D01*
X69192Y-58027D01*
X69173Y-57999D01*
X69535Y-57456D02*
X69782Y-57456D01*
X69649Y-57684D01*
X69706Y-57684D01*
X69744Y-57713D01*
X69763Y-57741D01*
X69782Y-57799D01*
X69782Y-57941D01*
X69763Y-57999D01*
X69744Y-58027D01*
X69706Y-58056D01*
X69592Y-58056D01*
X69554Y-58027D01*
X69535Y-57999D01*
X70030Y-57456D02*
X70068Y-57456D01*
X70106Y-57484D01*
X70125Y-57513D01*
X70144Y-57570D01*
X70163Y-57684D01*
X70163Y-57827D01*
X70144Y-57941D01*
X70125Y-57999D01*
X70106Y-58027D01*
X70068Y-58056D01*
X70030Y-58056D01*
X69992Y-58027D01*
X69973Y-57999D01*
X69954Y-57941D01*
X69935Y-57827D01*
X69935Y-57684D01*
X69954Y-57570D01*
X69973Y-57513D01*
X69992Y-57484D01*
X70030Y-57456D01*
X70335Y-58056D02*
X70335Y-57456D01*
X70563Y-58056D01*
X70563Y-57456D01*
X70908Y-55725D02*
X70879Y-55763D01*
X70822Y-55801D01*
X70736Y-55858D01*
X70708Y-55896D01*
X70708Y-55935D01*
X70851Y-55915D02*
X70822Y-55954D01*
X70765Y-55992D01*
X70651Y-56011D01*
X70451Y-56011D01*
X70336Y-55992D01*
X70279Y-55954D01*
X70251Y-55915D01*
X70251Y-55839D01*
X70279Y-55801D01*
X70336Y-55763D01*
X70451Y-55744D01*
X70651Y-55744D01*
X70765Y-55763D01*
X70822Y-55801D01*
X70851Y-55839D01*
X70851Y-55915D01*
X70308Y-55592D02*
X70279Y-55573D01*
X70251Y-55535D01*
X70251Y-55439D01*
X70279Y-55401D01*
X70308Y-55382D01*
X70365Y-55363D01*
X70422Y-55363D01*
X70508Y-55382D01*
X70851Y-55611D01*
X70851Y-55363D01*
X67955Y-58430D02*
X67955Y-57830D01*
X68374Y-58430D02*
X68241Y-58144D01*
X68146Y-58430D02*
X68146Y-57830D01*
X68298Y-57830D01*
X68336Y-57858D01*
X68355Y-57887D01*
X68374Y-57944D01*
X68374Y-58030D01*
X68355Y-58087D01*
X68336Y-58115D01*
X68298Y-58144D01*
X68146Y-58144D01*
X68679Y-58115D02*
X68546Y-58115D01*
X68546Y-58430D02*
X68546Y-57830D01*
X68736Y-57830D01*
X69079Y-57830D02*
X68889Y-57830D01*
X68870Y-58115D01*
X68889Y-58087D01*
X68927Y-58058D01*
X69022Y-58058D01*
X69060Y-58087D01*
X69079Y-58115D01*
X69098Y-58173D01*
X69098Y-58315D01*
X69079Y-58373D01*
X69060Y-58401D01*
X69022Y-58430D01*
X68927Y-58430D01*
X68889Y-58401D01*
X68870Y-58373D01*
X69232Y-57830D02*
X69479Y-57830D01*
X69346Y-58058D01*
X69403Y-58058D01*
X69441Y-58087D01*
X69460Y-58115D01*
X69479Y-58173D01*
X69479Y-58315D01*
X69460Y-58373D01*
X69441Y-58401D01*
X69403Y-58430D01*
X69289Y-58430D01*
X69251Y-58401D01*
X69232Y-58373D01*
X69727Y-57830D02*
X69765Y-57830D01*
X69803Y-57858D01*
X69822Y-57887D01*
X69841Y-57944D01*
X69860Y-58058D01*
X69860Y-58201D01*
X69841Y-58315D01*
X69822Y-58373D01*
X69803Y-58401D01*
X69765Y-58430D01*
X69727Y-58430D01*
X69689Y-58401D01*
X69670Y-58373D01*
X69651Y-58315D01*
X69632Y-58201D01*
X69632Y-58058D01*
X69651Y-57944D01*
X69670Y-57887D01*
X69689Y-57858D01*
X69727Y-57830D01*
X70032Y-58430D02*
X70032Y-57830D01*
X70260Y-58430D01*
X70260Y-57830D01*
G54D10*
X82748Y-60649D02*
X82748Y-60256D01*
X82842Y-60256D01*
X82898Y-60274D01*
X82936Y-60312D01*
X82955Y-60349D01*
X82973Y-60424D01*
X82973Y-60481D01*
X82955Y-60556D01*
X82936Y-60593D01*
X82898Y-60631D01*
X82842Y-60649D01*
X82748Y-60649D01*
X83311Y-60387D02*
X83311Y-60649D01*
X83217Y-60237D02*
X83123Y-60518D01*
X83367Y-60518D01*
X82422Y-62569D02*
X82553Y-62569D01*
X82610Y-62775D02*
X82422Y-62775D01*
X82422Y-62382D01*
X82610Y-62382D01*
X82760Y-62757D02*
X82816Y-62775D01*
X82910Y-62775D01*
X82947Y-62757D01*
X82966Y-62738D01*
X82985Y-62700D01*
X82985Y-62663D01*
X82966Y-62625D01*
X82947Y-62607D01*
X82910Y-62588D01*
X82835Y-62569D01*
X82797Y-62550D01*
X82778Y-62532D01*
X82760Y-62494D01*
X82760Y-62457D01*
X82778Y-62419D01*
X82797Y-62400D01*
X82835Y-62382D01*
X82928Y-62382D01*
X82985Y-62400D01*
X83134Y-62419D02*
X83153Y-62400D01*
X83191Y-62382D01*
X83284Y-62382D01*
X83322Y-62400D01*
X83341Y-62419D01*
X83359Y-62457D01*
X83359Y-62494D01*
X83341Y-62550D01*
X83116Y-62775D01*
X83359Y-62775D01*
X83528Y-62775D02*
X83528Y-62382D01*
X83622Y-62382D01*
X83678Y-62400D01*
X83716Y-62438D01*
X83734Y-62475D01*
X83753Y-62550D01*
X83753Y-62607D01*
X83734Y-62682D01*
X83716Y-62719D01*
X83678Y-62757D01*
X83622Y-62775D01*
X83528Y-62775D01*
X82748Y-56161D02*
X82748Y-55768D01*
X82842Y-55768D01*
X82898Y-55786D01*
X82936Y-55824D01*
X82955Y-55861D01*
X82973Y-55936D01*
X82973Y-55992D01*
X82955Y-56067D01*
X82936Y-56105D01*
X82898Y-56142D01*
X82842Y-56161D01*
X82748Y-56161D01*
X83104Y-55768D02*
X83348Y-55768D01*
X83217Y-55917D01*
X83273Y-55917D01*
X83311Y-55936D01*
X83329Y-55955D01*
X83348Y-55992D01*
X83348Y-56086D01*
X83329Y-56124D01*
X83311Y-56142D01*
X83273Y-56161D01*
X83161Y-56161D01*
X83123Y-56142D01*
X83104Y-56124D01*
X82343Y-53829D02*
X82475Y-53829D01*
X82531Y-54035D02*
X82343Y-54035D01*
X82343Y-53642D01*
X82531Y-53642D01*
X82681Y-54016D02*
X82737Y-54035D01*
X82831Y-54035D01*
X82868Y-54016D01*
X82887Y-53998D01*
X82906Y-53960D01*
X82906Y-53923D01*
X82887Y-53885D01*
X82868Y-53867D01*
X82831Y-53848D01*
X82756Y-53829D01*
X82718Y-53810D01*
X82700Y-53792D01*
X82681Y-53754D01*
X82681Y-53717D01*
X82700Y-53679D01*
X82718Y-53660D01*
X82756Y-53642D01*
X82850Y-53642D01*
X82906Y-53660D01*
X83056Y-53679D02*
X83074Y-53660D01*
X83112Y-53642D01*
X83206Y-53642D01*
X83243Y-53660D01*
X83262Y-53679D01*
X83281Y-53717D01*
X83281Y-53754D01*
X83262Y-53810D01*
X83037Y-54035D01*
X83281Y-54035D01*
X83449Y-54035D02*
X83449Y-53642D01*
X83543Y-53642D01*
X83599Y-53660D01*
X83637Y-53698D01*
X83656Y-53735D01*
X83674Y-53810D01*
X83674Y-53867D01*
X83656Y-53941D01*
X83637Y-53979D01*
X83599Y-54016D01*
X83543Y-54035D01*
X83449Y-54035D01*
X82748Y-62618D02*
X82748Y-62224D01*
X82842Y-62224D01*
X82898Y-62243D01*
X82936Y-62280D01*
X82955Y-62318D01*
X82973Y-62393D01*
X82973Y-62449D01*
X82955Y-62524D01*
X82936Y-62562D01*
X82898Y-62599D01*
X82842Y-62618D01*
X82748Y-62618D01*
X83123Y-62262D02*
X83142Y-62243D01*
X83179Y-62224D01*
X83273Y-62224D01*
X83311Y-62243D01*
X83329Y-62262D01*
X83348Y-62299D01*
X83348Y-62337D01*
X83329Y-62393D01*
X83104Y-62618D01*
X83348Y-62618D01*
X82422Y-64538D02*
X82553Y-64538D01*
X82610Y-64744D02*
X82422Y-64744D01*
X82422Y-64350D01*
X82610Y-64350D01*
X82760Y-64725D02*
X82816Y-64744D01*
X82910Y-64744D01*
X82947Y-64725D01*
X82966Y-64706D01*
X82985Y-64669D01*
X82985Y-64631D01*
X82966Y-64594D01*
X82947Y-64575D01*
X82910Y-64556D01*
X82835Y-64538D01*
X82797Y-64519D01*
X82778Y-64500D01*
X82760Y-64463D01*
X82760Y-64425D01*
X82778Y-64388D01*
X82797Y-64369D01*
X82835Y-64350D01*
X82928Y-64350D01*
X82985Y-64369D01*
X83134Y-64388D02*
X83153Y-64369D01*
X83191Y-64350D01*
X83284Y-64350D01*
X83322Y-64369D01*
X83341Y-64388D01*
X83359Y-64425D01*
X83359Y-64463D01*
X83341Y-64519D01*
X83116Y-64744D01*
X83359Y-64744D01*
X83528Y-64744D02*
X83528Y-64350D01*
X83622Y-64350D01*
X83678Y-64369D01*
X83716Y-64406D01*
X83734Y-64444D01*
X83753Y-64519D01*
X83753Y-64575D01*
X83734Y-64650D01*
X83716Y-64688D01*
X83678Y-64725D01*
X83622Y-64744D01*
X83528Y-64744D01*
X82748Y-54193D02*
X82748Y-53799D01*
X82842Y-53799D01*
X82898Y-53818D01*
X82936Y-53855D01*
X82955Y-53893D01*
X82973Y-53968D01*
X82973Y-54024D01*
X82955Y-54099D01*
X82936Y-54136D01*
X82898Y-54174D01*
X82842Y-54193D01*
X82748Y-54193D01*
X83348Y-54193D02*
X83123Y-54193D01*
X83236Y-54193D02*
X83236Y-53799D01*
X83198Y-53855D01*
X83161Y-53893D01*
X83123Y-53911D01*
X82343Y-51861D02*
X82475Y-51861D01*
X82531Y-52067D02*
X82343Y-52067D01*
X82343Y-51673D01*
X82531Y-51673D01*
X82681Y-52048D02*
X82737Y-52067D01*
X82831Y-52067D01*
X82868Y-52048D01*
X82887Y-52029D01*
X82906Y-51992D01*
X82906Y-51954D01*
X82887Y-51917D01*
X82868Y-51898D01*
X82831Y-51879D01*
X82756Y-51861D01*
X82718Y-51842D01*
X82700Y-51823D01*
X82681Y-51786D01*
X82681Y-51748D01*
X82700Y-51711D01*
X82718Y-51692D01*
X82756Y-51673D01*
X82850Y-51673D01*
X82906Y-51692D01*
X83056Y-51711D02*
X83074Y-51692D01*
X83112Y-51673D01*
X83206Y-51673D01*
X83243Y-51692D01*
X83262Y-51711D01*
X83281Y-51748D01*
X83281Y-51786D01*
X83262Y-51842D01*
X83037Y-52067D01*
X83281Y-52067D01*
X83449Y-52067D02*
X83449Y-51673D01*
X83543Y-51673D01*
X83599Y-51692D01*
X83637Y-51729D01*
X83656Y-51767D01*
X83674Y-51842D01*
X83674Y-51898D01*
X83656Y-51973D01*
X83637Y-52010D01*
X83599Y-52048D01*
X83543Y-52067D01*
X83449Y-52067D01*
X110421Y-55253D02*
X110440Y-55271D01*
X110459Y-55328D01*
X110459Y-55365D01*
X110440Y-55421D01*
X110403Y-55459D01*
X110365Y-55478D01*
X110290Y-55496D01*
X110234Y-55496D01*
X110159Y-55478D01*
X110121Y-55459D01*
X110084Y-55421D01*
X110065Y-55365D01*
X110065Y-55328D01*
X110084Y-55271D01*
X110103Y-55253D01*
X110459Y-54878D02*
X110459Y-55103D01*
X110459Y-54990D02*
X110065Y-54990D01*
X110121Y-55028D01*
X110159Y-55065D01*
X110178Y-55103D01*
X110065Y-54521D02*
X110065Y-54709D01*
X110253Y-54728D01*
X110234Y-54709D01*
X110215Y-54671D01*
X110215Y-54578D01*
X110234Y-54540D01*
X110253Y-54521D01*
X110290Y-54503D01*
X110384Y-54503D01*
X110421Y-54521D01*
X110440Y-54540D01*
X110459Y-54578D01*
X110459Y-54671D01*
X110440Y-54709D01*
X110421Y-54728D01*
X110459Y-58253D02*
X110459Y-58478D01*
X110459Y-58365D02*
X110065Y-58365D01*
X110121Y-58403D01*
X110159Y-58440D01*
X110178Y-58478D01*
X110065Y-58009D02*
X110065Y-57971D01*
X110084Y-57934D01*
X110103Y-57915D01*
X110140Y-57896D01*
X110215Y-57878D01*
X110309Y-57878D01*
X110384Y-57896D01*
X110421Y-57915D01*
X110440Y-57934D01*
X110459Y-57971D01*
X110459Y-58009D01*
X110440Y-58046D01*
X110421Y-58065D01*
X110384Y-58084D01*
X110309Y-58103D01*
X110215Y-58103D01*
X110140Y-58084D01*
X110103Y-58065D01*
X110084Y-58046D01*
X110065Y-58009D01*
X110196Y-57540D02*
X110459Y-57540D01*
X110196Y-57709D02*
X110403Y-57709D01*
X110440Y-57690D01*
X110459Y-57653D01*
X110459Y-57596D01*
X110440Y-57559D01*
X110421Y-57540D01*
X111521Y-62453D02*
X111540Y-62471D01*
X111559Y-62528D01*
X111559Y-62565D01*
X111540Y-62621D01*
X111503Y-62659D01*
X111465Y-62678D01*
X111390Y-62696D01*
X111334Y-62696D01*
X111259Y-62678D01*
X111221Y-62659D01*
X111184Y-62621D01*
X111165Y-62565D01*
X111165Y-62528D01*
X111184Y-62471D01*
X111203Y-62453D01*
X111559Y-62078D02*
X111559Y-62303D01*
X111559Y-62190D02*
X111165Y-62190D01*
X111221Y-62228D01*
X111259Y-62265D01*
X111278Y-62303D01*
X111334Y-61853D02*
X111315Y-61890D01*
X111296Y-61909D01*
X111259Y-61928D01*
X111240Y-61928D01*
X111203Y-61909D01*
X111184Y-61890D01*
X111165Y-61853D01*
X111165Y-61778D01*
X111184Y-61740D01*
X111203Y-61721D01*
X111240Y-61703D01*
X111259Y-61703D01*
X111296Y-61721D01*
X111315Y-61740D01*
X111334Y-61778D01*
X111334Y-61853D01*
X111353Y-61890D01*
X111371Y-61909D01*
X111409Y-61928D01*
X111484Y-61928D01*
X111521Y-61909D01*
X111540Y-61890D01*
X111559Y-61853D01*
X111559Y-61778D01*
X111540Y-61740D01*
X111521Y-61721D01*
X111484Y-61703D01*
X111409Y-61703D01*
X111371Y-61721D01*
X111353Y-61740D01*
X111334Y-61778D01*
X111559Y-59453D02*
X111559Y-59678D01*
X111559Y-59565D02*
X111165Y-59565D01*
X111221Y-59603D01*
X111259Y-59640D01*
X111278Y-59678D01*
X111165Y-59209D02*
X111165Y-59171D01*
X111184Y-59134D01*
X111203Y-59115D01*
X111240Y-59096D01*
X111315Y-59078D01*
X111409Y-59078D01*
X111484Y-59096D01*
X111521Y-59115D01*
X111540Y-59134D01*
X111559Y-59171D01*
X111559Y-59209D01*
X111540Y-59246D01*
X111521Y-59265D01*
X111484Y-59284D01*
X111409Y-59303D01*
X111315Y-59303D01*
X111240Y-59284D01*
X111203Y-59265D01*
X111184Y-59246D01*
X111165Y-59209D01*
X111296Y-58740D02*
X111559Y-58740D01*
X111296Y-58909D02*
X111503Y-58909D01*
X111540Y-58890D01*
X111559Y-58853D01*
X111559Y-58796D01*
X111540Y-58759D01*
X111521Y-58740D01*
X110521Y-62453D02*
X110540Y-62471D01*
X110559Y-62528D01*
X110559Y-62565D01*
X110540Y-62621D01*
X110503Y-62659D01*
X110465Y-62678D01*
X110390Y-62696D01*
X110334Y-62696D01*
X110259Y-62678D01*
X110221Y-62659D01*
X110184Y-62621D01*
X110165Y-62565D01*
X110165Y-62528D01*
X110184Y-62471D01*
X110203Y-62453D01*
X110559Y-62078D02*
X110559Y-62303D01*
X110559Y-62190D02*
X110165Y-62190D01*
X110221Y-62228D01*
X110259Y-62265D01*
X110278Y-62303D01*
X110165Y-61740D02*
X110165Y-61815D01*
X110184Y-61853D01*
X110203Y-61871D01*
X110259Y-61909D01*
X110334Y-61928D01*
X110484Y-61928D01*
X110521Y-61909D01*
X110540Y-61890D01*
X110559Y-61853D01*
X110559Y-61778D01*
X110540Y-61740D01*
X110521Y-61721D01*
X110484Y-61703D01*
X110390Y-61703D01*
X110353Y-61721D01*
X110334Y-61740D01*
X110315Y-61778D01*
X110315Y-61853D01*
X110334Y-61890D01*
X110353Y-61909D01*
X110390Y-61928D01*
X110559Y-59453D02*
X110559Y-59678D01*
X110559Y-59565D02*
X110165Y-59565D01*
X110221Y-59603D01*
X110259Y-59640D01*
X110278Y-59678D01*
X110165Y-59209D02*
X110165Y-59171D01*
X110184Y-59134D01*
X110203Y-59115D01*
X110240Y-59096D01*
X110315Y-59078D01*
X110409Y-59078D01*
X110484Y-59096D01*
X110521Y-59115D01*
X110540Y-59134D01*
X110559Y-59171D01*
X110559Y-59209D01*
X110540Y-59246D01*
X110521Y-59265D01*
X110484Y-59284D01*
X110409Y-59303D01*
X110315Y-59303D01*
X110240Y-59284D01*
X110203Y-59265D01*
X110184Y-59246D01*
X110165Y-59209D01*
X110296Y-58740D02*
X110559Y-58740D01*
X110296Y-58909D02*
X110503Y-58909D01*
X110540Y-58890D01*
X110559Y-58853D01*
X110559Y-58796D01*
X110540Y-58759D01*
X110521Y-58740D01*
X106048Y-58539D02*
X106029Y-58557D01*
X105973Y-58576D01*
X105935Y-58576D01*
X105879Y-58557D01*
X105842Y-58520D01*
X105823Y-58482D01*
X105804Y-58407D01*
X105804Y-58351D01*
X105823Y-58276D01*
X105842Y-58239D01*
X105879Y-58201D01*
X105935Y-58182D01*
X105973Y-58182D01*
X106029Y-58201D01*
X106048Y-58220D01*
X106423Y-58576D02*
X106198Y-58576D01*
X106310Y-58576D02*
X106310Y-58182D01*
X106273Y-58239D01*
X106235Y-58276D01*
X106198Y-58295D01*
X106760Y-58314D02*
X106760Y-58576D01*
X106667Y-58164D02*
X106573Y-58445D01*
X106817Y-58445D01*
X105636Y-60053D02*
X105673Y-60053D01*
X105711Y-60071D01*
X105729Y-60090D01*
X105748Y-60128D01*
X105767Y-60203D01*
X105767Y-60296D01*
X105748Y-60371D01*
X105729Y-60409D01*
X105711Y-60428D01*
X105673Y-60446D01*
X105636Y-60446D01*
X105598Y-60428D01*
X105579Y-60409D01*
X105561Y-60371D01*
X105542Y-60296D01*
X105542Y-60203D01*
X105561Y-60128D01*
X105579Y-60090D01*
X105598Y-60071D01*
X105636Y-60053D01*
X105935Y-60409D02*
X105954Y-60428D01*
X105935Y-60446D01*
X105917Y-60428D01*
X105935Y-60409D01*
X105935Y-60446D01*
X106198Y-60053D02*
X106235Y-60053D01*
X106273Y-60071D01*
X106292Y-60090D01*
X106310Y-60128D01*
X106329Y-60203D01*
X106329Y-60296D01*
X106310Y-60371D01*
X106292Y-60409D01*
X106273Y-60428D01*
X106235Y-60446D01*
X106198Y-60446D01*
X106160Y-60428D01*
X106142Y-60409D01*
X106123Y-60371D01*
X106104Y-60296D01*
X106104Y-60203D01*
X106123Y-60128D01*
X106142Y-60090D01*
X106160Y-60071D01*
X106198Y-60053D01*
X106704Y-60446D02*
X106479Y-60446D01*
X106592Y-60446D02*
X106592Y-60053D01*
X106554Y-60109D01*
X106517Y-60146D01*
X106479Y-60165D01*
X107042Y-60184D02*
X107042Y-60446D01*
X106873Y-60184D02*
X106873Y-60390D01*
X106892Y-60428D01*
X106929Y-60446D01*
X106985Y-60446D01*
X107023Y-60428D01*
X107042Y-60409D01*
X105039Y-63951D02*
X105057Y-63970D01*
X105076Y-64026D01*
X105076Y-64064D01*
X105057Y-64120D01*
X105020Y-64157D01*
X104982Y-64176D01*
X104907Y-64195D01*
X104851Y-64195D01*
X104776Y-64176D01*
X104739Y-64157D01*
X104701Y-64120D01*
X104682Y-64064D01*
X104682Y-64026D01*
X104701Y-63970D01*
X104720Y-63951D01*
X105076Y-63576D02*
X105076Y-63801D01*
X105076Y-63689D02*
X104682Y-63689D01*
X104739Y-63726D01*
X104776Y-63764D01*
X104795Y-63801D01*
X104720Y-63426D02*
X104701Y-63407D01*
X104682Y-63370D01*
X104682Y-63276D01*
X104701Y-63239D01*
X104720Y-63220D01*
X104757Y-63201D01*
X104795Y-63201D01*
X104851Y-63220D01*
X105076Y-63445D01*
X105076Y-63201D01*
X106553Y-64363D02*
X106553Y-64326D01*
X106571Y-64288D01*
X106590Y-64270D01*
X106628Y-64251D01*
X106703Y-64232D01*
X106796Y-64232D01*
X106871Y-64251D01*
X106909Y-64270D01*
X106928Y-64288D01*
X106946Y-64326D01*
X106946Y-64363D01*
X106928Y-64401D01*
X106909Y-64420D01*
X106871Y-64438D01*
X106796Y-64457D01*
X106703Y-64457D01*
X106628Y-64438D01*
X106590Y-64420D01*
X106571Y-64401D01*
X106553Y-64363D01*
X106909Y-64064D02*
X106928Y-64045D01*
X106946Y-64064D01*
X106928Y-64082D01*
X106909Y-64064D01*
X106946Y-64064D01*
X106553Y-63801D02*
X106553Y-63764D01*
X106571Y-63726D01*
X106590Y-63707D01*
X106628Y-63689D01*
X106703Y-63670D01*
X106796Y-63670D01*
X106871Y-63689D01*
X106909Y-63707D01*
X106928Y-63726D01*
X106946Y-63764D01*
X106946Y-63801D01*
X106928Y-63839D01*
X106909Y-63857D01*
X106871Y-63876D01*
X106796Y-63895D01*
X106703Y-63895D01*
X106628Y-63876D01*
X106590Y-63857D01*
X106571Y-63839D01*
X106553Y-63801D01*
X106946Y-63295D02*
X106946Y-63520D01*
X106946Y-63407D02*
X106553Y-63407D01*
X106609Y-63445D01*
X106646Y-63482D01*
X106665Y-63520D01*
X106684Y-62957D02*
X106946Y-62957D01*
X106684Y-63126D02*
X106890Y-63126D01*
X106928Y-63107D01*
X106946Y-63070D01*
X106946Y-63014D01*
X106928Y-62976D01*
X106909Y-62957D01*
X111521Y-55253D02*
X111540Y-55271D01*
X111559Y-55328D01*
X111559Y-55365D01*
X111540Y-55421D01*
X111503Y-55459D01*
X111465Y-55478D01*
X111390Y-55496D01*
X111334Y-55496D01*
X111259Y-55478D01*
X111221Y-55459D01*
X111184Y-55421D01*
X111165Y-55365D01*
X111165Y-55328D01*
X111184Y-55271D01*
X111203Y-55253D01*
X111559Y-54878D02*
X111559Y-55103D01*
X111559Y-54990D02*
X111165Y-54990D01*
X111221Y-55028D01*
X111259Y-55065D01*
X111278Y-55103D01*
X111165Y-54746D02*
X111165Y-54484D01*
X111559Y-54653D01*
X111559Y-58253D02*
X111559Y-58478D01*
X111559Y-58365D02*
X111165Y-58365D01*
X111221Y-58403D01*
X111259Y-58440D01*
X111278Y-58478D01*
X111165Y-58009D02*
X111165Y-57971D01*
X111184Y-57934D01*
X111203Y-57915D01*
X111240Y-57896D01*
X111315Y-57878D01*
X111409Y-57878D01*
X111484Y-57896D01*
X111521Y-57915D01*
X111540Y-57934D01*
X111559Y-57971D01*
X111559Y-58009D01*
X111540Y-58046D01*
X111521Y-58065D01*
X111484Y-58084D01*
X111409Y-58103D01*
X111315Y-58103D01*
X111240Y-58084D01*
X111203Y-58065D01*
X111184Y-58046D01*
X111165Y-58009D01*
X111296Y-57540D02*
X111559Y-57540D01*
X111296Y-57709D02*
X111503Y-57709D01*
X111540Y-57690D01*
X111559Y-57653D01*
X111559Y-57596D01*
X111540Y-57559D01*
X111521Y-57540D01*
X106245Y-58304D02*
X106226Y-58323D01*
X106170Y-58342D01*
X106132Y-58342D01*
X106076Y-58323D01*
X106039Y-58285D01*
X106020Y-58248D01*
X106001Y-58173D01*
X106001Y-58117D01*
X106020Y-58042D01*
X106039Y-58004D01*
X106076Y-57967D01*
X106132Y-57948D01*
X106170Y-57948D01*
X106226Y-57967D01*
X106245Y-57985D01*
X106620Y-58342D02*
X106395Y-58342D01*
X106507Y-58342D02*
X106507Y-57948D01*
X106470Y-58004D01*
X106432Y-58042D01*
X106395Y-58060D01*
X106751Y-57948D02*
X106995Y-57948D01*
X106864Y-58098D01*
X106920Y-58098D01*
X106957Y-58117D01*
X106976Y-58135D01*
X106995Y-58173D01*
X106995Y-58267D01*
X106976Y-58304D01*
X106957Y-58323D01*
X106920Y-58342D01*
X106807Y-58342D01*
X106770Y-58323D01*
X106751Y-58304D01*
X105832Y-56078D02*
X105870Y-56078D01*
X105907Y-56097D01*
X105926Y-56115D01*
X105945Y-56153D01*
X105964Y-56228D01*
X105964Y-56321D01*
X105945Y-56396D01*
X105926Y-56434D01*
X105907Y-56453D01*
X105870Y-56471D01*
X105832Y-56471D01*
X105795Y-56453D01*
X105776Y-56434D01*
X105757Y-56396D01*
X105739Y-56321D01*
X105739Y-56228D01*
X105757Y-56153D01*
X105776Y-56115D01*
X105795Y-56097D01*
X105832Y-56078D01*
X106132Y-56434D02*
X106151Y-56453D01*
X106132Y-56471D01*
X106114Y-56453D01*
X106132Y-56434D01*
X106132Y-56471D01*
X106395Y-56078D02*
X106432Y-56078D01*
X106470Y-56097D01*
X106489Y-56115D01*
X106507Y-56153D01*
X106526Y-56228D01*
X106526Y-56321D01*
X106507Y-56396D01*
X106489Y-56434D01*
X106470Y-56453D01*
X106432Y-56471D01*
X106395Y-56471D01*
X106357Y-56453D01*
X106339Y-56434D01*
X106320Y-56396D01*
X106301Y-56321D01*
X106301Y-56228D01*
X106320Y-56153D01*
X106339Y-56115D01*
X106357Y-56097D01*
X106395Y-56078D01*
X106901Y-56471D02*
X106676Y-56471D01*
X106789Y-56471D02*
X106789Y-56078D01*
X106751Y-56134D01*
X106714Y-56171D01*
X106676Y-56190D01*
X107238Y-56209D02*
X107238Y-56471D01*
X107070Y-56209D02*
X107070Y-56415D01*
X107088Y-56453D01*
X107126Y-56471D01*
X107182Y-56471D01*
X107220Y-56453D01*
X107238Y-56434D01*
X107204Y-53054D02*
X107223Y-53073D01*
X107242Y-53129D01*
X107242Y-53167D01*
X107223Y-53223D01*
X107185Y-53260D01*
X107148Y-53279D01*
X107073Y-53298D01*
X107017Y-53298D01*
X106942Y-53279D01*
X106904Y-53260D01*
X106867Y-53223D01*
X106848Y-53167D01*
X106848Y-53129D01*
X106867Y-53073D01*
X106885Y-53054D01*
X107242Y-52679D02*
X107242Y-52904D01*
X107242Y-52792D02*
X106848Y-52792D01*
X106904Y-52829D01*
X106942Y-52867D01*
X106960Y-52904D01*
X107242Y-52304D02*
X107242Y-52529D01*
X107242Y-52417D02*
X106848Y-52417D01*
X106904Y-52454D01*
X106942Y-52492D01*
X106960Y-52529D01*
X104978Y-53467D02*
X104978Y-53429D01*
X104997Y-53392D01*
X105015Y-53373D01*
X105053Y-53354D01*
X105128Y-53335D01*
X105221Y-53335D01*
X105296Y-53354D01*
X105334Y-53373D01*
X105353Y-53392D01*
X105371Y-53429D01*
X105371Y-53467D01*
X105353Y-53504D01*
X105334Y-53523D01*
X105296Y-53542D01*
X105221Y-53560D01*
X105128Y-53560D01*
X105053Y-53542D01*
X105015Y-53523D01*
X104997Y-53504D01*
X104978Y-53467D01*
X105334Y-53167D02*
X105353Y-53148D01*
X105371Y-53167D01*
X105353Y-53185D01*
X105334Y-53167D01*
X105371Y-53167D01*
X104978Y-52904D02*
X104978Y-52867D01*
X104997Y-52829D01*
X105015Y-52810D01*
X105053Y-52792D01*
X105128Y-52773D01*
X105221Y-52773D01*
X105296Y-52792D01*
X105334Y-52810D01*
X105353Y-52829D01*
X105371Y-52867D01*
X105371Y-52904D01*
X105353Y-52942D01*
X105334Y-52960D01*
X105296Y-52979D01*
X105221Y-52998D01*
X105128Y-52998D01*
X105053Y-52979D01*
X105015Y-52960D01*
X104997Y-52942D01*
X104978Y-52904D01*
X105371Y-52398D02*
X105371Y-52623D01*
X105371Y-52510D02*
X104978Y-52510D01*
X105034Y-52548D01*
X105071Y-52585D01*
X105090Y-52623D01*
X105109Y-52061D02*
X105371Y-52061D01*
X105109Y-52229D02*
X105315Y-52229D01*
X105353Y-52211D01*
X105371Y-52173D01*
X105371Y-52117D01*
X105353Y-52079D01*
X105334Y-52061D01*
X65158Y-54037D02*
X65140Y-54056D01*
X65083Y-54075D01*
X65046Y-54075D01*
X64990Y-54056D01*
X64952Y-54018D01*
X64933Y-53981D01*
X64915Y-53906D01*
X64915Y-53850D01*
X64933Y-53775D01*
X64952Y-53737D01*
X64990Y-53700D01*
X65046Y-53681D01*
X65083Y-53681D01*
X65140Y-53700D01*
X65158Y-53718D01*
X65290Y-53681D02*
X65533Y-53681D01*
X65402Y-53831D01*
X65458Y-53831D01*
X65496Y-53850D01*
X65514Y-53868D01*
X65533Y-53906D01*
X65533Y-54000D01*
X65514Y-54037D01*
X65496Y-54056D01*
X65458Y-54075D01*
X65346Y-54075D01*
X65308Y-54056D01*
X65290Y-54037D01*
X65158Y-55945D02*
X64933Y-55945D01*
X65046Y-55945D02*
X65046Y-55551D01*
X65008Y-55607D01*
X64971Y-55645D01*
X64933Y-55663D01*
X65496Y-55682D02*
X65496Y-55945D01*
X65327Y-55682D02*
X65327Y-55888D01*
X65346Y-55926D01*
X65383Y-55945D01*
X65440Y-55945D01*
X65477Y-55926D01*
X65496Y-55907D01*
X61121Y-62565D02*
X61140Y-62584D01*
X61159Y-62640D01*
X61159Y-62678D01*
X61140Y-62734D01*
X61103Y-62771D01*
X61065Y-62790D01*
X60990Y-62809D01*
X60934Y-62809D01*
X60859Y-62790D01*
X60821Y-62771D01*
X60784Y-62734D01*
X60765Y-62678D01*
X60765Y-62640D01*
X60784Y-62584D01*
X60803Y-62565D01*
X60803Y-62415D02*
X60784Y-62396D01*
X60765Y-62359D01*
X60765Y-62265D01*
X60784Y-62228D01*
X60803Y-62209D01*
X60840Y-62190D01*
X60878Y-62190D01*
X60934Y-62209D01*
X61159Y-62434D01*
X61159Y-62190D01*
X61446Y-61963D02*
X61446Y-61925D01*
X61465Y-61888D01*
X61484Y-61869D01*
X61521Y-61850D01*
X61596Y-61831D01*
X61690Y-61831D01*
X61765Y-61850D01*
X61802Y-61869D01*
X61821Y-61888D01*
X61840Y-61925D01*
X61840Y-61963D01*
X61821Y-62000D01*
X61802Y-62019D01*
X61765Y-62038D01*
X61690Y-62056D01*
X61596Y-62056D01*
X61521Y-62038D01*
X61484Y-62019D01*
X61465Y-62000D01*
X61446Y-61963D01*
X61802Y-61663D02*
X61821Y-61644D01*
X61840Y-61663D01*
X61821Y-61681D01*
X61802Y-61663D01*
X61840Y-61663D01*
X61446Y-61400D02*
X61446Y-61363D01*
X61465Y-61325D01*
X61484Y-61307D01*
X61521Y-61288D01*
X61596Y-61269D01*
X61690Y-61269D01*
X61765Y-61288D01*
X61802Y-61307D01*
X61821Y-61325D01*
X61840Y-61363D01*
X61840Y-61400D01*
X61821Y-61438D01*
X61802Y-61456D01*
X61765Y-61475D01*
X61690Y-61494D01*
X61596Y-61494D01*
X61521Y-61475D01*
X61484Y-61456D01*
X61465Y-61438D01*
X61446Y-61400D01*
X61840Y-60894D02*
X61840Y-61119D01*
X61840Y-61007D02*
X61446Y-61007D01*
X61502Y-61044D01*
X61540Y-61082D01*
X61559Y-61119D01*
X61577Y-60557D02*
X61840Y-60557D01*
X61577Y-60725D02*
X61784Y-60725D01*
X61821Y-60707D01*
X61840Y-60669D01*
X61840Y-60613D01*
X61821Y-60575D01*
X61802Y-60557D01*
X59821Y-62565D02*
X59840Y-62584D01*
X59859Y-62640D01*
X59859Y-62678D01*
X59840Y-62734D01*
X59803Y-62771D01*
X59765Y-62790D01*
X59690Y-62809D01*
X59634Y-62809D01*
X59559Y-62790D01*
X59521Y-62771D01*
X59484Y-62734D01*
X59465Y-62678D01*
X59465Y-62640D01*
X59484Y-62584D01*
X59503Y-62565D01*
X59859Y-62190D02*
X59859Y-62415D01*
X59859Y-62303D02*
X59465Y-62303D01*
X59521Y-62340D01*
X59559Y-62378D01*
X59578Y-62415D01*
X60265Y-61775D02*
X60265Y-61738D01*
X60284Y-61700D01*
X60303Y-61681D01*
X60340Y-61663D01*
X60415Y-61644D01*
X60509Y-61644D01*
X60584Y-61663D01*
X60621Y-61681D01*
X60640Y-61700D01*
X60659Y-61738D01*
X60659Y-61775D01*
X60640Y-61813D01*
X60621Y-61831D01*
X60584Y-61850D01*
X60509Y-61869D01*
X60415Y-61869D01*
X60340Y-61850D01*
X60303Y-61831D01*
X60284Y-61813D01*
X60265Y-61775D01*
X60621Y-61475D02*
X60640Y-61456D01*
X60659Y-61475D01*
X60640Y-61494D01*
X60621Y-61475D01*
X60659Y-61475D01*
X60659Y-61082D02*
X60659Y-61307D01*
X60659Y-61194D02*
X60265Y-61194D01*
X60321Y-61232D01*
X60359Y-61269D01*
X60378Y-61307D01*
X60396Y-60744D02*
X60659Y-60744D01*
X60396Y-60913D02*
X60603Y-60913D01*
X60640Y-60894D01*
X60659Y-60857D01*
X60659Y-60800D01*
X60640Y-60763D01*
X60621Y-60744D01*
X109059Y-60534D02*
X108871Y-60665D01*
X109059Y-60759D02*
X108665Y-60759D01*
X108665Y-60609D01*
X108684Y-60571D01*
X108703Y-60553D01*
X108740Y-60534D01*
X108796Y-60534D01*
X108834Y-60553D01*
X108853Y-60571D01*
X108871Y-60609D01*
X108871Y-60759D01*
X108665Y-60421D02*
X109059Y-60290D01*
X108665Y-60159D01*
X108703Y-60046D02*
X108684Y-60028D01*
X108665Y-59990D01*
X108665Y-59896D01*
X108684Y-59859D01*
X108703Y-59840D01*
X108740Y-59821D01*
X108778Y-59821D01*
X108834Y-59840D01*
X109059Y-60065D01*
X109059Y-59821D01*
X108109Y-59434D02*
X108109Y-59659D01*
X108109Y-59546D02*
X107715Y-59546D01*
X107771Y-59584D01*
X107809Y-59621D01*
X107828Y-59659D01*
X107715Y-59190D02*
X107715Y-59153D01*
X107734Y-59115D01*
X107753Y-59096D01*
X107790Y-59078D01*
X107865Y-59059D01*
X107959Y-59059D01*
X108034Y-59078D01*
X108071Y-59096D01*
X108090Y-59115D01*
X108109Y-59153D01*
X108109Y-59190D01*
X108090Y-59228D01*
X108071Y-59246D01*
X108034Y-59265D01*
X107959Y-59284D01*
X107865Y-59284D01*
X107790Y-59265D01*
X107753Y-59246D01*
X107734Y-59228D01*
X107715Y-59190D01*
X108109Y-58890D02*
X107715Y-58890D01*
X107959Y-58853D02*
X108109Y-58740D01*
X107846Y-58740D02*
X107996Y-58890D01*
X109059Y-56534D02*
X108871Y-56665D01*
X109059Y-56759D02*
X108665Y-56759D01*
X108665Y-56609D01*
X108684Y-56571D01*
X108703Y-56553D01*
X108740Y-56534D01*
X108796Y-56534D01*
X108834Y-56553D01*
X108853Y-56571D01*
X108871Y-56609D01*
X108871Y-56759D01*
X108665Y-56421D02*
X109059Y-56290D01*
X108665Y-56159D01*
X109059Y-55821D02*
X109059Y-56046D01*
X109059Y-55934D02*
X108665Y-55934D01*
X108721Y-55971D01*
X108759Y-56009D01*
X108778Y-56046D01*
X108109Y-55434D02*
X108109Y-55659D01*
X108109Y-55546D02*
X107715Y-55546D01*
X107771Y-55584D01*
X107809Y-55621D01*
X107828Y-55659D01*
X107715Y-55190D02*
X107715Y-55153D01*
X107734Y-55115D01*
X107753Y-55096D01*
X107790Y-55078D01*
X107865Y-55059D01*
X107959Y-55059D01*
X108034Y-55078D01*
X108071Y-55096D01*
X108090Y-55115D01*
X108109Y-55153D01*
X108109Y-55190D01*
X108090Y-55228D01*
X108071Y-55246D01*
X108034Y-55265D01*
X107959Y-55284D01*
X107865Y-55284D01*
X107790Y-55265D01*
X107753Y-55246D01*
X107734Y-55228D01*
X107715Y-55190D01*
X108109Y-54890D02*
X107715Y-54890D01*
X107959Y-54853D02*
X108109Y-54740D01*
X107846Y-54740D02*
X107996Y-54890D01*
X62135Y-54164D02*
X62004Y-53976D01*
X61910Y-54164D02*
X61910Y-53770D01*
X62060Y-53770D01*
X62098Y-53789D01*
X62116Y-53807D01*
X62135Y-53845D01*
X62135Y-53901D01*
X62116Y-53939D01*
X62098Y-53957D01*
X62060Y-53976D01*
X61910Y-53976D01*
X62248Y-53770D02*
X62379Y-54164D01*
X62510Y-53770D01*
X62604Y-53770D02*
X62848Y-53770D01*
X62716Y-53920D01*
X62773Y-53920D01*
X62810Y-53939D01*
X62829Y-53957D01*
X62848Y-53995D01*
X62848Y-54089D01*
X62829Y-54126D01*
X62810Y-54145D01*
X62773Y-54164D01*
X62660Y-54164D01*
X62623Y-54145D01*
X62604Y-54126D01*
X61035Y-55114D02*
X60810Y-55114D01*
X60923Y-55114D02*
X60923Y-54720D01*
X60885Y-54776D01*
X60848Y-54814D01*
X60810Y-54832D01*
X61279Y-54720D02*
X61316Y-54720D01*
X61354Y-54739D01*
X61373Y-54757D01*
X61391Y-54795D01*
X61410Y-54870D01*
X61410Y-54964D01*
X61391Y-55039D01*
X61373Y-55076D01*
X61354Y-55095D01*
X61316Y-55114D01*
X61279Y-55114D01*
X61241Y-55095D01*
X61223Y-55076D01*
X61204Y-55039D01*
X61185Y-54964D01*
X61185Y-54870D01*
X61204Y-54795D01*
X61223Y-54757D01*
X61241Y-54739D01*
X61279Y-54720D01*
X61579Y-55114D02*
X61579Y-54720D01*
X61616Y-54964D02*
X61729Y-55114D01*
X61729Y-54851D02*
X61579Y-55001D01*
X77640Y-59547D02*
X77865Y-59547D01*
X77753Y-59941D02*
X77753Y-59547D01*
X78203Y-59941D02*
X77978Y-59941D01*
X78090Y-59941D02*
X78090Y-59547D01*
X78053Y-59603D01*
X78015Y-59641D01*
X77978Y-59660D01*
X76075Y-56181D02*
X76300Y-56181D01*
X76188Y-56575D02*
X76188Y-56181D01*
X76656Y-56575D02*
X76525Y-56387D01*
X76431Y-56575D02*
X76431Y-56181D01*
X76581Y-56181D01*
X76619Y-56200D01*
X76637Y-56218D01*
X76656Y-56256D01*
X76656Y-56312D01*
X76637Y-56350D01*
X76619Y-56368D01*
X76581Y-56387D01*
X76431Y-56387D01*
X76806Y-56462D02*
X76994Y-56462D01*
X76769Y-56575D02*
X76900Y-56181D01*
X77031Y-56575D01*
X77162Y-56575D02*
X77162Y-56181D01*
X77387Y-56575D01*
X77387Y-56181D01*
X77556Y-56556D02*
X77612Y-56575D01*
X77706Y-56575D01*
X77744Y-56556D01*
X77762Y-56537D01*
X77781Y-56500D01*
X77781Y-56462D01*
X77762Y-56425D01*
X77744Y-56406D01*
X77706Y-56387D01*
X77631Y-56368D01*
X77594Y-56350D01*
X77575Y-56331D01*
X77556Y-56293D01*
X77556Y-56256D01*
X77575Y-56218D01*
X77594Y-56200D01*
X77631Y-56181D01*
X77725Y-56181D01*
X77781Y-56200D01*
X78081Y-56368D02*
X77950Y-56368D01*
X77950Y-56575D02*
X77950Y-56181D01*
X78137Y-56181D01*
X78362Y-56181D02*
X78437Y-56181D01*
X78475Y-56200D01*
X78512Y-56237D01*
X78531Y-56312D01*
X78531Y-56443D01*
X78512Y-56518D01*
X78475Y-56556D01*
X78437Y-56575D01*
X78362Y-56575D01*
X78325Y-56556D01*
X78287Y-56518D01*
X78269Y-56443D01*
X78269Y-56312D01*
X78287Y-56237D01*
X78325Y-56200D01*
X78362Y-56181D01*
X78662Y-56181D02*
X78906Y-56181D01*
X78775Y-56331D01*
X78831Y-56331D01*
X78868Y-56350D01*
X78887Y-56368D01*
X78906Y-56406D01*
X78906Y-56500D01*
X78887Y-56537D01*
X78868Y-56556D01*
X78831Y-56575D01*
X78718Y-56575D01*
X78681Y-56556D01*
X78662Y-56537D01*
X79075Y-56425D02*
X79375Y-56425D01*
X79525Y-56181D02*
X79768Y-56181D01*
X79637Y-56331D01*
X79693Y-56331D01*
X79731Y-56350D01*
X79750Y-56368D01*
X79768Y-56406D01*
X79768Y-56500D01*
X79750Y-56537D01*
X79731Y-56556D01*
X79693Y-56575D01*
X79581Y-56575D01*
X79543Y-56556D01*
X79525Y-56537D01*
M02*
