G04 (created by PCBNEW (2013-may-18)-stable) date 2014年01月31日 星期五 10时06分07秒*
%MOIN*%
G04 Gerber Fmt 3.4, Leading zero omitted, Abs format*
%FSLAX34Y34*%
G01*
G70*
G90*
G04 APERTURE LIST*
%ADD10C,0.00590551*%
%ADD11R,0.137795X0.401575*%
%ADD12R,0.401575X0.137795*%
%ADD13R,0.075X0.025*%
%ADD14R,0.055X0.055*%
%ADD15C,0.055*%
%ADD16R,0.0275591X0.0314961*%
%ADD17R,0.05X0.015*%
%ADD18R,0.0629921X0.0787402*%
%ADD19C,0.07*%
%ADD20R,0.07X0.07*%
%ADD21R,0.0984252X0.0866142*%
%ADD22R,0.0787402X0.0433071*%
%ADD23R,0.0433071X0.0787402*%
%ADD24R,0.09X0.02*%
%ADD25R,0.081X0.038*%
%ADD26C,0.035*%
%ADD27C,0.01*%
%ADD28C,0.0590551*%
G04 APERTURE END LIST*
G54D10*
G36*
X38996Y-48622D02*
X38996Y-47047D01*
X39547Y-47047D01*
X39547Y-48622D01*
X38996Y-48622D01*
X38996Y-48622D01*
G37*
G36*
X38996Y-50984D02*
X38996Y-49409D01*
X39547Y-49409D01*
X39547Y-50984D01*
X38996Y-50984D01*
X38996Y-50984D01*
G37*
G36*
X59566Y-57381D02*
X59566Y-55807D01*
X60118Y-55807D01*
X60118Y-57381D01*
X59566Y-57381D01*
X59566Y-57381D01*
G37*
G36*
X59566Y-59744D02*
X59566Y-58169D01*
X60118Y-58169D01*
X60118Y-59744D01*
X59566Y-59744D01*
X59566Y-59744D01*
G37*
G36*
X26102Y-56397D02*
X26102Y-54822D01*
X26653Y-54822D01*
X26653Y-56397D01*
X26102Y-56397D01*
X26102Y-56397D01*
G37*
G36*
X26102Y-58759D02*
X26102Y-57185D01*
X26653Y-57185D01*
X26653Y-58759D01*
X26102Y-58759D01*
X26102Y-58759D01*
G37*
G36*
X48444Y-48622D02*
X48444Y-47047D01*
X48996Y-47047D01*
X48996Y-48622D01*
X48444Y-48622D01*
X48444Y-48622D01*
G37*
G36*
X48444Y-50984D02*
X48444Y-49409D01*
X48996Y-49409D01*
X48996Y-50984D01*
X48444Y-50984D01*
X48444Y-50984D01*
G37*
G36*
X38996Y-57283D02*
X38996Y-55708D01*
X39547Y-55708D01*
X39547Y-57283D01*
X38996Y-57283D01*
X38996Y-57283D01*
G37*
G36*
X38996Y-59645D02*
X38996Y-58070D01*
X39547Y-58070D01*
X39547Y-59645D01*
X38996Y-59645D01*
X38996Y-59645D01*
G37*
G36*
X59566Y-48622D02*
X59566Y-47047D01*
X60118Y-47047D01*
X60118Y-48622D01*
X59566Y-48622D01*
X59566Y-48622D01*
G37*
G36*
X59566Y-50984D02*
X59566Y-49409D01*
X60118Y-49409D01*
X60118Y-50984D01*
X59566Y-50984D01*
X59566Y-50984D01*
G37*
G36*
X48444Y-57283D02*
X48444Y-55708D01*
X48996Y-55708D01*
X48996Y-57283D01*
X48444Y-57283D01*
X48444Y-57283D01*
G37*
G36*
X48444Y-59645D02*
X48444Y-58070D01*
X48996Y-58070D01*
X48996Y-59645D01*
X48444Y-59645D01*
X48444Y-59645D01*
G37*
G54D11*
X42696Y-49015D03*
X45295Y-49015D03*
G54D12*
X26181Y-48011D03*
X26181Y-50610D03*
G54D11*
X53720Y-57775D03*
X56318Y-57775D03*
X33346Y-53149D03*
X35944Y-53149D03*
X53720Y-49015D03*
X56318Y-49015D03*
X42696Y-57677D03*
X45295Y-57677D03*
G54D13*
X12074Y-51399D03*
X12074Y-51899D03*
X12074Y-52399D03*
X12074Y-52899D03*
X12074Y-53399D03*
X12074Y-53899D03*
X12074Y-54399D03*
X12074Y-54899D03*
X16074Y-54899D03*
X16074Y-54399D03*
X16074Y-53899D03*
X16074Y-53399D03*
X16074Y-52899D03*
X16074Y-52399D03*
X16074Y-51899D03*
X16074Y-51399D03*
G54D14*
X37696Y-52149D03*
G54D15*
X37696Y-53149D03*
X37696Y-54149D03*
G54D14*
X62795Y-50779D03*
G54D15*
X62795Y-51779D03*
G54D14*
X18003Y-47736D03*
G54D15*
X19003Y-47736D03*
G54D14*
X51771Y-50779D03*
G54D15*
X51771Y-51779D03*
G54D14*
X74409Y-57980D03*
G54D15*
X74409Y-56980D03*
G54D14*
X74409Y-50287D03*
G54D15*
X74409Y-51287D03*
G54D14*
X29035Y-56389D03*
G54D15*
X29035Y-57389D03*
G54D14*
X23129Y-50795D03*
G54D15*
X23129Y-49795D03*
G54D14*
X23129Y-55503D03*
G54D15*
X23129Y-56503D03*
G54D14*
X18110Y-52370D03*
G54D15*
X18110Y-51370D03*
G54D14*
X18110Y-53929D03*
G54D15*
X18110Y-54929D03*
G54D14*
X62795Y-56208D03*
G54D15*
X62795Y-55208D03*
G54D14*
X51771Y-56208D03*
G54D15*
X51771Y-55208D03*
G54D16*
X19133Y-52362D03*
X19645Y-52362D03*
X19133Y-53937D03*
X19645Y-53937D03*
G54D17*
X66401Y-58159D03*
X66401Y-57903D03*
X66401Y-57647D03*
X66401Y-57391D03*
X64701Y-57391D03*
X64701Y-57647D03*
X64701Y-57903D03*
X64701Y-58159D03*
G54D18*
X65551Y-57775D03*
G54D17*
X66401Y-49399D03*
X66401Y-49143D03*
X66401Y-48887D03*
X66401Y-48631D03*
X64701Y-48631D03*
X64701Y-48887D03*
X64701Y-49143D03*
X64701Y-49399D03*
G54D18*
X65551Y-49015D03*
G54D19*
X21161Y-54413D03*
X21161Y-55413D03*
G54D20*
X21161Y-56413D03*
G54D19*
X21358Y-51787D03*
X21358Y-50787D03*
G54D20*
X21358Y-49787D03*
G54D21*
X35964Y-56692D03*
X34114Y-56692D03*
X34114Y-50000D03*
X35964Y-50000D03*
X35964Y-58661D03*
X34114Y-58661D03*
X34114Y-48031D03*
X35964Y-48031D03*
G54D22*
X71456Y-50314D03*
X71456Y-51456D03*
X72637Y-58051D03*
X72637Y-56909D03*
X71456Y-58051D03*
X71456Y-56909D03*
X67322Y-59133D03*
X67322Y-57992D03*
G54D23*
X63858Y-57677D03*
X62716Y-57677D03*
G54D22*
X72637Y-50314D03*
X72637Y-51456D03*
X67322Y-50374D03*
X67322Y-49232D03*
G54D23*
X63858Y-48917D03*
X62716Y-48917D03*
X17893Y-50098D03*
X16751Y-50098D03*
G54D22*
X12893Y-55728D03*
X12893Y-56870D03*
X11712Y-55728D03*
X11712Y-56870D03*
G54D24*
X68489Y-57972D03*
X70339Y-58972D03*
X70339Y-56972D03*
X68391Y-49212D03*
X70241Y-50212D03*
X70241Y-48212D03*
X10644Y-53937D03*
X8794Y-52937D03*
X8794Y-54937D03*
G54D25*
X28121Y-52149D03*
X28141Y-53149D03*
X28121Y-54149D03*
X31721Y-52149D03*
X31721Y-53149D03*
X31721Y-54149D03*
G54D26*
X16929Y-54724D03*
X16929Y-53149D03*
G54D27*
X16074Y-51899D02*
X16505Y-51899D01*
X16505Y-51899D02*
X17893Y-50511D01*
X17893Y-50511D02*
X17893Y-50098D01*
X19003Y-47736D02*
X19003Y-48988D01*
X19003Y-48988D02*
X17893Y-50098D01*
X19003Y-47736D02*
X25905Y-47736D01*
X25905Y-47736D02*
X26181Y-48011D01*
X16074Y-51899D02*
X15718Y-51899D01*
X15718Y-51899D02*
X15452Y-52165D01*
X15452Y-52165D02*
X15452Y-52559D01*
X15452Y-52559D02*
X15793Y-52899D01*
X15793Y-52899D02*
X16074Y-52899D01*
G54D28*
X12893Y-56870D02*
X16169Y-56870D01*
X16169Y-56870D02*
X18110Y-54929D01*
X11712Y-56870D02*
X12893Y-56870D01*
X8794Y-54937D02*
X9661Y-54937D01*
X9661Y-54937D02*
X10433Y-55708D01*
X10433Y-55708D02*
X10433Y-56397D01*
X10433Y-56397D02*
X10905Y-56870D01*
X10905Y-56870D02*
X11712Y-56870D01*
X26377Y-57972D02*
X22720Y-57972D01*
X22720Y-57972D02*
X21161Y-56413D01*
X26377Y-57972D02*
X28452Y-57972D01*
X28452Y-57972D02*
X29035Y-57389D01*
G54D27*
X16074Y-53399D02*
X16679Y-53399D01*
X16604Y-54399D02*
X16074Y-54399D01*
X16929Y-54724D02*
X16604Y-54399D01*
X16679Y-53399D02*
X16929Y-53149D01*
X21161Y-56413D02*
X21374Y-56413D01*
X22933Y-57972D02*
X26377Y-57972D01*
X21374Y-56413D02*
X22933Y-57972D01*
X26377Y-57972D02*
X28452Y-57972D01*
X28452Y-57972D02*
X29035Y-57389D01*
X72637Y-50314D02*
X74381Y-50314D01*
X74381Y-50314D02*
X74409Y-50287D01*
X71456Y-50314D02*
X72637Y-50314D01*
X70241Y-50212D02*
X71354Y-50212D01*
X71354Y-50212D02*
X71456Y-50314D01*
X67322Y-50374D02*
X70079Y-50374D01*
X70079Y-50374D02*
X70241Y-50212D01*
X66401Y-49399D02*
X66401Y-49452D01*
X66401Y-49452D02*
X67322Y-50374D01*
X19645Y-52362D02*
X20783Y-52362D01*
X20783Y-52362D02*
X21358Y-51787D01*
X19645Y-53937D02*
X20685Y-53937D01*
X20685Y-53937D02*
X21161Y-54413D01*
X31721Y-53149D02*
X33346Y-53149D01*
X16074Y-52399D02*
X18080Y-52399D01*
X18080Y-52399D02*
X18110Y-52370D01*
X18110Y-52370D02*
X19125Y-52370D01*
X19125Y-52370D02*
X19133Y-52362D01*
X72637Y-58051D02*
X74338Y-58051D01*
X74338Y-58051D02*
X74409Y-57980D01*
X71456Y-58051D02*
X72637Y-58051D01*
X70339Y-58972D02*
X70535Y-58972D01*
X70535Y-58972D02*
X71456Y-58051D01*
X67322Y-59133D02*
X70178Y-59133D01*
X70178Y-59133D02*
X70339Y-58972D01*
X66401Y-58159D02*
X66401Y-58212D01*
X66401Y-58212D02*
X67322Y-59133D01*
X63858Y-57677D02*
X64671Y-57677D01*
X64671Y-57677D02*
X64701Y-57647D01*
X63858Y-48917D02*
X64671Y-48917D01*
X64671Y-48917D02*
X64701Y-48887D01*
X63381Y-56795D02*
X63389Y-56795D01*
X64396Y-57086D02*
X64701Y-57391D01*
X63681Y-57086D02*
X64396Y-57086D01*
X63389Y-56795D02*
X63681Y-57086D01*
X64701Y-58159D02*
X64478Y-58159D01*
X63385Y-56799D02*
X63381Y-56795D01*
X63381Y-56795D02*
X62795Y-56208D01*
X63385Y-58169D02*
X63385Y-56799D01*
X63582Y-58366D02*
X63385Y-58169D01*
X64271Y-58366D02*
X63582Y-58366D01*
X64478Y-58159D02*
X64271Y-58366D01*
X59842Y-58956D02*
X60047Y-58956D01*
X60047Y-58956D02*
X62795Y-56208D01*
X59842Y-58956D02*
X57500Y-58956D01*
X57500Y-58956D02*
X56318Y-57775D01*
X51771Y-56208D02*
X52153Y-56208D01*
X52153Y-56208D02*
X53720Y-57775D01*
X48720Y-58858D02*
X49122Y-58858D01*
X49122Y-58858D02*
X51771Y-56208D01*
X48720Y-58858D02*
X46476Y-58858D01*
X46476Y-58858D02*
X45295Y-57677D01*
X67322Y-49232D02*
X68371Y-49232D01*
X68371Y-49232D02*
X68391Y-49212D01*
X66401Y-49143D02*
X67234Y-49143D01*
X67234Y-49143D02*
X67322Y-49232D01*
X12074Y-54899D02*
X12074Y-55366D01*
X12074Y-55366D02*
X11712Y-55728D01*
X12696Y-54133D02*
X12696Y-55531D01*
X12696Y-55531D02*
X12893Y-55728D01*
X12074Y-53399D02*
X12356Y-53399D01*
X12431Y-54399D02*
X12074Y-54399D01*
X12696Y-54133D02*
X12431Y-54399D01*
X12696Y-53740D02*
X12696Y-54133D01*
X12356Y-53399D02*
X12696Y-53740D01*
X8794Y-52937D02*
X9644Y-52937D01*
X9644Y-52937D02*
X10644Y-53937D01*
X10644Y-53937D02*
X12037Y-53937D01*
X12037Y-53937D02*
X12074Y-53899D01*
X29035Y-54330D02*
X29035Y-51870D01*
X27775Y-50610D02*
X26181Y-50610D01*
X29035Y-51870D02*
X27775Y-50610D01*
X29035Y-56389D02*
X29035Y-54330D01*
X29035Y-54330D02*
X29035Y-54043D01*
X29035Y-54043D02*
X28141Y-53149D01*
X26377Y-55610D02*
X28255Y-55610D01*
X28255Y-55610D02*
X29035Y-56389D01*
X63234Y-50340D02*
X63242Y-50340D01*
X64593Y-49507D02*
X64701Y-49399D01*
X64074Y-49507D02*
X64593Y-49507D01*
X63242Y-50340D02*
X64074Y-49507D01*
X64701Y-48631D02*
X64675Y-48631D01*
X63287Y-50287D02*
X63234Y-50340D01*
X63234Y-50340D02*
X62795Y-50779D01*
X63287Y-48425D02*
X63287Y-50287D01*
X63484Y-48228D02*
X63287Y-48425D01*
X64271Y-48228D02*
X63484Y-48228D01*
X64675Y-48631D02*
X64271Y-48228D01*
X59842Y-47834D02*
X59850Y-47834D01*
X59850Y-47834D02*
X62795Y-50779D01*
X59842Y-47834D02*
X57500Y-47834D01*
X57500Y-47834D02*
X56318Y-49015D01*
X16074Y-51399D02*
X15824Y-51399D01*
X15824Y-51399D02*
X15157Y-52066D01*
X15157Y-52066D02*
X15157Y-52657D01*
X15157Y-52657D02*
X15452Y-52952D01*
X15452Y-52952D02*
X15452Y-54527D01*
X15452Y-54527D02*
X15824Y-54899D01*
X15824Y-54899D02*
X16074Y-54899D01*
X12074Y-51399D02*
X16074Y-51399D01*
X12074Y-51899D02*
X12074Y-51399D01*
X67322Y-57992D02*
X68470Y-57992D01*
X68470Y-57992D02*
X68489Y-57972D01*
X66401Y-57903D02*
X67234Y-57903D01*
X67234Y-57903D02*
X67322Y-57992D01*
X51771Y-50779D02*
X51956Y-50779D01*
X51956Y-50779D02*
X53720Y-49015D01*
X48720Y-47834D02*
X48826Y-47834D01*
X48826Y-47834D02*
X51771Y-50779D01*
X48720Y-47834D02*
X46476Y-47834D01*
X46476Y-47834D02*
X45295Y-49015D01*
X23129Y-50795D02*
X23129Y-51476D01*
X23129Y-51476D02*
X23803Y-52149D01*
X23803Y-52149D02*
X28121Y-52149D01*
X21358Y-50787D02*
X23122Y-50787D01*
X23122Y-50787D02*
X23129Y-50795D01*
X34114Y-58661D02*
X34114Y-58129D01*
X31003Y-52866D02*
X31721Y-52149D01*
X31003Y-55019D02*
X31003Y-52866D01*
X34114Y-58129D02*
X31003Y-55019D01*
X34114Y-48031D02*
X34114Y-48366D01*
X31721Y-51644D02*
X31721Y-52149D01*
X33267Y-50098D02*
X31721Y-51644D01*
X33267Y-49212D02*
X33267Y-50098D01*
X34114Y-48366D02*
X33267Y-49212D01*
X34114Y-50000D02*
X34114Y-50255D01*
X34350Y-56456D02*
X34114Y-56692D01*
X34350Y-50492D02*
X34350Y-56456D01*
X34114Y-50255D02*
X34350Y-50492D01*
X31721Y-54149D02*
X31721Y-54851D01*
X33562Y-56692D02*
X34114Y-56692D01*
X31721Y-54851D02*
X33562Y-56692D01*
X28121Y-54149D02*
X24484Y-54149D01*
X24484Y-54149D02*
X23129Y-55503D01*
X21161Y-55413D02*
X23039Y-55413D01*
X23039Y-55413D02*
X23129Y-55503D01*
X16074Y-53899D02*
X18080Y-53899D01*
X18080Y-53899D02*
X18110Y-53929D01*
X18110Y-53929D02*
X19125Y-53929D01*
X19125Y-53929D02*
X19133Y-53937D01*
X39271Y-47834D02*
X41515Y-47834D01*
X41515Y-47834D02*
X42696Y-49015D01*
X35964Y-48031D02*
X39074Y-48031D01*
X39074Y-48031D02*
X39271Y-47834D01*
X35964Y-50000D02*
X36220Y-50000D01*
X37696Y-51476D02*
X37696Y-52149D01*
X36220Y-50000D02*
X37696Y-51476D01*
X35964Y-48031D02*
X35964Y-50000D01*
X39271Y-58858D02*
X41515Y-58858D01*
X41515Y-58858D02*
X42696Y-57677D01*
X35964Y-58661D02*
X39074Y-58661D01*
X39074Y-58661D02*
X39271Y-58858D01*
X35964Y-56692D02*
X35964Y-56456D01*
X37696Y-54724D02*
X37696Y-54149D01*
X35964Y-56456D02*
X37696Y-54724D01*
X35964Y-58661D02*
X35964Y-56692D01*
G54D28*
X74409Y-51287D02*
X74409Y-56980D01*
X60334Y-50196D02*
X60236Y-50295D01*
X60236Y-50295D02*
X60236Y-56594D01*
X48720Y-50196D02*
X49015Y-50196D01*
X49015Y-50196D02*
X49015Y-56496D01*
X49015Y-56496D02*
X49015Y-56102D01*
X49015Y-56102D02*
X49015Y-56496D01*
X48720Y-50196D02*
X48425Y-50196D01*
X48425Y-50196D02*
X48129Y-50492D01*
X48129Y-50492D02*
X48129Y-56496D01*
X59842Y-50196D02*
X60334Y-50196D01*
X59842Y-50196D02*
X59842Y-49803D01*
X59842Y-49803D02*
X59350Y-50295D01*
X59350Y-50295D02*
X59350Y-56102D01*
X59350Y-56102D02*
X59842Y-56594D01*
X59842Y-50196D02*
X59842Y-56594D01*
X35039Y-49606D02*
X35039Y-46850D01*
X35944Y-53149D02*
X35334Y-53149D01*
X35334Y-53149D02*
X35039Y-52854D01*
X35039Y-52854D02*
X35039Y-49606D01*
X35039Y-49606D02*
X35039Y-48818D01*
X35334Y-53149D02*
X35039Y-53444D01*
X35039Y-53444D02*
X35039Y-56791D01*
X35334Y-53149D02*
X34940Y-53543D01*
X34940Y-53543D02*
X34940Y-56003D01*
X34940Y-56003D02*
X35039Y-56102D01*
X37303Y-59547D02*
X37401Y-59547D01*
X35039Y-56102D02*
X35039Y-56791D01*
X35039Y-56791D02*
X35039Y-59744D01*
X35039Y-59744D02*
X35236Y-59940D01*
X35236Y-59940D02*
X36909Y-59940D01*
X36909Y-59940D02*
X37303Y-59547D01*
X37696Y-53149D02*
X35944Y-53149D01*
X39271Y-50196D02*
X38385Y-50196D01*
X38582Y-50393D02*
X38582Y-52165D01*
X38385Y-50196D02*
X38582Y-50393D01*
X39271Y-56496D02*
X38385Y-56496D01*
X38582Y-56299D02*
X38582Y-54035D01*
X38385Y-56496D02*
X38582Y-56299D01*
X39271Y-56496D02*
X40354Y-56496D01*
X43011Y-53838D02*
X43011Y-53149D01*
X40354Y-56496D02*
X43011Y-53838D01*
X39271Y-50196D02*
X40748Y-50196D01*
X40748Y-50196D02*
X41240Y-50688D01*
X41240Y-50688D02*
X41240Y-51377D01*
X41240Y-51377D02*
X43011Y-53149D01*
X43011Y-53149D02*
X44783Y-53149D01*
X39271Y-50196D02*
X39271Y-56496D01*
X48720Y-50196D02*
X48425Y-50196D01*
X48425Y-50196D02*
X45472Y-53149D01*
X48720Y-56496D02*
X48129Y-56496D01*
X48129Y-56496D02*
X44783Y-53149D01*
X44783Y-53149D02*
X44881Y-53149D01*
G54D27*
X37696Y-53149D02*
X44881Y-53149D01*
G54D28*
X48720Y-56496D02*
X49015Y-56496D01*
X50303Y-55208D02*
X51771Y-55208D01*
X49015Y-56496D02*
X49015Y-56496D01*
X49015Y-56496D02*
X50303Y-55208D01*
X48720Y-50196D02*
X49015Y-50196D01*
X50598Y-51779D02*
X51771Y-51779D01*
X49015Y-50196D02*
X50598Y-51779D01*
X48720Y-56496D02*
X48720Y-50196D01*
X59842Y-50196D02*
X60334Y-50196D01*
X61917Y-51779D02*
X62795Y-51779D01*
X60334Y-50196D02*
X61917Y-51779D01*
X59842Y-56594D02*
X60236Y-56594D01*
X60236Y-56594D02*
X61622Y-55208D01*
X61622Y-55208D02*
X62795Y-55208D01*
X71456Y-56909D02*
X71456Y-55905D01*
X72637Y-56909D02*
X72637Y-55905D01*
X72637Y-56909D02*
X71456Y-56909D01*
X70339Y-56972D02*
X70339Y-57317D01*
X68503Y-56496D02*
X68503Y-56299D01*
X69586Y-57578D02*
X68503Y-56496D01*
X70078Y-57578D02*
X69586Y-57578D01*
X70339Y-57317D02*
X70078Y-57578D01*
X70339Y-56972D02*
X70339Y-56299D01*
X70374Y-56299D02*
X69783Y-56299D01*
X70339Y-56299D02*
X70374Y-56299D01*
X65551Y-57775D02*
X65551Y-56692D01*
X66141Y-56102D02*
X67913Y-56102D01*
X65551Y-56692D02*
X66141Y-56102D01*
X65551Y-57775D02*
X65551Y-59645D01*
X65748Y-59842D02*
X65452Y-59842D01*
X65551Y-59645D02*
X65748Y-59842D01*
X65551Y-49015D02*
X65551Y-53149D01*
X65551Y-49015D02*
X65551Y-47637D01*
X65551Y-47637D02*
X65748Y-47637D01*
G54D27*
X66401Y-57647D02*
X65679Y-57647D01*
X65679Y-57647D02*
X65551Y-57775D01*
X66401Y-57391D02*
X66401Y-57647D01*
X66401Y-57391D02*
X65935Y-57391D01*
X65935Y-57391D02*
X65551Y-57775D01*
X66401Y-48631D02*
X65935Y-48631D01*
X65935Y-48631D02*
X65551Y-49015D01*
X66401Y-48887D02*
X65679Y-48887D01*
X65679Y-48887D02*
X65551Y-49015D01*
X69685Y-53149D02*
X70944Y-53149D01*
X70944Y-53149D02*
X72637Y-51456D01*
X62992Y-53149D02*
X65551Y-53149D01*
X65551Y-53149D02*
X66633Y-53149D01*
X66633Y-53149D02*
X69685Y-53149D01*
X69685Y-53149D02*
X69763Y-53149D01*
X69763Y-53149D02*
X71456Y-51456D01*
X62795Y-51779D02*
X62795Y-55208D01*
X66401Y-57391D02*
X66624Y-57391D01*
X66624Y-57391D02*
X67913Y-56102D01*
X67913Y-56102D02*
X68110Y-55905D01*
X68110Y-55905D02*
X71456Y-55905D01*
X71456Y-55905D02*
X72637Y-55905D01*
X72637Y-55905D02*
X73641Y-55905D01*
X66401Y-57391D02*
X67411Y-57391D01*
X67411Y-57391D02*
X68503Y-56299D01*
X71456Y-56909D02*
X71456Y-56496D01*
X71259Y-56299D02*
X69783Y-56299D01*
X71456Y-56496D02*
X71259Y-56299D01*
X69783Y-56299D02*
X68503Y-56299D01*
X62716Y-57677D02*
X62716Y-58385D01*
X64173Y-59842D02*
X65452Y-59842D01*
X63779Y-59448D02*
X64173Y-59842D01*
X62716Y-58385D02*
X63779Y-59448D01*
X65452Y-59842D02*
X67027Y-59842D01*
X75196Y-56299D02*
X74803Y-55905D01*
X75196Y-58661D02*
X75196Y-56299D01*
X74015Y-59842D02*
X75196Y-58661D01*
X67027Y-59842D02*
X74015Y-59842D01*
X74803Y-55905D02*
X73641Y-55905D01*
X73641Y-55905D02*
X72637Y-56909D01*
X66401Y-48631D02*
X67135Y-48631D01*
X69685Y-47657D02*
X70241Y-48212D01*
X68110Y-47657D02*
X69685Y-47657D01*
X67135Y-48631D02*
X68110Y-47657D01*
X66401Y-48631D02*
X66401Y-48887D01*
X62716Y-48917D02*
X62716Y-48307D01*
X63385Y-47637D02*
X65748Y-47637D01*
X62716Y-48307D02*
X63385Y-47637D01*
X65748Y-47637D02*
X66338Y-48228D01*
X66401Y-48290D02*
X66401Y-48631D01*
X66338Y-48228D02*
X66401Y-48290D01*
X56889Y-53149D02*
X56889Y-53641D01*
X56889Y-53641D02*
X59842Y-56594D01*
X45669Y-53149D02*
X56889Y-53149D01*
X56889Y-53149D02*
X59842Y-50196D01*
X37696Y-53149D02*
X45472Y-53149D01*
X45472Y-53149D02*
X45669Y-53149D01*
X45669Y-53149D02*
X45767Y-53149D01*
X45767Y-53149D02*
X48720Y-50196D01*
X38582Y-54035D02*
X37696Y-53149D01*
X37696Y-53051D02*
X37696Y-53149D01*
X38582Y-52165D02*
X37696Y-53051D01*
G54D10*
G36*
X28735Y-52795D02*
X28688Y-52747D01*
X28596Y-52709D01*
X28496Y-52709D01*
X27686Y-52709D01*
X27594Y-52747D01*
X27524Y-52817D01*
X27486Y-52909D01*
X27486Y-53009D01*
X27486Y-53389D01*
X27524Y-53481D01*
X27594Y-53551D01*
X27686Y-53589D01*
X27785Y-53589D01*
X28157Y-53589D01*
X28276Y-53709D01*
X27666Y-53709D01*
X27574Y-53747D01*
X27504Y-53817D01*
X27491Y-53849D01*
X24484Y-53849D01*
X24369Y-53872D01*
X24272Y-53937D01*
X23230Y-54978D01*
X22805Y-54978D01*
X22713Y-55016D01*
X22643Y-55087D01*
X22632Y-55113D01*
X21686Y-55113D01*
X21670Y-55073D01*
X21509Y-54913D01*
X21669Y-54753D01*
X21761Y-54533D01*
X21761Y-54294D01*
X21670Y-54073D01*
X21501Y-53905D01*
X21281Y-53813D01*
X21042Y-53813D01*
X21002Y-53829D01*
X20897Y-53724D01*
X20799Y-53659D01*
X20685Y-53637D01*
X19994Y-53637D01*
X19925Y-53567D01*
X19833Y-53529D01*
X19733Y-53529D01*
X19458Y-53529D01*
X19389Y-53557D01*
X19321Y-53529D01*
X19222Y-53529D01*
X18946Y-53529D01*
X18854Y-53567D01*
X18792Y-53629D01*
X18635Y-53629D01*
X18635Y-53604D01*
X18597Y-53512D01*
X18527Y-53442D01*
X18435Y-53404D01*
X18335Y-53404D01*
X17785Y-53404D01*
X17693Y-53442D01*
X17623Y-53512D01*
X17587Y-53599D01*
X16689Y-53599D01*
X16699Y-53574D01*
X16699Y-53512D01*
X16637Y-53449D01*
X16124Y-53449D01*
X16124Y-53457D01*
X16024Y-53457D01*
X16024Y-53449D01*
X16016Y-53449D01*
X16016Y-53349D01*
X16024Y-53349D01*
X16024Y-53341D01*
X16124Y-53341D01*
X16124Y-53349D01*
X16637Y-53349D01*
X16699Y-53287D01*
X16699Y-53225D01*
X16668Y-53149D01*
X16699Y-53074D01*
X16699Y-52975D01*
X16699Y-52725D01*
X16689Y-52699D01*
X17587Y-52699D01*
X17623Y-52786D01*
X17693Y-52856D01*
X17785Y-52895D01*
X17884Y-52895D01*
X18434Y-52895D01*
X18526Y-52857D01*
X18597Y-52786D01*
X18635Y-52695D01*
X18635Y-52670D01*
X18792Y-52670D01*
X18854Y-52731D01*
X18946Y-52769D01*
X19045Y-52769D01*
X19321Y-52769D01*
X19389Y-52741D01*
X19457Y-52769D01*
X19557Y-52769D01*
X19832Y-52769D01*
X19924Y-52731D01*
X19994Y-52662D01*
X20783Y-52662D01*
X20783Y-52662D01*
X20898Y-52639D01*
X20898Y-52639D01*
X20995Y-52574D01*
X21198Y-52370D01*
X21238Y-52387D01*
X21477Y-52387D01*
X21697Y-52296D01*
X21866Y-52127D01*
X21958Y-51907D01*
X21958Y-51668D01*
X21867Y-51447D01*
X21706Y-51287D01*
X21866Y-51127D01*
X21883Y-51087D01*
X22604Y-51087D01*
X22604Y-51119D01*
X22642Y-51211D01*
X22713Y-51282D01*
X22804Y-51320D01*
X22829Y-51320D01*
X22829Y-51476D01*
X22852Y-51591D01*
X22917Y-51688D01*
X23591Y-52361D01*
X23591Y-52361D01*
X23688Y-52426D01*
X23803Y-52449D01*
X27491Y-52449D01*
X27504Y-52481D01*
X27574Y-52551D01*
X27666Y-52589D01*
X27765Y-52589D01*
X28575Y-52589D01*
X28667Y-52551D01*
X28735Y-52484D01*
X28735Y-52795D01*
X28735Y-52795D01*
G37*
G54D27*
X28735Y-52795D02*
X28688Y-52747D01*
X28596Y-52709D01*
X28496Y-52709D01*
X27686Y-52709D01*
X27594Y-52747D01*
X27524Y-52817D01*
X27486Y-52909D01*
X27486Y-53009D01*
X27486Y-53389D01*
X27524Y-53481D01*
X27594Y-53551D01*
X27686Y-53589D01*
X27785Y-53589D01*
X28157Y-53589D01*
X28276Y-53709D01*
X27666Y-53709D01*
X27574Y-53747D01*
X27504Y-53817D01*
X27491Y-53849D01*
X24484Y-53849D01*
X24369Y-53872D01*
X24272Y-53937D01*
X23230Y-54978D01*
X22805Y-54978D01*
X22713Y-55016D01*
X22643Y-55087D01*
X22632Y-55113D01*
X21686Y-55113D01*
X21670Y-55073D01*
X21509Y-54913D01*
X21669Y-54753D01*
X21761Y-54533D01*
X21761Y-54294D01*
X21670Y-54073D01*
X21501Y-53905D01*
X21281Y-53813D01*
X21042Y-53813D01*
X21002Y-53829D01*
X20897Y-53724D01*
X20799Y-53659D01*
X20685Y-53637D01*
X19994Y-53637D01*
X19925Y-53567D01*
X19833Y-53529D01*
X19733Y-53529D01*
X19458Y-53529D01*
X19389Y-53557D01*
X19321Y-53529D01*
X19222Y-53529D01*
X18946Y-53529D01*
X18854Y-53567D01*
X18792Y-53629D01*
X18635Y-53629D01*
X18635Y-53604D01*
X18597Y-53512D01*
X18527Y-53442D01*
X18435Y-53404D01*
X18335Y-53404D01*
X17785Y-53404D01*
X17693Y-53442D01*
X17623Y-53512D01*
X17587Y-53599D01*
X16689Y-53599D01*
X16699Y-53574D01*
X16699Y-53512D01*
X16637Y-53449D01*
X16124Y-53449D01*
X16124Y-53457D01*
X16024Y-53457D01*
X16024Y-53449D01*
X16016Y-53449D01*
X16016Y-53349D01*
X16024Y-53349D01*
X16024Y-53341D01*
X16124Y-53341D01*
X16124Y-53349D01*
X16637Y-53349D01*
X16699Y-53287D01*
X16699Y-53225D01*
X16668Y-53149D01*
X16699Y-53074D01*
X16699Y-52975D01*
X16699Y-52725D01*
X16689Y-52699D01*
X17587Y-52699D01*
X17623Y-52786D01*
X17693Y-52856D01*
X17785Y-52895D01*
X17884Y-52895D01*
X18434Y-52895D01*
X18526Y-52857D01*
X18597Y-52786D01*
X18635Y-52695D01*
X18635Y-52670D01*
X18792Y-52670D01*
X18854Y-52731D01*
X18946Y-52769D01*
X19045Y-52769D01*
X19321Y-52769D01*
X19389Y-52741D01*
X19457Y-52769D01*
X19557Y-52769D01*
X19832Y-52769D01*
X19924Y-52731D01*
X19994Y-52662D01*
X20783Y-52662D01*
X20783Y-52662D01*
X20898Y-52639D01*
X20898Y-52639D01*
X20995Y-52574D01*
X21198Y-52370D01*
X21238Y-52387D01*
X21477Y-52387D01*
X21697Y-52296D01*
X21866Y-52127D01*
X21958Y-51907D01*
X21958Y-51668D01*
X21867Y-51447D01*
X21706Y-51287D01*
X21866Y-51127D01*
X21883Y-51087D01*
X22604Y-51087D01*
X22604Y-51119D01*
X22642Y-51211D01*
X22713Y-51282D01*
X22804Y-51320D01*
X22829Y-51320D01*
X22829Y-51476D01*
X22852Y-51591D01*
X22917Y-51688D01*
X23591Y-52361D01*
X23591Y-52361D01*
X23688Y-52426D01*
X23803Y-52449D01*
X27491Y-52449D01*
X27504Y-52481D01*
X27574Y-52551D01*
X27666Y-52589D01*
X27765Y-52589D01*
X28575Y-52589D01*
X28667Y-52551D01*
X28735Y-52484D01*
X28735Y-52795D01*
G54D10*
G36*
X29871Y-57853D02*
X29565Y-58159D01*
X29565Y-57465D01*
X29560Y-57376D01*
X29560Y-56615D01*
X29560Y-56065D01*
X29522Y-55973D01*
X29452Y-55902D01*
X29360Y-55864D01*
X29335Y-55864D01*
X29335Y-54330D01*
X29335Y-54043D01*
X29335Y-51870D01*
X29312Y-51755D01*
X29247Y-51657D01*
X29247Y-51657D01*
X28439Y-50849D01*
X28439Y-49871D01*
X28401Y-49779D01*
X28330Y-49709D01*
X28238Y-49671D01*
X28139Y-49671D01*
X24123Y-49671D01*
X24031Y-49709D01*
X23961Y-49779D01*
X23923Y-49871D01*
X23923Y-49970D01*
X23923Y-51348D01*
X23961Y-51440D01*
X24031Y-51511D01*
X24123Y-51549D01*
X24222Y-51549D01*
X28238Y-51549D01*
X28275Y-51534D01*
X28450Y-51709D01*
X27666Y-51709D01*
X27574Y-51747D01*
X27504Y-51817D01*
X27491Y-51849D01*
X23927Y-51849D01*
X23659Y-51582D01*
X23659Y-49871D01*
X23648Y-49662D01*
X23590Y-49522D01*
X23497Y-49498D01*
X23427Y-49568D01*
X23427Y-49427D01*
X23402Y-49334D01*
X23205Y-49265D01*
X22997Y-49276D01*
X22857Y-49334D01*
X22832Y-49427D01*
X23129Y-49724D01*
X23427Y-49427D01*
X23427Y-49568D01*
X23200Y-49795D01*
X23497Y-50092D01*
X23590Y-50068D01*
X23659Y-49871D01*
X23659Y-51582D01*
X23429Y-51352D01*
X23429Y-51320D01*
X23454Y-51320D01*
X23546Y-51282D01*
X23616Y-51212D01*
X23654Y-51120D01*
X23654Y-51020D01*
X23654Y-50470D01*
X23616Y-50378D01*
X23546Y-50308D01*
X23454Y-50270D01*
X23367Y-50270D01*
X23402Y-50255D01*
X23427Y-50163D01*
X23129Y-49865D01*
X23059Y-49936D01*
X23059Y-49795D01*
X22762Y-49498D01*
X22669Y-49522D01*
X22600Y-49719D01*
X22611Y-49928D01*
X22669Y-50068D01*
X22762Y-50092D01*
X23059Y-49795D01*
X23059Y-49936D01*
X22832Y-50163D01*
X22857Y-50255D01*
X22898Y-50270D01*
X22805Y-50270D01*
X22713Y-50308D01*
X22643Y-50378D01*
X22604Y-50470D01*
X22604Y-50487D01*
X21883Y-50487D01*
X21867Y-50447D01*
X21792Y-50373D01*
X21849Y-50349D01*
X21920Y-50279D01*
X21958Y-50187D01*
X21958Y-50087D01*
X21958Y-49486D01*
X21958Y-49387D01*
X21920Y-49295D01*
X21849Y-49225D01*
X21757Y-49187D01*
X21470Y-49187D01*
X21408Y-49249D01*
X21408Y-49737D01*
X21895Y-49737D01*
X21958Y-49674D01*
X21958Y-49486D01*
X21958Y-50087D01*
X21958Y-49899D01*
X21895Y-49837D01*
X21408Y-49837D01*
X21408Y-49845D01*
X21308Y-49845D01*
X21308Y-49837D01*
X21308Y-49737D01*
X21308Y-49249D01*
X21245Y-49187D01*
X20958Y-49187D01*
X20866Y-49225D01*
X20796Y-49295D01*
X20758Y-49387D01*
X20758Y-49486D01*
X20758Y-49674D01*
X20820Y-49737D01*
X21308Y-49737D01*
X21308Y-49837D01*
X20820Y-49837D01*
X20758Y-49899D01*
X20758Y-50087D01*
X20758Y-50187D01*
X20796Y-50279D01*
X20866Y-50349D01*
X20924Y-50373D01*
X20849Y-50447D01*
X20758Y-50667D01*
X20758Y-50906D01*
X20849Y-51126D01*
X21009Y-51287D01*
X20849Y-51447D01*
X20758Y-51667D01*
X20758Y-51906D01*
X20774Y-51946D01*
X20659Y-52062D01*
X19994Y-52062D01*
X19925Y-51992D01*
X19833Y-51954D01*
X19733Y-51954D01*
X19458Y-51954D01*
X19389Y-51983D01*
X19321Y-51954D01*
X19222Y-51954D01*
X18946Y-51954D01*
X18854Y-51992D01*
X18784Y-52062D01*
X18781Y-52070D01*
X18640Y-52070D01*
X18640Y-51445D01*
X18628Y-51237D01*
X18570Y-51097D01*
X18478Y-51072D01*
X18180Y-51370D01*
X18478Y-51667D01*
X18570Y-51642D01*
X18640Y-51445D01*
X18640Y-52070D01*
X18635Y-52070D01*
X18635Y-52045D01*
X18597Y-51953D01*
X18527Y-51883D01*
X18435Y-51845D01*
X18348Y-51845D01*
X18383Y-51830D01*
X18407Y-51737D01*
X18110Y-51440D01*
X17813Y-51737D01*
X17837Y-51830D01*
X17878Y-51845D01*
X17785Y-51845D01*
X17693Y-51883D01*
X17623Y-51953D01*
X17585Y-52045D01*
X17585Y-52099D01*
X16730Y-52099D01*
X17604Y-51225D01*
X17580Y-51294D01*
X17591Y-51502D01*
X17649Y-51642D01*
X17742Y-51667D01*
X18039Y-51370D01*
X18033Y-51364D01*
X18104Y-51293D01*
X18110Y-51299D01*
X18407Y-51002D01*
X18383Y-50909D01*
X18186Y-50840D01*
X17978Y-50851D01*
X18087Y-50742D01*
X18159Y-50742D01*
X18251Y-50704D01*
X18322Y-50633D01*
X18360Y-50542D01*
X18360Y-50442D01*
X18360Y-50056D01*
X19216Y-49200D01*
X19216Y-49200D01*
X19281Y-49102D01*
X19303Y-48988D01*
X19303Y-48988D01*
X19303Y-48178D01*
X19446Y-48036D01*
X23923Y-48036D01*
X23923Y-48750D01*
X23961Y-48842D01*
X24031Y-48912D01*
X24123Y-48950D01*
X24222Y-48950D01*
X28238Y-48950D01*
X28330Y-48912D01*
X28400Y-48842D01*
X28438Y-48750D01*
X28439Y-48651D01*
X28439Y-47273D01*
X28401Y-47181D01*
X28330Y-47111D01*
X28238Y-47072D01*
X28139Y-47072D01*
X24123Y-47072D01*
X24031Y-47110D01*
X23961Y-47181D01*
X23923Y-47272D01*
X23923Y-47372D01*
X23923Y-47436D01*
X19446Y-47436D01*
X19301Y-47291D01*
X19108Y-47211D01*
X18899Y-47211D01*
X18706Y-47290D01*
X18559Y-47438D01*
X18528Y-47511D01*
X18528Y-47510D01*
X18528Y-47411D01*
X18490Y-47319D01*
X18420Y-47249D01*
X18328Y-47211D01*
X18116Y-47211D01*
X18053Y-47273D01*
X18053Y-47686D01*
X18061Y-47686D01*
X18061Y-47786D01*
X18053Y-47786D01*
X18053Y-48198D01*
X18116Y-48261D01*
X18328Y-48261D01*
X18420Y-48223D01*
X18490Y-48153D01*
X18528Y-48061D01*
X18528Y-47961D01*
X18528Y-47961D01*
X18558Y-48033D01*
X18703Y-48178D01*
X18703Y-48863D01*
X18113Y-49454D01*
X18060Y-49454D01*
X17953Y-49454D01*
X17953Y-48198D01*
X17953Y-47786D01*
X17953Y-47686D01*
X17953Y-47273D01*
X17891Y-47211D01*
X17679Y-47211D01*
X17587Y-47249D01*
X17517Y-47319D01*
X17478Y-47411D01*
X17478Y-47510D01*
X17478Y-47623D01*
X17541Y-47686D01*
X17953Y-47686D01*
X17953Y-47786D01*
X17541Y-47786D01*
X17478Y-47848D01*
X17478Y-47961D01*
X17478Y-48061D01*
X17517Y-48153D01*
X17587Y-48223D01*
X17679Y-48261D01*
X17891Y-48261D01*
X17953Y-48198D01*
X17953Y-49454D01*
X17627Y-49454D01*
X17535Y-49492D01*
X17465Y-49562D01*
X17427Y-49654D01*
X17427Y-49754D01*
X17427Y-50541D01*
X17430Y-50550D01*
X17218Y-50762D01*
X17218Y-50442D01*
X17218Y-49754D01*
X17218Y-49654D01*
X17180Y-49562D01*
X17109Y-49492D01*
X17018Y-49454D01*
X16864Y-49454D01*
X16801Y-49517D01*
X16801Y-50048D01*
X17156Y-50048D01*
X17218Y-49985D01*
X17218Y-49754D01*
X17218Y-50442D01*
X17218Y-50210D01*
X17156Y-50148D01*
X16801Y-50148D01*
X16801Y-50679D01*
X16864Y-50742D01*
X17018Y-50742D01*
X17109Y-50704D01*
X17180Y-50633D01*
X17218Y-50542D01*
X17218Y-50442D01*
X17218Y-50762D01*
X16701Y-51279D01*
X16701Y-50679D01*
X16701Y-50148D01*
X16701Y-50048D01*
X16701Y-49517D01*
X16639Y-49454D01*
X16485Y-49454D01*
X16394Y-49492D01*
X16323Y-49562D01*
X16285Y-49654D01*
X16285Y-49754D01*
X16285Y-49985D01*
X16347Y-50048D01*
X16701Y-50048D01*
X16701Y-50148D01*
X16347Y-50148D01*
X16285Y-50210D01*
X16285Y-50442D01*
X16285Y-50542D01*
X16323Y-50633D01*
X16394Y-50704D01*
X16485Y-50742D01*
X16639Y-50742D01*
X16701Y-50679D01*
X16701Y-51279D01*
X16699Y-51281D01*
X16699Y-51225D01*
X16661Y-51133D01*
X16591Y-51062D01*
X16499Y-51024D01*
X16400Y-51024D01*
X15650Y-51024D01*
X15558Y-51062D01*
X15521Y-51099D01*
X12628Y-51099D01*
X12591Y-51062D01*
X12499Y-51024D01*
X12400Y-51024D01*
X11650Y-51024D01*
X11558Y-51062D01*
X11487Y-51132D01*
X11449Y-51224D01*
X11449Y-51324D01*
X11449Y-51574D01*
X11480Y-51649D01*
X11449Y-51724D01*
X11449Y-51824D01*
X11449Y-52074D01*
X11480Y-52149D01*
X11449Y-52224D01*
X11449Y-52324D01*
X11449Y-52574D01*
X11480Y-52649D01*
X11449Y-52724D01*
X11449Y-52824D01*
X11449Y-53074D01*
X11480Y-53149D01*
X11449Y-53224D01*
X11449Y-53324D01*
X11449Y-53574D01*
X11475Y-53637D01*
X11247Y-53637D01*
X11235Y-53625D01*
X11144Y-53587D01*
X11044Y-53586D01*
X10718Y-53586D01*
X9856Y-52724D01*
X9758Y-52659D01*
X9644Y-52637D01*
X9397Y-52637D01*
X9385Y-52625D01*
X9294Y-52587D01*
X9194Y-52586D01*
X8294Y-52586D01*
X8202Y-52624D01*
X8132Y-52695D01*
X8094Y-52787D01*
X8094Y-52886D01*
X8094Y-53086D01*
X8132Y-53178D01*
X8202Y-53248D01*
X8294Y-53286D01*
X8393Y-53287D01*
X9293Y-53287D01*
X9385Y-53249D01*
X9397Y-53237D01*
X9519Y-53237D01*
X9981Y-53698D01*
X9944Y-53787D01*
X9944Y-53886D01*
X9944Y-54086D01*
X9982Y-54178D01*
X10052Y-54248D01*
X10144Y-54286D01*
X10243Y-54287D01*
X11143Y-54287D01*
X11235Y-54249D01*
X11247Y-54237D01*
X11449Y-54237D01*
X11449Y-54324D01*
X11449Y-54574D01*
X11480Y-54649D01*
X11449Y-54724D01*
X11449Y-54824D01*
X11449Y-55074D01*
X11487Y-55166D01*
X11558Y-55236D01*
X11619Y-55261D01*
X11269Y-55261D01*
X11177Y-55299D01*
X11107Y-55370D01*
X11068Y-55461D01*
X11068Y-55561D01*
X11068Y-55994D01*
X11106Y-56086D01*
X11177Y-56156D01*
X11268Y-56194D01*
X11368Y-56194D01*
X12155Y-56194D01*
X12247Y-56156D01*
X12303Y-56101D01*
X12358Y-56156D01*
X12450Y-56194D01*
X12549Y-56194D01*
X13336Y-56194D01*
X13428Y-56156D01*
X13499Y-56086D01*
X13537Y-55994D01*
X13537Y-55895D01*
X13537Y-55462D01*
X13499Y-55370D01*
X13429Y-55299D01*
X13337Y-55261D01*
X13237Y-55261D01*
X12996Y-55261D01*
X12996Y-54133D01*
X12996Y-53740D01*
X12996Y-53740D01*
X12974Y-53625D01*
X12908Y-53528D01*
X12908Y-53528D01*
X12699Y-53318D01*
X12699Y-53225D01*
X12668Y-53149D01*
X12699Y-53074D01*
X12699Y-52975D01*
X12699Y-52725D01*
X12668Y-52649D01*
X12699Y-52574D01*
X12699Y-52475D01*
X12699Y-52225D01*
X12668Y-52149D01*
X12699Y-52074D01*
X12699Y-51975D01*
X12699Y-51725D01*
X12689Y-51699D01*
X15100Y-51699D01*
X14945Y-51854D01*
X14880Y-51952D01*
X14857Y-52066D01*
X14857Y-52657D01*
X14880Y-52772D01*
X14945Y-52869D01*
X15152Y-53077D01*
X15152Y-54527D01*
X15175Y-54642D01*
X15240Y-54739D01*
X15449Y-54948D01*
X15449Y-55074D01*
X15487Y-55166D01*
X15558Y-55236D01*
X15649Y-55274D01*
X15749Y-55274D01*
X16499Y-55274D01*
X16591Y-55236D01*
X16661Y-55166D01*
X16699Y-55074D01*
X16699Y-54975D01*
X16699Y-54725D01*
X16668Y-54649D01*
X16699Y-54574D01*
X16699Y-54512D01*
X16637Y-54449D01*
X16124Y-54449D01*
X16124Y-54457D01*
X16024Y-54457D01*
X16024Y-54449D01*
X16016Y-54449D01*
X16016Y-54349D01*
X16024Y-54349D01*
X16024Y-54341D01*
X16124Y-54341D01*
X16124Y-54349D01*
X16637Y-54349D01*
X16699Y-54287D01*
X16699Y-54225D01*
X16689Y-54199D01*
X17585Y-54199D01*
X17585Y-54253D01*
X17623Y-54345D01*
X17693Y-54415D01*
X17785Y-54454D01*
X17872Y-54454D01*
X17837Y-54468D01*
X17813Y-54561D01*
X18110Y-54858D01*
X18407Y-54561D01*
X18383Y-54468D01*
X18342Y-54454D01*
X18434Y-54454D01*
X18526Y-54416D01*
X18597Y-54345D01*
X18635Y-54254D01*
X18635Y-54229D01*
X18781Y-54229D01*
X18783Y-54235D01*
X18854Y-54306D01*
X18946Y-54344D01*
X19045Y-54344D01*
X19321Y-54344D01*
X19389Y-54316D01*
X19457Y-54344D01*
X19557Y-54344D01*
X19832Y-54344D01*
X19924Y-54306D01*
X19994Y-54237D01*
X20560Y-54237D01*
X20577Y-54254D01*
X20561Y-54293D01*
X20561Y-54532D01*
X20652Y-54752D01*
X20812Y-54913D01*
X20653Y-55073D01*
X20561Y-55293D01*
X20561Y-55532D01*
X20652Y-55752D01*
X20727Y-55827D01*
X20669Y-55851D01*
X20599Y-55921D01*
X20561Y-56013D01*
X20561Y-56112D01*
X20561Y-56300D01*
X20623Y-56363D01*
X21111Y-56363D01*
X21111Y-56355D01*
X21211Y-56355D01*
X21211Y-56363D01*
X21698Y-56363D01*
X21761Y-56300D01*
X21761Y-56112D01*
X21761Y-56013D01*
X21723Y-55921D01*
X21652Y-55851D01*
X21595Y-55827D01*
X21669Y-55753D01*
X21686Y-55713D01*
X22604Y-55713D01*
X22604Y-55828D01*
X22642Y-55920D01*
X22713Y-55990D01*
X22804Y-56028D01*
X22891Y-56028D01*
X22857Y-56043D01*
X22832Y-56136D01*
X23129Y-56433D01*
X23427Y-56136D01*
X23402Y-56043D01*
X23361Y-56028D01*
X23454Y-56028D01*
X23546Y-55991D01*
X23616Y-55920D01*
X23654Y-55828D01*
X23654Y-55729D01*
X23654Y-55403D01*
X24608Y-54449D01*
X27491Y-54449D01*
X27504Y-54481D01*
X27574Y-54551D01*
X27666Y-54589D01*
X27765Y-54589D01*
X28575Y-54589D01*
X28667Y-54551D01*
X28735Y-54484D01*
X28735Y-55665D01*
X28468Y-55398D01*
X28370Y-55333D01*
X28255Y-55310D01*
X26903Y-55310D01*
X26903Y-54773D01*
X26865Y-54681D01*
X26795Y-54611D01*
X26703Y-54572D01*
X26604Y-54572D01*
X26052Y-54572D01*
X25960Y-54610D01*
X25890Y-54681D01*
X25852Y-54772D01*
X25852Y-54872D01*
X25852Y-56447D01*
X25890Y-56539D01*
X25960Y-56609D01*
X26052Y-56647D01*
X26151Y-56647D01*
X26703Y-56647D01*
X26794Y-56609D01*
X26865Y-56539D01*
X26903Y-56447D01*
X26903Y-56348D01*
X26903Y-55910D01*
X28131Y-55910D01*
X28510Y-56288D01*
X28510Y-56714D01*
X28548Y-56806D01*
X28618Y-56876D01*
X28710Y-56914D01*
X28797Y-56914D01*
X28762Y-56929D01*
X28738Y-57021D01*
X29035Y-57319D01*
X29332Y-57021D01*
X29308Y-56929D01*
X29267Y-56914D01*
X29359Y-56914D01*
X29451Y-56876D01*
X29522Y-56806D01*
X29560Y-56714D01*
X29560Y-56615D01*
X29560Y-57376D01*
X29553Y-57257D01*
X29495Y-57116D01*
X29403Y-57092D01*
X29106Y-57389D01*
X29403Y-57686D01*
X29495Y-57662D01*
X29565Y-57465D01*
X29565Y-58159D01*
X29332Y-58392D01*
X29332Y-57757D01*
X29035Y-57460D01*
X28964Y-57531D01*
X28964Y-57389D01*
X28667Y-57092D01*
X28574Y-57116D01*
X28505Y-57313D01*
X28516Y-57522D01*
X28574Y-57662D01*
X28667Y-57686D01*
X28964Y-57389D01*
X28964Y-57531D01*
X28738Y-57757D01*
X28762Y-57850D01*
X28959Y-57919D01*
X29168Y-57908D01*
X29308Y-57850D01*
X29332Y-57757D01*
X29332Y-58392D01*
X28325Y-59398D01*
X26903Y-59398D01*
X26903Y-58710D01*
X26903Y-57135D01*
X26865Y-57043D01*
X26795Y-56973D01*
X26703Y-56935D01*
X26604Y-56934D01*
X26052Y-56934D01*
X25960Y-56972D01*
X25890Y-57043D01*
X25852Y-57135D01*
X25852Y-57234D01*
X25852Y-58809D01*
X25890Y-58901D01*
X25960Y-58971D01*
X26052Y-59009D01*
X26151Y-59009D01*
X26703Y-59009D01*
X26794Y-58971D01*
X26865Y-58901D01*
X26903Y-58809D01*
X26903Y-58710D01*
X26903Y-59398D01*
X23659Y-59398D01*
X23659Y-56579D01*
X23648Y-56371D01*
X23590Y-56231D01*
X23497Y-56206D01*
X23200Y-56503D01*
X23497Y-56801D01*
X23590Y-56776D01*
X23659Y-56579D01*
X23659Y-59398D01*
X23427Y-59398D01*
X23427Y-56871D01*
X23129Y-56574D01*
X23059Y-56645D01*
X23059Y-56503D01*
X22762Y-56206D01*
X22669Y-56231D01*
X22600Y-56428D01*
X22611Y-56636D01*
X22669Y-56776D01*
X22762Y-56801D01*
X23059Y-56503D01*
X23059Y-56645D01*
X22832Y-56871D01*
X22857Y-56964D01*
X23054Y-57033D01*
X23262Y-57022D01*
X23402Y-56964D01*
X23427Y-56871D01*
X23427Y-59398D01*
X21761Y-59398D01*
X21761Y-56713D01*
X21761Y-56525D01*
X21698Y-56463D01*
X21211Y-56463D01*
X21211Y-56950D01*
X21273Y-57013D01*
X21560Y-57013D01*
X21652Y-56975D01*
X21723Y-56905D01*
X21761Y-56813D01*
X21761Y-56713D01*
X21761Y-59398D01*
X21111Y-59398D01*
X21111Y-56950D01*
X21111Y-56463D01*
X20623Y-56463D01*
X20561Y-56525D01*
X20561Y-56713D01*
X20561Y-56813D01*
X20599Y-56905D01*
X20669Y-56975D01*
X20761Y-57013D01*
X21048Y-57013D01*
X21111Y-56950D01*
X21111Y-59398D01*
X18640Y-59398D01*
X18640Y-55004D01*
X18628Y-54796D01*
X18570Y-54656D01*
X18478Y-54632D01*
X18180Y-54929D01*
X18478Y-55226D01*
X18570Y-55201D01*
X18640Y-55004D01*
X18640Y-59398D01*
X18407Y-59398D01*
X18407Y-55296D01*
X18110Y-54999D01*
X18039Y-55070D01*
X18039Y-54929D01*
X17742Y-54632D01*
X17649Y-54656D01*
X17580Y-54853D01*
X17591Y-55061D01*
X17649Y-55201D01*
X17742Y-55226D01*
X18039Y-54929D01*
X18039Y-55070D01*
X17813Y-55296D01*
X17837Y-55389D01*
X18034Y-55459D01*
X18242Y-55447D01*
X18383Y-55389D01*
X18407Y-55296D01*
X18407Y-59398D01*
X13537Y-59398D01*
X13537Y-57136D01*
X13537Y-56604D01*
X13499Y-56512D01*
X13429Y-56441D01*
X13337Y-56403D01*
X13237Y-56403D01*
X13006Y-56403D01*
X12943Y-56466D01*
X12943Y-56820D01*
X13474Y-56820D01*
X13537Y-56757D01*
X13537Y-56604D01*
X13537Y-57136D01*
X13537Y-56982D01*
X13474Y-56920D01*
X12943Y-56920D01*
X12943Y-57274D01*
X13006Y-57336D01*
X13237Y-57336D01*
X13337Y-57336D01*
X13429Y-57298D01*
X13499Y-57228D01*
X13537Y-57136D01*
X13537Y-59398D01*
X12843Y-59398D01*
X12843Y-57274D01*
X12843Y-56920D01*
X12843Y-56820D01*
X12843Y-56466D01*
X12781Y-56403D01*
X12549Y-56403D01*
X12450Y-56403D01*
X12358Y-56441D01*
X12303Y-56496D01*
X12248Y-56441D01*
X12156Y-56403D01*
X12056Y-56403D01*
X11825Y-56403D01*
X11762Y-56466D01*
X11762Y-56820D01*
X12293Y-56820D01*
X12303Y-56810D01*
X12312Y-56820D01*
X12843Y-56820D01*
X12843Y-56920D01*
X12312Y-56920D01*
X12303Y-56929D01*
X12293Y-56920D01*
X11762Y-56920D01*
X11762Y-57274D01*
X11825Y-57336D01*
X12056Y-57336D01*
X12156Y-57336D01*
X12248Y-57298D01*
X12303Y-57243D01*
X12358Y-57298D01*
X12450Y-57336D01*
X12549Y-57336D01*
X12781Y-57336D01*
X12843Y-57274D01*
X12843Y-59398D01*
X11831Y-59398D01*
X11662Y-59229D01*
X11662Y-57274D01*
X11662Y-56920D01*
X11662Y-56820D01*
X11662Y-56466D01*
X11600Y-56403D01*
X11368Y-56403D01*
X11268Y-56403D01*
X11177Y-56441D01*
X11106Y-56512D01*
X11068Y-56604D01*
X11068Y-56757D01*
X11131Y-56820D01*
X11662Y-56820D01*
X11662Y-56920D01*
X11131Y-56920D01*
X11068Y-56982D01*
X11068Y-57136D01*
X11106Y-57228D01*
X11177Y-57298D01*
X11268Y-57336D01*
X11368Y-57336D01*
X11600Y-57336D01*
X11662Y-57274D01*
X11662Y-59229D01*
X9494Y-57061D01*
X9494Y-55086D01*
X9494Y-54787D01*
X9456Y-54695D01*
X9385Y-54625D01*
X9294Y-54587D01*
X9194Y-54586D01*
X8906Y-54587D01*
X8844Y-54649D01*
X8844Y-54887D01*
X9431Y-54887D01*
X9494Y-54824D01*
X9494Y-54787D01*
X9494Y-55086D01*
X9494Y-55049D01*
X9431Y-54987D01*
X8844Y-54987D01*
X8844Y-55224D01*
X8906Y-55287D01*
X9194Y-55287D01*
X9294Y-55286D01*
X9385Y-55248D01*
X9456Y-55178D01*
X9494Y-55086D01*
X9494Y-57061D01*
X8744Y-56311D01*
X8744Y-55224D01*
X8744Y-54987D01*
X8744Y-54887D01*
X8744Y-54649D01*
X8681Y-54587D01*
X8393Y-54586D01*
X8294Y-54587D01*
X8202Y-54625D01*
X8132Y-54695D01*
X8094Y-54787D01*
X8094Y-54824D01*
X8156Y-54887D01*
X8744Y-54887D01*
X8744Y-54987D01*
X8156Y-54987D01*
X8094Y-55049D01*
X8094Y-55086D01*
X8132Y-55178D01*
X8202Y-55248D01*
X8294Y-55286D01*
X8393Y-55287D01*
X8681Y-55287D01*
X8744Y-55224D01*
X8744Y-56311D01*
X7924Y-55491D01*
X7924Y-52382D01*
X13406Y-46900D01*
X28719Y-46900D01*
X29477Y-47658D01*
X29477Y-55138D01*
X29871Y-55532D01*
X29871Y-57853D01*
X29871Y-57853D01*
G37*
G54D27*
X29871Y-57853D02*
X29565Y-58159D01*
X29565Y-57465D01*
X29560Y-57376D01*
X29560Y-56615D01*
X29560Y-56065D01*
X29522Y-55973D01*
X29452Y-55902D01*
X29360Y-55864D01*
X29335Y-55864D01*
X29335Y-54330D01*
X29335Y-54043D01*
X29335Y-51870D01*
X29312Y-51755D01*
X29247Y-51657D01*
X29247Y-51657D01*
X28439Y-50849D01*
X28439Y-49871D01*
X28401Y-49779D01*
X28330Y-49709D01*
X28238Y-49671D01*
X28139Y-49671D01*
X24123Y-49671D01*
X24031Y-49709D01*
X23961Y-49779D01*
X23923Y-49871D01*
X23923Y-49970D01*
X23923Y-51348D01*
X23961Y-51440D01*
X24031Y-51511D01*
X24123Y-51549D01*
X24222Y-51549D01*
X28238Y-51549D01*
X28275Y-51534D01*
X28450Y-51709D01*
X27666Y-51709D01*
X27574Y-51747D01*
X27504Y-51817D01*
X27491Y-51849D01*
X23927Y-51849D01*
X23659Y-51582D01*
X23659Y-49871D01*
X23648Y-49662D01*
X23590Y-49522D01*
X23497Y-49498D01*
X23427Y-49568D01*
X23427Y-49427D01*
X23402Y-49334D01*
X23205Y-49265D01*
X22997Y-49276D01*
X22857Y-49334D01*
X22832Y-49427D01*
X23129Y-49724D01*
X23427Y-49427D01*
X23427Y-49568D01*
X23200Y-49795D01*
X23497Y-50092D01*
X23590Y-50068D01*
X23659Y-49871D01*
X23659Y-51582D01*
X23429Y-51352D01*
X23429Y-51320D01*
X23454Y-51320D01*
X23546Y-51282D01*
X23616Y-51212D01*
X23654Y-51120D01*
X23654Y-51020D01*
X23654Y-50470D01*
X23616Y-50378D01*
X23546Y-50308D01*
X23454Y-50270D01*
X23367Y-50270D01*
X23402Y-50255D01*
X23427Y-50163D01*
X23129Y-49865D01*
X23059Y-49936D01*
X23059Y-49795D01*
X22762Y-49498D01*
X22669Y-49522D01*
X22600Y-49719D01*
X22611Y-49928D01*
X22669Y-50068D01*
X22762Y-50092D01*
X23059Y-49795D01*
X23059Y-49936D01*
X22832Y-50163D01*
X22857Y-50255D01*
X22898Y-50270D01*
X22805Y-50270D01*
X22713Y-50308D01*
X22643Y-50378D01*
X22604Y-50470D01*
X22604Y-50487D01*
X21883Y-50487D01*
X21867Y-50447D01*
X21792Y-50373D01*
X21849Y-50349D01*
X21920Y-50279D01*
X21958Y-50187D01*
X21958Y-50087D01*
X21958Y-49486D01*
X21958Y-49387D01*
X21920Y-49295D01*
X21849Y-49225D01*
X21757Y-49187D01*
X21470Y-49187D01*
X21408Y-49249D01*
X21408Y-49737D01*
X21895Y-49737D01*
X21958Y-49674D01*
X21958Y-49486D01*
X21958Y-50087D01*
X21958Y-49899D01*
X21895Y-49837D01*
X21408Y-49837D01*
X21408Y-49845D01*
X21308Y-49845D01*
X21308Y-49837D01*
X21308Y-49737D01*
X21308Y-49249D01*
X21245Y-49187D01*
X20958Y-49187D01*
X20866Y-49225D01*
X20796Y-49295D01*
X20758Y-49387D01*
X20758Y-49486D01*
X20758Y-49674D01*
X20820Y-49737D01*
X21308Y-49737D01*
X21308Y-49837D01*
X20820Y-49837D01*
X20758Y-49899D01*
X20758Y-50087D01*
X20758Y-50187D01*
X20796Y-50279D01*
X20866Y-50349D01*
X20924Y-50373D01*
X20849Y-50447D01*
X20758Y-50667D01*
X20758Y-50906D01*
X20849Y-51126D01*
X21009Y-51287D01*
X20849Y-51447D01*
X20758Y-51667D01*
X20758Y-51906D01*
X20774Y-51946D01*
X20659Y-52062D01*
X19994Y-52062D01*
X19925Y-51992D01*
X19833Y-51954D01*
X19733Y-51954D01*
X19458Y-51954D01*
X19389Y-51983D01*
X19321Y-51954D01*
X19222Y-51954D01*
X18946Y-51954D01*
X18854Y-51992D01*
X18784Y-52062D01*
X18781Y-52070D01*
X18640Y-52070D01*
X18640Y-51445D01*
X18628Y-51237D01*
X18570Y-51097D01*
X18478Y-51072D01*
X18180Y-51370D01*
X18478Y-51667D01*
X18570Y-51642D01*
X18640Y-51445D01*
X18640Y-52070D01*
X18635Y-52070D01*
X18635Y-52045D01*
X18597Y-51953D01*
X18527Y-51883D01*
X18435Y-51845D01*
X18348Y-51845D01*
X18383Y-51830D01*
X18407Y-51737D01*
X18110Y-51440D01*
X17813Y-51737D01*
X17837Y-51830D01*
X17878Y-51845D01*
X17785Y-51845D01*
X17693Y-51883D01*
X17623Y-51953D01*
X17585Y-52045D01*
X17585Y-52099D01*
X16730Y-52099D01*
X17604Y-51225D01*
X17580Y-51294D01*
X17591Y-51502D01*
X17649Y-51642D01*
X17742Y-51667D01*
X18039Y-51370D01*
X18033Y-51364D01*
X18104Y-51293D01*
X18110Y-51299D01*
X18407Y-51002D01*
X18383Y-50909D01*
X18186Y-50840D01*
X17978Y-50851D01*
X18087Y-50742D01*
X18159Y-50742D01*
X18251Y-50704D01*
X18322Y-50633D01*
X18360Y-50542D01*
X18360Y-50442D01*
X18360Y-50056D01*
X19216Y-49200D01*
X19216Y-49200D01*
X19281Y-49102D01*
X19303Y-48988D01*
X19303Y-48988D01*
X19303Y-48178D01*
X19446Y-48036D01*
X23923Y-48036D01*
X23923Y-48750D01*
X23961Y-48842D01*
X24031Y-48912D01*
X24123Y-48950D01*
X24222Y-48950D01*
X28238Y-48950D01*
X28330Y-48912D01*
X28400Y-48842D01*
X28438Y-48750D01*
X28439Y-48651D01*
X28439Y-47273D01*
X28401Y-47181D01*
X28330Y-47111D01*
X28238Y-47072D01*
X28139Y-47072D01*
X24123Y-47072D01*
X24031Y-47110D01*
X23961Y-47181D01*
X23923Y-47272D01*
X23923Y-47372D01*
X23923Y-47436D01*
X19446Y-47436D01*
X19301Y-47291D01*
X19108Y-47211D01*
X18899Y-47211D01*
X18706Y-47290D01*
X18559Y-47438D01*
X18528Y-47511D01*
X18528Y-47510D01*
X18528Y-47411D01*
X18490Y-47319D01*
X18420Y-47249D01*
X18328Y-47211D01*
X18116Y-47211D01*
X18053Y-47273D01*
X18053Y-47686D01*
X18061Y-47686D01*
X18061Y-47786D01*
X18053Y-47786D01*
X18053Y-48198D01*
X18116Y-48261D01*
X18328Y-48261D01*
X18420Y-48223D01*
X18490Y-48153D01*
X18528Y-48061D01*
X18528Y-47961D01*
X18528Y-47961D01*
X18558Y-48033D01*
X18703Y-48178D01*
X18703Y-48863D01*
X18113Y-49454D01*
X18060Y-49454D01*
X17953Y-49454D01*
X17953Y-48198D01*
X17953Y-47786D01*
X17953Y-47686D01*
X17953Y-47273D01*
X17891Y-47211D01*
X17679Y-47211D01*
X17587Y-47249D01*
X17517Y-47319D01*
X17478Y-47411D01*
X17478Y-47510D01*
X17478Y-47623D01*
X17541Y-47686D01*
X17953Y-47686D01*
X17953Y-47786D01*
X17541Y-47786D01*
X17478Y-47848D01*
X17478Y-47961D01*
X17478Y-48061D01*
X17517Y-48153D01*
X17587Y-48223D01*
X17679Y-48261D01*
X17891Y-48261D01*
X17953Y-48198D01*
X17953Y-49454D01*
X17627Y-49454D01*
X17535Y-49492D01*
X17465Y-49562D01*
X17427Y-49654D01*
X17427Y-49754D01*
X17427Y-50541D01*
X17430Y-50550D01*
X17218Y-50762D01*
X17218Y-50442D01*
X17218Y-49754D01*
X17218Y-49654D01*
X17180Y-49562D01*
X17109Y-49492D01*
X17018Y-49454D01*
X16864Y-49454D01*
X16801Y-49517D01*
X16801Y-50048D01*
X17156Y-50048D01*
X17218Y-49985D01*
X17218Y-49754D01*
X17218Y-50442D01*
X17218Y-50210D01*
X17156Y-50148D01*
X16801Y-50148D01*
X16801Y-50679D01*
X16864Y-50742D01*
X17018Y-50742D01*
X17109Y-50704D01*
X17180Y-50633D01*
X17218Y-50542D01*
X17218Y-50442D01*
X17218Y-50762D01*
X16701Y-51279D01*
X16701Y-50679D01*
X16701Y-50148D01*
X16701Y-50048D01*
X16701Y-49517D01*
X16639Y-49454D01*
X16485Y-49454D01*
X16394Y-49492D01*
X16323Y-49562D01*
X16285Y-49654D01*
X16285Y-49754D01*
X16285Y-49985D01*
X16347Y-50048D01*
X16701Y-50048D01*
X16701Y-50148D01*
X16347Y-50148D01*
X16285Y-50210D01*
X16285Y-50442D01*
X16285Y-50542D01*
X16323Y-50633D01*
X16394Y-50704D01*
X16485Y-50742D01*
X16639Y-50742D01*
X16701Y-50679D01*
X16701Y-51279D01*
X16699Y-51281D01*
X16699Y-51225D01*
X16661Y-51133D01*
X16591Y-51062D01*
X16499Y-51024D01*
X16400Y-51024D01*
X15650Y-51024D01*
X15558Y-51062D01*
X15521Y-51099D01*
X12628Y-51099D01*
X12591Y-51062D01*
X12499Y-51024D01*
X12400Y-51024D01*
X11650Y-51024D01*
X11558Y-51062D01*
X11487Y-51132D01*
X11449Y-51224D01*
X11449Y-51324D01*
X11449Y-51574D01*
X11480Y-51649D01*
X11449Y-51724D01*
X11449Y-51824D01*
X11449Y-52074D01*
X11480Y-52149D01*
X11449Y-52224D01*
X11449Y-52324D01*
X11449Y-52574D01*
X11480Y-52649D01*
X11449Y-52724D01*
X11449Y-52824D01*
X11449Y-53074D01*
X11480Y-53149D01*
X11449Y-53224D01*
X11449Y-53324D01*
X11449Y-53574D01*
X11475Y-53637D01*
X11247Y-53637D01*
X11235Y-53625D01*
X11144Y-53587D01*
X11044Y-53586D01*
X10718Y-53586D01*
X9856Y-52724D01*
X9758Y-52659D01*
X9644Y-52637D01*
X9397Y-52637D01*
X9385Y-52625D01*
X9294Y-52587D01*
X9194Y-52586D01*
X8294Y-52586D01*
X8202Y-52624D01*
X8132Y-52695D01*
X8094Y-52787D01*
X8094Y-52886D01*
X8094Y-53086D01*
X8132Y-53178D01*
X8202Y-53248D01*
X8294Y-53286D01*
X8393Y-53287D01*
X9293Y-53287D01*
X9385Y-53249D01*
X9397Y-53237D01*
X9519Y-53237D01*
X9981Y-53698D01*
X9944Y-53787D01*
X9944Y-53886D01*
X9944Y-54086D01*
X9982Y-54178D01*
X10052Y-54248D01*
X10144Y-54286D01*
X10243Y-54287D01*
X11143Y-54287D01*
X11235Y-54249D01*
X11247Y-54237D01*
X11449Y-54237D01*
X11449Y-54324D01*
X11449Y-54574D01*
X11480Y-54649D01*
X11449Y-54724D01*
X11449Y-54824D01*
X11449Y-55074D01*
X11487Y-55166D01*
X11558Y-55236D01*
X11619Y-55261D01*
X11269Y-55261D01*
X11177Y-55299D01*
X11107Y-55370D01*
X11068Y-55461D01*
X11068Y-55561D01*
X11068Y-55994D01*
X11106Y-56086D01*
X11177Y-56156D01*
X11268Y-56194D01*
X11368Y-56194D01*
X12155Y-56194D01*
X12247Y-56156D01*
X12303Y-56101D01*
X12358Y-56156D01*
X12450Y-56194D01*
X12549Y-56194D01*
X13336Y-56194D01*
X13428Y-56156D01*
X13499Y-56086D01*
X13537Y-55994D01*
X13537Y-55895D01*
X13537Y-55462D01*
X13499Y-55370D01*
X13429Y-55299D01*
X13337Y-55261D01*
X13237Y-55261D01*
X12996Y-55261D01*
X12996Y-54133D01*
X12996Y-53740D01*
X12996Y-53740D01*
X12974Y-53625D01*
X12908Y-53528D01*
X12908Y-53528D01*
X12699Y-53318D01*
X12699Y-53225D01*
X12668Y-53149D01*
X12699Y-53074D01*
X12699Y-52975D01*
X12699Y-52725D01*
X12668Y-52649D01*
X12699Y-52574D01*
X12699Y-52475D01*
X12699Y-52225D01*
X12668Y-52149D01*
X12699Y-52074D01*
X12699Y-51975D01*
X12699Y-51725D01*
X12689Y-51699D01*
X15100Y-51699D01*
X14945Y-51854D01*
X14880Y-51952D01*
X14857Y-52066D01*
X14857Y-52657D01*
X14880Y-52772D01*
X14945Y-52869D01*
X15152Y-53077D01*
X15152Y-54527D01*
X15175Y-54642D01*
X15240Y-54739D01*
X15449Y-54948D01*
X15449Y-55074D01*
X15487Y-55166D01*
X15558Y-55236D01*
X15649Y-55274D01*
X15749Y-55274D01*
X16499Y-55274D01*
X16591Y-55236D01*
X16661Y-55166D01*
X16699Y-55074D01*
X16699Y-54975D01*
X16699Y-54725D01*
X16668Y-54649D01*
X16699Y-54574D01*
X16699Y-54512D01*
X16637Y-54449D01*
X16124Y-54449D01*
X16124Y-54457D01*
X16024Y-54457D01*
X16024Y-54449D01*
X16016Y-54449D01*
X16016Y-54349D01*
X16024Y-54349D01*
X16024Y-54341D01*
X16124Y-54341D01*
X16124Y-54349D01*
X16637Y-54349D01*
X16699Y-54287D01*
X16699Y-54225D01*
X16689Y-54199D01*
X17585Y-54199D01*
X17585Y-54253D01*
X17623Y-54345D01*
X17693Y-54415D01*
X17785Y-54454D01*
X17872Y-54454D01*
X17837Y-54468D01*
X17813Y-54561D01*
X18110Y-54858D01*
X18407Y-54561D01*
X18383Y-54468D01*
X18342Y-54454D01*
X18434Y-54454D01*
X18526Y-54416D01*
X18597Y-54345D01*
X18635Y-54254D01*
X18635Y-54229D01*
X18781Y-54229D01*
X18783Y-54235D01*
X18854Y-54306D01*
X18946Y-54344D01*
X19045Y-54344D01*
X19321Y-54344D01*
X19389Y-54316D01*
X19457Y-54344D01*
X19557Y-54344D01*
X19832Y-54344D01*
X19924Y-54306D01*
X19994Y-54237D01*
X20560Y-54237D01*
X20577Y-54254D01*
X20561Y-54293D01*
X20561Y-54532D01*
X20652Y-54752D01*
X20812Y-54913D01*
X20653Y-55073D01*
X20561Y-55293D01*
X20561Y-55532D01*
X20652Y-55752D01*
X20727Y-55827D01*
X20669Y-55851D01*
X20599Y-55921D01*
X20561Y-56013D01*
X20561Y-56112D01*
X20561Y-56300D01*
X20623Y-56363D01*
X21111Y-56363D01*
X21111Y-56355D01*
X21211Y-56355D01*
X21211Y-56363D01*
X21698Y-56363D01*
X21761Y-56300D01*
X21761Y-56112D01*
X21761Y-56013D01*
X21723Y-55921D01*
X21652Y-55851D01*
X21595Y-55827D01*
X21669Y-55753D01*
X21686Y-55713D01*
X22604Y-55713D01*
X22604Y-55828D01*
X22642Y-55920D01*
X22713Y-55990D01*
X22804Y-56028D01*
X22891Y-56028D01*
X22857Y-56043D01*
X22832Y-56136D01*
X23129Y-56433D01*
X23427Y-56136D01*
X23402Y-56043D01*
X23361Y-56028D01*
X23454Y-56028D01*
X23546Y-55991D01*
X23616Y-55920D01*
X23654Y-55828D01*
X23654Y-55729D01*
X23654Y-55403D01*
X24608Y-54449D01*
X27491Y-54449D01*
X27504Y-54481D01*
X27574Y-54551D01*
X27666Y-54589D01*
X27765Y-54589D01*
X28575Y-54589D01*
X28667Y-54551D01*
X28735Y-54484D01*
X28735Y-55665D01*
X28468Y-55398D01*
X28370Y-55333D01*
X28255Y-55310D01*
X26903Y-55310D01*
X26903Y-54773D01*
X26865Y-54681D01*
X26795Y-54611D01*
X26703Y-54572D01*
X26604Y-54572D01*
X26052Y-54572D01*
X25960Y-54610D01*
X25890Y-54681D01*
X25852Y-54772D01*
X25852Y-54872D01*
X25852Y-56447D01*
X25890Y-56539D01*
X25960Y-56609D01*
X26052Y-56647D01*
X26151Y-56647D01*
X26703Y-56647D01*
X26794Y-56609D01*
X26865Y-56539D01*
X26903Y-56447D01*
X26903Y-56348D01*
X26903Y-55910D01*
X28131Y-55910D01*
X28510Y-56288D01*
X28510Y-56714D01*
X28548Y-56806D01*
X28618Y-56876D01*
X28710Y-56914D01*
X28797Y-56914D01*
X28762Y-56929D01*
X28738Y-57021D01*
X29035Y-57319D01*
X29332Y-57021D01*
X29308Y-56929D01*
X29267Y-56914D01*
X29359Y-56914D01*
X29451Y-56876D01*
X29522Y-56806D01*
X29560Y-56714D01*
X29560Y-56615D01*
X29560Y-57376D01*
X29553Y-57257D01*
X29495Y-57116D01*
X29403Y-57092D01*
X29106Y-57389D01*
X29403Y-57686D01*
X29495Y-57662D01*
X29565Y-57465D01*
X29565Y-58159D01*
X29332Y-58392D01*
X29332Y-57757D01*
X29035Y-57460D01*
X28964Y-57531D01*
X28964Y-57389D01*
X28667Y-57092D01*
X28574Y-57116D01*
X28505Y-57313D01*
X28516Y-57522D01*
X28574Y-57662D01*
X28667Y-57686D01*
X28964Y-57389D01*
X28964Y-57531D01*
X28738Y-57757D01*
X28762Y-57850D01*
X28959Y-57919D01*
X29168Y-57908D01*
X29308Y-57850D01*
X29332Y-57757D01*
X29332Y-58392D01*
X28325Y-59398D01*
X26903Y-59398D01*
X26903Y-58710D01*
X26903Y-57135D01*
X26865Y-57043D01*
X26795Y-56973D01*
X26703Y-56935D01*
X26604Y-56934D01*
X26052Y-56934D01*
X25960Y-56972D01*
X25890Y-57043D01*
X25852Y-57135D01*
X25852Y-57234D01*
X25852Y-58809D01*
X25890Y-58901D01*
X25960Y-58971D01*
X26052Y-59009D01*
X26151Y-59009D01*
X26703Y-59009D01*
X26794Y-58971D01*
X26865Y-58901D01*
X26903Y-58809D01*
X26903Y-58710D01*
X26903Y-59398D01*
X23659Y-59398D01*
X23659Y-56579D01*
X23648Y-56371D01*
X23590Y-56231D01*
X23497Y-56206D01*
X23200Y-56503D01*
X23497Y-56801D01*
X23590Y-56776D01*
X23659Y-56579D01*
X23659Y-59398D01*
X23427Y-59398D01*
X23427Y-56871D01*
X23129Y-56574D01*
X23059Y-56645D01*
X23059Y-56503D01*
X22762Y-56206D01*
X22669Y-56231D01*
X22600Y-56428D01*
X22611Y-56636D01*
X22669Y-56776D01*
X22762Y-56801D01*
X23059Y-56503D01*
X23059Y-56645D01*
X22832Y-56871D01*
X22857Y-56964D01*
X23054Y-57033D01*
X23262Y-57022D01*
X23402Y-56964D01*
X23427Y-56871D01*
X23427Y-59398D01*
X21761Y-59398D01*
X21761Y-56713D01*
X21761Y-56525D01*
X21698Y-56463D01*
X21211Y-56463D01*
X21211Y-56950D01*
X21273Y-57013D01*
X21560Y-57013D01*
X21652Y-56975D01*
X21723Y-56905D01*
X21761Y-56813D01*
X21761Y-56713D01*
X21761Y-59398D01*
X21111Y-59398D01*
X21111Y-56950D01*
X21111Y-56463D01*
X20623Y-56463D01*
X20561Y-56525D01*
X20561Y-56713D01*
X20561Y-56813D01*
X20599Y-56905D01*
X20669Y-56975D01*
X20761Y-57013D01*
X21048Y-57013D01*
X21111Y-56950D01*
X21111Y-59398D01*
X18640Y-59398D01*
X18640Y-55004D01*
X18628Y-54796D01*
X18570Y-54656D01*
X18478Y-54632D01*
X18180Y-54929D01*
X18478Y-55226D01*
X18570Y-55201D01*
X18640Y-55004D01*
X18640Y-59398D01*
X18407Y-59398D01*
X18407Y-55296D01*
X18110Y-54999D01*
X18039Y-55070D01*
X18039Y-54929D01*
X17742Y-54632D01*
X17649Y-54656D01*
X17580Y-54853D01*
X17591Y-55061D01*
X17649Y-55201D01*
X17742Y-55226D01*
X18039Y-54929D01*
X18039Y-55070D01*
X17813Y-55296D01*
X17837Y-55389D01*
X18034Y-55459D01*
X18242Y-55447D01*
X18383Y-55389D01*
X18407Y-55296D01*
X18407Y-59398D01*
X13537Y-59398D01*
X13537Y-57136D01*
X13537Y-56604D01*
X13499Y-56512D01*
X13429Y-56441D01*
X13337Y-56403D01*
X13237Y-56403D01*
X13006Y-56403D01*
X12943Y-56466D01*
X12943Y-56820D01*
X13474Y-56820D01*
X13537Y-56757D01*
X13537Y-56604D01*
X13537Y-57136D01*
X13537Y-56982D01*
X13474Y-56920D01*
X12943Y-56920D01*
X12943Y-57274D01*
X13006Y-57336D01*
X13237Y-57336D01*
X13337Y-57336D01*
X13429Y-57298D01*
X13499Y-57228D01*
X13537Y-57136D01*
X13537Y-59398D01*
X12843Y-59398D01*
X12843Y-57274D01*
X12843Y-56920D01*
X12843Y-56820D01*
X12843Y-56466D01*
X12781Y-56403D01*
X12549Y-56403D01*
X12450Y-56403D01*
X12358Y-56441D01*
X12303Y-56496D01*
X12248Y-56441D01*
X12156Y-56403D01*
X12056Y-56403D01*
X11825Y-56403D01*
X11762Y-56466D01*
X11762Y-56820D01*
X12293Y-56820D01*
X12303Y-56810D01*
X12312Y-56820D01*
X12843Y-56820D01*
X12843Y-56920D01*
X12312Y-56920D01*
X12303Y-56929D01*
X12293Y-56920D01*
X11762Y-56920D01*
X11762Y-57274D01*
X11825Y-57336D01*
X12056Y-57336D01*
X12156Y-57336D01*
X12248Y-57298D01*
X12303Y-57243D01*
X12358Y-57298D01*
X12450Y-57336D01*
X12549Y-57336D01*
X12781Y-57336D01*
X12843Y-57274D01*
X12843Y-59398D01*
X11831Y-59398D01*
X11662Y-59229D01*
X11662Y-57274D01*
X11662Y-56920D01*
X11662Y-56820D01*
X11662Y-56466D01*
X11600Y-56403D01*
X11368Y-56403D01*
X11268Y-56403D01*
X11177Y-56441D01*
X11106Y-56512D01*
X11068Y-56604D01*
X11068Y-56757D01*
X11131Y-56820D01*
X11662Y-56820D01*
X11662Y-56920D01*
X11131Y-56920D01*
X11068Y-56982D01*
X11068Y-57136D01*
X11106Y-57228D01*
X11177Y-57298D01*
X11268Y-57336D01*
X11368Y-57336D01*
X11600Y-57336D01*
X11662Y-57274D01*
X11662Y-59229D01*
X9494Y-57061D01*
X9494Y-55086D01*
X9494Y-54787D01*
X9456Y-54695D01*
X9385Y-54625D01*
X9294Y-54587D01*
X9194Y-54586D01*
X8906Y-54587D01*
X8844Y-54649D01*
X8844Y-54887D01*
X9431Y-54887D01*
X9494Y-54824D01*
X9494Y-54787D01*
X9494Y-55086D01*
X9494Y-55049D01*
X9431Y-54987D01*
X8844Y-54987D01*
X8844Y-55224D01*
X8906Y-55287D01*
X9194Y-55287D01*
X9294Y-55286D01*
X9385Y-55248D01*
X9456Y-55178D01*
X9494Y-55086D01*
X9494Y-57061D01*
X8744Y-56311D01*
X8744Y-55224D01*
X8744Y-54987D01*
X8744Y-54887D01*
X8744Y-54649D01*
X8681Y-54587D01*
X8393Y-54586D01*
X8294Y-54587D01*
X8202Y-54625D01*
X8132Y-54695D01*
X8094Y-54787D01*
X8094Y-54824D01*
X8156Y-54887D01*
X8744Y-54887D01*
X8744Y-54987D01*
X8156Y-54987D01*
X8094Y-55049D01*
X8094Y-55086D01*
X8132Y-55178D01*
X8202Y-55248D01*
X8294Y-55286D01*
X8393Y-55287D01*
X8681Y-55287D01*
X8744Y-55224D01*
X8744Y-56311D01*
X7924Y-55491D01*
X7924Y-52382D01*
X13406Y-46900D01*
X28719Y-46900D01*
X29477Y-47658D01*
X29477Y-55138D01*
X29871Y-55532D01*
X29871Y-57853D01*
G54D10*
G36*
X75540Y-58640D02*
X74939Y-59241D01*
X74939Y-57056D01*
X74939Y-51363D01*
X74934Y-51273D01*
X74934Y-50512D01*
X74934Y-49962D01*
X74896Y-49870D01*
X74826Y-49800D01*
X74734Y-49762D01*
X74634Y-49762D01*
X74084Y-49762D01*
X73993Y-49800D01*
X73922Y-49870D01*
X73884Y-49962D01*
X73884Y-50014D01*
X73267Y-50014D01*
X73243Y-49956D01*
X73173Y-49886D01*
X73081Y-49848D01*
X72981Y-49848D01*
X72194Y-49848D01*
X72102Y-49886D01*
X72047Y-49941D01*
X71992Y-49886D01*
X71900Y-49848D01*
X71800Y-49848D01*
X71013Y-49848D01*
X70941Y-49878D01*
X70941Y-48362D01*
X70941Y-48063D01*
X70903Y-47971D01*
X70833Y-47900D01*
X70741Y-47862D01*
X70641Y-47862D01*
X70353Y-47862D01*
X70291Y-47925D01*
X70291Y-48162D01*
X70878Y-48162D01*
X70941Y-48100D01*
X70941Y-48063D01*
X70941Y-48362D01*
X70941Y-48325D01*
X70878Y-48262D01*
X70291Y-48262D01*
X70291Y-48500D01*
X70353Y-48562D01*
X70641Y-48562D01*
X70741Y-48562D01*
X70833Y-48524D01*
X70903Y-48454D01*
X70941Y-48362D01*
X70941Y-49878D01*
X70921Y-49886D01*
X70895Y-49912D01*
X70844Y-49912D01*
X70833Y-49900D01*
X70741Y-49862D01*
X70641Y-49862D01*
X70191Y-49862D01*
X70191Y-48500D01*
X70191Y-48262D01*
X70191Y-48162D01*
X70191Y-47925D01*
X70128Y-47862D01*
X69840Y-47862D01*
X69741Y-47862D01*
X69649Y-47900D01*
X69579Y-47971D01*
X69541Y-48063D01*
X69541Y-48100D01*
X69603Y-48162D01*
X70191Y-48162D01*
X70191Y-48262D01*
X69603Y-48262D01*
X69541Y-48325D01*
X69541Y-48362D01*
X69579Y-48454D01*
X69649Y-48524D01*
X69741Y-48562D01*
X69840Y-48562D01*
X70128Y-48562D01*
X70191Y-48500D01*
X70191Y-49862D01*
X69741Y-49862D01*
X69649Y-49900D01*
X69579Y-49970D01*
X69541Y-50062D01*
X69541Y-50074D01*
X67952Y-50074D01*
X67928Y-50016D01*
X67858Y-49945D01*
X67766Y-49907D01*
X67667Y-49907D01*
X67280Y-49907D01*
X67071Y-49698D01*
X67766Y-49698D01*
X67857Y-49660D01*
X67928Y-49590D01*
X67939Y-49562D01*
X67990Y-49562D01*
X68890Y-49562D01*
X68982Y-49524D01*
X69053Y-49454D01*
X69091Y-49362D01*
X69091Y-49263D01*
X69091Y-49063D01*
X69053Y-48971D01*
X68983Y-48900D01*
X68891Y-48862D01*
X68791Y-48862D01*
X67916Y-48862D01*
X67858Y-48803D01*
X67766Y-48765D01*
X67667Y-48765D01*
X66901Y-48765D01*
X66901Y-48763D01*
X66899Y-48759D01*
X66901Y-48756D01*
X66901Y-48731D01*
X66879Y-48709D01*
X66863Y-48671D01*
X66792Y-48600D01*
X66776Y-48594D01*
X66838Y-48594D01*
X66901Y-48531D01*
X66901Y-48507D01*
X66863Y-48415D01*
X66792Y-48344D01*
X66701Y-48306D01*
X66601Y-48306D01*
X66513Y-48306D01*
X66451Y-48369D01*
X66451Y-48594D01*
X66482Y-48594D01*
X66451Y-48625D01*
X66451Y-48669D01*
X66451Y-48689D01*
X66351Y-48689D01*
X66351Y-48669D01*
X66351Y-48625D01*
X66343Y-48617D01*
X66343Y-48594D01*
X66351Y-48594D01*
X66351Y-48369D01*
X66288Y-48306D01*
X66200Y-48306D01*
X66101Y-48306D01*
X66009Y-48344D01*
X65962Y-48391D01*
X65916Y-48372D01*
X65816Y-48372D01*
X65663Y-48372D01*
X65601Y-48434D01*
X65601Y-48965D01*
X65609Y-48965D01*
X65609Y-49065D01*
X65601Y-49065D01*
X65601Y-49596D01*
X65663Y-49659D01*
X65816Y-49659D01*
X65916Y-49659D01*
X65962Y-49639D01*
X66009Y-49686D01*
X66101Y-49724D01*
X66200Y-49724D01*
X66249Y-49724D01*
X66679Y-50154D01*
X66679Y-50206D01*
X66679Y-50640D01*
X66717Y-50731D01*
X66787Y-50802D01*
X66879Y-50840D01*
X66978Y-50840D01*
X67766Y-50840D01*
X67857Y-50802D01*
X67928Y-50732D01*
X67952Y-50674D01*
X70079Y-50674D01*
X70079Y-50674D01*
X70194Y-50651D01*
X70194Y-50651D01*
X70292Y-50586D01*
X70315Y-50562D01*
X70740Y-50562D01*
X70812Y-50532D01*
X70812Y-50581D01*
X70850Y-50672D01*
X70921Y-50743D01*
X71013Y-50781D01*
X71112Y-50781D01*
X71899Y-50781D01*
X71991Y-50743D01*
X72047Y-50688D01*
X72102Y-50743D01*
X72194Y-50781D01*
X72293Y-50781D01*
X73081Y-50781D01*
X73172Y-50743D01*
X73243Y-50673D01*
X73267Y-50614D01*
X73885Y-50614D01*
X73922Y-50703D01*
X73992Y-50774D01*
X74084Y-50812D01*
X74171Y-50812D01*
X74136Y-50826D01*
X74112Y-50919D01*
X74409Y-51216D01*
X74706Y-50919D01*
X74682Y-50826D01*
X74641Y-50812D01*
X74733Y-50812D01*
X74825Y-50774D01*
X74896Y-50704D01*
X74934Y-50612D01*
X74934Y-50512D01*
X74934Y-51273D01*
X74928Y-51154D01*
X74869Y-51014D01*
X74777Y-50990D01*
X74480Y-51287D01*
X74777Y-51584D01*
X74869Y-51560D01*
X74939Y-51363D01*
X74939Y-57056D01*
X74928Y-56847D01*
X74869Y-56707D01*
X74777Y-56683D01*
X74706Y-56753D01*
X74706Y-56612D01*
X74706Y-51655D01*
X74409Y-51358D01*
X74338Y-51428D01*
X74338Y-51287D01*
X74041Y-50990D01*
X73948Y-51014D01*
X73879Y-51211D01*
X73890Y-51420D01*
X73948Y-51560D01*
X74041Y-51584D01*
X74338Y-51287D01*
X74338Y-51428D01*
X74112Y-51655D01*
X74136Y-51747D01*
X74333Y-51817D01*
X74542Y-51805D01*
X74682Y-51747D01*
X74706Y-51655D01*
X74706Y-56612D01*
X74682Y-56519D01*
X74485Y-56450D01*
X74276Y-56461D01*
X74136Y-56519D01*
X74112Y-56612D01*
X74409Y-56909D01*
X74706Y-56612D01*
X74706Y-56753D01*
X74480Y-56980D01*
X74777Y-57277D01*
X74869Y-57253D01*
X74939Y-57056D01*
X74939Y-59241D01*
X74934Y-59246D01*
X74934Y-58205D01*
X74934Y-57655D01*
X74896Y-57563D01*
X74826Y-57493D01*
X74734Y-57455D01*
X74647Y-57455D01*
X74682Y-57440D01*
X74706Y-57348D01*
X74409Y-57051D01*
X74338Y-57121D01*
X74338Y-56980D01*
X74041Y-56683D01*
X73948Y-56707D01*
X73879Y-56904D01*
X73890Y-57113D01*
X73948Y-57253D01*
X74041Y-57277D01*
X74338Y-56980D01*
X74338Y-57121D01*
X74112Y-57348D01*
X74136Y-57440D01*
X74177Y-57455D01*
X74084Y-57455D01*
X73993Y-57493D01*
X73922Y-57563D01*
X73884Y-57655D01*
X73884Y-57751D01*
X73281Y-57751D01*
X73281Y-57175D01*
X73281Y-56643D01*
X73281Y-51722D01*
X73281Y-51190D01*
X73243Y-51098D01*
X73173Y-51028D01*
X73081Y-50990D01*
X72981Y-50990D01*
X72750Y-50990D01*
X72687Y-51052D01*
X72687Y-51406D01*
X73218Y-51406D01*
X73281Y-51344D01*
X73281Y-51190D01*
X73281Y-51722D01*
X73281Y-51569D01*
X73218Y-51506D01*
X72687Y-51506D01*
X72687Y-51860D01*
X72750Y-51923D01*
X72981Y-51923D01*
X73081Y-51923D01*
X73173Y-51885D01*
X73243Y-51814D01*
X73281Y-51722D01*
X73281Y-56643D01*
X73243Y-56551D01*
X73173Y-56481D01*
X73081Y-56442D01*
X72981Y-56442D01*
X72750Y-56442D01*
X72687Y-56505D01*
X72687Y-56859D01*
X73218Y-56859D01*
X73281Y-56796D01*
X73281Y-56643D01*
X73281Y-57175D01*
X73281Y-57021D01*
X73218Y-56959D01*
X72687Y-56959D01*
X72687Y-57313D01*
X72750Y-57375D01*
X72981Y-57376D01*
X73081Y-57375D01*
X73173Y-57337D01*
X73243Y-57267D01*
X73281Y-57175D01*
X73281Y-57751D01*
X73267Y-57751D01*
X73243Y-57693D01*
X73173Y-57622D01*
X73081Y-57584D01*
X72981Y-57584D01*
X72587Y-57584D01*
X72587Y-57313D01*
X72587Y-56959D01*
X72587Y-56859D01*
X72587Y-56505D01*
X72587Y-51860D01*
X72587Y-51506D01*
X72587Y-51406D01*
X72587Y-51052D01*
X72525Y-50990D01*
X72293Y-50990D01*
X72194Y-50990D01*
X72102Y-51028D01*
X72047Y-51083D01*
X71992Y-51028D01*
X71900Y-50990D01*
X71800Y-50990D01*
X71569Y-50990D01*
X71506Y-51052D01*
X71506Y-51406D01*
X72037Y-51406D01*
X72047Y-51397D01*
X72056Y-51406D01*
X72587Y-51406D01*
X72587Y-51506D01*
X72056Y-51506D01*
X72047Y-51516D01*
X72037Y-51506D01*
X71506Y-51506D01*
X71506Y-51860D01*
X71569Y-51923D01*
X71800Y-51923D01*
X71900Y-51923D01*
X71992Y-51885D01*
X72047Y-51829D01*
X72102Y-51885D01*
X72194Y-51923D01*
X72293Y-51923D01*
X72525Y-51923D01*
X72587Y-51860D01*
X72587Y-56505D01*
X72525Y-56442D01*
X72293Y-56442D01*
X72194Y-56442D01*
X72102Y-56481D01*
X72047Y-56536D01*
X71992Y-56481D01*
X71900Y-56442D01*
X71800Y-56442D01*
X71569Y-56442D01*
X71506Y-56505D01*
X71506Y-56859D01*
X72037Y-56859D01*
X72047Y-56850D01*
X72056Y-56859D01*
X72587Y-56859D01*
X72587Y-56959D01*
X72056Y-56959D01*
X72047Y-56968D01*
X72037Y-56959D01*
X71506Y-56959D01*
X71506Y-57313D01*
X71569Y-57375D01*
X71800Y-57376D01*
X71900Y-57375D01*
X71992Y-57337D01*
X72047Y-57282D01*
X72102Y-57337D01*
X72194Y-57375D01*
X72293Y-57376D01*
X72525Y-57375D01*
X72587Y-57313D01*
X72587Y-57584D01*
X72194Y-57584D01*
X72102Y-57622D01*
X72047Y-57677D01*
X71992Y-57622D01*
X71900Y-57584D01*
X71800Y-57584D01*
X71406Y-57584D01*
X71406Y-57313D01*
X71406Y-56959D01*
X71398Y-56959D01*
X71398Y-56859D01*
X71406Y-56859D01*
X71406Y-56505D01*
X71406Y-51860D01*
X71406Y-51506D01*
X71406Y-51406D01*
X71406Y-51052D01*
X71344Y-50990D01*
X71112Y-50990D01*
X71013Y-50990D01*
X70921Y-51028D01*
X70850Y-51098D01*
X70812Y-51190D01*
X70812Y-51344D01*
X70875Y-51406D01*
X71406Y-51406D01*
X71406Y-51506D01*
X70875Y-51506D01*
X70812Y-51569D01*
X70812Y-51722D01*
X70850Y-51814D01*
X70921Y-51885D01*
X71013Y-51923D01*
X71112Y-51923D01*
X71344Y-51923D01*
X71406Y-51860D01*
X71406Y-56505D01*
X71344Y-56442D01*
X71112Y-56442D01*
X71013Y-56442D01*
X70921Y-56481D01*
X70850Y-56551D01*
X70821Y-56622D01*
X70740Y-56622D01*
X70452Y-56622D01*
X70389Y-56684D01*
X70389Y-56922D01*
X70397Y-56922D01*
X70397Y-57022D01*
X70389Y-57022D01*
X70389Y-57259D01*
X70452Y-57322D01*
X70740Y-57322D01*
X70839Y-57322D01*
X70886Y-57302D01*
X70921Y-57337D01*
X71013Y-57375D01*
X71112Y-57376D01*
X71344Y-57375D01*
X71406Y-57313D01*
X71406Y-57584D01*
X71013Y-57584D01*
X70921Y-57622D01*
X70851Y-57692D01*
X70813Y-57784D01*
X70812Y-57884D01*
X70812Y-58270D01*
X70461Y-58622D01*
X70289Y-58622D01*
X70289Y-57259D01*
X70289Y-57022D01*
X70289Y-56922D01*
X70289Y-56684D01*
X70227Y-56622D01*
X69939Y-56622D01*
X69839Y-56622D01*
X69747Y-56660D01*
X69677Y-56731D01*
X69639Y-56822D01*
X69639Y-56859D01*
X69702Y-56922D01*
X70289Y-56922D01*
X70289Y-57022D01*
X69702Y-57022D01*
X69639Y-57084D01*
X69639Y-57121D01*
X69677Y-57213D01*
X69747Y-57284D01*
X69839Y-57322D01*
X69939Y-57322D01*
X70227Y-57322D01*
X70289Y-57259D01*
X70289Y-58622D01*
X69840Y-58622D01*
X69748Y-58660D01*
X69677Y-58730D01*
X69639Y-58822D01*
X69639Y-58833D01*
X67952Y-58833D01*
X67928Y-58775D01*
X67858Y-58705D01*
X67766Y-58667D01*
X67667Y-58667D01*
X67280Y-58667D01*
X67071Y-58458D01*
X67766Y-58458D01*
X67857Y-58420D01*
X67928Y-58350D01*
X67947Y-58304D01*
X67989Y-58322D01*
X68089Y-58322D01*
X68989Y-58322D01*
X69081Y-58284D01*
X69151Y-58214D01*
X69189Y-58122D01*
X69189Y-58022D01*
X69189Y-57822D01*
X69151Y-57731D01*
X69081Y-57660D01*
X68989Y-57622D01*
X68890Y-57622D01*
X67990Y-57622D01*
X67933Y-57645D01*
X67928Y-57634D01*
X67858Y-57563D01*
X67766Y-57525D01*
X67667Y-57525D01*
X66901Y-57525D01*
X66901Y-57523D01*
X66899Y-57519D01*
X66901Y-57516D01*
X66901Y-57491D01*
X66879Y-57469D01*
X66863Y-57431D01*
X66792Y-57360D01*
X66776Y-57354D01*
X66838Y-57354D01*
X66901Y-57291D01*
X66901Y-57267D01*
X66863Y-57175D01*
X66792Y-57104D01*
X66701Y-57066D01*
X66601Y-57066D01*
X66513Y-57066D01*
X66451Y-57129D01*
X66451Y-57354D01*
X66482Y-57354D01*
X66451Y-57385D01*
X66451Y-57429D01*
X66451Y-57449D01*
X66351Y-57449D01*
X66351Y-57429D01*
X66351Y-57385D01*
X66343Y-57377D01*
X66343Y-57354D01*
X66351Y-57354D01*
X66351Y-57129D01*
X66288Y-57066D01*
X66200Y-57066D01*
X66101Y-57066D01*
X66009Y-57104D01*
X65962Y-57151D01*
X65916Y-57131D01*
X65816Y-57131D01*
X65663Y-57131D01*
X65601Y-57194D01*
X65601Y-57725D01*
X65609Y-57725D01*
X65609Y-57825D01*
X65601Y-57825D01*
X65601Y-58356D01*
X65663Y-58419D01*
X65816Y-58419D01*
X65916Y-58419D01*
X65962Y-58399D01*
X66009Y-58446D01*
X66101Y-58484D01*
X66200Y-58484D01*
X66249Y-58484D01*
X66679Y-58914D01*
X66679Y-58966D01*
X66679Y-59399D01*
X66717Y-59491D01*
X66787Y-59562D01*
X66879Y-59600D01*
X66978Y-59600D01*
X67766Y-59600D01*
X67857Y-59562D01*
X67928Y-59492D01*
X67952Y-59433D01*
X70178Y-59433D01*
X70178Y-59433D01*
X70293Y-59411D01*
X70293Y-59411D01*
X70390Y-59345D01*
X70413Y-59322D01*
X70839Y-59322D01*
X70931Y-59284D01*
X71001Y-59214D01*
X71039Y-59122D01*
X71039Y-59022D01*
X71039Y-58892D01*
X71414Y-58517D01*
X71899Y-58517D01*
X71991Y-58479D01*
X72047Y-58424D01*
X72102Y-58479D01*
X72194Y-58517D01*
X72293Y-58517D01*
X73081Y-58517D01*
X73172Y-58479D01*
X73243Y-58409D01*
X73267Y-58351D01*
X73903Y-58351D01*
X73922Y-58396D01*
X73992Y-58467D01*
X74084Y-58505D01*
X74183Y-58505D01*
X74733Y-58505D01*
X74825Y-58467D01*
X74896Y-58397D01*
X74934Y-58305D01*
X74934Y-58205D01*
X74934Y-59246D01*
X73995Y-60186D01*
X65501Y-60186D01*
X65501Y-58356D01*
X65501Y-57825D01*
X65493Y-57825D01*
X65493Y-57725D01*
X65501Y-57725D01*
X65501Y-57194D01*
X65501Y-49596D01*
X65501Y-49065D01*
X65493Y-49065D01*
X65493Y-48965D01*
X65501Y-48965D01*
X65501Y-48434D01*
X65438Y-48372D01*
X65285Y-48372D01*
X65186Y-48372D01*
X65139Y-48391D01*
X65092Y-48344D01*
X65001Y-48306D01*
X64901Y-48306D01*
X64774Y-48306D01*
X64483Y-48016D01*
X64386Y-47951D01*
X64271Y-47928D01*
X63484Y-47928D01*
X63369Y-47951D01*
X63272Y-48016D01*
X63075Y-48213D01*
X63023Y-48290D01*
X62982Y-48273D01*
X62829Y-48273D01*
X62766Y-48336D01*
X62766Y-48867D01*
X62774Y-48867D01*
X62774Y-48967D01*
X62766Y-48967D01*
X62766Y-49498D01*
X62829Y-49561D01*
X62982Y-49561D01*
X62987Y-49559D01*
X62987Y-50163D01*
X62896Y-50254D01*
X62694Y-50254D01*
X62666Y-50226D01*
X62666Y-49498D01*
X62666Y-48967D01*
X62666Y-48867D01*
X62666Y-48336D01*
X62604Y-48273D01*
X62450Y-48273D01*
X62358Y-48311D01*
X62288Y-48381D01*
X62250Y-48473D01*
X62249Y-48573D01*
X62250Y-48804D01*
X62312Y-48867D01*
X62666Y-48867D01*
X62666Y-48967D01*
X62312Y-48967D01*
X62250Y-49029D01*
X62249Y-49261D01*
X62250Y-49360D01*
X62288Y-49452D01*
X62358Y-49523D01*
X62450Y-49561D01*
X62604Y-49561D01*
X62666Y-49498D01*
X62666Y-50226D01*
X60368Y-47928D01*
X60368Y-46997D01*
X60330Y-46905D01*
X60259Y-46835D01*
X60168Y-46797D01*
X60068Y-46797D01*
X59517Y-46797D01*
X59425Y-46835D01*
X59355Y-46905D01*
X59316Y-46997D01*
X59316Y-47096D01*
X59316Y-47534D01*
X57500Y-47534D01*
X57385Y-47557D01*
X57287Y-47622D01*
X57257Y-47652D01*
X57257Y-46958D01*
X57219Y-46866D01*
X57149Y-46796D01*
X57057Y-46757D01*
X56958Y-46757D01*
X55580Y-46757D01*
X55488Y-46795D01*
X55418Y-46866D01*
X55379Y-46957D01*
X55379Y-47057D01*
X55379Y-51073D01*
X55417Y-51165D01*
X55488Y-51235D01*
X55579Y-51273D01*
X55679Y-51273D01*
X57057Y-51273D01*
X57149Y-51235D01*
X57219Y-51165D01*
X57257Y-51073D01*
X57257Y-50974D01*
X57257Y-48500D01*
X57624Y-48134D01*
X59316Y-48134D01*
X59316Y-48671D01*
X59354Y-48763D01*
X59425Y-48833D01*
X59516Y-48872D01*
X59616Y-48872D01*
X60167Y-48872D01*
X60259Y-48834D01*
X60329Y-48763D01*
X60337Y-48745D01*
X62270Y-50678D01*
X62270Y-51104D01*
X62308Y-51195D01*
X62378Y-51266D01*
X62470Y-51304D01*
X62557Y-51304D01*
X62522Y-51318D01*
X62498Y-51411D01*
X62795Y-51708D01*
X63092Y-51411D01*
X63068Y-51318D01*
X63027Y-51304D01*
X63119Y-51304D01*
X63211Y-51266D01*
X63282Y-51196D01*
X63320Y-51104D01*
X63320Y-51005D01*
X63320Y-50678D01*
X63430Y-50568D01*
X63454Y-50552D01*
X64199Y-49807D01*
X64593Y-49807D01*
X64593Y-49807D01*
X64707Y-49785D01*
X64707Y-49785D01*
X64798Y-49724D01*
X65000Y-49724D01*
X65092Y-49686D01*
X65139Y-49639D01*
X65186Y-49659D01*
X65285Y-49659D01*
X65438Y-49659D01*
X65501Y-49596D01*
X65501Y-57194D01*
X65438Y-57131D01*
X65285Y-57131D01*
X65186Y-57131D01*
X65139Y-57151D01*
X65092Y-57104D01*
X65001Y-57066D01*
X64901Y-57066D01*
X64800Y-57066D01*
X64608Y-56874D01*
X64511Y-56809D01*
X64396Y-56786D01*
X63805Y-56786D01*
X63601Y-56583D01*
X63578Y-56567D01*
X63325Y-56314D01*
X63325Y-55284D01*
X63325Y-51855D01*
X63313Y-51646D01*
X63255Y-51506D01*
X63163Y-51482D01*
X62865Y-51779D01*
X63163Y-52076D01*
X63255Y-52052D01*
X63325Y-51855D01*
X63325Y-55284D01*
X63313Y-55075D01*
X63255Y-54935D01*
X63163Y-54911D01*
X63092Y-54982D01*
X63092Y-54840D01*
X63092Y-52147D01*
X62795Y-51850D01*
X62724Y-51920D01*
X62724Y-51779D01*
X62427Y-51482D01*
X62334Y-51506D01*
X62265Y-51703D01*
X62276Y-51912D01*
X62334Y-52052D01*
X62427Y-52076D01*
X62724Y-51779D01*
X62724Y-51920D01*
X62498Y-52147D01*
X62522Y-52240D01*
X62719Y-52309D01*
X62928Y-52298D01*
X63068Y-52240D01*
X63092Y-52147D01*
X63092Y-54840D01*
X63068Y-54748D01*
X62871Y-54678D01*
X62662Y-54690D01*
X62522Y-54748D01*
X62498Y-54840D01*
X62795Y-55137D01*
X63092Y-54840D01*
X63092Y-54982D01*
X62865Y-55208D01*
X63163Y-55505D01*
X63255Y-55481D01*
X63325Y-55284D01*
X63325Y-56314D01*
X63320Y-56309D01*
X63320Y-55884D01*
X63282Y-55792D01*
X63212Y-55721D01*
X63120Y-55683D01*
X63033Y-55683D01*
X63068Y-55669D01*
X63092Y-55576D01*
X62795Y-55279D01*
X62724Y-55350D01*
X62724Y-55208D01*
X62427Y-54911D01*
X62334Y-54935D01*
X62265Y-55132D01*
X62276Y-55341D01*
X62334Y-55481D01*
X62427Y-55505D01*
X62724Y-55208D01*
X62724Y-55350D01*
X62498Y-55576D01*
X62522Y-55669D01*
X62563Y-55683D01*
X62470Y-55683D01*
X62378Y-55721D01*
X62308Y-55791D01*
X62270Y-55883D01*
X62270Y-55983D01*
X62270Y-56309D01*
X60368Y-58211D01*
X60368Y-58119D01*
X60368Y-57332D01*
X60368Y-55757D01*
X60368Y-50934D01*
X60368Y-49359D01*
X60330Y-49268D01*
X60259Y-49197D01*
X60168Y-49159D01*
X60068Y-49159D01*
X59517Y-49159D01*
X59425Y-49197D01*
X59355Y-49267D01*
X59316Y-49359D01*
X59316Y-49458D01*
X59316Y-51033D01*
X59354Y-51125D01*
X59425Y-51196D01*
X59516Y-51234D01*
X59616Y-51234D01*
X60167Y-51234D01*
X60259Y-51196D01*
X60329Y-51126D01*
X60368Y-51034D01*
X60368Y-50934D01*
X60368Y-55757D01*
X60330Y-55665D01*
X60259Y-55595D01*
X60168Y-55557D01*
X60068Y-55557D01*
X59517Y-55557D01*
X59425Y-55595D01*
X59355Y-55665D01*
X59316Y-55757D01*
X59316Y-55856D01*
X59316Y-57431D01*
X59354Y-57523D01*
X59425Y-57593D01*
X59516Y-57631D01*
X59616Y-57631D01*
X60167Y-57631D01*
X60259Y-57593D01*
X60329Y-57523D01*
X60368Y-57431D01*
X60368Y-57332D01*
X60368Y-58119D01*
X60330Y-58027D01*
X60259Y-57957D01*
X60168Y-57919D01*
X60068Y-57919D01*
X59517Y-57919D01*
X59425Y-57957D01*
X59355Y-58027D01*
X59316Y-58119D01*
X59316Y-58218D01*
X59316Y-58656D01*
X57624Y-58656D01*
X57257Y-58290D01*
X57257Y-55718D01*
X57219Y-55626D01*
X57149Y-55555D01*
X57057Y-55517D01*
X56958Y-55517D01*
X55580Y-55517D01*
X55488Y-55555D01*
X55418Y-55625D01*
X55379Y-55717D01*
X55379Y-55817D01*
X55379Y-59832D01*
X55417Y-59924D01*
X55488Y-59995D01*
X55579Y-60033D01*
X55679Y-60033D01*
X57057Y-60033D01*
X57149Y-59995D01*
X57219Y-59925D01*
X57257Y-59833D01*
X57257Y-59733D01*
X57257Y-59138D01*
X57287Y-59168D01*
X57287Y-59168D01*
X57385Y-59233D01*
X57500Y-59256D01*
X59316Y-59256D01*
X59316Y-59793D01*
X59354Y-59885D01*
X59425Y-59955D01*
X59516Y-59994D01*
X59616Y-59994D01*
X60167Y-59994D01*
X60259Y-59956D01*
X60329Y-59885D01*
X60368Y-59794D01*
X60368Y-59694D01*
X60368Y-59060D01*
X62694Y-56733D01*
X62896Y-56733D01*
X63085Y-56923D01*
X63085Y-57082D01*
X63074Y-57071D01*
X62982Y-57033D01*
X62829Y-57033D01*
X62766Y-57095D01*
X62766Y-57627D01*
X62774Y-57627D01*
X62774Y-57727D01*
X62766Y-57727D01*
X62766Y-58258D01*
X62829Y-58320D01*
X62982Y-58320D01*
X63074Y-58282D01*
X63102Y-58254D01*
X63108Y-58284D01*
X63173Y-58381D01*
X63370Y-58578D01*
X63370Y-58578D01*
X63467Y-58643D01*
X63582Y-58666D01*
X63582Y-58666D01*
X64271Y-58666D01*
X64271Y-58666D01*
X64386Y-58643D01*
X64386Y-58643D01*
X64483Y-58578D01*
X64577Y-58484D01*
X65000Y-58484D01*
X65092Y-58446D01*
X65139Y-58399D01*
X65186Y-58419D01*
X65285Y-58419D01*
X65438Y-58419D01*
X65501Y-58356D01*
X65501Y-60186D01*
X62666Y-60186D01*
X62666Y-58258D01*
X62666Y-57727D01*
X62666Y-57627D01*
X62666Y-57095D01*
X62604Y-57033D01*
X62450Y-57033D01*
X62358Y-57071D01*
X62288Y-57141D01*
X62250Y-57233D01*
X62249Y-57332D01*
X62250Y-57564D01*
X62312Y-57627D01*
X62666Y-57627D01*
X62666Y-57727D01*
X62312Y-57727D01*
X62250Y-57789D01*
X62249Y-58021D01*
X62250Y-58120D01*
X62288Y-58212D01*
X62358Y-58282D01*
X62450Y-58320D01*
X62604Y-58320D01*
X62666Y-58258D01*
X62666Y-60186D01*
X54659Y-60186D01*
X54659Y-59733D01*
X54659Y-55718D01*
X54659Y-50974D01*
X54659Y-46958D01*
X54621Y-46866D01*
X54551Y-46796D01*
X54459Y-46757D01*
X54359Y-46757D01*
X52981Y-46757D01*
X52890Y-46795D01*
X52819Y-46866D01*
X52781Y-46957D01*
X52781Y-47057D01*
X52781Y-49530D01*
X52057Y-50254D01*
X51997Y-50254D01*
X51670Y-50254D01*
X49246Y-47829D01*
X49246Y-46997D01*
X49208Y-46905D01*
X49137Y-46835D01*
X49046Y-46797D01*
X48946Y-46797D01*
X48395Y-46797D01*
X48303Y-46835D01*
X48233Y-46905D01*
X48194Y-46997D01*
X48194Y-47096D01*
X48194Y-47534D01*
X46476Y-47534D01*
X46361Y-47557D01*
X46264Y-47622D01*
X46234Y-47652D01*
X46234Y-46958D01*
X46196Y-46866D01*
X46126Y-46796D01*
X46034Y-46757D01*
X45934Y-46757D01*
X44556Y-46757D01*
X44464Y-46795D01*
X44394Y-46866D01*
X44356Y-46957D01*
X44356Y-47057D01*
X44356Y-51073D01*
X44394Y-51165D01*
X44464Y-51235D01*
X44556Y-51273D01*
X44655Y-51273D01*
X46033Y-51273D01*
X46125Y-51235D01*
X46196Y-51165D01*
X46234Y-51073D01*
X46234Y-50974D01*
X46234Y-48500D01*
X46600Y-48134D01*
X48194Y-48134D01*
X48194Y-48671D01*
X48232Y-48763D01*
X48303Y-48833D01*
X48394Y-48872D01*
X48494Y-48872D01*
X49045Y-48872D01*
X49137Y-48834D01*
X49207Y-48763D01*
X49244Y-48676D01*
X51246Y-50678D01*
X51246Y-51104D01*
X51284Y-51195D01*
X51354Y-51266D01*
X51446Y-51304D01*
X51533Y-51304D01*
X51498Y-51318D01*
X51474Y-51411D01*
X51771Y-51708D01*
X52068Y-51411D01*
X52044Y-51318D01*
X52003Y-51304D01*
X52096Y-51304D01*
X52188Y-51266D01*
X52258Y-51196D01*
X52296Y-51104D01*
X52296Y-51005D01*
X52296Y-50863D01*
X52781Y-50379D01*
X52781Y-51073D01*
X52819Y-51165D01*
X52889Y-51235D01*
X52981Y-51273D01*
X53081Y-51273D01*
X54458Y-51273D01*
X54550Y-51235D01*
X54621Y-51165D01*
X54659Y-51073D01*
X54659Y-50974D01*
X54659Y-55718D01*
X54621Y-55626D01*
X54551Y-55555D01*
X54459Y-55517D01*
X54359Y-55517D01*
X52981Y-55517D01*
X52890Y-55555D01*
X52819Y-55625D01*
X52781Y-55717D01*
X52781Y-55817D01*
X52781Y-56412D01*
X52365Y-55996D01*
X52301Y-55953D01*
X52301Y-55284D01*
X52301Y-51855D01*
X52290Y-51646D01*
X52232Y-51506D01*
X52139Y-51482D01*
X51842Y-51779D01*
X52139Y-52076D01*
X52232Y-52052D01*
X52301Y-51855D01*
X52301Y-55284D01*
X52290Y-55075D01*
X52232Y-54935D01*
X52139Y-54911D01*
X52068Y-54982D01*
X52068Y-54840D01*
X52068Y-52147D01*
X51771Y-51850D01*
X51700Y-51920D01*
X51700Y-51779D01*
X51403Y-51482D01*
X51311Y-51506D01*
X51241Y-51703D01*
X51253Y-51912D01*
X51311Y-52052D01*
X51403Y-52076D01*
X51700Y-51779D01*
X51700Y-51920D01*
X51474Y-52147D01*
X51498Y-52240D01*
X51695Y-52309D01*
X51904Y-52298D01*
X52044Y-52240D01*
X52068Y-52147D01*
X52068Y-54840D01*
X52044Y-54748D01*
X51847Y-54678D01*
X51638Y-54690D01*
X51498Y-54748D01*
X51474Y-54840D01*
X51771Y-55137D01*
X52068Y-54840D01*
X52068Y-54982D01*
X51842Y-55208D01*
X52139Y-55505D01*
X52232Y-55481D01*
X52301Y-55284D01*
X52301Y-55953D01*
X52296Y-55950D01*
X52296Y-55884D01*
X52258Y-55792D01*
X52188Y-55721D01*
X52096Y-55683D01*
X52009Y-55683D01*
X52044Y-55669D01*
X52068Y-55576D01*
X51771Y-55279D01*
X51700Y-55350D01*
X51700Y-55208D01*
X51403Y-54911D01*
X51311Y-54935D01*
X51241Y-55132D01*
X51253Y-55341D01*
X51311Y-55481D01*
X51403Y-55505D01*
X51700Y-55208D01*
X51700Y-55350D01*
X51474Y-55576D01*
X51498Y-55669D01*
X51539Y-55683D01*
X51447Y-55683D01*
X51355Y-55721D01*
X51284Y-55791D01*
X51246Y-55883D01*
X51246Y-55983D01*
X51246Y-56309D01*
X49246Y-58309D01*
X49246Y-58021D01*
X49246Y-57233D01*
X49246Y-55659D01*
X49246Y-50934D01*
X49246Y-49359D01*
X49208Y-49268D01*
X49137Y-49197D01*
X49046Y-49159D01*
X48946Y-49159D01*
X48395Y-49159D01*
X48303Y-49197D01*
X48233Y-49267D01*
X48194Y-49359D01*
X48194Y-49458D01*
X48194Y-51033D01*
X48232Y-51125D01*
X48303Y-51196D01*
X48394Y-51234D01*
X48494Y-51234D01*
X49045Y-51234D01*
X49137Y-51196D01*
X49207Y-51126D01*
X49246Y-51034D01*
X49246Y-50934D01*
X49246Y-55659D01*
X49208Y-55567D01*
X49137Y-55496D01*
X49046Y-55458D01*
X48946Y-55458D01*
X48395Y-55458D01*
X48303Y-55496D01*
X48233Y-55566D01*
X48194Y-55658D01*
X48194Y-55758D01*
X48194Y-57332D01*
X48232Y-57424D01*
X48303Y-57495D01*
X48394Y-57533D01*
X48494Y-57533D01*
X49045Y-57533D01*
X49137Y-57495D01*
X49207Y-57425D01*
X49246Y-57333D01*
X49246Y-57233D01*
X49246Y-58021D01*
X49208Y-57929D01*
X49137Y-57859D01*
X49046Y-57820D01*
X48946Y-57820D01*
X48395Y-57820D01*
X48303Y-57858D01*
X48233Y-57929D01*
X48194Y-58020D01*
X48194Y-58120D01*
X48194Y-58558D01*
X46600Y-58558D01*
X46234Y-58191D01*
X46234Y-55619D01*
X46196Y-55527D01*
X46126Y-55457D01*
X46034Y-55419D01*
X45934Y-55419D01*
X44556Y-55419D01*
X44464Y-55457D01*
X44394Y-55527D01*
X44356Y-55619D01*
X44356Y-55718D01*
X44356Y-59734D01*
X44394Y-59826D01*
X44464Y-59896D01*
X44556Y-59934D01*
X44655Y-59935D01*
X46033Y-59935D01*
X46125Y-59897D01*
X46196Y-59826D01*
X46234Y-59734D01*
X46234Y-59635D01*
X46234Y-59040D01*
X46264Y-59070D01*
X46264Y-59070D01*
X46361Y-59135D01*
X46476Y-59158D01*
X48194Y-59158D01*
X48194Y-59695D01*
X48232Y-59787D01*
X48303Y-59857D01*
X48394Y-59895D01*
X48494Y-59895D01*
X49045Y-59895D01*
X49137Y-59857D01*
X49207Y-59787D01*
X49246Y-59695D01*
X49246Y-59596D01*
X49246Y-59129D01*
X49246Y-59129D01*
X49334Y-59070D01*
X51670Y-56733D01*
X52096Y-56733D01*
X52188Y-56695D01*
X52202Y-56681D01*
X52781Y-57260D01*
X52781Y-59832D01*
X52819Y-59924D01*
X52889Y-59995D01*
X52981Y-60033D01*
X53081Y-60033D01*
X54458Y-60033D01*
X54550Y-59995D01*
X54621Y-59925D01*
X54659Y-59833D01*
X54659Y-59733D01*
X54659Y-60186D01*
X43635Y-60186D01*
X43635Y-59635D01*
X43635Y-55619D01*
X43635Y-50974D01*
X43635Y-46958D01*
X43597Y-46866D01*
X43527Y-46796D01*
X43435Y-46757D01*
X43336Y-46757D01*
X41958Y-46757D01*
X41866Y-46795D01*
X41796Y-46866D01*
X41757Y-46957D01*
X41757Y-47057D01*
X41757Y-47652D01*
X41727Y-47622D01*
X41630Y-47557D01*
X41515Y-47534D01*
X39797Y-47534D01*
X39797Y-46997D01*
X39759Y-46905D01*
X39689Y-46835D01*
X39597Y-46797D01*
X39497Y-46797D01*
X38946Y-46797D01*
X38854Y-46835D01*
X38784Y-46905D01*
X38746Y-46997D01*
X38746Y-47096D01*
X38746Y-47731D01*
X36706Y-47731D01*
X36706Y-47548D01*
X36668Y-47456D01*
X36598Y-47386D01*
X36506Y-47348D01*
X36407Y-47348D01*
X35422Y-47348D01*
X35331Y-47386D01*
X35260Y-47456D01*
X35222Y-47548D01*
X35222Y-47647D01*
X35222Y-48514D01*
X35260Y-48605D01*
X35330Y-48676D01*
X35422Y-48714D01*
X35521Y-48714D01*
X35664Y-48714D01*
X35664Y-49316D01*
X35422Y-49316D01*
X35331Y-49354D01*
X35260Y-49425D01*
X35222Y-49516D01*
X35222Y-49616D01*
X35222Y-50482D01*
X35260Y-50574D01*
X35330Y-50644D01*
X35422Y-50683D01*
X35521Y-50683D01*
X36479Y-50683D01*
X36691Y-50894D01*
X36683Y-50891D01*
X36057Y-50891D01*
X35994Y-50954D01*
X35994Y-53099D01*
X36821Y-53099D01*
X36883Y-53037D01*
X36883Y-51191D01*
X36883Y-51091D01*
X36880Y-51084D01*
X37396Y-51600D01*
X37396Y-51624D01*
X37372Y-51624D01*
X37280Y-51662D01*
X37210Y-51732D01*
X37171Y-51824D01*
X37171Y-51924D01*
X37171Y-52474D01*
X37209Y-52566D01*
X37280Y-52636D01*
X37371Y-52674D01*
X37458Y-52674D01*
X37424Y-52689D01*
X37399Y-52781D01*
X37696Y-53078D01*
X37993Y-52781D01*
X37969Y-52689D01*
X37928Y-52674D01*
X38021Y-52674D01*
X38113Y-52636D01*
X38183Y-52566D01*
X38221Y-52474D01*
X38221Y-52375D01*
X38221Y-51825D01*
X38183Y-51733D01*
X38113Y-51662D01*
X38021Y-51624D01*
X37996Y-51624D01*
X37996Y-51476D01*
X37996Y-51476D01*
X37974Y-51361D01*
X37908Y-51264D01*
X37908Y-51264D01*
X36706Y-50061D01*
X36706Y-49517D01*
X36668Y-49425D01*
X36598Y-49355D01*
X36506Y-49316D01*
X36407Y-49316D01*
X36264Y-49316D01*
X36264Y-48714D01*
X36506Y-48714D01*
X36598Y-48676D01*
X36668Y-48606D01*
X36706Y-48514D01*
X36706Y-48415D01*
X36706Y-48331D01*
X38746Y-48331D01*
X38746Y-48671D01*
X38783Y-48763D01*
X38854Y-48833D01*
X38946Y-48872D01*
X39045Y-48872D01*
X39596Y-48872D01*
X39688Y-48834D01*
X39759Y-48763D01*
X39797Y-48671D01*
X39797Y-48572D01*
X39797Y-48134D01*
X41391Y-48134D01*
X41757Y-48500D01*
X41757Y-51073D01*
X41795Y-51165D01*
X41866Y-51235D01*
X41957Y-51273D01*
X42057Y-51273D01*
X43435Y-51273D01*
X43527Y-51235D01*
X43597Y-51165D01*
X43635Y-51073D01*
X43635Y-50974D01*
X43635Y-55619D01*
X43597Y-55527D01*
X43527Y-55457D01*
X43435Y-55419D01*
X43336Y-55419D01*
X41958Y-55419D01*
X41866Y-55457D01*
X41796Y-55527D01*
X41757Y-55619D01*
X41757Y-55718D01*
X41757Y-58191D01*
X41391Y-58558D01*
X39797Y-58558D01*
X39797Y-58021D01*
X39797Y-57233D01*
X39797Y-55659D01*
X39797Y-50934D01*
X39797Y-49359D01*
X39759Y-49268D01*
X39689Y-49197D01*
X39597Y-49159D01*
X39497Y-49159D01*
X38946Y-49159D01*
X38854Y-49197D01*
X38784Y-49267D01*
X38746Y-49359D01*
X38746Y-49458D01*
X38746Y-51033D01*
X38783Y-51125D01*
X38854Y-51196D01*
X38946Y-51234D01*
X39045Y-51234D01*
X39596Y-51234D01*
X39688Y-51196D01*
X39759Y-51126D01*
X39797Y-51034D01*
X39797Y-50934D01*
X39797Y-55659D01*
X39759Y-55567D01*
X39689Y-55496D01*
X39597Y-55458D01*
X39497Y-55458D01*
X38946Y-55458D01*
X38854Y-55496D01*
X38784Y-55566D01*
X38746Y-55658D01*
X38746Y-55758D01*
X38746Y-57332D01*
X38783Y-57424D01*
X38854Y-57495D01*
X38946Y-57533D01*
X39045Y-57533D01*
X39596Y-57533D01*
X39688Y-57495D01*
X39759Y-57425D01*
X39797Y-57333D01*
X39797Y-57233D01*
X39797Y-58021D01*
X39759Y-57929D01*
X39689Y-57859D01*
X39597Y-57820D01*
X39497Y-57820D01*
X38946Y-57820D01*
X38854Y-57858D01*
X38784Y-57929D01*
X38746Y-58020D01*
X38746Y-58120D01*
X38746Y-58361D01*
X38226Y-58361D01*
X38226Y-53225D01*
X38215Y-53016D01*
X38157Y-52876D01*
X38064Y-52852D01*
X37767Y-53149D01*
X38064Y-53446D01*
X38157Y-53422D01*
X38226Y-53225D01*
X38226Y-58361D01*
X36706Y-58361D01*
X36706Y-58178D01*
X36668Y-58086D01*
X36598Y-58016D01*
X36506Y-57978D01*
X36407Y-57978D01*
X36264Y-57978D01*
X36264Y-57376D01*
X36506Y-57376D01*
X36598Y-57338D01*
X36668Y-57267D01*
X36706Y-57175D01*
X36706Y-57076D01*
X36706Y-56210D01*
X36685Y-56159D01*
X37908Y-54936D01*
X37908Y-54936D01*
X37974Y-54839D01*
X37996Y-54724D01*
X37996Y-54724D01*
X37996Y-54591D01*
X38141Y-54447D01*
X38221Y-54254D01*
X38221Y-54045D01*
X38142Y-53852D01*
X37994Y-53704D01*
X37868Y-53652D01*
X37969Y-53610D01*
X37993Y-53517D01*
X37696Y-53220D01*
X37626Y-53291D01*
X37626Y-53149D01*
X37329Y-52852D01*
X37236Y-52876D01*
X37166Y-53073D01*
X37178Y-53282D01*
X37236Y-53422D01*
X37329Y-53446D01*
X37626Y-53149D01*
X37626Y-53291D01*
X37399Y-53517D01*
X37424Y-53610D01*
X37533Y-53648D01*
X37399Y-53704D01*
X37252Y-53851D01*
X37171Y-54044D01*
X37171Y-54253D01*
X37251Y-54446D01*
X37396Y-54592D01*
X37396Y-54600D01*
X36883Y-55113D01*
X36883Y-55107D01*
X36883Y-53262D01*
X36821Y-53199D01*
X35994Y-53199D01*
X35994Y-55344D01*
X36057Y-55407D01*
X36589Y-55407D01*
X35987Y-56009D01*
X35894Y-56009D01*
X35894Y-55344D01*
X35894Y-53199D01*
X35894Y-53099D01*
X35894Y-50954D01*
X35832Y-50891D01*
X35206Y-50891D01*
X35114Y-50929D01*
X35044Y-50999D01*
X35005Y-51091D01*
X35005Y-51191D01*
X35005Y-53037D01*
X35068Y-53099D01*
X35894Y-53099D01*
X35894Y-53199D01*
X35068Y-53199D01*
X35005Y-53262D01*
X35005Y-55107D01*
X35005Y-55207D01*
X35044Y-55299D01*
X35114Y-55369D01*
X35206Y-55407D01*
X35832Y-55407D01*
X35894Y-55344D01*
X35894Y-56009D01*
X35422Y-56009D01*
X35331Y-56047D01*
X35260Y-56118D01*
X35222Y-56209D01*
X35222Y-56309D01*
X35222Y-57175D01*
X35260Y-57267D01*
X35330Y-57337D01*
X35422Y-57375D01*
X35521Y-57376D01*
X35664Y-57376D01*
X35664Y-57978D01*
X35422Y-57978D01*
X35331Y-58016D01*
X35260Y-58086D01*
X35222Y-58178D01*
X35222Y-58277D01*
X35222Y-59143D01*
X35260Y-59235D01*
X35330Y-59306D01*
X35422Y-59344D01*
X35521Y-59344D01*
X36506Y-59344D01*
X36598Y-59306D01*
X36668Y-59236D01*
X36706Y-59144D01*
X36706Y-59044D01*
X36706Y-58961D01*
X38746Y-58961D01*
X38746Y-59695D01*
X38783Y-59787D01*
X38854Y-59857D01*
X38946Y-59895D01*
X39045Y-59895D01*
X39596Y-59895D01*
X39688Y-59857D01*
X39759Y-59787D01*
X39797Y-59695D01*
X39797Y-59596D01*
X39797Y-59158D01*
X41515Y-59158D01*
X41515Y-59158D01*
X41630Y-59135D01*
X41630Y-59135D01*
X41727Y-59070D01*
X41757Y-59040D01*
X41757Y-59734D01*
X41795Y-59826D01*
X41866Y-59896D01*
X41957Y-59934D01*
X42057Y-59935D01*
X43435Y-59935D01*
X43527Y-59897D01*
X43597Y-59826D01*
X43635Y-59734D01*
X43635Y-59635D01*
X43635Y-60186D01*
X34856Y-60186D01*
X34856Y-59044D01*
X34856Y-58178D01*
X34818Y-58086D01*
X34748Y-58016D01*
X34656Y-57978D01*
X34556Y-57978D01*
X34366Y-57978D01*
X34326Y-57917D01*
X33784Y-57376D01*
X34655Y-57376D01*
X34747Y-57338D01*
X34818Y-57267D01*
X34856Y-57175D01*
X34856Y-57076D01*
X34856Y-56210D01*
X34818Y-56118D01*
X34748Y-56048D01*
X34656Y-56009D01*
X34650Y-56009D01*
X34650Y-50683D01*
X34655Y-50683D01*
X34747Y-50645D01*
X34818Y-50574D01*
X34856Y-50483D01*
X34856Y-50383D01*
X34856Y-49517D01*
X34818Y-49425D01*
X34748Y-49355D01*
X34656Y-49316D01*
X34556Y-49316D01*
X33587Y-49316D01*
X34189Y-48714D01*
X34655Y-48714D01*
X34747Y-48676D01*
X34818Y-48606D01*
X34856Y-48514D01*
X34856Y-48415D01*
X34856Y-47548D01*
X34818Y-47456D01*
X34748Y-47386D01*
X34656Y-47348D01*
X34556Y-47348D01*
X33572Y-47348D01*
X33480Y-47386D01*
X33410Y-47456D01*
X33372Y-47548D01*
X33372Y-47647D01*
X33372Y-48514D01*
X33409Y-48605D01*
X33430Y-48626D01*
X33055Y-49000D01*
X32990Y-49097D01*
X32967Y-49212D01*
X32967Y-49974D01*
X31509Y-51432D01*
X31444Y-51530D01*
X31421Y-51644D01*
X31421Y-51709D01*
X31266Y-51709D01*
X31174Y-51747D01*
X31104Y-51817D01*
X31066Y-51909D01*
X31066Y-52009D01*
X31066Y-52380D01*
X30791Y-52654D01*
X30726Y-52752D01*
X30703Y-52866D01*
X30703Y-55019D01*
X30726Y-55134D01*
X30791Y-55231D01*
X33548Y-57988D01*
X33480Y-58016D01*
X33410Y-58086D01*
X33372Y-58178D01*
X33372Y-58277D01*
X33372Y-59143D01*
X33409Y-59235D01*
X33480Y-59306D01*
X33572Y-59344D01*
X33671Y-59344D01*
X34655Y-59344D01*
X34747Y-59306D01*
X34818Y-59236D01*
X34856Y-59144D01*
X34856Y-59044D01*
X34856Y-60186D01*
X34272Y-60186D01*
X33893Y-59807D01*
X33120Y-59034D01*
X33120Y-57853D01*
X30364Y-55097D01*
X30364Y-53149D01*
X30364Y-51989D01*
X32727Y-49627D01*
X32727Y-47264D01*
X33878Y-46112D01*
X72026Y-46112D01*
X75540Y-49627D01*
X75540Y-58640D01*
X75540Y-58640D01*
G37*
G54D27*
X75540Y-58640D02*
X74939Y-59241D01*
X74939Y-57056D01*
X74939Y-51363D01*
X74934Y-51273D01*
X74934Y-50512D01*
X74934Y-49962D01*
X74896Y-49870D01*
X74826Y-49800D01*
X74734Y-49762D01*
X74634Y-49762D01*
X74084Y-49762D01*
X73993Y-49800D01*
X73922Y-49870D01*
X73884Y-49962D01*
X73884Y-50014D01*
X73267Y-50014D01*
X73243Y-49956D01*
X73173Y-49886D01*
X73081Y-49848D01*
X72981Y-49848D01*
X72194Y-49848D01*
X72102Y-49886D01*
X72047Y-49941D01*
X71992Y-49886D01*
X71900Y-49848D01*
X71800Y-49848D01*
X71013Y-49848D01*
X70941Y-49878D01*
X70941Y-48362D01*
X70941Y-48063D01*
X70903Y-47971D01*
X70833Y-47900D01*
X70741Y-47862D01*
X70641Y-47862D01*
X70353Y-47862D01*
X70291Y-47925D01*
X70291Y-48162D01*
X70878Y-48162D01*
X70941Y-48100D01*
X70941Y-48063D01*
X70941Y-48362D01*
X70941Y-48325D01*
X70878Y-48262D01*
X70291Y-48262D01*
X70291Y-48500D01*
X70353Y-48562D01*
X70641Y-48562D01*
X70741Y-48562D01*
X70833Y-48524D01*
X70903Y-48454D01*
X70941Y-48362D01*
X70941Y-49878D01*
X70921Y-49886D01*
X70895Y-49912D01*
X70844Y-49912D01*
X70833Y-49900D01*
X70741Y-49862D01*
X70641Y-49862D01*
X70191Y-49862D01*
X70191Y-48500D01*
X70191Y-48262D01*
X70191Y-48162D01*
X70191Y-47925D01*
X70128Y-47862D01*
X69840Y-47862D01*
X69741Y-47862D01*
X69649Y-47900D01*
X69579Y-47971D01*
X69541Y-48063D01*
X69541Y-48100D01*
X69603Y-48162D01*
X70191Y-48162D01*
X70191Y-48262D01*
X69603Y-48262D01*
X69541Y-48325D01*
X69541Y-48362D01*
X69579Y-48454D01*
X69649Y-48524D01*
X69741Y-48562D01*
X69840Y-48562D01*
X70128Y-48562D01*
X70191Y-48500D01*
X70191Y-49862D01*
X69741Y-49862D01*
X69649Y-49900D01*
X69579Y-49970D01*
X69541Y-50062D01*
X69541Y-50074D01*
X67952Y-50074D01*
X67928Y-50016D01*
X67858Y-49945D01*
X67766Y-49907D01*
X67667Y-49907D01*
X67280Y-49907D01*
X67071Y-49698D01*
X67766Y-49698D01*
X67857Y-49660D01*
X67928Y-49590D01*
X67939Y-49562D01*
X67990Y-49562D01*
X68890Y-49562D01*
X68982Y-49524D01*
X69053Y-49454D01*
X69091Y-49362D01*
X69091Y-49263D01*
X69091Y-49063D01*
X69053Y-48971D01*
X68983Y-48900D01*
X68891Y-48862D01*
X68791Y-48862D01*
X67916Y-48862D01*
X67858Y-48803D01*
X67766Y-48765D01*
X67667Y-48765D01*
X66901Y-48765D01*
X66901Y-48763D01*
X66899Y-48759D01*
X66901Y-48756D01*
X66901Y-48731D01*
X66879Y-48709D01*
X66863Y-48671D01*
X66792Y-48600D01*
X66776Y-48594D01*
X66838Y-48594D01*
X66901Y-48531D01*
X66901Y-48507D01*
X66863Y-48415D01*
X66792Y-48344D01*
X66701Y-48306D01*
X66601Y-48306D01*
X66513Y-48306D01*
X66451Y-48369D01*
X66451Y-48594D01*
X66482Y-48594D01*
X66451Y-48625D01*
X66451Y-48669D01*
X66451Y-48689D01*
X66351Y-48689D01*
X66351Y-48669D01*
X66351Y-48625D01*
X66343Y-48617D01*
X66343Y-48594D01*
X66351Y-48594D01*
X66351Y-48369D01*
X66288Y-48306D01*
X66200Y-48306D01*
X66101Y-48306D01*
X66009Y-48344D01*
X65962Y-48391D01*
X65916Y-48372D01*
X65816Y-48372D01*
X65663Y-48372D01*
X65601Y-48434D01*
X65601Y-48965D01*
X65609Y-48965D01*
X65609Y-49065D01*
X65601Y-49065D01*
X65601Y-49596D01*
X65663Y-49659D01*
X65816Y-49659D01*
X65916Y-49659D01*
X65962Y-49639D01*
X66009Y-49686D01*
X66101Y-49724D01*
X66200Y-49724D01*
X66249Y-49724D01*
X66679Y-50154D01*
X66679Y-50206D01*
X66679Y-50640D01*
X66717Y-50731D01*
X66787Y-50802D01*
X66879Y-50840D01*
X66978Y-50840D01*
X67766Y-50840D01*
X67857Y-50802D01*
X67928Y-50732D01*
X67952Y-50674D01*
X70079Y-50674D01*
X70079Y-50674D01*
X70194Y-50651D01*
X70194Y-50651D01*
X70292Y-50586D01*
X70315Y-50562D01*
X70740Y-50562D01*
X70812Y-50532D01*
X70812Y-50581D01*
X70850Y-50672D01*
X70921Y-50743D01*
X71013Y-50781D01*
X71112Y-50781D01*
X71899Y-50781D01*
X71991Y-50743D01*
X72047Y-50688D01*
X72102Y-50743D01*
X72194Y-50781D01*
X72293Y-50781D01*
X73081Y-50781D01*
X73172Y-50743D01*
X73243Y-50673D01*
X73267Y-50614D01*
X73885Y-50614D01*
X73922Y-50703D01*
X73992Y-50774D01*
X74084Y-50812D01*
X74171Y-50812D01*
X74136Y-50826D01*
X74112Y-50919D01*
X74409Y-51216D01*
X74706Y-50919D01*
X74682Y-50826D01*
X74641Y-50812D01*
X74733Y-50812D01*
X74825Y-50774D01*
X74896Y-50704D01*
X74934Y-50612D01*
X74934Y-50512D01*
X74934Y-51273D01*
X74928Y-51154D01*
X74869Y-51014D01*
X74777Y-50990D01*
X74480Y-51287D01*
X74777Y-51584D01*
X74869Y-51560D01*
X74939Y-51363D01*
X74939Y-57056D01*
X74928Y-56847D01*
X74869Y-56707D01*
X74777Y-56683D01*
X74706Y-56753D01*
X74706Y-56612D01*
X74706Y-51655D01*
X74409Y-51358D01*
X74338Y-51428D01*
X74338Y-51287D01*
X74041Y-50990D01*
X73948Y-51014D01*
X73879Y-51211D01*
X73890Y-51420D01*
X73948Y-51560D01*
X74041Y-51584D01*
X74338Y-51287D01*
X74338Y-51428D01*
X74112Y-51655D01*
X74136Y-51747D01*
X74333Y-51817D01*
X74542Y-51805D01*
X74682Y-51747D01*
X74706Y-51655D01*
X74706Y-56612D01*
X74682Y-56519D01*
X74485Y-56450D01*
X74276Y-56461D01*
X74136Y-56519D01*
X74112Y-56612D01*
X74409Y-56909D01*
X74706Y-56612D01*
X74706Y-56753D01*
X74480Y-56980D01*
X74777Y-57277D01*
X74869Y-57253D01*
X74939Y-57056D01*
X74939Y-59241D01*
X74934Y-59246D01*
X74934Y-58205D01*
X74934Y-57655D01*
X74896Y-57563D01*
X74826Y-57493D01*
X74734Y-57455D01*
X74647Y-57455D01*
X74682Y-57440D01*
X74706Y-57348D01*
X74409Y-57051D01*
X74338Y-57121D01*
X74338Y-56980D01*
X74041Y-56683D01*
X73948Y-56707D01*
X73879Y-56904D01*
X73890Y-57113D01*
X73948Y-57253D01*
X74041Y-57277D01*
X74338Y-56980D01*
X74338Y-57121D01*
X74112Y-57348D01*
X74136Y-57440D01*
X74177Y-57455D01*
X74084Y-57455D01*
X73993Y-57493D01*
X73922Y-57563D01*
X73884Y-57655D01*
X73884Y-57751D01*
X73281Y-57751D01*
X73281Y-57175D01*
X73281Y-56643D01*
X73281Y-51722D01*
X73281Y-51190D01*
X73243Y-51098D01*
X73173Y-51028D01*
X73081Y-50990D01*
X72981Y-50990D01*
X72750Y-50990D01*
X72687Y-51052D01*
X72687Y-51406D01*
X73218Y-51406D01*
X73281Y-51344D01*
X73281Y-51190D01*
X73281Y-51722D01*
X73281Y-51569D01*
X73218Y-51506D01*
X72687Y-51506D01*
X72687Y-51860D01*
X72750Y-51923D01*
X72981Y-51923D01*
X73081Y-51923D01*
X73173Y-51885D01*
X73243Y-51814D01*
X73281Y-51722D01*
X73281Y-56643D01*
X73243Y-56551D01*
X73173Y-56481D01*
X73081Y-56442D01*
X72981Y-56442D01*
X72750Y-56442D01*
X72687Y-56505D01*
X72687Y-56859D01*
X73218Y-56859D01*
X73281Y-56796D01*
X73281Y-56643D01*
X73281Y-57175D01*
X73281Y-57021D01*
X73218Y-56959D01*
X72687Y-56959D01*
X72687Y-57313D01*
X72750Y-57375D01*
X72981Y-57376D01*
X73081Y-57375D01*
X73173Y-57337D01*
X73243Y-57267D01*
X73281Y-57175D01*
X73281Y-57751D01*
X73267Y-57751D01*
X73243Y-57693D01*
X73173Y-57622D01*
X73081Y-57584D01*
X72981Y-57584D01*
X72587Y-57584D01*
X72587Y-57313D01*
X72587Y-56959D01*
X72587Y-56859D01*
X72587Y-56505D01*
X72587Y-51860D01*
X72587Y-51506D01*
X72587Y-51406D01*
X72587Y-51052D01*
X72525Y-50990D01*
X72293Y-50990D01*
X72194Y-50990D01*
X72102Y-51028D01*
X72047Y-51083D01*
X71992Y-51028D01*
X71900Y-50990D01*
X71800Y-50990D01*
X71569Y-50990D01*
X71506Y-51052D01*
X71506Y-51406D01*
X72037Y-51406D01*
X72047Y-51397D01*
X72056Y-51406D01*
X72587Y-51406D01*
X72587Y-51506D01*
X72056Y-51506D01*
X72047Y-51516D01*
X72037Y-51506D01*
X71506Y-51506D01*
X71506Y-51860D01*
X71569Y-51923D01*
X71800Y-51923D01*
X71900Y-51923D01*
X71992Y-51885D01*
X72047Y-51829D01*
X72102Y-51885D01*
X72194Y-51923D01*
X72293Y-51923D01*
X72525Y-51923D01*
X72587Y-51860D01*
X72587Y-56505D01*
X72525Y-56442D01*
X72293Y-56442D01*
X72194Y-56442D01*
X72102Y-56481D01*
X72047Y-56536D01*
X71992Y-56481D01*
X71900Y-56442D01*
X71800Y-56442D01*
X71569Y-56442D01*
X71506Y-56505D01*
X71506Y-56859D01*
X72037Y-56859D01*
X72047Y-56850D01*
X72056Y-56859D01*
X72587Y-56859D01*
X72587Y-56959D01*
X72056Y-56959D01*
X72047Y-56968D01*
X72037Y-56959D01*
X71506Y-56959D01*
X71506Y-57313D01*
X71569Y-57375D01*
X71800Y-57376D01*
X71900Y-57375D01*
X71992Y-57337D01*
X72047Y-57282D01*
X72102Y-57337D01*
X72194Y-57375D01*
X72293Y-57376D01*
X72525Y-57375D01*
X72587Y-57313D01*
X72587Y-57584D01*
X72194Y-57584D01*
X72102Y-57622D01*
X72047Y-57677D01*
X71992Y-57622D01*
X71900Y-57584D01*
X71800Y-57584D01*
X71406Y-57584D01*
X71406Y-57313D01*
X71406Y-56959D01*
X71398Y-56959D01*
X71398Y-56859D01*
X71406Y-56859D01*
X71406Y-56505D01*
X71406Y-51860D01*
X71406Y-51506D01*
X71406Y-51406D01*
X71406Y-51052D01*
X71344Y-50990D01*
X71112Y-50990D01*
X71013Y-50990D01*
X70921Y-51028D01*
X70850Y-51098D01*
X70812Y-51190D01*
X70812Y-51344D01*
X70875Y-51406D01*
X71406Y-51406D01*
X71406Y-51506D01*
X70875Y-51506D01*
X70812Y-51569D01*
X70812Y-51722D01*
X70850Y-51814D01*
X70921Y-51885D01*
X71013Y-51923D01*
X71112Y-51923D01*
X71344Y-51923D01*
X71406Y-51860D01*
X71406Y-56505D01*
X71344Y-56442D01*
X71112Y-56442D01*
X71013Y-56442D01*
X70921Y-56481D01*
X70850Y-56551D01*
X70821Y-56622D01*
X70740Y-56622D01*
X70452Y-56622D01*
X70389Y-56684D01*
X70389Y-56922D01*
X70397Y-56922D01*
X70397Y-57022D01*
X70389Y-57022D01*
X70389Y-57259D01*
X70452Y-57322D01*
X70740Y-57322D01*
X70839Y-57322D01*
X70886Y-57302D01*
X70921Y-57337D01*
X71013Y-57375D01*
X71112Y-57376D01*
X71344Y-57375D01*
X71406Y-57313D01*
X71406Y-57584D01*
X71013Y-57584D01*
X70921Y-57622D01*
X70851Y-57692D01*
X70813Y-57784D01*
X70812Y-57884D01*
X70812Y-58270D01*
X70461Y-58622D01*
X70289Y-58622D01*
X70289Y-57259D01*
X70289Y-57022D01*
X70289Y-56922D01*
X70289Y-56684D01*
X70227Y-56622D01*
X69939Y-56622D01*
X69839Y-56622D01*
X69747Y-56660D01*
X69677Y-56731D01*
X69639Y-56822D01*
X69639Y-56859D01*
X69702Y-56922D01*
X70289Y-56922D01*
X70289Y-57022D01*
X69702Y-57022D01*
X69639Y-57084D01*
X69639Y-57121D01*
X69677Y-57213D01*
X69747Y-57284D01*
X69839Y-57322D01*
X69939Y-57322D01*
X70227Y-57322D01*
X70289Y-57259D01*
X70289Y-58622D01*
X69840Y-58622D01*
X69748Y-58660D01*
X69677Y-58730D01*
X69639Y-58822D01*
X69639Y-58833D01*
X67952Y-58833D01*
X67928Y-58775D01*
X67858Y-58705D01*
X67766Y-58667D01*
X67667Y-58667D01*
X67280Y-58667D01*
X67071Y-58458D01*
X67766Y-58458D01*
X67857Y-58420D01*
X67928Y-58350D01*
X67947Y-58304D01*
X67989Y-58322D01*
X68089Y-58322D01*
X68989Y-58322D01*
X69081Y-58284D01*
X69151Y-58214D01*
X69189Y-58122D01*
X69189Y-58022D01*
X69189Y-57822D01*
X69151Y-57731D01*
X69081Y-57660D01*
X68989Y-57622D01*
X68890Y-57622D01*
X67990Y-57622D01*
X67933Y-57645D01*
X67928Y-57634D01*
X67858Y-57563D01*
X67766Y-57525D01*
X67667Y-57525D01*
X66901Y-57525D01*
X66901Y-57523D01*
X66899Y-57519D01*
X66901Y-57516D01*
X66901Y-57491D01*
X66879Y-57469D01*
X66863Y-57431D01*
X66792Y-57360D01*
X66776Y-57354D01*
X66838Y-57354D01*
X66901Y-57291D01*
X66901Y-57267D01*
X66863Y-57175D01*
X66792Y-57104D01*
X66701Y-57066D01*
X66601Y-57066D01*
X66513Y-57066D01*
X66451Y-57129D01*
X66451Y-57354D01*
X66482Y-57354D01*
X66451Y-57385D01*
X66451Y-57429D01*
X66451Y-57449D01*
X66351Y-57449D01*
X66351Y-57429D01*
X66351Y-57385D01*
X66343Y-57377D01*
X66343Y-57354D01*
X66351Y-57354D01*
X66351Y-57129D01*
X66288Y-57066D01*
X66200Y-57066D01*
X66101Y-57066D01*
X66009Y-57104D01*
X65962Y-57151D01*
X65916Y-57131D01*
X65816Y-57131D01*
X65663Y-57131D01*
X65601Y-57194D01*
X65601Y-57725D01*
X65609Y-57725D01*
X65609Y-57825D01*
X65601Y-57825D01*
X65601Y-58356D01*
X65663Y-58419D01*
X65816Y-58419D01*
X65916Y-58419D01*
X65962Y-58399D01*
X66009Y-58446D01*
X66101Y-58484D01*
X66200Y-58484D01*
X66249Y-58484D01*
X66679Y-58914D01*
X66679Y-58966D01*
X66679Y-59399D01*
X66717Y-59491D01*
X66787Y-59562D01*
X66879Y-59600D01*
X66978Y-59600D01*
X67766Y-59600D01*
X67857Y-59562D01*
X67928Y-59492D01*
X67952Y-59433D01*
X70178Y-59433D01*
X70178Y-59433D01*
X70293Y-59411D01*
X70293Y-59411D01*
X70390Y-59345D01*
X70413Y-59322D01*
X70839Y-59322D01*
X70931Y-59284D01*
X71001Y-59214D01*
X71039Y-59122D01*
X71039Y-59022D01*
X71039Y-58892D01*
X71414Y-58517D01*
X71899Y-58517D01*
X71991Y-58479D01*
X72047Y-58424D01*
X72102Y-58479D01*
X72194Y-58517D01*
X72293Y-58517D01*
X73081Y-58517D01*
X73172Y-58479D01*
X73243Y-58409D01*
X73267Y-58351D01*
X73903Y-58351D01*
X73922Y-58396D01*
X73992Y-58467D01*
X74084Y-58505D01*
X74183Y-58505D01*
X74733Y-58505D01*
X74825Y-58467D01*
X74896Y-58397D01*
X74934Y-58305D01*
X74934Y-58205D01*
X74934Y-59246D01*
X73995Y-60186D01*
X65501Y-60186D01*
X65501Y-58356D01*
X65501Y-57825D01*
X65493Y-57825D01*
X65493Y-57725D01*
X65501Y-57725D01*
X65501Y-57194D01*
X65501Y-49596D01*
X65501Y-49065D01*
X65493Y-49065D01*
X65493Y-48965D01*
X65501Y-48965D01*
X65501Y-48434D01*
X65438Y-48372D01*
X65285Y-48372D01*
X65186Y-48372D01*
X65139Y-48391D01*
X65092Y-48344D01*
X65001Y-48306D01*
X64901Y-48306D01*
X64774Y-48306D01*
X64483Y-48016D01*
X64386Y-47951D01*
X64271Y-47928D01*
X63484Y-47928D01*
X63369Y-47951D01*
X63272Y-48016D01*
X63075Y-48213D01*
X63023Y-48290D01*
X62982Y-48273D01*
X62829Y-48273D01*
X62766Y-48336D01*
X62766Y-48867D01*
X62774Y-48867D01*
X62774Y-48967D01*
X62766Y-48967D01*
X62766Y-49498D01*
X62829Y-49561D01*
X62982Y-49561D01*
X62987Y-49559D01*
X62987Y-50163D01*
X62896Y-50254D01*
X62694Y-50254D01*
X62666Y-50226D01*
X62666Y-49498D01*
X62666Y-48967D01*
X62666Y-48867D01*
X62666Y-48336D01*
X62604Y-48273D01*
X62450Y-48273D01*
X62358Y-48311D01*
X62288Y-48381D01*
X62250Y-48473D01*
X62249Y-48573D01*
X62250Y-48804D01*
X62312Y-48867D01*
X62666Y-48867D01*
X62666Y-48967D01*
X62312Y-48967D01*
X62250Y-49029D01*
X62249Y-49261D01*
X62250Y-49360D01*
X62288Y-49452D01*
X62358Y-49523D01*
X62450Y-49561D01*
X62604Y-49561D01*
X62666Y-49498D01*
X62666Y-50226D01*
X60368Y-47928D01*
X60368Y-46997D01*
X60330Y-46905D01*
X60259Y-46835D01*
X60168Y-46797D01*
X60068Y-46797D01*
X59517Y-46797D01*
X59425Y-46835D01*
X59355Y-46905D01*
X59316Y-46997D01*
X59316Y-47096D01*
X59316Y-47534D01*
X57500Y-47534D01*
X57385Y-47557D01*
X57287Y-47622D01*
X57257Y-47652D01*
X57257Y-46958D01*
X57219Y-46866D01*
X57149Y-46796D01*
X57057Y-46757D01*
X56958Y-46757D01*
X55580Y-46757D01*
X55488Y-46795D01*
X55418Y-46866D01*
X55379Y-46957D01*
X55379Y-47057D01*
X55379Y-51073D01*
X55417Y-51165D01*
X55488Y-51235D01*
X55579Y-51273D01*
X55679Y-51273D01*
X57057Y-51273D01*
X57149Y-51235D01*
X57219Y-51165D01*
X57257Y-51073D01*
X57257Y-50974D01*
X57257Y-48500D01*
X57624Y-48134D01*
X59316Y-48134D01*
X59316Y-48671D01*
X59354Y-48763D01*
X59425Y-48833D01*
X59516Y-48872D01*
X59616Y-48872D01*
X60167Y-48872D01*
X60259Y-48834D01*
X60329Y-48763D01*
X60337Y-48745D01*
X62270Y-50678D01*
X62270Y-51104D01*
X62308Y-51195D01*
X62378Y-51266D01*
X62470Y-51304D01*
X62557Y-51304D01*
X62522Y-51318D01*
X62498Y-51411D01*
X62795Y-51708D01*
X63092Y-51411D01*
X63068Y-51318D01*
X63027Y-51304D01*
X63119Y-51304D01*
X63211Y-51266D01*
X63282Y-51196D01*
X63320Y-51104D01*
X63320Y-51005D01*
X63320Y-50678D01*
X63430Y-50568D01*
X63454Y-50552D01*
X64199Y-49807D01*
X64593Y-49807D01*
X64593Y-49807D01*
X64707Y-49785D01*
X64707Y-49785D01*
X64798Y-49724D01*
X65000Y-49724D01*
X65092Y-49686D01*
X65139Y-49639D01*
X65186Y-49659D01*
X65285Y-49659D01*
X65438Y-49659D01*
X65501Y-49596D01*
X65501Y-57194D01*
X65438Y-57131D01*
X65285Y-57131D01*
X65186Y-57131D01*
X65139Y-57151D01*
X65092Y-57104D01*
X65001Y-57066D01*
X64901Y-57066D01*
X64800Y-57066D01*
X64608Y-56874D01*
X64511Y-56809D01*
X64396Y-56786D01*
X63805Y-56786D01*
X63601Y-56583D01*
X63578Y-56567D01*
X63325Y-56314D01*
X63325Y-55284D01*
X63325Y-51855D01*
X63313Y-51646D01*
X63255Y-51506D01*
X63163Y-51482D01*
X62865Y-51779D01*
X63163Y-52076D01*
X63255Y-52052D01*
X63325Y-51855D01*
X63325Y-55284D01*
X63313Y-55075D01*
X63255Y-54935D01*
X63163Y-54911D01*
X63092Y-54982D01*
X63092Y-54840D01*
X63092Y-52147D01*
X62795Y-51850D01*
X62724Y-51920D01*
X62724Y-51779D01*
X62427Y-51482D01*
X62334Y-51506D01*
X62265Y-51703D01*
X62276Y-51912D01*
X62334Y-52052D01*
X62427Y-52076D01*
X62724Y-51779D01*
X62724Y-51920D01*
X62498Y-52147D01*
X62522Y-52240D01*
X62719Y-52309D01*
X62928Y-52298D01*
X63068Y-52240D01*
X63092Y-52147D01*
X63092Y-54840D01*
X63068Y-54748D01*
X62871Y-54678D01*
X62662Y-54690D01*
X62522Y-54748D01*
X62498Y-54840D01*
X62795Y-55137D01*
X63092Y-54840D01*
X63092Y-54982D01*
X62865Y-55208D01*
X63163Y-55505D01*
X63255Y-55481D01*
X63325Y-55284D01*
X63325Y-56314D01*
X63320Y-56309D01*
X63320Y-55884D01*
X63282Y-55792D01*
X63212Y-55721D01*
X63120Y-55683D01*
X63033Y-55683D01*
X63068Y-55669D01*
X63092Y-55576D01*
X62795Y-55279D01*
X62724Y-55350D01*
X62724Y-55208D01*
X62427Y-54911D01*
X62334Y-54935D01*
X62265Y-55132D01*
X62276Y-55341D01*
X62334Y-55481D01*
X62427Y-55505D01*
X62724Y-55208D01*
X62724Y-55350D01*
X62498Y-55576D01*
X62522Y-55669D01*
X62563Y-55683D01*
X62470Y-55683D01*
X62378Y-55721D01*
X62308Y-55791D01*
X62270Y-55883D01*
X62270Y-55983D01*
X62270Y-56309D01*
X60368Y-58211D01*
X60368Y-58119D01*
X60368Y-57332D01*
X60368Y-55757D01*
X60368Y-50934D01*
X60368Y-49359D01*
X60330Y-49268D01*
X60259Y-49197D01*
X60168Y-49159D01*
X60068Y-49159D01*
X59517Y-49159D01*
X59425Y-49197D01*
X59355Y-49267D01*
X59316Y-49359D01*
X59316Y-49458D01*
X59316Y-51033D01*
X59354Y-51125D01*
X59425Y-51196D01*
X59516Y-51234D01*
X59616Y-51234D01*
X60167Y-51234D01*
X60259Y-51196D01*
X60329Y-51126D01*
X60368Y-51034D01*
X60368Y-50934D01*
X60368Y-55757D01*
X60330Y-55665D01*
X60259Y-55595D01*
X60168Y-55557D01*
X60068Y-55557D01*
X59517Y-55557D01*
X59425Y-55595D01*
X59355Y-55665D01*
X59316Y-55757D01*
X59316Y-55856D01*
X59316Y-57431D01*
X59354Y-57523D01*
X59425Y-57593D01*
X59516Y-57631D01*
X59616Y-57631D01*
X60167Y-57631D01*
X60259Y-57593D01*
X60329Y-57523D01*
X60368Y-57431D01*
X60368Y-57332D01*
X60368Y-58119D01*
X60330Y-58027D01*
X60259Y-57957D01*
X60168Y-57919D01*
X60068Y-57919D01*
X59517Y-57919D01*
X59425Y-57957D01*
X59355Y-58027D01*
X59316Y-58119D01*
X59316Y-58218D01*
X59316Y-58656D01*
X57624Y-58656D01*
X57257Y-58290D01*
X57257Y-55718D01*
X57219Y-55626D01*
X57149Y-55555D01*
X57057Y-55517D01*
X56958Y-55517D01*
X55580Y-55517D01*
X55488Y-55555D01*
X55418Y-55625D01*
X55379Y-55717D01*
X55379Y-55817D01*
X55379Y-59832D01*
X55417Y-59924D01*
X55488Y-59995D01*
X55579Y-60033D01*
X55679Y-60033D01*
X57057Y-60033D01*
X57149Y-59995D01*
X57219Y-59925D01*
X57257Y-59833D01*
X57257Y-59733D01*
X57257Y-59138D01*
X57287Y-59168D01*
X57287Y-59168D01*
X57385Y-59233D01*
X57500Y-59256D01*
X59316Y-59256D01*
X59316Y-59793D01*
X59354Y-59885D01*
X59425Y-59955D01*
X59516Y-59994D01*
X59616Y-59994D01*
X60167Y-59994D01*
X60259Y-59956D01*
X60329Y-59885D01*
X60368Y-59794D01*
X60368Y-59694D01*
X60368Y-59060D01*
X62694Y-56733D01*
X62896Y-56733D01*
X63085Y-56923D01*
X63085Y-57082D01*
X63074Y-57071D01*
X62982Y-57033D01*
X62829Y-57033D01*
X62766Y-57095D01*
X62766Y-57627D01*
X62774Y-57627D01*
X62774Y-57727D01*
X62766Y-57727D01*
X62766Y-58258D01*
X62829Y-58320D01*
X62982Y-58320D01*
X63074Y-58282D01*
X63102Y-58254D01*
X63108Y-58284D01*
X63173Y-58381D01*
X63370Y-58578D01*
X63370Y-58578D01*
X63467Y-58643D01*
X63582Y-58666D01*
X63582Y-58666D01*
X64271Y-58666D01*
X64271Y-58666D01*
X64386Y-58643D01*
X64386Y-58643D01*
X64483Y-58578D01*
X64577Y-58484D01*
X65000Y-58484D01*
X65092Y-58446D01*
X65139Y-58399D01*
X65186Y-58419D01*
X65285Y-58419D01*
X65438Y-58419D01*
X65501Y-58356D01*
X65501Y-60186D01*
X62666Y-60186D01*
X62666Y-58258D01*
X62666Y-57727D01*
X62666Y-57627D01*
X62666Y-57095D01*
X62604Y-57033D01*
X62450Y-57033D01*
X62358Y-57071D01*
X62288Y-57141D01*
X62250Y-57233D01*
X62249Y-57332D01*
X62250Y-57564D01*
X62312Y-57627D01*
X62666Y-57627D01*
X62666Y-57727D01*
X62312Y-57727D01*
X62250Y-57789D01*
X62249Y-58021D01*
X62250Y-58120D01*
X62288Y-58212D01*
X62358Y-58282D01*
X62450Y-58320D01*
X62604Y-58320D01*
X62666Y-58258D01*
X62666Y-60186D01*
X54659Y-60186D01*
X54659Y-59733D01*
X54659Y-55718D01*
X54659Y-50974D01*
X54659Y-46958D01*
X54621Y-46866D01*
X54551Y-46796D01*
X54459Y-46757D01*
X54359Y-46757D01*
X52981Y-46757D01*
X52890Y-46795D01*
X52819Y-46866D01*
X52781Y-46957D01*
X52781Y-47057D01*
X52781Y-49530D01*
X52057Y-50254D01*
X51997Y-50254D01*
X51670Y-50254D01*
X49246Y-47829D01*
X49246Y-46997D01*
X49208Y-46905D01*
X49137Y-46835D01*
X49046Y-46797D01*
X48946Y-46797D01*
X48395Y-46797D01*
X48303Y-46835D01*
X48233Y-46905D01*
X48194Y-46997D01*
X48194Y-47096D01*
X48194Y-47534D01*
X46476Y-47534D01*
X46361Y-47557D01*
X46264Y-47622D01*
X46234Y-47652D01*
X46234Y-46958D01*
X46196Y-46866D01*
X46126Y-46796D01*
X46034Y-46757D01*
X45934Y-46757D01*
X44556Y-46757D01*
X44464Y-46795D01*
X44394Y-46866D01*
X44356Y-46957D01*
X44356Y-47057D01*
X44356Y-51073D01*
X44394Y-51165D01*
X44464Y-51235D01*
X44556Y-51273D01*
X44655Y-51273D01*
X46033Y-51273D01*
X46125Y-51235D01*
X46196Y-51165D01*
X46234Y-51073D01*
X46234Y-50974D01*
X46234Y-48500D01*
X46600Y-48134D01*
X48194Y-48134D01*
X48194Y-48671D01*
X48232Y-48763D01*
X48303Y-48833D01*
X48394Y-48872D01*
X48494Y-48872D01*
X49045Y-48872D01*
X49137Y-48834D01*
X49207Y-48763D01*
X49244Y-48676D01*
X51246Y-50678D01*
X51246Y-51104D01*
X51284Y-51195D01*
X51354Y-51266D01*
X51446Y-51304D01*
X51533Y-51304D01*
X51498Y-51318D01*
X51474Y-51411D01*
X51771Y-51708D01*
X52068Y-51411D01*
X52044Y-51318D01*
X52003Y-51304D01*
X52096Y-51304D01*
X52188Y-51266D01*
X52258Y-51196D01*
X52296Y-51104D01*
X52296Y-51005D01*
X52296Y-50863D01*
X52781Y-50379D01*
X52781Y-51073D01*
X52819Y-51165D01*
X52889Y-51235D01*
X52981Y-51273D01*
X53081Y-51273D01*
X54458Y-51273D01*
X54550Y-51235D01*
X54621Y-51165D01*
X54659Y-51073D01*
X54659Y-50974D01*
X54659Y-55718D01*
X54621Y-55626D01*
X54551Y-55555D01*
X54459Y-55517D01*
X54359Y-55517D01*
X52981Y-55517D01*
X52890Y-55555D01*
X52819Y-55625D01*
X52781Y-55717D01*
X52781Y-55817D01*
X52781Y-56412D01*
X52365Y-55996D01*
X52301Y-55953D01*
X52301Y-55284D01*
X52301Y-51855D01*
X52290Y-51646D01*
X52232Y-51506D01*
X52139Y-51482D01*
X51842Y-51779D01*
X52139Y-52076D01*
X52232Y-52052D01*
X52301Y-51855D01*
X52301Y-55284D01*
X52290Y-55075D01*
X52232Y-54935D01*
X52139Y-54911D01*
X52068Y-54982D01*
X52068Y-54840D01*
X52068Y-52147D01*
X51771Y-51850D01*
X51700Y-51920D01*
X51700Y-51779D01*
X51403Y-51482D01*
X51311Y-51506D01*
X51241Y-51703D01*
X51253Y-51912D01*
X51311Y-52052D01*
X51403Y-52076D01*
X51700Y-51779D01*
X51700Y-51920D01*
X51474Y-52147D01*
X51498Y-52240D01*
X51695Y-52309D01*
X51904Y-52298D01*
X52044Y-52240D01*
X52068Y-52147D01*
X52068Y-54840D01*
X52044Y-54748D01*
X51847Y-54678D01*
X51638Y-54690D01*
X51498Y-54748D01*
X51474Y-54840D01*
X51771Y-55137D01*
X52068Y-54840D01*
X52068Y-54982D01*
X51842Y-55208D01*
X52139Y-55505D01*
X52232Y-55481D01*
X52301Y-55284D01*
X52301Y-55953D01*
X52296Y-55950D01*
X52296Y-55884D01*
X52258Y-55792D01*
X52188Y-55721D01*
X52096Y-55683D01*
X52009Y-55683D01*
X52044Y-55669D01*
X52068Y-55576D01*
X51771Y-55279D01*
X51700Y-55350D01*
X51700Y-55208D01*
X51403Y-54911D01*
X51311Y-54935D01*
X51241Y-55132D01*
X51253Y-55341D01*
X51311Y-55481D01*
X51403Y-55505D01*
X51700Y-55208D01*
X51700Y-55350D01*
X51474Y-55576D01*
X51498Y-55669D01*
X51539Y-55683D01*
X51447Y-55683D01*
X51355Y-55721D01*
X51284Y-55791D01*
X51246Y-55883D01*
X51246Y-55983D01*
X51246Y-56309D01*
X49246Y-58309D01*
X49246Y-58021D01*
X49246Y-57233D01*
X49246Y-55659D01*
X49246Y-50934D01*
X49246Y-49359D01*
X49208Y-49268D01*
X49137Y-49197D01*
X49046Y-49159D01*
X48946Y-49159D01*
X48395Y-49159D01*
X48303Y-49197D01*
X48233Y-49267D01*
X48194Y-49359D01*
X48194Y-49458D01*
X48194Y-51033D01*
X48232Y-51125D01*
X48303Y-51196D01*
X48394Y-51234D01*
X48494Y-51234D01*
X49045Y-51234D01*
X49137Y-51196D01*
X49207Y-51126D01*
X49246Y-51034D01*
X49246Y-50934D01*
X49246Y-55659D01*
X49208Y-55567D01*
X49137Y-55496D01*
X49046Y-55458D01*
X48946Y-55458D01*
X48395Y-55458D01*
X48303Y-55496D01*
X48233Y-55566D01*
X48194Y-55658D01*
X48194Y-55758D01*
X48194Y-57332D01*
X48232Y-57424D01*
X48303Y-57495D01*
X48394Y-57533D01*
X48494Y-57533D01*
X49045Y-57533D01*
X49137Y-57495D01*
X49207Y-57425D01*
X49246Y-57333D01*
X49246Y-57233D01*
X49246Y-58021D01*
X49208Y-57929D01*
X49137Y-57859D01*
X49046Y-57820D01*
X48946Y-57820D01*
X48395Y-57820D01*
X48303Y-57858D01*
X48233Y-57929D01*
X48194Y-58020D01*
X48194Y-58120D01*
X48194Y-58558D01*
X46600Y-58558D01*
X46234Y-58191D01*
X46234Y-55619D01*
X46196Y-55527D01*
X46126Y-55457D01*
X46034Y-55419D01*
X45934Y-55419D01*
X44556Y-55419D01*
X44464Y-55457D01*
X44394Y-55527D01*
X44356Y-55619D01*
X44356Y-55718D01*
X44356Y-59734D01*
X44394Y-59826D01*
X44464Y-59896D01*
X44556Y-59934D01*
X44655Y-59935D01*
X46033Y-59935D01*
X46125Y-59897D01*
X46196Y-59826D01*
X46234Y-59734D01*
X46234Y-59635D01*
X46234Y-59040D01*
X46264Y-59070D01*
X46264Y-59070D01*
X46361Y-59135D01*
X46476Y-59158D01*
X48194Y-59158D01*
X48194Y-59695D01*
X48232Y-59787D01*
X48303Y-59857D01*
X48394Y-59895D01*
X48494Y-59895D01*
X49045Y-59895D01*
X49137Y-59857D01*
X49207Y-59787D01*
X49246Y-59695D01*
X49246Y-59596D01*
X49246Y-59129D01*
X49246Y-59129D01*
X49334Y-59070D01*
X51670Y-56733D01*
X52096Y-56733D01*
X52188Y-56695D01*
X52202Y-56681D01*
X52781Y-57260D01*
X52781Y-59832D01*
X52819Y-59924D01*
X52889Y-59995D01*
X52981Y-60033D01*
X53081Y-60033D01*
X54458Y-60033D01*
X54550Y-59995D01*
X54621Y-59925D01*
X54659Y-59833D01*
X54659Y-59733D01*
X54659Y-60186D01*
X43635Y-60186D01*
X43635Y-59635D01*
X43635Y-55619D01*
X43635Y-50974D01*
X43635Y-46958D01*
X43597Y-46866D01*
X43527Y-46796D01*
X43435Y-46757D01*
X43336Y-46757D01*
X41958Y-46757D01*
X41866Y-46795D01*
X41796Y-46866D01*
X41757Y-46957D01*
X41757Y-47057D01*
X41757Y-47652D01*
X41727Y-47622D01*
X41630Y-47557D01*
X41515Y-47534D01*
X39797Y-47534D01*
X39797Y-46997D01*
X39759Y-46905D01*
X39689Y-46835D01*
X39597Y-46797D01*
X39497Y-46797D01*
X38946Y-46797D01*
X38854Y-46835D01*
X38784Y-46905D01*
X38746Y-46997D01*
X38746Y-47096D01*
X38746Y-47731D01*
X36706Y-47731D01*
X36706Y-47548D01*
X36668Y-47456D01*
X36598Y-47386D01*
X36506Y-47348D01*
X36407Y-47348D01*
X35422Y-47348D01*
X35331Y-47386D01*
X35260Y-47456D01*
X35222Y-47548D01*
X35222Y-47647D01*
X35222Y-48514D01*
X35260Y-48605D01*
X35330Y-48676D01*
X35422Y-48714D01*
X35521Y-48714D01*
X35664Y-48714D01*
X35664Y-49316D01*
X35422Y-49316D01*
X35331Y-49354D01*
X35260Y-49425D01*
X35222Y-49516D01*
X35222Y-49616D01*
X35222Y-50482D01*
X35260Y-50574D01*
X35330Y-50644D01*
X35422Y-50683D01*
X35521Y-50683D01*
X36479Y-50683D01*
X36691Y-50894D01*
X36683Y-50891D01*
X36057Y-50891D01*
X35994Y-50954D01*
X35994Y-53099D01*
X36821Y-53099D01*
X36883Y-53037D01*
X36883Y-51191D01*
X36883Y-51091D01*
X36880Y-51084D01*
X37396Y-51600D01*
X37396Y-51624D01*
X37372Y-51624D01*
X37280Y-51662D01*
X37210Y-51732D01*
X37171Y-51824D01*
X37171Y-51924D01*
X37171Y-52474D01*
X37209Y-52566D01*
X37280Y-52636D01*
X37371Y-52674D01*
X37458Y-52674D01*
X37424Y-52689D01*
X37399Y-52781D01*
X37696Y-53078D01*
X37993Y-52781D01*
X37969Y-52689D01*
X37928Y-52674D01*
X38021Y-52674D01*
X38113Y-52636D01*
X38183Y-52566D01*
X38221Y-52474D01*
X38221Y-52375D01*
X38221Y-51825D01*
X38183Y-51733D01*
X38113Y-51662D01*
X38021Y-51624D01*
X37996Y-51624D01*
X37996Y-51476D01*
X37996Y-51476D01*
X37974Y-51361D01*
X37908Y-51264D01*
X37908Y-51264D01*
X36706Y-50061D01*
X36706Y-49517D01*
X36668Y-49425D01*
X36598Y-49355D01*
X36506Y-49316D01*
X36407Y-49316D01*
X36264Y-49316D01*
X36264Y-48714D01*
X36506Y-48714D01*
X36598Y-48676D01*
X36668Y-48606D01*
X36706Y-48514D01*
X36706Y-48415D01*
X36706Y-48331D01*
X38746Y-48331D01*
X38746Y-48671D01*
X38783Y-48763D01*
X38854Y-48833D01*
X38946Y-48872D01*
X39045Y-48872D01*
X39596Y-48872D01*
X39688Y-48834D01*
X39759Y-48763D01*
X39797Y-48671D01*
X39797Y-48572D01*
X39797Y-48134D01*
X41391Y-48134D01*
X41757Y-48500D01*
X41757Y-51073D01*
X41795Y-51165D01*
X41866Y-51235D01*
X41957Y-51273D01*
X42057Y-51273D01*
X43435Y-51273D01*
X43527Y-51235D01*
X43597Y-51165D01*
X43635Y-51073D01*
X43635Y-50974D01*
X43635Y-55619D01*
X43597Y-55527D01*
X43527Y-55457D01*
X43435Y-55419D01*
X43336Y-55419D01*
X41958Y-55419D01*
X41866Y-55457D01*
X41796Y-55527D01*
X41757Y-55619D01*
X41757Y-55718D01*
X41757Y-58191D01*
X41391Y-58558D01*
X39797Y-58558D01*
X39797Y-58021D01*
X39797Y-57233D01*
X39797Y-55659D01*
X39797Y-50934D01*
X39797Y-49359D01*
X39759Y-49268D01*
X39689Y-49197D01*
X39597Y-49159D01*
X39497Y-49159D01*
X38946Y-49159D01*
X38854Y-49197D01*
X38784Y-49267D01*
X38746Y-49359D01*
X38746Y-49458D01*
X38746Y-51033D01*
X38783Y-51125D01*
X38854Y-51196D01*
X38946Y-51234D01*
X39045Y-51234D01*
X39596Y-51234D01*
X39688Y-51196D01*
X39759Y-51126D01*
X39797Y-51034D01*
X39797Y-50934D01*
X39797Y-55659D01*
X39759Y-55567D01*
X39689Y-55496D01*
X39597Y-55458D01*
X39497Y-55458D01*
X38946Y-55458D01*
X38854Y-55496D01*
X38784Y-55566D01*
X38746Y-55658D01*
X38746Y-55758D01*
X38746Y-57332D01*
X38783Y-57424D01*
X38854Y-57495D01*
X38946Y-57533D01*
X39045Y-57533D01*
X39596Y-57533D01*
X39688Y-57495D01*
X39759Y-57425D01*
X39797Y-57333D01*
X39797Y-57233D01*
X39797Y-58021D01*
X39759Y-57929D01*
X39689Y-57859D01*
X39597Y-57820D01*
X39497Y-57820D01*
X38946Y-57820D01*
X38854Y-57858D01*
X38784Y-57929D01*
X38746Y-58020D01*
X38746Y-58120D01*
X38746Y-58361D01*
X38226Y-58361D01*
X38226Y-53225D01*
X38215Y-53016D01*
X38157Y-52876D01*
X38064Y-52852D01*
X37767Y-53149D01*
X38064Y-53446D01*
X38157Y-53422D01*
X38226Y-53225D01*
X38226Y-58361D01*
X36706Y-58361D01*
X36706Y-58178D01*
X36668Y-58086D01*
X36598Y-58016D01*
X36506Y-57978D01*
X36407Y-57978D01*
X36264Y-57978D01*
X36264Y-57376D01*
X36506Y-57376D01*
X36598Y-57338D01*
X36668Y-57267D01*
X36706Y-57175D01*
X36706Y-57076D01*
X36706Y-56210D01*
X36685Y-56159D01*
X37908Y-54936D01*
X37908Y-54936D01*
X37974Y-54839D01*
X37996Y-54724D01*
X37996Y-54724D01*
X37996Y-54591D01*
X38141Y-54447D01*
X38221Y-54254D01*
X38221Y-54045D01*
X38142Y-53852D01*
X37994Y-53704D01*
X37868Y-53652D01*
X37969Y-53610D01*
X37993Y-53517D01*
X37696Y-53220D01*
X37626Y-53291D01*
X37626Y-53149D01*
X37329Y-52852D01*
X37236Y-52876D01*
X37166Y-53073D01*
X37178Y-53282D01*
X37236Y-53422D01*
X37329Y-53446D01*
X37626Y-53149D01*
X37626Y-53291D01*
X37399Y-53517D01*
X37424Y-53610D01*
X37533Y-53648D01*
X37399Y-53704D01*
X37252Y-53851D01*
X37171Y-54044D01*
X37171Y-54253D01*
X37251Y-54446D01*
X37396Y-54592D01*
X37396Y-54600D01*
X36883Y-55113D01*
X36883Y-55107D01*
X36883Y-53262D01*
X36821Y-53199D01*
X35994Y-53199D01*
X35994Y-55344D01*
X36057Y-55407D01*
X36589Y-55407D01*
X35987Y-56009D01*
X35894Y-56009D01*
X35894Y-55344D01*
X35894Y-53199D01*
X35894Y-53099D01*
X35894Y-50954D01*
X35832Y-50891D01*
X35206Y-50891D01*
X35114Y-50929D01*
X35044Y-50999D01*
X35005Y-51091D01*
X35005Y-51191D01*
X35005Y-53037D01*
X35068Y-53099D01*
X35894Y-53099D01*
X35894Y-53199D01*
X35068Y-53199D01*
X35005Y-53262D01*
X35005Y-55107D01*
X35005Y-55207D01*
X35044Y-55299D01*
X35114Y-55369D01*
X35206Y-55407D01*
X35832Y-55407D01*
X35894Y-55344D01*
X35894Y-56009D01*
X35422Y-56009D01*
X35331Y-56047D01*
X35260Y-56118D01*
X35222Y-56209D01*
X35222Y-56309D01*
X35222Y-57175D01*
X35260Y-57267D01*
X35330Y-57337D01*
X35422Y-57375D01*
X35521Y-57376D01*
X35664Y-57376D01*
X35664Y-57978D01*
X35422Y-57978D01*
X35331Y-58016D01*
X35260Y-58086D01*
X35222Y-58178D01*
X35222Y-58277D01*
X35222Y-59143D01*
X35260Y-59235D01*
X35330Y-59306D01*
X35422Y-59344D01*
X35521Y-59344D01*
X36506Y-59344D01*
X36598Y-59306D01*
X36668Y-59236D01*
X36706Y-59144D01*
X36706Y-59044D01*
X36706Y-58961D01*
X38746Y-58961D01*
X38746Y-59695D01*
X38783Y-59787D01*
X38854Y-59857D01*
X38946Y-59895D01*
X39045Y-59895D01*
X39596Y-59895D01*
X39688Y-59857D01*
X39759Y-59787D01*
X39797Y-59695D01*
X39797Y-59596D01*
X39797Y-59158D01*
X41515Y-59158D01*
X41515Y-59158D01*
X41630Y-59135D01*
X41630Y-59135D01*
X41727Y-59070D01*
X41757Y-59040D01*
X41757Y-59734D01*
X41795Y-59826D01*
X41866Y-59896D01*
X41957Y-59934D01*
X42057Y-59935D01*
X43435Y-59935D01*
X43527Y-59897D01*
X43597Y-59826D01*
X43635Y-59734D01*
X43635Y-59635D01*
X43635Y-60186D01*
X34856Y-60186D01*
X34856Y-59044D01*
X34856Y-58178D01*
X34818Y-58086D01*
X34748Y-58016D01*
X34656Y-57978D01*
X34556Y-57978D01*
X34366Y-57978D01*
X34326Y-57917D01*
X33784Y-57376D01*
X34655Y-57376D01*
X34747Y-57338D01*
X34818Y-57267D01*
X34856Y-57175D01*
X34856Y-57076D01*
X34856Y-56210D01*
X34818Y-56118D01*
X34748Y-56048D01*
X34656Y-56009D01*
X34650Y-56009D01*
X34650Y-50683D01*
X34655Y-50683D01*
X34747Y-50645D01*
X34818Y-50574D01*
X34856Y-50483D01*
X34856Y-50383D01*
X34856Y-49517D01*
X34818Y-49425D01*
X34748Y-49355D01*
X34656Y-49316D01*
X34556Y-49316D01*
X33587Y-49316D01*
X34189Y-48714D01*
X34655Y-48714D01*
X34747Y-48676D01*
X34818Y-48606D01*
X34856Y-48514D01*
X34856Y-48415D01*
X34856Y-47548D01*
X34818Y-47456D01*
X34748Y-47386D01*
X34656Y-47348D01*
X34556Y-47348D01*
X33572Y-47348D01*
X33480Y-47386D01*
X33410Y-47456D01*
X33372Y-47548D01*
X33372Y-47647D01*
X33372Y-48514D01*
X33409Y-48605D01*
X33430Y-48626D01*
X33055Y-49000D01*
X32990Y-49097D01*
X32967Y-49212D01*
X32967Y-49974D01*
X31509Y-51432D01*
X31444Y-51530D01*
X31421Y-51644D01*
X31421Y-51709D01*
X31266Y-51709D01*
X31174Y-51747D01*
X31104Y-51817D01*
X31066Y-51909D01*
X31066Y-52009D01*
X31066Y-52380D01*
X30791Y-52654D01*
X30726Y-52752D01*
X30703Y-52866D01*
X30703Y-55019D01*
X30726Y-55134D01*
X30791Y-55231D01*
X33548Y-57988D01*
X33480Y-58016D01*
X33410Y-58086D01*
X33372Y-58178D01*
X33372Y-58277D01*
X33372Y-59143D01*
X33409Y-59235D01*
X33480Y-59306D01*
X33572Y-59344D01*
X33671Y-59344D01*
X34655Y-59344D01*
X34747Y-59306D01*
X34818Y-59236D01*
X34856Y-59144D01*
X34856Y-59044D01*
X34856Y-60186D01*
X34272Y-60186D01*
X33893Y-59807D01*
X33120Y-59034D01*
X33120Y-57853D01*
X30364Y-55097D01*
X30364Y-53149D01*
X30364Y-51989D01*
X32727Y-49627D01*
X32727Y-47264D01*
X33878Y-46112D01*
X72026Y-46112D01*
X75540Y-49627D01*
X75540Y-58640D01*
M02*
