G04 (created by PCBNEW (2013-may-18)-stable) date 2014年02月07日 星期五 16时20分23秒*
%MOIN*%
G04 Gerber Fmt 3.4, Leading zero omitted, Abs format*
%FSLAX34Y34*%
G01*
G70*
G90*
G04 APERTURE LIST*
%ADD10C,0.00590551*%
%ADD11C,0.005*%
%ADD12C,0.012*%
%ADD13C,0.008*%
%ADD14C,0.015*%
%ADD15C,0.0107*%
%ADD16C,0.0019685*%
%ADD17C,0.006*%
%ADD18C,0.01*%
G04 APERTURE END LIST*
G54D10*
X50096Y-38653D02*
X53403Y-38653D01*
X53403Y-38653D02*
X53403Y-35976D01*
X53403Y-35976D02*
X52773Y-35346D01*
X52773Y-35346D02*
X50726Y-35346D01*
X50726Y-35346D02*
X50096Y-35976D01*
X50096Y-35976D02*
X50096Y-38653D01*
X53324Y-37000D02*
G75*
G03X53324Y-37000I-1574J0D01*
G74*
G01*
X67546Y-47153D02*
X70853Y-47153D01*
X70853Y-47153D02*
X70853Y-44476D01*
X70853Y-44476D02*
X70223Y-43846D01*
X70223Y-43846D02*
X68176Y-43846D01*
X68176Y-43846D02*
X67546Y-44476D01*
X67546Y-44476D02*
X67546Y-47153D01*
X70774Y-45500D02*
G75*
G03X70774Y-45500I-1574J0D01*
G74*
G01*
X38896Y-47053D02*
X42203Y-47053D01*
X42203Y-47053D02*
X42203Y-44376D01*
X42203Y-44376D02*
X41573Y-43746D01*
X41573Y-43746D02*
X39526Y-43746D01*
X39526Y-43746D02*
X38896Y-44376D01*
X38896Y-44376D02*
X38896Y-47053D01*
X42124Y-45400D02*
G75*
G03X42124Y-45400I-1574J0D01*
G74*
G01*
X58246Y-38653D02*
X61553Y-38653D01*
X61553Y-38653D02*
X61553Y-35976D01*
X61553Y-35976D02*
X60923Y-35346D01*
X60923Y-35346D02*
X58876Y-35346D01*
X58876Y-35346D02*
X58246Y-35976D01*
X58246Y-35976D02*
X58246Y-38653D01*
X61474Y-37000D02*
G75*
G03X61474Y-37000I-1574J0D01*
G74*
G01*
X50096Y-47153D02*
X53403Y-47153D01*
X53403Y-47153D02*
X53403Y-44476D01*
X53403Y-44476D02*
X52773Y-43846D01*
X52773Y-43846D02*
X50726Y-43846D01*
X50726Y-43846D02*
X50096Y-44476D01*
X50096Y-44476D02*
X50096Y-47153D01*
X53324Y-45500D02*
G75*
G03X53324Y-45500I-1574J0D01*
G74*
G01*
X67546Y-38653D02*
X70853Y-38653D01*
X70853Y-38653D02*
X70853Y-35976D01*
X70853Y-35976D02*
X70223Y-35346D01*
X70223Y-35346D02*
X68176Y-35346D01*
X68176Y-35346D02*
X67546Y-35976D01*
X67546Y-35976D02*
X67546Y-38653D01*
X70774Y-37000D02*
G75*
G03X70774Y-37000I-1574J0D01*
G74*
G01*
X58246Y-47153D02*
X61553Y-47153D01*
X61553Y-47153D02*
X61553Y-44476D01*
X61553Y-44476D02*
X60923Y-43846D01*
X60923Y-43846D02*
X58876Y-43846D01*
X58876Y-43846D02*
X58246Y-44476D01*
X58246Y-44476D02*
X58246Y-47153D01*
X61474Y-45500D02*
G75*
G03X61474Y-45500I-1574J0D01*
G74*
G01*
X53770Y-34431D02*
X57629Y-34431D01*
X57629Y-34431D02*
X57629Y-38368D01*
X57629Y-38368D02*
X53770Y-38368D01*
X53770Y-38368D02*
X53770Y-34431D01*
X39495Y-34756D02*
X43354Y-34756D01*
X43354Y-34756D02*
X43354Y-38693D01*
X43354Y-38693D02*
X39495Y-38693D01*
X39495Y-38693D02*
X39495Y-34756D01*
X63070Y-43631D02*
X66929Y-43631D01*
X66929Y-43631D02*
X66929Y-47568D01*
X66929Y-47568D02*
X63070Y-47568D01*
X63070Y-47568D02*
X63070Y-43631D01*
X46195Y-39356D02*
X50054Y-39356D01*
X50054Y-39356D02*
X50054Y-43293D01*
X50054Y-43293D02*
X46195Y-43293D01*
X46195Y-43293D02*
X46195Y-39356D01*
X63070Y-34431D02*
X66929Y-34431D01*
X66929Y-34431D02*
X66929Y-38368D01*
X66929Y-38368D02*
X63070Y-38368D01*
X63070Y-38368D02*
X63070Y-34431D01*
X53770Y-43631D02*
X57629Y-43631D01*
X57629Y-43631D02*
X57629Y-47568D01*
X57629Y-47568D02*
X53770Y-47568D01*
X53770Y-47568D02*
X53770Y-43631D01*
G54D11*
X28750Y-43350D02*
X28750Y-39350D01*
X28750Y-39350D02*
X32050Y-39350D01*
X32050Y-39350D02*
X32050Y-43350D01*
X32050Y-43350D02*
X28750Y-43350D01*
X30650Y-39350D02*
X30650Y-39650D01*
X30650Y-39650D02*
X30150Y-39650D01*
X30150Y-39650D02*
X30150Y-39350D01*
G54D12*
X30475Y-35650D02*
X30475Y-34650D01*
X30475Y-34650D02*
X32475Y-34650D01*
X32475Y-34650D02*
X32475Y-35650D01*
X32475Y-35650D02*
X30475Y-35650D01*
G54D10*
X33102Y-40836D02*
X33102Y-40363D01*
X33102Y-40363D02*
X34047Y-40363D01*
X34047Y-40363D02*
X34047Y-40836D01*
X34047Y-40836D02*
X33102Y-40836D01*
X33102Y-42336D02*
X33102Y-41863D01*
X33102Y-41863D02*
X34047Y-41863D01*
X34047Y-41863D02*
X34047Y-42336D01*
X34047Y-42336D02*
X33102Y-42336D01*
G54D13*
X74625Y-43175D02*
X75125Y-43650D01*
X75125Y-43175D02*
X73875Y-43175D01*
X73875Y-43175D02*
X73875Y-44425D01*
X73875Y-44425D02*
X75125Y-44425D01*
X75125Y-44425D02*
X75125Y-43175D01*
X74375Y-39425D02*
X73875Y-38950D01*
X73875Y-39425D02*
X75125Y-39425D01*
X75125Y-39425D02*
X75125Y-38175D01*
X75125Y-38175D02*
X73875Y-38175D01*
X73875Y-38175D02*
X73875Y-39425D01*
G54D14*
X38300Y-41425D02*
X38550Y-41425D01*
X38550Y-41425D02*
X38550Y-45425D01*
X38550Y-45425D02*
X38300Y-45425D01*
X36800Y-41425D02*
X38300Y-41425D01*
X38300Y-41425D02*
X38300Y-45425D01*
X38300Y-45425D02*
X36800Y-45425D01*
X36800Y-45425D02*
X36800Y-41425D01*
X37050Y-41250D02*
X36800Y-41250D01*
X36800Y-41250D02*
X36800Y-37250D01*
X36800Y-37250D02*
X37050Y-37250D01*
X38550Y-41250D02*
X37050Y-41250D01*
X37050Y-41250D02*
X37050Y-37250D01*
X37050Y-37250D02*
X38550Y-37250D01*
X38550Y-37250D02*
X38550Y-41250D01*
G54D10*
X48994Y-45112D02*
X47105Y-45112D01*
X47105Y-45112D02*
X47105Y-43537D01*
X47105Y-43537D02*
X48994Y-43537D01*
X48994Y-43537D02*
X48994Y-45112D01*
X44750Y-37136D02*
X46086Y-35800D01*
X46086Y-35800D02*
X47199Y-36913D01*
X47199Y-36913D02*
X45863Y-38249D01*
X45863Y-38249D02*
X44750Y-37136D01*
X48994Y-46962D02*
X47105Y-46962D01*
X47105Y-46962D02*
X47105Y-45387D01*
X47105Y-45387D02*
X48994Y-45387D01*
X48994Y-45387D02*
X48994Y-46962D01*
X47105Y-37562D02*
X48994Y-37562D01*
X48994Y-37562D02*
X48994Y-39137D01*
X48994Y-39137D02*
X47105Y-39137D01*
X47105Y-39137D02*
X47105Y-37562D01*
X80872Y-39133D02*
X80872Y-40866D01*
X80872Y-40866D02*
X79927Y-40866D01*
X79927Y-40866D02*
X79927Y-39133D01*
X79927Y-39133D02*
X80872Y-39133D01*
X79972Y-44133D02*
X79972Y-45866D01*
X79972Y-45866D02*
X79027Y-45866D01*
X79027Y-45866D02*
X79027Y-44133D01*
X79027Y-44133D02*
X79972Y-44133D01*
X81272Y-44133D02*
X81272Y-45866D01*
X81272Y-45866D02*
X80327Y-45866D01*
X80327Y-45866D02*
X80327Y-44133D01*
X80327Y-44133D02*
X81272Y-44133D01*
X75727Y-43866D02*
X75727Y-42133D01*
X75727Y-42133D02*
X76672Y-42133D01*
X76672Y-42133D02*
X76672Y-43866D01*
X76672Y-43866D02*
X75727Y-43866D01*
X74972Y-45133D02*
X74972Y-46866D01*
X74972Y-46866D02*
X74027Y-46866D01*
X74027Y-46866D02*
X74027Y-45133D01*
X74027Y-45133D02*
X74972Y-45133D01*
X79572Y-39133D02*
X79572Y-40866D01*
X79572Y-40866D02*
X78627Y-40866D01*
X78627Y-40866D02*
X78627Y-39133D01*
X78627Y-39133D02*
X79572Y-39133D01*
X73833Y-40227D02*
X75566Y-40227D01*
X75566Y-40227D02*
X75566Y-41172D01*
X75566Y-41172D02*
X73833Y-41172D01*
X73833Y-41172D02*
X73833Y-40227D01*
X73927Y-37466D02*
X73927Y-35733D01*
X73927Y-35733D02*
X74872Y-35733D01*
X74872Y-35733D02*
X74872Y-37466D01*
X74872Y-37466D02*
X73927Y-37466D01*
X33102Y-40091D02*
X33102Y-38358D01*
X33102Y-38358D02*
X34047Y-38358D01*
X34047Y-38358D02*
X34047Y-40091D01*
X34047Y-40091D02*
X33102Y-40091D01*
X29972Y-43433D02*
X29972Y-45166D01*
X29972Y-45166D02*
X29027Y-45166D01*
X29027Y-45166D02*
X29027Y-43433D01*
X29027Y-43433D02*
X29972Y-43433D01*
X28847Y-43433D02*
X28847Y-45166D01*
X28847Y-45166D02*
X27902Y-45166D01*
X27902Y-45166D02*
X27902Y-43433D01*
X27902Y-43433D02*
X28847Y-43433D01*
X76250Y-44150D02*
X78750Y-44150D01*
X78750Y-44150D02*
X78750Y-45850D01*
X78750Y-45850D02*
X76250Y-45850D01*
X76250Y-45850D02*
X76250Y-44150D01*
X75750Y-38850D02*
X78250Y-38850D01*
X78250Y-38850D02*
X78250Y-40550D01*
X78250Y-40550D02*
X75750Y-40550D01*
X75750Y-40550D02*
X75750Y-38850D01*
X28950Y-36850D02*
X31450Y-36850D01*
X31450Y-36850D02*
X31450Y-38550D01*
X31450Y-38550D02*
X28950Y-38550D01*
X28950Y-38550D02*
X28950Y-36850D01*
X41800Y-40000D02*
X44600Y-40000D01*
X44600Y-40000D02*
X44600Y-42650D01*
X44600Y-42650D02*
X41800Y-42650D01*
X41800Y-42650D02*
X41800Y-40000D01*
X63070Y-39031D02*
X66929Y-39031D01*
X66929Y-39031D02*
X66929Y-42968D01*
X66929Y-42968D02*
X63070Y-42968D01*
X63070Y-42968D02*
X63070Y-39031D01*
X53770Y-39031D02*
X57629Y-39031D01*
X57629Y-39031D02*
X57629Y-42968D01*
X57629Y-42968D02*
X53770Y-42968D01*
X53770Y-42968D02*
X53770Y-39031D01*
X37877Y-36461D02*
X37877Y-35988D01*
X37877Y-35988D02*
X38822Y-35988D01*
X38822Y-35988D02*
X38822Y-36461D01*
X38822Y-36461D02*
X37877Y-36461D01*
X38122Y-46163D02*
X38122Y-46636D01*
X38122Y-46636D02*
X37177Y-46636D01*
X37177Y-46636D02*
X37177Y-46163D01*
X37177Y-46163D02*
X38122Y-46163D01*
X39327Y-42936D02*
X39327Y-42463D01*
X39327Y-42463D02*
X40272Y-42463D01*
X40272Y-42463D02*
X40272Y-42936D01*
X40272Y-42936D02*
X39327Y-42936D01*
X39327Y-40236D02*
X39327Y-39763D01*
X39327Y-39763D02*
X40272Y-39763D01*
X40272Y-39763D02*
X40272Y-40236D01*
X40272Y-40236D02*
X39327Y-40236D01*
X38933Y-41377D02*
X40666Y-41377D01*
X40666Y-41377D02*
X40666Y-42322D01*
X40666Y-42322D02*
X38933Y-42322D01*
X38933Y-42322D02*
X38933Y-41377D01*
X38933Y-40352D02*
X40666Y-40352D01*
X40666Y-40352D02*
X40666Y-41297D01*
X40666Y-41297D02*
X38933Y-41297D01*
X38933Y-41297D02*
X38933Y-40352D01*
X43447Y-44633D02*
X43447Y-46366D01*
X43447Y-46366D02*
X42502Y-46366D01*
X42502Y-46366D02*
X42502Y-44633D01*
X42502Y-44633D02*
X43447Y-44633D01*
X45472Y-43383D02*
X45472Y-45116D01*
X45472Y-45116D02*
X44527Y-45116D01*
X44527Y-45116D02*
X44527Y-43383D01*
X44527Y-43383D02*
X45472Y-43383D01*
X52416Y-42822D02*
X50683Y-42822D01*
X50683Y-42822D02*
X50683Y-41877D01*
X50683Y-41877D02*
X52416Y-41877D01*
X52416Y-41877D02*
X52416Y-42822D01*
X60266Y-40372D02*
X58533Y-40372D01*
X58533Y-40372D02*
X58533Y-39427D01*
X58533Y-39427D02*
X60266Y-39427D01*
X60266Y-39427D02*
X60266Y-40372D01*
G54D14*
X47816Y-34716D02*
X49784Y-34716D01*
X49784Y-34716D02*
X49784Y-36684D01*
X49784Y-36684D02*
X47816Y-36684D01*
X47816Y-36684D02*
X47816Y-34716D01*
X44416Y-45816D02*
X46384Y-45816D01*
X46384Y-45816D02*
X46384Y-47784D01*
X46384Y-47784D02*
X44416Y-47784D01*
X44416Y-47784D02*
X44416Y-45816D01*
X71116Y-40616D02*
X73084Y-40616D01*
X73084Y-40616D02*
X73084Y-42584D01*
X73084Y-42584D02*
X71116Y-42584D01*
X71116Y-42584D02*
X71116Y-40616D01*
X81516Y-38216D02*
X83484Y-38216D01*
X83484Y-38216D02*
X83484Y-40184D01*
X83484Y-40184D02*
X81516Y-40184D01*
X81516Y-40184D02*
X81516Y-38216D01*
X81516Y-40616D02*
X83484Y-40616D01*
X83484Y-40616D02*
X83484Y-42584D01*
X83484Y-42584D02*
X81516Y-42584D01*
X81516Y-42584D02*
X81516Y-40616D01*
X81516Y-43016D02*
X83484Y-43016D01*
X83484Y-43016D02*
X83484Y-44984D01*
X83484Y-44984D02*
X81516Y-44984D01*
X81516Y-44984D02*
X81516Y-43016D01*
X34466Y-34116D02*
X36434Y-34116D01*
X36434Y-34116D02*
X36434Y-36084D01*
X36434Y-36084D02*
X34466Y-36084D01*
X34466Y-36084D02*
X34466Y-34116D01*
X34391Y-41391D02*
X36359Y-41391D01*
X36359Y-41391D02*
X36359Y-43359D01*
X36359Y-43359D02*
X34391Y-43359D01*
X34391Y-43359D02*
X34391Y-41391D01*
X34391Y-39341D02*
X36359Y-39341D01*
X36359Y-39341D02*
X36359Y-41309D01*
X36359Y-41309D02*
X34391Y-41309D01*
X34391Y-41309D02*
X34391Y-39341D01*
X51116Y-39516D02*
X53084Y-39516D01*
X53084Y-39516D02*
X53084Y-41484D01*
X53084Y-41484D02*
X51116Y-41484D01*
X51116Y-41484D02*
X51116Y-39516D01*
X60616Y-38216D02*
X62584Y-38216D01*
X62584Y-38216D02*
X62584Y-40184D01*
X62584Y-40184D02*
X60616Y-40184D01*
X60616Y-40184D02*
X60616Y-38216D01*
X60616Y-42816D02*
X62584Y-42816D01*
X62584Y-42816D02*
X62584Y-44784D01*
X62584Y-44784D02*
X60616Y-44784D01*
X60616Y-44784D02*
X60616Y-42816D01*
X60616Y-40516D02*
X62584Y-40516D01*
X62584Y-40516D02*
X62584Y-42484D01*
X62584Y-42484D02*
X60616Y-42484D01*
X60616Y-42484D02*
X60616Y-40516D01*
X71116Y-43016D02*
X73084Y-43016D01*
X73084Y-43016D02*
X73084Y-44984D01*
X73084Y-44984D02*
X71116Y-44984D01*
X71116Y-44984D02*
X71116Y-43016D01*
X71116Y-38316D02*
X73084Y-38316D01*
X73084Y-38316D02*
X73084Y-40284D01*
X73084Y-40284D02*
X71116Y-40284D01*
X71116Y-40284D02*
X71116Y-38316D01*
X31016Y-43516D02*
X32984Y-43516D01*
X32984Y-43516D02*
X32984Y-45484D01*
X32984Y-45484D02*
X31016Y-45484D01*
X31016Y-45484D02*
X31016Y-43516D01*
G54D12*
X32800Y-35900D02*
X33200Y-35900D01*
X33200Y-35900D02*
X33200Y-35500D01*
X33200Y-35500D02*
X36400Y-35500D01*
X36400Y-35500D02*
X36400Y-36300D01*
X36400Y-36300D02*
X33200Y-36300D01*
X33200Y-36300D02*
X33200Y-35900D01*
X33200Y-35700D02*
X33400Y-35500D01*
X36800Y-35900D02*
X36400Y-35900D01*
G54D10*
X33796Y-43778D02*
X35021Y-45003D01*
X35021Y-45003D02*
X34353Y-45671D01*
X34353Y-45671D02*
X33128Y-44446D01*
X33128Y-44446D02*
X33796Y-43778D01*
G54D14*
X32000Y-36850D02*
X32000Y-36600D01*
X32000Y-36600D02*
X36000Y-36600D01*
X36000Y-36600D02*
X36000Y-36850D01*
X32000Y-38350D02*
X32000Y-36850D01*
X32000Y-36850D02*
X36000Y-36850D01*
X36000Y-36850D02*
X36000Y-38350D01*
X36000Y-38350D02*
X32000Y-38350D01*
G54D10*
X34298Y-43932D02*
X34632Y-43598D01*
X34632Y-43598D02*
X35301Y-44267D01*
X35301Y-44267D02*
X34967Y-44601D01*
X34967Y-44601D02*
X34298Y-43932D01*
X52816Y-37144D02*
X52835Y-37163D01*
X52854Y-37219D01*
X52854Y-37256D01*
X52835Y-37313D01*
X52797Y-37350D01*
X52760Y-37369D01*
X52685Y-37388D01*
X52629Y-37388D01*
X52554Y-37369D01*
X52516Y-37350D01*
X52479Y-37313D01*
X52460Y-37256D01*
X52460Y-37219D01*
X52479Y-37163D01*
X52498Y-37144D01*
X52460Y-36788D02*
X52460Y-36975D01*
X52648Y-36994D01*
X52629Y-36975D01*
X52610Y-36938D01*
X52610Y-36844D01*
X52629Y-36806D01*
X52648Y-36788D01*
X52685Y-36769D01*
X52779Y-36769D01*
X52816Y-36788D01*
X52835Y-36806D01*
X52854Y-36844D01*
X52854Y-36938D01*
X52835Y-36975D01*
X52816Y-36994D01*
X49923Y-34954D02*
X50167Y-34954D01*
X50036Y-35104D01*
X50092Y-35104D01*
X50130Y-35123D01*
X50148Y-35142D01*
X50167Y-35179D01*
X50167Y-35273D01*
X50148Y-35310D01*
X50130Y-35329D01*
X50092Y-35348D01*
X49980Y-35348D01*
X49942Y-35329D01*
X49923Y-35310D01*
X50298Y-34954D02*
X50542Y-34954D01*
X50411Y-35104D01*
X50467Y-35104D01*
X50505Y-35123D01*
X50523Y-35142D01*
X50542Y-35179D01*
X50542Y-35273D01*
X50523Y-35310D01*
X50505Y-35329D01*
X50467Y-35348D01*
X50355Y-35348D01*
X50317Y-35329D01*
X50298Y-35310D01*
X50786Y-34954D02*
X50823Y-34954D01*
X50861Y-34973D01*
X50880Y-34992D01*
X50898Y-35029D01*
X50917Y-35104D01*
X50917Y-35198D01*
X50898Y-35273D01*
X50880Y-35310D01*
X50861Y-35329D01*
X50823Y-35348D01*
X50786Y-35348D01*
X50748Y-35329D01*
X50730Y-35310D01*
X50711Y-35273D01*
X50692Y-35198D01*
X50692Y-35104D01*
X50711Y-35029D01*
X50730Y-34992D01*
X50748Y-34973D01*
X50786Y-34954D01*
X51255Y-35085D02*
X51255Y-35348D01*
X51086Y-35085D02*
X51086Y-35292D01*
X51105Y-35329D01*
X51142Y-35348D01*
X51198Y-35348D01*
X51236Y-35329D01*
X51255Y-35310D01*
X70266Y-45831D02*
X70285Y-45850D01*
X70304Y-45906D01*
X70304Y-45944D01*
X70285Y-46000D01*
X70247Y-46038D01*
X70210Y-46056D01*
X70135Y-46075D01*
X70079Y-46075D01*
X70004Y-46056D01*
X69966Y-46038D01*
X69929Y-46000D01*
X69910Y-45944D01*
X69910Y-45906D01*
X69929Y-45850D01*
X69948Y-45831D01*
X70304Y-45456D02*
X70304Y-45681D01*
X70304Y-45569D02*
X69910Y-45569D01*
X69966Y-45606D01*
X70004Y-45644D01*
X70023Y-45681D01*
X69910Y-45213D02*
X69910Y-45175D01*
X69929Y-45138D01*
X69948Y-45119D01*
X69985Y-45100D01*
X70060Y-45081D01*
X70154Y-45081D01*
X70229Y-45100D01*
X70266Y-45119D01*
X70285Y-45138D01*
X70304Y-45175D01*
X70304Y-45213D01*
X70285Y-45250D01*
X70266Y-45269D01*
X70229Y-45288D01*
X70154Y-45306D01*
X70060Y-45306D01*
X69985Y-45288D01*
X69948Y-45269D01*
X69929Y-45250D01*
X69910Y-45213D01*
X67373Y-43454D02*
X67617Y-43454D01*
X67486Y-43604D01*
X67542Y-43604D01*
X67580Y-43623D01*
X67598Y-43642D01*
X67617Y-43679D01*
X67617Y-43773D01*
X67598Y-43810D01*
X67580Y-43829D01*
X67542Y-43848D01*
X67430Y-43848D01*
X67392Y-43829D01*
X67373Y-43810D01*
X67748Y-43454D02*
X67992Y-43454D01*
X67861Y-43604D01*
X67917Y-43604D01*
X67955Y-43623D01*
X67973Y-43642D01*
X67992Y-43679D01*
X67992Y-43773D01*
X67973Y-43810D01*
X67955Y-43829D01*
X67917Y-43848D01*
X67805Y-43848D01*
X67767Y-43829D01*
X67748Y-43810D01*
X68236Y-43454D02*
X68273Y-43454D01*
X68311Y-43473D01*
X68330Y-43492D01*
X68348Y-43529D01*
X68367Y-43604D01*
X68367Y-43698D01*
X68348Y-43773D01*
X68330Y-43810D01*
X68311Y-43829D01*
X68273Y-43848D01*
X68236Y-43848D01*
X68198Y-43829D01*
X68180Y-43810D01*
X68161Y-43773D01*
X68142Y-43698D01*
X68142Y-43604D01*
X68161Y-43529D01*
X68180Y-43492D01*
X68198Y-43473D01*
X68236Y-43454D01*
X68705Y-43585D02*
X68705Y-43848D01*
X68536Y-43585D02*
X68536Y-43792D01*
X68555Y-43829D01*
X68592Y-43848D01*
X68648Y-43848D01*
X68686Y-43829D01*
X68705Y-43810D01*
X41616Y-45544D02*
X41635Y-45563D01*
X41654Y-45619D01*
X41654Y-45656D01*
X41635Y-45713D01*
X41597Y-45750D01*
X41560Y-45769D01*
X41485Y-45788D01*
X41429Y-45788D01*
X41354Y-45769D01*
X41316Y-45750D01*
X41279Y-45713D01*
X41260Y-45656D01*
X41260Y-45619D01*
X41279Y-45563D01*
X41298Y-45544D01*
X41391Y-45206D02*
X41654Y-45206D01*
X41241Y-45300D02*
X41523Y-45394D01*
X41523Y-45150D01*
X38723Y-43354D02*
X38967Y-43354D01*
X38836Y-43504D01*
X38892Y-43504D01*
X38930Y-43523D01*
X38948Y-43542D01*
X38967Y-43579D01*
X38967Y-43673D01*
X38948Y-43710D01*
X38930Y-43729D01*
X38892Y-43748D01*
X38780Y-43748D01*
X38742Y-43729D01*
X38723Y-43710D01*
X39098Y-43354D02*
X39342Y-43354D01*
X39211Y-43504D01*
X39267Y-43504D01*
X39305Y-43523D01*
X39323Y-43542D01*
X39342Y-43579D01*
X39342Y-43673D01*
X39323Y-43710D01*
X39305Y-43729D01*
X39267Y-43748D01*
X39155Y-43748D01*
X39117Y-43729D01*
X39098Y-43710D01*
X39586Y-43354D02*
X39623Y-43354D01*
X39661Y-43373D01*
X39680Y-43392D01*
X39698Y-43429D01*
X39717Y-43504D01*
X39717Y-43598D01*
X39698Y-43673D01*
X39680Y-43710D01*
X39661Y-43729D01*
X39623Y-43748D01*
X39586Y-43748D01*
X39548Y-43729D01*
X39530Y-43710D01*
X39511Y-43673D01*
X39492Y-43598D01*
X39492Y-43504D01*
X39511Y-43429D01*
X39530Y-43392D01*
X39548Y-43373D01*
X39586Y-43354D01*
X40055Y-43485D02*
X40055Y-43748D01*
X39886Y-43485D02*
X39886Y-43692D01*
X39905Y-43729D01*
X39942Y-43748D01*
X39998Y-43748D01*
X40036Y-43729D01*
X40055Y-43710D01*
X60966Y-37144D02*
X60985Y-37163D01*
X61004Y-37219D01*
X61004Y-37256D01*
X60985Y-37313D01*
X60947Y-37350D01*
X60910Y-37369D01*
X60835Y-37388D01*
X60779Y-37388D01*
X60704Y-37369D01*
X60666Y-37350D01*
X60629Y-37313D01*
X60610Y-37256D01*
X60610Y-37219D01*
X60629Y-37163D01*
X60648Y-37144D01*
X60610Y-37013D02*
X60610Y-36750D01*
X61004Y-36919D01*
X58073Y-34954D02*
X58317Y-34954D01*
X58186Y-35104D01*
X58242Y-35104D01*
X58280Y-35123D01*
X58298Y-35142D01*
X58317Y-35179D01*
X58317Y-35273D01*
X58298Y-35310D01*
X58280Y-35329D01*
X58242Y-35348D01*
X58130Y-35348D01*
X58092Y-35329D01*
X58073Y-35310D01*
X58448Y-34954D02*
X58692Y-34954D01*
X58561Y-35104D01*
X58617Y-35104D01*
X58655Y-35123D01*
X58673Y-35142D01*
X58692Y-35179D01*
X58692Y-35273D01*
X58673Y-35310D01*
X58655Y-35329D01*
X58617Y-35348D01*
X58505Y-35348D01*
X58467Y-35329D01*
X58448Y-35310D01*
X58936Y-34954D02*
X58973Y-34954D01*
X59011Y-34973D01*
X59030Y-34992D01*
X59048Y-35029D01*
X59067Y-35104D01*
X59067Y-35198D01*
X59048Y-35273D01*
X59030Y-35310D01*
X59011Y-35329D01*
X58973Y-35348D01*
X58936Y-35348D01*
X58898Y-35329D01*
X58880Y-35310D01*
X58861Y-35273D01*
X58842Y-35198D01*
X58842Y-35104D01*
X58861Y-35029D01*
X58880Y-34992D01*
X58898Y-34973D01*
X58936Y-34954D01*
X59405Y-35085D02*
X59405Y-35348D01*
X59236Y-35085D02*
X59236Y-35292D01*
X59255Y-35329D01*
X59292Y-35348D01*
X59348Y-35348D01*
X59386Y-35329D01*
X59405Y-35310D01*
X52816Y-45644D02*
X52835Y-45663D01*
X52854Y-45719D01*
X52854Y-45756D01*
X52835Y-45813D01*
X52797Y-45850D01*
X52760Y-45869D01*
X52685Y-45888D01*
X52629Y-45888D01*
X52554Y-45869D01*
X52516Y-45850D01*
X52479Y-45813D01*
X52460Y-45756D01*
X52460Y-45719D01*
X52479Y-45663D01*
X52498Y-45644D01*
X52460Y-45306D02*
X52460Y-45381D01*
X52479Y-45419D01*
X52498Y-45438D01*
X52554Y-45475D01*
X52629Y-45494D01*
X52779Y-45494D01*
X52816Y-45475D01*
X52835Y-45456D01*
X52854Y-45419D01*
X52854Y-45344D01*
X52835Y-45306D01*
X52816Y-45288D01*
X52779Y-45269D01*
X52685Y-45269D01*
X52648Y-45288D01*
X52629Y-45306D01*
X52610Y-45344D01*
X52610Y-45419D01*
X52629Y-45456D01*
X52648Y-45475D01*
X52685Y-45494D01*
X49923Y-43454D02*
X50167Y-43454D01*
X50036Y-43604D01*
X50092Y-43604D01*
X50130Y-43623D01*
X50148Y-43642D01*
X50167Y-43679D01*
X50167Y-43773D01*
X50148Y-43810D01*
X50130Y-43829D01*
X50092Y-43848D01*
X49980Y-43848D01*
X49942Y-43829D01*
X49923Y-43810D01*
X50298Y-43454D02*
X50542Y-43454D01*
X50411Y-43604D01*
X50467Y-43604D01*
X50505Y-43623D01*
X50523Y-43642D01*
X50542Y-43679D01*
X50542Y-43773D01*
X50523Y-43810D01*
X50505Y-43829D01*
X50467Y-43848D01*
X50355Y-43848D01*
X50317Y-43829D01*
X50298Y-43810D01*
X50786Y-43454D02*
X50823Y-43454D01*
X50861Y-43473D01*
X50880Y-43492D01*
X50898Y-43529D01*
X50917Y-43604D01*
X50917Y-43698D01*
X50898Y-43773D01*
X50880Y-43810D01*
X50861Y-43829D01*
X50823Y-43848D01*
X50786Y-43848D01*
X50748Y-43829D01*
X50730Y-43810D01*
X50711Y-43773D01*
X50692Y-43698D01*
X50692Y-43604D01*
X50711Y-43529D01*
X50730Y-43492D01*
X50748Y-43473D01*
X50786Y-43454D01*
X51255Y-43585D02*
X51255Y-43848D01*
X51086Y-43585D02*
X51086Y-43792D01*
X51105Y-43829D01*
X51142Y-43848D01*
X51198Y-43848D01*
X51236Y-43829D01*
X51255Y-43810D01*
X70266Y-37144D02*
X70285Y-37163D01*
X70304Y-37219D01*
X70304Y-37256D01*
X70285Y-37313D01*
X70247Y-37350D01*
X70210Y-37369D01*
X70135Y-37388D01*
X70079Y-37388D01*
X70004Y-37369D01*
X69966Y-37350D01*
X69929Y-37313D01*
X69910Y-37256D01*
X69910Y-37219D01*
X69929Y-37163D01*
X69948Y-37144D01*
X70304Y-36956D02*
X70304Y-36881D01*
X70285Y-36844D01*
X70266Y-36825D01*
X70210Y-36788D01*
X70135Y-36769D01*
X69985Y-36769D01*
X69948Y-36788D01*
X69929Y-36806D01*
X69910Y-36844D01*
X69910Y-36919D01*
X69929Y-36956D01*
X69948Y-36975D01*
X69985Y-36994D01*
X70079Y-36994D01*
X70116Y-36975D01*
X70135Y-36956D01*
X70154Y-36919D01*
X70154Y-36844D01*
X70135Y-36806D01*
X70116Y-36788D01*
X70079Y-36769D01*
X67373Y-34954D02*
X67617Y-34954D01*
X67486Y-35104D01*
X67542Y-35104D01*
X67580Y-35123D01*
X67598Y-35142D01*
X67617Y-35179D01*
X67617Y-35273D01*
X67598Y-35310D01*
X67580Y-35329D01*
X67542Y-35348D01*
X67430Y-35348D01*
X67392Y-35329D01*
X67373Y-35310D01*
X67748Y-34954D02*
X67992Y-34954D01*
X67861Y-35104D01*
X67917Y-35104D01*
X67955Y-35123D01*
X67973Y-35142D01*
X67992Y-35179D01*
X67992Y-35273D01*
X67973Y-35310D01*
X67955Y-35329D01*
X67917Y-35348D01*
X67805Y-35348D01*
X67767Y-35329D01*
X67748Y-35310D01*
X68236Y-34954D02*
X68273Y-34954D01*
X68311Y-34973D01*
X68330Y-34992D01*
X68348Y-35029D01*
X68367Y-35104D01*
X68367Y-35198D01*
X68348Y-35273D01*
X68330Y-35310D01*
X68311Y-35329D01*
X68273Y-35348D01*
X68236Y-35348D01*
X68198Y-35329D01*
X68180Y-35310D01*
X68161Y-35273D01*
X68142Y-35198D01*
X68142Y-35104D01*
X68161Y-35029D01*
X68180Y-34992D01*
X68198Y-34973D01*
X68236Y-34954D01*
X68705Y-35085D02*
X68705Y-35348D01*
X68536Y-35085D02*
X68536Y-35292D01*
X68555Y-35329D01*
X68592Y-35348D01*
X68648Y-35348D01*
X68686Y-35329D01*
X68705Y-35310D01*
X60966Y-45644D02*
X60985Y-45663D01*
X61004Y-45719D01*
X61004Y-45756D01*
X60985Y-45813D01*
X60947Y-45850D01*
X60910Y-45869D01*
X60835Y-45888D01*
X60779Y-45888D01*
X60704Y-45869D01*
X60666Y-45850D01*
X60629Y-45813D01*
X60610Y-45756D01*
X60610Y-45719D01*
X60629Y-45663D01*
X60648Y-45644D01*
X60779Y-45419D02*
X60760Y-45456D01*
X60741Y-45475D01*
X60704Y-45494D01*
X60685Y-45494D01*
X60648Y-45475D01*
X60629Y-45456D01*
X60610Y-45419D01*
X60610Y-45344D01*
X60629Y-45306D01*
X60648Y-45288D01*
X60685Y-45269D01*
X60704Y-45269D01*
X60741Y-45288D01*
X60760Y-45306D01*
X60779Y-45344D01*
X60779Y-45419D01*
X60798Y-45456D01*
X60816Y-45475D01*
X60854Y-45494D01*
X60929Y-45494D01*
X60966Y-45475D01*
X60985Y-45456D01*
X61004Y-45419D01*
X61004Y-45344D01*
X60985Y-45306D01*
X60966Y-45288D01*
X60929Y-45269D01*
X60854Y-45269D01*
X60816Y-45288D01*
X60798Y-45306D01*
X60779Y-45344D01*
X58073Y-43454D02*
X58317Y-43454D01*
X58186Y-43604D01*
X58242Y-43604D01*
X58280Y-43623D01*
X58298Y-43642D01*
X58317Y-43679D01*
X58317Y-43773D01*
X58298Y-43810D01*
X58280Y-43829D01*
X58242Y-43848D01*
X58130Y-43848D01*
X58092Y-43829D01*
X58073Y-43810D01*
X58448Y-43454D02*
X58692Y-43454D01*
X58561Y-43604D01*
X58617Y-43604D01*
X58655Y-43623D01*
X58673Y-43642D01*
X58692Y-43679D01*
X58692Y-43773D01*
X58673Y-43810D01*
X58655Y-43829D01*
X58617Y-43848D01*
X58505Y-43848D01*
X58467Y-43829D01*
X58448Y-43810D01*
X58936Y-43454D02*
X58973Y-43454D01*
X59011Y-43473D01*
X59030Y-43492D01*
X59048Y-43529D01*
X59067Y-43604D01*
X59067Y-43698D01*
X59048Y-43773D01*
X59030Y-43810D01*
X59011Y-43829D01*
X58973Y-43848D01*
X58936Y-43848D01*
X58898Y-43829D01*
X58880Y-43810D01*
X58861Y-43773D01*
X58842Y-43698D01*
X58842Y-43604D01*
X58861Y-43529D01*
X58880Y-43492D01*
X58898Y-43473D01*
X58936Y-43454D01*
X59405Y-43585D02*
X59405Y-43848D01*
X59236Y-43585D02*
X59236Y-43792D01*
X59255Y-43829D01*
X59292Y-43848D01*
X59348Y-43848D01*
X59386Y-43829D01*
X59405Y-43810D01*
X55859Y-36504D02*
X55859Y-36692D01*
X55465Y-36692D01*
X55465Y-36411D02*
X55465Y-36167D01*
X55615Y-36298D01*
X55615Y-36242D01*
X55634Y-36205D01*
X55653Y-36186D01*
X55690Y-36167D01*
X55784Y-36167D01*
X55821Y-36186D01*
X55840Y-36205D01*
X55859Y-36242D01*
X55859Y-36355D01*
X55840Y-36392D01*
X55821Y-36411D01*
X56254Y-33998D02*
X56273Y-33979D01*
X56311Y-33960D01*
X56404Y-33960D01*
X56442Y-33979D01*
X56461Y-33998D01*
X56479Y-34035D01*
X56479Y-34073D01*
X56461Y-34129D01*
X56236Y-34354D01*
X56479Y-34354D01*
X56629Y-33998D02*
X56648Y-33979D01*
X56686Y-33960D01*
X56779Y-33960D01*
X56817Y-33979D01*
X56836Y-33998D01*
X56854Y-34035D01*
X56854Y-34073D01*
X56836Y-34129D01*
X56611Y-34354D01*
X56854Y-34354D01*
X57098Y-33960D02*
X57136Y-33960D01*
X57173Y-33979D01*
X57192Y-33998D01*
X57211Y-34035D01*
X57229Y-34110D01*
X57229Y-34204D01*
X57211Y-34279D01*
X57192Y-34317D01*
X57173Y-34335D01*
X57136Y-34354D01*
X57098Y-34354D01*
X57061Y-34335D01*
X57042Y-34317D01*
X57023Y-34279D01*
X57004Y-34204D01*
X57004Y-34110D01*
X57023Y-34035D01*
X57042Y-33998D01*
X57061Y-33979D01*
X57098Y-33960D01*
X57567Y-34092D02*
X57567Y-34354D01*
X57398Y-34092D02*
X57398Y-34298D01*
X57417Y-34335D01*
X57454Y-34354D01*
X57511Y-34354D01*
X57548Y-34335D01*
X57567Y-34317D01*
X41584Y-36829D02*
X41584Y-37017D01*
X41190Y-37017D01*
X41584Y-36492D02*
X41584Y-36717D01*
X41584Y-36605D02*
X41190Y-36605D01*
X41246Y-36642D01*
X41284Y-36680D01*
X41303Y-36717D01*
X41979Y-34323D02*
X41998Y-34304D01*
X42036Y-34285D01*
X42129Y-34285D01*
X42167Y-34304D01*
X42186Y-34323D01*
X42204Y-34360D01*
X42204Y-34398D01*
X42186Y-34454D01*
X41961Y-34679D01*
X42204Y-34679D01*
X42354Y-34323D02*
X42373Y-34304D01*
X42411Y-34285D01*
X42504Y-34285D01*
X42542Y-34304D01*
X42561Y-34323D01*
X42579Y-34360D01*
X42579Y-34398D01*
X42561Y-34454D01*
X42336Y-34679D01*
X42579Y-34679D01*
X42823Y-34285D02*
X42861Y-34285D01*
X42898Y-34304D01*
X42917Y-34323D01*
X42936Y-34360D01*
X42954Y-34435D01*
X42954Y-34529D01*
X42936Y-34604D01*
X42917Y-34642D01*
X42898Y-34660D01*
X42861Y-34679D01*
X42823Y-34679D01*
X42786Y-34660D01*
X42767Y-34642D01*
X42748Y-34604D01*
X42729Y-34529D01*
X42729Y-34435D01*
X42748Y-34360D01*
X42767Y-34323D01*
X42786Y-34304D01*
X42823Y-34285D01*
X43292Y-34417D02*
X43292Y-34679D01*
X43123Y-34417D02*
X43123Y-34623D01*
X43142Y-34660D01*
X43179Y-34679D01*
X43236Y-34679D01*
X43273Y-34660D01*
X43292Y-34642D01*
X65159Y-45704D02*
X65159Y-45892D01*
X64765Y-45892D01*
X64765Y-45405D02*
X64765Y-45480D01*
X64784Y-45517D01*
X64803Y-45536D01*
X64859Y-45573D01*
X64934Y-45592D01*
X65084Y-45592D01*
X65121Y-45573D01*
X65140Y-45555D01*
X65159Y-45517D01*
X65159Y-45442D01*
X65140Y-45405D01*
X65121Y-45386D01*
X65084Y-45367D01*
X64990Y-45367D01*
X64953Y-45386D01*
X64934Y-45405D01*
X64915Y-45442D01*
X64915Y-45517D01*
X64934Y-45555D01*
X64953Y-45573D01*
X64990Y-45592D01*
X65554Y-43198D02*
X65573Y-43179D01*
X65611Y-43160D01*
X65704Y-43160D01*
X65742Y-43179D01*
X65761Y-43198D01*
X65779Y-43235D01*
X65779Y-43273D01*
X65761Y-43329D01*
X65536Y-43554D01*
X65779Y-43554D01*
X65929Y-43198D02*
X65948Y-43179D01*
X65986Y-43160D01*
X66079Y-43160D01*
X66117Y-43179D01*
X66136Y-43198D01*
X66154Y-43235D01*
X66154Y-43273D01*
X66136Y-43329D01*
X65911Y-43554D01*
X66154Y-43554D01*
X66398Y-43160D02*
X66436Y-43160D01*
X66473Y-43179D01*
X66492Y-43198D01*
X66511Y-43235D01*
X66529Y-43310D01*
X66529Y-43404D01*
X66511Y-43479D01*
X66492Y-43517D01*
X66473Y-43535D01*
X66436Y-43554D01*
X66398Y-43554D01*
X66361Y-43535D01*
X66342Y-43517D01*
X66323Y-43479D01*
X66304Y-43404D01*
X66304Y-43310D01*
X66323Y-43235D01*
X66342Y-43198D01*
X66361Y-43179D01*
X66398Y-43160D01*
X66867Y-43292D02*
X66867Y-43554D01*
X66698Y-43292D02*
X66698Y-43498D01*
X66717Y-43535D01*
X66754Y-43554D01*
X66811Y-43554D01*
X66848Y-43535D01*
X66867Y-43517D01*
X48284Y-41429D02*
X48284Y-41617D01*
X47890Y-41617D01*
X47928Y-41317D02*
X47909Y-41298D01*
X47890Y-41261D01*
X47890Y-41167D01*
X47909Y-41130D01*
X47928Y-41111D01*
X47965Y-41092D01*
X48003Y-41092D01*
X48059Y-41111D01*
X48284Y-41336D01*
X48284Y-41092D01*
X48679Y-38923D02*
X48698Y-38904D01*
X48736Y-38885D01*
X48829Y-38885D01*
X48867Y-38904D01*
X48886Y-38923D01*
X48904Y-38960D01*
X48904Y-38998D01*
X48886Y-39054D01*
X48661Y-39279D01*
X48904Y-39279D01*
X49054Y-38923D02*
X49073Y-38904D01*
X49111Y-38885D01*
X49204Y-38885D01*
X49242Y-38904D01*
X49261Y-38923D01*
X49279Y-38960D01*
X49279Y-38998D01*
X49261Y-39054D01*
X49036Y-39279D01*
X49279Y-39279D01*
X49523Y-38885D02*
X49561Y-38885D01*
X49598Y-38904D01*
X49617Y-38923D01*
X49636Y-38960D01*
X49654Y-39035D01*
X49654Y-39129D01*
X49636Y-39204D01*
X49617Y-39242D01*
X49598Y-39260D01*
X49561Y-39279D01*
X49523Y-39279D01*
X49486Y-39260D01*
X49467Y-39242D01*
X49448Y-39204D01*
X49429Y-39129D01*
X49429Y-39035D01*
X49448Y-38960D01*
X49467Y-38923D01*
X49486Y-38904D01*
X49523Y-38885D01*
X49992Y-39017D02*
X49992Y-39279D01*
X49823Y-39017D02*
X49823Y-39223D01*
X49842Y-39260D01*
X49879Y-39279D01*
X49936Y-39279D01*
X49973Y-39260D01*
X49992Y-39242D01*
X65159Y-36504D02*
X65159Y-36692D01*
X64765Y-36692D01*
X64765Y-36186D02*
X64765Y-36373D01*
X64953Y-36392D01*
X64934Y-36373D01*
X64915Y-36336D01*
X64915Y-36242D01*
X64934Y-36205D01*
X64953Y-36186D01*
X64990Y-36167D01*
X65084Y-36167D01*
X65121Y-36186D01*
X65140Y-36205D01*
X65159Y-36242D01*
X65159Y-36336D01*
X65140Y-36373D01*
X65121Y-36392D01*
X65554Y-33998D02*
X65573Y-33979D01*
X65611Y-33960D01*
X65704Y-33960D01*
X65742Y-33979D01*
X65761Y-33998D01*
X65779Y-34035D01*
X65779Y-34073D01*
X65761Y-34129D01*
X65536Y-34354D01*
X65779Y-34354D01*
X65929Y-33998D02*
X65948Y-33979D01*
X65986Y-33960D01*
X66079Y-33960D01*
X66117Y-33979D01*
X66136Y-33998D01*
X66154Y-34035D01*
X66154Y-34073D01*
X66136Y-34129D01*
X65911Y-34354D01*
X66154Y-34354D01*
X66398Y-33960D02*
X66436Y-33960D01*
X66473Y-33979D01*
X66492Y-33998D01*
X66511Y-34035D01*
X66529Y-34110D01*
X66529Y-34204D01*
X66511Y-34279D01*
X66492Y-34317D01*
X66473Y-34335D01*
X66436Y-34354D01*
X66398Y-34354D01*
X66361Y-34335D01*
X66342Y-34317D01*
X66323Y-34279D01*
X66304Y-34204D01*
X66304Y-34110D01*
X66323Y-34035D01*
X66342Y-33998D01*
X66361Y-33979D01*
X66398Y-33960D01*
X66867Y-34092D02*
X66867Y-34354D01*
X66698Y-34092D02*
X66698Y-34298D01*
X66717Y-34335D01*
X66754Y-34354D01*
X66811Y-34354D01*
X66848Y-34335D01*
X66867Y-34317D01*
X55859Y-45704D02*
X55859Y-45892D01*
X55465Y-45892D01*
X55596Y-45405D02*
X55859Y-45405D01*
X55446Y-45498D02*
X55728Y-45592D01*
X55728Y-45348D01*
X56254Y-43198D02*
X56273Y-43179D01*
X56311Y-43160D01*
X56404Y-43160D01*
X56442Y-43179D01*
X56461Y-43198D01*
X56479Y-43235D01*
X56479Y-43273D01*
X56461Y-43329D01*
X56236Y-43554D01*
X56479Y-43554D01*
X56629Y-43198D02*
X56648Y-43179D01*
X56686Y-43160D01*
X56779Y-43160D01*
X56817Y-43179D01*
X56836Y-43198D01*
X56854Y-43235D01*
X56854Y-43273D01*
X56836Y-43329D01*
X56611Y-43554D01*
X56854Y-43554D01*
X57098Y-43160D02*
X57136Y-43160D01*
X57173Y-43179D01*
X57192Y-43198D01*
X57211Y-43235D01*
X57229Y-43310D01*
X57229Y-43404D01*
X57211Y-43479D01*
X57192Y-43517D01*
X57173Y-43535D01*
X57136Y-43554D01*
X57098Y-43554D01*
X57061Y-43535D01*
X57042Y-43517D01*
X57023Y-43479D01*
X57004Y-43404D01*
X57004Y-43310D01*
X57023Y-43235D01*
X57042Y-43198D01*
X57061Y-43179D01*
X57098Y-43160D01*
X57567Y-43292D02*
X57567Y-43554D01*
X57398Y-43292D02*
X57398Y-43498D01*
X57417Y-43535D01*
X57454Y-43554D01*
X57511Y-43554D01*
X57548Y-43535D01*
X57567Y-43517D01*
G54D13*
X29532Y-41692D02*
X29896Y-41692D01*
X29939Y-41671D01*
X29960Y-41650D01*
X29982Y-41607D01*
X29982Y-41521D01*
X29960Y-41478D01*
X29939Y-41457D01*
X29896Y-41435D01*
X29532Y-41435D01*
X29982Y-40985D02*
X29982Y-41242D01*
X29982Y-41114D02*
X29532Y-41114D01*
X29596Y-41157D01*
X29639Y-41200D01*
X29660Y-41242D01*
G54D15*
X30951Y-36489D02*
X30951Y-35808D01*
X31114Y-35808D01*
X31155Y-35840D01*
X31175Y-35873D01*
X31195Y-35938D01*
X31195Y-36035D01*
X31175Y-36100D01*
X31155Y-36132D01*
X31114Y-36165D01*
X30951Y-36165D01*
X31603Y-36489D02*
X31358Y-36489D01*
X31481Y-36489D02*
X31481Y-35808D01*
X31440Y-35905D01*
X31399Y-35970D01*
X31358Y-36002D01*
X31868Y-35808D02*
X31909Y-35808D01*
X31950Y-35840D01*
X31970Y-35873D01*
X31990Y-35938D01*
X32011Y-36067D01*
X32011Y-36229D01*
X31990Y-36359D01*
X31970Y-36424D01*
X31950Y-36456D01*
X31909Y-36489D01*
X31868Y-36489D01*
X31827Y-36456D01*
X31807Y-36424D01*
X31786Y-36359D01*
X31766Y-36229D01*
X31766Y-36067D01*
X31786Y-35938D01*
X31807Y-35873D01*
X31827Y-35840D01*
X31868Y-35808D01*
G54D12*
G54D16*
X33535Y-41021D02*
X33496Y-40965D01*
X33468Y-41021D02*
X33468Y-40903D01*
X33513Y-40903D01*
X33524Y-40909D01*
X33530Y-40914D01*
X33535Y-40926D01*
X33535Y-40943D01*
X33530Y-40954D01*
X33524Y-40959D01*
X33513Y-40965D01*
X33468Y-40965D01*
X33580Y-40914D02*
X33586Y-40909D01*
X33597Y-40903D01*
X33625Y-40903D01*
X33636Y-40909D01*
X33642Y-40914D01*
X33648Y-40926D01*
X33648Y-40937D01*
X33642Y-40954D01*
X33575Y-41021D01*
X33648Y-41021D01*
X33566Y-40175D02*
X33510Y-40175D01*
X33504Y-40231D01*
X33510Y-40225D01*
X33521Y-40220D01*
X33549Y-40220D01*
X33560Y-40225D01*
X33566Y-40231D01*
X33572Y-40242D01*
X33572Y-40270D01*
X33566Y-40282D01*
X33560Y-40287D01*
X33549Y-40293D01*
X33521Y-40293D01*
X33510Y-40287D01*
X33504Y-40282D01*
X33684Y-40293D02*
X33617Y-40293D01*
X33650Y-40293D02*
X33650Y-40175D01*
X33639Y-40192D01*
X33628Y-40203D01*
X33617Y-40209D01*
X33535Y-42521D02*
X33496Y-42465D01*
X33468Y-42521D02*
X33468Y-42403D01*
X33513Y-42403D01*
X33524Y-42409D01*
X33530Y-42414D01*
X33535Y-42426D01*
X33535Y-42443D01*
X33530Y-42454D01*
X33524Y-42459D01*
X33513Y-42465D01*
X33468Y-42465D01*
X33648Y-42521D02*
X33580Y-42521D01*
X33614Y-42521D02*
X33614Y-42403D01*
X33603Y-42420D01*
X33591Y-42431D01*
X33580Y-42437D01*
X33566Y-41675D02*
X33510Y-41675D01*
X33504Y-41731D01*
X33510Y-41725D01*
X33521Y-41720D01*
X33549Y-41720D01*
X33560Y-41725D01*
X33566Y-41731D01*
X33572Y-41742D01*
X33572Y-41770D01*
X33566Y-41782D01*
X33560Y-41787D01*
X33549Y-41793D01*
X33521Y-41793D01*
X33510Y-41787D01*
X33504Y-41782D01*
X33684Y-41793D02*
X33617Y-41793D01*
X33650Y-41793D02*
X33650Y-41675D01*
X33639Y-41692D01*
X33628Y-41703D01*
X33617Y-41709D01*
G54D17*
X74199Y-43315D02*
X74199Y-43634D01*
X74218Y-43671D01*
X74237Y-43690D01*
X74274Y-43709D01*
X74349Y-43709D01*
X74387Y-43690D01*
X74406Y-43671D01*
X74424Y-43634D01*
X74424Y-43315D01*
X74575Y-43315D02*
X74818Y-43315D01*
X74687Y-43465D01*
X74743Y-43465D01*
X74781Y-43484D01*
X74800Y-43503D01*
X74818Y-43540D01*
X74818Y-43634D01*
X74800Y-43671D01*
X74781Y-43690D01*
X74743Y-43709D01*
X74631Y-43709D01*
X74593Y-43690D01*
X74575Y-43671D01*
G54D11*
X73271Y-43865D02*
X73496Y-43865D01*
X73383Y-44259D02*
X73383Y-43865D01*
X73627Y-44259D02*
X73627Y-43865D01*
X73777Y-43865D01*
X73815Y-43884D01*
X73833Y-43903D01*
X73852Y-43940D01*
X73852Y-43996D01*
X73833Y-44034D01*
X73815Y-44053D01*
X73777Y-44071D01*
X73627Y-44071D01*
X74002Y-44240D02*
X74059Y-44259D01*
X74152Y-44259D01*
X74190Y-44240D01*
X74209Y-44221D01*
X74227Y-44184D01*
X74227Y-44146D01*
X74209Y-44109D01*
X74190Y-44090D01*
X74152Y-44071D01*
X74077Y-44053D01*
X74040Y-44034D01*
X74021Y-44015D01*
X74002Y-43978D01*
X74002Y-43940D01*
X74021Y-43903D01*
X74040Y-43884D01*
X74077Y-43865D01*
X74171Y-43865D01*
X74227Y-43884D01*
X74359Y-43865D02*
X74621Y-43865D01*
X74453Y-44259D01*
X74753Y-44146D02*
X74940Y-44146D01*
X74715Y-44259D02*
X74847Y-43865D01*
X74978Y-44259D01*
X75072Y-43865D02*
X75316Y-43865D01*
X75184Y-44015D01*
X75241Y-44015D01*
X75278Y-44034D01*
X75297Y-44053D01*
X75316Y-44090D01*
X75316Y-44184D01*
X75297Y-44221D01*
X75278Y-44240D01*
X75241Y-44259D01*
X75128Y-44259D01*
X75091Y-44240D01*
X75072Y-44221D01*
X75560Y-43865D02*
X75597Y-43865D01*
X75635Y-43884D01*
X75653Y-43903D01*
X75672Y-43940D01*
X75691Y-44015D01*
X75691Y-44109D01*
X75672Y-44184D01*
X75653Y-44221D01*
X75635Y-44240D01*
X75597Y-44259D01*
X75560Y-44259D01*
X75522Y-44240D01*
X75503Y-44221D01*
X75485Y-44184D01*
X75466Y-44109D01*
X75466Y-44015D01*
X75485Y-43940D01*
X75503Y-43903D01*
X75522Y-43884D01*
X75560Y-43865D01*
G54D17*
X74199Y-38815D02*
X74199Y-39134D01*
X74218Y-39171D01*
X74237Y-39190D01*
X74274Y-39209D01*
X74349Y-39209D01*
X74387Y-39190D01*
X74406Y-39171D01*
X74424Y-39134D01*
X74424Y-38815D01*
X74593Y-38853D02*
X74612Y-38834D01*
X74650Y-38815D01*
X74743Y-38815D01*
X74781Y-38834D01*
X74800Y-38853D01*
X74818Y-38890D01*
X74818Y-38928D01*
X74800Y-38984D01*
X74575Y-39209D01*
X74818Y-39209D01*
G54D11*
X73271Y-38265D02*
X73496Y-38265D01*
X73383Y-38659D02*
X73383Y-38265D01*
X73627Y-38659D02*
X73627Y-38265D01*
X73777Y-38265D01*
X73815Y-38284D01*
X73833Y-38303D01*
X73852Y-38340D01*
X73852Y-38396D01*
X73833Y-38434D01*
X73815Y-38453D01*
X73777Y-38471D01*
X73627Y-38471D01*
X74002Y-38640D02*
X74059Y-38659D01*
X74152Y-38659D01*
X74190Y-38640D01*
X74209Y-38621D01*
X74227Y-38584D01*
X74227Y-38546D01*
X74209Y-38509D01*
X74190Y-38490D01*
X74152Y-38471D01*
X74077Y-38453D01*
X74040Y-38434D01*
X74021Y-38415D01*
X74002Y-38378D01*
X74002Y-38340D01*
X74021Y-38303D01*
X74040Y-38284D01*
X74077Y-38265D01*
X74171Y-38265D01*
X74227Y-38284D01*
X74359Y-38265D02*
X74621Y-38265D01*
X74453Y-38659D01*
X74753Y-38546D02*
X74940Y-38546D01*
X74715Y-38659D02*
X74847Y-38265D01*
X74978Y-38659D01*
X75278Y-38396D02*
X75278Y-38659D01*
X75184Y-38246D02*
X75091Y-38528D01*
X75334Y-38528D01*
X75503Y-38659D02*
X75578Y-38659D01*
X75616Y-38640D01*
X75635Y-38621D01*
X75672Y-38565D01*
X75691Y-38490D01*
X75691Y-38340D01*
X75672Y-38303D01*
X75653Y-38284D01*
X75616Y-38265D01*
X75541Y-38265D01*
X75503Y-38284D01*
X75485Y-38303D01*
X75466Y-38340D01*
X75466Y-38434D01*
X75485Y-38471D01*
X75503Y-38490D01*
X75541Y-38509D01*
X75616Y-38509D01*
X75653Y-38490D01*
X75672Y-38471D01*
X75691Y-38434D01*
G54D13*
X36600Y-43463D02*
X36571Y-43501D01*
X36514Y-43539D01*
X36428Y-43596D01*
X36400Y-43634D01*
X36400Y-43672D01*
X36542Y-43653D02*
X36514Y-43691D01*
X36457Y-43729D01*
X36342Y-43748D01*
X36142Y-43748D01*
X36028Y-43729D01*
X35971Y-43691D01*
X35942Y-43653D01*
X35942Y-43577D01*
X35971Y-43539D01*
X36028Y-43501D01*
X36142Y-43482D01*
X36342Y-43482D01*
X36457Y-43501D01*
X36514Y-43539D01*
X36542Y-43577D01*
X36542Y-43653D01*
X36542Y-43101D02*
X36542Y-43329D01*
X36542Y-43215D02*
X35942Y-43215D01*
X36028Y-43253D01*
X36085Y-43291D01*
X36114Y-43329D01*
X36647Y-41167D02*
X36647Y-40567D01*
X37066Y-41167D02*
X36933Y-40882D01*
X36838Y-41167D02*
X36838Y-40567D01*
X36990Y-40567D01*
X37028Y-40596D01*
X37047Y-40625D01*
X37066Y-40682D01*
X37066Y-40767D01*
X37047Y-40825D01*
X37028Y-40853D01*
X36990Y-40882D01*
X36838Y-40882D01*
X37371Y-40853D02*
X37238Y-40853D01*
X37238Y-41167D02*
X37238Y-40567D01*
X37428Y-40567D01*
X37771Y-40567D02*
X37580Y-40567D01*
X37561Y-40853D01*
X37580Y-40825D01*
X37619Y-40796D01*
X37714Y-40796D01*
X37752Y-40825D01*
X37771Y-40853D01*
X37790Y-40910D01*
X37790Y-41053D01*
X37771Y-41110D01*
X37752Y-41139D01*
X37714Y-41167D01*
X37619Y-41167D01*
X37580Y-41139D01*
X37561Y-41110D01*
X37923Y-40567D02*
X38171Y-40567D01*
X38038Y-40796D01*
X38095Y-40796D01*
X38133Y-40825D01*
X38152Y-40853D01*
X38171Y-40910D01*
X38171Y-41053D01*
X38152Y-41110D01*
X38133Y-41139D01*
X38095Y-41167D01*
X37980Y-41167D01*
X37942Y-41139D01*
X37923Y-41110D01*
X38419Y-40567D02*
X38457Y-40567D01*
X38495Y-40596D01*
X38514Y-40625D01*
X38533Y-40682D01*
X38552Y-40796D01*
X38552Y-40939D01*
X38533Y-41053D01*
X38514Y-41110D01*
X38495Y-41139D01*
X38457Y-41167D01*
X38419Y-41167D01*
X38380Y-41139D01*
X38361Y-41110D01*
X38342Y-41053D01*
X38323Y-40939D01*
X38323Y-40796D01*
X38342Y-40682D01*
X38361Y-40625D01*
X38380Y-40596D01*
X38419Y-40567D01*
X38723Y-41167D02*
X38723Y-40567D01*
X38952Y-41167D01*
X38952Y-40567D01*
X39350Y-39288D02*
X39321Y-39326D01*
X39264Y-39364D01*
X39178Y-39421D01*
X39150Y-39459D01*
X39150Y-39497D01*
X39292Y-39478D02*
X39264Y-39516D01*
X39207Y-39554D01*
X39092Y-39573D01*
X38892Y-39573D01*
X38778Y-39554D01*
X38721Y-39516D01*
X38692Y-39478D01*
X38692Y-39402D01*
X38721Y-39364D01*
X38778Y-39326D01*
X38892Y-39307D01*
X39092Y-39307D01*
X39207Y-39326D01*
X39264Y-39364D01*
X39292Y-39402D01*
X39292Y-39478D01*
X38750Y-39154D02*
X38721Y-39135D01*
X38692Y-39097D01*
X38692Y-39002D01*
X38721Y-38964D01*
X38750Y-38945D01*
X38807Y-38926D01*
X38864Y-38926D01*
X38950Y-38945D01*
X39292Y-39173D01*
X39292Y-38926D01*
X36397Y-41992D02*
X36397Y-41392D01*
X36816Y-41992D02*
X36683Y-41707D01*
X36588Y-41992D02*
X36588Y-41392D01*
X36740Y-41392D01*
X36778Y-41421D01*
X36797Y-41450D01*
X36816Y-41507D01*
X36816Y-41592D01*
X36797Y-41650D01*
X36778Y-41678D01*
X36740Y-41707D01*
X36588Y-41707D01*
X37121Y-41678D02*
X36988Y-41678D01*
X36988Y-41992D02*
X36988Y-41392D01*
X37178Y-41392D01*
X37521Y-41392D02*
X37330Y-41392D01*
X37311Y-41678D01*
X37330Y-41650D01*
X37369Y-41621D01*
X37464Y-41621D01*
X37502Y-41650D01*
X37521Y-41678D01*
X37540Y-41735D01*
X37540Y-41878D01*
X37521Y-41935D01*
X37502Y-41964D01*
X37464Y-41992D01*
X37369Y-41992D01*
X37330Y-41964D01*
X37311Y-41935D01*
X37673Y-41392D02*
X37921Y-41392D01*
X37788Y-41621D01*
X37845Y-41621D01*
X37883Y-41650D01*
X37902Y-41678D01*
X37921Y-41735D01*
X37921Y-41878D01*
X37902Y-41935D01*
X37883Y-41964D01*
X37845Y-41992D01*
X37730Y-41992D01*
X37692Y-41964D01*
X37673Y-41935D01*
X38169Y-41392D02*
X38207Y-41392D01*
X38245Y-41421D01*
X38264Y-41450D01*
X38283Y-41507D01*
X38302Y-41621D01*
X38302Y-41764D01*
X38283Y-41878D01*
X38264Y-41935D01*
X38245Y-41964D01*
X38207Y-41992D01*
X38169Y-41992D01*
X38130Y-41964D01*
X38111Y-41935D01*
X38092Y-41878D01*
X38073Y-41764D01*
X38073Y-41621D01*
X38092Y-41507D01*
X38111Y-41450D01*
X38130Y-41421D01*
X38169Y-41392D01*
X38473Y-41992D02*
X38473Y-41392D01*
X38702Y-41992D01*
X38702Y-41392D01*
G54D10*
X47759Y-43381D02*
X47759Y-42988D01*
X47853Y-42988D01*
X47909Y-43007D01*
X47946Y-43044D01*
X47965Y-43082D01*
X47984Y-43157D01*
X47984Y-43213D01*
X47965Y-43288D01*
X47946Y-43325D01*
X47909Y-43363D01*
X47853Y-43381D01*
X47759Y-43381D01*
X48321Y-43119D02*
X48321Y-43381D01*
X48228Y-42969D02*
X48134Y-43250D01*
X48378Y-43250D01*
X47433Y-45301D02*
X47564Y-45301D01*
X47620Y-45507D02*
X47433Y-45507D01*
X47433Y-45114D01*
X47620Y-45114D01*
X47770Y-45489D02*
X47826Y-45507D01*
X47920Y-45507D01*
X47958Y-45489D01*
X47976Y-45470D01*
X47995Y-45432D01*
X47995Y-45395D01*
X47976Y-45357D01*
X47958Y-45339D01*
X47920Y-45320D01*
X47845Y-45301D01*
X47808Y-45283D01*
X47789Y-45264D01*
X47770Y-45226D01*
X47770Y-45189D01*
X47789Y-45151D01*
X47808Y-45133D01*
X47845Y-45114D01*
X47939Y-45114D01*
X47995Y-45133D01*
X48145Y-45151D02*
X48164Y-45133D01*
X48201Y-45114D01*
X48295Y-45114D01*
X48333Y-45133D01*
X48351Y-45151D01*
X48370Y-45189D01*
X48370Y-45226D01*
X48351Y-45283D01*
X48126Y-45507D01*
X48370Y-45507D01*
X48539Y-45507D02*
X48539Y-45114D01*
X48633Y-45114D01*
X48689Y-45133D01*
X48726Y-45170D01*
X48745Y-45208D01*
X48764Y-45283D01*
X48764Y-45339D01*
X48745Y-45414D01*
X48726Y-45451D01*
X48689Y-45489D01*
X48633Y-45507D01*
X48539Y-45507D01*
X46661Y-38122D02*
X46383Y-37844D01*
X46449Y-37777D01*
X46502Y-37751D01*
X46555Y-37751D01*
X46595Y-37764D01*
X46661Y-37804D01*
X46701Y-37844D01*
X46741Y-37910D01*
X46754Y-37950D01*
X46754Y-38003D01*
X46727Y-38056D01*
X46661Y-38122D01*
X46635Y-37592D02*
X46807Y-37420D01*
X46820Y-37618D01*
X46860Y-37579D01*
X46900Y-37565D01*
X46926Y-37565D01*
X46966Y-37579D01*
X47032Y-37645D01*
X47046Y-37685D01*
X47046Y-37711D01*
X47032Y-37751D01*
X46953Y-37831D01*
X46913Y-37844D01*
X46887Y-37844D01*
X44726Y-36759D02*
X44819Y-36667D01*
X45004Y-36773D02*
X44872Y-36905D01*
X44593Y-36627D01*
X44726Y-36494D01*
X45097Y-36653D02*
X45150Y-36627D01*
X45216Y-36561D01*
X45229Y-36521D01*
X45229Y-36494D01*
X45216Y-36454D01*
X45190Y-36428D01*
X45150Y-36415D01*
X45123Y-36415D01*
X45084Y-36428D01*
X45017Y-36468D01*
X44978Y-36481D01*
X44951Y-36481D01*
X44911Y-36468D01*
X44885Y-36441D01*
X44872Y-36401D01*
X44872Y-36375D01*
X44885Y-36335D01*
X44951Y-36269D01*
X45004Y-36242D01*
X45123Y-36150D02*
X45123Y-36123D01*
X45137Y-36083D01*
X45203Y-36017D01*
X45243Y-36004D01*
X45269Y-36004D01*
X45309Y-36017D01*
X45336Y-36044D01*
X45362Y-36097D01*
X45362Y-36415D01*
X45534Y-36242D01*
X45654Y-36123D02*
X45375Y-35845D01*
X45442Y-35778D01*
X45495Y-35752D01*
X45548Y-35752D01*
X45587Y-35765D01*
X45654Y-35805D01*
X45693Y-35845D01*
X45733Y-35911D01*
X45746Y-35951D01*
X45746Y-36004D01*
X45720Y-36057D01*
X45654Y-36123D01*
X47759Y-45231D02*
X47759Y-44838D01*
X47853Y-44838D01*
X47909Y-44857D01*
X47946Y-44894D01*
X47965Y-44932D01*
X47984Y-45007D01*
X47984Y-45063D01*
X47965Y-45138D01*
X47946Y-45175D01*
X47909Y-45213D01*
X47853Y-45231D01*
X47759Y-45231D01*
X48134Y-44875D02*
X48153Y-44857D01*
X48190Y-44838D01*
X48284Y-44838D01*
X48321Y-44857D01*
X48340Y-44875D01*
X48359Y-44913D01*
X48359Y-44950D01*
X48340Y-45007D01*
X48115Y-45231D01*
X48359Y-45231D01*
X47433Y-47151D02*
X47564Y-47151D01*
X47620Y-47357D02*
X47433Y-47357D01*
X47433Y-46964D01*
X47620Y-46964D01*
X47770Y-47339D02*
X47826Y-47357D01*
X47920Y-47357D01*
X47958Y-47339D01*
X47976Y-47320D01*
X47995Y-47282D01*
X47995Y-47245D01*
X47976Y-47207D01*
X47958Y-47189D01*
X47920Y-47170D01*
X47845Y-47151D01*
X47808Y-47133D01*
X47789Y-47114D01*
X47770Y-47076D01*
X47770Y-47039D01*
X47789Y-47001D01*
X47808Y-46983D01*
X47845Y-46964D01*
X47939Y-46964D01*
X47995Y-46983D01*
X48145Y-47001D02*
X48164Y-46983D01*
X48201Y-46964D01*
X48295Y-46964D01*
X48333Y-46983D01*
X48351Y-47001D01*
X48370Y-47039D01*
X48370Y-47076D01*
X48351Y-47133D01*
X48126Y-47357D01*
X48370Y-47357D01*
X48539Y-47357D02*
X48539Y-46964D01*
X48633Y-46964D01*
X48689Y-46983D01*
X48726Y-47020D01*
X48745Y-47058D01*
X48764Y-47133D01*
X48764Y-47189D01*
X48745Y-47264D01*
X48726Y-47301D01*
X48689Y-47339D01*
X48633Y-47357D01*
X48539Y-47357D01*
X47759Y-39611D02*
X47759Y-39218D01*
X47853Y-39218D01*
X47909Y-39236D01*
X47946Y-39274D01*
X47965Y-39311D01*
X47984Y-39386D01*
X47984Y-39442D01*
X47965Y-39517D01*
X47946Y-39555D01*
X47909Y-39592D01*
X47853Y-39611D01*
X47759Y-39611D01*
X48359Y-39611D02*
X48134Y-39611D01*
X48246Y-39611D02*
X48246Y-39218D01*
X48209Y-39274D01*
X48171Y-39311D01*
X48134Y-39330D01*
X47354Y-37279D02*
X47485Y-37279D01*
X47541Y-37485D02*
X47354Y-37485D01*
X47354Y-37092D01*
X47541Y-37092D01*
X47691Y-37466D02*
X47748Y-37485D01*
X47841Y-37485D01*
X47879Y-37466D01*
X47898Y-37448D01*
X47916Y-37410D01*
X47916Y-37373D01*
X47898Y-37335D01*
X47879Y-37317D01*
X47841Y-37298D01*
X47766Y-37279D01*
X47729Y-37260D01*
X47710Y-37242D01*
X47691Y-37204D01*
X47691Y-37167D01*
X47710Y-37129D01*
X47729Y-37110D01*
X47766Y-37092D01*
X47860Y-37092D01*
X47916Y-37110D01*
X48066Y-37129D02*
X48085Y-37110D01*
X48123Y-37092D01*
X48216Y-37092D01*
X48254Y-37110D01*
X48273Y-37129D01*
X48291Y-37167D01*
X48291Y-37204D01*
X48273Y-37260D01*
X48048Y-37485D01*
X48291Y-37485D01*
X48460Y-37485D02*
X48460Y-37092D01*
X48554Y-37092D01*
X48610Y-37110D01*
X48648Y-37148D01*
X48666Y-37185D01*
X48685Y-37260D01*
X48685Y-37317D01*
X48666Y-37391D01*
X48648Y-37429D01*
X48610Y-37466D01*
X48554Y-37485D01*
X48460Y-37485D01*
X80521Y-41853D02*
X80540Y-41871D01*
X80559Y-41928D01*
X80559Y-41965D01*
X80540Y-42021D01*
X80503Y-42059D01*
X80465Y-42078D01*
X80390Y-42096D01*
X80334Y-42096D01*
X80259Y-42078D01*
X80221Y-42059D01*
X80184Y-42021D01*
X80165Y-41965D01*
X80165Y-41928D01*
X80184Y-41871D01*
X80203Y-41853D01*
X80559Y-41478D02*
X80559Y-41703D01*
X80559Y-41590D02*
X80165Y-41590D01*
X80221Y-41628D01*
X80259Y-41665D01*
X80278Y-41703D01*
X80165Y-41121D02*
X80165Y-41309D01*
X80353Y-41328D01*
X80334Y-41309D01*
X80315Y-41271D01*
X80315Y-41178D01*
X80334Y-41140D01*
X80353Y-41121D01*
X80390Y-41103D01*
X80484Y-41103D01*
X80521Y-41121D01*
X80540Y-41140D01*
X80559Y-41178D01*
X80559Y-41271D01*
X80540Y-41309D01*
X80521Y-41328D01*
X80559Y-38853D02*
X80559Y-39078D01*
X80559Y-38965D02*
X80165Y-38965D01*
X80221Y-39003D01*
X80259Y-39040D01*
X80278Y-39078D01*
X80165Y-38609D02*
X80165Y-38571D01*
X80184Y-38534D01*
X80203Y-38515D01*
X80240Y-38496D01*
X80315Y-38478D01*
X80409Y-38478D01*
X80484Y-38496D01*
X80521Y-38515D01*
X80540Y-38534D01*
X80559Y-38571D01*
X80559Y-38609D01*
X80540Y-38646D01*
X80521Y-38665D01*
X80484Y-38684D01*
X80409Y-38703D01*
X80315Y-38703D01*
X80240Y-38684D01*
X80203Y-38665D01*
X80184Y-38646D01*
X80165Y-38609D01*
X80296Y-38140D02*
X80559Y-38140D01*
X80296Y-38309D02*
X80503Y-38309D01*
X80540Y-38290D01*
X80559Y-38253D01*
X80559Y-38196D01*
X80540Y-38159D01*
X80521Y-38140D01*
X79621Y-43753D02*
X79640Y-43771D01*
X79659Y-43828D01*
X79659Y-43865D01*
X79640Y-43921D01*
X79603Y-43959D01*
X79565Y-43978D01*
X79490Y-43996D01*
X79434Y-43996D01*
X79359Y-43978D01*
X79321Y-43959D01*
X79284Y-43921D01*
X79265Y-43865D01*
X79265Y-43828D01*
X79284Y-43771D01*
X79303Y-43753D01*
X79659Y-43378D02*
X79659Y-43603D01*
X79659Y-43490D02*
X79265Y-43490D01*
X79321Y-43528D01*
X79359Y-43565D01*
X79378Y-43603D01*
X79434Y-43153D02*
X79415Y-43190D01*
X79396Y-43209D01*
X79359Y-43228D01*
X79340Y-43228D01*
X79303Y-43209D01*
X79284Y-43190D01*
X79265Y-43153D01*
X79265Y-43078D01*
X79284Y-43040D01*
X79303Y-43021D01*
X79340Y-43003D01*
X79359Y-43003D01*
X79396Y-43021D01*
X79415Y-43040D01*
X79434Y-43078D01*
X79434Y-43153D01*
X79453Y-43190D01*
X79471Y-43209D01*
X79509Y-43228D01*
X79584Y-43228D01*
X79621Y-43209D01*
X79640Y-43190D01*
X79659Y-43153D01*
X79659Y-43078D01*
X79640Y-43040D01*
X79621Y-43021D01*
X79584Y-43003D01*
X79509Y-43003D01*
X79471Y-43021D01*
X79453Y-43040D01*
X79434Y-43078D01*
X79659Y-46753D02*
X79659Y-46978D01*
X79659Y-46865D02*
X79265Y-46865D01*
X79321Y-46903D01*
X79359Y-46940D01*
X79378Y-46978D01*
X79265Y-46509D02*
X79265Y-46471D01*
X79284Y-46434D01*
X79303Y-46415D01*
X79340Y-46396D01*
X79415Y-46378D01*
X79509Y-46378D01*
X79584Y-46396D01*
X79621Y-46415D01*
X79640Y-46434D01*
X79659Y-46471D01*
X79659Y-46509D01*
X79640Y-46546D01*
X79621Y-46565D01*
X79584Y-46584D01*
X79509Y-46603D01*
X79415Y-46603D01*
X79340Y-46584D01*
X79303Y-46565D01*
X79284Y-46546D01*
X79265Y-46509D01*
X79396Y-46040D02*
X79659Y-46040D01*
X79396Y-46209D02*
X79603Y-46209D01*
X79640Y-46190D01*
X79659Y-46153D01*
X79659Y-46096D01*
X79640Y-46059D01*
X79621Y-46040D01*
X80871Y-43753D02*
X80890Y-43771D01*
X80909Y-43828D01*
X80909Y-43865D01*
X80890Y-43921D01*
X80853Y-43959D01*
X80815Y-43978D01*
X80740Y-43996D01*
X80684Y-43996D01*
X80609Y-43978D01*
X80571Y-43959D01*
X80534Y-43921D01*
X80515Y-43865D01*
X80515Y-43828D01*
X80534Y-43771D01*
X80553Y-43753D01*
X80909Y-43378D02*
X80909Y-43603D01*
X80909Y-43490D02*
X80515Y-43490D01*
X80571Y-43528D01*
X80609Y-43565D01*
X80628Y-43603D01*
X80515Y-43040D02*
X80515Y-43115D01*
X80534Y-43153D01*
X80553Y-43171D01*
X80609Y-43209D01*
X80684Y-43228D01*
X80834Y-43228D01*
X80871Y-43209D01*
X80890Y-43190D01*
X80909Y-43153D01*
X80909Y-43078D01*
X80890Y-43040D01*
X80871Y-43021D01*
X80834Y-43003D01*
X80740Y-43003D01*
X80703Y-43021D01*
X80684Y-43040D01*
X80665Y-43078D01*
X80665Y-43153D01*
X80684Y-43190D01*
X80703Y-43209D01*
X80740Y-43228D01*
X80909Y-46753D02*
X80909Y-46978D01*
X80909Y-46865D02*
X80515Y-46865D01*
X80571Y-46903D01*
X80609Y-46940D01*
X80628Y-46978D01*
X80515Y-46509D02*
X80515Y-46471D01*
X80534Y-46434D01*
X80553Y-46415D01*
X80590Y-46396D01*
X80665Y-46378D01*
X80759Y-46378D01*
X80834Y-46396D01*
X80871Y-46415D01*
X80890Y-46434D01*
X80909Y-46471D01*
X80909Y-46509D01*
X80890Y-46546D01*
X80871Y-46565D01*
X80834Y-46584D01*
X80759Y-46603D01*
X80665Y-46603D01*
X80590Y-46584D01*
X80553Y-46565D01*
X80534Y-46546D01*
X80515Y-46509D01*
X80646Y-46040D02*
X80909Y-46040D01*
X80646Y-46209D02*
X80853Y-46209D01*
X80890Y-46190D01*
X80909Y-46153D01*
X80909Y-46096D01*
X80890Y-46059D01*
X80871Y-46040D01*
X77404Y-43154D02*
X77423Y-43173D01*
X77442Y-43229D01*
X77442Y-43267D01*
X77423Y-43323D01*
X77385Y-43360D01*
X77348Y-43379D01*
X77273Y-43398D01*
X77217Y-43398D01*
X77142Y-43379D01*
X77104Y-43360D01*
X77067Y-43323D01*
X77048Y-43267D01*
X77048Y-43229D01*
X77067Y-43173D01*
X77085Y-43154D01*
X77442Y-42779D02*
X77442Y-43004D01*
X77442Y-42892D02*
X77048Y-42892D01*
X77104Y-42929D01*
X77142Y-42967D01*
X77160Y-43004D01*
X77179Y-42442D02*
X77442Y-42442D01*
X77029Y-42535D02*
X77310Y-42629D01*
X77310Y-42386D01*
X75178Y-43567D02*
X75178Y-43529D01*
X75197Y-43492D01*
X75215Y-43473D01*
X75253Y-43454D01*
X75328Y-43435D01*
X75421Y-43435D01*
X75496Y-43454D01*
X75534Y-43473D01*
X75553Y-43492D01*
X75571Y-43529D01*
X75571Y-43567D01*
X75553Y-43604D01*
X75534Y-43623D01*
X75496Y-43642D01*
X75421Y-43660D01*
X75328Y-43660D01*
X75253Y-43642D01*
X75215Y-43623D01*
X75197Y-43604D01*
X75178Y-43567D01*
X75534Y-43267D02*
X75553Y-43248D01*
X75571Y-43267D01*
X75553Y-43285D01*
X75534Y-43267D01*
X75571Y-43267D01*
X75178Y-43004D02*
X75178Y-42967D01*
X75197Y-42929D01*
X75215Y-42910D01*
X75253Y-42892D01*
X75328Y-42873D01*
X75421Y-42873D01*
X75496Y-42892D01*
X75534Y-42910D01*
X75553Y-42929D01*
X75571Y-42967D01*
X75571Y-43004D01*
X75553Y-43042D01*
X75534Y-43060D01*
X75496Y-43079D01*
X75421Y-43098D01*
X75328Y-43098D01*
X75253Y-43079D01*
X75215Y-43060D01*
X75197Y-43042D01*
X75178Y-43004D01*
X75571Y-42498D02*
X75571Y-42723D01*
X75571Y-42610D02*
X75178Y-42610D01*
X75234Y-42648D01*
X75271Y-42685D01*
X75290Y-42723D01*
X75309Y-42161D02*
X75571Y-42161D01*
X75309Y-42329D02*
X75515Y-42329D01*
X75553Y-42311D01*
X75571Y-42273D01*
X75571Y-42217D01*
X75553Y-42179D01*
X75534Y-42161D01*
X73539Y-46351D02*
X73557Y-46370D01*
X73576Y-46426D01*
X73576Y-46464D01*
X73557Y-46520D01*
X73520Y-46557D01*
X73482Y-46576D01*
X73407Y-46595D01*
X73351Y-46595D01*
X73276Y-46576D01*
X73239Y-46557D01*
X73201Y-46520D01*
X73182Y-46464D01*
X73182Y-46426D01*
X73201Y-46370D01*
X73220Y-46351D01*
X73576Y-45976D02*
X73576Y-46201D01*
X73576Y-46089D02*
X73182Y-46089D01*
X73239Y-46126D01*
X73276Y-46164D01*
X73295Y-46201D01*
X73220Y-45826D02*
X73201Y-45807D01*
X73182Y-45770D01*
X73182Y-45676D01*
X73201Y-45639D01*
X73220Y-45620D01*
X73257Y-45601D01*
X73295Y-45601D01*
X73351Y-45620D01*
X73576Y-45845D01*
X73576Y-45601D01*
X75053Y-46763D02*
X75053Y-46726D01*
X75071Y-46688D01*
X75090Y-46670D01*
X75128Y-46651D01*
X75203Y-46632D01*
X75296Y-46632D01*
X75371Y-46651D01*
X75409Y-46670D01*
X75428Y-46688D01*
X75446Y-46726D01*
X75446Y-46763D01*
X75428Y-46801D01*
X75409Y-46820D01*
X75371Y-46838D01*
X75296Y-46857D01*
X75203Y-46857D01*
X75128Y-46838D01*
X75090Y-46820D01*
X75071Y-46801D01*
X75053Y-46763D01*
X75409Y-46464D02*
X75428Y-46445D01*
X75446Y-46464D01*
X75428Y-46482D01*
X75409Y-46464D01*
X75446Y-46464D01*
X75053Y-46201D02*
X75053Y-46164D01*
X75071Y-46126D01*
X75090Y-46107D01*
X75128Y-46089D01*
X75203Y-46070D01*
X75296Y-46070D01*
X75371Y-46089D01*
X75409Y-46107D01*
X75428Y-46126D01*
X75446Y-46164D01*
X75446Y-46201D01*
X75428Y-46239D01*
X75409Y-46257D01*
X75371Y-46276D01*
X75296Y-46295D01*
X75203Y-46295D01*
X75128Y-46276D01*
X75090Y-46257D01*
X75071Y-46239D01*
X75053Y-46201D01*
X75446Y-45695D02*
X75446Y-45920D01*
X75446Y-45807D02*
X75053Y-45807D01*
X75109Y-45845D01*
X75146Y-45882D01*
X75165Y-45920D01*
X75184Y-45357D02*
X75446Y-45357D01*
X75184Y-45526D02*
X75390Y-45526D01*
X75428Y-45507D01*
X75446Y-45470D01*
X75446Y-45414D01*
X75428Y-45376D01*
X75409Y-45357D01*
X79221Y-41853D02*
X79240Y-41871D01*
X79259Y-41928D01*
X79259Y-41965D01*
X79240Y-42021D01*
X79203Y-42059D01*
X79165Y-42078D01*
X79090Y-42096D01*
X79034Y-42096D01*
X78959Y-42078D01*
X78921Y-42059D01*
X78884Y-42021D01*
X78865Y-41965D01*
X78865Y-41928D01*
X78884Y-41871D01*
X78903Y-41853D01*
X79259Y-41478D02*
X79259Y-41703D01*
X79259Y-41590D02*
X78865Y-41590D01*
X78921Y-41628D01*
X78959Y-41665D01*
X78978Y-41703D01*
X78865Y-41346D02*
X78865Y-41084D01*
X79259Y-41253D01*
X79259Y-38853D02*
X79259Y-39078D01*
X79259Y-38965D02*
X78865Y-38965D01*
X78921Y-39003D01*
X78959Y-39040D01*
X78978Y-39078D01*
X78865Y-38609D02*
X78865Y-38571D01*
X78884Y-38534D01*
X78903Y-38515D01*
X78940Y-38496D01*
X79015Y-38478D01*
X79109Y-38478D01*
X79184Y-38496D01*
X79221Y-38515D01*
X79240Y-38534D01*
X79259Y-38571D01*
X79259Y-38609D01*
X79240Y-38646D01*
X79221Y-38665D01*
X79184Y-38684D01*
X79109Y-38703D01*
X79015Y-38703D01*
X78940Y-38684D01*
X78903Y-38665D01*
X78884Y-38646D01*
X78865Y-38609D01*
X78996Y-38140D02*
X79259Y-38140D01*
X78996Y-38309D02*
X79203Y-38309D01*
X79240Y-38290D01*
X79259Y-38253D01*
X79259Y-38196D01*
X79240Y-38159D01*
X79221Y-38140D01*
X74545Y-41904D02*
X74526Y-41923D01*
X74470Y-41942D01*
X74432Y-41942D01*
X74376Y-41923D01*
X74339Y-41885D01*
X74320Y-41848D01*
X74301Y-41773D01*
X74301Y-41717D01*
X74320Y-41642D01*
X74339Y-41604D01*
X74376Y-41567D01*
X74432Y-41548D01*
X74470Y-41548D01*
X74526Y-41567D01*
X74545Y-41585D01*
X74920Y-41942D02*
X74695Y-41942D01*
X74807Y-41942D02*
X74807Y-41548D01*
X74770Y-41604D01*
X74732Y-41642D01*
X74695Y-41660D01*
X75051Y-41548D02*
X75295Y-41548D01*
X75164Y-41698D01*
X75220Y-41698D01*
X75257Y-41717D01*
X75276Y-41735D01*
X75295Y-41773D01*
X75295Y-41867D01*
X75276Y-41904D01*
X75257Y-41923D01*
X75220Y-41942D01*
X75107Y-41942D01*
X75070Y-41923D01*
X75051Y-41904D01*
X74132Y-39678D02*
X74170Y-39678D01*
X74207Y-39697D01*
X74226Y-39715D01*
X74245Y-39753D01*
X74264Y-39828D01*
X74264Y-39921D01*
X74245Y-39996D01*
X74226Y-40034D01*
X74207Y-40053D01*
X74170Y-40071D01*
X74132Y-40071D01*
X74095Y-40053D01*
X74076Y-40034D01*
X74057Y-39996D01*
X74039Y-39921D01*
X74039Y-39828D01*
X74057Y-39753D01*
X74076Y-39715D01*
X74095Y-39697D01*
X74132Y-39678D01*
X74432Y-40034D02*
X74451Y-40053D01*
X74432Y-40071D01*
X74414Y-40053D01*
X74432Y-40034D01*
X74432Y-40071D01*
X74695Y-39678D02*
X74732Y-39678D01*
X74770Y-39697D01*
X74789Y-39715D01*
X74807Y-39753D01*
X74826Y-39828D01*
X74826Y-39921D01*
X74807Y-39996D01*
X74789Y-40034D01*
X74770Y-40053D01*
X74732Y-40071D01*
X74695Y-40071D01*
X74657Y-40053D01*
X74639Y-40034D01*
X74620Y-39996D01*
X74601Y-39921D01*
X74601Y-39828D01*
X74620Y-39753D01*
X74639Y-39715D01*
X74657Y-39697D01*
X74695Y-39678D01*
X75201Y-40071D02*
X74976Y-40071D01*
X75089Y-40071D02*
X75089Y-39678D01*
X75051Y-39734D01*
X75014Y-39771D01*
X74976Y-39790D01*
X75538Y-39809D02*
X75538Y-40071D01*
X75370Y-39809D02*
X75370Y-40015D01*
X75388Y-40053D01*
X75426Y-40071D01*
X75482Y-40071D01*
X75520Y-40053D01*
X75538Y-40034D01*
X75604Y-36754D02*
X75623Y-36773D01*
X75642Y-36829D01*
X75642Y-36867D01*
X75623Y-36923D01*
X75585Y-36960D01*
X75548Y-36979D01*
X75473Y-36998D01*
X75417Y-36998D01*
X75342Y-36979D01*
X75304Y-36960D01*
X75267Y-36923D01*
X75248Y-36867D01*
X75248Y-36829D01*
X75267Y-36773D01*
X75285Y-36754D01*
X75642Y-36379D02*
X75642Y-36604D01*
X75642Y-36492D02*
X75248Y-36492D01*
X75304Y-36529D01*
X75342Y-36567D01*
X75360Y-36604D01*
X75642Y-36004D02*
X75642Y-36229D01*
X75642Y-36117D02*
X75248Y-36117D01*
X75304Y-36154D01*
X75342Y-36192D01*
X75360Y-36229D01*
X73378Y-37167D02*
X73378Y-37129D01*
X73397Y-37092D01*
X73415Y-37073D01*
X73453Y-37054D01*
X73528Y-37035D01*
X73621Y-37035D01*
X73696Y-37054D01*
X73734Y-37073D01*
X73753Y-37092D01*
X73771Y-37129D01*
X73771Y-37167D01*
X73753Y-37204D01*
X73734Y-37223D01*
X73696Y-37242D01*
X73621Y-37260D01*
X73528Y-37260D01*
X73453Y-37242D01*
X73415Y-37223D01*
X73397Y-37204D01*
X73378Y-37167D01*
X73734Y-36867D02*
X73753Y-36848D01*
X73771Y-36867D01*
X73753Y-36885D01*
X73734Y-36867D01*
X73771Y-36867D01*
X73378Y-36604D02*
X73378Y-36567D01*
X73397Y-36529D01*
X73415Y-36510D01*
X73453Y-36492D01*
X73528Y-36473D01*
X73621Y-36473D01*
X73696Y-36492D01*
X73734Y-36510D01*
X73753Y-36529D01*
X73771Y-36567D01*
X73771Y-36604D01*
X73753Y-36642D01*
X73734Y-36660D01*
X73696Y-36679D01*
X73621Y-36698D01*
X73528Y-36698D01*
X73453Y-36679D01*
X73415Y-36660D01*
X73397Y-36642D01*
X73378Y-36604D01*
X73771Y-36098D02*
X73771Y-36323D01*
X73771Y-36210D02*
X73378Y-36210D01*
X73434Y-36248D01*
X73471Y-36285D01*
X73490Y-36323D01*
X73509Y-35761D02*
X73771Y-35761D01*
X73509Y-35929D02*
X73715Y-35929D01*
X73753Y-35911D01*
X73771Y-35873D01*
X73771Y-35817D01*
X73753Y-35779D01*
X73734Y-35761D01*
X34779Y-39192D02*
X34798Y-39210D01*
X34817Y-39267D01*
X34817Y-39304D01*
X34798Y-39360D01*
X34760Y-39398D01*
X34723Y-39417D01*
X34648Y-39435D01*
X34592Y-39435D01*
X34517Y-39417D01*
X34479Y-39398D01*
X34442Y-39360D01*
X34423Y-39304D01*
X34423Y-39267D01*
X34442Y-39210D01*
X34460Y-39192D01*
X34423Y-39060D02*
X34423Y-38817D01*
X34573Y-38948D01*
X34573Y-38892D01*
X34592Y-38854D01*
X34610Y-38835D01*
X34648Y-38817D01*
X34742Y-38817D01*
X34779Y-38835D01*
X34798Y-38854D01*
X34817Y-38892D01*
X34817Y-39004D01*
X34798Y-39042D01*
X34779Y-39060D01*
X32946Y-39192D02*
X32946Y-39417D01*
X32946Y-39304D02*
X32553Y-39304D01*
X32609Y-39342D01*
X32646Y-39379D01*
X32665Y-39417D01*
X32684Y-38854D02*
X32946Y-38854D01*
X32684Y-39023D02*
X32890Y-39023D01*
X32928Y-39004D01*
X32946Y-38967D01*
X32946Y-38910D01*
X32928Y-38873D01*
X32909Y-38854D01*
X29728Y-45666D02*
X29746Y-45685D01*
X29765Y-45741D01*
X29765Y-45778D01*
X29746Y-45835D01*
X29709Y-45872D01*
X29671Y-45891D01*
X29596Y-45910D01*
X29540Y-45910D01*
X29465Y-45891D01*
X29428Y-45872D01*
X29390Y-45835D01*
X29371Y-45778D01*
X29371Y-45741D01*
X29390Y-45685D01*
X29409Y-45666D01*
X29409Y-45516D02*
X29390Y-45497D01*
X29371Y-45460D01*
X29371Y-45366D01*
X29390Y-45328D01*
X29409Y-45310D01*
X29446Y-45291D01*
X29484Y-45291D01*
X29540Y-45310D01*
X29765Y-45535D01*
X29765Y-45291D01*
X30446Y-44464D02*
X30446Y-44689D01*
X30446Y-44576D02*
X30053Y-44576D01*
X30109Y-44614D01*
X30146Y-44651D01*
X30165Y-44689D01*
X30184Y-44295D02*
X30446Y-44295D01*
X30221Y-44295D02*
X30203Y-44276D01*
X30184Y-44239D01*
X30184Y-44182D01*
X30203Y-44145D01*
X30240Y-44126D01*
X30446Y-44126D01*
X28484Y-45666D02*
X28503Y-45685D01*
X28521Y-45741D01*
X28521Y-45778D01*
X28503Y-45835D01*
X28465Y-45872D01*
X28428Y-45891D01*
X28353Y-45910D01*
X28296Y-45910D01*
X28221Y-45891D01*
X28184Y-45872D01*
X28146Y-45835D01*
X28128Y-45778D01*
X28128Y-45741D01*
X28146Y-45685D01*
X28165Y-45666D01*
X28521Y-45291D02*
X28521Y-45516D01*
X28521Y-45403D02*
X28128Y-45403D01*
X28184Y-45441D01*
X28221Y-45478D01*
X28240Y-45516D01*
X28928Y-44876D02*
X28928Y-44838D01*
X28946Y-44801D01*
X28965Y-44782D01*
X29003Y-44764D01*
X29078Y-44745D01*
X29171Y-44745D01*
X29246Y-44764D01*
X29284Y-44782D01*
X29303Y-44801D01*
X29321Y-44838D01*
X29321Y-44876D01*
X29303Y-44913D01*
X29284Y-44932D01*
X29246Y-44951D01*
X29171Y-44970D01*
X29078Y-44970D01*
X29003Y-44951D01*
X28965Y-44932D01*
X28946Y-44913D01*
X28928Y-44876D01*
X29284Y-44576D02*
X29303Y-44557D01*
X29321Y-44576D01*
X29303Y-44595D01*
X29284Y-44576D01*
X29321Y-44576D01*
X29321Y-44182D02*
X29321Y-44407D01*
X29321Y-44295D02*
X28928Y-44295D01*
X28984Y-44332D01*
X29021Y-44370D01*
X29040Y-44407D01*
X29059Y-43845D02*
X29321Y-43845D01*
X29059Y-44014D02*
X29265Y-44014D01*
X29303Y-43995D01*
X29321Y-43957D01*
X29321Y-43901D01*
X29303Y-43864D01*
X29284Y-43845D01*
X77265Y-45759D02*
X77134Y-45571D01*
X77040Y-45759D02*
X77040Y-45365D01*
X77190Y-45365D01*
X77228Y-45384D01*
X77246Y-45403D01*
X77265Y-45440D01*
X77265Y-45496D01*
X77246Y-45534D01*
X77228Y-45553D01*
X77190Y-45571D01*
X77040Y-45571D01*
X77378Y-45365D02*
X77509Y-45759D01*
X77640Y-45365D01*
X77753Y-45403D02*
X77771Y-45384D01*
X77809Y-45365D01*
X77903Y-45365D01*
X77940Y-45384D01*
X77959Y-45403D01*
X77978Y-45440D01*
X77978Y-45478D01*
X77959Y-45534D01*
X77734Y-45759D01*
X77978Y-45759D01*
X78365Y-44809D02*
X78140Y-44809D01*
X78253Y-44809D02*
X78253Y-44415D01*
X78215Y-44471D01*
X78178Y-44509D01*
X78140Y-44528D01*
X78609Y-44415D02*
X78646Y-44415D01*
X78684Y-44434D01*
X78703Y-44453D01*
X78721Y-44490D01*
X78740Y-44565D01*
X78740Y-44659D01*
X78721Y-44734D01*
X78703Y-44771D01*
X78684Y-44790D01*
X78646Y-44809D01*
X78609Y-44809D01*
X78571Y-44790D01*
X78553Y-44771D01*
X78534Y-44734D01*
X78515Y-44659D01*
X78515Y-44565D01*
X78534Y-44490D01*
X78553Y-44453D01*
X78571Y-44434D01*
X78609Y-44415D01*
X78909Y-44809D02*
X78909Y-44415D01*
X78946Y-44659D02*
X79059Y-44809D01*
X79059Y-44546D02*
X78909Y-44696D01*
X76765Y-40459D02*
X76634Y-40271D01*
X76540Y-40459D02*
X76540Y-40065D01*
X76690Y-40065D01*
X76728Y-40084D01*
X76746Y-40103D01*
X76765Y-40140D01*
X76765Y-40196D01*
X76746Y-40234D01*
X76728Y-40253D01*
X76690Y-40271D01*
X76540Y-40271D01*
X76878Y-40065D02*
X77009Y-40459D01*
X77140Y-40065D01*
X77478Y-40459D02*
X77253Y-40459D01*
X77365Y-40459D02*
X77365Y-40065D01*
X77328Y-40121D01*
X77290Y-40159D01*
X77253Y-40178D01*
X77865Y-39509D02*
X77640Y-39509D01*
X77753Y-39509D02*
X77753Y-39115D01*
X77715Y-39171D01*
X77678Y-39209D01*
X77640Y-39228D01*
X78109Y-39115D02*
X78146Y-39115D01*
X78184Y-39134D01*
X78203Y-39153D01*
X78221Y-39190D01*
X78240Y-39265D01*
X78240Y-39359D01*
X78221Y-39434D01*
X78203Y-39471D01*
X78184Y-39490D01*
X78146Y-39509D01*
X78109Y-39509D01*
X78071Y-39490D01*
X78053Y-39471D01*
X78034Y-39434D01*
X78015Y-39359D01*
X78015Y-39265D01*
X78034Y-39190D01*
X78053Y-39153D01*
X78071Y-39134D01*
X78109Y-39115D01*
X78409Y-39509D02*
X78409Y-39115D01*
X78446Y-39359D02*
X78559Y-39509D01*
X78559Y-39246D02*
X78409Y-39396D01*
X29965Y-38459D02*
X29834Y-38271D01*
X29740Y-38459D02*
X29740Y-38065D01*
X29890Y-38065D01*
X29928Y-38084D01*
X29946Y-38103D01*
X29965Y-38140D01*
X29965Y-38196D01*
X29946Y-38234D01*
X29928Y-38253D01*
X29890Y-38271D01*
X29740Y-38271D01*
X30078Y-38065D02*
X30209Y-38459D01*
X30340Y-38065D01*
X30434Y-38065D02*
X30678Y-38065D01*
X30546Y-38215D01*
X30603Y-38215D01*
X30640Y-38234D01*
X30659Y-38253D01*
X30678Y-38290D01*
X30678Y-38384D01*
X30659Y-38421D01*
X30640Y-38440D01*
X30603Y-38459D01*
X30490Y-38459D01*
X30453Y-38440D01*
X30434Y-38421D01*
X31065Y-37509D02*
X30840Y-37509D01*
X30953Y-37509D02*
X30953Y-37115D01*
X30915Y-37171D01*
X30878Y-37209D01*
X30840Y-37228D01*
X31309Y-37115D02*
X31346Y-37115D01*
X31384Y-37134D01*
X31403Y-37153D01*
X31421Y-37190D01*
X31440Y-37265D01*
X31440Y-37359D01*
X31421Y-37434D01*
X31403Y-37471D01*
X31384Y-37490D01*
X31346Y-37509D01*
X31309Y-37509D01*
X31271Y-37490D01*
X31253Y-37471D01*
X31234Y-37434D01*
X31215Y-37359D01*
X31215Y-37265D01*
X31234Y-37190D01*
X31253Y-37153D01*
X31271Y-37134D01*
X31309Y-37115D01*
X31609Y-37509D02*
X31609Y-37115D01*
X31646Y-37359D02*
X31759Y-37509D01*
X31759Y-37246D02*
X31609Y-37396D01*
X42919Y-42822D02*
X43144Y-42822D01*
X43032Y-43216D02*
X43032Y-42822D01*
X43482Y-43216D02*
X43257Y-43216D01*
X43369Y-43216D02*
X43369Y-42822D01*
X43332Y-42879D01*
X43294Y-42916D01*
X43257Y-42935D01*
X41354Y-39456D02*
X41579Y-39456D01*
X41466Y-39850D02*
X41466Y-39456D01*
X41935Y-39850D02*
X41804Y-39663D01*
X41710Y-39850D02*
X41710Y-39456D01*
X41860Y-39456D01*
X41897Y-39475D01*
X41916Y-39494D01*
X41935Y-39531D01*
X41935Y-39588D01*
X41916Y-39625D01*
X41897Y-39644D01*
X41860Y-39663D01*
X41710Y-39663D01*
X42085Y-39738D02*
X42272Y-39738D01*
X42047Y-39850D02*
X42179Y-39456D01*
X42310Y-39850D01*
X42441Y-39850D02*
X42441Y-39456D01*
X42666Y-39850D01*
X42666Y-39456D01*
X42835Y-39831D02*
X42891Y-39850D01*
X42985Y-39850D01*
X43022Y-39831D01*
X43041Y-39813D01*
X43060Y-39775D01*
X43060Y-39738D01*
X43041Y-39700D01*
X43022Y-39681D01*
X42985Y-39663D01*
X42910Y-39644D01*
X42872Y-39625D01*
X42854Y-39606D01*
X42835Y-39569D01*
X42835Y-39531D01*
X42854Y-39494D01*
X42872Y-39475D01*
X42910Y-39456D01*
X43004Y-39456D01*
X43060Y-39475D01*
X43360Y-39644D02*
X43229Y-39644D01*
X43229Y-39850D02*
X43229Y-39456D01*
X43416Y-39456D01*
X43641Y-39456D02*
X43716Y-39456D01*
X43753Y-39475D01*
X43791Y-39513D01*
X43810Y-39588D01*
X43810Y-39719D01*
X43791Y-39794D01*
X43753Y-39831D01*
X43716Y-39850D01*
X43641Y-39850D01*
X43604Y-39831D01*
X43566Y-39794D01*
X43547Y-39719D01*
X43547Y-39588D01*
X43566Y-39513D01*
X43604Y-39475D01*
X43641Y-39456D01*
X43941Y-39456D02*
X44185Y-39456D01*
X44053Y-39606D01*
X44110Y-39606D01*
X44147Y-39625D01*
X44166Y-39644D01*
X44185Y-39681D01*
X44185Y-39775D01*
X44166Y-39813D01*
X44147Y-39831D01*
X44110Y-39850D01*
X43997Y-39850D01*
X43960Y-39831D01*
X43941Y-39813D01*
X44353Y-39700D02*
X44653Y-39700D01*
X44803Y-39456D02*
X45047Y-39456D01*
X44916Y-39606D01*
X44972Y-39606D01*
X45010Y-39625D01*
X45028Y-39644D01*
X45047Y-39681D01*
X45047Y-39775D01*
X45028Y-39813D01*
X45010Y-39831D01*
X44972Y-39850D01*
X44860Y-39850D01*
X44822Y-39831D01*
X44803Y-39813D01*
X65159Y-41104D02*
X65159Y-41292D01*
X64765Y-41292D01*
X64934Y-40917D02*
X64915Y-40955D01*
X64896Y-40973D01*
X64859Y-40992D01*
X64840Y-40992D01*
X64803Y-40973D01*
X64784Y-40955D01*
X64765Y-40917D01*
X64765Y-40842D01*
X64784Y-40805D01*
X64803Y-40786D01*
X64840Y-40767D01*
X64859Y-40767D01*
X64896Y-40786D01*
X64915Y-40805D01*
X64934Y-40842D01*
X64934Y-40917D01*
X64953Y-40955D01*
X64971Y-40973D01*
X65009Y-40992D01*
X65084Y-40992D01*
X65121Y-40973D01*
X65140Y-40955D01*
X65159Y-40917D01*
X65159Y-40842D01*
X65140Y-40805D01*
X65121Y-40786D01*
X65084Y-40767D01*
X65009Y-40767D01*
X64971Y-40786D01*
X64953Y-40805D01*
X64934Y-40842D01*
X65554Y-38598D02*
X65573Y-38579D01*
X65611Y-38560D01*
X65704Y-38560D01*
X65742Y-38579D01*
X65761Y-38598D01*
X65779Y-38635D01*
X65779Y-38673D01*
X65761Y-38729D01*
X65536Y-38954D01*
X65779Y-38954D01*
X65929Y-38598D02*
X65948Y-38579D01*
X65986Y-38560D01*
X66079Y-38560D01*
X66117Y-38579D01*
X66136Y-38598D01*
X66154Y-38635D01*
X66154Y-38673D01*
X66136Y-38729D01*
X65911Y-38954D01*
X66154Y-38954D01*
X66398Y-38560D02*
X66436Y-38560D01*
X66473Y-38579D01*
X66492Y-38598D01*
X66511Y-38635D01*
X66529Y-38710D01*
X66529Y-38804D01*
X66511Y-38879D01*
X66492Y-38917D01*
X66473Y-38935D01*
X66436Y-38954D01*
X66398Y-38954D01*
X66361Y-38935D01*
X66342Y-38917D01*
X66323Y-38879D01*
X66304Y-38804D01*
X66304Y-38710D01*
X66323Y-38635D01*
X66342Y-38598D01*
X66361Y-38579D01*
X66398Y-38560D01*
X66867Y-38692D02*
X66867Y-38954D01*
X66698Y-38692D02*
X66698Y-38898D01*
X66717Y-38935D01*
X66754Y-38954D01*
X66811Y-38954D01*
X66848Y-38935D01*
X66867Y-38917D01*
X55859Y-41104D02*
X55859Y-41292D01*
X55465Y-41292D01*
X55465Y-41011D02*
X55465Y-40748D01*
X55859Y-40917D01*
X56254Y-38598D02*
X56273Y-38579D01*
X56311Y-38560D01*
X56404Y-38560D01*
X56442Y-38579D01*
X56461Y-38598D01*
X56479Y-38635D01*
X56479Y-38673D01*
X56461Y-38729D01*
X56236Y-38954D01*
X56479Y-38954D01*
X56629Y-38598D02*
X56648Y-38579D01*
X56686Y-38560D01*
X56779Y-38560D01*
X56817Y-38579D01*
X56836Y-38598D01*
X56854Y-38635D01*
X56854Y-38673D01*
X56836Y-38729D01*
X56611Y-38954D01*
X56854Y-38954D01*
X57098Y-38560D02*
X57136Y-38560D01*
X57173Y-38579D01*
X57192Y-38598D01*
X57211Y-38635D01*
X57229Y-38710D01*
X57229Y-38804D01*
X57211Y-38879D01*
X57192Y-38917D01*
X57173Y-38935D01*
X57136Y-38954D01*
X57098Y-38954D01*
X57061Y-38935D01*
X57042Y-38917D01*
X57023Y-38879D01*
X57004Y-38804D01*
X57004Y-38710D01*
X57023Y-38635D01*
X57042Y-38598D01*
X57061Y-38579D01*
X57098Y-38560D01*
X57567Y-38692D02*
X57567Y-38954D01*
X57398Y-38692D02*
X57398Y-38898D01*
X57417Y-38935D01*
X57454Y-38954D01*
X57511Y-38954D01*
X57548Y-38935D01*
X57567Y-38917D01*
G54D16*
X38310Y-36646D02*
X38271Y-36590D01*
X38243Y-36646D02*
X38243Y-36528D01*
X38288Y-36528D01*
X38299Y-36534D01*
X38305Y-36539D01*
X38310Y-36551D01*
X38310Y-36568D01*
X38305Y-36579D01*
X38299Y-36584D01*
X38288Y-36590D01*
X38243Y-36590D01*
X38411Y-36568D02*
X38411Y-36646D01*
X38383Y-36523D02*
X38355Y-36607D01*
X38428Y-36607D01*
X38406Y-35918D02*
X38366Y-35862D01*
X38338Y-35918D02*
X38338Y-35800D01*
X38383Y-35800D01*
X38394Y-35805D01*
X38400Y-35811D01*
X38406Y-35822D01*
X38406Y-35839D01*
X38400Y-35850D01*
X38394Y-35856D01*
X38383Y-35862D01*
X38338Y-35862D01*
X37650Y-46073D02*
X37610Y-46017D01*
X37582Y-46073D02*
X37582Y-45955D01*
X37627Y-45955D01*
X37638Y-45961D01*
X37644Y-45966D01*
X37650Y-45978D01*
X37650Y-45995D01*
X37644Y-46006D01*
X37638Y-46011D01*
X37627Y-46017D01*
X37582Y-46017D01*
X37689Y-45955D02*
X37768Y-45955D01*
X37717Y-46073D01*
X37540Y-46684D02*
X37551Y-46684D01*
X37562Y-46689D01*
X37568Y-46695D01*
X37574Y-46706D01*
X37579Y-46729D01*
X37579Y-46757D01*
X37574Y-46779D01*
X37568Y-46790D01*
X37562Y-46796D01*
X37551Y-46802D01*
X37540Y-46802D01*
X37529Y-46796D01*
X37523Y-46790D01*
X37517Y-46779D01*
X37512Y-46757D01*
X37512Y-46729D01*
X37517Y-46706D01*
X37523Y-46695D01*
X37529Y-46689D01*
X37540Y-46684D01*
X37630Y-46790D02*
X37635Y-46796D01*
X37630Y-46802D01*
X37624Y-46796D01*
X37630Y-46790D01*
X37630Y-46802D01*
X37748Y-46802D02*
X37680Y-46802D01*
X37714Y-46802D02*
X37714Y-46684D01*
X37703Y-46700D01*
X37692Y-46712D01*
X37680Y-46717D01*
X39760Y-43121D02*
X39721Y-43065D01*
X39693Y-43121D02*
X39693Y-43003D01*
X39738Y-43003D01*
X39749Y-43009D01*
X39755Y-43014D01*
X39760Y-43026D01*
X39760Y-43043D01*
X39755Y-43054D01*
X39749Y-43059D01*
X39738Y-43065D01*
X39693Y-43065D01*
X39867Y-43003D02*
X39811Y-43003D01*
X39805Y-43059D01*
X39811Y-43054D01*
X39822Y-43048D01*
X39850Y-43048D01*
X39861Y-43054D01*
X39867Y-43059D01*
X39873Y-43071D01*
X39873Y-43099D01*
X39867Y-43110D01*
X39861Y-43116D01*
X39850Y-43121D01*
X39822Y-43121D01*
X39811Y-43116D01*
X39805Y-43110D01*
X39856Y-42393D02*
X39816Y-42337D01*
X39788Y-42393D02*
X39788Y-42275D01*
X39833Y-42275D01*
X39844Y-42280D01*
X39850Y-42286D01*
X39856Y-42297D01*
X39856Y-42314D01*
X39850Y-42325D01*
X39844Y-42331D01*
X39833Y-42337D01*
X39788Y-42337D01*
X39760Y-40421D02*
X39721Y-40365D01*
X39693Y-40421D02*
X39693Y-40303D01*
X39738Y-40303D01*
X39749Y-40309D01*
X39755Y-40314D01*
X39760Y-40326D01*
X39760Y-40343D01*
X39755Y-40354D01*
X39749Y-40359D01*
X39738Y-40365D01*
X39693Y-40365D01*
X39861Y-40303D02*
X39839Y-40303D01*
X39828Y-40309D01*
X39822Y-40314D01*
X39811Y-40331D01*
X39805Y-40354D01*
X39805Y-40399D01*
X39811Y-40410D01*
X39816Y-40416D01*
X39828Y-40421D01*
X39850Y-40421D01*
X39861Y-40416D01*
X39867Y-40410D01*
X39873Y-40399D01*
X39873Y-40371D01*
X39867Y-40359D01*
X39861Y-40354D01*
X39850Y-40348D01*
X39828Y-40348D01*
X39816Y-40354D01*
X39811Y-40359D01*
X39805Y-40371D01*
X39856Y-39693D02*
X39816Y-39637D01*
X39788Y-39693D02*
X39788Y-39575D01*
X39833Y-39575D01*
X39844Y-39580D01*
X39850Y-39586D01*
X39856Y-39597D01*
X39856Y-39614D01*
X39850Y-39625D01*
X39844Y-39631D01*
X39833Y-39637D01*
X39788Y-39637D01*
G54D10*
X39645Y-43054D02*
X39626Y-43073D01*
X39570Y-43092D01*
X39532Y-43092D01*
X39476Y-43073D01*
X39439Y-43035D01*
X39420Y-42998D01*
X39401Y-42923D01*
X39401Y-42867D01*
X39420Y-42792D01*
X39439Y-42754D01*
X39476Y-42717D01*
X39532Y-42698D01*
X39570Y-42698D01*
X39626Y-42717D01*
X39645Y-42735D01*
X40020Y-43092D02*
X39795Y-43092D01*
X39907Y-43092D02*
X39907Y-42698D01*
X39870Y-42754D01*
X39832Y-42792D01*
X39795Y-42810D01*
X40207Y-43092D02*
X40282Y-43092D01*
X40320Y-43073D01*
X40338Y-43054D01*
X40376Y-42998D01*
X40395Y-42923D01*
X40395Y-42773D01*
X40376Y-42735D01*
X40357Y-42717D01*
X40320Y-42698D01*
X40245Y-42698D01*
X40207Y-42717D01*
X40189Y-42735D01*
X40170Y-42773D01*
X40170Y-42867D01*
X40189Y-42904D01*
X40207Y-42923D01*
X40245Y-42942D01*
X40320Y-42942D01*
X40357Y-42923D01*
X40376Y-42904D01*
X40395Y-42867D01*
X39420Y-40828D02*
X39457Y-40828D01*
X39495Y-40847D01*
X39514Y-40865D01*
X39532Y-40903D01*
X39551Y-40978D01*
X39551Y-41071D01*
X39532Y-41146D01*
X39514Y-41184D01*
X39495Y-41203D01*
X39457Y-41221D01*
X39420Y-41221D01*
X39382Y-41203D01*
X39364Y-41184D01*
X39345Y-41146D01*
X39326Y-41071D01*
X39326Y-40978D01*
X39345Y-40903D01*
X39364Y-40865D01*
X39382Y-40847D01*
X39420Y-40828D01*
X39720Y-41184D02*
X39739Y-41203D01*
X39720Y-41221D01*
X39701Y-41203D01*
X39720Y-41184D01*
X39720Y-41221D01*
X40114Y-41221D02*
X39889Y-41221D01*
X40001Y-41221D02*
X40001Y-40828D01*
X39964Y-40884D01*
X39926Y-40921D01*
X39889Y-40940D01*
X40451Y-40959D02*
X40451Y-41221D01*
X40282Y-40959D02*
X40282Y-41165D01*
X40301Y-41203D01*
X40338Y-41221D01*
X40395Y-41221D01*
X40432Y-41203D01*
X40451Y-41184D01*
X39645Y-42029D02*
X39626Y-42048D01*
X39570Y-42067D01*
X39532Y-42067D01*
X39476Y-42048D01*
X39439Y-42010D01*
X39420Y-41973D01*
X39401Y-41898D01*
X39401Y-41842D01*
X39420Y-41767D01*
X39439Y-41729D01*
X39476Y-41692D01*
X39532Y-41673D01*
X39570Y-41673D01*
X39626Y-41692D01*
X39645Y-41710D01*
X39795Y-41710D02*
X39814Y-41692D01*
X39851Y-41673D01*
X39945Y-41673D01*
X39982Y-41692D01*
X40001Y-41710D01*
X40020Y-41748D01*
X40020Y-41785D01*
X40001Y-41842D01*
X39776Y-42067D01*
X40020Y-42067D01*
X40264Y-41673D02*
X40301Y-41673D01*
X40338Y-41692D01*
X40357Y-41710D01*
X40376Y-41748D01*
X40395Y-41823D01*
X40395Y-41917D01*
X40376Y-41992D01*
X40357Y-42029D01*
X40338Y-42048D01*
X40301Y-42067D01*
X40264Y-42067D01*
X40226Y-42048D01*
X40207Y-42029D01*
X40189Y-41992D01*
X40170Y-41917D01*
X40170Y-41823D01*
X40189Y-41748D01*
X40207Y-41710D01*
X40226Y-41692D01*
X40264Y-41673D01*
X39420Y-39803D02*
X39457Y-39803D01*
X39495Y-39822D01*
X39514Y-39840D01*
X39532Y-39878D01*
X39551Y-39953D01*
X39551Y-40046D01*
X39532Y-40121D01*
X39514Y-40159D01*
X39495Y-40178D01*
X39457Y-40196D01*
X39420Y-40196D01*
X39382Y-40178D01*
X39364Y-40159D01*
X39345Y-40121D01*
X39326Y-40046D01*
X39326Y-39953D01*
X39345Y-39878D01*
X39364Y-39840D01*
X39382Y-39822D01*
X39420Y-39803D01*
X39720Y-40159D02*
X39739Y-40178D01*
X39720Y-40196D01*
X39701Y-40178D01*
X39720Y-40159D01*
X39720Y-40196D01*
X40114Y-40196D02*
X39889Y-40196D01*
X40001Y-40196D02*
X40001Y-39803D01*
X39964Y-39859D01*
X39926Y-39896D01*
X39889Y-39915D01*
X40451Y-39934D02*
X40451Y-40196D01*
X40282Y-39934D02*
X40282Y-40140D01*
X40301Y-40178D01*
X40338Y-40196D01*
X40395Y-40196D01*
X40432Y-40178D01*
X40451Y-40159D01*
X42014Y-45851D02*
X42032Y-45870D01*
X42051Y-45926D01*
X42051Y-45964D01*
X42032Y-46020D01*
X41995Y-46057D01*
X41957Y-46076D01*
X41882Y-46095D01*
X41826Y-46095D01*
X41751Y-46076D01*
X41714Y-46057D01*
X41676Y-46020D01*
X41657Y-45964D01*
X41657Y-45926D01*
X41676Y-45870D01*
X41695Y-45851D01*
X41695Y-45701D02*
X41676Y-45682D01*
X41657Y-45645D01*
X41657Y-45551D01*
X41676Y-45514D01*
X41695Y-45495D01*
X41732Y-45476D01*
X41770Y-45476D01*
X41826Y-45495D01*
X42051Y-45720D01*
X42051Y-45476D01*
X42051Y-45101D02*
X42051Y-45326D01*
X42051Y-45214D02*
X41657Y-45214D01*
X41714Y-45251D01*
X41751Y-45289D01*
X41770Y-45326D01*
X43921Y-45851D02*
X43921Y-46076D01*
X43921Y-45964D02*
X43528Y-45964D01*
X43584Y-46001D01*
X43621Y-46038D01*
X43640Y-46076D01*
X43528Y-45607D02*
X43528Y-45570D01*
X43546Y-45532D01*
X43565Y-45514D01*
X43603Y-45495D01*
X43678Y-45476D01*
X43771Y-45476D01*
X43846Y-45495D01*
X43884Y-45514D01*
X43903Y-45532D01*
X43921Y-45570D01*
X43921Y-45607D01*
X43903Y-45645D01*
X43884Y-45664D01*
X43846Y-45682D01*
X43771Y-45701D01*
X43678Y-45701D01*
X43603Y-45682D01*
X43565Y-45664D01*
X43546Y-45645D01*
X43528Y-45607D01*
X43659Y-45139D02*
X43921Y-45139D01*
X43659Y-45307D02*
X43865Y-45307D01*
X43903Y-45289D01*
X43921Y-45251D01*
X43921Y-45195D01*
X43903Y-45157D01*
X43884Y-45139D01*
X44039Y-44601D02*
X44057Y-44620D01*
X44076Y-44676D01*
X44076Y-44714D01*
X44057Y-44770D01*
X44020Y-44807D01*
X43982Y-44826D01*
X43907Y-44845D01*
X43851Y-44845D01*
X43776Y-44826D01*
X43739Y-44807D01*
X43701Y-44770D01*
X43682Y-44714D01*
X43682Y-44676D01*
X43701Y-44620D01*
X43720Y-44601D01*
X43720Y-44451D02*
X43701Y-44432D01*
X43682Y-44395D01*
X43682Y-44301D01*
X43701Y-44264D01*
X43720Y-44245D01*
X43757Y-44226D01*
X43795Y-44226D01*
X43851Y-44245D01*
X44076Y-44470D01*
X44076Y-44226D01*
X43720Y-44076D02*
X43701Y-44057D01*
X43682Y-44020D01*
X43682Y-43926D01*
X43701Y-43889D01*
X43720Y-43870D01*
X43757Y-43851D01*
X43795Y-43851D01*
X43851Y-43870D01*
X44076Y-44095D01*
X44076Y-43851D01*
X45946Y-44601D02*
X45946Y-44826D01*
X45946Y-44714D02*
X45553Y-44714D01*
X45609Y-44751D01*
X45646Y-44788D01*
X45665Y-44826D01*
X45553Y-44357D02*
X45553Y-44320D01*
X45571Y-44282D01*
X45590Y-44264D01*
X45628Y-44245D01*
X45703Y-44226D01*
X45796Y-44226D01*
X45871Y-44245D01*
X45909Y-44264D01*
X45928Y-44282D01*
X45946Y-44320D01*
X45946Y-44357D01*
X45928Y-44395D01*
X45909Y-44414D01*
X45871Y-44432D01*
X45796Y-44451D01*
X45703Y-44451D01*
X45628Y-44432D01*
X45590Y-44414D01*
X45571Y-44395D01*
X45553Y-44357D01*
X45684Y-43889D02*
X45946Y-43889D01*
X45684Y-44057D02*
X45890Y-44057D01*
X45928Y-44039D01*
X45946Y-44001D01*
X45946Y-43945D01*
X45928Y-43907D01*
X45909Y-43889D01*
X51198Y-41389D02*
X51179Y-41407D01*
X51123Y-41426D01*
X51085Y-41426D01*
X51029Y-41407D01*
X50992Y-41370D01*
X50973Y-41332D01*
X50954Y-41257D01*
X50954Y-41201D01*
X50973Y-41126D01*
X50992Y-41089D01*
X51029Y-41051D01*
X51085Y-41032D01*
X51123Y-41032D01*
X51179Y-41051D01*
X51198Y-41070D01*
X51348Y-41070D02*
X51367Y-41051D01*
X51404Y-41032D01*
X51498Y-41032D01*
X51535Y-41051D01*
X51554Y-41070D01*
X51573Y-41107D01*
X51573Y-41145D01*
X51554Y-41201D01*
X51329Y-41426D01*
X51573Y-41426D01*
X51910Y-41164D02*
X51910Y-41426D01*
X51817Y-41014D02*
X51723Y-41295D01*
X51967Y-41295D01*
X51198Y-43296D02*
X50973Y-43296D01*
X51085Y-43296D02*
X51085Y-42903D01*
X51048Y-42959D01*
X51011Y-42996D01*
X50973Y-43015D01*
X51442Y-42903D02*
X51479Y-42903D01*
X51517Y-42921D01*
X51535Y-42940D01*
X51554Y-42978D01*
X51573Y-43053D01*
X51573Y-43146D01*
X51554Y-43221D01*
X51535Y-43259D01*
X51517Y-43278D01*
X51479Y-43296D01*
X51442Y-43296D01*
X51404Y-43278D01*
X51385Y-43259D01*
X51367Y-43221D01*
X51348Y-43146D01*
X51348Y-43053D01*
X51367Y-42978D01*
X51385Y-42940D01*
X51404Y-42921D01*
X51442Y-42903D01*
X51910Y-43034D02*
X51910Y-43296D01*
X51742Y-43034D02*
X51742Y-43240D01*
X51760Y-43278D01*
X51798Y-43296D01*
X51854Y-43296D01*
X51892Y-43278D01*
X51910Y-43259D01*
X59048Y-38939D02*
X59029Y-38957D01*
X58973Y-38976D01*
X58935Y-38976D01*
X58879Y-38957D01*
X58842Y-38920D01*
X58823Y-38882D01*
X58804Y-38807D01*
X58804Y-38751D01*
X58823Y-38676D01*
X58842Y-38639D01*
X58879Y-38601D01*
X58935Y-38582D01*
X58973Y-38582D01*
X59029Y-38601D01*
X59048Y-38620D01*
X59198Y-38620D02*
X59217Y-38601D01*
X59254Y-38582D01*
X59348Y-38582D01*
X59385Y-38601D01*
X59404Y-38620D01*
X59423Y-38657D01*
X59423Y-38695D01*
X59404Y-38751D01*
X59179Y-38976D01*
X59423Y-38976D01*
X59554Y-38582D02*
X59798Y-38582D01*
X59667Y-38732D01*
X59723Y-38732D01*
X59760Y-38751D01*
X59779Y-38770D01*
X59798Y-38807D01*
X59798Y-38901D01*
X59779Y-38939D01*
X59760Y-38957D01*
X59723Y-38976D01*
X59610Y-38976D01*
X59573Y-38957D01*
X59554Y-38939D01*
X59048Y-40846D02*
X58823Y-40846D01*
X58935Y-40846D02*
X58935Y-40453D01*
X58898Y-40509D01*
X58861Y-40546D01*
X58823Y-40565D01*
X59292Y-40453D02*
X59329Y-40453D01*
X59367Y-40471D01*
X59385Y-40490D01*
X59404Y-40528D01*
X59423Y-40603D01*
X59423Y-40696D01*
X59404Y-40771D01*
X59385Y-40809D01*
X59367Y-40828D01*
X59329Y-40846D01*
X59292Y-40846D01*
X59254Y-40828D01*
X59235Y-40809D01*
X59217Y-40771D01*
X59198Y-40696D01*
X59198Y-40603D01*
X59217Y-40528D01*
X59235Y-40490D01*
X59254Y-40471D01*
X59292Y-40453D01*
X59760Y-40584D02*
X59760Y-40846D01*
X59592Y-40584D02*
X59592Y-40790D01*
X59610Y-40828D01*
X59648Y-40846D01*
X59704Y-40846D01*
X59742Y-40828D01*
X59760Y-40809D01*
G54D18*
X48314Y-34483D02*
X48314Y-34083D01*
X48466Y-34083D01*
X48504Y-34102D01*
X48523Y-34122D01*
X48542Y-34160D01*
X48542Y-34217D01*
X48523Y-34255D01*
X48504Y-34274D01*
X48466Y-34293D01*
X48314Y-34293D01*
X48923Y-34483D02*
X48695Y-34483D01*
X48809Y-34483D02*
X48809Y-34083D01*
X48771Y-34141D01*
X48733Y-34179D01*
X48695Y-34198D01*
X49266Y-34217D02*
X49266Y-34483D01*
X49171Y-34064D02*
X49076Y-34350D01*
X49323Y-34350D01*
X48050Y-37299D02*
X48031Y-37318D01*
X47974Y-37337D01*
X47936Y-37337D01*
X47878Y-37318D01*
X47840Y-37280D01*
X47821Y-37242D01*
X47802Y-37166D01*
X47802Y-37109D01*
X47821Y-37033D01*
X47840Y-36995D01*
X47878Y-36956D01*
X47936Y-36937D01*
X47974Y-36937D01*
X48031Y-36956D01*
X48050Y-36976D01*
X48298Y-36937D02*
X48374Y-36937D01*
X48412Y-36956D01*
X48450Y-36995D01*
X48469Y-37071D01*
X48469Y-37204D01*
X48450Y-37280D01*
X48412Y-37318D01*
X48374Y-37337D01*
X48298Y-37337D01*
X48259Y-37318D01*
X48221Y-37280D01*
X48202Y-37204D01*
X48202Y-37071D01*
X48221Y-36995D01*
X48259Y-36956D01*
X48298Y-36937D01*
X48640Y-37337D02*
X48640Y-36937D01*
X48869Y-37337D01*
X48869Y-36937D01*
X49059Y-37337D02*
X49059Y-36937D01*
X49288Y-37337D01*
X49288Y-36937D01*
X49383Y-37376D02*
X49688Y-37376D01*
X49993Y-37337D02*
X49764Y-37337D01*
X49878Y-37337D02*
X49878Y-36937D01*
X49840Y-36995D01*
X49802Y-37033D01*
X49764Y-37052D01*
X44914Y-45583D02*
X44914Y-45183D01*
X45066Y-45183D01*
X45104Y-45202D01*
X45123Y-45222D01*
X45142Y-45260D01*
X45142Y-45317D01*
X45123Y-45355D01*
X45104Y-45374D01*
X45066Y-45393D01*
X44914Y-45393D01*
X45523Y-45583D02*
X45295Y-45583D01*
X45409Y-45583D02*
X45409Y-45183D01*
X45371Y-45241D01*
X45333Y-45279D01*
X45295Y-45298D01*
X45885Y-45183D02*
X45695Y-45183D01*
X45676Y-45374D01*
X45695Y-45355D01*
X45733Y-45336D01*
X45828Y-45336D01*
X45866Y-45355D01*
X45885Y-45374D01*
X45904Y-45412D01*
X45904Y-45507D01*
X45885Y-45545D01*
X45866Y-45564D01*
X45828Y-45583D01*
X45733Y-45583D01*
X45695Y-45564D01*
X45676Y-45545D01*
X42352Y-47723D02*
X42333Y-47742D01*
X42276Y-47761D01*
X42238Y-47761D01*
X42180Y-47742D01*
X42142Y-47704D01*
X42123Y-47666D01*
X42104Y-47590D01*
X42104Y-47533D01*
X42123Y-47457D01*
X42142Y-47419D01*
X42180Y-47380D01*
X42238Y-47361D01*
X42276Y-47361D01*
X42333Y-47380D01*
X42352Y-47400D01*
X42600Y-47361D02*
X42676Y-47361D01*
X42714Y-47380D01*
X42752Y-47419D01*
X42771Y-47495D01*
X42771Y-47628D01*
X42752Y-47704D01*
X42714Y-47742D01*
X42676Y-47761D01*
X42600Y-47761D01*
X42561Y-47742D01*
X42523Y-47704D01*
X42504Y-47628D01*
X42504Y-47495D01*
X42523Y-47419D01*
X42561Y-47380D01*
X42600Y-47361D01*
X42942Y-47761D02*
X42942Y-47361D01*
X43171Y-47761D01*
X43171Y-47361D01*
X43361Y-47761D02*
X43361Y-47361D01*
X43590Y-47761D01*
X43590Y-47361D01*
X43685Y-47800D02*
X43990Y-47800D01*
X44295Y-47761D02*
X44066Y-47761D01*
X44180Y-47761D02*
X44180Y-47361D01*
X44142Y-47419D01*
X44104Y-47457D01*
X44066Y-47476D01*
X71614Y-40383D02*
X71614Y-39983D01*
X71766Y-39983D01*
X71804Y-40002D01*
X71823Y-40022D01*
X71842Y-40060D01*
X71842Y-40117D01*
X71823Y-40155D01*
X71804Y-40174D01*
X71766Y-40193D01*
X71614Y-40193D01*
X72223Y-40383D02*
X71995Y-40383D01*
X72109Y-40383D02*
X72109Y-39983D01*
X72071Y-40041D01*
X72033Y-40079D01*
X71995Y-40098D01*
X72357Y-39983D02*
X72604Y-39983D01*
X72471Y-40136D01*
X72528Y-40136D01*
X72566Y-40155D01*
X72585Y-40174D01*
X72604Y-40212D01*
X72604Y-40307D01*
X72585Y-40345D01*
X72566Y-40364D01*
X72528Y-40383D01*
X72414Y-40383D01*
X72376Y-40364D01*
X72357Y-40345D01*
X71350Y-43199D02*
X71331Y-43218D01*
X71274Y-43237D01*
X71236Y-43237D01*
X71178Y-43218D01*
X71140Y-43180D01*
X71121Y-43142D01*
X71102Y-43066D01*
X71102Y-43009D01*
X71121Y-42933D01*
X71140Y-42895D01*
X71178Y-42856D01*
X71236Y-42837D01*
X71274Y-42837D01*
X71331Y-42856D01*
X71350Y-42876D01*
X71598Y-42837D02*
X71674Y-42837D01*
X71712Y-42856D01*
X71750Y-42895D01*
X71769Y-42971D01*
X71769Y-43104D01*
X71750Y-43180D01*
X71712Y-43218D01*
X71674Y-43237D01*
X71598Y-43237D01*
X71559Y-43218D01*
X71521Y-43180D01*
X71502Y-43104D01*
X71502Y-42971D01*
X71521Y-42895D01*
X71559Y-42856D01*
X71598Y-42837D01*
X71940Y-43237D02*
X71940Y-42837D01*
X72169Y-43237D01*
X72169Y-42837D01*
X72359Y-43237D02*
X72359Y-42837D01*
X72588Y-43237D01*
X72588Y-42837D01*
X72683Y-43276D02*
X72988Y-43276D01*
X73293Y-43237D02*
X73064Y-43237D01*
X73178Y-43237D02*
X73178Y-42837D01*
X73140Y-42895D01*
X73102Y-42933D01*
X73064Y-42952D01*
X82014Y-37983D02*
X82014Y-37583D01*
X82166Y-37583D01*
X82204Y-37602D01*
X82223Y-37622D01*
X82242Y-37660D01*
X82242Y-37717D01*
X82223Y-37755D01*
X82204Y-37774D01*
X82166Y-37793D01*
X82014Y-37793D01*
X82623Y-37983D02*
X82395Y-37983D01*
X82509Y-37983D02*
X82509Y-37583D01*
X82471Y-37641D01*
X82433Y-37679D01*
X82395Y-37698D01*
X82852Y-37755D02*
X82814Y-37736D01*
X82795Y-37717D01*
X82776Y-37679D01*
X82776Y-37660D01*
X82795Y-37622D01*
X82814Y-37602D01*
X82852Y-37583D01*
X82928Y-37583D01*
X82966Y-37602D01*
X82985Y-37622D01*
X83004Y-37660D01*
X83004Y-37679D01*
X82985Y-37717D01*
X82966Y-37736D01*
X82928Y-37755D01*
X82852Y-37755D01*
X82814Y-37774D01*
X82795Y-37793D01*
X82776Y-37831D01*
X82776Y-37907D01*
X82795Y-37945D01*
X82814Y-37964D01*
X82852Y-37983D01*
X82928Y-37983D01*
X82966Y-37964D01*
X82985Y-37945D01*
X83004Y-37907D01*
X83004Y-37831D01*
X82985Y-37793D01*
X82966Y-37774D01*
X82928Y-37755D01*
X81750Y-40799D02*
X81731Y-40818D01*
X81674Y-40837D01*
X81636Y-40837D01*
X81578Y-40818D01*
X81540Y-40780D01*
X81521Y-40742D01*
X81502Y-40666D01*
X81502Y-40609D01*
X81521Y-40533D01*
X81540Y-40495D01*
X81578Y-40456D01*
X81636Y-40437D01*
X81674Y-40437D01*
X81731Y-40456D01*
X81750Y-40476D01*
X81998Y-40437D02*
X82074Y-40437D01*
X82112Y-40456D01*
X82150Y-40495D01*
X82169Y-40571D01*
X82169Y-40704D01*
X82150Y-40780D01*
X82112Y-40818D01*
X82074Y-40837D01*
X81998Y-40837D01*
X81959Y-40818D01*
X81921Y-40780D01*
X81902Y-40704D01*
X81902Y-40571D01*
X81921Y-40495D01*
X81959Y-40456D01*
X81998Y-40437D01*
X82340Y-40837D02*
X82340Y-40437D01*
X82569Y-40837D01*
X82569Y-40437D01*
X82759Y-40837D02*
X82759Y-40437D01*
X82988Y-40837D01*
X82988Y-40437D01*
X83083Y-40876D02*
X83388Y-40876D01*
X83693Y-40837D02*
X83464Y-40837D01*
X83578Y-40837D02*
X83578Y-40437D01*
X83540Y-40495D01*
X83502Y-40533D01*
X83464Y-40552D01*
X82014Y-40383D02*
X82014Y-39983D01*
X82166Y-39983D01*
X82204Y-40002D01*
X82223Y-40022D01*
X82242Y-40060D01*
X82242Y-40117D01*
X82223Y-40155D01*
X82204Y-40174D01*
X82166Y-40193D01*
X82014Y-40193D01*
X82623Y-40383D02*
X82395Y-40383D01*
X82509Y-40383D02*
X82509Y-39983D01*
X82471Y-40041D01*
X82433Y-40079D01*
X82395Y-40098D01*
X82966Y-39983D02*
X82890Y-39983D01*
X82852Y-40002D01*
X82833Y-40022D01*
X82795Y-40079D01*
X82776Y-40155D01*
X82776Y-40307D01*
X82795Y-40345D01*
X82814Y-40364D01*
X82852Y-40383D01*
X82928Y-40383D01*
X82966Y-40364D01*
X82985Y-40345D01*
X83004Y-40307D01*
X83004Y-40212D01*
X82985Y-40174D01*
X82966Y-40155D01*
X82928Y-40136D01*
X82852Y-40136D01*
X82814Y-40155D01*
X82795Y-40174D01*
X82776Y-40212D01*
X81750Y-43199D02*
X81731Y-43218D01*
X81674Y-43237D01*
X81636Y-43237D01*
X81578Y-43218D01*
X81540Y-43180D01*
X81521Y-43142D01*
X81502Y-43066D01*
X81502Y-43009D01*
X81521Y-42933D01*
X81540Y-42895D01*
X81578Y-42856D01*
X81636Y-42837D01*
X81674Y-42837D01*
X81731Y-42856D01*
X81750Y-42876D01*
X81998Y-42837D02*
X82074Y-42837D01*
X82112Y-42856D01*
X82150Y-42895D01*
X82169Y-42971D01*
X82169Y-43104D01*
X82150Y-43180D01*
X82112Y-43218D01*
X82074Y-43237D01*
X81998Y-43237D01*
X81959Y-43218D01*
X81921Y-43180D01*
X81902Y-43104D01*
X81902Y-42971D01*
X81921Y-42895D01*
X81959Y-42856D01*
X81998Y-42837D01*
X82340Y-43237D02*
X82340Y-42837D01*
X82569Y-43237D01*
X82569Y-42837D01*
X82759Y-43237D02*
X82759Y-42837D01*
X82988Y-43237D01*
X82988Y-42837D01*
X83083Y-43276D02*
X83388Y-43276D01*
X83693Y-43237D02*
X83464Y-43237D01*
X83578Y-43237D02*
X83578Y-42837D01*
X83540Y-42895D01*
X83502Y-42933D01*
X83464Y-42952D01*
X82014Y-42783D02*
X82014Y-42383D01*
X82166Y-42383D01*
X82204Y-42402D01*
X82223Y-42422D01*
X82242Y-42460D01*
X82242Y-42517D01*
X82223Y-42555D01*
X82204Y-42574D01*
X82166Y-42593D01*
X82014Y-42593D01*
X82623Y-42783D02*
X82395Y-42783D01*
X82509Y-42783D02*
X82509Y-42383D01*
X82471Y-42441D01*
X82433Y-42479D01*
X82395Y-42498D01*
X82757Y-42383D02*
X83023Y-42383D01*
X82852Y-42783D01*
X81750Y-45599D02*
X81731Y-45618D01*
X81674Y-45637D01*
X81636Y-45637D01*
X81578Y-45618D01*
X81540Y-45580D01*
X81521Y-45542D01*
X81502Y-45466D01*
X81502Y-45409D01*
X81521Y-45333D01*
X81540Y-45295D01*
X81578Y-45256D01*
X81636Y-45237D01*
X81674Y-45237D01*
X81731Y-45256D01*
X81750Y-45276D01*
X81998Y-45237D02*
X82074Y-45237D01*
X82112Y-45256D01*
X82150Y-45295D01*
X82169Y-45371D01*
X82169Y-45504D01*
X82150Y-45580D01*
X82112Y-45618D01*
X82074Y-45637D01*
X81998Y-45637D01*
X81959Y-45618D01*
X81921Y-45580D01*
X81902Y-45504D01*
X81902Y-45371D01*
X81921Y-45295D01*
X81959Y-45256D01*
X81998Y-45237D01*
X82340Y-45637D02*
X82340Y-45237D01*
X82569Y-45637D01*
X82569Y-45237D01*
X82759Y-45637D02*
X82759Y-45237D01*
X82988Y-45637D01*
X82988Y-45237D01*
X83083Y-45676D02*
X83388Y-45676D01*
X83693Y-45637D02*
X83464Y-45637D01*
X83578Y-45637D02*
X83578Y-45237D01*
X83540Y-45295D01*
X83502Y-45333D01*
X83464Y-45352D01*
X37004Y-34761D02*
X37004Y-34361D01*
X37157Y-34361D01*
X37195Y-34380D01*
X37214Y-34400D01*
X37233Y-34438D01*
X37233Y-34495D01*
X37214Y-34533D01*
X37195Y-34552D01*
X37157Y-34571D01*
X37004Y-34571D01*
X37385Y-34400D02*
X37404Y-34380D01*
X37442Y-34361D01*
X37538Y-34361D01*
X37576Y-34380D01*
X37595Y-34400D01*
X37614Y-34438D01*
X37614Y-34476D01*
X37595Y-34533D01*
X37366Y-34761D01*
X37614Y-34761D01*
X34700Y-36699D02*
X34681Y-36718D01*
X34624Y-36737D01*
X34586Y-36737D01*
X34528Y-36718D01*
X34490Y-36680D01*
X34471Y-36642D01*
X34452Y-36566D01*
X34452Y-36509D01*
X34471Y-36433D01*
X34490Y-36395D01*
X34528Y-36356D01*
X34586Y-36337D01*
X34624Y-36337D01*
X34681Y-36356D01*
X34700Y-36376D01*
X34948Y-36337D02*
X35024Y-36337D01*
X35062Y-36356D01*
X35100Y-36395D01*
X35119Y-36471D01*
X35119Y-36604D01*
X35100Y-36680D01*
X35062Y-36718D01*
X35024Y-36737D01*
X34948Y-36737D01*
X34909Y-36718D01*
X34871Y-36680D01*
X34852Y-36604D01*
X34852Y-36471D01*
X34871Y-36395D01*
X34909Y-36356D01*
X34948Y-36337D01*
X35290Y-36737D02*
X35290Y-36337D01*
X35519Y-36737D01*
X35519Y-36337D01*
X35709Y-36737D02*
X35709Y-36337D01*
X35938Y-36737D01*
X35938Y-36337D01*
X36033Y-36776D02*
X36338Y-36776D01*
X36643Y-36737D02*
X36414Y-36737D01*
X36528Y-36737D02*
X36528Y-36337D01*
X36490Y-36395D01*
X36452Y-36433D01*
X36414Y-36452D01*
X35079Y-41158D02*
X35079Y-40758D01*
X35232Y-40758D01*
X35270Y-40777D01*
X35289Y-40797D01*
X35308Y-40835D01*
X35308Y-40892D01*
X35289Y-40930D01*
X35270Y-40949D01*
X35232Y-40968D01*
X35079Y-40968D01*
X35689Y-41158D02*
X35460Y-41158D01*
X35575Y-41158D02*
X35575Y-40758D01*
X35536Y-40816D01*
X35498Y-40854D01*
X35460Y-40873D01*
X34625Y-43974D02*
X34606Y-43993D01*
X34549Y-44012D01*
X34511Y-44012D01*
X34453Y-43993D01*
X34415Y-43955D01*
X34396Y-43917D01*
X34377Y-43841D01*
X34377Y-43784D01*
X34396Y-43708D01*
X34415Y-43670D01*
X34453Y-43631D01*
X34511Y-43612D01*
X34549Y-43612D01*
X34606Y-43631D01*
X34625Y-43651D01*
X34873Y-43612D02*
X34949Y-43612D01*
X34987Y-43631D01*
X35025Y-43670D01*
X35044Y-43746D01*
X35044Y-43879D01*
X35025Y-43955D01*
X34987Y-43993D01*
X34949Y-44012D01*
X34873Y-44012D01*
X34834Y-43993D01*
X34796Y-43955D01*
X34777Y-43879D01*
X34777Y-43746D01*
X34796Y-43670D01*
X34834Y-43631D01*
X34873Y-43612D01*
X35215Y-44012D02*
X35215Y-43612D01*
X35444Y-44012D01*
X35444Y-43612D01*
X35634Y-44012D02*
X35634Y-43612D01*
X35863Y-44012D01*
X35863Y-43612D01*
X35958Y-44051D02*
X36263Y-44051D01*
X36568Y-44012D02*
X36339Y-44012D01*
X36453Y-44012D02*
X36453Y-43612D01*
X36415Y-43670D01*
X36377Y-43708D01*
X36339Y-43727D01*
X35079Y-39108D02*
X35079Y-38708D01*
X35232Y-38708D01*
X35270Y-38727D01*
X35289Y-38747D01*
X35308Y-38785D01*
X35308Y-38842D01*
X35289Y-38880D01*
X35270Y-38899D01*
X35232Y-38918D01*
X35079Y-38918D01*
X35441Y-38708D02*
X35689Y-38708D01*
X35555Y-38861D01*
X35613Y-38861D01*
X35651Y-38880D01*
X35670Y-38899D01*
X35689Y-38937D01*
X35689Y-39032D01*
X35670Y-39070D01*
X35651Y-39089D01*
X35613Y-39108D01*
X35498Y-39108D01*
X35460Y-39089D01*
X35441Y-39070D01*
X34625Y-41924D02*
X34606Y-41943D01*
X34549Y-41962D01*
X34511Y-41962D01*
X34453Y-41943D01*
X34415Y-41905D01*
X34396Y-41867D01*
X34377Y-41791D01*
X34377Y-41734D01*
X34396Y-41658D01*
X34415Y-41620D01*
X34453Y-41581D01*
X34511Y-41562D01*
X34549Y-41562D01*
X34606Y-41581D01*
X34625Y-41601D01*
X34873Y-41562D02*
X34949Y-41562D01*
X34987Y-41581D01*
X35025Y-41620D01*
X35044Y-41696D01*
X35044Y-41829D01*
X35025Y-41905D01*
X34987Y-41943D01*
X34949Y-41962D01*
X34873Y-41962D01*
X34834Y-41943D01*
X34796Y-41905D01*
X34777Y-41829D01*
X34777Y-41696D01*
X34796Y-41620D01*
X34834Y-41581D01*
X34873Y-41562D01*
X35215Y-41962D02*
X35215Y-41562D01*
X35444Y-41962D01*
X35444Y-41562D01*
X35634Y-41962D02*
X35634Y-41562D01*
X35863Y-41962D01*
X35863Y-41562D01*
X35958Y-42001D02*
X36263Y-42001D01*
X36568Y-41962D02*
X36339Y-41962D01*
X36453Y-41962D02*
X36453Y-41562D01*
X36415Y-41620D01*
X36377Y-41658D01*
X36339Y-41677D01*
X51804Y-39283D02*
X51804Y-38883D01*
X51957Y-38883D01*
X51995Y-38902D01*
X52014Y-38922D01*
X52033Y-38960D01*
X52033Y-39017D01*
X52014Y-39055D01*
X51995Y-39074D01*
X51957Y-39093D01*
X51804Y-39093D01*
X52223Y-39283D02*
X52300Y-39283D01*
X52338Y-39264D01*
X52357Y-39245D01*
X52395Y-39188D01*
X52414Y-39112D01*
X52414Y-38960D01*
X52395Y-38922D01*
X52376Y-38902D01*
X52338Y-38883D01*
X52261Y-38883D01*
X52223Y-38902D01*
X52204Y-38922D01*
X52185Y-38960D01*
X52185Y-39055D01*
X52204Y-39093D01*
X52223Y-39112D01*
X52261Y-39131D01*
X52338Y-39131D01*
X52376Y-39112D01*
X52395Y-39093D01*
X52414Y-39055D01*
X51350Y-42099D02*
X51331Y-42118D01*
X51274Y-42137D01*
X51236Y-42137D01*
X51178Y-42118D01*
X51140Y-42080D01*
X51121Y-42042D01*
X51102Y-41966D01*
X51102Y-41909D01*
X51121Y-41833D01*
X51140Y-41795D01*
X51178Y-41756D01*
X51236Y-41737D01*
X51274Y-41737D01*
X51331Y-41756D01*
X51350Y-41776D01*
X51598Y-41737D02*
X51674Y-41737D01*
X51712Y-41756D01*
X51750Y-41795D01*
X51769Y-41871D01*
X51769Y-42004D01*
X51750Y-42080D01*
X51712Y-42118D01*
X51674Y-42137D01*
X51598Y-42137D01*
X51559Y-42118D01*
X51521Y-42080D01*
X51502Y-42004D01*
X51502Y-41871D01*
X51521Y-41795D01*
X51559Y-41756D01*
X51598Y-41737D01*
X51940Y-42137D02*
X51940Y-41737D01*
X52169Y-42137D01*
X52169Y-41737D01*
X52359Y-42137D02*
X52359Y-41737D01*
X52588Y-42137D01*
X52588Y-41737D01*
X52683Y-42176D02*
X52988Y-42176D01*
X53293Y-42137D02*
X53064Y-42137D01*
X53178Y-42137D02*
X53178Y-41737D01*
X53140Y-41795D01*
X53102Y-41833D01*
X53064Y-41852D01*
X61304Y-37983D02*
X61304Y-37583D01*
X61457Y-37583D01*
X61495Y-37602D01*
X61514Y-37622D01*
X61533Y-37660D01*
X61533Y-37717D01*
X61514Y-37755D01*
X61495Y-37774D01*
X61457Y-37793D01*
X61304Y-37793D01*
X61666Y-37583D02*
X61933Y-37583D01*
X61761Y-37983D01*
X60850Y-40799D02*
X60831Y-40818D01*
X60774Y-40837D01*
X60736Y-40837D01*
X60678Y-40818D01*
X60640Y-40780D01*
X60621Y-40742D01*
X60602Y-40666D01*
X60602Y-40609D01*
X60621Y-40533D01*
X60640Y-40495D01*
X60678Y-40456D01*
X60736Y-40437D01*
X60774Y-40437D01*
X60831Y-40456D01*
X60850Y-40476D01*
X61098Y-40437D02*
X61174Y-40437D01*
X61212Y-40456D01*
X61250Y-40495D01*
X61269Y-40571D01*
X61269Y-40704D01*
X61250Y-40780D01*
X61212Y-40818D01*
X61174Y-40837D01*
X61098Y-40837D01*
X61059Y-40818D01*
X61021Y-40780D01*
X61002Y-40704D01*
X61002Y-40571D01*
X61021Y-40495D01*
X61059Y-40456D01*
X61098Y-40437D01*
X61440Y-40837D02*
X61440Y-40437D01*
X61669Y-40837D01*
X61669Y-40437D01*
X61859Y-40837D02*
X61859Y-40437D01*
X62088Y-40837D01*
X62088Y-40437D01*
X62183Y-40876D02*
X62488Y-40876D01*
X62793Y-40837D02*
X62564Y-40837D01*
X62678Y-40837D02*
X62678Y-40437D01*
X62640Y-40495D01*
X62602Y-40533D01*
X62564Y-40552D01*
X61304Y-42583D02*
X61304Y-42183D01*
X61457Y-42183D01*
X61495Y-42202D01*
X61514Y-42222D01*
X61533Y-42260D01*
X61533Y-42317D01*
X61514Y-42355D01*
X61495Y-42374D01*
X61457Y-42393D01*
X61304Y-42393D01*
X61876Y-42183D02*
X61800Y-42183D01*
X61761Y-42202D01*
X61742Y-42222D01*
X61704Y-42279D01*
X61685Y-42355D01*
X61685Y-42507D01*
X61704Y-42545D01*
X61723Y-42564D01*
X61761Y-42583D01*
X61838Y-42583D01*
X61876Y-42564D01*
X61895Y-42545D01*
X61914Y-42507D01*
X61914Y-42412D01*
X61895Y-42374D01*
X61876Y-42355D01*
X61838Y-42336D01*
X61761Y-42336D01*
X61723Y-42355D01*
X61704Y-42374D01*
X61685Y-42412D01*
X60850Y-45399D02*
X60831Y-45418D01*
X60774Y-45437D01*
X60736Y-45437D01*
X60678Y-45418D01*
X60640Y-45380D01*
X60621Y-45342D01*
X60602Y-45266D01*
X60602Y-45209D01*
X60621Y-45133D01*
X60640Y-45095D01*
X60678Y-45056D01*
X60736Y-45037D01*
X60774Y-45037D01*
X60831Y-45056D01*
X60850Y-45076D01*
X61098Y-45037D02*
X61174Y-45037D01*
X61212Y-45056D01*
X61250Y-45095D01*
X61269Y-45171D01*
X61269Y-45304D01*
X61250Y-45380D01*
X61212Y-45418D01*
X61174Y-45437D01*
X61098Y-45437D01*
X61059Y-45418D01*
X61021Y-45380D01*
X61002Y-45304D01*
X61002Y-45171D01*
X61021Y-45095D01*
X61059Y-45056D01*
X61098Y-45037D01*
X61440Y-45437D02*
X61440Y-45037D01*
X61669Y-45437D01*
X61669Y-45037D01*
X61859Y-45437D02*
X61859Y-45037D01*
X62088Y-45437D01*
X62088Y-45037D01*
X62183Y-45476D02*
X62488Y-45476D01*
X62793Y-45437D02*
X62564Y-45437D01*
X62678Y-45437D02*
X62678Y-45037D01*
X62640Y-45095D01*
X62602Y-45133D01*
X62564Y-45152D01*
X61304Y-40283D02*
X61304Y-39883D01*
X61457Y-39883D01*
X61495Y-39902D01*
X61514Y-39922D01*
X61533Y-39960D01*
X61533Y-40017D01*
X61514Y-40055D01*
X61495Y-40074D01*
X61457Y-40093D01*
X61304Y-40093D01*
X61761Y-40055D02*
X61723Y-40036D01*
X61704Y-40017D01*
X61685Y-39979D01*
X61685Y-39960D01*
X61704Y-39922D01*
X61723Y-39902D01*
X61761Y-39883D01*
X61838Y-39883D01*
X61876Y-39902D01*
X61895Y-39922D01*
X61914Y-39960D01*
X61914Y-39979D01*
X61895Y-40017D01*
X61876Y-40036D01*
X61838Y-40055D01*
X61761Y-40055D01*
X61723Y-40074D01*
X61704Y-40093D01*
X61685Y-40131D01*
X61685Y-40207D01*
X61704Y-40245D01*
X61723Y-40264D01*
X61761Y-40283D01*
X61838Y-40283D01*
X61876Y-40264D01*
X61895Y-40245D01*
X61914Y-40207D01*
X61914Y-40131D01*
X61895Y-40093D01*
X61876Y-40074D01*
X61838Y-40055D01*
X60850Y-43099D02*
X60831Y-43118D01*
X60774Y-43137D01*
X60736Y-43137D01*
X60678Y-43118D01*
X60640Y-43080D01*
X60621Y-43042D01*
X60602Y-42966D01*
X60602Y-42909D01*
X60621Y-42833D01*
X60640Y-42795D01*
X60678Y-42756D01*
X60736Y-42737D01*
X60774Y-42737D01*
X60831Y-42756D01*
X60850Y-42776D01*
X61098Y-42737D02*
X61174Y-42737D01*
X61212Y-42756D01*
X61250Y-42795D01*
X61269Y-42871D01*
X61269Y-43004D01*
X61250Y-43080D01*
X61212Y-43118D01*
X61174Y-43137D01*
X61098Y-43137D01*
X61059Y-43118D01*
X61021Y-43080D01*
X61002Y-43004D01*
X61002Y-42871D01*
X61021Y-42795D01*
X61059Y-42756D01*
X61098Y-42737D01*
X61440Y-43137D02*
X61440Y-42737D01*
X61669Y-43137D01*
X61669Y-42737D01*
X61859Y-43137D02*
X61859Y-42737D01*
X62088Y-43137D01*
X62088Y-42737D01*
X62183Y-43176D02*
X62488Y-43176D01*
X62793Y-43137D02*
X62564Y-43137D01*
X62678Y-43137D02*
X62678Y-42737D01*
X62640Y-42795D01*
X62602Y-42833D01*
X62564Y-42852D01*
X71614Y-42783D02*
X71614Y-42383D01*
X71766Y-42383D01*
X71804Y-42402D01*
X71823Y-42422D01*
X71842Y-42460D01*
X71842Y-42517D01*
X71823Y-42555D01*
X71804Y-42574D01*
X71766Y-42593D01*
X71614Y-42593D01*
X72223Y-42783D02*
X71995Y-42783D01*
X72109Y-42783D02*
X72109Y-42383D01*
X72071Y-42441D01*
X72033Y-42479D01*
X71995Y-42498D01*
X72376Y-42422D02*
X72395Y-42402D01*
X72433Y-42383D01*
X72528Y-42383D01*
X72566Y-42402D01*
X72585Y-42422D01*
X72604Y-42460D01*
X72604Y-42498D01*
X72585Y-42555D01*
X72357Y-42783D01*
X72604Y-42783D01*
X71350Y-45599D02*
X71331Y-45618D01*
X71274Y-45637D01*
X71236Y-45637D01*
X71178Y-45618D01*
X71140Y-45580D01*
X71121Y-45542D01*
X71102Y-45466D01*
X71102Y-45409D01*
X71121Y-45333D01*
X71140Y-45295D01*
X71178Y-45256D01*
X71236Y-45237D01*
X71274Y-45237D01*
X71331Y-45256D01*
X71350Y-45276D01*
X71598Y-45237D02*
X71674Y-45237D01*
X71712Y-45256D01*
X71750Y-45295D01*
X71769Y-45371D01*
X71769Y-45504D01*
X71750Y-45580D01*
X71712Y-45618D01*
X71674Y-45637D01*
X71598Y-45637D01*
X71559Y-45618D01*
X71521Y-45580D01*
X71502Y-45504D01*
X71502Y-45371D01*
X71521Y-45295D01*
X71559Y-45256D01*
X71598Y-45237D01*
X71940Y-45637D02*
X71940Y-45237D01*
X72169Y-45637D01*
X72169Y-45237D01*
X72359Y-45637D02*
X72359Y-45237D01*
X72588Y-45637D01*
X72588Y-45237D01*
X72683Y-45676D02*
X72988Y-45676D01*
X73293Y-45637D02*
X73064Y-45637D01*
X73178Y-45637D02*
X73178Y-45237D01*
X73140Y-45295D01*
X73102Y-45333D01*
X73064Y-45352D01*
X71614Y-38083D02*
X71614Y-37683D01*
X71766Y-37683D01*
X71804Y-37702D01*
X71823Y-37722D01*
X71842Y-37760D01*
X71842Y-37817D01*
X71823Y-37855D01*
X71804Y-37874D01*
X71766Y-37893D01*
X71614Y-37893D01*
X72223Y-38083D02*
X71995Y-38083D01*
X72109Y-38083D02*
X72109Y-37683D01*
X72071Y-37741D01*
X72033Y-37779D01*
X71995Y-37798D01*
X72604Y-38083D02*
X72376Y-38083D01*
X72490Y-38083D02*
X72490Y-37683D01*
X72452Y-37741D01*
X72414Y-37779D01*
X72376Y-37798D01*
X71350Y-40899D02*
X71331Y-40918D01*
X71274Y-40937D01*
X71236Y-40937D01*
X71178Y-40918D01*
X71140Y-40880D01*
X71121Y-40842D01*
X71102Y-40766D01*
X71102Y-40709D01*
X71121Y-40633D01*
X71140Y-40595D01*
X71178Y-40556D01*
X71236Y-40537D01*
X71274Y-40537D01*
X71331Y-40556D01*
X71350Y-40576D01*
X71598Y-40537D02*
X71674Y-40537D01*
X71712Y-40556D01*
X71750Y-40595D01*
X71769Y-40671D01*
X71769Y-40804D01*
X71750Y-40880D01*
X71712Y-40918D01*
X71674Y-40937D01*
X71598Y-40937D01*
X71559Y-40918D01*
X71521Y-40880D01*
X71502Y-40804D01*
X71502Y-40671D01*
X71521Y-40595D01*
X71559Y-40556D01*
X71598Y-40537D01*
X71940Y-40937D02*
X71940Y-40537D01*
X72169Y-40937D01*
X72169Y-40537D01*
X72359Y-40937D02*
X72359Y-40537D01*
X72588Y-40937D01*
X72588Y-40537D01*
X72683Y-40976D02*
X72988Y-40976D01*
X73293Y-40937D02*
X73064Y-40937D01*
X73178Y-40937D02*
X73178Y-40537D01*
X73140Y-40595D01*
X73102Y-40633D01*
X73064Y-40652D01*
X31704Y-43283D02*
X31704Y-42883D01*
X31857Y-42883D01*
X31895Y-42902D01*
X31914Y-42922D01*
X31933Y-42960D01*
X31933Y-43017D01*
X31914Y-43055D01*
X31895Y-43074D01*
X31857Y-43093D01*
X31704Y-43093D01*
X32295Y-42883D02*
X32104Y-42883D01*
X32085Y-43074D01*
X32104Y-43055D01*
X32142Y-43036D01*
X32238Y-43036D01*
X32276Y-43055D01*
X32295Y-43074D01*
X32314Y-43112D01*
X32314Y-43207D01*
X32295Y-43245D01*
X32276Y-43264D01*
X32238Y-43283D01*
X32142Y-43283D01*
X32104Y-43264D01*
X32085Y-43245D01*
X31250Y-46099D02*
X31231Y-46118D01*
X31174Y-46137D01*
X31136Y-46137D01*
X31078Y-46118D01*
X31040Y-46080D01*
X31021Y-46042D01*
X31002Y-45966D01*
X31002Y-45909D01*
X31021Y-45833D01*
X31040Y-45795D01*
X31078Y-45756D01*
X31136Y-45737D01*
X31174Y-45737D01*
X31231Y-45756D01*
X31250Y-45776D01*
X31498Y-45737D02*
X31574Y-45737D01*
X31612Y-45756D01*
X31650Y-45795D01*
X31669Y-45871D01*
X31669Y-46004D01*
X31650Y-46080D01*
X31612Y-46118D01*
X31574Y-46137D01*
X31498Y-46137D01*
X31459Y-46118D01*
X31421Y-46080D01*
X31402Y-46004D01*
X31402Y-45871D01*
X31421Y-45795D01*
X31459Y-45756D01*
X31498Y-45737D01*
X31840Y-46137D02*
X31840Y-45737D01*
X32069Y-46137D01*
X32069Y-45737D01*
X32259Y-46137D02*
X32259Y-45737D01*
X32488Y-46137D01*
X32488Y-45737D01*
X32583Y-46176D02*
X32888Y-46176D01*
X33193Y-46137D02*
X32964Y-46137D01*
X33078Y-46137D02*
X33078Y-45737D01*
X33040Y-45795D01*
X33002Y-45833D01*
X32964Y-45852D01*
G54D13*
X34716Y-36122D02*
X34550Y-35860D01*
X34430Y-36122D02*
X34430Y-35572D01*
X34621Y-35572D01*
X34669Y-35598D01*
X34692Y-35625D01*
X34716Y-35677D01*
X34716Y-35755D01*
X34692Y-35808D01*
X34669Y-35834D01*
X34621Y-35860D01*
X34430Y-35860D01*
X34883Y-35572D02*
X35192Y-35572D01*
X35026Y-35782D01*
X35097Y-35782D01*
X35145Y-35808D01*
X35169Y-35834D01*
X35192Y-35886D01*
X35192Y-36017D01*
X35169Y-36070D01*
X35145Y-36096D01*
X35097Y-36122D01*
X34954Y-36122D01*
X34907Y-36096D01*
X34883Y-36070D01*
G54D10*
X33113Y-45467D02*
X33087Y-45467D01*
X33034Y-45440D01*
X33007Y-45414D01*
X32981Y-45361D01*
X32981Y-45308D01*
X32994Y-45268D01*
X33034Y-45202D01*
X33074Y-45162D01*
X33140Y-45122D01*
X33180Y-45109D01*
X33233Y-45109D01*
X33286Y-45135D01*
X33312Y-45162D01*
X33339Y-45215D01*
X33339Y-45242D01*
X33445Y-45348D02*
X33471Y-45348D01*
X33511Y-45361D01*
X33577Y-45427D01*
X33591Y-45467D01*
X33591Y-45493D01*
X33577Y-45533D01*
X33551Y-45560D01*
X33498Y-45586D01*
X33180Y-45586D01*
X33352Y-45759D01*
X33882Y-45732D02*
X33750Y-45599D01*
X33604Y-45719D01*
X33630Y-45719D01*
X33670Y-45732D01*
X33736Y-45798D01*
X33750Y-45838D01*
X33750Y-45865D01*
X33736Y-45904D01*
X33670Y-45971D01*
X33630Y-45984D01*
X33604Y-45984D01*
X33564Y-45971D01*
X33498Y-45904D01*
X33485Y-45865D01*
X33485Y-45838D01*
X34529Y-43734D02*
X34555Y-43760D01*
X34568Y-43800D01*
X34568Y-43826D01*
X34555Y-43866D01*
X34515Y-43932D01*
X34449Y-43999D01*
X34383Y-44038D01*
X34343Y-44052D01*
X34316Y-44052D01*
X34277Y-44038D01*
X34250Y-44012D01*
X34237Y-43972D01*
X34237Y-43946D01*
X34250Y-43906D01*
X34290Y-43840D01*
X34356Y-43773D01*
X34422Y-43734D01*
X34462Y-43720D01*
X34489Y-43720D01*
X34529Y-43734D01*
X34489Y-44198D02*
X34489Y-44224D01*
X34462Y-44224D01*
X34462Y-44198D01*
X34489Y-44198D01*
X34462Y-44224D01*
X34741Y-44502D02*
X34582Y-44343D01*
X34661Y-44423D02*
X34939Y-44145D01*
X34873Y-44158D01*
X34820Y-44158D01*
X34780Y-44145D01*
X35165Y-44555D02*
X34979Y-44741D01*
X35046Y-44436D02*
X34900Y-44582D01*
X34886Y-44622D01*
X34900Y-44662D01*
X34939Y-44701D01*
X34979Y-44715D01*
X35006Y-44715D01*
G54D13*
X33695Y-38492D02*
X33695Y-38978D01*
X33714Y-39035D01*
X33733Y-39064D01*
X33771Y-39092D01*
X33847Y-39092D01*
X33885Y-39064D01*
X33904Y-39035D01*
X33923Y-38978D01*
X33923Y-38492D01*
X34285Y-38692D02*
X34285Y-39092D01*
X34190Y-38464D02*
X34095Y-38892D01*
X34342Y-38892D01*
X31261Y-38542D02*
X31071Y-38542D01*
X31071Y-37942D01*
X31357Y-37942D02*
X31623Y-37942D01*
X31452Y-38542D01*
X31833Y-38200D02*
X31795Y-38171D01*
X31776Y-38142D01*
X31757Y-38085D01*
X31757Y-38057D01*
X31776Y-38000D01*
X31795Y-37971D01*
X31833Y-37942D01*
X31909Y-37942D01*
X31947Y-37971D01*
X31966Y-38000D01*
X31985Y-38057D01*
X31985Y-38085D01*
X31966Y-38142D01*
X31947Y-38171D01*
X31909Y-38200D01*
X31833Y-38200D01*
X31795Y-38228D01*
X31776Y-38257D01*
X31757Y-38314D01*
X31757Y-38428D01*
X31776Y-38485D01*
X31795Y-38514D01*
X31833Y-38542D01*
X31909Y-38542D01*
X31947Y-38514D01*
X31966Y-38485D01*
X31985Y-38428D01*
X31985Y-38314D01*
X31966Y-38257D01*
X31947Y-38228D01*
X31909Y-38200D01*
X32366Y-38542D02*
X32138Y-38542D01*
X32252Y-38542D02*
X32252Y-37942D01*
X32214Y-38028D01*
X32176Y-38085D01*
X32138Y-38114D01*
X32519Y-38000D02*
X32538Y-37971D01*
X32576Y-37942D01*
X32671Y-37942D01*
X32709Y-37971D01*
X32728Y-38000D01*
X32747Y-38057D01*
X32747Y-38114D01*
X32728Y-38200D01*
X32500Y-38542D01*
X32747Y-38542D01*
G54D16*
X34473Y-44370D02*
X34485Y-44302D01*
X34426Y-44322D02*
X34509Y-44239D01*
X34541Y-44271D01*
X34545Y-44282D01*
X34545Y-44290D01*
X34541Y-44302D01*
X34529Y-44314D01*
X34517Y-44318D01*
X34509Y-44318D01*
X34497Y-44314D01*
X34465Y-44282D01*
X34569Y-44370D02*
X34565Y-44358D01*
X34565Y-44350D01*
X34569Y-44338D01*
X34573Y-44334D01*
X34585Y-44330D01*
X34593Y-44330D01*
X34605Y-44334D01*
X34621Y-44350D01*
X34625Y-44362D01*
X34625Y-44370D01*
X34621Y-44382D01*
X34617Y-44386D01*
X34605Y-44390D01*
X34597Y-44390D01*
X34585Y-44386D01*
X34569Y-44370D01*
X34557Y-44366D01*
X34549Y-44366D01*
X34537Y-44370D01*
X34521Y-44386D01*
X34517Y-44398D01*
X34517Y-44406D01*
X34521Y-44418D01*
X34537Y-44434D01*
X34549Y-44438D01*
X34557Y-44438D01*
X34569Y-44434D01*
X34585Y-44418D01*
X34589Y-44406D01*
X34589Y-44398D01*
X34585Y-44386D01*
X35056Y-43923D02*
X35068Y-43855D01*
X35008Y-43875D02*
X35092Y-43791D01*
X35124Y-43823D01*
X35128Y-43835D01*
X35128Y-43843D01*
X35124Y-43855D01*
X35112Y-43867D01*
X35100Y-43871D01*
X35092Y-43871D01*
X35080Y-43867D01*
X35048Y-43835D01*
M02*
