G04 (created by PCBNEW (2013-may-18)-stable) date 2014年01月31日 星期五 13时49分56秒*
%MOIN*%
G04 Gerber Fmt 3.4, Leading zero omitted, Abs format*
%FSLAX34Y34*%
G01*
G70*
G90*
G04 APERTURE LIST*
%ADD10C,0.00590551*%
%ADD11R,0.137795X0.401575*%
%ADD12R,0.401575X0.137795*%
%ADD13R,0.075X0.025*%
%ADD14R,0.055X0.055*%
%ADD15C,0.055*%
%ADD16R,0.0275591X0.0314961*%
%ADD17R,0.015X0.05*%
%ADD18R,0.0787402X0.0629921*%
%ADD19C,0.07*%
%ADD20R,0.07X0.07*%
%ADD21R,0.0984252X0.0866142*%
%ADD22R,0.0787402X0.0433071*%
%ADD23R,0.0433071X0.0787402*%
%ADD24R,0.09X0.02*%
%ADD25R,0.02X0.09*%
%ADD26R,0.081X0.038*%
G04 APERTURE END LIST*
G54D10*
G36*
X86524Y-53506D02*
X86524Y-51931D01*
X87075Y-51931D01*
X87075Y-53506D01*
X86524Y-53506D01*
X86524Y-53506D01*
G37*
G36*
X86524Y-55868D02*
X86524Y-54293D01*
X87075Y-54293D01*
X87075Y-55868D01*
X86524Y-55868D01*
X86524Y-55868D01*
G37*
G36*
X103124Y-62206D02*
X103124Y-60631D01*
X103675Y-60631D01*
X103675Y-62206D01*
X103124Y-62206D01*
X103124Y-62206D01*
G37*
G36*
X103124Y-64568D02*
X103124Y-62993D01*
X103675Y-62993D01*
X103675Y-64568D01*
X103124Y-64568D01*
X103124Y-64568D01*
G37*
G36*
X74102Y-61297D02*
X74102Y-59722D01*
X74653Y-59722D01*
X74653Y-61297D01*
X74102Y-61297D01*
X74102Y-61297D01*
G37*
G36*
X74102Y-63659D02*
X74102Y-62085D01*
X74653Y-62085D01*
X74653Y-63659D01*
X74102Y-63659D01*
X74102Y-63659D01*
G37*
G36*
X94724Y-53506D02*
X94724Y-51931D01*
X95275Y-51931D01*
X95275Y-53506D01*
X94724Y-53506D01*
X94724Y-53506D01*
G37*
G36*
X94724Y-55868D02*
X94724Y-54293D01*
X95275Y-54293D01*
X95275Y-55868D01*
X94724Y-55868D01*
X94724Y-55868D01*
G37*
G36*
X86524Y-62206D02*
X86524Y-60631D01*
X87075Y-60631D01*
X87075Y-62206D01*
X86524Y-62206D01*
X86524Y-62206D01*
G37*
G36*
X86524Y-64568D02*
X86524Y-62993D01*
X87075Y-62993D01*
X87075Y-64568D01*
X86524Y-64568D01*
X86524Y-64568D01*
G37*
G36*
X103124Y-53506D02*
X103124Y-51931D01*
X103675Y-51931D01*
X103675Y-53506D01*
X103124Y-53506D01*
X103124Y-53506D01*
G37*
G36*
X103124Y-55868D02*
X103124Y-54293D01*
X103675Y-54293D01*
X103675Y-55868D01*
X103124Y-55868D01*
X103124Y-55868D01*
G37*
G36*
X94724Y-62206D02*
X94724Y-60631D01*
X95275Y-60631D01*
X95275Y-62206D01*
X94724Y-62206D01*
X94724Y-62206D01*
G37*
G36*
X94724Y-64568D02*
X94724Y-62993D01*
X95275Y-62993D01*
X95275Y-64568D01*
X94724Y-64568D01*
X94724Y-64568D01*
G37*
G54D11*
X89600Y-54300D03*
X92199Y-54300D03*
G54D12*
X74181Y-52911D03*
X74181Y-55510D03*
G54D11*
X97900Y-62300D03*
X100499Y-62300D03*
X81346Y-58049D03*
X83944Y-58049D03*
X97900Y-54300D03*
X100499Y-54300D03*
X89600Y-62300D03*
X92199Y-62300D03*
G54D13*
X60074Y-56299D03*
X60074Y-56799D03*
X60074Y-57299D03*
X60074Y-57799D03*
X60074Y-58299D03*
X60074Y-58799D03*
X60074Y-59299D03*
X60074Y-59799D03*
X64074Y-59799D03*
X64074Y-59299D03*
X64074Y-58799D03*
X64074Y-58299D03*
X64074Y-57799D03*
X64074Y-57299D03*
X64074Y-56799D03*
X64074Y-56299D03*
G54D14*
X85696Y-57049D03*
G54D15*
X85696Y-58049D03*
X85696Y-59049D03*
G54D14*
X104900Y-56500D03*
G54D15*
X104900Y-57500D03*
G54D14*
X66003Y-52636D03*
G54D15*
X67003Y-52636D03*
G54D14*
X96400Y-56500D03*
G54D15*
X96400Y-57500D03*
G54D14*
X112900Y-60000D03*
G54D15*
X112900Y-59000D03*
G54D14*
X112900Y-56500D03*
G54D15*
X112900Y-57500D03*
G54D14*
X77035Y-61289D03*
G54D15*
X77035Y-62289D03*
G54D14*
X71129Y-55695D03*
G54D15*
X71129Y-54695D03*
G54D14*
X71129Y-60403D03*
G54D15*
X71129Y-61403D03*
G54D14*
X66110Y-57270D03*
G54D15*
X66110Y-56270D03*
G54D14*
X66110Y-58829D03*
G54D15*
X66110Y-59829D03*
G54D14*
X104900Y-60000D03*
G54D15*
X104900Y-59000D03*
G54D14*
X96400Y-60000D03*
G54D15*
X96400Y-59000D03*
G54D16*
X67133Y-57262D03*
X67645Y-57262D03*
X67133Y-58837D03*
X67645Y-58837D03*
G54D17*
X106484Y-60450D03*
X106228Y-60450D03*
X105972Y-60450D03*
X105716Y-60450D03*
X105716Y-62150D03*
X105972Y-62150D03*
X106228Y-62150D03*
X106484Y-62150D03*
G54D18*
X106100Y-61300D03*
G54D17*
X105716Y-55950D03*
X105972Y-55950D03*
X106228Y-55950D03*
X106484Y-55950D03*
X106484Y-54250D03*
X106228Y-54250D03*
X105972Y-54250D03*
X105716Y-54250D03*
G54D18*
X106100Y-55100D03*
G54D19*
X69161Y-59313D03*
X69161Y-60313D03*
G54D20*
X69161Y-61313D03*
G54D19*
X69358Y-56687D03*
X69358Y-55687D03*
G54D20*
X69358Y-54687D03*
G54D21*
X83964Y-61592D03*
X82114Y-61592D03*
X82114Y-54900D03*
X83964Y-54900D03*
X83964Y-63561D03*
X82114Y-63561D03*
X82114Y-52931D03*
X83964Y-52931D03*
G54D22*
X110300Y-57170D03*
X110300Y-56029D03*
X111400Y-61270D03*
X111400Y-60129D03*
X110350Y-61270D03*
X110350Y-60129D03*
G54D23*
X106970Y-59500D03*
X105829Y-59500D03*
G54D22*
X106000Y-63029D03*
X106000Y-64170D03*
X111400Y-57170D03*
X111400Y-56029D03*
G54D23*
X105829Y-57100D03*
X106970Y-57100D03*
G54D22*
X106000Y-53470D03*
X106000Y-52329D03*
G54D23*
X65893Y-54998D03*
X64751Y-54998D03*
G54D22*
X60893Y-60628D03*
X60893Y-61770D03*
X59712Y-60628D03*
X59712Y-61770D03*
G54D24*
X107400Y-60300D03*
X109250Y-61300D03*
X109250Y-59300D03*
X107400Y-56300D03*
X109250Y-57300D03*
X109250Y-55300D03*
G54D25*
X62370Y-55504D03*
X63370Y-53654D03*
X61370Y-53654D03*
G54D26*
X76121Y-57049D03*
X76141Y-58049D03*
X76121Y-59049D03*
X79721Y-57049D03*
X79721Y-58049D03*
X79721Y-59049D03*
M02*
