G04 (created by PCBNEW (2013-may-18)-stable) date 2014年03月19日 星期三 16时31分33秒*
%MOIN*%
G04 Gerber Fmt 3.4, Leading zero omitted, Abs format*
%FSLAX34Y34*%
G01*
G70*
G90*
G04 APERTURE LIST*
%ADD10C,0.00590551*%
%ADD11C,0.0593*%
%ADD12C,0.0693*%
%ADD13C,0.035*%
%ADD14C,0.01*%
G04 APERTURE END LIST*
G54D10*
G54D11*
X96375Y-73125D03*
X96375Y-72125D03*
X97375Y-73125D03*
X97375Y-72125D03*
X98375Y-73125D03*
X98375Y-72125D03*
X99375Y-73125D03*
X99375Y-72125D03*
X100375Y-73125D03*
X100375Y-72125D03*
G54D12*
X74375Y-73125D03*
X74375Y-72125D03*
X77375Y-73125D03*
X77375Y-72125D03*
X78375Y-73125D03*
X78375Y-72125D03*
X86375Y-72125D03*
X86375Y-73125D03*
X85375Y-72125D03*
X85375Y-73125D03*
X84375Y-72125D03*
X84375Y-73125D03*
X83375Y-72125D03*
X83375Y-73125D03*
X82375Y-72125D03*
X82375Y-73125D03*
X81375Y-72125D03*
X81375Y-73125D03*
X80375Y-72125D03*
X80375Y-73125D03*
X79375Y-72125D03*
X79375Y-73125D03*
X76375Y-72125D03*
X76375Y-73125D03*
X75375Y-72125D03*
X75375Y-73125D03*
G54D13*
X88834Y-64940D03*
X93313Y-64050D03*
X98001Y-64954D03*
X102298Y-64951D03*
X98953Y-64951D03*
X80709Y-64950D03*
X72011Y-64950D03*
X76453Y-64793D03*
X88755Y-59625D03*
X68788Y-64443D03*
X84925Y-53369D03*
X78272Y-53455D03*
X84875Y-64125D03*
X93875Y-64125D03*
X102875Y-64175D03*
X96125Y-64400D03*
X96125Y-67225D03*
X94425Y-67050D03*
X96775Y-64300D03*
X77516Y-64462D03*
X81941Y-64531D03*
X79237Y-64549D03*
X73288Y-64562D03*
X70540Y-62416D03*
X83333Y-64386D03*
X74511Y-64550D03*
X82075Y-69325D03*
X91025Y-69275D03*
X100075Y-69275D03*
G54D14*
X88834Y-64050D02*
X93313Y-64050D01*
X88834Y-64940D02*
X88834Y-64050D01*
X96846Y-63798D02*
X98001Y-64954D01*
X93565Y-63798D02*
X96846Y-63798D01*
X93313Y-64050D02*
X93565Y-63798D01*
X101952Y-65297D02*
X102298Y-64951D01*
X98344Y-65297D02*
X101952Y-65297D01*
X98001Y-64954D02*
X98344Y-65297D01*
X76453Y-64950D02*
X76453Y-64793D01*
X72011Y-64950D02*
X76453Y-64950D01*
X100066Y-63838D02*
X98953Y-64951D01*
X103027Y-63838D02*
X100066Y-63838D01*
X103201Y-64012D02*
X103027Y-63838D01*
X103201Y-67715D02*
X103201Y-64012D01*
X99875Y-71042D02*
X103201Y-67715D01*
X99875Y-72625D02*
X99875Y-71042D01*
X99375Y-73125D02*
X99875Y-72625D01*
X93626Y-59625D02*
X88755Y-59625D01*
X98953Y-64951D02*
X93626Y-59625D01*
X76453Y-64950D02*
X80709Y-64950D01*
X71504Y-64443D02*
X72011Y-64950D01*
X68788Y-64443D02*
X71504Y-64443D01*
X83954Y-64248D02*
X88577Y-59625D01*
X83954Y-64408D02*
X83954Y-64248D01*
X83412Y-64950D02*
X83954Y-64408D01*
X80709Y-64950D02*
X83412Y-64950D01*
X88577Y-59625D02*
X88755Y-59625D01*
X84925Y-53369D02*
X84925Y-53455D01*
X84925Y-55972D02*
X88577Y-59625D01*
X84925Y-53455D02*
X84925Y-55972D01*
X84925Y-53455D02*
X78272Y-53455D01*
X82100Y-70175D02*
X82450Y-69825D01*
X81325Y-70175D02*
X82100Y-70175D01*
X79375Y-72125D02*
X81325Y-70175D01*
X84875Y-67400D02*
X84875Y-67125D01*
X82450Y-69825D02*
X84875Y-67400D01*
X84875Y-67125D02*
X84875Y-64125D01*
X82375Y-72125D02*
X82375Y-71025D01*
X83775Y-69625D02*
X91175Y-69625D01*
X82375Y-71025D02*
X83775Y-69625D01*
X93875Y-66925D02*
X93875Y-64125D01*
X91175Y-69625D02*
X93875Y-66925D01*
X102875Y-66975D02*
X102875Y-64175D01*
X99725Y-70125D02*
X102875Y-66975D01*
X86175Y-70125D02*
X99725Y-70125D01*
X85375Y-70925D02*
X86175Y-70125D01*
X85375Y-72125D02*
X85375Y-70925D01*
X86375Y-73125D02*
X86375Y-72125D01*
X96125Y-64400D02*
X96125Y-67225D01*
X94425Y-67050D02*
X95075Y-66400D01*
X95075Y-66400D02*
X95075Y-64475D01*
X95075Y-64475D02*
X95525Y-64025D01*
X95525Y-64025D02*
X96500Y-64025D01*
X96500Y-64025D02*
X96775Y-64300D01*
X79237Y-64531D02*
X79237Y-64549D01*
X77585Y-64531D02*
X77516Y-64462D01*
X79237Y-64531D02*
X77585Y-64531D01*
X81941Y-64531D02*
X79237Y-64531D01*
X82086Y-64386D02*
X83333Y-64386D01*
X81941Y-64531D02*
X82086Y-64386D01*
X71242Y-62416D02*
X73288Y-64462D01*
X70540Y-62416D02*
X71242Y-62416D01*
X73288Y-64462D02*
X73288Y-64562D01*
X73288Y-64462D02*
X74511Y-64462D01*
X77516Y-64462D02*
X74511Y-64462D01*
X74511Y-64462D02*
X74511Y-64550D01*
X81275Y-69325D02*
X82075Y-69325D01*
X78475Y-72125D02*
X81275Y-69325D01*
X78375Y-72125D02*
X78475Y-72125D01*
X81375Y-72125D02*
X81375Y-71725D01*
X81375Y-71725D02*
X83825Y-69275D01*
X83825Y-69275D02*
X85850Y-69275D01*
X85850Y-69275D02*
X91025Y-69275D01*
X99475Y-69875D02*
X100075Y-69275D01*
X85375Y-69875D02*
X99475Y-69875D01*
X84375Y-70875D02*
X85375Y-69875D01*
X84375Y-72125D02*
X84375Y-70875D01*
G54D10*
G36*
X102675Y-66892D02*
X100387Y-69179D01*
X100350Y-69091D01*
X100259Y-68999D01*
X100139Y-68950D01*
X100010Y-68949D01*
X99891Y-68999D01*
X99799Y-69090D01*
X99750Y-69210D01*
X99749Y-69317D01*
X99392Y-69675D01*
X91407Y-69675D01*
X94016Y-67066D01*
X94016Y-67066D01*
X94045Y-67023D01*
X94059Y-67001D01*
X94059Y-67001D01*
X94074Y-66925D01*
X94075Y-66925D01*
X94075Y-64384D01*
X94150Y-64309D01*
X94199Y-64189D01*
X94200Y-64060D01*
X94174Y-63998D01*
X96763Y-63998D01*
X97676Y-64912D01*
X97676Y-65018D01*
X97726Y-65138D01*
X97817Y-65229D01*
X97936Y-65279D01*
X98043Y-65279D01*
X98203Y-65438D01*
X98268Y-65482D01*
X98268Y-65482D01*
X98280Y-65484D01*
X98344Y-65497D01*
X101952Y-65497D01*
X102029Y-65482D01*
X102094Y-65438D01*
X102256Y-65276D01*
X102363Y-65276D01*
X102482Y-65227D01*
X102574Y-65136D01*
X102623Y-65016D01*
X102623Y-64887D01*
X102574Y-64767D01*
X102482Y-64676D01*
X102363Y-64626D01*
X102234Y-64626D01*
X102114Y-64676D01*
X102023Y-64767D01*
X101973Y-64886D01*
X101973Y-64993D01*
X101870Y-65097D01*
X99244Y-65097D01*
X99278Y-65016D01*
X99278Y-64909D01*
X100149Y-64038D01*
X102579Y-64038D01*
X102550Y-64110D01*
X102549Y-64239D01*
X102599Y-64358D01*
X102675Y-64434D01*
X102675Y-66892D01*
X102675Y-66892D01*
G37*
G54D14*
X102675Y-66892D02*
X100387Y-69179D01*
X100350Y-69091D01*
X100259Y-68999D01*
X100139Y-68950D01*
X100010Y-68949D01*
X99891Y-68999D01*
X99799Y-69090D01*
X99750Y-69210D01*
X99749Y-69317D01*
X99392Y-69675D01*
X91407Y-69675D01*
X94016Y-67066D01*
X94016Y-67066D01*
X94045Y-67023D01*
X94059Y-67001D01*
X94059Y-67001D01*
X94074Y-66925D01*
X94075Y-66925D01*
X94075Y-64384D01*
X94150Y-64309D01*
X94199Y-64189D01*
X94200Y-64060D01*
X94174Y-63998D01*
X96763Y-63998D01*
X97676Y-64912D01*
X97676Y-65018D01*
X97726Y-65138D01*
X97817Y-65229D01*
X97936Y-65279D01*
X98043Y-65279D01*
X98203Y-65438D01*
X98268Y-65482D01*
X98268Y-65482D01*
X98280Y-65484D01*
X98344Y-65497D01*
X101952Y-65497D01*
X102029Y-65482D01*
X102094Y-65438D01*
X102256Y-65276D01*
X102363Y-65276D01*
X102482Y-65227D01*
X102574Y-65136D01*
X102623Y-65016D01*
X102623Y-64887D01*
X102574Y-64767D01*
X102482Y-64676D01*
X102363Y-64626D01*
X102234Y-64626D01*
X102114Y-64676D01*
X102023Y-64767D01*
X101973Y-64886D01*
X101973Y-64993D01*
X101870Y-65097D01*
X99244Y-65097D01*
X99278Y-65016D01*
X99278Y-64909D01*
X100149Y-64038D01*
X102579Y-64038D01*
X102550Y-64110D01*
X102549Y-64239D01*
X102599Y-64358D01*
X102675Y-64434D01*
X102675Y-66892D01*
G54D10*
G36*
X104825Y-74575D02*
X103401Y-74575D01*
X103401Y-67715D01*
X103401Y-64012D01*
X103386Y-63936D01*
X103386Y-63936D01*
X103371Y-63914D01*
X103342Y-63871D01*
X103342Y-63871D01*
X103168Y-63697D01*
X103103Y-63653D01*
X103027Y-63638D01*
X100066Y-63638D01*
X99990Y-63653D01*
X99968Y-63668D01*
X99925Y-63697D01*
X98995Y-64626D01*
X98910Y-64626D01*
X93767Y-59483D01*
X93702Y-59440D01*
X93626Y-59425D01*
X89014Y-59425D01*
X88939Y-59349D01*
X88820Y-59300D01*
X88690Y-59299D01*
X88580Y-59345D01*
X85125Y-55889D01*
X85125Y-53628D01*
X85200Y-53553D01*
X85250Y-53434D01*
X85250Y-53304D01*
X85200Y-53185D01*
X85109Y-53093D01*
X84990Y-53044D01*
X84860Y-53044D01*
X84741Y-53093D01*
X84649Y-53184D01*
X84620Y-53255D01*
X78532Y-53255D01*
X78457Y-53180D01*
X78337Y-53130D01*
X78208Y-53130D01*
X78088Y-53179D01*
X77997Y-53271D01*
X77947Y-53390D01*
X77947Y-53519D01*
X77997Y-53639D01*
X78088Y-53730D01*
X78207Y-53780D01*
X78337Y-53780D01*
X78456Y-53731D01*
X78532Y-53655D01*
X84725Y-53655D01*
X84725Y-55972D01*
X84740Y-56049D01*
X84783Y-56113D01*
X88294Y-59624D01*
X83812Y-64107D01*
X83769Y-64172D01*
X83754Y-64248D01*
X83754Y-64325D01*
X83329Y-64750D01*
X80969Y-64750D01*
X80894Y-64674D01*
X80774Y-64625D01*
X80645Y-64624D01*
X80525Y-64674D01*
X80450Y-64750D01*
X76778Y-64750D01*
X76778Y-64729D01*
X76728Y-64609D01*
X76637Y-64518D01*
X76518Y-64468D01*
X76388Y-64468D01*
X76269Y-64518D01*
X76177Y-64609D01*
X76128Y-64728D01*
X76128Y-64750D01*
X72270Y-64750D01*
X72195Y-64674D01*
X72075Y-64625D01*
X71968Y-64624D01*
X71645Y-64301D01*
X71580Y-64258D01*
X71504Y-64243D01*
X69048Y-64243D01*
X68973Y-64167D01*
X68853Y-64118D01*
X68724Y-64117D01*
X68605Y-64167D01*
X68513Y-64258D01*
X68463Y-64378D01*
X68463Y-64507D01*
X68513Y-64626D01*
X68604Y-64718D01*
X68724Y-64767D01*
X68853Y-64768D01*
X68972Y-64718D01*
X69048Y-64643D01*
X71421Y-64643D01*
X71686Y-64907D01*
X71686Y-65014D01*
X71735Y-65133D01*
X71826Y-65225D01*
X71946Y-65274D01*
X72075Y-65275D01*
X72194Y-65225D01*
X72270Y-65150D01*
X76453Y-65150D01*
X80450Y-65150D01*
X80525Y-65225D01*
X80644Y-65274D01*
X80774Y-65275D01*
X80893Y-65225D01*
X80969Y-65150D01*
X83412Y-65150D01*
X83488Y-65134D01*
X83553Y-65091D01*
X84095Y-64549D01*
X84095Y-64549D01*
X84138Y-64484D01*
X84138Y-64484D01*
X84141Y-64471D01*
X84154Y-64408D01*
X84154Y-64408D01*
X84154Y-64331D01*
X88581Y-59904D01*
X88690Y-59949D01*
X88819Y-59950D01*
X88939Y-59900D01*
X89014Y-59825D01*
X93543Y-59825D01*
X98628Y-64909D01*
X98628Y-65016D01*
X98661Y-65097D01*
X98427Y-65097D01*
X98326Y-64996D01*
X98326Y-64890D01*
X98277Y-64770D01*
X98186Y-64679D01*
X98066Y-64629D01*
X97959Y-64629D01*
X96987Y-63657D01*
X96922Y-63614D01*
X96846Y-63598D01*
X93565Y-63598D01*
X93488Y-63614D01*
X93466Y-63628D01*
X93423Y-63657D01*
X93356Y-63725D01*
X93249Y-63724D01*
X93130Y-63774D01*
X93054Y-63850D01*
X88834Y-63850D01*
X88757Y-63865D01*
X88692Y-63908D01*
X88649Y-63973D01*
X88634Y-64050D01*
X88634Y-64680D01*
X88559Y-64756D01*
X88509Y-64875D01*
X88509Y-65004D01*
X88558Y-65124D01*
X88650Y-65215D01*
X88769Y-65265D01*
X88898Y-65265D01*
X89018Y-65216D01*
X89109Y-65124D01*
X89159Y-65005D01*
X89159Y-64876D01*
X89110Y-64756D01*
X89034Y-64680D01*
X89034Y-64250D01*
X93054Y-64250D01*
X93129Y-64325D01*
X93249Y-64374D01*
X93378Y-64375D01*
X93497Y-64325D01*
X93574Y-64249D01*
X93599Y-64308D01*
X93675Y-64384D01*
X93675Y-66842D01*
X91337Y-69179D01*
X91300Y-69091D01*
X91209Y-68999D01*
X91089Y-68950D01*
X90960Y-68949D01*
X90841Y-68999D01*
X90765Y-69075D01*
X85850Y-69075D01*
X85200Y-69075D01*
X85200Y-64060D01*
X85150Y-63941D01*
X85059Y-63849D01*
X84939Y-63800D01*
X84810Y-63799D01*
X84691Y-63849D01*
X84599Y-63940D01*
X84550Y-64060D01*
X84549Y-64189D01*
X84599Y-64308D01*
X84675Y-64384D01*
X84675Y-67125D01*
X84675Y-67317D01*
X82308Y-69683D01*
X82308Y-69683D01*
X82017Y-69975D01*
X81325Y-69975D01*
X81248Y-69990D01*
X81226Y-70004D01*
X81183Y-70033D01*
X79555Y-71662D01*
X79474Y-71628D01*
X79276Y-71628D01*
X79238Y-71644D01*
X81357Y-69525D01*
X81815Y-69525D01*
X81890Y-69600D01*
X82010Y-69649D01*
X82139Y-69650D01*
X82258Y-69600D01*
X82350Y-69509D01*
X82399Y-69389D01*
X82400Y-69260D01*
X82350Y-69141D01*
X82259Y-69049D01*
X82139Y-69000D01*
X82010Y-68999D01*
X81891Y-69049D01*
X81815Y-69125D01*
X81275Y-69125D01*
X81198Y-69140D01*
X81176Y-69154D01*
X81133Y-69183D01*
X78625Y-71691D01*
X78474Y-71628D01*
X78276Y-71628D01*
X78094Y-71703D01*
X77954Y-71843D01*
X77878Y-72025D01*
X77878Y-72223D01*
X77953Y-72405D01*
X78093Y-72545D01*
X78275Y-72621D01*
X78473Y-72621D01*
X78655Y-72546D01*
X78795Y-72406D01*
X78871Y-72224D01*
X78871Y-72026D01*
X78867Y-72015D01*
X78893Y-71988D01*
X78878Y-72025D01*
X78878Y-72223D01*
X78953Y-72405D01*
X79093Y-72545D01*
X79275Y-72621D01*
X79473Y-72621D01*
X79655Y-72546D01*
X79795Y-72406D01*
X79871Y-72224D01*
X79871Y-72026D01*
X79837Y-71945D01*
X81407Y-70375D01*
X82100Y-70375D01*
X82176Y-70359D01*
X82241Y-70316D01*
X82591Y-69966D01*
X82591Y-69966D01*
X82591Y-69966D01*
X85016Y-67541D01*
X85016Y-67541D01*
X85059Y-67476D01*
X85059Y-67476D01*
X85062Y-67463D01*
X85074Y-67400D01*
X85075Y-67400D01*
X85075Y-67125D01*
X85075Y-64384D01*
X85150Y-64309D01*
X85199Y-64189D01*
X85200Y-64060D01*
X85200Y-69075D01*
X83825Y-69075D01*
X83748Y-69090D01*
X83726Y-69104D01*
X83683Y-69133D01*
X81233Y-71583D01*
X81190Y-71648D01*
X81186Y-71665D01*
X81094Y-71703D01*
X80954Y-71843D01*
X80878Y-72025D01*
X80878Y-72223D01*
X80953Y-72405D01*
X81093Y-72545D01*
X81275Y-72621D01*
X81473Y-72621D01*
X81655Y-72546D01*
X81795Y-72406D01*
X81871Y-72224D01*
X81871Y-72026D01*
X81796Y-71844D01*
X81667Y-71715D01*
X82175Y-71207D01*
X82175Y-71670D01*
X82094Y-71703D01*
X81954Y-71843D01*
X81878Y-72025D01*
X81878Y-72223D01*
X81953Y-72405D01*
X82093Y-72545D01*
X82275Y-72621D01*
X82473Y-72621D01*
X82655Y-72546D01*
X82795Y-72406D01*
X82871Y-72224D01*
X82871Y-72026D01*
X82796Y-71844D01*
X82656Y-71704D01*
X82575Y-71670D01*
X82575Y-71107D01*
X83857Y-69825D01*
X85142Y-69825D01*
X84233Y-70733D01*
X84190Y-70798D01*
X84175Y-70875D01*
X84175Y-71670D01*
X84094Y-71703D01*
X83954Y-71843D01*
X83878Y-72025D01*
X83878Y-72223D01*
X83953Y-72405D01*
X84093Y-72545D01*
X84275Y-72621D01*
X84473Y-72621D01*
X84655Y-72546D01*
X84795Y-72406D01*
X84871Y-72224D01*
X84871Y-72026D01*
X84796Y-71844D01*
X84656Y-71704D01*
X84575Y-71670D01*
X84575Y-70957D01*
X85457Y-70075D01*
X85942Y-70075D01*
X85233Y-70783D01*
X85190Y-70848D01*
X85175Y-70925D01*
X85175Y-71670D01*
X85094Y-71703D01*
X84954Y-71843D01*
X84878Y-72025D01*
X84878Y-72223D01*
X84953Y-72405D01*
X85093Y-72545D01*
X85275Y-72621D01*
X85473Y-72621D01*
X85655Y-72546D01*
X85795Y-72406D01*
X85818Y-72351D01*
X85855Y-72440D01*
X85955Y-72473D01*
X86304Y-72125D01*
X85955Y-71776D01*
X85855Y-71809D01*
X85820Y-71903D01*
X85796Y-71844D01*
X85656Y-71704D01*
X85575Y-71670D01*
X85575Y-71007D01*
X86257Y-70325D01*
X99725Y-70325D01*
X99801Y-70309D01*
X99866Y-70266D01*
X103001Y-67131D01*
X103001Y-67632D01*
X99733Y-70900D01*
X99690Y-70965D01*
X99675Y-71042D01*
X99675Y-71793D01*
X99628Y-71746D01*
X99464Y-71678D01*
X99286Y-71678D01*
X99122Y-71746D01*
X98996Y-71871D01*
X98928Y-72035D01*
X98928Y-72213D01*
X98996Y-72377D01*
X99121Y-72503D01*
X99285Y-72571D01*
X99463Y-72571D01*
X99627Y-72503D01*
X99675Y-72456D01*
X99675Y-72542D01*
X99516Y-72700D01*
X99464Y-72678D01*
X99286Y-72678D01*
X99122Y-72746D01*
X98996Y-72871D01*
X98928Y-73035D01*
X98928Y-73213D01*
X98996Y-73377D01*
X99121Y-73503D01*
X99285Y-73571D01*
X99463Y-73571D01*
X99627Y-73503D01*
X99753Y-73378D01*
X99821Y-73214D01*
X99821Y-73036D01*
X99799Y-72983D01*
X100016Y-72766D01*
X100059Y-72701D01*
X100059Y-72701D01*
X100062Y-72688D01*
X100074Y-72625D01*
X100075Y-72625D01*
X100075Y-72553D01*
X100089Y-72603D01*
X100294Y-72676D01*
X100511Y-72665D01*
X100660Y-72603D01*
X100687Y-72508D01*
X100375Y-72195D01*
X100369Y-72201D01*
X100298Y-72130D01*
X100304Y-72125D01*
X100298Y-72119D01*
X100369Y-72048D01*
X100375Y-72054D01*
X100687Y-71741D01*
X100660Y-71646D01*
X100455Y-71573D01*
X100238Y-71584D01*
X100089Y-71646D01*
X100075Y-71696D01*
X100075Y-71124D01*
X103342Y-67856D01*
X103386Y-67792D01*
X103386Y-67792D01*
X103401Y-67715D01*
X103401Y-74575D01*
X100926Y-74575D01*
X100926Y-72205D01*
X100915Y-71988D01*
X100853Y-71839D01*
X100758Y-71812D01*
X100445Y-72125D01*
X100758Y-72437D01*
X100853Y-72410D01*
X100926Y-72205D01*
X100926Y-74575D01*
X100821Y-74575D01*
X100821Y-73036D01*
X100753Y-72872D01*
X100628Y-72746D01*
X100464Y-72678D01*
X100286Y-72678D01*
X100122Y-72746D01*
X99996Y-72871D01*
X99928Y-73035D01*
X99928Y-73213D01*
X99996Y-73377D01*
X100121Y-73503D01*
X100285Y-73571D01*
X100463Y-73571D01*
X100627Y-73503D01*
X100753Y-73378D01*
X100821Y-73214D01*
X100821Y-73036D01*
X100821Y-74575D01*
X98821Y-74575D01*
X98821Y-73036D01*
X98821Y-72036D01*
X98753Y-71872D01*
X98628Y-71746D01*
X98464Y-71678D01*
X98286Y-71678D01*
X98122Y-71746D01*
X97996Y-71871D01*
X97928Y-72035D01*
X97928Y-72213D01*
X97996Y-72377D01*
X98121Y-72503D01*
X98285Y-72571D01*
X98463Y-72571D01*
X98627Y-72503D01*
X98753Y-72378D01*
X98821Y-72214D01*
X98821Y-72036D01*
X98821Y-73036D01*
X98753Y-72872D01*
X98628Y-72746D01*
X98464Y-72678D01*
X98286Y-72678D01*
X98122Y-72746D01*
X97996Y-72871D01*
X97928Y-73035D01*
X97928Y-73213D01*
X97996Y-73377D01*
X98121Y-73503D01*
X98285Y-73571D01*
X98463Y-73571D01*
X98627Y-73503D01*
X98753Y-73378D01*
X98821Y-73214D01*
X98821Y-73036D01*
X98821Y-74575D01*
X97821Y-74575D01*
X97821Y-73036D01*
X97821Y-72036D01*
X97753Y-71872D01*
X97628Y-71746D01*
X97464Y-71678D01*
X97286Y-71678D01*
X97122Y-71746D01*
X96996Y-71871D01*
X96928Y-72035D01*
X96928Y-72213D01*
X96996Y-72377D01*
X97121Y-72503D01*
X97285Y-72571D01*
X97463Y-72571D01*
X97627Y-72503D01*
X97753Y-72378D01*
X97821Y-72214D01*
X97821Y-72036D01*
X97821Y-73036D01*
X97753Y-72872D01*
X97628Y-72746D01*
X97464Y-72678D01*
X97286Y-72678D01*
X97122Y-72746D01*
X96996Y-72871D01*
X96928Y-73035D01*
X96928Y-73213D01*
X96996Y-73377D01*
X97121Y-73503D01*
X97285Y-73571D01*
X97463Y-73571D01*
X97627Y-73503D01*
X97753Y-73378D01*
X97821Y-73214D01*
X97821Y-73036D01*
X97821Y-74575D01*
X96821Y-74575D01*
X96821Y-73036D01*
X96821Y-72036D01*
X96753Y-71872D01*
X96628Y-71746D01*
X96464Y-71678D01*
X96286Y-71678D01*
X96122Y-71746D01*
X95996Y-71871D01*
X95928Y-72035D01*
X95928Y-72213D01*
X95996Y-72377D01*
X96121Y-72503D01*
X96285Y-72571D01*
X96463Y-72571D01*
X96627Y-72503D01*
X96753Y-72378D01*
X96821Y-72214D01*
X96821Y-72036D01*
X96821Y-73036D01*
X96753Y-72872D01*
X96628Y-72746D01*
X96464Y-72678D01*
X96286Y-72678D01*
X96122Y-72746D01*
X95996Y-72871D01*
X95928Y-73035D01*
X95928Y-73213D01*
X95996Y-73377D01*
X96121Y-73503D01*
X96285Y-73571D01*
X96463Y-73571D01*
X96627Y-73503D01*
X96753Y-73378D01*
X96821Y-73214D01*
X96821Y-73036D01*
X96821Y-74575D01*
X86976Y-74575D01*
X86976Y-73217D01*
X86976Y-72217D01*
X86965Y-71980D01*
X86894Y-71809D01*
X86794Y-71776D01*
X86723Y-71846D01*
X86723Y-71705D01*
X86690Y-71605D01*
X86467Y-71523D01*
X86230Y-71534D01*
X86059Y-71605D01*
X86026Y-71705D01*
X86375Y-72054D01*
X86723Y-71705D01*
X86723Y-71846D01*
X86445Y-72125D01*
X86794Y-72473D01*
X86894Y-72440D01*
X86976Y-72217D01*
X86976Y-73217D01*
X86965Y-72980D01*
X86894Y-72809D01*
X86794Y-72776D01*
X86723Y-72846D01*
X86723Y-72705D01*
X86697Y-72625D01*
X86723Y-72544D01*
X86375Y-72195D01*
X86026Y-72544D01*
X86052Y-72625D01*
X86026Y-72705D01*
X86375Y-73054D01*
X86723Y-72705D01*
X86723Y-72846D01*
X86445Y-73125D01*
X86794Y-73473D01*
X86894Y-73440D01*
X86976Y-73217D01*
X86976Y-74575D01*
X86723Y-74575D01*
X86723Y-73544D01*
X86375Y-73195D01*
X86304Y-73266D01*
X86304Y-73125D01*
X85955Y-72776D01*
X85855Y-72809D01*
X85820Y-72903D01*
X85796Y-72844D01*
X85656Y-72704D01*
X85474Y-72628D01*
X85276Y-72628D01*
X85094Y-72703D01*
X84954Y-72843D01*
X84878Y-73025D01*
X84878Y-73223D01*
X84953Y-73405D01*
X85093Y-73545D01*
X85275Y-73621D01*
X85473Y-73621D01*
X85655Y-73546D01*
X85795Y-73406D01*
X85818Y-73351D01*
X85855Y-73440D01*
X85955Y-73473D01*
X86304Y-73125D01*
X86304Y-73266D01*
X86026Y-73544D01*
X86059Y-73644D01*
X86282Y-73726D01*
X86519Y-73715D01*
X86690Y-73644D01*
X86723Y-73544D01*
X86723Y-74575D01*
X84871Y-74575D01*
X84871Y-73026D01*
X84796Y-72844D01*
X84656Y-72704D01*
X84474Y-72628D01*
X84276Y-72628D01*
X84094Y-72703D01*
X83954Y-72843D01*
X83878Y-73025D01*
X83878Y-73223D01*
X83953Y-73405D01*
X84093Y-73545D01*
X84275Y-73621D01*
X84473Y-73621D01*
X84655Y-73546D01*
X84795Y-73406D01*
X84871Y-73224D01*
X84871Y-73026D01*
X84871Y-74575D01*
X83871Y-74575D01*
X83871Y-73026D01*
X83871Y-72026D01*
X83796Y-71844D01*
X83656Y-71704D01*
X83474Y-71628D01*
X83276Y-71628D01*
X83094Y-71703D01*
X82954Y-71843D01*
X82878Y-72025D01*
X82878Y-72223D01*
X82953Y-72405D01*
X83093Y-72545D01*
X83275Y-72621D01*
X83473Y-72621D01*
X83655Y-72546D01*
X83795Y-72406D01*
X83871Y-72224D01*
X83871Y-72026D01*
X83871Y-73026D01*
X83796Y-72844D01*
X83656Y-72704D01*
X83474Y-72628D01*
X83276Y-72628D01*
X83094Y-72703D01*
X82954Y-72843D01*
X82878Y-73025D01*
X82878Y-73223D01*
X82953Y-73405D01*
X83093Y-73545D01*
X83275Y-73621D01*
X83473Y-73621D01*
X83655Y-73546D01*
X83795Y-73406D01*
X83871Y-73224D01*
X83871Y-73026D01*
X83871Y-74575D01*
X82871Y-74575D01*
X82871Y-73026D01*
X82796Y-72844D01*
X82656Y-72704D01*
X82474Y-72628D01*
X82276Y-72628D01*
X82094Y-72703D01*
X81954Y-72843D01*
X81878Y-73025D01*
X81878Y-73223D01*
X81953Y-73405D01*
X82093Y-73545D01*
X82275Y-73621D01*
X82473Y-73621D01*
X82655Y-73546D01*
X82795Y-73406D01*
X82871Y-73224D01*
X82871Y-73026D01*
X82871Y-74575D01*
X81871Y-74575D01*
X81871Y-73026D01*
X81796Y-72844D01*
X81656Y-72704D01*
X81474Y-72628D01*
X81276Y-72628D01*
X81094Y-72703D01*
X80954Y-72843D01*
X80878Y-73025D01*
X80878Y-73223D01*
X80953Y-73405D01*
X81093Y-73545D01*
X81275Y-73621D01*
X81473Y-73621D01*
X81655Y-73546D01*
X81795Y-73406D01*
X81871Y-73224D01*
X81871Y-73026D01*
X81871Y-74575D01*
X80871Y-74575D01*
X80871Y-73026D01*
X80871Y-72026D01*
X80796Y-71844D01*
X80656Y-71704D01*
X80474Y-71628D01*
X80276Y-71628D01*
X80094Y-71703D01*
X79954Y-71843D01*
X79878Y-72025D01*
X79878Y-72223D01*
X79953Y-72405D01*
X80093Y-72545D01*
X80275Y-72621D01*
X80473Y-72621D01*
X80655Y-72546D01*
X80795Y-72406D01*
X80871Y-72224D01*
X80871Y-72026D01*
X80871Y-73026D01*
X80796Y-72844D01*
X80656Y-72704D01*
X80474Y-72628D01*
X80276Y-72628D01*
X80094Y-72703D01*
X79954Y-72843D01*
X79878Y-73025D01*
X79878Y-73223D01*
X79953Y-73405D01*
X80093Y-73545D01*
X80275Y-73621D01*
X80473Y-73621D01*
X80655Y-73546D01*
X80795Y-73406D01*
X80871Y-73224D01*
X80871Y-73026D01*
X80871Y-74575D01*
X79871Y-74575D01*
X79871Y-73026D01*
X79796Y-72844D01*
X79656Y-72704D01*
X79474Y-72628D01*
X79276Y-72628D01*
X79094Y-72703D01*
X78954Y-72843D01*
X78878Y-73025D01*
X78878Y-73223D01*
X78953Y-73405D01*
X79093Y-73545D01*
X79275Y-73621D01*
X79473Y-73621D01*
X79655Y-73546D01*
X79795Y-73406D01*
X79871Y-73224D01*
X79871Y-73026D01*
X79871Y-74575D01*
X78871Y-74575D01*
X78871Y-73026D01*
X78796Y-72844D01*
X78656Y-72704D01*
X78474Y-72628D01*
X78276Y-72628D01*
X78094Y-72703D01*
X77954Y-72843D01*
X77878Y-73025D01*
X77878Y-73223D01*
X77953Y-73405D01*
X78093Y-73545D01*
X78275Y-73621D01*
X78473Y-73621D01*
X78655Y-73546D01*
X78795Y-73406D01*
X78871Y-73224D01*
X78871Y-73026D01*
X78871Y-74575D01*
X77871Y-74575D01*
X77871Y-73026D01*
X77871Y-72026D01*
X77796Y-71844D01*
X77656Y-71704D01*
X77474Y-71628D01*
X77276Y-71628D01*
X77094Y-71703D01*
X76954Y-71843D01*
X76878Y-72025D01*
X76878Y-72223D01*
X76953Y-72405D01*
X77093Y-72545D01*
X77275Y-72621D01*
X77473Y-72621D01*
X77655Y-72546D01*
X77795Y-72406D01*
X77871Y-72224D01*
X77871Y-72026D01*
X77871Y-73026D01*
X77796Y-72844D01*
X77656Y-72704D01*
X77474Y-72628D01*
X77276Y-72628D01*
X77094Y-72703D01*
X76954Y-72843D01*
X76878Y-73025D01*
X76878Y-73223D01*
X76953Y-73405D01*
X77093Y-73545D01*
X77275Y-73621D01*
X77473Y-73621D01*
X77655Y-73546D01*
X77795Y-73406D01*
X77871Y-73224D01*
X77871Y-73026D01*
X77871Y-74575D01*
X76871Y-74575D01*
X76871Y-73026D01*
X76871Y-72026D01*
X76796Y-71844D01*
X76656Y-71704D01*
X76474Y-71628D01*
X76276Y-71628D01*
X76094Y-71703D01*
X75954Y-71843D01*
X75878Y-72025D01*
X75878Y-72223D01*
X75953Y-72405D01*
X76093Y-72545D01*
X76275Y-72621D01*
X76473Y-72621D01*
X76655Y-72546D01*
X76795Y-72406D01*
X76871Y-72224D01*
X76871Y-72026D01*
X76871Y-73026D01*
X76796Y-72844D01*
X76656Y-72704D01*
X76474Y-72628D01*
X76276Y-72628D01*
X76094Y-72703D01*
X75954Y-72843D01*
X75878Y-73025D01*
X75878Y-73223D01*
X75953Y-73405D01*
X76093Y-73545D01*
X76275Y-73621D01*
X76473Y-73621D01*
X76655Y-73546D01*
X76795Y-73406D01*
X76871Y-73224D01*
X76871Y-73026D01*
X76871Y-74575D01*
X75871Y-74575D01*
X75871Y-73026D01*
X75871Y-72026D01*
X75796Y-71844D01*
X75656Y-71704D01*
X75474Y-71628D01*
X75276Y-71628D01*
X75094Y-71703D01*
X74954Y-71843D01*
X74878Y-72025D01*
X74878Y-72223D01*
X74953Y-72405D01*
X75093Y-72545D01*
X75275Y-72621D01*
X75473Y-72621D01*
X75655Y-72546D01*
X75795Y-72406D01*
X75871Y-72224D01*
X75871Y-72026D01*
X75871Y-73026D01*
X75796Y-72844D01*
X75656Y-72704D01*
X75474Y-72628D01*
X75276Y-72628D01*
X75094Y-72703D01*
X74954Y-72843D01*
X74878Y-73025D01*
X74878Y-73223D01*
X74953Y-73405D01*
X75093Y-73545D01*
X75275Y-73621D01*
X75473Y-73621D01*
X75655Y-73546D01*
X75795Y-73406D01*
X75871Y-73224D01*
X75871Y-73026D01*
X75871Y-74575D01*
X74871Y-74575D01*
X74871Y-73026D01*
X74871Y-72026D01*
X74796Y-71844D01*
X74656Y-71704D01*
X74474Y-71628D01*
X74276Y-71628D01*
X74094Y-71703D01*
X73954Y-71843D01*
X73878Y-72025D01*
X73878Y-72223D01*
X73953Y-72405D01*
X74093Y-72545D01*
X74275Y-72621D01*
X74473Y-72621D01*
X74655Y-72546D01*
X74795Y-72406D01*
X74871Y-72224D01*
X74871Y-72026D01*
X74871Y-73026D01*
X74796Y-72844D01*
X74656Y-72704D01*
X74474Y-72628D01*
X74276Y-72628D01*
X74094Y-72703D01*
X73954Y-72843D01*
X73878Y-73025D01*
X73878Y-73223D01*
X73953Y-73405D01*
X74093Y-73545D01*
X74275Y-73621D01*
X74473Y-73621D01*
X74655Y-73546D01*
X74795Y-73406D01*
X74871Y-73224D01*
X74871Y-73026D01*
X74871Y-74575D01*
X66675Y-74575D01*
X66675Y-52425D01*
X104825Y-52425D01*
X104825Y-74575D01*
X104825Y-74575D01*
G37*
G54D14*
X104825Y-74575D02*
X103401Y-74575D01*
X103401Y-67715D01*
X103401Y-64012D01*
X103386Y-63936D01*
X103386Y-63936D01*
X103371Y-63914D01*
X103342Y-63871D01*
X103342Y-63871D01*
X103168Y-63697D01*
X103103Y-63653D01*
X103027Y-63638D01*
X100066Y-63638D01*
X99990Y-63653D01*
X99968Y-63668D01*
X99925Y-63697D01*
X98995Y-64626D01*
X98910Y-64626D01*
X93767Y-59483D01*
X93702Y-59440D01*
X93626Y-59425D01*
X89014Y-59425D01*
X88939Y-59349D01*
X88820Y-59300D01*
X88690Y-59299D01*
X88580Y-59345D01*
X85125Y-55889D01*
X85125Y-53628D01*
X85200Y-53553D01*
X85250Y-53434D01*
X85250Y-53304D01*
X85200Y-53185D01*
X85109Y-53093D01*
X84990Y-53044D01*
X84860Y-53044D01*
X84741Y-53093D01*
X84649Y-53184D01*
X84620Y-53255D01*
X78532Y-53255D01*
X78457Y-53180D01*
X78337Y-53130D01*
X78208Y-53130D01*
X78088Y-53179D01*
X77997Y-53271D01*
X77947Y-53390D01*
X77947Y-53519D01*
X77997Y-53639D01*
X78088Y-53730D01*
X78207Y-53780D01*
X78337Y-53780D01*
X78456Y-53731D01*
X78532Y-53655D01*
X84725Y-53655D01*
X84725Y-55972D01*
X84740Y-56049D01*
X84783Y-56113D01*
X88294Y-59624D01*
X83812Y-64107D01*
X83769Y-64172D01*
X83754Y-64248D01*
X83754Y-64325D01*
X83329Y-64750D01*
X80969Y-64750D01*
X80894Y-64674D01*
X80774Y-64625D01*
X80645Y-64624D01*
X80525Y-64674D01*
X80450Y-64750D01*
X76778Y-64750D01*
X76778Y-64729D01*
X76728Y-64609D01*
X76637Y-64518D01*
X76518Y-64468D01*
X76388Y-64468D01*
X76269Y-64518D01*
X76177Y-64609D01*
X76128Y-64728D01*
X76128Y-64750D01*
X72270Y-64750D01*
X72195Y-64674D01*
X72075Y-64625D01*
X71968Y-64624D01*
X71645Y-64301D01*
X71580Y-64258D01*
X71504Y-64243D01*
X69048Y-64243D01*
X68973Y-64167D01*
X68853Y-64118D01*
X68724Y-64117D01*
X68605Y-64167D01*
X68513Y-64258D01*
X68463Y-64378D01*
X68463Y-64507D01*
X68513Y-64626D01*
X68604Y-64718D01*
X68724Y-64767D01*
X68853Y-64768D01*
X68972Y-64718D01*
X69048Y-64643D01*
X71421Y-64643D01*
X71686Y-64907D01*
X71686Y-65014D01*
X71735Y-65133D01*
X71826Y-65225D01*
X71946Y-65274D01*
X72075Y-65275D01*
X72194Y-65225D01*
X72270Y-65150D01*
X76453Y-65150D01*
X80450Y-65150D01*
X80525Y-65225D01*
X80644Y-65274D01*
X80774Y-65275D01*
X80893Y-65225D01*
X80969Y-65150D01*
X83412Y-65150D01*
X83488Y-65134D01*
X83553Y-65091D01*
X84095Y-64549D01*
X84095Y-64549D01*
X84138Y-64484D01*
X84138Y-64484D01*
X84141Y-64471D01*
X84154Y-64408D01*
X84154Y-64408D01*
X84154Y-64331D01*
X88581Y-59904D01*
X88690Y-59949D01*
X88819Y-59950D01*
X88939Y-59900D01*
X89014Y-59825D01*
X93543Y-59825D01*
X98628Y-64909D01*
X98628Y-65016D01*
X98661Y-65097D01*
X98427Y-65097D01*
X98326Y-64996D01*
X98326Y-64890D01*
X98277Y-64770D01*
X98186Y-64679D01*
X98066Y-64629D01*
X97959Y-64629D01*
X96987Y-63657D01*
X96922Y-63614D01*
X96846Y-63598D01*
X93565Y-63598D01*
X93488Y-63614D01*
X93466Y-63628D01*
X93423Y-63657D01*
X93356Y-63725D01*
X93249Y-63724D01*
X93130Y-63774D01*
X93054Y-63850D01*
X88834Y-63850D01*
X88757Y-63865D01*
X88692Y-63908D01*
X88649Y-63973D01*
X88634Y-64050D01*
X88634Y-64680D01*
X88559Y-64756D01*
X88509Y-64875D01*
X88509Y-65004D01*
X88558Y-65124D01*
X88650Y-65215D01*
X88769Y-65265D01*
X88898Y-65265D01*
X89018Y-65216D01*
X89109Y-65124D01*
X89159Y-65005D01*
X89159Y-64876D01*
X89110Y-64756D01*
X89034Y-64680D01*
X89034Y-64250D01*
X93054Y-64250D01*
X93129Y-64325D01*
X93249Y-64374D01*
X93378Y-64375D01*
X93497Y-64325D01*
X93574Y-64249D01*
X93599Y-64308D01*
X93675Y-64384D01*
X93675Y-66842D01*
X91337Y-69179D01*
X91300Y-69091D01*
X91209Y-68999D01*
X91089Y-68950D01*
X90960Y-68949D01*
X90841Y-68999D01*
X90765Y-69075D01*
X85850Y-69075D01*
X85200Y-69075D01*
X85200Y-64060D01*
X85150Y-63941D01*
X85059Y-63849D01*
X84939Y-63800D01*
X84810Y-63799D01*
X84691Y-63849D01*
X84599Y-63940D01*
X84550Y-64060D01*
X84549Y-64189D01*
X84599Y-64308D01*
X84675Y-64384D01*
X84675Y-67125D01*
X84675Y-67317D01*
X82308Y-69683D01*
X82308Y-69683D01*
X82017Y-69975D01*
X81325Y-69975D01*
X81248Y-69990D01*
X81226Y-70004D01*
X81183Y-70033D01*
X79555Y-71662D01*
X79474Y-71628D01*
X79276Y-71628D01*
X79238Y-71644D01*
X81357Y-69525D01*
X81815Y-69525D01*
X81890Y-69600D01*
X82010Y-69649D01*
X82139Y-69650D01*
X82258Y-69600D01*
X82350Y-69509D01*
X82399Y-69389D01*
X82400Y-69260D01*
X82350Y-69141D01*
X82259Y-69049D01*
X82139Y-69000D01*
X82010Y-68999D01*
X81891Y-69049D01*
X81815Y-69125D01*
X81275Y-69125D01*
X81198Y-69140D01*
X81176Y-69154D01*
X81133Y-69183D01*
X78625Y-71691D01*
X78474Y-71628D01*
X78276Y-71628D01*
X78094Y-71703D01*
X77954Y-71843D01*
X77878Y-72025D01*
X77878Y-72223D01*
X77953Y-72405D01*
X78093Y-72545D01*
X78275Y-72621D01*
X78473Y-72621D01*
X78655Y-72546D01*
X78795Y-72406D01*
X78871Y-72224D01*
X78871Y-72026D01*
X78867Y-72015D01*
X78893Y-71988D01*
X78878Y-72025D01*
X78878Y-72223D01*
X78953Y-72405D01*
X79093Y-72545D01*
X79275Y-72621D01*
X79473Y-72621D01*
X79655Y-72546D01*
X79795Y-72406D01*
X79871Y-72224D01*
X79871Y-72026D01*
X79837Y-71945D01*
X81407Y-70375D01*
X82100Y-70375D01*
X82176Y-70359D01*
X82241Y-70316D01*
X82591Y-69966D01*
X82591Y-69966D01*
X82591Y-69966D01*
X85016Y-67541D01*
X85016Y-67541D01*
X85059Y-67476D01*
X85059Y-67476D01*
X85062Y-67463D01*
X85074Y-67400D01*
X85075Y-67400D01*
X85075Y-67125D01*
X85075Y-64384D01*
X85150Y-64309D01*
X85199Y-64189D01*
X85200Y-64060D01*
X85200Y-69075D01*
X83825Y-69075D01*
X83748Y-69090D01*
X83726Y-69104D01*
X83683Y-69133D01*
X81233Y-71583D01*
X81190Y-71648D01*
X81186Y-71665D01*
X81094Y-71703D01*
X80954Y-71843D01*
X80878Y-72025D01*
X80878Y-72223D01*
X80953Y-72405D01*
X81093Y-72545D01*
X81275Y-72621D01*
X81473Y-72621D01*
X81655Y-72546D01*
X81795Y-72406D01*
X81871Y-72224D01*
X81871Y-72026D01*
X81796Y-71844D01*
X81667Y-71715D01*
X82175Y-71207D01*
X82175Y-71670D01*
X82094Y-71703D01*
X81954Y-71843D01*
X81878Y-72025D01*
X81878Y-72223D01*
X81953Y-72405D01*
X82093Y-72545D01*
X82275Y-72621D01*
X82473Y-72621D01*
X82655Y-72546D01*
X82795Y-72406D01*
X82871Y-72224D01*
X82871Y-72026D01*
X82796Y-71844D01*
X82656Y-71704D01*
X82575Y-71670D01*
X82575Y-71107D01*
X83857Y-69825D01*
X85142Y-69825D01*
X84233Y-70733D01*
X84190Y-70798D01*
X84175Y-70875D01*
X84175Y-71670D01*
X84094Y-71703D01*
X83954Y-71843D01*
X83878Y-72025D01*
X83878Y-72223D01*
X83953Y-72405D01*
X84093Y-72545D01*
X84275Y-72621D01*
X84473Y-72621D01*
X84655Y-72546D01*
X84795Y-72406D01*
X84871Y-72224D01*
X84871Y-72026D01*
X84796Y-71844D01*
X84656Y-71704D01*
X84575Y-71670D01*
X84575Y-70957D01*
X85457Y-70075D01*
X85942Y-70075D01*
X85233Y-70783D01*
X85190Y-70848D01*
X85175Y-70925D01*
X85175Y-71670D01*
X85094Y-71703D01*
X84954Y-71843D01*
X84878Y-72025D01*
X84878Y-72223D01*
X84953Y-72405D01*
X85093Y-72545D01*
X85275Y-72621D01*
X85473Y-72621D01*
X85655Y-72546D01*
X85795Y-72406D01*
X85818Y-72351D01*
X85855Y-72440D01*
X85955Y-72473D01*
X86304Y-72125D01*
X85955Y-71776D01*
X85855Y-71809D01*
X85820Y-71903D01*
X85796Y-71844D01*
X85656Y-71704D01*
X85575Y-71670D01*
X85575Y-71007D01*
X86257Y-70325D01*
X99725Y-70325D01*
X99801Y-70309D01*
X99866Y-70266D01*
X103001Y-67131D01*
X103001Y-67632D01*
X99733Y-70900D01*
X99690Y-70965D01*
X99675Y-71042D01*
X99675Y-71793D01*
X99628Y-71746D01*
X99464Y-71678D01*
X99286Y-71678D01*
X99122Y-71746D01*
X98996Y-71871D01*
X98928Y-72035D01*
X98928Y-72213D01*
X98996Y-72377D01*
X99121Y-72503D01*
X99285Y-72571D01*
X99463Y-72571D01*
X99627Y-72503D01*
X99675Y-72456D01*
X99675Y-72542D01*
X99516Y-72700D01*
X99464Y-72678D01*
X99286Y-72678D01*
X99122Y-72746D01*
X98996Y-72871D01*
X98928Y-73035D01*
X98928Y-73213D01*
X98996Y-73377D01*
X99121Y-73503D01*
X99285Y-73571D01*
X99463Y-73571D01*
X99627Y-73503D01*
X99753Y-73378D01*
X99821Y-73214D01*
X99821Y-73036D01*
X99799Y-72983D01*
X100016Y-72766D01*
X100059Y-72701D01*
X100059Y-72701D01*
X100062Y-72688D01*
X100074Y-72625D01*
X100075Y-72625D01*
X100075Y-72553D01*
X100089Y-72603D01*
X100294Y-72676D01*
X100511Y-72665D01*
X100660Y-72603D01*
X100687Y-72508D01*
X100375Y-72195D01*
X100369Y-72201D01*
X100298Y-72130D01*
X100304Y-72125D01*
X100298Y-72119D01*
X100369Y-72048D01*
X100375Y-72054D01*
X100687Y-71741D01*
X100660Y-71646D01*
X100455Y-71573D01*
X100238Y-71584D01*
X100089Y-71646D01*
X100075Y-71696D01*
X100075Y-71124D01*
X103342Y-67856D01*
X103386Y-67792D01*
X103386Y-67792D01*
X103401Y-67715D01*
X103401Y-74575D01*
X100926Y-74575D01*
X100926Y-72205D01*
X100915Y-71988D01*
X100853Y-71839D01*
X100758Y-71812D01*
X100445Y-72125D01*
X100758Y-72437D01*
X100853Y-72410D01*
X100926Y-72205D01*
X100926Y-74575D01*
X100821Y-74575D01*
X100821Y-73036D01*
X100753Y-72872D01*
X100628Y-72746D01*
X100464Y-72678D01*
X100286Y-72678D01*
X100122Y-72746D01*
X99996Y-72871D01*
X99928Y-73035D01*
X99928Y-73213D01*
X99996Y-73377D01*
X100121Y-73503D01*
X100285Y-73571D01*
X100463Y-73571D01*
X100627Y-73503D01*
X100753Y-73378D01*
X100821Y-73214D01*
X100821Y-73036D01*
X100821Y-74575D01*
X98821Y-74575D01*
X98821Y-73036D01*
X98821Y-72036D01*
X98753Y-71872D01*
X98628Y-71746D01*
X98464Y-71678D01*
X98286Y-71678D01*
X98122Y-71746D01*
X97996Y-71871D01*
X97928Y-72035D01*
X97928Y-72213D01*
X97996Y-72377D01*
X98121Y-72503D01*
X98285Y-72571D01*
X98463Y-72571D01*
X98627Y-72503D01*
X98753Y-72378D01*
X98821Y-72214D01*
X98821Y-72036D01*
X98821Y-73036D01*
X98753Y-72872D01*
X98628Y-72746D01*
X98464Y-72678D01*
X98286Y-72678D01*
X98122Y-72746D01*
X97996Y-72871D01*
X97928Y-73035D01*
X97928Y-73213D01*
X97996Y-73377D01*
X98121Y-73503D01*
X98285Y-73571D01*
X98463Y-73571D01*
X98627Y-73503D01*
X98753Y-73378D01*
X98821Y-73214D01*
X98821Y-73036D01*
X98821Y-74575D01*
X97821Y-74575D01*
X97821Y-73036D01*
X97821Y-72036D01*
X97753Y-71872D01*
X97628Y-71746D01*
X97464Y-71678D01*
X97286Y-71678D01*
X97122Y-71746D01*
X96996Y-71871D01*
X96928Y-72035D01*
X96928Y-72213D01*
X96996Y-72377D01*
X97121Y-72503D01*
X97285Y-72571D01*
X97463Y-72571D01*
X97627Y-72503D01*
X97753Y-72378D01*
X97821Y-72214D01*
X97821Y-72036D01*
X97821Y-73036D01*
X97753Y-72872D01*
X97628Y-72746D01*
X97464Y-72678D01*
X97286Y-72678D01*
X97122Y-72746D01*
X96996Y-72871D01*
X96928Y-73035D01*
X96928Y-73213D01*
X96996Y-73377D01*
X97121Y-73503D01*
X97285Y-73571D01*
X97463Y-73571D01*
X97627Y-73503D01*
X97753Y-73378D01*
X97821Y-73214D01*
X97821Y-73036D01*
X97821Y-74575D01*
X96821Y-74575D01*
X96821Y-73036D01*
X96821Y-72036D01*
X96753Y-71872D01*
X96628Y-71746D01*
X96464Y-71678D01*
X96286Y-71678D01*
X96122Y-71746D01*
X95996Y-71871D01*
X95928Y-72035D01*
X95928Y-72213D01*
X95996Y-72377D01*
X96121Y-72503D01*
X96285Y-72571D01*
X96463Y-72571D01*
X96627Y-72503D01*
X96753Y-72378D01*
X96821Y-72214D01*
X96821Y-72036D01*
X96821Y-73036D01*
X96753Y-72872D01*
X96628Y-72746D01*
X96464Y-72678D01*
X96286Y-72678D01*
X96122Y-72746D01*
X95996Y-72871D01*
X95928Y-73035D01*
X95928Y-73213D01*
X95996Y-73377D01*
X96121Y-73503D01*
X96285Y-73571D01*
X96463Y-73571D01*
X96627Y-73503D01*
X96753Y-73378D01*
X96821Y-73214D01*
X96821Y-73036D01*
X96821Y-74575D01*
X86976Y-74575D01*
X86976Y-73217D01*
X86976Y-72217D01*
X86965Y-71980D01*
X86894Y-71809D01*
X86794Y-71776D01*
X86723Y-71846D01*
X86723Y-71705D01*
X86690Y-71605D01*
X86467Y-71523D01*
X86230Y-71534D01*
X86059Y-71605D01*
X86026Y-71705D01*
X86375Y-72054D01*
X86723Y-71705D01*
X86723Y-71846D01*
X86445Y-72125D01*
X86794Y-72473D01*
X86894Y-72440D01*
X86976Y-72217D01*
X86976Y-73217D01*
X86965Y-72980D01*
X86894Y-72809D01*
X86794Y-72776D01*
X86723Y-72846D01*
X86723Y-72705D01*
X86697Y-72625D01*
X86723Y-72544D01*
X86375Y-72195D01*
X86026Y-72544D01*
X86052Y-72625D01*
X86026Y-72705D01*
X86375Y-73054D01*
X86723Y-72705D01*
X86723Y-72846D01*
X86445Y-73125D01*
X86794Y-73473D01*
X86894Y-73440D01*
X86976Y-73217D01*
X86976Y-74575D01*
X86723Y-74575D01*
X86723Y-73544D01*
X86375Y-73195D01*
X86304Y-73266D01*
X86304Y-73125D01*
X85955Y-72776D01*
X85855Y-72809D01*
X85820Y-72903D01*
X85796Y-72844D01*
X85656Y-72704D01*
X85474Y-72628D01*
X85276Y-72628D01*
X85094Y-72703D01*
X84954Y-72843D01*
X84878Y-73025D01*
X84878Y-73223D01*
X84953Y-73405D01*
X85093Y-73545D01*
X85275Y-73621D01*
X85473Y-73621D01*
X85655Y-73546D01*
X85795Y-73406D01*
X85818Y-73351D01*
X85855Y-73440D01*
X85955Y-73473D01*
X86304Y-73125D01*
X86304Y-73266D01*
X86026Y-73544D01*
X86059Y-73644D01*
X86282Y-73726D01*
X86519Y-73715D01*
X86690Y-73644D01*
X86723Y-73544D01*
X86723Y-74575D01*
X84871Y-74575D01*
X84871Y-73026D01*
X84796Y-72844D01*
X84656Y-72704D01*
X84474Y-72628D01*
X84276Y-72628D01*
X84094Y-72703D01*
X83954Y-72843D01*
X83878Y-73025D01*
X83878Y-73223D01*
X83953Y-73405D01*
X84093Y-73545D01*
X84275Y-73621D01*
X84473Y-73621D01*
X84655Y-73546D01*
X84795Y-73406D01*
X84871Y-73224D01*
X84871Y-73026D01*
X84871Y-74575D01*
X83871Y-74575D01*
X83871Y-73026D01*
X83871Y-72026D01*
X83796Y-71844D01*
X83656Y-71704D01*
X83474Y-71628D01*
X83276Y-71628D01*
X83094Y-71703D01*
X82954Y-71843D01*
X82878Y-72025D01*
X82878Y-72223D01*
X82953Y-72405D01*
X83093Y-72545D01*
X83275Y-72621D01*
X83473Y-72621D01*
X83655Y-72546D01*
X83795Y-72406D01*
X83871Y-72224D01*
X83871Y-72026D01*
X83871Y-73026D01*
X83796Y-72844D01*
X83656Y-72704D01*
X83474Y-72628D01*
X83276Y-72628D01*
X83094Y-72703D01*
X82954Y-72843D01*
X82878Y-73025D01*
X82878Y-73223D01*
X82953Y-73405D01*
X83093Y-73545D01*
X83275Y-73621D01*
X83473Y-73621D01*
X83655Y-73546D01*
X83795Y-73406D01*
X83871Y-73224D01*
X83871Y-73026D01*
X83871Y-74575D01*
X82871Y-74575D01*
X82871Y-73026D01*
X82796Y-72844D01*
X82656Y-72704D01*
X82474Y-72628D01*
X82276Y-72628D01*
X82094Y-72703D01*
X81954Y-72843D01*
X81878Y-73025D01*
X81878Y-73223D01*
X81953Y-73405D01*
X82093Y-73545D01*
X82275Y-73621D01*
X82473Y-73621D01*
X82655Y-73546D01*
X82795Y-73406D01*
X82871Y-73224D01*
X82871Y-73026D01*
X82871Y-74575D01*
X81871Y-74575D01*
X81871Y-73026D01*
X81796Y-72844D01*
X81656Y-72704D01*
X81474Y-72628D01*
X81276Y-72628D01*
X81094Y-72703D01*
X80954Y-72843D01*
X80878Y-73025D01*
X80878Y-73223D01*
X80953Y-73405D01*
X81093Y-73545D01*
X81275Y-73621D01*
X81473Y-73621D01*
X81655Y-73546D01*
X81795Y-73406D01*
X81871Y-73224D01*
X81871Y-73026D01*
X81871Y-74575D01*
X80871Y-74575D01*
X80871Y-73026D01*
X80871Y-72026D01*
X80796Y-71844D01*
X80656Y-71704D01*
X80474Y-71628D01*
X80276Y-71628D01*
X80094Y-71703D01*
X79954Y-71843D01*
X79878Y-72025D01*
X79878Y-72223D01*
X79953Y-72405D01*
X80093Y-72545D01*
X80275Y-72621D01*
X80473Y-72621D01*
X80655Y-72546D01*
X80795Y-72406D01*
X80871Y-72224D01*
X80871Y-72026D01*
X80871Y-73026D01*
X80796Y-72844D01*
X80656Y-72704D01*
X80474Y-72628D01*
X80276Y-72628D01*
X80094Y-72703D01*
X79954Y-72843D01*
X79878Y-73025D01*
X79878Y-73223D01*
X79953Y-73405D01*
X80093Y-73545D01*
X80275Y-73621D01*
X80473Y-73621D01*
X80655Y-73546D01*
X80795Y-73406D01*
X80871Y-73224D01*
X80871Y-73026D01*
X80871Y-74575D01*
X79871Y-74575D01*
X79871Y-73026D01*
X79796Y-72844D01*
X79656Y-72704D01*
X79474Y-72628D01*
X79276Y-72628D01*
X79094Y-72703D01*
X78954Y-72843D01*
X78878Y-73025D01*
X78878Y-73223D01*
X78953Y-73405D01*
X79093Y-73545D01*
X79275Y-73621D01*
X79473Y-73621D01*
X79655Y-73546D01*
X79795Y-73406D01*
X79871Y-73224D01*
X79871Y-73026D01*
X79871Y-74575D01*
X78871Y-74575D01*
X78871Y-73026D01*
X78796Y-72844D01*
X78656Y-72704D01*
X78474Y-72628D01*
X78276Y-72628D01*
X78094Y-72703D01*
X77954Y-72843D01*
X77878Y-73025D01*
X77878Y-73223D01*
X77953Y-73405D01*
X78093Y-73545D01*
X78275Y-73621D01*
X78473Y-73621D01*
X78655Y-73546D01*
X78795Y-73406D01*
X78871Y-73224D01*
X78871Y-73026D01*
X78871Y-74575D01*
X77871Y-74575D01*
X77871Y-73026D01*
X77871Y-72026D01*
X77796Y-71844D01*
X77656Y-71704D01*
X77474Y-71628D01*
X77276Y-71628D01*
X77094Y-71703D01*
X76954Y-71843D01*
X76878Y-72025D01*
X76878Y-72223D01*
X76953Y-72405D01*
X77093Y-72545D01*
X77275Y-72621D01*
X77473Y-72621D01*
X77655Y-72546D01*
X77795Y-72406D01*
X77871Y-72224D01*
X77871Y-72026D01*
X77871Y-73026D01*
X77796Y-72844D01*
X77656Y-72704D01*
X77474Y-72628D01*
X77276Y-72628D01*
X77094Y-72703D01*
X76954Y-72843D01*
X76878Y-73025D01*
X76878Y-73223D01*
X76953Y-73405D01*
X77093Y-73545D01*
X77275Y-73621D01*
X77473Y-73621D01*
X77655Y-73546D01*
X77795Y-73406D01*
X77871Y-73224D01*
X77871Y-73026D01*
X77871Y-74575D01*
X76871Y-74575D01*
X76871Y-73026D01*
X76871Y-72026D01*
X76796Y-71844D01*
X76656Y-71704D01*
X76474Y-71628D01*
X76276Y-71628D01*
X76094Y-71703D01*
X75954Y-71843D01*
X75878Y-72025D01*
X75878Y-72223D01*
X75953Y-72405D01*
X76093Y-72545D01*
X76275Y-72621D01*
X76473Y-72621D01*
X76655Y-72546D01*
X76795Y-72406D01*
X76871Y-72224D01*
X76871Y-72026D01*
X76871Y-73026D01*
X76796Y-72844D01*
X76656Y-72704D01*
X76474Y-72628D01*
X76276Y-72628D01*
X76094Y-72703D01*
X75954Y-72843D01*
X75878Y-73025D01*
X75878Y-73223D01*
X75953Y-73405D01*
X76093Y-73545D01*
X76275Y-73621D01*
X76473Y-73621D01*
X76655Y-73546D01*
X76795Y-73406D01*
X76871Y-73224D01*
X76871Y-73026D01*
X76871Y-74575D01*
X75871Y-74575D01*
X75871Y-73026D01*
X75871Y-72026D01*
X75796Y-71844D01*
X75656Y-71704D01*
X75474Y-71628D01*
X75276Y-71628D01*
X75094Y-71703D01*
X74954Y-71843D01*
X74878Y-72025D01*
X74878Y-72223D01*
X74953Y-72405D01*
X75093Y-72545D01*
X75275Y-72621D01*
X75473Y-72621D01*
X75655Y-72546D01*
X75795Y-72406D01*
X75871Y-72224D01*
X75871Y-72026D01*
X75871Y-73026D01*
X75796Y-72844D01*
X75656Y-72704D01*
X75474Y-72628D01*
X75276Y-72628D01*
X75094Y-72703D01*
X74954Y-72843D01*
X74878Y-73025D01*
X74878Y-73223D01*
X74953Y-73405D01*
X75093Y-73545D01*
X75275Y-73621D01*
X75473Y-73621D01*
X75655Y-73546D01*
X75795Y-73406D01*
X75871Y-73224D01*
X75871Y-73026D01*
X75871Y-74575D01*
X74871Y-74575D01*
X74871Y-73026D01*
X74871Y-72026D01*
X74796Y-71844D01*
X74656Y-71704D01*
X74474Y-71628D01*
X74276Y-71628D01*
X74094Y-71703D01*
X73954Y-71843D01*
X73878Y-72025D01*
X73878Y-72223D01*
X73953Y-72405D01*
X74093Y-72545D01*
X74275Y-72621D01*
X74473Y-72621D01*
X74655Y-72546D01*
X74795Y-72406D01*
X74871Y-72224D01*
X74871Y-72026D01*
X74871Y-73026D01*
X74796Y-72844D01*
X74656Y-72704D01*
X74474Y-72628D01*
X74276Y-72628D01*
X74094Y-72703D01*
X73954Y-72843D01*
X73878Y-73025D01*
X73878Y-73223D01*
X73953Y-73405D01*
X74093Y-73545D01*
X74275Y-73621D01*
X74473Y-73621D01*
X74655Y-73546D01*
X74795Y-73406D01*
X74871Y-73224D01*
X74871Y-73026D01*
X74871Y-74575D01*
X66675Y-74575D01*
X66675Y-52425D01*
X104825Y-52425D01*
X104825Y-74575D01*
M02*
