G04 (created by PCBNEW (2013-may-18)-stable) date 2014年03月17日 星期一 11时01分19秒*
%MOIN*%
G04 Gerber Fmt 3.4, Leading zero omitted, Abs format*
%FSLAX34Y34*%
G01*
G70*
G90*
G04 APERTURE LIST*
%ADD10C,0.00590551*%
%ADD11C,0.01*%
%ADD12C,0.016*%
%ADD13C,0.0035*%
%ADD14C,0.0019685*%
G04 APERTURE END LIST*
G54D10*
G54D11*
X94625Y-71125D02*
X94375Y-70875D01*
X94625Y-74125D02*
X94375Y-74375D01*
X102125Y-74125D02*
X102375Y-74375D01*
X102125Y-71125D02*
X102375Y-70875D01*
X99125Y-74375D02*
X99125Y-74125D01*
X99125Y-74125D02*
X102125Y-74125D01*
X102125Y-74125D02*
X102125Y-71125D01*
X102125Y-71125D02*
X94625Y-71125D01*
X94625Y-71125D02*
X94625Y-74125D01*
X94625Y-74125D02*
X97625Y-74125D01*
X97625Y-74125D02*
X97625Y-74375D01*
X94375Y-74375D02*
X102375Y-74375D01*
X102375Y-70875D02*
X94375Y-70875D01*
X94375Y-70875D02*
X94375Y-74375D01*
X102375Y-70875D02*
X102375Y-74375D01*
G54D12*
X95423Y-73400D02*
X95698Y-73821D01*
X95698Y-73821D02*
X95974Y-73400D01*
X95974Y-73400D02*
X95423Y-73400D01*
G54D11*
X72625Y-71125D02*
X79625Y-71125D01*
X88375Y-70875D02*
X72375Y-70875D01*
X88125Y-71125D02*
X81125Y-71125D01*
X72625Y-74125D02*
X88125Y-74125D01*
X88375Y-74375D02*
X72375Y-74375D01*
X72625Y-71125D02*
X72375Y-70875D01*
X72625Y-74125D02*
X72375Y-74375D01*
X88125Y-71125D02*
X88375Y-70875D01*
X88375Y-74375D02*
X88125Y-74125D01*
X88125Y-74125D02*
X88125Y-71125D01*
X81125Y-71125D02*
X81125Y-70875D01*
X72625Y-74125D02*
X72625Y-71125D01*
X79625Y-71125D02*
X79625Y-70875D01*
X88375Y-74375D02*
X88375Y-70875D01*
X72375Y-74375D02*
X72375Y-70875D01*
X87327Y-71850D02*
X87052Y-71429D01*
X87052Y-71429D02*
X86776Y-71850D01*
X86776Y-71850D02*
X87327Y-71850D01*
G54D10*
X83638Y-52652D02*
X84111Y-52652D01*
X84111Y-52652D02*
X84111Y-53597D01*
X84111Y-53597D02*
X83638Y-53597D01*
X83638Y-53597D02*
X83638Y-52652D01*
X87861Y-60097D02*
X87388Y-60097D01*
X87388Y-60097D02*
X87388Y-59152D01*
X87388Y-59152D02*
X87861Y-59152D01*
X87861Y-59152D02*
X87861Y-60097D01*
X82888Y-53402D02*
X83361Y-53402D01*
X83361Y-53402D02*
X83361Y-54347D01*
X83361Y-54347D02*
X82888Y-54347D01*
X82888Y-54347D02*
X82888Y-53402D01*
X97638Y-65152D02*
X98111Y-65152D01*
X98111Y-65152D02*
X98111Y-66097D01*
X98111Y-66097D02*
X97638Y-66097D01*
X97638Y-66097D02*
X97638Y-65152D01*
X76611Y-66097D02*
X76138Y-66097D01*
X76138Y-66097D02*
X76138Y-65152D01*
X76138Y-65152D02*
X76611Y-65152D01*
X76611Y-65152D02*
X76611Y-66097D01*
X79638Y-65152D02*
X80111Y-65152D01*
X80111Y-65152D02*
X80111Y-66097D01*
X80111Y-66097D02*
X79638Y-66097D01*
X79638Y-66097D02*
X79638Y-65152D01*
X94611Y-66097D02*
X94138Y-66097D01*
X94138Y-66097D02*
X94138Y-65152D01*
X94138Y-65152D02*
X94611Y-65152D01*
X94611Y-65152D02*
X94611Y-66097D01*
X100888Y-53402D02*
X101361Y-53402D01*
X101361Y-53402D02*
X101361Y-54347D01*
X101361Y-54347D02*
X100888Y-54347D01*
X100888Y-54347D02*
X100888Y-53402D01*
X78861Y-60097D02*
X78388Y-60097D01*
X78388Y-60097D02*
X78388Y-59152D01*
X78388Y-59152D02*
X78861Y-59152D01*
X78861Y-59152D02*
X78861Y-60097D01*
X81888Y-59152D02*
X82361Y-59152D01*
X82361Y-59152D02*
X82361Y-60097D01*
X82361Y-60097D02*
X81888Y-60097D01*
X81888Y-60097D02*
X81888Y-59152D01*
X101638Y-52652D02*
X102111Y-52652D01*
X102111Y-52652D02*
X102111Y-53597D01*
X102111Y-53597D02*
X101638Y-53597D01*
X101638Y-53597D02*
X101638Y-52652D01*
X85888Y-58652D02*
X86361Y-58652D01*
X86361Y-58652D02*
X86361Y-59597D01*
X86361Y-59597D02*
X85888Y-59597D01*
X85888Y-59597D02*
X85888Y-58652D01*
X85138Y-59402D02*
X85611Y-59402D01*
X85611Y-59402D02*
X85611Y-60347D01*
X85611Y-60347D02*
X85138Y-60347D01*
X85138Y-60347D02*
X85138Y-59402D01*
X93138Y-65152D02*
X93611Y-65152D01*
X93611Y-65152D02*
X93611Y-66097D01*
X93611Y-66097D02*
X93138Y-66097D01*
X93138Y-66097D02*
X93138Y-65152D01*
X90111Y-66097D02*
X89638Y-66097D01*
X89638Y-66097D02*
X89638Y-65152D01*
X89638Y-65152D02*
X90111Y-65152D01*
X90111Y-65152D02*
X90111Y-66097D01*
X76611Y-54097D02*
X76138Y-54097D01*
X76138Y-54097D02*
X76138Y-53152D01*
X76138Y-53152D02*
X76611Y-53152D01*
X76611Y-53152D02*
X76611Y-54097D01*
X79638Y-53152D02*
X80111Y-53152D01*
X80111Y-53152D02*
X80111Y-54097D01*
X80111Y-54097D02*
X79638Y-54097D01*
X79638Y-54097D02*
X79638Y-53152D01*
X88638Y-53152D02*
X89111Y-53152D01*
X89111Y-53152D02*
X89111Y-54097D01*
X89111Y-54097D02*
X88638Y-54097D01*
X88638Y-54097D02*
X88638Y-53152D01*
X81111Y-66097D02*
X80638Y-66097D01*
X80638Y-66097D02*
X80638Y-65152D01*
X80638Y-65152D02*
X81111Y-65152D01*
X81111Y-65152D02*
X81111Y-66097D01*
X84138Y-65152D02*
X84611Y-65152D01*
X84611Y-65152D02*
X84611Y-66097D01*
X84611Y-66097D02*
X84138Y-66097D01*
X84138Y-66097D02*
X84138Y-65152D01*
X85611Y-54097D02*
X85138Y-54097D01*
X85138Y-54097D02*
X85138Y-53152D01*
X85138Y-53152D02*
X85611Y-53152D01*
X85611Y-53152D02*
X85611Y-54097D01*
X94138Y-59402D02*
X94611Y-59402D01*
X94611Y-59402D02*
X94611Y-60347D01*
X94611Y-60347D02*
X94138Y-60347D01*
X94138Y-60347D02*
X94138Y-59402D01*
X92638Y-52652D02*
X93111Y-52652D01*
X93111Y-52652D02*
X93111Y-53597D01*
X93111Y-53597D02*
X92638Y-53597D01*
X92638Y-53597D02*
X92638Y-52652D01*
X91888Y-53402D02*
X92361Y-53402D01*
X92361Y-53402D02*
X92361Y-54347D01*
X92361Y-54347D02*
X91888Y-54347D01*
X91888Y-54347D02*
X91888Y-53402D01*
X94888Y-58652D02*
X95361Y-58652D01*
X95361Y-58652D02*
X95361Y-59597D01*
X95361Y-59597D02*
X94888Y-59597D01*
X94888Y-59597D02*
X94888Y-58652D01*
X85611Y-66097D02*
X85138Y-66097D01*
X85138Y-66097D02*
X85138Y-65152D01*
X85138Y-65152D02*
X85611Y-65152D01*
X85611Y-65152D02*
X85611Y-66097D01*
X88638Y-65152D02*
X89111Y-65152D01*
X89111Y-65152D02*
X89111Y-66097D01*
X89111Y-66097D02*
X88638Y-66097D01*
X88638Y-66097D02*
X88638Y-65152D01*
X90888Y-59152D02*
X91361Y-59152D01*
X91361Y-59152D02*
X91361Y-60097D01*
X91361Y-60097D02*
X90888Y-60097D01*
X90888Y-60097D02*
X90888Y-59152D01*
X96861Y-60097D02*
X96388Y-60097D01*
X96388Y-60097D02*
X96388Y-59152D01*
X96388Y-59152D02*
X96861Y-59152D01*
X96861Y-59152D02*
X96861Y-60097D01*
X74638Y-52652D02*
X75111Y-52652D01*
X75111Y-52652D02*
X75111Y-53597D01*
X75111Y-53597D02*
X74638Y-53597D01*
X74638Y-53597D02*
X74638Y-52652D01*
X73888Y-53402D02*
X74361Y-53402D01*
X74361Y-53402D02*
X74361Y-54347D01*
X74361Y-54347D02*
X73888Y-54347D01*
X73888Y-54347D02*
X73888Y-53402D01*
X67611Y-66097D02*
X67138Y-66097D01*
X67138Y-66097D02*
X67138Y-65152D01*
X67138Y-65152D02*
X67611Y-65152D01*
X67611Y-65152D02*
X67611Y-66097D01*
X70638Y-65152D02*
X71111Y-65152D01*
X71111Y-65152D02*
X71111Y-66097D01*
X71111Y-66097D02*
X70638Y-66097D01*
X70638Y-66097D02*
X70638Y-65152D01*
X102138Y-65152D02*
X102611Y-65152D01*
X102611Y-65152D02*
X102611Y-66097D01*
X102611Y-66097D02*
X102138Y-66097D01*
X102138Y-66097D02*
X102138Y-65152D01*
X99111Y-66097D02*
X98638Y-66097D01*
X98638Y-66097D02*
X98638Y-65152D01*
X98638Y-65152D02*
X99111Y-65152D01*
X99111Y-65152D02*
X99111Y-66097D01*
X69861Y-60097D02*
X69388Y-60097D01*
X69388Y-60097D02*
X69388Y-59152D01*
X69388Y-59152D02*
X69861Y-59152D01*
X69861Y-59152D02*
X69861Y-60097D01*
X72888Y-59152D02*
X73361Y-59152D01*
X73361Y-59152D02*
X73361Y-60097D01*
X73361Y-60097D02*
X72888Y-60097D01*
X72888Y-60097D02*
X72888Y-59152D01*
X97638Y-53152D02*
X98111Y-53152D01*
X98111Y-53152D02*
X98111Y-54097D01*
X98111Y-54097D02*
X97638Y-54097D01*
X97638Y-54097D02*
X97638Y-53152D01*
X94611Y-54097D02*
X94138Y-54097D01*
X94138Y-54097D02*
X94138Y-53152D01*
X94138Y-53152D02*
X94611Y-53152D01*
X94611Y-53152D02*
X94611Y-54097D01*
X76888Y-58652D02*
X77361Y-58652D01*
X77361Y-58652D02*
X77361Y-59597D01*
X77361Y-59597D02*
X76888Y-59597D01*
X76888Y-59597D02*
X76888Y-58652D01*
X76138Y-59402D02*
X76611Y-59402D01*
X76611Y-59402D02*
X76611Y-60347D01*
X76611Y-60347D02*
X76138Y-60347D01*
X76138Y-60347D02*
X76138Y-59402D01*
X103138Y-59402D02*
X103611Y-59402D01*
X103611Y-59402D02*
X103611Y-60347D01*
X103611Y-60347D02*
X103138Y-60347D01*
X103138Y-60347D02*
X103138Y-59402D01*
X67611Y-54097D02*
X67138Y-54097D01*
X67138Y-54097D02*
X67138Y-53152D01*
X67138Y-53152D02*
X67611Y-53152D01*
X67611Y-53152D02*
X67611Y-54097D01*
X70638Y-53152D02*
X71111Y-53152D01*
X71111Y-53152D02*
X71111Y-54097D01*
X71111Y-54097D02*
X70638Y-54097D01*
X70638Y-54097D02*
X70638Y-53152D01*
X103888Y-58652D02*
X104361Y-58652D01*
X104361Y-58652D02*
X104361Y-59597D01*
X104361Y-59597D02*
X103888Y-59597D01*
X103888Y-59597D02*
X103888Y-58652D01*
X99888Y-59152D02*
X100361Y-59152D01*
X100361Y-59152D02*
X100361Y-60097D01*
X100361Y-60097D02*
X99888Y-60097D01*
X99888Y-60097D02*
X99888Y-59152D01*
X75138Y-65152D02*
X75611Y-65152D01*
X75611Y-65152D02*
X75611Y-66097D01*
X75611Y-66097D02*
X75138Y-66097D01*
X75138Y-66097D02*
X75138Y-65152D01*
X72111Y-66097D02*
X71638Y-66097D01*
X71638Y-66097D02*
X71638Y-65152D01*
X71638Y-65152D02*
X72111Y-65152D01*
X72111Y-65152D02*
X72111Y-66097D01*
X95847Y-52758D02*
X95847Y-54491D01*
X95847Y-54491D02*
X94902Y-54491D01*
X94902Y-54491D02*
X94902Y-52758D01*
X94902Y-52758D02*
X95847Y-52758D01*
X100347Y-64758D02*
X100347Y-66491D01*
X100347Y-66491D02*
X99402Y-66491D01*
X99402Y-66491D02*
X99402Y-64758D01*
X99402Y-64758D02*
X100347Y-64758D01*
X95847Y-64758D02*
X95847Y-66491D01*
X95847Y-66491D02*
X94902Y-66491D01*
X94902Y-66491D02*
X94902Y-64758D01*
X94902Y-64758D02*
X95847Y-64758D01*
X90597Y-58758D02*
X90597Y-60491D01*
X90597Y-60491D02*
X89652Y-60491D01*
X89652Y-60491D02*
X89652Y-58758D01*
X89652Y-58758D02*
X90597Y-58758D01*
X97347Y-64758D02*
X97347Y-66491D01*
X97347Y-66491D02*
X96402Y-66491D01*
X96402Y-66491D02*
X96402Y-64758D01*
X96402Y-64758D02*
X97347Y-64758D01*
X101847Y-64758D02*
X101847Y-66491D01*
X101847Y-66491D02*
X100902Y-66491D01*
X100902Y-66491D02*
X100902Y-64758D01*
X100902Y-64758D02*
X101847Y-64758D01*
X89097Y-58758D02*
X89097Y-60491D01*
X89097Y-60491D02*
X88152Y-60491D01*
X88152Y-60491D02*
X88152Y-58758D01*
X88152Y-58758D02*
X89097Y-58758D01*
X99597Y-58758D02*
X99597Y-60491D01*
X99597Y-60491D02*
X98652Y-60491D01*
X98652Y-60491D02*
X98652Y-58758D01*
X98652Y-58758D02*
X99597Y-58758D01*
X93597Y-58758D02*
X93597Y-60491D01*
X93597Y-60491D02*
X92652Y-60491D01*
X92652Y-60491D02*
X92652Y-58758D01*
X92652Y-58758D02*
X93597Y-58758D01*
X92847Y-64758D02*
X92847Y-66491D01*
X92847Y-66491D02*
X91902Y-66491D01*
X91902Y-66491D02*
X91902Y-64758D01*
X91902Y-64758D02*
X92847Y-64758D01*
X100347Y-52758D02*
X100347Y-54491D01*
X100347Y-54491D02*
X99402Y-54491D01*
X99402Y-54491D02*
X99402Y-52758D01*
X99402Y-52758D02*
X100347Y-52758D01*
X98097Y-58758D02*
X98097Y-60491D01*
X98097Y-60491D02*
X97152Y-60491D01*
X97152Y-60491D02*
X97152Y-58758D01*
X97152Y-58758D02*
X98097Y-58758D01*
X97347Y-52758D02*
X97347Y-54491D01*
X97347Y-54491D02*
X96402Y-54491D01*
X96402Y-54491D02*
X96402Y-52758D01*
X96402Y-52758D02*
X97347Y-52758D01*
X88347Y-52758D02*
X88347Y-54491D01*
X88347Y-54491D02*
X87402Y-54491D01*
X87402Y-54491D02*
X87402Y-52758D01*
X87402Y-52758D02*
X88347Y-52758D01*
X86847Y-52758D02*
X86847Y-54491D01*
X86847Y-54491D02*
X85902Y-54491D01*
X85902Y-54491D02*
X85902Y-52758D01*
X85902Y-52758D02*
X86847Y-52758D01*
X91347Y-64758D02*
X91347Y-66491D01*
X91347Y-66491D02*
X90402Y-66491D01*
X90402Y-66491D02*
X90402Y-64758D01*
X90402Y-64758D02*
X91347Y-64758D01*
X102597Y-58758D02*
X102597Y-60491D01*
X102597Y-60491D02*
X101652Y-60491D01*
X101652Y-60491D02*
X101652Y-58758D01*
X101652Y-58758D02*
X102597Y-58758D01*
X88347Y-64758D02*
X88347Y-66491D01*
X88347Y-66491D02*
X87402Y-66491D01*
X87402Y-66491D02*
X87402Y-64758D01*
X87402Y-64758D02*
X88347Y-64758D01*
X68847Y-52758D02*
X68847Y-54491D01*
X68847Y-54491D02*
X67902Y-54491D01*
X67902Y-54491D02*
X67902Y-52758D01*
X67902Y-52758D02*
X68847Y-52758D01*
X70347Y-52758D02*
X70347Y-54491D01*
X70347Y-54491D02*
X69402Y-54491D01*
X69402Y-54491D02*
X69402Y-52758D01*
X69402Y-52758D02*
X70347Y-52758D01*
X74847Y-64758D02*
X74847Y-66491D01*
X74847Y-66491D02*
X73902Y-66491D01*
X73902Y-66491D02*
X73902Y-64758D01*
X73902Y-64758D02*
X74847Y-64758D01*
X73347Y-64758D02*
X73347Y-66491D01*
X73347Y-66491D02*
X72402Y-66491D01*
X72402Y-66491D02*
X72402Y-64758D01*
X72402Y-64758D02*
X73347Y-64758D01*
X75597Y-58758D02*
X75597Y-60491D01*
X75597Y-60491D02*
X74652Y-60491D01*
X74652Y-60491D02*
X74652Y-58758D01*
X74652Y-58758D02*
X75597Y-58758D01*
X82347Y-52758D02*
X82347Y-54491D01*
X82347Y-54491D02*
X81402Y-54491D01*
X81402Y-54491D02*
X81402Y-52758D01*
X81402Y-52758D02*
X82347Y-52758D01*
X79347Y-64758D02*
X79347Y-66491D01*
X79347Y-66491D02*
X78402Y-66491D01*
X78402Y-66491D02*
X78402Y-64758D01*
X78402Y-64758D02*
X79347Y-64758D01*
X77847Y-64758D02*
X77847Y-66491D01*
X77847Y-66491D02*
X76902Y-66491D01*
X76902Y-66491D02*
X76902Y-64758D01*
X76902Y-64758D02*
X77847Y-64758D01*
X71097Y-58758D02*
X71097Y-60491D01*
X71097Y-60491D02*
X70152Y-60491D01*
X70152Y-60491D02*
X70152Y-58758D01*
X70152Y-58758D02*
X71097Y-58758D01*
X81597Y-58758D02*
X81597Y-60491D01*
X81597Y-60491D02*
X80652Y-60491D01*
X80652Y-60491D02*
X80652Y-58758D01*
X80652Y-58758D02*
X81597Y-58758D01*
X80097Y-58758D02*
X80097Y-60491D01*
X80097Y-60491D02*
X79152Y-60491D01*
X79152Y-60491D02*
X79152Y-58758D01*
X79152Y-58758D02*
X80097Y-58758D01*
X72597Y-58758D02*
X72597Y-60491D01*
X72597Y-60491D02*
X71652Y-60491D01*
X71652Y-60491D02*
X71652Y-58758D01*
X71652Y-58758D02*
X72597Y-58758D01*
X84597Y-58758D02*
X84597Y-60491D01*
X84597Y-60491D02*
X83652Y-60491D01*
X83652Y-60491D02*
X83652Y-58758D01*
X83652Y-58758D02*
X84597Y-58758D01*
X79347Y-52758D02*
X79347Y-54491D01*
X79347Y-54491D02*
X78402Y-54491D01*
X78402Y-54491D02*
X78402Y-52758D01*
X78402Y-52758D02*
X79347Y-52758D01*
X68847Y-64758D02*
X68847Y-66491D01*
X68847Y-66491D02*
X67902Y-66491D01*
X67902Y-66491D02*
X67902Y-64758D01*
X67902Y-64758D02*
X68847Y-64758D01*
X77847Y-52758D02*
X77847Y-54491D01*
X77847Y-54491D02*
X76902Y-54491D01*
X76902Y-54491D02*
X76902Y-52758D01*
X76902Y-52758D02*
X77847Y-52758D01*
X70347Y-64758D02*
X70347Y-66491D01*
X70347Y-66491D02*
X69402Y-66491D01*
X69402Y-66491D02*
X69402Y-64758D01*
X69402Y-64758D02*
X70347Y-64758D01*
X83847Y-64758D02*
X83847Y-66491D01*
X83847Y-66491D02*
X82902Y-66491D01*
X82902Y-66491D02*
X82902Y-64758D01*
X82902Y-64758D02*
X83847Y-64758D01*
X86847Y-64758D02*
X86847Y-66491D01*
X86847Y-66491D02*
X85902Y-66491D01*
X85902Y-66491D02*
X85902Y-64758D01*
X85902Y-64758D02*
X86847Y-64758D01*
X73347Y-52758D02*
X73347Y-54491D01*
X73347Y-54491D02*
X72402Y-54491D01*
X72402Y-54491D02*
X72402Y-52758D01*
X72402Y-52758D02*
X73347Y-52758D01*
X91347Y-52758D02*
X91347Y-54491D01*
X91347Y-54491D02*
X90402Y-54491D01*
X90402Y-54491D02*
X90402Y-52758D01*
X90402Y-52758D02*
X91347Y-52758D01*
X82347Y-64758D02*
X82347Y-66491D01*
X82347Y-66491D02*
X81402Y-66491D01*
X81402Y-66491D02*
X81402Y-64758D01*
X81402Y-64758D02*
X82347Y-64758D01*
X70375Y-69225D02*
X67875Y-69225D01*
X67875Y-69225D02*
X67875Y-67525D01*
X67875Y-67525D02*
X70375Y-67525D01*
X70375Y-67525D02*
X70375Y-69225D01*
X74875Y-57225D02*
X72375Y-57225D01*
X72375Y-57225D02*
X72375Y-55525D01*
X72375Y-55525D02*
X74875Y-55525D01*
X74875Y-55525D02*
X74875Y-57225D01*
X70375Y-57225D02*
X67875Y-57225D01*
X67875Y-57225D02*
X67875Y-55525D01*
X67875Y-55525D02*
X70375Y-55525D01*
X70375Y-55525D02*
X70375Y-57225D01*
X101875Y-69225D02*
X99375Y-69225D01*
X99375Y-69225D02*
X99375Y-67525D01*
X99375Y-67525D02*
X101875Y-67525D01*
X101875Y-67525D02*
X101875Y-69225D01*
X104125Y-63225D02*
X101625Y-63225D01*
X101625Y-63225D02*
X101625Y-61525D01*
X101625Y-61525D02*
X104125Y-61525D01*
X104125Y-61525D02*
X104125Y-63225D01*
X72625Y-63225D02*
X70125Y-63225D01*
X70125Y-63225D02*
X70125Y-61525D01*
X70125Y-61525D02*
X72625Y-61525D01*
X72625Y-61525D02*
X72625Y-63225D01*
X77125Y-63225D02*
X74625Y-63225D01*
X74625Y-63225D02*
X74625Y-61525D01*
X74625Y-61525D02*
X77125Y-61525D01*
X77125Y-61525D02*
X77125Y-63225D01*
X97375Y-57225D02*
X94875Y-57225D01*
X94875Y-57225D02*
X94875Y-55525D01*
X94875Y-55525D02*
X97375Y-55525D01*
X97375Y-55525D02*
X97375Y-57225D01*
X99625Y-63225D02*
X97125Y-63225D01*
X97125Y-63225D02*
X97125Y-61525D01*
X97125Y-61525D02*
X99625Y-61525D01*
X99625Y-61525D02*
X99625Y-63225D01*
X74875Y-69225D02*
X72375Y-69225D01*
X72375Y-69225D02*
X72375Y-67525D01*
X72375Y-67525D02*
X74875Y-67525D01*
X74875Y-67525D02*
X74875Y-69225D01*
X83875Y-57225D02*
X81375Y-57225D01*
X81375Y-57225D02*
X81375Y-55525D01*
X81375Y-55525D02*
X83875Y-55525D01*
X83875Y-55525D02*
X83875Y-57225D01*
X97375Y-69225D02*
X94875Y-69225D01*
X94875Y-69225D02*
X94875Y-67525D01*
X94875Y-67525D02*
X97375Y-67525D01*
X97375Y-67525D02*
X97375Y-69225D01*
X79375Y-69225D02*
X76875Y-69225D01*
X76875Y-69225D02*
X76875Y-67525D01*
X76875Y-67525D02*
X79375Y-67525D01*
X79375Y-67525D02*
X79375Y-69225D01*
X101875Y-57225D02*
X99375Y-57225D01*
X99375Y-57225D02*
X99375Y-55525D01*
X99375Y-55525D02*
X101875Y-55525D01*
X101875Y-55525D02*
X101875Y-57225D01*
X81625Y-63225D02*
X79125Y-63225D01*
X79125Y-63225D02*
X79125Y-61525D01*
X79125Y-61525D02*
X81625Y-61525D01*
X81625Y-61525D02*
X81625Y-63225D01*
X92875Y-69225D02*
X90375Y-69225D01*
X90375Y-69225D02*
X90375Y-67525D01*
X90375Y-67525D02*
X92875Y-67525D01*
X92875Y-67525D02*
X92875Y-69225D01*
X86125Y-63225D02*
X83625Y-63225D01*
X83625Y-63225D02*
X83625Y-61525D01*
X83625Y-61525D02*
X86125Y-61525D01*
X86125Y-61525D02*
X86125Y-63225D01*
X79375Y-57225D02*
X76875Y-57225D01*
X76875Y-57225D02*
X76875Y-55525D01*
X76875Y-55525D02*
X79375Y-55525D01*
X79375Y-55525D02*
X79375Y-57225D01*
X88375Y-57225D02*
X85875Y-57225D01*
X85875Y-57225D02*
X85875Y-55525D01*
X85875Y-55525D02*
X88375Y-55525D01*
X88375Y-55525D02*
X88375Y-57225D01*
X83875Y-69225D02*
X81375Y-69225D01*
X81375Y-69225D02*
X81375Y-67525D01*
X81375Y-67525D02*
X83875Y-67525D01*
X83875Y-67525D02*
X83875Y-69225D01*
X95125Y-63225D02*
X92625Y-63225D01*
X92625Y-63225D02*
X92625Y-61525D01*
X92625Y-61525D02*
X95125Y-61525D01*
X95125Y-61525D02*
X95125Y-63225D01*
X92875Y-57225D02*
X90375Y-57225D01*
X90375Y-57225D02*
X90375Y-55525D01*
X90375Y-55525D02*
X92875Y-55525D01*
X92875Y-55525D02*
X92875Y-57225D01*
X88375Y-69225D02*
X85875Y-69225D01*
X85875Y-69225D02*
X85875Y-67525D01*
X85875Y-67525D02*
X88375Y-67525D01*
X88375Y-67525D02*
X88375Y-69225D01*
X90625Y-63225D02*
X88125Y-63225D01*
X88125Y-63225D02*
X88125Y-61525D01*
X88125Y-61525D02*
X90625Y-61525D01*
X90625Y-61525D02*
X90625Y-63225D01*
G54D13*
X94358Y-70908D02*
X94358Y-70208D01*
X94625Y-70208D01*
X94691Y-70241D01*
X94725Y-70275D01*
X94758Y-70341D01*
X94758Y-70441D01*
X94725Y-70508D01*
X94691Y-70541D01*
X94625Y-70575D01*
X94358Y-70575D01*
X95025Y-70275D02*
X95058Y-70241D01*
X95125Y-70208D01*
X95291Y-70208D01*
X95358Y-70241D01*
X95391Y-70275D01*
X95425Y-70341D01*
X95425Y-70408D01*
X95391Y-70508D01*
X94991Y-70908D01*
X95425Y-70908D01*
X96725Y-75341D02*
X96691Y-75375D01*
X96591Y-75408D01*
X96525Y-75408D01*
X96425Y-75375D01*
X96358Y-75308D01*
X96325Y-75241D01*
X96291Y-75108D01*
X96291Y-75008D01*
X96325Y-74875D01*
X96358Y-74808D01*
X96425Y-74741D01*
X96525Y-74708D01*
X96591Y-74708D01*
X96691Y-74741D01*
X96725Y-74775D01*
X97158Y-74708D02*
X97291Y-74708D01*
X97358Y-74741D01*
X97425Y-74808D01*
X97458Y-74941D01*
X97458Y-75175D01*
X97425Y-75308D01*
X97358Y-75375D01*
X97291Y-75408D01*
X97158Y-75408D01*
X97091Y-75375D01*
X97025Y-75308D01*
X96991Y-75175D01*
X96991Y-74941D01*
X97025Y-74808D01*
X97091Y-74741D01*
X97158Y-74708D01*
X97758Y-75408D02*
X97758Y-74708D01*
X98158Y-75408D01*
X98158Y-74708D01*
X98491Y-75408D02*
X98491Y-74708D01*
X98891Y-75408D01*
X98891Y-74708D01*
X99058Y-75475D02*
X99591Y-75475D01*
X100091Y-74708D02*
X99758Y-74708D01*
X99725Y-75041D01*
X99758Y-75008D01*
X99825Y-74975D01*
X99991Y-74975D01*
X100058Y-75008D01*
X100091Y-75041D01*
X100125Y-75108D01*
X100125Y-75275D01*
X100091Y-75341D01*
X100058Y-75375D01*
X99991Y-75408D01*
X99825Y-75408D01*
X99758Y-75375D01*
X99725Y-75341D01*
X100358Y-74708D02*
X100825Y-75408D01*
X100825Y-74708D02*
X100358Y-75408D01*
X101058Y-74775D02*
X101091Y-74741D01*
X101158Y-74708D01*
X101325Y-74708D01*
X101391Y-74741D01*
X101425Y-74775D01*
X101458Y-74841D01*
X101458Y-74908D01*
X101425Y-75008D01*
X101025Y-75408D01*
X101458Y-75408D01*
X86108Y-75158D02*
X86108Y-74458D01*
X86375Y-74458D01*
X86441Y-74491D01*
X86475Y-74525D01*
X86508Y-74591D01*
X86508Y-74691D01*
X86475Y-74758D01*
X86441Y-74791D01*
X86375Y-74825D01*
X86108Y-74825D01*
X87175Y-75158D02*
X86775Y-75158D01*
X86975Y-75158D02*
X86975Y-74458D01*
X86908Y-74558D01*
X86841Y-74625D01*
X86775Y-74658D01*
X77891Y-70341D02*
X77858Y-70375D01*
X77758Y-70408D01*
X77691Y-70408D01*
X77591Y-70375D01*
X77525Y-70308D01*
X77491Y-70241D01*
X77458Y-70108D01*
X77458Y-70008D01*
X77491Y-69875D01*
X77525Y-69808D01*
X77591Y-69741D01*
X77691Y-69708D01*
X77758Y-69708D01*
X77858Y-69741D01*
X77891Y-69775D01*
X78325Y-69708D02*
X78458Y-69708D01*
X78525Y-69741D01*
X78591Y-69808D01*
X78625Y-69941D01*
X78625Y-70175D01*
X78591Y-70308D01*
X78525Y-70375D01*
X78458Y-70408D01*
X78325Y-70408D01*
X78258Y-70375D01*
X78191Y-70308D01*
X78158Y-70175D01*
X78158Y-69941D01*
X78191Y-69808D01*
X78258Y-69741D01*
X78325Y-69708D01*
X78925Y-70408D02*
X78925Y-69708D01*
X79325Y-70408D01*
X79325Y-69708D01*
X79658Y-70408D02*
X79658Y-69708D01*
X80058Y-70408D01*
X80058Y-69708D01*
X80225Y-70475D02*
X80758Y-70475D01*
X81291Y-70408D02*
X80891Y-70408D01*
X81091Y-70408D02*
X81091Y-69708D01*
X81025Y-69808D01*
X80958Y-69875D01*
X80891Y-69908D01*
X81525Y-69708D02*
X81958Y-69708D01*
X81725Y-69975D01*
X81825Y-69975D01*
X81891Y-70008D01*
X81925Y-70041D01*
X81958Y-70108D01*
X81958Y-70275D01*
X81925Y-70341D01*
X81891Y-70375D01*
X81825Y-70408D01*
X81625Y-70408D01*
X81558Y-70375D01*
X81525Y-70341D01*
X82191Y-69708D02*
X82658Y-70408D01*
X82658Y-69708D02*
X82191Y-70408D01*
X82891Y-69775D02*
X82925Y-69741D01*
X82991Y-69708D01*
X83158Y-69708D01*
X83225Y-69741D01*
X83258Y-69775D01*
X83291Y-69841D01*
X83291Y-69908D01*
X83258Y-70008D01*
X82858Y-70408D01*
X83291Y-70408D01*
G54D14*
X83548Y-53181D02*
X83492Y-53220D01*
X83548Y-53248D02*
X83430Y-53248D01*
X83430Y-53203D01*
X83436Y-53192D01*
X83441Y-53186D01*
X83453Y-53181D01*
X83470Y-53181D01*
X83481Y-53186D01*
X83486Y-53192D01*
X83492Y-53203D01*
X83492Y-53248D01*
X83548Y-53068D02*
X83548Y-53136D01*
X83548Y-53102D02*
X83430Y-53102D01*
X83447Y-53113D01*
X83458Y-53125D01*
X83464Y-53136D01*
X83430Y-53029D02*
X83430Y-52956D01*
X83475Y-52995D01*
X83475Y-52978D01*
X83481Y-52967D01*
X83486Y-52961D01*
X83498Y-52956D01*
X83526Y-52956D01*
X83537Y-52961D01*
X83543Y-52967D01*
X83548Y-52978D01*
X83548Y-53012D01*
X83543Y-53023D01*
X83537Y-53029D01*
X84159Y-53164D02*
X84159Y-53220D01*
X84215Y-53226D01*
X84209Y-53220D01*
X84204Y-53209D01*
X84204Y-53181D01*
X84209Y-53169D01*
X84215Y-53164D01*
X84226Y-53158D01*
X84254Y-53158D01*
X84265Y-53164D01*
X84271Y-53169D01*
X84277Y-53181D01*
X84277Y-53209D01*
X84271Y-53220D01*
X84265Y-53226D01*
X84277Y-53108D02*
X84159Y-53108D01*
X84232Y-53096D02*
X84277Y-53063D01*
X84198Y-53063D02*
X84243Y-53108D01*
X88046Y-59720D02*
X87990Y-59759D01*
X88046Y-59788D02*
X87928Y-59788D01*
X87928Y-59743D01*
X87934Y-59731D01*
X87939Y-59726D01*
X87951Y-59720D01*
X87968Y-59720D01*
X87979Y-59726D01*
X87984Y-59731D01*
X87990Y-59743D01*
X87990Y-59788D01*
X87928Y-59681D02*
X87928Y-59608D01*
X87973Y-59647D01*
X87973Y-59630D01*
X87979Y-59619D01*
X87984Y-59613D01*
X87996Y-59608D01*
X88024Y-59608D01*
X88035Y-59613D01*
X88041Y-59619D01*
X88046Y-59630D01*
X88046Y-59664D01*
X88041Y-59675D01*
X88035Y-59681D01*
X87928Y-59535D02*
X87928Y-59523D01*
X87934Y-59512D01*
X87939Y-59506D01*
X87951Y-59501D01*
X87973Y-59495D01*
X88001Y-59495D01*
X88024Y-59501D01*
X88035Y-59506D01*
X88041Y-59512D01*
X88046Y-59523D01*
X88046Y-59535D01*
X88041Y-59546D01*
X88035Y-59551D01*
X88024Y-59557D01*
X88001Y-59563D01*
X87973Y-59563D01*
X87951Y-59557D01*
X87939Y-59551D01*
X87934Y-59546D01*
X87928Y-59535D01*
X87318Y-59619D02*
X87318Y-59686D01*
X87318Y-59653D02*
X87200Y-59653D01*
X87217Y-59664D01*
X87228Y-59675D01*
X87234Y-59686D01*
X87318Y-59568D02*
X87200Y-59568D01*
X87273Y-59557D02*
X87318Y-59523D01*
X87239Y-59523D02*
X87284Y-59568D01*
X82798Y-53931D02*
X82742Y-53970D01*
X82798Y-53998D02*
X82680Y-53998D01*
X82680Y-53953D01*
X82686Y-53942D01*
X82691Y-53936D01*
X82703Y-53931D01*
X82720Y-53931D01*
X82731Y-53936D01*
X82736Y-53942D01*
X82742Y-53953D01*
X82742Y-53998D01*
X82798Y-53818D02*
X82798Y-53886D01*
X82798Y-53852D02*
X82680Y-53852D01*
X82697Y-53863D01*
X82708Y-53875D01*
X82714Y-53886D01*
X82720Y-53717D02*
X82798Y-53717D01*
X82675Y-53745D02*
X82759Y-53773D01*
X82759Y-53700D01*
X83527Y-53964D02*
X83527Y-54032D01*
X83527Y-53998D02*
X83409Y-53998D01*
X83425Y-54009D01*
X83437Y-54021D01*
X83442Y-54032D01*
X83409Y-53891D02*
X83409Y-53880D01*
X83414Y-53869D01*
X83420Y-53863D01*
X83431Y-53858D01*
X83454Y-53852D01*
X83482Y-53852D01*
X83504Y-53858D01*
X83515Y-53863D01*
X83521Y-53869D01*
X83527Y-53880D01*
X83527Y-53891D01*
X83521Y-53903D01*
X83515Y-53908D01*
X83504Y-53914D01*
X83482Y-53919D01*
X83454Y-53919D01*
X83431Y-53914D01*
X83420Y-53908D01*
X83414Y-53903D01*
X83409Y-53891D01*
X83527Y-53801D02*
X83409Y-53801D01*
X83482Y-53790D02*
X83527Y-53756D01*
X83448Y-53756D02*
X83493Y-53801D01*
X97548Y-65681D02*
X97492Y-65720D01*
X97548Y-65748D02*
X97430Y-65748D01*
X97430Y-65703D01*
X97436Y-65692D01*
X97441Y-65686D01*
X97453Y-65681D01*
X97470Y-65681D01*
X97481Y-65686D01*
X97486Y-65692D01*
X97492Y-65703D01*
X97492Y-65748D01*
X97430Y-65641D02*
X97430Y-65568D01*
X97475Y-65608D01*
X97475Y-65591D01*
X97481Y-65580D01*
X97486Y-65574D01*
X97498Y-65568D01*
X97526Y-65568D01*
X97537Y-65574D01*
X97543Y-65580D01*
X97548Y-65591D01*
X97548Y-65625D01*
X97543Y-65636D01*
X97537Y-65641D01*
X97548Y-65512D02*
X97548Y-65490D01*
X97543Y-65478D01*
X97537Y-65473D01*
X97520Y-65461D01*
X97498Y-65456D01*
X97453Y-65456D01*
X97441Y-65461D01*
X97436Y-65467D01*
X97430Y-65478D01*
X97430Y-65501D01*
X97436Y-65512D01*
X97441Y-65518D01*
X97453Y-65523D01*
X97481Y-65523D01*
X97492Y-65518D01*
X97498Y-65512D01*
X97503Y-65501D01*
X97503Y-65478D01*
X97498Y-65467D01*
X97492Y-65461D01*
X97481Y-65456D01*
X98277Y-65658D02*
X98277Y-65726D01*
X98277Y-65692D02*
X98159Y-65692D01*
X98175Y-65703D01*
X98187Y-65714D01*
X98192Y-65726D01*
X98277Y-65608D02*
X98159Y-65608D01*
X98232Y-65596D02*
X98277Y-65563D01*
X98198Y-65563D02*
X98243Y-65608D01*
X76796Y-65720D02*
X76740Y-65759D01*
X76796Y-65788D02*
X76678Y-65788D01*
X76678Y-65743D01*
X76684Y-65731D01*
X76689Y-65726D01*
X76701Y-65720D01*
X76718Y-65720D01*
X76729Y-65726D01*
X76734Y-65731D01*
X76740Y-65743D01*
X76740Y-65788D01*
X76796Y-65608D02*
X76796Y-65675D01*
X76796Y-65641D02*
X76678Y-65641D01*
X76695Y-65653D01*
X76706Y-65664D01*
X76712Y-65675D01*
X76678Y-65506D02*
X76678Y-65529D01*
X76684Y-65540D01*
X76689Y-65546D01*
X76706Y-65557D01*
X76729Y-65563D01*
X76774Y-65563D01*
X76785Y-65557D01*
X76791Y-65551D01*
X76796Y-65540D01*
X76796Y-65518D01*
X76791Y-65506D01*
X76785Y-65501D01*
X76774Y-65495D01*
X76746Y-65495D01*
X76734Y-65501D01*
X76729Y-65506D01*
X76723Y-65518D01*
X76723Y-65540D01*
X76729Y-65551D01*
X76734Y-65557D01*
X76746Y-65563D01*
X76068Y-65619D02*
X76068Y-65686D01*
X76068Y-65653D02*
X75950Y-65653D01*
X75967Y-65664D01*
X75978Y-65675D01*
X75984Y-65686D01*
X76068Y-65568D02*
X75950Y-65568D01*
X76023Y-65557D02*
X76068Y-65523D01*
X75989Y-65523D02*
X76034Y-65568D01*
X79548Y-65681D02*
X79492Y-65720D01*
X79548Y-65748D02*
X79430Y-65748D01*
X79430Y-65703D01*
X79436Y-65692D01*
X79441Y-65686D01*
X79453Y-65681D01*
X79470Y-65681D01*
X79481Y-65686D01*
X79486Y-65692D01*
X79492Y-65703D01*
X79492Y-65748D01*
X79548Y-65568D02*
X79548Y-65636D01*
X79548Y-65602D02*
X79430Y-65602D01*
X79447Y-65613D01*
X79458Y-65625D01*
X79464Y-65636D01*
X79430Y-65461D02*
X79430Y-65518D01*
X79486Y-65523D01*
X79481Y-65518D01*
X79475Y-65506D01*
X79475Y-65478D01*
X79481Y-65467D01*
X79486Y-65461D01*
X79498Y-65456D01*
X79526Y-65456D01*
X79537Y-65461D01*
X79543Y-65467D01*
X79548Y-65478D01*
X79548Y-65506D01*
X79543Y-65518D01*
X79537Y-65523D01*
X80277Y-65658D02*
X80277Y-65726D01*
X80277Y-65692D02*
X80159Y-65692D01*
X80175Y-65703D01*
X80187Y-65714D01*
X80192Y-65726D01*
X80277Y-65608D02*
X80159Y-65608D01*
X80232Y-65596D02*
X80277Y-65563D01*
X80198Y-65563D02*
X80243Y-65608D01*
X94796Y-65720D02*
X94740Y-65759D01*
X94796Y-65788D02*
X94678Y-65788D01*
X94678Y-65743D01*
X94684Y-65731D01*
X94689Y-65726D01*
X94701Y-65720D01*
X94718Y-65720D01*
X94729Y-65726D01*
X94734Y-65731D01*
X94740Y-65743D01*
X94740Y-65788D01*
X94718Y-65619D02*
X94796Y-65619D01*
X94673Y-65647D02*
X94757Y-65675D01*
X94757Y-65602D01*
X94678Y-65535D02*
X94678Y-65523D01*
X94684Y-65512D01*
X94689Y-65506D01*
X94701Y-65501D01*
X94723Y-65495D01*
X94751Y-65495D01*
X94774Y-65501D01*
X94785Y-65506D01*
X94791Y-65512D01*
X94796Y-65523D01*
X94796Y-65535D01*
X94791Y-65546D01*
X94785Y-65551D01*
X94774Y-65557D01*
X94751Y-65563D01*
X94723Y-65563D01*
X94701Y-65557D01*
X94689Y-65551D01*
X94684Y-65546D01*
X94678Y-65535D01*
X94068Y-65619D02*
X94068Y-65686D01*
X94068Y-65653D02*
X93950Y-65653D01*
X93967Y-65664D01*
X93978Y-65675D01*
X93984Y-65686D01*
X94068Y-65568D02*
X93950Y-65568D01*
X94023Y-65557D02*
X94068Y-65523D01*
X93989Y-65523D02*
X94034Y-65568D01*
X100798Y-53931D02*
X100742Y-53970D01*
X100798Y-53998D02*
X100680Y-53998D01*
X100680Y-53953D01*
X100686Y-53942D01*
X100691Y-53936D01*
X100703Y-53931D01*
X100720Y-53931D01*
X100731Y-53936D01*
X100736Y-53942D01*
X100742Y-53953D01*
X100742Y-53998D01*
X100680Y-53891D02*
X100680Y-53818D01*
X100725Y-53858D01*
X100725Y-53841D01*
X100731Y-53830D01*
X100736Y-53824D01*
X100748Y-53818D01*
X100776Y-53818D01*
X100787Y-53824D01*
X100793Y-53830D01*
X100798Y-53841D01*
X100798Y-53875D01*
X100793Y-53886D01*
X100787Y-53891D01*
X100731Y-53751D02*
X100725Y-53762D01*
X100720Y-53768D01*
X100708Y-53773D01*
X100703Y-53773D01*
X100691Y-53768D01*
X100686Y-53762D01*
X100680Y-53751D01*
X100680Y-53728D01*
X100686Y-53717D01*
X100691Y-53711D01*
X100703Y-53706D01*
X100708Y-53706D01*
X100720Y-53711D01*
X100725Y-53717D01*
X100731Y-53728D01*
X100731Y-53751D01*
X100736Y-53762D01*
X100742Y-53768D01*
X100753Y-53773D01*
X100776Y-53773D01*
X100787Y-53768D01*
X100793Y-53762D01*
X100798Y-53751D01*
X100798Y-53728D01*
X100793Y-53717D01*
X100787Y-53711D01*
X100776Y-53706D01*
X100753Y-53706D01*
X100742Y-53711D01*
X100736Y-53717D01*
X100731Y-53728D01*
X101527Y-53964D02*
X101527Y-54032D01*
X101527Y-53998D02*
X101409Y-53998D01*
X101425Y-54009D01*
X101437Y-54021D01*
X101442Y-54032D01*
X101409Y-53891D02*
X101409Y-53880D01*
X101414Y-53869D01*
X101420Y-53863D01*
X101431Y-53858D01*
X101454Y-53852D01*
X101482Y-53852D01*
X101504Y-53858D01*
X101515Y-53863D01*
X101521Y-53869D01*
X101527Y-53880D01*
X101527Y-53891D01*
X101521Y-53903D01*
X101515Y-53908D01*
X101504Y-53914D01*
X101482Y-53919D01*
X101454Y-53919D01*
X101431Y-53914D01*
X101420Y-53908D01*
X101414Y-53903D01*
X101409Y-53891D01*
X101527Y-53801D02*
X101409Y-53801D01*
X101482Y-53790D02*
X101527Y-53756D01*
X101448Y-53756D02*
X101493Y-53801D01*
X79046Y-59720D02*
X78990Y-59759D01*
X79046Y-59788D02*
X78928Y-59788D01*
X78928Y-59743D01*
X78934Y-59731D01*
X78939Y-59726D01*
X78951Y-59720D01*
X78968Y-59720D01*
X78979Y-59726D01*
X78984Y-59731D01*
X78990Y-59743D01*
X78990Y-59788D01*
X79046Y-59608D02*
X79046Y-59675D01*
X79046Y-59641D02*
X78928Y-59641D01*
X78945Y-59653D01*
X78956Y-59664D01*
X78962Y-59675D01*
X78979Y-59540D02*
X78973Y-59551D01*
X78968Y-59557D01*
X78956Y-59563D01*
X78951Y-59563D01*
X78939Y-59557D01*
X78934Y-59551D01*
X78928Y-59540D01*
X78928Y-59518D01*
X78934Y-59506D01*
X78939Y-59501D01*
X78951Y-59495D01*
X78956Y-59495D01*
X78968Y-59501D01*
X78973Y-59506D01*
X78979Y-59518D01*
X78979Y-59540D01*
X78984Y-59551D01*
X78990Y-59557D01*
X79001Y-59563D01*
X79024Y-59563D01*
X79035Y-59557D01*
X79041Y-59551D01*
X79046Y-59540D01*
X79046Y-59518D01*
X79041Y-59506D01*
X79035Y-59501D01*
X79024Y-59495D01*
X79001Y-59495D01*
X78990Y-59501D01*
X78984Y-59506D01*
X78979Y-59518D01*
X78318Y-59619D02*
X78318Y-59686D01*
X78318Y-59653D02*
X78200Y-59653D01*
X78217Y-59664D01*
X78228Y-59675D01*
X78234Y-59686D01*
X78318Y-59568D02*
X78200Y-59568D01*
X78273Y-59557D02*
X78318Y-59523D01*
X78239Y-59523D02*
X78284Y-59568D01*
X81798Y-59681D02*
X81742Y-59720D01*
X81798Y-59748D02*
X81680Y-59748D01*
X81680Y-59703D01*
X81686Y-59692D01*
X81691Y-59686D01*
X81703Y-59681D01*
X81720Y-59681D01*
X81731Y-59686D01*
X81736Y-59692D01*
X81742Y-59703D01*
X81742Y-59748D01*
X81798Y-59568D02*
X81798Y-59636D01*
X81798Y-59602D02*
X81680Y-59602D01*
X81697Y-59613D01*
X81708Y-59625D01*
X81714Y-59636D01*
X81680Y-59529D02*
X81680Y-59450D01*
X81798Y-59501D01*
X82527Y-59658D02*
X82527Y-59726D01*
X82527Y-59692D02*
X82409Y-59692D01*
X82425Y-59703D01*
X82437Y-59714D01*
X82442Y-59726D01*
X82527Y-59608D02*
X82409Y-59608D01*
X82482Y-59596D02*
X82527Y-59563D01*
X82448Y-59563D02*
X82493Y-59608D01*
X101548Y-53181D02*
X101492Y-53220D01*
X101548Y-53248D02*
X101430Y-53248D01*
X101430Y-53203D01*
X101436Y-53192D01*
X101441Y-53186D01*
X101453Y-53181D01*
X101470Y-53181D01*
X101481Y-53186D01*
X101486Y-53192D01*
X101492Y-53203D01*
X101492Y-53248D01*
X101430Y-53141D02*
X101430Y-53068D01*
X101475Y-53108D01*
X101475Y-53091D01*
X101481Y-53080D01*
X101486Y-53074D01*
X101498Y-53068D01*
X101526Y-53068D01*
X101537Y-53074D01*
X101543Y-53080D01*
X101548Y-53091D01*
X101548Y-53125D01*
X101543Y-53136D01*
X101537Y-53141D01*
X101430Y-53029D02*
X101430Y-52950D01*
X101548Y-53001D01*
X102159Y-53164D02*
X102159Y-53220D01*
X102215Y-53226D01*
X102209Y-53220D01*
X102204Y-53209D01*
X102204Y-53181D01*
X102209Y-53169D01*
X102215Y-53164D01*
X102226Y-53158D01*
X102254Y-53158D01*
X102265Y-53164D01*
X102271Y-53169D01*
X102277Y-53181D01*
X102277Y-53209D01*
X102271Y-53220D01*
X102265Y-53226D01*
X102277Y-53108D02*
X102159Y-53108D01*
X102232Y-53096D02*
X102277Y-53063D01*
X102198Y-53063D02*
X102243Y-53108D01*
X85798Y-59181D02*
X85742Y-59220D01*
X85798Y-59248D02*
X85680Y-59248D01*
X85680Y-59203D01*
X85686Y-59192D01*
X85691Y-59186D01*
X85703Y-59181D01*
X85720Y-59181D01*
X85731Y-59186D01*
X85736Y-59192D01*
X85742Y-59203D01*
X85742Y-59248D01*
X85798Y-59068D02*
X85798Y-59136D01*
X85798Y-59102D02*
X85680Y-59102D01*
X85697Y-59113D01*
X85708Y-59125D01*
X85714Y-59136D01*
X85798Y-59012D02*
X85798Y-58990D01*
X85793Y-58978D01*
X85787Y-58973D01*
X85770Y-58961D01*
X85748Y-58956D01*
X85703Y-58956D01*
X85691Y-58961D01*
X85686Y-58967D01*
X85680Y-58978D01*
X85680Y-59001D01*
X85686Y-59012D01*
X85691Y-59018D01*
X85703Y-59023D01*
X85731Y-59023D01*
X85742Y-59018D01*
X85748Y-59012D01*
X85753Y-59001D01*
X85753Y-58978D01*
X85748Y-58967D01*
X85742Y-58961D01*
X85731Y-58956D01*
X86409Y-59164D02*
X86409Y-59220D01*
X86465Y-59226D01*
X86459Y-59220D01*
X86454Y-59209D01*
X86454Y-59181D01*
X86459Y-59169D01*
X86465Y-59164D01*
X86476Y-59158D01*
X86504Y-59158D01*
X86515Y-59164D01*
X86521Y-59169D01*
X86527Y-59181D01*
X86527Y-59209D01*
X86521Y-59220D01*
X86515Y-59226D01*
X86527Y-59108D02*
X86409Y-59108D01*
X86482Y-59096D02*
X86527Y-59063D01*
X86448Y-59063D02*
X86493Y-59108D01*
X85048Y-59931D02*
X84992Y-59970D01*
X85048Y-59998D02*
X84930Y-59998D01*
X84930Y-59953D01*
X84936Y-59942D01*
X84941Y-59936D01*
X84953Y-59931D01*
X84970Y-59931D01*
X84981Y-59936D01*
X84986Y-59942D01*
X84992Y-59953D01*
X84992Y-59998D01*
X84941Y-59886D02*
X84936Y-59880D01*
X84930Y-59869D01*
X84930Y-59841D01*
X84936Y-59830D01*
X84941Y-59824D01*
X84953Y-59818D01*
X84964Y-59818D01*
X84981Y-59824D01*
X85048Y-59891D01*
X85048Y-59818D01*
X84930Y-59745D02*
X84930Y-59734D01*
X84936Y-59723D01*
X84941Y-59717D01*
X84953Y-59711D01*
X84975Y-59706D01*
X85003Y-59706D01*
X85026Y-59711D01*
X85037Y-59717D01*
X85043Y-59723D01*
X85048Y-59734D01*
X85048Y-59745D01*
X85043Y-59756D01*
X85037Y-59762D01*
X85026Y-59768D01*
X85003Y-59773D01*
X84975Y-59773D01*
X84953Y-59768D01*
X84941Y-59762D01*
X84936Y-59756D01*
X84930Y-59745D01*
X85777Y-59964D02*
X85777Y-60032D01*
X85777Y-59998D02*
X85659Y-59998D01*
X85675Y-60009D01*
X85687Y-60021D01*
X85692Y-60032D01*
X85659Y-59891D02*
X85659Y-59880D01*
X85664Y-59869D01*
X85670Y-59863D01*
X85681Y-59858D01*
X85704Y-59852D01*
X85732Y-59852D01*
X85754Y-59858D01*
X85765Y-59863D01*
X85771Y-59869D01*
X85777Y-59880D01*
X85777Y-59891D01*
X85771Y-59903D01*
X85765Y-59908D01*
X85754Y-59914D01*
X85732Y-59919D01*
X85704Y-59919D01*
X85681Y-59914D01*
X85670Y-59908D01*
X85664Y-59903D01*
X85659Y-59891D01*
X85777Y-59801D02*
X85659Y-59801D01*
X85732Y-59790D02*
X85777Y-59756D01*
X85698Y-59756D02*
X85743Y-59801D01*
X93048Y-65681D02*
X92992Y-65720D01*
X93048Y-65748D02*
X92930Y-65748D01*
X92930Y-65703D01*
X92936Y-65692D01*
X92941Y-65686D01*
X92953Y-65681D01*
X92970Y-65681D01*
X92981Y-65686D01*
X92986Y-65692D01*
X92992Y-65703D01*
X92992Y-65748D01*
X92930Y-65641D02*
X92930Y-65568D01*
X92975Y-65608D01*
X92975Y-65591D01*
X92981Y-65580D01*
X92986Y-65574D01*
X92998Y-65568D01*
X93026Y-65568D01*
X93037Y-65574D01*
X93043Y-65580D01*
X93048Y-65591D01*
X93048Y-65625D01*
X93043Y-65636D01*
X93037Y-65641D01*
X92930Y-65461D02*
X92930Y-65518D01*
X92986Y-65523D01*
X92981Y-65518D01*
X92975Y-65506D01*
X92975Y-65478D01*
X92981Y-65467D01*
X92986Y-65461D01*
X92998Y-65456D01*
X93026Y-65456D01*
X93037Y-65461D01*
X93043Y-65467D01*
X93048Y-65478D01*
X93048Y-65506D01*
X93043Y-65518D01*
X93037Y-65523D01*
X93777Y-65658D02*
X93777Y-65726D01*
X93777Y-65692D02*
X93659Y-65692D01*
X93675Y-65703D01*
X93687Y-65714D01*
X93692Y-65726D01*
X93777Y-65608D02*
X93659Y-65608D01*
X93732Y-65596D02*
X93777Y-65563D01*
X93698Y-65563D02*
X93743Y-65608D01*
X90296Y-65720D02*
X90240Y-65759D01*
X90296Y-65788D02*
X90178Y-65788D01*
X90178Y-65743D01*
X90184Y-65731D01*
X90189Y-65726D01*
X90201Y-65720D01*
X90218Y-65720D01*
X90229Y-65726D01*
X90234Y-65731D01*
X90240Y-65743D01*
X90240Y-65788D01*
X90178Y-65681D02*
X90178Y-65608D01*
X90223Y-65647D01*
X90223Y-65630D01*
X90229Y-65619D01*
X90234Y-65613D01*
X90246Y-65608D01*
X90274Y-65608D01*
X90285Y-65613D01*
X90291Y-65619D01*
X90296Y-65630D01*
X90296Y-65664D01*
X90291Y-65675D01*
X90285Y-65681D01*
X90178Y-65506D02*
X90178Y-65529D01*
X90184Y-65540D01*
X90189Y-65546D01*
X90206Y-65557D01*
X90229Y-65563D01*
X90274Y-65563D01*
X90285Y-65557D01*
X90291Y-65551D01*
X90296Y-65540D01*
X90296Y-65518D01*
X90291Y-65506D01*
X90285Y-65501D01*
X90274Y-65495D01*
X90246Y-65495D01*
X90234Y-65501D01*
X90229Y-65506D01*
X90223Y-65518D01*
X90223Y-65540D01*
X90229Y-65551D01*
X90234Y-65557D01*
X90246Y-65563D01*
X89568Y-65619D02*
X89568Y-65686D01*
X89568Y-65653D02*
X89450Y-65653D01*
X89467Y-65664D01*
X89478Y-65675D01*
X89484Y-65686D01*
X89568Y-65568D02*
X89450Y-65568D01*
X89523Y-65557D02*
X89568Y-65523D01*
X89489Y-65523D02*
X89534Y-65568D01*
X76796Y-53720D02*
X76740Y-53759D01*
X76796Y-53788D02*
X76678Y-53788D01*
X76678Y-53743D01*
X76684Y-53731D01*
X76689Y-53726D01*
X76701Y-53720D01*
X76718Y-53720D01*
X76729Y-53726D01*
X76734Y-53731D01*
X76740Y-53743D01*
X76740Y-53788D01*
X76689Y-53675D02*
X76684Y-53669D01*
X76678Y-53658D01*
X76678Y-53630D01*
X76684Y-53619D01*
X76689Y-53613D01*
X76701Y-53608D01*
X76712Y-53608D01*
X76729Y-53613D01*
X76796Y-53681D01*
X76796Y-53608D01*
X76689Y-53563D02*
X76684Y-53557D01*
X76678Y-53546D01*
X76678Y-53518D01*
X76684Y-53506D01*
X76689Y-53501D01*
X76701Y-53495D01*
X76712Y-53495D01*
X76729Y-53501D01*
X76796Y-53568D01*
X76796Y-53495D01*
X76068Y-53619D02*
X76068Y-53686D01*
X76068Y-53653D02*
X75950Y-53653D01*
X75967Y-53664D01*
X75978Y-53675D01*
X75984Y-53686D01*
X76068Y-53568D02*
X75950Y-53568D01*
X76023Y-53557D02*
X76068Y-53523D01*
X75989Y-53523D02*
X76034Y-53568D01*
X79548Y-53681D02*
X79492Y-53720D01*
X79548Y-53748D02*
X79430Y-53748D01*
X79430Y-53703D01*
X79436Y-53692D01*
X79441Y-53686D01*
X79453Y-53681D01*
X79470Y-53681D01*
X79481Y-53686D01*
X79486Y-53692D01*
X79492Y-53703D01*
X79492Y-53748D01*
X79441Y-53636D02*
X79436Y-53630D01*
X79430Y-53619D01*
X79430Y-53591D01*
X79436Y-53580D01*
X79441Y-53574D01*
X79453Y-53568D01*
X79464Y-53568D01*
X79481Y-53574D01*
X79548Y-53641D01*
X79548Y-53568D01*
X79548Y-53456D02*
X79548Y-53523D01*
X79548Y-53490D02*
X79430Y-53490D01*
X79447Y-53501D01*
X79458Y-53512D01*
X79464Y-53523D01*
X80277Y-53658D02*
X80277Y-53726D01*
X80277Y-53692D02*
X80159Y-53692D01*
X80175Y-53703D01*
X80187Y-53714D01*
X80192Y-53726D01*
X80277Y-53608D02*
X80159Y-53608D01*
X80232Y-53596D02*
X80277Y-53563D01*
X80198Y-53563D02*
X80243Y-53608D01*
X88548Y-53681D02*
X88492Y-53720D01*
X88548Y-53748D02*
X88430Y-53748D01*
X88430Y-53703D01*
X88436Y-53692D01*
X88441Y-53686D01*
X88453Y-53681D01*
X88470Y-53681D01*
X88481Y-53686D01*
X88486Y-53692D01*
X88492Y-53703D01*
X88492Y-53748D01*
X88430Y-53641D02*
X88430Y-53568D01*
X88475Y-53608D01*
X88475Y-53591D01*
X88481Y-53580D01*
X88486Y-53574D01*
X88498Y-53568D01*
X88526Y-53568D01*
X88537Y-53574D01*
X88543Y-53580D01*
X88548Y-53591D01*
X88548Y-53625D01*
X88543Y-53636D01*
X88537Y-53641D01*
X88430Y-53529D02*
X88430Y-53456D01*
X88475Y-53495D01*
X88475Y-53478D01*
X88481Y-53467D01*
X88486Y-53461D01*
X88498Y-53456D01*
X88526Y-53456D01*
X88537Y-53461D01*
X88543Y-53467D01*
X88548Y-53478D01*
X88548Y-53512D01*
X88543Y-53523D01*
X88537Y-53529D01*
X89277Y-53658D02*
X89277Y-53726D01*
X89277Y-53692D02*
X89159Y-53692D01*
X89175Y-53703D01*
X89187Y-53714D01*
X89192Y-53726D01*
X89277Y-53608D02*
X89159Y-53608D01*
X89232Y-53596D02*
X89277Y-53563D01*
X89198Y-53563D02*
X89243Y-53608D01*
X81296Y-65720D02*
X81240Y-65759D01*
X81296Y-65788D02*
X81178Y-65788D01*
X81178Y-65743D01*
X81184Y-65731D01*
X81189Y-65726D01*
X81201Y-65720D01*
X81218Y-65720D01*
X81229Y-65726D01*
X81234Y-65731D01*
X81240Y-65743D01*
X81240Y-65788D01*
X81189Y-65675D02*
X81184Y-65669D01*
X81178Y-65658D01*
X81178Y-65630D01*
X81184Y-65619D01*
X81189Y-65613D01*
X81201Y-65608D01*
X81212Y-65608D01*
X81229Y-65613D01*
X81296Y-65681D01*
X81296Y-65608D01*
X81218Y-65506D02*
X81296Y-65506D01*
X81173Y-65535D02*
X81257Y-65563D01*
X81257Y-65490D01*
X80568Y-65619D02*
X80568Y-65686D01*
X80568Y-65653D02*
X80450Y-65653D01*
X80467Y-65664D01*
X80478Y-65675D01*
X80484Y-65686D01*
X80568Y-65568D02*
X80450Y-65568D01*
X80523Y-65557D02*
X80568Y-65523D01*
X80489Y-65523D02*
X80534Y-65568D01*
X84048Y-65681D02*
X83992Y-65720D01*
X84048Y-65748D02*
X83930Y-65748D01*
X83930Y-65703D01*
X83936Y-65692D01*
X83941Y-65686D01*
X83953Y-65681D01*
X83970Y-65681D01*
X83981Y-65686D01*
X83986Y-65692D01*
X83992Y-65703D01*
X83992Y-65748D01*
X83941Y-65636D02*
X83936Y-65630D01*
X83930Y-65619D01*
X83930Y-65591D01*
X83936Y-65580D01*
X83941Y-65574D01*
X83953Y-65568D01*
X83964Y-65568D01*
X83981Y-65574D01*
X84048Y-65641D01*
X84048Y-65568D01*
X83930Y-65529D02*
X83930Y-65456D01*
X83975Y-65495D01*
X83975Y-65478D01*
X83981Y-65467D01*
X83986Y-65461D01*
X83998Y-65456D01*
X84026Y-65456D01*
X84037Y-65461D01*
X84043Y-65467D01*
X84048Y-65478D01*
X84048Y-65512D01*
X84043Y-65523D01*
X84037Y-65529D01*
X84777Y-65658D02*
X84777Y-65726D01*
X84777Y-65692D02*
X84659Y-65692D01*
X84675Y-65703D01*
X84687Y-65714D01*
X84692Y-65726D01*
X84777Y-65608D02*
X84659Y-65608D01*
X84732Y-65596D02*
X84777Y-65563D01*
X84698Y-65563D02*
X84743Y-65608D01*
X85796Y-53720D02*
X85740Y-53759D01*
X85796Y-53788D02*
X85678Y-53788D01*
X85678Y-53743D01*
X85684Y-53731D01*
X85689Y-53726D01*
X85701Y-53720D01*
X85718Y-53720D01*
X85729Y-53726D01*
X85734Y-53731D01*
X85740Y-53743D01*
X85740Y-53788D01*
X85678Y-53681D02*
X85678Y-53608D01*
X85723Y-53647D01*
X85723Y-53630D01*
X85729Y-53619D01*
X85734Y-53613D01*
X85746Y-53608D01*
X85774Y-53608D01*
X85785Y-53613D01*
X85791Y-53619D01*
X85796Y-53630D01*
X85796Y-53664D01*
X85791Y-53675D01*
X85785Y-53681D01*
X85718Y-53506D02*
X85796Y-53506D01*
X85673Y-53535D02*
X85757Y-53563D01*
X85757Y-53490D01*
X85068Y-53619D02*
X85068Y-53686D01*
X85068Y-53653D02*
X84950Y-53653D01*
X84967Y-53664D01*
X84978Y-53675D01*
X84984Y-53686D01*
X85068Y-53568D02*
X84950Y-53568D01*
X85023Y-53557D02*
X85068Y-53523D01*
X84989Y-53523D02*
X85034Y-53568D01*
X94048Y-59931D02*
X93992Y-59970D01*
X94048Y-59998D02*
X93930Y-59998D01*
X93930Y-59953D01*
X93936Y-59942D01*
X93941Y-59936D01*
X93953Y-59931D01*
X93970Y-59931D01*
X93981Y-59936D01*
X93986Y-59942D01*
X93992Y-59953D01*
X93992Y-59998D01*
X93930Y-59891D02*
X93930Y-59818D01*
X93975Y-59858D01*
X93975Y-59841D01*
X93981Y-59830D01*
X93986Y-59824D01*
X93998Y-59818D01*
X94026Y-59818D01*
X94037Y-59824D01*
X94043Y-59830D01*
X94048Y-59841D01*
X94048Y-59875D01*
X94043Y-59886D01*
X94037Y-59891D01*
X93941Y-59773D02*
X93936Y-59768D01*
X93930Y-59756D01*
X93930Y-59728D01*
X93936Y-59717D01*
X93941Y-59711D01*
X93953Y-59706D01*
X93964Y-59706D01*
X93981Y-59711D01*
X94048Y-59779D01*
X94048Y-59706D01*
X94777Y-59964D02*
X94777Y-60032D01*
X94777Y-59998D02*
X94659Y-59998D01*
X94675Y-60009D01*
X94687Y-60021D01*
X94692Y-60032D01*
X94659Y-59891D02*
X94659Y-59880D01*
X94664Y-59869D01*
X94670Y-59863D01*
X94681Y-59858D01*
X94704Y-59852D01*
X94732Y-59852D01*
X94754Y-59858D01*
X94765Y-59863D01*
X94771Y-59869D01*
X94777Y-59880D01*
X94777Y-59891D01*
X94771Y-59903D01*
X94765Y-59908D01*
X94754Y-59914D01*
X94732Y-59919D01*
X94704Y-59919D01*
X94681Y-59914D01*
X94670Y-59908D01*
X94664Y-59903D01*
X94659Y-59891D01*
X94777Y-59801D02*
X94659Y-59801D01*
X94732Y-59790D02*
X94777Y-59756D01*
X94698Y-59756D02*
X94743Y-59801D01*
X92548Y-53181D02*
X92492Y-53220D01*
X92548Y-53248D02*
X92430Y-53248D01*
X92430Y-53203D01*
X92436Y-53192D01*
X92441Y-53186D01*
X92453Y-53181D01*
X92470Y-53181D01*
X92481Y-53186D01*
X92486Y-53192D01*
X92492Y-53203D01*
X92492Y-53248D01*
X92441Y-53136D02*
X92436Y-53130D01*
X92430Y-53119D01*
X92430Y-53091D01*
X92436Y-53080D01*
X92441Y-53074D01*
X92453Y-53068D01*
X92464Y-53068D01*
X92481Y-53074D01*
X92548Y-53141D01*
X92548Y-53068D01*
X92430Y-52961D02*
X92430Y-53018D01*
X92486Y-53023D01*
X92481Y-53018D01*
X92475Y-53006D01*
X92475Y-52978D01*
X92481Y-52967D01*
X92486Y-52961D01*
X92498Y-52956D01*
X92526Y-52956D01*
X92537Y-52961D01*
X92543Y-52967D01*
X92548Y-52978D01*
X92548Y-53006D01*
X92543Y-53018D01*
X92537Y-53023D01*
X93159Y-53164D02*
X93159Y-53220D01*
X93215Y-53226D01*
X93209Y-53220D01*
X93204Y-53209D01*
X93204Y-53181D01*
X93209Y-53169D01*
X93215Y-53164D01*
X93226Y-53158D01*
X93254Y-53158D01*
X93265Y-53164D01*
X93271Y-53169D01*
X93277Y-53181D01*
X93277Y-53209D01*
X93271Y-53220D01*
X93265Y-53226D01*
X93277Y-53108D02*
X93159Y-53108D01*
X93232Y-53096D02*
X93277Y-53063D01*
X93198Y-53063D02*
X93243Y-53108D01*
X91798Y-53931D02*
X91742Y-53970D01*
X91798Y-53998D02*
X91680Y-53998D01*
X91680Y-53953D01*
X91686Y-53942D01*
X91691Y-53936D01*
X91703Y-53931D01*
X91720Y-53931D01*
X91731Y-53936D01*
X91736Y-53942D01*
X91742Y-53953D01*
X91742Y-53998D01*
X91691Y-53886D02*
X91686Y-53880D01*
X91680Y-53869D01*
X91680Y-53841D01*
X91686Y-53830D01*
X91691Y-53824D01*
X91703Y-53818D01*
X91714Y-53818D01*
X91731Y-53824D01*
X91798Y-53891D01*
X91798Y-53818D01*
X91680Y-53717D02*
X91680Y-53740D01*
X91686Y-53751D01*
X91691Y-53756D01*
X91708Y-53768D01*
X91731Y-53773D01*
X91776Y-53773D01*
X91787Y-53768D01*
X91793Y-53762D01*
X91798Y-53751D01*
X91798Y-53728D01*
X91793Y-53717D01*
X91787Y-53711D01*
X91776Y-53706D01*
X91748Y-53706D01*
X91736Y-53711D01*
X91731Y-53717D01*
X91725Y-53728D01*
X91725Y-53751D01*
X91731Y-53762D01*
X91736Y-53768D01*
X91748Y-53773D01*
X92527Y-53964D02*
X92527Y-54032D01*
X92527Y-53998D02*
X92409Y-53998D01*
X92425Y-54009D01*
X92437Y-54021D01*
X92442Y-54032D01*
X92409Y-53891D02*
X92409Y-53880D01*
X92414Y-53869D01*
X92420Y-53863D01*
X92431Y-53858D01*
X92454Y-53852D01*
X92482Y-53852D01*
X92504Y-53858D01*
X92515Y-53863D01*
X92521Y-53869D01*
X92527Y-53880D01*
X92527Y-53891D01*
X92521Y-53903D01*
X92515Y-53908D01*
X92504Y-53914D01*
X92482Y-53919D01*
X92454Y-53919D01*
X92431Y-53914D01*
X92420Y-53908D01*
X92414Y-53903D01*
X92409Y-53891D01*
X92527Y-53801D02*
X92409Y-53801D01*
X92482Y-53790D02*
X92527Y-53756D01*
X92448Y-53756D02*
X92493Y-53801D01*
X94798Y-59181D02*
X94742Y-59220D01*
X94798Y-59248D02*
X94680Y-59248D01*
X94680Y-59203D01*
X94686Y-59192D01*
X94691Y-59186D01*
X94703Y-59181D01*
X94720Y-59181D01*
X94731Y-59186D01*
X94736Y-59192D01*
X94742Y-59203D01*
X94742Y-59248D01*
X94680Y-59141D02*
X94680Y-59068D01*
X94725Y-59108D01*
X94725Y-59091D01*
X94731Y-59080D01*
X94736Y-59074D01*
X94748Y-59068D01*
X94776Y-59068D01*
X94787Y-59074D01*
X94793Y-59080D01*
X94798Y-59091D01*
X94798Y-59125D01*
X94793Y-59136D01*
X94787Y-59141D01*
X94798Y-58956D02*
X94798Y-59023D01*
X94798Y-58990D02*
X94680Y-58990D01*
X94697Y-59001D01*
X94708Y-59012D01*
X94714Y-59023D01*
X95409Y-59164D02*
X95409Y-59220D01*
X95465Y-59226D01*
X95459Y-59220D01*
X95454Y-59209D01*
X95454Y-59181D01*
X95459Y-59169D01*
X95465Y-59164D01*
X95476Y-59158D01*
X95504Y-59158D01*
X95515Y-59164D01*
X95521Y-59169D01*
X95527Y-59181D01*
X95527Y-59209D01*
X95521Y-59220D01*
X95515Y-59226D01*
X95527Y-59108D02*
X95409Y-59108D01*
X95482Y-59096D02*
X95527Y-59063D01*
X95448Y-59063D02*
X95493Y-59108D01*
X85796Y-65720D02*
X85740Y-65759D01*
X85796Y-65788D02*
X85678Y-65788D01*
X85678Y-65743D01*
X85684Y-65731D01*
X85689Y-65726D01*
X85701Y-65720D01*
X85718Y-65720D01*
X85729Y-65726D01*
X85734Y-65731D01*
X85740Y-65743D01*
X85740Y-65788D01*
X85689Y-65675D02*
X85684Y-65669D01*
X85678Y-65658D01*
X85678Y-65630D01*
X85684Y-65619D01*
X85689Y-65613D01*
X85701Y-65608D01*
X85712Y-65608D01*
X85729Y-65613D01*
X85796Y-65681D01*
X85796Y-65608D01*
X85729Y-65540D02*
X85723Y-65551D01*
X85718Y-65557D01*
X85706Y-65563D01*
X85701Y-65563D01*
X85689Y-65557D01*
X85684Y-65551D01*
X85678Y-65540D01*
X85678Y-65518D01*
X85684Y-65506D01*
X85689Y-65501D01*
X85701Y-65495D01*
X85706Y-65495D01*
X85718Y-65501D01*
X85723Y-65506D01*
X85729Y-65518D01*
X85729Y-65540D01*
X85734Y-65551D01*
X85740Y-65557D01*
X85751Y-65563D01*
X85774Y-65563D01*
X85785Y-65557D01*
X85791Y-65551D01*
X85796Y-65540D01*
X85796Y-65518D01*
X85791Y-65506D01*
X85785Y-65501D01*
X85774Y-65495D01*
X85751Y-65495D01*
X85740Y-65501D01*
X85734Y-65506D01*
X85729Y-65518D01*
X85068Y-65619D02*
X85068Y-65686D01*
X85068Y-65653D02*
X84950Y-65653D01*
X84967Y-65664D01*
X84978Y-65675D01*
X84984Y-65686D01*
X85068Y-65568D02*
X84950Y-65568D01*
X85023Y-65557D02*
X85068Y-65523D01*
X84989Y-65523D02*
X85034Y-65568D01*
X88548Y-65681D02*
X88492Y-65720D01*
X88548Y-65748D02*
X88430Y-65748D01*
X88430Y-65703D01*
X88436Y-65692D01*
X88441Y-65686D01*
X88453Y-65681D01*
X88470Y-65681D01*
X88481Y-65686D01*
X88486Y-65692D01*
X88492Y-65703D01*
X88492Y-65748D01*
X88441Y-65636D02*
X88436Y-65630D01*
X88430Y-65619D01*
X88430Y-65591D01*
X88436Y-65580D01*
X88441Y-65574D01*
X88453Y-65568D01*
X88464Y-65568D01*
X88481Y-65574D01*
X88548Y-65641D01*
X88548Y-65568D01*
X88430Y-65529D02*
X88430Y-65450D01*
X88548Y-65501D01*
X89277Y-65658D02*
X89277Y-65726D01*
X89277Y-65692D02*
X89159Y-65692D01*
X89175Y-65703D01*
X89187Y-65714D01*
X89192Y-65726D01*
X89277Y-65608D02*
X89159Y-65608D01*
X89232Y-65596D02*
X89277Y-65563D01*
X89198Y-65563D02*
X89243Y-65608D01*
X90798Y-59681D02*
X90742Y-59720D01*
X90798Y-59748D02*
X90680Y-59748D01*
X90680Y-59703D01*
X90686Y-59692D01*
X90691Y-59686D01*
X90703Y-59681D01*
X90720Y-59681D01*
X90731Y-59686D01*
X90736Y-59692D01*
X90742Y-59703D01*
X90742Y-59748D01*
X90691Y-59636D02*
X90686Y-59630D01*
X90680Y-59619D01*
X90680Y-59591D01*
X90686Y-59580D01*
X90691Y-59574D01*
X90703Y-59568D01*
X90714Y-59568D01*
X90731Y-59574D01*
X90798Y-59641D01*
X90798Y-59568D01*
X90798Y-59512D02*
X90798Y-59490D01*
X90793Y-59478D01*
X90787Y-59473D01*
X90770Y-59461D01*
X90748Y-59456D01*
X90703Y-59456D01*
X90691Y-59461D01*
X90686Y-59467D01*
X90680Y-59478D01*
X90680Y-59501D01*
X90686Y-59512D01*
X90691Y-59518D01*
X90703Y-59523D01*
X90731Y-59523D01*
X90742Y-59518D01*
X90748Y-59512D01*
X90753Y-59501D01*
X90753Y-59478D01*
X90748Y-59467D01*
X90742Y-59461D01*
X90731Y-59456D01*
X91527Y-59658D02*
X91527Y-59726D01*
X91527Y-59692D02*
X91409Y-59692D01*
X91425Y-59703D01*
X91437Y-59714D01*
X91442Y-59726D01*
X91527Y-59608D02*
X91409Y-59608D01*
X91482Y-59596D02*
X91527Y-59563D01*
X91448Y-59563D02*
X91493Y-59608D01*
X97046Y-59720D02*
X96990Y-59759D01*
X97046Y-59788D02*
X96928Y-59788D01*
X96928Y-59743D01*
X96934Y-59731D01*
X96939Y-59726D01*
X96951Y-59720D01*
X96968Y-59720D01*
X96979Y-59726D01*
X96984Y-59731D01*
X96990Y-59743D01*
X96990Y-59788D01*
X96968Y-59619D02*
X97046Y-59619D01*
X96923Y-59647D02*
X97007Y-59675D01*
X97007Y-59602D01*
X96939Y-59563D02*
X96934Y-59557D01*
X96928Y-59546D01*
X96928Y-59518D01*
X96934Y-59506D01*
X96939Y-59501D01*
X96951Y-59495D01*
X96962Y-59495D01*
X96979Y-59501D01*
X97046Y-59568D01*
X97046Y-59495D01*
X96318Y-59619D02*
X96318Y-59686D01*
X96318Y-59653D02*
X96200Y-59653D01*
X96217Y-59664D01*
X96228Y-59675D01*
X96234Y-59686D01*
X96318Y-59568D02*
X96200Y-59568D01*
X96273Y-59557D02*
X96318Y-59523D01*
X96239Y-59523D02*
X96284Y-59568D01*
X74548Y-53125D02*
X74492Y-53164D01*
X74548Y-53192D02*
X74430Y-53192D01*
X74430Y-53147D01*
X74436Y-53136D01*
X74441Y-53130D01*
X74453Y-53125D01*
X74470Y-53125D01*
X74481Y-53130D01*
X74486Y-53136D01*
X74492Y-53147D01*
X74492Y-53192D01*
X74548Y-53012D02*
X74548Y-53080D01*
X74548Y-53046D02*
X74430Y-53046D01*
X74447Y-53057D01*
X74458Y-53068D01*
X74464Y-53080D01*
X75159Y-53164D02*
X75159Y-53220D01*
X75215Y-53226D01*
X75209Y-53220D01*
X75204Y-53209D01*
X75204Y-53181D01*
X75209Y-53169D01*
X75215Y-53164D01*
X75226Y-53158D01*
X75254Y-53158D01*
X75265Y-53164D01*
X75271Y-53169D01*
X75277Y-53181D01*
X75277Y-53209D01*
X75271Y-53220D01*
X75265Y-53226D01*
X75277Y-53108D02*
X75159Y-53108D01*
X75232Y-53096D02*
X75277Y-53063D01*
X75198Y-53063D02*
X75243Y-53108D01*
X73798Y-53875D02*
X73742Y-53914D01*
X73798Y-53942D02*
X73680Y-53942D01*
X73680Y-53897D01*
X73686Y-53886D01*
X73691Y-53880D01*
X73703Y-53875D01*
X73720Y-53875D01*
X73731Y-53880D01*
X73736Y-53886D01*
X73742Y-53897D01*
X73742Y-53942D01*
X73691Y-53830D02*
X73686Y-53824D01*
X73680Y-53813D01*
X73680Y-53785D01*
X73686Y-53773D01*
X73691Y-53768D01*
X73703Y-53762D01*
X73714Y-53762D01*
X73731Y-53768D01*
X73798Y-53835D01*
X73798Y-53762D01*
X74527Y-53964D02*
X74527Y-54032D01*
X74527Y-53998D02*
X74409Y-53998D01*
X74425Y-54009D01*
X74437Y-54021D01*
X74442Y-54032D01*
X74409Y-53891D02*
X74409Y-53880D01*
X74414Y-53869D01*
X74420Y-53863D01*
X74431Y-53858D01*
X74454Y-53852D01*
X74482Y-53852D01*
X74504Y-53858D01*
X74515Y-53863D01*
X74521Y-53869D01*
X74527Y-53880D01*
X74527Y-53891D01*
X74521Y-53903D01*
X74515Y-53908D01*
X74504Y-53914D01*
X74482Y-53919D01*
X74454Y-53919D01*
X74431Y-53914D01*
X74420Y-53908D01*
X74414Y-53903D01*
X74409Y-53891D01*
X74527Y-53801D02*
X74409Y-53801D01*
X74482Y-53790D02*
X74527Y-53756D01*
X74448Y-53756D02*
X74493Y-53801D01*
X67796Y-65664D02*
X67740Y-65703D01*
X67796Y-65731D02*
X67678Y-65731D01*
X67678Y-65686D01*
X67684Y-65675D01*
X67689Y-65669D01*
X67701Y-65664D01*
X67718Y-65664D01*
X67729Y-65669D01*
X67734Y-65675D01*
X67740Y-65686D01*
X67740Y-65731D01*
X67718Y-65563D02*
X67796Y-65563D01*
X67673Y-65591D02*
X67757Y-65619D01*
X67757Y-65546D01*
X67068Y-65619D02*
X67068Y-65686D01*
X67068Y-65653D02*
X66950Y-65653D01*
X66967Y-65664D01*
X66978Y-65675D01*
X66984Y-65686D01*
X67068Y-65568D02*
X66950Y-65568D01*
X67023Y-65557D02*
X67068Y-65523D01*
X66989Y-65523D02*
X67034Y-65568D01*
X70548Y-65625D02*
X70492Y-65664D01*
X70548Y-65692D02*
X70430Y-65692D01*
X70430Y-65647D01*
X70436Y-65636D01*
X70441Y-65630D01*
X70453Y-65625D01*
X70470Y-65625D01*
X70481Y-65630D01*
X70486Y-65636D01*
X70492Y-65647D01*
X70492Y-65692D01*
X70430Y-65585D02*
X70430Y-65512D01*
X70475Y-65551D01*
X70475Y-65535D01*
X70481Y-65523D01*
X70486Y-65518D01*
X70498Y-65512D01*
X70526Y-65512D01*
X70537Y-65518D01*
X70543Y-65523D01*
X70548Y-65535D01*
X70548Y-65568D01*
X70543Y-65580D01*
X70537Y-65585D01*
X71277Y-65658D02*
X71277Y-65726D01*
X71277Y-65692D02*
X71159Y-65692D01*
X71175Y-65703D01*
X71187Y-65714D01*
X71192Y-65726D01*
X71277Y-65608D02*
X71159Y-65608D01*
X71232Y-65596D02*
X71277Y-65563D01*
X71198Y-65563D02*
X71243Y-65608D01*
X102048Y-65681D02*
X101992Y-65720D01*
X102048Y-65748D02*
X101930Y-65748D01*
X101930Y-65703D01*
X101936Y-65692D01*
X101941Y-65686D01*
X101953Y-65681D01*
X101970Y-65681D01*
X101981Y-65686D01*
X101986Y-65692D01*
X101992Y-65703D01*
X101992Y-65748D01*
X101970Y-65580D02*
X102048Y-65580D01*
X101925Y-65608D02*
X102009Y-65636D01*
X102009Y-65563D01*
X101930Y-65529D02*
X101930Y-65450D01*
X102048Y-65501D01*
X102777Y-65658D02*
X102777Y-65726D01*
X102777Y-65692D02*
X102659Y-65692D01*
X102675Y-65703D01*
X102687Y-65714D01*
X102692Y-65726D01*
X102777Y-65608D02*
X102659Y-65608D01*
X102732Y-65596D02*
X102777Y-65563D01*
X102698Y-65563D02*
X102743Y-65608D01*
X99296Y-65720D02*
X99240Y-65759D01*
X99296Y-65788D02*
X99178Y-65788D01*
X99178Y-65743D01*
X99184Y-65731D01*
X99189Y-65726D01*
X99201Y-65720D01*
X99218Y-65720D01*
X99229Y-65726D01*
X99234Y-65731D01*
X99240Y-65743D01*
X99240Y-65788D01*
X99218Y-65619D02*
X99296Y-65619D01*
X99173Y-65647D02*
X99257Y-65675D01*
X99257Y-65602D01*
X99229Y-65540D02*
X99223Y-65551D01*
X99218Y-65557D01*
X99206Y-65563D01*
X99201Y-65563D01*
X99189Y-65557D01*
X99184Y-65551D01*
X99178Y-65540D01*
X99178Y-65518D01*
X99184Y-65506D01*
X99189Y-65501D01*
X99201Y-65495D01*
X99206Y-65495D01*
X99218Y-65501D01*
X99223Y-65506D01*
X99229Y-65518D01*
X99229Y-65540D01*
X99234Y-65551D01*
X99240Y-65557D01*
X99251Y-65563D01*
X99274Y-65563D01*
X99285Y-65557D01*
X99291Y-65551D01*
X99296Y-65540D01*
X99296Y-65518D01*
X99291Y-65506D01*
X99285Y-65501D01*
X99274Y-65495D01*
X99251Y-65495D01*
X99240Y-65501D01*
X99234Y-65506D01*
X99229Y-65518D01*
X98568Y-65619D02*
X98568Y-65686D01*
X98568Y-65653D02*
X98450Y-65653D01*
X98467Y-65664D01*
X98478Y-65675D01*
X98484Y-65686D01*
X98568Y-65568D02*
X98450Y-65568D01*
X98523Y-65557D02*
X98568Y-65523D01*
X98489Y-65523D02*
X98534Y-65568D01*
X70046Y-59664D02*
X69990Y-59703D01*
X70046Y-59731D02*
X69928Y-59731D01*
X69928Y-59686D01*
X69934Y-59675D01*
X69939Y-59669D01*
X69951Y-59664D01*
X69968Y-59664D01*
X69979Y-59669D01*
X69984Y-59675D01*
X69990Y-59686D01*
X69990Y-59731D01*
X69928Y-59563D02*
X69928Y-59585D01*
X69934Y-59596D01*
X69939Y-59602D01*
X69956Y-59613D01*
X69979Y-59619D01*
X70024Y-59619D01*
X70035Y-59613D01*
X70041Y-59608D01*
X70046Y-59596D01*
X70046Y-59574D01*
X70041Y-59563D01*
X70035Y-59557D01*
X70024Y-59551D01*
X69996Y-59551D01*
X69984Y-59557D01*
X69979Y-59563D01*
X69973Y-59574D01*
X69973Y-59596D01*
X69979Y-59608D01*
X69984Y-59613D01*
X69996Y-59619D01*
X69318Y-59619D02*
X69318Y-59686D01*
X69318Y-59653D02*
X69200Y-59653D01*
X69217Y-59664D01*
X69228Y-59675D01*
X69234Y-59686D01*
X69318Y-59568D02*
X69200Y-59568D01*
X69273Y-59557D02*
X69318Y-59523D01*
X69239Y-59523D02*
X69284Y-59568D01*
X72798Y-59625D02*
X72742Y-59664D01*
X72798Y-59692D02*
X72680Y-59692D01*
X72680Y-59647D01*
X72686Y-59636D01*
X72691Y-59630D01*
X72703Y-59625D01*
X72720Y-59625D01*
X72731Y-59630D01*
X72736Y-59636D01*
X72742Y-59647D01*
X72742Y-59692D01*
X72680Y-59518D02*
X72680Y-59574D01*
X72736Y-59580D01*
X72731Y-59574D01*
X72725Y-59563D01*
X72725Y-59535D01*
X72731Y-59523D01*
X72736Y-59518D01*
X72748Y-59512D01*
X72776Y-59512D01*
X72787Y-59518D01*
X72793Y-59523D01*
X72798Y-59535D01*
X72798Y-59563D01*
X72793Y-59574D01*
X72787Y-59580D01*
X73527Y-59658D02*
X73527Y-59726D01*
X73527Y-59692D02*
X73409Y-59692D01*
X73425Y-59703D01*
X73437Y-59714D01*
X73442Y-59726D01*
X73527Y-59608D02*
X73409Y-59608D01*
X73482Y-59596D02*
X73527Y-59563D01*
X73448Y-59563D02*
X73493Y-59608D01*
X97548Y-53681D02*
X97492Y-53720D01*
X97548Y-53748D02*
X97430Y-53748D01*
X97430Y-53703D01*
X97436Y-53692D01*
X97441Y-53686D01*
X97453Y-53681D01*
X97470Y-53681D01*
X97481Y-53686D01*
X97486Y-53692D01*
X97492Y-53703D01*
X97492Y-53748D01*
X97470Y-53580D02*
X97548Y-53580D01*
X97425Y-53608D02*
X97509Y-53636D01*
X97509Y-53563D01*
X97430Y-53461D02*
X97430Y-53518D01*
X97486Y-53523D01*
X97481Y-53518D01*
X97475Y-53506D01*
X97475Y-53478D01*
X97481Y-53467D01*
X97486Y-53461D01*
X97498Y-53456D01*
X97526Y-53456D01*
X97537Y-53461D01*
X97543Y-53467D01*
X97548Y-53478D01*
X97548Y-53506D01*
X97543Y-53518D01*
X97537Y-53523D01*
X98277Y-53658D02*
X98277Y-53726D01*
X98277Y-53692D02*
X98159Y-53692D01*
X98175Y-53703D01*
X98187Y-53714D01*
X98192Y-53726D01*
X98277Y-53608D02*
X98159Y-53608D01*
X98232Y-53596D02*
X98277Y-53563D01*
X98198Y-53563D02*
X98243Y-53608D01*
X94796Y-53720D02*
X94740Y-53759D01*
X94796Y-53788D02*
X94678Y-53788D01*
X94678Y-53743D01*
X94684Y-53731D01*
X94689Y-53726D01*
X94701Y-53720D01*
X94718Y-53720D01*
X94729Y-53726D01*
X94734Y-53731D01*
X94740Y-53743D01*
X94740Y-53788D01*
X94718Y-53619D02*
X94796Y-53619D01*
X94673Y-53647D02*
X94757Y-53675D01*
X94757Y-53602D01*
X94678Y-53506D02*
X94678Y-53529D01*
X94684Y-53540D01*
X94689Y-53546D01*
X94706Y-53557D01*
X94729Y-53563D01*
X94774Y-53563D01*
X94785Y-53557D01*
X94791Y-53551D01*
X94796Y-53540D01*
X94796Y-53518D01*
X94791Y-53506D01*
X94785Y-53501D01*
X94774Y-53495D01*
X94746Y-53495D01*
X94734Y-53501D01*
X94729Y-53506D01*
X94723Y-53518D01*
X94723Y-53540D01*
X94729Y-53551D01*
X94734Y-53557D01*
X94746Y-53563D01*
X94068Y-53619D02*
X94068Y-53686D01*
X94068Y-53653D02*
X93950Y-53653D01*
X93967Y-53664D01*
X93978Y-53675D01*
X93984Y-53686D01*
X94068Y-53568D02*
X93950Y-53568D01*
X94023Y-53557D02*
X94068Y-53523D01*
X93989Y-53523D02*
X94034Y-53568D01*
X76798Y-59125D02*
X76742Y-59164D01*
X76798Y-59192D02*
X76680Y-59192D01*
X76680Y-59147D01*
X76686Y-59136D01*
X76691Y-59130D01*
X76703Y-59125D01*
X76720Y-59125D01*
X76731Y-59130D01*
X76736Y-59136D01*
X76742Y-59147D01*
X76742Y-59192D01*
X76680Y-59085D02*
X76680Y-59006D01*
X76798Y-59057D01*
X77409Y-59164D02*
X77409Y-59220D01*
X77465Y-59226D01*
X77459Y-59220D01*
X77454Y-59209D01*
X77454Y-59181D01*
X77459Y-59169D01*
X77465Y-59164D01*
X77476Y-59158D01*
X77504Y-59158D01*
X77515Y-59164D01*
X77521Y-59169D01*
X77527Y-59181D01*
X77527Y-59209D01*
X77521Y-59220D01*
X77515Y-59226D01*
X77527Y-59108D02*
X77409Y-59108D01*
X77482Y-59096D02*
X77527Y-59063D01*
X77448Y-59063D02*
X77493Y-59108D01*
X76048Y-59875D02*
X75992Y-59914D01*
X76048Y-59942D02*
X75930Y-59942D01*
X75930Y-59897D01*
X75936Y-59886D01*
X75941Y-59880D01*
X75953Y-59875D01*
X75970Y-59875D01*
X75981Y-59880D01*
X75986Y-59886D01*
X75992Y-59897D01*
X75992Y-59942D01*
X75981Y-59807D02*
X75975Y-59818D01*
X75970Y-59824D01*
X75958Y-59830D01*
X75953Y-59830D01*
X75941Y-59824D01*
X75936Y-59818D01*
X75930Y-59807D01*
X75930Y-59785D01*
X75936Y-59773D01*
X75941Y-59768D01*
X75953Y-59762D01*
X75958Y-59762D01*
X75970Y-59768D01*
X75975Y-59773D01*
X75981Y-59785D01*
X75981Y-59807D01*
X75986Y-59818D01*
X75992Y-59824D01*
X76003Y-59830D01*
X76026Y-59830D01*
X76037Y-59824D01*
X76043Y-59818D01*
X76048Y-59807D01*
X76048Y-59785D01*
X76043Y-59773D01*
X76037Y-59768D01*
X76026Y-59762D01*
X76003Y-59762D01*
X75992Y-59768D01*
X75986Y-59773D01*
X75981Y-59785D01*
X76777Y-59964D02*
X76777Y-60032D01*
X76777Y-59998D02*
X76659Y-59998D01*
X76675Y-60009D01*
X76687Y-60021D01*
X76692Y-60032D01*
X76659Y-59891D02*
X76659Y-59880D01*
X76664Y-59869D01*
X76670Y-59863D01*
X76681Y-59858D01*
X76704Y-59852D01*
X76732Y-59852D01*
X76754Y-59858D01*
X76765Y-59863D01*
X76771Y-59869D01*
X76777Y-59880D01*
X76777Y-59891D01*
X76771Y-59903D01*
X76765Y-59908D01*
X76754Y-59914D01*
X76732Y-59919D01*
X76704Y-59919D01*
X76681Y-59914D01*
X76670Y-59908D01*
X76664Y-59903D01*
X76659Y-59891D01*
X76777Y-59801D02*
X76659Y-59801D01*
X76732Y-59790D02*
X76777Y-59756D01*
X76698Y-59756D02*
X76743Y-59801D01*
X103048Y-59931D02*
X102992Y-59970D01*
X103048Y-59998D02*
X102930Y-59998D01*
X102930Y-59953D01*
X102936Y-59942D01*
X102941Y-59936D01*
X102953Y-59931D01*
X102970Y-59931D01*
X102981Y-59936D01*
X102986Y-59942D01*
X102992Y-59953D01*
X102992Y-59998D01*
X102970Y-59830D02*
X103048Y-59830D01*
X102925Y-59858D02*
X103009Y-59886D01*
X103009Y-59813D01*
X102970Y-59717D02*
X103048Y-59717D01*
X102925Y-59745D02*
X103009Y-59773D01*
X103009Y-59700D01*
X103777Y-59964D02*
X103777Y-60032D01*
X103777Y-59998D02*
X103659Y-59998D01*
X103675Y-60009D01*
X103687Y-60021D01*
X103692Y-60032D01*
X103659Y-59891D02*
X103659Y-59880D01*
X103664Y-59869D01*
X103670Y-59863D01*
X103681Y-59858D01*
X103704Y-59852D01*
X103732Y-59852D01*
X103754Y-59858D01*
X103765Y-59863D01*
X103771Y-59869D01*
X103777Y-59880D01*
X103777Y-59891D01*
X103771Y-59903D01*
X103765Y-59908D01*
X103754Y-59914D01*
X103732Y-59919D01*
X103704Y-59919D01*
X103681Y-59914D01*
X103670Y-59908D01*
X103664Y-59903D01*
X103659Y-59891D01*
X103777Y-59801D02*
X103659Y-59801D01*
X103732Y-59790D02*
X103777Y-59756D01*
X103698Y-59756D02*
X103743Y-59801D01*
X67796Y-53720D02*
X67740Y-53759D01*
X67796Y-53788D02*
X67678Y-53788D01*
X67678Y-53743D01*
X67684Y-53731D01*
X67689Y-53726D01*
X67701Y-53720D01*
X67718Y-53720D01*
X67729Y-53726D01*
X67734Y-53731D01*
X67740Y-53743D01*
X67740Y-53788D01*
X67796Y-53608D02*
X67796Y-53675D01*
X67796Y-53641D02*
X67678Y-53641D01*
X67695Y-53653D01*
X67706Y-53664D01*
X67712Y-53675D01*
X67678Y-53535D02*
X67678Y-53523D01*
X67684Y-53512D01*
X67689Y-53506D01*
X67701Y-53501D01*
X67723Y-53495D01*
X67751Y-53495D01*
X67774Y-53501D01*
X67785Y-53506D01*
X67791Y-53512D01*
X67796Y-53523D01*
X67796Y-53535D01*
X67791Y-53546D01*
X67785Y-53551D01*
X67774Y-53557D01*
X67751Y-53563D01*
X67723Y-53563D01*
X67701Y-53557D01*
X67689Y-53551D01*
X67684Y-53546D01*
X67678Y-53535D01*
X67068Y-53619D02*
X67068Y-53686D01*
X67068Y-53653D02*
X66950Y-53653D01*
X66967Y-53664D01*
X66978Y-53675D01*
X66984Y-53686D01*
X67068Y-53568D02*
X66950Y-53568D01*
X67023Y-53557D02*
X67068Y-53523D01*
X66989Y-53523D02*
X67034Y-53568D01*
X70548Y-53625D02*
X70492Y-53664D01*
X70548Y-53692D02*
X70430Y-53692D01*
X70430Y-53647D01*
X70436Y-53636D01*
X70441Y-53630D01*
X70453Y-53625D01*
X70470Y-53625D01*
X70481Y-53630D01*
X70486Y-53636D01*
X70492Y-53647D01*
X70492Y-53692D01*
X70548Y-53568D02*
X70548Y-53546D01*
X70543Y-53535D01*
X70537Y-53529D01*
X70520Y-53518D01*
X70498Y-53512D01*
X70453Y-53512D01*
X70441Y-53518D01*
X70436Y-53523D01*
X70430Y-53535D01*
X70430Y-53557D01*
X70436Y-53568D01*
X70441Y-53574D01*
X70453Y-53580D01*
X70481Y-53580D01*
X70492Y-53574D01*
X70498Y-53568D01*
X70503Y-53557D01*
X70503Y-53535D01*
X70498Y-53523D01*
X70492Y-53518D01*
X70481Y-53512D01*
X71277Y-53658D02*
X71277Y-53726D01*
X71277Y-53692D02*
X71159Y-53692D01*
X71175Y-53703D01*
X71187Y-53714D01*
X71192Y-53726D01*
X71277Y-53608D02*
X71159Y-53608D01*
X71232Y-53596D02*
X71277Y-53563D01*
X71198Y-53563D02*
X71243Y-53608D01*
X103798Y-59181D02*
X103742Y-59220D01*
X103798Y-59248D02*
X103680Y-59248D01*
X103680Y-59203D01*
X103686Y-59192D01*
X103691Y-59186D01*
X103703Y-59181D01*
X103720Y-59181D01*
X103731Y-59186D01*
X103736Y-59192D01*
X103742Y-59203D01*
X103742Y-59248D01*
X103720Y-59080D02*
X103798Y-59080D01*
X103675Y-59108D02*
X103759Y-59136D01*
X103759Y-59063D01*
X103680Y-59029D02*
X103680Y-58956D01*
X103725Y-58995D01*
X103725Y-58978D01*
X103731Y-58967D01*
X103736Y-58961D01*
X103748Y-58956D01*
X103776Y-58956D01*
X103787Y-58961D01*
X103793Y-58967D01*
X103798Y-58978D01*
X103798Y-59012D01*
X103793Y-59023D01*
X103787Y-59029D01*
X104409Y-59164D02*
X104409Y-59220D01*
X104465Y-59226D01*
X104459Y-59220D01*
X104454Y-59209D01*
X104454Y-59181D01*
X104459Y-59169D01*
X104465Y-59164D01*
X104476Y-59158D01*
X104504Y-59158D01*
X104515Y-59164D01*
X104521Y-59169D01*
X104527Y-59181D01*
X104527Y-59209D01*
X104521Y-59220D01*
X104515Y-59226D01*
X104527Y-59108D02*
X104409Y-59108D01*
X104482Y-59096D02*
X104527Y-59063D01*
X104448Y-59063D02*
X104493Y-59108D01*
X99798Y-59681D02*
X99742Y-59720D01*
X99798Y-59748D02*
X99680Y-59748D01*
X99680Y-59703D01*
X99686Y-59692D01*
X99691Y-59686D01*
X99703Y-59681D01*
X99720Y-59681D01*
X99731Y-59686D01*
X99736Y-59692D01*
X99742Y-59703D01*
X99742Y-59748D01*
X99720Y-59580D02*
X99798Y-59580D01*
X99675Y-59608D02*
X99759Y-59636D01*
X99759Y-59563D01*
X99798Y-59456D02*
X99798Y-59523D01*
X99798Y-59490D02*
X99680Y-59490D01*
X99697Y-59501D01*
X99708Y-59512D01*
X99714Y-59523D01*
X100527Y-59658D02*
X100527Y-59726D01*
X100527Y-59692D02*
X100409Y-59692D01*
X100425Y-59703D01*
X100437Y-59714D01*
X100442Y-59726D01*
X100527Y-59608D02*
X100409Y-59608D01*
X100482Y-59596D02*
X100527Y-59563D01*
X100448Y-59563D02*
X100493Y-59608D01*
X75048Y-65681D02*
X74992Y-65720D01*
X75048Y-65748D02*
X74930Y-65748D01*
X74930Y-65703D01*
X74936Y-65692D01*
X74941Y-65686D01*
X74953Y-65681D01*
X74970Y-65681D01*
X74981Y-65686D01*
X74986Y-65692D01*
X74992Y-65703D01*
X74992Y-65748D01*
X75048Y-65568D02*
X75048Y-65636D01*
X75048Y-65602D02*
X74930Y-65602D01*
X74947Y-65613D01*
X74958Y-65625D01*
X74964Y-65636D01*
X75048Y-65456D02*
X75048Y-65523D01*
X75048Y-65490D02*
X74930Y-65490D01*
X74947Y-65501D01*
X74958Y-65512D01*
X74964Y-65523D01*
X75777Y-65658D02*
X75777Y-65726D01*
X75777Y-65692D02*
X75659Y-65692D01*
X75675Y-65703D01*
X75687Y-65714D01*
X75692Y-65726D01*
X75777Y-65608D02*
X75659Y-65608D01*
X75732Y-65596D02*
X75777Y-65563D01*
X75698Y-65563D02*
X75743Y-65608D01*
X72296Y-65720D02*
X72240Y-65759D01*
X72296Y-65788D02*
X72178Y-65788D01*
X72178Y-65743D01*
X72184Y-65731D01*
X72189Y-65726D01*
X72201Y-65720D01*
X72218Y-65720D01*
X72229Y-65726D01*
X72234Y-65731D01*
X72240Y-65743D01*
X72240Y-65788D01*
X72296Y-65608D02*
X72296Y-65675D01*
X72296Y-65641D02*
X72178Y-65641D01*
X72195Y-65653D01*
X72206Y-65664D01*
X72212Y-65675D01*
X72189Y-65563D02*
X72184Y-65557D01*
X72178Y-65546D01*
X72178Y-65518D01*
X72184Y-65506D01*
X72189Y-65501D01*
X72201Y-65495D01*
X72212Y-65495D01*
X72229Y-65501D01*
X72296Y-65568D01*
X72296Y-65495D01*
X71568Y-65619D02*
X71568Y-65686D01*
X71568Y-65653D02*
X71450Y-65653D01*
X71467Y-65664D01*
X71478Y-65675D01*
X71484Y-65686D01*
X71568Y-65568D02*
X71450Y-65568D01*
X71523Y-65557D02*
X71568Y-65523D01*
X71489Y-65523D02*
X71534Y-65568D01*
G54D10*
X94414Y-53976D02*
X94432Y-53995D01*
X94451Y-54051D01*
X94451Y-54089D01*
X94432Y-54145D01*
X94395Y-54182D01*
X94357Y-54201D01*
X94282Y-54220D01*
X94226Y-54220D01*
X94151Y-54201D01*
X94114Y-54182D01*
X94076Y-54145D01*
X94057Y-54089D01*
X94057Y-54051D01*
X94076Y-53995D01*
X94095Y-53976D01*
X94057Y-53845D02*
X94057Y-53601D01*
X94207Y-53732D01*
X94207Y-53676D01*
X94226Y-53639D01*
X94245Y-53620D01*
X94282Y-53601D01*
X94376Y-53601D01*
X94414Y-53620D01*
X94432Y-53639D01*
X94451Y-53676D01*
X94451Y-53789D01*
X94432Y-53826D01*
X94414Y-53845D01*
X94226Y-53376D02*
X94207Y-53414D01*
X94189Y-53432D01*
X94151Y-53451D01*
X94132Y-53451D01*
X94095Y-53432D01*
X94076Y-53414D01*
X94057Y-53376D01*
X94057Y-53301D01*
X94076Y-53264D01*
X94095Y-53245D01*
X94132Y-53226D01*
X94151Y-53226D01*
X94189Y-53245D01*
X94207Y-53264D01*
X94226Y-53301D01*
X94226Y-53376D01*
X94245Y-53414D01*
X94264Y-53432D01*
X94301Y-53451D01*
X94376Y-53451D01*
X94414Y-53432D01*
X94432Y-53414D01*
X94451Y-53376D01*
X94451Y-53301D01*
X94432Y-53264D01*
X94414Y-53245D01*
X94376Y-53226D01*
X94301Y-53226D01*
X94264Y-53245D01*
X94245Y-53264D01*
X94226Y-53301D01*
X95928Y-54201D02*
X95928Y-54163D01*
X95946Y-54126D01*
X95965Y-54107D01*
X96003Y-54089D01*
X96078Y-54070D01*
X96171Y-54070D01*
X96246Y-54089D01*
X96284Y-54107D01*
X96303Y-54126D01*
X96321Y-54163D01*
X96321Y-54201D01*
X96303Y-54238D01*
X96284Y-54257D01*
X96246Y-54276D01*
X96171Y-54295D01*
X96078Y-54295D01*
X96003Y-54276D01*
X95965Y-54257D01*
X95946Y-54238D01*
X95928Y-54201D01*
X96284Y-53901D02*
X96303Y-53882D01*
X96321Y-53901D01*
X96303Y-53920D01*
X96284Y-53901D01*
X96321Y-53901D01*
X96321Y-53507D02*
X96321Y-53732D01*
X96321Y-53620D02*
X95928Y-53620D01*
X95984Y-53657D01*
X96021Y-53695D01*
X96040Y-53732D01*
X96059Y-53170D02*
X96321Y-53170D01*
X96059Y-53339D02*
X96265Y-53339D01*
X96303Y-53320D01*
X96321Y-53282D01*
X96321Y-53226D01*
X96303Y-53189D01*
X96284Y-53170D01*
X98914Y-65976D02*
X98932Y-65995D01*
X98951Y-66051D01*
X98951Y-66089D01*
X98932Y-66145D01*
X98895Y-66182D01*
X98857Y-66201D01*
X98782Y-66220D01*
X98726Y-66220D01*
X98651Y-66201D01*
X98614Y-66182D01*
X98576Y-66145D01*
X98557Y-66089D01*
X98557Y-66051D01*
X98576Y-65995D01*
X98595Y-65976D01*
X98689Y-65639D02*
X98951Y-65639D01*
X98539Y-65732D02*
X98820Y-65826D01*
X98820Y-65582D01*
X98557Y-65357D02*
X98557Y-65320D01*
X98576Y-65282D01*
X98595Y-65264D01*
X98632Y-65245D01*
X98707Y-65226D01*
X98801Y-65226D01*
X98876Y-65245D01*
X98914Y-65264D01*
X98932Y-65282D01*
X98951Y-65320D01*
X98951Y-65357D01*
X98932Y-65395D01*
X98914Y-65414D01*
X98876Y-65432D01*
X98801Y-65451D01*
X98707Y-65451D01*
X98632Y-65432D01*
X98595Y-65414D01*
X98576Y-65395D01*
X98557Y-65357D01*
X100428Y-66201D02*
X100428Y-66163D01*
X100446Y-66126D01*
X100465Y-66107D01*
X100503Y-66089D01*
X100578Y-66070D01*
X100671Y-66070D01*
X100746Y-66089D01*
X100784Y-66107D01*
X100803Y-66126D01*
X100821Y-66163D01*
X100821Y-66201D01*
X100803Y-66238D01*
X100784Y-66257D01*
X100746Y-66276D01*
X100671Y-66295D01*
X100578Y-66295D01*
X100503Y-66276D01*
X100465Y-66257D01*
X100446Y-66238D01*
X100428Y-66201D01*
X100784Y-65901D02*
X100803Y-65882D01*
X100821Y-65901D01*
X100803Y-65920D01*
X100784Y-65901D01*
X100821Y-65901D01*
X100821Y-65507D02*
X100821Y-65732D01*
X100821Y-65620D02*
X100428Y-65620D01*
X100484Y-65657D01*
X100521Y-65695D01*
X100540Y-65732D01*
X100559Y-65170D02*
X100821Y-65170D01*
X100559Y-65339D02*
X100765Y-65339D01*
X100803Y-65320D01*
X100821Y-65282D01*
X100821Y-65226D01*
X100803Y-65189D01*
X100784Y-65170D01*
X94414Y-65976D02*
X94432Y-65995D01*
X94451Y-66051D01*
X94451Y-66089D01*
X94432Y-66145D01*
X94395Y-66182D01*
X94357Y-66201D01*
X94282Y-66220D01*
X94226Y-66220D01*
X94151Y-66201D01*
X94114Y-66182D01*
X94076Y-66145D01*
X94057Y-66089D01*
X94057Y-66051D01*
X94076Y-65995D01*
X94095Y-65976D01*
X94057Y-65845D02*
X94057Y-65601D01*
X94207Y-65732D01*
X94207Y-65676D01*
X94226Y-65639D01*
X94245Y-65620D01*
X94282Y-65601D01*
X94376Y-65601D01*
X94414Y-65620D01*
X94432Y-65639D01*
X94451Y-65676D01*
X94451Y-65789D01*
X94432Y-65826D01*
X94414Y-65845D01*
X94057Y-65470D02*
X94057Y-65226D01*
X94207Y-65357D01*
X94207Y-65301D01*
X94226Y-65264D01*
X94245Y-65245D01*
X94282Y-65226D01*
X94376Y-65226D01*
X94414Y-65245D01*
X94432Y-65264D01*
X94451Y-65301D01*
X94451Y-65414D01*
X94432Y-65451D01*
X94414Y-65470D01*
X95928Y-66201D02*
X95928Y-66163D01*
X95946Y-66126D01*
X95965Y-66107D01*
X96003Y-66089D01*
X96078Y-66070D01*
X96171Y-66070D01*
X96246Y-66089D01*
X96284Y-66107D01*
X96303Y-66126D01*
X96321Y-66163D01*
X96321Y-66201D01*
X96303Y-66238D01*
X96284Y-66257D01*
X96246Y-66276D01*
X96171Y-66295D01*
X96078Y-66295D01*
X96003Y-66276D01*
X95965Y-66257D01*
X95946Y-66238D01*
X95928Y-66201D01*
X96284Y-65901D02*
X96303Y-65882D01*
X96321Y-65901D01*
X96303Y-65920D01*
X96284Y-65901D01*
X96321Y-65901D01*
X96321Y-65507D02*
X96321Y-65732D01*
X96321Y-65620D02*
X95928Y-65620D01*
X95984Y-65657D01*
X96021Y-65695D01*
X96040Y-65732D01*
X96059Y-65170D02*
X96321Y-65170D01*
X96059Y-65339D02*
X96265Y-65339D01*
X96303Y-65320D01*
X96321Y-65282D01*
X96321Y-65226D01*
X96303Y-65189D01*
X96284Y-65170D01*
X89164Y-59976D02*
X89182Y-59995D01*
X89201Y-60051D01*
X89201Y-60089D01*
X89182Y-60145D01*
X89145Y-60182D01*
X89107Y-60201D01*
X89032Y-60220D01*
X88976Y-60220D01*
X88901Y-60201D01*
X88864Y-60182D01*
X88826Y-60145D01*
X88807Y-60089D01*
X88807Y-60051D01*
X88826Y-59995D01*
X88845Y-59976D01*
X88845Y-59826D02*
X88826Y-59807D01*
X88807Y-59770D01*
X88807Y-59676D01*
X88826Y-59639D01*
X88845Y-59620D01*
X88882Y-59601D01*
X88920Y-59601D01*
X88976Y-59620D01*
X89201Y-59845D01*
X89201Y-59601D01*
X88939Y-59264D02*
X89201Y-59264D01*
X88789Y-59357D02*
X89070Y-59451D01*
X89070Y-59207D01*
X90678Y-60201D02*
X90678Y-60163D01*
X90696Y-60126D01*
X90715Y-60107D01*
X90753Y-60089D01*
X90828Y-60070D01*
X90921Y-60070D01*
X90996Y-60089D01*
X91034Y-60107D01*
X91053Y-60126D01*
X91071Y-60163D01*
X91071Y-60201D01*
X91053Y-60238D01*
X91034Y-60257D01*
X90996Y-60276D01*
X90921Y-60295D01*
X90828Y-60295D01*
X90753Y-60276D01*
X90715Y-60257D01*
X90696Y-60238D01*
X90678Y-60201D01*
X91034Y-59901D02*
X91053Y-59882D01*
X91071Y-59901D01*
X91053Y-59920D01*
X91034Y-59901D01*
X91071Y-59901D01*
X91071Y-59507D02*
X91071Y-59732D01*
X91071Y-59620D02*
X90678Y-59620D01*
X90734Y-59657D01*
X90771Y-59695D01*
X90790Y-59732D01*
X90809Y-59170D02*
X91071Y-59170D01*
X90809Y-59339D02*
X91015Y-59339D01*
X91053Y-59320D01*
X91071Y-59282D01*
X91071Y-59226D01*
X91053Y-59189D01*
X91034Y-59170D01*
X95914Y-65976D02*
X95932Y-65995D01*
X95951Y-66051D01*
X95951Y-66089D01*
X95932Y-66145D01*
X95895Y-66182D01*
X95857Y-66201D01*
X95782Y-66220D01*
X95726Y-66220D01*
X95651Y-66201D01*
X95614Y-66182D01*
X95576Y-66145D01*
X95557Y-66089D01*
X95557Y-66051D01*
X95576Y-65995D01*
X95595Y-65976D01*
X95557Y-65845D02*
X95557Y-65601D01*
X95707Y-65732D01*
X95707Y-65676D01*
X95726Y-65639D01*
X95745Y-65620D01*
X95782Y-65601D01*
X95876Y-65601D01*
X95914Y-65620D01*
X95932Y-65639D01*
X95951Y-65676D01*
X95951Y-65789D01*
X95932Y-65826D01*
X95914Y-65845D01*
X95595Y-65451D02*
X95576Y-65432D01*
X95557Y-65395D01*
X95557Y-65301D01*
X95576Y-65264D01*
X95595Y-65245D01*
X95632Y-65226D01*
X95670Y-65226D01*
X95726Y-65245D01*
X95951Y-65470D01*
X95951Y-65226D01*
X97428Y-66201D02*
X97428Y-66163D01*
X97446Y-66126D01*
X97465Y-66107D01*
X97503Y-66089D01*
X97578Y-66070D01*
X97671Y-66070D01*
X97746Y-66089D01*
X97784Y-66107D01*
X97803Y-66126D01*
X97821Y-66163D01*
X97821Y-66201D01*
X97803Y-66238D01*
X97784Y-66257D01*
X97746Y-66276D01*
X97671Y-66295D01*
X97578Y-66295D01*
X97503Y-66276D01*
X97465Y-66257D01*
X97446Y-66238D01*
X97428Y-66201D01*
X97784Y-65901D02*
X97803Y-65882D01*
X97821Y-65901D01*
X97803Y-65920D01*
X97784Y-65901D01*
X97821Y-65901D01*
X97821Y-65507D02*
X97821Y-65732D01*
X97821Y-65620D02*
X97428Y-65620D01*
X97484Y-65657D01*
X97521Y-65695D01*
X97540Y-65732D01*
X97559Y-65170D02*
X97821Y-65170D01*
X97559Y-65339D02*
X97765Y-65339D01*
X97803Y-65320D01*
X97821Y-65282D01*
X97821Y-65226D01*
X97803Y-65189D01*
X97784Y-65170D01*
X100414Y-65976D02*
X100432Y-65995D01*
X100451Y-66051D01*
X100451Y-66089D01*
X100432Y-66145D01*
X100395Y-66182D01*
X100357Y-66201D01*
X100282Y-66220D01*
X100226Y-66220D01*
X100151Y-66201D01*
X100114Y-66182D01*
X100076Y-66145D01*
X100057Y-66089D01*
X100057Y-66051D01*
X100076Y-65995D01*
X100095Y-65976D01*
X100057Y-65845D02*
X100057Y-65601D01*
X100207Y-65732D01*
X100207Y-65676D01*
X100226Y-65639D01*
X100245Y-65620D01*
X100282Y-65601D01*
X100376Y-65601D01*
X100414Y-65620D01*
X100432Y-65639D01*
X100451Y-65676D01*
X100451Y-65789D01*
X100432Y-65826D01*
X100414Y-65845D01*
X100451Y-65414D02*
X100451Y-65339D01*
X100432Y-65301D01*
X100414Y-65282D01*
X100357Y-65245D01*
X100282Y-65226D01*
X100132Y-65226D01*
X100095Y-65245D01*
X100076Y-65264D01*
X100057Y-65301D01*
X100057Y-65376D01*
X100076Y-65414D01*
X100095Y-65432D01*
X100132Y-65451D01*
X100226Y-65451D01*
X100264Y-65432D01*
X100282Y-65414D01*
X100301Y-65376D01*
X100301Y-65301D01*
X100282Y-65264D01*
X100264Y-65245D01*
X100226Y-65226D01*
X101928Y-66201D02*
X101928Y-66163D01*
X101946Y-66126D01*
X101965Y-66107D01*
X102003Y-66089D01*
X102078Y-66070D01*
X102171Y-66070D01*
X102246Y-66089D01*
X102284Y-66107D01*
X102303Y-66126D01*
X102321Y-66163D01*
X102321Y-66201D01*
X102303Y-66238D01*
X102284Y-66257D01*
X102246Y-66276D01*
X102171Y-66295D01*
X102078Y-66295D01*
X102003Y-66276D01*
X101965Y-66257D01*
X101946Y-66238D01*
X101928Y-66201D01*
X102284Y-65901D02*
X102303Y-65882D01*
X102321Y-65901D01*
X102303Y-65920D01*
X102284Y-65901D01*
X102321Y-65901D01*
X102321Y-65507D02*
X102321Y-65732D01*
X102321Y-65620D02*
X101928Y-65620D01*
X101984Y-65657D01*
X102021Y-65695D01*
X102040Y-65732D01*
X102059Y-65170D02*
X102321Y-65170D01*
X102059Y-65339D02*
X102265Y-65339D01*
X102303Y-65320D01*
X102321Y-65282D01*
X102321Y-65226D01*
X102303Y-65189D01*
X102284Y-65170D01*
X87664Y-59976D02*
X87682Y-59995D01*
X87701Y-60051D01*
X87701Y-60089D01*
X87682Y-60145D01*
X87645Y-60182D01*
X87607Y-60201D01*
X87532Y-60220D01*
X87476Y-60220D01*
X87401Y-60201D01*
X87364Y-60182D01*
X87326Y-60145D01*
X87307Y-60089D01*
X87307Y-60051D01*
X87326Y-59995D01*
X87345Y-59976D01*
X87345Y-59826D02*
X87326Y-59807D01*
X87307Y-59770D01*
X87307Y-59676D01*
X87326Y-59639D01*
X87345Y-59620D01*
X87382Y-59601D01*
X87420Y-59601D01*
X87476Y-59620D01*
X87701Y-59845D01*
X87701Y-59601D01*
X87307Y-59245D02*
X87307Y-59432D01*
X87495Y-59451D01*
X87476Y-59432D01*
X87457Y-59395D01*
X87457Y-59301D01*
X87476Y-59264D01*
X87495Y-59245D01*
X87532Y-59226D01*
X87626Y-59226D01*
X87664Y-59245D01*
X87682Y-59264D01*
X87701Y-59301D01*
X87701Y-59395D01*
X87682Y-59432D01*
X87664Y-59451D01*
X89178Y-60201D02*
X89178Y-60163D01*
X89196Y-60126D01*
X89215Y-60107D01*
X89253Y-60089D01*
X89328Y-60070D01*
X89421Y-60070D01*
X89496Y-60089D01*
X89534Y-60107D01*
X89553Y-60126D01*
X89571Y-60163D01*
X89571Y-60201D01*
X89553Y-60238D01*
X89534Y-60257D01*
X89496Y-60276D01*
X89421Y-60295D01*
X89328Y-60295D01*
X89253Y-60276D01*
X89215Y-60257D01*
X89196Y-60238D01*
X89178Y-60201D01*
X89534Y-59901D02*
X89553Y-59882D01*
X89571Y-59901D01*
X89553Y-59920D01*
X89534Y-59901D01*
X89571Y-59901D01*
X89571Y-59507D02*
X89571Y-59732D01*
X89571Y-59620D02*
X89178Y-59620D01*
X89234Y-59657D01*
X89271Y-59695D01*
X89290Y-59732D01*
X89309Y-59170D02*
X89571Y-59170D01*
X89309Y-59339D02*
X89515Y-59339D01*
X89553Y-59320D01*
X89571Y-59282D01*
X89571Y-59226D01*
X89553Y-59189D01*
X89534Y-59170D01*
X98164Y-59976D02*
X98182Y-59995D01*
X98201Y-60051D01*
X98201Y-60089D01*
X98182Y-60145D01*
X98145Y-60182D01*
X98107Y-60201D01*
X98032Y-60220D01*
X97976Y-60220D01*
X97901Y-60201D01*
X97864Y-60182D01*
X97826Y-60145D01*
X97807Y-60089D01*
X97807Y-60051D01*
X97826Y-59995D01*
X97845Y-59976D01*
X97807Y-59845D02*
X97807Y-59601D01*
X97957Y-59732D01*
X97957Y-59676D01*
X97976Y-59639D01*
X97995Y-59620D01*
X98032Y-59601D01*
X98126Y-59601D01*
X98164Y-59620D01*
X98182Y-59639D01*
X98201Y-59676D01*
X98201Y-59789D01*
X98182Y-59826D01*
X98164Y-59845D01*
X97939Y-59264D02*
X98201Y-59264D01*
X97789Y-59357D02*
X98070Y-59451D01*
X98070Y-59207D01*
X99678Y-60201D02*
X99678Y-60163D01*
X99696Y-60126D01*
X99715Y-60107D01*
X99753Y-60089D01*
X99828Y-60070D01*
X99921Y-60070D01*
X99996Y-60089D01*
X100034Y-60107D01*
X100053Y-60126D01*
X100071Y-60163D01*
X100071Y-60201D01*
X100053Y-60238D01*
X100034Y-60257D01*
X99996Y-60276D01*
X99921Y-60295D01*
X99828Y-60295D01*
X99753Y-60276D01*
X99715Y-60257D01*
X99696Y-60238D01*
X99678Y-60201D01*
X100034Y-59901D02*
X100053Y-59882D01*
X100071Y-59901D01*
X100053Y-59920D01*
X100034Y-59901D01*
X100071Y-59901D01*
X100071Y-59507D02*
X100071Y-59732D01*
X100071Y-59620D02*
X99678Y-59620D01*
X99734Y-59657D01*
X99771Y-59695D01*
X99790Y-59732D01*
X99809Y-59170D02*
X100071Y-59170D01*
X99809Y-59339D02*
X100015Y-59339D01*
X100053Y-59320D01*
X100071Y-59282D01*
X100071Y-59226D01*
X100053Y-59189D01*
X100034Y-59170D01*
X92164Y-59976D02*
X92182Y-59995D01*
X92201Y-60051D01*
X92201Y-60089D01*
X92182Y-60145D01*
X92145Y-60182D01*
X92107Y-60201D01*
X92032Y-60220D01*
X91976Y-60220D01*
X91901Y-60201D01*
X91864Y-60182D01*
X91826Y-60145D01*
X91807Y-60089D01*
X91807Y-60051D01*
X91826Y-59995D01*
X91845Y-59976D01*
X91845Y-59826D02*
X91826Y-59807D01*
X91807Y-59770D01*
X91807Y-59676D01*
X91826Y-59639D01*
X91845Y-59620D01*
X91882Y-59601D01*
X91920Y-59601D01*
X91976Y-59620D01*
X92201Y-59845D01*
X92201Y-59601D01*
X91807Y-59264D02*
X91807Y-59339D01*
X91826Y-59376D01*
X91845Y-59395D01*
X91901Y-59432D01*
X91976Y-59451D01*
X92126Y-59451D01*
X92164Y-59432D01*
X92182Y-59414D01*
X92201Y-59376D01*
X92201Y-59301D01*
X92182Y-59264D01*
X92164Y-59245D01*
X92126Y-59226D01*
X92032Y-59226D01*
X91995Y-59245D01*
X91976Y-59264D01*
X91957Y-59301D01*
X91957Y-59376D01*
X91976Y-59414D01*
X91995Y-59432D01*
X92032Y-59451D01*
X93678Y-60201D02*
X93678Y-60163D01*
X93696Y-60126D01*
X93715Y-60107D01*
X93753Y-60089D01*
X93828Y-60070D01*
X93921Y-60070D01*
X93996Y-60089D01*
X94034Y-60107D01*
X94053Y-60126D01*
X94071Y-60163D01*
X94071Y-60201D01*
X94053Y-60238D01*
X94034Y-60257D01*
X93996Y-60276D01*
X93921Y-60295D01*
X93828Y-60295D01*
X93753Y-60276D01*
X93715Y-60257D01*
X93696Y-60238D01*
X93678Y-60201D01*
X94034Y-59901D02*
X94053Y-59882D01*
X94071Y-59901D01*
X94053Y-59920D01*
X94034Y-59901D01*
X94071Y-59901D01*
X94071Y-59507D02*
X94071Y-59732D01*
X94071Y-59620D02*
X93678Y-59620D01*
X93734Y-59657D01*
X93771Y-59695D01*
X93790Y-59732D01*
X93809Y-59170D02*
X94071Y-59170D01*
X93809Y-59339D02*
X94015Y-59339D01*
X94053Y-59320D01*
X94071Y-59282D01*
X94071Y-59226D01*
X94053Y-59189D01*
X94034Y-59170D01*
X91414Y-65976D02*
X91432Y-65995D01*
X91451Y-66051D01*
X91451Y-66089D01*
X91432Y-66145D01*
X91395Y-66182D01*
X91357Y-66201D01*
X91282Y-66220D01*
X91226Y-66220D01*
X91151Y-66201D01*
X91114Y-66182D01*
X91076Y-66145D01*
X91057Y-66089D01*
X91057Y-66051D01*
X91076Y-65995D01*
X91095Y-65976D01*
X91095Y-65826D02*
X91076Y-65807D01*
X91057Y-65770D01*
X91057Y-65676D01*
X91076Y-65639D01*
X91095Y-65620D01*
X91132Y-65601D01*
X91170Y-65601D01*
X91226Y-65620D01*
X91451Y-65845D01*
X91451Y-65601D01*
X91451Y-65414D02*
X91451Y-65339D01*
X91432Y-65301D01*
X91414Y-65282D01*
X91357Y-65245D01*
X91282Y-65226D01*
X91132Y-65226D01*
X91095Y-65245D01*
X91076Y-65264D01*
X91057Y-65301D01*
X91057Y-65376D01*
X91076Y-65414D01*
X91095Y-65432D01*
X91132Y-65451D01*
X91226Y-65451D01*
X91264Y-65432D01*
X91282Y-65414D01*
X91301Y-65376D01*
X91301Y-65301D01*
X91282Y-65264D01*
X91264Y-65245D01*
X91226Y-65226D01*
X92928Y-66201D02*
X92928Y-66163D01*
X92946Y-66126D01*
X92965Y-66107D01*
X93003Y-66089D01*
X93078Y-66070D01*
X93171Y-66070D01*
X93246Y-66089D01*
X93284Y-66107D01*
X93303Y-66126D01*
X93321Y-66163D01*
X93321Y-66201D01*
X93303Y-66238D01*
X93284Y-66257D01*
X93246Y-66276D01*
X93171Y-66295D01*
X93078Y-66295D01*
X93003Y-66276D01*
X92965Y-66257D01*
X92946Y-66238D01*
X92928Y-66201D01*
X93284Y-65901D02*
X93303Y-65882D01*
X93321Y-65901D01*
X93303Y-65920D01*
X93284Y-65901D01*
X93321Y-65901D01*
X93321Y-65507D02*
X93321Y-65732D01*
X93321Y-65620D02*
X92928Y-65620D01*
X92984Y-65657D01*
X93021Y-65695D01*
X93040Y-65732D01*
X93059Y-65170D02*
X93321Y-65170D01*
X93059Y-65339D02*
X93265Y-65339D01*
X93303Y-65320D01*
X93321Y-65282D01*
X93321Y-65226D01*
X93303Y-65189D01*
X93284Y-65170D01*
X98914Y-53976D02*
X98932Y-53995D01*
X98951Y-54051D01*
X98951Y-54089D01*
X98932Y-54145D01*
X98895Y-54182D01*
X98857Y-54201D01*
X98782Y-54220D01*
X98726Y-54220D01*
X98651Y-54201D01*
X98614Y-54182D01*
X98576Y-54145D01*
X98557Y-54089D01*
X98557Y-54051D01*
X98576Y-53995D01*
X98595Y-53976D01*
X98557Y-53845D02*
X98557Y-53601D01*
X98707Y-53732D01*
X98707Y-53676D01*
X98726Y-53639D01*
X98745Y-53620D01*
X98782Y-53601D01*
X98876Y-53601D01*
X98914Y-53620D01*
X98932Y-53639D01*
X98951Y-53676D01*
X98951Y-53789D01*
X98932Y-53826D01*
X98914Y-53845D01*
X98951Y-53226D02*
X98951Y-53451D01*
X98951Y-53339D02*
X98557Y-53339D01*
X98614Y-53376D01*
X98651Y-53414D01*
X98670Y-53451D01*
X100428Y-54201D02*
X100428Y-54163D01*
X100446Y-54126D01*
X100465Y-54107D01*
X100503Y-54089D01*
X100578Y-54070D01*
X100671Y-54070D01*
X100746Y-54089D01*
X100784Y-54107D01*
X100803Y-54126D01*
X100821Y-54163D01*
X100821Y-54201D01*
X100803Y-54238D01*
X100784Y-54257D01*
X100746Y-54276D01*
X100671Y-54295D01*
X100578Y-54295D01*
X100503Y-54276D01*
X100465Y-54257D01*
X100446Y-54238D01*
X100428Y-54201D01*
X100784Y-53901D02*
X100803Y-53882D01*
X100821Y-53901D01*
X100803Y-53920D01*
X100784Y-53901D01*
X100821Y-53901D01*
X100821Y-53507D02*
X100821Y-53732D01*
X100821Y-53620D02*
X100428Y-53620D01*
X100484Y-53657D01*
X100521Y-53695D01*
X100540Y-53732D01*
X100559Y-53170D02*
X100821Y-53170D01*
X100559Y-53339D02*
X100765Y-53339D01*
X100803Y-53320D01*
X100821Y-53282D01*
X100821Y-53226D01*
X100803Y-53189D01*
X100784Y-53170D01*
X96664Y-59976D02*
X96682Y-59995D01*
X96701Y-60051D01*
X96701Y-60089D01*
X96682Y-60145D01*
X96645Y-60182D01*
X96607Y-60201D01*
X96532Y-60220D01*
X96476Y-60220D01*
X96401Y-60201D01*
X96364Y-60182D01*
X96326Y-60145D01*
X96307Y-60089D01*
X96307Y-60051D01*
X96326Y-59995D01*
X96345Y-59976D01*
X96307Y-59845D02*
X96307Y-59601D01*
X96457Y-59732D01*
X96457Y-59676D01*
X96476Y-59639D01*
X96495Y-59620D01*
X96532Y-59601D01*
X96626Y-59601D01*
X96664Y-59620D01*
X96682Y-59639D01*
X96701Y-59676D01*
X96701Y-59789D01*
X96682Y-59826D01*
X96664Y-59845D01*
X96307Y-59245D02*
X96307Y-59432D01*
X96495Y-59451D01*
X96476Y-59432D01*
X96457Y-59395D01*
X96457Y-59301D01*
X96476Y-59264D01*
X96495Y-59245D01*
X96532Y-59226D01*
X96626Y-59226D01*
X96664Y-59245D01*
X96682Y-59264D01*
X96701Y-59301D01*
X96701Y-59395D01*
X96682Y-59432D01*
X96664Y-59451D01*
X98178Y-60201D02*
X98178Y-60163D01*
X98196Y-60126D01*
X98215Y-60107D01*
X98253Y-60089D01*
X98328Y-60070D01*
X98421Y-60070D01*
X98496Y-60089D01*
X98534Y-60107D01*
X98553Y-60126D01*
X98571Y-60163D01*
X98571Y-60201D01*
X98553Y-60238D01*
X98534Y-60257D01*
X98496Y-60276D01*
X98421Y-60295D01*
X98328Y-60295D01*
X98253Y-60276D01*
X98215Y-60257D01*
X98196Y-60238D01*
X98178Y-60201D01*
X98534Y-59901D02*
X98553Y-59882D01*
X98571Y-59901D01*
X98553Y-59920D01*
X98534Y-59901D01*
X98571Y-59901D01*
X98571Y-59507D02*
X98571Y-59732D01*
X98571Y-59620D02*
X98178Y-59620D01*
X98234Y-59657D01*
X98271Y-59695D01*
X98290Y-59732D01*
X98309Y-59170D02*
X98571Y-59170D01*
X98309Y-59339D02*
X98515Y-59339D01*
X98553Y-59320D01*
X98571Y-59282D01*
X98571Y-59226D01*
X98553Y-59189D01*
X98534Y-59170D01*
X95914Y-53976D02*
X95932Y-53995D01*
X95951Y-54051D01*
X95951Y-54089D01*
X95932Y-54145D01*
X95895Y-54182D01*
X95857Y-54201D01*
X95782Y-54220D01*
X95726Y-54220D01*
X95651Y-54201D01*
X95614Y-54182D01*
X95576Y-54145D01*
X95557Y-54089D01*
X95557Y-54051D01*
X95576Y-53995D01*
X95595Y-53976D01*
X95557Y-53845D02*
X95557Y-53601D01*
X95707Y-53732D01*
X95707Y-53676D01*
X95726Y-53639D01*
X95745Y-53620D01*
X95782Y-53601D01*
X95876Y-53601D01*
X95914Y-53620D01*
X95932Y-53639D01*
X95951Y-53676D01*
X95951Y-53789D01*
X95932Y-53826D01*
X95914Y-53845D01*
X95557Y-53470D02*
X95557Y-53207D01*
X95951Y-53376D01*
X97428Y-54201D02*
X97428Y-54163D01*
X97446Y-54126D01*
X97465Y-54107D01*
X97503Y-54089D01*
X97578Y-54070D01*
X97671Y-54070D01*
X97746Y-54089D01*
X97784Y-54107D01*
X97803Y-54126D01*
X97821Y-54163D01*
X97821Y-54201D01*
X97803Y-54238D01*
X97784Y-54257D01*
X97746Y-54276D01*
X97671Y-54295D01*
X97578Y-54295D01*
X97503Y-54276D01*
X97465Y-54257D01*
X97446Y-54238D01*
X97428Y-54201D01*
X97784Y-53901D02*
X97803Y-53882D01*
X97821Y-53901D01*
X97803Y-53920D01*
X97784Y-53901D01*
X97821Y-53901D01*
X97821Y-53507D02*
X97821Y-53732D01*
X97821Y-53620D02*
X97428Y-53620D01*
X97484Y-53657D01*
X97521Y-53695D01*
X97540Y-53732D01*
X97559Y-53170D02*
X97821Y-53170D01*
X97559Y-53339D02*
X97765Y-53339D01*
X97803Y-53320D01*
X97821Y-53282D01*
X97821Y-53226D01*
X97803Y-53189D01*
X97784Y-53170D01*
X86914Y-53976D02*
X86932Y-53995D01*
X86951Y-54051D01*
X86951Y-54089D01*
X86932Y-54145D01*
X86895Y-54182D01*
X86857Y-54201D01*
X86782Y-54220D01*
X86726Y-54220D01*
X86651Y-54201D01*
X86614Y-54182D01*
X86576Y-54145D01*
X86557Y-54089D01*
X86557Y-54051D01*
X86576Y-53995D01*
X86595Y-53976D01*
X86595Y-53826D02*
X86576Y-53807D01*
X86557Y-53770D01*
X86557Y-53676D01*
X86576Y-53639D01*
X86595Y-53620D01*
X86632Y-53601D01*
X86670Y-53601D01*
X86726Y-53620D01*
X86951Y-53845D01*
X86951Y-53601D01*
X86557Y-53470D02*
X86557Y-53207D01*
X86951Y-53376D01*
X88428Y-54201D02*
X88428Y-54163D01*
X88446Y-54126D01*
X88465Y-54107D01*
X88503Y-54089D01*
X88578Y-54070D01*
X88671Y-54070D01*
X88746Y-54089D01*
X88784Y-54107D01*
X88803Y-54126D01*
X88821Y-54163D01*
X88821Y-54201D01*
X88803Y-54238D01*
X88784Y-54257D01*
X88746Y-54276D01*
X88671Y-54295D01*
X88578Y-54295D01*
X88503Y-54276D01*
X88465Y-54257D01*
X88446Y-54238D01*
X88428Y-54201D01*
X88784Y-53901D02*
X88803Y-53882D01*
X88821Y-53901D01*
X88803Y-53920D01*
X88784Y-53901D01*
X88821Y-53901D01*
X88821Y-53507D02*
X88821Y-53732D01*
X88821Y-53620D02*
X88428Y-53620D01*
X88484Y-53657D01*
X88521Y-53695D01*
X88540Y-53732D01*
X88559Y-53170D02*
X88821Y-53170D01*
X88559Y-53339D02*
X88765Y-53339D01*
X88803Y-53320D01*
X88821Y-53282D01*
X88821Y-53226D01*
X88803Y-53189D01*
X88784Y-53170D01*
X85414Y-53976D02*
X85432Y-53995D01*
X85451Y-54051D01*
X85451Y-54089D01*
X85432Y-54145D01*
X85395Y-54182D01*
X85357Y-54201D01*
X85282Y-54220D01*
X85226Y-54220D01*
X85151Y-54201D01*
X85114Y-54182D01*
X85076Y-54145D01*
X85057Y-54089D01*
X85057Y-54051D01*
X85076Y-53995D01*
X85095Y-53976D01*
X85095Y-53826D02*
X85076Y-53807D01*
X85057Y-53770D01*
X85057Y-53676D01*
X85076Y-53639D01*
X85095Y-53620D01*
X85132Y-53601D01*
X85170Y-53601D01*
X85226Y-53620D01*
X85451Y-53845D01*
X85451Y-53601D01*
X85226Y-53376D02*
X85207Y-53414D01*
X85189Y-53432D01*
X85151Y-53451D01*
X85132Y-53451D01*
X85095Y-53432D01*
X85076Y-53414D01*
X85057Y-53376D01*
X85057Y-53301D01*
X85076Y-53264D01*
X85095Y-53245D01*
X85132Y-53226D01*
X85151Y-53226D01*
X85189Y-53245D01*
X85207Y-53264D01*
X85226Y-53301D01*
X85226Y-53376D01*
X85245Y-53414D01*
X85264Y-53432D01*
X85301Y-53451D01*
X85376Y-53451D01*
X85414Y-53432D01*
X85432Y-53414D01*
X85451Y-53376D01*
X85451Y-53301D01*
X85432Y-53264D01*
X85414Y-53245D01*
X85376Y-53226D01*
X85301Y-53226D01*
X85264Y-53245D01*
X85245Y-53264D01*
X85226Y-53301D01*
X86928Y-54201D02*
X86928Y-54163D01*
X86946Y-54126D01*
X86965Y-54107D01*
X87003Y-54089D01*
X87078Y-54070D01*
X87171Y-54070D01*
X87246Y-54089D01*
X87284Y-54107D01*
X87303Y-54126D01*
X87321Y-54163D01*
X87321Y-54201D01*
X87303Y-54238D01*
X87284Y-54257D01*
X87246Y-54276D01*
X87171Y-54295D01*
X87078Y-54295D01*
X87003Y-54276D01*
X86965Y-54257D01*
X86946Y-54238D01*
X86928Y-54201D01*
X87284Y-53901D02*
X87303Y-53882D01*
X87321Y-53901D01*
X87303Y-53920D01*
X87284Y-53901D01*
X87321Y-53901D01*
X87321Y-53507D02*
X87321Y-53732D01*
X87321Y-53620D02*
X86928Y-53620D01*
X86984Y-53657D01*
X87021Y-53695D01*
X87040Y-53732D01*
X87059Y-53170D02*
X87321Y-53170D01*
X87059Y-53339D02*
X87265Y-53339D01*
X87303Y-53320D01*
X87321Y-53282D01*
X87321Y-53226D01*
X87303Y-53189D01*
X87284Y-53170D01*
X89914Y-65976D02*
X89932Y-65995D01*
X89951Y-66051D01*
X89951Y-66089D01*
X89932Y-66145D01*
X89895Y-66182D01*
X89857Y-66201D01*
X89782Y-66220D01*
X89726Y-66220D01*
X89651Y-66201D01*
X89614Y-66182D01*
X89576Y-66145D01*
X89557Y-66089D01*
X89557Y-66051D01*
X89576Y-65995D01*
X89595Y-65976D01*
X89557Y-65845D02*
X89557Y-65601D01*
X89707Y-65732D01*
X89707Y-65676D01*
X89726Y-65639D01*
X89745Y-65620D01*
X89782Y-65601D01*
X89876Y-65601D01*
X89914Y-65620D01*
X89932Y-65639D01*
X89951Y-65676D01*
X89951Y-65789D01*
X89932Y-65826D01*
X89914Y-65845D01*
X89557Y-65357D02*
X89557Y-65320D01*
X89576Y-65282D01*
X89595Y-65264D01*
X89632Y-65245D01*
X89707Y-65226D01*
X89801Y-65226D01*
X89876Y-65245D01*
X89914Y-65264D01*
X89932Y-65282D01*
X89951Y-65320D01*
X89951Y-65357D01*
X89932Y-65395D01*
X89914Y-65414D01*
X89876Y-65432D01*
X89801Y-65451D01*
X89707Y-65451D01*
X89632Y-65432D01*
X89595Y-65414D01*
X89576Y-65395D01*
X89557Y-65357D01*
X91428Y-66201D02*
X91428Y-66163D01*
X91446Y-66126D01*
X91465Y-66107D01*
X91503Y-66089D01*
X91578Y-66070D01*
X91671Y-66070D01*
X91746Y-66089D01*
X91784Y-66107D01*
X91803Y-66126D01*
X91821Y-66163D01*
X91821Y-66201D01*
X91803Y-66238D01*
X91784Y-66257D01*
X91746Y-66276D01*
X91671Y-66295D01*
X91578Y-66295D01*
X91503Y-66276D01*
X91465Y-66257D01*
X91446Y-66238D01*
X91428Y-66201D01*
X91784Y-65901D02*
X91803Y-65882D01*
X91821Y-65901D01*
X91803Y-65920D01*
X91784Y-65901D01*
X91821Y-65901D01*
X91821Y-65507D02*
X91821Y-65732D01*
X91821Y-65620D02*
X91428Y-65620D01*
X91484Y-65657D01*
X91521Y-65695D01*
X91540Y-65732D01*
X91559Y-65170D02*
X91821Y-65170D01*
X91559Y-65339D02*
X91765Y-65339D01*
X91803Y-65320D01*
X91821Y-65282D01*
X91821Y-65226D01*
X91803Y-65189D01*
X91784Y-65170D01*
X101164Y-59976D02*
X101182Y-59995D01*
X101201Y-60051D01*
X101201Y-60089D01*
X101182Y-60145D01*
X101145Y-60182D01*
X101107Y-60201D01*
X101032Y-60220D01*
X100976Y-60220D01*
X100901Y-60201D01*
X100864Y-60182D01*
X100826Y-60145D01*
X100807Y-60089D01*
X100807Y-60051D01*
X100826Y-59995D01*
X100845Y-59976D01*
X100807Y-59845D02*
X100807Y-59601D01*
X100957Y-59732D01*
X100957Y-59676D01*
X100976Y-59639D01*
X100995Y-59620D01*
X101032Y-59601D01*
X101126Y-59601D01*
X101164Y-59620D01*
X101182Y-59639D01*
X101201Y-59676D01*
X101201Y-59789D01*
X101182Y-59826D01*
X101164Y-59845D01*
X100807Y-59264D02*
X100807Y-59339D01*
X100826Y-59376D01*
X100845Y-59395D01*
X100901Y-59432D01*
X100976Y-59451D01*
X101126Y-59451D01*
X101164Y-59432D01*
X101182Y-59414D01*
X101201Y-59376D01*
X101201Y-59301D01*
X101182Y-59264D01*
X101164Y-59245D01*
X101126Y-59226D01*
X101032Y-59226D01*
X100995Y-59245D01*
X100976Y-59264D01*
X100957Y-59301D01*
X100957Y-59376D01*
X100976Y-59414D01*
X100995Y-59432D01*
X101032Y-59451D01*
X102678Y-60201D02*
X102678Y-60163D01*
X102696Y-60126D01*
X102715Y-60107D01*
X102753Y-60089D01*
X102828Y-60070D01*
X102921Y-60070D01*
X102996Y-60089D01*
X103034Y-60107D01*
X103053Y-60126D01*
X103071Y-60163D01*
X103071Y-60201D01*
X103053Y-60238D01*
X103034Y-60257D01*
X102996Y-60276D01*
X102921Y-60295D01*
X102828Y-60295D01*
X102753Y-60276D01*
X102715Y-60257D01*
X102696Y-60238D01*
X102678Y-60201D01*
X103034Y-59901D02*
X103053Y-59882D01*
X103071Y-59901D01*
X103053Y-59920D01*
X103034Y-59901D01*
X103071Y-59901D01*
X103071Y-59507D02*
X103071Y-59732D01*
X103071Y-59620D02*
X102678Y-59620D01*
X102734Y-59657D01*
X102771Y-59695D01*
X102790Y-59732D01*
X102809Y-59170D02*
X103071Y-59170D01*
X102809Y-59339D02*
X103015Y-59339D01*
X103053Y-59320D01*
X103071Y-59282D01*
X103071Y-59226D01*
X103053Y-59189D01*
X103034Y-59170D01*
X86914Y-65976D02*
X86932Y-65995D01*
X86951Y-66051D01*
X86951Y-66089D01*
X86932Y-66145D01*
X86895Y-66182D01*
X86857Y-66201D01*
X86782Y-66220D01*
X86726Y-66220D01*
X86651Y-66201D01*
X86614Y-66182D01*
X86576Y-66145D01*
X86557Y-66089D01*
X86557Y-66051D01*
X86576Y-65995D01*
X86595Y-65976D01*
X86595Y-65826D02*
X86576Y-65807D01*
X86557Y-65770D01*
X86557Y-65676D01*
X86576Y-65639D01*
X86595Y-65620D01*
X86632Y-65601D01*
X86670Y-65601D01*
X86726Y-65620D01*
X86951Y-65845D01*
X86951Y-65601D01*
X86595Y-65451D02*
X86576Y-65432D01*
X86557Y-65395D01*
X86557Y-65301D01*
X86576Y-65264D01*
X86595Y-65245D01*
X86632Y-65226D01*
X86670Y-65226D01*
X86726Y-65245D01*
X86951Y-65470D01*
X86951Y-65226D01*
X88428Y-66201D02*
X88428Y-66163D01*
X88446Y-66126D01*
X88465Y-66107D01*
X88503Y-66089D01*
X88578Y-66070D01*
X88671Y-66070D01*
X88746Y-66089D01*
X88784Y-66107D01*
X88803Y-66126D01*
X88821Y-66163D01*
X88821Y-66201D01*
X88803Y-66238D01*
X88784Y-66257D01*
X88746Y-66276D01*
X88671Y-66295D01*
X88578Y-66295D01*
X88503Y-66276D01*
X88465Y-66257D01*
X88446Y-66238D01*
X88428Y-66201D01*
X88784Y-65901D02*
X88803Y-65882D01*
X88821Y-65901D01*
X88803Y-65920D01*
X88784Y-65901D01*
X88821Y-65901D01*
X88821Y-65507D02*
X88821Y-65732D01*
X88821Y-65620D02*
X88428Y-65620D01*
X88484Y-65657D01*
X88521Y-65695D01*
X88540Y-65732D01*
X88559Y-65170D02*
X88821Y-65170D01*
X88559Y-65339D02*
X88765Y-65339D01*
X88803Y-65320D01*
X88821Y-65282D01*
X88821Y-65226D01*
X88803Y-65189D01*
X88784Y-65170D01*
X67414Y-53789D02*
X67432Y-53807D01*
X67451Y-53864D01*
X67451Y-53901D01*
X67432Y-53957D01*
X67395Y-53995D01*
X67357Y-54014D01*
X67282Y-54032D01*
X67226Y-54032D01*
X67151Y-54014D01*
X67114Y-53995D01*
X67076Y-53957D01*
X67057Y-53901D01*
X67057Y-53864D01*
X67076Y-53807D01*
X67095Y-53789D01*
X67226Y-53564D02*
X67207Y-53601D01*
X67189Y-53620D01*
X67151Y-53639D01*
X67132Y-53639D01*
X67095Y-53620D01*
X67076Y-53601D01*
X67057Y-53564D01*
X67057Y-53489D01*
X67076Y-53451D01*
X67095Y-53432D01*
X67132Y-53414D01*
X67151Y-53414D01*
X67189Y-53432D01*
X67207Y-53451D01*
X67226Y-53489D01*
X67226Y-53564D01*
X67245Y-53601D01*
X67264Y-53620D01*
X67301Y-53639D01*
X67376Y-53639D01*
X67414Y-53620D01*
X67432Y-53601D01*
X67451Y-53564D01*
X67451Y-53489D01*
X67432Y-53451D01*
X67414Y-53432D01*
X67376Y-53414D01*
X67301Y-53414D01*
X67264Y-53432D01*
X67245Y-53451D01*
X67226Y-53489D01*
X68928Y-54201D02*
X68928Y-54163D01*
X68946Y-54126D01*
X68965Y-54107D01*
X69003Y-54089D01*
X69078Y-54070D01*
X69171Y-54070D01*
X69246Y-54089D01*
X69284Y-54107D01*
X69303Y-54126D01*
X69321Y-54163D01*
X69321Y-54201D01*
X69303Y-54238D01*
X69284Y-54257D01*
X69246Y-54276D01*
X69171Y-54295D01*
X69078Y-54295D01*
X69003Y-54276D01*
X68965Y-54257D01*
X68946Y-54238D01*
X68928Y-54201D01*
X69284Y-53901D02*
X69303Y-53882D01*
X69321Y-53901D01*
X69303Y-53920D01*
X69284Y-53901D01*
X69321Y-53901D01*
X69321Y-53507D02*
X69321Y-53732D01*
X69321Y-53620D02*
X68928Y-53620D01*
X68984Y-53657D01*
X69021Y-53695D01*
X69040Y-53732D01*
X69059Y-53170D02*
X69321Y-53170D01*
X69059Y-53339D02*
X69265Y-53339D01*
X69303Y-53320D01*
X69321Y-53282D01*
X69321Y-53226D01*
X69303Y-53189D01*
X69284Y-53170D01*
X68914Y-53789D02*
X68932Y-53807D01*
X68951Y-53864D01*
X68951Y-53901D01*
X68932Y-53957D01*
X68895Y-53995D01*
X68857Y-54014D01*
X68782Y-54032D01*
X68726Y-54032D01*
X68651Y-54014D01*
X68614Y-53995D01*
X68576Y-53957D01*
X68557Y-53901D01*
X68557Y-53864D01*
X68576Y-53807D01*
X68595Y-53789D01*
X68557Y-53657D02*
X68557Y-53395D01*
X68951Y-53564D01*
X70428Y-54201D02*
X70428Y-54163D01*
X70446Y-54126D01*
X70465Y-54107D01*
X70503Y-54089D01*
X70578Y-54070D01*
X70671Y-54070D01*
X70746Y-54089D01*
X70784Y-54107D01*
X70803Y-54126D01*
X70821Y-54163D01*
X70821Y-54201D01*
X70803Y-54238D01*
X70784Y-54257D01*
X70746Y-54276D01*
X70671Y-54295D01*
X70578Y-54295D01*
X70503Y-54276D01*
X70465Y-54257D01*
X70446Y-54238D01*
X70428Y-54201D01*
X70784Y-53901D02*
X70803Y-53882D01*
X70821Y-53901D01*
X70803Y-53920D01*
X70784Y-53901D01*
X70821Y-53901D01*
X70821Y-53507D02*
X70821Y-53732D01*
X70821Y-53620D02*
X70428Y-53620D01*
X70484Y-53657D01*
X70521Y-53695D01*
X70540Y-53732D01*
X70559Y-53170D02*
X70821Y-53170D01*
X70559Y-53339D02*
X70765Y-53339D01*
X70803Y-53320D01*
X70821Y-53282D01*
X70821Y-53226D01*
X70803Y-53189D01*
X70784Y-53170D01*
X73414Y-65789D02*
X73432Y-65807D01*
X73451Y-65864D01*
X73451Y-65901D01*
X73432Y-65957D01*
X73395Y-65995D01*
X73357Y-66014D01*
X73282Y-66032D01*
X73226Y-66032D01*
X73151Y-66014D01*
X73114Y-65995D01*
X73076Y-65957D01*
X73057Y-65901D01*
X73057Y-65864D01*
X73076Y-65807D01*
X73095Y-65789D01*
X73451Y-65601D02*
X73451Y-65526D01*
X73432Y-65489D01*
X73414Y-65470D01*
X73357Y-65432D01*
X73282Y-65414D01*
X73132Y-65414D01*
X73095Y-65432D01*
X73076Y-65451D01*
X73057Y-65489D01*
X73057Y-65564D01*
X73076Y-65601D01*
X73095Y-65620D01*
X73132Y-65639D01*
X73226Y-65639D01*
X73264Y-65620D01*
X73282Y-65601D01*
X73301Y-65564D01*
X73301Y-65489D01*
X73282Y-65451D01*
X73264Y-65432D01*
X73226Y-65414D01*
X74928Y-66201D02*
X74928Y-66163D01*
X74946Y-66126D01*
X74965Y-66107D01*
X75003Y-66089D01*
X75078Y-66070D01*
X75171Y-66070D01*
X75246Y-66089D01*
X75284Y-66107D01*
X75303Y-66126D01*
X75321Y-66163D01*
X75321Y-66201D01*
X75303Y-66238D01*
X75284Y-66257D01*
X75246Y-66276D01*
X75171Y-66295D01*
X75078Y-66295D01*
X75003Y-66276D01*
X74965Y-66257D01*
X74946Y-66238D01*
X74928Y-66201D01*
X75284Y-65901D02*
X75303Y-65882D01*
X75321Y-65901D01*
X75303Y-65920D01*
X75284Y-65901D01*
X75321Y-65901D01*
X75321Y-65507D02*
X75321Y-65732D01*
X75321Y-65620D02*
X74928Y-65620D01*
X74984Y-65657D01*
X75021Y-65695D01*
X75040Y-65732D01*
X75059Y-65170D02*
X75321Y-65170D01*
X75059Y-65339D02*
X75265Y-65339D01*
X75303Y-65320D01*
X75321Y-65282D01*
X75321Y-65226D01*
X75303Y-65189D01*
X75284Y-65170D01*
X71914Y-65976D02*
X71932Y-65995D01*
X71951Y-66051D01*
X71951Y-66089D01*
X71932Y-66145D01*
X71895Y-66182D01*
X71857Y-66201D01*
X71782Y-66220D01*
X71726Y-66220D01*
X71651Y-66201D01*
X71614Y-66182D01*
X71576Y-66145D01*
X71557Y-66089D01*
X71557Y-66051D01*
X71576Y-65995D01*
X71595Y-65976D01*
X71951Y-65601D02*
X71951Y-65826D01*
X71951Y-65714D02*
X71557Y-65714D01*
X71614Y-65751D01*
X71651Y-65789D01*
X71670Y-65826D01*
X71557Y-65357D02*
X71557Y-65320D01*
X71576Y-65282D01*
X71595Y-65264D01*
X71632Y-65245D01*
X71707Y-65226D01*
X71801Y-65226D01*
X71876Y-65245D01*
X71914Y-65264D01*
X71932Y-65282D01*
X71951Y-65320D01*
X71951Y-65357D01*
X71932Y-65395D01*
X71914Y-65414D01*
X71876Y-65432D01*
X71801Y-65451D01*
X71707Y-65451D01*
X71632Y-65432D01*
X71595Y-65414D01*
X71576Y-65395D01*
X71557Y-65357D01*
X73428Y-66201D02*
X73428Y-66163D01*
X73446Y-66126D01*
X73465Y-66107D01*
X73503Y-66089D01*
X73578Y-66070D01*
X73671Y-66070D01*
X73746Y-66089D01*
X73784Y-66107D01*
X73803Y-66126D01*
X73821Y-66163D01*
X73821Y-66201D01*
X73803Y-66238D01*
X73784Y-66257D01*
X73746Y-66276D01*
X73671Y-66295D01*
X73578Y-66295D01*
X73503Y-66276D01*
X73465Y-66257D01*
X73446Y-66238D01*
X73428Y-66201D01*
X73784Y-65901D02*
X73803Y-65882D01*
X73821Y-65901D01*
X73803Y-65920D01*
X73784Y-65901D01*
X73821Y-65901D01*
X73821Y-65507D02*
X73821Y-65732D01*
X73821Y-65620D02*
X73428Y-65620D01*
X73484Y-65657D01*
X73521Y-65695D01*
X73540Y-65732D01*
X73559Y-65170D02*
X73821Y-65170D01*
X73559Y-65339D02*
X73765Y-65339D01*
X73803Y-65320D01*
X73821Y-65282D01*
X73821Y-65226D01*
X73803Y-65189D01*
X73784Y-65170D01*
X74164Y-59789D02*
X74182Y-59807D01*
X74201Y-59864D01*
X74201Y-59901D01*
X74182Y-59957D01*
X74145Y-59995D01*
X74107Y-60014D01*
X74032Y-60032D01*
X73976Y-60032D01*
X73901Y-60014D01*
X73864Y-59995D01*
X73826Y-59957D01*
X73807Y-59901D01*
X73807Y-59864D01*
X73826Y-59807D01*
X73845Y-59789D01*
X73807Y-59451D02*
X73807Y-59526D01*
X73826Y-59564D01*
X73845Y-59582D01*
X73901Y-59620D01*
X73976Y-59639D01*
X74126Y-59639D01*
X74164Y-59620D01*
X74182Y-59601D01*
X74201Y-59564D01*
X74201Y-59489D01*
X74182Y-59451D01*
X74164Y-59432D01*
X74126Y-59414D01*
X74032Y-59414D01*
X73995Y-59432D01*
X73976Y-59451D01*
X73957Y-59489D01*
X73957Y-59564D01*
X73976Y-59601D01*
X73995Y-59620D01*
X74032Y-59639D01*
X75678Y-60201D02*
X75678Y-60163D01*
X75696Y-60126D01*
X75715Y-60107D01*
X75753Y-60089D01*
X75828Y-60070D01*
X75921Y-60070D01*
X75996Y-60089D01*
X76034Y-60107D01*
X76053Y-60126D01*
X76071Y-60163D01*
X76071Y-60201D01*
X76053Y-60238D01*
X76034Y-60257D01*
X75996Y-60276D01*
X75921Y-60295D01*
X75828Y-60295D01*
X75753Y-60276D01*
X75715Y-60257D01*
X75696Y-60238D01*
X75678Y-60201D01*
X76034Y-59901D02*
X76053Y-59882D01*
X76071Y-59901D01*
X76053Y-59920D01*
X76034Y-59901D01*
X76071Y-59901D01*
X76071Y-59507D02*
X76071Y-59732D01*
X76071Y-59620D02*
X75678Y-59620D01*
X75734Y-59657D01*
X75771Y-59695D01*
X75790Y-59732D01*
X75809Y-59170D02*
X76071Y-59170D01*
X75809Y-59339D02*
X76015Y-59339D01*
X76053Y-59320D01*
X76071Y-59282D01*
X76071Y-59226D01*
X76053Y-59189D01*
X76034Y-59170D01*
X80914Y-53976D02*
X80932Y-53995D01*
X80951Y-54051D01*
X80951Y-54089D01*
X80932Y-54145D01*
X80895Y-54182D01*
X80857Y-54201D01*
X80782Y-54220D01*
X80726Y-54220D01*
X80651Y-54201D01*
X80614Y-54182D01*
X80576Y-54145D01*
X80557Y-54089D01*
X80557Y-54051D01*
X80576Y-53995D01*
X80595Y-53976D01*
X80951Y-53601D02*
X80951Y-53826D01*
X80951Y-53714D02*
X80557Y-53714D01*
X80614Y-53751D01*
X80651Y-53789D01*
X80670Y-53826D01*
X80951Y-53226D02*
X80951Y-53451D01*
X80951Y-53339D02*
X80557Y-53339D01*
X80614Y-53376D01*
X80651Y-53414D01*
X80670Y-53451D01*
X82428Y-54201D02*
X82428Y-54163D01*
X82446Y-54126D01*
X82465Y-54107D01*
X82503Y-54089D01*
X82578Y-54070D01*
X82671Y-54070D01*
X82746Y-54089D01*
X82784Y-54107D01*
X82803Y-54126D01*
X82821Y-54163D01*
X82821Y-54201D01*
X82803Y-54238D01*
X82784Y-54257D01*
X82746Y-54276D01*
X82671Y-54295D01*
X82578Y-54295D01*
X82503Y-54276D01*
X82465Y-54257D01*
X82446Y-54238D01*
X82428Y-54201D01*
X82784Y-53901D02*
X82803Y-53882D01*
X82821Y-53901D01*
X82803Y-53920D01*
X82784Y-53901D01*
X82821Y-53901D01*
X82821Y-53507D02*
X82821Y-53732D01*
X82821Y-53620D02*
X82428Y-53620D01*
X82484Y-53657D01*
X82521Y-53695D01*
X82540Y-53732D01*
X82559Y-53170D02*
X82821Y-53170D01*
X82559Y-53339D02*
X82765Y-53339D01*
X82803Y-53320D01*
X82821Y-53282D01*
X82821Y-53226D01*
X82803Y-53189D01*
X82784Y-53170D01*
X77914Y-65976D02*
X77932Y-65995D01*
X77951Y-66051D01*
X77951Y-66089D01*
X77932Y-66145D01*
X77895Y-66182D01*
X77857Y-66201D01*
X77782Y-66220D01*
X77726Y-66220D01*
X77651Y-66201D01*
X77614Y-66182D01*
X77576Y-66145D01*
X77557Y-66089D01*
X77557Y-66051D01*
X77576Y-65995D01*
X77595Y-65976D01*
X77951Y-65601D02*
X77951Y-65826D01*
X77951Y-65714D02*
X77557Y-65714D01*
X77614Y-65751D01*
X77651Y-65789D01*
X77670Y-65826D01*
X77595Y-65451D02*
X77576Y-65432D01*
X77557Y-65395D01*
X77557Y-65301D01*
X77576Y-65264D01*
X77595Y-65245D01*
X77632Y-65226D01*
X77670Y-65226D01*
X77726Y-65245D01*
X77951Y-65470D01*
X77951Y-65226D01*
X79428Y-66201D02*
X79428Y-66163D01*
X79446Y-66126D01*
X79465Y-66107D01*
X79503Y-66089D01*
X79578Y-66070D01*
X79671Y-66070D01*
X79746Y-66089D01*
X79784Y-66107D01*
X79803Y-66126D01*
X79821Y-66163D01*
X79821Y-66201D01*
X79803Y-66238D01*
X79784Y-66257D01*
X79746Y-66276D01*
X79671Y-66295D01*
X79578Y-66295D01*
X79503Y-66276D01*
X79465Y-66257D01*
X79446Y-66238D01*
X79428Y-66201D01*
X79784Y-65901D02*
X79803Y-65882D01*
X79821Y-65901D01*
X79803Y-65920D01*
X79784Y-65901D01*
X79821Y-65901D01*
X79821Y-65507D02*
X79821Y-65732D01*
X79821Y-65620D02*
X79428Y-65620D01*
X79484Y-65657D01*
X79521Y-65695D01*
X79540Y-65732D01*
X79559Y-65170D02*
X79821Y-65170D01*
X79559Y-65339D02*
X79765Y-65339D01*
X79803Y-65320D01*
X79821Y-65282D01*
X79821Y-65226D01*
X79803Y-65189D01*
X79784Y-65170D01*
X76414Y-65976D02*
X76432Y-65995D01*
X76451Y-66051D01*
X76451Y-66089D01*
X76432Y-66145D01*
X76395Y-66182D01*
X76357Y-66201D01*
X76282Y-66220D01*
X76226Y-66220D01*
X76151Y-66201D01*
X76114Y-66182D01*
X76076Y-66145D01*
X76057Y-66089D01*
X76057Y-66051D01*
X76076Y-65995D01*
X76095Y-65976D01*
X76451Y-65601D02*
X76451Y-65826D01*
X76451Y-65714D02*
X76057Y-65714D01*
X76114Y-65751D01*
X76151Y-65789D01*
X76170Y-65826D01*
X76057Y-65470D02*
X76057Y-65226D01*
X76207Y-65357D01*
X76207Y-65301D01*
X76226Y-65264D01*
X76245Y-65245D01*
X76282Y-65226D01*
X76376Y-65226D01*
X76414Y-65245D01*
X76432Y-65264D01*
X76451Y-65301D01*
X76451Y-65414D01*
X76432Y-65451D01*
X76414Y-65470D01*
X77928Y-66201D02*
X77928Y-66163D01*
X77946Y-66126D01*
X77965Y-66107D01*
X78003Y-66089D01*
X78078Y-66070D01*
X78171Y-66070D01*
X78246Y-66089D01*
X78284Y-66107D01*
X78303Y-66126D01*
X78321Y-66163D01*
X78321Y-66201D01*
X78303Y-66238D01*
X78284Y-66257D01*
X78246Y-66276D01*
X78171Y-66295D01*
X78078Y-66295D01*
X78003Y-66276D01*
X77965Y-66257D01*
X77946Y-66238D01*
X77928Y-66201D01*
X78284Y-65901D02*
X78303Y-65882D01*
X78321Y-65901D01*
X78303Y-65920D01*
X78284Y-65901D01*
X78321Y-65901D01*
X78321Y-65507D02*
X78321Y-65732D01*
X78321Y-65620D02*
X77928Y-65620D01*
X77984Y-65657D01*
X78021Y-65695D01*
X78040Y-65732D01*
X78059Y-65170D02*
X78321Y-65170D01*
X78059Y-65339D02*
X78265Y-65339D01*
X78303Y-65320D01*
X78321Y-65282D01*
X78321Y-65226D01*
X78303Y-65189D01*
X78284Y-65170D01*
X69664Y-59789D02*
X69682Y-59807D01*
X69701Y-59864D01*
X69701Y-59901D01*
X69682Y-59957D01*
X69645Y-59995D01*
X69607Y-60014D01*
X69532Y-60032D01*
X69476Y-60032D01*
X69401Y-60014D01*
X69364Y-59995D01*
X69326Y-59957D01*
X69307Y-59901D01*
X69307Y-59864D01*
X69326Y-59807D01*
X69345Y-59789D01*
X69307Y-59432D02*
X69307Y-59620D01*
X69495Y-59639D01*
X69476Y-59620D01*
X69457Y-59582D01*
X69457Y-59489D01*
X69476Y-59451D01*
X69495Y-59432D01*
X69532Y-59414D01*
X69626Y-59414D01*
X69664Y-59432D01*
X69682Y-59451D01*
X69701Y-59489D01*
X69701Y-59582D01*
X69682Y-59620D01*
X69664Y-59639D01*
X71178Y-60201D02*
X71178Y-60163D01*
X71196Y-60126D01*
X71215Y-60107D01*
X71253Y-60089D01*
X71328Y-60070D01*
X71421Y-60070D01*
X71496Y-60089D01*
X71534Y-60107D01*
X71553Y-60126D01*
X71571Y-60163D01*
X71571Y-60201D01*
X71553Y-60238D01*
X71534Y-60257D01*
X71496Y-60276D01*
X71421Y-60295D01*
X71328Y-60295D01*
X71253Y-60276D01*
X71215Y-60257D01*
X71196Y-60238D01*
X71178Y-60201D01*
X71534Y-59901D02*
X71553Y-59882D01*
X71571Y-59901D01*
X71553Y-59920D01*
X71534Y-59901D01*
X71571Y-59901D01*
X71571Y-59507D02*
X71571Y-59732D01*
X71571Y-59620D02*
X71178Y-59620D01*
X71234Y-59657D01*
X71271Y-59695D01*
X71290Y-59732D01*
X71309Y-59170D02*
X71571Y-59170D01*
X71309Y-59339D02*
X71515Y-59339D01*
X71553Y-59320D01*
X71571Y-59282D01*
X71571Y-59226D01*
X71553Y-59189D01*
X71534Y-59170D01*
X80164Y-59976D02*
X80182Y-59995D01*
X80201Y-60051D01*
X80201Y-60089D01*
X80182Y-60145D01*
X80145Y-60182D01*
X80107Y-60201D01*
X80032Y-60220D01*
X79976Y-60220D01*
X79901Y-60201D01*
X79864Y-60182D01*
X79826Y-60145D01*
X79807Y-60089D01*
X79807Y-60051D01*
X79826Y-59995D01*
X79845Y-59976D01*
X80201Y-59601D02*
X80201Y-59826D01*
X80201Y-59714D02*
X79807Y-59714D01*
X79864Y-59751D01*
X79901Y-59789D01*
X79920Y-59826D01*
X79939Y-59264D02*
X80201Y-59264D01*
X79789Y-59357D02*
X80070Y-59451D01*
X80070Y-59207D01*
X81678Y-60201D02*
X81678Y-60163D01*
X81696Y-60126D01*
X81715Y-60107D01*
X81753Y-60089D01*
X81828Y-60070D01*
X81921Y-60070D01*
X81996Y-60089D01*
X82034Y-60107D01*
X82053Y-60126D01*
X82071Y-60163D01*
X82071Y-60201D01*
X82053Y-60238D01*
X82034Y-60257D01*
X81996Y-60276D01*
X81921Y-60295D01*
X81828Y-60295D01*
X81753Y-60276D01*
X81715Y-60257D01*
X81696Y-60238D01*
X81678Y-60201D01*
X82034Y-59901D02*
X82053Y-59882D01*
X82071Y-59901D01*
X82053Y-59920D01*
X82034Y-59901D01*
X82071Y-59901D01*
X82071Y-59507D02*
X82071Y-59732D01*
X82071Y-59620D02*
X81678Y-59620D01*
X81734Y-59657D01*
X81771Y-59695D01*
X81790Y-59732D01*
X81809Y-59170D02*
X82071Y-59170D01*
X81809Y-59339D02*
X82015Y-59339D01*
X82053Y-59320D01*
X82071Y-59282D01*
X82071Y-59226D01*
X82053Y-59189D01*
X82034Y-59170D01*
X78664Y-59976D02*
X78682Y-59995D01*
X78701Y-60051D01*
X78701Y-60089D01*
X78682Y-60145D01*
X78645Y-60182D01*
X78607Y-60201D01*
X78532Y-60220D01*
X78476Y-60220D01*
X78401Y-60201D01*
X78364Y-60182D01*
X78326Y-60145D01*
X78307Y-60089D01*
X78307Y-60051D01*
X78326Y-59995D01*
X78345Y-59976D01*
X78701Y-59601D02*
X78701Y-59826D01*
X78701Y-59714D02*
X78307Y-59714D01*
X78364Y-59751D01*
X78401Y-59789D01*
X78420Y-59826D01*
X78307Y-59245D02*
X78307Y-59432D01*
X78495Y-59451D01*
X78476Y-59432D01*
X78457Y-59395D01*
X78457Y-59301D01*
X78476Y-59264D01*
X78495Y-59245D01*
X78532Y-59226D01*
X78626Y-59226D01*
X78664Y-59245D01*
X78682Y-59264D01*
X78701Y-59301D01*
X78701Y-59395D01*
X78682Y-59432D01*
X78664Y-59451D01*
X80178Y-60201D02*
X80178Y-60163D01*
X80196Y-60126D01*
X80215Y-60107D01*
X80253Y-60089D01*
X80328Y-60070D01*
X80421Y-60070D01*
X80496Y-60089D01*
X80534Y-60107D01*
X80553Y-60126D01*
X80571Y-60163D01*
X80571Y-60201D01*
X80553Y-60238D01*
X80534Y-60257D01*
X80496Y-60276D01*
X80421Y-60295D01*
X80328Y-60295D01*
X80253Y-60276D01*
X80215Y-60257D01*
X80196Y-60238D01*
X80178Y-60201D01*
X80534Y-59901D02*
X80553Y-59882D01*
X80571Y-59901D01*
X80553Y-59920D01*
X80534Y-59901D01*
X80571Y-59901D01*
X80571Y-59507D02*
X80571Y-59732D01*
X80571Y-59620D02*
X80178Y-59620D01*
X80234Y-59657D01*
X80271Y-59695D01*
X80290Y-59732D01*
X80309Y-59170D02*
X80571Y-59170D01*
X80309Y-59339D02*
X80515Y-59339D01*
X80553Y-59320D01*
X80571Y-59282D01*
X80571Y-59226D01*
X80553Y-59189D01*
X80534Y-59170D01*
X71164Y-59789D02*
X71182Y-59807D01*
X71201Y-59864D01*
X71201Y-59901D01*
X71182Y-59957D01*
X71145Y-59995D01*
X71107Y-60014D01*
X71032Y-60032D01*
X70976Y-60032D01*
X70901Y-60014D01*
X70864Y-59995D01*
X70826Y-59957D01*
X70807Y-59901D01*
X70807Y-59864D01*
X70826Y-59807D01*
X70845Y-59789D01*
X70939Y-59451D02*
X71201Y-59451D01*
X70789Y-59545D02*
X71070Y-59639D01*
X71070Y-59395D01*
X72678Y-60201D02*
X72678Y-60163D01*
X72696Y-60126D01*
X72715Y-60107D01*
X72753Y-60089D01*
X72828Y-60070D01*
X72921Y-60070D01*
X72996Y-60089D01*
X73034Y-60107D01*
X73053Y-60126D01*
X73071Y-60163D01*
X73071Y-60201D01*
X73053Y-60238D01*
X73034Y-60257D01*
X72996Y-60276D01*
X72921Y-60295D01*
X72828Y-60295D01*
X72753Y-60276D01*
X72715Y-60257D01*
X72696Y-60238D01*
X72678Y-60201D01*
X73034Y-59901D02*
X73053Y-59882D01*
X73071Y-59901D01*
X73053Y-59920D01*
X73034Y-59901D01*
X73071Y-59901D01*
X73071Y-59507D02*
X73071Y-59732D01*
X73071Y-59620D02*
X72678Y-59620D01*
X72734Y-59657D01*
X72771Y-59695D01*
X72790Y-59732D01*
X72809Y-59170D02*
X73071Y-59170D01*
X72809Y-59339D02*
X73015Y-59339D01*
X73053Y-59320D01*
X73071Y-59282D01*
X73071Y-59226D01*
X73053Y-59189D01*
X73034Y-59170D01*
X83164Y-59976D02*
X83182Y-59995D01*
X83201Y-60051D01*
X83201Y-60089D01*
X83182Y-60145D01*
X83145Y-60182D01*
X83107Y-60201D01*
X83032Y-60220D01*
X82976Y-60220D01*
X82901Y-60201D01*
X82864Y-60182D01*
X82826Y-60145D01*
X82807Y-60089D01*
X82807Y-60051D01*
X82826Y-59995D01*
X82845Y-59976D01*
X83201Y-59601D02*
X83201Y-59826D01*
X83201Y-59714D02*
X82807Y-59714D01*
X82864Y-59751D01*
X82901Y-59789D01*
X82920Y-59826D01*
X82807Y-59264D02*
X82807Y-59339D01*
X82826Y-59376D01*
X82845Y-59395D01*
X82901Y-59432D01*
X82976Y-59451D01*
X83126Y-59451D01*
X83164Y-59432D01*
X83182Y-59414D01*
X83201Y-59376D01*
X83201Y-59301D01*
X83182Y-59264D01*
X83164Y-59245D01*
X83126Y-59226D01*
X83032Y-59226D01*
X82995Y-59245D01*
X82976Y-59264D01*
X82957Y-59301D01*
X82957Y-59376D01*
X82976Y-59414D01*
X82995Y-59432D01*
X83032Y-59451D01*
X84678Y-60201D02*
X84678Y-60163D01*
X84696Y-60126D01*
X84715Y-60107D01*
X84753Y-60089D01*
X84828Y-60070D01*
X84921Y-60070D01*
X84996Y-60089D01*
X85034Y-60107D01*
X85053Y-60126D01*
X85071Y-60163D01*
X85071Y-60201D01*
X85053Y-60238D01*
X85034Y-60257D01*
X84996Y-60276D01*
X84921Y-60295D01*
X84828Y-60295D01*
X84753Y-60276D01*
X84715Y-60257D01*
X84696Y-60238D01*
X84678Y-60201D01*
X85034Y-59901D02*
X85053Y-59882D01*
X85071Y-59901D01*
X85053Y-59920D01*
X85034Y-59901D01*
X85071Y-59901D01*
X85071Y-59507D02*
X85071Y-59732D01*
X85071Y-59620D02*
X84678Y-59620D01*
X84734Y-59657D01*
X84771Y-59695D01*
X84790Y-59732D01*
X84809Y-59170D02*
X85071Y-59170D01*
X84809Y-59339D02*
X85015Y-59339D01*
X85053Y-59320D01*
X85071Y-59282D01*
X85071Y-59226D01*
X85053Y-59189D01*
X85034Y-59170D01*
X77914Y-53976D02*
X77932Y-53995D01*
X77951Y-54051D01*
X77951Y-54089D01*
X77932Y-54145D01*
X77895Y-54182D01*
X77857Y-54201D01*
X77782Y-54220D01*
X77726Y-54220D01*
X77651Y-54201D01*
X77614Y-54182D01*
X77576Y-54145D01*
X77557Y-54089D01*
X77557Y-54051D01*
X77576Y-53995D01*
X77595Y-53976D01*
X77951Y-53601D02*
X77951Y-53826D01*
X77951Y-53714D02*
X77557Y-53714D01*
X77614Y-53751D01*
X77651Y-53789D01*
X77670Y-53826D01*
X77557Y-53470D02*
X77557Y-53207D01*
X77951Y-53376D01*
X79428Y-54201D02*
X79428Y-54163D01*
X79446Y-54126D01*
X79465Y-54107D01*
X79503Y-54089D01*
X79578Y-54070D01*
X79671Y-54070D01*
X79746Y-54089D01*
X79784Y-54107D01*
X79803Y-54126D01*
X79821Y-54163D01*
X79821Y-54201D01*
X79803Y-54238D01*
X79784Y-54257D01*
X79746Y-54276D01*
X79671Y-54295D01*
X79578Y-54295D01*
X79503Y-54276D01*
X79465Y-54257D01*
X79446Y-54238D01*
X79428Y-54201D01*
X79784Y-53901D02*
X79803Y-53882D01*
X79821Y-53901D01*
X79803Y-53920D01*
X79784Y-53901D01*
X79821Y-53901D01*
X79821Y-53507D02*
X79821Y-53732D01*
X79821Y-53620D02*
X79428Y-53620D01*
X79484Y-53657D01*
X79521Y-53695D01*
X79540Y-53732D01*
X79559Y-53170D02*
X79821Y-53170D01*
X79559Y-53339D02*
X79765Y-53339D01*
X79803Y-53320D01*
X79821Y-53282D01*
X79821Y-53226D01*
X79803Y-53189D01*
X79784Y-53170D01*
X67414Y-65789D02*
X67432Y-65807D01*
X67451Y-65864D01*
X67451Y-65901D01*
X67432Y-65957D01*
X67395Y-65995D01*
X67357Y-66014D01*
X67282Y-66032D01*
X67226Y-66032D01*
X67151Y-66014D01*
X67114Y-65995D01*
X67076Y-65957D01*
X67057Y-65901D01*
X67057Y-65864D01*
X67076Y-65807D01*
X67095Y-65789D01*
X67057Y-65657D02*
X67057Y-65414D01*
X67207Y-65545D01*
X67207Y-65489D01*
X67226Y-65451D01*
X67245Y-65432D01*
X67282Y-65414D01*
X67376Y-65414D01*
X67414Y-65432D01*
X67432Y-65451D01*
X67451Y-65489D01*
X67451Y-65601D01*
X67432Y-65639D01*
X67414Y-65657D01*
X68928Y-66201D02*
X68928Y-66163D01*
X68946Y-66126D01*
X68965Y-66107D01*
X69003Y-66089D01*
X69078Y-66070D01*
X69171Y-66070D01*
X69246Y-66089D01*
X69284Y-66107D01*
X69303Y-66126D01*
X69321Y-66163D01*
X69321Y-66201D01*
X69303Y-66238D01*
X69284Y-66257D01*
X69246Y-66276D01*
X69171Y-66295D01*
X69078Y-66295D01*
X69003Y-66276D01*
X68965Y-66257D01*
X68946Y-66238D01*
X68928Y-66201D01*
X69284Y-65901D02*
X69303Y-65882D01*
X69321Y-65901D01*
X69303Y-65920D01*
X69284Y-65901D01*
X69321Y-65901D01*
X69321Y-65507D02*
X69321Y-65732D01*
X69321Y-65620D02*
X68928Y-65620D01*
X68984Y-65657D01*
X69021Y-65695D01*
X69040Y-65732D01*
X69059Y-65170D02*
X69321Y-65170D01*
X69059Y-65339D02*
X69265Y-65339D01*
X69303Y-65320D01*
X69321Y-65282D01*
X69321Y-65226D01*
X69303Y-65189D01*
X69284Y-65170D01*
X76414Y-53976D02*
X76432Y-53995D01*
X76451Y-54051D01*
X76451Y-54089D01*
X76432Y-54145D01*
X76395Y-54182D01*
X76357Y-54201D01*
X76282Y-54220D01*
X76226Y-54220D01*
X76151Y-54201D01*
X76114Y-54182D01*
X76076Y-54145D01*
X76057Y-54089D01*
X76057Y-54051D01*
X76076Y-53995D01*
X76095Y-53976D01*
X76451Y-53601D02*
X76451Y-53826D01*
X76451Y-53714D02*
X76057Y-53714D01*
X76114Y-53751D01*
X76151Y-53789D01*
X76170Y-53826D01*
X76226Y-53376D02*
X76207Y-53414D01*
X76189Y-53432D01*
X76151Y-53451D01*
X76132Y-53451D01*
X76095Y-53432D01*
X76076Y-53414D01*
X76057Y-53376D01*
X76057Y-53301D01*
X76076Y-53264D01*
X76095Y-53245D01*
X76132Y-53226D01*
X76151Y-53226D01*
X76189Y-53245D01*
X76207Y-53264D01*
X76226Y-53301D01*
X76226Y-53376D01*
X76245Y-53414D01*
X76264Y-53432D01*
X76301Y-53451D01*
X76376Y-53451D01*
X76414Y-53432D01*
X76432Y-53414D01*
X76451Y-53376D01*
X76451Y-53301D01*
X76432Y-53264D01*
X76414Y-53245D01*
X76376Y-53226D01*
X76301Y-53226D01*
X76264Y-53245D01*
X76245Y-53264D01*
X76226Y-53301D01*
X77928Y-54201D02*
X77928Y-54163D01*
X77946Y-54126D01*
X77965Y-54107D01*
X78003Y-54089D01*
X78078Y-54070D01*
X78171Y-54070D01*
X78246Y-54089D01*
X78284Y-54107D01*
X78303Y-54126D01*
X78321Y-54163D01*
X78321Y-54201D01*
X78303Y-54238D01*
X78284Y-54257D01*
X78246Y-54276D01*
X78171Y-54295D01*
X78078Y-54295D01*
X78003Y-54276D01*
X77965Y-54257D01*
X77946Y-54238D01*
X77928Y-54201D01*
X78284Y-53901D02*
X78303Y-53882D01*
X78321Y-53901D01*
X78303Y-53920D01*
X78284Y-53901D01*
X78321Y-53901D01*
X78321Y-53507D02*
X78321Y-53732D01*
X78321Y-53620D02*
X77928Y-53620D01*
X77984Y-53657D01*
X78021Y-53695D01*
X78040Y-53732D01*
X78059Y-53170D02*
X78321Y-53170D01*
X78059Y-53339D02*
X78265Y-53339D01*
X78303Y-53320D01*
X78321Y-53282D01*
X78321Y-53226D01*
X78303Y-53189D01*
X78284Y-53170D01*
X68914Y-65789D02*
X68932Y-65807D01*
X68951Y-65864D01*
X68951Y-65901D01*
X68932Y-65957D01*
X68895Y-65995D01*
X68857Y-66014D01*
X68782Y-66032D01*
X68726Y-66032D01*
X68651Y-66014D01*
X68614Y-65995D01*
X68576Y-65957D01*
X68557Y-65901D01*
X68557Y-65864D01*
X68576Y-65807D01*
X68595Y-65789D01*
X68595Y-65639D02*
X68576Y-65620D01*
X68557Y-65582D01*
X68557Y-65489D01*
X68576Y-65451D01*
X68595Y-65432D01*
X68632Y-65414D01*
X68670Y-65414D01*
X68726Y-65432D01*
X68951Y-65657D01*
X68951Y-65414D01*
X70428Y-66201D02*
X70428Y-66163D01*
X70446Y-66126D01*
X70465Y-66107D01*
X70503Y-66089D01*
X70578Y-66070D01*
X70671Y-66070D01*
X70746Y-66089D01*
X70784Y-66107D01*
X70803Y-66126D01*
X70821Y-66163D01*
X70821Y-66201D01*
X70803Y-66238D01*
X70784Y-66257D01*
X70746Y-66276D01*
X70671Y-66295D01*
X70578Y-66295D01*
X70503Y-66276D01*
X70465Y-66257D01*
X70446Y-66238D01*
X70428Y-66201D01*
X70784Y-65901D02*
X70803Y-65882D01*
X70821Y-65901D01*
X70803Y-65920D01*
X70784Y-65901D01*
X70821Y-65901D01*
X70821Y-65507D02*
X70821Y-65732D01*
X70821Y-65620D02*
X70428Y-65620D01*
X70484Y-65657D01*
X70521Y-65695D01*
X70540Y-65732D01*
X70559Y-65170D02*
X70821Y-65170D01*
X70559Y-65339D02*
X70765Y-65339D01*
X70803Y-65320D01*
X70821Y-65282D01*
X70821Y-65226D01*
X70803Y-65189D01*
X70784Y-65170D01*
X82414Y-65976D02*
X82432Y-65995D01*
X82451Y-66051D01*
X82451Y-66089D01*
X82432Y-66145D01*
X82395Y-66182D01*
X82357Y-66201D01*
X82282Y-66220D01*
X82226Y-66220D01*
X82151Y-66201D01*
X82114Y-66182D01*
X82076Y-66145D01*
X82057Y-66089D01*
X82057Y-66051D01*
X82076Y-65995D01*
X82095Y-65976D01*
X82451Y-65601D02*
X82451Y-65826D01*
X82451Y-65714D02*
X82057Y-65714D01*
X82114Y-65751D01*
X82151Y-65789D01*
X82170Y-65826D01*
X82451Y-65414D02*
X82451Y-65339D01*
X82432Y-65301D01*
X82414Y-65282D01*
X82357Y-65245D01*
X82282Y-65226D01*
X82132Y-65226D01*
X82095Y-65245D01*
X82076Y-65264D01*
X82057Y-65301D01*
X82057Y-65376D01*
X82076Y-65414D01*
X82095Y-65432D01*
X82132Y-65451D01*
X82226Y-65451D01*
X82264Y-65432D01*
X82282Y-65414D01*
X82301Y-65376D01*
X82301Y-65301D01*
X82282Y-65264D01*
X82264Y-65245D01*
X82226Y-65226D01*
X83928Y-66201D02*
X83928Y-66163D01*
X83946Y-66126D01*
X83965Y-66107D01*
X84003Y-66089D01*
X84078Y-66070D01*
X84171Y-66070D01*
X84246Y-66089D01*
X84284Y-66107D01*
X84303Y-66126D01*
X84321Y-66163D01*
X84321Y-66201D01*
X84303Y-66238D01*
X84284Y-66257D01*
X84246Y-66276D01*
X84171Y-66295D01*
X84078Y-66295D01*
X84003Y-66276D01*
X83965Y-66257D01*
X83946Y-66238D01*
X83928Y-66201D01*
X84284Y-65901D02*
X84303Y-65882D01*
X84321Y-65901D01*
X84303Y-65920D01*
X84284Y-65901D01*
X84321Y-65901D01*
X84321Y-65507D02*
X84321Y-65732D01*
X84321Y-65620D02*
X83928Y-65620D01*
X83984Y-65657D01*
X84021Y-65695D01*
X84040Y-65732D01*
X84059Y-65170D02*
X84321Y-65170D01*
X84059Y-65339D02*
X84265Y-65339D01*
X84303Y-65320D01*
X84321Y-65282D01*
X84321Y-65226D01*
X84303Y-65189D01*
X84284Y-65170D01*
X85414Y-65976D02*
X85432Y-65995D01*
X85451Y-66051D01*
X85451Y-66089D01*
X85432Y-66145D01*
X85395Y-66182D01*
X85357Y-66201D01*
X85282Y-66220D01*
X85226Y-66220D01*
X85151Y-66201D01*
X85114Y-66182D01*
X85076Y-66145D01*
X85057Y-66089D01*
X85057Y-66051D01*
X85076Y-65995D01*
X85095Y-65976D01*
X85095Y-65826D02*
X85076Y-65807D01*
X85057Y-65770D01*
X85057Y-65676D01*
X85076Y-65639D01*
X85095Y-65620D01*
X85132Y-65601D01*
X85170Y-65601D01*
X85226Y-65620D01*
X85451Y-65845D01*
X85451Y-65601D01*
X85057Y-65470D02*
X85057Y-65226D01*
X85207Y-65357D01*
X85207Y-65301D01*
X85226Y-65264D01*
X85245Y-65245D01*
X85282Y-65226D01*
X85376Y-65226D01*
X85414Y-65245D01*
X85432Y-65264D01*
X85451Y-65301D01*
X85451Y-65414D01*
X85432Y-65451D01*
X85414Y-65470D01*
X86928Y-66201D02*
X86928Y-66163D01*
X86946Y-66126D01*
X86965Y-66107D01*
X87003Y-66089D01*
X87078Y-66070D01*
X87171Y-66070D01*
X87246Y-66089D01*
X87284Y-66107D01*
X87303Y-66126D01*
X87321Y-66163D01*
X87321Y-66201D01*
X87303Y-66238D01*
X87284Y-66257D01*
X87246Y-66276D01*
X87171Y-66295D01*
X87078Y-66295D01*
X87003Y-66276D01*
X86965Y-66257D01*
X86946Y-66238D01*
X86928Y-66201D01*
X87284Y-65901D02*
X87303Y-65882D01*
X87321Y-65901D01*
X87303Y-65920D01*
X87284Y-65901D01*
X87321Y-65901D01*
X87321Y-65507D02*
X87321Y-65732D01*
X87321Y-65620D02*
X86928Y-65620D01*
X86984Y-65657D01*
X87021Y-65695D01*
X87040Y-65732D01*
X87059Y-65170D02*
X87321Y-65170D01*
X87059Y-65339D02*
X87265Y-65339D01*
X87303Y-65320D01*
X87321Y-65282D01*
X87321Y-65226D01*
X87303Y-65189D01*
X87284Y-65170D01*
X71914Y-53789D02*
X71932Y-53807D01*
X71951Y-53864D01*
X71951Y-53901D01*
X71932Y-53957D01*
X71895Y-53995D01*
X71857Y-54014D01*
X71782Y-54032D01*
X71726Y-54032D01*
X71651Y-54014D01*
X71614Y-53995D01*
X71576Y-53957D01*
X71557Y-53901D01*
X71557Y-53864D01*
X71576Y-53807D01*
X71595Y-53789D01*
X71951Y-53414D02*
X71951Y-53639D01*
X71951Y-53526D02*
X71557Y-53526D01*
X71614Y-53564D01*
X71651Y-53601D01*
X71670Y-53639D01*
X73428Y-54201D02*
X73428Y-54163D01*
X73446Y-54126D01*
X73465Y-54107D01*
X73503Y-54089D01*
X73578Y-54070D01*
X73671Y-54070D01*
X73746Y-54089D01*
X73784Y-54107D01*
X73803Y-54126D01*
X73821Y-54163D01*
X73821Y-54201D01*
X73803Y-54238D01*
X73784Y-54257D01*
X73746Y-54276D01*
X73671Y-54295D01*
X73578Y-54295D01*
X73503Y-54276D01*
X73465Y-54257D01*
X73446Y-54238D01*
X73428Y-54201D01*
X73784Y-53901D02*
X73803Y-53882D01*
X73821Y-53901D01*
X73803Y-53920D01*
X73784Y-53901D01*
X73821Y-53901D01*
X73821Y-53507D02*
X73821Y-53732D01*
X73821Y-53620D02*
X73428Y-53620D01*
X73484Y-53657D01*
X73521Y-53695D01*
X73540Y-53732D01*
X73559Y-53170D02*
X73821Y-53170D01*
X73559Y-53339D02*
X73765Y-53339D01*
X73803Y-53320D01*
X73821Y-53282D01*
X73821Y-53226D01*
X73803Y-53189D01*
X73784Y-53170D01*
X89914Y-53976D02*
X89932Y-53995D01*
X89951Y-54051D01*
X89951Y-54089D01*
X89932Y-54145D01*
X89895Y-54182D01*
X89857Y-54201D01*
X89782Y-54220D01*
X89726Y-54220D01*
X89651Y-54201D01*
X89614Y-54182D01*
X89576Y-54145D01*
X89557Y-54089D01*
X89557Y-54051D01*
X89576Y-53995D01*
X89595Y-53976D01*
X89595Y-53826D02*
X89576Y-53807D01*
X89557Y-53770D01*
X89557Y-53676D01*
X89576Y-53639D01*
X89595Y-53620D01*
X89632Y-53601D01*
X89670Y-53601D01*
X89726Y-53620D01*
X89951Y-53845D01*
X89951Y-53601D01*
X89951Y-53226D02*
X89951Y-53451D01*
X89951Y-53339D02*
X89557Y-53339D01*
X89614Y-53376D01*
X89651Y-53414D01*
X89670Y-53451D01*
X91428Y-54201D02*
X91428Y-54163D01*
X91446Y-54126D01*
X91465Y-54107D01*
X91503Y-54089D01*
X91578Y-54070D01*
X91671Y-54070D01*
X91746Y-54089D01*
X91784Y-54107D01*
X91803Y-54126D01*
X91821Y-54163D01*
X91821Y-54201D01*
X91803Y-54238D01*
X91784Y-54257D01*
X91746Y-54276D01*
X91671Y-54295D01*
X91578Y-54295D01*
X91503Y-54276D01*
X91465Y-54257D01*
X91446Y-54238D01*
X91428Y-54201D01*
X91784Y-53901D02*
X91803Y-53882D01*
X91821Y-53901D01*
X91803Y-53920D01*
X91784Y-53901D01*
X91821Y-53901D01*
X91821Y-53507D02*
X91821Y-53732D01*
X91821Y-53620D02*
X91428Y-53620D01*
X91484Y-53657D01*
X91521Y-53695D01*
X91540Y-53732D01*
X91559Y-53170D02*
X91821Y-53170D01*
X91559Y-53339D02*
X91765Y-53339D01*
X91803Y-53320D01*
X91821Y-53282D01*
X91821Y-53226D01*
X91803Y-53189D01*
X91784Y-53170D01*
X80914Y-65976D02*
X80932Y-65995D01*
X80951Y-66051D01*
X80951Y-66089D01*
X80932Y-66145D01*
X80895Y-66182D01*
X80857Y-66201D01*
X80782Y-66220D01*
X80726Y-66220D01*
X80651Y-66201D01*
X80614Y-66182D01*
X80576Y-66145D01*
X80557Y-66089D01*
X80557Y-66051D01*
X80576Y-65995D01*
X80595Y-65976D01*
X80595Y-65826D02*
X80576Y-65807D01*
X80557Y-65770D01*
X80557Y-65676D01*
X80576Y-65639D01*
X80595Y-65620D01*
X80632Y-65601D01*
X80670Y-65601D01*
X80726Y-65620D01*
X80951Y-65845D01*
X80951Y-65601D01*
X80557Y-65357D02*
X80557Y-65320D01*
X80576Y-65282D01*
X80595Y-65264D01*
X80632Y-65245D01*
X80707Y-65226D01*
X80801Y-65226D01*
X80876Y-65245D01*
X80914Y-65264D01*
X80932Y-65282D01*
X80951Y-65320D01*
X80951Y-65357D01*
X80932Y-65395D01*
X80914Y-65414D01*
X80876Y-65432D01*
X80801Y-65451D01*
X80707Y-65451D01*
X80632Y-65432D01*
X80595Y-65414D01*
X80576Y-65395D01*
X80557Y-65357D01*
X82428Y-66201D02*
X82428Y-66163D01*
X82446Y-66126D01*
X82465Y-66107D01*
X82503Y-66089D01*
X82578Y-66070D01*
X82671Y-66070D01*
X82746Y-66089D01*
X82784Y-66107D01*
X82803Y-66126D01*
X82821Y-66163D01*
X82821Y-66201D01*
X82803Y-66238D01*
X82784Y-66257D01*
X82746Y-66276D01*
X82671Y-66295D01*
X82578Y-66295D01*
X82503Y-66276D01*
X82465Y-66257D01*
X82446Y-66238D01*
X82428Y-66201D01*
X82784Y-65901D02*
X82803Y-65882D01*
X82821Y-65901D01*
X82803Y-65920D01*
X82784Y-65901D01*
X82821Y-65901D01*
X82821Y-65507D02*
X82821Y-65732D01*
X82821Y-65620D02*
X82428Y-65620D01*
X82484Y-65657D01*
X82521Y-65695D01*
X82540Y-65732D01*
X82559Y-65170D02*
X82821Y-65170D01*
X82559Y-65339D02*
X82765Y-65339D01*
X82803Y-65320D01*
X82821Y-65282D01*
X82821Y-65226D01*
X82803Y-65189D01*
X82784Y-65170D01*
X68890Y-67934D02*
X68759Y-67746D01*
X68665Y-67934D02*
X68665Y-67540D01*
X68815Y-67540D01*
X68853Y-67559D01*
X68871Y-67578D01*
X68890Y-67615D01*
X68890Y-67671D01*
X68871Y-67709D01*
X68853Y-67728D01*
X68815Y-67746D01*
X68665Y-67746D01*
X69003Y-67540D02*
X69134Y-67934D01*
X69265Y-67540D01*
X69378Y-67578D02*
X69396Y-67559D01*
X69434Y-67540D01*
X69528Y-67540D01*
X69565Y-67559D01*
X69584Y-67578D01*
X69603Y-67615D01*
X69603Y-67653D01*
X69584Y-67709D01*
X69359Y-67934D01*
X69603Y-67934D01*
X67790Y-68884D02*
X67565Y-68884D01*
X67678Y-68884D02*
X67678Y-68490D01*
X67640Y-68546D01*
X67603Y-68584D01*
X67565Y-68603D01*
X68034Y-68490D02*
X68071Y-68490D01*
X68109Y-68509D01*
X68128Y-68528D01*
X68146Y-68565D01*
X68165Y-68640D01*
X68165Y-68734D01*
X68146Y-68809D01*
X68128Y-68846D01*
X68109Y-68865D01*
X68071Y-68884D01*
X68034Y-68884D01*
X67996Y-68865D01*
X67978Y-68846D01*
X67959Y-68809D01*
X67940Y-68734D01*
X67940Y-68640D01*
X67959Y-68565D01*
X67978Y-68528D01*
X67996Y-68509D01*
X68034Y-68490D01*
X68334Y-68884D02*
X68334Y-68490D01*
X68371Y-68734D02*
X68484Y-68884D01*
X68484Y-68621D02*
X68334Y-68771D01*
X73390Y-55934D02*
X73259Y-55746D01*
X73165Y-55934D02*
X73165Y-55540D01*
X73315Y-55540D01*
X73353Y-55559D01*
X73371Y-55578D01*
X73390Y-55615D01*
X73390Y-55671D01*
X73371Y-55709D01*
X73353Y-55728D01*
X73315Y-55746D01*
X73165Y-55746D01*
X73503Y-55540D02*
X73634Y-55934D01*
X73765Y-55540D01*
X74103Y-55934D02*
X73878Y-55934D01*
X73990Y-55934D02*
X73990Y-55540D01*
X73953Y-55596D01*
X73915Y-55634D01*
X73878Y-55653D01*
X72290Y-56884D02*
X72065Y-56884D01*
X72178Y-56884D02*
X72178Y-56490D01*
X72140Y-56546D01*
X72103Y-56584D01*
X72065Y-56603D01*
X72534Y-56490D02*
X72571Y-56490D01*
X72609Y-56509D01*
X72628Y-56528D01*
X72646Y-56565D01*
X72665Y-56640D01*
X72665Y-56734D01*
X72646Y-56809D01*
X72628Y-56846D01*
X72609Y-56865D01*
X72571Y-56884D01*
X72534Y-56884D01*
X72496Y-56865D01*
X72478Y-56846D01*
X72459Y-56809D01*
X72440Y-56734D01*
X72440Y-56640D01*
X72459Y-56565D01*
X72478Y-56528D01*
X72496Y-56509D01*
X72534Y-56490D01*
X72834Y-56884D02*
X72834Y-56490D01*
X72871Y-56734D02*
X72984Y-56884D01*
X72984Y-56621D02*
X72834Y-56771D01*
X68890Y-55934D02*
X68759Y-55746D01*
X68665Y-55934D02*
X68665Y-55540D01*
X68815Y-55540D01*
X68853Y-55559D01*
X68871Y-55578D01*
X68890Y-55615D01*
X68890Y-55671D01*
X68871Y-55709D01*
X68853Y-55728D01*
X68815Y-55746D01*
X68665Y-55746D01*
X69003Y-55540D02*
X69134Y-55934D01*
X69265Y-55540D01*
X69584Y-55540D02*
X69396Y-55540D01*
X69378Y-55728D01*
X69396Y-55709D01*
X69434Y-55690D01*
X69528Y-55690D01*
X69565Y-55709D01*
X69584Y-55728D01*
X69603Y-55765D01*
X69603Y-55859D01*
X69584Y-55896D01*
X69565Y-55915D01*
X69528Y-55934D01*
X69434Y-55934D01*
X69396Y-55915D01*
X69378Y-55896D01*
X67790Y-56884D02*
X67565Y-56884D01*
X67678Y-56884D02*
X67678Y-56490D01*
X67640Y-56546D01*
X67603Y-56584D01*
X67565Y-56603D01*
X68034Y-56490D02*
X68071Y-56490D01*
X68109Y-56509D01*
X68128Y-56528D01*
X68146Y-56565D01*
X68165Y-56640D01*
X68165Y-56734D01*
X68146Y-56809D01*
X68128Y-56846D01*
X68109Y-56865D01*
X68071Y-56884D01*
X68034Y-56884D01*
X67996Y-56865D01*
X67978Y-56846D01*
X67959Y-56809D01*
X67940Y-56734D01*
X67940Y-56640D01*
X67959Y-56565D01*
X67978Y-56528D01*
X67996Y-56509D01*
X68034Y-56490D01*
X68334Y-56884D02*
X68334Y-56490D01*
X68371Y-56734D02*
X68484Y-56884D01*
X68484Y-56621D02*
X68334Y-56771D01*
X100203Y-67934D02*
X100071Y-67746D01*
X99978Y-67934D02*
X99978Y-67540D01*
X100128Y-67540D01*
X100165Y-67559D01*
X100184Y-67578D01*
X100203Y-67615D01*
X100203Y-67671D01*
X100184Y-67709D01*
X100165Y-67728D01*
X100128Y-67746D01*
X99978Y-67746D01*
X100315Y-67540D02*
X100446Y-67934D01*
X100578Y-67540D01*
X100690Y-67578D02*
X100709Y-67559D01*
X100746Y-67540D01*
X100840Y-67540D01*
X100878Y-67559D01*
X100896Y-67578D01*
X100915Y-67615D01*
X100915Y-67653D01*
X100896Y-67709D01*
X100671Y-67934D01*
X100915Y-67934D01*
X101253Y-67671D02*
X101253Y-67934D01*
X101159Y-67521D02*
X101065Y-67803D01*
X101309Y-67803D01*
X99290Y-68884D02*
X99065Y-68884D01*
X99178Y-68884D02*
X99178Y-68490D01*
X99140Y-68546D01*
X99103Y-68584D01*
X99065Y-68603D01*
X99534Y-68490D02*
X99571Y-68490D01*
X99609Y-68509D01*
X99628Y-68528D01*
X99646Y-68565D01*
X99665Y-68640D01*
X99665Y-68734D01*
X99646Y-68809D01*
X99628Y-68846D01*
X99609Y-68865D01*
X99571Y-68884D01*
X99534Y-68884D01*
X99496Y-68865D01*
X99478Y-68846D01*
X99459Y-68809D01*
X99440Y-68734D01*
X99440Y-68640D01*
X99459Y-68565D01*
X99478Y-68528D01*
X99496Y-68509D01*
X99534Y-68490D01*
X99834Y-68884D02*
X99834Y-68490D01*
X99871Y-68734D02*
X99984Y-68884D01*
X99984Y-68621D02*
X99834Y-68771D01*
X102453Y-61934D02*
X102321Y-61746D01*
X102228Y-61934D02*
X102228Y-61540D01*
X102378Y-61540D01*
X102415Y-61559D01*
X102434Y-61578D01*
X102453Y-61615D01*
X102453Y-61671D01*
X102434Y-61709D01*
X102415Y-61728D01*
X102378Y-61746D01*
X102228Y-61746D01*
X102565Y-61540D02*
X102696Y-61934D01*
X102828Y-61540D01*
X102940Y-61578D02*
X102959Y-61559D01*
X102996Y-61540D01*
X103090Y-61540D01*
X103128Y-61559D01*
X103146Y-61578D01*
X103165Y-61615D01*
X103165Y-61653D01*
X103146Y-61709D01*
X102921Y-61934D01*
X103165Y-61934D01*
X103315Y-61578D02*
X103334Y-61559D01*
X103371Y-61540D01*
X103465Y-61540D01*
X103503Y-61559D01*
X103521Y-61578D01*
X103540Y-61615D01*
X103540Y-61653D01*
X103521Y-61709D01*
X103296Y-61934D01*
X103540Y-61934D01*
X101540Y-62884D02*
X101315Y-62884D01*
X101428Y-62884D02*
X101428Y-62490D01*
X101390Y-62546D01*
X101353Y-62584D01*
X101315Y-62603D01*
X101784Y-62490D02*
X101821Y-62490D01*
X101859Y-62509D01*
X101878Y-62528D01*
X101896Y-62565D01*
X101915Y-62640D01*
X101915Y-62734D01*
X101896Y-62809D01*
X101878Y-62846D01*
X101859Y-62865D01*
X101821Y-62884D01*
X101784Y-62884D01*
X101746Y-62865D01*
X101728Y-62846D01*
X101709Y-62809D01*
X101690Y-62734D01*
X101690Y-62640D01*
X101709Y-62565D01*
X101728Y-62528D01*
X101746Y-62509D01*
X101784Y-62490D01*
X102084Y-62884D02*
X102084Y-62490D01*
X102121Y-62734D02*
X102234Y-62884D01*
X102234Y-62621D02*
X102084Y-62771D01*
X71140Y-61934D02*
X71009Y-61746D01*
X70915Y-61934D02*
X70915Y-61540D01*
X71065Y-61540D01*
X71103Y-61559D01*
X71121Y-61578D01*
X71140Y-61615D01*
X71140Y-61671D01*
X71121Y-61709D01*
X71103Y-61728D01*
X71065Y-61746D01*
X70915Y-61746D01*
X71253Y-61540D02*
X71384Y-61934D01*
X71515Y-61540D01*
X71609Y-61540D02*
X71853Y-61540D01*
X71721Y-61690D01*
X71778Y-61690D01*
X71815Y-61709D01*
X71834Y-61728D01*
X71853Y-61765D01*
X71853Y-61859D01*
X71834Y-61896D01*
X71815Y-61915D01*
X71778Y-61934D01*
X71665Y-61934D01*
X71628Y-61915D01*
X71609Y-61896D01*
X70040Y-62884D02*
X69815Y-62884D01*
X69928Y-62884D02*
X69928Y-62490D01*
X69890Y-62546D01*
X69853Y-62584D01*
X69815Y-62603D01*
X70284Y-62490D02*
X70321Y-62490D01*
X70359Y-62509D01*
X70378Y-62528D01*
X70396Y-62565D01*
X70415Y-62640D01*
X70415Y-62734D01*
X70396Y-62809D01*
X70378Y-62846D01*
X70359Y-62865D01*
X70321Y-62884D01*
X70284Y-62884D01*
X70246Y-62865D01*
X70228Y-62846D01*
X70209Y-62809D01*
X70190Y-62734D01*
X70190Y-62640D01*
X70209Y-62565D01*
X70228Y-62528D01*
X70246Y-62509D01*
X70284Y-62490D01*
X70584Y-62884D02*
X70584Y-62490D01*
X70621Y-62734D02*
X70734Y-62884D01*
X70734Y-62621D02*
X70584Y-62771D01*
X75640Y-61934D02*
X75509Y-61746D01*
X75415Y-61934D02*
X75415Y-61540D01*
X75565Y-61540D01*
X75603Y-61559D01*
X75621Y-61578D01*
X75640Y-61615D01*
X75640Y-61671D01*
X75621Y-61709D01*
X75603Y-61728D01*
X75565Y-61746D01*
X75415Y-61746D01*
X75753Y-61540D02*
X75884Y-61934D01*
X76015Y-61540D01*
X76315Y-61671D02*
X76315Y-61934D01*
X76221Y-61521D02*
X76128Y-61803D01*
X76371Y-61803D01*
X74540Y-62884D02*
X74315Y-62884D01*
X74428Y-62884D02*
X74428Y-62490D01*
X74390Y-62546D01*
X74353Y-62584D01*
X74315Y-62603D01*
X74784Y-62490D02*
X74821Y-62490D01*
X74859Y-62509D01*
X74878Y-62528D01*
X74896Y-62565D01*
X74915Y-62640D01*
X74915Y-62734D01*
X74896Y-62809D01*
X74878Y-62846D01*
X74859Y-62865D01*
X74821Y-62884D01*
X74784Y-62884D01*
X74746Y-62865D01*
X74728Y-62846D01*
X74709Y-62809D01*
X74690Y-62734D01*
X74690Y-62640D01*
X74709Y-62565D01*
X74728Y-62528D01*
X74746Y-62509D01*
X74784Y-62490D01*
X75084Y-62884D02*
X75084Y-62490D01*
X75121Y-62734D02*
X75234Y-62884D01*
X75234Y-62621D02*
X75084Y-62771D01*
X95703Y-55934D02*
X95571Y-55746D01*
X95478Y-55934D02*
X95478Y-55540D01*
X95628Y-55540D01*
X95665Y-55559D01*
X95684Y-55578D01*
X95703Y-55615D01*
X95703Y-55671D01*
X95684Y-55709D01*
X95665Y-55728D01*
X95628Y-55746D01*
X95478Y-55746D01*
X95815Y-55540D02*
X95946Y-55934D01*
X96078Y-55540D01*
X96190Y-55578D02*
X96209Y-55559D01*
X96246Y-55540D01*
X96340Y-55540D01*
X96378Y-55559D01*
X96396Y-55578D01*
X96415Y-55615D01*
X96415Y-55653D01*
X96396Y-55709D01*
X96171Y-55934D01*
X96415Y-55934D01*
X96546Y-55540D02*
X96790Y-55540D01*
X96659Y-55690D01*
X96715Y-55690D01*
X96753Y-55709D01*
X96771Y-55728D01*
X96790Y-55765D01*
X96790Y-55859D01*
X96771Y-55896D01*
X96753Y-55915D01*
X96715Y-55934D01*
X96603Y-55934D01*
X96565Y-55915D01*
X96546Y-55896D01*
X94790Y-56884D02*
X94565Y-56884D01*
X94678Y-56884D02*
X94678Y-56490D01*
X94640Y-56546D01*
X94603Y-56584D01*
X94565Y-56603D01*
X95034Y-56490D02*
X95071Y-56490D01*
X95109Y-56509D01*
X95128Y-56528D01*
X95146Y-56565D01*
X95165Y-56640D01*
X95165Y-56734D01*
X95146Y-56809D01*
X95128Y-56846D01*
X95109Y-56865D01*
X95071Y-56884D01*
X95034Y-56884D01*
X94996Y-56865D01*
X94978Y-56846D01*
X94959Y-56809D01*
X94940Y-56734D01*
X94940Y-56640D01*
X94959Y-56565D01*
X94978Y-56528D01*
X94996Y-56509D01*
X95034Y-56490D01*
X95334Y-56884D02*
X95334Y-56490D01*
X95371Y-56734D02*
X95484Y-56884D01*
X95484Y-56621D02*
X95334Y-56771D01*
X97953Y-61934D02*
X97821Y-61746D01*
X97728Y-61934D02*
X97728Y-61540D01*
X97878Y-61540D01*
X97915Y-61559D01*
X97934Y-61578D01*
X97953Y-61615D01*
X97953Y-61671D01*
X97934Y-61709D01*
X97915Y-61728D01*
X97878Y-61746D01*
X97728Y-61746D01*
X98065Y-61540D02*
X98196Y-61934D01*
X98328Y-61540D01*
X98440Y-61578D02*
X98459Y-61559D01*
X98496Y-61540D01*
X98590Y-61540D01*
X98628Y-61559D01*
X98646Y-61578D01*
X98665Y-61615D01*
X98665Y-61653D01*
X98646Y-61709D01*
X98421Y-61934D01*
X98665Y-61934D01*
X99040Y-61934D02*
X98815Y-61934D01*
X98928Y-61934D02*
X98928Y-61540D01*
X98890Y-61596D01*
X98853Y-61634D01*
X98815Y-61653D01*
X97040Y-62884D02*
X96815Y-62884D01*
X96928Y-62884D02*
X96928Y-62490D01*
X96890Y-62546D01*
X96853Y-62584D01*
X96815Y-62603D01*
X97284Y-62490D02*
X97321Y-62490D01*
X97359Y-62509D01*
X97378Y-62528D01*
X97396Y-62565D01*
X97415Y-62640D01*
X97415Y-62734D01*
X97396Y-62809D01*
X97378Y-62846D01*
X97359Y-62865D01*
X97321Y-62884D01*
X97284Y-62884D01*
X97246Y-62865D01*
X97228Y-62846D01*
X97209Y-62809D01*
X97190Y-62734D01*
X97190Y-62640D01*
X97209Y-62565D01*
X97228Y-62528D01*
X97246Y-62509D01*
X97284Y-62490D01*
X97584Y-62884D02*
X97584Y-62490D01*
X97621Y-62734D02*
X97734Y-62884D01*
X97734Y-62621D02*
X97584Y-62771D01*
X73390Y-67934D02*
X73259Y-67746D01*
X73165Y-67934D02*
X73165Y-67540D01*
X73315Y-67540D01*
X73353Y-67559D01*
X73371Y-67578D01*
X73390Y-67615D01*
X73390Y-67671D01*
X73371Y-67709D01*
X73353Y-67728D01*
X73315Y-67746D01*
X73165Y-67746D01*
X73503Y-67540D02*
X73634Y-67934D01*
X73765Y-67540D01*
X74065Y-67540D02*
X73990Y-67540D01*
X73953Y-67559D01*
X73934Y-67578D01*
X73896Y-67634D01*
X73878Y-67709D01*
X73878Y-67859D01*
X73896Y-67896D01*
X73915Y-67915D01*
X73953Y-67934D01*
X74028Y-67934D01*
X74065Y-67915D01*
X74084Y-67896D01*
X74103Y-67859D01*
X74103Y-67765D01*
X74084Y-67728D01*
X74065Y-67709D01*
X74028Y-67690D01*
X73953Y-67690D01*
X73915Y-67709D01*
X73896Y-67728D01*
X73878Y-67765D01*
X72290Y-68884D02*
X72065Y-68884D01*
X72178Y-68884D02*
X72178Y-68490D01*
X72140Y-68546D01*
X72103Y-68584D01*
X72065Y-68603D01*
X72534Y-68490D02*
X72571Y-68490D01*
X72609Y-68509D01*
X72628Y-68528D01*
X72646Y-68565D01*
X72665Y-68640D01*
X72665Y-68734D01*
X72646Y-68809D01*
X72628Y-68846D01*
X72609Y-68865D01*
X72571Y-68884D01*
X72534Y-68884D01*
X72496Y-68865D01*
X72478Y-68846D01*
X72459Y-68809D01*
X72440Y-68734D01*
X72440Y-68640D01*
X72459Y-68565D01*
X72478Y-68528D01*
X72496Y-68509D01*
X72534Y-68490D01*
X72834Y-68884D02*
X72834Y-68490D01*
X72871Y-68734D02*
X72984Y-68884D01*
X72984Y-68621D02*
X72834Y-68771D01*
X82390Y-55934D02*
X82259Y-55746D01*
X82165Y-55934D02*
X82165Y-55540D01*
X82315Y-55540D01*
X82353Y-55559D01*
X82371Y-55578D01*
X82390Y-55615D01*
X82390Y-55671D01*
X82371Y-55709D01*
X82353Y-55728D01*
X82315Y-55746D01*
X82165Y-55746D01*
X82503Y-55540D02*
X82634Y-55934D01*
X82765Y-55540D01*
X82859Y-55540D02*
X83121Y-55540D01*
X82953Y-55934D01*
X81290Y-56884D02*
X81065Y-56884D01*
X81178Y-56884D02*
X81178Y-56490D01*
X81140Y-56546D01*
X81103Y-56584D01*
X81065Y-56603D01*
X81534Y-56490D02*
X81571Y-56490D01*
X81609Y-56509D01*
X81628Y-56528D01*
X81646Y-56565D01*
X81665Y-56640D01*
X81665Y-56734D01*
X81646Y-56809D01*
X81628Y-56846D01*
X81609Y-56865D01*
X81571Y-56884D01*
X81534Y-56884D01*
X81496Y-56865D01*
X81478Y-56846D01*
X81459Y-56809D01*
X81440Y-56734D01*
X81440Y-56640D01*
X81459Y-56565D01*
X81478Y-56528D01*
X81496Y-56509D01*
X81534Y-56490D01*
X81834Y-56884D02*
X81834Y-56490D01*
X81871Y-56734D02*
X81984Y-56884D01*
X81984Y-56621D02*
X81834Y-56771D01*
X95703Y-67934D02*
X95571Y-67746D01*
X95478Y-67934D02*
X95478Y-67540D01*
X95628Y-67540D01*
X95665Y-67559D01*
X95684Y-67578D01*
X95703Y-67615D01*
X95703Y-67671D01*
X95684Y-67709D01*
X95665Y-67728D01*
X95628Y-67746D01*
X95478Y-67746D01*
X95815Y-67540D02*
X95946Y-67934D01*
X96078Y-67540D01*
X96190Y-67578D02*
X96209Y-67559D01*
X96246Y-67540D01*
X96340Y-67540D01*
X96378Y-67559D01*
X96396Y-67578D01*
X96415Y-67615D01*
X96415Y-67653D01*
X96396Y-67709D01*
X96171Y-67934D01*
X96415Y-67934D01*
X96659Y-67540D02*
X96696Y-67540D01*
X96734Y-67559D01*
X96753Y-67578D01*
X96771Y-67615D01*
X96790Y-67690D01*
X96790Y-67784D01*
X96771Y-67859D01*
X96753Y-67896D01*
X96734Y-67915D01*
X96696Y-67934D01*
X96659Y-67934D01*
X96621Y-67915D01*
X96603Y-67896D01*
X96584Y-67859D01*
X96565Y-67784D01*
X96565Y-67690D01*
X96584Y-67615D01*
X96603Y-67578D01*
X96621Y-67559D01*
X96659Y-67540D01*
X94790Y-68884D02*
X94565Y-68884D01*
X94678Y-68884D02*
X94678Y-68490D01*
X94640Y-68546D01*
X94603Y-68584D01*
X94565Y-68603D01*
X95034Y-68490D02*
X95071Y-68490D01*
X95109Y-68509D01*
X95128Y-68528D01*
X95146Y-68565D01*
X95165Y-68640D01*
X95165Y-68734D01*
X95146Y-68809D01*
X95128Y-68846D01*
X95109Y-68865D01*
X95071Y-68884D01*
X95034Y-68884D01*
X94996Y-68865D01*
X94978Y-68846D01*
X94959Y-68809D01*
X94940Y-68734D01*
X94940Y-68640D01*
X94959Y-68565D01*
X94978Y-68528D01*
X94996Y-68509D01*
X95034Y-68490D01*
X95334Y-68884D02*
X95334Y-68490D01*
X95371Y-68734D02*
X95484Y-68884D01*
X95484Y-68621D02*
X95334Y-68771D01*
X77890Y-67934D02*
X77759Y-67746D01*
X77665Y-67934D02*
X77665Y-67540D01*
X77815Y-67540D01*
X77853Y-67559D01*
X77871Y-67578D01*
X77890Y-67615D01*
X77890Y-67671D01*
X77871Y-67709D01*
X77853Y-67728D01*
X77815Y-67746D01*
X77665Y-67746D01*
X78003Y-67540D02*
X78134Y-67934D01*
X78265Y-67540D01*
X78453Y-67709D02*
X78415Y-67690D01*
X78396Y-67671D01*
X78378Y-67634D01*
X78378Y-67615D01*
X78396Y-67578D01*
X78415Y-67559D01*
X78453Y-67540D01*
X78528Y-67540D01*
X78565Y-67559D01*
X78584Y-67578D01*
X78603Y-67615D01*
X78603Y-67634D01*
X78584Y-67671D01*
X78565Y-67690D01*
X78528Y-67709D01*
X78453Y-67709D01*
X78415Y-67728D01*
X78396Y-67746D01*
X78378Y-67784D01*
X78378Y-67859D01*
X78396Y-67896D01*
X78415Y-67915D01*
X78453Y-67934D01*
X78528Y-67934D01*
X78565Y-67915D01*
X78584Y-67896D01*
X78603Y-67859D01*
X78603Y-67784D01*
X78584Y-67746D01*
X78565Y-67728D01*
X78528Y-67709D01*
X76790Y-68884D02*
X76565Y-68884D01*
X76678Y-68884D02*
X76678Y-68490D01*
X76640Y-68546D01*
X76603Y-68584D01*
X76565Y-68603D01*
X77034Y-68490D02*
X77071Y-68490D01*
X77109Y-68509D01*
X77128Y-68528D01*
X77146Y-68565D01*
X77165Y-68640D01*
X77165Y-68734D01*
X77146Y-68809D01*
X77128Y-68846D01*
X77109Y-68865D01*
X77071Y-68884D01*
X77034Y-68884D01*
X76996Y-68865D01*
X76978Y-68846D01*
X76959Y-68809D01*
X76940Y-68734D01*
X76940Y-68640D01*
X76959Y-68565D01*
X76978Y-68528D01*
X76996Y-68509D01*
X77034Y-68490D01*
X77334Y-68884D02*
X77334Y-68490D01*
X77371Y-68734D02*
X77484Y-68884D01*
X77484Y-68621D02*
X77334Y-68771D01*
X100203Y-55934D02*
X100071Y-55746D01*
X99978Y-55934D02*
X99978Y-55540D01*
X100128Y-55540D01*
X100165Y-55559D01*
X100184Y-55578D01*
X100203Y-55615D01*
X100203Y-55671D01*
X100184Y-55709D01*
X100165Y-55728D01*
X100128Y-55746D01*
X99978Y-55746D01*
X100315Y-55540D02*
X100446Y-55934D01*
X100578Y-55540D01*
X100915Y-55934D02*
X100690Y-55934D01*
X100803Y-55934D02*
X100803Y-55540D01*
X100765Y-55596D01*
X100728Y-55634D01*
X100690Y-55653D01*
X101103Y-55934D02*
X101178Y-55934D01*
X101215Y-55915D01*
X101234Y-55896D01*
X101271Y-55840D01*
X101290Y-55765D01*
X101290Y-55615D01*
X101271Y-55578D01*
X101253Y-55559D01*
X101215Y-55540D01*
X101140Y-55540D01*
X101103Y-55559D01*
X101084Y-55578D01*
X101065Y-55615D01*
X101065Y-55709D01*
X101084Y-55746D01*
X101103Y-55765D01*
X101140Y-55784D01*
X101215Y-55784D01*
X101253Y-55765D01*
X101271Y-55746D01*
X101290Y-55709D01*
X99290Y-56884D02*
X99065Y-56884D01*
X99178Y-56884D02*
X99178Y-56490D01*
X99140Y-56546D01*
X99103Y-56584D01*
X99065Y-56603D01*
X99534Y-56490D02*
X99571Y-56490D01*
X99609Y-56509D01*
X99628Y-56528D01*
X99646Y-56565D01*
X99665Y-56640D01*
X99665Y-56734D01*
X99646Y-56809D01*
X99628Y-56846D01*
X99609Y-56865D01*
X99571Y-56884D01*
X99534Y-56884D01*
X99496Y-56865D01*
X99478Y-56846D01*
X99459Y-56809D01*
X99440Y-56734D01*
X99440Y-56640D01*
X99459Y-56565D01*
X99478Y-56528D01*
X99496Y-56509D01*
X99534Y-56490D01*
X99834Y-56884D02*
X99834Y-56490D01*
X99871Y-56734D02*
X99984Y-56884D01*
X99984Y-56621D02*
X99834Y-56771D01*
X80140Y-61934D02*
X80009Y-61746D01*
X79915Y-61934D02*
X79915Y-61540D01*
X80065Y-61540D01*
X80103Y-61559D01*
X80121Y-61578D01*
X80140Y-61615D01*
X80140Y-61671D01*
X80121Y-61709D01*
X80103Y-61728D01*
X80065Y-61746D01*
X79915Y-61746D01*
X80253Y-61540D02*
X80384Y-61934D01*
X80515Y-61540D01*
X80665Y-61934D02*
X80740Y-61934D01*
X80778Y-61915D01*
X80796Y-61896D01*
X80834Y-61840D01*
X80853Y-61765D01*
X80853Y-61615D01*
X80834Y-61578D01*
X80815Y-61559D01*
X80778Y-61540D01*
X80703Y-61540D01*
X80665Y-61559D01*
X80646Y-61578D01*
X80628Y-61615D01*
X80628Y-61709D01*
X80646Y-61746D01*
X80665Y-61765D01*
X80703Y-61784D01*
X80778Y-61784D01*
X80815Y-61765D01*
X80834Y-61746D01*
X80853Y-61709D01*
X79040Y-62884D02*
X78815Y-62884D01*
X78928Y-62884D02*
X78928Y-62490D01*
X78890Y-62546D01*
X78853Y-62584D01*
X78815Y-62603D01*
X79284Y-62490D02*
X79321Y-62490D01*
X79359Y-62509D01*
X79378Y-62528D01*
X79396Y-62565D01*
X79415Y-62640D01*
X79415Y-62734D01*
X79396Y-62809D01*
X79378Y-62846D01*
X79359Y-62865D01*
X79321Y-62884D01*
X79284Y-62884D01*
X79246Y-62865D01*
X79228Y-62846D01*
X79209Y-62809D01*
X79190Y-62734D01*
X79190Y-62640D01*
X79209Y-62565D01*
X79228Y-62528D01*
X79246Y-62509D01*
X79284Y-62490D01*
X79584Y-62884D02*
X79584Y-62490D01*
X79621Y-62734D02*
X79734Y-62884D01*
X79734Y-62621D02*
X79584Y-62771D01*
X91203Y-67934D02*
X91071Y-67746D01*
X90978Y-67934D02*
X90978Y-67540D01*
X91128Y-67540D01*
X91165Y-67559D01*
X91184Y-67578D01*
X91203Y-67615D01*
X91203Y-67671D01*
X91184Y-67709D01*
X91165Y-67728D01*
X91128Y-67746D01*
X90978Y-67746D01*
X91315Y-67540D02*
X91446Y-67934D01*
X91578Y-67540D01*
X91915Y-67934D02*
X91690Y-67934D01*
X91803Y-67934D02*
X91803Y-67540D01*
X91765Y-67596D01*
X91728Y-67634D01*
X91690Y-67653D01*
X92140Y-67709D02*
X92103Y-67690D01*
X92084Y-67671D01*
X92065Y-67634D01*
X92065Y-67615D01*
X92084Y-67578D01*
X92103Y-67559D01*
X92140Y-67540D01*
X92215Y-67540D01*
X92253Y-67559D01*
X92271Y-67578D01*
X92290Y-67615D01*
X92290Y-67634D01*
X92271Y-67671D01*
X92253Y-67690D01*
X92215Y-67709D01*
X92140Y-67709D01*
X92103Y-67728D01*
X92084Y-67746D01*
X92065Y-67784D01*
X92065Y-67859D01*
X92084Y-67896D01*
X92103Y-67915D01*
X92140Y-67934D01*
X92215Y-67934D01*
X92253Y-67915D01*
X92271Y-67896D01*
X92290Y-67859D01*
X92290Y-67784D01*
X92271Y-67746D01*
X92253Y-67728D01*
X92215Y-67709D01*
X90290Y-68884D02*
X90065Y-68884D01*
X90178Y-68884D02*
X90178Y-68490D01*
X90140Y-68546D01*
X90103Y-68584D01*
X90065Y-68603D01*
X90534Y-68490D02*
X90571Y-68490D01*
X90609Y-68509D01*
X90628Y-68528D01*
X90646Y-68565D01*
X90665Y-68640D01*
X90665Y-68734D01*
X90646Y-68809D01*
X90628Y-68846D01*
X90609Y-68865D01*
X90571Y-68884D01*
X90534Y-68884D01*
X90496Y-68865D01*
X90478Y-68846D01*
X90459Y-68809D01*
X90440Y-68734D01*
X90440Y-68640D01*
X90459Y-68565D01*
X90478Y-68528D01*
X90496Y-68509D01*
X90534Y-68490D01*
X90834Y-68884D02*
X90834Y-68490D01*
X90871Y-68734D02*
X90984Y-68884D01*
X90984Y-68621D02*
X90834Y-68771D01*
X84453Y-61934D02*
X84321Y-61746D01*
X84228Y-61934D02*
X84228Y-61540D01*
X84378Y-61540D01*
X84415Y-61559D01*
X84434Y-61578D01*
X84453Y-61615D01*
X84453Y-61671D01*
X84434Y-61709D01*
X84415Y-61728D01*
X84378Y-61746D01*
X84228Y-61746D01*
X84565Y-61540D02*
X84696Y-61934D01*
X84828Y-61540D01*
X85165Y-61934D02*
X84940Y-61934D01*
X85053Y-61934D02*
X85053Y-61540D01*
X85015Y-61596D01*
X84978Y-61634D01*
X84940Y-61653D01*
X85409Y-61540D02*
X85446Y-61540D01*
X85484Y-61559D01*
X85503Y-61578D01*
X85521Y-61615D01*
X85540Y-61690D01*
X85540Y-61784D01*
X85521Y-61859D01*
X85503Y-61896D01*
X85484Y-61915D01*
X85446Y-61934D01*
X85409Y-61934D01*
X85371Y-61915D01*
X85353Y-61896D01*
X85334Y-61859D01*
X85315Y-61784D01*
X85315Y-61690D01*
X85334Y-61615D01*
X85353Y-61578D01*
X85371Y-61559D01*
X85409Y-61540D01*
X83540Y-62884D02*
X83315Y-62884D01*
X83428Y-62884D02*
X83428Y-62490D01*
X83390Y-62546D01*
X83353Y-62584D01*
X83315Y-62603D01*
X83784Y-62490D02*
X83821Y-62490D01*
X83859Y-62509D01*
X83878Y-62528D01*
X83896Y-62565D01*
X83915Y-62640D01*
X83915Y-62734D01*
X83896Y-62809D01*
X83878Y-62846D01*
X83859Y-62865D01*
X83821Y-62884D01*
X83784Y-62884D01*
X83746Y-62865D01*
X83728Y-62846D01*
X83709Y-62809D01*
X83690Y-62734D01*
X83690Y-62640D01*
X83709Y-62565D01*
X83728Y-62528D01*
X83746Y-62509D01*
X83784Y-62490D01*
X84084Y-62884D02*
X84084Y-62490D01*
X84121Y-62734D02*
X84234Y-62884D01*
X84234Y-62621D02*
X84084Y-62771D01*
X77703Y-55934D02*
X77571Y-55746D01*
X77478Y-55934D02*
X77478Y-55540D01*
X77628Y-55540D01*
X77665Y-55559D01*
X77684Y-55578D01*
X77703Y-55615D01*
X77703Y-55671D01*
X77684Y-55709D01*
X77665Y-55728D01*
X77628Y-55746D01*
X77478Y-55746D01*
X77815Y-55540D02*
X77946Y-55934D01*
X78078Y-55540D01*
X78415Y-55934D02*
X78190Y-55934D01*
X78303Y-55934D02*
X78303Y-55540D01*
X78265Y-55596D01*
X78228Y-55634D01*
X78190Y-55653D01*
X78790Y-55934D02*
X78565Y-55934D01*
X78678Y-55934D02*
X78678Y-55540D01*
X78640Y-55596D01*
X78603Y-55634D01*
X78565Y-55653D01*
X76790Y-56884D02*
X76565Y-56884D01*
X76678Y-56884D02*
X76678Y-56490D01*
X76640Y-56546D01*
X76603Y-56584D01*
X76565Y-56603D01*
X77034Y-56490D02*
X77071Y-56490D01*
X77109Y-56509D01*
X77128Y-56528D01*
X77146Y-56565D01*
X77165Y-56640D01*
X77165Y-56734D01*
X77146Y-56809D01*
X77128Y-56846D01*
X77109Y-56865D01*
X77071Y-56884D01*
X77034Y-56884D01*
X76996Y-56865D01*
X76978Y-56846D01*
X76959Y-56809D01*
X76940Y-56734D01*
X76940Y-56640D01*
X76959Y-56565D01*
X76978Y-56528D01*
X76996Y-56509D01*
X77034Y-56490D01*
X77334Y-56884D02*
X77334Y-56490D01*
X77371Y-56734D02*
X77484Y-56884D01*
X77484Y-56621D02*
X77334Y-56771D01*
X86703Y-55934D02*
X86571Y-55746D01*
X86478Y-55934D02*
X86478Y-55540D01*
X86628Y-55540D01*
X86665Y-55559D01*
X86684Y-55578D01*
X86703Y-55615D01*
X86703Y-55671D01*
X86684Y-55709D01*
X86665Y-55728D01*
X86628Y-55746D01*
X86478Y-55746D01*
X86815Y-55540D02*
X86946Y-55934D01*
X87078Y-55540D01*
X87415Y-55934D02*
X87190Y-55934D01*
X87303Y-55934D02*
X87303Y-55540D01*
X87265Y-55596D01*
X87228Y-55634D01*
X87190Y-55653D01*
X87546Y-55540D02*
X87809Y-55540D01*
X87640Y-55934D01*
X85790Y-56884D02*
X85565Y-56884D01*
X85678Y-56884D02*
X85678Y-56490D01*
X85640Y-56546D01*
X85603Y-56584D01*
X85565Y-56603D01*
X86034Y-56490D02*
X86071Y-56490D01*
X86109Y-56509D01*
X86128Y-56528D01*
X86146Y-56565D01*
X86165Y-56640D01*
X86165Y-56734D01*
X86146Y-56809D01*
X86128Y-56846D01*
X86109Y-56865D01*
X86071Y-56884D01*
X86034Y-56884D01*
X85996Y-56865D01*
X85978Y-56846D01*
X85959Y-56809D01*
X85940Y-56734D01*
X85940Y-56640D01*
X85959Y-56565D01*
X85978Y-56528D01*
X85996Y-56509D01*
X86034Y-56490D01*
X86334Y-56884D02*
X86334Y-56490D01*
X86371Y-56734D02*
X86484Y-56884D01*
X86484Y-56621D02*
X86334Y-56771D01*
X82203Y-67934D02*
X82071Y-67746D01*
X81978Y-67934D02*
X81978Y-67540D01*
X82128Y-67540D01*
X82165Y-67559D01*
X82184Y-67578D01*
X82203Y-67615D01*
X82203Y-67671D01*
X82184Y-67709D01*
X82165Y-67728D01*
X82128Y-67746D01*
X81978Y-67746D01*
X82315Y-67540D02*
X82446Y-67934D01*
X82578Y-67540D01*
X82915Y-67934D02*
X82690Y-67934D01*
X82803Y-67934D02*
X82803Y-67540D01*
X82765Y-67596D01*
X82728Y-67634D01*
X82690Y-67653D01*
X83065Y-67578D02*
X83084Y-67559D01*
X83121Y-67540D01*
X83215Y-67540D01*
X83253Y-67559D01*
X83271Y-67578D01*
X83290Y-67615D01*
X83290Y-67653D01*
X83271Y-67709D01*
X83046Y-67934D01*
X83290Y-67934D01*
X81290Y-68884D02*
X81065Y-68884D01*
X81178Y-68884D02*
X81178Y-68490D01*
X81140Y-68546D01*
X81103Y-68584D01*
X81065Y-68603D01*
X81534Y-68490D02*
X81571Y-68490D01*
X81609Y-68509D01*
X81628Y-68528D01*
X81646Y-68565D01*
X81665Y-68640D01*
X81665Y-68734D01*
X81646Y-68809D01*
X81628Y-68846D01*
X81609Y-68865D01*
X81571Y-68884D01*
X81534Y-68884D01*
X81496Y-68865D01*
X81478Y-68846D01*
X81459Y-68809D01*
X81440Y-68734D01*
X81440Y-68640D01*
X81459Y-68565D01*
X81478Y-68528D01*
X81496Y-68509D01*
X81534Y-68490D01*
X81834Y-68884D02*
X81834Y-68490D01*
X81871Y-68734D02*
X81984Y-68884D01*
X81984Y-68621D02*
X81834Y-68771D01*
X93453Y-61934D02*
X93321Y-61746D01*
X93228Y-61934D02*
X93228Y-61540D01*
X93378Y-61540D01*
X93415Y-61559D01*
X93434Y-61578D01*
X93453Y-61615D01*
X93453Y-61671D01*
X93434Y-61709D01*
X93415Y-61728D01*
X93378Y-61746D01*
X93228Y-61746D01*
X93565Y-61540D02*
X93696Y-61934D01*
X93828Y-61540D01*
X94165Y-61934D02*
X93940Y-61934D01*
X94053Y-61934D02*
X94053Y-61540D01*
X94015Y-61596D01*
X93978Y-61634D01*
X93940Y-61653D01*
X94503Y-61540D02*
X94428Y-61540D01*
X94390Y-61559D01*
X94371Y-61578D01*
X94334Y-61634D01*
X94315Y-61709D01*
X94315Y-61859D01*
X94334Y-61896D01*
X94353Y-61915D01*
X94390Y-61934D01*
X94465Y-61934D01*
X94503Y-61915D01*
X94521Y-61896D01*
X94540Y-61859D01*
X94540Y-61765D01*
X94521Y-61728D01*
X94503Y-61709D01*
X94465Y-61690D01*
X94390Y-61690D01*
X94353Y-61709D01*
X94334Y-61728D01*
X94315Y-61765D01*
X92540Y-62884D02*
X92315Y-62884D01*
X92428Y-62884D02*
X92428Y-62490D01*
X92390Y-62546D01*
X92353Y-62584D01*
X92315Y-62603D01*
X92784Y-62490D02*
X92821Y-62490D01*
X92859Y-62509D01*
X92878Y-62528D01*
X92896Y-62565D01*
X92915Y-62640D01*
X92915Y-62734D01*
X92896Y-62809D01*
X92878Y-62846D01*
X92859Y-62865D01*
X92821Y-62884D01*
X92784Y-62884D01*
X92746Y-62865D01*
X92728Y-62846D01*
X92709Y-62809D01*
X92690Y-62734D01*
X92690Y-62640D01*
X92709Y-62565D01*
X92728Y-62528D01*
X92746Y-62509D01*
X92784Y-62490D01*
X93084Y-62884D02*
X93084Y-62490D01*
X93121Y-62734D02*
X93234Y-62884D01*
X93234Y-62621D02*
X93084Y-62771D01*
X91203Y-55934D02*
X91071Y-55746D01*
X90978Y-55934D02*
X90978Y-55540D01*
X91128Y-55540D01*
X91165Y-55559D01*
X91184Y-55578D01*
X91203Y-55615D01*
X91203Y-55671D01*
X91184Y-55709D01*
X91165Y-55728D01*
X91128Y-55746D01*
X90978Y-55746D01*
X91315Y-55540D02*
X91446Y-55934D01*
X91578Y-55540D01*
X91915Y-55934D02*
X91690Y-55934D01*
X91803Y-55934D02*
X91803Y-55540D01*
X91765Y-55596D01*
X91728Y-55634D01*
X91690Y-55653D01*
X92046Y-55540D02*
X92290Y-55540D01*
X92159Y-55690D01*
X92215Y-55690D01*
X92253Y-55709D01*
X92271Y-55728D01*
X92290Y-55765D01*
X92290Y-55859D01*
X92271Y-55896D01*
X92253Y-55915D01*
X92215Y-55934D01*
X92103Y-55934D01*
X92065Y-55915D01*
X92046Y-55896D01*
X90290Y-56884D02*
X90065Y-56884D01*
X90178Y-56884D02*
X90178Y-56490D01*
X90140Y-56546D01*
X90103Y-56584D01*
X90065Y-56603D01*
X90534Y-56490D02*
X90571Y-56490D01*
X90609Y-56509D01*
X90628Y-56528D01*
X90646Y-56565D01*
X90665Y-56640D01*
X90665Y-56734D01*
X90646Y-56809D01*
X90628Y-56846D01*
X90609Y-56865D01*
X90571Y-56884D01*
X90534Y-56884D01*
X90496Y-56865D01*
X90478Y-56846D01*
X90459Y-56809D01*
X90440Y-56734D01*
X90440Y-56640D01*
X90459Y-56565D01*
X90478Y-56528D01*
X90496Y-56509D01*
X90534Y-56490D01*
X90834Y-56884D02*
X90834Y-56490D01*
X90871Y-56734D02*
X90984Y-56884D01*
X90984Y-56621D02*
X90834Y-56771D01*
X86703Y-67934D02*
X86571Y-67746D01*
X86478Y-67934D02*
X86478Y-67540D01*
X86628Y-67540D01*
X86665Y-67559D01*
X86684Y-67578D01*
X86703Y-67615D01*
X86703Y-67671D01*
X86684Y-67709D01*
X86665Y-67728D01*
X86628Y-67746D01*
X86478Y-67746D01*
X86815Y-67540D02*
X86946Y-67934D01*
X87078Y-67540D01*
X87415Y-67934D02*
X87190Y-67934D01*
X87303Y-67934D02*
X87303Y-67540D01*
X87265Y-67596D01*
X87228Y-67634D01*
X87190Y-67653D01*
X87753Y-67671D02*
X87753Y-67934D01*
X87659Y-67521D02*
X87565Y-67803D01*
X87809Y-67803D01*
X85790Y-68884D02*
X85565Y-68884D01*
X85678Y-68884D02*
X85678Y-68490D01*
X85640Y-68546D01*
X85603Y-68584D01*
X85565Y-68603D01*
X86034Y-68490D02*
X86071Y-68490D01*
X86109Y-68509D01*
X86128Y-68528D01*
X86146Y-68565D01*
X86165Y-68640D01*
X86165Y-68734D01*
X86146Y-68809D01*
X86128Y-68846D01*
X86109Y-68865D01*
X86071Y-68884D01*
X86034Y-68884D01*
X85996Y-68865D01*
X85978Y-68846D01*
X85959Y-68809D01*
X85940Y-68734D01*
X85940Y-68640D01*
X85959Y-68565D01*
X85978Y-68528D01*
X85996Y-68509D01*
X86034Y-68490D01*
X86334Y-68884D02*
X86334Y-68490D01*
X86371Y-68734D02*
X86484Y-68884D01*
X86484Y-68621D02*
X86334Y-68771D01*
X88953Y-61934D02*
X88821Y-61746D01*
X88728Y-61934D02*
X88728Y-61540D01*
X88878Y-61540D01*
X88915Y-61559D01*
X88934Y-61578D01*
X88953Y-61615D01*
X88953Y-61671D01*
X88934Y-61709D01*
X88915Y-61728D01*
X88878Y-61746D01*
X88728Y-61746D01*
X89065Y-61540D02*
X89196Y-61934D01*
X89328Y-61540D01*
X89665Y-61934D02*
X89440Y-61934D01*
X89553Y-61934D02*
X89553Y-61540D01*
X89515Y-61596D01*
X89478Y-61634D01*
X89440Y-61653D01*
X90021Y-61540D02*
X89834Y-61540D01*
X89815Y-61728D01*
X89834Y-61709D01*
X89871Y-61690D01*
X89965Y-61690D01*
X90003Y-61709D01*
X90021Y-61728D01*
X90040Y-61765D01*
X90040Y-61859D01*
X90021Y-61896D01*
X90003Y-61915D01*
X89965Y-61934D01*
X89871Y-61934D01*
X89834Y-61915D01*
X89815Y-61896D01*
X88040Y-62884D02*
X87815Y-62884D01*
X87928Y-62884D02*
X87928Y-62490D01*
X87890Y-62546D01*
X87853Y-62584D01*
X87815Y-62603D01*
X88284Y-62490D02*
X88321Y-62490D01*
X88359Y-62509D01*
X88378Y-62528D01*
X88396Y-62565D01*
X88415Y-62640D01*
X88415Y-62734D01*
X88396Y-62809D01*
X88378Y-62846D01*
X88359Y-62865D01*
X88321Y-62884D01*
X88284Y-62884D01*
X88246Y-62865D01*
X88228Y-62846D01*
X88209Y-62809D01*
X88190Y-62734D01*
X88190Y-62640D01*
X88209Y-62565D01*
X88228Y-62528D01*
X88246Y-62509D01*
X88284Y-62490D01*
X88584Y-62884D02*
X88584Y-62490D01*
X88621Y-62734D02*
X88734Y-62884D01*
X88734Y-62621D02*
X88584Y-62771D01*
M02*
