G04 (created by PCBNEW (2013-may-18)-stable) date 2014年03月20日 星期四 14时55分15秒*
%MOIN*%
G04 Gerber Fmt 3.4, Leading zero omitted, Abs format*
%FSLAX34Y34*%
G01*
G70*
G90*
G04 APERTURE LIST*
%ADD10C,0.00590551*%
%ADD11C,0.0693*%
%ADD12C,0.035*%
%ADD13C,0.01*%
%ADD14C,0.005*%
G04 APERTURE END LIST*
G54D10*
G54D11*
X74375Y-73125D03*
X74375Y-72125D03*
X77375Y-73125D03*
X77375Y-72125D03*
X78375Y-73125D03*
X78375Y-72125D03*
X86375Y-72125D03*
X86375Y-73125D03*
X85375Y-72125D03*
X85375Y-73125D03*
X84375Y-72125D03*
X84375Y-73125D03*
X83375Y-72125D03*
X83375Y-73125D03*
X82375Y-72125D03*
X82375Y-73125D03*
X81375Y-72125D03*
X81375Y-73125D03*
X80375Y-72125D03*
X80375Y-73125D03*
X79375Y-72125D03*
X79375Y-73125D03*
X76375Y-72125D03*
X76375Y-73125D03*
X75375Y-72125D03*
X75375Y-73125D03*
X96375Y-73125D03*
X96375Y-72125D03*
X97375Y-73125D03*
X97375Y-72125D03*
X98375Y-73125D03*
X98375Y-72125D03*
X99375Y-73125D03*
X99375Y-72125D03*
X100375Y-73125D03*
X100375Y-72125D03*
G54D12*
X88834Y-64940D03*
X93313Y-64050D03*
X98001Y-64954D03*
X102298Y-64951D03*
X98953Y-64951D03*
X80709Y-64950D03*
X72011Y-64950D03*
X76453Y-64793D03*
X88755Y-59625D03*
X68788Y-64443D03*
X84925Y-53369D03*
X78272Y-53455D03*
X84875Y-64125D03*
X93875Y-64125D03*
X102875Y-64175D03*
X82975Y-68300D03*
X83000Y-67200D03*
X74250Y-69325D03*
X75125Y-70150D03*
X72900Y-65675D03*
X70900Y-67100D03*
X70950Y-68600D03*
X74350Y-65675D03*
X76625Y-63825D03*
X77100Y-62975D03*
X97625Y-58150D03*
X96650Y-60700D03*
X96650Y-61975D03*
X98375Y-62050D03*
X98825Y-67425D03*
X98800Y-68375D03*
X92000Y-67025D03*
X91975Y-67950D03*
X88850Y-64225D03*
X88800Y-63650D03*
X89825Y-68325D03*
X89825Y-67000D03*
X88000Y-68625D03*
X87425Y-67050D03*
X86875Y-63225D03*
X86250Y-63825D03*
X86875Y-64325D03*
X87875Y-64225D03*
X96125Y-64400D03*
X96125Y-67225D03*
X94425Y-67050D03*
X96775Y-64300D03*
X77516Y-64462D03*
X81941Y-64531D03*
X79237Y-64549D03*
X73288Y-64562D03*
X70540Y-62416D03*
X83333Y-64386D03*
X74511Y-64550D03*
X82075Y-69325D03*
X91025Y-69275D03*
X100075Y-69275D03*
G54D13*
X93313Y-64050D02*
X89724Y-64050D01*
X89724Y-64050D02*
X88834Y-64940D01*
X96846Y-63798D02*
X98001Y-64954D01*
X93565Y-63798D02*
X96846Y-63798D01*
X93313Y-64050D02*
X93565Y-63798D01*
X101952Y-65297D02*
X102298Y-64951D01*
X98344Y-65297D02*
X101952Y-65297D01*
X98001Y-64954D02*
X98344Y-65297D01*
X82575Y-64950D02*
X83350Y-64950D01*
X88675Y-59625D02*
X88755Y-59625D01*
X83350Y-64950D02*
X88675Y-59625D01*
X76453Y-64950D02*
X76453Y-64793D01*
X72011Y-64950D02*
X76453Y-64950D01*
X100066Y-63838D02*
X98953Y-64951D01*
X103027Y-63838D02*
X100066Y-63838D01*
X103201Y-64012D02*
X103027Y-63838D01*
X103201Y-67715D02*
X103201Y-64012D01*
X99875Y-71042D02*
X103201Y-67715D01*
X99875Y-72625D02*
X99875Y-71042D01*
X99375Y-73125D02*
X99875Y-72625D01*
X93626Y-59625D02*
X88755Y-59625D01*
X98953Y-64951D02*
X93626Y-59625D01*
X76453Y-64950D02*
X80709Y-64950D01*
X71504Y-64443D02*
X72011Y-64950D01*
X68788Y-64443D02*
X71504Y-64443D01*
X80709Y-64950D02*
X82575Y-64950D01*
X88577Y-59625D02*
X88755Y-59625D01*
X84925Y-53369D02*
X84925Y-53455D01*
X84925Y-55972D02*
X88577Y-59625D01*
X84925Y-53455D02*
X84925Y-55972D01*
X84925Y-53455D02*
X78272Y-53455D01*
X82100Y-70175D02*
X82450Y-69825D01*
X81325Y-70175D02*
X82100Y-70175D01*
X79375Y-72125D02*
X81325Y-70175D01*
X84875Y-67400D02*
X84875Y-67125D01*
X82450Y-69825D02*
X84875Y-67400D01*
X84875Y-67125D02*
X84875Y-64125D01*
X82375Y-72125D02*
X82375Y-71025D01*
X83775Y-69625D02*
X91175Y-69625D01*
X82375Y-71025D02*
X83775Y-69625D01*
X93875Y-66925D02*
X93875Y-64125D01*
X91175Y-69625D02*
X93875Y-66925D01*
X102875Y-66975D02*
X102875Y-64175D01*
X99725Y-70125D02*
X102875Y-66975D01*
X86175Y-70125D02*
X99725Y-70125D01*
X85375Y-70925D02*
X86175Y-70125D01*
X85375Y-72125D02*
X85375Y-70925D01*
X74250Y-69325D02*
X74250Y-70500D01*
X74250Y-70500D02*
X74750Y-71000D01*
X74750Y-71000D02*
X78425Y-71000D01*
X78425Y-71000D02*
X81125Y-68300D01*
X81125Y-68300D02*
X82975Y-68300D01*
X83000Y-67200D02*
X82825Y-67375D01*
X82825Y-67375D02*
X78750Y-67375D01*
X78750Y-67375D02*
X75975Y-70150D01*
X75975Y-70150D02*
X75125Y-70150D01*
X70950Y-68600D02*
X73525Y-68600D01*
X73525Y-68600D02*
X74250Y-69325D01*
X75125Y-70150D02*
X75200Y-70075D01*
X75200Y-70075D02*
X75200Y-66525D01*
X75200Y-66525D02*
X74350Y-65675D01*
X72900Y-65675D02*
X71475Y-67100D01*
X71475Y-67100D02*
X70900Y-67100D01*
X70950Y-68600D02*
X73875Y-65675D01*
X73875Y-65675D02*
X74350Y-65675D01*
X77516Y-64462D02*
X77262Y-64462D01*
X77262Y-64462D02*
X76625Y-63825D01*
X77100Y-62975D02*
X78625Y-62975D01*
X78625Y-62975D02*
X79237Y-63587D01*
X79237Y-63587D02*
X79237Y-64549D01*
X97625Y-58150D02*
X96650Y-59125D01*
X96650Y-59125D02*
X96650Y-60700D01*
X96650Y-61975D02*
X96725Y-62050D01*
X96725Y-62050D02*
X98375Y-62050D01*
X96125Y-67225D02*
X98625Y-67225D01*
X98625Y-67225D02*
X98825Y-67425D01*
X98800Y-68375D02*
X98425Y-68750D01*
X98425Y-68750D02*
X96125Y-68750D01*
X96125Y-68750D02*
X94425Y-67050D01*
X89825Y-67000D02*
X91975Y-67000D01*
X91975Y-67000D02*
X92000Y-67025D01*
X91975Y-67950D02*
X91600Y-68325D01*
X91600Y-68325D02*
X89825Y-68325D01*
X87875Y-64225D02*
X88850Y-64225D01*
X88800Y-63650D02*
X88375Y-63225D01*
X88375Y-63225D02*
X86875Y-63225D01*
X88000Y-68625D02*
X89525Y-68625D01*
X89525Y-68625D02*
X89825Y-68325D01*
X89825Y-67000D02*
X89775Y-67050D01*
X89775Y-67050D02*
X87425Y-67050D01*
X87875Y-64225D02*
X87875Y-66600D01*
X87450Y-63800D02*
X86875Y-63225D01*
X87450Y-64550D02*
X87450Y-63800D01*
X86925Y-65075D02*
X87450Y-64550D01*
X86925Y-67550D02*
X86925Y-65075D01*
X88000Y-68625D02*
X86925Y-67550D01*
X87875Y-66600D02*
X87425Y-67050D01*
X86250Y-63825D02*
X86750Y-64325D01*
X86750Y-64325D02*
X86875Y-64325D01*
X86375Y-73125D02*
X86375Y-72125D01*
X96125Y-64400D02*
X96125Y-67225D01*
X94425Y-67050D02*
X95075Y-66400D01*
X95075Y-66400D02*
X95075Y-64475D01*
X95075Y-64475D02*
X95525Y-64025D01*
X95525Y-64025D02*
X96500Y-64025D01*
X96500Y-64025D02*
X96775Y-64300D01*
X79237Y-64531D02*
X79237Y-64549D01*
X77585Y-64531D02*
X77516Y-64462D01*
X79237Y-64531D02*
X77585Y-64531D01*
X81941Y-64531D02*
X79237Y-64531D01*
X82086Y-64386D02*
X83333Y-64386D01*
X81941Y-64531D02*
X82086Y-64386D01*
X71242Y-62416D02*
X73288Y-64462D01*
X70540Y-62416D02*
X71242Y-62416D01*
X73288Y-64462D02*
X73288Y-64562D01*
X73288Y-64462D02*
X74511Y-64462D01*
X77516Y-64462D02*
X74511Y-64462D01*
X74511Y-64462D02*
X74511Y-64550D01*
X81275Y-69325D02*
X82075Y-69325D01*
X78475Y-72125D02*
X81275Y-69325D01*
X78375Y-72125D02*
X78475Y-72125D01*
X81375Y-72125D02*
X81375Y-71725D01*
X81375Y-71725D02*
X83825Y-69275D01*
X83825Y-69275D02*
X85850Y-69275D01*
X85850Y-69275D02*
X91025Y-69275D01*
X99475Y-69875D02*
X100075Y-69275D01*
X85375Y-69875D02*
X99475Y-69875D01*
X84375Y-70875D02*
X85375Y-69875D01*
X84375Y-72125D02*
X84375Y-70875D01*
G54D10*
G36*
X102690Y-66898D02*
X100382Y-69206D01*
X100337Y-69099D01*
X100250Y-69012D01*
X100136Y-68965D01*
X100013Y-68964D01*
X99899Y-69012D01*
X99812Y-69099D01*
X99765Y-69213D01*
X99764Y-69323D01*
X99398Y-69690D01*
X91371Y-69690D01*
X94005Y-67055D01*
X94005Y-67055D01*
X94045Y-66995D01*
X94059Y-66925D01*
X94060Y-66925D01*
X94060Y-64378D01*
X94137Y-64300D01*
X94184Y-64186D01*
X94185Y-64063D01*
X94152Y-63983D01*
X96769Y-63983D01*
X97691Y-64906D01*
X97691Y-65015D01*
X97738Y-65129D01*
X97825Y-65217D01*
X97939Y-65264D01*
X98050Y-65264D01*
X98213Y-65428D01*
X98213Y-65428D01*
X98273Y-65468D01*
X98344Y-65482D01*
X101952Y-65482D01*
X101952Y-65482D01*
X102023Y-65468D01*
X102083Y-65428D01*
X102250Y-65261D01*
X102360Y-65261D01*
X102474Y-65214D01*
X102561Y-65127D01*
X102608Y-65013D01*
X102608Y-64890D01*
X102561Y-64776D01*
X102474Y-64689D01*
X102360Y-64641D01*
X102237Y-64641D01*
X102123Y-64688D01*
X102036Y-64775D01*
X101988Y-64889D01*
X101988Y-65000D01*
X101876Y-65112D01*
X99222Y-65112D01*
X99263Y-65013D01*
X99263Y-64903D01*
X100143Y-64023D01*
X102602Y-64023D01*
X102565Y-64113D01*
X102564Y-64236D01*
X102612Y-64350D01*
X102690Y-64428D01*
X102690Y-66898D01*
X102690Y-66898D01*
G37*
G54D14*
X102690Y-66898D02*
X100382Y-69206D01*
X100337Y-69099D01*
X100250Y-69012D01*
X100136Y-68965D01*
X100013Y-68964D01*
X99899Y-69012D01*
X99812Y-69099D01*
X99765Y-69213D01*
X99764Y-69323D01*
X99398Y-69690D01*
X91371Y-69690D01*
X94005Y-67055D01*
X94005Y-67055D01*
X94045Y-66995D01*
X94059Y-66925D01*
X94060Y-66925D01*
X94060Y-64378D01*
X94137Y-64300D01*
X94184Y-64186D01*
X94185Y-64063D01*
X94152Y-63983D01*
X96769Y-63983D01*
X97691Y-64906D01*
X97691Y-65015D01*
X97738Y-65129D01*
X97825Y-65217D01*
X97939Y-65264D01*
X98050Y-65264D01*
X98213Y-65428D01*
X98213Y-65428D01*
X98273Y-65468D01*
X98344Y-65482D01*
X101952Y-65482D01*
X101952Y-65482D01*
X102023Y-65468D01*
X102083Y-65428D01*
X102250Y-65261D01*
X102360Y-65261D01*
X102474Y-65214D01*
X102561Y-65127D01*
X102608Y-65013D01*
X102608Y-64890D01*
X102561Y-64776D01*
X102474Y-64689D01*
X102360Y-64641D01*
X102237Y-64641D01*
X102123Y-64688D01*
X102036Y-64775D01*
X101988Y-64889D01*
X101988Y-65000D01*
X101876Y-65112D01*
X99222Y-65112D01*
X99263Y-65013D01*
X99263Y-64903D01*
X100143Y-64023D01*
X102602Y-64023D01*
X102565Y-64113D01*
X102564Y-64236D01*
X102612Y-64350D01*
X102690Y-64428D01*
X102690Y-66898D01*
G54D10*
G36*
X104850Y-74600D02*
X103386Y-74600D01*
X103386Y-67715D01*
X103386Y-64012D01*
X103372Y-63942D01*
X103332Y-63882D01*
X103332Y-63882D01*
X103157Y-63707D01*
X103097Y-63667D01*
X103027Y-63653D01*
X100066Y-63653D01*
X99995Y-63667D01*
X99959Y-63691D01*
X99935Y-63707D01*
X99001Y-64641D01*
X98904Y-64641D01*
X93757Y-59494D01*
X93697Y-59454D01*
X93626Y-59440D01*
X89008Y-59440D01*
X88931Y-59362D01*
X88817Y-59315D01*
X88693Y-59314D01*
X88579Y-59362D01*
X88578Y-59363D01*
X85110Y-55895D01*
X85110Y-53622D01*
X85187Y-53544D01*
X85235Y-53431D01*
X85235Y-53307D01*
X85188Y-53193D01*
X85101Y-53106D01*
X84987Y-53059D01*
X84863Y-53059D01*
X84749Y-53106D01*
X84662Y-53193D01*
X84630Y-53270D01*
X78526Y-53270D01*
X78448Y-53192D01*
X78334Y-53145D01*
X78211Y-53145D01*
X78097Y-53192D01*
X78010Y-53279D01*
X77962Y-53393D01*
X77962Y-53516D01*
X78009Y-53630D01*
X78096Y-53718D01*
X78210Y-53765D01*
X78334Y-53765D01*
X78448Y-53718D01*
X78526Y-53640D01*
X84740Y-53640D01*
X84740Y-55972D01*
X84754Y-56043D01*
X84794Y-56103D01*
X88364Y-59673D01*
X83273Y-64765D01*
X82575Y-64765D01*
X80963Y-64765D01*
X80885Y-64687D01*
X80771Y-64640D01*
X80648Y-64639D01*
X80534Y-64687D01*
X80456Y-64765D01*
X76763Y-64765D01*
X76763Y-64732D01*
X76716Y-64618D01*
X76628Y-64531D01*
X76515Y-64483D01*
X76391Y-64483D01*
X76277Y-64530D01*
X76190Y-64617D01*
X76143Y-64731D01*
X76143Y-64765D01*
X72264Y-64765D01*
X72186Y-64687D01*
X72072Y-64640D01*
X71962Y-64639D01*
X71634Y-64312D01*
X71574Y-64272D01*
X71504Y-64258D01*
X69042Y-64258D01*
X68964Y-64180D01*
X68850Y-64133D01*
X68727Y-64132D01*
X68613Y-64180D01*
X68526Y-64267D01*
X68478Y-64381D01*
X68478Y-64504D01*
X68525Y-64618D01*
X68613Y-64705D01*
X68727Y-64752D01*
X68850Y-64753D01*
X68964Y-64705D01*
X69042Y-64628D01*
X71427Y-64628D01*
X71701Y-64901D01*
X71701Y-65011D01*
X71748Y-65125D01*
X71835Y-65212D01*
X71949Y-65259D01*
X72072Y-65260D01*
X72186Y-65212D01*
X72264Y-65135D01*
X76453Y-65135D01*
X80456Y-65135D01*
X80534Y-65212D01*
X80647Y-65259D01*
X80771Y-65260D01*
X80885Y-65212D01*
X80963Y-65135D01*
X82575Y-65135D01*
X83350Y-65135D01*
X83350Y-65134D01*
X83420Y-65120D01*
X83480Y-65080D01*
X84612Y-63949D01*
X84565Y-64063D01*
X84564Y-64186D01*
X84612Y-64300D01*
X84690Y-64378D01*
X84690Y-67125D01*
X84690Y-67323D01*
X82319Y-69694D01*
X82319Y-69694D01*
X82023Y-69990D01*
X81325Y-69990D01*
X81254Y-70004D01*
X81218Y-70028D01*
X81194Y-70044D01*
X79558Y-71679D01*
X79471Y-71643D01*
X79279Y-71643D01*
X79174Y-71686D01*
X81351Y-69510D01*
X81821Y-69510D01*
X81899Y-69587D01*
X82013Y-69634D01*
X82136Y-69635D01*
X82250Y-69587D01*
X82337Y-69500D01*
X82384Y-69386D01*
X82385Y-69263D01*
X82337Y-69149D01*
X82250Y-69062D01*
X82136Y-69015D01*
X82013Y-69014D01*
X81899Y-69062D01*
X81821Y-69140D01*
X81275Y-69140D01*
X81204Y-69154D01*
X81184Y-69167D01*
X81144Y-69194D01*
X78629Y-71709D01*
X78471Y-71643D01*
X78279Y-71643D01*
X78102Y-71716D01*
X77967Y-71851D01*
X77893Y-72028D01*
X77893Y-72220D01*
X77966Y-72397D01*
X78101Y-72532D01*
X78278Y-72606D01*
X78470Y-72606D01*
X78647Y-72533D01*
X78782Y-72398D01*
X78856Y-72221D01*
X78856Y-72029D01*
X78849Y-72012D01*
X78936Y-71924D01*
X78893Y-72028D01*
X78893Y-72220D01*
X78966Y-72397D01*
X79101Y-72532D01*
X79278Y-72606D01*
X79470Y-72606D01*
X79647Y-72533D01*
X79782Y-72398D01*
X79856Y-72221D01*
X79856Y-72029D01*
X79820Y-71941D01*
X81401Y-70360D01*
X82100Y-70360D01*
X82100Y-70359D01*
X82170Y-70345D01*
X82230Y-70305D01*
X82580Y-69955D01*
X82580Y-69955D01*
X82580Y-69955D01*
X85005Y-67530D01*
X85005Y-67530D01*
X85045Y-67470D01*
X85059Y-67400D01*
X85060Y-67400D01*
X85060Y-67125D01*
X85060Y-64378D01*
X85137Y-64300D01*
X85184Y-64186D01*
X85185Y-64063D01*
X85137Y-63949D01*
X85050Y-63862D01*
X84936Y-63815D01*
X84813Y-63814D01*
X84699Y-63862D01*
X84676Y-63885D01*
X88646Y-59915D01*
X88693Y-59934D01*
X88816Y-59935D01*
X88930Y-59887D01*
X89008Y-59810D01*
X93549Y-59810D01*
X98643Y-64903D01*
X98643Y-65013D01*
X98684Y-65112D01*
X98421Y-65112D01*
X98311Y-65002D01*
X98311Y-64893D01*
X98264Y-64779D01*
X98177Y-64691D01*
X98063Y-64644D01*
X97953Y-64644D01*
X96976Y-63668D01*
X96916Y-63628D01*
X96846Y-63613D01*
X93565Y-63613D01*
X93494Y-63628D01*
X93474Y-63641D01*
X93434Y-63668D01*
X93362Y-63740D01*
X93252Y-63739D01*
X93138Y-63787D01*
X93060Y-63865D01*
X89724Y-63865D01*
X89654Y-63879D01*
X89593Y-63919D01*
X88882Y-64630D01*
X88773Y-64630D01*
X88659Y-64677D01*
X88571Y-64764D01*
X88524Y-64878D01*
X88524Y-65001D01*
X88571Y-65115D01*
X88658Y-65203D01*
X88772Y-65250D01*
X88895Y-65250D01*
X89009Y-65203D01*
X89097Y-65116D01*
X89144Y-65002D01*
X89144Y-64891D01*
X89801Y-64235D01*
X93060Y-64235D01*
X93138Y-64312D01*
X93252Y-64359D01*
X93375Y-64360D01*
X93489Y-64312D01*
X93576Y-64225D01*
X93578Y-64220D01*
X93612Y-64300D01*
X93690Y-64378D01*
X93690Y-66848D01*
X91332Y-69206D01*
X91287Y-69099D01*
X91200Y-69012D01*
X91086Y-68965D01*
X90963Y-68964D01*
X90849Y-69012D01*
X90771Y-69090D01*
X85850Y-69090D01*
X83825Y-69090D01*
X83754Y-69104D01*
X83734Y-69117D01*
X83694Y-69144D01*
X81244Y-71594D01*
X81204Y-71654D01*
X81199Y-71676D01*
X81102Y-71716D01*
X80967Y-71851D01*
X80893Y-72028D01*
X80893Y-72220D01*
X80966Y-72397D01*
X81101Y-72532D01*
X81278Y-72606D01*
X81470Y-72606D01*
X81647Y-72533D01*
X81782Y-72398D01*
X81856Y-72221D01*
X81856Y-72029D01*
X81783Y-71852D01*
X81648Y-71717D01*
X81645Y-71716D01*
X82190Y-71171D01*
X82190Y-71680D01*
X82102Y-71716D01*
X81967Y-71851D01*
X81893Y-72028D01*
X81893Y-72220D01*
X81966Y-72397D01*
X82101Y-72532D01*
X82278Y-72606D01*
X82470Y-72606D01*
X82647Y-72533D01*
X82782Y-72398D01*
X82856Y-72221D01*
X82856Y-72029D01*
X82783Y-71852D01*
X82648Y-71717D01*
X82560Y-71680D01*
X82560Y-71101D01*
X83851Y-69810D01*
X85178Y-69810D01*
X84244Y-70744D01*
X84204Y-70804D01*
X84190Y-70875D01*
X84190Y-71680D01*
X84102Y-71716D01*
X83967Y-71851D01*
X83893Y-72028D01*
X83893Y-72220D01*
X83966Y-72397D01*
X84101Y-72532D01*
X84278Y-72606D01*
X84470Y-72606D01*
X84647Y-72533D01*
X84782Y-72398D01*
X84856Y-72221D01*
X84856Y-72029D01*
X84783Y-71852D01*
X84648Y-71717D01*
X84560Y-71680D01*
X84560Y-70951D01*
X85451Y-70060D01*
X85978Y-70060D01*
X85244Y-70794D01*
X85204Y-70854D01*
X85190Y-70925D01*
X85190Y-71680D01*
X85102Y-71716D01*
X84967Y-71851D01*
X84893Y-72028D01*
X84893Y-72220D01*
X84966Y-72397D01*
X85101Y-72532D01*
X85278Y-72606D01*
X85470Y-72606D01*
X85647Y-72533D01*
X85782Y-72398D01*
X85822Y-72304D01*
X85863Y-72403D01*
X85953Y-72440D01*
X86268Y-72125D01*
X85953Y-71809D01*
X85863Y-71846D01*
X85827Y-71960D01*
X85783Y-71852D01*
X85648Y-71717D01*
X85560Y-71680D01*
X85560Y-71001D01*
X86251Y-70310D01*
X99725Y-70310D01*
X99725Y-70309D01*
X99795Y-70295D01*
X99855Y-70255D01*
X103005Y-67105D01*
X103005Y-67105D01*
X103016Y-67089D01*
X103016Y-67638D01*
X99744Y-70911D01*
X99704Y-70971D01*
X99690Y-71042D01*
X99690Y-71759D01*
X99648Y-71717D01*
X99471Y-71643D01*
X99279Y-71643D01*
X99102Y-71716D01*
X98967Y-71851D01*
X98893Y-72028D01*
X98893Y-72220D01*
X98966Y-72397D01*
X99101Y-72532D01*
X99278Y-72606D01*
X99470Y-72606D01*
X99647Y-72533D01*
X99690Y-72490D01*
X99690Y-72548D01*
X99558Y-72679D01*
X99471Y-72643D01*
X99279Y-72643D01*
X99102Y-72716D01*
X98967Y-72851D01*
X98893Y-73028D01*
X98893Y-73220D01*
X98966Y-73397D01*
X99101Y-73532D01*
X99278Y-73606D01*
X99470Y-73606D01*
X99647Y-73533D01*
X99782Y-73398D01*
X99856Y-73221D01*
X99856Y-73029D01*
X99820Y-72941D01*
X100005Y-72755D01*
X100005Y-72755D01*
X100045Y-72695D01*
X100059Y-72625D01*
X100060Y-72625D01*
X100060Y-72547D01*
X100096Y-72636D01*
X100210Y-72672D01*
X100102Y-72716D01*
X99967Y-72851D01*
X99893Y-73028D01*
X99893Y-73220D01*
X99966Y-73397D01*
X100101Y-73532D01*
X100278Y-73606D01*
X100470Y-73606D01*
X100647Y-73533D01*
X100782Y-73398D01*
X100856Y-73221D01*
X100856Y-73029D01*
X100783Y-72852D01*
X100648Y-72717D01*
X100554Y-72677D01*
X100653Y-72636D01*
X100690Y-72546D01*
X100375Y-72231D01*
X100369Y-72236D01*
X100263Y-72130D01*
X100268Y-72125D01*
X100263Y-72119D01*
X100369Y-72013D01*
X100375Y-72018D01*
X100690Y-71703D01*
X100653Y-71613D01*
X100436Y-71545D01*
X100210Y-71565D01*
X100096Y-71613D01*
X100060Y-71702D01*
X100060Y-71118D01*
X103332Y-67846D01*
X103332Y-67846D01*
X103372Y-67786D01*
X103386Y-67715D01*
X103386Y-67715D01*
X103386Y-74600D01*
X100954Y-74600D01*
X100954Y-72186D01*
X100934Y-71960D01*
X100886Y-71846D01*
X100796Y-71809D01*
X100481Y-72125D01*
X100796Y-72440D01*
X100886Y-72403D01*
X100954Y-72186D01*
X100954Y-74600D01*
X98856Y-74600D01*
X98856Y-73029D01*
X98856Y-72029D01*
X98783Y-71852D01*
X98648Y-71717D01*
X98471Y-71643D01*
X98279Y-71643D01*
X98102Y-71716D01*
X97967Y-71851D01*
X97893Y-72028D01*
X97893Y-72220D01*
X97966Y-72397D01*
X98101Y-72532D01*
X98278Y-72606D01*
X98470Y-72606D01*
X98647Y-72533D01*
X98782Y-72398D01*
X98856Y-72221D01*
X98856Y-72029D01*
X98856Y-73029D01*
X98783Y-72852D01*
X98648Y-72717D01*
X98471Y-72643D01*
X98279Y-72643D01*
X98102Y-72716D01*
X97967Y-72851D01*
X97893Y-73028D01*
X97893Y-73220D01*
X97966Y-73397D01*
X98101Y-73532D01*
X98278Y-73606D01*
X98470Y-73606D01*
X98647Y-73533D01*
X98782Y-73398D01*
X98856Y-73221D01*
X98856Y-73029D01*
X98856Y-74600D01*
X97856Y-74600D01*
X97856Y-73029D01*
X97856Y-72029D01*
X97783Y-71852D01*
X97648Y-71717D01*
X97471Y-71643D01*
X97279Y-71643D01*
X97102Y-71716D01*
X96967Y-71851D01*
X96893Y-72028D01*
X96893Y-72220D01*
X96966Y-72397D01*
X97101Y-72532D01*
X97278Y-72606D01*
X97470Y-72606D01*
X97647Y-72533D01*
X97782Y-72398D01*
X97856Y-72221D01*
X97856Y-72029D01*
X97856Y-73029D01*
X97783Y-72852D01*
X97648Y-72717D01*
X97471Y-72643D01*
X97279Y-72643D01*
X97102Y-72716D01*
X96967Y-72851D01*
X96893Y-73028D01*
X96893Y-73220D01*
X96966Y-73397D01*
X97101Y-73532D01*
X97278Y-73606D01*
X97470Y-73606D01*
X97647Y-73533D01*
X97782Y-73398D01*
X97856Y-73221D01*
X97856Y-73029D01*
X97856Y-74600D01*
X96856Y-74600D01*
X96856Y-73029D01*
X96856Y-72029D01*
X96783Y-71852D01*
X96648Y-71717D01*
X96471Y-71643D01*
X96279Y-71643D01*
X96102Y-71716D01*
X95967Y-71851D01*
X95893Y-72028D01*
X95893Y-72220D01*
X95966Y-72397D01*
X96101Y-72532D01*
X96278Y-72606D01*
X96470Y-72606D01*
X96647Y-72533D01*
X96782Y-72398D01*
X96856Y-72221D01*
X96856Y-72029D01*
X96856Y-73029D01*
X96783Y-72852D01*
X96648Y-72717D01*
X96471Y-72643D01*
X96279Y-72643D01*
X96102Y-72716D01*
X95967Y-72851D01*
X95893Y-73028D01*
X95893Y-73220D01*
X95966Y-73397D01*
X96101Y-73532D01*
X96278Y-73606D01*
X96470Y-73606D01*
X96647Y-73533D01*
X96782Y-73398D01*
X96856Y-73221D01*
X96856Y-73029D01*
X96856Y-74600D01*
X86954Y-74600D01*
X86954Y-73186D01*
X86954Y-72186D01*
X86934Y-71960D01*
X86886Y-71846D01*
X86796Y-71809D01*
X86690Y-71915D01*
X86690Y-71703D01*
X86653Y-71613D01*
X86436Y-71545D01*
X86210Y-71565D01*
X86096Y-71613D01*
X86059Y-71703D01*
X86375Y-72018D01*
X86690Y-71703D01*
X86690Y-71915D01*
X86481Y-72125D01*
X86796Y-72440D01*
X86886Y-72403D01*
X86954Y-72186D01*
X86954Y-73186D01*
X86934Y-72960D01*
X86886Y-72846D01*
X86796Y-72809D01*
X86690Y-72915D01*
X86690Y-72703D01*
X86658Y-72625D01*
X86690Y-72546D01*
X86375Y-72231D01*
X86059Y-72546D01*
X86091Y-72624D01*
X86059Y-72703D01*
X86375Y-73018D01*
X86690Y-72703D01*
X86690Y-72915D01*
X86481Y-73125D01*
X86796Y-73440D01*
X86886Y-73403D01*
X86954Y-73186D01*
X86954Y-74600D01*
X86690Y-74600D01*
X86690Y-73546D01*
X86375Y-73231D01*
X86268Y-73337D01*
X86268Y-73125D01*
X85953Y-72809D01*
X85863Y-72846D01*
X85827Y-72960D01*
X85783Y-72852D01*
X85648Y-72717D01*
X85471Y-72643D01*
X85279Y-72643D01*
X85102Y-72716D01*
X84967Y-72851D01*
X84893Y-73028D01*
X84893Y-73220D01*
X84966Y-73397D01*
X85101Y-73532D01*
X85278Y-73606D01*
X85470Y-73606D01*
X85647Y-73533D01*
X85782Y-73398D01*
X85822Y-73304D01*
X85863Y-73403D01*
X85953Y-73440D01*
X86268Y-73125D01*
X86268Y-73337D01*
X86059Y-73546D01*
X86096Y-73636D01*
X86313Y-73704D01*
X86539Y-73684D01*
X86653Y-73636D01*
X86690Y-73546D01*
X86690Y-74600D01*
X84856Y-74600D01*
X84856Y-73029D01*
X84783Y-72852D01*
X84648Y-72717D01*
X84471Y-72643D01*
X84279Y-72643D01*
X84102Y-72716D01*
X83967Y-72851D01*
X83893Y-73028D01*
X83893Y-73220D01*
X83966Y-73397D01*
X84101Y-73532D01*
X84278Y-73606D01*
X84470Y-73606D01*
X84647Y-73533D01*
X84782Y-73398D01*
X84856Y-73221D01*
X84856Y-73029D01*
X84856Y-74600D01*
X83856Y-74600D01*
X83856Y-73029D01*
X83856Y-72029D01*
X83783Y-71852D01*
X83648Y-71717D01*
X83471Y-71643D01*
X83279Y-71643D01*
X83102Y-71716D01*
X82967Y-71851D01*
X82893Y-72028D01*
X82893Y-72220D01*
X82966Y-72397D01*
X83101Y-72532D01*
X83278Y-72606D01*
X83470Y-72606D01*
X83647Y-72533D01*
X83782Y-72398D01*
X83856Y-72221D01*
X83856Y-72029D01*
X83856Y-73029D01*
X83783Y-72852D01*
X83648Y-72717D01*
X83471Y-72643D01*
X83279Y-72643D01*
X83102Y-72716D01*
X82967Y-72851D01*
X82893Y-73028D01*
X82893Y-73220D01*
X82966Y-73397D01*
X83101Y-73532D01*
X83278Y-73606D01*
X83470Y-73606D01*
X83647Y-73533D01*
X83782Y-73398D01*
X83856Y-73221D01*
X83856Y-73029D01*
X83856Y-74600D01*
X82856Y-74600D01*
X82856Y-73029D01*
X82783Y-72852D01*
X82648Y-72717D01*
X82471Y-72643D01*
X82279Y-72643D01*
X82102Y-72716D01*
X81967Y-72851D01*
X81893Y-73028D01*
X81893Y-73220D01*
X81966Y-73397D01*
X82101Y-73532D01*
X82278Y-73606D01*
X82470Y-73606D01*
X82647Y-73533D01*
X82782Y-73398D01*
X82856Y-73221D01*
X82856Y-73029D01*
X82856Y-74600D01*
X81856Y-74600D01*
X81856Y-73029D01*
X81783Y-72852D01*
X81648Y-72717D01*
X81471Y-72643D01*
X81279Y-72643D01*
X81102Y-72716D01*
X80967Y-72851D01*
X80893Y-73028D01*
X80893Y-73220D01*
X80966Y-73397D01*
X81101Y-73532D01*
X81278Y-73606D01*
X81470Y-73606D01*
X81647Y-73533D01*
X81782Y-73398D01*
X81856Y-73221D01*
X81856Y-73029D01*
X81856Y-74600D01*
X80856Y-74600D01*
X80856Y-73029D01*
X80856Y-72029D01*
X80783Y-71852D01*
X80648Y-71717D01*
X80471Y-71643D01*
X80279Y-71643D01*
X80102Y-71716D01*
X79967Y-71851D01*
X79893Y-72028D01*
X79893Y-72220D01*
X79966Y-72397D01*
X80101Y-72532D01*
X80278Y-72606D01*
X80470Y-72606D01*
X80647Y-72533D01*
X80782Y-72398D01*
X80856Y-72221D01*
X80856Y-72029D01*
X80856Y-73029D01*
X80783Y-72852D01*
X80648Y-72717D01*
X80471Y-72643D01*
X80279Y-72643D01*
X80102Y-72716D01*
X79967Y-72851D01*
X79893Y-73028D01*
X79893Y-73220D01*
X79966Y-73397D01*
X80101Y-73532D01*
X80278Y-73606D01*
X80470Y-73606D01*
X80647Y-73533D01*
X80782Y-73398D01*
X80856Y-73221D01*
X80856Y-73029D01*
X80856Y-74600D01*
X79856Y-74600D01*
X79856Y-73029D01*
X79783Y-72852D01*
X79648Y-72717D01*
X79471Y-72643D01*
X79279Y-72643D01*
X79102Y-72716D01*
X78967Y-72851D01*
X78893Y-73028D01*
X78893Y-73220D01*
X78966Y-73397D01*
X79101Y-73532D01*
X79278Y-73606D01*
X79470Y-73606D01*
X79647Y-73533D01*
X79782Y-73398D01*
X79856Y-73221D01*
X79856Y-73029D01*
X79856Y-74600D01*
X78856Y-74600D01*
X78856Y-73029D01*
X78783Y-72852D01*
X78648Y-72717D01*
X78471Y-72643D01*
X78279Y-72643D01*
X78102Y-72716D01*
X77967Y-72851D01*
X77893Y-73028D01*
X77893Y-73220D01*
X77966Y-73397D01*
X78101Y-73532D01*
X78278Y-73606D01*
X78470Y-73606D01*
X78647Y-73533D01*
X78782Y-73398D01*
X78856Y-73221D01*
X78856Y-73029D01*
X78856Y-74600D01*
X77856Y-74600D01*
X77856Y-73029D01*
X77856Y-72029D01*
X77783Y-71852D01*
X77648Y-71717D01*
X77471Y-71643D01*
X77279Y-71643D01*
X77102Y-71716D01*
X76967Y-71851D01*
X76893Y-72028D01*
X76893Y-72220D01*
X76966Y-72397D01*
X77101Y-72532D01*
X77278Y-72606D01*
X77470Y-72606D01*
X77647Y-72533D01*
X77782Y-72398D01*
X77856Y-72221D01*
X77856Y-72029D01*
X77856Y-73029D01*
X77783Y-72852D01*
X77648Y-72717D01*
X77471Y-72643D01*
X77279Y-72643D01*
X77102Y-72716D01*
X76967Y-72851D01*
X76893Y-73028D01*
X76893Y-73220D01*
X76966Y-73397D01*
X77101Y-73532D01*
X77278Y-73606D01*
X77470Y-73606D01*
X77647Y-73533D01*
X77782Y-73398D01*
X77856Y-73221D01*
X77856Y-73029D01*
X77856Y-74600D01*
X76856Y-74600D01*
X76856Y-73029D01*
X76856Y-72029D01*
X76783Y-71852D01*
X76648Y-71717D01*
X76471Y-71643D01*
X76279Y-71643D01*
X76102Y-71716D01*
X75967Y-71851D01*
X75893Y-72028D01*
X75893Y-72220D01*
X75966Y-72397D01*
X76101Y-72532D01*
X76278Y-72606D01*
X76470Y-72606D01*
X76647Y-72533D01*
X76782Y-72398D01*
X76856Y-72221D01*
X76856Y-72029D01*
X76856Y-73029D01*
X76783Y-72852D01*
X76648Y-72717D01*
X76471Y-72643D01*
X76279Y-72643D01*
X76102Y-72716D01*
X75967Y-72851D01*
X75893Y-73028D01*
X75893Y-73220D01*
X75966Y-73397D01*
X76101Y-73532D01*
X76278Y-73606D01*
X76470Y-73606D01*
X76647Y-73533D01*
X76782Y-73398D01*
X76856Y-73221D01*
X76856Y-73029D01*
X76856Y-74600D01*
X75856Y-74600D01*
X75856Y-73029D01*
X75856Y-72029D01*
X75783Y-71852D01*
X75648Y-71717D01*
X75471Y-71643D01*
X75279Y-71643D01*
X75102Y-71716D01*
X74967Y-71851D01*
X74893Y-72028D01*
X74893Y-72220D01*
X74966Y-72397D01*
X75101Y-72532D01*
X75278Y-72606D01*
X75470Y-72606D01*
X75647Y-72533D01*
X75782Y-72398D01*
X75856Y-72221D01*
X75856Y-72029D01*
X75856Y-73029D01*
X75783Y-72852D01*
X75648Y-72717D01*
X75471Y-72643D01*
X75279Y-72643D01*
X75102Y-72716D01*
X74967Y-72851D01*
X74893Y-73028D01*
X74893Y-73220D01*
X74966Y-73397D01*
X75101Y-73532D01*
X75278Y-73606D01*
X75470Y-73606D01*
X75647Y-73533D01*
X75782Y-73398D01*
X75856Y-73221D01*
X75856Y-73029D01*
X75856Y-74600D01*
X74856Y-74600D01*
X74856Y-73029D01*
X74856Y-72029D01*
X74783Y-71852D01*
X74648Y-71717D01*
X74471Y-71643D01*
X74279Y-71643D01*
X74102Y-71716D01*
X73967Y-71851D01*
X73893Y-72028D01*
X73893Y-72220D01*
X73966Y-72397D01*
X74101Y-72532D01*
X74278Y-72606D01*
X74470Y-72606D01*
X74647Y-72533D01*
X74782Y-72398D01*
X74856Y-72221D01*
X74856Y-72029D01*
X74856Y-73029D01*
X74783Y-72852D01*
X74648Y-72717D01*
X74471Y-72643D01*
X74279Y-72643D01*
X74102Y-72716D01*
X73967Y-72851D01*
X73893Y-73028D01*
X73893Y-73220D01*
X73966Y-73397D01*
X74101Y-73532D01*
X74278Y-73606D01*
X74470Y-73606D01*
X74647Y-73533D01*
X74782Y-73398D01*
X74856Y-73221D01*
X74856Y-73029D01*
X74856Y-74600D01*
X66650Y-74600D01*
X66650Y-52400D01*
X104850Y-52400D01*
X104850Y-74600D01*
X104850Y-74600D01*
G37*
G54D14*
X104850Y-74600D02*
X103386Y-74600D01*
X103386Y-67715D01*
X103386Y-64012D01*
X103372Y-63942D01*
X103332Y-63882D01*
X103332Y-63882D01*
X103157Y-63707D01*
X103097Y-63667D01*
X103027Y-63653D01*
X100066Y-63653D01*
X99995Y-63667D01*
X99959Y-63691D01*
X99935Y-63707D01*
X99001Y-64641D01*
X98904Y-64641D01*
X93757Y-59494D01*
X93697Y-59454D01*
X93626Y-59440D01*
X89008Y-59440D01*
X88931Y-59362D01*
X88817Y-59315D01*
X88693Y-59314D01*
X88579Y-59362D01*
X88578Y-59363D01*
X85110Y-55895D01*
X85110Y-53622D01*
X85187Y-53544D01*
X85235Y-53431D01*
X85235Y-53307D01*
X85188Y-53193D01*
X85101Y-53106D01*
X84987Y-53059D01*
X84863Y-53059D01*
X84749Y-53106D01*
X84662Y-53193D01*
X84630Y-53270D01*
X78526Y-53270D01*
X78448Y-53192D01*
X78334Y-53145D01*
X78211Y-53145D01*
X78097Y-53192D01*
X78010Y-53279D01*
X77962Y-53393D01*
X77962Y-53516D01*
X78009Y-53630D01*
X78096Y-53718D01*
X78210Y-53765D01*
X78334Y-53765D01*
X78448Y-53718D01*
X78526Y-53640D01*
X84740Y-53640D01*
X84740Y-55972D01*
X84754Y-56043D01*
X84794Y-56103D01*
X88364Y-59673D01*
X83273Y-64765D01*
X82575Y-64765D01*
X80963Y-64765D01*
X80885Y-64687D01*
X80771Y-64640D01*
X80648Y-64639D01*
X80534Y-64687D01*
X80456Y-64765D01*
X76763Y-64765D01*
X76763Y-64732D01*
X76716Y-64618D01*
X76628Y-64531D01*
X76515Y-64483D01*
X76391Y-64483D01*
X76277Y-64530D01*
X76190Y-64617D01*
X76143Y-64731D01*
X76143Y-64765D01*
X72264Y-64765D01*
X72186Y-64687D01*
X72072Y-64640D01*
X71962Y-64639D01*
X71634Y-64312D01*
X71574Y-64272D01*
X71504Y-64258D01*
X69042Y-64258D01*
X68964Y-64180D01*
X68850Y-64133D01*
X68727Y-64132D01*
X68613Y-64180D01*
X68526Y-64267D01*
X68478Y-64381D01*
X68478Y-64504D01*
X68525Y-64618D01*
X68613Y-64705D01*
X68727Y-64752D01*
X68850Y-64753D01*
X68964Y-64705D01*
X69042Y-64628D01*
X71427Y-64628D01*
X71701Y-64901D01*
X71701Y-65011D01*
X71748Y-65125D01*
X71835Y-65212D01*
X71949Y-65259D01*
X72072Y-65260D01*
X72186Y-65212D01*
X72264Y-65135D01*
X76453Y-65135D01*
X80456Y-65135D01*
X80534Y-65212D01*
X80647Y-65259D01*
X80771Y-65260D01*
X80885Y-65212D01*
X80963Y-65135D01*
X82575Y-65135D01*
X83350Y-65135D01*
X83350Y-65134D01*
X83420Y-65120D01*
X83480Y-65080D01*
X84612Y-63949D01*
X84565Y-64063D01*
X84564Y-64186D01*
X84612Y-64300D01*
X84690Y-64378D01*
X84690Y-67125D01*
X84690Y-67323D01*
X82319Y-69694D01*
X82319Y-69694D01*
X82023Y-69990D01*
X81325Y-69990D01*
X81254Y-70004D01*
X81218Y-70028D01*
X81194Y-70044D01*
X79558Y-71679D01*
X79471Y-71643D01*
X79279Y-71643D01*
X79174Y-71686D01*
X81351Y-69510D01*
X81821Y-69510D01*
X81899Y-69587D01*
X82013Y-69634D01*
X82136Y-69635D01*
X82250Y-69587D01*
X82337Y-69500D01*
X82384Y-69386D01*
X82385Y-69263D01*
X82337Y-69149D01*
X82250Y-69062D01*
X82136Y-69015D01*
X82013Y-69014D01*
X81899Y-69062D01*
X81821Y-69140D01*
X81275Y-69140D01*
X81204Y-69154D01*
X81184Y-69167D01*
X81144Y-69194D01*
X78629Y-71709D01*
X78471Y-71643D01*
X78279Y-71643D01*
X78102Y-71716D01*
X77967Y-71851D01*
X77893Y-72028D01*
X77893Y-72220D01*
X77966Y-72397D01*
X78101Y-72532D01*
X78278Y-72606D01*
X78470Y-72606D01*
X78647Y-72533D01*
X78782Y-72398D01*
X78856Y-72221D01*
X78856Y-72029D01*
X78849Y-72012D01*
X78936Y-71924D01*
X78893Y-72028D01*
X78893Y-72220D01*
X78966Y-72397D01*
X79101Y-72532D01*
X79278Y-72606D01*
X79470Y-72606D01*
X79647Y-72533D01*
X79782Y-72398D01*
X79856Y-72221D01*
X79856Y-72029D01*
X79820Y-71941D01*
X81401Y-70360D01*
X82100Y-70360D01*
X82100Y-70359D01*
X82170Y-70345D01*
X82230Y-70305D01*
X82580Y-69955D01*
X82580Y-69955D01*
X82580Y-69955D01*
X85005Y-67530D01*
X85005Y-67530D01*
X85045Y-67470D01*
X85059Y-67400D01*
X85060Y-67400D01*
X85060Y-67125D01*
X85060Y-64378D01*
X85137Y-64300D01*
X85184Y-64186D01*
X85185Y-64063D01*
X85137Y-63949D01*
X85050Y-63862D01*
X84936Y-63815D01*
X84813Y-63814D01*
X84699Y-63862D01*
X84676Y-63885D01*
X88646Y-59915D01*
X88693Y-59934D01*
X88816Y-59935D01*
X88930Y-59887D01*
X89008Y-59810D01*
X93549Y-59810D01*
X98643Y-64903D01*
X98643Y-65013D01*
X98684Y-65112D01*
X98421Y-65112D01*
X98311Y-65002D01*
X98311Y-64893D01*
X98264Y-64779D01*
X98177Y-64691D01*
X98063Y-64644D01*
X97953Y-64644D01*
X96976Y-63668D01*
X96916Y-63628D01*
X96846Y-63613D01*
X93565Y-63613D01*
X93494Y-63628D01*
X93474Y-63641D01*
X93434Y-63668D01*
X93362Y-63740D01*
X93252Y-63739D01*
X93138Y-63787D01*
X93060Y-63865D01*
X89724Y-63865D01*
X89654Y-63879D01*
X89593Y-63919D01*
X88882Y-64630D01*
X88773Y-64630D01*
X88659Y-64677D01*
X88571Y-64764D01*
X88524Y-64878D01*
X88524Y-65001D01*
X88571Y-65115D01*
X88658Y-65203D01*
X88772Y-65250D01*
X88895Y-65250D01*
X89009Y-65203D01*
X89097Y-65116D01*
X89144Y-65002D01*
X89144Y-64891D01*
X89801Y-64235D01*
X93060Y-64235D01*
X93138Y-64312D01*
X93252Y-64359D01*
X93375Y-64360D01*
X93489Y-64312D01*
X93576Y-64225D01*
X93578Y-64220D01*
X93612Y-64300D01*
X93690Y-64378D01*
X93690Y-66848D01*
X91332Y-69206D01*
X91287Y-69099D01*
X91200Y-69012D01*
X91086Y-68965D01*
X90963Y-68964D01*
X90849Y-69012D01*
X90771Y-69090D01*
X85850Y-69090D01*
X83825Y-69090D01*
X83754Y-69104D01*
X83734Y-69117D01*
X83694Y-69144D01*
X81244Y-71594D01*
X81204Y-71654D01*
X81199Y-71676D01*
X81102Y-71716D01*
X80967Y-71851D01*
X80893Y-72028D01*
X80893Y-72220D01*
X80966Y-72397D01*
X81101Y-72532D01*
X81278Y-72606D01*
X81470Y-72606D01*
X81647Y-72533D01*
X81782Y-72398D01*
X81856Y-72221D01*
X81856Y-72029D01*
X81783Y-71852D01*
X81648Y-71717D01*
X81645Y-71716D01*
X82190Y-71171D01*
X82190Y-71680D01*
X82102Y-71716D01*
X81967Y-71851D01*
X81893Y-72028D01*
X81893Y-72220D01*
X81966Y-72397D01*
X82101Y-72532D01*
X82278Y-72606D01*
X82470Y-72606D01*
X82647Y-72533D01*
X82782Y-72398D01*
X82856Y-72221D01*
X82856Y-72029D01*
X82783Y-71852D01*
X82648Y-71717D01*
X82560Y-71680D01*
X82560Y-71101D01*
X83851Y-69810D01*
X85178Y-69810D01*
X84244Y-70744D01*
X84204Y-70804D01*
X84190Y-70875D01*
X84190Y-71680D01*
X84102Y-71716D01*
X83967Y-71851D01*
X83893Y-72028D01*
X83893Y-72220D01*
X83966Y-72397D01*
X84101Y-72532D01*
X84278Y-72606D01*
X84470Y-72606D01*
X84647Y-72533D01*
X84782Y-72398D01*
X84856Y-72221D01*
X84856Y-72029D01*
X84783Y-71852D01*
X84648Y-71717D01*
X84560Y-71680D01*
X84560Y-70951D01*
X85451Y-70060D01*
X85978Y-70060D01*
X85244Y-70794D01*
X85204Y-70854D01*
X85190Y-70925D01*
X85190Y-71680D01*
X85102Y-71716D01*
X84967Y-71851D01*
X84893Y-72028D01*
X84893Y-72220D01*
X84966Y-72397D01*
X85101Y-72532D01*
X85278Y-72606D01*
X85470Y-72606D01*
X85647Y-72533D01*
X85782Y-72398D01*
X85822Y-72304D01*
X85863Y-72403D01*
X85953Y-72440D01*
X86268Y-72125D01*
X85953Y-71809D01*
X85863Y-71846D01*
X85827Y-71960D01*
X85783Y-71852D01*
X85648Y-71717D01*
X85560Y-71680D01*
X85560Y-71001D01*
X86251Y-70310D01*
X99725Y-70310D01*
X99725Y-70309D01*
X99795Y-70295D01*
X99855Y-70255D01*
X103005Y-67105D01*
X103005Y-67105D01*
X103016Y-67089D01*
X103016Y-67638D01*
X99744Y-70911D01*
X99704Y-70971D01*
X99690Y-71042D01*
X99690Y-71759D01*
X99648Y-71717D01*
X99471Y-71643D01*
X99279Y-71643D01*
X99102Y-71716D01*
X98967Y-71851D01*
X98893Y-72028D01*
X98893Y-72220D01*
X98966Y-72397D01*
X99101Y-72532D01*
X99278Y-72606D01*
X99470Y-72606D01*
X99647Y-72533D01*
X99690Y-72490D01*
X99690Y-72548D01*
X99558Y-72679D01*
X99471Y-72643D01*
X99279Y-72643D01*
X99102Y-72716D01*
X98967Y-72851D01*
X98893Y-73028D01*
X98893Y-73220D01*
X98966Y-73397D01*
X99101Y-73532D01*
X99278Y-73606D01*
X99470Y-73606D01*
X99647Y-73533D01*
X99782Y-73398D01*
X99856Y-73221D01*
X99856Y-73029D01*
X99820Y-72941D01*
X100005Y-72755D01*
X100005Y-72755D01*
X100045Y-72695D01*
X100059Y-72625D01*
X100060Y-72625D01*
X100060Y-72547D01*
X100096Y-72636D01*
X100210Y-72672D01*
X100102Y-72716D01*
X99967Y-72851D01*
X99893Y-73028D01*
X99893Y-73220D01*
X99966Y-73397D01*
X100101Y-73532D01*
X100278Y-73606D01*
X100470Y-73606D01*
X100647Y-73533D01*
X100782Y-73398D01*
X100856Y-73221D01*
X100856Y-73029D01*
X100783Y-72852D01*
X100648Y-72717D01*
X100554Y-72677D01*
X100653Y-72636D01*
X100690Y-72546D01*
X100375Y-72231D01*
X100369Y-72236D01*
X100263Y-72130D01*
X100268Y-72125D01*
X100263Y-72119D01*
X100369Y-72013D01*
X100375Y-72018D01*
X100690Y-71703D01*
X100653Y-71613D01*
X100436Y-71545D01*
X100210Y-71565D01*
X100096Y-71613D01*
X100060Y-71702D01*
X100060Y-71118D01*
X103332Y-67846D01*
X103332Y-67846D01*
X103372Y-67786D01*
X103386Y-67715D01*
X103386Y-67715D01*
X103386Y-74600D01*
X100954Y-74600D01*
X100954Y-72186D01*
X100934Y-71960D01*
X100886Y-71846D01*
X100796Y-71809D01*
X100481Y-72125D01*
X100796Y-72440D01*
X100886Y-72403D01*
X100954Y-72186D01*
X100954Y-74600D01*
X98856Y-74600D01*
X98856Y-73029D01*
X98856Y-72029D01*
X98783Y-71852D01*
X98648Y-71717D01*
X98471Y-71643D01*
X98279Y-71643D01*
X98102Y-71716D01*
X97967Y-71851D01*
X97893Y-72028D01*
X97893Y-72220D01*
X97966Y-72397D01*
X98101Y-72532D01*
X98278Y-72606D01*
X98470Y-72606D01*
X98647Y-72533D01*
X98782Y-72398D01*
X98856Y-72221D01*
X98856Y-72029D01*
X98856Y-73029D01*
X98783Y-72852D01*
X98648Y-72717D01*
X98471Y-72643D01*
X98279Y-72643D01*
X98102Y-72716D01*
X97967Y-72851D01*
X97893Y-73028D01*
X97893Y-73220D01*
X97966Y-73397D01*
X98101Y-73532D01*
X98278Y-73606D01*
X98470Y-73606D01*
X98647Y-73533D01*
X98782Y-73398D01*
X98856Y-73221D01*
X98856Y-73029D01*
X98856Y-74600D01*
X97856Y-74600D01*
X97856Y-73029D01*
X97856Y-72029D01*
X97783Y-71852D01*
X97648Y-71717D01*
X97471Y-71643D01*
X97279Y-71643D01*
X97102Y-71716D01*
X96967Y-71851D01*
X96893Y-72028D01*
X96893Y-72220D01*
X96966Y-72397D01*
X97101Y-72532D01*
X97278Y-72606D01*
X97470Y-72606D01*
X97647Y-72533D01*
X97782Y-72398D01*
X97856Y-72221D01*
X97856Y-72029D01*
X97856Y-73029D01*
X97783Y-72852D01*
X97648Y-72717D01*
X97471Y-72643D01*
X97279Y-72643D01*
X97102Y-72716D01*
X96967Y-72851D01*
X96893Y-73028D01*
X96893Y-73220D01*
X96966Y-73397D01*
X97101Y-73532D01*
X97278Y-73606D01*
X97470Y-73606D01*
X97647Y-73533D01*
X97782Y-73398D01*
X97856Y-73221D01*
X97856Y-73029D01*
X97856Y-74600D01*
X96856Y-74600D01*
X96856Y-73029D01*
X96856Y-72029D01*
X96783Y-71852D01*
X96648Y-71717D01*
X96471Y-71643D01*
X96279Y-71643D01*
X96102Y-71716D01*
X95967Y-71851D01*
X95893Y-72028D01*
X95893Y-72220D01*
X95966Y-72397D01*
X96101Y-72532D01*
X96278Y-72606D01*
X96470Y-72606D01*
X96647Y-72533D01*
X96782Y-72398D01*
X96856Y-72221D01*
X96856Y-72029D01*
X96856Y-73029D01*
X96783Y-72852D01*
X96648Y-72717D01*
X96471Y-72643D01*
X96279Y-72643D01*
X96102Y-72716D01*
X95967Y-72851D01*
X95893Y-73028D01*
X95893Y-73220D01*
X95966Y-73397D01*
X96101Y-73532D01*
X96278Y-73606D01*
X96470Y-73606D01*
X96647Y-73533D01*
X96782Y-73398D01*
X96856Y-73221D01*
X96856Y-73029D01*
X96856Y-74600D01*
X86954Y-74600D01*
X86954Y-73186D01*
X86954Y-72186D01*
X86934Y-71960D01*
X86886Y-71846D01*
X86796Y-71809D01*
X86690Y-71915D01*
X86690Y-71703D01*
X86653Y-71613D01*
X86436Y-71545D01*
X86210Y-71565D01*
X86096Y-71613D01*
X86059Y-71703D01*
X86375Y-72018D01*
X86690Y-71703D01*
X86690Y-71915D01*
X86481Y-72125D01*
X86796Y-72440D01*
X86886Y-72403D01*
X86954Y-72186D01*
X86954Y-73186D01*
X86934Y-72960D01*
X86886Y-72846D01*
X86796Y-72809D01*
X86690Y-72915D01*
X86690Y-72703D01*
X86658Y-72625D01*
X86690Y-72546D01*
X86375Y-72231D01*
X86059Y-72546D01*
X86091Y-72624D01*
X86059Y-72703D01*
X86375Y-73018D01*
X86690Y-72703D01*
X86690Y-72915D01*
X86481Y-73125D01*
X86796Y-73440D01*
X86886Y-73403D01*
X86954Y-73186D01*
X86954Y-74600D01*
X86690Y-74600D01*
X86690Y-73546D01*
X86375Y-73231D01*
X86268Y-73337D01*
X86268Y-73125D01*
X85953Y-72809D01*
X85863Y-72846D01*
X85827Y-72960D01*
X85783Y-72852D01*
X85648Y-72717D01*
X85471Y-72643D01*
X85279Y-72643D01*
X85102Y-72716D01*
X84967Y-72851D01*
X84893Y-73028D01*
X84893Y-73220D01*
X84966Y-73397D01*
X85101Y-73532D01*
X85278Y-73606D01*
X85470Y-73606D01*
X85647Y-73533D01*
X85782Y-73398D01*
X85822Y-73304D01*
X85863Y-73403D01*
X85953Y-73440D01*
X86268Y-73125D01*
X86268Y-73337D01*
X86059Y-73546D01*
X86096Y-73636D01*
X86313Y-73704D01*
X86539Y-73684D01*
X86653Y-73636D01*
X86690Y-73546D01*
X86690Y-74600D01*
X84856Y-74600D01*
X84856Y-73029D01*
X84783Y-72852D01*
X84648Y-72717D01*
X84471Y-72643D01*
X84279Y-72643D01*
X84102Y-72716D01*
X83967Y-72851D01*
X83893Y-73028D01*
X83893Y-73220D01*
X83966Y-73397D01*
X84101Y-73532D01*
X84278Y-73606D01*
X84470Y-73606D01*
X84647Y-73533D01*
X84782Y-73398D01*
X84856Y-73221D01*
X84856Y-73029D01*
X84856Y-74600D01*
X83856Y-74600D01*
X83856Y-73029D01*
X83856Y-72029D01*
X83783Y-71852D01*
X83648Y-71717D01*
X83471Y-71643D01*
X83279Y-71643D01*
X83102Y-71716D01*
X82967Y-71851D01*
X82893Y-72028D01*
X82893Y-72220D01*
X82966Y-72397D01*
X83101Y-72532D01*
X83278Y-72606D01*
X83470Y-72606D01*
X83647Y-72533D01*
X83782Y-72398D01*
X83856Y-72221D01*
X83856Y-72029D01*
X83856Y-73029D01*
X83783Y-72852D01*
X83648Y-72717D01*
X83471Y-72643D01*
X83279Y-72643D01*
X83102Y-72716D01*
X82967Y-72851D01*
X82893Y-73028D01*
X82893Y-73220D01*
X82966Y-73397D01*
X83101Y-73532D01*
X83278Y-73606D01*
X83470Y-73606D01*
X83647Y-73533D01*
X83782Y-73398D01*
X83856Y-73221D01*
X83856Y-73029D01*
X83856Y-74600D01*
X82856Y-74600D01*
X82856Y-73029D01*
X82783Y-72852D01*
X82648Y-72717D01*
X82471Y-72643D01*
X82279Y-72643D01*
X82102Y-72716D01*
X81967Y-72851D01*
X81893Y-73028D01*
X81893Y-73220D01*
X81966Y-73397D01*
X82101Y-73532D01*
X82278Y-73606D01*
X82470Y-73606D01*
X82647Y-73533D01*
X82782Y-73398D01*
X82856Y-73221D01*
X82856Y-73029D01*
X82856Y-74600D01*
X81856Y-74600D01*
X81856Y-73029D01*
X81783Y-72852D01*
X81648Y-72717D01*
X81471Y-72643D01*
X81279Y-72643D01*
X81102Y-72716D01*
X80967Y-72851D01*
X80893Y-73028D01*
X80893Y-73220D01*
X80966Y-73397D01*
X81101Y-73532D01*
X81278Y-73606D01*
X81470Y-73606D01*
X81647Y-73533D01*
X81782Y-73398D01*
X81856Y-73221D01*
X81856Y-73029D01*
X81856Y-74600D01*
X80856Y-74600D01*
X80856Y-73029D01*
X80856Y-72029D01*
X80783Y-71852D01*
X80648Y-71717D01*
X80471Y-71643D01*
X80279Y-71643D01*
X80102Y-71716D01*
X79967Y-71851D01*
X79893Y-72028D01*
X79893Y-72220D01*
X79966Y-72397D01*
X80101Y-72532D01*
X80278Y-72606D01*
X80470Y-72606D01*
X80647Y-72533D01*
X80782Y-72398D01*
X80856Y-72221D01*
X80856Y-72029D01*
X80856Y-73029D01*
X80783Y-72852D01*
X80648Y-72717D01*
X80471Y-72643D01*
X80279Y-72643D01*
X80102Y-72716D01*
X79967Y-72851D01*
X79893Y-73028D01*
X79893Y-73220D01*
X79966Y-73397D01*
X80101Y-73532D01*
X80278Y-73606D01*
X80470Y-73606D01*
X80647Y-73533D01*
X80782Y-73398D01*
X80856Y-73221D01*
X80856Y-73029D01*
X80856Y-74600D01*
X79856Y-74600D01*
X79856Y-73029D01*
X79783Y-72852D01*
X79648Y-72717D01*
X79471Y-72643D01*
X79279Y-72643D01*
X79102Y-72716D01*
X78967Y-72851D01*
X78893Y-73028D01*
X78893Y-73220D01*
X78966Y-73397D01*
X79101Y-73532D01*
X79278Y-73606D01*
X79470Y-73606D01*
X79647Y-73533D01*
X79782Y-73398D01*
X79856Y-73221D01*
X79856Y-73029D01*
X79856Y-74600D01*
X78856Y-74600D01*
X78856Y-73029D01*
X78783Y-72852D01*
X78648Y-72717D01*
X78471Y-72643D01*
X78279Y-72643D01*
X78102Y-72716D01*
X77967Y-72851D01*
X77893Y-73028D01*
X77893Y-73220D01*
X77966Y-73397D01*
X78101Y-73532D01*
X78278Y-73606D01*
X78470Y-73606D01*
X78647Y-73533D01*
X78782Y-73398D01*
X78856Y-73221D01*
X78856Y-73029D01*
X78856Y-74600D01*
X77856Y-74600D01*
X77856Y-73029D01*
X77856Y-72029D01*
X77783Y-71852D01*
X77648Y-71717D01*
X77471Y-71643D01*
X77279Y-71643D01*
X77102Y-71716D01*
X76967Y-71851D01*
X76893Y-72028D01*
X76893Y-72220D01*
X76966Y-72397D01*
X77101Y-72532D01*
X77278Y-72606D01*
X77470Y-72606D01*
X77647Y-72533D01*
X77782Y-72398D01*
X77856Y-72221D01*
X77856Y-72029D01*
X77856Y-73029D01*
X77783Y-72852D01*
X77648Y-72717D01*
X77471Y-72643D01*
X77279Y-72643D01*
X77102Y-72716D01*
X76967Y-72851D01*
X76893Y-73028D01*
X76893Y-73220D01*
X76966Y-73397D01*
X77101Y-73532D01*
X77278Y-73606D01*
X77470Y-73606D01*
X77647Y-73533D01*
X77782Y-73398D01*
X77856Y-73221D01*
X77856Y-73029D01*
X77856Y-74600D01*
X76856Y-74600D01*
X76856Y-73029D01*
X76856Y-72029D01*
X76783Y-71852D01*
X76648Y-71717D01*
X76471Y-71643D01*
X76279Y-71643D01*
X76102Y-71716D01*
X75967Y-71851D01*
X75893Y-72028D01*
X75893Y-72220D01*
X75966Y-72397D01*
X76101Y-72532D01*
X76278Y-72606D01*
X76470Y-72606D01*
X76647Y-72533D01*
X76782Y-72398D01*
X76856Y-72221D01*
X76856Y-72029D01*
X76856Y-73029D01*
X76783Y-72852D01*
X76648Y-72717D01*
X76471Y-72643D01*
X76279Y-72643D01*
X76102Y-72716D01*
X75967Y-72851D01*
X75893Y-73028D01*
X75893Y-73220D01*
X75966Y-73397D01*
X76101Y-73532D01*
X76278Y-73606D01*
X76470Y-73606D01*
X76647Y-73533D01*
X76782Y-73398D01*
X76856Y-73221D01*
X76856Y-73029D01*
X76856Y-74600D01*
X75856Y-74600D01*
X75856Y-73029D01*
X75856Y-72029D01*
X75783Y-71852D01*
X75648Y-71717D01*
X75471Y-71643D01*
X75279Y-71643D01*
X75102Y-71716D01*
X74967Y-71851D01*
X74893Y-72028D01*
X74893Y-72220D01*
X74966Y-72397D01*
X75101Y-72532D01*
X75278Y-72606D01*
X75470Y-72606D01*
X75647Y-72533D01*
X75782Y-72398D01*
X75856Y-72221D01*
X75856Y-72029D01*
X75856Y-73029D01*
X75783Y-72852D01*
X75648Y-72717D01*
X75471Y-72643D01*
X75279Y-72643D01*
X75102Y-72716D01*
X74967Y-72851D01*
X74893Y-73028D01*
X74893Y-73220D01*
X74966Y-73397D01*
X75101Y-73532D01*
X75278Y-73606D01*
X75470Y-73606D01*
X75647Y-73533D01*
X75782Y-73398D01*
X75856Y-73221D01*
X75856Y-73029D01*
X75856Y-74600D01*
X74856Y-74600D01*
X74856Y-73029D01*
X74856Y-72029D01*
X74783Y-71852D01*
X74648Y-71717D01*
X74471Y-71643D01*
X74279Y-71643D01*
X74102Y-71716D01*
X73967Y-71851D01*
X73893Y-72028D01*
X73893Y-72220D01*
X73966Y-72397D01*
X74101Y-72532D01*
X74278Y-72606D01*
X74470Y-72606D01*
X74647Y-72533D01*
X74782Y-72398D01*
X74856Y-72221D01*
X74856Y-72029D01*
X74856Y-73029D01*
X74783Y-72852D01*
X74648Y-72717D01*
X74471Y-72643D01*
X74279Y-72643D01*
X74102Y-72716D01*
X73967Y-72851D01*
X73893Y-73028D01*
X73893Y-73220D01*
X73966Y-73397D01*
X74101Y-73532D01*
X74278Y-73606D01*
X74470Y-73606D01*
X74647Y-73533D01*
X74782Y-73398D01*
X74856Y-73221D01*
X74856Y-73029D01*
X74856Y-74600D01*
X66650Y-74600D01*
X66650Y-52400D01*
X104850Y-52400D01*
X104850Y-74600D01*
M02*
