M48
INCH,TZ
T1C0.025
T2C0.039
%
G90
G05
T1
X68789Y-64443
X70540Y-62416
X70900Y-67100
X70950Y-68600
X72011Y-64950
X72900Y-65675
X73289Y-64562
X74250Y-69325
X74350Y-65675
X74512Y-64551
X75125Y-70150
X76453Y-64794
X76625Y-63825
X77100Y-62975
X77516Y-64462
X78273Y-53455
X79237Y-64550
X80710Y-64950
X81941Y-64531
X82075Y-69325
X82975Y-68300
X83000Y-67200
X83333Y-64387
X84875Y-64125
X84925Y-53369
X86250Y-63825
X86875Y-63225
X86875Y-64325
X87425Y-67050
X87875Y-64225
X88000Y-68625
X88755Y-59625
X88800Y-63650
X88834Y-64940
X88850Y-64225
X89825Y-67000
X89825Y-68325
X91025Y-69275
X91975Y-67950
X92000Y-67025
X93314Y-64050
X93875Y-64125
X94425Y-67050
X96125Y-64400
X96125Y-67225
X96650Y-60700
X96650Y-61975
X96775Y-64300
X97625Y-58150
X98002Y-64954
X98375Y-62050
X98800Y-68375
X98825Y-67425
X98953Y-64952
X100075Y-69275
X102299Y-64952
X102875Y-64175
T2
X74375Y-72125
X74375Y-73125
X75375Y-72125
X75375Y-73125
X76375Y-72125
X76375Y-73125
X77375Y-72125
X77375Y-73125
X78375Y-72125
X78375Y-73125
X79375Y-72125
X79375Y-73125
X80375Y-72125
X80375Y-73125
X81375Y-72125
X81375Y-73125
X82375Y-72125
X82375Y-73125
X83375Y-72125
X83375Y-73125
X84375Y-72125
X84375Y-73125
X85375Y-72125
X85375Y-73125
X86375Y-72125
X86375Y-73125
X96375Y-72125
X96375Y-73125
X97375Y-72125
X97375Y-73125
X98375Y-72125
X98375Y-73125
X99375Y-72125
X99375Y-73125
X100375Y-72125
X100375Y-73125
T0
M30
