G04 (created by PCBNEW (2013-may-18)-stable) date 2014年05月08日 星期四 10时05分11秒*
%MOIN*%
G04 Gerber Fmt 3.4, Leading zero omitted, Abs format*
%FSLAX34Y34*%
G01*
G70*
G90*
G04 APERTURE LIST*
%ADD10C,0.00590551*%
%ADD11C,0.0693*%
%ADD12C,0.0944882*%
%ADD13C,0.031*%
%ADD14C,0.035*%
%ADD15C,0.01*%
G04 APERTURE END LIST*
G54D10*
G54D11*
X49500Y-59125D03*
X49500Y-60125D03*
X46500Y-59125D03*
X46500Y-60125D03*
X45500Y-59125D03*
X45500Y-60125D03*
X37500Y-60125D03*
X37500Y-59125D03*
X38500Y-60125D03*
X38500Y-59125D03*
X39500Y-60125D03*
X39500Y-59125D03*
X40500Y-60125D03*
X40500Y-59125D03*
X41500Y-60125D03*
X41500Y-59125D03*
X42500Y-60125D03*
X42500Y-59125D03*
X43500Y-60125D03*
X43500Y-59125D03*
X44500Y-60125D03*
X44500Y-59125D03*
X47500Y-60125D03*
X47500Y-59125D03*
X48500Y-60125D03*
X48500Y-59125D03*
G54D12*
X36725Y-49075D03*
X35725Y-48075D03*
X37725Y-48075D03*
X37725Y-50075D03*
X35725Y-50075D03*
X36725Y-43875D03*
X35725Y-42875D03*
X37725Y-42875D03*
X37725Y-44875D03*
X35725Y-44875D03*
X36725Y-37975D03*
X35725Y-36975D03*
X37725Y-36975D03*
X37725Y-38975D03*
X35725Y-38975D03*
X46675Y-52075D03*
X47675Y-51075D03*
X47675Y-53075D03*
X45675Y-53075D03*
X45675Y-51075D03*
X74325Y-46025D03*
X73325Y-45025D03*
X75325Y-45025D03*
X75325Y-47025D03*
X73325Y-47025D03*
G54D13*
X59375Y-59500D03*
X55725Y-51850D03*
X73650Y-24850D03*
X75880Y-40909D03*
X70634Y-46075D03*
X65225Y-59633D03*
X58373Y-61635D03*
X49796Y-28799D03*
X68286Y-28879D03*
X77105Y-32535D03*
X43141Y-42907D03*
X41202Y-39329D03*
X76129Y-41532D03*
X73850Y-42475D03*
X64125Y-33175D03*
X62650Y-28050D03*
X60858Y-23662D03*
X66208Y-23575D03*
X60800Y-58182D03*
X64259Y-56235D03*
X39250Y-33538D03*
X41559Y-36290D03*
X43202Y-32430D03*
X49351Y-40640D03*
X47220Y-38115D03*
X59646Y-36766D03*
X40360Y-28375D03*
X46612Y-34644D03*
X53225Y-57075D03*
X74756Y-29003D03*
X43375Y-40887D03*
X45403Y-23882D03*
X57550Y-46408D03*
X69891Y-47859D03*
X64738Y-52337D03*
X61830Y-51425D03*
X71850Y-32367D03*
X63593Y-42840D03*
X51931Y-42887D03*
X58551Y-31797D03*
X54237Y-30480D03*
X58504Y-28003D03*
X52600Y-47086D03*
X38410Y-23852D03*
X62850Y-47874D03*
X45686Y-49250D03*
X48385Y-38342D03*
X56678Y-38256D03*
X58645Y-25222D03*
X45605Y-29006D03*
X52190Y-32377D03*
X37310Y-41425D03*
X63189Y-59375D03*
X57260Y-60840D03*
X67771Y-32683D03*
X74049Y-33049D03*
X68667Y-42065D03*
X72907Y-40845D03*
X65437Y-58975D03*
X42212Y-46603D03*
X74568Y-23168D03*
X55379Y-55692D03*
X65962Y-30775D03*
X72716Y-39225D03*
X74620Y-42475D03*
X68075Y-58166D03*
X58982Y-61980D03*
X48354Y-32857D03*
X58383Y-33200D03*
X62069Y-57375D03*
X48575Y-45730D03*
X73700Y-27834D03*
X49758Y-40262D03*
X69625Y-32374D03*
X63726Y-34975D03*
X63710Y-50725D03*
X51305Y-42375D03*
X69665Y-24775D03*
X47331Y-25093D03*
X42383Y-42375D03*
X56617Y-42857D03*
X56893Y-46643D03*
X59066Y-36093D03*
X39024Y-34030D03*
X52026Y-28475D03*
X48509Y-36350D03*
X51532Y-51800D03*
X67300Y-34003D03*
X58325Y-56889D03*
X52275Y-37308D03*
X46025Y-39193D03*
X45281Y-34554D03*
X39091Y-25758D03*
X53864Y-55927D03*
X52775Y-54992D03*
X46061Y-47825D03*
X52615Y-41312D03*
X57205Y-40277D03*
X55450Y-38391D03*
X67125Y-35375D03*
X41435Y-33224D03*
X41125Y-38799D03*
X46275Y-32525D03*
X41200Y-25099D03*
X48356Y-49901D03*
X56514Y-54618D03*
X51291Y-55642D03*
X56681Y-50538D03*
X59930Y-61370D03*
X53090Y-48688D03*
X65575Y-49075D03*
X54457Y-31142D03*
X59780Y-27097D03*
X51436Y-29150D03*
G54D14*
X63975Y-25075D03*
G54D13*
X68846Y-44142D03*
X45985Y-30213D03*
X45952Y-57051D03*
X66747Y-58061D03*
X49090Y-62050D03*
X73389Y-41919D03*
X66981Y-30275D03*
X38277Y-40693D03*
X40290Y-57565D03*
X73925Y-31471D03*
X75016Y-24153D03*
X73750Y-37150D03*
X76603Y-36944D03*
X76739Y-34860D03*
X74100Y-28425D03*
X41500Y-47250D03*
X41925Y-43075D03*
X65475Y-32825D03*
X65050Y-33225D03*
X70200Y-34400D03*
X72225Y-33025D03*
X74625Y-33000D03*
X74525Y-32350D03*
X69800Y-30525D03*
X72825Y-31700D03*
X64725Y-25075D03*
X67675Y-26825D03*
X70425Y-41275D03*
X73175Y-43325D03*
X59075Y-52425D03*
X62175Y-53275D03*
X66725Y-48475D03*
X66525Y-44675D03*
X66225Y-45575D03*
X54675Y-58825D03*
X56125Y-59825D03*
X52975Y-60175D03*
X52875Y-58875D03*
X56625Y-58875D03*
X57875Y-59125D03*
X49525Y-52875D03*
X49525Y-51675D03*
X48425Y-53925D03*
X46875Y-55075D03*
X44425Y-47375D03*
X44875Y-48375D03*
X44025Y-49725D03*
X43475Y-51275D03*
X46725Y-45775D03*
X46325Y-43875D03*
X46125Y-41075D03*
X47375Y-41725D03*
X45175Y-40475D03*
X45175Y-41375D03*
X43825Y-37475D03*
X45275Y-38275D03*
X48325Y-33325D03*
X49775Y-33375D03*
X42575Y-36825D03*
X43475Y-36775D03*
X39575Y-36725D03*
X40875Y-36475D03*
X55700Y-50525D03*
X55858Y-42682D03*
X67687Y-39966D03*
X69144Y-39930D03*
X56833Y-32735D03*
X58735Y-42533D03*
X66025Y-57731D03*
X63615Y-57460D03*
X47615Y-30266D03*
X57710Y-37762D03*
X58647Y-57625D03*
X55050Y-36489D03*
X61136Y-55763D03*
X43710Y-28743D03*
X74025Y-38800D03*
X62731Y-42975D03*
X56051Y-26105D03*
X52225Y-50544D03*
X48475Y-47302D03*
X51557Y-44405D03*
X67600Y-53643D03*
X70485Y-45385D03*
X47919Y-34788D03*
X75984Y-37118D03*
X59645Y-59091D03*
X56095Y-56886D03*
X61688Y-40237D03*
X54065Y-46773D03*
X53675Y-33035D03*
X67255Y-29728D03*
X64045Y-30019D03*
X60010Y-28014D03*
X66678Y-54443D03*
X42501Y-34485D03*
X61507Y-33553D03*
X36200Y-59252D03*
G54D15*
X62235Y-32825D02*
X61507Y-33553D01*
X65475Y-32825D02*
X62235Y-32825D01*
X66225Y-34400D02*
X65050Y-33225D01*
X68625Y-34400D02*
X66225Y-34400D01*
X68700Y-34400D02*
X68625Y-34400D01*
X70200Y-34400D02*
X68700Y-34400D01*
X72925Y-33725D02*
X72225Y-33025D01*
X74625Y-33725D02*
X72925Y-33725D01*
X74625Y-33000D02*
X74625Y-33725D01*
X64725Y-25075D02*
X66475Y-26825D01*
X66475Y-26825D02*
X67675Y-26825D01*
X70425Y-41275D02*
X72475Y-43325D01*
X72475Y-43325D02*
X73175Y-43325D01*
G54D10*
G36*
X77525Y-62675D02*
X77410Y-62675D01*
X77410Y-32474D01*
X77363Y-32362D01*
X77278Y-32276D01*
X77166Y-32230D01*
X77044Y-32230D01*
X76932Y-32276D01*
X76846Y-32362D01*
X76800Y-32474D01*
X76800Y-32595D01*
X76846Y-32707D01*
X76932Y-32793D01*
X77044Y-32840D01*
X77165Y-32840D01*
X77277Y-32793D01*
X77363Y-32708D01*
X77410Y-32596D01*
X77410Y-32474D01*
X77410Y-62675D01*
X77044Y-62675D01*
X77044Y-34800D01*
X76998Y-34688D01*
X76912Y-34602D01*
X76800Y-34555D01*
X76679Y-34555D01*
X76567Y-34602D01*
X76481Y-34687D01*
X76434Y-34799D01*
X76434Y-34921D01*
X76480Y-35033D01*
X76566Y-35119D01*
X76678Y-35165D01*
X76800Y-35165D01*
X76912Y-35119D01*
X76998Y-35033D01*
X77044Y-34921D01*
X77044Y-34800D01*
X77044Y-62675D01*
X76908Y-62675D01*
X76908Y-36883D01*
X76862Y-36771D01*
X76776Y-36685D01*
X76664Y-36639D01*
X76542Y-36639D01*
X76430Y-36685D01*
X76344Y-36771D01*
X76298Y-36883D01*
X76298Y-37004D01*
X76344Y-37116D01*
X76430Y-37202D01*
X76542Y-37249D01*
X76663Y-37249D01*
X76775Y-37203D01*
X76861Y-37117D01*
X76908Y-37005D01*
X76908Y-36883D01*
X76908Y-62675D01*
X76434Y-62675D01*
X76434Y-41472D01*
X76388Y-41360D01*
X76302Y-41274D01*
X76190Y-41227D01*
X76185Y-41227D01*
X76185Y-40848D01*
X76138Y-40736D01*
X76053Y-40650D01*
X75941Y-40604D01*
X75819Y-40604D01*
X75707Y-40650D01*
X75621Y-40736D01*
X75575Y-40848D01*
X75575Y-40969D01*
X75621Y-41081D01*
X75707Y-41167D01*
X75819Y-41214D01*
X75940Y-41214D01*
X76052Y-41168D01*
X76138Y-41082D01*
X76185Y-40970D01*
X76185Y-40848D01*
X76185Y-41227D01*
X76068Y-41227D01*
X75956Y-41273D01*
X75870Y-41359D01*
X75824Y-41471D01*
X75824Y-41593D01*
X75870Y-41705D01*
X75956Y-41791D01*
X76068Y-41837D01*
X76189Y-41837D01*
X76301Y-41791D01*
X76387Y-41705D01*
X76434Y-41593D01*
X76434Y-41472D01*
X76434Y-62675D01*
X76051Y-62675D01*
X76051Y-47147D01*
X76051Y-45147D01*
X76043Y-44860D01*
X75948Y-44633D01*
X75835Y-44585D01*
X75764Y-44655D01*
X75764Y-44514D01*
X75716Y-44401D01*
X75447Y-44298D01*
X75321Y-44302D01*
X75321Y-24092D01*
X75275Y-23980D01*
X75189Y-23894D01*
X75077Y-23848D01*
X74956Y-23848D01*
X74873Y-23882D01*
X74873Y-23107D01*
X74826Y-22995D01*
X74741Y-22909D01*
X74629Y-22863D01*
X74507Y-22863D01*
X74395Y-22909D01*
X74309Y-22995D01*
X74263Y-23107D01*
X74263Y-23228D01*
X74309Y-23340D01*
X74395Y-23426D01*
X74507Y-23473D01*
X74628Y-23473D01*
X74740Y-23426D01*
X74826Y-23341D01*
X74873Y-23229D01*
X74873Y-23107D01*
X74873Y-23882D01*
X74843Y-23894D01*
X74758Y-23980D01*
X74711Y-24092D01*
X74711Y-24213D01*
X74757Y-24325D01*
X74843Y-24411D01*
X74955Y-24458D01*
X75076Y-24458D01*
X75188Y-24412D01*
X75274Y-24326D01*
X75321Y-24214D01*
X75321Y-24092D01*
X75321Y-44302D01*
X75160Y-44306D01*
X75061Y-44348D01*
X75061Y-28943D01*
X75014Y-28831D01*
X74929Y-28745D01*
X74816Y-28698D01*
X74695Y-28698D01*
X74583Y-28744D01*
X74497Y-28830D01*
X74451Y-28942D01*
X74450Y-29064D01*
X74497Y-29176D01*
X74583Y-29262D01*
X74695Y-29308D01*
X74816Y-29308D01*
X74928Y-29262D01*
X75014Y-29176D01*
X75060Y-29064D01*
X75061Y-28943D01*
X75061Y-44348D01*
X74933Y-44401D01*
X74925Y-44420D01*
X74925Y-42414D01*
X74878Y-42302D01*
X74793Y-42216D01*
X74681Y-42170D01*
X74559Y-42169D01*
X74447Y-42216D01*
X74361Y-42302D01*
X74354Y-42318D01*
X74354Y-32989D01*
X74308Y-32877D01*
X74230Y-32798D01*
X74230Y-31410D01*
X74183Y-31298D01*
X74098Y-31212D01*
X74005Y-31174D01*
X74005Y-27773D01*
X73958Y-27661D01*
X73955Y-27657D01*
X73955Y-24789D01*
X73908Y-24677D01*
X73822Y-24591D01*
X73710Y-24545D01*
X73589Y-24544D01*
X73477Y-24591D01*
X73391Y-24677D01*
X73345Y-24789D01*
X73344Y-24910D01*
X73391Y-25022D01*
X73477Y-25108D01*
X73589Y-25154D01*
X73710Y-25155D01*
X73822Y-25108D01*
X73908Y-25022D01*
X73954Y-24910D01*
X73955Y-24789D01*
X73955Y-27657D01*
X73873Y-27575D01*
X73761Y-27529D01*
X73639Y-27529D01*
X73527Y-27575D01*
X73441Y-27661D01*
X73395Y-27773D01*
X73395Y-27894D01*
X73441Y-28006D01*
X73527Y-28092D01*
X73639Y-28139D01*
X73760Y-28139D01*
X73872Y-28092D01*
X73958Y-28007D01*
X74005Y-27895D01*
X74005Y-27773D01*
X74005Y-31174D01*
X73986Y-31166D01*
X73864Y-31166D01*
X73752Y-31212D01*
X73666Y-31298D01*
X73620Y-31410D01*
X73620Y-31531D01*
X73666Y-31643D01*
X73752Y-31729D01*
X73864Y-31776D01*
X73985Y-31776D01*
X74097Y-31729D01*
X74183Y-31644D01*
X74230Y-31532D01*
X74230Y-31410D01*
X74230Y-32798D01*
X74222Y-32791D01*
X74110Y-32744D01*
X73989Y-32744D01*
X73877Y-32791D01*
X73791Y-32876D01*
X73744Y-32988D01*
X73744Y-33110D01*
X73791Y-33222D01*
X73876Y-33308D01*
X73988Y-33354D01*
X74110Y-33354D01*
X74222Y-33308D01*
X74308Y-33222D01*
X74354Y-33110D01*
X74354Y-32989D01*
X74354Y-42318D01*
X74315Y-42414D01*
X74315Y-42535D01*
X74361Y-42647D01*
X74447Y-42733D01*
X74559Y-42779D01*
X74680Y-42780D01*
X74792Y-42733D01*
X74878Y-42647D01*
X74925Y-42535D01*
X74925Y-42414D01*
X74925Y-44420D01*
X74885Y-44514D01*
X75325Y-44954D01*
X75764Y-44514D01*
X75764Y-44655D01*
X75395Y-45025D01*
X75835Y-45464D01*
X75948Y-45416D01*
X76051Y-45147D01*
X76051Y-47147D01*
X76043Y-46860D01*
X75948Y-46633D01*
X75835Y-46585D01*
X75764Y-46655D01*
X75764Y-46514D01*
X75764Y-45535D01*
X75325Y-45095D01*
X75254Y-45166D01*
X75254Y-45025D01*
X74814Y-44585D01*
X74701Y-44633D01*
X74598Y-44902D01*
X74606Y-45189D01*
X74701Y-45416D01*
X74814Y-45464D01*
X75254Y-45025D01*
X75254Y-45166D01*
X74885Y-45535D01*
X74933Y-45648D01*
X75202Y-45751D01*
X75489Y-45743D01*
X75716Y-45648D01*
X75764Y-45535D01*
X75764Y-46514D01*
X75716Y-46401D01*
X75447Y-46298D01*
X75160Y-46306D01*
X74947Y-46395D01*
X74947Y-45901D01*
X74852Y-45672D01*
X74678Y-45497D01*
X74449Y-45402D01*
X74201Y-45402D01*
X74155Y-45421D01*
X74155Y-42414D01*
X74108Y-42302D01*
X74055Y-42248D01*
X74055Y-37089D01*
X74008Y-36977D01*
X73922Y-36891D01*
X73810Y-36845D01*
X73689Y-36844D01*
X73577Y-36891D01*
X73491Y-36977D01*
X73445Y-37089D01*
X73444Y-37210D01*
X73491Y-37322D01*
X73577Y-37408D01*
X73689Y-37454D01*
X73810Y-37455D01*
X73922Y-37408D01*
X74008Y-37322D01*
X74054Y-37210D01*
X74055Y-37089D01*
X74055Y-42248D01*
X74022Y-42216D01*
X73910Y-42170D01*
X73789Y-42169D01*
X73694Y-42209D01*
X73694Y-41859D01*
X73647Y-41746D01*
X73562Y-41661D01*
X73450Y-41614D01*
X73328Y-41614D01*
X73216Y-41660D01*
X73212Y-41664D01*
X73212Y-40784D01*
X73166Y-40672D01*
X73080Y-40586D01*
X73021Y-40562D01*
X73021Y-39164D01*
X72975Y-39052D01*
X72889Y-38966D01*
X72777Y-38920D01*
X72656Y-38919D01*
X72544Y-38966D01*
X72458Y-39052D01*
X72411Y-39164D01*
X72411Y-39285D01*
X72457Y-39397D01*
X72543Y-39483D01*
X72655Y-39529D01*
X72776Y-39530D01*
X72889Y-39483D01*
X72974Y-39397D01*
X73021Y-39285D01*
X73021Y-39164D01*
X73021Y-40562D01*
X72968Y-40540D01*
X72847Y-40540D01*
X72735Y-40586D01*
X72649Y-40672D01*
X72602Y-40784D01*
X72602Y-40905D01*
X72649Y-41017D01*
X72734Y-41103D01*
X72846Y-41150D01*
X72968Y-41150D01*
X73080Y-41103D01*
X73166Y-41018D01*
X73212Y-40906D01*
X73212Y-40784D01*
X73212Y-41664D01*
X73130Y-41746D01*
X73084Y-41858D01*
X73084Y-41979D01*
X73130Y-42091D01*
X73216Y-42177D01*
X73328Y-42224D01*
X73449Y-42224D01*
X73561Y-42178D01*
X73647Y-42092D01*
X73694Y-41980D01*
X73694Y-41859D01*
X73694Y-42209D01*
X73677Y-42216D01*
X73591Y-42302D01*
X73545Y-42414D01*
X73544Y-42535D01*
X73591Y-42647D01*
X73677Y-42733D01*
X73789Y-42779D01*
X73910Y-42780D01*
X74022Y-42733D01*
X74108Y-42647D01*
X74154Y-42535D01*
X74155Y-42414D01*
X74155Y-45421D01*
X74051Y-45464D01*
X74051Y-45147D01*
X74043Y-44860D01*
X73948Y-44633D01*
X73835Y-44585D01*
X73764Y-44655D01*
X73764Y-44514D01*
X73716Y-44401D01*
X73447Y-44298D01*
X73160Y-44306D01*
X72933Y-44401D01*
X72885Y-44514D01*
X73325Y-44954D01*
X73764Y-44514D01*
X73764Y-44655D01*
X73395Y-45025D01*
X73835Y-45464D01*
X73948Y-45416D01*
X74051Y-45147D01*
X74051Y-45464D01*
X73972Y-45497D01*
X73797Y-45671D01*
X73764Y-45750D01*
X73764Y-45535D01*
X73325Y-45095D01*
X73254Y-45166D01*
X73254Y-45025D01*
X72814Y-44585D01*
X72701Y-44633D01*
X72598Y-44902D01*
X72606Y-45189D01*
X72701Y-45416D01*
X72814Y-45464D01*
X73254Y-45025D01*
X73254Y-45166D01*
X72885Y-45535D01*
X72933Y-45648D01*
X73202Y-45751D01*
X73489Y-45743D01*
X73716Y-45648D01*
X73764Y-45535D01*
X73764Y-45750D01*
X73702Y-45900D01*
X73702Y-46148D01*
X73797Y-46377D01*
X73971Y-46552D01*
X74200Y-46647D01*
X74448Y-46647D01*
X74677Y-46552D01*
X74852Y-46378D01*
X74947Y-46149D01*
X74947Y-45901D01*
X74947Y-46395D01*
X74933Y-46401D01*
X74885Y-46514D01*
X75325Y-46954D01*
X75764Y-46514D01*
X75764Y-46655D01*
X75395Y-47025D01*
X75835Y-47464D01*
X75948Y-47416D01*
X76051Y-47147D01*
X76051Y-62675D01*
X75764Y-62675D01*
X75764Y-47535D01*
X75325Y-47095D01*
X75254Y-47166D01*
X75254Y-47025D01*
X74814Y-46585D01*
X74701Y-46633D01*
X74598Y-46902D01*
X74606Y-47189D01*
X74701Y-47416D01*
X74814Y-47464D01*
X75254Y-47025D01*
X75254Y-47166D01*
X74885Y-47535D01*
X74933Y-47648D01*
X75202Y-47751D01*
X75489Y-47743D01*
X75716Y-47648D01*
X75764Y-47535D01*
X75764Y-62675D01*
X74051Y-62675D01*
X74051Y-47147D01*
X74043Y-46860D01*
X73948Y-46633D01*
X73835Y-46585D01*
X73764Y-46655D01*
X73764Y-46514D01*
X73716Y-46401D01*
X73447Y-46298D01*
X73160Y-46306D01*
X72933Y-46401D01*
X72885Y-46514D01*
X73325Y-46954D01*
X73764Y-46514D01*
X73764Y-46655D01*
X73395Y-47025D01*
X73835Y-47464D01*
X73948Y-47416D01*
X74051Y-47147D01*
X74051Y-62675D01*
X73764Y-62675D01*
X73764Y-47535D01*
X73325Y-47095D01*
X73254Y-47166D01*
X73254Y-47025D01*
X72814Y-46585D01*
X72701Y-46633D01*
X72598Y-46902D01*
X72606Y-47189D01*
X72701Y-47416D01*
X72814Y-47464D01*
X73254Y-47025D01*
X73254Y-47166D01*
X72885Y-47535D01*
X72933Y-47648D01*
X73202Y-47751D01*
X73489Y-47743D01*
X73716Y-47648D01*
X73764Y-47535D01*
X73764Y-62675D01*
X72155Y-62675D01*
X72155Y-32306D01*
X72108Y-32194D01*
X72022Y-32108D01*
X71910Y-32062D01*
X71789Y-32062D01*
X71677Y-32108D01*
X71591Y-32194D01*
X71545Y-32306D01*
X71544Y-32427D01*
X71591Y-32539D01*
X71677Y-32625D01*
X71789Y-32672D01*
X71910Y-32672D01*
X72022Y-32625D01*
X72108Y-32540D01*
X72154Y-32428D01*
X72155Y-32306D01*
X72155Y-62675D01*
X70939Y-62675D01*
X70939Y-46014D01*
X70893Y-45902D01*
X70807Y-45816D01*
X70695Y-45770D01*
X70574Y-45769D01*
X70462Y-45816D01*
X70376Y-45902D01*
X70329Y-46014D01*
X70329Y-46135D01*
X70375Y-46247D01*
X70461Y-46333D01*
X70573Y-46379D01*
X70694Y-46380D01*
X70807Y-46333D01*
X70892Y-46247D01*
X70939Y-46135D01*
X70939Y-46014D01*
X70939Y-62675D01*
X70196Y-62675D01*
X70196Y-47799D01*
X70149Y-47686D01*
X70064Y-47601D01*
X69970Y-47562D01*
X69970Y-24714D01*
X69924Y-24602D01*
X69838Y-24516D01*
X69726Y-24470D01*
X69605Y-24469D01*
X69493Y-24516D01*
X69407Y-24602D01*
X69360Y-24714D01*
X69360Y-24835D01*
X69406Y-24947D01*
X69492Y-25033D01*
X69604Y-25079D01*
X69726Y-25080D01*
X69838Y-25033D01*
X69924Y-24947D01*
X69970Y-24835D01*
X69970Y-24714D01*
X69970Y-47562D01*
X69952Y-47554D01*
X69930Y-47554D01*
X69930Y-32313D01*
X69883Y-32201D01*
X69797Y-32115D01*
X69685Y-32069D01*
X69564Y-32069D01*
X69452Y-32115D01*
X69366Y-32201D01*
X69320Y-32313D01*
X69319Y-32434D01*
X69366Y-32546D01*
X69452Y-32632D01*
X69564Y-32679D01*
X69685Y-32679D01*
X69797Y-32633D01*
X69883Y-32547D01*
X69929Y-32435D01*
X69930Y-32313D01*
X69930Y-47554D01*
X69830Y-47554D01*
X69718Y-47600D01*
X69632Y-47686D01*
X69586Y-47798D01*
X69586Y-47919D01*
X69632Y-48032D01*
X69718Y-48117D01*
X69830Y-48164D01*
X69951Y-48164D01*
X70063Y-48118D01*
X70149Y-48032D01*
X70196Y-47920D01*
X70196Y-47799D01*
X70196Y-62675D01*
X69151Y-62675D01*
X69151Y-44082D01*
X69105Y-43969D01*
X69019Y-43884D01*
X68972Y-43864D01*
X68972Y-42005D01*
X68926Y-41893D01*
X68840Y-41807D01*
X68728Y-41761D01*
X68607Y-41760D01*
X68591Y-41767D01*
X68591Y-28818D01*
X68545Y-28706D01*
X68459Y-28620D01*
X68347Y-28574D01*
X68226Y-28573D01*
X68114Y-28620D01*
X68028Y-28706D01*
X67981Y-28818D01*
X67981Y-28939D01*
X68028Y-29051D01*
X68113Y-29137D01*
X68225Y-29183D01*
X68347Y-29184D01*
X68459Y-29137D01*
X68545Y-29052D01*
X68591Y-28939D01*
X68591Y-28818D01*
X68591Y-41767D01*
X68495Y-41807D01*
X68409Y-41892D01*
X68362Y-42005D01*
X68362Y-42126D01*
X68409Y-42238D01*
X68494Y-42324D01*
X68606Y-42370D01*
X68728Y-42371D01*
X68840Y-42324D01*
X68926Y-42238D01*
X68972Y-42126D01*
X68972Y-42005D01*
X68972Y-43864D01*
X68907Y-43837D01*
X68786Y-43837D01*
X68673Y-43883D01*
X68588Y-43969D01*
X68541Y-44081D01*
X68541Y-44202D01*
X68587Y-44314D01*
X68673Y-44400D01*
X68785Y-44447D01*
X68906Y-44447D01*
X69018Y-44401D01*
X69104Y-44315D01*
X69151Y-44203D01*
X69151Y-44082D01*
X69151Y-62675D01*
X68380Y-62675D01*
X68380Y-58106D01*
X68333Y-57994D01*
X68247Y-57908D01*
X68135Y-57861D01*
X68076Y-57861D01*
X68076Y-32622D01*
X68029Y-32510D01*
X67944Y-32424D01*
X67832Y-32378D01*
X67710Y-32378D01*
X67598Y-32424D01*
X67512Y-32510D01*
X67466Y-32622D01*
X67466Y-32743D01*
X67512Y-32855D01*
X67598Y-32941D01*
X67710Y-32988D01*
X67831Y-32988D01*
X67943Y-32941D01*
X68029Y-32856D01*
X68076Y-32744D01*
X68076Y-32622D01*
X68076Y-57861D01*
X68014Y-57861D01*
X67902Y-57908D01*
X67816Y-57993D01*
X67770Y-58105D01*
X67769Y-58227D01*
X67816Y-58339D01*
X67902Y-58425D01*
X68014Y-58471D01*
X68135Y-58471D01*
X68247Y-58425D01*
X68333Y-58339D01*
X68379Y-58227D01*
X68380Y-58106D01*
X68380Y-62675D01*
X67605Y-62675D01*
X67605Y-33942D01*
X67558Y-33830D01*
X67473Y-33744D01*
X67360Y-33698D01*
X67286Y-33698D01*
X67286Y-30214D01*
X67240Y-30102D01*
X67154Y-30016D01*
X67042Y-29970D01*
X66921Y-29969D01*
X66808Y-30016D01*
X66723Y-30102D01*
X66676Y-30214D01*
X66676Y-30335D01*
X66722Y-30447D01*
X66808Y-30533D01*
X66920Y-30579D01*
X67041Y-30580D01*
X67153Y-30533D01*
X67239Y-30447D01*
X67286Y-30335D01*
X67286Y-30214D01*
X67286Y-33698D01*
X67239Y-33698D01*
X67127Y-33744D01*
X67041Y-33830D01*
X66995Y-33942D01*
X66994Y-34063D01*
X67041Y-34175D01*
X67127Y-34261D01*
X67239Y-34308D01*
X67360Y-34308D01*
X67472Y-34261D01*
X67558Y-34176D01*
X67604Y-34064D01*
X67605Y-33942D01*
X67605Y-62675D01*
X67430Y-62675D01*
X67430Y-35314D01*
X67383Y-35202D01*
X67297Y-35116D01*
X67185Y-35070D01*
X67064Y-35069D01*
X66952Y-35116D01*
X66866Y-35202D01*
X66820Y-35314D01*
X66819Y-35435D01*
X66866Y-35547D01*
X66952Y-35633D01*
X67064Y-35679D01*
X67185Y-35680D01*
X67297Y-35633D01*
X67383Y-35547D01*
X67429Y-35435D01*
X67430Y-35314D01*
X67430Y-62675D01*
X67052Y-62675D01*
X67052Y-58001D01*
X67006Y-57889D01*
X66920Y-57803D01*
X66808Y-57757D01*
X66687Y-57756D01*
X66575Y-57803D01*
X66513Y-57864D01*
X66513Y-23514D01*
X66467Y-23402D01*
X66381Y-23316D01*
X66269Y-23270D01*
X66148Y-23270D01*
X66036Y-23316D01*
X65950Y-23402D01*
X65903Y-23514D01*
X65903Y-23635D01*
X65950Y-23747D01*
X66035Y-23833D01*
X66148Y-23880D01*
X66269Y-23880D01*
X66381Y-23833D01*
X66467Y-23748D01*
X66513Y-23636D01*
X66513Y-23514D01*
X66513Y-57864D01*
X66489Y-57888D01*
X66442Y-58001D01*
X66442Y-58122D01*
X66489Y-58234D01*
X66574Y-58320D01*
X66686Y-58366D01*
X66808Y-58367D01*
X66920Y-58320D01*
X67006Y-58234D01*
X67052Y-58122D01*
X67052Y-58001D01*
X67052Y-62675D01*
X66267Y-62675D01*
X66267Y-30714D01*
X66221Y-30602D01*
X66135Y-30516D01*
X66023Y-30470D01*
X65902Y-30469D01*
X65790Y-30516D01*
X65704Y-30602D01*
X65657Y-30714D01*
X65657Y-30835D01*
X65703Y-30947D01*
X65789Y-31033D01*
X65901Y-31079D01*
X66023Y-31080D01*
X66135Y-31033D01*
X66221Y-30947D01*
X66267Y-30835D01*
X66267Y-30714D01*
X66267Y-62675D01*
X65880Y-62675D01*
X65880Y-49014D01*
X65833Y-48902D01*
X65747Y-48816D01*
X65635Y-48770D01*
X65514Y-48769D01*
X65402Y-48816D01*
X65316Y-48902D01*
X65270Y-49014D01*
X65269Y-49135D01*
X65316Y-49247D01*
X65402Y-49333D01*
X65514Y-49379D01*
X65635Y-49380D01*
X65747Y-49333D01*
X65833Y-49247D01*
X65879Y-49135D01*
X65880Y-49014D01*
X65880Y-62675D01*
X65742Y-62675D01*
X65742Y-58914D01*
X65696Y-58802D01*
X65610Y-58716D01*
X65498Y-58670D01*
X65377Y-58670D01*
X65265Y-58716D01*
X65179Y-58802D01*
X65132Y-58914D01*
X65132Y-59035D01*
X65179Y-59147D01*
X65264Y-59233D01*
X65376Y-59280D01*
X65498Y-59280D01*
X65610Y-59233D01*
X65696Y-59148D01*
X65742Y-59036D01*
X65742Y-58914D01*
X65742Y-62675D01*
X65530Y-62675D01*
X65530Y-59573D01*
X65483Y-59461D01*
X65397Y-59375D01*
X65285Y-59328D01*
X65164Y-59328D01*
X65052Y-59375D01*
X65043Y-59383D01*
X65043Y-52277D01*
X64997Y-52164D01*
X64911Y-52079D01*
X64799Y-52032D01*
X64678Y-52032D01*
X64566Y-52078D01*
X64480Y-52164D01*
X64433Y-52276D01*
X64433Y-52397D01*
X64479Y-52510D01*
X64565Y-52595D01*
X64677Y-52642D01*
X64799Y-52642D01*
X64911Y-52596D01*
X64997Y-52510D01*
X65043Y-52398D01*
X65043Y-52277D01*
X65043Y-59383D01*
X64966Y-59460D01*
X64920Y-59572D01*
X64919Y-59694D01*
X64966Y-59806D01*
X65052Y-59892D01*
X65164Y-59938D01*
X65285Y-59938D01*
X65397Y-59892D01*
X65483Y-59806D01*
X65529Y-59694D01*
X65530Y-59573D01*
X65530Y-62675D01*
X64564Y-62675D01*
X64564Y-56175D01*
X64517Y-56062D01*
X64432Y-55977D01*
X64430Y-55976D01*
X64430Y-33114D01*
X64383Y-33002D01*
X64300Y-32918D01*
X64300Y-25010D01*
X64250Y-24891D01*
X64159Y-24799D01*
X64039Y-24750D01*
X63910Y-24749D01*
X63791Y-24799D01*
X63699Y-24890D01*
X63650Y-25010D01*
X63649Y-25139D01*
X63699Y-25258D01*
X63790Y-25350D01*
X63910Y-25399D01*
X64039Y-25400D01*
X64158Y-25350D01*
X64250Y-25259D01*
X64299Y-25139D01*
X64300Y-25010D01*
X64300Y-32918D01*
X64297Y-32916D01*
X64185Y-32870D01*
X64064Y-32869D01*
X63952Y-32916D01*
X63866Y-33002D01*
X63820Y-33114D01*
X63819Y-33235D01*
X63866Y-33347D01*
X63952Y-33433D01*
X64064Y-33479D01*
X64185Y-33480D01*
X64297Y-33433D01*
X64383Y-33347D01*
X64429Y-33235D01*
X64430Y-33114D01*
X64430Y-55976D01*
X64319Y-55930D01*
X64198Y-55930D01*
X64086Y-55976D01*
X64031Y-56031D01*
X64031Y-34914D01*
X63985Y-34802D01*
X63899Y-34716D01*
X63787Y-34670D01*
X63666Y-34669D01*
X63554Y-34716D01*
X63468Y-34802D01*
X63421Y-34914D01*
X63421Y-35035D01*
X63468Y-35147D01*
X63553Y-35233D01*
X63665Y-35279D01*
X63787Y-35280D01*
X63899Y-35233D01*
X63985Y-35147D01*
X64031Y-35035D01*
X64031Y-34914D01*
X64031Y-56031D01*
X64015Y-56047D01*
X64015Y-50664D01*
X63969Y-50552D01*
X63898Y-50481D01*
X63898Y-42780D01*
X63852Y-42668D01*
X63766Y-42582D01*
X63654Y-42535D01*
X63532Y-42535D01*
X63420Y-42581D01*
X63334Y-42667D01*
X63288Y-42779D01*
X63288Y-42901D01*
X63334Y-43013D01*
X63420Y-43099D01*
X63532Y-43145D01*
X63653Y-43145D01*
X63765Y-43099D01*
X63851Y-43013D01*
X63898Y-42901D01*
X63898Y-42780D01*
X63898Y-50481D01*
X63883Y-50466D01*
X63771Y-50420D01*
X63650Y-50419D01*
X63538Y-50466D01*
X63452Y-50552D01*
X63405Y-50664D01*
X63405Y-50785D01*
X63451Y-50897D01*
X63537Y-50983D01*
X63649Y-51029D01*
X63771Y-51030D01*
X63883Y-50983D01*
X63969Y-50897D01*
X64015Y-50785D01*
X64015Y-50664D01*
X64015Y-56047D01*
X64000Y-56062D01*
X63954Y-56174D01*
X63954Y-56295D01*
X64000Y-56407D01*
X64086Y-56493D01*
X64198Y-56540D01*
X64319Y-56540D01*
X64431Y-56494D01*
X64517Y-56408D01*
X64564Y-56296D01*
X64564Y-56175D01*
X64564Y-62675D01*
X63494Y-62675D01*
X63494Y-59315D01*
X63448Y-59203D01*
X63362Y-59117D01*
X63250Y-59070D01*
X63155Y-59070D01*
X63155Y-47813D01*
X63108Y-47701D01*
X63023Y-47615D01*
X62955Y-47587D01*
X62955Y-27989D01*
X62908Y-27877D01*
X62822Y-27791D01*
X62710Y-27745D01*
X62589Y-27744D01*
X62477Y-27791D01*
X62391Y-27877D01*
X62345Y-27989D01*
X62344Y-28110D01*
X62391Y-28222D01*
X62477Y-28308D01*
X62589Y-28354D01*
X62710Y-28355D01*
X62822Y-28308D01*
X62908Y-28222D01*
X62954Y-28110D01*
X62955Y-27989D01*
X62955Y-47587D01*
X62911Y-47569D01*
X62789Y-47569D01*
X62677Y-47615D01*
X62591Y-47701D01*
X62545Y-47813D01*
X62545Y-47934D01*
X62591Y-48046D01*
X62677Y-48132D01*
X62789Y-48179D01*
X62910Y-48179D01*
X63022Y-48132D01*
X63108Y-48047D01*
X63155Y-47935D01*
X63155Y-47813D01*
X63155Y-59070D01*
X63129Y-59070D01*
X63017Y-59116D01*
X62931Y-59202D01*
X62884Y-59314D01*
X62884Y-59436D01*
X62931Y-59548D01*
X63016Y-59634D01*
X63128Y-59680D01*
X63250Y-59680D01*
X63362Y-59634D01*
X63448Y-59548D01*
X63494Y-59436D01*
X63494Y-59315D01*
X63494Y-62675D01*
X62374Y-62675D01*
X62374Y-57314D01*
X62328Y-57202D01*
X62242Y-57116D01*
X62135Y-57072D01*
X62135Y-51364D01*
X62089Y-51252D01*
X62003Y-51166D01*
X61891Y-51120D01*
X61770Y-51119D01*
X61658Y-51166D01*
X61572Y-51252D01*
X61525Y-51364D01*
X61525Y-51485D01*
X61571Y-51597D01*
X61657Y-51683D01*
X61769Y-51729D01*
X61890Y-51730D01*
X62003Y-51683D01*
X62088Y-51597D01*
X62135Y-51485D01*
X62135Y-51364D01*
X62135Y-57072D01*
X62130Y-57070D01*
X62009Y-57069D01*
X61896Y-57116D01*
X61810Y-57202D01*
X61764Y-57314D01*
X61764Y-57435D01*
X61810Y-57547D01*
X61896Y-57633D01*
X62008Y-57679D01*
X62129Y-57680D01*
X62241Y-57633D01*
X62327Y-57547D01*
X62374Y-57435D01*
X62374Y-57314D01*
X62374Y-62675D01*
X61163Y-62675D01*
X61163Y-23602D01*
X61116Y-23490D01*
X61031Y-23404D01*
X60919Y-23357D01*
X60797Y-23357D01*
X60685Y-23404D01*
X60599Y-23489D01*
X60553Y-23601D01*
X60553Y-23723D01*
X60599Y-23835D01*
X60685Y-23921D01*
X60797Y-23967D01*
X60918Y-23967D01*
X61030Y-23921D01*
X61116Y-23835D01*
X61163Y-23723D01*
X61163Y-23602D01*
X61163Y-62675D01*
X61105Y-62675D01*
X61105Y-58121D01*
X61059Y-58009D01*
X60973Y-57923D01*
X60861Y-57877D01*
X60740Y-57877D01*
X60627Y-57923D01*
X60542Y-58009D01*
X60495Y-58121D01*
X60495Y-58242D01*
X60541Y-58354D01*
X60627Y-58440D01*
X60739Y-58487D01*
X60860Y-58487D01*
X60972Y-58441D01*
X61058Y-58355D01*
X61105Y-58243D01*
X61105Y-58121D01*
X61105Y-62675D01*
X60235Y-62675D01*
X60235Y-61309D01*
X60189Y-61197D01*
X60103Y-61111D01*
X60085Y-61104D01*
X60085Y-27036D01*
X60039Y-26924D01*
X59953Y-26838D01*
X59841Y-26792D01*
X59720Y-26792D01*
X59608Y-26838D01*
X59522Y-26924D01*
X59475Y-27036D01*
X59475Y-27157D01*
X59522Y-27269D01*
X59607Y-27355D01*
X59719Y-27402D01*
X59841Y-27402D01*
X59953Y-27356D01*
X60039Y-27270D01*
X60085Y-27158D01*
X60085Y-27036D01*
X60085Y-61104D01*
X59991Y-61065D01*
X59951Y-61065D01*
X59951Y-36705D01*
X59904Y-36593D01*
X59819Y-36507D01*
X59706Y-36461D01*
X59585Y-36461D01*
X59473Y-36507D01*
X59387Y-36593D01*
X59371Y-36632D01*
X59371Y-36033D01*
X59325Y-35921D01*
X59239Y-35835D01*
X59127Y-35788D01*
X59006Y-35788D01*
X58950Y-35811D01*
X58950Y-25162D01*
X58904Y-25050D01*
X58818Y-24964D01*
X58706Y-24917D01*
X58585Y-24917D01*
X58473Y-24964D01*
X58387Y-25049D01*
X58340Y-25161D01*
X58340Y-25283D01*
X58387Y-25395D01*
X58472Y-25481D01*
X58584Y-25527D01*
X58706Y-25527D01*
X58818Y-25481D01*
X58904Y-25395D01*
X58950Y-25283D01*
X58950Y-25162D01*
X58950Y-35811D01*
X58893Y-35834D01*
X58856Y-35872D01*
X58856Y-31737D01*
X58809Y-31625D01*
X58809Y-31624D01*
X58809Y-27942D01*
X58763Y-27830D01*
X58677Y-27744D01*
X58565Y-27698D01*
X58443Y-27698D01*
X58331Y-27744D01*
X58245Y-27830D01*
X58199Y-27942D01*
X58199Y-28063D01*
X58245Y-28175D01*
X58331Y-28261D01*
X58443Y-28308D01*
X58564Y-28308D01*
X58676Y-28261D01*
X58762Y-28176D01*
X58809Y-28064D01*
X58809Y-27942D01*
X58809Y-31624D01*
X58724Y-31539D01*
X58612Y-31492D01*
X58490Y-31492D01*
X58378Y-31539D01*
X58292Y-31624D01*
X58246Y-31736D01*
X58246Y-31858D01*
X58292Y-31970D01*
X58378Y-32056D01*
X58490Y-32102D01*
X58611Y-32102D01*
X58723Y-32056D01*
X58809Y-31970D01*
X58856Y-31858D01*
X58856Y-31737D01*
X58856Y-35872D01*
X58808Y-35920D01*
X58761Y-36032D01*
X58761Y-36154D01*
X58807Y-36266D01*
X58893Y-36352D01*
X59005Y-36398D01*
X59126Y-36398D01*
X59238Y-36352D01*
X59324Y-36266D01*
X59371Y-36154D01*
X59371Y-36033D01*
X59371Y-36632D01*
X59341Y-36705D01*
X59341Y-36826D01*
X59387Y-36938D01*
X59473Y-37024D01*
X59585Y-37071D01*
X59706Y-37071D01*
X59818Y-37024D01*
X59904Y-36939D01*
X59951Y-36827D01*
X59951Y-36705D01*
X59951Y-61065D01*
X59870Y-61065D01*
X59758Y-61111D01*
X59680Y-61189D01*
X59680Y-59439D01*
X59633Y-59327D01*
X59547Y-59241D01*
X59435Y-59195D01*
X59314Y-59194D01*
X59202Y-59241D01*
X59116Y-59327D01*
X59070Y-59439D01*
X59069Y-59560D01*
X59116Y-59672D01*
X59202Y-59758D01*
X59314Y-59804D01*
X59435Y-59805D01*
X59547Y-59758D01*
X59633Y-59672D01*
X59679Y-59560D01*
X59680Y-59439D01*
X59680Y-61189D01*
X59672Y-61197D01*
X59625Y-61309D01*
X59625Y-61430D01*
X59671Y-61542D01*
X59757Y-61628D01*
X59869Y-61675D01*
X59991Y-61675D01*
X60103Y-61628D01*
X60189Y-61543D01*
X60235Y-61431D01*
X60235Y-61309D01*
X60235Y-62675D01*
X59287Y-62675D01*
X59287Y-61919D01*
X59241Y-61807D01*
X59155Y-61721D01*
X59043Y-61675D01*
X58921Y-61674D01*
X58809Y-61721D01*
X58723Y-61807D01*
X58688Y-61892D01*
X58688Y-33139D01*
X58642Y-33027D01*
X58556Y-32941D01*
X58444Y-32895D01*
X58322Y-32894D01*
X58210Y-32941D01*
X58124Y-33027D01*
X58078Y-33139D01*
X58078Y-33260D01*
X58124Y-33372D01*
X58210Y-33458D01*
X58322Y-33504D01*
X58443Y-33505D01*
X58555Y-33458D01*
X58641Y-33372D01*
X58688Y-33260D01*
X58688Y-33139D01*
X58688Y-61892D01*
X58678Y-61917D01*
X58678Y-61575D01*
X58631Y-61462D01*
X58630Y-61461D01*
X58630Y-56828D01*
X58583Y-56716D01*
X58497Y-56630D01*
X58385Y-56584D01*
X58264Y-56584D01*
X58152Y-56630D01*
X58066Y-56716D01*
X58020Y-56828D01*
X58019Y-56949D01*
X58066Y-57061D01*
X58152Y-57147D01*
X58264Y-57194D01*
X58385Y-57194D01*
X58497Y-57148D01*
X58583Y-57062D01*
X58629Y-56950D01*
X58630Y-56828D01*
X58630Y-61461D01*
X58546Y-61377D01*
X58434Y-61330D01*
X58312Y-61330D01*
X58200Y-61376D01*
X58114Y-61462D01*
X58068Y-61574D01*
X58068Y-61695D01*
X58114Y-61807D01*
X58200Y-61893D01*
X58312Y-61940D01*
X58433Y-61940D01*
X58545Y-61894D01*
X58631Y-61808D01*
X58678Y-61696D01*
X58678Y-61575D01*
X58678Y-61917D01*
X58677Y-61919D01*
X58677Y-62040D01*
X58723Y-62152D01*
X58809Y-62238D01*
X58921Y-62284D01*
X59042Y-62285D01*
X59154Y-62238D01*
X59240Y-62152D01*
X59287Y-62040D01*
X59287Y-61919D01*
X59287Y-62675D01*
X57855Y-62675D01*
X57855Y-46347D01*
X57808Y-46235D01*
X57722Y-46149D01*
X57610Y-46103D01*
X57510Y-46102D01*
X57510Y-40217D01*
X57464Y-40105D01*
X57378Y-40019D01*
X57266Y-39973D01*
X57145Y-39972D01*
X57033Y-40019D01*
X56983Y-40068D01*
X56983Y-38195D01*
X56937Y-38083D01*
X56851Y-37997D01*
X56739Y-37951D01*
X56618Y-37951D01*
X56506Y-37997D01*
X56420Y-38083D01*
X56373Y-38195D01*
X56373Y-38316D01*
X56420Y-38428D01*
X56505Y-38514D01*
X56618Y-38561D01*
X56739Y-38561D01*
X56851Y-38515D01*
X56937Y-38429D01*
X56983Y-38317D01*
X56983Y-38195D01*
X56983Y-40068D01*
X56947Y-40104D01*
X56900Y-40217D01*
X56900Y-40338D01*
X56946Y-40450D01*
X57032Y-40536D01*
X57144Y-40582D01*
X57266Y-40583D01*
X57378Y-40536D01*
X57464Y-40450D01*
X57510Y-40338D01*
X57510Y-40217D01*
X57510Y-46102D01*
X57489Y-46102D01*
X57377Y-46149D01*
X57291Y-46235D01*
X57245Y-46347D01*
X57244Y-46468D01*
X57291Y-46580D01*
X57377Y-46666D01*
X57489Y-46712D01*
X57610Y-46713D01*
X57722Y-46666D01*
X57808Y-46581D01*
X57854Y-46468D01*
X57855Y-46347D01*
X57855Y-62675D01*
X57565Y-62675D01*
X57565Y-60780D01*
X57519Y-60668D01*
X57433Y-60582D01*
X57321Y-60535D01*
X57200Y-60535D01*
X57198Y-60536D01*
X57198Y-46582D01*
X57152Y-46470D01*
X57066Y-46384D01*
X56954Y-46338D01*
X56922Y-46338D01*
X56922Y-42797D01*
X56876Y-42684D01*
X56790Y-42599D01*
X56678Y-42552D01*
X56557Y-42552D01*
X56445Y-42598D01*
X56359Y-42684D01*
X56312Y-42796D01*
X56312Y-42917D01*
X56359Y-43030D01*
X56444Y-43115D01*
X56556Y-43162D01*
X56678Y-43162D01*
X56790Y-43116D01*
X56876Y-43030D01*
X56922Y-42918D01*
X56922Y-42797D01*
X56922Y-46338D01*
X56833Y-46338D01*
X56720Y-46384D01*
X56635Y-46470D01*
X56588Y-46582D01*
X56588Y-46703D01*
X56634Y-46815D01*
X56720Y-46901D01*
X56832Y-46948D01*
X56953Y-46948D01*
X57065Y-46902D01*
X57151Y-46816D01*
X57198Y-46704D01*
X57198Y-46582D01*
X57198Y-60536D01*
X57088Y-60582D01*
X57002Y-60667D01*
X56986Y-60706D01*
X56986Y-50478D01*
X56939Y-50365D01*
X56854Y-50280D01*
X56742Y-50233D01*
X56620Y-50233D01*
X56508Y-50279D01*
X56422Y-50365D01*
X56376Y-50477D01*
X56376Y-50598D01*
X56422Y-50710D01*
X56508Y-50796D01*
X56620Y-50843D01*
X56741Y-50843D01*
X56853Y-50797D01*
X56939Y-50711D01*
X56986Y-50599D01*
X56986Y-50478D01*
X56986Y-60706D01*
X56955Y-60779D01*
X56955Y-60901D01*
X57002Y-61013D01*
X57087Y-61099D01*
X57199Y-61145D01*
X57321Y-61145D01*
X57433Y-61099D01*
X57519Y-61013D01*
X57565Y-60901D01*
X57565Y-60780D01*
X57565Y-62675D01*
X56819Y-62675D01*
X56819Y-54557D01*
X56772Y-54445D01*
X56687Y-54359D01*
X56574Y-54313D01*
X56453Y-54313D01*
X56341Y-54359D01*
X56255Y-54445D01*
X56209Y-54557D01*
X56208Y-54678D01*
X56255Y-54790D01*
X56341Y-54876D01*
X56453Y-54923D01*
X56574Y-54923D01*
X56686Y-54876D01*
X56772Y-54791D01*
X56818Y-54679D01*
X56819Y-54557D01*
X56819Y-62675D01*
X56030Y-62675D01*
X56030Y-51789D01*
X55983Y-51677D01*
X55897Y-51591D01*
X55785Y-51545D01*
X55755Y-51545D01*
X55755Y-38331D01*
X55708Y-38219D01*
X55622Y-38133D01*
X55510Y-38086D01*
X55389Y-38086D01*
X55277Y-38133D01*
X55191Y-38218D01*
X55145Y-38330D01*
X55144Y-38452D01*
X55191Y-38564D01*
X55277Y-38650D01*
X55389Y-38696D01*
X55510Y-38696D01*
X55622Y-38650D01*
X55708Y-38564D01*
X55754Y-38452D01*
X55755Y-38331D01*
X55755Y-51545D01*
X55664Y-51544D01*
X55552Y-51591D01*
X55466Y-51677D01*
X55420Y-51789D01*
X55419Y-51910D01*
X55466Y-52022D01*
X55552Y-52108D01*
X55664Y-52154D01*
X55785Y-52155D01*
X55897Y-52108D01*
X55983Y-52022D01*
X56029Y-51910D01*
X56030Y-51789D01*
X56030Y-62675D01*
X55684Y-62675D01*
X55684Y-55632D01*
X55638Y-55520D01*
X55552Y-55434D01*
X55440Y-55387D01*
X55319Y-55387D01*
X55206Y-55434D01*
X55121Y-55519D01*
X55074Y-55631D01*
X55074Y-55753D01*
X55120Y-55865D01*
X55206Y-55951D01*
X55318Y-55997D01*
X55439Y-55997D01*
X55552Y-55951D01*
X55637Y-55865D01*
X55684Y-55753D01*
X55684Y-55632D01*
X55684Y-62675D01*
X54762Y-62675D01*
X54762Y-31082D01*
X54716Y-30970D01*
X54630Y-30884D01*
X54542Y-30847D01*
X54542Y-30420D01*
X54496Y-30308D01*
X54410Y-30222D01*
X54298Y-30176D01*
X54177Y-30175D01*
X54064Y-30222D01*
X53979Y-30307D01*
X53932Y-30420D01*
X53932Y-30541D01*
X53978Y-30653D01*
X54064Y-30739D01*
X54176Y-30785D01*
X54297Y-30786D01*
X54410Y-30739D01*
X54495Y-30653D01*
X54542Y-30541D01*
X54542Y-30420D01*
X54542Y-30847D01*
X54518Y-30837D01*
X54396Y-30837D01*
X54284Y-30883D01*
X54198Y-30969D01*
X54152Y-31081D01*
X54152Y-31203D01*
X54198Y-31315D01*
X54284Y-31401D01*
X54396Y-31447D01*
X54517Y-31447D01*
X54629Y-31401D01*
X54715Y-31315D01*
X54762Y-31203D01*
X54762Y-31082D01*
X54762Y-62675D01*
X54169Y-62675D01*
X54169Y-55866D01*
X54122Y-55754D01*
X54037Y-55668D01*
X53924Y-55622D01*
X53803Y-55622D01*
X53691Y-55668D01*
X53605Y-55754D01*
X53559Y-55866D01*
X53558Y-55987D01*
X53605Y-56099D01*
X53691Y-56185D01*
X53803Y-56232D01*
X53924Y-56232D01*
X54036Y-56186D01*
X54122Y-56100D01*
X54168Y-55988D01*
X54169Y-55866D01*
X54169Y-62675D01*
X53530Y-62675D01*
X53530Y-57014D01*
X53483Y-56902D01*
X53397Y-56816D01*
X53395Y-56815D01*
X53395Y-48628D01*
X53348Y-48516D01*
X53263Y-48430D01*
X53151Y-48383D01*
X53029Y-48383D01*
X52920Y-48428D01*
X52920Y-41252D01*
X52874Y-41139D01*
X52788Y-41054D01*
X52676Y-41007D01*
X52580Y-41007D01*
X52580Y-37248D01*
X52533Y-37136D01*
X52495Y-37097D01*
X52495Y-32317D01*
X52449Y-32205D01*
X52363Y-32119D01*
X52331Y-32106D01*
X52331Y-28415D01*
X52285Y-28303D01*
X52199Y-28217D01*
X52087Y-28170D01*
X51966Y-28170D01*
X51853Y-28216D01*
X51768Y-28302D01*
X51721Y-28414D01*
X51721Y-28535D01*
X51767Y-28648D01*
X51853Y-28733D01*
X51965Y-28780D01*
X52086Y-28780D01*
X52198Y-28734D01*
X52284Y-28648D01*
X52331Y-28536D01*
X52331Y-28415D01*
X52331Y-32106D01*
X52251Y-32072D01*
X52130Y-32072D01*
X52018Y-32119D01*
X51932Y-32204D01*
X51885Y-32316D01*
X51885Y-32438D01*
X51931Y-32550D01*
X52017Y-32636D01*
X52129Y-32682D01*
X52251Y-32682D01*
X52363Y-32636D01*
X52449Y-32550D01*
X52495Y-32438D01*
X52495Y-32317D01*
X52495Y-37097D01*
X52447Y-37050D01*
X52335Y-37003D01*
X52214Y-37003D01*
X52102Y-37049D01*
X52016Y-37135D01*
X51970Y-37247D01*
X51969Y-37368D01*
X52016Y-37481D01*
X52102Y-37566D01*
X52214Y-37613D01*
X52335Y-37613D01*
X52447Y-37567D01*
X52533Y-37481D01*
X52579Y-37369D01*
X52580Y-37248D01*
X52580Y-41007D01*
X52555Y-41007D01*
X52443Y-41053D01*
X52357Y-41139D01*
X52310Y-41251D01*
X52310Y-41372D01*
X52357Y-41485D01*
X52442Y-41570D01*
X52554Y-41617D01*
X52676Y-41617D01*
X52788Y-41571D01*
X52874Y-41485D01*
X52920Y-41373D01*
X52920Y-41252D01*
X52920Y-48428D01*
X52917Y-48430D01*
X52905Y-48442D01*
X52905Y-47025D01*
X52858Y-46913D01*
X52772Y-46827D01*
X52660Y-46781D01*
X52539Y-46781D01*
X52427Y-46827D01*
X52341Y-46913D01*
X52295Y-47025D01*
X52294Y-47146D01*
X52341Y-47258D01*
X52427Y-47344D01*
X52539Y-47391D01*
X52660Y-47391D01*
X52772Y-47344D01*
X52858Y-47259D01*
X52904Y-47147D01*
X52905Y-47025D01*
X52905Y-48442D01*
X52831Y-48515D01*
X52785Y-48627D01*
X52785Y-48749D01*
X52831Y-48861D01*
X52917Y-48947D01*
X53029Y-48993D01*
X53150Y-48993D01*
X53262Y-48947D01*
X53348Y-48861D01*
X53395Y-48749D01*
X53395Y-48628D01*
X53395Y-56815D01*
X53285Y-56770D01*
X53164Y-56769D01*
X53080Y-56804D01*
X53080Y-54931D01*
X53033Y-54819D01*
X52947Y-54733D01*
X52835Y-54687D01*
X52714Y-54687D01*
X52602Y-54733D01*
X52516Y-54819D01*
X52470Y-54931D01*
X52469Y-55052D01*
X52516Y-55164D01*
X52602Y-55250D01*
X52714Y-55297D01*
X52835Y-55297D01*
X52947Y-55250D01*
X53033Y-55165D01*
X53079Y-55053D01*
X53080Y-54931D01*
X53080Y-56804D01*
X53052Y-56816D01*
X52966Y-56902D01*
X52920Y-57014D01*
X52919Y-57135D01*
X52966Y-57247D01*
X53052Y-57333D01*
X53164Y-57379D01*
X53285Y-57380D01*
X53397Y-57333D01*
X53483Y-57247D01*
X53529Y-57135D01*
X53530Y-57014D01*
X53530Y-62675D01*
X52236Y-62675D01*
X52236Y-42827D01*
X52189Y-42715D01*
X52104Y-42629D01*
X51992Y-42582D01*
X51870Y-42582D01*
X51758Y-42628D01*
X51741Y-42645D01*
X51741Y-29089D01*
X51695Y-28977D01*
X51609Y-28891D01*
X51497Y-28845D01*
X51376Y-28845D01*
X51264Y-28891D01*
X51178Y-28977D01*
X51131Y-29089D01*
X51131Y-29210D01*
X51178Y-29322D01*
X51263Y-29408D01*
X51375Y-29455D01*
X51497Y-29455D01*
X51609Y-29408D01*
X51695Y-29323D01*
X51741Y-29211D01*
X51741Y-29089D01*
X51741Y-42645D01*
X51672Y-42714D01*
X51626Y-42826D01*
X51626Y-42947D01*
X51672Y-43060D01*
X51758Y-43145D01*
X51870Y-43192D01*
X51991Y-43192D01*
X52103Y-43146D01*
X52189Y-43060D01*
X52236Y-42948D01*
X52236Y-42827D01*
X52236Y-62675D01*
X51837Y-62675D01*
X51837Y-51740D01*
X51791Y-51628D01*
X51705Y-51542D01*
X51610Y-51503D01*
X51610Y-42314D01*
X51564Y-42202D01*
X51478Y-42116D01*
X51366Y-42070D01*
X51245Y-42069D01*
X51132Y-42116D01*
X51047Y-42202D01*
X51000Y-42314D01*
X51000Y-42435D01*
X51046Y-42547D01*
X51132Y-42633D01*
X51244Y-42679D01*
X51365Y-42680D01*
X51478Y-42633D01*
X51563Y-42547D01*
X51610Y-42435D01*
X51610Y-42314D01*
X51610Y-51503D01*
X51593Y-51495D01*
X51471Y-51495D01*
X51359Y-51542D01*
X51273Y-51627D01*
X51227Y-51739D01*
X51227Y-51861D01*
X51273Y-51973D01*
X51359Y-52059D01*
X51471Y-52105D01*
X51592Y-52105D01*
X51704Y-52059D01*
X51790Y-51973D01*
X51837Y-51861D01*
X51837Y-51740D01*
X51837Y-62675D01*
X51596Y-62675D01*
X51596Y-55582D01*
X51550Y-55470D01*
X51464Y-55384D01*
X51352Y-55337D01*
X51231Y-55337D01*
X51119Y-55384D01*
X51033Y-55469D01*
X50986Y-55581D01*
X50986Y-55703D01*
X51033Y-55815D01*
X51118Y-55901D01*
X51230Y-55947D01*
X51352Y-55947D01*
X51464Y-55901D01*
X51550Y-55815D01*
X51596Y-55703D01*
X51596Y-55582D01*
X51596Y-62675D01*
X50101Y-62675D01*
X50101Y-28739D01*
X50055Y-28627D01*
X49969Y-28541D01*
X49857Y-28494D01*
X49736Y-28494D01*
X49623Y-28541D01*
X49538Y-28626D01*
X49491Y-28738D01*
X49491Y-28860D01*
X49537Y-28972D01*
X49623Y-29058D01*
X49735Y-29104D01*
X49856Y-29104D01*
X49968Y-29058D01*
X50054Y-28972D01*
X50101Y-28860D01*
X50101Y-28739D01*
X50101Y-62675D01*
X50063Y-62675D01*
X50063Y-40201D01*
X50016Y-40089D01*
X49931Y-40003D01*
X49819Y-39957D01*
X49697Y-39957D01*
X49585Y-40003D01*
X49499Y-40089D01*
X49453Y-40201D01*
X49453Y-40322D01*
X49468Y-40358D01*
X49412Y-40336D01*
X49291Y-40335D01*
X49179Y-40382D01*
X49093Y-40467D01*
X49046Y-40580D01*
X49046Y-40701D01*
X49093Y-40813D01*
X49178Y-40899D01*
X49290Y-40945D01*
X49412Y-40946D01*
X49524Y-40899D01*
X49610Y-40813D01*
X49656Y-40701D01*
X49656Y-40580D01*
X49642Y-40544D01*
X49697Y-40567D01*
X49818Y-40567D01*
X49930Y-40521D01*
X50016Y-40435D01*
X50063Y-40323D01*
X50063Y-40201D01*
X50063Y-62675D01*
X49996Y-62675D01*
X49996Y-60026D01*
X49996Y-59026D01*
X49921Y-58844D01*
X49781Y-58704D01*
X49599Y-58628D01*
X49401Y-58628D01*
X49219Y-58703D01*
X49079Y-58843D01*
X49003Y-59025D01*
X49003Y-59223D01*
X49078Y-59405D01*
X49218Y-59545D01*
X49400Y-59621D01*
X49598Y-59621D01*
X49780Y-59546D01*
X49920Y-59406D01*
X49996Y-59224D01*
X49996Y-59026D01*
X49996Y-60026D01*
X49921Y-59844D01*
X49781Y-59704D01*
X49599Y-59628D01*
X49401Y-59628D01*
X49219Y-59703D01*
X49079Y-59843D01*
X49003Y-60025D01*
X49003Y-60223D01*
X49078Y-60405D01*
X49218Y-60545D01*
X49400Y-60621D01*
X49598Y-60621D01*
X49780Y-60546D01*
X49920Y-60406D01*
X49996Y-60224D01*
X49996Y-60026D01*
X49996Y-62675D01*
X49396Y-62675D01*
X49396Y-61989D01*
X49349Y-61877D01*
X49263Y-61791D01*
X49151Y-61745D01*
X49030Y-61744D01*
X48996Y-61759D01*
X48996Y-60026D01*
X48996Y-59026D01*
X48921Y-58844D01*
X48880Y-58802D01*
X48880Y-45670D01*
X48833Y-45558D01*
X48814Y-45539D01*
X48814Y-36289D01*
X48768Y-36177D01*
X48682Y-36091D01*
X48659Y-36081D01*
X48659Y-32796D01*
X48613Y-32684D01*
X48527Y-32598D01*
X48415Y-32552D01*
X48293Y-32552D01*
X48181Y-32598D01*
X48095Y-32684D01*
X48049Y-32796D01*
X48049Y-32917D01*
X48095Y-33029D01*
X48181Y-33115D01*
X48293Y-33162D01*
X48414Y-33162D01*
X48526Y-33115D01*
X48612Y-33030D01*
X48659Y-32918D01*
X48659Y-32796D01*
X48659Y-36081D01*
X48570Y-36045D01*
X48449Y-36044D01*
X48337Y-36091D01*
X48251Y-36177D01*
X48204Y-36289D01*
X48204Y-36410D01*
X48250Y-36522D01*
X48336Y-36608D01*
X48448Y-36654D01*
X48570Y-36655D01*
X48682Y-36608D01*
X48768Y-36522D01*
X48814Y-36410D01*
X48814Y-36289D01*
X48814Y-45539D01*
X48747Y-45472D01*
X48690Y-45448D01*
X48690Y-38282D01*
X48643Y-38170D01*
X48558Y-38084D01*
X48446Y-38037D01*
X48324Y-38037D01*
X48212Y-38084D01*
X48126Y-38169D01*
X48080Y-38281D01*
X48080Y-38403D01*
X48126Y-38515D01*
X48212Y-38601D01*
X48324Y-38647D01*
X48445Y-38647D01*
X48557Y-38601D01*
X48643Y-38515D01*
X48690Y-38403D01*
X48690Y-38282D01*
X48690Y-45448D01*
X48635Y-45425D01*
X48514Y-45425D01*
X48402Y-45472D01*
X48316Y-45557D01*
X48270Y-45669D01*
X48269Y-45791D01*
X48316Y-45903D01*
X48402Y-45989D01*
X48514Y-46035D01*
X48635Y-46035D01*
X48747Y-45989D01*
X48833Y-45903D01*
X48879Y-45791D01*
X48880Y-45670D01*
X48880Y-58802D01*
X48781Y-58704D01*
X48661Y-58654D01*
X48661Y-49841D01*
X48615Y-49728D01*
X48529Y-49643D01*
X48417Y-49596D01*
X48296Y-49596D01*
X48184Y-49642D01*
X48098Y-49728D01*
X48051Y-49840D01*
X48051Y-49961D01*
X48097Y-50073D01*
X48183Y-50159D01*
X48295Y-50206D01*
X48417Y-50206D01*
X48529Y-50160D01*
X48615Y-50074D01*
X48661Y-49962D01*
X48661Y-49841D01*
X48661Y-58654D01*
X48599Y-58628D01*
X48401Y-58628D01*
X48401Y-58628D01*
X48401Y-53197D01*
X48401Y-51197D01*
X48393Y-50910D01*
X48298Y-50683D01*
X48185Y-50635D01*
X48114Y-50705D01*
X48114Y-50564D01*
X48066Y-50451D01*
X47797Y-50348D01*
X47636Y-50353D01*
X47636Y-25033D01*
X47590Y-24921D01*
X47504Y-24835D01*
X47392Y-24788D01*
X47271Y-24788D01*
X47159Y-24835D01*
X47073Y-24920D01*
X47026Y-25032D01*
X47026Y-25154D01*
X47072Y-25266D01*
X47158Y-25352D01*
X47270Y-25398D01*
X47392Y-25398D01*
X47504Y-25352D01*
X47590Y-25266D01*
X47636Y-25154D01*
X47636Y-25033D01*
X47636Y-50353D01*
X47525Y-50356D01*
X47525Y-38055D01*
X47478Y-37942D01*
X47393Y-37857D01*
X47281Y-37810D01*
X47159Y-37810D01*
X47047Y-37856D01*
X46961Y-37942D01*
X46917Y-38049D01*
X46917Y-34583D01*
X46871Y-34471D01*
X46785Y-34385D01*
X46673Y-34339D01*
X46580Y-34339D01*
X46580Y-32464D01*
X46533Y-32352D01*
X46447Y-32266D01*
X46335Y-32220D01*
X46290Y-32220D01*
X46290Y-30153D01*
X46244Y-30041D01*
X46158Y-29955D01*
X46046Y-29908D01*
X45925Y-29908D01*
X45910Y-29914D01*
X45910Y-28945D01*
X45863Y-28833D01*
X45778Y-28747D01*
X45708Y-28718D01*
X45708Y-23822D01*
X45662Y-23709D01*
X45576Y-23624D01*
X45464Y-23577D01*
X45342Y-23577D01*
X45230Y-23623D01*
X45144Y-23709D01*
X45098Y-23821D01*
X45098Y-23942D01*
X45144Y-24054D01*
X45230Y-24140D01*
X45342Y-24187D01*
X45463Y-24187D01*
X45575Y-24141D01*
X45661Y-24055D01*
X45708Y-23943D01*
X45708Y-23822D01*
X45708Y-28718D01*
X45666Y-28701D01*
X45544Y-28701D01*
X45432Y-28747D01*
X45346Y-28833D01*
X45300Y-28945D01*
X45300Y-29066D01*
X45346Y-29178D01*
X45432Y-29264D01*
X45544Y-29311D01*
X45665Y-29311D01*
X45777Y-29264D01*
X45863Y-29179D01*
X45910Y-29066D01*
X45910Y-28945D01*
X45910Y-29914D01*
X45813Y-29954D01*
X45727Y-30040D01*
X45680Y-30152D01*
X45680Y-30274D01*
X45726Y-30386D01*
X45812Y-30472D01*
X45924Y-30518D01*
X46045Y-30518D01*
X46158Y-30472D01*
X46244Y-30386D01*
X46290Y-30274D01*
X46290Y-30153D01*
X46290Y-32220D01*
X46214Y-32219D01*
X46102Y-32266D01*
X46016Y-32352D01*
X45970Y-32464D01*
X45969Y-32585D01*
X46016Y-32697D01*
X46102Y-32783D01*
X46214Y-32829D01*
X46335Y-32830D01*
X46447Y-32783D01*
X46533Y-32697D01*
X46579Y-32585D01*
X46580Y-32464D01*
X46580Y-34339D01*
X46552Y-34339D01*
X46439Y-34385D01*
X46354Y-34471D01*
X46307Y-34583D01*
X46307Y-34704D01*
X46353Y-34816D01*
X46439Y-34902D01*
X46551Y-34949D01*
X46672Y-34949D01*
X46784Y-34902D01*
X46870Y-34817D01*
X46917Y-34705D01*
X46917Y-34583D01*
X46917Y-38049D01*
X46915Y-38054D01*
X46915Y-38175D01*
X46961Y-38288D01*
X47047Y-38373D01*
X47159Y-38420D01*
X47280Y-38420D01*
X47392Y-38374D01*
X47478Y-38288D01*
X47525Y-38176D01*
X47525Y-38055D01*
X47525Y-50356D01*
X47510Y-50356D01*
X47283Y-50451D01*
X47235Y-50564D01*
X47675Y-51004D01*
X48114Y-50564D01*
X48114Y-50705D01*
X47745Y-51075D01*
X48185Y-51514D01*
X48298Y-51466D01*
X48401Y-51197D01*
X48401Y-53197D01*
X48393Y-52910D01*
X48298Y-52683D01*
X48185Y-52635D01*
X48114Y-52705D01*
X48114Y-52564D01*
X48114Y-51585D01*
X47675Y-51145D01*
X47604Y-51216D01*
X47604Y-51075D01*
X47164Y-50635D01*
X47051Y-50683D01*
X46948Y-50952D01*
X46956Y-51239D01*
X47051Y-51466D01*
X47164Y-51514D01*
X47604Y-51075D01*
X47604Y-51216D01*
X47235Y-51585D01*
X47283Y-51698D01*
X47552Y-51801D01*
X47839Y-51793D01*
X48066Y-51698D01*
X48114Y-51585D01*
X48114Y-52564D01*
X48066Y-52451D01*
X47797Y-52348D01*
X47510Y-52356D01*
X47297Y-52445D01*
X47297Y-51951D01*
X47202Y-51722D01*
X47028Y-51547D01*
X46799Y-51452D01*
X46551Y-51452D01*
X46401Y-51514D01*
X46401Y-51197D01*
X46393Y-50910D01*
X46367Y-50847D01*
X46367Y-47764D01*
X46330Y-47675D01*
X46330Y-39132D01*
X46283Y-39020D01*
X46197Y-38934D01*
X46085Y-38888D01*
X45964Y-38888D01*
X45852Y-38934D01*
X45766Y-39020D01*
X45720Y-39132D01*
X45719Y-39253D01*
X45766Y-39365D01*
X45852Y-39451D01*
X45964Y-39498D01*
X46085Y-39498D01*
X46197Y-39452D01*
X46283Y-39366D01*
X46329Y-39254D01*
X46330Y-39132D01*
X46330Y-47675D01*
X46320Y-47652D01*
X46234Y-47566D01*
X46122Y-47520D01*
X46001Y-47519D01*
X45889Y-47566D01*
X45803Y-47652D01*
X45757Y-47764D01*
X45756Y-47885D01*
X45803Y-47997D01*
X45888Y-48083D01*
X46001Y-48129D01*
X46122Y-48130D01*
X46234Y-48083D01*
X46320Y-47997D01*
X46366Y-47885D01*
X46367Y-47764D01*
X46367Y-50847D01*
X46298Y-50683D01*
X46185Y-50635D01*
X46114Y-50705D01*
X46114Y-50564D01*
X46066Y-50451D01*
X45991Y-50422D01*
X45991Y-49189D01*
X45945Y-49077D01*
X45859Y-48991D01*
X45747Y-48945D01*
X45625Y-48945D01*
X45586Y-48961D01*
X45586Y-34494D01*
X45540Y-34382D01*
X45454Y-34296D01*
X45342Y-34250D01*
X45220Y-34249D01*
X45108Y-34296D01*
X45022Y-34381D01*
X44976Y-34494D01*
X44976Y-34615D01*
X45022Y-34727D01*
X45108Y-34813D01*
X45220Y-34859D01*
X45341Y-34860D01*
X45453Y-34813D01*
X45539Y-34727D01*
X45586Y-34615D01*
X45586Y-34494D01*
X45586Y-48961D01*
X45513Y-48991D01*
X45427Y-49077D01*
X45381Y-49189D01*
X45381Y-49310D01*
X45427Y-49422D01*
X45513Y-49508D01*
X45625Y-49555D01*
X45746Y-49555D01*
X45858Y-49508D01*
X45944Y-49423D01*
X45991Y-49311D01*
X45991Y-49189D01*
X45991Y-50422D01*
X45797Y-50348D01*
X45510Y-50356D01*
X45283Y-50451D01*
X45235Y-50564D01*
X45675Y-51004D01*
X46114Y-50564D01*
X46114Y-50705D01*
X45745Y-51075D01*
X46185Y-51514D01*
X46298Y-51466D01*
X46401Y-51197D01*
X46401Y-51514D01*
X46322Y-51547D01*
X46147Y-51721D01*
X46114Y-51800D01*
X46114Y-51585D01*
X45675Y-51145D01*
X45604Y-51216D01*
X45604Y-51075D01*
X45164Y-50635D01*
X45051Y-50683D01*
X44948Y-50952D01*
X44956Y-51239D01*
X45051Y-51466D01*
X45164Y-51514D01*
X45604Y-51075D01*
X45604Y-51216D01*
X45235Y-51585D01*
X45283Y-51698D01*
X45552Y-51801D01*
X45839Y-51793D01*
X46066Y-51698D01*
X46114Y-51585D01*
X46114Y-51800D01*
X46052Y-51950D01*
X46052Y-52198D01*
X46147Y-52427D01*
X46321Y-52602D01*
X46550Y-52697D01*
X46798Y-52697D01*
X47027Y-52602D01*
X47202Y-52428D01*
X47297Y-52199D01*
X47297Y-51951D01*
X47297Y-52445D01*
X47283Y-52451D01*
X47235Y-52564D01*
X47675Y-53004D01*
X48114Y-52564D01*
X48114Y-52705D01*
X47745Y-53075D01*
X48185Y-53514D01*
X48298Y-53466D01*
X48401Y-53197D01*
X48401Y-58628D01*
X48219Y-58703D01*
X48114Y-58807D01*
X48114Y-53585D01*
X47675Y-53145D01*
X47604Y-53216D01*
X47604Y-53075D01*
X47164Y-52635D01*
X47051Y-52683D01*
X46948Y-52952D01*
X46956Y-53239D01*
X47051Y-53466D01*
X47164Y-53514D01*
X47604Y-53075D01*
X47604Y-53216D01*
X47235Y-53585D01*
X47283Y-53698D01*
X47552Y-53801D01*
X47839Y-53793D01*
X48066Y-53698D01*
X48114Y-53585D01*
X48114Y-58807D01*
X48079Y-58843D01*
X48003Y-59025D01*
X48003Y-59223D01*
X48078Y-59405D01*
X48218Y-59545D01*
X48400Y-59621D01*
X48598Y-59621D01*
X48780Y-59546D01*
X48920Y-59406D01*
X48996Y-59224D01*
X48996Y-59026D01*
X48996Y-60026D01*
X48921Y-59844D01*
X48781Y-59704D01*
X48599Y-59628D01*
X48401Y-59628D01*
X48219Y-59703D01*
X48079Y-59843D01*
X48003Y-60025D01*
X48003Y-60223D01*
X48078Y-60405D01*
X48218Y-60545D01*
X48400Y-60621D01*
X48598Y-60621D01*
X48780Y-60546D01*
X48920Y-60406D01*
X48996Y-60224D01*
X48996Y-60026D01*
X48996Y-61759D01*
X48918Y-61791D01*
X48832Y-61877D01*
X48786Y-61989D01*
X48785Y-62110D01*
X48832Y-62222D01*
X48917Y-62308D01*
X49030Y-62354D01*
X49151Y-62355D01*
X49263Y-62308D01*
X49349Y-62223D01*
X49395Y-62110D01*
X49396Y-61989D01*
X49396Y-62675D01*
X47996Y-62675D01*
X47996Y-60026D01*
X47996Y-59026D01*
X47921Y-58844D01*
X47781Y-58704D01*
X47599Y-58628D01*
X47401Y-58628D01*
X47219Y-58703D01*
X47079Y-58843D01*
X47003Y-59025D01*
X47003Y-59223D01*
X47078Y-59405D01*
X47218Y-59545D01*
X47400Y-59621D01*
X47598Y-59621D01*
X47780Y-59546D01*
X47920Y-59406D01*
X47996Y-59224D01*
X47996Y-59026D01*
X47996Y-60026D01*
X47921Y-59844D01*
X47781Y-59704D01*
X47599Y-59628D01*
X47401Y-59628D01*
X47219Y-59703D01*
X47079Y-59843D01*
X47003Y-60025D01*
X47003Y-60223D01*
X47078Y-60405D01*
X47218Y-60545D01*
X47400Y-60621D01*
X47598Y-60621D01*
X47780Y-60546D01*
X47920Y-60406D01*
X47996Y-60224D01*
X47996Y-60026D01*
X47996Y-62675D01*
X46996Y-62675D01*
X46996Y-60026D01*
X46996Y-59026D01*
X46921Y-58844D01*
X46781Y-58704D01*
X46599Y-58628D01*
X46401Y-58628D01*
X46401Y-58628D01*
X46401Y-53197D01*
X46393Y-52910D01*
X46298Y-52683D01*
X46185Y-52635D01*
X46114Y-52705D01*
X46114Y-52564D01*
X46066Y-52451D01*
X45797Y-52348D01*
X45510Y-52356D01*
X45283Y-52451D01*
X45235Y-52564D01*
X45675Y-53004D01*
X46114Y-52564D01*
X46114Y-52705D01*
X45745Y-53075D01*
X46185Y-53514D01*
X46298Y-53466D01*
X46401Y-53197D01*
X46401Y-58628D01*
X46257Y-58687D01*
X46257Y-56990D01*
X46211Y-56878D01*
X46125Y-56792D01*
X46114Y-56788D01*
X46114Y-53585D01*
X45675Y-53145D01*
X45604Y-53216D01*
X45604Y-53075D01*
X45164Y-52635D01*
X45051Y-52683D01*
X44948Y-52952D01*
X44956Y-53239D01*
X45051Y-53466D01*
X45164Y-53514D01*
X45604Y-53075D01*
X45604Y-53216D01*
X45235Y-53585D01*
X45283Y-53698D01*
X45552Y-53801D01*
X45839Y-53793D01*
X46066Y-53698D01*
X46114Y-53585D01*
X46114Y-56788D01*
X46013Y-56746D01*
X45892Y-56746D01*
X45779Y-56792D01*
X45694Y-56878D01*
X45647Y-56990D01*
X45647Y-57111D01*
X45693Y-57223D01*
X45779Y-57309D01*
X45891Y-57356D01*
X46012Y-57356D01*
X46125Y-57309D01*
X46210Y-57224D01*
X46257Y-57112D01*
X46257Y-56990D01*
X46257Y-58687D01*
X46219Y-58703D01*
X46079Y-58843D01*
X46003Y-59025D01*
X46003Y-59223D01*
X46078Y-59405D01*
X46218Y-59545D01*
X46400Y-59621D01*
X46598Y-59621D01*
X46780Y-59546D01*
X46920Y-59406D01*
X46996Y-59224D01*
X46996Y-59026D01*
X46996Y-60026D01*
X46921Y-59844D01*
X46781Y-59704D01*
X46599Y-59628D01*
X46401Y-59628D01*
X46219Y-59703D01*
X46079Y-59843D01*
X46056Y-59898D01*
X46019Y-59809D01*
X45996Y-59801D01*
X45996Y-59026D01*
X45921Y-58844D01*
X45781Y-58704D01*
X45599Y-58628D01*
X45401Y-58628D01*
X45219Y-58703D01*
X45079Y-58843D01*
X45056Y-58898D01*
X45019Y-58809D01*
X44919Y-58776D01*
X44848Y-58846D01*
X44848Y-58705D01*
X44815Y-58605D01*
X44592Y-58523D01*
X44355Y-58534D01*
X44184Y-58605D01*
X44151Y-58705D01*
X44500Y-59054D01*
X44848Y-58705D01*
X44848Y-58846D01*
X44570Y-59125D01*
X44919Y-59473D01*
X45019Y-59440D01*
X45054Y-59346D01*
X45078Y-59405D01*
X45218Y-59545D01*
X45273Y-59568D01*
X45184Y-59605D01*
X45151Y-59705D01*
X45500Y-60054D01*
X45848Y-59705D01*
X45815Y-59605D01*
X45721Y-59570D01*
X45780Y-59546D01*
X45920Y-59406D01*
X45996Y-59224D01*
X45996Y-59026D01*
X45996Y-59801D01*
X45919Y-59776D01*
X45570Y-60125D01*
X45919Y-60473D01*
X46019Y-60440D01*
X46054Y-60346D01*
X46078Y-60405D01*
X46218Y-60545D01*
X46400Y-60621D01*
X46598Y-60621D01*
X46780Y-60546D01*
X46920Y-60406D01*
X46996Y-60224D01*
X46996Y-60026D01*
X46996Y-62675D01*
X45848Y-62675D01*
X45848Y-60544D01*
X45500Y-60195D01*
X45429Y-60266D01*
X45429Y-60125D01*
X45080Y-59776D01*
X44980Y-59809D01*
X44945Y-59903D01*
X44921Y-59844D01*
X44781Y-59704D01*
X44726Y-59681D01*
X44815Y-59644D01*
X44848Y-59544D01*
X44500Y-59195D01*
X44429Y-59266D01*
X44429Y-59125D01*
X44080Y-58776D01*
X43980Y-58809D01*
X43945Y-58903D01*
X43921Y-58844D01*
X43781Y-58704D01*
X43680Y-58662D01*
X43680Y-40827D01*
X43633Y-40714D01*
X43547Y-40629D01*
X43507Y-40612D01*
X43507Y-32370D01*
X43460Y-32257D01*
X43375Y-32172D01*
X43263Y-32125D01*
X43141Y-32125D01*
X43029Y-32171D01*
X42943Y-32257D01*
X42897Y-32369D01*
X42897Y-32490D01*
X42943Y-32603D01*
X43029Y-32688D01*
X43141Y-32735D01*
X43262Y-32735D01*
X43374Y-32689D01*
X43460Y-32603D01*
X43507Y-32491D01*
X43507Y-32370D01*
X43507Y-40612D01*
X43435Y-40582D01*
X43314Y-40582D01*
X43202Y-40628D01*
X43116Y-40714D01*
X43070Y-40826D01*
X43069Y-40947D01*
X43116Y-41060D01*
X43202Y-41145D01*
X43314Y-41192D01*
X43435Y-41192D01*
X43547Y-41146D01*
X43633Y-41060D01*
X43679Y-40948D01*
X43680Y-40827D01*
X43680Y-58662D01*
X43599Y-58628D01*
X43446Y-58628D01*
X43446Y-42847D01*
X43400Y-42735D01*
X43314Y-42649D01*
X43202Y-42602D01*
X43081Y-42602D01*
X42969Y-42649D01*
X42883Y-42734D01*
X42836Y-42846D01*
X42836Y-42968D01*
X42883Y-43080D01*
X42968Y-43166D01*
X43080Y-43212D01*
X43202Y-43212D01*
X43314Y-43166D01*
X43400Y-43080D01*
X43446Y-42968D01*
X43446Y-42847D01*
X43446Y-58628D01*
X43401Y-58628D01*
X43219Y-58703D01*
X43079Y-58843D01*
X43003Y-59025D01*
X43003Y-59223D01*
X43078Y-59405D01*
X43218Y-59545D01*
X43400Y-59621D01*
X43598Y-59621D01*
X43780Y-59546D01*
X43920Y-59406D01*
X43943Y-59351D01*
X43980Y-59440D01*
X44080Y-59473D01*
X44429Y-59125D01*
X44429Y-59266D01*
X44151Y-59544D01*
X44184Y-59644D01*
X44278Y-59679D01*
X44219Y-59703D01*
X44079Y-59843D01*
X44003Y-60025D01*
X44003Y-60223D01*
X44078Y-60405D01*
X44218Y-60545D01*
X44400Y-60621D01*
X44598Y-60621D01*
X44780Y-60546D01*
X44920Y-60406D01*
X44943Y-60351D01*
X44980Y-60440D01*
X45080Y-60473D01*
X45429Y-60125D01*
X45429Y-60266D01*
X45151Y-60544D01*
X45184Y-60644D01*
X45407Y-60726D01*
X45644Y-60715D01*
X45815Y-60644D01*
X45848Y-60544D01*
X45848Y-62675D01*
X43996Y-62675D01*
X43996Y-60026D01*
X43921Y-59844D01*
X43781Y-59704D01*
X43599Y-59628D01*
X43401Y-59628D01*
X43219Y-59703D01*
X43079Y-59843D01*
X43003Y-60025D01*
X43003Y-60223D01*
X43078Y-60405D01*
X43218Y-60545D01*
X43400Y-60621D01*
X43598Y-60621D01*
X43780Y-60546D01*
X43920Y-60406D01*
X43996Y-60224D01*
X43996Y-60026D01*
X43996Y-62675D01*
X42996Y-62675D01*
X42996Y-60026D01*
X42996Y-59026D01*
X42921Y-58844D01*
X42781Y-58704D01*
X42688Y-58665D01*
X42688Y-42314D01*
X42641Y-42202D01*
X42556Y-42116D01*
X42443Y-42070D01*
X42322Y-42069D01*
X42210Y-42116D01*
X42124Y-42202D01*
X42078Y-42314D01*
X42077Y-42435D01*
X42124Y-42547D01*
X42210Y-42633D01*
X42322Y-42679D01*
X42443Y-42680D01*
X42555Y-42633D01*
X42641Y-42547D01*
X42687Y-42435D01*
X42688Y-42314D01*
X42688Y-58665D01*
X42599Y-58628D01*
X42517Y-58628D01*
X42517Y-46543D01*
X42471Y-46431D01*
X42385Y-46345D01*
X42273Y-46298D01*
X42152Y-46298D01*
X42039Y-46344D01*
X41954Y-46430D01*
X41907Y-46542D01*
X41907Y-46664D01*
X41953Y-46776D01*
X42039Y-46862D01*
X42151Y-46908D01*
X42272Y-46908D01*
X42385Y-46862D01*
X42470Y-46776D01*
X42517Y-46664D01*
X42517Y-46543D01*
X42517Y-58628D01*
X42401Y-58628D01*
X42219Y-58703D01*
X42079Y-58843D01*
X42003Y-59025D01*
X42003Y-59223D01*
X42078Y-59405D01*
X42218Y-59545D01*
X42400Y-59621D01*
X42598Y-59621D01*
X42780Y-59546D01*
X42920Y-59406D01*
X42996Y-59224D01*
X42996Y-59026D01*
X42996Y-60026D01*
X42921Y-59844D01*
X42781Y-59704D01*
X42599Y-59628D01*
X42401Y-59628D01*
X42219Y-59703D01*
X42079Y-59843D01*
X42003Y-60025D01*
X42003Y-60223D01*
X42078Y-60405D01*
X42218Y-60545D01*
X42400Y-60621D01*
X42598Y-60621D01*
X42780Y-60546D01*
X42920Y-60406D01*
X42996Y-60224D01*
X42996Y-60026D01*
X42996Y-62675D01*
X41996Y-62675D01*
X41996Y-60026D01*
X41996Y-59026D01*
X41921Y-58844D01*
X41864Y-58787D01*
X41864Y-36230D01*
X41818Y-36118D01*
X41740Y-36040D01*
X41740Y-33164D01*
X41694Y-33052D01*
X41608Y-32966D01*
X41505Y-32923D01*
X41505Y-25039D01*
X41458Y-24927D01*
X41372Y-24841D01*
X41260Y-24794D01*
X41139Y-24794D01*
X41027Y-24841D01*
X40941Y-24926D01*
X40895Y-25038D01*
X40894Y-25160D01*
X40941Y-25272D01*
X41027Y-25358D01*
X41139Y-25404D01*
X41260Y-25404D01*
X41372Y-25358D01*
X41458Y-25272D01*
X41504Y-25160D01*
X41505Y-25039D01*
X41505Y-32923D01*
X41496Y-32919D01*
X41375Y-32919D01*
X41263Y-32966D01*
X41177Y-33051D01*
X41130Y-33163D01*
X41130Y-33285D01*
X41177Y-33397D01*
X41262Y-33483D01*
X41374Y-33529D01*
X41496Y-33529D01*
X41608Y-33483D01*
X41694Y-33397D01*
X41740Y-33285D01*
X41740Y-33164D01*
X41740Y-36040D01*
X41732Y-36032D01*
X41620Y-35985D01*
X41499Y-35985D01*
X41386Y-36032D01*
X41301Y-36117D01*
X41254Y-36229D01*
X41254Y-36351D01*
X41300Y-36463D01*
X41386Y-36549D01*
X41498Y-36595D01*
X41619Y-36595D01*
X41732Y-36549D01*
X41817Y-36463D01*
X41864Y-36351D01*
X41864Y-36230D01*
X41864Y-58787D01*
X41781Y-58704D01*
X41599Y-58628D01*
X41507Y-58628D01*
X41507Y-39268D01*
X41461Y-39156D01*
X41375Y-39070D01*
X41311Y-39044D01*
X41383Y-38972D01*
X41429Y-38860D01*
X41430Y-38739D01*
X41383Y-38627D01*
X41297Y-38541D01*
X41185Y-38494D01*
X41064Y-38494D01*
X40952Y-38541D01*
X40866Y-38626D01*
X40820Y-38738D01*
X40819Y-38860D01*
X40866Y-38972D01*
X40952Y-39058D01*
X41015Y-39084D01*
X40944Y-39156D01*
X40897Y-39268D01*
X40897Y-39389D01*
X40944Y-39501D01*
X41029Y-39587D01*
X41141Y-39633D01*
X41263Y-39634D01*
X41375Y-39587D01*
X41461Y-39502D01*
X41507Y-39389D01*
X41507Y-39268D01*
X41507Y-58628D01*
X41401Y-58628D01*
X41219Y-58703D01*
X41079Y-58843D01*
X41003Y-59025D01*
X41003Y-59223D01*
X41078Y-59405D01*
X41218Y-59545D01*
X41400Y-59621D01*
X41598Y-59621D01*
X41780Y-59546D01*
X41920Y-59406D01*
X41996Y-59224D01*
X41996Y-59026D01*
X41996Y-60026D01*
X41921Y-59844D01*
X41781Y-59704D01*
X41599Y-59628D01*
X41401Y-59628D01*
X41219Y-59703D01*
X41079Y-59843D01*
X41003Y-60025D01*
X41003Y-60223D01*
X41078Y-60405D01*
X41218Y-60545D01*
X41400Y-60621D01*
X41598Y-60621D01*
X41780Y-60546D01*
X41920Y-60406D01*
X41996Y-60224D01*
X41996Y-60026D01*
X41996Y-62675D01*
X40996Y-62675D01*
X40996Y-60026D01*
X40996Y-59026D01*
X40921Y-58844D01*
X40781Y-58704D01*
X40665Y-58655D01*
X40665Y-28314D01*
X40618Y-28202D01*
X40532Y-28116D01*
X40420Y-28070D01*
X40299Y-28070D01*
X40187Y-28116D01*
X40101Y-28202D01*
X40055Y-28314D01*
X40054Y-28435D01*
X40101Y-28547D01*
X40187Y-28633D01*
X40299Y-28680D01*
X40420Y-28680D01*
X40532Y-28633D01*
X40618Y-28548D01*
X40664Y-28436D01*
X40665Y-28314D01*
X40665Y-58655D01*
X40599Y-58628D01*
X40595Y-58628D01*
X40595Y-57504D01*
X40548Y-57392D01*
X40463Y-57306D01*
X40351Y-57260D01*
X40229Y-57260D01*
X40117Y-57306D01*
X40031Y-57392D01*
X39985Y-57504D01*
X39985Y-57625D01*
X40031Y-57737D01*
X40117Y-57823D01*
X40229Y-57870D01*
X40350Y-57870D01*
X40462Y-57823D01*
X40548Y-57738D01*
X40595Y-57626D01*
X40595Y-57504D01*
X40595Y-58628D01*
X40401Y-58628D01*
X40219Y-58703D01*
X40079Y-58843D01*
X40056Y-58898D01*
X40019Y-58809D01*
X39919Y-58776D01*
X39848Y-58846D01*
X39848Y-58705D01*
X39815Y-58605D01*
X39592Y-58523D01*
X39555Y-58525D01*
X39555Y-33477D01*
X39509Y-33365D01*
X39423Y-33279D01*
X39396Y-33268D01*
X39396Y-25698D01*
X39349Y-25586D01*
X39264Y-25500D01*
X39152Y-25453D01*
X39030Y-25453D01*
X38918Y-25500D01*
X38832Y-25585D01*
X38786Y-25697D01*
X38786Y-25819D01*
X38832Y-25931D01*
X38918Y-26017D01*
X39030Y-26063D01*
X39151Y-26063D01*
X39263Y-26017D01*
X39349Y-25931D01*
X39396Y-25819D01*
X39396Y-25698D01*
X39396Y-33268D01*
X39311Y-33233D01*
X39190Y-33233D01*
X39077Y-33279D01*
X38992Y-33365D01*
X38945Y-33477D01*
X38945Y-33598D01*
X38991Y-33710D01*
X39006Y-33725D01*
X38963Y-33725D01*
X38851Y-33771D01*
X38765Y-33857D01*
X38719Y-33969D01*
X38719Y-34090D01*
X38765Y-34203D01*
X38851Y-34288D01*
X38963Y-34335D01*
X39084Y-34335D01*
X39196Y-34289D01*
X39282Y-34203D01*
X39329Y-34091D01*
X39329Y-33970D01*
X39282Y-33857D01*
X39268Y-33843D01*
X39310Y-33843D01*
X39423Y-33796D01*
X39508Y-33711D01*
X39555Y-33599D01*
X39555Y-33477D01*
X39555Y-58525D01*
X39355Y-58534D01*
X39184Y-58605D01*
X39151Y-58705D01*
X39500Y-59054D01*
X39848Y-58705D01*
X39848Y-58846D01*
X39570Y-59125D01*
X39919Y-59473D01*
X40019Y-59440D01*
X40054Y-59346D01*
X40078Y-59405D01*
X40218Y-59545D01*
X40400Y-59621D01*
X40598Y-59621D01*
X40780Y-59546D01*
X40920Y-59406D01*
X40996Y-59224D01*
X40996Y-59026D01*
X40996Y-60026D01*
X40921Y-59844D01*
X40781Y-59704D01*
X40599Y-59628D01*
X40401Y-59628D01*
X40219Y-59703D01*
X40079Y-59843D01*
X40056Y-59898D01*
X40019Y-59809D01*
X39919Y-59776D01*
X39848Y-59846D01*
X39848Y-59705D01*
X39822Y-59625D01*
X39848Y-59544D01*
X39500Y-59195D01*
X39429Y-59266D01*
X39429Y-59125D01*
X39080Y-58776D01*
X38980Y-58809D01*
X38945Y-58903D01*
X38921Y-58844D01*
X38781Y-58704D01*
X38715Y-58676D01*
X38715Y-23792D01*
X38669Y-23679D01*
X38583Y-23594D01*
X38471Y-23547D01*
X38350Y-23547D01*
X38238Y-23593D01*
X38152Y-23679D01*
X38105Y-23791D01*
X38105Y-23912D01*
X38151Y-24024D01*
X38237Y-24110D01*
X38349Y-24157D01*
X38470Y-24157D01*
X38583Y-24111D01*
X38668Y-24025D01*
X38715Y-23913D01*
X38715Y-23792D01*
X38715Y-58676D01*
X38599Y-58628D01*
X38582Y-58628D01*
X38582Y-40633D01*
X38536Y-40521D01*
X38451Y-40435D01*
X38451Y-39097D01*
X38451Y-37097D01*
X38443Y-36810D01*
X38348Y-36583D01*
X38235Y-36535D01*
X38164Y-36605D01*
X38164Y-36464D01*
X38116Y-36351D01*
X37847Y-36248D01*
X37560Y-36256D01*
X37333Y-36351D01*
X37285Y-36464D01*
X37725Y-36904D01*
X38164Y-36464D01*
X38164Y-36605D01*
X37795Y-36975D01*
X38235Y-37414D01*
X38348Y-37366D01*
X38451Y-37097D01*
X38451Y-39097D01*
X38443Y-38810D01*
X38348Y-38583D01*
X38235Y-38535D01*
X38164Y-38605D01*
X38164Y-38464D01*
X38164Y-37485D01*
X37725Y-37045D01*
X37654Y-37116D01*
X37654Y-36975D01*
X37214Y-36535D01*
X37101Y-36583D01*
X36998Y-36852D01*
X37006Y-37139D01*
X37101Y-37366D01*
X37214Y-37414D01*
X37654Y-36975D01*
X37654Y-37116D01*
X37285Y-37485D01*
X37333Y-37598D01*
X37602Y-37701D01*
X37889Y-37693D01*
X38116Y-37598D01*
X38164Y-37485D01*
X38164Y-38464D01*
X38116Y-38351D01*
X37847Y-38248D01*
X37560Y-38256D01*
X37347Y-38345D01*
X37347Y-37851D01*
X37252Y-37622D01*
X37078Y-37447D01*
X36849Y-37352D01*
X36601Y-37352D01*
X36451Y-37414D01*
X36451Y-37097D01*
X36443Y-36810D01*
X36348Y-36583D01*
X36235Y-36535D01*
X36164Y-36605D01*
X35795Y-36975D01*
X36235Y-37414D01*
X36348Y-37366D01*
X36451Y-37097D01*
X36451Y-37414D01*
X36372Y-37447D01*
X36197Y-37621D01*
X36164Y-37700D01*
X36102Y-37850D01*
X36102Y-38098D01*
X36197Y-38327D01*
X36371Y-38502D01*
X36600Y-38597D01*
X36848Y-38597D01*
X37077Y-38502D01*
X37252Y-38328D01*
X37347Y-38099D01*
X37347Y-37851D01*
X37347Y-38345D01*
X37333Y-38351D01*
X37285Y-38464D01*
X37725Y-38904D01*
X38164Y-38464D01*
X38164Y-38605D01*
X37795Y-38975D01*
X38235Y-39414D01*
X38348Y-39366D01*
X38451Y-39097D01*
X38451Y-40435D01*
X38450Y-40435D01*
X38338Y-40388D01*
X38217Y-40388D01*
X38164Y-40410D01*
X38164Y-39485D01*
X37725Y-39045D01*
X37654Y-39116D01*
X37654Y-38975D01*
X37214Y-38535D01*
X37101Y-38583D01*
X36998Y-38852D01*
X37006Y-39139D01*
X37101Y-39366D01*
X37214Y-39414D01*
X37654Y-38975D01*
X37654Y-39116D01*
X37285Y-39485D01*
X37333Y-39598D01*
X37602Y-39701D01*
X37889Y-39693D01*
X38116Y-39598D01*
X38164Y-39485D01*
X38164Y-40410D01*
X38105Y-40435D01*
X38019Y-40520D01*
X37972Y-40632D01*
X37972Y-40754D01*
X38019Y-40866D01*
X38104Y-40952D01*
X38216Y-40998D01*
X38338Y-40998D01*
X38450Y-40952D01*
X38536Y-40866D01*
X38582Y-40754D01*
X38582Y-40633D01*
X38582Y-58628D01*
X38451Y-58628D01*
X38451Y-50197D01*
X38451Y-48197D01*
X38451Y-44997D01*
X38451Y-42997D01*
X38443Y-42710D01*
X38348Y-42483D01*
X38235Y-42435D01*
X38164Y-42505D01*
X38164Y-42364D01*
X38116Y-42251D01*
X37847Y-42148D01*
X37615Y-42155D01*
X37615Y-41364D01*
X37568Y-41252D01*
X37482Y-41166D01*
X37370Y-41120D01*
X37249Y-41119D01*
X37137Y-41166D01*
X37051Y-41252D01*
X37005Y-41364D01*
X37004Y-41485D01*
X37051Y-41597D01*
X37137Y-41683D01*
X37249Y-41729D01*
X37370Y-41730D01*
X37482Y-41683D01*
X37568Y-41597D01*
X37614Y-41485D01*
X37615Y-41364D01*
X37615Y-42155D01*
X37560Y-42156D01*
X37333Y-42251D01*
X37285Y-42364D01*
X37725Y-42804D01*
X38164Y-42364D01*
X38164Y-42505D01*
X37795Y-42875D01*
X38235Y-43314D01*
X38348Y-43266D01*
X38451Y-42997D01*
X38451Y-44997D01*
X38443Y-44710D01*
X38348Y-44483D01*
X38235Y-44435D01*
X38164Y-44505D01*
X38164Y-44364D01*
X38164Y-43385D01*
X37725Y-42945D01*
X37654Y-43016D01*
X37654Y-42875D01*
X37214Y-42435D01*
X37101Y-42483D01*
X36998Y-42752D01*
X37006Y-43039D01*
X37101Y-43266D01*
X37214Y-43314D01*
X37654Y-42875D01*
X37654Y-43016D01*
X37285Y-43385D01*
X37333Y-43498D01*
X37602Y-43601D01*
X37889Y-43593D01*
X38116Y-43498D01*
X38164Y-43385D01*
X38164Y-44364D01*
X38116Y-44251D01*
X37847Y-44148D01*
X37560Y-44156D01*
X37347Y-44245D01*
X37347Y-43751D01*
X37252Y-43522D01*
X37078Y-43347D01*
X36849Y-43252D01*
X36601Y-43252D01*
X36451Y-43314D01*
X36451Y-42997D01*
X36451Y-39097D01*
X36443Y-38810D01*
X36348Y-38583D01*
X36235Y-38535D01*
X36164Y-38605D01*
X35795Y-38975D01*
X36235Y-39414D01*
X36348Y-39366D01*
X36451Y-39097D01*
X36451Y-42997D01*
X36443Y-42710D01*
X36348Y-42483D01*
X36235Y-42435D01*
X36164Y-42505D01*
X35795Y-42875D01*
X36235Y-43314D01*
X36348Y-43266D01*
X36451Y-42997D01*
X36451Y-43314D01*
X36372Y-43347D01*
X36197Y-43521D01*
X36164Y-43600D01*
X36102Y-43750D01*
X36102Y-43998D01*
X36197Y-44227D01*
X36371Y-44402D01*
X36600Y-44497D01*
X36848Y-44497D01*
X37077Y-44402D01*
X37252Y-44228D01*
X37347Y-43999D01*
X37347Y-43751D01*
X37347Y-44245D01*
X37333Y-44251D01*
X37285Y-44364D01*
X37725Y-44804D01*
X38164Y-44364D01*
X38164Y-44505D01*
X37795Y-44875D01*
X38235Y-45314D01*
X38348Y-45266D01*
X38451Y-44997D01*
X38451Y-48197D01*
X38443Y-47910D01*
X38348Y-47683D01*
X38235Y-47635D01*
X38164Y-47705D01*
X38164Y-47564D01*
X38164Y-45385D01*
X37725Y-44945D01*
X37654Y-45016D01*
X37654Y-44875D01*
X37214Y-44435D01*
X37101Y-44483D01*
X36998Y-44752D01*
X37006Y-45039D01*
X37101Y-45266D01*
X37214Y-45314D01*
X37654Y-44875D01*
X37654Y-45016D01*
X37285Y-45385D01*
X37333Y-45498D01*
X37602Y-45601D01*
X37889Y-45593D01*
X38116Y-45498D01*
X38164Y-45385D01*
X38164Y-47564D01*
X38116Y-47451D01*
X37847Y-47348D01*
X37560Y-47356D01*
X37333Y-47451D01*
X37285Y-47564D01*
X37725Y-48004D01*
X38164Y-47564D01*
X38164Y-47705D01*
X37795Y-48075D01*
X38235Y-48514D01*
X38348Y-48466D01*
X38451Y-48197D01*
X38451Y-50197D01*
X38443Y-49910D01*
X38348Y-49683D01*
X38235Y-49635D01*
X38164Y-49705D01*
X38164Y-49564D01*
X38164Y-48585D01*
X37725Y-48145D01*
X37654Y-48216D01*
X37654Y-48075D01*
X37214Y-47635D01*
X37101Y-47683D01*
X36998Y-47952D01*
X37006Y-48239D01*
X37101Y-48466D01*
X37214Y-48514D01*
X37654Y-48075D01*
X37654Y-48216D01*
X37285Y-48585D01*
X37333Y-48698D01*
X37602Y-48801D01*
X37889Y-48793D01*
X38116Y-48698D01*
X38164Y-48585D01*
X38164Y-49564D01*
X38116Y-49451D01*
X37847Y-49348D01*
X37560Y-49356D01*
X37347Y-49445D01*
X37347Y-48951D01*
X37252Y-48722D01*
X37078Y-48547D01*
X36849Y-48452D01*
X36601Y-48452D01*
X36451Y-48514D01*
X36451Y-48197D01*
X36451Y-44997D01*
X36443Y-44710D01*
X36348Y-44483D01*
X36235Y-44435D01*
X36164Y-44505D01*
X35795Y-44875D01*
X36235Y-45314D01*
X36348Y-45266D01*
X36451Y-44997D01*
X36451Y-48197D01*
X36443Y-47910D01*
X36348Y-47683D01*
X36235Y-47635D01*
X36164Y-47705D01*
X35795Y-48075D01*
X36235Y-48514D01*
X36348Y-48466D01*
X36451Y-48197D01*
X36451Y-48514D01*
X36372Y-48547D01*
X36197Y-48721D01*
X36164Y-48800D01*
X36102Y-48950D01*
X36102Y-49198D01*
X36197Y-49427D01*
X36371Y-49602D01*
X36600Y-49697D01*
X36848Y-49697D01*
X37077Y-49602D01*
X37252Y-49428D01*
X37347Y-49199D01*
X37347Y-48951D01*
X37347Y-49445D01*
X37333Y-49451D01*
X37285Y-49564D01*
X37725Y-50004D01*
X38164Y-49564D01*
X38164Y-49705D01*
X37795Y-50075D01*
X38235Y-50514D01*
X38348Y-50466D01*
X38451Y-50197D01*
X38451Y-58628D01*
X38401Y-58628D01*
X38219Y-58703D01*
X38164Y-58757D01*
X38164Y-50585D01*
X37725Y-50145D01*
X37654Y-50216D01*
X37654Y-50075D01*
X37214Y-49635D01*
X37101Y-49683D01*
X36998Y-49952D01*
X37006Y-50239D01*
X37101Y-50466D01*
X37214Y-50514D01*
X37654Y-50075D01*
X37654Y-50216D01*
X37285Y-50585D01*
X37333Y-50698D01*
X37602Y-50801D01*
X37889Y-50793D01*
X38116Y-50698D01*
X38164Y-50585D01*
X38164Y-58757D01*
X38079Y-58843D01*
X38003Y-59025D01*
X38003Y-59223D01*
X38078Y-59405D01*
X38218Y-59545D01*
X38400Y-59621D01*
X38598Y-59621D01*
X38780Y-59546D01*
X38920Y-59406D01*
X38943Y-59351D01*
X38980Y-59440D01*
X39080Y-59473D01*
X39429Y-59125D01*
X39429Y-59266D01*
X39151Y-59544D01*
X39177Y-59625D01*
X39151Y-59705D01*
X39500Y-60054D01*
X39848Y-59705D01*
X39848Y-59846D01*
X39570Y-60125D01*
X39919Y-60473D01*
X40019Y-60440D01*
X40054Y-60346D01*
X40078Y-60405D01*
X40218Y-60545D01*
X40400Y-60621D01*
X40598Y-60621D01*
X40780Y-60546D01*
X40920Y-60406D01*
X40996Y-60224D01*
X40996Y-60026D01*
X40996Y-62675D01*
X39848Y-62675D01*
X39848Y-60544D01*
X39500Y-60195D01*
X39429Y-60266D01*
X39429Y-60125D01*
X39080Y-59776D01*
X38980Y-59809D01*
X38945Y-59903D01*
X38921Y-59844D01*
X38781Y-59704D01*
X38599Y-59628D01*
X38401Y-59628D01*
X38219Y-59703D01*
X38079Y-59843D01*
X38003Y-60025D01*
X38003Y-60223D01*
X38078Y-60405D01*
X38218Y-60545D01*
X38400Y-60621D01*
X38598Y-60621D01*
X38780Y-60546D01*
X38920Y-60406D01*
X38943Y-60351D01*
X38980Y-60440D01*
X39080Y-60473D01*
X39429Y-60125D01*
X39429Y-60266D01*
X39151Y-60544D01*
X39184Y-60644D01*
X39407Y-60726D01*
X39644Y-60715D01*
X39815Y-60644D01*
X39848Y-60544D01*
X39848Y-62675D01*
X37996Y-62675D01*
X37996Y-60026D01*
X37996Y-59026D01*
X37921Y-58844D01*
X37781Y-58704D01*
X37599Y-58628D01*
X37401Y-58628D01*
X37219Y-58703D01*
X37079Y-58843D01*
X37003Y-59025D01*
X37003Y-59223D01*
X37078Y-59405D01*
X37218Y-59545D01*
X37400Y-59621D01*
X37598Y-59621D01*
X37780Y-59546D01*
X37920Y-59406D01*
X37996Y-59224D01*
X37996Y-59026D01*
X37996Y-60026D01*
X37921Y-59844D01*
X37781Y-59704D01*
X37599Y-59628D01*
X37401Y-59628D01*
X37219Y-59703D01*
X37079Y-59843D01*
X37003Y-60025D01*
X37003Y-60223D01*
X37078Y-60405D01*
X37218Y-60545D01*
X37400Y-60621D01*
X37598Y-60621D01*
X37780Y-60546D01*
X37920Y-60406D01*
X37996Y-60224D01*
X37996Y-60026D01*
X37996Y-62675D01*
X36451Y-62675D01*
X36451Y-50197D01*
X36443Y-49910D01*
X36348Y-49683D01*
X36235Y-49635D01*
X36164Y-49705D01*
X35795Y-50075D01*
X36235Y-50514D01*
X36348Y-50466D01*
X36451Y-50197D01*
X36451Y-62675D01*
X36164Y-62675D01*
X35225Y-62675D01*
X35225Y-50615D01*
X35240Y-50630D01*
X35285Y-50585D01*
X35333Y-50698D01*
X35602Y-50801D01*
X35889Y-50793D01*
X36116Y-50698D01*
X36164Y-50585D01*
X35725Y-50145D01*
X35719Y-50151D01*
X35648Y-50080D01*
X35654Y-50075D01*
X35648Y-50069D01*
X35719Y-49998D01*
X35725Y-50004D01*
X36164Y-49564D01*
X36116Y-49451D01*
X35847Y-49348D01*
X35560Y-49356D01*
X35333Y-49451D01*
X35285Y-49564D01*
X35240Y-49519D01*
X35225Y-49534D01*
X35225Y-48615D01*
X35240Y-48630D01*
X35285Y-48585D01*
X35333Y-48698D01*
X35602Y-48801D01*
X35889Y-48793D01*
X36116Y-48698D01*
X36164Y-48585D01*
X35725Y-48145D01*
X35719Y-48151D01*
X35648Y-48080D01*
X35654Y-48075D01*
X35648Y-48069D01*
X35719Y-47998D01*
X35725Y-48004D01*
X36164Y-47564D01*
X36116Y-47451D01*
X35847Y-47348D01*
X35560Y-47356D01*
X35333Y-47451D01*
X35285Y-47564D01*
X35240Y-47519D01*
X35225Y-47534D01*
X35225Y-45415D01*
X35240Y-45430D01*
X35285Y-45385D01*
X35333Y-45498D01*
X35602Y-45601D01*
X35889Y-45593D01*
X36116Y-45498D01*
X36164Y-45385D01*
X35725Y-44945D01*
X35719Y-44951D01*
X35648Y-44880D01*
X35654Y-44875D01*
X35648Y-44869D01*
X35719Y-44798D01*
X35725Y-44804D01*
X36164Y-44364D01*
X36116Y-44251D01*
X35847Y-44148D01*
X35560Y-44156D01*
X35333Y-44251D01*
X35285Y-44364D01*
X35240Y-44319D01*
X35225Y-44334D01*
X35225Y-43415D01*
X35240Y-43430D01*
X35285Y-43385D01*
X35333Y-43498D01*
X35602Y-43601D01*
X35889Y-43593D01*
X36116Y-43498D01*
X36164Y-43385D01*
X35725Y-42945D01*
X35719Y-42951D01*
X35648Y-42880D01*
X35654Y-42875D01*
X35648Y-42869D01*
X35719Y-42798D01*
X35725Y-42804D01*
X36164Y-42364D01*
X36116Y-42251D01*
X35847Y-42148D01*
X35560Y-42156D01*
X35333Y-42251D01*
X35285Y-42364D01*
X35240Y-42319D01*
X35225Y-42334D01*
X35225Y-39515D01*
X35240Y-39530D01*
X35285Y-39485D01*
X35333Y-39598D01*
X35602Y-39701D01*
X35889Y-39693D01*
X36116Y-39598D01*
X36164Y-39485D01*
X35725Y-39045D01*
X35719Y-39051D01*
X35648Y-38980D01*
X35654Y-38975D01*
X35648Y-38969D01*
X35719Y-38898D01*
X35725Y-38904D01*
X36164Y-38464D01*
X36116Y-38351D01*
X35847Y-38248D01*
X35560Y-38256D01*
X35333Y-38351D01*
X35285Y-38464D01*
X35240Y-38419D01*
X35225Y-38434D01*
X35225Y-37515D01*
X35240Y-37530D01*
X35285Y-37485D01*
X35333Y-37598D01*
X35602Y-37701D01*
X35889Y-37693D01*
X36116Y-37598D01*
X36164Y-37485D01*
X35725Y-37045D01*
X35719Y-37051D01*
X35648Y-36980D01*
X35654Y-36975D01*
X35648Y-36969D01*
X35719Y-36898D01*
X35725Y-36904D01*
X36164Y-36464D01*
X36116Y-36351D01*
X35847Y-36248D01*
X35560Y-36256D01*
X35333Y-36351D01*
X35285Y-36464D01*
X35240Y-36419D01*
X35225Y-36434D01*
X35225Y-20775D01*
X77525Y-20775D01*
X77525Y-62675D01*
X77525Y-62675D01*
G37*
G54D15*
X77525Y-62675D02*
X77410Y-62675D01*
X77410Y-32474D01*
X77363Y-32362D01*
X77278Y-32276D01*
X77166Y-32230D01*
X77044Y-32230D01*
X76932Y-32276D01*
X76846Y-32362D01*
X76800Y-32474D01*
X76800Y-32595D01*
X76846Y-32707D01*
X76932Y-32793D01*
X77044Y-32840D01*
X77165Y-32840D01*
X77277Y-32793D01*
X77363Y-32708D01*
X77410Y-32596D01*
X77410Y-32474D01*
X77410Y-62675D01*
X77044Y-62675D01*
X77044Y-34800D01*
X76998Y-34688D01*
X76912Y-34602D01*
X76800Y-34555D01*
X76679Y-34555D01*
X76567Y-34602D01*
X76481Y-34687D01*
X76434Y-34799D01*
X76434Y-34921D01*
X76480Y-35033D01*
X76566Y-35119D01*
X76678Y-35165D01*
X76800Y-35165D01*
X76912Y-35119D01*
X76998Y-35033D01*
X77044Y-34921D01*
X77044Y-34800D01*
X77044Y-62675D01*
X76908Y-62675D01*
X76908Y-36883D01*
X76862Y-36771D01*
X76776Y-36685D01*
X76664Y-36639D01*
X76542Y-36639D01*
X76430Y-36685D01*
X76344Y-36771D01*
X76298Y-36883D01*
X76298Y-37004D01*
X76344Y-37116D01*
X76430Y-37202D01*
X76542Y-37249D01*
X76663Y-37249D01*
X76775Y-37203D01*
X76861Y-37117D01*
X76908Y-37005D01*
X76908Y-36883D01*
X76908Y-62675D01*
X76434Y-62675D01*
X76434Y-41472D01*
X76388Y-41360D01*
X76302Y-41274D01*
X76190Y-41227D01*
X76185Y-41227D01*
X76185Y-40848D01*
X76138Y-40736D01*
X76053Y-40650D01*
X75941Y-40604D01*
X75819Y-40604D01*
X75707Y-40650D01*
X75621Y-40736D01*
X75575Y-40848D01*
X75575Y-40969D01*
X75621Y-41081D01*
X75707Y-41167D01*
X75819Y-41214D01*
X75940Y-41214D01*
X76052Y-41168D01*
X76138Y-41082D01*
X76185Y-40970D01*
X76185Y-40848D01*
X76185Y-41227D01*
X76068Y-41227D01*
X75956Y-41273D01*
X75870Y-41359D01*
X75824Y-41471D01*
X75824Y-41593D01*
X75870Y-41705D01*
X75956Y-41791D01*
X76068Y-41837D01*
X76189Y-41837D01*
X76301Y-41791D01*
X76387Y-41705D01*
X76434Y-41593D01*
X76434Y-41472D01*
X76434Y-62675D01*
X76051Y-62675D01*
X76051Y-47147D01*
X76051Y-45147D01*
X76043Y-44860D01*
X75948Y-44633D01*
X75835Y-44585D01*
X75764Y-44655D01*
X75764Y-44514D01*
X75716Y-44401D01*
X75447Y-44298D01*
X75321Y-44302D01*
X75321Y-24092D01*
X75275Y-23980D01*
X75189Y-23894D01*
X75077Y-23848D01*
X74956Y-23848D01*
X74873Y-23882D01*
X74873Y-23107D01*
X74826Y-22995D01*
X74741Y-22909D01*
X74629Y-22863D01*
X74507Y-22863D01*
X74395Y-22909D01*
X74309Y-22995D01*
X74263Y-23107D01*
X74263Y-23228D01*
X74309Y-23340D01*
X74395Y-23426D01*
X74507Y-23473D01*
X74628Y-23473D01*
X74740Y-23426D01*
X74826Y-23341D01*
X74873Y-23229D01*
X74873Y-23107D01*
X74873Y-23882D01*
X74843Y-23894D01*
X74758Y-23980D01*
X74711Y-24092D01*
X74711Y-24213D01*
X74757Y-24325D01*
X74843Y-24411D01*
X74955Y-24458D01*
X75076Y-24458D01*
X75188Y-24412D01*
X75274Y-24326D01*
X75321Y-24214D01*
X75321Y-24092D01*
X75321Y-44302D01*
X75160Y-44306D01*
X75061Y-44348D01*
X75061Y-28943D01*
X75014Y-28831D01*
X74929Y-28745D01*
X74816Y-28698D01*
X74695Y-28698D01*
X74583Y-28744D01*
X74497Y-28830D01*
X74451Y-28942D01*
X74450Y-29064D01*
X74497Y-29176D01*
X74583Y-29262D01*
X74695Y-29308D01*
X74816Y-29308D01*
X74928Y-29262D01*
X75014Y-29176D01*
X75060Y-29064D01*
X75061Y-28943D01*
X75061Y-44348D01*
X74933Y-44401D01*
X74925Y-44420D01*
X74925Y-42414D01*
X74878Y-42302D01*
X74793Y-42216D01*
X74681Y-42170D01*
X74559Y-42169D01*
X74447Y-42216D01*
X74361Y-42302D01*
X74354Y-42318D01*
X74354Y-32989D01*
X74308Y-32877D01*
X74230Y-32798D01*
X74230Y-31410D01*
X74183Y-31298D01*
X74098Y-31212D01*
X74005Y-31174D01*
X74005Y-27773D01*
X73958Y-27661D01*
X73955Y-27657D01*
X73955Y-24789D01*
X73908Y-24677D01*
X73822Y-24591D01*
X73710Y-24545D01*
X73589Y-24544D01*
X73477Y-24591D01*
X73391Y-24677D01*
X73345Y-24789D01*
X73344Y-24910D01*
X73391Y-25022D01*
X73477Y-25108D01*
X73589Y-25154D01*
X73710Y-25155D01*
X73822Y-25108D01*
X73908Y-25022D01*
X73954Y-24910D01*
X73955Y-24789D01*
X73955Y-27657D01*
X73873Y-27575D01*
X73761Y-27529D01*
X73639Y-27529D01*
X73527Y-27575D01*
X73441Y-27661D01*
X73395Y-27773D01*
X73395Y-27894D01*
X73441Y-28006D01*
X73527Y-28092D01*
X73639Y-28139D01*
X73760Y-28139D01*
X73872Y-28092D01*
X73958Y-28007D01*
X74005Y-27895D01*
X74005Y-27773D01*
X74005Y-31174D01*
X73986Y-31166D01*
X73864Y-31166D01*
X73752Y-31212D01*
X73666Y-31298D01*
X73620Y-31410D01*
X73620Y-31531D01*
X73666Y-31643D01*
X73752Y-31729D01*
X73864Y-31776D01*
X73985Y-31776D01*
X74097Y-31729D01*
X74183Y-31644D01*
X74230Y-31532D01*
X74230Y-31410D01*
X74230Y-32798D01*
X74222Y-32791D01*
X74110Y-32744D01*
X73989Y-32744D01*
X73877Y-32791D01*
X73791Y-32876D01*
X73744Y-32988D01*
X73744Y-33110D01*
X73791Y-33222D01*
X73876Y-33308D01*
X73988Y-33354D01*
X74110Y-33354D01*
X74222Y-33308D01*
X74308Y-33222D01*
X74354Y-33110D01*
X74354Y-32989D01*
X74354Y-42318D01*
X74315Y-42414D01*
X74315Y-42535D01*
X74361Y-42647D01*
X74447Y-42733D01*
X74559Y-42779D01*
X74680Y-42780D01*
X74792Y-42733D01*
X74878Y-42647D01*
X74925Y-42535D01*
X74925Y-42414D01*
X74925Y-44420D01*
X74885Y-44514D01*
X75325Y-44954D01*
X75764Y-44514D01*
X75764Y-44655D01*
X75395Y-45025D01*
X75835Y-45464D01*
X75948Y-45416D01*
X76051Y-45147D01*
X76051Y-47147D01*
X76043Y-46860D01*
X75948Y-46633D01*
X75835Y-46585D01*
X75764Y-46655D01*
X75764Y-46514D01*
X75764Y-45535D01*
X75325Y-45095D01*
X75254Y-45166D01*
X75254Y-45025D01*
X74814Y-44585D01*
X74701Y-44633D01*
X74598Y-44902D01*
X74606Y-45189D01*
X74701Y-45416D01*
X74814Y-45464D01*
X75254Y-45025D01*
X75254Y-45166D01*
X74885Y-45535D01*
X74933Y-45648D01*
X75202Y-45751D01*
X75489Y-45743D01*
X75716Y-45648D01*
X75764Y-45535D01*
X75764Y-46514D01*
X75716Y-46401D01*
X75447Y-46298D01*
X75160Y-46306D01*
X74947Y-46395D01*
X74947Y-45901D01*
X74852Y-45672D01*
X74678Y-45497D01*
X74449Y-45402D01*
X74201Y-45402D01*
X74155Y-45421D01*
X74155Y-42414D01*
X74108Y-42302D01*
X74055Y-42248D01*
X74055Y-37089D01*
X74008Y-36977D01*
X73922Y-36891D01*
X73810Y-36845D01*
X73689Y-36844D01*
X73577Y-36891D01*
X73491Y-36977D01*
X73445Y-37089D01*
X73444Y-37210D01*
X73491Y-37322D01*
X73577Y-37408D01*
X73689Y-37454D01*
X73810Y-37455D01*
X73922Y-37408D01*
X74008Y-37322D01*
X74054Y-37210D01*
X74055Y-37089D01*
X74055Y-42248D01*
X74022Y-42216D01*
X73910Y-42170D01*
X73789Y-42169D01*
X73694Y-42209D01*
X73694Y-41859D01*
X73647Y-41746D01*
X73562Y-41661D01*
X73450Y-41614D01*
X73328Y-41614D01*
X73216Y-41660D01*
X73212Y-41664D01*
X73212Y-40784D01*
X73166Y-40672D01*
X73080Y-40586D01*
X73021Y-40562D01*
X73021Y-39164D01*
X72975Y-39052D01*
X72889Y-38966D01*
X72777Y-38920D01*
X72656Y-38919D01*
X72544Y-38966D01*
X72458Y-39052D01*
X72411Y-39164D01*
X72411Y-39285D01*
X72457Y-39397D01*
X72543Y-39483D01*
X72655Y-39529D01*
X72776Y-39530D01*
X72889Y-39483D01*
X72974Y-39397D01*
X73021Y-39285D01*
X73021Y-39164D01*
X73021Y-40562D01*
X72968Y-40540D01*
X72847Y-40540D01*
X72735Y-40586D01*
X72649Y-40672D01*
X72602Y-40784D01*
X72602Y-40905D01*
X72649Y-41017D01*
X72734Y-41103D01*
X72846Y-41150D01*
X72968Y-41150D01*
X73080Y-41103D01*
X73166Y-41018D01*
X73212Y-40906D01*
X73212Y-40784D01*
X73212Y-41664D01*
X73130Y-41746D01*
X73084Y-41858D01*
X73084Y-41979D01*
X73130Y-42091D01*
X73216Y-42177D01*
X73328Y-42224D01*
X73449Y-42224D01*
X73561Y-42178D01*
X73647Y-42092D01*
X73694Y-41980D01*
X73694Y-41859D01*
X73694Y-42209D01*
X73677Y-42216D01*
X73591Y-42302D01*
X73545Y-42414D01*
X73544Y-42535D01*
X73591Y-42647D01*
X73677Y-42733D01*
X73789Y-42779D01*
X73910Y-42780D01*
X74022Y-42733D01*
X74108Y-42647D01*
X74154Y-42535D01*
X74155Y-42414D01*
X74155Y-45421D01*
X74051Y-45464D01*
X74051Y-45147D01*
X74043Y-44860D01*
X73948Y-44633D01*
X73835Y-44585D01*
X73764Y-44655D01*
X73764Y-44514D01*
X73716Y-44401D01*
X73447Y-44298D01*
X73160Y-44306D01*
X72933Y-44401D01*
X72885Y-44514D01*
X73325Y-44954D01*
X73764Y-44514D01*
X73764Y-44655D01*
X73395Y-45025D01*
X73835Y-45464D01*
X73948Y-45416D01*
X74051Y-45147D01*
X74051Y-45464D01*
X73972Y-45497D01*
X73797Y-45671D01*
X73764Y-45750D01*
X73764Y-45535D01*
X73325Y-45095D01*
X73254Y-45166D01*
X73254Y-45025D01*
X72814Y-44585D01*
X72701Y-44633D01*
X72598Y-44902D01*
X72606Y-45189D01*
X72701Y-45416D01*
X72814Y-45464D01*
X73254Y-45025D01*
X73254Y-45166D01*
X72885Y-45535D01*
X72933Y-45648D01*
X73202Y-45751D01*
X73489Y-45743D01*
X73716Y-45648D01*
X73764Y-45535D01*
X73764Y-45750D01*
X73702Y-45900D01*
X73702Y-46148D01*
X73797Y-46377D01*
X73971Y-46552D01*
X74200Y-46647D01*
X74448Y-46647D01*
X74677Y-46552D01*
X74852Y-46378D01*
X74947Y-46149D01*
X74947Y-45901D01*
X74947Y-46395D01*
X74933Y-46401D01*
X74885Y-46514D01*
X75325Y-46954D01*
X75764Y-46514D01*
X75764Y-46655D01*
X75395Y-47025D01*
X75835Y-47464D01*
X75948Y-47416D01*
X76051Y-47147D01*
X76051Y-62675D01*
X75764Y-62675D01*
X75764Y-47535D01*
X75325Y-47095D01*
X75254Y-47166D01*
X75254Y-47025D01*
X74814Y-46585D01*
X74701Y-46633D01*
X74598Y-46902D01*
X74606Y-47189D01*
X74701Y-47416D01*
X74814Y-47464D01*
X75254Y-47025D01*
X75254Y-47166D01*
X74885Y-47535D01*
X74933Y-47648D01*
X75202Y-47751D01*
X75489Y-47743D01*
X75716Y-47648D01*
X75764Y-47535D01*
X75764Y-62675D01*
X74051Y-62675D01*
X74051Y-47147D01*
X74043Y-46860D01*
X73948Y-46633D01*
X73835Y-46585D01*
X73764Y-46655D01*
X73764Y-46514D01*
X73716Y-46401D01*
X73447Y-46298D01*
X73160Y-46306D01*
X72933Y-46401D01*
X72885Y-46514D01*
X73325Y-46954D01*
X73764Y-46514D01*
X73764Y-46655D01*
X73395Y-47025D01*
X73835Y-47464D01*
X73948Y-47416D01*
X74051Y-47147D01*
X74051Y-62675D01*
X73764Y-62675D01*
X73764Y-47535D01*
X73325Y-47095D01*
X73254Y-47166D01*
X73254Y-47025D01*
X72814Y-46585D01*
X72701Y-46633D01*
X72598Y-46902D01*
X72606Y-47189D01*
X72701Y-47416D01*
X72814Y-47464D01*
X73254Y-47025D01*
X73254Y-47166D01*
X72885Y-47535D01*
X72933Y-47648D01*
X73202Y-47751D01*
X73489Y-47743D01*
X73716Y-47648D01*
X73764Y-47535D01*
X73764Y-62675D01*
X72155Y-62675D01*
X72155Y-32306D01*
X72108Y-32194D01*
X72022Y-32108D01*
X71910Y-32062D01*
X71789Y-32062D01*
X71677Y-32108D01*
X71591Y-32194D01*
X71545Y-32306D01*
X71544Y-32427D01*
X71591Y-32539D01*
X71677Y-32625D01*
X71789Y-32672D01*
X71910Y-32672D01*
X72022Y-32625D01*
X72108Y-32540D01*
X72154Y-32428D01*
X72155Y-32306D01*
X72155Y-62675D01*
X70939Y-62675D01*
X70939Y-46014D01*
X70893Y-45902D01*
X70807Y-45816D01*
X70695Y-45770D01*
X70574Y-45769D01*
X70462Y-45816D01*
X70376Y-45902D01*
X70329Y-46014D01*
X70329Y-46135D01*
X70375Y-46247D01*
X70461Y-46333D01*
X70573Y-46379D01*
X70694Y-46380D01*
X70807Y-46333D01*
X70892Y-46247D01*
X70939Y-46135D01*
X70939Y-46014D01*
X70939Y-62675D01*
X70196Y-62675D01*
X70196Y-47799D01*
X70149Y-47686D01*
X70064Y-47601D01*
X69970Y-47562D01*
X69970Y-24714D01*
X69924Y-24602D01*
X69838Y-24516D01*
X69726Y-24470D01*
X69605Y-24469D01*
X69493Y-24516D01*
X69407Y-24602D01*
X69360Y-24714D01*
X69360Y-24835D01*
X69406Y-24947D01*
X69492Y-25033D01*
X69604Y-25079D01*
X69726Y-25080D01*
X69838Y-25033D01*
X69924Y-24947D01*
X69970Y-24835D01*
X69970Y-24714D01*
X69970Y-47562D01*
X69952Y-47554D01*
X69930Y-47554D01*
X69930Y-32313D01*
X69883Y-32201D01*
X69797Y-32115D01*
X69685Y-32069D01*
X69564Y-32069D01*
X69452Y-32115D01*
X69366Y-32201D01*
X69320Y-32313D01*
X69319Y-32434D01*
X69366Y-32546D01*
X69452Y-32632D01*
X69564Y-32679D01*
X69685Y-32679D01*
X69797Y-32633D01*
X69883Y-32547D01*
X69929Y-32435D01*
X69930Y-32313D01*
X69930Y-47554D01*
X69830Y-47554D01*
X69718Y-47600D01*
X69632Y-47686D01*
X69586Y-47798D01*
X69586Y-47919D01*
X69632Y-48032D01*
X69718Y-48117D01*
X69830Y-48164D01*
X69951Y-48164D01*
X70063Y-48118D01*
X70149Y-48032D01*
X70196Y-47920D01*
X70196Y-47799D01*
X70196Y-62675D01*
X69151Y-62675D01*
X69151Y-44082D01*
X69105Y-43969D01*
X69019Y-43884D01*
X68972Y-43864D01*
X68972Y-42005D01*
X68926Y-41893D01*
X68840Y-41807D01*
X68728Y-41761D01*
X68607Y-41760D01*
X68591Y-41767D01*
X68591Y-28818D01*
X68545Y-28706D01*
X68459Y-28620D01*
X68347Y-28574D01*
X68226Y-28573D01*
X68114Y-28620D01*
X68028Y-28706D01*
X67981Y-28818D01*
X67981Y-28939D01*
X68028Y-29051D01*
X68113Y-29137D01*
X68225Y-29183D01*
X68347Y-29184D01*
X68459Y-29137D01*
X68545Y-29052D01*
X68591Y-28939D01*
X68591Y-28818D01*
X68591Y-41767D01*
X68495Y-41807D01*
X68409Y-41892D01*
X68362Y-42005D01*
X68362Y-42126D01*
X68409Y-42238D01*
X68494Y-42324D01*
X68606Y-42370D01*
X68728Y-42371D01*
X68840Y-42324D01*
X68926Y-42238D01*
X68972Y-42126D01*
X68972Y-42005D01*
X68972Y-43864D01*
X68907Y-43837D01*
X68786Y-43837D01*
X68673Y-43883D01*
X68588Y-43969D01*
X68541Y-44081D01*
X68541Y-44202D01*
X68587Y-44314D01*
X68673Y-44400D01*
X68785Y-44447D01*
X68906Y-44447D01*
X69018Y-44401D01*
X69104Y-44315D01*
X69151Y-44203D01*
X69151Y-44082D01*
X69151Y-62675D01*
X68380Y-62675D01*
X68380Y-58106D01*
X68333Y-57994D01*
X68247Y-57908D01*
X68135Y-57861D01*
X68076Y-57861D01*
X68076Y-32622D01*
X68029Y-32510D01*
X67944Y-32424D01*
X67832Y-32378D01*
X67710Y-32378D01*
X67598Y-32424D01*
X67512Y-32510D01*
X67466Y-32622D01*
X67466Y-32743D01*
X67512Y-32855D01*
X67598Y-32941D01*
X67710Y-32988D01*
X67831Y-32988D01*
X67943Y-32941D01*
X68029Y-32856D01*
X68076Y-32744D01*
X68076Y-32622D01*
X68076Y-57861D01*
X68014Y-57861D01*
X67902Y-57908D01*
X67816Y-57993D01*
X67770Y-58105D01*
X67769Y-58227D01*
X67816Y-58339D01*
X67902Y-58425D01*
X68014Y-58471D01*
X68135Y-58471D01*
X68247Y-58425D01*
X68333Y-58339D01*
X68379Y-58227D01*
X68380Y-58106D01*
X68380Y-62675D01*
X67605Y-62675D01*
X67605Y-33942D01*
X67558Y-33830D01*
X67473Y-33744D01*
X67360Y-33698D01*
X67286Y-33698D01*
X67286Y-30214D01*
X67240Y-30102D01*
X67154Y-30016D01*
X67042Y-29970D01*
X66921Y-29969D01*
X66808Y-30016D01*
X66723Y-30102D01*
X66676Y-30214D01*
X66676Y-30335D01*
X66722Y-30447D01*
X66808Y-30533D01*
X66920Y-30579D01*
X67041Y-30580D01*
X67153Y-30533D01*
X67239Y-30447D01*
X67286Y-30335D01*
X67286Y-30214D01*
X67286Y-33698D01*
X67239Y-33698D01*
X67127Y-33744D01*
X67041Y-33830D01*
X66995Y-33942D01*
X66994Y-34063D01*
X67041Y-34175D01*
X67127Y-34261D01*
X67239Y-34308D01*
X67360Y-34308D01*
X67472Y-34261D01*
X67558Y-34176D01*
X67604Y-34064D01*
X67605Y-33942D01*
X67605Y-62675D01*
X67430Y-62675D01*
X67430Y-35314D01*
X67383Y-35202D01*
X67297Y-35116D01*
X67185Y-35070D01*
X67064Y-35069D01*
X66952Y-35116D01*
X66866Y-35202D01*
X66820Y-35314D01*
X66819Y-35435D01*
X66866Y-35547D01*
X66952Y-35633D01*
X67064Y-35679D01*
X67185Y-35680D01*
X67297Y-35633D01*
X67383Y-35547D01*
X67429Y-35435D01*
X67430Y-35314D01*
X67430Y-62675D01*
X67052Y-62675D01*
X67052Y-58001D01*
X67006Y-57889D01*
X66920Y-57803D01*
X66808Y-57757D01*
X66687Y-57756D01*
X66575Y-57803D01*
X66513Y-57864D01*
X66513Y-23514D01*
X66467Y-23402D01*
X66381Y-23316D01*
X66269Y-23270D01*
X66148Y-23270D01*
X66036Y-23316D01*
X65950Y-23402D01*
X65903Y-23514D01*
X65903Y-23635D01*
X65950Y-23747D01*
X66035Y-23833D01*
X66148Y-23880D01*
X66269Y-23880D01*
X66381Y-23833D01*
X66467Y-23748D01*
X66513Y-23636D01*
X66513Y-23514D01*
X66513Y-57864D01*
X66489Y-57888D01*
X66442Y-58001D01*
X66442Y-58122D01*
X66489Y-58234D01*
X66574Y-58320D01*
X66686Y-58366D01*
X66808Y-58367D01*
X66920Y-58320D01*
X67006Y-58234D01*
X67052Y-58122D01*
X67052Y-58001D01*
X67052Y-62675D01*
X66267Y-62675D01*
X66267Y-30714D01*
X66221Y-30602D01*
X66135Y-30516D01*
X66023Y-30470D01*
X65902Y-30469D01*
X65790Y-30516D01*
X65704Y-30602D01*
X65657Y-30714D01*
X65657Y-30835D01*
X65703Y-30947D01*
X65789Y-31033D01*
X65901Y-31079D01*
X66023Y-31080D01*
X66135Y-31033D01*
X66221Y-30947D01*
X66267Y-30835D01*
X66267Y-30714D01*
X66267Y-62675D01*
X65880Y-62675D01*
X65880Y-49014D01*
X65833Y-48902D01*
X65747Y-48816D01*
X65635Y-48770D01*
X65514Y-48769D01*
X65402Y-48816D01*
X65316Y-48902D01*
X65270Y-49014D01*
X65269Y-49135D01*
X65316Y-49247D01*
X65402Y-49333D01*
X65514Y-49379D01*
X65635Y-49380D01*
X65747Y-49333D01*
X65833Y-49247D01*
X65879Y-49135D01*
X65880Y-49014D01*
X65880Y-62675D01*
X65742Y-62675D01*
X65742Y-58914D01*
X65696Y-58802D01*
X65610Y-58716D01*
X65498Y-58670D01*
X65377Y-58670D01*
X65265Y-58716D01*
X65179Y-58802D01*
X65132Y-58914D01*
X65132Y-59035D01*
X65179Y-59147D01*
X65264Y-59233D01*
X65376Y-59280D01*
X65498Y-59280D01*
X65610Y-59233D01*
X65696Y-59148D01*
X65742Y-59036D01*
X65742Y-58914D01*
X65742Y-62675D01*
X65530Y-62675D01*
X65530Y-59573D01*
X65483Y-59461D01*
X65397Y-59375D01*
X65285Y-59328D01*
X65164Y-59328D01*
X65052Y-59375D01*
X65043Y-59383D01*
X65043Y-52277D01*
X64997Y-52164D01*
X64911Y-52079D01*
X64799Y-52032D01*
X64678Y-52032D01*
X64566Y-52078D01*
X64480Y-52164D01*
X64433Y-52276D01*
X64433Y-52397D01*
X64479Y-52510D01*
X64565Y-52595D01*
X64677Y-52642D01*
X64799Y-52642D01*
X64911Y-52596D01*
X64997Y-52510D01*
X65043Y-52398D01*
X65043Y-52277D01*
X65043Y-59383D01*
X64966Y-59460D01*
X64920Y-59572D01*
X64919Y-59694D01*
X64966Y-59806D01*
X65052Y-59892D01*
X65164Y-59938D01*
X65285Y-59938D01*
X65397Y-59892D01*
X65483Y-59806D01*
X65529Y-59694D01*
X65530Y-59573D01*
X65530Y-62675D01*
X64564Y-62675D01*
X64564Y-56175D01*
X64517Y-56062D01*
X64432Y-55977D01*
X64430Y-55976D01*
X64430Y-33114D01*
X64383Y-33002D01*
X64300Y-32918D01*
X64300Y-25010D01*
X64250Y-24891D01*
X64159Y-24799D01*
X64039Y-24750D01*
X63910Y-24749D01*
X63791Y-24799D01*
X63699Y-24890D01*
X63650Y-25010D01*
X63649Y-25139D01*
X63699Y-25258D01*
X63790Y-25350D01*
X63910Y-25399D01*
X64039Y-25400D01*
X64158Y-25350D01*
X64250Y-25259D01*
X64299Y-25139D01*
X64300Y-25010D01*
X64300Y-32918D01*
X64297Y-32916D01*
X64185Y-32870D01*
X64064Y-32869D01*
X63952Y-32916D01*
X63866Y-33002D01*
X63820Y-33114D01*
X63819Y-33235D01*
X63866Y-33347D01*
X63952Y-33433D01*
X64064Y-33479D01*
X64185Y-33480D01*
X64297Y-33433D01*
X64383Y-33347D01*
X64429Y-33235D01*
X64430Y-33114D01*
X64430Y-55976D01*
X64319Y-55930D01*
X64198Y-55930D01*
X64086Y-55976D01*
X64031Y-56031D01*
X64031Y-34914D01*
X63985Y-34802D01*
X63899Y-34716D01*
X63787Y-34670D01*
X63666Y-34669D01*
X63554Y-34716D01*
X63468Y-34802D01*
X63421Y-34914D01*
X63421Y-35035D01*
X63468Y-35147D01*
X63553Y-35233D01*
X63665Y-35279D01*
X63787Y-35280D01*
X63899Y-35233D01*
X63985Y-35147D01*
X64031Y-35035D01*
X64031Y-34914D01*
X64031Y-56031D01*
X64015Y-56047D01*
X64015Y-50664D01*
X63969Y-50552D01*
X63898Y-50481D01*
X63898Y-42780D01*
X63852Y-42668D01*
X63766Y-42582D01*
X63654Y-42535D01*
X63532Y-42535D01*
X63420Y-42581D01*
X63334Y-42667D01*
X63288Y-42779D01*
X63288Y-42901D01*
X63334Y-43013D01*
X63420Y-43099D01*
X63532Y-43145D01*
X63653Y-43145D01*
X63765Y-43099D01*
X63851Y-43013D01*
X63898Y-42901D01*
X63898Y-42780D01*
X63898Y-50481D01*
X63883Y-50466D01*
X63771Y-50420D01*
X63650Y-50419D01*
X63538Y-50466D01*
X63452Y-50552D01*
X63405Y-50664D01*
X63405Y-50785D01*
X63451Y-50897D01*
X63537Y-50983D01*
X63649Y-51029D01*
X63771Y-51030D01*
X63883Y-50983D01*
X63969Y-50897D01*
X64015Y-50785D01*
X64015Y-50664D01*
X64015Y-56047D01*
X64000Y-56062D01*
X63954Y-56174D01*
X63954Y-56295D01*
X64000Y-56407D01*
X64086Y-56493D01*
X64198Y-56540D01*
X64319Y-56540D01*
X64431Y-56494D01*
X64517Y-56408D01*
X64564Y-56296D01*
X64564Y-56175D01*
X64564Y-62675D01*
X63494Y-62675D01*
X63494Y-59315D01*
X63448Y-59203D01*
X63362Y-59117D01*
X63250Y-59070D01*
X63155Y-59070D01*
X63155Y-47813D01*
X63108Y-47701D01*
X63023Y-47615D01*
X62955Y-47587D01*
X62955Y-27989D01*
X62908Y-27877D01*
X62822Y-27791D01*
X62710Y-27745D01*
X62589Y-27744D01*
X62477Y-27791D01*
X62391Y-27877D01*
X62345Y-27989D01*
X62344Y-28110D01*
X62391Y-28222D01*
X62477Y-28308D01*
X62589Y-28354D01*
X62710Y-28355D01*
X62822Y-28308D01*
X62908Y-28222D01*
X62954Y-28110D01*
X62955Y-27989D01*
X62955Y-47587D01*
X62911Y-47569D01*
X62789Y-47569D01*
X62677Y-47615D01*
X62591Y-47701D01*
X62545Y-47813D01*
X62545Y-47934D01*
X62591Y-48046D01*
X62677Y-48132D01*
X62789Y-48179D01*
X62910Y-48179D01*
X63022Y-48132D01*
X63108Y-48047D01*
X63155Y-47935D01*
X63155Y-47813D01*
X63155Y-59070D01*
X63129Y-59070D01*
X63017Y-59116D01*
X62931Y-59202D01*
X62884Y-59314D01*
X62884Y-59436D01*
X62931Y-59548D01*
X63016Y-59634D01*
X63128Y-59680D01*
X63250Y-59680D01*
X63362Y-59634D01*
X63448Y-59548D01*
X63494Y-59436D01*
X63494Y-59315D01*
X63494Y-62675D01*
X62374Y-62675D01*
X62374Y-57314D01*
X62328Y-57202D01*
X62242Y-57116D01*
X62135Y-57072D01*
X62135Y-51364D01*
X62089Y-51252D01*
X62003Y-51166D01*
X61891Y-51120D01*
X61770Y-51119D01*
X61658Y-51166D01*
X61572Y-51252D01*
X61525Y-51364D01*
X61525Y-51485D01*
X61571Y-51597D01*
X61657Y-51683D01*
X61769Y-51729D01*
X61890Y-51730D01*
X62003Y-51683D01*
X62088Y-51597D01*
X62135Y-51485D01*
X62135Y-51364D01*
X62135Y-57072D01*
X62130Y-57070D01*
X62009Y-57069D01*
X61896Y-57116D01*
X61810Y-57202D01*
X61764Y-57314D01*
X61764Y-57435D01*
X61810Y-57547D01*
X61896Y-57633D01*
X62008Y-57679D01*
X62129Y-57680D01*
X62241Y-57633D01*
X62327Y-57547D01*
X62374Y-57435D01*
X62374Y-57314D01*
X62374Y-62675D01*
X61163Y-62675D01*
X61163Y-23602D01*
X61116Y-23490D01*
X61031Y-23404D01*
X60919Y-23357D01*
X60797Y-23357D01*
X60685Y-23404D01*
X60599Y-23489D01*
X60553Y-23601D01*
X60553Y-23723D01*
X60599Y-23835D01*
X60685Y-23921D01*
X60797Y-23967D01*
X60918Y-23967D01*
X61030Y-23921D01*
X61116Y-23835D01*
X61163Y-23723D01*
X61163Y-23602D01*
X61163Y-62675D01*
X61105Y-62675D01*
X61105Y-58121D01*
X61059Y-58009D01*
X60973Y-57923D01*
X60861Y-57877D01*
X60740Y-57877D01*
X60627Y-57923D01*
X60542Y-58009D01*
X60495Y-58121D01*
X60495Y-58242D01*
X60541Y-58354D01*
X60627Y-58440D01*
X60739Y-58487D01*
X60860Y-58487D01*
X60972Y-58441D01*
X61058Y-58355D01*
X61105Y-58243D01*
X61105Y-58121D01*
X61105Y-62675D01*
X60235Y-62675D01*
X60235Y-61309D01*
X60189Y-61197D01*
X60103Y-61111D01*
X60085Y-61104D01*
X60085Y-27036D01*
X60039Y-26924D01*
X59953Y-26838D01*
X59841Y-26792D01*
X59720Y-26792D01*
X59608Y-26838D01*
X59522Y-26924D01*
X59475Y-27036D01*
X59475Y-27157D01*
X59522Y-27269D01*
X59607Y-27355D01*
X59719Y-27402D01*
X59841Y-27402D01*
X59953Y-27356D01*
X60039Y-27270D01*
X60085Y-27158D01*
X60085Y-27036D01*
X60085Y-61104D01*
X59991Y-61065D01*
X59951Y-61065D01*
X59951Y-36705D01*
X59904Y-36593D01*
X59819Y-36507D01*
X59706Y-36461D01*
X59585Y-36461D01*
X59473Y-36507D01*
X59387Y-36593D01*
X59371Y-36632D01*
X59371Y-36033D01*
X59325Y-35921D01*
X59239Y-35835D01*
X59127Y-35788D01*
X59006Y-35788D01*
X58950Y-35811D01*
X58950Y-25162D01*
X58904Y-25050D01*
X58818Y-24964D01*
X58706Y-24917D01*
X58585Y-24917D01*
X58473Y-24964D01*
X58387Y-25049D01*
X58340Y-25161D01*
X58340Y-25283D01*
X58387Y-25395D01*
X58472Y-25481D01*
X58584Y-25527D01*
X58706Y-25527D01*
X58818Y-25481D01*
X58904Y-25395D01*
X58950Y-25283D01*
X58950Y-25162D01*
X58950Y-35811D01*
X58893Y-35834D01*
X58856Y-35872D01*
X58856Y-31737D01*
X58809Y-31625D01*
X58809Y-31624D01*
X58809Y-27942D01*
X58763Y-27830D01*
X58677Y-27744D01*
X58565Y-27698D01*
X58443Y-27698D01*
X58331Y-27744D01*
X58245Y-27830D01*
X58199Y-27942D01*
X58199Y-28063D01*
X58245Y-28175D01*
X58331Y-28261D01*
X58443Y-28308D01*
X58564Y-28308D01*
X58676Y-28261D01*
X58762Y-28176D01*
X58809Y-28064D01*
X58809Y-27942D01*
X58809Y-31624D01*
X58724Y-31539D01*
X58612Y-31492D01*
X58490Y-31492D01*
X58378Y-31539D01*
X58292Y-31624D01*
X58246Y-31736D01*
X58246Y-31858D01*
X58292Y-31970D01*
X58378Y-32056D01*
X58490Y-32102D01*
X58611Y-32102D01*
X58723Y-32056D01*
X58809Y-31970D01*
X58856Y-31858D01*
X58856Y-31737D01*
X58856Y-35872D01*
X58808Y-35920D01*
X58761Y-36032D01*
X58761Y-36154D01*
X58807Y-36266D01*
X58893Y-36352D01*
X59005Y-36398D01*
X59126Y-36398D01*
X59238Y-36352D01*
X59324Y-36266D01*
X59371Y-36154D01*
X59371Y-36033D01*
X59371Y-36632D01*
X59341Y-36705D01*
X59341Y-36826D01*
X59387Y-36938D01*
X59473Y-37024D01*
X59585Y-37071D01*
X59706Y-37071D01*
X59818Y-37024D01*
X59904Y-36939D01*
X59951Y-36827D01*
X59951Y-36705D01*
X59951Y-61065D01*
X59870Y-61065D01*
X59758Y-61111D01*
X59680Y-61189D01*
X59680Y-59439D01*
X59633Y-59327D01*
X59547Y-59241D01*
X59435Y-59195D01*
X59314Y-59194D01*
X59202Y-59241D01*
X59116Y-59327D01*
X59070Y-59439D01*
X59069Y-59560D01*
X59116Y-59672D01*
X59202Y-59758D01*
X59314Y-59804D01*
X59435Y-59805D01*
X59547Y-59758D01*
X59633Y-59672D01*
X59679Y-59560D01*
X59680Y-59439D01*
X59680Y-61189D01*
X59672Y-61197D01*
X59625Y-61309D01*
X59625Y-61430D01*
X59671Y-61542D01*
X59757Y-61628D01*
X59869Y-61675D01*
X59991Y-61675D01*
X60103Y-61628D01*
X60189Y-61543D01*
X60235Y-61431D01*
X60235Y-61309D01*
X60235Y-62675D01*
X59287Y-62675D01*
X59287Y-61919D01*
X59241Y-61807D01*
X59155Y-61721D01*
X59043Y-61675D01*
X58921Y-61674D01*
X58809Y-61721D01*
X58723Y-61807D01*
X58688Y-61892D01*
X58688Y-33139D01*
X58642Y-33027D01*
X58556Y-32941D01*
X58444Y-32895D01*
X58322Y-32894D01*
X58210Y-32941D01*
X58124Y-33027D01*
X58078Y-33139D01*
X58078Y-33260D01*
X58124Y-33372D01*
X58210Y-33458D01*
X58322Y-33504D01*
X58443Y-33505D01*
X58555Y-33458D01*
X58641Y-33372D01*
X58688Y-33260D01*
X58688Y-33139D01*
X58688Y-61892D01*
X58678Y-61917D01*
X58678Y-61575D01*
X58631Y-61462D01*
X58630Y-61461D01*
X58630Y-56828D01*
X58583Y-56716D01*
X58497Y-56630D01*
X58385Y-56584D01*
X58264Y-56584D01*
X58152Y-56630D01*
X58066Y-56716D01*
X58020Y-56828D01*
X58019Y-56949D01*
X58066Y-57061D01*
X58152Y-57147D01*
X58264Y-57194D01*
X58385Y-57194D01*
X58497Y-57148D01*
X58583Y-57062D01*
X58629Y-56950D01*
X58630Y-56828D01*
X58630Y-61461D01*
X58546Y-61377D01*
X58434Y-61330D01*
X58312Y-61330D01*
X58200Y-61376D01*
X58114Y-61462D01*
X58068Y-61574D01*
X58068Y-61695D01*
X58114Y-61807D01*
X58200Y-61893D01*
X58312Y-61940D01*
X58433Y-61940D01*
X58545Y-61894D01*
X58631Y-61808D01*
X58678Y-61696D01*
X58678Y-61575D01*
X58678Y-61917D01*
X58677Y-61919D01*
X58677Y-62040D01*
X58723Y-62152D01*
X58809Y-62238D01*
X58921Y-62284D01*
X59042Y-62285D01*
X59154Y-62238D01*
X59240Y-62152D01*
X59287Y-62040D01*
X59287Y-61919D01*
X59287Y-62675D01*
X57855Y-62675D01*
X57855Y-46347D01*
X57808Y-46235D01*
X57722Y-46149D01*
X57610Y-46103D01*
X57510Y-46102D01*
X57510Y-40217D01*
X57464Y-40105D01*
X57378Y-40019D01*
X57266Y-39973D01*
X57145Y-39972D01*
X57033Y-40019D01*
X56983Y-40068D01*
X56983Y-38195D01*
X56937Y-38083D01*
X56851Y-37997D01*
X56739Y-37951D01*
X56618Y-37951D01*
X56506Y-37997D01*
X56420Y-38083D01*
X56373Y-38195D01*
X56373Y-38316D01*
X56420Y-38428D01*
X56505Y-38514D01*
X56618Y-38561D01*
X56739Y-38561D01*
X56851Y-38515D01*
X56937Y-38429D01*
X56983Y-38317D01*
X56983Y-38195D01*
X56983Y-40068D01*
X56947Y-40104D01*
X56900Y-40217D01*
X56900Y-40338D01*
X56946Y-40450D01*
X57032Y-40536D01*
X57144Y-40582D01*
X57266Y-40583D01*
X57378Y-40536D01*
X57464Y-40450D01*
X57510Y-40338D01*
X57510Y-40217D01*
X57510Y-46102D01*
X57489Y-46102D01*
X57377Y-46149D01*
X57291Y-46235D01*
X57245Y-46347D01*
X57244Y-46468D01*
X57291Y-46580D01*
X57377Y-46666D01*
X57489Y-46712D01*
X57610Y-46713D01*
X57722Y-46666D01*
X57808Y-46581D01*
X57854Y-46468D01*
X57855Y-46347D01*
X57855Y-62675D01*
X57565Y-62675D01*
X57565Y-60780D01*
X57519Y-60668D01*
X57433Y-60582D01*
X57321Y-60535D01*
X57200Y-60535D01*
X57198Y-60536D01*
X57198Y-46582D01*
X57152Y-46470D01*
X57066Y-46384D01*
X56954Y-46338D01*
X56922Y-46338D01*
X56922Y-42797D01*
X56876Y-42684D01*
X56790Y-42599D01*
X56678Y-42552D01*
X56557Y-42552D01*
X56445Y-42598D01*
X56359Y-42684D01*
X56312Y-42796D01*
X56312Y-42917D01*
X56359Y-43030D01*
X56444Y-43115D01*
X56556Y-43162D01*
X56678Y-43162D01*
X56790Y-43116D01*
X56876Y-43030D01*
X56922Y-42918D01*
X56922Y-42797D01*
X56922Y-46338D01*
X56833Y-46338D01*
X56720Y-46384D01*
X56635Y-46470D01*
X56588Y-46582D01*
X56588Y-46703D01*
X56634Y-46815D01*
X56720Y-46901D01*
X56832Y-46948D01*
X56953Y-46948D01*
X57065Y-46902D01*
X57151Y-46816D01*
X57198Y-46704D01*
X57198Y-46582D01*
X57198Y-60536D01*
X57088Y-60582D01*
X57002Y-60667D01*
X56986Y-60706D01*
X56986Y-50478D01*
X56939Y-50365D01*
X56854Y-50280D01*
X56742Y-50233D01*
X56620Y-50233D01*
X56508Y-50279D01*
X56422Y-50365D01*
X56376Y-50477D01*
X56376Y-50598D01*
X56422Y-50710D01*
X56508Y-50796D01*
X56620Y-50843D01*
X56741Y-50843D01*
X56853Y-50797D01*
X56939Y-50711D01*
X56986Y-50599D01*
X56986Y-50478D01*
X56986Y-60706D01*
X56955Y-60779D01*
X56955Y-60901D01*
X57002Y-61013D01*
X57087Y-61099D01*
X57199Y-61145D01*
X57321Y-61145D01*
X57433Y-61099D01*
X57519Y-61013D01*
X57565Y-60901D01*
X57565Y-60780D01*
X57565Y-62675D01*
X56819Y-62675D01*
X56819Y-54557D01*
X56772Y-54445D01*
X56687Y-54359D01*
X56574Y-54313D01*
X56453Y-54313D01*
X56341Y-54359D01*
X56255Y-54445D01*
X56209Y-54557D01*
X56208Y-54678D01*
X56255Y-54790D01*
X56341Y-54876D01*
X56453Y-54923D01*
X56574Y-54923D01*
X56686Y-54876D01*
X56772Y-54791D01*
X56818Y-54679D01*
X56819Y-54557D01*
X56819Y-62675D01*
X56030Y-62675D01*
X56030Y-51789D01*
X55983Y-51677D01*
X55897Y-51591D01*
X55785Y-51545D01*
X55755Y-51545D01*
X55755Y-38331D01*
X55708Y-38219D01*
X55622Y-38133D01*
X55510Y-38086D01*
X55389Y-38086D01*
X55277Y-38133D01*
X55191Y-38218D01*
X55145Y-38330D01*
X55144Y-38452D01*
X55191Y-38564D01*
X55277Y-38650D01*
X55389Y-38696D01*
X55510Y-38696D01*
X55622Y-38650D01*
X55708Y-38564D01*
X55754Y-38452D01*
X55755Y-38331D01*
X55755Y-51545D01*
X55664Y-51544D01*
X55552Y-51591D01*
X55466Y-51677D01*
X55420Y-51789D01*
X55419Y-51910D01*
X55466Y-52022D01*
X55552Y-52108D01*
X55664Y-52154D01*
X55785Y-52155D01*
X55897Y-52108D01*
X55983Y-52022D01*
X56029Y-51910D01*
X56030Y-51789D01*
X56030Y-62675D01*
X55684Y-62675D01*
X55684Y-55632D01*
X55638Y-55520D01*
X55552Y-55434D01*
X55440Y-55387D01*
X55319Y-55387D01*
X55206Y-55434D01*
X55121Y-55519D01*
X55074Y-55631D01*
X55074Y-55753D01*
X55120Y-55865D01*
X55206Y-55951D01*
X55318Y-55997D01*
X55439Y-55997D01*
X55552Y-55951D01*
X55637Y-55865D01*
X55684Y-55753D01*
X55684Y-55632D01*
X55684Y-62675D01*
X54762Y-62675D01*
X54762Y-31082D01*
X54716Y-30970D01*
X54630Y-30884D01*
X54542Y-30847D01*
X54542Y-30420D01*
X54496Y-30308D01*
X54410Y-30222D01*
X54298Y-30176D01*
X54177Y-30175D01*
X54064Y-30222D01*
X53979Y-30307D01*
X53932Y-30420D01*
X53932Y-30541D01*
X53978Y-30653D01*
X54064Y-30739D01*
X54176Y-30785D01*
X54297Y-30786D01*
X54410Y-30739D01*
X54495Y-30653D01*
X54542Y-30541D01*
X54542Y-30420D01*
X54542Y-30847D01*
X54518Y-30837D01*
X54396Y-30837D01*
X54284Y-30883D01*
X54198Y-30969D01*
X54152Y-31081D01*
X54152Y-31203D01*
X54198Y-31315D01*
X54284Y-31401D01*
X54396Y-31447D01*
X54517Y-31447D01*
X54629Y-31401D01*
X54715Y-31315D01*
X54762Y-31203D01*
X54762Y-31082D01*
X54762Y-62675D01*
X54169Y-62675D01*
X54169Y-55866D01*
X54122Y-55754D01*
X54037Y-55668D01*
X53924Y-55622D01*
X53803Y-55622D01*
X53691Y-55668D01*
X53605Y-55754D01*
X53559Y-55866D01*
X53558Y-55987D01*
X53605Y-56099D01*
X53691Y-56185D01*
X53803Y-56232D01*
X53924Y-56232D01*
X54036Y-56186D01*
X54122Y-56100D01*
X54168Y-55988D01*
X54169Y-55866D01*
X54169Y-62675D01*
X53530Y-62675D01*
X53530Y-57014D01*
X53483Y-56902D01*
X53397Y-56816D01*
X53395Y-56815D01*
X53395Y-48628D01*
X53348Y-48516D01*
X53263Y-48430D01*
X53151Y-48383D01*
X53029Y-48383D01*
X52920Y-48428D01*
X52920Y-41252D01*
X52874Y-41139D01*
X52788Y-41054D01*
X52676Y-41007D01*
X52580Y-41007D01*
X52580Y-37248D01*
X52533Y-37136D01*
X52495Y-37097D01*
X52495Y-32317D01*
X52449Y-32205D01*
X52363Y-32119D01*
X52331Y-32106D01*
X52331Y-28415D01*
X52285Y-28303D01*
X52199Y-28217D01*
X52087Y-28170D01*
X51966Y-28170D01*
X51853Y-28216D01*
X51768Y-28302D01*
X51721Y-28414D01*
X51721Y-28535D01*
X51767Y-28648D01*
X51853Y-28733D01*
X51965Y-28780D01*
X52086Y-28780D01*
X52198Y-28734D01*
X52284Y-28648D01*
X52331Y-28536D01*
X52331Y-28415D01*
X52331Y-32106D01*
X52251Y-32072D01*
X52130Y-32072D01*
X52018Y-32119D01*
X51932Y-32204D01*
X51885Y-32316D01*
X51885Y-32438D01*
X51931Y-32550D01*
X52017Y-32636D01*
X52129Y-32682D01*
X52251Y-32682D01*
X52363Y-32636D01*
X52449Y-32550D01*
X52495Y-32438D01*
X52495Y-32317D01*
X52495Y-37097D01*
X52447Y-37050D01*
X52335Y-37003D01*
X52214Y-37003D01*
X52102Y-37049D01*
X52016Y-37135D01*
X51970Y-37247D01*
X51969Y-37368D01*
X52016Y-37481D01*
X52102Y-37566D01*
X52214Y-37613D01*
X52335Y-37613D01*
X52447Y-37567D01*
X52533Y-37481D01*
X52579Y-37369D01*
X52580Y-37248D01*
X52580Y-41007D01*
X52555Y-41007D01*
X52443Y-41053D01*
X52357Y-41139D01*
X52310Y-41251D01*
X52310Y-41372D01*
X52357Y-41485D01*
X52442Y-41570D01*
X52554Y-41617D01*
X52676Y-41617D01*
X52788Y-41571D01*
X52874Y-41485D01*
X52920Y-41373D01*
X52920Y-41252D01*
X52920Y-48428D01*
X52917Y-48430D01*
X52905Y-48442D01*
X52905Y-47025D01*
X52858Y-46913D01*
X52772Y-46827D01*
X52660Y-46781D01*
X52539Y-46781D01*
X52427Y-46827D01*
X52341Y-46913D01*
X52295Y-47025D01*
X52294Y-47146D01*
X52341Y-47258D01*
X52427Y-47344D01*
X52539Y-47391D01*
X52660Y-47391D01*
X52772Y-47344D01*
X52858Y-47259D01*
X52904Y-47147D01*
X52905Y-47025D01*
X52905Y-48442D01*
X52831Y-48515D01*
X52785Y-48627D01*
X52785Y-48749D01*
X52831Y-48861D01*
X52917Y-48947D01*
X53029Y-48993D01*
X53150Y-48993D01*
X53262Y-48947D01*
X53348Y-48861D01*
X53395Y-48749D01*
X53395Y-48628D01*
X53395Y-56815D01*
X53285Y-56770D01*
X53164Y-56769D01*
X53080Y-56804D01*
X53080Y-54931D01*
X53033Y-54819D01*
X52947Y-54733D01*
X52835Y-54687D01*
X52714Y-54687D01*
X52602Y-54733D01*
X52516Y-54819D01*
X52470Y-54931D01*
X52469Y-55052D01*
X52516Y-55164D01*
X52602Y-55250D01*
X52714Y-55297D01*
X52835Y-55297D01*
X52947Y-55250D01*
X53033Y-55165D01*
X53079Y-55053D01*
X53080Y-54931D01*
X53080Y-56804D01*
X53052Y-56816D01*
X52966Y-56902D01*
X52920Y-57014D01*
X52919Y-57135D01*
X52966Y-57247D01*
X53052Y-57333D01*
X53164Y-57379D01*
X53285Y-57380D01*
X53397Y-57333D01*
X53483Y-57247D01*
X53529Y-57135D01*
X53530Y-57014D01*
X53530Y-62675D01*
X52236Y-62675D01*
X52236Y-42827D01*
X52189Y-42715D01*
X52104Y-42629D01*
X51992Y-42582D01*
X51870Y-42582D01*
X51758Y-42628D01*
X51741Y-42645D01*
X51741Y-29089D01*
X51695Y-28977D01*
X51609Y-28891D01*
X51497Y-28845D01*
X51376Y-28845D01*
X51264Y-28891D01*
X51178Y-28977D01*
X51131Y-29089D01*
X51131Y-29210D01*
X51178Y-29322D01*
X51263Y-29408D01*
X51375Y-29455D01*
X51497Y-29455D01*
X51609Y-29408D01*
X51695Y-29323D01*
X51741Y-29211D01*
X51741Y-29089D01*
X51741Y-42645D01*
X51672Y-42714D01*
X51626Y-42826D01*
X51626Y-42947D01*
X51672Y-43060D01*
X51758Y-43145D01*
X51870Y-43192D01*
X51991Y-43192D01*
X52103Y-43146D01*
X52189Y-43060D01*
X52236Y-42948D01*
X52236Y-42827D01*
X52236Y-62675D01*
X51837Y-62675D01*
X51837Y-51740D01*
X51791Y-51628D01*
X51705Y-51542D01*
X51610Y-51503D01*
X51610Y-42314D01*
X51564Y-42202D01*
X51478Y-42116D01*
X51366Y-42070D01*
X51245Y-42069D01*
X51132Y-42116D01*
X51047Y-42202D01*
X51000Y-42314D01*
X51000Y-42435D01*
X51046Y-42547D01*
X51132Y-42633D01*
X51244Y-42679D01*
X51365Y-42680D01*
X51478Y-42633D01*
X51563Y-42547D01*
X51610Y-42435D01*
X51610Y-42314D01*
X51610Y-51503D01*
X51593Y-51495D01*
X51471Y-51495D01*
X51359Y-51542D01*
X51273Y-51627D01*
X51227Y-51739D01*
X51227Y-51861D01*
X51273Y-51973D01*
X51359Y-52059D01*
X51471Y-52105D01*
X51592Y-52105D01*
X51704Y-52059D01*
X51790Y-51973D01*
X51837Y-51861D01*
X51837Y-51740D01*
X51837Y-62675D01*
X51596Y-62675D01*
X51596Y-55582D01*
X51550Y-55470D01*
X51464Y-55384D01*
X51352Y-55337D01*
X51231Y-55337D01*
X51119Y-55384D01*
X51033Y-55469D01*
X50986Y-55581D01*
X50986Y-55703D01*
X51033Y-55815D01*
X51118Y-55901D01*
X51230Y-55947D01*
X51352Y-55947D01*
X51464Y-55901D01*
X51550Y-55815D01*
X51596Y-55703D01*
X51596Y-55582D01*
X51596Y-62675D01*
X50101Y-62675D01*
X50101Y-28739D01*
X50055Y-28627D01*
X49969Y-28541D01*
X49857Y-28494D01*
X49736Y-28494D01*
X49623Y-28541D01*
X49538Y-28626D01*
X49491Y-28738D01*
X49491Y-28860D01*
X49537Y-28972D01*
X49623Y-29058D01*
X49735Y-29104D01*
X49856Y-29104D01*
X49968Y-29058D01*
X50054Y-28972D01*
X50101Y-28860D01*
X50101Y-28739D01*
X50101Y-62675D01*
X50063Y-62675D01*
X50063Y-40201D01*
X50016Y-40089D01*
X49931Y-40003D01*
X49819Y-39957D01*
X49697Y-39957D01*
X49585Y-40003D01*
X49499Y-40089D01*
X49453Y-40201D01*
X49453Y-40322D01*
X49468Y-40358D01*
X49412Y-40336D01*
X49291Y-40335D01*
X49179Y-40382D01*
X49093Y-40467D01*
X49046Y-40580D01*
X49046Y-40701D01*
X49093Y-40813D01*
X49178Y-40899D01*
X49290Y-40945D01*
X49412Y-40946D01*
X49524Y-40899D01*
X49610Y-40813D01*
X49656Y-40701D01*
X49656Y-40580D01*
X49642Y-40544D01*
X49697Y-40567D01*
X49818Y-40567D01*
X49930Y-40521D01*
X50016Y-40435D01*
X50063Y-40323D01*
X50063Y-40201D01*
X50063Y-62675D01*
X49996Y-62675D01*
X49996Y-60026D01*
X49996Y-59026D01*
X49921Y-58844D01*
X49781Y-58704D01*
X49599Y-58628D01*
X49401Y-58628D01*
X49219Y-58703D01*
X49079Y-58843D01*
X49003Y-59025D01*
X49003Y-59223D01*
X49078Y-59405D01*
X49218Y-59545D01*
X49400Y-59621D01*
X49598Y-59621D01*
X49780Y-59546D01*
X49920Y-59406D01*
X49996Y-59224D01*
X49996Y-59026D01*
X49996Y-60026D01*
X49921Y-59844D01*
X49781Y-59704D01*
X49599Y-59628D01*
X49401Y-59628D01*
X49219Y-59703D01*
X49079Y-59843D01*
X49003Y-60025D01*
X49003Y-60223D01*
X49078Y-60405D01*
X49218Y-60545D01*
X49400Y-60621D01*
X49598Y-60621D01*
X49780Y-60546D01*
X49920Y-60406D01*
X49996Y-60224D01*
X49996Y-60026D01*
X49996Y-62675D01*
X49396Y-62675D01*
X49396Y-61989D01*
X49349Y-61877D01*
X49263Y-61791D01*
X49151Y-61745D01*
X49030Y-61744D01*
X48996Y-61759D01*
X48996Y-60026D01*
X48996Y-59026D01*
X48921Y-58844D01*
X48880Y-58802D01*
X48880Y-45670D01*
X48833Y-45558D01*
X48814Y-45539D01*
X48814Y-36289D01*
X48768Y-36177D01*
X48682Y-36091D01*
X48659Y-36081D01*
X48659Y-32796D01*
X48613Y-32684D01*
X48527Y-32598D01*
X48415Y-32552D01*
X48293Y-32552D01*
X48181Y-32598D01*
X48095Y-32684D01*
X48049Y-32796D01*
X48049Y-32917D01*
X48095Y-33029D01*
X48181Y-33115D01*
X48293Y-33162D01*
X48414Y-33162D01*
X48526Y-33115D01*
X48612Y-33030D01*
X48659Y-32918D01*
X48659Y-32796D01*
X48659Y-36081D01*
X48570Y-36045D01*
X48449Y-36044D01*
X48337Y-36091D01*
X48251Y-36177D01*
X48204Y-36289D01*
X48204Y-36410D01*
X48250Y-36522D01*
X48336Y-36608D01*
X48448Y-36654D01*
X48570Y-36655D01*
X48682Y-36608D01*
X48768Y-36522D01*
X48814Y-36410D01*
X48814Y-36289D01*
X48814Y-45539D01*
X48747Y-45472D01*
X48690Y-45448D01*
X48690Y-38282D01*
X48643Y-38170D01*
X48558Y-38084D01*
X48446Y-38037D01*
X48324Y-38037D01*
X48212Y-38084D01*
X48126Y-38169D01*
X48080Y-38281D01*
X48080Y-38403D01*
X48126Y-38515D01*
X48212Y-38601D01*
X48324Y-38647D01*
X48445Y-38647D01*
X48557Y-38601D01*
X48643Y-38515D01*
X48690Y-38403D01*
X48690Y-38282D01*
X48690Y-45448D01*
X48635Y-45425D01*
X48514Y-45425D01*
X48402Y-45472D01*
X48316Y-45557D01*
X48270Y-45669D01*
X48269Y-45791D01*
X48316Y-45903D01*
X48402Y-45989D01*
X48514Y-46035D01*
X48635Y-46035D01*
X48747Y-45989D01*
X48833Y-45903D01*
X48879Y-45791D01*
X48880Y-45670D01*
X48880Y-58802D01*
X48781Y-58704D01*
X48661Y-58654D01*
X48661Y-49841D01*
X48615Y-49728D01*
X48529Y-49643D01*
X48417Y-49596D01*
X48296Y-49596D01*
X48184Y-49642D01*
X48098Y-49728D01*
X48051Y-49840D01*
X48051Y-49961D01*
X48097Y-50073D01*
X48183Y-50159D01*
X48295Y-50206D01*
X48417Y-50206D01*
X48529Y-50160D01*
X48615Y-50074D01*
X48661Y-49962D01*
X48661Y-49841D01*
X48661Y-58654D01*
X48599Y-58628D01*
X48401Y-58628D01*
X48401Y-58628D01*
X48401Y-53197D01*
X48401Y-51197D01*
X48393Y-50910D01*
X48298Y-50683D01*
X48185Y-50635D01*
X48114Y-50705D01*
X48114Y-50564D01*
X48066Y-50451D01*
X47797Y-50348D01*
X47636Y-50353D01*
X47636Y-25033D01*
X47590Y-24921D01*
X47504Y-24835D01*
X47392Y-24788D01*
X47271Y-24788D01*
X47159Y-24835D01*
X47073Y-24920D01*
X47026Y-25032D01*
X47026Y-25154D01*
X47072Y-25266D01*
X47158Y-25352D01*
X47270Y-25398D01*
X47392Y-25398D01*
X47504Y-25352D01*
X47590Y-25266D01*
X47636Y-25154D01*
X47636Y-25033D01*
X47636Y-50353D01*
X47525Y-50356D01*
X47525Y-38055D01*
X47478Y-37942D01*
X47393Y-37857D01*
X47281Y-37810D01*
X47159Y-37810D01*
X47047Y-37856D01*
X46961Y-37942D01*
X46917Y-38049D01*
X46917Y-34583D01*
X46871Y-34471D01*
X46785Y-34385D01*
X46673Y-34339D01*
X46580Y-34339D01*
X46580Y-32464D01*
X46533Y-32352D01*
X46447Y-32266D01*
X46335Y-32220D01*
X46290Y-32220D01*
X46290Y-30153D01*
X46244Y-30041D01*
X46158Y-29955D01*
X46046Y-29908D01*
X45925Y-29908D01*
X45910Y-29914D01*
X45910Y-28945D01*
X45863Y-28833D01*
X45778Y-28747D01*
X45708Y-28718D01*
X45708Y-23822D01*
X45662Y-23709D01*
X45576Y-23624D01*
X45464Y-23577D01*
X45342Y-23577D01*
X45230Y-23623D01*
X45144Y-23709D01*
X45098Y-23821D01*
X45098Y-23942D01*
X45144Y-24054D01*
X45230Y-24140D01*
X45342Y-24187D01*
X45463Y-24187D01*
X45575Y-24141D01*
X45661Y-24055D01*
X45708Y-23943D01*
X45708Y-23822D01*
X45708Y-28718D01*
X45666Y-28701D01*
X45544Y-28701D01*
X45432Y-28747D01*
X45346Y-28833D01*
X45300Y-28945D01*
X45300Y-29066D01*
X45346Y-29178D01*
X45432Y-29264D01*
X45544Y-29311D01*
X45665Y-29311D01*
X45777Y-29264D01*
X45863Y-29179D01*
X45910Y-29066D01*
X45910Y-28945D01*
X45910Y-29914D01*
X45813Y-29954D01*
X45727Y-30040D01*
X45680Y-30152D01*
X45680Y-30274D01*
X45726Y-30386D01*
X45812Y-30472D01*
X45924Y-30518D01*
X46045Y-30518D01*
X46158Y-30472D01*
X46244Y-30386D01*
X46290Y-30274D01*
X46290Y-30153D01*
X46290Y-32220D01*
X46214Y-32219D01*
X46102Y-32266D01*
X46016Y-32352D01*
X45970Y-32464D01*
X45969Y-32585D01*
X46016Y-32697D01*
X46102Y-32783D01*
X46214Y-32829D01*
X46335Y-32830D01*
X46447Y-32783D01*
X46533Y-32697D01*
X46579Y-32585D01*
X46580Y-32464D01*
X46580Y-34339D01*
X46552Y-34339D01*
X46439Y-34385D01*
X46354Y-34471D01*
X46307Y-34583D01*
X46307Y-34704D01*
X46353Y-34816D01*
X46439Y-34902D01*
X46551Y-34949D01*
X46672Y-34949D01*
X46784Y-34902D01*
X46870Y-34817D01*
X46917Y-34705D01*
X46917Y-34583D01*
X46917Y-38049D01*
X46915Y-38054D01*
X46915Y-38175D01*
X46961Y-38288D01*
X47047Y-38373D01*
X47159Y-38420D01*
X47280Y-38420D01*
X47392Y-38374D01*
X47478Y-38288D01*
X47525Y-38176D01*
X47525Y-38055D01*
X47525Y-50356D01*
X47510Y-50356D01*
X47283Y-50451D01*
X47235Y-50564D01*
X47675Y-51004D01*
X48114Y-50564D01*
X48114Y-50705D01*
X47745Y-51075D01*
X48185Y-51514D01*
X48298Y-51466D01*
X48401Y-51197D01*
X48401Y-53197D01*
X48393Y-52910D01*
X48298Y-52683D01*
X48185Y-52635D01*
X48114Y-52705D01*
X48114Y-52564D01*
X48114Y-51585D01*
X47675Y-51145D01*
X47604Y-51216D01*
X47604Y-51075D01*
X47164Y-50635D01*
X47051Y-50683D01*
X46948Y-50952D01*
X46956Y-51239D01*
X47051Y-51466D01*
X47164Y-51514D01*
X47604Y-51075D01*
X47604Y-51216D01*
X47235Y-51585D01*
X47283Y-51698D01*
X47552Y-51801D01*
X47839Y-51793D01*
X48066Y-51698D01*
X48114Y-51585D01*
X48114Y-52564D01*
X48066Y-52451D01*
X47797Y-52348D01*
X47510Y-52356D01*
X47297Y-52445D01*
X47297Y-51951D01*
X47202Y-51722D01*
X47028Y-51547D01*
X46799Y-51452D01*
X46551Y-51452D01*
X46401Y-51514D01*
X46401Y-51197D01*
X46393Y-50910D01*
X46367Y-50847D01*
X46367Y-47764D01*
X46330Y-47675D01*
X46330Y-39132D01*
X46283Y-39020D01*
X46197Y-38934D01*
X46085Y-38888D01*
X45964Y-38888D01*
X45852Y-38934D01*
X45766Y-39020D01*
X45720Y-39132D01*
X45719Y-39253D01*
X45766Y-39365D01*
X45852Y-39451D01*
X45964Y-39498D01*
X46085Y-39498D01*
X46197Y-39452D01*
X46283Y-39366D01*
X46329Y-39254D01*
X46330Y-39132D01*
X46330Y-47675D01*
X46320Y-47652D01*
X46234Y-47566D01*
X46122Y-47520D01*
X46001Y-47519D01*
X45889Y-47566D01*
X45803Y-47652D01*
X45757Y-47764D01*
X45756Y-47885D01*
X45803Y-47997D01*
X45888Y-48083D01*
X46001Y-48129D01*
X46122Y-48130D01*
X46234Y-48083D01*
X46320Y-47997D01*
X46366Y-47885D01*
X46367Y-47764D01*
X46367Y-50847D01*
X46298Y-50683D01*
X46185Y-50635D01*
X46114Y-50705D01*
X46114Y-50564D01*
X46066Y-50451D01*
X45991Y-50422D01*
X45991Y-49189D01*
X45945Y-49077D01*
X45859Y-48991D01*
X45747Y-48945D01*
X45625Y-48945D01*
X45586Y-48961D01*
X45586Y-34494D01*
X45540Y-34382D01*
X45454Y-34296D01*
X45342Y-34250D01*
X45220Y-34249D01*
X45108Y-34296D01*
X45022Y-34381D01*
X44976Y-34494D01*
X44976Y-34615D01*
X45022Y-34727D01*
X45108Y-34813D01*
X45220Y-34859D01*
X45341Y-34860D01*
X45453Y-34813D01*
X45539Y-34727D01*
X45586Y-34615D01*
X45586Y-34494D01*
X45586Y-48961D01*
X45513Y-48991D01*
X45427Y-49077D01*
X45381Y-49189D01*
X45381Y-49310D01*
X45427Y-49422D01*
X45513Y-49508D01*
X45625Y-49555D01*
X45746Y-49555D01*
X45858Y-49508D01*
X45944Y-49423D01*
X45991Y-49311D01*
X45991Y-49189D01*
X45991Y-50422D01*
X45797Y-50348D01*
X45510Y-50356D01*
X45283Y-50451D01*
X45235Y-50564D01*
X45675Y-51004D01*
X46114Y-50564D01*
X46114Y-50705D01*
X45745Y-51075D01*
X46185Y-51514D01*
X46298Y-51466D01*
X46401Y-51197D01*
X46401Y-51514D01*
X46322Y-51547D01*
X46147Y-51721D01*
X46114Y-51800D01*
X46114Y-51585D01*
X45675Y-51145D01*
X45604Y-51216D01*
X45604Y-51075D01*
X45164Y-50635D01*
X45051Y-50683D01*
X44948Y-50952D01*
X44956Y-51239D01*
X45051Y-51466D01*
X45164Y-51514D01*
X45604Y-51075D01*
X45604Y-51216D01*
X45235Y-51585D01*
X45283Y-51698D01*
X45552Y-51801D01*
X45839Y-51793D01*
X46066Y-51698D01*
X46114Y-51585D01*
X46114Y-51800D01*
X46052Y-51950D01*
X46052Y-52198D01*
X46147Y-52427D01*
X46321Y-52602D01*
X46550Y-52697D01*
X46798Y-52697D01*
X47027Y-52602D01*
X47202Y-52428D01*
X47297Y-52199D01*
X47297Y-51951D01*
X47297Y-52445D01*
X47283Y-52451D01*
X47235Y-52564D01*
X47675Y-53004D01*
X48114Y-52564D01*
X48114Y-52705D01*
X47745Y-53075D01*
X48185Y-53514D01*
X48298Y-53466D01*
X48401Y-53197D01*
X48401Y-58628D01*
X48219Y-58703D01*
X48114Y-58807D01*
X48114Y-53585D01*
X47675Y-53145D01*
X47604Y-53216D01*
X47604Y-53075D01*
X47164Y-52635D01*
X47051Y-52683D01*
X46948Y-52952D01*
X46956Y-53239D01*
X47051Y-53466D01*
X47164Y-53514D01*
X47604Y-53075D01*
X47604Y-53216D01*
X47235Y-53585D01*
X47283Y-53698D01*
X47552Y-53801D01*
X47839Y-53793D01*
X48066Y-53698D01*
X48114Y-53585D01*
X48114Y-58807D01*
X48079Y-58843D01*
X48003Y-59025D01*
X48003Y-59223D01*
X48078Y-59405D01*
X48218Y-59545D01*
X48400Y-59621D01*
X48598Y-59621D01*
X48780Y-59546D01*
X48920Y-59406D01*
X48996Y-59224D01*
X48996Y-59026D01*
X48996Y-60026D01*
X48921Y-59844D01*
X48781Y-59704D01*
X48599Y-59628D01*
X48401Y-59628D01*
X48219Y-59703D01*
X48079Y-59843D01*
X48003Y-60025D01*
X48003Y-60223D01*
X48078Y-60405D01*
X48218Y-60545D01*
X48400Y-60621D01*
X48598Y-60621D01*
X48780Y-60546D01*
X48920Y-60406D01*
X48996Y-60224D01*
X48996Y-60026D01*
X48996Y-61759D01*
X48918Y-61791D01*
X48832Y-61877D01*
X48786Y-61989D01*
X48785Y-62110D01*
X48832Y-62222D01*
X48917Y-62308D01*
X49030Y-62354D01*
X49151Y-62355D01*
X49263Y-62308D01*
X49349Y-62223D01*
X49395Y-62110D01*
X49396Y-61989D01*
X49396Y-62675D01*
X47996Y-62675D01*
X47996Y-60026D01*
X47996Y-59026D01*
X47921Y-58844D01*
X47781Y-58704D01*
X47599Y-58628D01*
X47401Y-58628D01*
X47219Y-58703D01*
X47079Y-58843D01*
X47003Y-59025D01*
X47003Y-59223D01*
X47078Y-59405D01*
X47218Y-59545D01*
X47400Y-59621D01*
X47598Y-59621D01*
X47780Y-59546D01*
X47920Y-59406D01*
X47996Y-59224D01*
X47996Y-59026D01*
X47996Y-60026D01*
X47921Y-59844D01*
X47781Y-59704D01*
X47599Y-59628D01*
X47401Y-59628D01*
X47219Y-59703D01*
X47079Y-59843D01*
X47003Y-60025D01*
X47003Y-60223D01*
X47078Y-60405D01*
X47218Y-60545D01*
X47400Y-60621D01*
X47598Y-60621D01*
X47780Y-60546D01*
X47920Y-60406D01*
X47996Y-60224D01*
X47996Y-60026D01*
X47996Y-62675D01*
X46996Y-62675D01*
X46996Y-60026D01*
X46996Y-59026D01*
X46921Y-58844D01*
X46781Y-58704D01*
X46599Y-58628D01*
X46401Y-58628D01*
X46401Y-58628D01*
X46401Y-53197D01*
X46393Y-52910D01*
X46298Y-52683D01*
X46185Y-52635D01*
X46114Y-52705D01*
X46114Y-52564D01*
X46066Y-52451D01*
X45797Y-52348D01*
X45510Y-52356D01*
X45283Y-52451D01*
X45235Y-52564D01*
X45675Y-53004D01*
X46114Y-52564D01*
X46114Y-52705D01*
X45745Y-53075D01*
X46185Y-53514D01*
X46298Y-53466D01*
X46401Y-53197D01*
X46401Y-58628D01*
X46257Y-58687D01*
X46257Y-56990D01*
X46211Y-56878D01*
X46125Y-56792D01*
X46114Y-56788D01*
X46114Y-53585D01*
X45675Y-53145D01*
X45604Y-53216D01*
X45604Y-53075D01*
X45164Y-52635D01*
X45051Y-52683D01*
X44948Y-52952D01*
X44956Y-53239D01*
X45051Y-53466D01*
X45164Y-53514D01*
X45604Y-53075D01*
X45604Y-53216D01*
X45235Y-53585D01*
X45283Y-53698D01*
X45552Y-53801D01*
X45839Y-53793D01*
X46066Y-53698D01*
X46114Y-53585D01*
X46114Y-56788D01*
X46013Y-56746D01*
X45892Y-56746D01*
X45779Y-56792D01*
X45694Y-56878D01*
X45647Y-56990D01*
X45647Y-57111D01*
X45693Y-57223D01*
X45779Y-57309D01*
X45891Y-57356D01*
X46012Y-57356D01*
X46125Y-57309D01*
X46210Y-57224D01*
X46257Y-57112D01*
X46257Y-56990D01*
X46257Y-58687D01*
X46219Y-58703D01*
X46079Y-58843D01*
X46003Y-59025D01*
X46003Y-59223D01*
X46078Y-59405D01*
X46218Y-59545D01*
X46400Y-59621D01*
X46598Y-59621D01*
X46780Y-59546D01*
X46920Y-59406D01*
X46996Y-59224D01*
X46996Y-59026D01*
X46996Y-60026D01*
X46921Y-59844D01*
X46781Y-59704D01*
X46599Y-59628D01*
X46401Y-59628D01*
X46219Y-59703D01*
X46079Y-59843D01*
X46056Y-59898D01*
X46019Y-59809D01*
X45996Y-59801D01*
X45996Y-59026D01*
X45921Y-58844D01*
X45781Y-58704D01*
X45599Y-58628D01*
X45401Y-58628D01*
X45219Y-58703D01*
X45079Y-58843D01*
X45056Y-58898D01*
X45019Y-58809D01*
X44919Y-58776D01*
X44848Y-58846D01*
X44848Y-58705D01*
X44815Y-58605D01*
X44592Y-58523D01*
X44355Y-58534D01*
X44184Y-58605D01*
X44151Y-58705D01*
X44500Y-59054D01*
X44848Y-58705D01*
X44848Y-58846D01*
X44570Y-59125D01*
X44919Y-59473D01*
X45019Y-59440D01*
X45054Y-59346D01*
X45078Y-59405D01*
X45218Y-59545D01*
X45273Y-59568D01*
X45184Y-59605D01*
X45151Y-59705D01*
X45500Y-60054D01*
X45848Y-59705D01*
X45815Y-59605D01*
X45721Y-59570D01*
X45780Y-59546D01*
X45920Y-59406D01*
X45996Y-59224D01*
X45996Y-59026D01*
X45996Y-59801D01*
X45919Y-59776D01*
X45570Y-60125D01*
X45919Y-60473D01*
X46019Y-60440D01*
X46054Y-60346D01*
X46078Y-60405D01*
X46218Y-60545D01*
X46400Y-60621D01*
X46598Y-60621D01*
X46780Y-60546D01*
X46920Y-60406D01*
X46996Y-60224D01*
X46996Y-60026D01*
X46996Y-62675D01*
X45848Y-62675D01*
X45848Y-60544D01*
X45500Y-60195D01*
X45429Y-60266D01*
X45429Y-60125D01*
X45080Y-59776D01*
X44980Y-59809D01*
X44945Y-59903D01*
X44921Y-59844D01*
X44781Y-59704D01*
X44726Y-59681D01*
X44815Y-59644D01*
X44848Y-59544D01*
X44500Y-59195D01*
X44429Y-59266D01*
X44429Y-59125D01*
X44080Y-58776D01*
X43980Y-58809D01*
X43945Y-58903D01*
X43921Y-58844D01*
X43781Y-58704D01*
X43680Y-58662D01*
X43680Y-40827D01*
X43633Y-40714D01*
X43547Y-40629D01*
X43507Y-40612D01*
X43507Y-32370D01*
X43460Y-32257D01*
X43375Y-32172D01*
X43263Y-32125D01*
X43141Y-32125D01*
X43029Y-32171D01*
X42943Y-32257D01*
X42897Y-32369D01*
X42897Y-32490D01*
X42943Y-32603D01*
X43029Y-32688D01*
X43141Y-32735D01*
X43262Y-32735D01*
X43374Y-32689D01*
X43460Y-32603D01*
X43507Y-32491D01*
X43507Y-32370D01*
X43507Y-40612D01*
X43435Y-40582D01*
X43314Y-40582D01*
X43202Y-40628D01*
X43116Y-40714D01*
X43070Y-40826D01*
X43069Y-40947D01*
X43116Y-41060D01*
X43202Y-41145D01*
X43314Y-41192D01*
X43435Y-41192D01*
X43547Y-41146D01*
X43633Y-41060D01*
X43679Y-40948D01*
X43680Y-40827D01*
X43680Y-58662D01*
X43599Y-58628D01*
X43446Y-58628D01*
X43446Y-42847D01*
X43400Y-42735D01*
X43314Y-42649D01*
X43202Y-42602D01*
X43081Y-42602D01*
X42969Y-42649D01*
X42883Y-42734D01*
X42836Y-42846D01*
X42836Y-42968D01*
X42883Y-43080D01*
X42968Y-43166D01*
X43080Y-43212D01*
X43202Y-43212D01*
X43314Y-43166D01*
X43400Y-43080D01*
X43446Y-42968D01*
X43446Y-42847D01*
X43446Y-58628D01*
X43401Y-58628D01*
X43219Y-58703D01*
X43079Y-58843D01*
X43003Y-59025D01*
X43003Y-59223D01*
X43078Y-59405D01*
X43218Y-59545D01*
X43400Y-59621D01*
X43598Y-59621D01*
X43780Y-59546D01*
X43920Y-59406D01*
X43943Y-59351D01*
X43980Y-59440D01*
X44080Y-59473D01*
X44429Y-59125D01*
X44429Y-59266D01*
X44151Y-59544D01*
X44184Y-59644D01*
X44278Y-59679D01*
X44219Y-59703D01*
X44079Y-59843D01*
X44003Y-60025D01*
X44003Y-60223D01*
X44078Y-60405D01*
X44218Y-60545D01*
X44400Y-60621D01*
X44598Y-60621D01*
X44780Y-60546D01*
X44920Y-60406D01*
X44943Y-60351D01*
X44980Y-60440D01*
X45080Y-60473D01*
X45429Y-60125D01*
X45429Y-60266D01*
X45151Y-60544D01*
X45184Y-60644D01*
X45407Y-60726D01*
X45644Y-60715D01*
X45815Y-60644D01*
X45848Y-60544D01*
X45848Y-62675D01*
X43996Y-62675D01*
X43996Y-60026D01*
X43921Y-59844D01*
X43781Y-59704D01*
X43599Y-59628D01*
X43401Y-59628D01*
X43219Y-59703D01*
X43079Y-59843D01*
X43003Y-60025D01*
X43003Y-60223D01*
X43078Y-60405D01*
X43218Y-60545D01*
X43400Y-60621D01*
X43598Y-60621D01*
X43780Y-60546D01*
X43920Y-60406D01*
X43996Y-60224D01*
X43996Y-60026D01*
X43996Y-62675D01*
X42996Y-62675D01*
X42996Y-60026D01*
X42996Y-59026D01*
X42921Y-58844D01*
X42781Y-58704D01*
X42688Y-58665D01*
X42688Y-42314D01*
X42641Y-42202D01*
X42556Y-42116D01*
X42443Y-42070D01*
X42322Y-42069D01*
X42210Y-42116D01*
X42124Y-42202D01*
X42078Y-42314D01*
X42077Y-42435D01*
X42124Y-42547D01*
X42210Y-42633D01*
X42322Y-42679D01*
X42443Y-42680D01*
X42555Y-42633D01*
X42641Y-42547D01*
X42687Y-42435D01*
X42688Y-42314D01*
X42688Y-58665D01*
X42599Y-58628D01*
X42517Y-58628D01*
X42517Y-46543D01*
X42471Y-46431D01*
X42385Y-46345D01*
X42273Y-46298D01*
X42152Y-46298D01*
X42039Y-46344D01*
X41954Y-46430D01*
X41907Y-46542D01*
X41907Y-46664D01*
X41953Y-46776D01*
X42039Y-46862D01*
X42151Y-46908D01*
X42272Y-46908D01*
X42385Y-46862D01*
X42470Y-46776D01*
X42517Y-46664D01*
X42517Y-46543D01*
X42517Y-58628D01*
X42401Y-58628D01*
X42219Y-58703D01*
X42079Y-58843D01*
X42003Y-59025D01*
X42003Y-59223D01*
X42078Y-59405D01*
X42218Y-59545D01*
X42400Y-59621D01*
X42598Y-59621D01*
X42780Y-59546D01*
X42920Y-59406D01*
X42996Y-59224D01*
X42996Y-59026D01*
X42996Y-60026D01*
X42921Y-59844D01*
X42781Y-59704D01*
X42599Y-59628D01*
X42401Y-59628D01*
X42219Y-59703D01*
X42079Y-59843D01*
X42003Y-60025D01*
X42003Y-60223D01*
X42078Y-60405D01*
X42218Y-60545D01*
X42400Y-60621D01*
X42598Y-60621D01*
X42780Y-60546D01*
X42920Y-60406D01*
X42996Y-60224D01*
X42996Y-60026D01*
X42996Y-62675D01*
X41996Y-62675D01*
X41996Y-60026D01*
X41996Y-59026D01*
X41921Y-58844D01*
X41864Y-58787D01*
X41864Y-36230D01*
X41818Y-36118D01*
X41740Y-36040D01*
X41740Y-33164D01*
X41694Y-33052D01*
X41608Y-32966D01*
X41505Y-32923D01*
X41505Y-25039D01*
X41458Y-24927D01*
X41372Y-24841D01*
X41260Y-24794D01*
X41139Y-24794D01*
X41027Y-24841D01*
X40941Y-24926D01*
X40895Y-25038D01*
X40894Y-25160D01*
X40941Y-25272D01*
X41027Y-25358D01*
X41139Y-25404D01*
X41260Y-25404D01*
X41372Y-25358D01*
X41458Y-25272D01*
X41504Y-25160D01*
X41505Y-25039D01*
X41505Y-32923D01*
X41496Y-32919D01*
X41375Y-32919D01*
X41263Y-32966D01*
X41177Y-33051D01*
X41130Y-33163D01*
X41130Y-33285D01*
X41177Y-33397D01*
X41262Y-33483D01*
X41374Y-33529D01*
X41496Y-33529D01*
X41608Y-33483D01*
X41694Y-33397D01*
X41740Y-33285D01*
X41740Y-33164D01*
X41740Y-36040D01*
X41732Y-36032D01*
X41620Y-35985D01*
X41499Y-35985D01*
X41386Y-36032D01*
X41301Y-36117D01*
X41254Y-36229D01*
X41254Y-36351D01*
X41300Y-36463D01*
X41386Y-36549D01*
X41498Y-36595D01*
X41619Y-36595D01*
X41732Y-36549D01*
X41817Y-36463D01*
X41864Y-36351D01*
X41864Y-36230D01*
X41864Y-58787D01*
X41781Y-58704D01*
X41599Y-58628D01*
X41507Y-58628D01*
X41507Y-39268D01*
X41461Y-39156D01*
X41375Y-39070D01*
X41311Y-39044D01*
X41383Y-38972D01*
X41429Y-38860D01*
X41430Y-38739D01*
X41383Y-38627D01*
X41297Y-38541D01*
X41185Y-38494D01*
X41064Y-38494D01*
X40952Y-38541D01*
X40866Y-38626D01*
X40820Y-38738D01*
X40819Y-38860D01*
X40866Y-38972D01*
X40952Y-39058D01*
X41015Y-39084D01*
X40944Y-39156D01*
X40897Y-39268D01*
X40897Y-39389D01*
X40944Y-39501D01*
X41029Y-39587D01*
X41141Y-39633D01*
X41263Y-39634D01*
X41375Y-39587D01*
X41461Y-39502D01*
X41507Y-39389D01*
X41507Y-39268D01*
X41507Y-58628D01*
X41401Y-58628D01*
X41219Y-58703D01*
X41079Y-58843D01*
X41003Y-59025D01*
X41003Y-59223D01*
X41078Y-59405D01*
X41218Y-59545D01*
X41400Y-59621D01*
X41598Y-59621D01*
X41780Y-59546D01*
X41920Y-59406D01*
X41996Y-59224D01*
X41996Y-59026D01*
X41996Y-60026D01*
X41921Y-59844D01*
X41781Y-59704D01*
X41599Y-59628D01*
X41401Y-59628D01*
X41219Y-59703D01*
X41079Y-59843D01*
X41003Y-60025D01*
X41003Y-60223D01*
X41078Y-60405D01*
X41218Y-60545D01*
X41400Y-60621D01*
X41598Y-60621D01*
X41780Y-60546D01*
X41920Y-60406D01*
X41996Y-60224D01*
X41996Y-60026D01*
X41996Y-62675D01*
X40996Y-62675D01*
X40996Y-60026D01*
X40996Y-59026D01*
X40921Y-58844D01*
X40781Y-58704D01*
X40665Y-58655D01*
X40665Y-28314D01*
X40618Y-28202D01*
X40532Y-28116D01*
X40420Y-28070D01*
X40299Y-28070D01*
X40187Y-28116D01*
X40101Y-28202D01*
X40055Y-28314D01*
X40054Y-28435D01*
X40101Y-28547D01*
X40187Y-28633D01*
X40299Y-28680D01*
X40420Y-28680D01*
X40532Y-28633D01*
X40618Y-28548D01*
X40664Y-28436D01*
X40665Y-28314D01*
X40665Y-58655D01*
X40599Y-58628D01*
X40595Y-58628D01*
X40595Y-57504D01*
X40548Y-57392D01*
X40463Y-57306D01*
X40351Y-57260D01*
X40229Y-57260D01*
X40117Y-57306D01*
X40031Y-57392D01*
X39985Y-57504D01*
X39985Y-57625D01*
X40031Y-57737D01*
X40117Y-57823D01*
X40229Y-57870D01*
X40350Y-57870D01*
X40462Y-57823D01*
X40548Y-57738D01*
X40595Y-57626D01*
X40595Y-57504D01*
X40595Y-58628D01*
X40401Y-58628D01*
X40219Y-58703D01*
X40079Y-58843D01*
X40056Y-58898D01*
X40019Y-58809D01*
X39919Y-58776D01*
X39848Y-58846D01*
X39848Y-58705D01*
X39815Y-58605D01*
X39592Y-58523D01*
X39555Y-58525D01*
X39555Y-33477D01*
X39509Y-33365D01*
X39423Y-33279D01*
X39396Y-33268D01*
X39396Y-25698D01*
X39349Y-25586D01*
X39264Y-25500D01*
X39152Y-25453D01*
X39030Y-25453D01*
X38918Y-25500D01*
X38832Y-25585D01*
X38786Y-25697D01*
X38786Y-25819D01*
X38832Y-25931D01*
X38918Y-26017D01*
X39030Y-26063D01*
X39151Y-26063D01*
X39263Y-26017D01*
X39349Y-25931D01*
X39396Y-25819D01*
X39396Y-25698D01*
X39396Y-33268D01*
X39311Y-33233D01*
X39190Y-33233D01*
X39077Y-33279D01*
X38992Y-33365D01*
X38945Y-33477D01*
X38945Y-33598D01*
X38991Y-33710D01*
X39006Y-33725D01*
X38963Y-33725D01*
X38851Y-33771D01*
X38765Y-33857D01*
X38719Y-33969D01*
X38719Y-34090D01*
X38765Y-34203D01*
X38851Y-34288D01*
X38963Y-34335D01*
X39084Y-34335D01*
X39196Y-34289D01*
X39282Y-34203D01*
X39329Y-34091D01*
X39329Y-33970D01*
X39282Y-33857D01*
X39268Y-33843D01*
X39310Y-33843D01*
X39423Y-33796D01*
X39508Y-33711D01*
X39555Y-33599D01*
X39555Y-33477D01*
X39555Y-58525D01*
X39355Y-58534D01*
X39184Y-58605D01*
X39151Y-58705D01*
X39500Y-59054D01*
X39848Y-58705D01*
X39848Y-58846D01*
X39570Y-59125D01*
X39919Y-59473D01*
X40019Y-59440D01*
X40054Y-59346D01*
X40078Y-59405D01*
X40218Y-59545D01*
X40400Y-59621D01*
X40598Y-59621D01*
X40780Y-59546D01*
X40920Y-59406D01*
X40996Y-59224D01*
X40996Y-59026D01*
X40996Y-60026D01*
X40921Y-59844D01*
X40781Y-59704D01*
X40599Y-59628D01*
X40401Y-59628D01*
X40219Y-59703D01*
X40079Y-59843D01*
X40056Y-59898D01*
X40019Y-59809D01*
X39919Y-59776D01*
X39848Y-59846D01*
X39848Y-59705D01*
X39822Y-59625D01*
X39848Y-59544D01*
X39500Y-59195D01*
X39429Y-59266D01*
X39429Y-59125D01*
X39080Y-58776D01*
X38980Y-58809D01*
X38945Y-58903D01*
X38921Y-58844D01*
X38781Y-58704D01*
X38715Y-58676D01*
X38715Y-23792D01*
X38669Y-23679D01*
X38583Y-23594D01*
X38471Y-23547D01*
X38350Y-23547D01*
X38238Y-23593D01*
X38152Y-23679D01*
X38105Y-23791D01*
X38105Y-23912D01*
X38151Y-24024D01*
X38237Y-24110D01*
X38349Y-24157D01*
X38470Y-24157D01*
X38583Y-24111D01*
X38668Y-24025D01*
X38715Y-23913D01*
X38715Y-23792D01*
X38715Y-58676D01*
X38599Y-58628D01*
X38582Y-58628D01*
X38582Y-40633D01*
X38536Y-40521D01*
X38451Y-40435D01*
X38451Y-39097D01*
X38451Y-37097D01*
X38443Y-36810D01*
X38348Y-36583D01*
X38235Y-36535D01*
X38164Y-36605D01*
X38164Y-36464D01*
X38116Y-36351D01*
X37847Y-36248D01*
X37560Y-36256D01*
X37333Y-36351D01*
X37285Y-36464D01*
X37725Y-36904D01*
X38164Y-36464D01*
X38164Y-36605D01*
X37795Y-36975D01*
X38235Y-37414D01*
X38348Y-37366D01*
X38451Y-37097D01*
X38451Y-39097D01*
X38443Y-38810D01*
X38348Y-38583D01*
X38235Y-38535D01*
X38164Y-38605D01*
X38164Y-38464D01*
X38164Y-37485D01*
X37725Y-37045D01*
X37654Y-37116D01*
X37654Y-36975D01*
X37214Y-36535D01*
X37101Y-36583D01*
X36998Y-36852D01*
X37006Y-37139D01*
X37101Y-37366D01*
X37214Y-37414D01*
X37654Y-36975D01*
X37654Y-37116D01*
X37285Y-37485D01*
X37333Y-37598D01*
X37602Y-37701D01*
X37889Y-37693D01*
X38116Y-37598D01*
X38164Y-37485D01*
X38164Y-38464D01*
X38116Y-38351D01*
X37847Y-38248D01*
X37560Y-38256D01*
X37347Y-38345D01*
X37347Y-37851D01*
X37252Y-37622D01*
X37078Y-37447D01*
X36849Y-37352D01*
X36601Y-37352D01*
X36451Y-37414D01*
X36451Y-37097D01*
X36443Y-36810D01*
X36348Y-36583D01*
X36235Y-36535D01*
X36164Y-36605D01*
X35795Y-36975D01*
X36235Y-37414D01*
X36348Y-37366D01*
X36451Y-37097D01*
X36451Y-37414D01*
X36372Y-37447D01*
X36197Y-37621D01*
X36164Y-37700D01*
X36102Y-37850D01*
X36102Y-38098D01*
X36197Y-38327D01*
X36371Y-38502D01*
X36600Y-38597D01*
X36848Y-38597D01*
X37077Y-38502D01*
X37252Y-38328D01*
X37347Y-38099D01*
X37347Y-37851D01*
X37347Y-38345D01*
X37333Y-38351D01*
X37285Y-38464D01*
X37725Y-38904D01*
X38164Y-38464D01*
X38164Y-38605D01*
X37795Y-38975D01*
X38235Y-39414D01*
X38348Y-39366D01*
X38451Y-39097D01*
X38451Y-40435D01*
X38450Y-40435D01*
X38338Y-40388D01*
X38217Y-40388D01*
X38164Y-40410D01*
X38164Y-39485D01*
X37725Y-39045D01*
X37654Y-39116D01*
X37654Y-38975D01*
X37214Y-38535D01*
X37101Y-38583D01*
X36998Y-38852D01*
X37006Y-39139D01*
X37101Y-39366D01*
X37214Y-39414D01*
X37654Y-38975D01*
X37654Y-39116D01*
X37285Y-39485D01*
X37333Y-39598D01*
X37602Y-39701D01*
X37889Y-39693D01*
X38116Y-39598D01*
X38164Y-39485D01*
X38164Y-40410D01*
X38105Y-40435D01*
X38019Y-40520D01*
X37972Y-40632D01*
X37972Y-40754D01*
X38019Y-40866D01*
X38104Y-40952D01*
X38216Y-40998D01*
X38338Y-40998D01*
X38450Y-40952D01*
X38536Y-40866D01*
X38582Y-40754D01*
X38582Y-40633D01*
X38582Y-58628D01*
X38451Y-58628D01*
X38451Y-50197D01*
X38451Y-48197D01*
X38451Y-44997D01*
X38451Y-42997D01*
X38443Y-42710D01*
X38348Y-42483D01*
X38235Y-42435D01*
X38164Y-42505D01*
X38164Y-42364D01*
X38116Y-42251D01*
X37847Y-42148D01*
X37615Y-42155D01*
X37615Y-41364D01*
X37568Y-41252D01*
X37482Y-41166D01*
X37370Y-41120D01*
X37249Y-41119D01*
X37137Y-41166D01*
X37051Y-41252D01*
X37005Y-41364D01*
X37004Y-41485D01*
X37051Y-41597D01*
X37137Y-41683D01*
X37249Y-41729D01*
X37370Y-41730D01*
X37482Y-41683D01*
X37568Y-41597D01*
X37614Y-41485D01*
X37615Y-41364D01*
X37615Y-42155D01*
X37560Y-42156D01*
X37333Y-42251D01*
X37285Y-42364D01*
X37725Y-42804D01*
X38164Y-42364D01*
X38164Y-42505D01*
X37795Y-42875D01*
X38235Y-43314D01*
X38348Y-43266D01*
X38451Y-42997D01*
X38451Y-44997D01*
X38443Y-44710D01*
X38348Y-44483D01*
X38235Y-44435D01*
X38164Y-44505D01*
X38164Y-44364D01*
X38164Y-43385D01*
X37725Y-42945D01*
X37654Y-43016D01*
X37654Y-42875D01*
X37214Y-42435D01*
X37101Y-42483D01*
X36998Y-42752D01*
X37006Y-43039D01*
X37101Y-43266D01*
X37214Y-43314D01*
X37654Y-42875D01*
X37654Y-43016D01*
X37285Y-43385D01*
X37333Y-43498D01*
X37602Y-43601D01*
X37889Y-43593D01*
X38116Y-43498D01*
X38164Y-43385D01*
X38164Y-44364D01*
X38116Y-44251D01*
X37847Y-44148D01*
X37560Y-44156D01*
X37347Y-44245D01*
X37347Y-43751D01*
X37252Y-43522D01*
X37078Y-43347D01*
X36849Y-43252D01*
X36601Y-43252D01*
X36451Y-43314D01*
X36451Y-42997D01*
X36451Y-39097D01*
X36443Y-38810D01*
X36348Y-38583D01*
X36235Y-38535D01*
X36164Y-38605D01*
X35795Y-38975D01*
X36235Y-39414D01*
X36348Y-39366D01*
X36451Y-39097D01*
X36451Y-42997D01*
X36443Y-42710D01*
X36348Y-42483D01*
X36235Y-42435D01*
X36164Y-42505D01*
X35795Y-42875D01*
X36235Y-43314D01*
X36348Y-43266D01*
X36451Y-42997D01*
X36451Y-43314D01*
X36372Y-43347D01*
X36197Y-43521D01*
X36164Y-43600D01*
X36102Y-43750D01*
X36102Y-43998D01*
X36197Y-44227D01*
X36371Y-44402D01*
X36600Y-44497D01*
X36848Y-44497D01*
X37077Y-44402D01*
X37252Y-44228D01*
X37347Y-43999D01*
X37347Y-43751D01*
X37347Y-44245D01*
X37333Y-44251D01*
X37285Y-44364D01*
X37725Y-44804D01*
X38164Y-44364D01*
X38164Y-44505D01*
X37795Y-44875D01*
X38235Y-45314D01*
X38348Y-45266D01*
X38451Y-44997D01*
X38451Y-48197D01*
X38443Y-47910D01*
X38348Y-47683D01*
X38235Y-47635D01*
X38164Y-47705D01*
X38164Y-47564D01*
X38164Y-45385D01*
X37725Y-44945D01*
X37654Y-45016D01*
X37654Y-44875D01*
X37214Y-44435D01*
X37101Y-44483D01*
X36998Y-44752D01*
X37006Y-45039D01*
X37101Y-45266D01*
X37214Y-45314D01*
X37654Y-44875D01*
X37654Y-45016D01*
X37285Y-45385D01*
X37333Y-45498D01*
X37602Y-45601D01*
X37889Y-45593D01*
X38116Y-45498D01*
X38164Y-45385D01*
X38164Y-47564D01*
X38116Y-47451D01*
X37847Y-47348D01*
X37560Y-47356D01*
X37333Y-47451D01*
X37285Y-47564D01*
X37725Y-48004D01*
X38164Y-47564D01*
X38164Y-47705D01*
X37795Y-48075D01*
X38235Y-48514D01*
X38348Y-48466D01*
X38451Y-48197D01*
X38451Y-50197D01*
X38443Y-49910D01*
X38348Y-49683D01*
X38235Y-49635D01*
X38164Y-49705D01*
X38164Y-49564D01*
X38164Y-48585D01*
X37725Y-48145D01*
X37654Y-48216D01*
X37654Y-48075D01*
X37214Y-47635D01*
X37101Y-47683D01*
X36998Y-47952D01*
X37006Y-48239D01*
X37101Y-48466D01*
X37214Y-48514D01*
X37654Y-48075D01*
X37654Y-48216D01*
X37285Y-48585D01*
X37333Y-48698D01*
X37602Y-48801D01*
X37889Y-48793D01*
X38116Y-48698D01*
X38164Y-48585D01*
X38164Y-49564D01*
X38116Y-49451D01*
X37847Y-49348D01*
X37560Y-49356D01*
X37347Y-49445D01*
X37347Y-48951D01*
X37252Y-48722D01*
X37078Y-48547D01*
X36849Y-48452D01*
X36601Y-48452D01*
X36451Y-48514D01*
X36451Y-48197D01*
X36451Y-44997D01*
X36443Y-44710D01*
X36348Y-44483D01*
X36235Y-44435D01*
X36164Y-44505D01*
X35795Y-44875D01*
X36235Y-45314D01*
X36348Y-45266D01*
X36451Y-44997D01*
X36451Y-48197D01*
X36443Y-47910D01*
X36348Y-47683D01*
X36235Y-47635D01*
X36164Y-47705D01*
X35795Y-48075D01*
X36235Y-48514D01*
X36348Y-48466D01*
X36451Y-48197D01*
X36451Y-48514D01*
X36372Y-48547D01*
X36197Y-48721D01*
X36164Y-48800D01*
X36102Y-48950D01*
X36102Y-49198D01*
X36197Y-49427D01*
X36371Y-49602D01*
X36600Y-49697D01*
X36848Y-49697D01*
X37077Y-49602D01*
X37252Y-49428D01*
X37347Y-49199D01*
X37347Y-48951D01*
X37347Y-49445D01*
X37333Y-49451D01*
X37285Y-49564D01*
X37725Y-50004D01*
X38164Y-49564D01*
X38164Y-49705D01*
X37795Y-50075D01*
X38235Y-50514D01*
X38348Y-50466D01*
X38451Y-50197D01*
X38451Y-58628D01*
X38401Y-58628D01*
X38219Y-58703D01*
X38164Y-58757D01*
X38164Y-50585D01*
X37725Y-50145D01*
X37654Y-50216D01*
X37654Y-50075D01*
X37214Y-49635D01*
X37101Y-49683D01*
X36998Y-49952D01*
X37006Y-50239D01*
X37101Y-50466D01*
X37214Y-50514D01*
X37654Y-50075D01*
X37654Y-50216D01*
X37285Y-50585D01*
X37333Y-50698D01*
X37602Y-50801D01*
X37889Y-50793D01*
X38116Y-50698D01*
X38164Y-50585D01*
X38164Y-58757D01*
X38079Y-58843D01*
X38003Y-59025D01*
X38003Y-59223D01*
X38078Y-59405D01*
X38218Y-59545D01*
X38400Y-59621D01*
X38598Y-59621D01*
X38780Y-59546D01*
X38920Y-59406D01*
X38943Y-59351D01*
X38980Y-59440D01*
X39080Y-59473D01*
X39429Y-59125D01*
X39429Y-59266D01*
X39151Y-59544D01*
X39177Y-59625D01*
X39151Y-59705D01*
X39500Y-60054D01*
X39848Y-59705D01*
X39848Y-59846D01*
X39570Y-60125D01*
X39919Y-60473D01*
X40019Y-60440D01*
X40054Y-60346D01*
X40078Y-60405D01*
X40218Y-60545D01*
X40400Y-60621D01*
X40598Y-60621D01*
X40780Y-60546D01*
X40920Y-60406D01*
X40996Y-60224D01*
X40996Y-60026D01*
X40996Y-62675D01*
X39848Y-62675D01*
X39848Y-60544D01*
X39500Y-60195D01*
X39429Y-60266D01*
X39429Y-60125D01*
X39080Y-59776D01*
X38980Y-59809D01*
X38945Y-59903D01*
X38921Y-59844D01*
X38781Y-59704D01*
X38599Y-59628D01*
X38401Y-59628D01*
X38219Y-59703D01*
X38079Y-59843D01*
X38003Y-60025D01*
X38003Y-60223D01*
X38078Y-60405D01*
X38218Y-60545D01*
X38400Y-60621D01*
X38598Y-60621D01*
X38780Y-60546D01*
X38920Y-60406D01*
X38943Y-60351D01*
X38980Y-60440D01*
X39080Y-60473D01*
X39429Y-60125D01*
X39429Y-60266D01*
X39151Y-60544D01*
X39184Y-60644D01*
X39407Y-60726D01*
X39644Y-60715D01*
X39815Y-60644D01*
X39848Y-60544D01*
X39848Y-62675D01*
X37996Y-62675D01*
X37996Y-60026D01*
X37996Y-59026D01*
X37921Y-58844D01*
X37781Y-58704D01*
X37599Y-58628D01*
X37401Y-58628D01*
X37219Y-58703D01*
X37079Y-58843D01*
X37003Y-59025D01*
X37003Y-59223D01*
X37078Y-59405D01*
X37218Y-59545D01*
X37400Y-59621D01*
X37598Y-59621D01*
X37780Y-59546D01*
X37920Y-59406D01*
X37996Y-59224D01*
X37996Y-59026D01*
X37996Y-60026D01*
X37921Y-59844D01*
X37781Y-59704D01*
X37599Y-59628D01*
X37401Y-59628D01*
X37219Y-59703D01*
X37079Y-59843D01*
X37003Y-60025D01*
X37003Y-60223D01*
X37078Y-60405D01*
X37218Y-60545D01*
X37400Y-60621D01*
X37598Y-60621D01*
X37780Y-60546D01*
X37920Y-60406D01*
X37996Y-60224D01*
X37996Y-60026D01*
X37996Y-62675D01*
X36451Y-62675D01*
X36451Y-50197D01*
X36443Y-49910D01*
X36348Y-49683D01*
X36235Y-49635D01*
X36164Y-49705D01*
X35795Y-50075D01*
X36235Y-50514D01*
X36348Y-50466D01*
X36451Y-50197D01*
X36451Y-62675D01*
X36164Y-62675D01*
X35225Y-62675D01*
X35225Y-50615D01*
X35240Y-50630D01*
X35285Y-50585D01*
X35333Y-50698D01*
X35602Y-50801D01*
X35889Y-50793D01*
X36116Y-50698D01*
X36164Y-50585D01*
X35725Y-50145D01*
X35719Y-50151D01*
X35648Y-50080D01*
X35654Y-50075D01*
X35648Y-50069D01*
X35719Y-49998D01*
X35725Y-50004D01*
X36164Y-49564D01*
X36116Y-49451D01*
X35847Y-49348D01*
X35560Y-49356D01*
X35333Y-49451D01*
X35285Y-49564D01*
X35240Y-49519D01*
X35225Y-49534D01*
X35225Y-48615D01*
X35240Y-48630D01*
X35285Y-48585D01*
X35333Y-48698D01*
X35602Y-48801D01*
X35889Y-48793D01*
X36116Y-48698D01*
X36164Y-48585D01*
X35725Y-48145D01*
X35719Y-48151D01*
X35648Y-48080D01*
X35654Y-48075D01*
X35648Y-48069D01*
X35719Y-47998D01*
X35725Y-48004D01*
X36164Y-47564D01*
X36116Y-47451D01*
X35847Y-47348D01*
X35560Y-47356D01*
X35333Y-47451D01*
X35285Y-47564D01*
X35240Y-47519D01*
X35225Y-47534D01*
X35225Y-45415D01*
X35240Y-45430D01*
X35285Y-45385D01*
X35333Y-45498D01*
X35602Y-45601D01*
X35889Y-45593D01*
X36116Y-45498D01*
X36164Y-45385D01*
X35725Y-44945D01*
X35719Y-44951D01*
X35648Y-44880D01*
X35654Y-44875D01*
X35648Y-44869D01*
X35719Y-44798D01*
X35725Y-44804D01*
X36164Y-44364D01*
X36116Y-44251D01*
X35847Y-44148D01*
X35560Y-44156D01*
X35333Y-44251D01*
X35285Y-44364D01*
X35240Y-44319D01*
X35225Y-44334D01*
X35225Y-43415D01*
X35240Y-43430D01*
X35285Y-43385D01*
X35333Y-43498D01*
X35602Y-43601D01*
X35889Y-43593D01*
X36116Y-43498D01*
X36164Y-43385D01*
X35725Y-42945D01*
X35719Y-42951D01*
X35648Y-42880D01*
X35654Y-42875D01*
X35648Y-42869D01*
X35719Y-42798D01*
X35725Y-42804D01*
X36164Y-42364D01*
X36116Y-42251D01*
X35847Y-42148D01*
X35560Y-42156D01*
X35333Y-42251D01*
X35285Y-42364D01*
X35240Y-42319D01*
X35225Y-42334D01*
X35225Y-39515D01*
X35240Y-39530D01*
X35285Y-39485D01*
X35333Y-39598D01*
X35602Y-39701D01*
X35889Y-39693D01*
X36116Y-39598D01*
X36164Y-39485D01*
X35725Y-39045D01*
X35719Y-39051D01*
X35648Y-38980D01*
X35654Y-38975D01*
X35648Y-38969D01*
X35719Y-38898D01*
X35725Y-38904D01*
X36164Y-38464D01*
X36116Y-38351D01*
X35847Y-38248D01*
X35560Y-38256D01*
X35333Y-38351D01*
X35285Y-38464D01*
X35240Y-38419D01*
X35225Y-38434D01*
X35225Y-37515D01*
X35240Y-37530D01*
X35285Y-37485D01*
X35333Y-37598D01*
X35602Y-37701D01*
X35889Y-37693D01*
X36116Y-37598D01*
X36164Y-37485D01*
X35725Y-37045D01*
X35719Y-37051D01*
X35648Y-36980D01*
X35654Y-36975D01*
X35648Y-36969D01*
X35719Y-36898D01*
X35725Y-36904D01*
X36164Y-36464D01*
X36116Y-36351D01*
X35847Y-36248D01*
X35560Y-36256D01*
X35333Y-36351D01*
X35285Y-36464D01*
X35240Y-36419D01*
X35225Y-36434D01*
X35225Y-20775D01*
X77525Y-20775D01*
X77525Y-62675D01*
M02*
