G04 (created by PCBNEW (2013-may-18)-stable) date 2014年05月08日 星期四 10时05分11秒*
%MOIN*%
G04 Gerber Fmt 3.4, Leading zero omitted, Abs format*
%FSLAX34Y34*%
G01*
G70*
G90*
G04 APERTURE LIST*
%ADD10C,0.00590551*%
%ADD11C,0.0693*%
%ADD12C,0.0944882*%
%ADD13C,0.031*%
%ADD14C,0.035*%
%ADD15C,0.01*%
G04 APERTURE END LIST*
G54D10*
G54D11*
X49500Y-59125D03*
X49500Y-60125D03*
X46500Y-59125D03*
X46500Y-60125D03*
X45500Y-59125D03*
X45500Y-60125D03*
X37500Y-60125D03*
X37500Y-59125D03*
X38500Y-60125D03*
X38500Y-59125D03*
X39500Y-60125D03*
X39500Y-59125D03*
X40500Y-60125D03*
X40500Y-59125D03*
X41500Y-60125D03*
X41500Y-59125D03*
X42500Y-60125D03*
X42500Y-59125D03*
X43500Y-60125D03*
X43500Y-59125D03*
X44500Y-60125D03*
X44500Y-59125D03*
X47500Y-60125D03*
X47500Y-59125D03*
X48500Y-60125D03*
X48500Y-59125D03*
G54D12*
X36725Y-49075D03*
X35725Y-48075D03*
X37725Y-48075D03*
X37725Y-50075D03*
X35725Y-50075D03*
X36725Y-43875D03*
X35725Y-42875D03*
X37725Y-42875D03*
X37725Y-44875D03*
X35725Y-44875D03*
X36725Y-37975D03*
X35725Y-36975D03*
X37725Y-36975D03*
X37725Y-38975D03*
X35725Y-38975D03*
X46675Y-52075D03*
X47675Y-51075D03*
X47675Y-53075D03*
X45675Y-53075D03*
X45675Y-51075D03*
X74325Y-46025D03*
X73325Y-45025D03*
X75325Y-45025D03*
X75325Y-47025D03*
X73325Y-47025D03*
G54D13*
X59375Y-59500D03*
X55725Y-51850D03*
X73650Y-24850D03*
X75880Y-40909D03*
X70634Y-46075D03*
X65225Y-59633D03*
X58373Y-61635D03*
X49796Y-28799D03*
X68286Y-28879D03*
X77105Y-32535D03*
X43141Y-42907D03*
X41202Y-39329D03*
X76129Y-41532D03*
X73850Y-42475D03*
X64125Y-33175D03*
X62650Y-28050D03*
X60858Y-23662D03*
X66208Y-23575D03*
X60800Y-58182D03*
X64259Y-56235D03*
X39250Y-33538D03*
X41559Y-36290D03*
X43202Y-32430D03*
X49351Y-40640D03*
X47220Y-38115D03*
X59646Y-36766D03*
X40360Y-28375D03*
X46612Y-34644D03*
X53225Y-57075D03*
X74756Y-29003D03*
X43375Y-40887D03*
X45403Y-23882D03*
X57550Y-46408D03*
X69891Y-47859D03*
X64738Y-52337D03*
X61830Y-51425D03*
X71850Y-32367D03*
X63593Y-42840D03*
X51931Y-42887D03*
X58551Y-31797D03*
X54237Y-30480D03*
X58504Y-28003D03*
X52600Y-47086D03*
X38410Y-23852D03*
X62850Y-47874D03*
X45686Y-49250D03*
X48385Y-38342D03*
X56678Y-38256D03*
X58645Y-25222D03*
X45605Y-29006D03*
X52190Y-32377D03*
X37310Y-41425D03*
X63189Y-59375D03*
X57260Y-60840D03*
X67771Y-32683D03*
X74049Y-33049D03*
X68667Y-42065D03*
X72907Y-40845D03*
X65437Y-58975D03*
X42212Y-46603D03*
X74568Y-23168D03*
X55379Y-55692D03*
X65962Y-30775D03*
X72716Y-39225D03*
X74620Y-42475D03*
X68075Y-58166D03*
X58982Y-61980D03*
X48354Y-32857D03*
X58383Y-33200D03*
X62069Y-57375D03*
X48575Y-45730D03*
X73700Y-27834D03*
X49758Y-40262D03*
X69625Y-32374D03*
X63726Y-34975D03*
X63710Y-50725D03*
X51305Y-42375D03*
X69665Y-24775D03*
X47331Y-25093D03*
X42383Y-42375D03*
X56617Y-42857D03*
X56893Y-46643D03*
X59066Y-36093D03*
X39024Y-34030D03*
X52026Y-28475D03*
X48509Y-36350D03*
X51532Y-51800D03*
X67300Y-34003D03*
X58325Y-56889D03*
X52275Y-37308D03*
X46025Y-39193D03*
X45281Y-34554D03*
X39091Y-25758D03*
X53864Y-55927D03*
X52775Y-54992D03*
X46061Y-47825D03*
X52615Y-41312D03*
X57205Y-40277D03*
X55450Y-38391D03*
X67125Y-35375D03*
X41435Y-33224D03*
X41125Y-38799D03*
X46275Y-32525D03*
X41200Y-25099D03*
X48356Y-49901D03*
X56514Y-54618D03*
X51291Y-55642D03*
X56681Y-50538D03*
X59930Y-61370D03*
X53090Y-48688D03*
X65575Y-49075D03*
X54457Y-31142D03*
X59780Y-27097D03*
X51436Y-29150D03*
G54D14*
X63975Y-25075D03*
G54D13*
X68846Y-44142D03*
X45985Y-30213D03*
X45952Y-57051D03*
X66747Y-58061D03*
X49090Y-62050D03*
X73389Y-41919D03*
X66981Y-30275D03*
X38277Y-40693D03*
X40290Y-57565D03*
X73925Y-31471D03*
X75016Y-24153D03*
X73750Y-37150D03*
X76603Y-36944D03*
X76739Y-34860D03*
X74100Y-28425D03*
X41500Y-47250D03*
X41925Y-43075D03*
X65475Y-32825D03*
X65050Y-33225D03*
X70200Y-34400D03*
X72225Y-33025D03*
X74625Y-33000D03*
X74525Y-32350D03*
X69800Y-30525D03*
X72825Y-31700D03*
X64725Y-25075D03*
X67675Y-26825D03*
X70425Y-41275D03*
X73175Y-43325D03*
X59075Y-52425D03*
X62175Y-53275D03*
X66725Y-48475D03*
X66525Y-44675D03*
X66225Y-45575D03*
X54675Y-58825D03*
X56125Y-59825D03*
X52975Y-60175D03*
X52875Y-58875D03*
X56625Y-58875D03*
X57875Y-59125D03*
X49525Y-52875D03*
X49525Y-51675D03*
X48425Y-53925D03*
X46875Y-55075D03*
X44425Y-47375D03*
X44875Y-48375D03*
X44025Y-49725D03*
X43475Y-51275D03*
X46725Y-45775D03*
X46325Y-43875D03*
X46125Y-41075D03*
X47375Y-41725D03*
X45175Y-40475D03*
X45175Y-41375D03*
X43825Y-37475D03*
X45275Y-38275D03*
X48325Y-33325D03*
X49775Y-33375D03*
X42575Y-36825D03*
X43475Y-36775D03*
X39575Y-36725D03*
X40875Y-36475D03*
X55700Y-50525D03*
X55858Y-42682D03*
X67687Y-39966D03*
X69144Y-39930D03*
X56833Y-32735D03*
X58735Y-42533D03*
X66025Y-57731D03*
X63615Y-57460D03*
X47615Y-30266D03*
X57710Y-37762D03*
X58647Y-57625D03*
X55050Y-36489D03*
X61136Y-55763D03*
X43710Y-28743D03*
X74025Y-38800D03*
X62731Y-42975D03*
X56051Y-26105D03*
X52225Y-50544D03*
X48475Y-47302D03*
X51557Y-44405D03*
X67600Y-53643D03*
X70485Y-45385D03*
X47919Y-34788D03*
X75984Y-37118D03*
X59645Y-59091D03*
X56095Y-56886D03*
X61688Y-40237D03*
X54065Y-46773D03*
X53675Y-33035D03*
X67255Y-29728D03*
X64045Y-30019D03*
X60010Y-28014D03*
X66678Y-54443D03*
X42501Y-34485D03*
X61507Y-33553D03*
X36200Y-59252D03*
G54D15*
X75880Y-40909D02*
X77324Y-39465D01*
X77324Y-39465D02*
X77324Y-32754D01*
X77324Y-32754D02*
X77105Y-32535D01*
X41475Y-39329D02*
X41202Y-39329D01*
X43141Y-41268D02*
X43141Y-42907D01*
X41475Y-39601D02*
X43141Y-41268D01*
X41475Y-39329D02*
X41475Y-39601D01*
X50454Y-29458D02*
X49796Y-28799D01*
X51974Y-29458D02*
X50454Y-29458D01*
X53937Y-27495D02*
X51974Y-29458D01*
X66902Y-27495D02*
X53937Y-27495D01*
X68286Y-28879D02*
X66902Y-27495D01*
X46585Y-34218D02*
X41475Y-39329D01*
X46585Y-32402D02*
X46585Y-34218D01*
X45671Y-31488D02*
X46585Y-32402D01*
X45671Y-30069D02*
X45671Y-31488D01*
X45833Y-29907D02*
X45671Y-30069D01*
X46153Y-29907D02*
X45833Y-29907D01*
X46829Y-30583D02*
X46153Y-29907D01*
X48012Y-30583D02*
X46829Y-30583D01*
X49796Y-28799D02*
X48012Y-30583D01*
X68286Y-30773D02*
X68286Y-28879D01*
X77105Y-32535D02*
X76266Y-33373D01*
X76266Y-33373D02*
X68002Y-33373D01*
X68002Y-33373D02*
X67450Y-32822D01*
X67450Y-32822D02*
X67450Y-31609D01*
X67450Y-31609D02*
X68286Y-30773D01*
X75859Y-41802D02*
X76129Y-41532D01*
X74522Y-41802D02*
X75859Y-41802D01*
X73850Y-42475D02*
X74522Y-41802D01*
X70634Y-47128D02*
X70212Y-47551D01*
X70634Y-46075D02*
X70634Y-47128D01*
X66331Y-58527D02*
X65225Y-59633D01*
X66331Y-51854D02*
X66331Y-58527D01*
X70212Y-47973D02*
X66331Y-51854D01*
X70212Y-47551D02*
X70212Y-47973D01*
X70212Y-47551D02*
X70174Y-47551D01*
X72960Y-42475D02*
X73850Y-42475D01*
X70174Y-45261D02*
X72960Y-42475D01*
X70174Y-47551D02*
X70174Y-45261D01*
X59069Y-61635D02*
X58373Y-61635D01*
X59117Y-61683D02*
X59069Y-61635D01*
X63175Y-61683D02*
X59117Y-61683D01*
X65225Y-59633D02*
X63175Y-61683D01*
X38810Y-61435D02*
X37500Y-60125D01*
X58172Y-61435D02*
X38810Y-61435D01*
X58373Y-61635D02*
X58172Y-61435D01*
X41559Y-36290D02*
X41559Y-36290D01*
X41559Y-35847D02*
X41559Y-36290D01*
X39250Y-33538D02*
X41559Y-35847D01*
X65075Y-52674D02*
X64738Y-52337D01*
X64259Y-53491D02*
X65075Y-52674D01*
X64259Y-56235D02*
X64259Y-53491D01*
X69891Y-47859D02*
X65596Y-52153D01*
X65596Y-52153D02*
X65075Y-52674D01*
X56715Y-28003D02*
X58504Y-28003D01*
X54237Y-30480D02*
X56715Y-28003D01*
X38426Y-23868D02*
X38410Y-23852D01*
X38426Y-23868D02*
X38426Y-23868D01*
X45389Y-23868D02*
X38426Y-23868D01*
X45403Y-23882D02*
X45389Y-23868D01*
X57550Y-46418D02*
X57550Y-46408D01*
X56882Y-47086D02*
X57550Y-46418D01*
X52600Y-47086D02*
X56882Y-47086D01*
X62312Y-58182D02*
X60800Y-58182D01*
X64259Y-56235D02*
X62312Y-58182D01*
X58019Y-36766D02*
X59646Y-36766D01*
X50075Y-40033D02*
X48385Y-38342D01*
X50075Y-40640D02*
X50075Y-40033D01*
X52214Y-40640D02*
X50075Y-40640D01*
X50075Y-40640D02*
X49351Y-40640D01*
X57854Y-38081D02*
X56678Y-38081D01*
X58019Y-37916D02*
X57854Y-38081D01*
X58019Y-36766D02*
X58019Y-37916D01*
X54774Y-38081D02*
X52214Y-40640D01*
X56678Y-38081D02*
X54774Y-38081D01*
X56678Y-38081D02*
X56678Y-38256D01*
X51931Y-42260D02*
X52214Y-41977D01*
X51931Y-42887D02*
X51931Y-42260D01*
X52214Y-41977D02*
X52214Y-40640D01*
X40360Y-28375D02*
X40910Y-28375D01*
X40910Y-28375D02*
X45403Y-23882D01*
X40358Y-32430D02*
X40910Y-32430D01*
X39250Y-33538D02*
X40358Y-32430D01*
X40910Y-32430D02*
X43202Y-32430D01*
X58645Y-23882D02*
X45403Y-23882D01*
X58645Y-25222D02*
X58645Y-23882D01*
X58865Y-23662D02*
X60858Y-23662D01*
X58645Y-23882D02*
X58865Y-23662D01*
X40910Y-28375D02*
X40910Y-29049D01*
X40910Y-29049D02*
X40910Y-32430D01*
X45562Y-29049D02*
X45605Y-29006D01*
X40910Y-29049D02*
X45562Y-29049D01*
X53225Y-56132D02*
X53225Y-57075D01*
X54235Y-55121D02*
X53225Y-56132D01*
X58133Y-55121D02*
X54235Y-55121D01*
X61830Y-51425D02*
X58133Y-55121D01*
X47220Y-35251D02*
X47220Y-38115D01*
X46612Y-34644D02*
X47220Y-35251D01*
X39610Y-61235D02*
X38500Y-60125D01*
X48113Y-61235D02*
X39610Y-61235D01*
X49000Y-60348D02*
X48113Y-61235D01*
X49000Y-59915D02*
X49000Y-60348D01*
X49290Y-59625D02*
X49000Y-59915D01*
X50675Y-59625D02*
X49290Y-59625D01*
X53225Y-57075D02*
X50675Y-59625D01*
X58019Y-32285D02*
X58019Y-36766D01*
X58063Y-32285D02*
X58019Y-32285D01*
X58551Y-31797D02*
X58063Y-32285D01*
X43375Y-40845D02*
X43375Y-40887D01*
X46105Y-38115D02*
X43375Y-40845D01*
X47220Y-38115D02*
X46105Y-38115D01*
X45319Y-48883D02*
X45686Y-49250D01*
X45319Y-42832D02*
X45319Y-48883D01*
X43375Y-40887D02*
X45319Y-42832D01*
X54237Y-30488D02*
X54237Y-30480D01*
X56034Y-32285D02*
X54237Y-30488D01*
X58019Y-32285D02*
X56034Y-32285D01*
X54080Y-30488D02*
X52190Y-32377D01*
X54237Y-30488D02*
X54080Y-30488D01*
X71850Y-31909D02*
X71850Y-32367D01*
X74756Y-29003D02*
X71850Y-31909D01*
X62947Y-43486D02*
X63593Y-42840D01*
X57761Y-43486D02*
X62947Y-43486D01*
X56252Y-41977D02*
X57761Y-43486D01*
X52214Y-41977D02*
X56252Y-41977D01*
X57761Y-46196D02*
X57550Y-46408D01*
X57761Y-43486D02*
X57761Y-46196D01*
X60945Y-23575D02*
X66208Y-23575D01*
X60858Y-23662D02*
X60945Y-23575D01*
X74756Y-28445D02*
X74756Y-29003D01*
X69885Y-23575D02*
X74756Y-28445D01*
X66208Y-23575D02*
X69885Y-23575D01*
X62850Y-50419D02*
X62850Y-47874D01*
X63863Y-50419D02*
X62850Y-50419D01*
X65596Y-52153D02*
X63863Y-50419D01*
X62835Y-50419D02*
X61830Y-51425D01*
X62850Y-50419D02*
X62835Y-50419D01*
X38372Y-46603D02*
X42212Y-46603D01*
X38372Y-42487D02*
X38372Y-46603D01*
X37310Y-41425D02*
X38372Y-42487D01*
X71687Y-42065D02*
X72907Y-40845D01*
X68667Y-42065D02*
X71687Y-42065D01*
X38372Y-58252D02*
X37500Y-59125D01*
X38372Y-46603D02*
X38372Y-58252D01*
X67771Y-32683D02*
X73617Y-32683D01*
X75953Y-43808D02*
X74620Y-42475D01*
X75953Y-50288D02*
X75953Y-43808D01*
X68075Y-58166D02*
X75953Y-50288D01*
X65962Y-32234D02*
X65962Y-30775D01*
X72716Y-38988D02*
X65962Y-32234D01*
X72716Y-39225D02*
X72716Y-38988D01*
X55379Y-58138D02*
X55379Y-55692D01*
X57416Y-60175D02*
X55379Y-58138D01*
X57260Y-60330D02*
X57260Y-60840D01*
X57416Y-60175D02*
X57260Y-60330D01*
X65037Y-59375D02*
X65437Y-58975D01*
X63189Y-59375D02*
X65037Y-59375D01*
X62390Y-60175D02*
X57416Y-60175D01*
X63189Y-59375D02*
X62390Y-60175D01*
X37322Y-58947D02*
X37500Y-59125D01*
X36047Y-58947D02*
X37322Y-58947D01*
X35892Y-59102D02*
X36047Y-58947D01*
X35892Y-59394D02*
X35892Y-59102D01*
X38233Y-61735D02*
X35892Y-59394D01*
X50099Y-61735D02*
X38233Y-61735D01*
X50344Y-61980D02*
X50099Y-61735D01*
X58982Y-61980D02*
X50344Y-61980D01*
X51275Y-32857D02*
X48354Y-32857D01*
X56435Y-27696D02*
X51275Y-32857D01*
X58638Y-27696D02*
X56435Y-27696D01*
X61717Y-30775D02*
X58638Y-27696D01*
X65962Y-30775D02*
X61717Y-30775D01*
X73683Y-32683D02*
X74049Y-33049D01*
X73617Y-32683D02*
X73683Y-32683D01*
X73617Y-30594D02*
X73617Y-32683D01*
X75061Y-29150D02*
X73617Y-30594D01*
X75061Y-26550D02*
X75061Y-29150D01*
X74568Y-26057D02*
X75061Y-26550D01*
X74568Y-23168D02*
X74568Y-26057D01*
X70640Y-24775D02*
X69665Y-24775D01*
X73700Y-27834D02*
X70640Y-24775D01*
X60185Y-34975D02*
X59066Y-36093D01*
X63726Y-34975D02*
X60185Y-34975D01*
X51459Y-42846D02*
X48575Y-45730D01*
X51305Y-42693D02*
X51305Y-42375D01*
X51459Y-42846D02*
X51305Y-42693D01*
X49758Y-40262D02*
X49298Y-40262D01*
X50650Y-42375D02*
X51305Y-42375D01*
X49039Y-40763D02*
X50650Y-42375D01*
X49039Y-40522D02*
X49039Y-40763D01*
X49298Y-40262D02*
X49039Y-40522D01*
X61951Y-33200D02*
X63726Y-34975D01*
X58383Y-33200D02*
X61951Y-33200D01*
X69625Y-31909D02*
X69625Y-32374D01*
X73700Y-27834D02*
X69625Y-31909D01*
X66328Y-34975D02*
X63726Y-34975D01*
X67300Y-34003D02*
X66328Y-34975D01*
X63710Y-53025D02*
X61286Y-55450D01*
X63710Y-50725D02*
X63710Y-53025D01*
X62069Y-56233D02*
X61286Y-55450D01*
X62069Y-57375D02*
X62069Y-56233D01*
X48509Y-37308D02*
X52275Y-37308D01*
X48509Y-37308D02*
X48509Y-36350D01*
X49298Y-40262D02*
X48074Y-39037D01*
X48074Y-37743D02*
X48509Y-37308D01*
X48074Y-39037D02*
X48074Y-37743D01*
X48074Y-39037D02*
X47869Y-39243D01*
X39024Y-39016D02*
X42383Y-42375D01*
X39024Y-34030D02*
X39024Y-39016D01*
X38939Y-25910D02*
X39091Y-25758D01*
X38939Y-33945D02*
X38939Y-25910D01*
X39024Y-34030D02*
X38939Y-33945D01*
X46074Y-39243D02*
X46025Y-39193D01*
X47869Y-39243D02*
X46074Y-39243D01*
X58325Y-55450D02*
X58325Y-56889D01*
X61286Y-55450D02*
X58325Y-55450D01*
X54411Y-55379D02*
X53864Y-55927D01*
X58254Y-55379D02*
X54411Y-55379D01*
X58325Y-55450D02*
X58254Y-55379D01*
X47869Y-47825D02*
X46061Y-47825D01*
X51532Y-51488D02*
X47869Y-47825D01*
X51532Y-51800D02*
X51532Y-51488D01*
X47869Y-47825D02*
X47869Y-39243D01*
X56137Y-42377D02*
X56617Y-42857D01*
X52872Y-42377D02*
X56137Y-42377D01*
X52049Y-43201D02*
X52872Y-42377D01*
X51813Y-43201D02*
X52049Y-43201D01*
X51459Y-42846D02*
X51813Y-43201D01*
X68912Y-25527D02*
X69665Y-24775D01*
X56371Y-25527D02*
X68912Y-25527D01*
X56371Y-26224D02*
X56371Y-25527D01*
X56012Y-26583D02*
X56371Y-26224D01*
X53918Y-26583D02*
X56012Y-26583D01*
X52026Y-28475D02*
X53918Y-26583D01*
X55937Y-25093D02*
X47331Y-25093D01*
X56371Y-25527D02*
X55937Y-25093D01*
X42003Y-59621D02*
X41500Y-60125D01*
X42722Y-59621D02*
X42003Y-59621D01*
X43000Y-59343D02*
X42722Y-59621D01*
X43000Y-58908D02*
X43000Y-59343D01*
X44151Y-57756D02*
X43000Y-58908D01*
X46656Y-57756D02*
X44151Y-57756D01*
X52046Y-52366D02*
X46656Y-57756D01*
X55940Y-52366D02*
X52046Y-52366D01*
X63898Y-44408D02*
X55940Y-52366D01*
X63898Y-42702D02*
X63898Y-44408D01*
X63729Y-42533D02*
X63898Y-42702D01*
X63459Y-42533D02*
X63729Y-42533D01*
X63126Y-42866D02*
X63459Y-42533D01*
X63126Y-43024D02*
X63126Y-42866D01*
X62863Y-43286D02*
X63126Y-43024D01*
X59015Y-43286D02*
X62863Y-43286D01*
X57041Y-41312D02*
X59015Y-43286D01*
X52615Y-41312D02*
X57041Y-41312D01*
X57205Y-40147D02*
X57205Y-40277D01*
X55450Y-38391D02*
X57205Y-40147D01*
X46806Y-53818D02*
X41500Y-59125D01*
X47814Y-53818D02*
X46806Y-53818D01*
X48661Y-52971D02*
X47814Y-53818D01*
X48661Y-49773D02*
X48661Y-52971D01*
X48461Y-49573D02*
X48661Y-49773D01*
X45549Y-49573D02*
X48461Y-49573D01*
X42833Y-46858D02*
X45549Y-49573D01*
X42833Y-41405D02*
X42833Y-46858D01*
X40812Y-39383D02*
X42833Y-41405D01*
X40812Y-37704D02*
X40812Y-39383D01*
X41874Y-36642D02*
X40812Y-37704D01*
X41874Y-33663D02*
X41874Y-36642D01*
X41435Y-33224D02*
X41874Y-33663D01*
X41125Y-37675D02*
X41125Y-38799D01*
X46275Y-32525D02*
X41125Y-37675D01*
X45944Y-49901D02*
X48356Y-49901D01*
X40600Y-55245D02*
X45944Y-49901D01*
X40600Y-59024D02*
X40600Y-55245D01*
X40500Y-59125D02*
X40600Y-59024D01*
X53806Y-54818D02*
X49500Y-59125D01*
X56313Y-54818D02*
X53806Y-54818D01*
X56514Y-54618D02*
X56313Y-54818D01*
X43410Y-61035D02*
X42500Y-60125D01*
X46305Y-61035D02*
X43410Y-61035D01*
X47000Y-60340D02*
X46305Y-61035D01*
X47000Y-59895D02*
X47000Y-60340D01*
X47273Y-59621D02*
X47000Y-59895D01*
X47722Y-59621D02*
X47273Y-59621D01*
X48000Y-59343D02*
X47722Y-59621D01*
X48000Y-58896D02*
X48000Y-59343D01*
X51253Y-55642D02*
X48000Y-58896D01*
X51291Y-55642D02*
X51253Y-55642D01*
X56681Y-51331D02*
X56681Y-50538D01*
X55845Y-52166D02*
X56681Y-51331D01*
X51551Y-52166D02*
X55845Y-52166D01*
X46161Y-57556D02*
X51551Y-52166D01*
X44068Y-57556D02*
X46161Y-57556D01*
X42500Y-59125D02*
X44068Y-57556D01*
X50520Y-61145D02*
X49500Y-60125D01*
X59706Y-61145D02*
X50520Y-61145D01*
X59930Y-61370D02*
X59706Y-61145D01*
X51614Y-33985D02*
X54457Y-31142D01*
X48269Y-33985D02*
X51614Y-33985D01*
X47594Y-34659D02*
X48269Y-33985D01*
X47594Y-34943D02*
X47594Y-34659D01*
X47747Y-35096D02*
X47594Y-34943D01*
X47747Y-38303D02*
X47747Y-35096D01*
X47250Y-38800D02*
X47747Y-38303D01*
X45986Y-38800D02*
X47250Y-38800D01*
X45719Y-39066D02*
X45986Y-38800D01*
X45719Y-47934D02*
X45719Y-39066D01*
X46084Y-48299D02*
X45719Y-47934D01*
X47775Y-48299D02*
X46084Y-48299D01*
X49092Y-49616D02*
X47775Y-48299D01*
X49092Y-54342D02*
X49092Y-49616D01*
X46078Y-57356D02*
X49092Y-54342D01*
X43551Y-57356D02*
X46078Y-57356D01*
X42000Y-58908D02*
X43551Y-57356D01*
X42000Y-59341D02*
X42000Y-58908D01*
X41716Y-59625D02*
X42000Y-59341D01*
X41000Y-59625D02*
X41716Y-59625D01*
X40500Y-60125D02*
X41000Y-59625D01*
X51783Y-29150D02*
X51436Y-29150D01*
X53836Y-27097D02*
X51783Y-29150D01*
X59780Y-27097D02*
X53836Y-27097D01*
X47500Y-59001D02*
X47500Y-59125D01*
X53134Y-53367D02*
X47500Y-59001D01*
X56072Y-53367D02*
X53134Y-53367D01*
X65297Y-44142D02*
X56072Y-53367D01*
X68846Y-44142D02*
X65297Y-44142D01*
X48877Y-54125D02*
X45952Y-57051D01*
X48877Y-49685D02*
X48877Y-54125D01*
X47990Y-48797D02*
X48877Y-49685D01*
X46299Y-48797D02*
X47990Y-48797D01*
X45519Y-48017D02*
X46299Y-48797D01*
X45519Y-38984D02*
X45519Y-48017D01*
X45915Y-38588D02*
X45519Y-38984D01*
X47179Y-38588D02*
X45915Y-38588D01*
X47544Y-38223D02*
X47179Y-38588D01*
X47544Y-35276D02*
X47544Y-38223D01*
X47344Y-35076D02*
X47544Y-35276D01*
X47344Y-31572D02*
X47344Y-35076D01*
X45985Y-30213D02*
X47344Y-31572D01*
X49326Y-62285D02*
X49090Y-62050D01*
X63024Y-62285D02*
X49326Y-62285D01*
X66747Y-58561D02*
X63024Y-62285D01*
X66747Y-58061D02*
X66747Y-58561D01*
X49000Y-59624D02*
X48500Y-60125D01*
X49000Y-58922D02*
X49000Y-59624D01*
X52612Y-55310D02*
X49000Y-58922D01*
X52888Y-55310D02*
X52612Y-55310D01*
X53597Y-54601D02*
X52888Y-55310D01*
X55404Y-54601D02*
X53597Y-54601D01*
X62694Y-47311D02*
X55404Y-54601D01*
X67714Y-47311D02*
X62694Y-47311D01*
X73106Y-41919D02*
X67714Y-47311D01*
X73389Y-41919D02*
X73106Y-41919D01*
X46500Y-59083D02*
X46500Y-59125D01*
X52717Y-52866D02*
X46500Y-59083D01*
X56006Y-52866D02*
X52717Y-52866D01*
X68426Y-40446D02*
X56006Y-52866D01*
X73545Y-40446D02*
X68426Y-40446D01*
X76924Y-37068D02*
X73545Y-40446D01*
X76924Y-36829D02*
X76924Y-37068D01*
X75663Y-35568D02*
X76924Y-36829D01*
X69912Y-35568D02*
X75663Y-35568D01*
X66981Y-32637D02*
X69912Y-35568D01*
X66981Y-30275D02*
X66981Y-32637D01*
X42545Y-44961D02*
X38277Y-40693D01*
X42545Y-52037D02*
X42545Y-44961D01*
X40290Y-54292D02*
X42545Y-52037D01*
X40290Y-57565D02*
X40290Y-54292D01*
X75262Y-24399D02*
X75016Y-24153D01*
X75262Y-30134D02*
X75262Y-24399D01*
X73925Y-31471D02*
X75262Y-30134D01*
X52456Y-55168D02*
X48500Y-59125D01*
X52456Y-54878D02*
X52456Y-55168D01*
X53438Y-53896D02*
X52456Y-54878D01*
X55825Y-53896D02*
X53438Y-53896D01*
X62611Y-47110D02*
X55825Y-53896D01*
X67631Y-47110D02*
X62611Y-47110D01*
X73366Y-41376D02*
X67631Y-47110D01*
X75854Y-41376D02*
X73366Y-41376D01*
X77524Y-39706D02*
X75854Y-41376D01*
X77524Y-32517D02*
X77524Y-39706D01*
X76477Y-31471D02*
X77524Y-32517D01*
X73925Y-31471D02*
X76477Y-31471D01*
X45001Y-59623D02*
X44500Y-60125D01*
X45713Y-59623D02*
X45001Y-59623D01*
X46000Y-59336D02*
X45713Y-59623D01*
X46000Y-58896D02*
X46000Y-59336D01*
X52329Y-52566D02*
X46000Y-58896D01*
X56023Y-52566D02*
X52329Y-52566D01*
X68343Y-40246D02*
X56023Y-52566D01*
X73301Y-40246D02*
X68343Y-40246D01*
X76603Y-36944D02*
X73301Y-40246D01*
X44209Y-60834D02*
X43500Y-60125D01*
X45506Y-60834D02*
X44209Y-60834D01*
X46000Y-60340D02*
X45506Y-60834D01*
X46000Y-59921D02*
X46000Y-60340D01*
X46299Y-59621D02*
X46000Y-59921D01*
X46722Y-59621D02*
X46299Y-59621D01*
X47000Y-59343D02*
X46722Y-59621D01*
X47000Y-58896D02*
X47000Y-59343D01*
X52729Y-53167D02*
X47000Y-58896D01*
X55989Y-53167D02*
X52729Y-53167D01*
X66583Y-42573D02*
X55989Y-53167D01*
X71702Y-42573D02*
X66583Y-42573D01*
X77124Y-37151D02*
X71702Y-42573D01*
X77124Y-35245D02*
X77124Y-37151D01*
X76739Y-34860D02*
X77124Y-35245D01*
X54675Y-58825D02*
X55675Y-59825D01*
X55675Y-59825D02*
X56125Y-59825D01*
X52975Y-60175D02*
X52875Y-60075D01*
X52875Y-60075D02*
X52875Y-58875D01*
X49525Y-52875D02*
X49525Y-51675D01*
X48425Y-53925D02*
X47275Y-55075D01*
X47275Y-55075D02*
X46875Y-55075D01*
X44425Y-47375D02*
X44875Y-47825D01*
X44875Y-47825D02*
X44875Y-48375D01*
X44025Y-49725D02*
X43475Y-50275D01*
X43475Y-50275D02*
X43475Y-51275D01*
X46725Y-45775D02*
X46325Y-45375D01*
X46325Y-45375D02*
X46325Y-43875D01*
X46125Y-41075D02*
X46775Y-41725D01*
X46775Y-41725D02*
X47375Y-41725D01*
X45175Y-40475D02*
X45175Y-41375D01*
X43825Y-37475D02*
X44625Y-38275D01*
X44625Y-38275D02*
X45275Y-38275D01*
X48325Y-33325D02*
X48375Y-33375D01*
X48375Y-33375D02*
X49775Y-33375D01*
X42575Y-36825D02*
X42625Y-36775D01*
X42625Y-36775D02*
X43475Y-36775D01*
X39575Y-36725D02*
X39825Y-36475D01*
X39825Y-36475D02*
X40875Y-36475D01*
X60010Y-28014D02*
X60300Y-27725D01*
X64100Y-27725D02*
X64389Y-28014D01*
X60300Y-27725D02*
X64100Y-27725D01*
X64389Y-28014D02*
X66103Y-29728D01*
X55700Y-50525D02*
X54590Y-51634D01*
X54600Y-51625D02*
X54600Y-51634D01*
X54590Y-51634D02*
X54600Y-51625D01*
X54600Y-51634D02*
X53315Y-51634D01*
X53315Y-51634D02*
X52225Y-50544D01*
X67255Y-29728D02*
X66103Y-29728D01*
X75325Y-45025D02*
X73325Y-45025D01*
X73325Y-47025D02*
X75325Y-47025D01*
X45675Y-51075D02*
X47675Y-51075D01*
X47675Y-53075D02*
X45675Y-53075D01*
X37725Y-38975D02*
X37725Y-36975D01*
X37725Y-36975D02*
X35725Y-36975D01*
X35725Y-38975D02*
X37725Y-38975D01*
X35725Y-38975D02*
X35725Y-42875D01*
X37725Y-42875D02*
X35725Y-42875D01*
X37725Y-42875D02*
X37725Y-44875D01*
X35725Y-50075D02*
X35725Y-48075D01*
X62731Y-42533D02*
X62731Y-42975D01*
X63886Y-57731D02*
X66025Y-57731D01*
X63615Y-57460D02*
X63886Y-57731D01*
X59274Y-57625D02*
X61136Y-55763D01*
X58647Y-57625D02*
X59274Y-57625D01*
X37486Y-48075D02*
X37486Y-44875D01*
X35725Y-48075D02*
X37486Y-48075D01*
X37486Y-48075D02*
X37725Y-48075D01*
X35725Y-44875D02*
X37486Y-44875D01*
X37486Y-44875D02*
X37725Y-44875D01*
X69108Y-39966D02*
X69144Y-39930D01*
X67687Y-39966D02*
X69108Y-39966D01*
X73325Y-45385D02*
X70485Y-45385D01*
X73325Y-45025D02*
X73325Y-45385D01*
X49620Y-36489D02*
X47919Y-34788D01*
X55050Y-36489D02*
X49620Y-36489D01*
X73325Y-45385D02*
X73325Y-47025D01*
X59645Y-58494D02*
X59645Y-59091D01*
X59516Y-58494D02*
X58647Y-57625D01*
X59645Y-58494D02*
X59516Y-58494D01*
X61688Y-42533D02*
X61688Y-40237D01*
X62731Y-42533D02*
X61688Y-42533D01*
X61688Y-42533D02*
X58735Y-42533D01*
X52114Y-44822D02*
X54065Y-46773D01*
X51557Y-44822D02*
X52114Y-44822D01*
X52225Y-50544D02*
X49030Y-47350D01*
X48983Y-47302D02*
X48475Y-47302D01*
X49030Y-47350D02*
X48983Y-47302D01*
X51557Y-44822D02*
X51557Y-44405D01*
X54135Y-44405D02*
X55858Y-42682D01*
X51557Y-44405D02*
X54135Y-44405D01*
X56833Y-57625D02*
X56095Y-56886D01*
X58647Y-57625D02*
X56833Y-57625D01*
X62581Y-58494D02*
X59645Y-58494D01*
X63615Y-57460D02*
X62581Y-58494D01*
X57710Y-37762D02*
X56269Y-36321D01*
X56101Y-36489D02*
X56269Y-36321D01*
X55050Y-36489D02*
X56101Y-36489D01*
X56269Y-36321D02*
X56269Y-33035D01*
X56533Y-33035D02*
X56269Y-33035D01*
X56833Y-32735D02*
X56533Y-33035D01*
X56269Y-33035D02*
X53675Y-33035D01*
X37725Y-50075D02*
X35725Y-50075D01*
X64336Y-29728D02*
X64045Y-30019D01*
X66103Y-29728D02*
X64336Y-29728D01*
X45675Y-51075D02*
X45675Y-53075D01*
X40720Y-59621D02*
X39500Y-59621D01*
X41000Y-59341D02*
X40720Y-59621D01*
X41000Y-57750D02*
X41000Y-59341D01*
X45675Y-53075D02*
X41000Y-57750D01*
X39500Y-59125D02*
X39500Y-59621D01*
X67600Y-52750D02*
X67600Y-53643D01*
X73325Y-47025D02*
X67600Y-52750D01*
X67478Y-53643D02*
X66678Y-54443D01*
X67600Y-53643D02*
X67478Y-53643D01*
X39500Y-60125D02*
X39500Y-59621D01*
X36569Y-59621D02*
X36200Y-59252D01*
X39500Y-59621D02*
X36569Y-59621D01*
X49030Y-47350D02*
X51557Y-44822D01*
X65298Y-39966D02*
X62731Y-42533D01*
X67687Y-39966D02*
X65298Y-39966D01*
X43787Y-28666D02*
X43710Y-28743D01*
X46002Y-28666D02*
X43787Y-28666D01*
X47635Y-30300D02*
X46002Y-28666D01*
X47650Y-30300D02*
X47635Y-30300D01*
X47650Y-30314D02*
X47650Y-30300D01*
X47664Y-30314D02*
X47650Y-30314D01*
X47664Y-30329D02*
X47664Y-30314D01*
X47678Y-30329D02*
X47664Y-30329D01*
X47678Y-30343D02*
X47678Y-30329D01*
X47687Y-30343D02*
X47678Y-30343D01*
X47796Y-30233D02*
X47687Y-30343D01*
X47841Y-30233D02*
X47796Y-30233D01*
X51969Y-26105D02*
X47841Y-30233D01*
X56051Y-26105D02*
X51969Y-26105D01*
X56051Y-26105D02*
X56051Y-26105D01*
X47650Y-30300D02*
X47615Y-30266D01*
X44000Y-59625D02*
X44500Y-59125D01*
X44000Y-60334D02*
X44000Y-59625D01*
X44300Y-60634D02*
X44000Y-60334D01*
X44990Y-60634D02*
X44300Y-60634D01*
X45500Y-60125D02*
X44990Y-60634D01*
X74302Y-38800D02*
X74025Y-38800D01*
X75984Y-37118D02*
X74302Y-38800D01*
X72894Y-39930D02*
X69144Y-39930D01*
X74025Y-38800D02*
X72894Y-39930D01*
G54D10*
G36*
X42633Y-42194D02*
X42556Y-42116D01*
X42443Y-42070D01*
X42360Y-42069D01*
X39224Y-38933D01*
X39224Y-34261D01*
X39282Y-34203D01*
X39329Y-34091D01*
X39329Y-33970D01*
X39282Y-33857D01*
X39268Y-33843D01*
X39272Y-33843D01*
X41359Y-35930D01*
X41359Y-36059D01*
X41301Y-36117D01*
X41254Y-36229D01*
X41254Y-36351D01*
X41300Y-36463D01*
X41386Y-36549D01*
X41498Y-36595D01*
X41619Y-36595D01*
X41651Y-36582D01*
X40670Y-37563D01*
X40627Y-37628D01*
X40612Y-37704D01*
X40612Y-39383D01*
X40627Y-39459D01*
X40670Y-39524D01*
X42633Y-41487D01*
X42633Y-42194D01*
X42633Y-42194D01*
G37*
G54D15*
X42633Y-42194D02*
X42556Y-42116D01*
X42443Y-42070D01*
X42360Y-42069D01*
X39224Y-38933D01*
X39224Y-34261D01*
X39282Y-34203D01*
X39329Y-34091D01*
X39329Y-33970D01*
X39282Y-33857D01*
X39268Y-33843D01*
X39272Y-33843D01*
X41359Y-35930D01*
X41359Y-36059D01*
X41301Y-36117D01*
X41254Y-36229D01*
X41254Y-36351D01*
X41300Y-36463D01*
X41386Y-36549D01*
X41498Y-36595D01*
X41619Y-36595D01*
X41651Y-36582D01*
X40670Y-37563D01*
X40627Y-37628D01*
X40612Y-37704D01*
X40612Y-39383D01*
X40627Y-39459D01*
X40670Y-39524D01*
X42633Y-41487D01*
X42633Y-42194D01*
G54D10*
G36*
X45119Y-48861D02*
X43033Y-46775D01*
X43033Y-43193D01*
X43080Y-43212D01*
X43202Y-43212D01*
X43314Y-43166D01*
X43400Y-43080D01*
X43446Y-42968D01*
X43446Y-42847D01*
X43400Y-42735D01*
X43341Y-42676D01*
X43341Y-41268D01*
X43341Y-41268D01*
X43326Y-41192D01*
X43397Y-41192D01*
X45119Y-42914D01*
X45119Y-48861D01*
X45119Y-48861D01*
G37*
G54D15*
X45119Y-48861D02*
X43033Y-46775D01*
X43033Y-43193D01*
X43080Y-43212D01*
X43202Y-43212D01*
X43314Y-43166D01*
X43400Y-43080D01*
X43446Y-42968D01*
X43446Y-42847D01*
X43400Y-42735D01*
X43341Y-42676D01*
X43341Y-41268D01*
X43341Y-41268D01*
X43326Y-41192D01*
X43397Y-41192D01*
X45119Y-42914D01*
X45119Y-48861D01*
G54D10*
G36*
X45319Y-42549D02*
X43679Y-40909D01*
X43680Y-40827D01*
X43679Y-40824D01*
X45319Y-39183D01*
X45319Y-42549D01*
X45319Y-42549D01*
G37*
G54D15*
X45319Y-42549D02*
X43679Y-40909D01*
X43680Y-40827D01*
X43679Y-40824D01*
X45319Y-39183D01*
X45319Y-42549D01*
G54D10*
G36*
X45789Y-49773D02*
X40490Y-55072D01*
X40490Y-54375D01*
X42686Y-52178D01*
X42729Y-52113D01*
X42729Y-52113D01*
X42745Y-52037D01*
X42745Y-47052D01*
X45408Y-49715D01*
X45408Y-49715D01*
X45451Y-49744D01*
X45473Y-49758D01*
X45473Y-49758D01*
X45549Y-49773D01*
X45549Y-49773D01*
X45789Y-49773D01*
X45789Y-49773D01*
G37*
G54D15*
X45789Y-49773D02*
X40490Y-55072D01*
X40490Y-54375D01*
X42686Y-52178D01*
X42729Y-52113D01*
X42729Y-52113D01*
X42745Y-52037D01*
X42745Y-47052D01*
X45408Y-49715D01*
X45408Y-49715D01*
X45451Y-49744D01*
X45473Y-49758D01*
X45473Y-49758D01*
X45549Y-49773D01*
X45549Y-49773D01*
X45789Y-49773D01*
G54D10*
G36*
X46385Y-34135D02*
X45586Y-34934D01*
X45586Y-34494D01*
X45540Y-34382D01*
X45454Y-34296D01*
X45342Y-34250D01*
X45220Y-34249D01*
X45108Y-34296D01*
X45022Y-34381D01*
X44976Y-34494D01*
X44976Y-34615D01*
X45022Y-34727D01*
X45108Y-34813D01*
X45220Y-34859D01*
X45341Y-34860D01*
X45453Y-34813D01*
X45539Y-34727D01*
X45586Y-34615D01*
X45586Y-34494D01*
X45586Y-34934D01*
X41413Y-39108D01*
X41375Y-39070D01*
X41311Y-39044D01*
X41383Y-38972D01*
X41429Y-38860D01*
X41430Y-38739D01*
X41383Y-38627D01*
X41325Y-38568D01*
X41325Y-37757D01*
X46252Y-32829D01*
X46335Y-32830D01*
X46385Y-32809D01*
X46385Y-34135D01*
X46385Y-34135D01*
G37*
G54D15*
X46385Y-34135D02*
X45586Y-34934D01*
X45586Y-34494D01*
X45540Y-34382D01*
X45454Y-34296D01*
X45342Y-34250D01*
X45220Y-34249D01*
X45108Y-34296D01*
X45022Y-34381D01*
X44976Y-34494D01*
X44976Y-34615D01*
X45022Y-34727D01*
X45108Y-34813D01*
X45220Y-34859D01*
X45341Y-34860D01*
X45453Y-34813D01*
X45539Y-34727D01*
X45586Y-34615D01*
X45586Y-34494D01*
X45586Y-34934D01*
X41413Y-39108D01*
X41375Y-39070D01*
X41311Y-39044D01*
X41383Y-38972D01*
X41429Y-38860D01*
X41430Y-38739D01*
X41383Y-38627D01*
X41325Y-38568D01*
X41325Y-37757D01*
X46252Y-32829D01*
X46335Y-32830D01*
X46385Y-32809D01*
X46385Y-34135D01*
G54D10*
G36*
X46657Y-57956D02*
X45858Y-58754D01*
X45847Y-58770D01*
X45781Y-58704D01*
X45599Y-58628D01*
X45401Y-58628D01*
X45219Y-58703D01*
X45079Y-58843D01*
X45056Y-58898D01*
X45019Y-58809D01*
X44919Y-58776D01*
X44848Y-58846D01*
X44848Y-58705D01*
X44815Y-58605D01*
X44592Y-58523D01*
X44355Y-58534D01*
X44184Y-58605D01*
X44151Y-58705D01*
X44500Y-59054D01*
X44848Y-58705D01*
X44848Y-58846D01*
X44570Y-59125D01*
X44576Y-59130D01*
X44505Y-59201D01*
X44500Y-59195D01*
X44151Y-59544D01*
X44184Y-59644D01*
X44278Y-59679D01*
X44219Y-59703D01*
X44079Y-59843D01*
X44003Y-60025D01*
X44003Y-60223D01*
X44078Y-60405D01*
X44218Y-60545D01*
X44400Y-60621D01*
X44598Y-60621D01*
X44780Y-60546D01*
X44920Y-60406D01*
X44943Y-60351D01*
X44980Y-60440D01*
X45080Y-60473D01*
X45429Y-60125D01*
X45423Y-60119D01*
X45494Y-60048D01*
X45500Y-60054D01*
X45735Y-59818D01*
X45790Y-59808D01*
X45854Y-59764D01*
X46141Y-59478D01*
X46145Y-59472D01*
X46155Y-59482D01*
X45858Y-59779D01*
X45815Y-59844D01*
X45806Y-59889D01*
X45570Y-60125D01*
X45576Y-60130D01*
X45505Y-60201D01*
X45500Y-60195D01*
X45151Y-60544D01*
X45180Y-60634D01*
X44292Y-60634D01*
X43962Y-60305D01*
X43996Y-60224D01*
X43996Y-60026D01*
X43921Y-59844D01*
X43781Y-59704D01*
X43599Y-59628D01*
X43401Y-59628D01*
X43219Y-59703D01*
X43079Y-59843D01*
X43003Y-60025D01*
X43003Y-60223D01*
X43078Y-60405D01*
X43218Y-60545D01*
X43400Y-60621D01*
X43598Y-60621D01*
X43679Y-60587D01*
X43927Y-60835D01*
X43492Y-60835D01*
X42962Y-60305D01*
X42996Y-60224D01*
X42996Y-60026D01*
X42921Y-59844D01*
X42849Y-59772D01*
X42863Y-59763D01*
X43141Y-59485D01*
X43148Y-59475D01*
X43218Y-59545D01*
X43400Y-59621D01*
X43598Y-59621D01*
X43780Y-59546D01*
X43920Y-59406D01*
X43943Y-59351D01*
X43980Y-59440D01*
X44080Y-59473D01*
X44429Y-59125D01*
X44080Y-58776D01*
X43980Y-58809D01*
X43945Y-58903D01*
X43921Y-58844D01*
X43781Y-58704D01*
X43599Y-58628D01*
X43562Y-58628D01*
X44234Y-57956D01*
X46656Y-57956D01*
X46657Y-57956D01*
X46657Y-57956D01*
G37*
G54D15*
X46657Y-57956D02*
X45858Y-58754D01*
X45847Y-58770D01*
X45781Y-58704D01*
X45599Y-58628D01*
X45401Y-58628D01*
X45219Y-58703D01*
X45079Y-58843D01*
X45056Y-58898D01*
X45019Y-58809D01*
X44919Y-58776D01*
X44848Y-58846D01*
X44848Y-58705D01*
X44815Y-58605D01*
X44592Y-58523D01*
X44355Y-58534D01*
X44184Y-58605D01*
X44151Y-58705D01*
X44500Y-59054D01*
X44848Y-58705D01*
X44848Y-58846D01*
X44570Y-59125D01*
X44576Y-59130D01*
X44505Y-59201D01*
X44500Y-59195D01*
X44151Y-59544D01*
X44184Y-59644D01*
X44278Y-59679D01*
X44219Y-59703D01*
X44079Y-59843D01*
X44003Y-60025D01*
X44003Y-60223D01*
X44078Y-60405D01*
X44218Y-60545D01*
X44400Y-60621D01*
X44598Y-60621D01*
X44780Y-60546D01*
X44920Y-60406D01*
X44943Y-60351D01*
X44980Y-60440D01*
X45080Y-60473D01*
X45429Y-60125D01*
X45423Y-60119D01*
X45494Y-60048D01*
X45500Y-60054D01*
X45735Y-59818D01*
X45790Y-59808D01*
X45854Y-59764D01*
X46141Y-59478D01*
X46145Y-59472D01*
X46155Y-59482D01*
X45858Y-59779D01*
X45815Y-59844D01*
X45806Y-59889D01*
X45570Y-60125D01*
X45576Y-60130D01*
X45505Y-60201D01*
X45500Y-60195D01*
X45151Y-60544D01*
X45180Y-60634D01*
X44292Y-60634D01*
X43962Y-60305D01*
X43996Y-60224D01*
X43996Y-60026D01*
X43921Y-59844D01*
X43781Y-59704D01*
X43599Y-59628D01*
X43401Y-59628D01*
X43219Y-59703D01*
X43079Y-59843D01*
X43003Y-60025D01*
X43003Y-60223D01*
X43078Y-60405D01*
X43218Y-60545D01*
X43400Y-60621D01*
X43598Y-60621D01*
X43679Y-60587D01*
X43927Y-60835D01*
X43492Y-60835D01*
X42962Y-60305D01*
X42996Y-60224D01*
X42996Y-60026D01*
X42921Y-59844D01*
X42849Y-59772D01*
X42863Y-59763D01*
X43141Y-59485D01*
X43148Y-59475D01*
X43218Y-59545D01*
X43400Y-59621D01*
X43598Y-59621D01*
X43780Y-59546D01*
X43920Y-59406D01*
X43943Y-59351D01*
X43980Y-59440D01*
X44080Y-59473D01*
X44429Y-59125D01*
X44080Y-58776D01*
X43980Y-58809D01*
X43945Y-58903D01*
X43921Y-58844D01*
X43781Y-58704D01*
X43599Y-58628D01*
X43562Y-58628D01*
X44234Y-57956D01*
X46656Y-57956D01*
X46657Y-57956D01*
G54D10*
G36*
X47020Y-37884D02*
X46988Y-37915D01*
X46105Y-37915D01*
X46028Y-37930D01*
X45963Y-37974D01*
X43355Y-40582D01*
X43314Y-40582D01*
X43202Y-40628D01*
X43116Y-40714D01*
X43070Y-40826D01*
X43069Y-40913D01*
X41675Y-39518D01*
X41675Y-39411D01*
X46329Y-34757D01*
X46353Y-34816D01*
X46439Y-34902D01*
X46551Y-34949D01*
X46634Y-34949D01*
X47020Y-35334D01*
X47020Y-37884D01*
X47020Y-37884D01*
G37*
G54D15*
X47020Y-37884D02*
X46988Y-37915D01*
X46105Y-37915D01*
X46028Y-37930D01*
X45963Y-37974D01*
X43355Y-40582D01*
X43314Y-40582D01*
X43202Y-40628D01*
X43116Y-40714D01*
X43070Y-40826D01*
X43069Y-40913D01*
X41675Y-39518D01*
X41675Y-39411D01*
X46329Y-34757D01*
X46353Y-34816D01*
X46439Y-34902D01*
X46551Y-34949D01*
X46634Y-34949D01*
X47020Y-35334D01*
X47020Y-37884D01*
G54D10*
G36*
X47669Y-47625D02*
X46293Y-47625D01*
X46234Y-47566D01*
X46122Y-47520D01*
X46001Y-47519D01*
X45919Y-47553D01*
X45919Y-39479D01*
X45964Y-39498D01*
X46085Y-39498D01*
X46197Y-39452D01*
X46206Y-39443D01*
X47669Y-39443D01*
X47669Y-47625D01*
X47669Y-47625D01*
G37*
G54D15*
X47669Y-47625D02*
X46293Y-47625D01*
X46234Y-47566D01*
X46122Y-47520D01*
X46001Y-47519D01*
X45919Y-47553D01*
X45919Y-39479D01*
X45964Y-39498D01*
X46085Y-39498D01*
X46197Y-39452D01*
X46206Y-39443D01*
X47669Y-39443D01*
X47669Y-47625D01*
G54D10*
G36*
X48461Y-52889D02*
X48401Y-52949D01*
X48401Y-51197D01*
X48393Y-50910D01*
X48298Y-50683D01*
X48185Y-50635D01*
X48114Y-50705D01*
X48114Y-50564D01*
X48066Y-50451D01*
X47797Y-50348D01*
X47510Y-50356D01*
X47283Y-50451D01*
X47235Y-50564D01*
X47675Y-51004D01*
X48114Y-50564D01*
X48114Y-50705D01*
X47745Y-51075D01*
X48185Y-51514D01*
X48298Y-51466D01*
X48401Y-51197D01*
X48401Y-52949D01*
X48394Y-52956D01*
X48393Y-52910D01*
X48298Y-52683D01*
X48185Y-52635D01*
X48114Y-52705D01*
X48114Y-52564D01*
X48114Y-51585D01*
X47675Y-51145D01*
X47604Y-51216D01*
X47604Y-51075D01*
X47164Y-50635D01*
X47051Y-50683D01*
X46948Y-50952D01*
X46956Y-51239D01*
X47051Y-51466D01*
X47164Y-51514D01*
X47604Y-51075D01*
X47604Y-51216D01*
X47235Y-51585D01*
X47283Y-51698D01*
X47552Y-51801D01*
X47839Y-51793D01*
X48066Y-51698D01*
X48114Y-51585D01*
X48114Y-52564D01*
X48066Y-52451D01*
X47797Y-52348D01*
X47510Y-52356D01*
X47297Y-52445D01*
X47297Y-51951D01*
X47202Y-51722D01*
X47028Y-51547D01*
X46799Y-51452D01*
X46551Y-51452D01*
X46401Y-51514D01*
X46401Y-51197D01*
X46393Y-50910D01*
X46298Y-50683D01*
X46185Y-50635D01*
X45745Y-51075D01*
X46185Y-51514D01*
X46298Y-51466D01*
X46401Y-51197D01*
X46401Y-51514D01*
X46322Y-51547D01*
X46147Y-51721D01*
X46114Y-51800D01*
X46114Y-51585D01*
X45675Y-51145D01*
X45235Y-51585D01*
X45283Y-51698D01*
X45552Y-51801D01*
X45839Y-51793D01*
X46066Y-51698D01*
X46114Y-51585D01*
X46114Y-51800D01*
X46052Y-51950D01*
X46052Y-52198D01*
X46147Y-52427D01*
X46321Y-52602D01*
X46550Y-52697D01*
X46798Y-52697D01*
X47027Y-52602D01*
X47202Y-52428D01*
X47297Y-52199D01*
X47297Y-51951D01*
X47297Y-52445D01*
X47283Y-52451D01*
X47235Y-52564D01*
X47675Y-53004D01*
X48114Y-52564D01*
X48114Y-52705D01*
X47745Y-53075D01*
X47751Y-53080D01*
X47680Y-53151D01*
X47675Y-53145D01*
X47604Y-53216D01*
X47604Y-53075D01*
X47164Y-52635D01*
X47051Y-52683D01*
X46948Y-52952D01*
X46956Y-53239D01*
X47051Y-53466D01*
X47164Y-53514D01*
X47604Y-53075D01*
X47604Y-53216D01*
X47235Y-53585D01*
X47249Y-53618D01*
X46806Y-53618D01*
X46729Y-53634D01*
X46708Y-53648D01*
X46664Y-53677D01*
X46401Y-53940D01*
X46401Y-53197D01*
X46393Y-52910D01*
X46298Y-52683D01*
X46185Y-52635D01*
X46114Y-52705D01*
X46114Y-52564D01*
X46066Y-52451D01*
X45797Y-52348D01*
X45510Y-52356D01*
X45283Y-52451D01*
X45235Y-52564D01*
X45675Y-53004D01*
X46114Y-52564D01*
X46114Y-52705D01*
X45745Y-53075D01*
X46185Y-53514D01*
X46298Y-53466D01*
X46401Y-53197D01*
X46401Y-53940D01*
X46114Y-54227D01*
X46114Y-53585D01*
X45675Y-53145D01*
X45604Y-53216D01*
X45604Y-53075D01*
X45164Y-52635D01*
X45051Y-52683D01*
X44948Y-52952D01*
X44956Y-53239D01*
X45051Y-53466D01*
X45164Y-53514D01*
X45604Y-53075D01*
X45604Y-53216D01*
X45235Y-53585D01*
X45283Y-53698D01*
X45552Y-53801D01*
X45839Y-53793D01*
X46066Y-53698D01*
X46114Y-53585D01*
X46114Y-54227D01*
X41680Y-58662D01*
X41599Y-58628D01*
X41401Y-58628D01*
X41219Y-58703D01*
X41079Y-58843D01*
X41003Y-59025D01*
X41003Y-59223D01*
X41078Y-59405D01*
X41097Y-59425D01*
X41000Y-59425D01*
X40936Y-59437D01*
X40923Y-59440D01*
X40858Y-59483D01*
X40680Y-59662D01*
X40599Y-59628D01*
X40401Y-59628D01*
X40219Y-59703D01*
X40079Y-59843D01*
X40056Y-59898D01*
X40019Y-59809D01*
X39919Y-59776D01*
X39848Y-59846D01*
X39848Y-59705D01*
X39822Y-59625D01*
X39848Y-59544D01*
X39500Y-59195D01*
X39429Y-59266D01*
X39429Y-59125D01*
X39080Y-58776D01*
X38980Y-58809D01*
X38945Y-58903D01*
X38921Y-58844D01*
X38781Y-58704D01*
X38599Y-58628D01*
X38401Y-58628D01*
X38219Y-58703D01*
X38079Y-58843D01*
X38003Y-59025D01*
X38003Y-59223D01*
X38078Y-59405D01*
X38218Y-59545D01*
X38400Y-59621D01*
X38598Y-59621D01*
X38780Y-59546D01*
X38920Y-59406D01*
X38943Y-59351D01*
X38980Y-59440D01*
X39080Y-59473D01*
X39429Y-59125D01*
X39429Y-59266D01*
X39151Y-59544D01*
X39177Y-59625D01*
X39151Y-59705D01*
X39500Y-60054D01*
X39848Y-59705D01*
X39848Y-59846D01*
X39570Y-60125D01*
X39919Y-60473D01*
X40019Y-60440D01*
X40054Y-60346D01*
X40078Y-60405D01*
X40218Y-60545D01*
X40400Y-60621D01*
X40598Y-60621D01*
X40780Y-60546D01*
X40920Y-60406D01*
X40996Y-60224D01*
X40996Y-60026D01*
X40962Y-59945D01*
X41082Y-59825D01*
X41097Y-59825D01*
X41079Y-59843D01*
X41003Y-60025D01*
X41003Y-60223D01*
X41078Y-60405D01*
X41218Y-60545D01*
X41400Y-60621D01*
X41598Y-60621D01*
X41780Y-60546D01*
X41920Y-60406D01*
X41996Y-60224D01*
X41996Y-60026D01*
X41962Y-59945D01*
X42086Y-59821D01*
X42101Y-59821D01*
X42079Y-59843D01*
X42003Y-60025D01*
X42003Y-60223D01*
X42078Y-60405D01*
X42218Y-60545D01*
X42400Y-60621D01*
X42598Y-60621D01*
X42679Y-60587D01*
X43127Y-61035D01*
X39693Y-61035D01*
X39370Y-60712D01*
X39407Y-60726D01*
X39644Y-60715D01*
X39815Y-60644D01*
X39848Y-60544D01*
X39500Y-60195D01*
X39494Y-60201D01*
X39423Y-60130D01*
X39429Y-60125D01*
X39080Y-59776D01*
X38980Y-59809D01*
X38945Y-59903D01*
X38921Y-59844D01*
X38781Y-59704D01*
X38599Y-59628D01*
X38401Y-59628D01*
X38219Y-59703D01*
X38079Y-59843D01*
X38003Y-60025D01*
X38003Y-60223D01*
X38078Y-60405D01*
X38218Y-60545D01*
X38400Y-60621D01*
X38598Y-60621D01*
X38679Y-60587D01*
X39327Y-61235D01*
X38893Y-61235D01*
X37962Y-60305D01*
X37996Y-60224D01*
X37996Y-60026D01*
X37921Y-59844D01*
X37781Y-59704D01*
X37599Y-59628D01*
X37401Y-59628D01*
X37219Y-59703D01*
X37079Y-59843D01*
X37003Y-60025D01*
X37003Y-60222D01*
X36092Y-59311D01*
X36092Y-59185D01*
X36130Y-59147D01*
X37003Y-59147D01*
X37003Y-59223D01*
X37078Y-59405D01*
X37218Y-59545D01*
X37400Y-59621D01*
X37598Y-59621D01*
X37780Y-59546D01*
X37920Y-59406D01*
X37996Y-59224D01*
X37996Y-59026D01*
X37962Y-58945D01*
X38513Y-58394D01*
X38513Y-58394D01*
X38542Y-58350D01*
X38556Y-58329D01*
X38556Y-58329D01*
X38572Y-58252D01*
X38572Y-58252D01*
X38572Y-46803D01*
X41981Y-46803D01*
X42039Y-46862D01*
X42151Y-46908D01*
X42272Y-46908D01*
X42345Y-46878D01*
X42345Y-51954D01*
X40148Y-54150D01*
X40105Y-54215D01*
X40090Y-54292D01*
X40090Y-57333D01*
X40031Y-57392D01*
X39985Y-57504D01*
X39985Y-57625D01*
X40031Y-57737D01*
X40117Y-57823D01*
X40229Y-57870D01*
X40350Y-57870D01*
X40400Y-57849D01*
X40400Y-58629D01*
X40219Y-58703D01*
X40079Y-58843D01*
X40056Y-58898D01*
X40019Y-58809D01*
X39919Y-58776D01*
X39848Y-58846D01*
X39848Y-58705D01*
X39815Y-58605D01*
X39592Y-58523D01*
X39355Y-58534D01*
X39184Y-58605D01*
X39151Y-58705D01*
X39500Y-59054D01*
X39848Y-58705D01*
X39848Y-58846D01*
X39570Y-59125D01*
X39919Y-59473D01*
X40019Y-59440D01*
X40054Y-59346D01*
X40078Y-59405D01*
X40218Y-59545D01*
X40400Y-59621D01*
X40598Y-59621D01*
X40780Y-59546D01*
X40920Y-59406D01*
X40996Y-59224D01*
X40996Y-59026D01*
X40921Y-58844D01*
X40800Y-58722D01*
X40800Y-55328D01*
X44955Y-51173D01*
X44956Y-51239D01*
X45051Y-51466D01*
X45164Y-51514D01*
X45604Y-51075D01*
X45598Y-51069D01*
X45669Y-50998D01*
X45675Y-51004D01*
X46114Y-50564D01*
X46066Y-50451D01*
X45797Y-50348D01*
X45779Y-50349D01*
X46027Y-50101D01*
X48125Y-50101D01*
X48183Y-50159D01*
X48295Y-50206D01*
X48417Y-50206D01*
X48461Y-50187D01*
X48461Y-52889D01*
X48461Y-52889D01*
G37*
G54D15*
X48461Y-52889D02*
X48401Y-52949D01*
X48401Y-51197D01*
X48393Y-50910D01*
X48298Y-50683D01*
X48185Y-50635D01*
X48114Y-50705D01*
X48114Y-50564D01*
X48066Y-50451D01*
X47797Y-50348D01*
X47510Y-50356D01*
X47283Y-50451D01*
X47235Y-50564D01*
X47675Y-51004D01*
X48114Y-50564D01*
X48114Y-50705D01*
X47745Y-51075D01*
X48185Y-51514D01*
X48298Y-51466D01*
X48401Y-51197D01*
X48401Y-52949D01*
X48394Y-52956D01*
X48393Y-52910D01*
X48298Y-52683D01*
X48185Y-52635D01*
X48114Y-52705D01*
X48114Y-52564D01*
X48114Y-51585D01*
X47675Y-51145D01*
X47604Y-51216D01*
X47604Y-51075D01*
X47164Y-50635D01*
X47051Y-50683D01*
X46948Y-50952D01*
X46956Y-51239D01*
X47051Y-51466D01*
X47164Y-51514D01*
X47604Y-51075D01*
X47604Y-51216D01*
X47235Y-51585D01*
X47283Y-51698D01*
X47552Y-51801D01*
X47839Y-51793D01*
X48066Y-51698D01*
X48114Y-51585D01*
X48114Y-52564D01*
X48066Y-52451D01*
X47797Y-52348D01*
X47510Y-52356D01*
X47297Y-52445D01*
X47297Y-51951D01*
X47202Y-51722D01*
X47028Y-51547D01*
X46799Y-51452D01*
X46551Y-51452D01*
X46401Y-51514D01*
X46401Y-51197D01*
X46393Y-50910D01*
X46298Y-50683D01*
X46185Y-50635D01*
X45745Y-51075D01*
X46185Y-51514D01*
X46298Y-51466D01*
X46401Y-51197D01*
X46401Y-51514D01*
X46322Y-51547D01*
X46147Y-51721D01*
X46114Y-51800D01*
X46114Y-51585D01*
X45675Y-51145D01*
X45235Y-51585D01*
X45283Y-51698D01*
X45552Y-51801D01*
X45839Y-51793D01*
X46066Y-51698D01*
X46114Y-51585D01*
X46114Y-51800D01*
X46052Y-51950D01*
X46052Y-52198D01*
X46147Y-52427D01*
X46321Y-52602D01*
X46550Y-52697D01*
X46798Y-52697D01*
X47027Y-52602D01*
X47202Y-52428D01*
X47297Y-52199D01*
X47297Y-51951D01*
X47297Y-52445D01*
X47283Y-52451D01*
X47235Y-52564D01*
X47675Y-53004D01*
X48114Y-52564D01*
X48114Y-52705D01*
X47745Y-53075D01*
X47751Y-53080D01*
X47680Y-53151D01*
X47675Y-53145D01*
X47604Y-53216D01*
X47604Y-53075D01*
X47164Y-52635D01*
X47051Y-52683D01*
X46948Y-52952D01*
X46956Y-53239D01*
X47051Y-53466D01*
X47164Y-53514D01*
X47604Y-53075D01*
X47604Y-53216D01*
X47235Y-53585D01*
X47249Y-53618D01*
X46806Y-53618D01*
X46729Y-53634D01*
X46708Y-53648D01*
X46664Y-53677D01*
X46401Y-53940D01*
X46401Y-53197D01*
X46393Y-52910D01*
X46298Y-52683D01*
X46185Y-52635D01*
X46114Y-52705D01*
X46114Y-52564D01*
X46066Y-52451D01*
X45797Y-52348D01*
X45510Y-52356D01*
X45283Y-52451D01*
X45235Y-52564D01*
X45675Y-53004D01*
X46114Y-52564D01*
X46114Y-52705D01*
X45745Y-53075D01*
X46185Y-53514D01*
X46298Y-53466D01*
X46401Y-53197D01*
X46401Y-53940D01*
X46114Y-54227D01*
X46114Y-53585D01*
X45675Y-53145D01*
X45604Y-53216D01*
X45604Y-53075D01*
X45164Y-52635D01*
X45051Y-52683D01*
X44948Y-52952D01*
X44956Y-53239D01*
X45051Y-53466D01*
X45164Y-53514D01*
X45604Y-53075D01*
X45604Y-53216D01*
X45235Y-53585D01*
X45283Y-53698D01*
X45552Y-53801D01*
X45839Y-53793D01*
X46066Y-53698D01*
X46114Y-53585D01*
X46114Y-54227D01*
X41680Y-58662D01*
X41599Y-58628D01*
X41401Y-58628D01*
X41219Y-58703D01*
X41079Y-58843D01*
X41003Y-59025D01*
X41003Y-59223D01*
X41078Y-59405D01*
X41097Y-59425D01*
X41000Y-59425D01*
X40936Y-59437D01*
X40923Y-59440D01*
X40858Y-59483D01*
X40680Y-59662D01*
X40599Y-59628D01*
X40401Y-59628D01*
X40219Y-59703D01*
X40079Y-59843D01*
X40056Y-59898D01*
X40019Y-59809D01*
X39919Y-59776D01*
X39848Y-59846D01*
X39848Y-59705D01*
X39822Y-59625D01*
X39848Y-59544D01*
X39500Y-59195D01*
X39429Y-59266D01*
X39429Y-59125D01*
X39080Y-58776D01*
X38980Y-58809D01*
X38945Y-58903D01*
X38921Y-58844D01*
X38781Y-58704D01*
X38599Y-58628D01*
X38401Y-58628D01*
X38219Y-58703D01*
X38079Y-58843D01*
X38003Y-59025D01*
X38003Y-59223D01*
X38078Y-59405D01*
X38218Y-59545D01*
X38400Y-59621D01*
X38598Y-59621D01*
X38780Y-59546D01*
X38920Y-59406D01*
X38943Y-59351D01*
X38980Y-59440D01*
X39080Y-59473D01*
X39429Y-59125D01*
X39429Y-59266D01*
X39151Y-59544D01*
X39177Y-59625D01*
X39151Y-59705D01*
X39500Y-60054D01*
X39848Y-59705D01*
X39848Y-59846D01*
X39570Y-60125D01*
X39919Y-60473D01*
X40019Y-60440D01*
X40054Y-60346D01*
X40078Y-60405D01*
X40218Y-60545D01*
X40400Y-60621D01*
X40598Y-60621D01*
X40780Y-60546D01*
X40920Y-60406D01*
X40996Y-60224D01*
X40996Y-60026D01*
X40962Y-59945D01*
X41082Y-59825D01*
X41097Y-59825D01*
X41079Y-59843D01*
X41003Y-60025D01*
X41003Y-60223D01*
X41078Y-60405D01*
X41218Y-60545D01*
X41400Y-60621D01*
X41598Y-60621D01*
X41780Y-60546D01*
X41920Y-60406D01*
X41996Y-60224D01*
X41996Y-60026D01*
X41962Y-59945D01*
X42086Y-59821D01*
X42101Y-59821D01*
X42079Y-59843D01*
X42003Y-60025D01*
X42003Y-60223D01*
X42078Y-60405D01*
X42218Y-60545D01*
X42400Y-60621D01*
X42598Y-60621D01*
X42679Y-60587D01*
X43127Y-61035D01*
X39693Y-61035D01*
X39370Y-60712D01*
X39407Y-60726D01*
X39644Y-60715D01*
X39815Y-60644D01*
X39848Y-60544D01*
X39500Y-60195D01*
X39494Y-60201D01*
X39423Y-60130D01*
X39429Y-60125D01*
X39080Y-59776D01*
X38980Y-59809D01*
X38945Y-59903D01*
X38921Y-59844D01*
X38781Y-59704D01*
X38599Y-59628D01*
X38401Y-59628D01*
X38219Y-59703D01*
X38079Y-59843D01*
X38003Y-60025D01*
X38003Y-60223D01*
X38078Y-60405D01*
X38218Y-60545D01*
X38400Y-60621D01*
X38598Y-60621D01*
X38679Y-60587D01*
X39327Y-61235D01*
X38893Y-61235D01*
X37962Y-60305D01*
X37996Y-60224D01*
X37996Y-60026D01*
X37921Y-59844D01*
X37781Y-59704D01*
X37599Y-59628D01*
X37401Y-59628D01*
X37219Y-59703D01*
X37079Y-59843D01*
X37003Y-60025D01*
X37003Y-60222D01*
X36092Y-59311D01*
X36092Y-59185D01*
X36130Y-59147D01*
X37003Y-59147D01*
X37003Y-59223D01*
X37078Y-59405D01*
X37218Y-59545D01*
X37400Y-59621D01*
X37598Y-59621D01*
X37780Y-59546D01*
X37920Y-59406D01*
X37996Y-59224D01*
X37996Y-59026D01*
X37962Y-58945D01*
X38513Y-58394D01*
X38513Y-58394D01*
X38542Y-58350D01*
X38556Y-58329D01*
X38556Y-58329D01*
X38572Y-58252D01*
X38572Y-58252D01*
X38572Y-46803D01*
X41981Y-46803D01*
X42039Y-46862D01*
X42151Y-46908D01*
X42272Y-46908D01*
X42345Y-46878D01*
X42345Y-51954D01*
X40148Y-54150D01*
X40105Y-54215D01*
X40090Y-54292D01*
X40090Y-57333D01*
X40031Y-57392D01*
X39985Y-57504D01*
X39985Y-57625D01*
X40031Y-57737D01*
X40117Y-57823D01*
X40229Y-57870D01*
X40350Y-57870D01*
X40400Y-57849D01*
X40400Y-58629D01*
X40219Y-58703D01*
X40079Y-58843D01*
X40056Y-58898D01*
X40019Y-58809D01*
X39919Y-58776D01*
X39848Y-58846D01*
X39848Y-58705D01*
X39815Y-58605D01*
X39592Y-58523D01*
X39355Y-58534D01*
X39184Y-58605D01*
X39151Y-58705D01*
X39500Y-59054D01*
X39848Y-58705D01*
X39848Y-58846D01*
X39570Y-59125D01*
X39919Y-59473D01*
X40019Y-59440D01*
X40054Y-59346D01*
X40078Y-59405D01*
X40218Y-59545D01*
X40400Y-59621D01*
X40598Y-59621D01*
X40780Y-59546D01*
X40920Y-59406D01*
X40996Y-59224D01*
X40996Y-59026D01*
X40921Y-58844D01*
X40800Y-58722D01*
X40800Y-55328D01*
X44955Y-51173D01*
X44956Y-51239D01*
X45051Y-51466D01*
X45164Y-51514D01*
X45604Y-51075D01*
X45598Y-51069D01*
X45669Y-50998D01*
X45675Y-51004D01*
X46114Y-50564D01*
X46066Y-50451D01*
X45797Y-50348D01*
X45779Y-50349D01*
X46027Y-50101D01*
X48125Y-50101D01*
X48183Y-50159D01*
X48295Y-50206D01*
X48417Y-50206D01*
X48461Y-50187D01*
X48461Y-52889D01*
G54D10*
G36*
X48677Y-54042D02*
X45974Y-56746D01*
X45892Y-56746D01*
X45779Y-56792D01*
X45694Y-56878D01*
X45647Y-56990D01*
X45647Y-57111D01*
X45665Y-57156D01*
X43751Y-57156D01*
X46889Y-54018D01*
X47814Y-54018D01*
X47891Y-54003D01*
X47956Y-53960D01*
X48677Y-53238D01*
X48677Y-54042D01*
X48677Y-54042D01*
G37*
G54D15*
X48677Y-54042D02*
X45974Y-56746D01*
X45892Y-56746D01*
X45779Y-56792D01*
X45694Y-56878D01*
X45647Y-56990D01*
X45647Y-57111D01*
X45665Y-57156D01*
X43751Y-57156D01*
X46889Y-54018D01*
X47814Y-54018D01*
X47891Y-54003D01*
X47956Y-53960D01*
X48677Y-53238D01*
X48677Y-54042D01*
G54D10*
G36*
X51371Y-52064D02*
X49292Y-54142D01*
X49292Y-49616D01*
X49277Y-49539D01*
X49277Y-49539D01*
X49234Y-49474D01*
X47917Y-48157D01*
X47852Y-48114D01*
X47775Y-48099D01*
X46197Y-48099D01*
X46234Y-48083D01*
X46293Y-48025D01*
X47786Y-48025D01*
X51331Y-51570D01*
X51273Y-51627D01*
X51227Y-51739D01*
X51227Y-51861D01*
X51273Y-51973D01*
X51359Y-52059D01*
X51371Y-52064D01*
X51371Y-52064D01*
G37*
G54D15*
X51371Y-52064D02*
X49292Y-54142D01*
X49292Y-49616D01*
X49277Y-49539D01*
X49277Y-49539D01*
X49234Y-49474D01*
X47917Y-48157D01*
X47852Y-48114D01*
X47775Y-48099D01*
X46197Y-48099D01*
X46234Y-48083D01*
X46293Y-48025D01*
X47786Y-48025D01*
X51331Y-51570D01*
X51273Y-51627D01*
X51227Y-51739D01*
X51227Y-51861D01*
X51273Y-51973D01*
X51359Y-52059D01*
X51371Y-52064D01*
G54D10*
G36*
X56154Y-27695D02*
X51192Y-32657D01*
X48585Y-32657D01*
X48527Y-32598D01*
X48415Y-32552D01*
X48293Y-32552D01*
X48181Y-32598D01*
X48095Y-32684D01*
X48049Y-32796D01*
X48049Y-32917D01*
X48095Y-33029D01*
X48181Y-33115D01*
X48293Y-33162D01*
X48414Y-33162D01*
X48526Y-33115D01*
X48585Y-33057D01*
X51275Y-33057D01*
X51351Y-33042D01*
X51416Y-32998D01*
X51912Y-32502D01*
X51931Y-32550D01*
X52017Y-32636D01*
X52129Y-32682D01*
X52251Y-32682D01*
X52363Y-32636D01*
X52449Y-32550D01*
X52495Y-32438D01*
X52495Y-32355D01*
X54097Y-30753D01*
X54176Y-30785D01*
X54252Y-30785D01*
X54331Y-30864D01*
X54284Y-30883D01*
X54198Y-30969D01*
X54152Y-31081D01*
X54152Y-31164D01*
X51532Y-33785D01*
X48269Y-33785D01*
X48205Y-33797D01*
X48192Y-33800D01*
X48127Y-33843D01*
X47544Y-34427D01*
X47544Y-31572D01*
X47544Y-31572D01*
X47529Y-31495D01*
X47529Y-31495D01*
X47514Y-31474D01*
X47485Y-31430D01*
X47485Y-31430D01*
X46838Y-30783D01*
X48012Y-30783D01*
X48089Y-30768D01*
X48154Y-30724D01*
X49774Y-29104D01*
X49818Y-29104D01*
X50313Y-29599D01*
X50313Y-29599D01*
X50356Y-29628D01*
X50378Y-29643D01*
X50378Y-29643D01*
X50454Y-29658D01*
X50454Y-29658D01*
X51974Y-29658D01*
X52051Y-29643D01*
X52116Y-29599D01*
X54020Y-27695D01*
X56154Y-27695D01*
X56154Y-27695D01*
G37*
G54D15*
X56154Y-27695D02*
X51192Y-32657D01*
X48585Y-32657D01*
X48527Y-32598D01*
X48415Y-32552D01*
X48293Y-32552D01*
X48181Y-32598D01*
X48095Y-32684D01*
X48049Y-32796D01*
X48049Y-32917D01*
X48095Y-33029D01*
X48181Y-33115D01*
X48293Y-33162D01*
X48414Y-33162D01*
X48526Y-33115D01*
X48585Y-33057D01*
X51275Y-33057D01*
X51351Y-33042D01*
X51416Y-32998D01*
X51912Y-32502D01*
X51931Y-32550D01*
X52017Y-32636D01*
X52129Y-32682D01*
X52251Y-32682D01*
X52363Y-32636D01*
X52449Y-32550D01*
X52495Y-32438D01*
X52495Y-32355D01*
X54097Y-30753D01*
X54176Y-30785D01*
X54252Y-30785D01*
X54331Y-30864D01*
X54284Y-30883D01*
X54198Y-30969D01*
X54152Y-31081D01*
X54152Y-31164D01*
X51532Y-33785D01*
X48269Y-33785D01*
X48205Y-33797D01*
X48192Y-33800D01*
X48127Y-33843D01*
X47544Y-34427D01*
X47544Y-31572D01*
X47544Y-31572D01*
X47529Y-31495D01*
X47529Y-31495D01*
X47514Y-31474D01*
X47485Y-31430D01*
X47485Y-31430D01*
X46838Y-30783D01*
X48012Y-30783D01*
X48089Y-30768D01*
X48154Y-30724D01*
X49774Y-29104D01*
X49818Y-29104D01*
X50313Y-29599D01*
X50313Y-29599D01*
X50356Y-29628D01*
X50378Y-29643D01*
X50378Y-29643D01*
X50454Y-29658D01*
X50454Y-29658D01*
X51974Y-29658D01*
X52051Y-29643D01*
X52116Y-29599D01*
X54020Y-27695D01*
X56154Y-27695D01*
G54D10*
G36*
X57133Y-60175D02*
X57119Y-60188D01*
X57076Y-60253D01*
X57060Y-60330D01*
X57060Y-60609D01*
X57002Y-60667D01*
X56955Y-60779D01*
X56955Y-60901D01*
X56974Y-60945D01*
X50603Y-60945D01*
X49962Y-60305D01*
X49996Y-60224D01*
X49996Y-60026D01*
X49921Y-59844D01*
X49902Y-59825D01*
X50675Y-59825D01*
X50751Y-59809D01*
X50816Y-59766D01*
X53202Y-57379D01*
X53285Y-57380D01*
X53397Y-57333D01*
X53483Y-57247D01*
X53529Y-57135D01*
X53530Y-57014D01*
X53483Y-56902D01*
X53425Y-56843D01*
X53425Y-56215D01*
X53586Y-56053D01*
X53605Y-56099D01*
X53691Y-56185D01*
X53803Y-56232D01*
X53924Y-56232D01*
X54036Y-56186D01*
X54122Y-56100D01*
X54168Y-55988D01*
X54169Y-55905D01*
X54494Y-55579D01*
X55096Y-55579D01*
X55074Y-55631D01*
X55074Y-55753D01*
X55120Y-55865D01*
X55179Y-55924D01*
X55179Y-58138D01*
X55194Y-58215D01*
X55238Y-58280D01*
X57133Y-60175D01*
X57133Y-60175D01*
G37*
G54D15*
X57133Y-60175D02*
X57119Y-60188D01*
X57076Y-60253D01*
X57060Y-60330D01*
X57060Y-60609D01*
X57002Y-60667D01*
X56955Y-60779D01*
X56955Y-60901D01*
X56974Y-60945D01*
X50603Y-60945D01*
X49962Y-60305D01*
X49996Y-60224D01*
X49996Y-60026D01*
X49921Y-59844D01*
X49902Y-59825D01*
X50675Y-59825D01*
X50751Y-59809D01*
X50816Y-59766D01*
X53202Y-57379D01*
X53285Y-57380D01*
X53397Y-57333D01*
X53483Y-57247D01*
X53529Y-57135D01*
X53530Y-57014D01*
X53483Y-56902D01*
X53425Y-56843D01*
X53425Y-56215D01*
X53586Y-56053D01*
X53605Y-56099D01*
X53691Y-56185D01*
X53803Y-56232D01*
X53924Y-56232D01*
X54036Y-56186D01*
X54122Y-56100D01*
X54168Y-55988D01*
X54169Y-55905D01*
X54494Y-55579D01*
X55096Y-55579D01*
X55074Y-55631D01*
X55074Y-55753D01*
X55120Y-55865D01*
X55179Y-55924D01*
X55179Y-58138D01*
X55194Y-58215D01*
X55238Y-58280D01*
X57133Y-60175D01*
G54D10*
G36*
X57819Y-37834D02*
X57772Y-37881D01*
X56678Y-37881D01*
X54774Y-37881D01*
X54710Y-37893D01*
X54697Y-37896D01*
X54632Y-37939D01*
X52131Y-40440D01*
X50275Y-40440D01*
X50275Y-40033D01*
X50260Y-39957D01*
X50260Y-39957D01*
X50217Y-39892D01*
X48690Y-38365D01*
X48690Y-38282D01*
X48643Y-38170D01*
X48558Y-38084D01*
X48446Y-38037D01*
X48324Y-38037D01*
X48274Y-38058D01*
X48274Y-37826D01*
X48592Y-37508D01*
X52043Y-37508D01*
X52102Y-37566D01*
X52214Y-37613D01*
X52335Y-37613D01*
X52447Y-37567D01*
X52533Y-37481D01*
X52579Y-37369D01*
X52580Y-37248D01*
X52533Y-37136D01*
X52447Y-37050D01*
X52335Y-37003D01*
X52214Y-37003D01*
X52102Y-37049D01*
X52043Y-37108D01*
X48709Y-37108D01*
X48709Y-36581D01*
X48768Y-36522D01*
X48814Y-36410D01*
X48814Y-36289D01*
X48768Y-36177D01*
X48682Y-36091D01*
X48570Y-36045D01*
X48449Y-36044D01*
X48337Y-36091D01*
X48251Y-36177D01*
X48204Y-36289D01*
X48204Y-36410D01*
X48250Y-36522D01*
X48309Y-36581D01*
X48309Y-37225D01*
X47947Y-37587D01*
X47947Y-35096D01*
X47934Y-35032D01*
X47932Y-35019D01*
X47932Y-35019D01*
X47888Y-34954D01*
X47888Y-34954D01*
X47794Y-34860D01*
X47794Y-34742D01*
X48351Y-34185D01*
X51614Y-34185D01*
X51691Y-34169D01*
X51756Y-34126D01*
X54435Y-31447D01*
X54517Y-31447D01*
X54629Y-31401D01*
X54715Y-31315D01*
X54735Y-31268D01*
X55893Y-32426D01*
X55958Y-32470D01*
X55958Y-32470D01*
X55970Y-32472D01*
X56034Y-32485D01*
X57819Y-32485D01*
X57819Y-36766D01*
X57819Y-37834D01*
X57819Y-37834D01*
G37*
G54D15*
X57819Y-37834D02*
X57772Y-37881D01*
X56678Y-37881D01*
X54774Y-37881D01*
X54710Y-37893D01*
X54697Y-37896D01*
X54632Y-37939D01*
X52131Y-40440D01*
X50275Y-40440D01*
X50275Y-40033D01*
X50260Y-39957D01*
X50260Y-39957D01*
X50217Y-39892D01*
X48690Y-38365D01*
X48690Y-38282D01*
X48643Y-38170D01*
X48558Y-38084D01*
X48446Y-38037D01*
X48324Y-38037D01*
X48274Y-38058D01*
X48274Y-37826D01*
X48592Y-37508D01*
X52043Y-37508D01*
X52102Y-37566D01*
X52214Y-37613D01*
X52335Y-37613D01*
X52447Y-37567D01*
X52533Y-37481D01*
X52579Y-37369D01*
X52580Y-37248D01*
X52533Y-37136D01*
X52447Y-37050D01*
X52335Y-37003D01*
X52214Y-37003D01*
X52102Y-37049D01*
X52043Y-37108D01*
X48709Y-37108D01*
X48709Y-36581D01*
X48768Y-36522D01*
X48814Y-36410D01*
X48814Y-36289D01*
X48768Y-36177D01*
X48682Y-36091D01*
X48570Y-36045D01*
X48449Y-36044D01*
X48337Y-36091D01*
X48251Y-36177D01*
X48204Y-36289D01*
X48204Y-36410D01*
X48250Y-36522D01*
X48309Y-36581D01*
X48309Y-37225D01*
X47947Y-37587D01*
X47947Y-35096D01*
X47934Y-35032D01*
X47932Y-35019D01*
X47932Y-35019D01*
X47888Y-34954D01*
X47888Y-34954D01*
X47794Y-34860D01*
X47794Y-34742D01*
X48351Y-34185D01*
X51614Y-34185D01*
X51691Y-34169D01*
X51756Y-34126D01*
X54435Y-31447D01*
X54517Y-31447D01*
X54629Y-31401D01*
X54715Y-31315D01*
X54735Y-31268D01*
X55893Y-32426D01*
X55958Y-32470D01*
X55958Y-32470D01*
X55970Y-32472D01*
X56034Y-32485D01*
X57819Y-32485D01*
X57819Y-36766D01*
X57819Y-37834D01*
G54D10*
G36*
X58445Y-24991D02*
X58387Y-25049D01*
X58340Y-25161D01*
X58340Y-25283D01*
X58359Y-25327D01*
X56454Y-25327D01*
X56078Y-24952D01*
X56013Y-24909D01*
X55937Y-24893D01*
X47562Y-24893D01*
X47504Y-24835D01*
X47392Y-24788D01*
X47271Y-24788D01*
X47159Y-24835D01*
X47073Y-24920D01*
X47026Y-25032D01*
X47026Y-25154D01*
X47072Y-25266D01*
X47158Y-25352D01*
X47270Y-25398D01*
X47392Y-25398D01*
X47504Y-25352D01*
X47562Y-25293D01*
X55854Y-25293D01*
X56171Y-25610D01*
X56171Y-26141D01*
X55929Y-26383D01*
X53918Y-26383D01*
X53854Y-26396D01*
X53842Y-26398D01*
X53777Y-26441D01*
X52048Y-28170D01*
X51966Y-28170D01*
X51853Y-28216D01*
X51768Y-28302D01*
X51721Y-28414D01*
X51721Y-28535D01*
X51767Y-28648D01*
X51853Y-28733D01*
X51898Y-28752D01*
X51700Y-28950D01*
X51668Y-28950D01*
X51609Y-28891D01*
X51497Y-28845D01*
X51376Y-28845D01*
X51264Y-28891D01*
X51178Y-28977D01*
X51131Y-29089D01*
X51131Y-29210D01*
X51151Y-29258D01*
X50537Y-29258D01*
X50101Y-28821D01*
X50101Y-28739D01*
X50055Y-28627D01*
X49969Y-28541D01*
X49857Y-28494D01*
X49736Y-28494D01*
X49623Y-28541D01*
X49538Y-28626D01*
X49491Y-28738D01*
X49491Y-28821D01*
X47929Y-30383D01*
X46912Y-30383D01*
X46294Y-29765D01*
X46229Y-29722D01*
X46153Y-29707D01*
X45833Y-29707D01*
X45757Y-29722D01*
X45735Y-29736D01*
X45692Y-29765D01*
X45529Y-29928D01*
X45486Y-29993D01*
X45471Y-30069D01*
X45471Y-31488D01*
X45486Y-31565D01*
X45529Y-31629D01*
X46147Y-32247D01*
X46102Y-32266D01*
X46016Y-32352D01*
X45970Y-32464D01*
X45969Y-32547D01*
X42074Y-36442D01*
X42074Y-33663D01*
X42074Y-33663D01*
X42059Y-33587D01*
X42059Y-33587D01*
X42044Y-33565D01*
X42016Y-33522D01*
X42016Y-33522D01*
X41740Y-33246D01*
X41740Y-33164D01*
X41694Y-33052D01*
X41608Y-32966D01*
X41496Y-32919D01*
X41375Y-32919D01*
X41263Y-32966D01*
X41177Y-33051D01*
X41130Y-33163D01*
X41130Y-33285D01*
X41177Y-33397D01*
X41262Y-33483D01*
X41374Y-33529D01*
X41457Y-33529D01*
X41674Y-33746D01*
X41674Y-35679D01*
X39555Y-33560D01*
X39555Y-33516D01*
X40441Y-32630D01*
X40910Y-32630D01*
X42970Y-32630D01*
X43029Y-32688D01*
X43141Y-32735D01*
X43262Y-32735D01*
X43374Y-32689D01*
X43460Y-32603D01*
X43507Y-32491D01*
X43507Y-32370D01*
X43460Y-32257D01*
X43375Y-32172D01*
X43263Y-32125D01*
X43141Y-32125D01*
X43029Y-32171D01*
X42970Y-32230D01*
X41110Y-32230D01*
X41110Y-29249D01*
X45416Y-29249D01*
X45432Y-29264D01*
X45544Y-29311D01*
X45665Y-29311D01*
X45777Y-29264D01*
X45863Y-29179D01*
X45910Y-29066D01*
X45910Y-28945D01*
X45863Y-28833D01*
X45778Y-28747D01*
X45666Y-28701D01*
X45544Y-28701D01*
X45432Y-28747D01*
X45346Y-28833D01*
X45340Y-28849D01*
X41110Y-28849D01*
X41110Y-28457D01*
X45381Y-24187D01*
X45463Y-24187D01*
X45575Y-24141D01*
X45634Y-24082D01*
X58445Y-24082D01*
X58445Y-24991D01*
X58445Y-24991D01*
G37*
G54D15*
X58445Y-24991D02*
X58387Y-25049D01*
X58340Y-25161D01*
X58340Y-25283D01*
X58359Y-25327D01*
X56454Y-25327D01*
X56078Y-24952D01*
X56013Y-24909D01*
X55937Y-24893D01*
X47562Y-24893D01*
X47504Y-24835D01*
X47392Y-24788D01*
X47271Y-24788D01*
X47159Y-24835D01*
X47073Y-24920D01*
X47026Y-25032D01*
X47026Y-25154D01*
X47072Y-25266D01*
X47158Y-25352D01*
X47270Y-25398D01*
X47392Y-25398D01*
X47504Y-25352D01*
X47562Y-25293D01*
X55854Y-25293D01*
X56171Y-25610D01*
X56171Y-26141D01*
X55929Y-26383D01*
X53918Y-26383D01*
X53854Y-26396D01*
X53842Y-26398D01*
X53777Y-26441D01*
X52048Y-28170D01*
X51966Y-28170D01*
X51853Y-28216D01*
X51768Y-28302D01*
X51721Y-28414D01*
X51721Y-28535D01*
X51767Y-28648D01*
X51853Y-28733D01*
X51898Y-28752D01*
X51700Y-28950D01*
X51668Y-28950D01*
X51609Y-28891D01*
X51497Y-28845D01*
X51376Y-28845D01*
X51264Y-28891D01*
X51178Y-28977D01*
X51131Y-29089D01*
X51131Y-29210D01*
X51151Y-29258D01*
X50537Y-29258D01*
X50101Y-28821D01*
X50101Y-28739D01*
X50055Y-28627D01*
X49969Y-28541D01*
X49857Y-28494D01*
X49736Y-28494D01*
X49623Y-28541D01*
X49538Y-28626D01*
X49491Y-28738D01*
X49491Y-28821D01*
X47929Y-30383D01*
X46912Y-30383D01*
X46294Y-29765D01*
X46229Y-29722D01*
X46153Y-29707D01*
X45833Y-29707D01*
X45757Y-29722D01*
X45735Y-29736D01*
X45692Y-29765D01*
X45529Y-29928D01*
X45486Y-29993D01*
X45471Y-30069D01*
X45471Y-31488D01*
X45486Y-31565D01*
X45529Y-31629D01*
X46147Y-32247D01*
X46102Y-32266D01*
X46016Y-32352D01*
X45970Y-32464D01*
X45969Y-32547D01*
X42074Y-36442D01*
X42074Y-33663D01*
X42074Y-33663D01*
X42059Y-33587D01*
X42059Y-33587D01*
X42044Y-33565D01*
X42016Y-33522D01*
X42016Y-33522D01*
X41740Y-33246D01*
X41740Y-33164D01*
X41694Y-33052D01*
X41608Y-32966D01*
X41496Y-32919D01*
X41375Y-32919D01*
X41263Y-32966D01*
X41177Y-33051D01*
X41130Y-33163D01*
X41130Y-33285D01*
X41177Y-33397D01*
X41262Y-33483D01*
X41374Y-33529D01*
X41457Y-33529D01*
X41674Y-33746D01*
X41674Y-35679D01*
X39555Y-33560D01*
X39555Y-33516D01*
X40441Y-32630D01*
X40910Y-32630D01*
X42970Y-32630D01*
X43029Y-32688D01*
X43141Y-32735D01*
X43262Y-32735D01*
X43374Y-32689D01*
X43460Y-32603D01*
X43507Y-32491D01*
X43507Y-32370D01*
X43460Y-32257D01*
X43375Y-32172D01*
X43263Y-32125D01*
X43141Y-32125D01*
X43029Y-32171D01*
X42970Y-32230D01*
X41110Y-32230D01*
X41110Y-29249D01*
X45416Y-29249D01*
X45432Y-29264D01*
X45544Y-29311D01*
X45665Y-29311D01*
X45777Y-29264D01*
X45863Y-29179D01*
X45910Y-29066D01*
X45910Y-28945D01*
X45863Y-28833D01*
X45778Y-28747D01*
X45666Y-28701D01*
X45544Y-28701D01*
X45432Y-28747D01*
X45346Y-28833D01*
X45340Y-28849D01*
X41110Y-28849D01*
X41110Y-28457D01*
X45381Y-24187D01*
X45463Y-24187D01*
X45575Y-24141D01*
X45634Y-24082D01*
X58445Y-24082D01*
X58445Y-24991D01*
G54D10*
G36*
X63510Y-52943D02*
X61203Y-55250D01*
X58407Y-55250D01*
X58395Y-55238D01*
X58338Y-55200D01*
X61808Y-51729D01*
X61890Y-51730D01*
X62003Y-51683D01*
X62088Y-51597D01*
X62135Y-51485D01*
X62135Y-51402D01*
X62918Y-50619D01*
X63424Y-50619D01*
X63405Y-50664D01*
X63405Y-50785D01*
X63451Y-50897D01*
X63510Y-50956D01*
X63510Y-52943D01*
X63510Y-52943D01*
G37*
G54D15*
X63510Y-52943D02*
X61203Y-55250D01*
X58407Y-55250D01*
X58395Y-55238D01*
X58338Y-55200D01*
X61808Y-51729D01*
X61890Y-51730D01*
X62003Y-51683D01*
X62088Y-51597D01*
X62135Y-51485D01*
X62135Y-51402D01*
X62918Y-50619D01*
X63424Y-50619D01*
X63405Y-50664D01*
X63405Y-50785D01*
X63451Y-50897D01*
X63510Y-50956D01*
X63510Y-52943D01*
G54D10*
G36*
X63698Y-44326D02*
X56881Y-51143D01*
X56881Y-50769D01*
X56939Y-50711D01*
X56986Y-50599D01*
X56986Y-50478D01*
X56939Y-50365D01*
X56854Y-50280D01*
X56742Y-50233D01*
X56620Y-50233D01*
X56508Y-50279D01*
X56422Y-50365D01*
X56376Y-50477D01*
X56376Y-50598D01*
X56422Y-50710D01*
X56481Y-50769D01*
X56481Y-51248D01*
X56003Y-51725D01*
X55983Y-51677D01*
X55897Y-51591D01*
X55785Y-51545D01*
X55664Y-51544D01*
X55552Y-51591D01*
X55466Y-51677D01*
X55420Y-51789D01*
X55419Y-51910D01*
X55443Y-51966D01*
X53395Y-51966D01*
X53395Y-48628D01*
X53348Y-48516D01*
X53263Y-48430D01*
X53151Y-48383D01*
X53029Y-48383D01*
X52917Y-48430D01*
X52831Y-48515D01*
X52785Y-48627D01*
X52785Y-48749D01*
X52831Y-48861D01*
X52917Y-48947D01*
X53029Y-48993D01*
X53150Y-48993D01*
X53262Y-48947D01*
X53348Y-48861D01*
X53395Y-48749D01*
X53395Y-48628D01*
X53395Y-51966D01*
X51793Y-51966D01*
X51837Y-51861D01*
X51837Y-51740D01*
X51791Y-51628D01*
X51732Y-51569D01*
X51732Y-51488D01*
X51719Y-51424D01*
X51717Y-51411D01*
X51717Y-51411D01*
X51673Y-51346D01*
X48069Y-47742D01*
X48069Y-39325D01*
X48074Y-39320D01*
X49016Y-40262D01*
X48897Y-40380D01*
X48854Y-40445D01*
X48839Y-40522D01*
X48839Y-40763D01*
X48854Y-40840D01*
X48897Y-40905D01*
X50508Y-42516D01*
X50508Y-42516D01*
X50552Y-42545D01*
X50573Y-42559D01*
X50573Y-42559D01*
X50650Y-42575D01*
X51074Y-42575D01*
X51105Y-42606D01*
X51105Y-42693D01*
X51120Y-42769D01*
X51164Y-42834D01*
X51176Y-42846D01*
X48597Y-45425D01*
X48514Y-45425D01*
X48402Y-45472D01*
X48316Y-45557D01*
X48270Y-45669D01*
X48269Y-45791D01*
X48316Y-45903D01*
X48402Y-45989D01*
X48514Y-46035D01*
X48635Y-46035D01*
X48747Y-45989D01*
X48833Y-45903D01*
X48879Y-45791D01*
X48880Y-45708D01*
X51459Y-43129D01*
X51671Y-43342D01*
X51671Y-43342D01*
X51736Y-43385D01*
X51813Y-43401D01*
X52049Y-43401D01*
X52125Y-43385D01*
X52190Y-43342D01*
X52955Y-42577D01*
X56055Y-42577D01*
X56312Y-42835D01*
X56312Y-42917D01*
X56359Y-43030D01*
X56444Y-43115D01*
X56556Y-43162D01*
X56678Y-43162D01*
X56790Y-43116D01*
X56876Y-43030D01*
X56919Y-42927D01*
X57561Y-43569D01*
X57561Y-46103D01*
X57489Y-46102D01*
X57377Y-46149D01*
X57291Y-46235D01*
X57245Y-46347D01*
X57244Y-46440D01*
X57170Y-46515D01*
X57152Y-46470D01*
X57066Y-46384D01*
X56954Y-46338D01*
X56833Y-46338D01*
X56720Y-46384D01*
X56635Y-46470D01*
X56588Y-46582D01*
X56588Y-46703D01*
X56634Y-46815D01*
X56704Y-46886D01*
X52831Y-46886D01*
X52772Y-46827D01*
X52660Y-46781D01*
X52539Y-46781D01*
X52427Y-46827D01*
X52341Y-46913D01*
X52295Y-47025D01*
X52294Y-47146D01*
X52341Y-47258D01*
X52427Y-47344D01*
X52539Y-47391D01*
X52660Y-47391D01*
X52772Y-47344D01*
X52831Y-47286D01*
X56882Y-47286D01*
X56958Y-47270D01*
X57023Y-47227D01*
X57538Y-46713D01*
X57610Y-46713D01*
X57722Y-46666D01*
X57808Y-46581D01*
X57854Y-46468D01*
X57855Y-46385D01*
X57902Y-46337D01*
X57902Y-46337D01*
X57931Y-46294D01*
X57946Y-46273D01*
X57946Y-46273D01*
X57961Y-46196D01*
X57961Y-46196D01*
X57961Y-43686D01*
X62947Y-43686D01*
X63023Y-43671D01*
X63088Y-43628D01*
X63571Y-43145D01*
X63653Y-43145D01*
X63698Y-43127D01*
X63698Y-44326D01*
X63698Y-44326D01*
G37*
G54D15*
X63698Y-44326D02*
X56881Y-51143D01*
X56881Y-50769D01*
X56939Y-50711D01*
X56986Y-50599D01*
X56986Y-50478D01*
X56939Y-50365D01*
X56854Y-50280D01*
X56742Y-50233D01*
X56620Y-50233D01*
X56508Y-50279D01*
X56422Y-50365D01*
X56376Y-50477D01*
X56376Y-50598D01*
X56422Y-50710D01*
X56481Y-50769D01*
X56481Y-51248D01*
X56003Y-51725D01*
X55983Y-51677D01*
X55897Y-51591D01*
X55785Y-51545D01*
X55664Y-51544D01*
X55552Y-51591D01*
X55466Y-51677D01*
X55420Y-51789D01*
X55419Y-51910D01*
X55443Y-51966D01*
X53395Y-51966D01*
X53395Y-48628D01*
X53348Y-48516D01*
X53263Y-48430D01*
X53151Y-48383D01*
X53029Y-48383D01*
X52917Y-48430D01*
X52831Y-48515D01*
X52785Y-48627D01*
X52785Y-48749D01*
X52831Y-48861D01*
X52917Y-48947D01*
X53029Y-48993D01*
X53150Y-48993D01*
X53262Y-48947D01*
X53348Y-48861D01*
X53395Y-48749D01*
X53395Y-48628D01*
X53395Y-51966D01*
X51793Y-51966D01*
X51837Y-51861D01*
X51837Y-51740D01*
X51791Y-51628D01*
X51732Y-51569D01*
X51732Y-51488D01*
X51719Y-51424D01*
X51717Y-51411D01*
X51717Y-51411D01*
X51673Y-51346D01*
X48069Y-47742D01*
X48069Y-39325D01*
X48074Y-39320D01*
X49016Y-40262D01*
X48897Y-40380D01*
X48854Y-40445D01*
X48839Y-40522D01*
X48839Y-40763D01*
X48854Y-40840D01*
X48897Y-40905D01*
X50508Y-42516D01*
X50508Y-42516D01*
X50552Y-42545D01*
X50573Y-42559D01*
X50573Y-42559D01*
X50650Y-42575D01*
X51074Y-42575D01*
X51105Y-42606D01*
X51105Y-42693D01*
X51120Y-42769D01*
X51164Y-42834D01*
X51176Y-42846D01*
X48597Y-45425D01*
X48514Y-45425D01*
X48402Y-45472D01*
X48316Y-45557D01*
X48270Y-45669D01*
X48269Y-45791D01*
X48316Y-45903D01*
X48402Y-45989D01*
X48514Y-46035D01*
X48635Y-46035D01*
X48747Y-45989D01*
X48833Y-45903D01*
X48879Y-45791D01*
X48880Y-45708D01*
X51459Y-43129D01*
X51671Y-43342D01*
X51671Y-43342D01*
X51736Y-43385D01*
X51813Y-43401D01*
X52049Y-43401D01*
X52125Y-43385D01*
X52190Y-43342D01*
X52955Y-42577D01*
X56055Y-42577D01*
X56312Y-42835D01*
X56312Y-42917D01*
X56359Y-43030D01*
X56444Y-43115D01*
X56556Y-43162D01*
X56678Y-43162D01*
X56790Y-43116D01*
X56876Y-43030D01*
X56919Y-42927D01*
X57561Y-43569D01*
X57561Y-46103D01*
X57489Y-46102D01*
X57377Y-46149D01*
X57291Y-46235D01*
X57245Y-46347D01*
X57244Y-46440D01*
X57170Y-46515D01*
X57152Y-46470D01*
X57066Y-46384D01*
X56954Y-46338D01*
X56833Y-46338D01*
X56720Y-46384D01*
X56635Y-46470D01*
X56588Y-46582D01*
X56588Y-46703D01*
X56634Y-46815D01*
X56704Y-46886D01*
X52831Y-46886D01*
X52772Y-46827D01*
X52660Y-46781D01*
X52539Y-46781D01*
X52427Y-46827D01*
X52341Y-46913D01*
X52295Y-47025D01*
X52294Y-47146D01*
X52341Y-47258D01*
X52427Y-47344D01*
X52539Y-47391D01*
X52660Y-47391D01*
X52772Y-47344D01*
X52831Y-47286D01*
X56882Y-47286D01*
X56958Y-47270D01*
X57023Y-47227D01*
X57538Y-46713D01*
X57610Y-46713D01*
X57722Y-46666D01*
X57808Y-46581D01*
X57854Y-46468D01*
X57855Y-46385D01*
X57902Y-46337D01*
X57902Y-46337D01*
X57931Y-46294D01*
X57946Y-46273D01*
X57946Y-46273D01*
X57961Y-46196D01*
X57961Y-46196D01*
X57961Y-43686D01*
X62947Y-43686D01*
X63023Y-43671D01*
X63088Y-43628D01*
X63571Y-43145D01*
X63653Y-43145D01*
X63698Y-43127D01*
X63698Y-44326D01*
G54D10*
G36*
X66131Y-58444D02*
X65719Y-58856D01*
X65696Y-58802D01*
X65610Y-58716D01*
X65498Y-58670D01*
X65377Y-58670D01*
X65265Y-58716D01*
X65179Y-58802D01*
X65132Y-58914D01*
X65132Y-58997D01*
X64954Y-59175D01*
X63421Y-59175D01*
X63362Y-59117D01*
X63250Y-59070D01*
X63129Y-59070D01*
X63017Y-59116D01*
X62931Y-59202D01*
X62884Y-59314D01*
X62884Y-59397D01*
X62307Y-59975D01*
X59680Y-59975D01*
X59680Y-59439D01*
X59633Y-59327D01*
X59547Y-59241D01*
X59435Y-59195D01*
X59314Y-59194D01*
X59202Y-59241D01*
X59116Y-59327D01*
X59070Y-59439D01*
X59069Y-59560D01*
X59116Y-59672D01*
X59202Y-59758D01*
X59314Y-59804D01*
X59435Y-59805D01*
X59547Y-59758D01*
X59633Y-59672D01*
X59679Y-59560D01*
X59680Y-59439D01*
X59680Y-59975D01*
X57498Y-59975D01*
X55579Y-58055D01*
X55579Y-55924D01*
X55637Y-55865D01*
X55684Y-55753D01*
X55684Y-55632D01*
X55662Y-55579D01*
X58125Y-55579D01*
X58125Y-56657D01*
X58066Y-56716D01*
X58020Y-56828D01*
X58019Y-56949D01*
X58066Y-57061D01*
X58152Y-57147D01*
X58264Y-57194D01*
X58385Y-57194D01*
X58497Y-57148D01*
X58583Y-57062D01*
X58629Y-56950D01*
X58630Y-56828D01*
X58583Y-56716D01*
X58525Y-56657D01*
X58525Y-55650D01*
X61203Y-55650D01*
X61869Y-56316D01*
X61869Y-57143D01*
X61810Y-57202D01*
X61764Y-57314D01*
X61764Y-57435D01*
X61810Y-57547D01*
X61896Y-57633D01*
X62008Y-57679D01*
X62129Y-57680D01*
X62241Y-57633D01*
X62327Y-57547D01*
X62374Y-57435D01*
X62374Y-57314D01*
X62328Y-57202D01*
X62269Y-57143D01*
X62269Y-56233D01*
X62254Y-56157D01*
X62254Y-56157D01*
X62239Y-56135D01*
X62210Y-56092D01*
X62210Y-56092D01*
X61569Y-55450D01*
X63852Y-53167D01*
X63852Y-53167D01*
X63881Y-53124D01*
X63895Y-53102D01*
X63895Y-53102D01*
X63910Y-53025D01*
X63910Y-53025D01*
X63910Y-50956D01*
X63969Y-50897D01*
X63995Y-50834D01*
X65314Y-52153D01*
X65075Y-52391D01*
X65043Y-52359D01*
X65043Y-52277D01*
X64997Y-52164D01*
X64911Y-52079D01*
X64799Y-52032D01*
X64678Y-52032D01*
X64566Y-52078D01*
X64480Y-52164D01*
X64433Y-52276D01*
X64433Y-52397D01*
X64479Y-52510D01*
X64565Y-52595D01*
X64677Y-52642D01*
X64760Y-52642D01*
X64793Y-52674D01*
X64117Y-53350D01*
X64074Y-53415D01*
X64059Y-53491D01*
X64059Y-56004D01*
X64000Y-56062D01*
X63954Y-56174D01*
X63954Y-56257D01*
X62229Y-57982D01*
X61031Y-57982D01*
X60973Y-57923D01*
X60861Y-57877D01*
X60740Y-57877D01*
X60627Y-57923D01*
X60542Y-58009D01*
X60495Y-58121D01*
X60495Y-58242D01*
X60541Y-58354D01*
X60627Y-58440D01*
X60739Y-58487D01*
X60860Y-58487D01*
X60972Y-58441D01*
X61031Y-58382D01*
X62312Y-58382D01*
X62388Y-58367D01*
X62453Y-58323D01*
X64236Y-56540D01*
X64319Y-56540D01*
X64431Y-56494D01*
X64517Y-56408D01*
X64564Y-56296D01*
X64564Y-56175D01*
X64517Y-56062D01*
X64459Y-56004D01*
X64459Y-53574D01*
X65217Y-52816D01*
X65217Y-52816D01*
X65217Y-52816D01*
X65738Y-52295D01*
X65738Y-52295D01*
X66131Y-51902D01*
X66131Y-58444D01*
X66131Y-58444D01*
G37*
G54D15*
X66131Y-58444D02*
X65719Y-58856D01*
X65696Y-58802D01*
X65610Y-58716D01*
X65498Y-58670D01*
X65377Y-58670D01*
X65265Y-58716D01*
X65179Y-58802D01*
X65132Y-58914D01*
X65132Y-58997D01*
X64954Y-59175D01*
X63421Y-59175D01*
X63362Y-59117D01*
X63250Y-59070D01*
X63129Y-59070D01*
X63017Y-59116D01*
X62931Y-59202D01*
X62884Y-59314D01*
X62884Y-59397D01*
X62307Y-59975D01*
X59680Y-59975D01*
X59680Y-59439D01*
X59633Y-59327D01*
X59547Y-59241D01*
X59435Y-59195D01*
X59314Y-59194D01*
X59202Y-59241D01*
X59116Y-59327D01*
X59070Y-59439D01*
X59069Y-59560D01*
X59116Y-59672D01*
X59202Y-59758D01*
X59314Y-59804D01*
X59435Y-59805D01*
X59547Y-59758D01*
X59633Y-59672D01*
X59679Y-59560D01*
X59680Y-59439D01*
X59680Y-59975D01*
X57498Y-59975D01*
X55579Y-58055D01*
X55579Y-55924D01*
X55637Y-55865D01*
X55684Y-55753D01*
X55684Y-55632D01*
X55662Y-55579D01*
X58125Y-55579D01*
X58125Y-56657D01*
X58066Y-56716D01*
X58020Y-56828D01*
X58019Y-56949D01*
X58066Y-57061D01*
X58152Y-57147D01*
X58264Y-57194D01*
X58385Y-57194D01*
X58497Y-57148D01*
X58583Y-57062D01*
X58629Y-56950D01*
X58630Y-56828D01*
X58583Y-56716D01*
X58525Y-56657D01*
X58525Y-55650D01*
X61203Y-55650D01*
X61869Y-56316D01*
X61869Y-57143D01*
X61810Y-57202D01*
X61764Y-57314D01*
X61764Y-57435D01*
X61810Y-57547D01*
X61896Y-57633D01*
X62008Y-57679D01*
X62129Y-57680D01*
X62241Y-57633D01*
X62327Y-57547D01*
X62374Y-57435D01*
X62374Y-57314D01*
X62328Y-57202D01*
X62269Y-57143D01*
X62269Y-56233D01*
X62254Y-56157D01*
X62254Y-56157D01*
X62239Y-56135D01*
X62210Y-56092D01*
X62210Y-56092D01*
X61569Y-55450D01*
X63852Y-53167D01*
X63852Y-53167D01*
X63881Y-53124D01*
X63895Y-53102D01*
X63895Y-53102D01*
X63910Y-53025D01*
X63910Y-53025D01*
X63910Y-50956D01*
X63969Y-50897D01*
X63995Y-50834D01*
X65314Y-52153D01*
X65075Y-52391D01*
X65043Y-52359D01*
X65043Y-52277D01*
X64997Y-52164D01*
X64911Y-52079D01*
X64799Y-52032D01*
X64678Y-52032D01*
X64566Y-52078D01*
X64480Y-52164D01*
X64433Y-52276D01*
X64433Y-52397D01*
X64479Y-52510D01*
X64565Y-52595D01*
X64677Y-52642D01*
X64760Y-52642D01*
X64793Y-52674D01*
X64117Y-53350D01*
X64074Y-53415D01*
X64059Y-53491D01*
X64059Y-56004D01*
X64000Y-56062D01*
X63954Y-56174D01*
X63954Y-56257D01*
X62229Y-57982D01*
X61031Y-57982D01*
X60973Y-57923D01*
X60861Y-57877D01*
X60740Y-57877D01*
X60627Y-57923D01*
X60542Y-58009D01*
X60495Y-58121D01*
X60495Y-58242D01*
X60541Y-58354D01*
X60627Y-58440D01*
X60739Y-58487D01*
X60860Y-58487D01*
X60972Y-58441D01*
X61031Y-58382D01*
X62312Y-58382D01*
X62388Y-58367D01*
X62453Y-58323D01*
X64236Y-56540D01*
X64319Y-56540D01*
X64431Y-56494D01*
X64517Y-56408D01*
X64564Y-56296D01*
X64564Y-56175D01*
X64517Y-56062D01*
X64459Y-56004D01*
X64459Y-53574D01*
X65217Y-52816D01*
X65217Y-52816D01*
X65217Y-52816D01*
X65738Y-52295D01*
X65738Y-52295D01*
X66131Y-51902D01*
X66131Y-58444D01*
G54D10*
G36*
X67171Y-33726D02*
X67127Y-33744D01*
X67041Y-33830D01*
X66995Y-33942D01*
X66995Y-34025D01*
X66245Y-34775D01*
X64430Y-34775D01*
X64430Y-33114D01*
X64383Y-33002D01*
X64297Y-32916D01*
X64185Y-32870D01*
X64064Y-32869D01*
X63952Y-32916D01*
X63866Y-33002D01*
X63820Y-33114D01*
X63819Y-33235D01*
X63866Y-33347D01*
X63952Y-33433D01*
X64064Y-33479D01*
X64185Y-33480D01*
X64297Y-33433D01*
X64383Y-33347D01*
X64429Y-33235D01*
X64430Y-33114D01*
X64430Y-34775D01*
X63958Y-34775D01*
X63899Y-34716D01*
X63787Y-34670D01*
X63704Y-34669D01*
X62093Y-33058D01*
X62028Y-33015D01*
X61951Y-33000D01*
X58614Y-33000D01*
X58556Y-32941D01*
X58444Y-32895D01*
X58322Y-32894D01*
X58219Y-32937D01*
X58219Y-32412D01*
X58529Y-32102D01*
X58611Y-32102D01*
X58723Y-32056D01*
X58809Y-31970D01*
X58856Y-31858D01*
X58856Y-31737D01*
X58809Y-31625D01*
X58724Y-31539D01*
X58612Y-31492D01*
X58490Y-31492D01*
X58378Y-31539D01*
X58292Y-31624D01*
X58246Y-31736D01*
X58246Y-31819D01*
X57980Y-32085D01*
X56117Y-32085D01*
X54542Y-30510D01*
X54542Y-30458D01*
X56798Y-28203D01*
X58272Y-28203D01*
X58331Y-28261D01*
X58443Y-28308D01*
X58564Y-28308D01*
X58676Y-28261D01*
X58762Y-28176D01*
X58784Y-28124D01*
X61575Y-30916D01*
X61575Y-30916D01*
X61619Y-30945D01*
X61640Y-30959D01*
X61640Y-30959D01*
X61717Y-30975D01*
X65731Y-30975D01*
X65762Y-31006D01*
X65762Y-32234D01*
X65777Y-32310D01*
X65821Y-32375D01*
X67171Y-33726D01*
X67171Y-33726D01*
G37*
G54D15*
X67171Y-33726D02*
X67127Y-33744D01*
X67041Y-33830D01*
X66995Y-33942D01*
X66995Y-34025D01*
X66245Y-34775D01*
X64430Y-34775D01*
X64430Y-33114D01*
X64383Y-33002D01*
X64297Y-32916D01*
X64185Y-32870D01*
X64064Y-32869D01*
X63952Y-32916D01*
X63866Y-33002D01*
X63820Y-33114D01*
X63819Y-33235D01*
X63866Y-33347D01*
X63952Y-33433D01*
X64064Y-33479D01*
X64185Y-33480D01*
X64297Y-33433D01*
X64383Y-33347D01*
X64429Y-33235D01*
X64430Y-33114D01*
X64430Y-34775D01*
X63958Y-34775D01*
X63899Y-34716D01*
X63787Y-34670D01*
X63704Y-34669D01*
X62093Y-33058D01*
X62028Y-33015D01*
X61951Y-33000D01*
X58614Y-33000D01*
X58556Y-32941D01*
X58444Y-32895D01*
X58322Y-32894D01*
X58219Y-32937D01*
X58219Y-32412D01*
X58529Y-32102D01*
X58611Y-32102D01*
X58723Y-32056D01*
X58809Y-31970D01*
X58856Y-31858D01*
X58856Y-31737D01*
X58809Y-31625D01*
X58724Y-31539D01*
X58612Y-31492D01*
X58490Y-31492D01*
X58378Y-31539D01*
X58292Y-31624D01*
X58246Y-31736D01*
X58246Y-31819D01*
X57980Y-32085D01*
X56117Y-32085D01*
X54542Y-30510D01*
X54542Y-30458D01*
X56798Y-28203D01*
X58272Y-28203D01*
X58331Y-28261D01*
X58443Y-28308D01*
X58564Y-28308D01*
X58676Y-28261D01*
X58762Y-28176D01*
X58784Y-28124D01*
X61575Y-30916D01*
X61575Y-30916D01*
X61619Y-30945D01*
X61640Y-30959D01*
X61640Y-30959D01*
X61717Y-30975D01*
X65731Y-30975D01*
X65762Y-31006D01*
X65762Y-32234D01*
X65777Y-32310D01*
X65821Y-32375D01*
X67171Y-33726D01*
G54D10*
G36*
X69977Y-47564D02*
X69952Y-47554D01*
X69830Y-47554D01*
X69718Y-47600D01*
X69632Y-47686D01*
X69586Y-47798D01*
X69586Y-47881D01*
X65880Y-51587D01*
X65880Y-49014D01*
X65833Y-48902D01*
X65747Y-48816D01*
X65635Y-48770D01*
X65514Y-48769D01*
X65402Y-48816D01*
X65316Y-48902D01*
X65270Y-49014D01*
X65269Y-49135D01*
X65316Y-49247D01*
X65402Y-49333D01*
X65514Y-49379D01*
X65635Y-49380D01*
X65747Y-49333D01*
X65833Y-49247D01*
X65879Y-49135D01*
X65880Y-49014D01*
X65880Y-51587D01*
X65596Y-51870D01*
X64004Y-50278D01*
X63939Y-50235D01*
X63863Y-50219D01*
X63050Y-50219D01*
X63050Y-48105D01*
X63108Y-48047D01*
X63155Y-47935D01*
X63155Y-47813D01*
X63108Y-47701D01*
X63023Y-47615D01*
X62911Y-47569D01*
X62789Y-47569D01*
X62677Y-47615D01*
X62591Y-47701D01*
X62545Y-47813D01*
X62545Y-47934D01*
X62591Y-48046D01*
X62650Y-48105D01*
X62650Y-50322D01*
X61852Y-51120D01*
X61770Y-51119D01*
X61658Y-51166D01*
X61572Y-51252D01*
X61525Y-51364D01*
X61525Y-51447D01*
X58050Y-54921D01*
X56578Y-54921D01*
X56686Y-54876D01*
X56772Y-54791D01*
X56818Y-54679D01*
X56819Y-54557D01*
X56772Y-54445D01*
X56687Y-54359D01*
X56574Y-54313D01*
X56453Y-54313D01*
X56341Y-54359D01*
X56255Y-54445D01*
X56209Y-54557D01*
X56209Y-54618D01*
X55669Y-54618D01*
X62777Y-47511D01*
X67714Y-47511D01*
X67791Y-47495D01*
X67855Y-47452D01*
X69974Y-45334D01*
X69974Y-47551D01*
X69977Y-47564D01*
X69977Y-47564D01*
G37*
G54D15*
X69977Y-47564D02*
X69952Y-47554D01*
X69830Y-47554D01*
X69718Y-47600D01*
X69632Y-47686D01*
X69586Y-47798D01*
X69586Y-47881D01*
X65880Y-51587D01*
X65880Y-49014D01*
X65833Y-48902D01*
X65747Y-48816D01*
X65635Y-48770D01*
X65514Y-48769D01*
X65402Y-48816D01*
X65316Y-48902D01*
X65270Y-49014D01*
X65269Y-49135D01*
X65316Y-49247D01*
X65402Y-49333D01*
X65514Y-49379D01*
X65635Y-49380D01*
X65747Y-49333D01*
X65833Y-49247D01*
X65879Y-49135D01*
X65880Y-49014D01*
X65880Y-51587D01*
X65596Y-51870D01*
X64004Y-50278D01*
X63939Y-50235D01*
X63863Y-50219D01*
X63050Y-50219D01*
X63050Y-48105D01*
X63108Y-48047D01*
X63155Y-47935D01*
X63155Y-47813D01*
X63108Y-47701D01*
X63023Y-47615D01*
X62911Y-47569D01*
X62789Y-47569D01*
X62677Y-47615D01*
X62591Y-47701D01*
X62545Y-47813D01*
X62545Y-47934D01*
X62591Y-48046D01*
X62650Y-48105D01*
X62650Y-50322D01*
X61852Y-51120D01*
X61770Y-51119D01*
X61658Y-51166D01*
X61572Y-51252D01*
X61525Y-51364D01*
X61525Y-51447D01*
X58050Y-54921D01*
X56578Y-54921D01*
X56686Y-54876D01*
X56772Y-54791D01*
X56818Y-54679D01*
X56819Y-54557D01*
X56772Y-54445D01*
X56687Y-54359D01*
X56574Y-54313D01*
X56453Y-54313D01*
X56341Y-54359D01*
X56255Y-54445D01*
X56209Y-54557D01*
X56209Y-54618D01*
X55669Y-54618D01*
X62777Y-47511D01*
X67714Y-47511D01*
X67791Y-47495D01*
X67855Y-47452D01*
X69974Y-45334D01*
X69974Y-47551D01*
X69977Y-47564D01*
G54D10*
G36*
X70602Y-24575D02*
X69896Y-24575D01*
X69838Y-24516D01*
X69726Y-24470D01*
X69605Y-24469D01*
X69493Y-24516D01*
X69407Y-24602D01*
X69360Y-24714D01*
X69360Y-24797D01*
X68829Y-25327D01*
X64181Y-25327D01*
X64250Y-25259D01*
X64299Y-25139D01*
X64300Y-25010D01*
X64250Y-24891D01*
X64159Y-24799D01*
X64039Y-24750D01*
X63910Y-24749D01*
X63791Y-24799D01*
X63699Y-24890D01*
X63650Y-25010D01*
X63649Y-25139D01*
X63699Y-25258D01*
X63768Y-25327D01*
X58932Y-25327D01*
X58950Y-25283D01*
X58950Y-25162D01*
X58904Y-25050D01*
X58845Y-24991D01*
X58845Y-23965D01*
X58948Y-23862D01*
X60626Y-23862D01*
X60685Y-23921D01*
X60797Y-23967D01*
X60918Y-23967D01*
X61030Y-23921D01*
X61116Y-23835D01*
X61141Y-23775D01*
X65977Y-23775D01*
X66035Y-23833D01*
X66148Y-23880D01*
X66269Y-23880D01*
X66381Y-23833D01*
X66440Y-23775D01*
X69802Y-23775D01*
X70602Y-24575D01*
X70602Y-24575D01*
G37*
G54D15*
X70602Y-24575D02*
X69896Y-24575D01*
X69838Y-24516D01*
X69726Y-24470D01*
X69605Y-24469D01*
X69493Y-24516D01*
X69407Y-24602D01*
X69360Y-24714D01*
X69360Y-24797D01*
X68829Y-25327D01*
X64181Y-25327D01*
X64250Y-25259D01*
X64299Y-25139D01*
X64300Y-25010D01*
X64250Y-24891D01*
X64159Y-24799D01*
X64039Y-24750D01*
X63910Y-24749D01*
X63791Y-24799D01*
X63699Y-24890D01*
X63650Y-25010D01*
X63649Y-25139D01*
X63699Y-25258D01*
X63768Y-25327D01*
X58932Y-25327D01*
X58950Y-25283D01*
X58950Y-25162D01*
X58904Y-25050D01*
X58845Y-24991D01*
X58845Y-23965D01*
X58948Y-23862D01*
X60626Y-23862D01*
X60685Y-23921D01*
X60797Y-23967D01*
X60918Y-23967D01*
X61030Y-23921D01*
X61116Y-23835D01*
X61141Y-23775D01*
X65977Y-23775D01*
X66035Y-23833D01*
X66148Y-23880D01*
X66269Y-23880D01*
X66381Y-23833D01*
X66440Y-23775D01*
X69802Y-23775D01*
X70602Y-24575D01*
G54D10*
G36*
X71686Y-42773D02*
X67548Y-46910D01*
X62811Y-46910D01*
X65379Y-44342D01*
X68615Y-44342D01*
X68673Y-44400D01*
X68785Y-44447D01*
X68906Y-44447D01*
X69018Y-44401D01*
X69104Y-44315D01*
X69151Y-44203D01*
X69151Y-44082D01*
X69105Y-43969D01*
X69019Y-43884D01*
X68907Y-43837D01*
X68786Y-43837D01*
X68673Y-43883D01*
X68615Y-43942D01*
X65496Y-43942D01*
X66666Y-42773D01*
X71686Y-42773D01*
X71686Y-42773D01*
G37*
G54D15*
X71686Y-42773D02*
X67548Y-46910D01*
X62811Y-46910D01*
X65379Y-44342D01*
X68615Y-44342D01*
X68673Y-44400D01*
X68785Y-44447D01*
X68906Y-44447D01*
X69018Y-44401D01*
X69104Y-44315D01*
X69151Y-44203D01*
X69151Y-44082D01*
X69105Y-43969D01*
X69019Y-43884D01*
X68907Y-43837D01*
X68786Y-43837D01*
X68673Y-43883D01*
X68615Y-43942D01*
X65496Y-43942D01*
X66666Y-42773D01*
X71686Y-42773D01*
G54D10*
G36*
X72674Y-40646D02*
X72649Y-40672D01*
X72602Y-40784D01*
X72602Y-40867D01*
X71604Y-41865D01*
X68899Y-41865D01*
X68840Y-41807D01*
X68728Y-41761D01*
X68607Y-41760D01*
X68495Y-41807D01*
X68409Y-41892D01*
X68362Y-42005D01*
X68362Y-42126D01*
X68409Y-42238D01*
X68494Y-42324D01*
X68606Y-42370D01*
X68728Y-42371D01*
X68840Y-42324D01*
X68899Y-42265D01*
X71687Y-42265D01*
X71736Y-42256D01*
X71619Y-42373D01*
X66783Y-42373D01*
X68509Y-40646D01*
X72674Y-40646D01*
X72674Y-40646D01*
G37*
G54D15*
X72674Y-40646D02*
X72649Y-40672D01*
X72602Y-40784D01*
X72602Y-40867D01*
X71604Y-41865D01*
X68899Y-41865D01*
X68840Y-41807D01*
X68728Y-41761D01*
X68607Y-41760D01*
X68495Y-41807D01*
X68409Y-41892D01*
X68362Y-42005D01*
X68362Y-42126D01*
X68409Y-42238D01*
X68494Y-42324D01*
X68606Y-42370D01*
X68728Y-42371D01*
X68840Y-42324D01*
X68899Y-42265D01*
X71687Y-42265D01*
X71736Y-42256D01*
X71619Y-42373D01*
X66783Y-42373D01*
X68509Y-40646D01*
X72674Y-40646D01*
G54D10*
G36*
X73395Y-27811D02*
X73395Y-27856D01*
X69483Y-31767D01*
X69440Y-31832D01*
X69425Y-31909D01*
X69425Y-32143D01*
X69366Y-32201D01*
X69320Y-32313D01*
X69319Y-32434D01*
X69339Y-32483D01*
X68002Y-32483D01*
X67944Y-32424D01*
X67832Y-32378D01*
X67710Y-32378D01*
X67650Y-32402D01*
X67650Y-31691D01*
X68428Y-30914D01*
X68428Y-30914D01*
X68457Y-30871D01*
X68471Y-30849D01*
X68471Y-30849D01*
X68486Y-30773D01*
X68486Y-30773D01*
X68486Y-29110D01*
X68545Y-29052D01*
X68591Y-28939D01*
X68591Y-28818D01*
X68545Y-28706D01*
X68459Y-28620D01*
X68347Y-28574D01*
X68264Y-28573D01*
X67044Y-27353D01*
X66979Y-27310D01*
X66902Y-27295D01*
X60014Y-27295D01*
X60039Y-27270D01*
X60085Y-27158D01*
X60085Y-27036D01*
X60039Y-26924D01*
X59953Y-26838D01*
X59841Y-26792D01*
X59720Y-26792D01*
X59608Y-26838D01*
X59549Y-26897D01*
X53887Y-26897D01*
X54001Y-26783D01*
X56012Y-26783D01*
X56089Y-26768D01*
X56153Y-26724D01*
X56512Y-26365D01*
X56512Y-26365D01*
X56541Y-26322D01*
X56556Y-26300D01*
X56556Y-26300D01*
X56571Y-26224D01*
X56571Y-26224D01*
X56571Y-25727D01*
X68912Y-25727D01*
X68989Y-25712D01*
X69054Y-25669D01*
X69643Y-25079D01*
X69726Y-25080D01*
X69838Y-25033D01*
X69897Y-24975D01*
X70558Y-24975D01*
X73395Y-27811D01*
X73395Y-27811D01*
G37*
G54D15*
X73395Y-27811D02*
X73395Y-27856D01*
X69483Y-31767D01*
X69440Y-31832D01*
X69425Y-31909D01*
X69425Y-32143D01*
X69366Y-32201D01*
X69320Y-32313D01*
X69319Y-32434D01*
X69339Y-32483D01*
X68002Y-32483D01*
X67944Y-32424D01*
X67832Y-32378D01*
X67710Y-32378D01*
X67650Y-32402D01*
X67650Y-31691D01*
X68428Y-30914D01*
X68428Y-30914D01*
X68457Y-30871D01*
X68471Y-30849D01*
X68471Y-30849D01*
X68486Y-30773D01*
X68486Y-30773D01*
X68486Y-29110D01*
X68545Y-29052D01*
X68591Y-28939D01*
X68591Y-28818D01*
X68545Y-28706D01*
X68459Y-28620D01*
X68347Y-28574D01*
X68264Y-28573D01*
X67044Y-27353D01*
X66979Y-27310D01*
X66902Y-27295D01*
X60014Y-27295D01*
X60039Y-27270D01*
X60085Y-27158D01*
X60085Y-27036D01*
X60039Y-26924D01*
X59953Y-26838D01*
X59841Y-26792D01*
X59720Y-26792D01*
X59608Y-26838D01*
X59549Y-26897D01*
X53887Y-26897D01*
X54001Y-26783D01*
X56012Y-26783D01*
X56089Y-26768D01*
X56153Y-26724D01*
X56512Y-26365D01*
X56512Y-26365D01*
X56541Y-26322D01*
X56556Y-26300D01*
X56556Y-26300D01*
X56571Y-26224D01*
X56571Y-26224D01*
X56571Y-25727D01*
X68912Y-25727D01*
X68989Y-25712D01*
X69054Y-25669D01*
X69643Y-25079D01*
X69726Y-25080D01*
X69838Y-25033D01*
X69897Y-24975D01*
X70558Y-24975D01*
X73395Y-27811D01*
G54D10*
G36*
X73417Y-32483D02*
X72132Y-32483D01*
X72154Y-32428D01*
X72155Y-32306D01*
X72108Y-32194D01*
X72050Y-32135D01*
X72050Y-31992D01*
X73417Y-30624D01*
X73417Y-32483D01*
X73417Y-32483D01*
G37*
G54D15*
X73417Y-32483D02*
X72132Y-32483D01*
X72154Y-32428D01*
X72155Y-32306D01*
X72108Y-32194D01*
X72050Y-32135D01*
X72050Y-31992D01*
X73417Y-30624D01*
X73417Y-32483D01*
G54D10*
G36*
X73770Y-33173D02*
X68084Y-33173D01*
X67879Y-32968D01*
X67943Y-32941D01*
X68002Y-32883D01*
X73600Y-32883D01*
X73744Y-33027D01*
X73744Y-33110D01*
X73770Y-33173D01*
X73770Y-33173D01*
G37*
G54D15*
X73770Y-33173D02*
X68084Y-33173D01*
X67879Y-32968D01*
X67943Y-32941D01*
X68002Y-32883D01*
X73600Y-32883D01*
X73744Y-33027D01*
X73744Y-33110D01*
X73770Y-33173D01*
G54D10*
G36*
X74556Y-28772D02*
X74497Y-28830D01*
X74451Y-28942D01*
X74451Y-29025D01*
X71708Y-31768D01*
X71665Y-31833D01*
X71650Y-31909D01*
X71650Y-32135D01*
X71591Y-32194D01*
X71545Y-32306D01*
X71544Y-32427D01*
X71567Y-32483D01*
X69910Y-32483D01*
X69929Y-32435D01*
X69930Y-32313D01*
X69883Y-32201D01*
X69825Y-32143D01*
X69825Y-31992D01*
X73677Y-28139D01*
X73760Y-28139D01*
X73872Y-28092D01*
X73958Y-28007D01*
X73980Y-27953D01*
X74556Y-28528D01*
X74556Y-28772D01*
X74556Y-28772D01*
G37*
G54D15*
X74556Y-28772D02*
X74497Y-28830D01*
X74451Y-28942D01*
X74451Y-29025D01*
X71708Y-31768D01*
X71665Y-31833D01*
X71650Y-31909D01*
X71650Y-32135D01*
X71591Y-32194D01*
X71545Y-32306D01*
X71544Y-32427D01*
X71567Y-32483D01*
X69910Y-32483D01*
X69929Y-32435D01*
X69930Y-32313D01*
X69883Y-32201D01*
X69825Y-32143D01*
X69825Y-31992D01*
X73677Y-28139D01*
X73760Y-28139D01*
X73872Y-28092D01*
X73958Y-28007D01*
X73980Y-27953D01*
X74556Y-28528D01*
X74556Y-28772D01*
G54D10*
G36*
X76478Y-36666D02*
X76430Y-36685D01*
X76344Y-36771D01*
X76298Y-36883D01*
X76298Y-36966D01*
X74055Y-39209D01*
X74055Y-37089D01*
X74008Y-36977D01*
X73922Y-36891D01*
X73810Y-36845D01*
X73689Y-36844D01*
X73577Y-36891D01*
X73491Y-36977D01*
X73445Y-37089D01*
X73444Y-37210D01*
X73491Y-37322D01*
X73577Y-37408D01*
X73689Y-37454D01*
X73810Y-37455D01*
X73922Y-37408D01*
X74008Y-37322D01*
X74054Y-37210D01*
X74055Y-37089D01*
X74055Y-39209D01*
X73218Y-40046D01*
X68343Y-40046D01*
X68279Y-40059D01*
X68267Y-40061D01*
X68202Y-40105D01*
X67430Y-40877D01*
X67430Y-35314D01*
X67383Y-35202D01*
X67297Y-35116D01*
X67185Y-35070D01*
X67064Y-35069D01*
X66952Y-35116D01*
X66866Y-35202D01*
X66820Y-35314D01*
X66819Y-35435D01*
X66866Y-35547D01*
X66952Y-35633D01*
X67064Y-35679D01*
X67185Y-35680D01*
X67297Y-35633D01*
X67383Y-35547D01*
X67429Y-35435D01*
X67430Y-35314D01*
X67430Y-40877D01*
X64098Y-44209D01*
X64098Y-42702D01*
X64098Y-42702D01*
X64083Y-42625D01*
X64083Y-42625D01*
X64068Y-42604D01*
X64039Y-42561D01*
X64039Y-42561D01*
X63870Y-42391D01*
X63805Y-42348D01*
X63729Y-42333D01*
X63459Y-42333D01*
X63383Y-42348D01*
X63361Y-42362D01*
X63318Y-42391D01*
X62984Y-42725D01*
X62941Y-42790D01*
X62926Y-42866D01*
X62926Y-42941D01*
X62780Y-43086D01*
X59098Y-43086D01*
X57182Y-41171D01*
X57117Y-41127D01*
X57041Y-41112D01*
X52847Y-41112D01*
X52788Y-41054D01*
X52676Y-41007D01*
X52555Y-41007D01*
X52443Y-41053D01*
X52414Y-41082D01*
X52414Y-40723D01*
X54856Y-38281D01*
X55165Y-38281D01*
X55145Y-38330D01*
X55144Y-38452D01*
X55191Y-38564D01*
X55277Y-38650D01*
X55389Y-38696D01*
X55472Y-38696D01*
X56927Y-40152D01*
X56900Y-40217D01*
X56900Y-40338D01*
X56946Y-40450D01*
X57032Y-40536D01*
X57144Y-40582D01*
X57266Y-40583D01*
X57378Y-40536D01*
X57464Y-40450D01*
X57510Y-40338D01*
X57510Y-40217D01*
X57464Y-40105D01*
X57378Y-40019D01*
X57347Y-40006D01*
X57347Y-40006D01*
X57347Y-40006D01*
X55754Y-38413D01*
X55755Y-38331D01*
X55734Y-38281D01*
X56373Y-38281D01*
X56373Y-38316D01*
X56420Y-38428D01*
X56505Y-38514D01*
X56618Y-38561D01*
X56739Y-38561D01*
X56851Y-38515D01*
X56937Y-38429D01*
X56983Y-38317D01*
X56983Y-38281D01*
X57854Y-38281D01*
X57931Y-38266D01*
X57996Y-38222D01*
X58160Y-38058D01*
X58204Y-37993D01*
X58204Y-37993D01*
X58219Y-37916D01*
X58219Y-36966D01*
X59414Y-36966D01*
X59473Y-37024D01*
X59585Y-37071D01*
X59706Y-37071D01*
X59818Y-37024D01*
X59904Y-36939D01*
X59951Y-36827D01*
X59951Y-36705D01*
X59904Y-36593D01*
X59819Y-36507D01*
X59706Y-36461D01*
X59585Y-36461D01*
X59473Y-36507D01*
X59414Y-36566D01*
X58219Y-36566D01*
X58219Y-33462D01*
X58322Y-33504D01*
X58443Y-33505D01*
X58555Y-33458D01*
X58614Y-33400D01*
X61868Y-33400D01*
X63243Y-34775D01*
X60185Y-34775D01*
X60108Y-34790D01*
X60087Y-34804D01*
X60043Y-34833D01*
X59088Y-35788D01*
X59006Y-35788D01*
X58893Y-35834D01*
X58808Y-35920D01*
X58761Y-36032D01*
X58761Y-36154D01*
X58807Y-36266D01*
X58893Y-36352D01*
X59005Y-36398D01*
X59126Y-36398D01*
X59238Y-36352D01*
X59324Y-36266D01*
X59371Y-36154D01*
X59371Y-36071D01*
X60267Y-35175D01*
X63495Y-35175D01*
X63553Y-35233D01*
X63665Y-35279D01*
X63787Y-35280D01*
X63899Y-35233D01*
X63958Y-35175D01*
X66328Y-35175D01*
X66404Y-35159D01*
X66469Y-35116D01*
X67277Y-34308D01*
X67360Y-34308D01*
X67472Y-34261D01*
X67558Y-34176D01*
X67576Y-34131D01*
X72477Y-39032D01*
X72458Y-39052D01*
X72411Y-39164D01*
X72411Y-39285D01*
X72457Y-39397D01*
X72543Y-39483D01*
X72655Y-39529D01*
X72776Y-39530D01*
X72889Y-39483D01*
X72974Y-39397D01*
X73021Y-39285D01*
X73021Y-39164D01*
X72975Y-39052D01*
X72916Y-38993D01*
X72916Y-38988D01*
X72901Y-38911D01*
X72901Y-38911D01*
X72857Y-38846D01*
X66162Y-32151D01*
X66162Y-31006D01*
X66221Y-30947D01*
X66267Y-30835D01*
X66267Y-30714D01*
X66221Y-30602D01*
X66135Y-30516D01*
X66023Y-30470D01*
X65902Y-30469D01*
X65790Y-30516D01*
X65731Y-30575D01*
X62955Y-30575D01*
X62955Y-27989D01*
X62908Y-27877D01*
X62822Y-27791D01*
X62710Y-27745D01*
X62589Y-27744D01*
X62477Y-27791D01*
X62391Y-27877D01*
X62345Y-27989D01*
X62344Y-28110D01*
X62391Y-28222D01*
X62477Y-28308D01*
X62589Y-28354D01*
X62710Y-28355D01*
X62822Y-28308D01*
X62908Y-28222D01*
X62954Y-28110D01*
X62955Y-27989D01*
X62955Y-30575D01*
X61799Y-30575D01*
X58920Y-27695D01*
X66820Y-27695D01*
X67981Y-28856D01*
X67981Y-28939D01*
X68028Y-29051D01*
X68086Y-29110D01*
X68086Y-30690D01*
X67309Y-31467D01*
X67266Y-31532D01*
X67250Y-31609D01*
X67250Y-32623D01*
X67181Y-32554D01*
X67181Y-30506D01*
X67239Y-30447D01*
X67286Y-30335D01*
X67286Y-30214D01*
X67240Y-30102D01*
X67154Y-30016D01*
X67042Y-29970D01*
X66921Y-29969D01*
X66808Y-30016D01*
X66723Y-30102D01*
X66676Y-30214D01*
X66676Y-30335D01*
X66722Y-30447D01*
X66781Y-30506D01*
X66781Y-32637D01*
X66796Y-32713D01*
X66839Y-32778D01*
X69771Y-35709D01*
X69835Y-35753D01*
X69835Y-35753D01*
X69912Y-35768D01*
X75580Y-35768D01*
X76478Y-36666D01*
X76478Y-36666D01*
G37*
G54D15*
X76478Y-36666D02*
X76430Y-36685D01*
X76344Y-36771D01*
X76298Y-36883D01*
X76298Y-36966D01*
X74055Y-39209D01*
X74055Y-37089D01*
X74008Y-36977D01*
X73922Y-36891D01*
X73810Y-36845D01*
X73689Y-36844D01*
X73577Y-36891D01*
X73491Y-36977D01*
X73445Y-37089D01*
X73444Y-37210D01*
X73491Y-37322D01*
X73577Y-37408D01*
X73689Y-37454D01*
X73810Y-37455D01*
X73922Y-37408D01*
X74008Y-37322D01*
X74054Y-37210D01*
X74055Y-37089D01*
X74055Y-39209D01*
X73218Y-40046D01*
X68343Y-40046D01*
X68279Y-40059D01*
X68267Y-40061D01*
X68202Y-40105D01*
X67430Y-40877D01*
X67430Y-35314D01*
X67383Y-35202D01*
X67297Y-35116D01*
X67185Y-35070D01*
X67064Y-35069D01*
X66952Y-35116D01*
X66866Y-35202D01*
X66820Y-35314D01*
X66819Y-35435D01*
X66866Y-35547D01*
X66952Y-35633D01*
X67064Y-35679D01*
X67185Y-35680D01*
X67297Y-35633D01*
X67383Y-35547D01*
X67429Y-35435D01*
X67430Y-35314D01*
X67430Y-40877D01*
X64098Y-44209D01*
X64098Y-42702D01*
X64098Y-42702D01*
X64083Y-42625D01*
X64083Y-42625D01*
X64068Y-42604D01*
X64039Y-42561D01*
X64039Y-42561D01*
X63870Y-42391D01*
X63805Y-42348D01*
X63729Y-42333D01*
X63459Y-42333D01*
X63383Y-42348D01*
X63361Y-42362D01*
X63318Y-42391D01*
X62984Y-42725D01*
X62941Y-42790D01*
X62926Y-42866D01*
X62926Y-42941D01*
X62780Y-43086D01*
X59098Y-43086D01*
X57182Y-41171D01*
X57117Y-41127D01*
X57041Y-41112D01*
X52847Y-41112D01*
X52788Y-41054D01*
X52676Y-41007D01*
X52555Y-41007D01*
X52443Y-41053D01*
X52414Y-41082D01*
X52414Y-40723D01*
X54856Y-38281D01*
X55165Y-38281D01*
X55145Y-38330D01*
X55144Y-38452D01*
X55191Y-38564D01*
X55277Y-38650D01*
X55389Y-38696D01*
X55472Y-38696D01*
X56927Y-40152D01*
X56900Y-40217D01*
X56900Y-40338D01*
X56946Y-40450D01*
X57032Y-40536D01*
X57144Y-40582D01*
X57266Y-40583D01*
X57378Y-40536D01*
X57464Y-40450D01*
X57510Y-40338D01*
X57510Y-40217D01*
X57464Y-40105D01*
X57378Y-40019D01*
X57347Y-40006D01*
X57347Y-40006D01*
X57347Y-40006D01*
X55754Y-38413D01*
X55755Y-38331D01*
X55734Y-38281D01*
X56373Y-38281D01*
X56373Y-38316D01*
X56420Y-38428D01*
X56505Y-38514D01*
X56618Y-38561D01*
X56739Y-38561D01*
X56851Y-38515D01*
X56937Y-38429D01*
X56983Y-38317D01*
X56983Y-38281D01*
X57854Y-38281D01*
X57931Y-38266D01*
X57996Y-38222D01*
X58160Y-38058D01*
X58204Y-37993D01*
X58204Y-37993D01*
X58219Y-37916D01*
X58219Y-36966D01*
X59414Y-36966D01*
X59473Y-37024D01*
X59585Y-37071D01*
X59706Y-37071D01*
X59818Y-37024D01*
X59904Y-36939D01*
X59951Y-36827D01*
X59951Y-36705D01*
X59904Y-36593D01*
X59819Y-36507D01*
X59706Y-36461D01*
X59585Y-36461D01*
X59473Y-36507D01*
X59414Y-36566D01*
X58219Y-36566D01*
X58219Y-33462D01*
X58322Y-33504D01*
X58443Y-33505D01*
X58555Y-33458D01*
X58614Y-33400D01*
X61868Y-33400D01*
X63243Y-34775D01*
X60185Y-34775D01*
X60108Y-34790D01*
X60087Y-34804D01*
X60043Y-34833D01*
X59088Y-35788D01*
X59006Y-35788D01*
X58893Y-35834D01*
X58808Y-35920D01*
X58761Y-36032D01*
X58761Y-36154D01*
X58807Y-36266D01*
X58893Y-36352D01*
X59005Y-36398D01*
X59126Y-36398D01*
X59238Y-36352D01*
X59324Y-36266D01*
X59371Y-36154D01*
X59371Y-36071D01*
X60267Y-35175D01*
X63495Y-35175D01*
X63553Y-35233D01*
X63665Y-35279D01*
X63787Y-35280D01*
X63899Y-35233D01*
X63958Y-35175D01*
X66328Y-35175D01*
X66404Y-35159D01*
X66469Y-35116D01*
X67277Y-34308D01*
X67360Y-34308D01*
X67472Y-34261D01*
X67558Y-34176D01*
X67576Y-34131D01*
X72477Y-39032D01*
X72458Y-39052D01*
X72411Y-39164D01*
X72411Y-39285D01*
X72457Y-39397D01*
X72543Y-39483D01*
X72655Y-39529D01*
X72776Y-39530D01*
X72889Y-39483D01*
X72974Y-39397D01*
X73021Y-39285D01*
X73021Y-39164D01*
X72975Y-39052D01*
X72916Y-38993D01*
X72916Y-38988D01*
X72901Y-38911D01*
X72901Y-38911D01*
X72857Y-38846D01*
X66162Y-32151D01*
X66162Y-31006D01*
X66221Y-30947D01*
X66267Y-30835D01*
X66267Y-30714D01*
X66221Y-30602D01*
X66135Y-30516D01*
X66023Y-30470D01*
X65902Y-30469D01*
X65790Y-30516D01*
X65731Y-30575D01*
X62955Y-30575D01*
X62955Y-27989D01*
X62908Y-27877D01*
X62822Y-27791D01*
X62710Y-27745D01*
X62589Y-27744D01*
X62477Y-27791D01*
X62391Y-27877D01*
X62345Y-27989D01*
X62344Y-28110D01*
X62391Y-28222D01*
X62477Y-28308D01*
X62589Y-28354D01*
X62710Y-28355D01*
X62822Y-28308D01*
X62908Y-28222D01*
X62954Y-28110D01*
X62955Y-27989D01*
X62955Y-30575D01*
X61799Y-30575D01*
X58920Y-27695D01*
X66820Y-27695D01*
X67981Y-28856D01*
X67981Y-28939D01*
X68028Y-29051D01*
X68086Y-29110D01*
X68086Y-30690D01*
X67309Y-31467D01*
X67266Y-31532D01*
X67250Y-31609D01*
X67250Y-32623D01*
X67181Y-32554D01*
X67181Y-30506D01*
X67239Y-30447D01*
X67286Y-30335D01*
X67286Y-30214D01*
X67240Y-30102D01*
X67154Y-30016D01*
X67042Y-29970D01*
X66921Y-29969D01*
X66808Y-30016D01*
X66723Y-30102D01*
X66676Y-30214D01*
X66676Y-30335D01*
X66722Y-30447D01*
X66781Y-30506D01*
X66781Y-32637D01*
X66796Y-32713D01*
X66839Y-32778D01*
X69771Y-35709D01*
X69835Y-35753D01*
X69835Y-35753D01*
X69912Y-35768D01*
X75580Y-35768D01*
X76478Y-36666D01*
G54D10*
G36*
X76980Y-32256D02*
X76932Y-32276D01*
X76846Y-32362D01*
X76800Y-32474D01*
X76800Y-32557D01*
X76184Y-33173D01*
X74328Y-33173D01*
X74354Y-33110D01*
X74354Y-32989D01*
X74308Y-32877D01*
X74222Y-32791D01*
X74110Y-32744D01*
X74027Y-32744D01*
X73824Y-32541D01*
X73817Y-32537D01*
X73817Y-31756D01*
X73864Y-31776D01*
X73985Y-31776D01*
X74097Y-31729D01*
X74156Y-31671D01*
X76394Y-31671D01*
X76980Y-32256D01*
X76980Y-32256D01*
G37*
G54D15*
X76980Y-32256D02*
X76932Y-32276D01*
X76846Y-32362D01*
X76800Y-32474D01*
X76800Y-32557D01*
X76184Y-33173D01*
X74328Y-33173D01*
X74354Y-33110D01*
X74354Y-32989D01*
X74308Y-32877D01*
X74222Y-32791D01*
X74110Y-32744D01*
X74027Y-32744D01*
X73824Y-32541D01*
X73817Y-32537D01*
X73817Y-31756D01*
X73864Y-31776D01*
X73985Y-31776D01*
X74097Y-31729D01*
X74156Y-31671D01*
X76394Y-31671D01*
X76980Y-32256D01*
G54D10*
G36*
X77124Y-34962D02*
X77044Y-34882D01*
X77044Y-34800D01*
X76998Y-34688D01*
X76912Y-34602D01*
X76800Y-34555D01*
X76679Y-34555D01*
X76567Y-34602D01*
X76481Y-34687D01*
X76434Y-34799D01*
X76434Y-34921D01*
X76480Y-35033D01*
X76566Y-35119D01*
X76678Y-35165D01*
X76761Y-35165D01*
X76924Y-35328D01*
X76924Y-36546D01*
X75804Y-35426D01*
X75739Y-35383D01*
X75663Y-35368D01*
X69995Y-35368D01*
X68200Y-33573D01*
X76266Y-33573D01*
X76343Y-33558D01*
X76408Y-33514D01*
X77082Y-32840D01*
X77124Y-32840D01*
X77124Y-34962D01*
X77124Y-34962D01*
G37*
G54D15*
X77124Y-34962D02*
X77044Y-34882D01*
X77044Y-34800D01*
X76998Y-34688D01*
X76912Y-34602D01*
X76800Y-34555D01*
X76679Y-34555D01*
X76567Y-34602D01*
X76481Y-34687D01*
X76434Y-34799D01*
X76434Y-34921D01*
X76480Y-35033D01*
X76566Y-35119D01*
X76678Y-35165D01*
X76761Y-35165D01*
X76924Y-35328D01*
X76924Y-36546D01*
X75804Y-35426D01*
X75739Y-35383D01*
X75663Y-35368D01*
X69995Y-35368D01*
X68200Y-33573D01*
X76266Y-33573D01*
X76343Y-33558D01*
X76408Y-33514D01*
X77082Y-32840D01*
X77124Y-32840D01*
X77124Y-34962D01*
G54D10*
G36*
X77525Y-62675D02*
X76153Y-62675D01*
X76153Y-50288D01*
X76153Y-43808D01*
X76138Y-43732D01*
X76138Y-43732D01*
X76095Y-43667D01*
X74925Y-42497D01*
X74925Y-42414D01*
X74878Y-42302D01*
X74793Y-42216D01*
X74681Y-42170D01*
X74559Y-42169D01*
X74447Y-42216D01*
X74361Y-42302D01*
X74315Y-42414D01*
X74315Y-42535D01*
X74361Y-42647D01*
X74447Y-42733D01*
X74559Y-42779D01*
X74642Y-42780D01*
X75753Y-43891D01*
X75753Y-44487D01*
X75716Y-44401D01*
X75447Y-44298D01*
X75160Y-44306D01*
X74933Y-44401D01*
X74885Y-44514D01*
X75325Y-44954D01*
X75330Y-44948D01*
X75401Y-45019D01*
X75395Y-45025D01*
X75401Y-45030D01*
X75330Y-45101D01*
X75325Y-45095D01*
X75254Y-45166D01*
X75254Y-45025D01*
X74814Y-44585D01*
X74701Y-44633D01*
X74598Y-44902D01*
X74606Y-45189D01*
X74701Y-45416D01*
X74814Y-45464D01*
X75254Y-45025D01*
X75254Y-45166D01*
X74885Y-45535D01*
X74933Y-45648D01*
X75202Y-45751D01*
X75489Y-45743D01*
X75716Y-45648D01*
X75753Y-45562D01*
X75753Y-46487D01*
X75716Y-46401D01*
X75447Y-46298D01*
X75160Y-46306D01*
X74947Y-46395D01*
X74947Y-45901D01*
X74852Y-45672D01*
X74678Y-45497D01*
X74449Y-45402D01*
X74201Y-45402D01*
X74051Y-45464D01*
X74051Y-45147D01*
X74043Y-44860D01*
X73948Y-44633D01*
X73835Y-44585D01*
X73764Y-44655D01*
X73764Y-44514D01*
X73716Y-44401D01*
X73447Y-44298D01*
X73160Y-44306D01*
X72933Y-44401D01*
X72885Y-44514D01*
X73325Y-44954D01*
X73764Y-44514D01*
X73764Y-44655D01*
X73395Y-45025D01*
X73835Y-45464D01*
X73948Y-45416D01*
X74051Y-45147D01*
X74051Y-45464D01*
X73972Y-45497D01*
X73797Y-45671D01*
X73764Y-45750D01*
X73764Y-45535D01*
X73325Y-45095D01*
X73254Y-45166D01*
X73254Y-45025D01*
X72814Y-44585D01*
X72701Y-44633D01*
X72598Y-44902D01*
X72606Y-45189D01*
X72701Y-45416D01*
X72814Y-45464D01*
X73254Y-45025D01*
X73254Y-45166D01*
X72885Y-45535D01*
X72933Y-45648D01*
X73202Y-45751D01*
X73489Y-45743D01*
X73716Y-45648D01*
X73764Y-45535D01*
X73764Y-45750D01*
X73702Y-45900D01*
X73702Y-46148D01*
X73797Y-46377D01*
X73971Y-46552D01*
X74200Y-46647D01*
X74448Y-46647D01*
X74677Y-46552D01*
X74852Y-46378D01*
X74947Y-46149D01*
X74947Y-45901D01*
X74947Y-46395D01*
X74933Y-46401D01*
X74885Y-46514D01*
X75325Y-46954D01*
X75330Y-46948D01*
X75401Y-47019D01*
X75395Y-47025D01*
X75401Y-47030D01*
X75330Y-47101D01*
X75325Y-47095D01*
X75254Y-47166D01*
X75254Y-47025D01*
X74814Y-46585D01*
X74701Y-46633D01*
X74598Y-46902D01*
X74606Y-47189D01*
X74701Y-47416D01*
X74814Y-47464D01*
X75254Y-47025D01*
X75254Y-47166D01*
X74885Y-47535D01*
X74933Y-47648D01*
X75202Y-47751D01*
X75489Y-47743D01*
X75716Y-47648D01*
X75753Y-47562D01*
X75753Y-50205D01*
X74051Y-51907D01*
X74051Y-47147D01*
X74043Y-46860D01*
X73948Y-46633D01*
X73835Y-46585D01*
X73764Y-46655D01*
X73764Y-46514D01*
X73716Y-46401D01*
X73447Y-46298D01*
X73160Y-46306D01*
X72933Y-46401D01*
X72885Y-46514D01*
X73325Y-46954D01*
X73764Y-46514D01*
X73764Y-46655D01*
X73395Y-47025D01*
X73835Y-47464D01*
X73948Y-47416D01*
X74051Y-47147D01*
X74051Y-51907D01*
X73764Y-52193D01*
X73764Y-47535D01*
X73325Y-47095D01*
X73254Y-47166D01*
X73254Y-47025D01*
X72814Y-46585D01*
X72701Y-46633D01*
X72598Y-46902D01*
X72606Y-47189D01*
X72701Y-47416D01*
X72814Y-47464D01*
X73254Y-47025D01*
X73254Y-47166D01*
X72885Y-47535D01*
X72933Y-47648D01*
X73202Y-47751D01*
X73489Y-47743D01*
X73716Y-47648D01*
X73764Y-47535D01*
X73764Y-52193D01*
X68097Y-57861D01*
X68014Y-57861D01*
X67902Y-57908D01*
X67816Y-57993D01*
X67770Y-58105D01*
X67769Y-58227D01*
X67816Y-58339D01*
X67902Y-58425D01*
X68014Y-58471D01*
X68135Y-58471D01*
X68247Y-58425D01*
X68333Y-58339D01*
X68379Y-58227D01*
X68380Y-58144D01*
X76095Y-50429D01*
X76095Y-50429D01*
X76124Y-50386D01*
X76138Y-50364D01*
X76138Y-50364D01*
X76153Y-50288D01*
X76153Y-50288D01*
X76153Y-62675D01*
X35225Y-62675D01*
X35225Y-50615D01*
X35240Y-50630D01*
X35285Y-50585D01*
X35333Y-50698D01*
X35602Y-50801D01*
X35889Y-50793D01*
X36116Y-50698D01*
X36164Y-50585D01*
X35725Y-50145D01*
X35719Y-50151D01*
X35648Y-50080D01*
X35654Y-50075D01*
X35648Y-50069D01*
X35719Y-49998D01*
X35725Y-50004D01*
X36164Y-49564D01*
X36116Y-49451D01*
X35847Y-49348D01*
X35560Y-49356D01*
X35333Y-49451D01*
X35285Y-49564D01*
X35240Y-49519D01*
X35225Y-49534D01*
X35225Y-48615D01*
X35240Y-48630D01*
X35285Y-48585D01*
X35333Y-48698D01*
X35602Y-48801D01*
X35889Y-48793D01*
X36116Y-48698D01*
X36164Y-48585D01*
X35725Y-48145D01*
X35719Y-48151D01*
X35648Y-48080D01*
X35654Y-48075D01*
X35648Y-48069D01*
X35719Y-47998D01*
X35725Y-48004D01*
X36164Y-47564D01*
X36116Y-47451D01*
X35847Y-47348D01*
X35560Y-47356D01*
X35333Y-47451D01*
X35285Y-47564D01*
X35240Y-47519D01*
X35225Y-47534D01*
X35225Y-45415D01*
X35240Y-45430D01*
X35285Y-45385D01*
X35333Y-45498D01*
X35602Y-45601D01*
X35889Y-45593D01*
X36116Y-45498D01*
X36164Y-45385D01*
X35725Y-44945D01*
X35719Y-44951D01*
X35648Y-44880D01*
X35654Y-44875D01*
X35648Y-44869D01*
X35719Y-44798D01*
X35725Y-44804D01*
X36164Y-44364D01*
X36116Y-44251D01*
X35847Y-44148D01*
X35560Y-44156D01*
X35333Y-44251D01*
X35285Y-44364D01*
X35240Y-44319D01*
X35225Y-44334D01*
X35225Y-43415D01*
X35240Y-43430D01*
X35285Y-43385D01*
X35333Y-43498D01*
X35602Y-43601D01*
X35889Y-43593D01*
X36116Y-43498D01*
X36164Y-43385D01*
X35725Y-42945D01*
X35719Y-42951D01*
X35648Y-42880D01*
X35654Y-42875D01*
X35648Y-42869D01*
X35719Y-42798D01*
X35725Y-42804D01*
X36164Y-42364D01*
X36116Y-42251D01*
X35847Y-42148D01*
X35560Y-42156D01*
X35333Y-42251D01*
X35285Y-42364D01*
X35240Y-42319D01*
X35225Y-42334D01*
X35225Y-39515D01*
X35240Y-39530D01*
X35285Y-39485D01*
X35333Y-39598D01*
X35602Y-39701D01*
X35889Y-39693D01*
X36116Y-39598D01*
X36164Y-39485D01*
X35725Y-39045D01*
X35719Y-39051D01*
X35648Y-38980D01*
X35654Y-38975D01*
X35648Y-38969D01*
X35719Y-38898D01*
X35725Y-38904D01*
X36164Y-38464D01*
X36116Y-38351D01*
X35847Y-38248D01*
X35560Y-38256D01*
X35333Y-38351D01*
X35285Y-38464D01*
X35240Y-38419D01*
X35225Y-38434D01*
X35225Y-37515D01*
X35240Y-37530D01*
X35285Y-37485D01*
X35333Y-37598D01*
X35602Y-37701D01*
X35889Y-37693D01*
X36116Y-37598D01*
X36164Y-37485D01*
X35725Y-37045D01*
X35719Y-37051D01*
X35648Y-36980D01*
X35654Y-36975D01*
X35648Y-36969D01*
X35719Y-36898D01*
X35725Y-36904D01*
X36164Y-36464D01*
X36116Y-36351D01*
X35847Y-36248D01*
X35560Y-36256D01*
X35333Y-36351D01*
X35285Y-36464D01*
X35240Y-36419D01*
X35225Y-36434D01*
X35225Y-20775D01*
X77525Y-20775D01*
X77525Y-32235D01*
X76619Y-31329D01*
X76554Y-31286D01*
X76477Y-31271D01*
X74407Y-31271D01*
X75403Y-30275D01*
X75403Y-30275D01*
X75432Y-30232D01*
X75446Y-30210D01*
X75446Y-30210D01*
X75462Y-30134D01*
X75462Y-30134D01*
X75462Y-24399D01*
X75446Y-24322D01*
X75446Y-24322D01*
X75432Y-24300D01*
X75403Y-24257D01*
X75403Y-24257D01*
X75321Y-24175D01*
X75321Y-24092D01*
X75275Y-23980D01*
X75189Y-23894D01*
X75077Y-23848D01*
X74956Y-23848D01*
X74843Y-23894D01*
X74768Y-23970D01*
X74768Y-23399D01*
X74826Y-23341D01*
X74873Y-23229D01*
X74873Y-23107D01*
X74826Y-22995D01*
X74741Y-22909D01*
X74629Y-22863D01*
X74507Y-22863D01*
X74395Y-22909D01*
X74309Y-22995D01*
X74263Y-23107D01*
X74263Y-23228D01*
X74309Y-23340D01*
X74368Y-23399D01*
X74368Y-26057D01*
X74383Y-26134D01*
X74426Y-26199D01*
X74861Y-26633D01*
X74861Y-28268D01*
X73955Y-27362D01*
X73955Y-24789D01*
X73908Y-24677D01*
X73822Y-24591D01*
X73710Y-24545D01*
X73589Y-24544D01*
X73477Y-24591D01*
X73391Y-24677D01*
X73345Y-24789D01*
X73344Y-24910D01*
X73391Y-25022D01*
X73477Y-25108D01*
X73589Y-25154D01*
X73710Y-25155D01*
X73822Y-25108D01*
X73908Y-25022D01*
X73954Y-24910D01*
X73955Y-24789D01*
X73955Y-27362D01*
X70026Y-23433D01*
X69961Y-23390D01*
X69885Y-23375D01*
X66440Y-23375D01*
X66381Y-23316D01*
X66269Y-23270D01*
X66148Y-23270D01*
X66036Y-23316D01*
X65977Y-23375D01*
X60960Y-23375D01*
X60919Y-23357D01*
X60797Y-23357D01*
X60685Y-23404D01*
X60626Y-23462D01*
X58865Y-23462D01*
X58789Y-23477D01*
X58724Y-23521D01*
X58563Y-23682D01*
X45634Y-23682D01*
X45576Y-23624D01*
X45464Y-23577D01*
X45342Y-23577D01*
X45230Y-23623D01*
X45186Y-23668D01*
X38657Y-23668D01*
X38583Y-23594D01*
X38471Y-23547D01*
X38350Y-23547D01*
X38238Y-23593D01*
X38152Y-23679D01*
X38105Y-23791D01*
X38105Y-23912D01*
X38151Y-24024D01*
X38237Y-24110D01*
X38349Y-24157D01*
X38470Y-24157D01*
X38583Y-24111D01*
X38626Y-24068D01*
X44934Y-24068D01*
X41505Y-27497D01*
X41505Y-25039D01*
X41458Y-24927D01*
X41372Y-24841D01*
X41260Y-24794D01*
X41139Y-24794D01*
X41027Y-24841D01*
X40941Y-24926D01*
X40895Y-25038D01*
X40894Y-25160D01*
X40941Y-25272D01*
X41027Y-25358D01*
X41139Y-25404D01*
X41260Y-25404D01*
X41372Y-25358D01*
X41458Y-25272D01*
X41504Y-25160D01*
X41505Y-25039D01*
X41505Y-27497D01*
X40827Y-28175D01*
X40591Y-28175D01*
X40532Y-28116D01*
X40420Y-28070D01*
X40299Y-28070D01*
X40187Y-28116D01*
X40101Y-28202D01*
X40055Y-28314D01*
X40054Y-28435D01*
X40101Y-28547D01*
X40187Y-28633D01*
X40299Y-28680D01*
X40420Y-28680D01*
X40532Y-28633D01*
X40591Y-28575D01*
X40710Y-28575D01*
X40710Y-29049D01*
X40710Y-32230D01*
X40358Y-32230D01*
X40281Y-32245D01*
X40260Y-32260D01*
X40216Y-32289D01*
X39272Y-33233D01*
X39190Y-33233D01*
X39139Y-33254D01*
X39139Y-26063D01*
X39151Y-26063D01*
X39263Y-26017D01*
X39349Y-25931D01*
X39396Y-25819D01*
X39396Y-25698D01*
X39349Y-25586D01*
X39264Y-25500D01*
X39152Y-25453D01*
X39030Y-25453D01*
X38918Y-25500D01*
X38832Y-25585D01*
X38786Y-25697D01*
X38786Y-25786D01*
X38754Y-25834D01*
X38739Y-25910D01*
X38739Y-33920D01*
X38719Y-33969D01*
X38719Y-34090D01*
X38765Y-34203D01*
X38824Y-34261D01*
X38824Y-39016D01*
X38839Y-39092D01*
X38882Y-39157D01*
X42078Y-42352D01*
X42077Y-42435D01*
X42124Y-42547D01*
X42210Y-42633D01*
X42322Y-42679D01*
X42443Y-42680D01*
X42555Y-42633D01*
X42633Y-42555D01*
X42633Y-44766D01*
X38582Y-40715D01*
X38582Y-40633D01*
X38536Y-40521D01*
X38451Y-40435D01*
X38451Y-39097D01*
X38451Y-37097D01*
X38443Y-36810D01*
X38348Y-36583D01*
X38235Y-36535D01*
X38164Y-36605D01*
X38164Y-36464D01*
X38116Y-36351D01*
X37847Y-36248D01*
X37560Y-36256D01*
X37333Y-36351D01*
X37285Y-36464D01*
X37725Y-36904D01*
X38164Y-36464D01*
X38164Y-36605D01*
X37795Y-36975D01*
X38235Y-37414D01*
X38348Y-37366D01*
X38451Y-37097D01*
X38451Y-39097D01*
X38443Y-38810D01*
X38348Y-38583D01*
X38235Y-38535D01*
X38164Y-38605D01*
X38164Y-38464D01*
X38164Y-37485D01*
X37725Y-37045D01*
X37654Y-37116D01*
X37654Y-36975D01*
X37214Y-36535D01*
X37101Y-36583D01*
X36998Y-36852D01*
X37006Y-37139D01*
X37101Y-37366D01*
X37214Y-37414D01*
X37654Y-36975D01*
X37654Y-37116D01*
X37285Y-37485D01*
X37333Y-37598D01*
X37602Y-37701D01*
X37889Y-37693D01*
X38116Y-37598D01*
X38164Y-37485D01*
X38164Y-38464D01*
X38116Y-38351D01*
X37847Y-38248D01*
X37560Y-38256D01*
X37347Y-38345D01*
X37347Y-37851D01*
X37252Y-37622D01*
X37078Y-37447D01*
X36849Y-37352D01*
X36601Y-37352D01*
X36451Y-37414D01*
X36451Y-37097D01*
X36443Y-36810D01*
X36348Y-36583D01*
X36235Y-36535D01*
X36164Y-36605D01*
X35795Y-36975D01*
X36235Y-37414D01*
X36348Y-37366D01*
X36451Y-37097D01*
X36451Y-37414D01*
X36372Y-37447D01*
X36197Y-37621D01*
X36164Y-37700D01*
X36102Y-37850D01*
X36102Y-38098D01*
X36197Y-38327D01*
X36371Y-38502D01*
X36600Y-38597D01*
X36848Y-38597D01*
X37077Y-38502D01*
X37252Y-38328D01*
X37347Y-38099D01*
X37347Y-37851D01*
X37347Y-38345D01*
X37333Y-38351D01*
X37285Y-38464D01*
X37725Y-38904D01*
X38164Y-38464D01*
X38164Y-38605D01*
X37795Y-38975D01*
X38235Y-39414D01*
X38348Y-39366D01*
X38451Y-39097D01*
X38451Y-40435D01*
X38450Y-40435D01*
X38338Y-40388D01*
X38217Y-40388D01*
X38164Y-40410D01*
X38164Y-39485D01*
X37725Y-39045D01*
X37654Y-39116D01*
X37654Y-38975D01*
X37214Y-38535D01*
X37101Y-38583D01*
X36998Y-38852D01*
X37006Y-39139D01*
X37101Y-39366D01*
X37214Y-39414D01*
X37654Y-38975D01*
X37654Y-39116D01*
X37285Y-39485D01*
X37333Y-39598D01*
X37602Y-39701D01*
X37889Y-39693D01*
X38116Y-39598D01*
X38164Y-39485D01*
X38164Y-40410D01*
X38105Y-40435D01*
X38019Y-40520D01*
X37972Y-40632D01*
X37972Y-40754D01*
X38019Y-40866D01*
X38104Y-40952D01*
X38216Y-40998D01*
X38300Y-40998D01*
X42345Y-45043D01*
X42345Y-46328D01*
X42273Y-46298D01*
X42152Y-46298D01*
X42039Y-46344D01*
X41981Y-46403D01*
X38572Y-46403D01*
X38572Y-42487D01*
X38559Y-42423D01*
X38556Y-42410D01*
X38556Y-42410D01*
X38513Y-42345D01*
X37614Y-41447D01*
X37615Y-41364D01*
X37568Y-41252D01*
X37482Y-41166D01*
X37370Y-41120D01*
X37249Y-41119D01*
X37137Y-41166D01*
X37051Y-41252D01*
X37005Y-41364D01*
X37004Y-41485D01*
X37051Y-41597D01*
X37137Y-41683D01*
X37249Y-41729D01*
X37332Y-41730D01*
X37753Y-42151D01*
X37560Y-42156D01*
X37333Y-42251D01*
X37285Y-42364D01*
X37725Y-42804D01*
X37730Y-42798D01*
X37801Y-42869D01*
X37795Y-42875D01*
X37801Y-42880D01*
X37730Y-42951D01*
X37725Y-42945D01*
X37654Y-43016D01*
X37654Y-42875D01*
X37214Y-42435D01*
X37101Y-42483D01*
X36998Y-42752D01*
X37006Y-43039D01*
X37101Y-43266D01*
X37214Y-43314D01*
X37654Y-42875D01*
X37654Y-43016D01*
X37285Y-43385D01*
X37333Y-43498D01*
X37602Y-43601D01*
X37889Y-43593D01*
X38116Y-43498D01*
X38164Y-43385D01*
X38164Y-43385D01*
X38172Y-43392D01*
X38172Y-44357D01*
X38164Y-44364D01*
X38164Y-44364D01*
X38116Y-44251D01*
X37847Y-44148D01*
X37560Y-44156D01*
X37347Y-44245D01*
X37347Y-43751D01*
X37252Y-43522D01*
X37078Y-43347D01*
X36849Y-43252D01*
X36601Y-43252D01*
X36451Y-43314D01*
X36451Y-42997D01*
X36451Y-39097D01*
X36443Y-38810D01*
X36348Y-38583D01*
X36235Y-38535D01*
X36164Y-38605D01*
X35795Y-38975D01*
X36235Y-39414D01*
X36348Y-39366D01*
X36451Y-39097D01*
X36451Y-42997D01*
X36443Y-42710D01*
X36348Y-42483D01*
X36235Y-42435D01*
X36164Y-42505D01*
X35795Y-42875D01*
X36235Y-43314D01*
X36348Y-43266D01*
X36451Y-42997D01*
X36451Y-43314D01*
X36372Y-43347D01*
X36197Y-43521D01*
X36164Y-43600D01*
X36102Y-43750D01*
X36102Y-43998D01*
X36197Y-44227D01*
X36371Y-44402D01*
X36600Y-44497D01*
X36848Y-44497D01*
X37077Y-44402D01*
X37252Y-44228D01*
X37347Y-43999D01*
X37347Y-43751D01*
X37347Y-44245D01*
X37333Y-44251D01*
X37285Y-44364D01*
X37725Y-44804D01*
X37730Y-44798D01*
X37801Y-44869D01*
X37795Y-44875D01*
X37801Y-44880D01*
X37730Y-44951D01*
X37725Y-44945D01*
X37654Y-45016D01*
X37654Y-44875D01*
X37214Y-44435D01*
X37101Y-44483D01*
X36998Y-44752D01*
X37006Y-45039D01*
X37101Y-45266D01*
X37214Y-45314D01*
X37654Y-44875D01*
X37654Y-45016D01*
X37285Y-45385D01*
X37333Y-45498D01*
X37602Y-45601D01*
X37889Y-45593D01*
X38116Y-45498D01*
X38164Y-45385D01*
X38164Y-45385D01*
X38172Y-45392D01*
X38172Y-46603D01*
X38172Y-47557D01*
X38164Y-47564D01*
X38164Y-47564D01*
X38116Y-47451D01*
X37847Y-47348D01*
X37560Y-47356D01*
X37333Y-47451D01*
X37285Y-47564D01*
X37725Y-48004D01*
X37730Y-47998D01*
X37801Y-48069D01*
X37795Y-48075D01*
X37801Y-48080D01*
X37730Y-48151D01*
X37725Y-48145D01*
X37654Y-48216D01*
X37654Y-48075D01*
X37214Y-47635D01*
X37101Y-47683D01*
X36998Y-47952D01*
X37006Y-48239D01*
X37101Y-48466D01*
X37214Y-48514D01*
X37654Y-48075D01*
X37654Y-48216D01*
X37285Y-48585D01*
X37333Y-48698D01*
X37602Y-48801D01*
X37889Y-48793D01*
X38116Y-48698D01*
X38164Y-48585D01*
X38164Y-48585D01*
X38172Y-48592D01*
X38172Y-49557D01*
X38164Y-49564D01*
X38164Y-49564D01*
X38116Y-49451D01*
X37847Y-49348D01*
X37560Y-49356D01*
X37347Y-49445D01*
X37347Y-48951D01*
X37252Y-48722D01*
X37078Y-48547D01*
X36849Y-48452D01*
X36601Y-48452D01*
X36451Y-48514D01*
X36451Y-48197D01*
X36451Y-44997D01*
X36443Y-44710D01*
X36348Y-44483D01*
X36235Y-44435D01*
X36164Y-44505D01*
X35795Y-44875D01*
X36235Y-45314D01*
X36348Y-45266D01*
X36451Y-44997D01*
X36451Y-48197D01*
X36443Y-47910D01*
X36348Y-47683D01*
X36235Y-47635D01*
X36164Y-47705D01*
X35795Y-48075D01*
X36235Y-48514D01*
X36348Y-48466D01*
X36451Y-48197D01*
X36451Y-48514D01*
X36372Y-48547D01*
X36197Y-48721D01*
X36164Y-48800D01*
X36102Y-48950D01*
X36102Y-49198D01*
X36197Y-49427D01*
X36371Y-49602D01*
X36600Y-49697D01*
X36848Y-49697D01*
X37077Y-49602D01*
X37252Y-49428D01*
X37347Y-49199D01*
X37347Y-48951D01*
X37347Y-49445D01*
X37333Y-49451D01*
X37285Y-49564D01*
X37725Y-50004D01*
X37730Y-49998D01*
X37801Y-50069D01*
X37795Y-50075D01*
X37801Y-50080D01*
X37730Y-50151D01*
X37725Y-50145D01*
X37654Y-50216D01*
X37654Y-50075D01*
X37214Y-49635D01*
X37101Y-49683D01*
X36998Y-49952D01*
X37006Y-50239D01*
X37101Y-50466D01*
X37214Y-50514D01*
X37654Y-50075D01*
X37654Y-50216D01*
X37285Y-50585D01*
X37333Y-50698D01*
X37602Y-50801D01*
X37889Y-50793D01*
X38116Y-50698D01*
X38164Y-50585D01*
X38164Y-50585D01*
X38172Y-50592D01*
X38172Y-58170D01*
X38164Y-58177D01*
X37680Y-58662D01*
X37599Y-58628D01*
X37401Y-58628D01*
X37219Y-58703D01*
X37175Y-58747D01*
X36451Y-58747D01*
X36451Y-50197D01*
X36443Y-49910D01*
X36348Y-49683D01*
X36235Y-49635D01*
X36164Y-49705D01*
X35795Y-50075D01*
X36235Y-50514D01*
X36348Y-50466D01*
X36451Y-50197D01*
X36451Y-58747D01*
X36164Y-58747D01*
X36047Y-58747D01*
X35971Y-58762D01*
X35949Y-58777D01*
X35906Y-58805D01*
X35751Y-58960D01*
X35708Y-59025D01*
X35692Y-59102D01*
X35692Y-59394D01*
X35708Y-59471D01*
X35751Y-59535D01*
X38092Y-61876D01*
X38092Y-61876D01*
X38135Y-61905D01*
X38157Y-61920D01*
X38157Y-61920D01*
X38233Y-61935D01*
X38233Y-61935D01*
X48808Y-61935D01*
X48786Y-61989D01*
X48785Y-62110D01*
X48832Y-62222D01*
X48917Y-62308D01*
X49030Y-62354D01*
X49113Y-62355D01*
X49184Y-62426D01*
X49184Y-62426D01*
X49227Y-62455D01*
X49249Y-62469D01*
X49249Y-62469D01*
X49326Y-62485D01*
X49326Y-62485D01*
X63024Y-62485D01*
X63100Y-62469D01*
X63165Y-62426D01*
X66889Y-58703D01*
X66889Y-58703D01*
X66918Y-58659D01*
X66932Y-58638D01*
X66932Y-58638D01*
X66947Y-58561D01*
X66947Y-58561D01*
X66947Y-58293D01*
X67006Y-58234D01*
X67052Y-58122D01*
X67052Y-58001D01*
X67006Y-57889D01*
X66920Y-57803D01*
X66808Y-57757D01*
X66687Y-57756D01*
X66575Y-57803D01*
X66531Y-57847D01*
X66531Y-51937D01*
X70353Y-48114D01*
X70353Y-48114D01*
X70382Y-48071D01*
X70397Y-48049D01*
X70397Y-48049D01*
X70412Y-47973D01*
X70412Y-47973D01*
X70412Y-47633D01*
X70775Y-47270D01*
X70819Y-47205D01*
X70819Y-47205D01*
X70834Y-47128D01*
X70834Y-46306D01*
X70892Y-46247D01*
X70939Y-46135D01*
X70939Y-46014D01*
X70893Y-45902D01*
X70807Y-45816D01*
X70695Y-45770D01*
X70574Y-45769D01*
X70462Y-45816D01*
X70376Y-45902D01*
X70374Y-45906D01*
X70374Y-45344D01*
X73043Y-42675D01*
X73618Y-42675D01*
X73677Y-42733D01*
X73789Y-42779D01*
X73910Y-42780D01*
X74022Y-42733D01*
X74108Y-42647D01*
X74154Y-42535D01*
X74155Y-42452D01*
X74605Y-42002D01*
X75859Y-42002D01*
X75936Y-41987D01*
X76001Y-41943D01*
X76107Y-41837D01*
X76189Y-41837D01*
X76301Y-41791D01*
X76387Y-41705D01*
X76434Y-41593D01*
X76434Y-41472D01*
X76388Y-41360D01*
X76302Y-41274D01*
X76257Y-41255D01*
X77525Y-39988D01*
X77525Y-62675D01*
X77525Y-62675D01*
G37*
G54D15*
X77525Y-62675D02*
X76153Y-62675D01*
X76153Y-50288D01*
X76153Y-43808D01*
X76138Y-43732D01*
X76138Y-43732D01*
X76095Y-43667D01*
X74925Y-42497D01*
X74925Y-42414D01*
X74878Y-42302D01*
X74793Y-42216D01*
X74681Y-42170D01*
X74559Y-42169D01*
X74447Y-42216D01*
X74361Y-42302D01*
X74315Y-42414D01*
X74315Y-42535D01*
X74361Y-42647D01*
X74447Y-42733D01*
X74559Y-42779D01*
X74642Y-42780D01*
X75753Y-43891D01*
X75753Y-44487D01*
X75716Y-44401D01*
X75447Y-44298D01*
X75160Y-44306D01*
X74933Y-44401D01*
X74885Y-44514D01*
X75325Y-44954D01*
X75330Y-44948D01*
X75401Y-45019D01*
X75395Y-45025D01*
X75401Y-45030D01*
X75330Y-45101D01*
X75325Y-45095D01*
X75254Y-45166D01*
X75254Y-45025D01*
X74814Y-44585D01*
X74701Y-44633D01*
X74598Y-44902D01*
X74606Y-45189D01*
X74701Y-45416D01*
X74814Y-45464D01*
X75254Y-45025D01*
X75254Y-45166D01*
X74885Y-45535D01*
X74933Y-45648D01*
X75202Y-45751D01*
X75489Y-45743D01*
X75716Y-45648D01*
X75753Y-45562D01*
X75753Y-46487D01*
X75716Y-46401D01*
X75447Y-46298D01*
X75160Y-46306D01*
X74947Y-46395D01*
X74947Y-45901D01*
X74852Y-45672D01*
X74678Y-45497D01*
X74449Y-45402D01*
X74201Y-45402D01*
X74051Y-45464D01*
X74051Y-45147D01*
X74043Y-44860D01*
X73948Y-44633D01*
X73835Y-44585D01*
X73764Y-44655D01*
X73764Y-44514D01*
X73716Y-44401D01*
X73447Y-44298D01*
X73160Y-44306D01*
X72933Y-44401D01*
X72885Y-44514D01*
X73325Y-44954D01*
X73764Y-44514D01*
X73764Y-44655D01*
X73395Y-45025D01*
X73835Y-45464D01*
X73948Y-45416D01*
X74051Y-45147D01*
X74051Y-45464D01*
X73972Y-45497D01*
X73797Y-45671D01*
X73764Y-45750D01*
X73764Y-45535D01*
X73325Y-45095D01*
X73254Y-45166D01*
X73254Y-45025D01*
X72814Y-44585D01*
X72701Y-44633D01*
X72598Y-44902D01*
X72606Y-45189D01*
X72701Y-45416D01*
X72814Y-45464D01*
X73254Y-45025D01*
X73254Y-45166D01*
X72885Y-45535D01*
X72933Y-45648D01*
X73202Y-45751D01*
X73489Y-45743D01*
X73716Y-45648D01*
X73764Y-45535D01*
X73764Y-45750D01*
X73702Y-45900D01*
X73702Y-46148D01*
X73797Y-46377D01*
X73971Y-46552D01*
X74200Y-46647D01*
X74448Y-46647D01*
X74677Y-46552D01*
X74852Y-46378D01*
X74947Y-46149D01*
X74947Y-45901D01*
X74947Y-46395D01*
X74933Y-46401D01*
X74885Y-46514D01*
X75325Y-46954D01*
X75330Y-46948D01*
X75401Y-47019D01*
X75395Y-47025D01*
X75401Y-47030D01*
X75330Y-47101D01*
X75325Y-47095D01*
X75254Y-47166D01*
X75254Y-47025D01*
X74814Y-46585D01*
X74701Y-46633D01*
X74598Y-46902D01*
X74606Y-47189D01*
X74701Y-47416D01*
X74814Y-47464D01*
X75254Y-47025D01*
X75254Y-47166D01*
X74885Y-47535D01*
X74933Y-47648D01*
X75202Y-47751D01*
X75489Y-47743D01*
X75716Y-47648D01*
X75753Y-47562D01*
X75753Y-50205D01*
X74051Y-51907D01*
X74051Y-47147D01*
X74043Y-46860D01*
X73948Y-46633D01*
X73835Y-46585D01*
X73764Y-46655D01*
X73764Y-46514D01*
X73716Y-46401D01*
X73447Y-46298D01*
X73160Y-46306D01*
X72933Y-46401D01*
X72885Y-46514D01*
X73325Y-46954D01*
X73764Y-46514D01*
X73764Y-46655D01*
X73395Y-47025D01*
X73835Y-47464D01*
X73948Y-47416D01*
X74051Y-47147D01*
X74051Y-51907D01*
X73764Y-52193D01*
X73764Y-47535D01*
X73325Y-47095D01*
X73254Y-47166D01*
X73254Y-47025D01*
X72814Y-46585D01*
X72701Y-46633D01*
X72598Y-46902D01*
X72606Y-47189D01*
X72701Y-47416D01*
X72814Y-47464D01*
X73254Y-47025D01*
X73254Y-47166D01*
X72885Y-47535D01*
X72933Y-47648D01*
X73202Y-47751D01*
X73489Y-47743D01*
X73716Y-47648D01*
X73764Y-47535D01*
X73764Y-52193D01*
X68097Y-57861D01*
X68014Y-57861D01*
X67902Y-57908D01*
X67816Y-57993D01*
X67770Y-58105D01*
X67769Y-58227D01*
X67816Y-58339D01*
X67902Y-58425D01*
X68014Y-58471D01*
X68135Y-58471D01*
X68247Y-58425D01*
X68333Y-58339D01*
X68379Y-58227D01*
X68380Y-58144D01*
X76095Y-50429D01*
X76095Y-50429D01*
X76124Y-50386D01*
X76138Y-50364D01*
X76138Y-50364D01*
X76153Y-50288D01*
X76153Y-50288D01*
X76153Y-62675D01*
X35225Y-62675D01*
X35225Y-50615D01*
X35240Y-50630D01*
X35285Y-50585D01*
X35333Y-50698D01*
X35602Y-50801D01*
X35889Y-50793D01*
X36116Y-50698D01*
X36164Y-50585D01*
X35725Y-50145D01*
X35719Y-50151D01*
X35648Y-50080D01*
X35654Y-50075D01*
X35648Y-50069D01*
X35719Y-49998D01*
X35725Y-50004D01*
X36164Y-49564D01*
X36116Y-49451D01*
X35847Y-49348D01*
X35560Y-49356D01*
X35333Y-49451D01*
X35285Y-49564D01*
X35240Y-49519D01*
X35225Y-49534D01*
X35225Y-48615D01*
X35240Y-48630D01*
X35285Y-48585D01*
X35333Y-48698D01*
X35602Y-48801D01*
X35889Y-48793D01*
X36116Y-48698D01*
X36164Y-48585D01*
X35725Y-48145D01*
X35719Y-48151D01*
X35648Y-48080D01*
X35654Y-48075D01*
X35648Y-48069D01*
X35719Y-47998D01*
X35725Y-48004D01*
X36164Y-47564D01*
X36116Y-47451D01*
X35847Y-47348D01*
X35560Y-47356D01*
X35333Y-47451D01*
X35285Y-47564D01*
X35240Y-47519D01*
X35225Y-47534D01*
X35225Y-45415D01*
X35240Y-45430D01*
X35285Y-45385D01*
X35333Y-45498D01*
X35602Y-45601D01*
X35889Y-45593D01*
X36116Y-45498D01*
X36164Y-45385D01*
X35725Y-44945D01*
X35719Y-44951D01*
X35648Y-44880D01*
X35654Y-44875D01*
X35648Y-44869D01*
X35719Y-44798D01*
X35725Y-44804D01*
X36164Y-44364D01*
X36116Y-44251D01*
X35847Y-44148D01*
X35560Y-44156D01*
X35333Y-44251D01*
X35285Y-44364D01*
X35240Y-44319D01*
X35225Y-44334D01*
X35225Y-43415D01*
X35240Y-43430D01*
X35285Y-43385D01*
X35333Y-43498D01*
X35602Y-43601D01*
X35889Y-43593D01*
X36116Y-43498D01*
X36164Y-43385D01*
X35725Y-42945D01*
X35719Y-42951D01*
X35648Y-42880D01*
X35654Y-42875D01*
X35648Y-42869D01*
X35719Y-42798D01*
X35725Y-42804D01*
X36164Y-42364D01*
X36116Y-42251D01*
X35847Y-42148D01*
X35560Y-42156D01*
X35333Y-42251D01*
X35285Y-42364D01*
X35240Y-42319D01*
X35225Y-42334D01*
X35225Y-39515D01*
X35240Y-39530D01*
X35285Y-39485D01*
X35333Y-39598D01*
X35602Y-39701D01*
X35889Y-39693D01*
X36116Y-39598D01*
X36164Y-39485D01*
X35725Y-39045D01*
X35719Y-39051D01*
X35648Y-38980D01*
X35654Y-38975D01*
X35648Y-38969D01*
X35719Y-38898D01*
X35725Y-38904D01*
X36164Y-38464D01*
X36116Y-38351D01*
X35847Y-38248D01*
X35560Y-38256D01*
X35333Y-38351D01*
X35285Y-38464D01*
X35240Y-38419D01*
X35225Y-38434D01*
X35225Y-37515D01*
X35240Y-37530D01*
X35285Y-37485D01*
X35333Y-37598D01*
X35602Y-37701D01*
X35889Y-37693D01*
X36116Y-37598D01*
X36164Y-37485D01*
X35725Y-37045D01*
X35719Y-37051D01*
X35648Y-36980D01*
X35654Y-36975D01*
X35648Y-36969D01*
X35719Y-36898D01*
X35725Y-36904D01*
X36164Y-36464D01*
X36116Y-36351D01*
X35847Y-36248D01*
X35560Y-36256D01*
X35333Y-36351D01*
X35285Y-36464D01*
X35240Y-36419D01*
X35225Y-36434D01*
X35225Y-20775D01*
X77525Y-20775D01*
X77525Y-32235D01*
X76619Y-31329D01*
X76554Y-31286D01*
X76477Y-31271D01*
X74407Y-31271D01*
X75403Y-30275D01*
X75403Y-30275D01*
X75432Y-30232D01*
X75446Y-30210D01*
X75446Y-30210D01*
X75462Y-30134D01*
X75462Y-30134D01*
X75462Y-24399D01*
X75446Y-24322D01*
X75446Y-24322D01*
X75432Y-24300D01*
X75403Y-24257D01*
X75403Y-24257D01*
X75321Y-24175D01*
X75321Y-24092D01*
X75275Y-23980D01*
X75189Y-23894D01*
X75077Y-23848D01*
X74956Y-23848D01*
X74843Y-23894D01*
X74768Y-23970D01*
X74768Y-23399D01*
X74826Y-23341D01*
X74873Y-23229D01*
X74873Y-23107D01*
X74826Y-22995D01*
X74741Y-22909D01*
X74629Y-22863D01*
X74507Y-22863D01*
X74395Y-22909D01*
X74309Y-22995D01*
X74263Y-23107D01*
X74263Y-23228D01*
X74309Y-23340D01*
X74368Y-23399D01*
X74368Y-26057D01*
X74383Y-26134D01*
X74426Y-26199D01*
X74861Y-26633D01*
X74861Y-28268D01*
X73955Y-27362D01*
X73955Y-24789D01*
X73908Y-24677D01*
X73822Y-24591D01*
X73710Y-24545D01*
X73589Y-24544D01*
X73477Y-24591D01*
X73391Y-24677D01*
X73345Y-24789D01*
X73344Y-24910D01*
X73391Y-25022D01*
X73477Y-25108D01*
X73589Y-25154D01*
X73710Y-25155D01*
X73822Y-25108D01*
X73908Y-25022D01*
X73954Y-24910D01*
X73955Y-24789D01*
X73955Y-27362D01*
X70026Y-23433D01*
X69961Y-23390D01*
X69885Y-23375D01*
X66440Y-23375D01*
X66381Y-23316D01*
X66269Y-23270D01*
X66148Y-23270D01*
X66036Y-23316D01*
X65977Y-23375D01*
X60960Y-23375D01*
X60919Y-23357D01*
X60797Y-23357D01*
X60685Y-23404D01*
X60626Y-23462D01*
X58865Y-23462D01*
X58789Y-23477D01*
X58724Y-23521D01*
X58563Y-23682D01*
X45634Y-23682D01*
X45576Y-23624D01*
X45464Y-23577D01*
X45342Y-23577D01*
X45230Y-23623D01*
X45186Y-23668D01*
X38657Y-23668D01*
X38583Y-23594D01*
X38471Y-23547D01*
X38350Y-23547D01*
X38238Y-23593D01*
X38152Y-23679D01*
X38105Y-23791D01*
X38105Y-23912D01*
X38151Y-24024D01*
X38237Y-24110D01*
X38349Y-24157D01*
X38470Y-24157D01*
X38583Y-24111D01*
X38626Y-24068D01*
X44934Y-24068D01*
X41505Y-27497D01*
X41505Y-25039D01*
X41458Y-24927D01*
X41372Y-24841D01*
X41260Y-24794D01*
X41139Y-24794D01*
X41027Y-24841D01*
X40941Y-24926D01*
X40895Y-25038D01*
X40894Y-25160D01*
X40941Y-25272D01*
X41027Y-25358D01*
X41139Y-25404D01*
X41260Y-25404D01*
X41372Y-25358D01*
X41458Y-25272D01*
X41504Y-25160D01*
X41505Y-25039D01*
X41505Y-27497D01*
X40827Y-28175D01*
X40591Y-28175D01*
X40532Y-28116D01*
X40420Y-28070D01*
X40299Y-28070D01*
X40187Y-28116D01*
X40101Y-28202D01*
X40055Y-28314D01*
X40054Y-28435D01*
X40101Y-28547D01*
X40187Y-28633D01*
X40299Y-28680D01*
X40420Y-28680D01*
X40532Y-28633D01*
X40591Y-28575D01*
X40710Y-28575D01*
X40710Y-29049D01*
X40710Y-32230D01*
X40358Y-32230D01*
X40281Y-32245D01*
X40260Y-32260D01*
X40216Y-32289D01*
X39272Y-33233D01*
X39190Y-33233D01*
X39139Y-33254D01*
X39139Y-26063D01*
X39151Y-26063D01*
X39263Y-26017D01*
X39349Y-25931D01*
X39396Y-25819D01*
X39396Y-25698D01*
X39349Y-25586D01*
X39264Y-25500D01*
X39152Y-25453D01*
X39030Y-25453D01*
X38918Y-25500D01*
X38832Y-25585D01*
X38786Y-25697D01*
X38786Y-25786D01*
X38754Y-25834D01*
X38739Y-25910D01*
X38739Y-33920D01*
X38719Y-33969D01*
X38719Y-34090D01*
X38765Y-34203D01*
X38824Y-34261D01*
X38824Y-39016D01*
X38839Y-39092D01*
X38882Y-39157D01*
X42078Y-42352D01*
X42077Y-42435D01*
X42124Y-42547D01*
X42210Y-42633D01*
X42322Y-42679D01*
X42443Y-42680D01*
X42555Y-42633D01*
X42633Y-42555D01*
X42633Y-44766D01*
X38582Y-40715D01*
X38582Y-40633D01*
X38536Y-40521D01*
X38451Y-40435D01*
X38451Y-39097D01*
X38451Y-37097D01*
X38443Y-36810D01*
X38348Y-36583D01*
X38235Y-36535D01*
X38164Y-36605D01*
X38164Y-36464D01*
X38116Y-36351D01*
X37847Y-36248D01*
X37560Y-36256D01*
X37333Y-36351D01*
X37285Y-36464D01*
X37725Y-36904D01*
X38164Y-36464D01*
X38164Y-36605D01*
X37795Y-36975D01*
X38235Y-37414D01*
X38348Y-37366D01*
X38451Y-37097D01*
X38451Y-39097D01*
X38443Y-38810D01*
X38348Y-38583D01*
X38235Y-38535D01*
X38164Y-38605D01*
X38164Y-38464D01*
X38164Y-37485D01*
X37725Y-37045D01*
X37654Y-37116D01*
X37654Y-36975D01*
X37214Y-36535D01*
X37101Y-36583D01*
X36998Y-36852D01*
X37006Y-37139D01*
X37101Y-37366D01*
X37214Y-37414D01*
X37654Y-36975D01*
X37654Y-37116D01*
X37285Y-37485D01*
X37333Y-37598D01*
X37602Y-37701D01*
X37889Y-37693D01*
X38116Y-37598D01*
X38164Y-37485D01*
X38164Y-38464D01*
X38116Y-38351D01*
X37847Y-38248D01*
X37560Y-38256D01*
X37347Y-38345D01*
X37347Y-37851D01*
X37252Y-37622D01*
X37078Y-37447D01*
X36849Y-37352D01*
X36601Y-37352D01*
X36451Y-37414D01*
X36451Y-37097D01*
X36443Y-36810D01*
X36348Y-36583D01*
X36235Y-36535D01*
X36164Y-36605D01*
X35795Y-36975D01*
X36235Y-37414D01*
X36348Y-37366D01*
X36451Y-37097D01*
X36451Y-37414D01*
X36372Y-37447D01*
X36197Y-37621D01*
X36164Y-37700D01*
X36102Y-37850D01*
X36102Y-38098D01*
X36197Y-38327D01*
X36371Y-38502D01*
X36600Y-38597D01*
X36848Y-38597D01*
X37077Y-38502D01*
X37252Y-38328D01*
X37347Y-38099D01*
X37347Y-37851D01*
X37347Y-38345D01*
X37333Y-38351D01*
X37285Y-38464D01*
X37725Y-38904D01*
X38164Y-38464D01*
X38164Y-38605D01*
X37795Y-38975D01*
X38235Y-39414D01*
X38348Y-39366D01*
X38451Y-39097D01*
X38451Y-40435D01*
X38450Y-40435D01*
X38338Y-40388D01*
X38217Y-40388D01*
X38164Y-40410D01*
X38164Y-39485D01*
X37725Y-39045D01*
X37654Y-39116D01*
X37654Y-38975D01*
X37214Y-38535D01*
X37101Y-38583D01*
X36998Y-38852D01*
X37006Y-39139D01*
X37101Y-39366D01*
X37214Y-39414D01*
X37654Y-38975D01*
X37654Y-39116D01*
X37285Y-39485D01*
X37333Y-39598D01*
X37602Y-39701D01*
X37889Y-39693D01*
X38116Y-39598D01*
X38164Y-39485D01*
X38164Y-40410D01*
X38105Y-40435D01*
X38019Y-40520D01*
X37972Y-40632D01*
X37972Y-40754D01*
X38019Y-40866D01*
X38104Y-40952D01*
X38216Y-40998D01*
X38300Y-40998D01*
X42345Y-45043D01*
X42345Y-46328D01*
X42273Y-46298D01*
X42152Y-46298D01*
X42039Y-46344D01*
X41981Y-46403D01*
X38572Y-46403D01*
X38572Y-42487D01*
X38559Y-42423D01*
X38556Y-42410D01*
X38556Y-42410D01*
X38513Y-42345D01*
X37614Y-41447D01*
X37615Y-41364D01*
X37568Y-41252D01*
X37482Y-41166D01*
X37370Y-41120D01*
X37249Y-41119D01*
X37137Y-41166D01*
X37051Y-41252D01*
X37005Y-41364D01*
X37004Y-41485D01*
X37051Y-41597D01*
X37137Y-41683D01*
X37249Y-41729D01*
X37332Y-41730D01*
X37753Y-42151D01*
X37560Y-42156D01*
X37333Y-42251D01*
X37285Y-42364D01*
X37725Y-42804D01*
X37730Y-42798D01*
X37801Y-42869D01*
X37795Y-42875D01*
X37801Y-42880D01*
X37730Y-42951D01*
X37725Y-42945D01*
X37654Y-43016D01*
X37654Y-42875D01*
X37214Y-42435D01*
X37101Y-42483D01*
X36998Y-42752D01*
X37006Y-43039D01*
X37101Y-43266D01*
X37214Y-43314D01*
X37654Y-42875D01*
X37654Y-43016D01*
X37285Y-43385D01*
X37333Y-43498D01*
X37602Y-43601D01*
X37889Y-43593D01*
X38116Y-43498D01*
X38164Y-43385D01*
X38164Y-43385D01*
X38172Y-43392D01*
X38172Y-44357D01*
X38164Y-44364D01*
X38164Y-44364D01*
X38116Y-44251D01*
X37847Y-44148D01*
X37560Y-44156D01*
X37347Y-44245D01*
X37347Y-43751D01*
X37252Y-43522D01*
X37078Y-43347D01*
X36849Y-43252D01*
X36601Y-43252D01*
X36451Y-43314D01*
X36451Y-42997D01*
X36451Y-39097D01*
X36443Y-38810D01*
X36348Y-38583D01*
X36235Y-38535D01*
X36164Y-38605D01*
X35795Y-38975D01*
X36235Y-39414D01*
X36348Y-39366D01*
X36451Y-39097D01*
X36451Y-42997D01*
X36443Y-42710D01*
X36348Y-42483D01*
X36235Y-42435D01*
X36164Y-42505D01*
X35795Y-42875D01*
X36235Y-43314D01*
X36348Y-43266D01*
X36451Y-42997D01*
X36451Y-43314D01*
X36372Y-43347D01*
X36197Y-43521D01*
X36164Y-43600D01*
X36102Y-43750D01*
X36102Y-43998D01*
X36197Y-44227D01*
X36371Y-44402D01*
X36600Y-44497D01*
X36848Y-44497D01*
X37077Y-44402D01*
X37252Y-44228D01*
X37347Y-43999D01*
X37347Y-43751D01*
X37347Y-44245D01*
X37333Y-44251D01*
X37285Y-44364D01*
X37725Y-44804D01*
X37730Y-44798D01*
X37801Y-44869D01*
X37795Y-44875D01*
X37801Y-44880D01*
X37730Y-44951D01*
X37725Y-44945D01*
X37654Y-45016D01*
X37654Y-44875D01*
X37214Y-44435D01*
X37101Y-44483D01*
X36998Y-44752D01*
X37006Y-45039D01*
X37101Y-45266D01*
X37214Y-45314D01*
X37654Y-44875D01*
X37654Y-45016D01*
X37285Y-45385D01*
X37333Y-45498D01*
X37602Y-45601D01*
X37889Y-45593D01*
X38116Y-45498D01*
X38164Y-45385D01*
X38164Y-45385D01*
X38172Y-45392D01*
X38172Y-46603D01*
X38172Y-47557D01*
X38164Y-47564D01*
X38164Y-47564D01*
X38116Y-47451D01*
X37847Y-47348D01*
X37560Y-47356D01*
X37333Y-47451D01*
X37285Y-47564D01*
X37725Y-48004D01*
X37730Y-47998D01*
X37801Y-48069D01*
X37795Y-48075D01*
X37801Y-48080D01*
X37730Y-48151D01*
X37725Y-48145D01*
X37654Y-48216D01*
X37654Y-48075D01*
X37214Y-47635D01*
X37101Y-47683D01*
X36998Y-47952D01*
X37006Y-48239D01*
X37101Y-48466D01*
X37214Y-48514D01*
X37654Y-48075D01*
X37654Y-48216D01*
X37285Y-48585D01*
X37333Y-48698D01*
X37602Y-48801D01*
X37889Y-48793D01*
X38116Y-48698D01*
X38164Y-48585D01*
X38164Y-48585D01*
X38172Y-48592D01*
X38172Y-49557D01*
X38164Y-49564D01*
X38164Y-49564D01*
X38116Y-49451D01*
X37847Y-49348D01*
X37560Y-49356D01*
X37347Y-49445D01*
X37347Y-48951D01*
X37252Y-48722D01*
X37078Y-48547D01*
X36849Y-48452D01*
X36601Y-48452D01*
X36451Y-48514D01*
X36451Y-48197D01*
X36451Y-44997D01*
X36443Y-44710D01*
X36348Y-44483D01*
X36235Y-44435D01*
X36164Y-44505D01*
X35795Y-44875D01*
X36235Y-45314D01*
X36348Y-45266D01*
X36451Y-44997D01*
X36451Y-48197D01*
X36443Y-47910D01*
X36348Y-47683D01*
X36235Y-47635D01*
X36164Y-47705D01*
X35795Y-48075D01*
X36235Y-48514D01*
X36348Y-48466D01*
X36451Y-48197D01*
X36451Y-48514D01*
X36372Y-48547D01*
X36197Y-48721D01*
X36164Y-48800D01*
X36102Y-48950D01*
X36102Y-49198D01*
X36197Y-49427D01*
X36371Y-49602D01*
X36600Y-49697D01*
X36848Y-49697D01*
X37077Y-49602D01*
X37252Y-49428D01*
X37347Y-49199D01*
X37347Y-48951D01*
X37347Y-49445D01*
X37333Y-49451D01*
X37285Y-49564D01*
X37725Y-50004D01*
X37730Y-49998D01*
X37801Y-50069D01*
X37795Y-50075D01*
X37801Y-50080D01*
X37730Y-50151D01*
X37725Y-50145D01*
X37654Y-50216D01*
X37654Y-50075D01*
X37214Y-49635D01*
X37101Y-49683D01*
X36998Y-49952D01*
X37006Y-50239D01*
X37101Y-50466D01*
X37214Y-50514D01*
X37654Y-50075D01*
X37654Y-50216D01*
X37285Y-50585D01*
X37333Y-50698D01*
X37602Y-50801D01*
X37889Y-50793D01*
X38116Y-50698D01*
X38164Y-50585D01*
X38164Y-50585D01*
X38172Y-50592D01*
X38172Y-58170D01*
X38164Y-58177D01*
X37680Y-58662D01*
X37599Y-58628D01*
X37401Y-58628D01*
X37219Y-58703D01*
X37175Y-58747D01*
X36451Y-58747D01*
X36451Y-50197D01*
X36443Y-49910D01*
X36348Y-49683D01*
X36235Y-49635D01*
X36164Y-49705D01*
X35795Y-50075D01*
X36235Y-50514D01*
X36348Y-50466D01*
X36451Y-50197D01*
X36451Y-58747D01*
X36164Y-58747D01*
X36047Y-58747D01*
X35971Y-58762D01*
X35949Y-58777D01*
X35906Y-58805D01*
X35751Y-58960D01*
X35708Y-59025D01*
X35692Y-59102D01*
X35692Y-59394D01*
X35708Y-59471D01*
X35751Y-59535D01*
X38092Y-61876D01*
X38092Y-61876D01*
X38135Y-61905D01*
X38157Y-61920D01*
X38157Y-61920D01*
X38233Y-61935D01*
X38233Y-61935D01*
X48808Y-61935D01*
X48786Y-61989D01*
X48785Y-62110D01*
X48832Y-62222D01*
X48917Y-62308D01*
X49030Y-62354D01*
X49113Y-62355D01*
X49184Y-62426D01*
X49184Y-62426D01*
X49227Y-62455D01*
X49249Y-62469D01*
X49249Y-62469D01*
X49326Y-62485D01*
X49326Y-62485D01*
X63024Y-62485D01*
X63100Y-62469D01*
X63165Y-62426D01*
X66889Y-58703D01*
X66889Y-58703D01*
X66918Y-58659D01*
X66932Y-58638D01*
X66932Y-58638D01*
X66947Y-58561D01*
X66947Y-58561D01*
X66947Y-58293D01*
X67006Y-58234D01*
X67052Y-58122D01*
X67052Y-58001D01*
X67006Y-57889D01*
X66920Y-57803D01*
X66808Y-57757D01*
X66687Y-57756D01*
X66575Y-57803D01*
X66531Y-57847D01*
X66531Y-51937D01*
X70353Y-48114D01*
X70353Y-48114D01*
X70382Y-48071D01*
X70397Y-48049D01*
X70397Y-48049D01*
X70412Y-47973D01*
X70412Y-47973D01*
X70412Y-47633D01*
X70775Y-47270D01*
X70819Y-47205D01*
X70819Y-47205D01*
X70834Y-47128D01*
X70834Y-46306D01*
X70892Y-46247D01*
X70939Y-46135D01*
X70939Y-46014D01*
X70893Y-45902D01*
X70807Y-45816D01*
X70695Y-45770D01*
X70574Y-45769D01*
X70462Y-45816D01*
X70376Y-45902D01*
X70374Y-45906D01*
X70374Y-45344D01*
X73043Y-42675D01*
X73618Y-42675D01*
X73677Y-42733D01*
X73789Y-42779D01*
X73910Y-42780D01*
X74022Y-42733D01*
X74108Y-42647D01*
X74154Y-42535D01*
X74155Y-42452D01*
X74605Y-42002D01*
X75859Y-42002D01*
X75936Y-41987D01*
X76001Y-41943D01*
X76107Y-41837D01*
X76189Y-41837D01*
X76301Y-41791D01*
X76387Y-41705D01*
X76434Y-41593D01*
X76434Y-41472D01*
X76388Y-41360D01*
X76302Y-41274D01*
X76257Y-41255D01*
X77525Y-39988D01*
X77525Y-62675D01*
M02*
