G04 (created by PCBNEW (2013-may-18)-stable) date 2014年05月08日 星期四 12时33分24秒*
%MOIN*%
G04 Gerber Fmt 3.4, Leading zero omitted, Abs format*
%FSLAX34Y34*%
G01*
G70*
G90*
G04 APERTURE LIST*
%ADD10C,0.00590551*%
%ADD11C,0.0693*%
%ADD12R,0.08X0.06*%
%ADD13R,0.06X0.08*%
%ADD14R,0.045X0.025*%
%ADD15R,0.025X0.045*%
%ADD16R,0.05X0.015*%
%ADD17R,0.05X0.11*%
%ADD18R,0.11X0.05*%
%ADD19C,0.0944882*%
G04 APERTURE END LIST*
G54D10*
G54D11*
X49500Y-59125D03*
X49500Y-60125D03*
X46500Y-59125D03*
X46500Y-60125D03*
X45500Y-59125D03*
X45500Y-60125D03*
X37500Y-60125D03*
X37500Y-59125D03*
X38500Y-60125D03*
X38500Y-59125D03*
X39500Y-60125D03*
X39500Y-59125D03*
X40500Y-60125D03*
X40500Y-59125D03*
X41500Y-60125D03*
X41500Y-59125D03*
X42500Y-60125D03*
X42500Y-59125D03*
X43500Y-60125D03*
X43500Y-59125D03*
X44500Y-60125D03*
X44500Y-59125D03*
X47500Y-60125D03*
X47500Y-59125D03*
X48500Y-60125D03*
X48500Y-59125D03*
G54D12*
X56975Y-30575D03*
X56975Y-31875D03*
X50875Y-45649D03*
X50875Y-44349D03*
X49925Y-49649D03*
X49925Y-50949D03*
G54D13*
X53925Y-51250D03*
X55225Y-51250D03*
X56075Y-49599D03*
X57375Y-49599D03*
G54D12*
X55875Y-30575D03*
X55875Y-31875D03*
G54D13*
X59875Y-32175D03*
X61175Y-32175D03*
G54D12*
X56825Y-26575D03*
X56825Y-25275D03*
G54D13*
X62025Y-30525D03*
X63325Y-30525D03*
G54D12*
X51025Y-49649D03*
X51025Y-50949D03*
G54D13*
X49325Y-33250D03*
X50625Y-33250D03*
G54D12*
X44125Y-29300D03*
X44125Y-28000D03*
G54D13*
X47175Y-34899D03*
X48475Y-34899D03*
G54D12*
X43175Y-33300D03*
X43175Y-34600D03*
X44275Y-33300D03*
X44275Y-34600D03*
G54D13*
X37500Y-61125D03*
X36200Y-61125D03*
X38375Y-61125D03*
X39675Y-61125D03*
X39675Y-57075D03*
X38375Y-57075D03*
X37500Y-62175D03*
X36200Y-62175D03*
X36200Y-58125D03*
X37500Y-58125D03*
X38375Y-62175D03*
X39675Y-62175D03*
X39675Y-58125D03*
X38375Y-58125D03*
X36200Y-57075D03*
X37500Y-57075D03*
X60150Y-41175D03*
X61450Y-41175D03*
G54D12*
X55100Y-41225D03*
X55100Y-42525D03*
X54950Y-37225D03*
X54950Y-35925D03*
G54D13*
X58000Y-42825D03*
X59300Y-42825D03*
G54D12*
X54000Y-41225D03*
X54000Y-42525D03*
G54D14*
X59425Y-34775D03*
X59425Y-35375D03*
G54D15*
X52025Y-29625D03*
X52625Y-29625D03*
G54D14*
X58725Y-35375D03*
X58725Y-34775D03*
G54D15*
X58475Y-30925D03*
X59075Y-30925D03*
X56575Y-29825D03*
X57175Y-29825D03*
G54D14*
X60975Y-28275D03*
X60975Y-28875D03*
X54975Y-30625D03*
X54975Y-31225D03*
X57825Y-30425D03*
X57825Y-31025D03*
X57775Y-29125D03*
X57775Y-29725D03*
G54D15*
X52625Y-30325D03*
X52025Y-30325D03*
X43875Y-32550D03*
X44475Y-32550D03*
G54D14*
X48275Y-30999D03*
X48275Y-31599D03*
G54D15*
X45775Y-33650D03*
X46375Y-33650D03*
G54D14*
X46025Y-38099D03*
X46025Y-37499D03*
X46725Y-37499D03*
X46725Y-38099D03*
G54D15*
X39325Y-32350D03*
X39925Y-32350D03*
X39925Y-33050D03*
X39325Y-33050D03*
G54D14*
X45075Y-31850D03*
X45075Y-32450D03*
X45125Y-33150D03*
X45125Y-33750D03*
X42275Y-33350D03*
X42275Y-33950D03*
G54D15*
X50750Y-40975D03*
X50150Y-40975D03*
G54D14*
X53100Y-41275D03*
X53100Y-41875D03*
X55950Y-41075D03*
X55950Y-41675D03*
X55900Y-39775D03*
X55900Y-40375D03*
G54D15*
X54700Y-40475D03*
X55300Y-40475D03*
X50150Y-40275D03*
X50750Y-40275D03*
G54D14*
X57550Y-45425D03*
X57550Y-46025D03*
X56850Y-46025D03*
X56850Y-45425D03*
G54D15*
X56600Y-41575D03*
X57200Y-41575D03*
G54D14*
X59100Y-38925D03*
X59100Y-39525D03*
X49025Y-49699D03*
X49025Y-50299D03*
X51875Y-49499D03*
X51875Y-50099D03*
X51825Y-48199D03*
X51825Y-48799D03*
G54D15*
X50625Y-48899D03*
X51225Y-48899D03*
X46075Y-48699D03*
X46675Y-48699D03*
G54D14*
X55025Y-47350D03*
X55025Y-47950D03*
G54D15*
X52525Y-49999D03*
X53125Y-49999D03*
G54D14*
X52775Y-54450D03*
X52775Y-53850D03*
X53475Y-53850D03*
X53475Y-54450D03*
G54D15*
X46675Y-49399D03*
X46075Y-49399D03*
G54D16*
X60225Y-29541D03*
X60225Y-29797D03*
X60225Y-30053D03*
X60225Y-30309D03*
X58525Y-30309D03*
X58525Y-30053D03*
X58525Y-29797D03*
X58525Y-29541D03*
X58350Y-40191D03*
X58350Y-40447D03*
X58350Y-40703D03*
X58350Y-40959D03*
X56650Y-40959D03*
X56650Y-40703D03*
X56650Y-40447D03*
X56650Y-40191D03*
X47525Y-32266D03*
X47525Y-32522D03*
X47525Y-32778D03*
X47525Y-33034D03*
X45825Y-33034D03*
X45825Y-32778D03*
X45825Y-32522D03*
X45825Y-32266D03*
X54275Y-48615D03*
X54275Y-48871D03*
X54275Y-49127D03*
X54275Y-49383D03*
X52575Y-49383D03*
X52575Y-49127D03*
X52575Y-48871D03*
X52575Y-48615D03*
G54D17*
X46375Y-35450D03*
X47375Y-37300D03*
X45375Y-37300D03*
G54D18*
X50425Y-31350D03*
X48575Y-32350D03*
X48575Y-30350D03*
G54D17*
X59075Y-32725D03*
X60075Y-34575D03*
X58075Y-34575D03*
X50875Y-47899D03*
X49875Y-46049D03*
X51875Y-46049D03*
G54D18*
X48725Y-49050D03*
X46875Y-50050D03*
X46875Y-48050D03*
G54D17*
X53125Y-51799D03*
X54125Y-53649D03*
X52125Y-53649D03*
G54D18*
X57175Y-47699D03*
X55325Y-48699D03*
X55325Y-46699D03*
X63125Y-28625D03*
X61275Y-29625D03*
X61275Y-27625D03*
G54D17*
X44125Y-31550D03*
X43125Y-29700D03*
X45125Y-29700D03*
G54D18*
X54675Y-29975D03*
X52825Y-30975D03*
X52825Y-28975D03*
G54D17*
X56825Y-28825D03*
X55825Y-26975D03*
X57825Y-26975D03*
G54D18*
X41975Y-32699D03*
X40125Y-33699D03*
X40125Y-31699D03*
G54D17*
X54950Y-39475D03*
X53950Y-37625D03*
X55950Y-37625D03*
G54D18*
X52800Y-40625D03*
X50950Y-41625D03*
X50950Y-39625D03*
G54D17*
X57200Y-43375D03*
X58200Y-45225D03*
X56200Y-45225D03*
G54D18*
X61250Y-39275D03*
X59400Y-40275D03*
X59400Y-38275D03*
G54D19*
X36725Y-49075D03*
X35725Y-48075D03*
X37725Y-48075D03*
X37725Y-50075D03*
X35725Y-50075D03*
X36725Y-43875D03*
X35725Y-42875D03*
X37725Y-42875D03*
X37725Y-44875D03*
X35725Y-44875D03*
X36725Y-37975D03*
X35725Y-36975D03*
X37725Y-36975D03*
X37725Y-38975D03*
X35725Y-38975D03*
X46675Y-52075D03*
X47675Y-51075D03*
X47675Y-53075D03*
X45675Y-53075D03*
X45675Y-51075D03*
X74325Y-46025D03*
X73325Y-45025D03*
X75325Y-45025D03*
X75325Y-47025D03*
X73325Y-47025D03*
G54D13*
X56700Y-39325D03*
X58000Y-39325D03*
X59300Y-41775D03*
X58000Y-41775D03*
X52625Y-47750D03*
X53925Y-47750D03*
X55225Y-50199D03*
X53925Y-50199D03*
X58575Y-28675D03*
X59875Y-28675D03*
X61175Y-31125D03*
X59875Y-31125D03*
X45875Y-31399D03*
X47175Y-31399D03*
X48475Y-33850D03*
X47175Y-33850D03*
M02*
