G04 (created by PCBNEW (2013-may-18)-stable) date 2014年05月08日 星期四 12时33分24秒*
%MOIN*%
G04 Gerber Fmt 3.4, Leading zero omitted, Abs format*
%FSLAX34Y34*%
G01*
G70*
G90*
G04 APERTURE LIST*
%ADD10C,0.00590551*%
%ADD11C,0.0693*%
%ADD12R,0.02X0.038*%
%ADD13R,0.038X0.02*%
%ADD14R,0.0236X0.0394*%
%ADD15R,0.0394X0.0236*%
%ADD16R,0.05X0.025*%
%ADD17R,0.025X0.05*%
%ADD18R,0.08X0.06*%
%ADD19R,0.06X0.08*%
%ADD20R,0.025X0.045*%
%ADD21R,0.045X0.025*%
%ADD22R,0.028X0.018*%
%ADD23R,0.018X0.028*%
%ADD24R,0.05X0.11*%
%ADD25R,0.11X0.05*%
%ADD26C,0.0944882*%
G04 APERTURE END LIST*
G54D10*
G54D11*
X49500Y-59125D03*
X49500Y-60125D03*
X46500Y-59125D03*
X46500Y-60125D03*
X45500Y-59125D03*
X45500Y-60125D03*
X37500Y-60125D03*
X37500Y-59125D03*
X38500Y-60125D03*
X38500Y-59125D03*
X39500Y-60125D03*
X39500Y-59125D03*
X40500Y-60125D03*
X40500Y-59125D03*
X41500Y-60125D03*
X41500Y-59125D03*
X42500Y-60125D03*
X42500Y-59125D03*
X43500Y-60125D03*
X43500Y-59125D03*
X44500Y-60125D03*
X44500Y-59125D03*
X47500Y-60125D03*
X47500Y-59125D03*
X48500Y-60125D03*
X48500Y-59125D03*
G54D12*
X74665Y-41985D03*
X74275Y-41985D03*
X73885Y-41985D03*
X73885Y-42965D03*
X74275Y-42965D03*
X74665Y-42965D03*
X58785Y-61515D03*
X59175Y-61515D03*
X59565Y-61515D03*
X59565Y-60535D03*
X59175Y-60535D03*
X58785Y-60535D03*
G54D13*
X63735Y-58985D03*
X63735Y-59375D03*
X63735Y-59765D03*
X64715Y-59765D03*
X64715Y-59375D03*
X64715Y-58985D03*
G54D12*
X55735Y-54165D03*
X56125Y-54165D03*
X56515Y-54165D03*
X56515Y-53185D03*
X56125Y-53185D03*
X55735Y-53185D03*
G54D14*
X38750Y-46791D03*
X39125Y-45959D03*
X39500Y-46791D03*
G54D15*
X38709Y-43900D03*
X39541Y-44275D03*
X38709Y-44650D03*
G54D16*
X42050Y-28249D03*
X42050Y-27749D03*
X42050Y-27249D03*
X42050Y-26749D03*
X39850Y-26749D03*
X39850Y-27249D03*
X39850Y-27749D03*
X39850Y-28249D03*
G54D17*
X60225Y-56275D03*
X59725Y-56275D03*
X59225Y-56275D03*
X58725Y-56275D03*
X58725Y-58475D03*
X59225Y-58475D03*
X59725Y-58475D03*
X60225Y-58475D03*
G54D16*
X62575Y-55875D03*
X62575Y-56375D03*
X62575Y-56875D03*
X62575Y-57375D03*
X64775Y-57375D03*
X64775Y-56875D03*
X64775Y-56375D03*
X64775Y-55875D03*
X56425Y-39475D03*
X56425Y-39975D03*
X56425Y-40475D03*
X56425Y-40975D03*
X58625Y-40975D03*
X58625Y-40475D03*
X58625Y-39975D03*
X58625Y-39475D03*
X40625Y-44325D03*
X40625Y-44825D03*
X40625Y-45325D03*
X40625Y-45825D03*
X42825Y-45825D03*
X42825Y-45325D03*
X42825Y-44825D03*
X42825Y-44325D03*
X52175Y-51925D03*
X52175Y-52425D03*
X52175Y-52925D03*
X52175Y-53425D03*
X54375Y-53425D03*
X54375Y-52925D03*
X54375Y-52425D03*
X54375Y-51925D03*
X47425Y-42825D03*
X47425Y-43325D03*
X47425Y-43825D03*
X47425Y-44325D03*
X49625Y-44325D03*
X49625Y-43825D03*
X49625Y-43325D03*
X49625Y-42825D03*
G54D17*
X75325Y-27325D03*
X74825Y-27325D03*
X74325Y-27325D03*
X73825Y-27325D03*
X73825Y-29525D03*
X74325Y-29525D03*
X74825Y-29525D03*
X75325Y-29525D03*
G54D16*
X48700Y-30700D03*
X48700Y-30200D03*
X48700Y-29700D03*
X48700Y-29200D03*
X46500Y-29200D03*
X46500Y-29700D03*
X46500Y-30200D03*
X46500Y-30700D03*
X47425Y-45825D03*
X47425Y-46325D03*
X47425Y-46825D03*
X47425Y-47325D03*
X49625Y-47325D03*
X49625Y-46825D03*
X49625Y-46325D03*
X49625Y-45825D03*
G54D17*
X43775Y-33175D03*
X44275Y-33175D03*
X44775Y-33175D03*
X45275Y-33175D03*
X45275Y-30975D03*
X44775Y-30975D03*
X44275Y-30975D03*
X43775Y-30975D03*
G54D16*
X67975Y-38525D03*
X67975Y-38025D03*
X67975Y-37525D03*
X67975Y-37025D03*
X65775Y-37025D03*
X65775Y-37525D03*
X65775Y-38025D03*
X65775Y-38525D03*
G54D17*
X42175Y-37875D03*
X42675Y-37875D03*
X43175Y-37875D03*
X43675Y-37875D03*
X43675Y-35675D03*
X43175Y-35675D03*
X42675Y-35675D03*
X42175Y-35675D03*
X67925Y-45825D03*
X68425Y-45825D03*
X68925Y-45825D03*
X69425Y-45825D03*
X69425Y-43625D03*
X68925Y-43625D03*
X68425Y-43625D03*
X67925Y-43625D03*
X65775Y-60775D03*
X66275Y-60775D03*
X66775Y-60775D03*
X67275Y-60775D03*
X67275Y-58575D03*
X66775Y-58575D03*
X66275Y-58575D03*
X65775Y-58575D03*
G54D16*
X68675Y-31275D03*
X68675Y-30775D03*
X68675Y-30275D03*
X68675Y-29775D03*
X66475Y-29775D03*
X66475Y-30275D03*
X66475Y-30775D03*
X66475Y-31275D03*
X41875Y-40925D03*
X41875Y-41425D03*
X41875Y-41925D03*
X41875Y-42425D03*
X44075Y-42425D03*
X44075Y-41925D03*
X44075Y-41425D03*
X44075Y-40925D03*
X66425Y-52225D03*
X66425Y-51725D03*
X66425Y-51225D03*
X66425Y-50725D03*
X64225Y-50725D03*
X64225Y-51225D03*
X64225Y-51725D03*
X64225Y-52225D03*
X41075Y-41675D03*
X41075Y-41175D03*
X41075Y-40675D03*
X41075Y-40175D03*
X38875Y-40175D03*
X38875Y-40675D03*
X38875Y-41175D03*
X38875Y-41675D03*
X57525Y-31725D03*
X57525Y-32225D03*
X57525Y-32725D03*
X57525Y-33225D03*
X59725Y-33225D03*
X59725Y-32725D03*
X59725Y-32225D03*
X59725Y-31725D03*
X73325Y-23125D03*
X73325Y-23625D03*
X73325Y-24125D03*
X73325Y-24625D03*
X75525Y-24625D03*
X75525Y-24125D03*
X75525Y-23625D03*
X75525Y-23125D03*
X62225Y-41975D03*
X62225Y-42475D03*
X62225Y-42975D03*
X62225Y-43475D03*
X64425Y-43475D03*
X64425Y-42975D03*
X64425Y-42475D03*
X64425Y-41975D03*
G54D17*
X75675Y-37875D03*
X75175Y-37875D03*
X74675Y-37875D03*
X74175Y-37875D03*
X74175Y-40075D03*
X74675Y-40075D03*
X75175Y-40075D03*
X75675Y-40075D03*
G54D16*
X64325Y-28225D03*
X64325Y-27725D03*
X64325Y-27225D03*
X64325Y-26725D03*
X62125Y-26725D03*
X62125Y-27225D03*
X62125Y-27725D03*
X62125Y-28225D03*
X75725Y-33325D03*
X75725Y-32825D03*
X75725Y-32325D03*
X75725Y-31825D03*
X73525Y-31825D03*
X73525Y-32325D03*
X73525Y-32825D03*
X73525Y-33325D03*
X52825Y-30125D03*
X52825Y-30625D03*
X52825Y-31125D03*
X52825Y-31625D03*
X55025Y-31625D03*
X55025Y-31125D03*
X55025Y-30625D03*
X55025Y-30125D03*
G54D18*
X40375Y-43675D03*
X40375Y-42375D03*
G54D19*
X54325Y-50125D03*
X53025Y-50125D03*
X51525Y-32525D03*
X52825Y-32525D03*
G54D18*
X37975Y-40125D03*
X37975Y-41425D03*
G54D19*
X40225Y-39425D03*
X38925Y-39425D03*
X50875Y-54325D03*
X52175Y-54325D03*
X62175Y-30025D03*
X63475Y-30025D03*
G54D18*
X52075Y-51275D03*
X52075Y-49975D03*
G54D19*
X64275Y-52975D03*
X65575Y-52975D03*
X65575Y-49975D03*
X64275Y-49975D03*
X43375Y-40125D03*
X44675Y-40125D03*
X66425Y-52975D03*
X67725Y-52975D03*
G54D18*
X45225Y-43225D03*
X45225Y-41925D03*
G54D19*
X54975Y-28325D03*
X53675Y-28325D03*
X65625Y-25925D03*
X64325Y-25925D03*
X64275Y-54025D03*
X65575Y-54025D03*
X41525Y-37975D03*
X40225Y-37975D03*
X63475Y-25975D03*
X62175Y-25975D03*
X57975Y-55375D03*
X56675Y-55375D03*
G54D18*
X61725Y-55075D03*
X61725Y-53775D03*
X40375Y-35775D03*
X40375Y-37075D03*
X57275Y-53075D03*
X57275Y-51775D03*
X58325Y-53075D03*
X58325Y-51775D03*
G54D19*
X62175Y-28975D03*
X63475Y-28975D03*
G54D18*
X61425Y-60675D03*
X61425Y-59375D03*
X43025Y-31875D03*
X43025Y-33175D03*
X44425Y-37025D03*
X44425Y-35725D03*
X41425Y-35725D03*
X41425Y-37025D03*
G54D19*
X64325Y-28975D03*
X65625Y-28975D03*
X54325Y-51175D03*
X53025Y-51175D03*
X53025Y-54175D03*
X54325Y-54175D03*
X43075Y-34125D03*
X41775Y-34125D03*
X44725Y-34075D03*
X46025Y-34075D03*
X58825Y-33975D03*
X57525Y-33975D03*
X49375Y-45075D03*
X50675Y-45075D03*
X47275Y-45075D03*
X48575Y-45075D03*
X49175Y-42075D03*
X47875Y-42075D03*
G54D10*
G36*
X47513Y-40470D02*
X48079Y-41036D01*
X47655Y-41460D01*
X47089Y-40894D01*
X47513Y-40470D01*
X47513Y-40470D01*
G37*
G36*
X46594Y-41389D02*
X47160Y-41955D01*
X46736Y-42379D01*
X46170Y-41813D01*
X46594Y-41389D01*
X46594Y-41389D01*
G37*
G54D19*
X58825Y-30975D03*
X57525Y-30975D03*
X48475Y-48075D03*
X47175Y-48075D03*
X58875Y-59625D03*
X60175Y-59625D03*
G54D18*
X57925Y-59775D03*
X57925Y-61075D03*
G54D19*
X42775Y-43575D03*
X41475Y-43575D03*
X41475Y-46575D03*
X42775Y-46575D03*
G54D18*
X55725Y-56325D03*
X55725Y-55025D03*
G54D19*
X67725Y-28975D03*
X66425Y-28975D03*
G54D18*
X68075Y-60025D03*
X68075Y-58725D03*
G54D19*
X67975Y-60975D03*
X69275Y-60975D03*
G54D18*
X52725Y-29475D03*
X52725Y-28175D03*
G54D19*
X67725Y-49925D03*
X66425Y-49925D03*
X53675Y-32375D03*
X54975Y-32375D03*
G54D18*
X55925Y-52375D03*
X55925Y-51075D03*
G54D19*
X68875Y-32025D03*
X67575Y-32025D03*
X65025Y-60575D03*
X63725Y-60575D03*
G54D18*
X62525Y-60675D03*
X62525Y-59375D03*
G54D19*
X54975Y-29375D03*
X53675Y-29375D03*
X69725Y-42725D03*
X68425Y-42725D03*
X70075Y-46075D03*
X71375Y-46075D03*
X47775Y-49775D03*
X46475Y-49775D03*
G54D18*
X56575Y-31025D03*
X56575Y-29725D03*
G54D19*
X58575Y-38725D03*
X57275Y-38725D03*
X57275Y-41725D03*
X58575Y-41725D03*
G54D18*
X56325Y-38825D03*
X56325Y-37525D03*
G54D19*
X74675Y-26425D03*
X73375Y-26425D03*
G54D18*
X73375Y-39225D03*
X73375Y-37925D03*
G54D19*
X75325Y-41025D03*
X74025Y-41025D03*
G54D18*
X73075Y-28675D03*
X73075Y-27375D03*
G54D19*
X75025Y-30425D03*
X73725Y-30425D03*
G54D18*
X60175Y-39025D03*
X60175Y-40325D03*
G54D19*
X48900Y-31450D03*
X47600Y-31450D03*
X47750Y-28399D03*
X46450Y-28399D03*
G54D18*
X77175Y-40575D03*
X77175Y-39275D03*
G54D19*
X55125Y-41875D03*
X56425Y-41875D03*
X65825Y-39275D03*
X67125Y-39275D03*
X67125Y-36275D03*
X65825Y-36275D03*
X67975Y-39275D03*
X69275Y-39275D03*
X65825Y-40325D03*
X67125Y-40325D03*
X43350Y-25950D03*
X42050Y-25950D03*
G54D18*
X75475Y-43625D03*
X75475Y-42325D03*
X73125Y-42475D03*
X73125Y-43775D03*
G54D19*
X75525Y-34075D03*
X74225Y-34075D03*
G54D18*
X76625Y-31975D03*
X76625Y-33275D03*
G54D19*
X75475Y-22375D03*
X74175Y-22375D03*
G54D18*
X61025Y-57625D03*
X61025Y-56325D03*
G54D19*
X73375Y-25375D03*
X74675Y-25375D03*
G54D18*
X60175Y-41175D03*
X60175Y-42475D03*
X76475Y-36375D03*
X76475Y-37675D03*
G54D19*
X63575Y-41175D03*
X62275Y-41175D03*
X63575Y-44275D03*
X62275Y-44275D03*
G54D18*
X61225Y-42475D03*
X61225Y-41175D03*
G54D19*
X74125Y-36925D03*
X75425Y-36925D03*
X61125Y-40175D03*
X62425Y-40175D03*
G54D18*
X76475Y-34125D03*
X76475Y-35425D03*
G54D19*
X60625Y-54475D03*
X59325Y-54475D03*
G54D18*
X44575Y-39175D03*
X44575Y-37875D03*
G54D19*
X39900Y-30050D03*
X41200Y-30050D03*
X41200Y-25999D03*
X39900Y-25999D03*
X39900Y-28999D03*
X41200Y-28999D03*
G54D18*
X42125Y-28925D03*
X42125Y-30225D03*
G54D19*
X63925Y-55125D03*
X62625Y-55125D03*
X69275Y-36225D03*
X67975Y-36225D03*
X63925Y-58125D03*
X62625Y-58125D03*
G54D18*
X57975Y-57625D03*
X57975Y-56325D03*
G54D20*
X40575Y-31425D03*
X39975Y-31425D03*
X76825Y-38475D03*
X76225Y-38475D03*
X40925Y-38825D03*
X41525Y-38825D03*
X42175Y-34975D03*
X41575Y-34975D03*
X42625Y-34975D03*
X43225Y-34975D03*
G54D21*
X43450Y-26699D03*
X43450Y-27299D03*
G54D20*
X65375Y-22575D03*
X65975Y-22575D03*
X51575Y-30625D03*
X52175Y-30625D03*
X62475Y-21575D03*
X61875Y-21575D03*
X46625Y-35225D03*
X46025Y-35225D03*
G54D21*
X60425Y-22475D03*
X60425Y-21875D03*
G54D20*
X60475Y-23325D03*
X59875Y-23325D03*
G54D21*
X48025Y-35525D03*
X48025Y-36125D03*
X59575Y-25375D03*
X59575Y-24775D03*
X69175Y-25375D03*
X69175Y-24775D03*
G54D20*
X68275Y-23325D03*
X68875Y-23325D03*
G54D21*
X67575Y-23475D03*
X67575Y-22875D03*
X38575Y-32525D03*
X38575Y-31925D03*
X48875Y-38425D03*
X48875Y-39025D03*
G54D20*
X48675Y-36875D03*
X48075Y-36875D03*
G54D21*
X37675Y-35225D03*
X37675Y-34625D03*
X76275Y-39075D03*
X76275Y-39675D03*
G54D20*
X38575Y-33125D03*
X37975Y-33125D03*
G54D21*
X37300Y-25399D03*
X37300Y-24799D03*
X39475Y-38575D03*
X39475Y-37975D03*
X38725Y-37975D03*
X38725Y-38575D03*
X39475Y-42775D03*
X39475Y-43375D03*
X48975Y-49525D03*
X48975Y-50125D03*
X46900Y-25399D03*
X46900Y-24799D03*
X38775Y-43375D03*
X38775Y-42775D03*
G54D20*
X43525Y-43025D03*
X44125Y-43025D03*
X42375Y-40325D03*
X41775Y-40325D03*
X46000Y-23350D03*
X46600Y-23350D03*
X43100Y-22599D03*
X43700Y-22599D03*
G54D21*
X46725Y-43375D03*
X46725Y-42775D03*
X42750Y-27299D03*
X42750Y-26699D03*
G54D20*
X43425Y-44775D03*
X44025Y-44775D03*
G54D21*
X45300Y-23499D03*
X45300Y-22899D03*
X39150Y-27799D03*
X39150Y-27199D03*
X39150Y-28299D03*
X39150Y-28899D03*
G54D20*
X43225Y-38575D03*
X43825Y-38575D03*
X74475Y-31275D03*
X75075Y-31275D03*
X43825Y-39275D03*
X43225Y-39275D03*
G54D21*
X75925Y-28075D03*
X75925Y-28675D03*
G54D20*
X48375Y-41175D03*
X48975Y-41175D03*
X75475Y-35075D03*
X74875Y-35075D03*
X41400Y-25099D03*
X40800Y-25099D03*
X44675Y-30275D03*
X44075Y-30275D03*
G54D21*
X42125Y-33325D03*
X42125Y-32725D03*
G54D20*
X40200Y-21599D03*
X39600Y-21599D03*
G54D21*
X43825Y-34975D03*
X43825Y-34375D03*
G54D20*
X48475Y-48925D03*
X49075Y-48925D03*
X47975Y-48925D03*
X47375Y-48925D03*
G54D21*
X38150Y-22499D03*
X38150Y-21899D03*
G54D20*
X38200Y-23350D03*
X37600Y-23350D03*
G54D21*
X56925Y-48325D03*
X56925Y-47725D03*
X62625Y-54325D03*
X62625Y-53725D03*
G54D20*
X51575Y-43725D03*
X50975Y-43725D03*
X58025Y-53825D03*
X58625Y-53825D03*
X57625Y-58475D03*
X58225Y-58475D03*
G54D21*
X50825Y-41775D03*
X50825Y-42375D03*
G54D20*
X63675Y-25075D03*
X63075Y-25075D03*
G54D21*
X64775Y-57875D03*
X64775Y-58475D03*
G54D20*
X61275Y-58375D03*
X61875Y-58375D03*
G54D21*
X50775Y-53575D03*
X50775Y-52975D03*
X51475Y-52975D03*
X51475Y-53575D03*
X55075Y-52375D03*
X55075Y-52975D03*
X55075Y-51925D03*
X55075Y-51325D03*
X51225Y-50675D03*
X51225Y-51275D03*
X58625Y-50325D03*
X58625Y-49725D03*
G54D20*
X57525Y-48325D03*
X58125Y-48325D03*
X57525Y-54525D03*
X58125Y-54525D03*
X59075Y-35575D03*
X59675Y-35575D03*
X54825Y-47425D03*
X55425Y-47425D03*
G54D21*
X61225Y-36475D03*
X61225Y-35875D03*
G54D20*
X61975Y-36425D03*
X62575Y-36425D03*
G54D21*
X49175Y-55825D03*
X49175Y-56425D03*
G54D20*
X52275Y-57075D03*
X51675Y-57075D03*
X53925Y-57775D03*
X54525Y-57775D03*
G54D21*
X54825Y-55775D03*
X54825Y-56375D03*
X67825Y-50675D03*
X67825Y-51275D03*
X67125Y-51275D03*
X67125Y-50675D03*
X63525Y-51775D03*
X63525Y-51175D03*
G54D20*
X65775Y-49075D03*
X65175Y-49075D03*
G54D21*
X62875Y-38475D03*
X62875Y-37875D03*
G54D20*
X64575Y-45575D03*
X63975Y-45575D03*
X64125Y-33625D03*
X63525Y-33625D03*
G54D21*
X63225Y-35675D03*
X63225Y-35075D03*
X64075Y-32775D03*
X64075Y-32175D03*
G54D20*
X66125Y-31875D03*
X65525Y-31875D03*
G54D21*
X72825Y-35675D03*
X72825Y-35075D03*
G54D20*
X71925Y-33625D03*
X72525Y-33625D03*
G54D21*
X71225Y-33775D03*
X71225Y-33175D03*
G54D20*
X69025Y-32875D03*
X69625Y-32875D03*
X67325Y-35375D03*
X66725Y-35375D03*
G54D21*
X65075Y-38575D03*
X65075Y-39175D03*
X63525Y-52275D03*
X63525Y-52875D03*
X65075Y-38075D03*
X65075Y-37475D03*
X68675Y-37575D03*
X68675Y-36975D03*
G54D20*
X56975Y-53825D03*
X57575Y-53825D03*
G54D21*
X65575Y-56525D03*
X65575Y-55925D03*
X69375Y-36975D03*
X69375Y-37575D03*
X61875Y-56375D03*
X61875Y-55775D03*
G54D20*
X59725Y-55575D03*
X60325Y-55575D03*
X54625Y-44575D03*
X54025Y-44575D03*
X52075Y-43725D03*
X52675Y-43725D03*
G54D21*
X57575Y-26525D03*
X57575Y-25925D03*
G54D20*
X57375Y-30075D03*
X57975Y-30075D03*
G54D21*
X60425Y-32625D03*
X60425Y-32025D03*
X63225Y-39825D03*
X63225Y-40425D03*
X51425Y-31775D03*
X51425Y-31175D03*
X52125Y-31175D03*
X52125Y-31775D03*
X55725Y-30575D03*
X55725Y-31175D03*
X65125Y-43025D03*
X65125Y-42425D03*
X55725Y-30125D03*
X55725Y-29525D03*
X51875Y-28875D03*
X51875Y-29475D03*
X63625Y-38675D03*
X63625Y-39275D03*
X59325Y-41025D03*
X59325Y-41625D03*
G54D20*
X74625Y-43825D03*
X74025Y-43825D03*
G54D10*
G36*
X71115Y-23533D02*
X71433Y-23215D01*
X71610Y-23392D01*
X71292Y-23710D01*
X71115Y-23533D01*
X71115Y-23533D01*
G37*
G36*
X71539Y-23957D02*
X71857Y-23639D01*
X72034Y-23816D01*
X71716Y-24134D01*
X71539Y-23957D01*
X71539Y-23957D01*
G37*
G54D21*
X59275Y-28525D03*
X59275Y-27925D03*
G54D20*
X58175Y-26525D03*
X58775Y-26525D03*
X62575Y-47325D03*
X61975Y-47325D03*
X55475Y-25625D03*
X56075Y-25625D03*
G54D21*
X42675Y-38525D03*
X42675Y-39125D03*
G54D10*
G36*
X70683Y-53984D02*
X70365Y-53666D01*
X70542Y-53489D01*
X70860Y-53807D01*
X70683Y-53984D01*
X70683Y-53984D01*
G37*
G36*
X71107Y-53560D02*
X70789Y-53242D01*
X70966Y-53065D01*
X71284Y-53383D01*
X71107Y-53560D01*
X71107Y-53560D01*
G37*
G54D20*
X51675Y-36825D03*
X52275Y-36825D03*
G54D21*
X53825Y-36025D03*
X53825Y-36625D03*
G54D10*
G36*
X70833Y-44334D02*
X70515Y-44016D01*
X70692Y-43839D01*
X71010Y-44157D01*
X70833Y-44334D01*
X70833Y-44334D01*
G37*
G36*
X71257Y-43910D02*
X70939Y-43592D01*
X71116Y-43415D01*
X71434Y-43733D01*
X71257Y-43910D01*
X71257Y-43910D01*
G37*
G54D20*
X70375Y-31275D03*
X70975Y-31275D03*
X54575Y-35975D03*
X55175Y-35975D03*
G54D21*
X55475Y-33975D03*
X55475Y-34575D03*
X65725Y-26675D03*
X65725Y-27275D03*
X65025Y-27275D03*
X65025Y-26675D03*
X61425Y-27775D03*
X61425Y-27175D03*
G54D20*
X50925Y-52425D03*
X51525Y-52425D03*
X55225Y-39975D03*
X55825Y-39975D03*
G54D21*
X61425Y-28275D03*
X61425Y-28875D03*
X59325Y-39425D03*
X59325Y-38825D03*
X62525Y-46475D03*
X62525Y-45875D03*
X61675Y-49375D03*
X61675Y-48775D03*
X55475Y-38775D03*
X55475Y-39375D03*
X71275Y-49375D03*
X71275Y-48775D03*
G54D20*
X70375Y-47325D03*
X70975Y-47325D03*
G54D21*
X69675Y-47475D03*
X69675Y-46875D03*
G54D20*
X67475Y-46575D03*
X68075Y-46575D03*
X55725Y-31775D03*
X56325Y-31775D03*
G54D21*
X59325Y-39925D03*
X59325Y-40525D03*
X39925Y-44775D03*
X39925Y-45375D03*
X55075Y-41125D03*
X55075Y-40525D03*
X55725Y-40525D03*
X55725Y-41125D03*
G54D22*
X75675Y-36185D03*
X75675Y-35665D03*
X74875Y-35925D03*
G54D23*
X74385Y-35075D03*
X73865Y-35075D03*
X74125Y-35875D03*
G54D24*
X54325Y-42425D03*
X53325Y-44275D03*
X55325Y-44275D03*
G54D25*
X65375Y-35375D03*
X63525Y-34375D03*
X63525Y-36375D03*
X52975Y-42025D03*
X51125Y-41025D03*
X51125Y-43025D03*
G54D24*
X65825Y-34025D03*
X66825Y-32175D03*
X64825Y-32175D03*
G54D25*
X67325Y-42725D03*
X65475Y-41725D03*
X65475Y-43725D03*
G54D24*
X40275Y-33575D03*
X41275Y-31725D03*
X39275Y-31725D03*
G54D25*
X60725Y-38175D03*
X62575Y-39175D03*
X62575Y-37175D03*
G54D24*
X59375Y-37725D03*
X60375Y-35875D03*
X58375Y-35875D03*
G54D25*
X63825Y-49075D03*
X61975Y-48075D03*
X61975Y-50075D03*
X69125Y-49075D03*
X70975Y-50075D03*
X70975Y-48075D03*
G54D24*
X67775Y-48725D03*
X68775Y-46875D03*
X66775Y-46875D03*
G54D25*
X46125Y-44975D03*
X44275Y-43975D03*
X44275Y-45975D03*
X62575Y-32175D03*
X60725Y-31175D03*
X60725Y-33175D03*
X57125Y-28225D03*
X58975Y-29225D03*
X58975Y-27225D03*
G54D24*
X55775Y-27775D03*
X56775Y-25925D03*
X54775Y-25925D03*
X51975Y-34675D03*
X50975Y-36525D03*
X52975Y-36525D03*
G54D25*
X53325Y-34275D03*
X55175Y-35275D03*
X55175Y-33275D03*
G54D24*
X65675Y-24725D03*
X66675Y-22875D03*
X64675Y-22875D03*
G54D25*
X67025Y-25075D03*
X68875Y-26075D03*
X68875Y-24075D03*
X61725Y-25075D03*
X59875Y-24075D03*
X59875Y-26075D03*
G54D24*
X62175Y-23725D03*
X63175Y-21875D03*
X61175Y-21875D03*
G54D25*
X52675Y-56075D03*
X54525Y-57075D03*
X54525Y-55075D03*
X70675Y-35375D03*
X72525Y-36375D03*
X72525Y-34375D03*
G54D24*
X69325Y-35025D03*
X70325Y-33175D03*
X68325Y-33175D03*
X43400Y-24750D03*
X44400Y-22900D03*
X42400Y-22900D03*
G54D25*
X44750Y-25099D03*
X46600Y-26099D03*
X46600Y-24099D03*
X39450Y-25099D03*
X37600Y-24099D03*
X37600Y-26099D03*
G54D24*
X39900Y-23750D03*
X40900Y-21900D03*
X38900Y-21900D03*
G54D25*
X67875Y-56225D03*
X66025Y-55225D03*
X66025Y-57225D03*
X46725Y-38725D03*
X48575Y-39725D03*
X48575Y-37725D03*
G54D24*
X46325Y-37375D03*
X47325Y-35525D03*
X45325Y-35525D03*
X60325Y-53275D03*
X61325Y-51425D03*
X59325Y-51425D03*
G54D25*
X39825Y-34925D03*
X37975Y-33925D03*
X37975Y-35925D03*
X56475Y-50025D03*
X58325Y-51025D03*
X58325Y-49025D03*
G54D24*
X55125Y-49575D03*
X56125Y-47725D03*
X54125Y-47725D03*
X44225Y-28125D03*
X43225Y-29975D03*
X45225Y-29975D03*
G54D25*
X51350Y-56150D03*
X49500Y-55150D03*
X49500Y-57150D03*
G54D24*
X64275Y-47725D03*
X65275Y-45875D03*
X63275Y-45875D03*
G54D26*
X36725Y-49075D03*
X35725Y-48075D03*
X37725Y-48075D03*
X37725Y-50075D03*
X35725Y-50075D03*
X36725Y-43875D03*
X35725Y-42875D03*
X37725Y-42875D03*
X37725Y-44875D03*
X35725Y-44875D03*
X36725Y-37975D03*
X35725Y-36975D03*
X37725Y-36975D03*
X37725Y-38975D03*
X35725Y-38975D03*
X46675Y-52075D03*
X47675Y-51075D03*
X47675Y-53075D03*
X45675Y-53075D03*
X45675Y-51075D03*
X74325Y-46025D03*
X73325Y-45025D03*
X75325Y-45025D03*
X75325Y-47025D03*
X73325Y-47025D03*
M02*
