M48
;DRILL file {Pcbnew (2013-may-18)-stable} date 2014年05月08日 星期四 10时05分26秒
;FORMAT={2:4/ absolute / inch / keep zeros}
FMAT,2
INCH,TZ
T1C0.016
T2C0.039
T3C0.059
T4C0.063
%
G90
G05
M72
T1
X036200Y-059253
X037310Y-041425
X038278Y-040694
X038411Y-023852
X039024Y-034031
X039091Y-025759
X039250Y-033538
X039575Y-036725
X040290Y-057565
X040360Y-028375
X040875Y-036475
X041125Y-038800
X041200Y-025100
X041203Y-039329
X041436Y-033225
X041500Y-047250
X041559Y-036291
X041925Y-043075
X042213Y-046604
X042383Y-042375
X042501Y-034486
X042575Y-036825
X043142Y-042908
X043202Y-032431
X043375Y-040887
X043475Y-036775
X043475Y-051275
X043711Y-028744
X043825Y-037475
X044025Y-049725
X044425Y-047375
X044875Y-048375
X045175Y-040475
X045175Y-041375
X045275Y-038275
X045281Y-034555
X045403Y-023882
X045605Y-029006
X045686Y-049250
X045953Y-057051
X045986Y-030214
X046025Y-039193
X046062Y-047825
X046125Y-041075
X046275Y-032525
X046325Y-043875
X046612Y-034644
X046725Y-045775
X046875Y-055075
X047220Y-038116
X047332Y-025094
X047375Y-041725
X047616Y-030266
X047919Y-034788
X048325Y-033325
X048354Y-032857
X048357Y-049901
X048385Y-038343
X048425Y-053925
X048475Y-047303
X048510Y-036350
X048575Y-045731
X049091Y-062050
X049352Y-040641
X049525Y-051675
X049525Y-052875
X049758Y-040262
X049775Y-033375
X049796Y-028800
X051292Y-055643
X051305Y-042375
X051437Y-029150
X051532Y-051801
X051558Y-044405
X051931Y-042888
X052026Y-028476
X052191Y-032378
X052225Y-050545
X052275Y-037309
X052600Y-047086
X052616Y-041312
X052775Y-054992
X052875Y-058875
X052975Y-060175
X053090Y-048689
X053225Y-057075
X053675Y-033035
X053864Y-055927
X054065Y-046774
X054238Y-030481
X054457Y-031143
X054675Y-058825
X055050Y-036489
X055379Y-055693
X055450Y-038392
X055700Y-050525
X055725Y-051850
X055858Y-042683
X056052Y-026106
X056096Y-056887
X056125Y-059825
X056514Y-054618
X056618Y-042857
X056625Y-058875
X056679Y-038256
X056681Y-050538
X056833Y-032735
X056893Y-046643
X057206Y-040278
X057261Y-060841
X057550Y-046408
X057710Y-037762
X057875Y-059125
X058325Y-056889
X058373Y-061635
X058383Y-033200
X058504Y-028003
X058551Y-031798
X058646Y-025223
X058647Y-057625
X058736Y-042533
X058982Y-061980
X059066Y-036094
X059075Y-052425
X059375Y-059500
X059646Y-059091
X059646Y-036766
X059781Y-027097
X059931Y-061370
X060011Y-028015
X060800Y-058182
X060858Y-023663
X061136Y-055764
X061508Y-033553
X061688Y-040237
X061831Y-051425
X062069Y-057375
X062175Y-053275
X062650Y-028050
X062731Y-042975
X062850Y-047874
X063190Y-059376
X063593Y-042841
X063616Y-057460
X063711Y-050725
X063727Y-034975
X063975Y-025075
X064045Y-030020
X064125Y-033175
X064259Y-056235
X064725Y-025075
X064739Y-052338
X065050Y-033225
X065225Y-059634
X065438Y-058975
X065475Y-032825
X065575Y-049075
X065963Y-030775
X066025Y-057731
X066209Y-023575
X066225Y-045575
X066525Y-044675
X066678Y-054443
X066725Y-048475
X066748Y-058062
X066981Y-030275
X067125Y-035375
X067256Y-029728
X067300Y-034003
X067600Y-053643
X067675Y-026825
X067687Y-039966
X067771Y-032683
X068075Y-058167
X068287Y-028879
X068668Y-042066
X068846Y-044142
X069144Y-039931
X069625Y-032374
X069666Y-024775
X069800Y-030525
X069891Y-047860
X070200Y-034400
X070425Y-041275
X070485Y-045385
X070635Y-046075
X071850Y-032367
X072225Y-033025
X072717Y-039225
X072825Y-031700
X072908Y-040845
X073175Y-043325
X073389Y-041919
X073650Y-024850
X073700Y-027834
X073750Y-037150
X073850Y-042475
X073925Y-031471
X074025Y-038800
X074050Y-033050
X074100Y-028425
X074525Y-032350
X074568Y-023168
X074620Y-042475
X074625Y-033000
X074756Y-029004
X075016Y-024153
X075880Y-040909
X075984Y-037118
X076129Y-041533
X076603Y-036944
X076740Y-034861
X077105Y-032535
T2
X037500Y-059125
X037500Y-060125
X038500Y-059125
X038500Y-060125
X039500Y-059125
X039500Y-060125
X040500Y-059125
X040500Y-060125
X041500Y-059125
X041500Y-060125
X042500Y-059125
X042500Y-060125
X043500Y-059125
X043500Y-060125
X044500Y-059125
X044500Y-060125
X045500Y-059125
X045500Y-060125
X046500Y-059125
X046500Y-060125
X047500Y-059125
X047500Y-060125
X048500Y-059125
X048500Y-060125
X049500Y-059125
X049500Y-060125
T3
X036725Y-037975
X036725Y-043875
X036725Y-049075
X046675Y-052075
X074325Y-046025
T4
X035725Y-036975
X035725Y-038975
X035725Y-042875
X035725Y-044875
X035725Y-048075
X035725Y-050075
X037725Y-036975
X037725Y-038975
X037725Y-042875
X037725Y-044875
X037725Y-048075
X037725Y-050075
X045675Y-051075
X045675Y-053075
X047675Y-051075
X047675Y-053075
X073325Y-045025
X073325Y-047025
X075325Y-045025
X075325Y-047025
T0
M30
