G04 (created by PCBNEW (2013-may-18)-stable) date 2014年05月12日 星期一 23时21分15秒*
%MOIN*%
G04 Gerber Fmt 3.4, Leading zero omitted, Abs format*
%FSLAX34Y34*%
G01*
G70*
G90*
G04 APERTURE LIST*
%ADD10C,0.00590551*%
%ADD11C,0.005*%
%ADD12C,0.008*%
%ADD13C,0.0045*%
%ADD14C,0.0024*%
%ADD15C,0.006*%
G04 APERTURE END LIST*
G54D10*
G54D11*
X69225Y-43475D02*
X68325Y-43475D01*
X68325Y-43475D02*
X68325Y-42825D01*
X69225Y-42125D02*
X69225Y-41475D01*
X69225Y-41475D02*
X68325Y-41475D01*
X68325Y-41475D02*
X68325Y-42125D01*
X69225Y-42825D02*
X69225Y-43475D01*
X70725Y-41775D02*
X71625Y-41775D01*
X71625Y-41775D02*
X71625Y-42425D01*
X70725Y-43125D02*
X70725Y-43775D01*
X70725Y-43775D02*
X71625Y-43775D01*
X71625Y-43775D02*
X71625Y-43125D01*
X70725Y-42425D02*
X70725Y-41775D01*
X69225Y-45675D02*
X68325Y-45675D01*
X68325Y-45675D02*
X68325Y-45025D01*
X69225Y-44325D02*
X69225Y-43675D01*
X69225Y-43675D02*
X68325Y-43675D01*
X68325Y-43675D02*
X68325Y-44325D01*
X69225Y-45025D02*
X69225Y-45675D01*
X71625Y-41575D02*
X70725Y-41575D01*
X70725Y-41575D02*
X70725Y-40925D01*
X71625Y-40225D02*
X71625Y-39575D01*
X71625Y-39575D02*
X70725Y-39575D01*
X70725Y-39575D02*
X70725Y-40225D01*
X71625Y-40925D02*
X71625Y-41575D01*
X40624Y-38675D02*
X40624Y-37775D01*
X40624Y-37775D02*
X41274Y-37775D01*
X41974Y-38675D02*
X42624Y-38675D01*
X42624Y-38675D02*
X42624Y-37775D01*
X42624Y-37775D02*
X41974Y-37775D01*
X41274Y-38675D02*
X40624Y-38675D01*
X36750Y-43425D02*
X35850Y-43425D01*
X35850Y-43425D02*
X35850Y-42775D01*
X36750Y-42075D02*
X36750Y-41425D01*
X36750Y-41425D02*
X35850Y-41425D01*
X35850Y-41425D02*
X35850Y-42075D01*
X36750Y-42775D02*
X36750Y-43425D01*
X37900Y-44475D02*
X37900Y-45375D01*
X37900Y-45375D02*
X37250Y-45375D01*
X36550Y-44475D02*
X35900Y-44475D01*
X35900Y-44475D02*
X35900Y-45375D01*
X35900Y-45375D02*
X36550Y-45375D01*
X37250Y-44475D02*
X37900Y-44475D01*
X41174Y-43425D02*
X40274Y-43425D01*
X40274Y-43425D02*
X40274Y-42775D01*
X41174Y-42075D02*
X41174Y-41425D01*
X41174Y-41425D02*
X40274Y-41425D01*
X40274Y-41425D02*
X40274Y-42075D01*
X41174Y-42775D02*
X41174Y-43425D01*
X42324Y-44475D02*
X42324Y-45375D01*
X42324Y-45375D02*
X41674Y-45375D01*
X40974Y-44475D02*
X40324Y-44475D01*
X40324Y-44475D02*
X40324Y-45375D01*
X40324Y-45375D02*
X40974Y-45375D01*
X41674Y-44475D02*
X42324Y-44475D01*
X36550Y-46675D02*
X36550Y-45775D01*
X36550Y-45775D02*
X37200Y-45775D01*
X37900Y-46675D02*
X38550Y-46675D01*
X38550Y-46675D02*
X38550Y-45775D01*
X38550Y-45775D02*
X37900Y-45775D01*
X37200Y-46675D02*
X36550Y-46675D01*
X38200Y-36700D02*
X38200Y-37600D01*
X38200Y-37600D02*
X37550Y-37600D01*
X36850Y-36700D02*
X36200Y-36700D01*
X36200Y-36700D02*
X36200Y-37600D01*
X36200Y-37600D02*
X36850Y-37600D01*
X37550Y-36700D02*
X38200Y-36700D01*
X42950Y-46775D02*
X42950Y-47675D01*
X42950Y-47675D02*
X42300Y-47675D01*
X41600Y-46775D02*
X40950Y-46775D01*
X40950Y-46775D02*
X40950Y-47675D01*
X40950Y-47675D02*
X41600Y-47675D01*
X42300Y-46775D02*
X42950Y-46775D01*
X40624Y-37600D02*
X40624Y-36700D01*
X40624Y-36700D02*
X41274Y-36700D01*
X41974Y-37600D02*
X42624Y-37600D01*
X42624Y-37600D02*
X42624Y-36700D01*
X42624Y-36700D02*
X41974Y-36700D01*
X41274Y-37600D02*
X40624Y-37600D01*
X38200Y-37775D02*
X38200Y-38675D01*
X38200Y-38675D02*
X37550Y-38675D01*
X36850Y-37775D02*
X36200Y-37775D01*
X36200Y-37775D02*
X36200Y-38675D01*
X36200Y-38675D02*
X36850Y-38675D01*
X37550Y-37775D02*
X38200Y-37775D01*
X36550Y-47675D02*
X36550Y-46775D01*
X36550Y-46775D02*
X37200Y-46775D01*
X37900Y-47675D02*
X38550Y-47675D01*
X38550Y-47675D02*
X38550Y-46775D01*
X38550Y-46775D02*
X37900Y-46775D01*
X37200Y-47675D02*
X36550Y-47675D01*
X42950Y-45775D02*
X42950Y-46675D01*
X42950Y-46675D02*
X42300Y-46675D01*
X41600Y-45775D02*
X40950Y-45775D01*
X40950Y-45775D02*
X40950Y-46675D01*
X40950Y-46675D02*
X41600Y-46675D01*
X42300Y-45775D02*
X42950Y-45775D01*
X71500Y-44050D02*
X70600Y-44050D01*
X70600Y-44050D02*
X70600Y-44550D01*
X70600Y-44550D02*
X71500Y-44550D01*
X71500Y-44550D02*
X71500Y-44050D01*
X70350Y-44975D02*
X70350Y-44075D01*
X70350Y-44075D02*
X69850Y-44075D01*
X69850Y-44075D02*
X69850Y-44975D01*
X69850Y-44975D02*
X70350Y-44975D01*
X69625Y-40100D02*
X70525Y-40100D01*
X70525Y-40100D02*
X70525Y-39600D01*
X70525Y-39600D02*
X69625Y-39600D01*
X69625Y-39600D02*
X69625Y-40100D01*
X71925Y-40875D02*
X71925Y-41775D01*
X71925Y-41775D02*
X72425Y-41775D01*
X72425Y-41775D02*
X72425Y-40875D01*
X72425Y-40875D02*
X71925Y-40875D01*
X71925Y-43575D02*
X71925Y-44475D01*
X71925Y-44475D02*
X72425Y-44475D01*
X72425Y-44475D02*
X72425Y-43575D01*
X72425Y-43575D02*
X71925Y-43575D01*
X69600Y-40275D02*
X69600Y-41175D01*
X69600Y-41175D02*
X70100Y-41175D01*
X70100Y-41175D02*
X70100Y-40275D01*
X70100Y-40275D02*
X69600Y-40275D01*
X78925Y-45875D02*
X78025Y-45875D01*
X78025Y-45875D02*
X78025Y-46375D01*
X78025Y-46375D02*
X78925Y-46375D01*
X78925Y-46375D02*
X78925Y-45875D01*
X78925Y-44875D02*
X78025Y-44875D01*
X78025Y-44875D02*
X78025Y-45375D01*
X78025Y-45375D02*
X78925Y-45375D01*
X78925Y-45375D02*
X78925Y-44875D01*
X78925Y-38825D02*
X78025Y-38825D01*
X78025Y-38825D02*
X78025Y-39325D01*
X78025Y-39325D02*
X78925Y-39325D01*
X78925Y-39325D02*
X78925Y-38825D01*
X78925Y-37825D02*
X78025Y-37825D01*
X78025Y-37825D02*
X78025Y-38325D01*
X78025Y-38325D02*
X78925Y-38325D01*
X78925Y-38325D02*
X78925Y-37825D01*
X73925Y-37925D02*
X73925Y-38825D01*
X73925Y-38825D02*
X74425Y-38825D01*
X74425Y-38825D02*
X74425Y-37925D01*
X74425Y-37925D02*
X73925Y-37925D01*
X74425Y-45275D02*
X74425Y-44375D01*
X74425Y-44375D02*
X73925Y-44375D01*
X73925Y-44375D02*
X73925Y-45275D01*
X73925Y-45275D02*
X74425Y-45275D01*
X65000Y-43075D02*
X65000Y-42175D01*
X65000Y-42175D02*
X64500Y-42175D01*
X64500Y-42175D02*
X64500Y-43075D01*
X64500Y-43075D02*
X65000Y-43075D01*
X73075Y-44380D02*
X73075Y-44600D01*
X73330Y-43870D02*
X73330Y-43650D01*
X72820Y-43870D02*
X72820Y-43650D01*
X72640Y-44380D02*
X73510Y-44380D01*
X73510Y-44380D02*
X73510Y-43870D01*
X73510Y-43870D02*
X72640Y-43870D01*
X72640Y-43870D02*
X72640Y-44380D01*
X74175Y-40780D02*
X74175Y-41000D01*
X74430Y-40270D02*
X74430Y-40050D01*
X73920Y-40270D02*
X73920Y-40050D01*
X73740Y-40780D02*
X74610Y-40780D01*
X74610Y-40780D02*
X74610Y-40270D01*
X74610Y-40270D02*
X73740Y-40270D01*
X73740Y-40270D02*
X73740Y-40780D01*
X73075Y-41480D02*
X73075Y-41700D01*
X73330Y-40970D02*
X73330Y-40750D01*
X72820Y-40970D02*
X72820Y-40750D01*
X72640Y-41480D02*
X73510Y-41480D01*
X73510Y-41480D02*
X73510Y-40970D01*
X73510Y-40970D02*
X72640Y-40970D01*
X72640Y-40970D02*
X72640Y-41480D01*
X74175Y-43430D02*
X74175Y-43650D01*
X74430Y-42920D02*
X74430Y-42700D01*
X73920Y-42920D02*
X73920Y-42700D01*
X73740Y-43430D02*
X74610Y-43430D01*
X74610Y-43430D02*
X74610Y-42920D01*
X74610Y-42920D02*
X73740Y-42920D01*
X73740Y-42920D02*
X73740Y-43430D01*
G54D12*
X70100Y-43250D02*
X70600Y-42775D01*
X70600Y-43250D02*
X69350Y-43250D01*
X69350Y-43250D02*
X69350Y-42000D01*
X69350Y-42000D02*
X70600Y-42000D01*
X70600Y-42000D02*
X70600Y-43250D01*
X37375Y-42600D02*
X36875Y-43075D01*
X36875Y-42600D02*
X38125Y-42600D01*
X38125Y-42600D02*
X38125Y-43850D01*
X38125Y-43850D02*
X36875Y-43850D01*
X36875Y-43850D02*
X36875Y-42600D01*
X41799Y-42600D02*
X41299Y-43075D01*
X41299Y-42600D02*
X42549Y-42600D01*
X42549Y-42600D02*
X42549Y-43850D01*
X42549Y-43850D02*
X41299Y-43850D01*
X41299Y-43850D02*
X41299Y-42600D01*
G54D10*
X65362Y-40180D02*
X65362Y-42069D01*
X65362Y-42069D02*
X66937Y-42069D01*
X66937Y-42069D02*
X66937Y-40180D01*
X66937Y-40180D02*
X65362Y-40180D01*
X66937Y-45069D02*
X66937Y-43180D01*
X66937Y-43180D02*
X65362Y-43180D01*
X65362Y-43180D02*
X65362Y-45069D01*
X65362Y-45069D02*
X66937Y-45069D01*
X40374Y-41225D02*
X42874Y-41225D01*
X42874Y-41225D02*
X42874Y-39525D01*
X42874Y-39525D02*
X40374Y-39525D01*
X40374Y-39525D02*
X40374Y-41225D01*
X35950Y-41225D02*
X38450Y-41225D01*
X38450Y-41225D02*
X38450Y-39525D01*
X38450Y-39525D02*
X35950Y-39525D01*
X35950Y-39525D02*
X35950Y-41225D01*
G54D11*
X68868Y-42282D02*
X68882Y-42267D01*
X68896Y-42225D01*
X68896Y-42196D01*
X68882Y-42153D01*
X68853Y-42125D01*
X68825Y-42110D01*
X68768Y-42096D01*
X68725Y-42096D01*
X68668Y-42110D01*
X68639Y-42125D01*
X68610Y-42153D01*
X68596Y-42196D01*
X68596Y-42225D01*
X68610Y-42267D01*
X68625Y-42282D01*
X68596Y-42382D02*
X68596Y-42567D01*
X68710Y-42467D01*
X68710Y-42510D01*
X68725Y-42539D01*
X68739Y-42553D01*
X68768Y-42567D01*
X68839Y-42567D01*
X68868Y-42553D01*
X68882Y-42539D01*
X68896Y-42510D01*
X68896Y-42425D01*
X68882Y-42396D01*
X68868Y-42382D01*
X68896Y-42853D02*
X68896Y-42682D01*
X68896Y-42767D02*
X68596Y-42767D01*
X68639Y-42739D01*
X68668Y-42710D01*
X68682Y-42682D01*
X71268Y-42582D02*
X71282Y-42567D01*
X71296Y-42525D01*
X71296Y-42496D01*
X71282Y-42453D01*
X71253Y-42425D01*
X71225Y-42410D01*
X71168Y-42396D01*
X71125Y-42396D01*
X71068Y-42410D01*
X71039Y-42425D01*
X71010Y-42453D01*
X70996Y-42496D01*
X70996Y-42525D01*
X71010Y-42567D01*
X71025Y-42582D01*
X71025Y-42696D02*
X71010Y-42710D01*
X70996Y-42739D01*
X70996Y-42810D01*
X71010Y-42839D01*
X71025Y-42853D01*
X71053Y-42867D01*
X71082Y-42867D01*
X71125Y-42853D01*
X71296Y-42682D01*
X71296Y-42867D01*
X71125Y-43039D02*
X71110Y-43010D01*
X71096Y-42996D01*
X71068Y-42982D01*
X71053Y-42982D01*
X71025Y-42996D01*
X71010Y-43010D01*
X70996Y-43039D01*
X70996Y-43096D01*
X71010Y-43125D01*
X71025Y-43139D01*
X71053Y-43153D01*
X71068Y-43153D01*
X71096Y-43139D01*
X71110Y-43125D01*
X71125Y-43096D01*
X71125Y-43039D01*
X71139Y-43010D01*
X71153Y-42996D01*
X71182Y-42982D01*
X71239Y-42982D01*
X71268Y-42996D01*
X71282Y-43010D01*
X71296Y-43039D01*
X71296Y-43096D01*
X71282Y-43125D01*
X71268Y-43139D01*
X71239Y-43153D01*
X71182Y-43153D01*
X71153Y-43139D01*
X71139Y-43125D01*
X71125Y-43096D01*
X68868Y-44482D02*
X68882Y-44467D01*
X68896Y-44425D01*
X68896Y-44396D01*
X68882Y-44353D01*
X68853Y-44325D01*
X68825Y-44310D01*
X68768Y-44296D01*
X68725Y-44296D01*
X68668Y-44310D01*
X68639Y-44325D01*
X68610Y-44353D01*
X68596Y-44396D01*
X68596Y-44425D01*
X68610Y-44467D01*
X68625Y-44482D01*
X68596Y-44582D02*
X68596Y-44767D01*
X68710Y-44667D01*
X68710Y-44710D01*
X68725Y-44739D01*
X68739Y-44753D01*
X68768Y-44767D01*
X68839Y-44767D01*
X68868Y-44753D01*
X68882Y-44739D01*
X68896Y-44710D01*
X68896Y-44625D01*
X68882Y-44596D01*
X68868Y-44582D01*
X68596Y-44953D02*
X68596Y-44982D01*
X68610Y-45010D01*
X68625Y-45025D01*
X68653Y-45039D01*
X68710Y-45053D01*
X68782Y-45053D01*
X68839Y-45039D01*
X68868Y-45025D01*
X68882Y-45010D01*
X68896Y-44982D01*
X68896Y-44953D01*
X68882Y-44925D01*
X68868Y-44910D01*
X68839Y-44896D01*
X68782Y-44882D01*
X68710Y-44882D01*
X68653Y-44896D01*
X68625Y-44910D01*
X68610Y-44925D01*
X68596Y-44953D01*
X71268Y-40382D02*
X71282Y-40367D01*
X71296Y-40325D01*
X71296Y-40296D01*
X71282Y-40253D01*
X71253Y-40225D01*
X71225Y-40210D01*
X71168Y-40196D01*
X71125Y-40196D01*
X71068Y-40210D01*
X71039Y-40225D01*
X71010Y-40253D01*
X70996Y-40296D01*
X70996Y-40325D01*
X71010Y-40367D01*
X71025Y-40382D01*
X71025Y-40496D02*
X71010Y-40510D01*
X70996Y-40539D01*
X70996Y-40610D01*
X71010Y-40639D01*
X71025Y-40653D01*
X71053Y-40667D01*
X71082Y-40667D01*
X71125Y-40653D01*
X71296Y-40482D01*
X71296Y-40667D01*
X71296Y-40810D02*
X71296Y-40867D01*
X71282Y-40896D01*
X71268Y-40910D01*
X71225Y-40939D01*
X71168Y-40953D01*
X71053Y-40953D01*
X71025Y-40939D01*
X71010Y-40925D01*
X70996Y-40896D01*
X70996Y-40839D01*
X71010Y-40810D01*
X71025Y-40796D01*
X71053Y-40782D01*
X71125Y-40782D01*
X71153Y-40796D01*
X71168Y-40810D01*
X71182Y-40839D01*
X71182Y-40896D01*
X71168Y-40925D01*
X71153Y-40939D01*
X71125Y-40953D01*
X41674Y-38317D02*
X41689Y-38332D01*
X41731Y-38346D01*
X41760Y-38346D01*
X41803Y-38332D01*
X41831Y-38303D01*
X41846Y-38275D01*
X41860Y-38217D01*
X41860Y-38175D01*
X41846Y-38117D01*
X41831Y-38089D01*
X41803Y-38060D01*
X41760Y-38046D01*
X41731Y-38046D01*
X41689Y-38060D01*
X41674Y-38075D01*
X41389Y-38346D02*
X41560Y-38346D01*
X41474Y-38346D02*
X41474Y-38046D01*
X41503Y-38089D01*
X41531Y-38117D01*
X41560Y-38132D01*
X36392Y-42232D02*
X36407Y-42217D01*
X36421Y-42175D01*
X36421Y-42146D01*
X36407Y-42103D01*
X36378Y-42075D01*
X36350Y-42060D01*
X36292Y-42046D01*
X36250Y-42046D01*
X36192Y-42060D01*
X36164Y-42075D01*
X36135Y-42103D01*
X36121Y-42146D01*
X36121Y-42175D01*
X36135Y-42217D01*
X36150Y-42232D01*
X36150Y-42346D02*
X36135Y-42360D01*
X36121Y-42389D01*
X36121Y-42460D01*
X36135Y-42489D01*
X36150Y-42503D01*
X36178Y-42517D01*
X36207Y-42517D01*
X36250Y-42503D01*
X36421Y-42332D01*
X36421Y-42517D01*
X36121Y-42617D02*
X36121Y-42803D01*
X36235Y-42703D01*
X36235Y-42746D01*
X36250Y-42775D01*
X36264Y-42789D01*
X36292Y-42803D01*
X36364Y-42803D01*
X36392Y-42789D01*
X36407Y-42775D01*
X36421Y-42746D01*
X36421Y-42660D01*
X36407Y-42632D01*
X36392Y-42617D01*
X37092Y-45017D02*
X37107Y-45032D01*
X37150Y-45046D01*
X37178Y-45046D01*
X37221Y-45032D01*
X37250Y-45003D01*
X37264Y-44975D01*
X37278Y-44917D01*
X37278Y-44875D01*
X37264Y-44817D01*
X37250Y-44789D01*
X37221Y-44760D01*
X37178Y-44746D01*
X37150Y-44746D01*
X37107Y-44760D01*
X37092Y-44775D01*
X36978Y-44775D02*
X36964Y-44760D01*
X36935Y-44746D01*
X36864Y-44746D01*
X36835Y-44760D01*
X36821Y-44775D01*
X36807Y-44803D01*
X36807Y-44832D01*
X36821Y-44875D01*
X36992Y-45046D01*
X36807Y-45046D01*
X36550Y-44846D02*
X36550Y-45046D01*
X36621Y-44732D02*
X36692Y-44946D01*
X36507Y-44946D01*
X40817Y-42232D02*
X40831Y-42217D01*
X40846Y-42175D01*
X40846Y-42146D01*
X40831Y-42103D01*
X40803Y-42075D01*
X40774Y-42060D01*
X40717Y-42046D01*
X40674Y-42046D01*
X40617Y-42060D01*
X40589Y-42075D01*
X40560Y-42103D01*
X40546Y-42146D01*
X40546Y-42175D01*
X40560Y-42217D01*
X40574Y-42232D01*
X40846Y-42517D02*
X40846Y-42346D01*
X40846Y-42432D02*
X40546Y-42432D01*
X40589Y-42403D01*
X40617Y-42375D01*
X40631Y-42346D01*
X40846Y-42660D02*
X40846Y-42717D01*
X40831Y-42746D01*
X40817Y-42760D01*
X40774Y-42789D01*
X40717Y-42803D01*
X40603Y-42803D01*
X40574Y-42789D01*
X40560Y-42775D01*
X40546Y-42746D01*
X40546Y-42689D01*
X40560Y-42660D01*
X40574Y-42646D01*
X40603Y-42632D01*
X40674Y-42632D01*
X40703Y-42646D01*
X40717Y-42660D01*
X40731Y-42689D01*
X40731Y-42746D01*
X40717Y-42775D01*
X40703Y-42789D01*
X40674Y-42803D01*
X41517Y-45017D02*
X41531Y-45032D01*
X41574Y-45046D01*
X41603Y-45046D01*
X41646Y-45032D01*
X41674Y-45003D01*
X41689Y-44975D01*
X41703Y-44917D01*
X41703Y-44875D01*
X41689Y-44817D01*
X41674Y-44789D01*
X41646Y-44760D01*
X41603Y-44746D01*
X41574Y-44746D01*
X41531Y-44760D01*
X41517Y-44775D01*
X41403Y-44775D02*
X41389Y-44760D01*
X41360Y-44746D01*
X41289Y-44746D01*
X41260Y-44760D01*
X41246Y-44775D01*
X41231Y-44803D01*
X41231Y-44832D01*
X41246Y-44875D01*
X41417Y-45046D01*
X41231Y-45046D01*
X41046Y-44746D02*
X41017Y-44746D01*
X40989Y-44760D01*
X40974Y-44775D01*
X40960Y-44803D01*
X40946Y-44860D01*
X40946Y-44932D01*
X40960Y-44989D01*
X40974Y-45017D01*
X40989Y-45032D01*
X41017Y-45046D01*
X41046Y-45046D01*
X41074Y-45032D01*
X41089Y-45017D01*
X41103Y-44989D01*
X41117Y-44932D01*
X41117Y-44860D01*
X41103Y-44803D01*
X41089Y-44775D01*
X41074Y-44760D01*
X41046Y-44746D01*
X37742Y-46317D02*
X37757Y-46332D01*
X37800Y-46346D01*
X37828Y-46346D01*
X37871Y-46332D01*
X37900Y-46303D01*
X37914Y-46275D01*
X37928Y-46217D01*
X37928Y-46175D01*
X37914Y-46117D01*
X37900Y-46089D01*
X37871Y-46060D01*
X37828Y-46046D01*
X37800Y-46046D01*
X37757Y-46060D01*
X37742Y-46075D01*
X37457Y-46346D02*
X37628Y-46346D01*
X37542Y-46346D02*
X37542Y-46046D01*
X37571Y-46089D01*
X37600Y-46117D01*
X37628Y-46132D01*
X37200Y-46046D02*
X37257Y-46046D01*
X37285Y-46060D01*
X37300Y-46075D01*
X37328Y-46117D01*
X37342Y-46175D01*
X37342Y-46289D01*
X37328Y-46317D01*
X37314Y-46332D01*
X37285Y-46346D01*
X37228Y-46346D01*
X37200Y-46332D01*
X37185Y-46317D01*
X37171Y-46289D01*
X37171Y-46217D01*
X37185Y-46189D01*
X37200Y-46175D01*
X37228Y-46160D01*
X37285Y-46160D01*
X37314Y-46175D01*
X37328Y-46189D01*
X37342Y-46217D01*
X37250Y-37243D02*
X37264Y-37257D01*
X37307Y-37271D01*
X37335Y-37271D01*
X37378Y-37257D01*
X37407Y-37228D01*
X37421Y-37200D01*
X37435Y-37143D01*
X37435Y-37100D01*
X37421Y-37043D01*
X37407Y-37014D01*
X37378Y-36985D01*
X37335Y-36971D01*
X37307Y-36971D01*
X37264Y-36985D01*
X37250Y-37000D01*
X37078Y-37100D02*
X37107Y-37085D01*
X37121Y-37071D01*
X37135Y-37043D01*
X37135Y-37028D01*
X37121Y-37000D01*
X37107Y-36985D01*
X37078Y-36971D01*
X37021Y-36971D01*
X36992Y-36985D01*
X36978Y-37000D01*
X36964Y-37028D01*
X36964Y-37043D01*
X36978Y-37071D01*
X36992Y-37085D01*
X37021Y-37100D01*
X37078Y-37100D01*
X37107Y-37114D01*
X37121Y-37128D01*
X37135Y-37157D01*
X37135Y-37214D01*
X37121Y-37243D01*
X37107Y-37257D01*
X37078Y-37271D01*
X37021Y-37271D01*
X36992Y-37257D01*
X36978Y-37243D01*
X36964Y-37214D01*
X36964Y-37157D01*
X36978Y-37128D01*
X36992Y-37114D01*
X37021Y-37100D01*
X42000Y-47317D02*
X42014Y-47332D01*
X42057Y-47346D01*
X42085Y-47346D01*
X42128Y-47332D01*
X42157Y-47303D01*
X42171Y-47275D01*
X42185Y-47217D01*
X42185Y-47175D01*
X42171Y-47117D01*
X42157Y-47089D01*
X42128Y-47060D01*
X42085Y-47046D01*
X42057Y-47046D01*
X42014Y-47060D01*
X42000Y-47075D01*
X41857Y-47346D02*
X41800Y-47346D01*
X41771Y-47332D01*
X41757Y-47317D01*
X41728Y-47275D01*
X41714Y-47217D01*
X41714Y-47103D01*
X41728Y-47075D01*
X41742Y-47060D01*
X41771Y-47046D01*
X41828Y-47046D01*
X41857Y-47060D01*
X41871Y-47075D01*
X41885Y-47103D01*
X41885Y-47175D01*
X41871Y-47203D01*
X41857Y-47217D01*
X41828Y-47232D01*
X41771Y-47232D01*
X41742Y-47217D01*
X41728Y-47203D01*
X41714Y-47175D01*
X41674Y-37243D02*
X41689Y-37257D01*
X41731Y-37271D01*
X41760Y-37271D01*
X41803Y-37257D01*
X41831Y-37228D01*
X41846Y-37200D01*
X41860Y-37143D01*
X41860Y-37100D01*
X41846Y-37043D01*
X41831Y-37014D01*
X41803Y-36985D01*
X41760Y-36971D01*
X41731Y-36971D01*
X41689Y-36985D01*
X41674Y-37000D01*
X41574Y-36971D02*
X41389Y-36971D01*
X41489Y-37085D01*
X41446Y-37085D01*
X41417Y-37100D01*
X41403Y-37114D01*
X41389Y-37143D01*
X41389Y-37214D01*
X41403Y-37243D01*
X41417Y-37257D01*
X41446Y-37271D01*
X41531Y-37271D01*
X41560Y-37257D01*
X41574Y-37243D01*
X37250Y-38317D02*
X37264Y-38332D01*
X37307Y-38346D01*
X37335Y-38346D01*
X37378Y-38332D01*
X37407Y-38303D01*
X37421Y-38275D01*
X37435Y-38217D01*
X37435Y-38175D01*
X37421Y-38117D01*
X37407Y-38089D01*
X37378Y-38060D01*
X37335Y-38046D01*
X37307Y-38046D01*
X37264Y-38060D01*
X37250Y-38075D01*
X36992Y-38046D02*
X37050Y-38046D01*
X37078Y-38060D01*
X37092Y-38075D01*
X37121Y-38117D01*
X37135Y-38175D01*
X37135Y-38289D01*
X37121Y-38317D01*
X37107Y-38332D01*
X37078Y-38346D01*
X37021Y-38346D01*
X36992Y-38332D01*
X36978Y-38317D01*
X36964Y-38289D01*
X36964Y-38217D01*
X36978Y-38189D01*
X36992Y-38175D01*
X37021Y-38160D01*
X37078Y-38160D01*
X37107Y-38175D01*
X37121Y-38189D01*
X37135Y-38217D01*
X37742Y-47317D02*
X37757Y-47332D01*
X37800Y-47346D01*
X37828Y-47346D01*
X37871Y-47332D01*
X37900Y-47303D01*
X37914Y-47275D01*
X37928Y-47217D01*
X37928Y-47175D01*
X37914Y-47117D01*
X37900Y-47089D01*
X37871Y-47060D01*
X37828Y-47046D01*
X37800Y-47046D01*
X37757Y-47060D01*
X37742Y-47075D01*
X37457Y-47346D02*
X37628Y-47346D01*
X37542Y-47346D02*
X37542Y-47046D01*
X37571Y-47089D01*
X37600Y-47117D01*
X37628Y-47132D01*
X37200Y-47146D02*
X37200Y-47346D01*
X37271Y-47032D02*
X37342Y-47246D01*
X37157Y-47246D01*
X42142Y-46317D02*
X42157Y-46332D01*
X42200Y-46346D01*
X42228Y-46346D01*
X42271Y-46332D01*
X42300Y-46303D01*
X42314Y-46275D01*
X42328Y-46217D01*
X42328Y-46175D01*
X42314Y-46117D01*
X42300Y-46089D01*
X42271Y-46060D01*
X42228Y-46046D01*
X42200Y-46046D01*
X42157Y-46060D01*
X42142Y-46075D01*
X41857Y-46346D02*
X42028Y-46346D01*
X41942Y-46346D02*
X41942Y-46046D01*
X41971Y-46089D01*
X42000Y-46117D01*
X42028Y-46132D01*
X41571Y-46346D02*
X41742Y-46346D01*
X41657Y-46346D02*
X41657Y-46046D01*
X41685Y-46089D01*
X41714Y-46117D01*
X41742Y-46132D01*
G54D13*
X71080Y-44380D02*
X71140Y-44285D01*
X71182Y-44380D02*
X71182Y-44180D01*
X71114Y-44180D01*
X71097Y-44190D01*
X71088Y-44200D01*
X71080Y-44219D01*
X71080Y-44247D01*
X71088Y-44266D01*
X71097Y-44276D01*
X71114Y-44285D01*
X71182Y-44285D01*
X70994Y-44380D02*
X70960Y-44380D01*
X70942Y-44371D01*
X70934Y-44361D01*
X70917Y-44333D01*
X70908Y-44295D01*
X70908Y-44219D01*
X70917Y-44200D01*
X70925Y-44190D01*
X70942Y-44180D01*
X70977Y-44180D01*
X70994Y-44190D01*
X71002Y-44200D01*
X71011Y-44219D01*
X71011Y-44266D01*
X71002Y-44285D01*
X70994Y-44295D01*
X70977Y-44304D01*
X70942Y-44304D01*
X70925Y-44295D01*
X70917Y-44285D01*
X70908Y-44266D01*
X70180Y-44495D02*
X70085Y-44435D01*
X70180Y-44392D02*
X69980Y-44392D01*
X69980Y-44460D01*
X69990Y-44477D01*
X70000Y-44486D01*
X70019Y-44495D01*
X70047Y-44495D01*
X70066Y-44486D01*
X70076Y-44477D01*
X70085Y-44460D01*
X70085Y-44392D01*
X70066Y-44597D02*
X70057Y-44580D01*
X70047Y-44572D01*
X70028Y-44563D01*
X70019Y-44563D01*
X70000Y-44572D01*
X69990Y-44580D01*
X69980Y-44597D01*
X69980Y-44632D01*
X69990Y-44649D01*
X70000Y-44657D01*
X70019Y-44666D01*
X70028Y-44666D01*
X70047Y-44657D01*
X70057Y-44649D01*
X70066Y-44632D01*
X70066Y-44597D01*
X70076Y-44580D01*
X70085Y-44572D01*
X70104Y-44563D01*
X70142Y-44563D01*
X70161Y-44572D01*
X70171Y-44580D01*
X70180Y-44597D01*
X70180Y-44632D01*
X70171Y-44649D01*
X70161Y-44657D01*
X70142Y-44666D01*
X70104Y-44666D01*
X70085Y-44657D01*
X70076Y-44649D01*
X70066Y-44632D01*
X70190Y-39930D02*
X70250Y-39835D01*
X70293Y-39930D02*
X70293Y-39730D01*
X70225Y-39730D01*
X70208Y-39740D01*
X70199Y-39750D01*
X70190Y-39769D01*
X70190Y-39797D01*
X70199Y-39816D01*
X70208Y-39826D01*
X70225Y-39835D01*
X70293Y-39835D01*
X70019Y-39930D02*
X70122Y-39930D01*
X70070Y-39930D02*
X70070Y-39730D01*
X70088Y-39759D01*
X70105Y-39778D01*
X70122Y-39788D01*
X69865Y-39797D02*
X69865Y-39930D01*
X69908Y-39721D02*
X69950Y-39864D01*
X69839Y-39864D01*
X72256Y-41209D02*
X72160Y-41149D01*
X72256Y-41106D02*
X72056Y-41106D01*
X72056Y-41175D01*
X72065Y-41192D01*
X72075Y-41200D01*
X72094Y-41209D01*
X72122Y-41209D01*
X72141Y-41200D01*
X72151Y-41192D01*
X72160Y-41175D01*
X72160Y-41106D01*
X72256Y-41380D02*
X72256Y-41277D01*
X72256Y-41329D02*
X72056Y-41329D01*
X72084Y-41312D01*
X72103Y-41295D01*
X72113Y-41277D01*
X72056Y-41543D02*
X72056Y-41457D01*
X72151Y-41449D01*
X72141Y-41457D01*
X72132Y-41475D01*
X72132Y-41517D01*
X72141Y-41535D01*
X72151Y-41543D01*
X72170Y-41552D01*
X72218Y-41552D01*
X72237Y-41543D01*
X72246Y-41535D01*
X72256Y-41517D01*
X72256Y-41475D01*
X72246Y-41457D01*
X72237Y-41449D01*
X72256Y-43909D02*
X72160Y-43849D01*
X72256Y-43806D02*
X72056Y-43806D01*
X72056Y-43875D01*
X72065Y-43892D01*
X72075Y-43900D01*
X72094Y-43909D01*
X72122Y-43909D01*
X72141Y-43900D01*
X72151Y-43892D01*
X72160Y-43875D01*
X72160Y-43806D01*
X72256Y-44080D02*
X72256Y-43977D01*
X72256Y-44029D02*
X72056Y-44029D01*
X72084Y-44012D01*
X72103Y-43995D01*
X72113Y-43977D01*
X72056Y-44192D02*
X72056Y-44209D01*
X72065Y-44226D01*
X72075Y-44235D01*
X72094Y-44243D01*
X72132Y-44252D01*
X72179Y-44252D01*
X72218Y-44243D01*
X72237Y-44235D01*
X72246Y-44226D01*
X72256Y-44209D01*
X72256Y-44192D01*
X72246Y-44175D01*
X72237Y-44166D01*
X72218Y-44157D01*
X72179Y-44149D01*
X72132Y-44149D01*
X72094Y-44157D01*
X72075Y-44166D01*
X72065Y-44175D01*
X72056Y-44192D01*
X69930Y-40609D02*
X69835Y-40549D01*
X69930Y-40506D02*
X69730Y-40506D01*
X69730Y-40575D01*
X69740Y-40592D01*
X69750Y-40600D01*
X69769Y-40609D01*
X69797Y-40609D01*
X69816Y-40600D01*
X69826Y-40592D01*
X69835Y-40575D01*
X69835Y-40506D01*
X69930Y-40780D02*
X69930Y-40677D01*
X69930Y-40729D02*
X69730Y-40729D01*
X69759Y-40712D01*
X69778Y-40695D01*
X69788Y-40677D01*
X69730Y-40840D02*
X69730Y-40952D01*
X69807Y-40892D01*
X69807Y-40917D01*
X69816Y-40935D01*
X69826Y-40943D01*
X69845Y-40952D01*
X69892Y-40952D01*
X69911Y-40943D01*
X69921Y-40935D01*
X69930Y-40917D01*
X69930Y-40866D01*
X69921Y-40849D01*
X69911Y-40840D01*
X78590Y-46205D02*
X78650Y-46110D01*
X78693Y-46205D02*
X78693Y-46005D01*
X78625Y-46005D01*
X78608Y-46015D01*
X78599Y-46025D01*
X78590Y-46044D01*
X78590Y-46072D01*
X78599Y-46091D01*
X78608Y-46101D01*
X78625Y-46110D01*
X78693Y-46110D01*
X78419Y-46205D02*
X78522Y-46205D01*
X78470Y-46205D02*
X78470Y-46005D01*
X78488Y-46034D01*
X78505Y-46053D01*
X78522Y-46063D01*
X78359Y-46005D02*
X78239Y-46005D01*
X78316Y-46205D01*
X78590Y-45205D02*
X78650Y-45110D01*
X78693Y-45205D02*
X78693Y-45005D01*
X78625Y-45005D01*
X78608Y-45015D01*
X78599Y-45025D01*
X78590Y-45044D01*
X78590Y-45072D01*
X78599Y-45091D01*
X78608Y-45101D01*
X78625Y-45110D01*
X78693Y-45110D01*
X78419Y-45205D02*
X78522Y-45205D01*
X78470Y-45205D02*
X78470Y-45005D01*
X78488Y-45034D01*
X78505Y-45053D01*
X78522Y-45063D01*
X78265Y-45005D02*
X78299Y-45005D01*
X78316Y-45015D01*
X78325Y-45025D01*
X78342Y-45053D01*
X78350Y-45091D01*
X78350Y-45167D01*
X78342Y-45186D01*
X78333Y-45196D01*
X78316Y-45205D01*
X78282Y-45205D01*
X78265Y-45196D01*
X78256Y-45186D01*
X78248Y-45167D01*
X78248Y-45120D01*
X78256Y-45101D01*
X78265Y-45091D01*
X78282Y-45082D01*
X78316Y-45082D01*
X78333Y-45091D01*
X78342Y-45101D01*
X78350Y-45120D01*
X78590Y-39155D02*
X78650Y-39060D01*
X78693Y-39155D02*
X78693Y-38955D01*
X78625Y-38955D01*
X78608Y-38965D01*
X78599Y-38975D01*
X78590Y-38994D01*
X78590Y-39022D01*
X78599Y-39041D01*
X78608Y-39051D01*
X78625Y-39060D01*
X78693Y-39060D01*
X78419Y-39155D02*
X78522Y-39155D01*
X78470Y-39155D02*
X78470Y-38955D01*
X78488Y-38984D01*
X78505Y-39003D01*
X78522Y-39013D01*
X78333Y-39155D02*
X78299Y-39155D01*
X78282Y-39146D01*
X78273Y-39136D01*
X78256Y-39108D01*
X78248Y-39070D01*
X78248Y-38994D01*
X78256Y-38975D01*
X78265Y-38965D01*
X78282Y-38955D01*
X78316Y-38955D01*
X78333Y-38965D01*
X78342Y-38975D01*
X78350Y-38994D01*
X78350Y-39041D01*
X78342Y-39060D01*
X78333Y-39070D01*
X78316Y-39079D01*
X78282Y-39079D01*
X78265Y-39070D01*
X78256Y-39060D01*
X78248Y-39041D01*
X78590Y-38155D02*
X78650Y-38060D01*
X78693Y-38155D02*
X78693Y-37955D01*
X78625Y-37955D01*
X78608Y-37965D01*
X78599Y-37975D01*
X78590Y-37994D01*
X78590Y-38022D01*
X78599Y-38041D01*
X78608Y-38051D01*
X78625Y-38060D01*
X78693Y-38060D01*
X78419Y-38155D02*
X78522Y-38155D01*
X78470Y-38155D02*
X78470Y-37955D01*
X78488Y-37984D01*
X78505Y-38003D01*
X78522Y-38013D01*
X78316Y-38041D02*
X78333Y-38032D01*
X78342Y-38022D01*
X78350Y-38003D01*
X78350Y-37994D01*
X78342Y-37975D01*
X78333Y-37965D01*
X78316Y-37955D01*
X78282Y-37955D01*
X78265Y-37965D01*
X78256Y-37975D01*
X78248Y-37994D01*
X78248Y-38003D01*
X78256Y-38022D01*
X78265Y-38032D01*
X78282Y-38041D01*
X78316Y-38041D01*
X78333Y-38051D01*
X78342Y-38060D01*
X78350Y-38079D01*
X78350Y-38117D01*
X78342Y-38136D01*
X78333Y-38146D01*
X78316Y-38155D01*
X78282Y-38155D01*
X78265Y-38146D01*
X78256Y-38136D01*
X78248Y-38117D01*
X78248Y-38079D01*
X78256Y-38060D01*
X78265Y-38051D01*
X78282Y-38041D01*
X74256Y-38259D02*
X74160Y-38199D01*
X74256Y-38156D02*
X74056Y-38156D01*
X74056Y-38225D01*
X74065Y-38242D01*
X74075Y-38250D01*
X74094Y-38259D01*
X74122Y-38259D01*
X74141Y-38250D01*
X74151Y-38242D01*
X74160Y-38225D01*
X74160Y-38156D01*
X74256Y-38430D02*
X74256Y-38327D01*
X74256Y-38379D02*
X74056Y-38379D01*
X74084Y-38362D01*
X74103Y-38345D01*
X74113Y-38327D01*
X74075Y-38499D02*
X74065Y-38507D01*
X74056Y-38525D01*
X74056Y-38567D01*
X74065Y-38585D01*
X74075Y-38593D01*
X74094Y-38602D01*
X74113Y-38602D01*
X74141Y-38593D01*
X74256Y-38490D01*
X74256Y-38602D01*
X74256Y-44709D02*
X74160Y-44649D01*
X74256Y-44606D02*
X74056Y-44606D01*
X74056Y-44675D01*
X74065Y-44692D01*
X74075Y-44700D01*
X74094Y-44709D01*
X74122Y-44709D01*
X74141Y-44700D01*
X74151Y-44692D01*
X74160Y-44675D01*
X74160Y-44606D01*
X74256Y-44880D02*
X74256Y-44777D01*
X74256Y-44829D02*
X74056Y-44829D01*
X74084Y-44812D01*
X74103Y-44795D01*
X74113Y-44777D01*
X74256Y-45052D02*
X74256Y-44949D01*
X74256Y-45000D02*
X74056Y-45000D01*
X74084Y-44983D01*
X74103Y-44966D01*
X74113Y-44949D01*
X64830Y-42595D02*
X64735Y-42535D01*
X64830Y-42492D02*
X64630Y-42492D01*
X64630Y-42560D01*
X64640Y-42577D01*
X64650Y-42586D01*
X64669Y-42595D01*
X64697Y-42595D01*
X64716Y-42586D01*
X64726Y-42577D01*
X64735Y-42560D01*
X64735Y-42492D01*
X64650Y-42663D02*
X64640Y-42672D01*
X64630Y-42689D01*
X64630Y-42732D01*
X64640Y-42749D01*
X64650Y-42757D01*
X64669Y-42766D01*
X64688Y-42766D01*
X64716Y-42757D01*
X64830Y-42655D01*
X64830Y-42766D01*
G54D14*
X73162Y-44302D02*
X73162Y-44184D01*
X73134Y-44184D01*
X73117Y-44190D01*
X73106Y-44201D01*
X73100Y-44212D01*
X73094Y-44235D01*
X73094Y-44252D01*
X73100Y-44274D01*
X73106Y-44285D01*
X73117Y-44297D01*
X73134Y-44302D01*
X73162Y-44302D01*
X73055Y-44184D02*
X72982Y-44184D01*
X73021Y-44229D01*
X73004Y-44229D01*
X72993Y-44235D01*
X72988Y-44240D01*
X72982Y-44252D01*
X72982Y-44280D01*
X72988Y-44291D01*
X72993Y-44297D01*
X73004Y-44302D01*
X73038Y-44302D01*
X73049Y-44297D01*
X73055Y-44291D01*
X74262Y-40702D02*
X74262Y-40584D01*
X74234Y-40584D01*
X74217Y-40590D01*
X74206Y-40601D01*
X74200Y-40612D01*
X74194Y-40635D01*
X74194Y-40652D01*
X74200Y-40674D01*
X74206Y-40685D01*
X74217Y-40697D01*
X74234Y-40702D01*
X74262Y-40702D01*
X74088Y-40584D02*
X74144Y-40584D01*
X74149Y-40640D01*
X74144Y-40635D01*
X74133Y-40629D01*
X74104Y-40629D01*
X74093Y-40635D01*
X74088Y-40640D01*
X74082Y-40652D01*
X74082Y-40680D01*
X74088Y-40691D01*
X74093Y-40697D01*
X74104Y-40702D01*
X74133Y-40702D01*
X74144Y-40697D01*
X74149Y-40691D01*
X73162Y-41402D02*
X73162Y-41284D01*
X73134Y-41284D01*
X73117Y-41290D01*
X73106Y-41301D01*
X73100Y-41312D01*
X73094Y-41335D01*
X73094Y-41352D01*
X73100Y-41374D01*
X73106Y-41385D01*
X73117Y-41397D01*
X73134Y-41402D01*
X73162Y-41402D01*
X72993Y-41284D02*
X73016Y-41284D01*
X73027Y-41290D01*
X73033Y-41296D01*
X73044Y-41312D01*
X73049Y-41335D01*
X73049Y-41380D01*
X73044Y-41391D01*
X73038Y-41397D01*
X73027Y-41402D01*
X73004Y-41402D01*
X72993Y-41397D01*
X72988Y-41391D01*
X72982Y-41380D01*
X72982Y-41352D01*
X72988Y-41340D01*
X72993Y-41335D01*
X73004Y-41329D01*
X73027Y-41329D01*
X73038Y-41335D01*
X73044Y-41340D01*
X73049Y-41352D01*
X74262Y-43352D02*
X74262Y-43234D01*
X74234Y-43234D01*
X74217Y-43240D01*
X74206Y-43251D01*
X74200Y-43262D01*
X74194Y-43285D01*
X74194Y-43302D01*
X74200Y-43324D01*
X74206Y-43335D01*
X74217Y-43347D01*
X74234Y-43352D01*
X74262Y-43352D01*
X74093Y-43274D02*
X74093Y-43352D01*
X74121Y-43229D02*
X74149Y-43313D01*
X74076Y-43313D01*
G54D15*
X70275Y-42640D02*
X70275Y-42959D01*
X70256Y-42996D01*
X70237Y-43015D01*
X70200Y-43034D01*
X70125Y-43034D01*
X70087Y-43015D01*
X70069Y-42996D01*
X70050Y-42959D01*
X70050Y-42640D01*
X69675Y-42640D02*
X69862Y-42640D01*
X69881Y-42828D01*
X69862Y-42809D01*
X69825Y-42790D01*
X69731Y-42790D01*
X69693Y-42809D01*
X69675Y-42828D01*
X69656Y-42865D01*
X69656Y-42959D01*
X69675Y-42996D01*
X69693Y-43015D01*
X69731Y-43034D01*
X69825Y-43034D01*
X69862Y-43015D01*
X69881Y-42996D01*
G54D11*
X71401Y-42484D02*
X71401Y-42090D01*
X71269Y-42371D01*
X71138Y-42090D01*
X71138Y-42484D01*
X70969Y-42371D02*
X70781Y-42371D01*
X71007Y-42484D02*
X70875Y-42090D01*
X70744Y-42484D01*
X70650Y-42090D02*
X70387Y-42484D01*
X70387Y-42090D02*
X70650Y-42484D01*
X70069Y-42221D02*
X70069Y-42484D01*
X70162Y-42071D02*
X70256Y-42353D01*
X70012Y-42353D01*
X69693Y-42221D02*
X69693Y-42484D01*
X69787Y-42071D02*
X69881Y-42353D01*
X69637Y-42353D01*
X69506Y-42128D02*
X69487Y-42109D01*
X69449Y-42090D01*
X69356Y-42090D01*
X69318Y-42109D01*
X69299Y-42128D01*
X69281Y-42165D01*
X69281Y-42203D01*
X69299Y-42259D01*
X69524Y-42484D01*
X69281Y-42484D01*
X68924Y-42090D02*
X69112Y-42090D01*
X69130Y-42278D01*
X69112Y-42259D01*
X69074Y-42240D01*
X68980Y-42240D01*
X68943Y-42259D01*
X68924Y-42278D01*
X68905Y-42315D01*
X68905Y-42409D01*
X68924Y-42446D01*
X68943Y-42465D01*
X68980Y-42484D01*
X69074Y-42484D01*
X69112Y-42465D01*
X69130Y-42446D01*
X68530Y-42484D02*
X68755Y-42484D01*
X68643Y-42484D02*
X68643Y-42090D01*
X68680Y-42146D01*
X68718Y-42184D01*
X68755Y-42203D01*
G54D15*
X37800Y-42740D02*
X37800Y-43059D01*
X37781Y-43096D01*
X37762Y-43115D01*
X37725Y-43134D01*
X37650Y-43134D01*
X37612Y-43115D01*
X37593Y-43096D01*
X37575Y-43059D01*
X37575Y-42740D01*
X37218Y-42871D02*
X37218Y-43134D01*
X37312Y-42721D02*
X37406Y-43003D01*
X37162Y-43003D01*
G54D11*
X38728Y-43290D02*
X38503Y-43290D01*
X38616Y-43684D02*
X38616Y-43290D01*
X38372Y-43684D02*
X38372Y-43290D01*
X38222Y-43290D01*
X38184Y-43309D01*
X38166Y-43328D01*
X38147Y-43365D01*
X38147Y-43421D01*
X38166Y-43459D01*
X38184Y-43478D01*
X38222Y-43496D01*
X38372Y-43496D01*
X37997Y-43665D02*
X37940Y-43684D01*
X37847Y-43684D01*
X37809Y-43665D01*
X37790Y-43646D01*
X37772Y-43609D01*
X37772Y-43571D01*
X37790Y-43534D01*
X37809Y-43515D01*
X37847Y-43496D01*
X37922Y-43478D01*
X37959Y-43459D01*
X37978Y-43440D01*
X37997Y-43403D01*
X37997Y-43365D01*
X37978Y-43328D01*
X37959Y-43309D01*
X37922Y-43290D01*
X37828Y-43290D01*
X37772Y-43309D01*
X37640Y-43290D02*
X37378Y-43290D01*
X37546Y-43684D01*
X37246Y-43571D02*
X37059Y-43571D01*
X37284Y-43684D02*
X37152Y-43290D01*
X37021Y-43684D01*
X36927Y-43290D02*
X36683Y-43290D01*
X36815Y-43440D01*
X36758Y-43440D01*
X36721Y-43459D01*
X36702Y-43478D01*
X36683Y-43515D01*
X36683Y-43609D01*
X36702Y-43646D01*
X36721Y-43665D01*
X36758Y-43684D01*
X36871Y-43684D01*
X36909Y-43665D01*
X36927Y-43646D01*
X36439Y-43290D02*
X36402Y-43290D01*
X36364Y-43309D01*
X36346Y-43328D01*
X36327Y-43365D01*
X36308Y-43440D01*
X36308Y-43534D01*
X36327Y-43609D01*
X36346Y-43646D01*
X36364Y-43665D01*
X36402Y-43684D01*
X36439Y-43684D01*
X36477Y-43665D01*
X36496Y-43646D01*
X36515Y-43609D01*
X36533Y-43534D01*
X36533Y-43440D01*
X36515Y-43365D01*
X36496Y-43328D01*
X36477Y-43309D01*
X36439Y-43290D01*
G54D15*
X42224Y-42740D02*
X42224Y-43059D01*
X42206Y-43096D01*
X42187Y-43115D01*
X42149Y-43134D01*
X42074Y-43134D01*
X42037Y-43115D01*
X42018Y-43096D01*
X41999Y-43059D01*
X41999Y-42740D01*
X41830Y-42778D02*
X41812Y-42759D01*
X41774Y-42740D01*
X41680Y-42740D01*
X41643Y-42759D01*
X41624Y-42778D01*
X41605Y-42815D01*
X41605Y-42853D01*
X41624Y-42909D01*
X41849Y-43134D01*
X41605Y-43134D01*
G54D11*
X43153Y-43290D02*
X42928Y-43290D01*
X43041Y-43684D02*
X43041Y-43290D01*
X42797Y-43684D02*
X42797Y-43290D01*
X42647Y-43290D01*
X42609Y-43309D01*
X42590Y-43328D01*
X42572Y-43365D01*
X42572Y-43421D01*
X42590Y-43459D01*
X42609Y-43478D01*
X42647Y-43496D01*
X42797Y-43496D01*
X42421Y-43665D02*
X42365Y-43684D01*
X42271Y-43684D01*
X42234Y-43665D01*
X42215Y-43646D01*
X42196Y-43609D01*
X42196Y-43571D01*
X42215Y-43534D01*
X42234Y-43515D01*
X42271Y-43496D01*
X42346Y-43478D01*
X42384Y-43459D01*
X42403Y-43440D01*
X42421Y-43403D01*
X42421Y-43365D01*
X42403Y-43328D01*
X42384Y-43309D01*
X42346Y-43290D01*
X42253Y-43290D01*
X42196Y-43309D01*
X42065Y-43290D02*
X41802Y-43290D01*
X41971Y-43684D01*
X41671Y-43571D02*
X41483Y-43571D01*
X41709Y-43684D02*
X41577Y-43290D01*
X41446Y-43684D01*
X41146Y-43421D02*
X41146Y-43684D01*
X41239Y-43271D02*
X41333Y-43553D01*
X41089Y-43553D01*
X40921Y-43684D02*
X40845Y-43684D01*
X40808Y-43665D01*
X40789Y-43646D01*
X40752Y-43590D01*
X40733Y-43515D01*
X40733Y-43365D01*
X40752Y-43328D01*
X40770Y-43309D01*
X40808Y-43290D01*
X40883Y-43290D01*
X40921Y-43309D01*
X40939Y-43328D01*
X40958Y-43365D01*
X40958Y-43459D01*
X40939Y-43496D01*
X40921Y-43515D01*
X40883Y-43534D01*
X40808Y-43534D01*
X40770Y-43515D01*
X40752Y-43496D01*
X40733Y-43459D01*
G54D10*
X67411Y-40834D02*
X67018Y-40834D01*
X67018Y-40928D01*
X67036Y-40984D01*
X67074Y-41021D01*
X67111Y-41040D01*
X67186Y-41059D01*
X67242Y-41059D01*
X67317Y-41040D01*
X67355Y-41021D01*
X67392Y-40984D01*
X67411Y-40928D01*
X67411Y-40834D01*
X67411Y-41434D02*
X67411Y-41209D01*
X67411Y-41321D02*
X67018Y-41321D01*
X67074Y-41284D01*
X67111Y-41246D01*
X67130Y-41209D01*
X65285Y-40307D02*
X64892Y-40307D01*
X64892Y-40401D01*
X64910Y-40457D01*
X64948Y-40495D01*
X64985Y-40513D01*
X65060Y-40532D01*
X65117Y-40532D01*
X65191Y-40513D01*
X65229Y-40495D01*
X65266Y-40457D01*
X65285Y-40401D01*
X65285Y-40307D01*
X65285Y-40701D02*
X64892Y-40701D01*
X64892Y-40963D02*
X64892Y-41038D01*
X64910Y-41076D01*
X64948Y-41113D01*
X65023Y-41132D01*
X65154Y-41132D01*
X65229Y-41113D01*
X65266Y-41076D01*
X65285Y-41038D01*
X65285Y-40963D01*
X65266Y-40926D01*
X65229Y-40888D01*
X65154Y-40870D01*
X65023Y-40870D01*
X64948Y-40888D01*
X64910Y-40926D01*
X64892Y-40963D01*
X65285Y-41301D02*
X64892Y-41301D01*
X64892Y-41394D01*
X64910Y-41451D01*
X64948Y-41488D01*
X64985Y-41507D01*
X65060Y-41526D01*
X65117Y-41526D01*
X65191Y-41507D01*
X65229Y-41488D01*
X65266Y-41451D01*
X65285Y-41394D01*
X65285Y-41301D01*
X65079Y-41694D02*
X65079Y-41826D01*
X65285Y-41882D02*
X65285Y-41694D01*
X64892Y-41694D01*
X64892Y-41882D01*
X65206Y-43834D02*
X64813Y-43834D01*
X64813Y-43928D01*
X64832Y-43984D01*
X64869Y-44021D01*
X64907Y-44040D01*
X64982Y-44059D01*
X65038Y-44059D01*
X65113Y-44040D01*
X65150Y-44021D01*
X65188Y-43984D01*
X65206Y-43928D01*
X65206Y-43834D01*
X64850Y-44209D02*
X64832Y-44228D01*
X64813Y-44265D01*
X64813Y-44359D01*
X64832Y-44396D01*
X64850Y-44415D01*
X64888Y-44434D01*
X64925Y-44434D01*
X64982Y-44415D01*
X65206Y-44190D01*
X65206Y-44434D01*
X67332Y-43386D02*
X66939Y-43386D01*
X66939Y-43480D01*
X66958Y-43536D01*
X66995Y-43573D01*
X67033Y-43592D01*
X67108Y-43611D01*
X67164Y-43611D01*
X67239Y-43592D01*
X67276Y-43573D01*
X67314Y-43536D01*
X67332Y-43480D01*
X67332Y-43386D01*
X67332Y-43780D02*
X66939Y-43780D01*
X66939Y-44042D02*
X66939Y-44117D01*
X66958Y-44154D01*
X66995Y-44192D01*
X67070Y-44211D01*
X67201Y-44211D01*
X67276Y-44192D01*
X67314Y-44154D01*
X67332Y-44117D01*
X67332Y-44042D01*
X67314Y-44005D01*
X67276Y-43967D01*
X67201Y-43948D01*
X67070Y-43948D01*
X66995Y-43967D01*
X66958Y-44005D01*
X66939Y-44042D01*
X67332Y-44379D02*
X66939Y-44379D01*
X66939Y-44473D01*
X66958Y-44529D01*
X66995Y-44567D01*
X67033Y-44586D01*
X67108Y-44604D01*
X67164Y-44604D01*
X67239Y-44586D01*
X67276Y-44567D01*
X67314Y-44529D01*
X67332Y-44473D01*
X67332Y-44379D01*
X67126Y-44773D02*
X67126Y-44904D01*
X67332Y-44961D02*
X67332Y-44773D01*
X66939Y-44773D01*
X66939Y-44961D01*
X41859Y-39934D02*
X41990Y-39746D01*
X42084Y-39934D02*
X42084Y-39540D01*
X41934Y-39540D01*
X41896Y-39559D01*
X41877Y-39578D01*
X41859Y-39615D01*
X41859Y-39671D01*
X41877Y-39709D01*
X41896Y-39728D01*
X41934Y-39746D01*
X42084Y-39746D01*
X41746Y-39540D02*
X41615Y-39934D01*
X41484Y-39540D01*
X41371Y-39578D02*
X41352Y-39559D01*
X41315Y-39540D01*
X41221Y-39540D01*
X41184Y-39559D01*
X41165Y-39578D01*
X41146Y-39615D01*
X41146Y-39653D01*
X41165Y-39709D01*
X41390Y-39934D01*
X41146Y-39934D01*
X42959Y-40884D02*
X43184Y-40884D01*
X43071Y-40884D02*
X43071Y-40490D01*
X43109Y-40546D01*
X43146Y-40584D01*
X43184Y-40603D01*
X42715Y-40490D02*
X42677Y-40490D01*
X42640Y-40509D01*
X42621Y-40528D01*
X42602Y-40565D01*
X42584Y-40640D01*
X42584Y-40734D01*
X42602Y-40809D01*
X42621Y-40846D01*
X42640Y-40865D01*
X42677Y-40884D01*
X42715Y-40884D01*
X42752Y-40865D01*
X42771Y-40846D01*
X42790Y-40809D01*
X42809Y-40734D01*
X42809Y-40640D01*
X42790Y-40565D01*
X42771Y-40528D01*
X42752Y-40509D01*
X42715Y-40490D01*
X42415Y-40884D02*
X42415Y-40490D01*
X42377Y-40734D02*
X42265Y-40884D01*
X42265Y-40621D02*
X42415Y-40771D01*
X37434Y-39934D02*
X37565Y-39746D01*
X37659Y-39934D02*
X37659Y-39540D01*
X37509Y-39540D01*
X37471Y-39559D01*
X37453Y-39578D01*
X37434Y-39615D01*
X37434Y-39671D01*
X37453Y-39709D01*
X37471Y-39728D01*
X37509Y-39746D01*
X37659Y-39746D01*
X37321Y-39540D02*
X37190Y-39934D01*
X37059Y-39540D01*
X36759Y-39671D02*
X36759Y-39934D01*
X36853Y-39521D02*
X36946Y-39803D01*
X36703Y-39803D01*
X38534Y-40884D02*
X38759Y-40884D01*
X38646Y-40884D02*
X38646Y-40490D01*
X38684Y-40546D01*
X38721Y-40584D01*
X38759Y-40603D01*
X38290Y-40490D02*
X38253Y-40490D01*
X38215Y-40509D01*
X38196Y-40528D01*
X38178Y-40565D01*
X38159Y-40640D01*
X38159Y-40734D01*
X38178Y-40809D01*
X38196Y-40846D01*
X38215Y-40865D01*
X38253Y-40884D01*
X38290Y-40884D01*
X38328Y-40865D01*
X38346Y-40846D01*
X38365Y-40809D01*
X38384Y-40734D01*
X38384Y-40640D01*
X38365Y-40565D01*
X38346Y-40528D01*
X38328Y-40509D01*
X38290Y-40490D01*
X37990Y-40884D02*
X37990Y-40490D01*
X37953Y-40734D02*
X37840Y-40884D01*
X37840Y-40621D02*
X37990Y-40771D01*
M02*
