<?xml version="1.0" standalone="no"?>
 <!DOCTYPE svg PUBLIC "-//W3C//DTD SVG 1.1//EN" 
 "http://www.w3.org/Graphics/SVG/1.1/DTD/svg11.dtd"> 
<svg xmlns="http://www.w3.org/2000/svg" version="1.1" 
    width="13.368cm" height="5.32892cm" viewBox="0 0 52630 20980 ">
<title>SVG Picture created as pid-tweak-B_SilkS.svg date 2014/05/15 13:46:50 </title>
  <desc>Picture generated by PCBNEW </desc>
<g style="fill:#000000; fill-opacity:1;stroke:#000000; stroke-opacity:1;
stroke-linecap:round; stroke-linejoin:round; "
 transform="translate(0 0) scale(1 1)">
</g>
<g style="fill:#FFFF00; fill-opacity:0.0; 
stroke:#FFFF00; stroke-width:39.3701; stroke-opacity:1; 
stroke-linecap:round; stroke-linejoin:round;">
<path d="M52619 19967
L19 19967
" />
<path d="M52619 1067
L52619 19967
" />
<path d="M19 1067
L52619 1067
" />
<path d="M19 19967
L19 1067
" />
</g>
<g style="fill:#A000A0; fill-opacity:0.0; 
stroke:#A000A0; stroke-width:24; stroke-opacity:1; 
stroke-linecap:round; stroke-linejoin:round;">
<path d="M41381 12595
L41381 12477
L41353 12477
L41337 12482
L41325 12494
L41320 12505
L41314 12527
L41314 12544
L41320 12567
L41325 12578
L41337 12589
L41353 12595
L41381 12595
" />
<path d="M41275 12477
L41202 12477
L41241 12522
L41224 12522
L41213 12527
L41207 12533
L41202 12544
L41202 12572
L41207 12584
L41213 12589
L41224 12595
L41258 12595
L41269 12589
L41275 12584
" />
<path d="M42481 8995
L42481 8877
L42453 8877
L42437 8882
L42425 8894
L42420 8905
L42414 8927
L42414 8944
L42420 8967
L42425 8978
L42437 8989
L42453 8995
L42481 8995
" />
<path d="M42307 8877
L42363 8877
L42369 8933
L42363 8927
L42352 8922
L42324 8922
L42313 8927
L42307 8933
L42302 8944
L42302 8972
L42307 8984
L42313 8989
L42324 8995
L42352 8995
L42363 8989
L42369 8984
" />
<path d="M41381 9695
L41381 9577
L41353 9577
L41337 9582
L41325 9594
L41320 9605
L41314 9627
L41314 9644
L41320 9667
L41325 9678
L41337 9689
L41353 9695
L41381 9695
" />
<path d="M41213 9577
L41235 9577
L41247 9582
L41252 9588
L41263 9605
L41269 9627
L41269 9672
L41263 9684
L41258 9689
L41247 9695
L41224 9695
L41213 9689
L41207 9684
L41202 9672
L41202 9644
L41207 9633
L41213 9627
L41224 9622
L41247 9622
L41258 9627
L41263 9633
L41269 9644
" />
<path d="M42481 11645
L42481 11527
L42453 11527
L42437 11532
L42425 11544
L42420 11555
L42414 11577
L42414 11594
L42420 11617
L42425 11628
L42437 11639
L42453 11645
L42481 11645
" />
<path d="M42313 11566
L42313 11645
" />
<path d="M42341 11521
L42369 11605
L42296 11605
" />
</g>
<g style="fill:#A000A0; fill-opacity:0.0; 
stroke:#A000A0; stroke-width:60; stroke-opacity:1; 
stroke-linecap:round; stroke-linejoin:round;">
<path d="M38495 10932
L38495 11251
L38476 11289
L38457 11308
L38420 11326
L38344 11326
L38307 11308
L38288 11289
L38269 11251
L38269 10932
" />
<path d="M37894 10932
L38082 10932
L38101 11120
L38082 11101
L38044 11083
L37950 11083
L37913 11101
L37894 11120
L37875 11158
L37875 11251
L37894 11289
L37913 11308
L37950 11326
L38044 11326
L38082 11308
L38101 11289
" />
</g>
<g style="fill:#A000A0; fill-opacity:0.0; 
stroke:#A000A0; stroke-width:50; stroke-opacity:1; 
stroke-linecap:round; stroke-linejoin:round;">
<path d="M39620 10776
L39620 10382
L39489 10664
L39358 10382
L39358 10776
" />
<path d="M39189 10664
L39001 10664
" />
<path d="M39226 10776
L39095 10382
L38964 10776
" />
<path d="M38870 10382
L38607 10776
" />
<path d="M38607 10382
L38870 10776
" />
<path d="M38288 10514
L38288 10776
" />
<path d="M38382 10364
L38476 10645
L38232 10645
" />
<path d="M37913 10514
L37913 10776
" />
<path d="M38007 10364
L38101 10645
L37857 10645
" />
<path d="M37725 10420
L37707 10401
L37669 10382
L37575 10382
L37538 10401
L37519 10420
L37500 10458
L37500 10495
L37519 10551
L37744 10776
L37500 10776
" />
<path d="M37144 10382
L37331 10382
L37350 10570
L37331 10551
L37294 10533
L37200 10533
L37162 10551
L37144 10570
L37125 10608
L37125 10701
L37144 10739
L37162 10758
L37200 10776
L37294 10776
L37331 10758
L37350 10739
" />
<path d="M36750 10776
L36975 10776
" />
<path d="M36862 10776
L36862 10382
L36900 10439
L36937 10476
L36975 10495
" />
</g>
<g style="fill:#A000A0; fill-opacity:0.0; 
stroke:#A000A0; stroke-width:60; stroke-opacity:1; 
stroke-linecap:round; stroke-linejoin:round;">
<path d="M6019 11032
L6019 11351
L6001 11389
L5982 11408
L5944 11426
L5869 11426
L5832 11408
L5813 11389
L5794 11351
L5794 11032
" />
<path d="M5438 11164
L5438 11426
" />
<path d="M5532 11014
L5625 11295
L5381 11295
" />
</g>
<g style="fill:#A000A0; fill-opacity:0.0; 
stroke:#A000A0; stroke-width:50; stroke-opacity:1; 
stroke-linecap:round; stroke-linejoin:round;">
<path d="M6948 11582
L6723 11582
" />
<path d="M6836 11976
L6836 11582
" />
<path d="M6592 11976
L6592 11582
L6442 11582
L6404 11601
L6385 11620
L6366 11658
L6366 11714
L6385 11751
L6404 11770
L6442 11789
L6592 11789
" />
<path d="M6216 11958
L6160 11976
L6066 11976
L6029 11958
L6010 11939
L5991 11901
L5991 11864
L6010 11826
L6029 11808
L6066 11789
L6141 11770
L6179 11751
L6198 11733
L6216 11695
L6216 11658
L6198 11620
L6179 11601
L6141 11582
L6048 11582
L5991 11601
" />
<path d="M5860 11582
L5597 11582
L5766 11976
" />
<path d="M5466 11864
L5278 11864
" />
<path d="M5503 11976
L5372 11582
L5241 11976
" />
<path d="M5147 11582
L4903 11582
L5034 11733
L4978 11733
L4941 11751
L4922 11770
L4903 11808
L4903 11901
L4922 11939
L4941 11958
L4978 11976
L5091 11976
L5128 11958
L5147 11939
" />
<path d="M4659 11582
L4622 11582
L4584 11601
L4565 11620
L4547 11658
L4528 11733
L4528 11826
L4547 11901
L4565 11939
L4584 11958
L4622 11976
L4659 11976
L4697 11958
L4715 11939
L4734 11901
L4753 11826
L4753 11733
L4734 11658
L4715 11620
L4697 11601
L4659 11582
" />
</g>
<g style="fill:#A000A0; fill-opacity:0.0; 
stroke:#A000A0; stroke-width:60; stroke-opacity:1; 
stroke-linecap:round; stroke-linejoin:round;">
<path d="M10444 11032
L10444 11351
L10425 11389
L10407 11408
L10369 11426
L10294 11426
L10257 11408
L10238 11389
L10219 11351
L10219 11032
" />
<path d="M10050 11070
L10031 11051
L9994 11032
L9900 11032
L9863 11051
L9844 11070
L9825 11108
L9825 11145
L9844 11201
L10069 11426
L9825 11426
" />
</g>
<g style="fill:#A000A0; fill-opacity:0.0; 
stroke:#A000A0; stroke-width:50; stroke-opacity:1; 
stroke-linecap:round; stroke-linejoin:round;">
<path d="M11373 11582
L11148 11582
" />
<path d="M11260 11976
L11260 11582
" />
<path d="M11016 11976
L11016 11582
L10866 11582
L10829 11601
L10810 11620
L10791 11658
L10791 11714
L10810 11751
L10829 11770
L10866 11789
L11016 11789
" />
<path d="M10641 11958
L10585 11976
L10491 11976
L10454 11958
L10435 11939
L10416 11901
L10416 11864
L10435 11826
L10454 11808
L10491 11789
L10566 11770
L10604 11751
L10622 11733
L10641 11695
L10641 11658
L10622 11620
L10604 11601
L10566 11582
L10472 11582
L10416 11601
" />
<path d="M10285 11582
L10022 11582
L10191 11976
" />
<path d="M9891 11864
L9703 11864
" />
<path d="M9928 11976
L9797 11582
L9666 11976
" />
<path d="M9365 11714
L9365 11976
" />
<path d="M9459 11564
L9553 11845
L9309 11845
" />
<path d="M9140 11976
L9065 11976
L9028 11958
L9009 11939
L8971 11883
L8953 11808
L8953 11658
L8971 11620
L8990 11601
L9028 11582
L9103 11582
L9140 11601
L9159 11620
L9178 11658
L9178 11751
L9159 11789
L9140 11808
L9103 11826
L9028 11826
L8990 11808
L8971 11789
L8953 11751
" />
</g>
<g style="fill:#A000A0; fill-opacity:0.0; 
stroke:#A000A0; stroke-width:59.0551; stroke-opacity:1; 
stroke-linecap:round; stroke-linejoin:round;">
<path d="M35631 9126
L35237 9126
L35237 9220
L35256 9276
L35293 9314
L35331 9333
L35406 9351
L35462 9351
L35537 9333
L35575 9314
L35612 9276
L35631 9220
L35631 9126
" />
<path d="M35631 9726
L35631 9501
" />
<path d="M35631 9614
L35237 9614
L35293 9576
L35331 9539
L35350 9501
" />
<path d="M33505 8600
L33111 8600
L33111 8693
L33130 8750
L33167 8787
L33205 8806
L33280 8825
L33336 8825
L33411 8806
L33449 8787
L33486 8750
L33505 8693
L33505 8600
" />
<path d="M33505 8993
L33111 8993
" />
<path d="M33111 9256
L33111 9331
L33130 9368
L33167 9406
L33242 9424
L33374 9424
L33449 9406
L33486 9368
L33505 9331
L33505 9256
L33486 9218
L33449 9181
L33374 9162
L33242 9162
L33167 9181
L33130 9218
L33111 9256
" />
<path d="M33505 9593
L33111 9593
L33111 9687
L33130 9743
L33167 9781
L33205 9799
L33280 9818
L33336 9818
L33411 9799
L33449 9781
L33486 9743
L33505 9687
L33505 9593
" />
<path d="M33299 9987
L33299 10118
" />
<path d="M33505 10174
L33505 9987
L33111 9987
L33111 10174
" />
<path d="M33426 12126
L33032 12126
L33032 12220
L33051 12276
L33089 12314
L33126 12333
L33201 12351
L33257 12351
L33332 12333
L33370 12314
L33407 12276
L33426 12220
L33426 12126
" />
<path d="M33070 12501
L33051 12520
L33032 12558
L33032 12651
L33051 12689
L33070 12708
L33107 12726
L33145 12726
L33201 12708
L33426 12483
L33426 12726
" />
<path d="M35552 11678
L35158 11678
L35158 11772
L35177 11828
L35215 11866
L35252 11885
L35327 11903
L35383 11903
L35458 11885
L35496 11866
L35533 11828
L35552 11772
L35552 11678
" />
<path d="M35552 12072
L35158 12072
" />
<path d="M35158 12335
L35158 12410
L35177 12447
L35215 12484
L35290 12503
L35421 12503
L35496 12484
L35533 12447
L35552 12410
L35552 12335
L35533 12297
L35496 12260
L35421 12241
L35290 12241
L35215 12260
L35177 12297
L35158 12335
" />
<path d="M35552 12672
L35158 12672
L35158 12766
L35177 12822
L35215 12859
L35252 12878
L35327 12897
L35383 12897
L35458 12878
L35496 12859
L35533 12822
L35552 12766
L35552 12672
" />
<path d="M35346 13066
L35346 13197
" />
<path d="M35552 13253
L35552 13066
L35158 13066
L35158 13253
" />
<path d="M10078 8226
L10210 8039
" />
<path d="M10303 8226
L10303 7833
L10153 7833
L10116 7851
L10097 7870
L10078 7908
L10078 7964
L10097 8001
L10116 8020
L10153 8039
L10303 8039
" />
<path d="M9966 7833
L9835 8226
L9703 7833
" />
<path d="M9591 7870
L9572 7851
L9535 7833
L9441 7833
L9403 7851
L9385 7870
L9366 7908
L9366 7945
L9385 8001
L9610 8226
L9366 8226
" />
<path d="M11178 9176
L11403 9176
" />
<path d="M11291 9176
L11291 8783
L11328 8839
L11366 8876
L11403 8895
" />
<path d="M10935 8783
L10897 8783
L10860 8801
L10841 8820
L10822 8858
L10803 8933
L10803 9026
L10822 9101
L10841 9139
L10860 9158
L10897 9176
L10935 9176
L10972 9158
L10991 9139
L11010 9101
L11028 9026
L11028 8933
L11010 8858
L10991 8820
L10972 8801
L10935 8783
" />
<path d="M10635 9176
L10635 8783
" />
<path d="M10597 9026
L10485 9176
" />
<path d="M10485 8914
L10635 9064
" />
<path d="M5654 8226
L5785 8039
" />
<path d="M5879 8226
L5879 7833
L5729 7833
L5691 7851
L5672 7870
L5654 7908
L5654 7964
L5672 8001
L5691 8020
L5729 8039
L5879 8039
" />
<path d="M5541 7833
L5410 8226
L5279 7833
" />
<path d="M4979 7964
L4979 8226
" />
<path d="M5072 7814
L5166 8095
L4922 8095
" />
<path d="M6754 9176
L6979 9176
" />
<path d="M6866 9176
L6866 8783
L6904 8839
L6941 8876
L6979 8895
" />
<path d="M6510 8783
L6472 8783
L6435 8801
L6416 8820
L6397 8858
L6379 8933
L6379 9026
L6397 9101
L6416 9139
L6435 9158
L6472 9176
L6510 9176
L6547 9158
L6566 9139
L6585 9101
L6604 9026
L6604 8933
L6585 8858
L6566 8820
L6547 8801
L6510 8783
" />
<path d="M6210 9176
L6210 8783
" />
<path d="M6172 9026
L6060 9176
" />
<path d="M6060 8914
L6210 9064
" />
</g>
<g style="fill:#A000A0; fill-opacity:0.0; 
stroke:#A000A0; stroke-width:50; stroke-opacity:1; 
stroke-linecap:round; stroke-linejoin:round;">
<path d="M37687 10574
L37702 10560
L37716 10517
L37716 10488
L37702 10446
L37673 10417
L37644 10403
L37587 10388
L37544 10388
L37487 10403
L37459 10417
L37430 10446
L37416 10488
L37416 10517
L37430 10560
L37444 10574
" />
<path d="M37416 10674
L37416 10860
L37530 10760
L37530 10803
L37544 10831
L37559 10846
L37587 10860
L37659 10860
L37687 10846
L37702 10831
L37716 10803
L37716 10717
L37702 10688
L37687 10674
" />
<path d="M37716 11146
L37716 10974
" />
<path d="M37716 11060
L37416 11060
L37459 11031
L37487 11003
L37502 10974
" />
<path d="M36816 10260
L36816 10288
L36830 10317
L36844 10331
L36873 10346
L36930 10360
L37002 10360
L37059 10346
L37087 10331
L37102 10317
L37116 10288
L37116 10260
L37102 10231
L37087 10217
L37059 10203
L37002 10188
L36930 10188
L36873 10203
L36844 10217
L36830 10231
L36816 10260
" />
<path d="M37087 10488
L37102 10503
L37116 10488
L37102 10474
L37087 10488
L37116 10488
" />
<path d="M36816 10688
L36816 10717
L36830 10746
L36844 10760
L36873 10774
L36930 10788
L37002 10788
L37059 10774
L37087 10760
L37102 10746
L37116 10717
L37116 10688
L37102 10660
L37087 10646
L37059 10631
L37002 10617
L36930 10617
L36873 10631
L36844 10646
L36830 10660
L36816 10688
" />
<path d="M37116 11074
L37116 10903
" />
<path d="M37116 10988
L36816 10988
L36859 10960
L36887 10931
L36902 10903
" />
<path d="M36916 11331
L37116 11331
" />
<path d="M36916 11203
L37073 11203
L37102 11217
L37116 11246
L37116 11288
L37102 11317
L37087 11331
" />
<path d="M38887 10874
L38902 10860
L38916 10817
L38916 10788
L38902 10746
L38873 10717
L38844 10703
L38787 10688
L38744 10688
L38687 10703
L38659 10717
L38630 10746
L38616 10788
L38616 10817
L38630 10860
L38644 10874
" />
<path d="M38644 10988
L38630 11003
L38616 11031
L38616 11103
L38630 11131
L38644 11146
L38673 11160
L38702 11160
L38744 11146
L38916 10974
L38916 11160
" />
<path d="M38744 11331
L38730 11303
L38716 11288
L38687 11274
L38673 11274
L38644 11288
L38630 11303
L38616 11331
L38616 11388
L38630 11417
L38644 11431
L38673 11446
L38687 11446
L38716 11431
L38730 11417
L38744 11388
L38744 11331
L38759 11303
L38773 11288
L38802 11274
L38859 11274
L38887 11288
L38902 11303
L38916 11331
L38916 11388
L38902 11417
L38887 11431
L38859 11446
L38802 11446
L38773 11431
L38759 11417
L38744 11388
" />
<path d="M39216 10560
L39216 10588
L39230 10617
L39244 10631
L39273 10646
L39330 10660
L39402 10660
L39459 10646
L39487 10631
L39502 10617
L39516 10588
L39516 10560
L39502 10531
L39487 10517
L39459 10503
L39402 10488
L39330 10488
L39273 10503
L39244 10517
L39230 10531
L39216 10560
" />
<path d="M39487 10788
L39502 10803
L39516 10788
L39502 10774
L39487 10788
L39516 10788
" />
<path d="M39216 10988
L39216 11017
L39230 11046
L39244 11060
L39273 11074
L39330 11088
L39402 11088
L39459 11074
L39487 11060
L39502 11046
L39516 11017
L39516 10988
L39502 10960
L39487 10946
L39459 10931
L39402 10917
L39330 10917
L39273 10931
L39244 10946
L39230 10960
L39216 10988
" />
<path d="M39516 11374
L39516 11203
" />
<path d="M39516 11288
L39216 11288
L39259 11260
L39287 11231
L39302 11203
" />
<path d="M39316 11631
L39516 11631
" />
<path d="M39316 11503
L39473 11503
L39502 11517
L39516 11546
L39516 11588
L39502 11617
L39487 11631
" />
<path d="M37687 12774
L37702 12760
L37716 12717
L37716 12688
L37702 12646
L37673 12617
L37644 12603
L37587 12588
L37544 12588
L37487 12603
L37459 12617
L37430 12646
L37416 12688
L37416 12717
L37430 12760
L37444 12774
" />
<path d="M37416 12874
L37416 13060
L37530 12960
L37530 13003
L37544 13031
L37559 13046
L37587 13060
L37659 13060
L37687 13046
L37702 13031
L37716 13003
L37716 12917
L37702 12888
L37687 12874
" />
<path d="M37416 13246
L37416 13274
L37430 13303
L37444 13317
L37473 13331
L37530 13346
L37602 13346
L37659 13331
L37687 13317
L37702 13303
L37716 13274
L37716 13246
L37702 13217
L37687 13203
L37659 13188
L37602 13174
L37530 13174
L37473 13188
L37444 13203
L37430 13217
L37416 13246
" />
<path d="M37116 12774
L37116 12603
" />
<path d="M37116 12688
L36816 12688
L36859 12660
L36887 12631
L36902 12603
" />
<path d="M36816 12960
L36816 12988
L36830 13017
L36844 13031
L36873 13046
L36930 13060
L37002 13060
L37059 13046
L37087 13031
L37102 13017
L37116 12988
L37116 12960
L37102 12931
L37087 12917
L37059 12903
L37002 12888
L36930 12888
L36873 12903
L36844 12917
L36830 12931
L36816 12960
" />
<path d="M36916 13317
L37116 13317
" />
<path d="M36916 13188
L37073 13188
L37102 13203
L37116 13231
L37116 13274
L37102 13303
L37087 13317
" />
<path d="M40087 8674
L40102 8660
L40116 8617
L40116 8588
L40102 8546
L40073 8517
L40044 8503
L39987 8488
L39944 8488
L39887 8503
L39859 8517
L39830 8546
L39816 8588
L39816 8617
L39830 8660
L39844 8674
" />
<path d="M39844 8788
L39830 8803
L39816 8831
L39816 8903
L39830 8931
L39844 8946
L39873 8960
L39902 8960
L39944 8946
L40116 8774
L40116 8960
" />
<path d="M40116 9103
L40116 9160
L40102 9188
L40087 9203
L40044 9231
L39987 9246
L39873 9246
L39844 9231
L39830 9217
L39816 9188
L39816 9131
L39830 9103
L39844 9088
L39873 9074
L39944 9074
L39973 9088
L39987 9103
L40002 9131
L40002 9188
L39987 9217
L39973 9231
L39944 9246
" />
<path d="M39516 8674
L39516 8503
" />
<path d="M39516 8588
L39216 8588
L39259 8560
L39287 8531
L39302 8503
" />
<path d="M39216 8860
L39216 8888
L39230 8917
L39244 8931
L39273 8946
L39330 8960
L39402 8960
L39459 8946
L39487 8931
L39502 8917
L39516 8888
L39516 8860
L39502 8831
L39487 8817
L39459 8803
L39402 8788
L39330 8788
L39273 8803
L39244 8817
L39230 8831
L39216 8860
" />
<path d="M39316 9217
L39516 9217
" />
<path d="M39316 9088
L39473 9088
L39502 9103
L39516 9131
L39516 9174
L39502 9203
L39487 9217
" />
<path d="M9894 7210
L9908 7224
L9951 7238
L9980 7238
L10023 7224
L10051 7196
L10065 7167
L10080 7110
L10080 7067
L10065 7010
L10051 6981
L10023 6953
L9980 6938
L9951 6938
L9908 6953
L9894 6967
" />
<path d="M9608 7238
L9780 7238
" />
<path d="M9694 7238
L9694 6938
L9723 6981
L9751 7010
L9780 7024
" />
<path d="M10037 6638
L10208 6638
" />
<path d="M10123 6638
L10123 6338
L10151 6381
L10180 6410
L10208 6424
" />
<path d="M9851 6338
L9823 6338
L9794 6353
L9780 6367
L9765 6396
L9751 6453
L9751 6524
L9765 6581
L9780 6610
L9794 6624
L9823 6638
L9851 6638
L9880 6624
L9894 6610
L9908 6581
L9923 6524
L9923 6453
L9908 6396
L9894 6367
L9880 6353
L9851 6338
" />
<path d="M9494 6438
L9494 6638
" />
<path d="M9623 6438
L9623 6596
L9608 6624
L9580 6638
L9537 6638
L9508 6624
L9494 6610
" />
<path d="M5212 10524
L5226 10510
L5241 10467
L5241 10438
L5226 10396
L5198 10367
L5169 10353
L5112 10338
L5069 10338
L5012 10353
L4983 10367
L4955 10396
L4941 10438
L4941 10467
L4955 10510
L4969 10524
" />
<path d="M4969 10638
L4955 10653
L4941 10681
L4941 10753
L4955 10781
L4969 10796
L4998 10810
L5026 10810
L5069 10796
L5241 10624
L5241 10810
" />
<path d="M4941 10910
L4941 11096
L5055 10996
L5055 11038
L5069 11067
L5083 11081
L5112 11096
L5183 11096
L5212 11081
L5226 11067
L5241 11038
L5241 10953
L5226 10924
L5212 10910
" />
<path d="M4341 10081
L4341 10110
L4355 10138
L4369 10153
L4398 10167
L4455 10181
L4526 10181
L4583 10167
L4612 10153
L4626 10138
L4641 10110
L4641 10081
L4626 10053
L4612 10038
L4583 10024
L4526 10010
L4455 10010
L4398 10024
L4369 10038
L4355 10053
L4341 10081
" />
<path d="M4612 10310
L4626 10324
L4641 10310
L4626 10296
L4612 10310
L4641 10310
" />
<path d="M4341 10510
L4341 10538
L4355 10567
L4369 10581
L4398 10596
L4455 10610
L4526 10610
L4583 10596
L4612 10581
L4626 10567
L4641 10538
L4641 10510
L4626 10481
L4612 10467
L4583 10453
L4526 10438
L4455 10438
L4398 10453
L4369 10467
L4355 10481
L4341 10510
" />
<path d="M4641 10896
L4641 10724
" />
<path d="M4641 10810
L4341 10810
L4383 10781
L4412 10753
L4426 10724
" />
<path d="M4441 11153
L4641 11153
" />
<path d="M4441 11024
L4598 11024
L4626 11038
L4641 11067
L4641 11110
L4626 11138
L4612 11153
" />
<path d="M4483 11396
L4483 11296
" />
<path d="M4641 11296
L4341 11296
L4341 11438
" />
<path d="M5312 12710
L5326 12724
L5369 12738
L5398 12738
L5441 12724
L5469 12696
L5483 12667
L5498 12610
L5498 12567
L5483 12510
L5469 12481
L5441 12453
L5398 12438
L5369 12438
L5326 12453
L5312 12467
" />
<path d="M5198 12467
L5183 12453
L5155 12438
L5083 12438
L5055 12453
L5041 12467
L5026 12496
L5026 12524
L5041 12567
L5212 12738
L5026 12738
" />
<path d="M4769 12538
L4769 12738
" />
<path d="M4841 12424
L4912 12638
L4726 12638
" />
<path d="M5755 13038
L5726 13038
L5698 13053
L5683 13067
L5669 13096
L5655 13153
L5655 13224
L5669 13281
L5683 13310
L5698 13324
L5726 13338
L5755 13338
L5783 13324
L5798 13310
L5812 13281
L5826 13224
L5826 13153
L5812 13096
L5798 13067
L5783 13053
L5755 13038
" />
<path d="M5526 13310
L5512 13324
L5526 13338
L5541 13324
L5526 13310
L5526 13338
" />
<path d="M5326 13038
L5298 13038
L5269 13053
L5255 13067
L5241 13096
L5226 13153
L5226 13224
L5241 13281
L5255 13310
L5269 13324
L5298 13338
L5326 13338
L5355 13324
L5369 13310
L5383 13281
L5398 13224
L5398 13153
L5383 13096
L5369 13067
L5355 13053
L5326 13038
" />
<path d="M4941 13338
L5112 13338
" />
<path d="M5026 13338
L5026 13038
L5055 13081
L5083 13110
L5112 13124
" />
<path d="M4683 13138
L4683 13338
" />
<path d="M4812 13138
L4812 13296
L4798 13324
L4769 13338
L4726 13338
L4698 13324
L4683 13310
" />
<path d="M4441 13181
L4541 13181
" />
<path d="M4541 13338
L4541 13038
L4398 13038
" />
<path d="M9637 10524
L9651 10510
L9665 10467
L9665 10438
L9651 10396
L9623 10367
L9594 10353
L9537 10338
L9494 10338
L9437 10353
L9408 10367
L9380 10396
L9365 10438
L9365 10467
L9380 10510
L9394 10524
" />
<path d="M9665 10810
L9665 10638
" />
<path d="M9665 10724
L9365 10724
L9408 10696
L9437 10667
L9451 10638
" />
<path d="M9665 10953
L9665 11010
L9651 11038
L9637 11053
L9594 11081
L9537 11096
L9423 11096
L9394 11081
L9380 11067
L9365 11038
L9365 10981
L9380 10953
L9394 10938
L9423 10924
L9494 10924
L9523 10938
L9537 10953
L9551 10981
L9551 11038
L9537 11067
L9523 11081
L9494 11096
" />
<path d="M8765 10081
L8765 10110
L8780 10138
L8794 10153
L8823 10167
L8880 10181
L8951 10181
L9008 10167
L9037 10153
L9051 10138
L9065 10110
L9065 10081
L9051 10053
L9037 10038
L9008 10024
L8951 10010
L8880 10010
L8823 10024
L8794 10038
L8780 10053
L8765 10081
" />
<path d="M9037 10310
L9051 10324
L9065 10310
L9051 10296
L9037 10310
L9065 10310
" />
<path d="M8765 10510
L8765 10538
L8780 10567
L8794 10581
L8823 10596
L8880 10610
L8951 10610
L9008 10596
L9037 10581
L9051 10567
L9065 10538
L9065 10510
L9051 10481
L9037 10467
L9008 10453
L8951 10438
L8880 10438
L8823 10453
L8794 10467
L8780 10481
L8765 10510
" />
<path d="M9065 10896
L9065 10724
" />
<path d="M9065 10810
L8765 10810
L8808 10781
L8837 10753
L8851 10724
" />
<path d="M8865 11153
L9065 11153
" />
<path d="M8865 11024
L9023 11024
L9051 11038
L9065 11067
L9065 11110
L9051 11138
L9037 11153
" />
<path d="M8908 11396
L8908 11296
" />
<path d="M9065 11296
L8765 11296
L8765 11438
" />
<path d="M9737 12710
L9751 12724
L9794 12738
L9823 12738
L9865 12724
L9894 12696
L9908 12667
L9923 12610
L9923 12567
L9908 12510
L9894 12481
L9865 12453
L9823 12438
L9794 12438
L9751 12453
L9737 12467
" />
<path d="M9623 12467
L9608 12453
L9580 12438
L9508 12438
L9480 12453
L9465 12467
L9451 12496
L9451 12524
L9465 12567
L9637 12738
L9451 12738
" />
<path d="M9265 12438
L9237 12438
L9208 12453
L9194 12467
L9180 12496
L9165 12553
L9165 12624
L9180 12681
L9194 12710
L9208 12724
L9237 12738
L9265 12738
L9294 12724
L9308 12710
L9323 12681
L9337 12624
L9337 12553
L9323 12496
L9308 12467
L9294 12453
L9265 12438
" />
<path d="M10180 13038
L10151 13038
L10123 13053
L10108 13067
L10094 13096
L10080 13153
L10080 13224
L10094 13281
L10108 13310
L10123 13324
L10151 13338
L10180 13338
L10208 13324
L10223 13310
L10237 13281
L10251 13224
L10251 13153
L10237 13096
L10223 13067
L10208 13053
L10180 13038
" />
<path d="M9951 13310
L9937 13324
L9951 13338
L9965 13324
L9951 13310
L9951 13338
" />
<path d="M9751 13038
L9723 13038
L9694 13053
L9680 13067
L9665 13096
L9651 13153
L9651 13224
L9665 13281
L9680 13310
L9694 13324
L9723 13338
L9751 13338
L9780 13324
L9794 13310
L9808 13281
L9823 13224
L9823 13153
L9808 13096
L9794 13067
L9780 13053
L9751 13038
" />
<path d="M9365 13338
L9537 13338
" />
<path d="M9451 13338
L9451 13038
L9480 13081
L9508 13110
L9537 13124
" />
<path d="M9108 13138
L9108 13338
" />
<path d="M9237 13138
L9237 13296
L9223 13324
L9194 13338
L9151 13338
L9123 13324
L9108 13310
" />
<path d="M8865 13181
L8965 13181
" />
<path d="M8965 13338
L8965 13038
L8823 13038
" />
<path d="M5962 15210
L5976 15224
L6019 15238
L6048 15238
L6091 15224
L6119 15196
L6133 15167
L6148 15110
L6148 15067
L6133 15010
L6119 14981
L6091 14953
L6048 14938
L6019 14938
L5976 14953
L5962 14967
" />
<path d="M5676 15238
L5848 15238
" />
<path d="M5762 15238
L5762 14938
L5791 14981
L5819 15010
L5848 15024
" />
<path d="M5419 14938
L5476 14938
L5505 14953
L5519 14967
L5548 15010
L5562 15067
L5562 15181
L5548 15210
L5533 15224
L5505 15238
L5448 15238
L5419 15224
L5405 15210
L5391 15181
L5391 15110
L5405 15081
L5419 15067
L5448 15053
L5505 15053
L5533 15067
L5548 15081
L5562 15110
" />
<path d="M5962 14638
L6133 14638
" />
<path d="M6048 14638
L6048 14338
L6076 14381
L6105 14410
L6133 14424
" />
<path d="M5776 14338
L5748 14338
L5719 14353
L5705 14367
L5691 14396
L5676 14453
L5676 14524
L5691 14581
L5705 14610
L5719 14624
L5748 14638
L5776 14638
L5805 14624
L5819 14610
L5833 14581
L5848 14524
L5848 14453
L5833 14396
L5819 14367
L5805 14353
L5776 14338
" />
<path d="M5419 14438
L5419 14638
" />
<path d="M5548 14438
L5548 14596
L5533 14624
L5505 14638
L5462 14638
L5433 14624
L5419 14610
" />
<path d="M5469 4935
L5483 4949
L5526 4964
L5555 4964
L5598 4949
L5626 4921
L5641 4892
L5655 4835
L5655 4792
L5641 4735
L5626 4706
L5598 4678
L5555 4664
L5526 4664
L5483 4678
L5469 4692
" />
<path d="M5298 4792
L5326 4778
L5341 4764
L5355 4735
L5355 4721
L5341 4692
L5326 4678
L5298 4664
L5241 4664
L5212 4678
L5198 4692
L5183 4721
L5183 4735
L5198 4764
L5212 4778
L5241 4792
L5298 4792
L5326 4806
L5341 4821
L5355 4849
L5355 4906
L5341 4935
L5326 4949
L5298 4964
L5241 4964
L5212 4949
L5198 4935
L5183 4906
L5183 4849
L5198 4821
L5212 4806
L5241 4792
" />
<path d="M5612 5564
L5783 5564
" />
<path d="M5698 5564
L5698 5264
L5726 5306
L5755 5335
L5783 5349
" />
<path d="M5426 5264
L5398 5264
L5369 5278
L5355 5292
L5341 5321
L5326 5378
L5326 5449
L5341 5506
L5355 5535
L5369 5549
L5398 5564
L5426 5564
L5455 5549
L5469 5535
L5483 5506
L5498 5449
L5498 5378
L5483 5321
L5469 5292
L5455 5278
L5426 5264
" />
<path d="M5069 5364
L5069 5564
" />
<path d="M5198 5364
L5198 5521
L5183 5549
L5155 5564
L5112 5564
L5083 5549
L5069 5535
" />
<path d="M10219 15010
L10233 15024
L10276 15038
L10305 15038
L10348 15024
L10376 14996
L10391 14967
L10405 14910
L10405 14867
L10391 14810
L10376 14781
L10348 14753
L10305 14738
L10276 14738
L10233 14753
L10219 14767
" />
<path d="M10076 15038
L10019 15038
L9991 15024
L9976 15010
L9948 14967
L9933 14910
L9933 14796
L9948 14767
L9962 14753
L9991 14738
L10048 14738
L10076 14753
L10091 14767
L10105 14796
L10105 14867
L10091 14896
L10076 14910
L10048 14924
L9991 14924
L9962 14910
L9948 14896
L9933 14867
" />
<path d="M10362 15638
L10533 15638
" />
<path d="M10448 15638
L10448 15338
L10476 15381
L10505 15410
L10533 15424
" />
<path d="M10176 15338
L10148 15338
L10119 15353
L10105 15367
L10091 15396
L10076 15453
L10076 15524
L10091 15581
L10105 15610
L10119 15624
L10148 15638
L10176 15638
L10205 15624
L10219 15610
L10233 15581
L10248 15524
L10248 15453
L10233 15396
L10219 15367
L10205 15353
L10176 15338
" />
<path d="M9819 15438
L9819 15638
" />
<path d="M9948 15438
L9948 15596
L9933 15624
L9905 15638
L9862 15638
L9833 15624
L9819 15610
" />
<path d="M9894 6135
L9908 6149
L9951 6164
L9980 6164
L10023 6149
L10051 6121
L10065 6092
L10080 6035
L10080 5992
L10065 5935
L10051 5906
L10023 5878
L9980 5864
L9951 5864
L9908 5878
L9894 5892
" />
<path d="M9794 5864
L9608 5864
L9708 5978
L9665 5978
L9637 5992
L9623 6006
L9608 6035
L9608 6106
L9623 6135
L9637 6149
L9665 6164
L9751 6164
L9780 6149
L9794 6135
" />
<path d="M10037 5564
L10208 5564
" />
<path d="M10123 5564
L10123 5264
L10151 5306
L10180 5335
L10208 5349
" />
<path d="M9851 5264
L9823 5264
L9794 5278
L9780 5292
L9765 5321
L9751 5378
L9751 5449
L9765 5506
L9780 5535
L9794 5549
L9823 5564
L9851 5564
L9880 5549
L9894 5535
L9908 5506
L9923 5449
L9923 5378
L9908 5321
L9894 5292
L9880 5278
L9851 5264
" />
<path d="M9494 5364
L9494 5564
" />
<path d="M9623 5364
L9623 5521
L9608 5549
L9580 5564
L9537 5564
L9508 5549
L9494 5535
" />
<path d="M5469 6010
L5483 6024
L5526 6038
L5555 6038
L5598 6024
L5626 5996
L5641 5967
L5655 5910
L5655 5867
L5641 5810
L5626 5781
L5598 5753
L5555 5738
L5526 5738
L5483 5753
L5469 5767
" />
<path d="M5212 5738
L5269 5738
L5298 5753
L5312 5767
L5341 5810
L5355 5867
L5355 5981
L5341 6010
L5326 6024
L5298 6038
L5241 6038
L5212 6024
L5198 6010
L5183 5981
L5183 5910
L5198 5881
L5212 5867
L5241 5853
L5298 5853
L5326 5867
L5341 5881
L5355 5910
" />
<path d="M5612 6638
L5783 6638
" />
<path d="M5698 6638
L5698 6338
L5726 6381
L5755 6410
L5783 6424
" />
<path d="M5426 6338
L5398 6338
L5369 6353
L5355 6367
L5341 6396
L5326 6453
L5326 6524
L5341 6581
L5355 6610
L5369 6624
L5398 6638
L5426 6638
L5455 6624
L5469 6610
L5483 6581
L5498 6524
L5498 6453
L5483 6396
L5469 6367
L5455 6353
L5426 6338
" />
<path d="M5069 6438
L5069 6638
" />
<path d="M5198 6438
L5198 6596
L5183 6624
L5155 6638
L5112 6638
L5083 6624
L5069 6610
" />
<path d="M5962 16210
L5976 16224
L6019 16238
L6048 16238
L6091 16224
L6119 16196
L6133 16167
L6148 16110
L6148 16067
L6133 16010
L6119 15981
L6091 15953
L6048 15938
L6019 15938
L5976 15953
L5962 15967
" />
<path d="M5676 16238
L5848 16238
" />
<path d="M5762 16238
L5762 15938
L5791 15981
L5819 16010
L5848 16024
" />
<path d="M5419 16038
L5419 16238
" />
<path d="M5491 15924
L5562 16138
L5376 16138
" />
<path d="M5962 15638
L6133 15638
" />
<path d="M6048 15638
L6048 15338
L6076 15381
L6105 15410
L6133 15424
" />
<path d="M5776 15338
L5748 15338
L5719 15353
L5705 15367
L5691 15396
L5676 15453
L5676 15524
L5691 15581
L5705 15610
L5719 15624
L5748 15638
L5776 15638
L5805 15624
L5819 15610
L5833 15581
L5848 15524
L5848 15453
L5833 15396
L5819 15367
L5805 15353
L5776 15338
" />
<path d="M5419 15438
L5419 15638
" />
<path d="M5548 15438
L5548 15596
L5533 15624
L5505 15638
L5462 15638
L5433 15624
L5419 15610
" />
<path d="M10362 14010
L10376 14024
L10419 14038
L10448 14038
L10491 14024
L10519 13996
L10533 13967
L10548 13910
L10548 13867
L10533 13810
L10519 13781
L10491 13753
L10448 13738
L10419 13738
L10376 13753
L10362 13767
" />
<path d="M10076 14038
L10248 14038
" />
<path d="M10162 14038
L10162 13738
L10191 13781
L10219 13810
L10248 13824
" />
<path d="M9791 14038
L9962 14038
" />
<path d="M9876 14038
L9876 13738
L9905 13781
L9933 13810
L9962 13824
" />
<path d="M10362 14638
L10533 14638
" />
<path d="M10448 14638
L10448 14338
L10476 14381
L10505 14410
L10533 14424
" />
<path d="M10176 14338
L10148 14338
L10119 14353
L10105 14367
L10091 14396
L10076 14453
L10076 14524
L10091 14581
L10105 14610
L10119 14624
L10148 14638
L10176 14638
L10205 14624
L10219 14610
L10233 14581
L10248 14524
L10248 14453
L10233 14396
L10219 14367
L10205 14353
L10176 14338
" />
<path d="M9819 14438
L9819 14638
" />
<path d="M9948 14438
L9948 14596
L9933 14624
L9905 14638
L9862 14638
L9833 14624
L9819 14610
" />
</g>
<g style="fill:#A000A0; fill-opacity:0.0; 
stroke:#A000A0; stroke-width:45; stroke-opacity:1; 
stroke-linecap:round; stroke-linejoin:round;">
<path d="M39299 12273
L39359 12178
" />
<path d="M39402 12273
L39402 12073
L39333 12073
L39316 12082
L39308 12092
L39299 12111
L39299 12140
L39308 12159
L39316 12168
L39333 12178
L39402 12178
" />
<path d="M39213 12273
L39179 12273
L39162 12263
L39153 12254
L39136 12225
L39128 12187
L39128 12111
L39136 12092
L39145 12082
L39162 12073
L39196 12073
L39213 12082
L39222 12092
L39231 12111
L39231 12159
L39222 12178
L39213 12187
L39196 12197
L39162 12197
L39145 12187
L39136 12178
L39128 12159
" />
<path d="M39479 12492
L39471 12482
L39453 12473
L39411 12473
L39393 12482
L39385 12492
L39376 12511
L39376 12530
L39385 12559
L39488 12673
L39376 12673
" />
<path d="M39265 12473
L39248 12473
L39231 12482
L39222 12492
L39213 12511
L39205 12549
L39205 12597
L39213 12635
L39222 12654
L39231 12663
L39248 12673
L39265 12673
L39282 12663
L39291 12654
L39299 12635
L39308 12597
L39308 12549
L39299 12511
L39291 12492
L39282 12482
L39265 12473
" />
<path d="M39128 12673
L39128 12473
" />
<path d="M39111 12597
L39059 12673
" />
<path d="M39059 12540
L39128 12616
" />
<path d="M38800 12787
L38705 12727
" />
<path d="M38800 12684
L38600 12684
L38600 12753
L38610 12770
L38619 12778
L38638 12787
L38667 12787
L38686 12778
L38695 12770
L38705 12753
L38705 12684
" />
<path d="M38686 12890
L38676 12873
L38667 12864
L38648 12856
L38638 12856
L38619 12864
L38610 12873
L38600 12890
L38600 12924
L38610 12941
L38619 12950
L38638 12958
L38648 12958
L38667 12950
L38676 12941
L38686 12924
L38686 12890
L38695 12873
L38705 12864
L38724 12856
L38762 12856
L38781 12864
L38791 12873
L38800 12890
L38800 12924
L38791 12941
L38781 12950
L38762 12958
L38724 12958
L38705 12950
L38695 12941
L38686 12924
" />
<path d="M38200 12616
L38200 12530
L38295 12521
L38286 12530
L38276 12547
L38276 12590
L38286 12607
L38295 12616
L38314 12624
L38362 12624
L38381 12616
L38391 12607
L38400 12590
L38400 12547
L38391 12530
L38381 12521
" />
<path d="M38200 12736
L38200 12753
L38210 12770
L38219 12778
L38238 12787
L38276 12796
L38324 12796
L38362 12787
L38381 12778
L38391 12770
L38400 12753
L38400 12736
L38391 12718
L38381 12710
L38362 12701
L38324 12693
L38276 12693
L38238 12701
L38219 12710
L38210 12718
L38200 12736
" />
<path d="M38200 12907
L38200 12924
L38210 12941
L38219 12950
L38238 12958
L38276 12967
L38324 12967
L38362 12958
L38381 12950
L38391 12941
L38400 12924
L38400 12907
L38391 12890
L38381 12881
L38362 12873
L38324 12864
L38276 12864
L38238 12873
L38219 12881
L38210 12890
L38200 12907
" />
<path d="M38400 13044
L38200 13044
" />
<path d="M38324 13061
L38400 13113
" />
<path d="M38267 13113
L38343 13044
" />
<path d="M38410 8623
L38470 8528
" />
<path d="M38513 8623
L38513 8423
L38444 8423
L38427 8432
L38419 8442
L38410 8461
L38410 8490
L38419 8509
L38427 8518
L38444 8528
L38513 8528
" />
<path d="M38239 8623
L38342 8623
" />
<path d="M38290 8623
L38290 8423
L38307 8452
L38324 8471
L38342 8480
" />
<path d="M38084 8490
L38084 8623
" />
<path d="M38127 8413
L38170 8556
L38059 8556
" />
<path d="M38504 8042
L38496 8032
L38479 8023
L38436 8023
L38419 8032
L38410 8042
L38402 8061
L38402 8080
L38410 8109
L38513 8223
L38402 8223
" />
<path d="M38290 8023
L38273 8023
L38256 8032
L38247 8042
L38239 8061
L38230 8099
L38230 8147
L38239 8185
L38247 8204
L38256 8213
L38273 8223
L38290 8223
L38307 8213
L38316 8204
L38324 8185
L38333 8147
L38333 8099
L38324 8061
L38316 8042
L38307 8032
L38290 8023
" />
<path d="M38153 8223
L38153 8023
" />
<path d="M38136 8147
L38084 8223
" />
<path d="M38084 8090
L38153 8166
" />
<path d="M40075 9501
L39980 9441
" />
<path d="M40075 9398
L39875 9398
L39875 9467
L39885 9484
L39894 9493
L39913 9501
L39942 9501
L39961 9493
L39971 9484
L39980 9467
L39980 9398
" />
<path d="M40075 9673
L40075 9570
" />
<path d="M40075 9621
L39875 9621
L39904 9604
L39923 9587
L39932 9570
" />
<path d="M39875 9836
L39875 9750
L39971 9741
L39961 9750
L39952 9767
L39952 9810
L39961 9827
L39971 9836
L39990 9844
L40037 9844
L40056 9836
L40066 9827
L40075 9810
L40075 9767
L40066 9750
L40056 9741
" />
<path d="M40475 9424
L40475 9321
" />
<path d="M40475 9373
L40275 9373
L40304 9356
L40323 9338
L40332 9321
" />
<path d="M40275 9536
L40275 9553
L40285 9570
L40294 9578
L40313 9587
L40352 9596
L40399 9596
L40437 9587
L40456 9578
L40466 9570
L40475 9553
L40475 9536
L40466 9518
L40456 9510
L40437 9501
L40399 9493
L40352 9493
L40313 9501
L40294 9510
L40285 9518
L40275 9536
" />
<path d="M40275 9707
L40275 9724
L40285 9741
L40294 9750
L40313 9758
L40352 9767
L40399 9767
L40437 9758
L40456 9750
L40466 9741
L40475 9724
L40475 9707
L40466 9690
L40456 9681
L40437 9673
L40399 9664
L40352 9664
L40313 9673
L40294 9681
L40285 9690
L40275 9707
" />
<path d="M40475 9844
L40275 9844
" />
<path d="M40399 9861
L40475 9913
" />
<path d="M40342 9913
L40418 9844
" />
<path d="M40075 12201
L39980 12141
" />
<path d="M40075 12098
L39875 12098
L39875 12167
L39885 12184
L39894 12193
L39913 12201
L39942 12201
L39961 12193
L39971 12184
L39980 12167
L39980 12098
" />
<path d="M40075 12373
L40075 12270
" />
<path d="M40075 12321
L39875 12321
L39904 12304
L39923 12287
L39932 12270
" />
<path d="M39875 12484
L39875 12501
L39885 12518
L39894 12527
L39913 12536
L39952 12544
L39999 12544
L40037 12536
L40056 12527
L40066 12518
L40075 12501
L40075 12484
L40066 12467
L40056 12458
L40037 12450
L39999 12441
L39952 12441
L39913 12450
L39894 12458
L39885 12467
L39875 12484
" />
<path d="M40475 12124
L40475 12021
" />
<path d="M40475 12073
L40275 12073
L40304 12056
L40323 12038
L40332 12021
" />
<path d="M40275 12236
L40275 12253
L40285 12270
L40294 12278
L40313 12287
L40352 12296
L40399 12296
L40437 12287
L40456 12278
L40466 12270
L40475 12253
L40475 12236
L40466 12218
L40456 12210
L40437 12201
L40399 12193
L40352 12193
L40313 12201
L40294 12210
L40285 12218
L40275 12236
" />
<path d="M40275 12407
L40275 12424
L40285 12441
L40294 12450
L40313 12458
L40352 12467
L40399 12467
L40437 12458
L40456 12450
L40466 12441
L40475 12424
L40475 12407
L40466 12390
L40456 12381
L40437 12373
L40399 12364
L40352 12364
L40313 12373
L40294 12381
L40285 12390
L40275 12407
" />
<path d="M40475 12544
L40275 12544
" />
<path d="M40399 12561
L40475 12613
" />
<path d="M40342 12613
L40418 12544
" />
<path d="M37750 8901
L37655 8841
" />
<path d="M37750 8798
L37550 8798
L37550 8867
L37560 8884
L37569 8893
L37588 8901
L37617 8901
L37636 8893
L37645 8884
L37655 8867
L37655 8798
" />
<path d="M37750 9073
L37750 8970
" />
<path d="M37750 9021
L37550 9021
L37579 9004
L37598 8987
L37607 8970
" />
<path d="M37550 9133
L37550 9244
L37626 9184
L37626 9210
L37636 9227
L37645 9236
L37664 9244
L37712 9244
L37731 9236
L37741 9227
L37750 9210
L37750 9158
L37741 9141
L37731 9133
" />
<path d="M37950 8816
L37950 8730
L38045 8721
L38036 8730
L38026 8747
L38026 8790
L38036 8807
L38045 8816
L38064 8824
L38112 8824
L38131 8816
L38141 8807
L38150 8790
L38150 8747
L38141 8730
L38131 8721
" />
<path d="M37950 8936
L37950 8953
L37960 8970
L37969 8978
L37988 8987
L38026 8996
L38074 8996
L38112 8987
L38131 8978
L38141 8970
L38150 8953
L38150 8936
L38141 8918
L38131 8910
L38112 8901
L38074 8893
L38026 8893
L37988 8901
L37969 8910
L37960 8918
L37950 8936
" />
<path d="M37950 9107
L37950 9124
L37960 9141
L37969 9150
L37988 9158
L38026 9167
L38074 9167
L38112 9158
L38131 9150
L38141 9141
L38150 9124
L38150 9107
L38141 9090
L38131 9081
L38112 9073
L38074 9064
L38026 9064
L37988 9073
L37969 9081
L37960 9090
L37950 9107
" />
<path d="M38150 9244
L37950 9244
" />
<path d="M38074 9261
L38150 9313
" />
<path d="M38017 9313
L38093 9244
" />
<path d="M46810 14098
L46870 14003
" />
<path d="M46913 14098
L46913 13898
L46844 13898
L46827 13907
L46819 13917
L46810 13936
L46810 13965
L46819 13984
L46827 13993
L46844 14003
L46913 14003
" />
<path d="M46639 14098
L46742 14098
" />
<path d="M46690 14098
L46690 13898
L46707 13927
L46724 13946
L46742 13955
" />
<path d="M46579 13898
L46459 13898
L46536 14098
" />
<path d="M46802 14498
L46904 14498
" />
<path d="M46853 14498
L46853 14298
L46870 14327
L46887 14346
L46904 14355
" />
<path d="M46690 14298
L46673 14298
L46656 14307
L46647 14317
L46639 14336
L46630 14374
L46630 14422
L46639 14460
L46647 14479
L46656 14488
L46673 14498
L46690 14498
L46707 14488
L46716 14479
L46724 14460
L46733 14422
L46733 14374
L46724 14336
L46716 14317
L46707 14307
L46690 14298
" />
<path d="M46553 14498
L46553 14298
" />
<path d="M46536 14422
L46484 14498
" />
<path d="M46484 14365
L46553 14441
" />
<path d="M46810 13098
L46870 13003
" />
<path d="M46913 13098
L46913 12898
L46844 12898
L46827 12907
L46819 12917
L46810 12936
L46810 12965
L46819 12984
L46827 12993
L46844 13003
L46913 13003
" />
<path d="M46639 13098
L46742 13098
" />
<path d="M46690 13098
L46690 12898
L46707 12927
L46724 12946
L46742 12955
" />
<path d="M46484 12898
L46519 12898
L46536 12907
L46544 12917
L46562 12946
L46570 12984
L46570 13060
L46562 13079
L46553 13088
L46536 13098
L46502 13098
L46484 13088
L46476 13079
L46467 13060
L46467 13012
L46476 12993
L46484 12984
L46502 12974
L46536 12974
L46553 12984
L46562 12993
L46570 13012
" />
<path d="M46819 13317
L46810 13307
L46793 13298
L46750 13298
L46733 13307
L46724 13317
L46716 13336
L46716 13355
L46724 13384
L46827 13498
L46716 13498
" />
<path d="M46639 13498
L46639 13298
" />
<path d="M46622 13422
L46570 13498
" />
<path d="M46570 13365
L46639 13441
" />
<path d="M46810 7048
L46870 6953
" />
<path d="M46913 7048
L46913 6848
L46844 6848
L46827 6857
L46819 6867
L46810 6886
L46810 6915
L46819 6934
L46827 6943
L46844 6953
L46913 6953
" />
<path d="M46639 7048
L46742 7048
" />
<path d="M46690 7048
L46690 6848
L46707 6877
L46724 6896
L46742 6905
" />
<path d="M46553 7048
L46519 7048
L46502 7038
L46493 7029
L46476 7000
L46467 6962
L46467 6886
L46476 6867
L46484 6857
L46502 6848
L46536 6848
L46553 6857
L46562 6867
L46570 6886
L46570 6934
L46562 6953
L46553 6962
L46536 6972
L46502 6972
L46484 6962
L46476 6953
L46467 6934
" />
<path d="M46802 7448
L46904 7448
" />
<path d="M46853 7448
L46853 7248
L46870 7277
L46887 7296
L46904 7305
" />
<path d="M46690 7248
L46673 7248
L46656 7257
L46647 7267
L46639 7286
L46630 7324
L46630 7372
L46639 7410
L46647 7429
L46656 7438
L46673 7448
L46690 7448
L46707 7438
L46716 7429
L46724 7410
L46733 7372
L46733 7324
L46724 7286
L46716 7267
L46707 7257
L46690 7248
" />
<path d="M46553 7448
L46553 7248
" />
<path d="M46536 7372
L46484 7448
" />
<path d="M46484 7315
L46553 7391
" />
<path d="M46810 6048
L46870 5953
" />
<path d="M46913 6048
L46913 5848
L46844 5848
L46827 5857
L46819 5867
L46810 5886
L46810 5915
L46819 5934
L46827 5943
L46844 5953
L46913 5953
" />
<path d="M46639 6048
L46742 6048
" />
<path d="M46690 6048
L46690 5848
L46707 5877
L46724 5896
L46742 5905
" />
<path d="M46536 5934
L46553 5924
L46562 5915
L46570 5896
L46570 5886
L46562 5867
L46553 5857
L46536 5848
L46502 5848
L46484 5857
L46476 5867
L46467 5886
L46467 5896
L46476 5915
L46484 5924
L46502 5934
L46536 5934
L46553 5943
L46562 5953
L46570 5972
L46570 6010
L46562 6029
L46553 6038
L46536 6048
L46502 6048
L46484 6038
L46476 6029
L46467 6010
L46467 5972
L46476 5953
L46484 5943
L46502 5934
" />
<path d="M46819 6267
L46810 6257
L46793 6248
L46750 6248
L46733 6257
L46724 6267
L46716 6286
L46716 6305
L46724 6334
L46827 6448
L46716 6448
" />
<path d="M46639 6448
L46639 6248
" />
<path d="M46622 6372
L46570 6448
" />
<path d="M46570 6315
L46639 6391
" />
<path d="M42075 6551
L41980 6491
" />
<path d="M42075 6448
L41875 6448
L41875 6517
L41885 6534
L41894 6543
L41913 6551
L41942 6551
L41961 6543
L41971 6534
L41980 6517
L41980 6448
" />
<path d="M42075 6723
L42075 6620
" />
<path d="M42075 6671
L41875 6671
L41904 6654
L41923 6637
L41932 6620
" />
<path d="M41894 6791
L41885 6800
L41875 6817
L41875 6860
L41885 6877
L41894 6886
L41913 6894
L41932 6894
L41961 6886
L42075 6783
L42075 6894
" />
<path d="M42475 6560
L42475 6457
" />
<path d="M42475 6508
L42275 6508
L42304 6491
L42323 6474
L42332 6457
" />
<path d="M42275 6671
L42275 6688
L42285 6706
L42294 6714
L42313 6723
L42352 6731
L42399 6731
L42437 6723
L42456 6714
L42466 6706
L42475 6688
L42475 6671
L42466 6654
L42456 6646
L42437 6637
L42399 6628
L42352 6628
L42313 6637
L42294 6646
L42285 6654
L42275 6671
" />
<path d="M42475 6808
L42275 6808
" />
<path d="M42399 6826
L42475 6877
" />
<path d="M42342 6877
L42418 6808
" />
<path d="M42875 13001
L42780 12941
" />
<path d="M42875 12898
L42675 12898
L42675 12967
L42685 12984
L42694 12993
L42713 13001
L42742 13001
L42761 12993
L42771 12984
L42780 12967
L42780 12898
" />
<path d="M42875 13173
L42875 13070
" />
<path d="M42875 13121
L42675 13121
L42704 13104
L42723 13087
L42732 13070
" />
<path d="M42875 13344
L42875 13241
" />
<path d="M42875 13293
L42675 13293
L42704 13276
L42723 13258
L42732 13241
" />
<path d="M42475 13010
L42475 12907
" />
<path d="M42475 12958
L42275 12958
L42304 12941
L42323 12924
L42332 12907
" />
<path d="M42275 13121
L42275 13138
L42285 13156
L42294 13164
L42313 13173
L42352 13181
L42399 13181
L42437 13173
L42456 13164
L42466 13156
L42475 13138
L42475 13121
L42466 13104
L42456 13096
L42437 13087
L42399 13078
L42352 13078
L42313 13087
L42294 13096
L42285 13104
L42275 13121
" />
<path d="M42475 13258
L42275 13258
" />
<path d="M42399 13276
L42475 13327
" />
<path d="M42342 13327
L42418 13258
" />
<path d="M33450 10887
L33355 10827
" />
<path d="M33450 10784
L33250 10784
L33250 10853
L33260 10870
L33269 10878
L33288 10887
L33317 10887
L33336 10878
L33345 10870
L33355 10853
L33355 10784
" />
<path d="M33269 10956
L33260 10964
L33250 10981
L33250 11024
L33260 11041
L33269 11050
L33288 11058
L33307 11058
L33336 11050
L33450 10947
L33450 11058
" />
<path d="M33050 10896
L33050 10793
" />
<path d="M33050 10844
L32850 10844
L32879 10827
L32898 10810
L32907 10793
" />
<path d="M33050 10973
L32850 10973
" />
<path d="M32974 10990
L33050 11041
" />
<path d="M32917 11041
L32993 10973
" />
</g>
<g style="fill:#A000A0; fill-opacity:0.0; 
stroke:#A000A0; stroke-width:50; stroke-opacity:1; 
stroke-linecap:round; stroke-linejoin:round;">
<path d="M41294 12672
L41294 12892
" />
<path d="M41549 12162
L41549 11942
" />
<path d="M41039 12162
L41039 11942
" />
<path d="M40859 12672
L41729 12672
" />
<path d="M41729 12672
L41729 12162
" />
<path d="M41729 12162
L40859 12162
" />
<path d="M40859 12162
L40859 12672
" />
<path d="M42394 9072
L42394 9292
" />
<path d="M42649 8562
L42649 8342
" />
<path d="M42139 8562
L42139 8342
" />
<path d="M41959 9072
L42829 9072
" />
<path d="M42829 9072
L42829 8562
" />
<path d="M42829 8562
L41959 8562
" />
<path d="M41959 8562
L41959 9072
" />
<path d="M41294 9772
L41294 9992
" />
<path d="M41549 9262
L41549 9042
" />
<path d="M41039 9262
L41039 9042
" />
<path d="M40859 9772
L41729 9772
" />
<path d="M41729 9772
L41729 9262
" />
<path d="M41729 9262
L40859 9262
" />
<path d="M40859 9262
L40859 9772
" />
<path d="M42394 11722
L42394 11942
" />
<path d="M42649 11212
L42649 10992
" />
<path d="M42139 11212
L42139 10992
" />
<path d="M41959 11722
L42829 11722
" />
<path d="M42829 11722
L42829 11212
" />
<path d="M42829 11212
L41959 11212
" />
<path d="M41959 11212
L41959 11722
" />
</g>
<g style="fill:#A000A0; fill-opacity:0.0; 
stroke:#A000A0; stroke-width:80; stroke-opacity:1; 
stroke-linecap:round; stroke-linejoin:round;">
<path d="M38319 11542
L38819 11067
" />
<path d="M38819 11542
L37569 11542
" />
<path d="M37569 11542
L37569 10292
" />
<path d="M37569 10292
L38819 10292
" />
<path d="M38819 10292
L38819 11542
" />
<path d="M5594 10892
L5094 11367
" />
<path d="M5094 10892
L6344 10892
" />
<path d="M6344 10892
L6344 12142
" />
<path d="M6344 12142
L5094 12142
" />
<path d="M5094 12142
L5094 10892
" />
<path d="M10019 10892
L9519 11367
" />
<path d="M9519 10892
L10769 10892
" />
<path d="M10769 10892
L10769 12142
" />
<path d="M10769 12142
L9519 12142
" />
<path d="M9519 12142
L9519 10892
" />
</g>
<g style="fill:#A000A0; fill-opacity:0.0; 
stroke:#A000A0; stroke-width:59.0551; stroke-opacity:1; 
stroke-linecap:round; stroke-linejoin:round;">
<path d="M33582 8472
L33582 10362
" />
<path d="M33582 10362
L35157 10362
" />
<path d="M35157 10362
L35157 8472
" />
<path d="M35157 8472
L33582 8472
" />
<path d="M35157 13362
L35157 11472
" />
<path d="M35157 11472
L33582 11472
" />
<path d="M33582 11472
L33582 13362
" />
<path d="M33582 13362
L35157 13362
" />
<path d="M8594 9517
L11094 9517
" />
<path d="M11094 9517
L11094 7817
" />
<path d="M11094 7817
L8594 7817
" />
<path d="M8594 7817
L8594 9517
" />
<path d="M4169 9517
L6669 9517
" />
<path d="M6669 9517
L6669 7817
" />
<path d="M6669 7817
L4169 7817
" />
<path d="M4169 7817
L4169 9517
" />
</g>
<g style="fill:#A000A0; fill-opacity:0.0; 
stroke:#A000A0; stroke-width:50; stroke-opacity:1; 
stroke-linecap:round; stroke-linejoin:round;">
<path d="M37444 11767
L36544 11767
" />
<path d="M36544 11767
L36544 11117
" />
<path d="M37444 10417
L37444 9767
" />
<path d="M37444 9767
L36544 9767
" />
<path d="M36544 9767
L36544 10417
" />
<path d="M37444 11117
L37444 11767
" />
<path d="M38944 10067
L39844 10067
" />
<path d="M39844 10067
L39844 10717
" />
<path d="M38944 11417
L38944 12067
" />
<path d="M38944 12067
L39844 12067
" />
<path d="M39844 12067
L39844 11417
" />
<path d="M38944 10717
L38944 10067
" />
<path d="M37444 13967
L36544 13967
" />
<path d="M36544 13967
L36544 13317
" />
<path d="M37444 12617
L37444 11967
" />
<path d="M37444 11967
L36544 11967
" />
<path d="M36544 11967
L36544 12617
" />
<path d="M37444 13317
L37444 13967
" />
<path d="M39844 9867
L38944 9867
" />
<path d="M38944 9867
L38944 9217
" />
<path d="M39844 8517
L39844 7867
" />
<path d="M39844 7867
L38944 7867
" />
<path d="M38944 7867
L38944 8517
" />
<path d="M39844 9217
L39844 9867
" />
<path d="M8844 6967
L8844 6067
" />
<path d="M8844 6067
L9494 6067
" />
<path d="M10194 6967
L10844 6967
" />
<path d="M10844 6967
L10844 6067
" />
<path d="M10844 6067
L10194 6067
" />
<path d="M9494 6967
L8844 6967
" />
<path d="M4969 11717
L4069 11717
" />
<path d="M4069 11717
L4069 11067
" />
<path d="M4969 10367
L4969 9717
" />
<path d="M4969 9717
L4069 9717
" />
<path d="M4069 9717
L4069 10367
" />
<path d="M4969 11067
L4969 11717
" />
<path d="M6119 12767
L6119 13667
" />
<path d="M6119 13667
L5469 13667
" />
<path d="M4769 12767
L4119 12767
" />
<path d="M4119 12767
L4119 13667
" />
<path d="M4119 13667
L4769 13667
" />
<path d="M5469 12767
L6119 12767
" />
<path d="M9394 11717
L8494 11717
" />
<path d="M8494 11717
L8494 11067
" />
<path d="M9394 10367
L9394 9717
" />
<path d="M9394 9717
L8494 9717
" />
<path d="M8494 9717
L8494 10367
" />
<path d="M9394 11067
L9394 11717
" />
<path d="M10544 12767
L10544 13667
" />
<path d="M10544 13667
L9894 13667
" />
<path d="M9194 12767
L8544 12767
" />
<path d="M8544 12767
L8544 13667
" />
<path d="M8544 13667
L9194 13667
" />
<path d="M9894 12767
L10544 12767
" />
<path d="M4769 14967
L4769 14067
" />
<path d="M4769 14067
L5419 14067
" />
<path d="M6119 14967
L6769 14967
" />
<path d="M6769 14967
L6769 14067
" />
<path d="M6769 14067
L6119 14067
" />
<path d="M5419 14967
L4769 14967
" />
<path d="M6419 4992
L6419 5892
" />
<path d="M6419 5892
L5769 5892
" />
<path d="M5069 4992
L4419 4992
" />
<path d="M4419 4992
L4419 5892
" />
<path d="M4419 5892
L5069 5892
" />
<path d="M5769 4992
L6419 4992
" />
<path d="M11169 15067
L11169 15967
" />
<path d="M11169 15967
L10519 15967
" />
<path d="M9819 15067
L9169 15067
" />
<path d="M9169 15067
L9169 15967
" />
<path d="M9169 15967
L9819 15967
" />
<path d="M10519 15067
L11169 15067
" />
<path d="M8844 5892
L8844 4992
" />
<path d="M8844 4992
L9494 4992
" />
<path d="M10194 5892
L10844 5892
" />
<path d="M10844 5892
L10844 4992
" />
<path d="M10844 4992
L10194 4992
" />
<path d="M9494 5892
L8844 5892
" />
<path d="M6419 6067
L6419 6967
" />
<path d="M6419 6967
L5769 6967
" />
<path d="M5069 6067
L4419 6067
" />
<path d="M4419 6067
L4419 6967
" />
<path d="M4419 6967
L5069 6967
" />
<path d="M5769 6067
L6419 6067
" />
<path d="M4769 15967
L4769 15067
" />
<path d="M4769 15067
L5419 15067
" />
<path d="M6119 15967
L6769 15967
" />
<path d="M6769 15967
L6769 15067
" />
<path d="M6769 15067
L6119 15067
" />
<path d="M5419 15967
L4769 15967
" />
<path d="M11169 14067
L11169 14967
" />
<path d="M11169 14967
L10519 14967
" />
<path d="M9819 14067
L9169 14067
" />
<path d="M9169 14067
L9169 14967
" />
<path d="M9169 14967
L9819 14967
" />
<path d="M10519 14067
L11169 14067
" />
<path d="M39719 12342
L38819 12342
" />
<path d="M38819 12342
L38819 12842
" />
<path d="M38819 12842
L39719 12842
" />
<path d="M39719 12842
L39719 12342
" />
<path d="M38569 13267
L38569 12367
" />
<path d="M38569 12367
L38069 12367
" />
<path d="M38069 12367
L38069 13267
" />
<path d="M38069 13267
L38569 13267
" />
<path d="M37844 8392
L38744 8392
" />
<path d="M38744 8392
L38744 7892
" />
<path d="M38744 7892
L37844 7892
" />
<path d="M37844 7892
L37844 8392
" />
<path d="M40144 9167
L40144 10067
" />
<path d="M40144 10067
L40644 10067
" />
<path d="M40644 10067
L40644 9167
" />
<path d="M40644 9167
L40144 9167
" />
<path d="M40144 11867
L40144 12767
" />
<path d="M40144 12767
L40644 12767
" />
<path d="M40644 12767
L40644 11867
" />
<path d="M40644 11867
L40144 11867
" />
<path d="M37819 8567
L37819 9467
" />
<path d="M37819 9467
L38319 9467
" />
<path d="M38319 9467
L38319 8567
" />
<path d="M38319 8567
L37819 8567
" />
<path d="M47144 14167
L46244 14167
" />
<path d="M46244 14167
L46244 14667
" />
<path d="M46244 14667
L47144 14667
" />
<path d="M47144 14667
L47144 14167
" />
<path d="M47144 13167
L46244 13167
" />
<path d="M46244 13167
L46244 13667
" />
<path d="M46244 13667
L47144 13667
" />
<path d="M47144 13667
L47144 13167
" />
<path d="M47144 7117
L46244 7117
" />
<path d="M46244 7117
L46244 7617
" />
<path d="M46244 7617
L47144 7617
" />
<path d="M47144 7617
L47144 7117
" />
<path d="M47144 6117
L46244 6117
" />
<path d="M46244 6117
L46244 6617
" />
<path d="M46244 6617
L47144 6617
" />
<path d="M47144 6617
L47144 6117
" />
<path d="M42144 6217
L42144 7117
" />
<path d="M42144 7117
L42644 7117
" />
<path d="M42644 7117
L42644 6217
" />
<path d="M42644 6217
L42144 6217
" />
<path d="M42644 13567
L42644 12667
" />
<path d="M42644 12667
L42144 12667
" />
<path d="M42144 12667
L42144 13567
" />
<path d="M42144 13567
L42644 13567
" />
<path d="M33219 11367
L33219 10467
" />
<path d="M33219 10467
L32719 10467
" />
<path d="M32719 10467
L32719 11367
" />
<path d="M32719 11367
L33219 11367
" />
</g>
<g style="fill:#808000; fill-opacity:0.0; 
stroke:#808000; stroke-width:39.3701; stroke-opacity:1; 
stroke-linecap:round; stroke-linejoin:round;">
</g>
<g style="fill:#808000; fill-opacity:1.0; 
stroke:#808000; stroke-width:39.3701; stroke-opacity:1; 
stroke-linecap:round; stroke-linejoin:round;">
<polyline style="fill-rule:evenodd;"
points="5345,11812
5345,11222
6093,11222
6093,11812
5345,11812
" /> 
<polyline style="fill-rule:evenodd;"
points="9770,11812
9770,11222
10518,11222
10518,11812
9770,11812
" /> 
</g> 
</svg>
