M48
;DRILL file {Pcbnew (2013-may-18)-stable} date 2014年05月12日 星期一 23时21分19秒
;FORMAT={2:4/ absolute / inch / keep zeros}
FMAT,2
INCH,TZ
T1C0.025
T2C0.028
T3C0.032
T4C0.039
T5C0.120
%
G90
G05
M72
T1
X043280Y-043614
X068084Y-043772
X072082Y-040608
X072575Y-042150
X072625Y-042825
X073268Y-043161
X075125Y-039900
X075525Y-041500
X076175Y-043125
X077775Y-037775
X077775Y-044825
X077875Y-039175
X077875Y-046225
T2
X037500Y-043225
X039800Y-043225
X041925Y-043225
X044200Y-043225
T3
X046550Y-051025
X047550Y-044425
X047550Y-047825
X047550Y-051025
X048350Y-041125
X048550Y-044425
X048550Y-047825
X048550Y-051025
X049350Y-041125
X049550Y-044425
X050350Y-051025
X051350Y-044425
X051350Y-047825
X051350Y-051025
X052350Y-038025
X052350Y-041225
X052350Y-044425
X052350Y-047825
X052350Y-051025
X053350Y-034825
X053350Y-038025
X053350Y-041225
X053350Y-044425
X054150Y-051025
X054350Y-034825
X054350Y-038025
X055150Y-044425
X055150Y-047825
X055150Y-051025
X056150Y-038025
X056150Y-041225
X056150Y-044425
X056150Y-047825
X056150Y-051025
X057150Y-034825
X057150Y-038025
X057150Y-041225
X057150Y-044425
X057950Y-051025
X058150Y-034825
X058150Y-038025
X058950Y-044425
X058950Y-047825
X058950Y-051025
X059950Y-038025
X059950Y-041225
X059950Y-044425
X059950Y-047825
X059950Y-051025
X060950Y-034825
X060950Y-038025
X060950Y-041225
X060950Y-044425
X061750Y-047825
X061950Y-034825
X061950Y-038025
X062750Y-044425
X062750Y-047825
X062750Y-051025
X063750Y-038025
X063750Y-041225
X063750Y-044425
X063750Y-047825
X063750Y-051025
X064750Y-034825
X064750Y-038025
X064750Y-041225
X064750Y-044425
X065550Y-047825
X065750Y-034825
X065750Y-038025
X066550Y-047825
X066550Y-051025
X067550Y-047825
X067550Y-051025
X069350Y-047825
X070350Y-047825
X070350Y-051025
X071350Y-047825
X071350Y-051025
X075175Y-037075
X075175Y-038075
X075175Y-039075
X075175Y-044125
X075175Y-045125
X075175Y-046125
X077575Y-035275
X077575Y-042325
X078575Y-035275
X078575Y-042325
X079575Y-035275
X079575Y-038075
X079575Y-039075
X079575Y-042325
X079575Y-045125
X079575Y-046125
T4
X037550Y-033925
X037550Y-034925
X038550Y-033925
X038550Y-034925
X038850Y-049225
X038850Y-050225
X039550Y-033925
X039550Y-034925
X039850Y-049225
X039850Y-050225
X040550Y-033925
X040550Y-034925
X040850Y-049225
X040850Y-050225
X041550Y-033925
X041550Y-034925
X041850Y-049225
X041850Y-050225
X042550Y-033925
X042550Y-034925
X042850Y-049225
X042850Y-050225
X043550Y-033925
X043550Y-034925
X044550Y-033925
X044550Y-034925
X045550Y-033925
X045550Y-034925
X046550Y-033925
X046550Y-034925
X047550Y-033925
X047550Y-034925
X048550Y-033925
X048550Y-034925
X049550Y-033925
X049550Y-034925
T5
X033350Y-034225
X033350Y-050225
X082750Y-034225
X082750Y-050225
T0
M30
