G04 (created by PCBNEW (2013-may-18)-stable) date 2014年05月12日 星期一 23时21分15秒*
%MOIN*%
G04 Gerber Fmt 3.4, Leading zero omitted, Abs format*
%FSLAX34Y34*%
G01*
G70*
G90*
G04 APERTURE LIST*
%ADD10C,0.00590551*%
%ADD11C,0.0693*%
%ADD12R,0.08X0.06*%
%ADD13R,0.06X0.08*%
%ADD14R,0.025X0.045*%
%ADD15R,0.045X0.025*%
%ADD16R,0.055X0.055*%
%ADD17C,0.055*%
%ADD18R,0.015X0.05*%
%ADD19R,0.0787402X0.0629921*%
%ADD20R,0.05X0.11*%
%ADD21R,0.11X0.05*%
%ADD22C,0.16*%
G04 APERTURE END LIST*
G54D10*
G54D11*
X38850Y-50225D03*
X38850Y-49225D03*
X39850Y-50225D03*
X39850Y-49225D03*
X40850Y-50225D03*
X40850Y-49225D03*
X41850Y-50225D03*
X41850Y-49225D03*
X42850Y-50225D03*
X42850Y-49225D03*
X49550Y-33925D03*
X49550Y-34925D03*
X46550Y-33925D03*
X46550Y-34925D03*
X45550Y-33925D03*
X45550Y-34925D03*
X37550Y-34925D03*
X37550Y-33925D03*
X38550Y-34925D03*
X38550Y-33925D03*
X39550Y-34925D03*
X39550Y-33925D03*
X40550Y-34925D03*
X40550Y-33925D03*
X41550Y-34925D03*
X41550Y-33925D03*
X42550Y-34925D03*
X42550Y-33925D03*
X43550Y-34925D03*
X43550Y-33925D03*
X44550Y-34925D03*
X44550Y-33925D03*
X47550Y-34925D03*
X47550Y-33925D03*
X48550Y-34925D03*
X48550Y-33925D03*
G54D12*
X71475Y-42025D03*
X71475Y-43325D03*
X68975Y-41725D03*
X68975Y-43025D03*
G54D13*
X69825Y-44425D03*
X68525Y-44425D03*
G54D12*
X41000Y-43075D03*
X41000Y-41775D03*
G54D13*
X39750Y-44925D03*
X41050Y-44925D03*
G54D12*
X45400Y-43075D03*
X45400Y-41775D03*
G54D13*
X44150Y-44925D03*
X45450Y-44925D03*
X39450Y-38225D03*
X40750Y-38225D03*
X45174Y-37150D03*
X43874Y-37150D03*
X39450Y-37150D03*
X40750Y-37150D03*
X45174Y-38225D03*
X43874Y-38225D03*
X40400Y-47225D03*
X39100Y-47225D03*
X43500Y-47225D03*
X44800Y-47225D03*
X40400Y-46225D03*
X39100Y-46225D03*
X43500Y-46225D03*
X44800Y-46225D03*
G54D14*
X63950Y-42725D03*
X64550Y-42725D03*
X48750Y-42725D03*
X49350Y-42725D03*
X52550Y-42725D03*
X53150Y-42725D03*
X56350Y-42725D03*
X56950Y-42725D03*
X60150Y-42725D03*
X60750Y-42725D03*
X53550Y-36325D03*
X54150Y-36325D03*
X57350Y-36325D03*
X57950Y-36325D03*
X61150Y-36325D03*
X61750Y-36325D03*
X64950Y-36325D03*
X65550Y-36325D03*
G54D15*
X61350Y-50225D03*
X61350Y-49625D03*
G54D14*
X63650Y-33225D03*
X63050Y-33225D03*
X68900Y-45350D03*
X69500Y-45350D03*
G54D15*
X68100Y-42425D03*
X68100Y-43025D03*
X65150Y-50225D03*
X65150Y-49625D03*
X68950Y-50225D03*
X68950Y-49625D03*
G54D16*
X59950Y-51025D03*
G54D17*
X58950Y-51025D03*
X57950Y-51025D03*
G54D16*
X57150Y-44425D03*
G54D17*
X56150Y-44425D03*
X55150Y-44425D03*
G54D16*
X63750Y-47825D03*
G54D17*
X62750Y-47825D03*
X61750Y-47825D03*
G54D16*
X56150Y-51025D03*
G54D17*
X55150Y-51025D03*
X54150Y-51025D03*
G54D16*
X67550Y-47825D03*
G54D17*
X66550Y-47825D03*
X65550Y-47825D03*
G54D16*
X71350Y-47825D03*
G54D17*
X70350Y-47825D03*
X69350Y-47825D03*
G54D16*
X52350Y-51025D03*
G54D17*
X51350Y-51025D03*
X50350Y-51025D03*
G54D16*
X54350Y-38025D03*
G54D17*
X53350Y-38025D03*
X52350Y-38025D03*
G54D16*
X49550Y-44425D03*
G54D17*
X48550Y-44425D03*
X47550Y-44425D03*
G54D16*
X60950Y-44425D03*
G54D17*
X59950Y-44425D03*
X58950Y-44425D03*
G54D16*
X53350Y-44425D03*
G54D17*
X52350Y-44425D03*
X51350Y-44425D03*
G54D16*
X58150Y-38025D03*
G54D17*
X57150Y-38025D03*
X56150Y-38025D03*
G54D16*
X61950Y-38025D03*
G54D17*
X60950Y-38025D03*
X59950Y-38025D03*
G54D16*
X79575Y-42325D03*
G54D17*
X78575Y-42325D03*
X77575Y-42325D03*
G54D16*
X65750Y-38025D03*
G54D17*
X64750Y-38025D03*
X63750Y-38025D03*
G54D16*
X75175Y-46125D03*
G54D17*
X75175Y-45125D03*
X75175Y-44125D03*
G54D16*
X79575Y-35275D03*
G54D17*
X78575Y-35275D03*
X77575Y-35275D03*
G54D16*
X64750Y-44425D03*
G54D17*
X63750Y-44425D03*
X62750Y-44425D03*
G54D16*
X75175Y-39075D03*
G54D17*
X75175Y-38075D03*
X75175Y-37075D03*
G54D16*
X48550Y-51025D03*
G54D17*
X47550Y-51025D03*
X46550Y-51025D03*
G54D16*
X64750Y-41225D03*
G54D17*
X63750Y-41225D03*
G54D16*
X49350Y-41125D03*
G54D17*
X48350Y-41125D03*
G54D16*
X65750Y-34825D03*
G54D17*
X64750Y-34825D03*
G54D16*
X60950Y-41225D03*
G54D17*
X59950Y-41225D03*
G54D16*
X53350Y-41225D03*
G54D17*
X52350Y-41225D03*
G54D16*
X61950Y-34825D03*
G54D17*
X60950Y-34825D03*
G54D16*
X57150Y-41225D03*
G54D17*
X56150Y-41225D03*
G54D16*
X48550Y-47825D03*
G54D17*
X47550Y-47825D03*
G54D16*
X71350Y-51025D03*
G54D17*
X70350Y-51025D03*
G54D16*
X54350Y-34825D03*
G54D17*
X53350Y-34825D03*
G54D16*
X79575Y-46125D03*
G54D17*
X79575Y-45125D03*
G54D16*
X58150Y-34825D03*
G54D17*
X57150Y-34825D03*
G54D16*
X67550Y-51025D03*
G54D17*
X66550Y-51025D03*
G54D16*
X52350Y-47825D03*
G54D17*
X51350Y-47825D03*
G54D16*
X56150Y-47825D03*
G54D17*
X55150Y-47825D03*
G54D16*
X79575Y-39075D03*
G54D17*
X79575Y-38075D03*
G54D16*
X59950Y-47825D03*
G54D17*
X58950Y-47825D03*
G54D16*
X63750Y-51025D03*
G54D17*
X62750Y-51025D03*
G54D18*
X69840Y-43375D03*
X70096Y-43375D03*
X70352Y-43375D03*
X70608Y-43375D03*
X70608Y-41675D03*
X70352Y-41675D03*
X70096Y-41675D03*
X69840Y-41675D03*
X44584Y-42375D03*
X44328Y-42375D03*
X44072Y-42375D03*
X43816Y-42375D03*
X43816Y-44075D03*
X44072Y-44075D03*
X44328Y-44075D03*
X44584Y-44075D03*
G54D19*
X44200Y-43225D03*
G54D18*
X40184Y-42375D03*
X39928Y-42375D03*
X39672Y-42375D03*
X39416Y-42375D03*
X39416Y-44075D03*
X39672Y-44075D03*
X39928Y-44075D03*
X40184Y-44075D03*
G54D19*
X39800Y-43225D03*
X37500Y-43225D03*
X41924Y-43225D03*
G54D20*
X44500Y-41275D03*
X45500Y-39425D03*
X43500Y-39425D03*
G54D21*
X76375Y-45425D03*
X78225Y-46425D03*
X78225Y-44425D03*
X76375Y-38375D03*
X78225Y-39375D03*
X78225Y-37375D03*
G54D20*
X40100Y-41275D03*
X41100Y-39425D03*
X39100Y-39425D03*
G54D22*
X33350Y-50225D03*
X33350Y-34225D03*
X82750Y-34225D03*
X82750Y-50225D03*
M02*
