G04 (created by PCBNEW (2013-may-18)-stable) date 2014年05月12日 星期一 23时21分15秒*
%MOIN*%
G04 Gerber Fmt 3.4, Leading zero omitted, Abs format*
%FSLAX34Y34*%
G01*
G70*
G90*
G04 APERTURE LIST*
%ADD10C,0.00590551*%
%ADD11C,0.01*%
%ADD12C,0.016*%
%ADD13C,0.005*%
%ADD14C,0.012*%
%ADD15C,0.008*%
%ADD16C,0.015*%
%ADD17C,0.0035*%
%ADD18C,0.0045*%
%ADD19C,0.0106*%
%ADD20C,0.0107*%
%ADD21C,0.006*%
G04 APERTURE END LIST*
G54D10*
G54D11*
X37100Y-48225D02*
X36850Y-47975D01*
X37100Y-51225D02*
X36850Y-51475D01*
X44600Y-51225D02*
X44850Y-51475D01*
X44600Y-48225D02*
X44850Y-47975D01*
X41600Y-51475D02*
X41600Y-51225D01*
X41600Y-51225D02*
X44600Y-51225D01*
X44600Y-51225D02*
X44600Y-48225D01*
X44600Y-48225D02*
X37100Y-48225D01*
X37100Y-48225D02*
X37100Y-51225D01*
X37100Y-51225D02*
X40100Y-51225D01*
X40100Y-51225D02*
X40100Y-51475D01*
X36850Y-51475D02*
X44850Y-51475D01*
X44850Y-47975D02*
X36850Y-47975D01*
X36850Y-47975D02*
X36850Y-51475D01*
X44850Y-47975D02*
X44850Y-51475D01*
G54D12*
X37898Y-50500D02*
X38173Y-50921D01*
X38173Y-50921D02*
X38449Y-50500D01*
X38449Y-50500D02*
X37898Y-50500D01*
G54D11*
X51300Y-35925D02*
X44300Y-35925D01*
X35550Y-36175D02*
X51550Y-36175D01*
X35800Y-35925D02*
X42800Y-35925D01*
X51300Y-32925D02*
X35800Y-32925D01*
X35550Y-32675D02*
X51550Y-32675D01*
X51300Y-35925D02*
X51550Y-36175D01*
X51300Y-32925D02*
X51550Y-32675D01*
X35800Y-35925D02*
X35550Y-36175D01*
X35550Y-32675D02*
X35800Y-32925D01*
X35800Y-32925D02*
X35800Y-35925D01*
X42800Y-35925D02*
X42800Y-36175D01*
X51300Y-32925D02*
X51300Y-35925D01*
X44300Y-35925D02*
X44300Y-36175D01*
X35550Y-32675D02*
X35550Y-36175D01*
X51550Y-32675D02*
X51550Y-36175D01*
X36598Y-35200D02*
X36873Y-35621D01*
X36873Y-35621D02*
X37149Y-35200D01*
X37149Y-35200D02*
X36598Y-35200D01*
G54D13*
X71925Y-41675D02*
X71025Y-41675D01*
X71025Y-41675D02*
X71025Y-42325D01*
X71925Y-43025D02*
X71925Y-43675D01*
X71925Y-43675D02*
X71025Y-43675D01*
X71025Y-43675D02*
X71025Y-43025D01*
X71925Y-42325D02*
X71925Y-41675D01*
X69425Y-41375D02*
X68525Y-41375D01*
X68525Y-41375D02*
X68525Y-42025D01*
X69425Y-42725D02*
X69425Y-43375D01*
X69425Y-43375D02*
X68525Y-43375D01*
X68525Y-43375D02*
X68525Y-42725D01*
X69425Y-42025D02*
X69425Y-41375D01*
X70175Y-44875D02*
X70175Y-43975D01*
X70175Y-43975D02*
X69525Y-43975D01*
X68825Y-44875D02*
X68175Y-44875D01*
X68175Y-44875D02*
X68175Y-43975D01*
X68175Y-43975D02*
X68825Y-43975D01*
X69525Y-44875D02*
X70175Y-44875D01*
X40550Y-43425D02*
X41450Y-43425D01*
X41450Y-43425D02*
X41450Y-42775D01*
X40550Y-42075D02*
X40550Y-41425D01*
X40550Y-41425D02*
X41450Y-41425D01*
X41450Y-41425D02*
X41450Y-42075D01*
X40550Y-42775D02*
X40550Y-43425D01*
X39400Y-44475D02*
X39400Y-45375D01*
X39400Y-45375D02*
X40050Y-45375D01*
X40750Y-44475D02*
X41400Y-44475D01*
X41400Y-44475D02*
X41400Y-45375D01*
X41400Y-45375D02*
X40750Y-45375D01*
X40050Y-44475D02*
X39400Y-44475D01*
X44950Y-43425D02*
X45850Y-43425D01*
X45850Y-43425D02*
X45850Y-42775D01*
X44950Y-42075D02*
X44950Y-41425D01*
X44950Y-41425D02*
X45850Y-41425D01*
X45850Y-41425D02*
X45850Y-42075D01*
X44950Y-42775D02*
X44950Y-43425D01*
X43800Y-44475D02*
X43800Y-45375D01*
X43800Y-45375D02*
X44450Y-45375D01*
X45150Y-44475D02*
X45800Y-44475D01*
X45800Y-44475D02*
X45800Y-45375D01*
X45800Y-45375D02*
X45150Y-45375D01*
X44450Y-44475D02*
X43800Y-44475D01*
X39100Y-37775D02*
X39100Y-38675D01*
X39100Y-38675D02*
X39750Y-38675D01*
X40450Y-37775D02*
X41100Y-37775D01*
X41100Y-37775D02*
X41100Y-38675D01*
X41100Y-38675D02*
X40450Y-38675D01*
X39750Y-37775D02*
X39100Y-37775D01*
X45524Y-37600D02*
X45524Y-36700D01*
X45524Y-36700D02*
X44874Y-36700D01*
X44174Y-37600D02*
X43524Y-37600D01*
X43524Y-37600D02*
X43524Y-36700D01*
X43524Y-36700D02*
X44174Y-36700D01*
X44874Y-37600D02*
X45524Y-37600D01*
X39100Y-36700D02*
X39100Y-37600D01*
X39100Y-37600D02*
X39750Y-37600D01*
X40450Y-36700D02*
X41100Y-36700D01*
X41100Y-36700D02*
X41100Y-37600D01*
X41100Y-37600D02*
X40450Y-37600D01*
X39750Y-36700D02*
X39100Y-36700D01*
X45524Y-38675D02*
X45524Y-37775D01*
X45524Y-37775D02*
X44874Y-37775D01*
X44174Y-38675D02*
X43524Y-38675D01*
X43524Y-38675D02*
X43524Y-37775D01*
X43524Y-37775D02*
X44174Y-37775D01*
X44874Y-38675D02*
X45524Y-38675D01*
X40750Y-47675D02*
X40750Y-46775D01*
X40750Y-46775D02*
X40100Y-46775D01*
X39400Y-47675D02*
X38750Y-47675D01*
X38750Y-47675D02*
X38750Y-46775D01*
X38750Y-46775D02*
X39400Y-46775D01*
X40100Y-47675D02*
X40750Y-47675D01*
X43150Y-46775D02*
X43150Y-47675D01*
X43150Y-47675D02*
X43800Y-47675D01*
X44500Y-46775D02*
X45150Y-46775D01*
X45150Y-46775D02*
X45150Y-47675D01*
X45150Y-47675D02*
X44500Y-47675D01*
X43800Y-46775D02*
X43150Y-46775D01*
X40750Y-46675D02*
X40750Y-45775D01*
X40750Y-45775D02*
X40100Y-45775D01*
X39400Y-46675D02*
X38750Y-46675D01*
X38750Y-46675D02*
X38750Y-45775D01*
X38750Y-45775D02*
X39400Y-45775D01*
X40100Y-46675D02*
X40750Y-46675D01*
X43150Y-45775D02*
X43150Y-46675D01*
X43150Y-46675D02*
X43800Y-46675D01*
X44500Y-45775D02*
X45150Y-45775D01*
X45150Y-45775D02*
X45150Y-46675D01*
X45150Y-46675D02*
X44500Y-46675D01*
X43800Y-45775D02*
X43150Y-45775D01*
X63800Y-42475D02*
X64700Y-42475D01*
X64700Y-42475D02*
X64700Y-42975D01*
X64700Y-42975D02*
X63800Y-42975D01*
X63800Y-42975D02*
X63800Y-42475D01*
X48600Y-42475D02*
X49500Y-42475D01*
X49500Y-42475D02*
X49500Y-42975D01*
X49500Y-42975D02*
X48600Y-42975D01*
X48600Y-42975D02*
X48600Y-42475D01*
X52400Y-42475D02*
X53300Y-42475D01*
X53300Y-42475D02*
X53300Y-42975D01*
X53300Y-42975D02*
X52400Y-42975D01*
X52400Y-42975D02*
X52400Y-42475D01*
X56200Y-42475D02*
X57100Y-42475D01*
X57100Y-42475D02*
X57100Y-42975D01*
X57100Y-42975D02*
X56200Y-42975D01*
X56200Y-42975D02*
X56200Y-42475D01*
X60000Y-42475D02*
X60900Y-42475D01*
X60900Y-42475D02*
X60900Y-42975D01*
X60900Y-42975D02*
X60000Y-42975D01*
X60000Y-42975D02*
X60000Y-42475D01*
X53400Y-36075D02*
X54300Y-36075D01*
X54300Y-36075D02*
X54300Y-36575D01*
X54300Y-36575D02*
X53400Y-36575D01*
X53400Y-36575D02*
X53400Y-36075D01*
X57200Y-36075D02*
X58100Y-36075D01*
X58100Y-36075D02*
X58100Y-36575D01*
X58100Y-36575D02*
X57200Y-36575D01*
X57200Y-36575D02*
X57200Y-36075D01*
X61000Y-36075D02*
X61900Y-36075D01*
X61900Y-36075D02*
X61900Y-36575D01*
X61900Y-36575D02*
X61000Y-36575D01*
X61000Y-36575D02*
X61000Y-36075D01*
X64800Y-36075D02*
X65700Y-36075D01*
X65700Y-36075D02*
X65700Y-36575D01*
X65700Y-36575D02*
X64800Y-36575D01*
X64800Y-36575D02*
X64800Y-36075D01*
X61100Y-50375D02*
X61100Y-49475D01*
X61100Y-49475D02*
X61600Y-49475D01*
X61600Y-49475D02*
X61600Y-50375D01*
X61600Y-50375D02*
X61100Y-50375D01*
X63800Y-33475D02*
X62900Y-33475D01*
X62900Y-33475D02*
X62900Y-32975D01*
X62900Y-32975D02*
X63800Y-32975D01*
X63800Y-32975D02*
X63800Y-33475D01*
X68750Y-45100D02*
X69650Y-45100D01*
X69650Y-45100D02*
X69650Y-45600D01*
X69650Y-45600D02*
X68750Y-45600D01*
X68750Y-45600D02*
X68750Y-45100D01*
X68350Y-42275D02*
X68350Y-43175D01*
X68350Y-43175D02*
X67850Y-43175D01*
X67850Y-43175D02*
X67850Y-42275D01*
X67850Y-42275D02*
X68350Y-42275D01*
X64900Y-50375D02*
X64900Y-49475D01*
X64900Y-49475D02*
X65400Y-49475D01*
X65400Y-49475D02*
X65400Y-50375D01*
X65400Y-50375D02*
X64900Y-50375D01*
X68700Y-50375D02*
X68700Y-49475D01*
X68700Y-49475D02*
X69200Y-49475D01*
X69200Y-49475D02*
X69200Y-50375D01*
X69200Y-50375D02*
X68700Y-50375D01*
G54D14*
X60450Y-50525D02*
X60450Y-51525D01*
X60450Y-51525D02*
X57450Y-51525D01*
X57450Y-51525D02*
X57450Y-50525D01*
X57450Y-50525D02*
X60450Y-50525D01*
X59450Y-51525D02*
X59450Y-50525D01*
X57650Y-43925D02*
X57650Y-44925D01*
X57650Y-44925D02*
X54650Y-44925D01*
X54650Y-44925D02*
X54650Y-43925D01*
X54650Y-43925D02*
X57650Y-43925D01*
X56650Y-44925D02*
X56650Y-43925D01*
X64250Y-47325D02*
X64250Y-48325D01*
X64250Y-48325D02*
X61250Y-48325D01*
X61250Y-48325D02*
X61250Y-47325D01*
X61250Y-47325D02*
X64250Y-47325D01*
X63250Y-48325D02*
X63250Y-47325D01*
X56650Y-50525D02*
X56650Y-51525D01*
X56650Y-51525D02*
X53650Y-51525D01*
X53650Y-51525D02*
X53650Y-50525D01*
X53650Y-50525D02*
X56650Y-50525D01*
X55650Y-51525D02*
X55650Y-50525D01*
X68050Y-47325D02*
X68050Y-48325D01*
X68050Y-48325D02*
X65050Y-48325D01*
X65050Y-48325D02*
X65050Y-47325D01*
X65050Y-47325D02*
X68050Y-47325D01*
X67050Y-48325D02*
X67050Y-47325D01*
X71850Y-47325D02*
X71850Y-48325D01*
X71850Y-48325D02*
X68850Y-48325D01*
X68850Y-48325D02*
X68850Y-47325D01*
X68850Y-47325D02*
X71850Y-47325D01*
X70850Y-48325D02*
X70850Y-47325D01*
X52850Y-50525D02*
X52850Y-51525D01*
X52850Y-51525D02*
X49850Y-51525D01*
X49850Y-51525D02*
X49850Y-50525D01*
X49850Y-50525D02*
X52850Y-50525D01*
X51850Y-51525D02*
X51850Y-50525D01*
X54850Y-37525D02*
X54850Y-38525D01*
X54850Y-38525D02*
X51850Y-38525D01*
X51850Y-38525D02*
X51850Y-37525D01*
X51850Y-37525D02*
X54850Y-37525D01*
X53850Y-38525D02*
X53850Y-37525D01*
X50050Y-43925D02*
X50050Y-44925D01*
X50050Y-44925D02*
X47050Y-44925D01*
X47050Y-44925D02*
X47050Y-43925D01*
X47050Y-43925D02*
X50050Y-43925D01*
X49050Y-44925D02*
X49050Y-43925D01*
X61450Y-43925D02*
X61450Y-44925D01*
X61450Y-44925D02*
X58450Y-44925D01*
X58450Y-44925D02*
X58450Y-43925D01*
X58450Y-43925D02*
X61450Y-43925D01*
X60450Y-44925D02*
X60450Y-43925D01*
X53850Y-43925D02*
X53850Y-44925D01*
X53850Y-44925D02*
X50850Y-44925D01*
X50850Y-44925D02*
X50850Y-43925D01*
X50850Y-43925D02*
X53850Y-43925D01*
X52850Y-44925D02*
X52850Y-43925D01*
X58650Y-37525D02*
X58650Y-38525D01*
X58650Y-38525D02*
X55650Y-38525D01*
X55650Y-38525D02*
X55650Y-37525D01*
X55650Y-37525D02*
X58650Y-37525D01*
X57650Y-38525D02*
X57650Y-37525D01*
X62450Y-37525D02*
X62450Y-38525D01*
X62450Y-38525D02*
X59450Y-38525D01*
X59450Y-38525D02*
X59450Y-37525D01*
X59450Y-37525D02*
X62450Y-37525D01*
X61450Y-38525D02*
X61450Y-37525D01*
X80075Y-41825D02*
X80075Y-42825D01*
X80075Y-42825D02*
X77075Y-42825D01*
X77075Y-42825D02*
X77075Y-41825D01*
X77075Y-41825D02*
X80075Y-41825D01*
X79075Y-42825D02*
X79075Y-41825D01*
X66250Y-37525D02*
X66250Y-38525D01*
X66250Y-38525D02*
X63250Y-38525D01*
X63250Y-38525D02*
X63250Y-37525D01*
X63250Y-37525D02*
X66250Y-37525D01*
X65250Y-38525D02*
X65250Y-37525D01*
X75675Y-46625D02*
X74675Y-46625D01*
X74675Y-46625D02*
X74675Y-43625D01*
X74675Y-43625D02*
X75675Y-43625D01*
X75675Y-43625D02*
X75675Y-46625D01*
X74675Y-45625D02*
X75675Y-45625D01*
X80075Y-34775D02*
X80075Y-35775D01*
X80075Y-35775D02*
X77075Y-35775D01*
X77075Y-35775D02*
X77075Y-34775D01*
X77075Y-34775D02*
X80075Y-34775D01*
X79075Y-35775D02*
X79075Y-34775D01*
X65250Y-43925D02*
X65250Y-44925D01*
X65250Y-44925D02*
X62250Y-44925D01*
X62250Y-44925D02*
X62250Y-43925D01*
X62250Y-43925D02*
X65250Y-43925D01*
X64250Y-44925D02*
X64250Y-43925D01*
X75675Y-39575D02*
X74675Y-39575D01*
X74675Y-39575D02*
X74675Y-36575D01*
X74675Y-36575D02*
X75675Y-36575D01*
X75675Y-36575D02*
X75675Y-39575D01*
X74675Y-38575D02*
X75675Y-38575D01*
X49050Y-50525D02*
X49050Y-51525D01*
X49050Y-51525D02*
X46050Y-51525D01*
X46050Y-51525D02*
X46050Y-50525D01*
X46050Y-50525D02*
X49050Y-50525D01*
X48050Y-51525D02*
X48050Y-50525D01*
X65250Y-40725D02*
X65250Y-41725D01*
X65250Y-41725D02*
X63250Y-41725D01*
X63250Y-41725D02*
X63250Y-40725D01*
X63250Y-40725D02*
X65250Y-40725D01*
X49850Y-40625D02*
X49850Y-41625D01*
X49850Y-41625D02*
X47850Y-41625D01*
X47850Y-41625D02*
X47850Y-40625D01*
X47850Y-40625D02*
X49850Y-40625D01*
X66250Y-34325D02*
X66250Y-35325D01*
X66250Y-35325D02*
X64250Y-35325D01*
X64250Y-35325D02*
X64250Y-34325D01*
X64250Y-34325D02*
X66250Y-34325D01*
X61450Y-40725D02*
X61450Y-41725D01*
X61450Y-41725D02*
X59450Y-41725D01*
X59450Y-41725D02*
X59450Y-40725D01*
X59450Y-40725D02*
X61450Y-40725D01*
X53850Y-40725D02*
X53850Y-41725D01*
X53850Y-41725D02*
X51850Y-41725D01*
X51850Y-41725D02*
X51850Y-40725D01*
X51850Y-40725D02*
X53850Y-40725D01*
X62450Y-34325D02*
X62450Y-35325D01*
X62450Y-35325D02*
X60450Y-35325D01*
X60450Y-35325D02*
X60450Y-34325D01*
X60450Y-34325D02*
X62450Y-34325D01*
X57650Y-40725D02*
X57650Y-41725D01*
X57650Y-41725D02*
X55650Y-41725D01*
X55650Y-41725D02*
X55650Y-40725D01*
X55650Y-40725D02*
X57650Y-40725D01*
X49050Y-47325D02*
X49050Y-48325D01*
X49050Y-48325D02*
X47050Y-48325D01*
X47050Y-48325D02*
X47050Y-47325D01*
X47050Y-47325D02*
X49050Y-47325D01*
X71850Y-50525D02*
X71850Y-51525D01*
X71850Y-51525D02*
X69850Y-51525D01*
X69850Y-51525D02*
X69850Y-50525D01*
X69850Y-50525D02*
X71850Y-50525D01*
X54850Y-34325D02*
X54850Y-35325D01*
X54850Y-35325D02*
X52850Y-35325D01*
X52850Y-35325D02*
X52850Y-34325D01*
X52850Y-34325D02*
X54850Y-34325D01*
X80075Y-46625D02*
X79075Y-46625D01*
X79075Y-46625D02*
X79075Y-44625D01*
X79075Y-44625D02*
X80075Y-44625D01*
X80075Y-44625D02*
X80075Y-46625D01*
X58650Y-34325D02*
X58650Y-35325D01*
X58650Y-35325D02*
X56650Y-35325D01*
X56650Y-35325D02*
X56650Y-34325D01*
X56650Y-34325D02*
X58650Y-34325D01*
X68050Y-50525D02*
X68050Y-51525D01*
X68050Y-51525D02*
X66050Y-51525D01*
X66050Y-51525D02*
X66050Y-50525D01*
X66050Y-50525D02*
X68050Y-50525D01*
X52850Y-47325D02*
X52850Y-48325D01*
X52850Y-48325D02*
X50850Y-48325D01*
X50850Y-48325D02*
X50850Y-47325D01*
X50850Y-47325D02*
X52850Y-47325D01*
X56650Y-47325D02*
X56650Y-48325D01*
X56650Y-48325D02*
X54650Y-48325D01*
X54650Y-48325D02*
X54650Y-47325D01*
X54650Y-47325D02*
X56650Y-47325D01*
X80075Y-39575D02*
X79075Y-39575D01*
X79075Y-39575D02*
X79075Y-37575D01*
X79075Y-37575D02*
X80075Y-37575D01*
X80075Y-37575D02*
X80075Y-39575D01*
X60450Y-47325D02*
X60450Y-48325D01*
X60450Y-48325D02*
X58450Y-48325D01*
X58450Y-48325D02*
X58450Y-47325D01*
X58450Y-47325D02*
X60450Y-47325D01*
X64250Y-50525D02*
X64250Y-51525D01*
X64250Y-51525D02*
X62250Y-51525D01*
X62250Y-51525D02*
X62250Y-50525D01*
X62250Y-50525D02*
X64250Y-50525D01*
G54D15*
X70099Y-43150D02*
X69599Y-42675D01*
X69599Y-43150D02*
X70849Y-43150D01*
X70849Y-43150D02*
X70849Y-41900D01*
X70849Y-41900D02*
X69599Y-41900D01*
X69599Y-41900D02*
X69599Y-43150D01*
X44325Y-42600D02*
X44825Y-43075D01*
X44825Y-42600D02*
X43575Y-42600D01*
X43575Y-42600D02*
X43575Y-43850D01*
X43575Y-43850D02*
X44825Y-43850D01*
X44825Y-43850D02*
X44825Y-42600D01*
X39925Y-42600D02*
X40425Y-43075D01*
X40425Y-42600D02*
X39175Y-42600D01*
X39175Y-42600D02*
X39175Y-43850D01*
X39175Y-43850D02*
X40425Y-43850D01*
X40425Y-43850D02*
X40425Y-42600D01*
G54D10*
X45750Y-41225D02*
X43250Y-41225D01*
X43250Y-41225D02*
X43250Y-39525D01*
X43250Y-39525D02*
X45750Y-39525D01*
X45750Y-39525D02*
X45750Y-41225D01*
X76425Y-46675D02*
X76425Y-44175D01*
X76425Y-44175D02*
X78125Y-44175D01*
X78125Y-44175D02*
X78125Y-46675D01*
X78125Y-46675D02*
X76425Y-46675D01*
X76425Y-39625D02*
X76425Y-37125D01*
X76425Y-37125D02*
X78125Y-37125D01*
X78125Y-37125D02*
X78125Y-39625D01*
X78125Y-39625D02*
X76425Y-39625D01*
X41350Y-41225D02*
X38850Y-41225D01*
X38850Y-41225D02*
X38850Y-39525D01*
X38850Y-39525D02*
X41350Y-39525D01*
X41350Y-39525D02*
X41350Y-41225D01*
G54D16*
X34250Y-50225D02*
G75*
G03X34250Y-50225I-900J0D01*
G74*
G01*
X34250Y-34225D02*
G75*
G03X34250Y-34225I-900J0D01*
G74*
G01*
X83650Y-34225D02*
G75*
G03X83650Y-34225I-900J0D01*
G74*
G01*
X83650Y-50225D02*
G75*
G03X83650Y-50225I-900J0D01*
G74*
G01*
G54D17*
X36833Y-48008D02*
X36833Y-47308D01*
X37100Y-47308D01*
X37166Y-47341D01*
X37200Y-47375D01*
X37233Y-47441D01*
X37233Y-47541D01*
X37200Y-47608D01*
X37166Y-47641D01*
X37100Y-47675D01*
X36833Y-47675D01*
X37500Y-47375D02*
X37533Y-47341D01*
X37600Y-47308D01*
X37766Y-47308D01*
X37833Y-47341D01*
X37866Y-47375D01*
X37900Y-47441D01*
X37900Y-47508D01*
X37866Y-47608D01*
X37466Y-48008D01*
X37900Y-48008D01*
X39200Y-52441D02*
X39166Y-52475D01*
X39066Y-52508D01*
X39000Y-52508D01*
X38900Y-52475D01*
X38833Y-52408D01*
X38800Y-52341D01*
X38766Y-52208D01*
X38766Y-52108D01*
X38800Y-51975D01*
X38833Y-51908D01*
X38900Y-51841D01*
X39000Y-51808D01*
X39066Y-51808D01*
X39166Y-51841D01*
X39200Y-51875D01*
X39633Y-51808D02*
X39766Y-51808D01*
X39833Y-51841D01*
X39900Y-51908D01*
X39933Y-52041D01*
X39933Y-52275D01*
X39900Y-52408D01*
X39833Y-52475D01*
X39766Y-52508D01*
X39633Y-52508D01*
X39566Y-52475D01*
X39500Y-52408D01*
X39466Y-52275D01*
X39466Y-52041D01*
X39500Y-51908D01*
X39566Y-51841D01*
X39633Y-51808D01*
X40233Y-52508D02*
X40233Y-51808D01*
X40633Y-52508D01*
X40633Y-51808D01*
X40966Y-52508D02*
X40966Y-51808D01*
X41366Y-52508D01*
X41366Y-51808D01*
X41533Y-52575D02*
X42066Y-52575D01*
X42566Y-51808D02*
X42233Y-51808D01*
X42200Y-52141D01*
X42233Y-52108D01*
X42300Y-52075D01*
X42466Y-52075D01*
X42533Y-52108D01*
X42566Y-52141D01*
X42600Y-52208D01*
X42600Y-52375D01*
X42566Y-52441D01*
X42533Y-52475D01*
X42466Y-52508D01*
X42300Y-52508D01*
X42233Y-52475D01*
X42200Y-52441D01*
X42833Y-51808D02*
X43300Y-52508D01*
X43300Y-51808D02*
X42833Y-52508D01*
X43533Y-51875D02*
X43566Y-51841D01*
X43633Y-51808D01*
X43800Y-51808D01*
X43866Y-51841D01*
X43900Y-51875D01*
X43933Y-51941D01*
X43933Y-52008D01*
X43900Y-52108D01*
X43500Y-52508D01*
X43933Y-52508D01*
X36783Y-32458D02*
X36783Y-31758D01*
X37050Y-31758D01*
X37116Y-31791D01*
X37150Y-31825D01*
X37183Y-31891D01*
X37183Y-31991D01*
X37150Y-32058D01*
X37116Y-32091D01*
X37050Y-32125D01*
X36783Y-32125D01*
X37850Y-32458D02*
X37450Y-32458D01*
X37650Y-32458D02*
X37650Y-31758D01*
X37583Y-31858D01*
X37516Y-31925D01*
X37450Y-31958D01*
X41066Y-37141D02*
X41033Y-37175D01*
X40933Y-37208D01*
X40866Y-37208D01*
X40766Y-37175D01*
X40700Y-37108D01*
X40666Y-37041D01*
X40633Y-36908D01*
X40633Y-36808D01*
X40666Y-36675D01*
X40700Y-36608D01*
X40766Y-36541D01*
X40866Y-36508D01*
X40933Y-36508D01*
X41033Y-36541D01*
X41066Y-36575D01*
X41500Y-36508D02*
X41633Y-36508D01*
X41700Y-36541D01*
X41766Y-36608D01*
X41800Y-36741D01*
X41800Y-36975D01*
X41766Y-37108D01*
X41700Y-37175D01*
X41633Y-37208D01*
X41500Y-37208D01*
X41433Y-37175D01*
X41366Y-37108D01*
X41333Y-36975D01*
X41333Y-36741D01*
X41366Y-36608D01*
X41433Y-36541D01*
X41500Y-36508D01*
X42100Y-37208D02*
X42100Y-36508D01*
X42500Y-37208D01*
X42500Y-36508D01*
X42833Y-37208D02*
X42833Y-36508D01*
X43233Y-37208D01*
X43233Y-36508D01*
X43400Y-37275D02*
X43933Y-37275D01*
X44466Y-37208D02*
X44066Y-37208D01*
X44266Y-37208D02*
X44266Y-36508D01*
X44200Y-36608D01*
X44133Y-36675D01*
X44066Y-36708D01*
X44700Y-36508D02*
X45133Y-36508D01*
X44900Y-36775D01*
X45000Y-36775D01*
X45066Y-36808D01*
X45100Y-36841D01*
X45133Y-36908D01*
X45133Y-37075D01*
X45100Y-37141D01*
X45066Y-37175D01*
X45000Y-37208D01*
X44800Y-37208D01*
X44733Y-37175D01*
X44700Y-37141D01*
X45366Y-36508D02*
X45833Y-37208D01*
X45833Y-36508D02*
X45366Y-37208D01*
X46066Y-36575D02*
X46100Y-36541D01*
X46166Y-36508D01*
X46333Y-36508D01*
X46400Y-36541D01*
X46433Y-36575D01*
X46466Y-36641D01*
X46466Y-36708D01*
X46433Y-36808D01*
X46033Y-37208D01*
X46466Y-37208D01*
G54D13*
X71568Y-42867D02*
X71582Y-42882D01*
X71596Y-42925D01*
X71596Y-42953D01*
X71582Y-42996D01*
X71553Y-43025D01*
X71525Y-43039D01*
X71468Y-43053D01*
X71425Y-43053D01*
X71368Y-43039D01*
X71339Y-43025D01*
X71310Y-42996D01*
X71296Y-42953D01*
X71296Y-42925D01*
X71310Y-42882D01*
X71325Y-42867D01*
X71325Y-42753D02*
X71310Y-42739D01*
X71296Y-42710D01*
X71296Y-42639D01*
X71310Y-42610D01*
X71325Y-42596D01*
X71353Y-42582D01*
X71382Y-42582D01*
X71425Y-42596D01*
X71596Y-42767D01*
X71596Y-42582D01*
X71296Y-42482D02*
X71296Y-42282D01*
X71596Y-42410D01*
X69068Y-42567D02*
X69082Y-42582D01*
X69096Y-42625D01*
X69096Y-42653D01*
X69082Y-42696D01*
X69053Y-42725D01*
X69025Y-42739D01*
X68968Y-42753D01*
X68925Y-42753D01*
X68868Y-42739D01*
X68839Y-42725D01*
X68810Y-42696D01*
X68796Y-42653D01*
X68796Y-42625D01*
X68810Y-42582D01*
X68825Y-42567D01*
X68825Y-42453D02*
X68810Y-42439D01*
X68796Y-42410D01*
X68796Y-42339D01*
X68810Y-42310D01*
X68825Y-42296D01*
X68853Y-42282D01*
X68882Y-42282D01*
X68925Y-42296D01*
X69096Y-42467D01*
X69096Y-42282D01*
X68796Y-42010D02*
X68796Y-42153D01*
X68939Y-42167D01*
X68925Y-42153D01*
X68910Y-42125D01*
X68910Y-42053D01*
X68925Y-42025D01*
X68939Y-42010D01*
X68968Y-41996D01*
X69039Y-41996D01*
X69068Y-42010D01*
X69082Y-42025D01*
X69096Y-42053D01*
X69096Y-42125D01*
X69082Y-42153D01*
X69068Y-42167D01*
X68982Y-44517D02*
X68968Y-44532D01*
X68925Y-44546D01*
X68896Y-44546D01*
X68853Y-44532D01*
X68825Y-44503D01*
X68810Y-44475D01*
X68796Y-44417D01*
X68796Y-44375D01*
X68810Y-44317D01*
X68825Y-44289D01*
X68853Y-44260D01*
X68896Y-44246D01*
X68925Y-44246D01*
X68968Y-44260D01*
X68982Y-44275D01*
X69096Y-44275D02*
X69110Y-44260D01*
X69139Y-44246D01*
X69210Y-44246D01*
X69239Y-44260D01*
X69253Y-44275D01*
X69268Y-44303D01*
X69268Y-44332D01*
X69253Y-44375D01*
X69082Y-44546D01*
X69268Y-44546D01*
X69525Y-44246D02*
X69468Y-44246D01*
X69439Y-44260D01*
X69425Y-44275D01*
X69396Y-44317D01*
X69382Y-44375D01*
X69382Y-44489D01*
X69396Y-44517D01*
X69410Y-44532D01*
X69439Y-44546D01*
X69496Y-44546D01*
X69525Y-44532D01*
X69539Y-44517D01*
X69553Y-44489D01*
X69553Y-44417D01*
X69539Y-44389D01*
X69525Y-44375D01*
X69496Y-44360D01*
X69439Y-44360D01*
X69410Y-44375D01*
X69396Y-44389D01*
X69382Y-44417D01*
X41092Y-42617D02*
X41107Y-42632D01*
X41121Y-42675D01*
X41121Y-42703D01*
X41107Y-42746D01*
X41078Y-42775D01*
X41050Y-42789D01*
X40992Y-42803D01*
X40950Y-42803D01*
X40892Y-42789D01*
X40864Y-42775D01*
X40835Y-42746D01*
X40821Y-42703D01*
X40821Y-42675D01*
X40835Y-42632D01*
X40850Y-42617D01*
X40850Y-42503D02*
X40835Y-42489D01*
X40821Y-42460D01*
X40821Y-42389D01*
X40835Y-42360D01*
X40850Y-42346D01*
X40878Y-42332D01*
X40907Y-42332D01*
X40950Y-42346D01*
X41121Y-42517D01*
X41121Y-42332D01*
X41121Y-42046D02*
X41121Y-42217D01*
X41121Y-42132D02*
X40821Y-42132D01*
X40864Y-42160D01*
X40892Y-42189D01*
X40907Y-42217D01*
X40207Y-45017D02*
X40192Y-45032D01*
X40150Y-45046D01*
X40121Y-45046D01*
X40078Y-45032D01*
X40050Y-45003D01*
X40035Y-44975D01*
X40021Y-44917D01*
X40021Y-44875D01*
X40035Y-44817D01*
X40050Y-44789D01*
X40078Y-44760D01*
X40121Y-44746D01*
X40150Y-44746D01*
X40192Y-44760D01*
X40207Y-44775D01*
X40321Y-44775D02*
X40335Y-44760D01*
X40364Y-44746D01*
X40435Y-44746D01*
X40464Y-44760D01*
X40478Y-44775D01*
X40492Y-44803D01*
X40492Y-44832D01*
X40478Y-44875D01*
X40307Y-45046D01*
X40492Y-45046D01*
X40607Y-44775D02*
X40621Y-44760D01*
X40650Y-44746D01*
X40721Y-44746D01*
X40750Y-44760D01*
X40764Y-44775D01*
X40778Y-44803D01*
X40778Y-44832D01*
X40764Y-44875D01*
X40592Y-45046D01*
X40778Y-45046D01*
X45492Y-42617D02*
X45507Y-42632D01*
X45521Y-42675D01*
X45521Y-42703D01*
X45507Y-42746D01*
X45478Y-42775D01*
X45450Y-42789D01*
X45392Y-42803D01*
X45350Y-42803D01*
X45292Y-42789D01*
X45264Y-42775D01*
X45235Y-42746D01*
X45221Y-42703D01*
X45221Y-42675D01*
X45235Y-42632D01*
X45250Y-42617D01*
X45521Y-42332D02*
X45521Y-42503D01*
X45521Y-42417D02*
X45221Y-42417D01*
X45264Y-42446D01*
X45292Y-42475D01*
X45307Y-42503D01*
X45221Y-42232D02*
X45221Y-42032D01*
X45521Y-42160D01*
X44607Y-45017D02*
X44592Y-45032D01*
X44550Y-45046D01*
X44521Y-45046D01*
X44478Y-45032D01*
X44450Y-45003D01*
X44435Y-44975D01*
X44421Y-44917D01*
X44421Y-44875D01*
X44435Y-44817D01*
X44450Y-44789D01*
X44478Y-44760D01*
X44521Y-44746D01*
X44550Y-44746D01*
X44592Y-44760D01*
X44607Y-44775D01*
X44892Y-45046D02*
X44721Y-45046D01*
X44807Y-45046D02*
X44807Y-44746D01*
X44778Y-44789D01*
X44750Y-44817D01*
X44721Y-44832D01*
X45064Y-44875D02*
X45035Y-44860D01*
X45021Y-44846D01*
X45007Y-44817D01*
X45007Y-44803D01*
X45021Y-44775D01*
X45035Y-44760D01*
X45064Y-44746D01*
X45121Y-44746D01*
X45150Y-44760D01*
X45164Y-44775D01*
X45178Y-44803D01*
X45178Y-44817D01*
X45164Y-44846D01*
X45150Y-44860D01*
X45121Y-44875D01*
X45064Y-44875D01*
X45035Y-44889D01*
X45021Y-44903D01*
X45007Y-44932D01*
X45007Y-44989D01*
X45021Y-45017D01*
X45035Y-45032D01*
X45064Y-45046D01*
X45121Y-45046D01*
X45150Y-45032D01*
X45164Y-45017D01*
X45178Y-44989D01*
X45178Y-44932D01*
X45164Y-44903D01*
X45150Y-44889D01*
X45121Y-44875D01*
X40050Y-38317D02*
X40035Y-38332D01*
X39992Y-38346D01*
X39964Y-38346D01*
X39921Y-38332D01*
X39892Y-38303D01*
X39878Y-38275D01*
X39864Y-38217D01*
X39864Y-38175D01*
X39878Y-38117D01*
X39892Y-38089D01*
X39921Y-38060D01*
X39964Y-38046D01*
X39992Y-38046D01*
X40035Y-38060D01*
X40050Y-38075D01*
X40321Y-38046D02*
X40178Y-38046D01*
X40164Y-38189D01*
X40178Y-38175D01*
X40207Y-38160D01*
X40278Y-38160D01*
X40307Y-38175D01*
X40321Y-38189D01*
X40335Y-38217D01*
X40335Y-38289D01*
X40321Y-38317D01*
X40307Y-38332D01*
X40278Y-38346D01*
X40207Y-38346D01*
X40178Y-38332D01*
X40164Y-38317D01*
X44474Y-37243D02*
X44460Y-37257D01*
X44417Y-37271D01*
X44389Y-37271D01*
X44346Y-37257D01*
X44317Y-37228D01*
X44303Y-37200D01*
X44289Y-37143D01*
X44289Y-37100D01*
X44303Y-37043D01*
X44317Y-37014D01*
X44346Y-36985D01*
X44389Y-36971D01*
X44417Y-36971D01*
X44460Y-36985D01*
X44474Y-37000D01*
X44731Y-37071D02*
X44731Y-37271D01*
X44660Y-36957D02*
X44589Y-37171D01*
X44774Y-37171D01*
X40050Y-37243D02*
X40035Y-37257D01*
X39992Y-37271D01*
X39964Y-37271D01*
X39921Y-37257D01*
X39892Y-37228D01*
X39878Y-37200D01*
X39864Y-37143D01*
X39864Y-37100D01*
X39878Y-37043D01*
X39892Y-37014D01*
X39921Y-36985D01*
X39964Y-36971D01*
X39992Y-36971D01*
X40035Y-36985D01*
X40050Y-37000D01*
X40150Y-36971D02*
X40350Y-36971D01*
X40221Y-37271D01*
X44474Y-38317D02*
X44460Y-38332D01*
X44417Y-38346D01*
X44389Y-38346D01*
X44346Y-38332D01*
X44317Y-38303D01*
X44303Y-38275D01*
X44289Y-38217D01*
X44289Y-38175D01*
X44303Y-38117D01*
X44317Y-38089D01*
X44346Y-38060D01*
X44389Y-38046D01*
X44417Y-38046D01*
X44460Y-38060D01*
X44474Y-38075D01*
X44589Y-38075D02*
X44603Y-38060D01*
X44631Y-38046D01*
X44703Y-38046D01*
X44731Y-38060D01*
X44746Y-38075D01*
X44760Y-38103D01*
X44760Y-38132D01*
X44746Y-38175D01*
X44574Y-38346D01*
X44760Y-38346D01*
X39557Y-47317D02*
X39542Y-47332D01*
X39500Y-47346D01*
X39471Y-47346D01*
X39428Y-47332D01*
X39400Y-47303D01*
X39385Y-47275D01*
X39371Y-47217D01*
X39371Y-47175D01*
X39385Y-47117D01*
X39400Y-47089D01*
X39428Y-47060D01*
X39471Y-47046D01*
X39500Y-47046D01*
X39542Y-47060D01*
X39557Y-47075D01*
X39842Y-47346D02*
X39671Y-47346D01*
X39757Y-47346D02*
X39757Y-47046D01*
X39728Y-47089D01*
X39700Y-47117D01*
X39671Y-47132D01*
X39942Y-47046D02*
X40128Y-47046D01*
X40028Y-47160D01*
X40071Y-47160D01*
X40100Y-47175D01*
X40114Y-47189D01*
X40128Y-47217D01*
X40128Y-47289D01*
X40114Y-47317D01*
X40100Y-47332D01*
X40071Y-47346D01*
X39985Y-47346D01*
X39957Y-47332D01*
X39942Y-47317D01*
X43957Y-47317D02*
X43942Y-47332D01*
X43900Y-47346D01*
X43871Y-47346D01*
X43828Y-47332D01*
X43800Y-47303D01*
X43785Y-47275D01*
X43771Y-47217D01*
X43771Y-47175D01*
X43785Y-47117D01*
X43800Y-47089D01*
X43828Y-47060D01*
X43871Y-47046D01*
X43900Y-47046D01*
X43942Y-47060D01*
X43957Y-47075D01*
X44242Y-47346D02*
X44071Y-47346D01*
X44157Y-47346D02*
X44157Y-47046D01*
X44128Y-47089D01*
X44100Y-47117D01*
X44071Y-47132D01*
X44428Y-47046D02*
X44457Y-47046D01*
X44485Y-47060D01*
X44500Y-47075D01*
X44514Y-47103D01*
X44528Y-47160D01*
X44528Y-47232D01*
X44514Y-47289D01*
X44500Y-47317D01*
X44485Y-47332D01*
X44457Y-47346D01*
X44428Y-47346D01*
X44400Y-47332D01*
X44385Y-47317D01*
X44371Y-47289D01*
X44357Y-47232D01*
X44357Y-47160D01*
X44371Y-47103D01*
X44385Y-47075D01*
X44400Y-47060D01*
X44428Y-47046D01*
X39557Y-46317D02*
X39542Y-46332D01*
X39500Y-46346D01*
X39471Y-46346D01*
X39428Y-46332D01*
X39400Y-46303D01*
X39385Y-46275D01*
X39371Y-46217D01*
X39371Y-46175D01*
X39385Y-46117D01*
X39400Y-46089D01*
X39428Y-46060D01*
X39471Y-46046D01*
X39500Y-46046D01*
X39542Y-46060D01*
X39557Y-46075D01*
X39842Y-46346D02*
X39671Y-46346D01*
X39757Y-46346D02*
X39757Y-46046D01*
X39728Y-46089D01*
X39700Y-46117D01*
X39671Y-46132D01*
X40114Y-46046D02*
X39971Y-46046D01*
X39957Y-46189D01*
X39971Y-46175D01*
X40000Y-46160D01*
X40071Y-46160D01*
X40100Y-46175D01*
X40114Y-46189D01*
X40128Y-46217D01*
X40128Y-46289D01*
X40114Y-46317D01*
X40100Y-46332D01*
X40071Y-46346D01*
X40000Y-46346D01*
X39971Y-46332D01*
X39957Y-46317D01*
X43957Y-46317D02*
X43942Y-46332D01*
X43900Y-46346D01*
X43871Y-46346D01*
X43828Y-46332D01*
X43800Y-46303D01*
X43785Y-46275D01*
X43771Y-46217D01*
X43771Y-46175D01*
X43785Y-46117D01*
X43800Y-46089D01*
X43828Y-46060D01*
X43871Y-46046D01*
X43900Y-46046D01*
X43942Y-46060D01*
X43957Y-46075D01*
X44242Y-46346D02*
X44071Y-46346D01*
X44157Y-46346D02*
X44157Y-46046D01*
X44128Y-46089D01*
X44100Y-46117D01*
X44071Y-46132D01*
X44357Y-46075D02*
X44371Y-46060D01*
X44400Y-46046D01*
X44471Y-46046D01*
X44500Y-46060D01*
X44514Y-46075D01*
X44528Y-46103D01*
X44528Y-46132D01*
X44514Y-46175D01*
X44342Y-46346D01*
X44528Y-46346D01*
G54D18*
X64134Y-42805D02*
X64074Y-42710D01*
X64031Y-42805D02*
X64031Y-42605D01*
X64100Y-42605D01*
X64117Y-42615D01*
X64125Y-42625D01*
X64134Y-42644D01*
X64134Y-42672D01*
X64125Y-42691D01*
X64117Y-42701D01*
X64100Y-42710D01*
X64031Y-42710D01*
X64194Y-42605D02*
X64305Y-42605D01*
X64245Y-42682D01*
X64271Y-42682D01*
X64288Y-42691D01*
X64297Y-42701D01*
X64305Y-42720D01*
X64305Y-42767D01*
X64297Y-42786D01*
X64288Y-42796D01*
X64271Y-42805D01*
X64220Y-42805D01*
X64202Y-42796D01*
X64194Y-42786D01*
X64468Y-42605D02*
X64382Y-42605D01*
X64374Y-42701D01*
X64382Y-42691D01*
X64400Y-42682D01*
X64442Y-42682D01*
X64460Y-42691D01*
X64468Y-42701D01*
X64477Y-42720D01*
X64477Y-42767D01*
X64468Y-42786D01*
X64460Y-42796D01*
X64442Y-42805D01*
X64400Y-42805D01*
X64382Y-42796D01*
X64374Y-42786D01*
X48934Y-42805D02*
X48874Y-42710D01*
X48831Y-42805D02*
X48831Y-42605D01*
X48900Y-42605D01*
X48917Y-42615D01*
X48925Y-42625D01*
X48934Y-42644D01*
X48934Y-42672D01*
X48925Y-42691D01*
X48917Y-42701D01*
X48900Y-42710D01*
X48831Y-42710D01*
X49002Y-42625D02*
X49011Y-42615D01*
X49028Y-42605D01*
X49071Y-42605D01*
X49088Y-42615D01*
X49097Y-42625D01*
X49105Y-42644D01*
X49105Y-42663D01*
X49097Y-42691D01*
X48994Y-42805D01*
X49105Y-42805D01*
X49165Y-42605D02*
X49285Y-42605D01*
X49208Y-42805D01*
X52734Y-42805D02*
X52674Y-42710D01*
X52631Y-42805D02*
X52631Y-42605D01*
X52700Y-42605D01*
X52717Y-42615D01*
X52725Y-42625D01*
X52734Y-42644D01*
X52734Y-42672D01*
X52725Y-42691D01*
X52717Y-42701D01*
X52700Y-42710D01*
X52631Y-42710D01*
X52802Y-42625D02*
X52811Y-42615D01*
X52828Y-42605D01*
X52871Y-42605D01*
X52888Y-42615D01*
X52897Y-42625D01*
X52905Y-42644D01*
X52905Y-42663D01*
X52897Y-42691D01*
X52794Y-42805D01*
X52905Y-42805D01*
X53008Y-42691D02*
X52991Y-42682D01*
X52982Y-42672D01*
X52974Y-42653D01*
X52974Y-42644D01*
X52982Y-42625D01*
X52991Y-42615D01*
X53008Y-42605D01*
X53042Y-42605D01*
X53060Y-42615D01*
X53068Y-42625D01*
X53077Y-42644D01*
X53077Y-42653D01*
X53068Y-42672D01*
X53060Y-42682D01*
X53042Y-42691D01*
X53008Y-42691D01*
X52991Y-42701D01*
X52982Y-42710D01*
X52974Y-42729D01*
X52974Y-42767D01*
X52982Y-42786D01*
X52991Y-42796D01*
X53008Y-42805D01*
X53042Y-42805D01*
X53060Y-42796D01*
X53068Y-42786D01*
X53077Y-42767D01*
X53077Y-42729D01*
X53068Y-42710D01*
X53060Y-42701D01*
X53042Y-42691D01*
X56534Y-42805D02*
X56474Y-42710D01*
X56431Y-42805D02*
X56431Y-42605D01*
X56500Y-42605D01*
X56517Y-42615D01*
X56525Y-42625D01*
X56534Y-42644D01*
X56534Y-42672D01*
X56525Y-42691D01*
X56517Y-42701D01*
X56500Y-42710D01*
X56431Y-42710D01*
X56602Y-42625D02*
X56611Y-42615D01*
X56628Y-42605D01*
X56671Y-42605D01*
X56688Y-42615D01*
X56697Y-42625D01*
X56705Y-42644D01*
X56705Y-42663D01*
X56697Y-42691D01*
X56594Y-42805D01*
X56705Y-42805D01*
X56791Y-42805D02*
X56825Y-42805D01*
X56842Y-42796D01*
X56851Y-42786D01*
X56868Y-42758D01*
X56877Y-42720D01*
X56877Y-42644D01*
X56868Y-42625D01*
X56860Y-42615D01*
X56842Y-42605D01*
X56808Y-42605D01*
X56791Y-42615D01*
X56782Y-42625D01*
X56774Y-42644D01*
X56774Y-42691D01*
X56782Y-42710D01*
X56791Y-42720D01*
X56808Y-42729D01*
X56842Y-42729D01*
X56860Y-42720D01*
X56868Y-42710D01*
X56877Y-42691D01*
X60334Y-42805D02*
X60274Y-42710D01*
X60231Y-42805D02*
X60231Y-42605D01*
X60300Y-42605D01*
X60317Y-42615D01*
X60325Y-42625D01*
X60334Y-42644D01*
X60334Y-42672D01*
X60325Y-42691D01*
X60317Y-42701D01*
X60300Y-42710D01*
X60231Y-42710D01*
X60394Y-42605D02*
X60505Y-42605D01*
X60445Y-42682D01*
X60471Y-42682D01*
X60488Y-42691D01*
X60497Y-42701D01*
X60505Y-42720D01*
X60505Y-42767D01*
X60497Y-42786D01*
X60488Y-42796D01*
X60471Y-42805D01*
X60420Y-42805D01*
X60402Y-42796D01*
X60394Y-42786D01*
X60617Y-42605D02*
X60634Y-42605D01*
X60651Y-42615D01*
X60660Y-42625D01*
X60668Y-42644D01*
X60677Y-42682D01*
X60677Y-42729D01*
X60668Y-42767D01*
X60660Y-42786D01*
X60651Y-42796D01*
X60634Y-42805D01*
X60617Y-42805D01*
X60600Y-42796D01*
X60591Y-42786D01*
X60582Y-42767D01*
X60574Y-42729D01*
X60574Y-42682D01*
X60582Y-42644D01*
X60591Y-42625D01*
X60600Y-42615D01*
X60617Y-42605D01*
X53734Y-36405D02*
X53674Y-36310D01*
X53631Y-36405D02*
X53631Y-36205D01*
X53700Y-36205D01*
X53717Y-36215D01*
X53725Y-36225D01*
X53734Y-36244D01*
X53734Y-36272D01*
X53725Y-36291D01*
X53717Y-36301D01*
X53700Y-36310D01*
X53631Y-36310D01*
X53794Y-36205D02*
X53905Y-36205D01*
X53845Y-36282D01*
X53871Y-36282D01*
X53888Y-36291D01*
X53897Y-36301D01*
X53905Y-36320D01*
X53905Y-36367D01*
X53897Y-36386D01*
X53888Y-36396D01*
X53871Y-36405D01*
X53820Y-36405D01*
X53802Y-36396D01*
X53794Y-36386D01*
X54077Y-36405D02*
X53974Y-36405D01*
X54025Y-36405D02*
X54025Y-36205D01*
X54008Y-36234D01*
X53991Y-36253D01*
X53974Y-36263D01*
X57534Y-36405D02*
X57474Y-36310D01*
X57431Y-36405D02*
X57431Y-36205D01*
X57500Y-36205D01*
X57517Y-36215D01*
X57525Y-36225D01*
X57534Y-36244D01*
X57534Y-36272D01*
X57525Y-36291D01*
X57517Y-36301D01*
X57500Y-36310D01*
X57431Y-36310D01*
X57594Y-36205D02*
X57705Y-36205D01*
X57645Y-36282D01*
X57671Y-36282D01*
X57688Y-36291D01*
X57697Y-36301D01*
X57705Y-36320D01*
X57705Y-36367D01*
X57697Y-36386D01*
X57688Y-36396D01*
X57671Y-36405D01*
X57620Y-36405D01*
X57602Y-36396D01*
X57594Y-36386D01*
X57774Y-36225D02*
X57782Y-36215D01*
X57800Y-36205D01*
X57842Y-36205D01*
X57860Y-36215D01*
X57868Y-36225D01*
X57877Y-36244D01*
X57877Y-36263D01*
X57868Y-36291D01*
X57765Y-36405D01*
X57877Y-36405D01*
X61334Y-36405D02*
X61274Y-36310D01*
X61231Y-36405D02*
X61231Y-36205D01*
X61300Y-36205D01*
X61317Y-36215D01*
X61325Y-36225D01*
X61334Y-36244D01*
X61334Y-36272D01*
X61325Y-36291D01*
X61317Y-36301D01*
X61300Y-36310D01*
X61231Y-36310D01*
X61394Y-36205D02*
X61505Y-36205D01*
X61445Y-36282D01*
X61471Y-36282D01*
X61488Y-36291D01*
X61497Y-36301D01*
X61505Y-36320D01*
X61505Y-36367D01*
X61497Y-36386D01*
X61488Y-36396D01*
X61471Y-36405D01*
X61420Y-36405D01*
X61402Y-36396D01*
X61394Y-36386D01*
X61565Y-36205D02*
X61677Y-36205D01*
X61617Y-36282D01*
X61642Y-36282D01*
X61660Y-36291D01*
X61668Y-36301D01*
X61677Y-36320D01*
X61677Y-36367D01*
X61668Y-36386D01*
X61660Y-36396D01*
X61642Y-36405D01*
X61591Y-36405D01*
X61574Y-36396D01*
X61565Y-36386D01*
X65134Y-36405D02*
X65074Y-36310D01*
X65031Y-36405D02*
X65031Y-36205D01*
X65100Y-36205D01*
X65117Y-36215D01*
X65125Y-36225D01*
X65134Y-36244D01*
X65134Y-36272D01*
X65125Y-36291D01*
X65117Y-36301D01*
X65100Y-36310D01*
X65031Y-36310D01*
X65194Y-36205D02*
X65305Y-36205D01*
X65245Y-36282D01*
X65271Y-36282D01*
X65288Y-36291D01*
X65297Y-36301D01*
X65305Y-36320D01*
X65305Y-36367D01*
X65297Y-36386D01*
X65288Y-36396D01*
X65271Y-36405D01*
X65220Y-36405D01*
X65202Y-36396D01*
X65194Y-36386D01*
X65460Y-36272D02*
X65460Y-36405D01*
X65417Y-36196D02*
X65374Y-36339D01*
X65485Y-36339D01*
X61430Y-49955D02*
X61335Y-50015D01*
X61430Y-50057D02*
X61230Y-50057D01*
X61230Y-49989D01*
X61240Y-49972D01*
X61250Y-49963D01*
X61269Y-49955D01*
X61297Y-49955D01*
X61316Y-49963D01*
X61326Y-49972D01*
X61335Y-49989D01*
X61335Y-50057D01*
X61230Y-49895D02*
X61230Y-49783D01*
X61307Y-49843D01*
X61307Y-49817D01*
X61316Y-49800D01*
X61326Y-49792D01*
X61345Y-49783D01*
X61392Y-49783D01*
X61411Y-49792D01*
X61421Y-49800D01*
X61430Y-49817D01*
X61430Y-49869D01*
X61421Y-49886D01*
X61411Y-49895D01*
X63320Y-33305D02*
X63260Y-33210D01*
X63217Y-33305D02*
X63217Y-33105D01*
X63285Y-33105D01*
X63302Y-33115D01*
X63311Y-33125D01*
X63320Y-33144D01*
X63320Y-33172D01*
X63311Y-33191D01*
X63302Y-33201D01*
X63285Y-33210D01*
X63217Y-33210D01*
X63491Y-33305D02*
X63388Y-33305D01*
X63440Y-33305D02*
X63440Y-33105D01*
X63422Y-33134D01*
X63405Y-33153D01*
X63388Y-33163D01*
X69170Y-45430D02*
X69110Y-45335D01*
X69067Y-45430D02*
X69067Y-45230D01*
X69135Y-45230D01*
X69152Y-45240D01*
X69161Y-45250D01*
X69170Y-45269D01*
X69170Y-45297D01*
X69161Y-45316D01*
X69152Y-45326D01*
X69135Y-45335D01*
X69067Y-45335D01*
X69324Y-45230D02*
X69290Y-45230D01*
X69272Y-45240D01*
X69264Y-45250D01*
X69247Y-45278D01*
X69238Y-45316D01*
X69238Y-45392D01*
X69247Y-45411D01*
X69255Y-45421D01*
X69272Y-45430D01*
X69307Y-45430D01*
X69324Y-45421D01*
X69332Y-45411D01*
X69341Y-45392D01*
X69341Y-45345D01*
X69332Y-45326D01*
X69324Y-45316D01*
X69307Y-45307D01*
X69272Y-45307D01*
X69255Y-45316D01*
X69247Y-45326D01*
X69238Y-45345D01*
X68180Y-42755D02*
X68085Y-42815D01*
X68180Y-42857D02*
X67980Y-42857D01*
X67980Y-42789D01*
X67990Y-42772D01*
X68000Y-42763D01*
X68019Y-42755D01*
X68047Y-42755D01*
X68066Y-42763D01*
X68076Y-42772D01*
X68085Y-42789D01*
X68085Y-42857D01*
X67980Y-42695D02*
X67980Y-42575D01*
X68180Y-42652D01*
X65230Y-49955D02*
X65135Y-50015D01*
X65230Y-50057D02*
X65030Y-50057D01*
X65030Y-49989D01*
X65040Y-49972D01*
X65050Y-49963D01*
X65069Y-49955D01*
X65097Y-49955D01*
X65116Y-49963D01*
X65126Y-49972D01*
X65135Y-49989D01*
X65135Y-50057D01*
X65097Y-49800D02*
X65230Y-49800D01*
X65021Y-49843D02*
X65164Y-49886D01*
X65164Y-49775D01*
X69030Y-49955D02*
X68935Y-50015D01*
X69030Y-50057D02*
X68830Y-50057D01*
X68830Y-49989D01*
X68840Y-49972D01*
X68850Y-49963D01*
X68869Y-49955D01*
X68897Y-49955D01*
X68916Y-49963D01*
X68926Y-49972D01*
X68935Y-49989D01*
X68935Y-50057D01*
X68830Y-49792D02*
X68830Y-49877D01*
X68926Y-49886D01*
X68916Y-49877D01*
X68907Y-49860D01*
X68907Y-49817D01*
X68916Y-49800D01*
X68926Y-49792D01*
X68945Y-49783D01*
X68992Y-49783D01*
X69011Y-49792D01*
X69021Y-49800D01*
X69030Y-49817D01*
X69030Y-49860D01*
X69021Y-49877D01*
X69011Y-49886D01*
G54D19*
X58637Y-52310D02*
X58637Y-51605D01*
X58879Y-52310D02*
X58697Y-51907D01*
X58879Y-51605D02*
X58637Y-52008D01*
X59121Y-51907D02*
X59081Y-51873D01*
X59061Y-51840D01*
X59040Y-51773D01*
X59040Y-51739D01*
X59061Y-51672D01*
X59081Y-51638D01*
X59121Y-51605D01*
X59202Y-51605D01*
X59242Y-51638D01*
X59262Y-51672D01*
X59283Y-51739D01*
X59283Y-51773D01*
X59262Y-51840D01*
X59242Y-51873D01*
X59202Y-51907D01*
X59121Y-51907D01*
X59081Y-51941D01*
X59061Y-51974D01*
X59040Y-52041D01*
X59040Y-52176D01*
X59061Y-52243D01*
X59081Y-52276D01*
X59121Y-52310D01*
X59202Y-52310D01*
X59242Y-52276D01*
X59262Y-52243D01*
X59283Y-52176D01*
X59283Y-52041D01*
X59262Y-51974D01*
X59242Y-51941D01*
X59202Y-51907D01*
G54D14*
G54D19*
X55635Y-45710D02*
X55635Y-45005D01*
X55877Y-45710D02*
X55695Y-45307D01*
X55877Y-45005D02*
X55635Y-45408D01*
X56281Y-45710D02*
X56038Y-45710D01*
X56160Y-45710D02*
X56160Y-45005D01*
X56119Y-45106D01*
X56079Y-45173D01*
X56038Y-45206D01*
X56422Y-45005D02*
X56705Y-45005D01*
X56523Y-45710D01*
G54D14*
G54D19*
X62437Y-49110D02*
X62437Y-48405D01*
X62679Y-49110D02*
X62497Y-48707D01*
X62679Y-48405D02*
X62437Y-48808D01*
X62840Y-48472D02*
X62861Y-48438D01*
X62901Y-48405D01*
X63002Y-48405D01*
X63042Y-48438D01*
X63062Y-48472D01*
X63083Y-48539D01*
X63083Y-48606D01*
X63062Y-48707D01*
X62820Y-49110D01*
X63083Y-49110D01*
G54D14*
G54D19*
X54837Y-52310D02*
X54837Y-51605D01*
X55079Y-52310D02*
X54897Y-51907D01*
X55079Y-51605D02*
X54837Y-52008D01*
X55281Y-52310D02*
X55362Y-52310D01*
X55402Y-52276D01*
X55422Y-52243D01*
X55462Y-52142D01*
X55483Y-52008D01*
X55483Y-51739D01*
X55462Y-51672D01*
X55442Y-51638D01*
X55402Y-51605D01*
X55321Y-51605D01*
X55281Y-51638D01*
X55261Y-51672D01*
X55240Y-51739D01*
X55240Y-51907D01*
X55261Y-51974D01*
X55281Y-52008D01*
X55321Y-52041D01*
X55402Y-52041D01*
X55442Y-52008D01*
X55462Y-51974D01*
X55483Y-51907D01*
G54D14*
G54D19*
X66035Y-49110D02*
X66035Y-48405D01*
X66277Y-49110D02*
X66095Y-48707D01*
X66277Y-48405D02*
X66035Y-48808D01*
X66681Y-49110D02*
X66438Y-49110D01*
X66560Y-49110D02*
X66560Y-48405D01*
X66519Y-48506D01*
X66479Y-48573D01*
X66438Y-48606D01*
X66943Y-48405D02*
X66984Y-48405D01*
X67024Y-48438D01*
X67044Y-48472D01*
X67064Y-48539D01*
X67085Y-48673D01*
X67085Y-48841D01*
X67064Y-48976D01*
X67044Y-49043D01*
X67024Y-49076D01*
X66984Y-49110D01*
X66943Y-49110D01*
X66903Y-49076D01*
X66883Y-49043D01*
X66862Y-48976D01*
X66842Y-48841D01*
X66842Y-48673D01*
X66862Y-48539D01*
X66883Y-48472D01*
X66903Y-48438D01*
X66943Y-48405D01*
G54D14*
G54D19*
X69835Y-49110D02*
X69835Y-48405D01*
X70077Y-49110D02*
X69895Y-48707D01*
X70077Y-48405D02*
X69835Y-48808D01*
X70481Y-49110D02*
X70238Y-49110D01*
X70360Y-49110D02*
X70360Y-48405D01*
X70319Y-48506D01*
X70279Y-48573D01*
X70238Y-48606D01*
X70885Y-49110D02*
X70642Y-49110D01*
X70763Y-49110D02*
X70763Y-48405D01*
X70723Y-48506D01*
X70683Y-48573D01*
X70642Y-48606D01*
G54D14*
G54D19*
X51037Y-52310D02*
X51037Y-51605D01*
X51279Y-52310D02*
X51097Y-51907D01*
X51279Y-51605D02*
X51037Y-52008D01*
X51683Y-52310D02*
X51440Y-52310D01*
X51562Y-52310D02*
X51562Y-51605D01*
X51521Y-51706D01*
X51481Y-51773D01*
X51440Y-51806D01*
G54D14*
G54D19*
X52835Y-39310D02*
X52835Y-38605D01*
X53077Y-39310D02*
X52895Y-38907D01*
X53077Y-38605D02*
X52835Y-39008D01*
X53481Y-39310D02*
X53238Y-39310D01*
X53360Y-39310D02*
X53360Y-38605D01*
X53319Y-38706D01*
X53279Y-38773D01*
X53238Y-38806D01*
X53683Y-39310D02*
X53763Y-39310D01*
X53804Y-39276D01*
X53824Y-39243D01*
X53864Y-39142D01*
X53885Y-39008D01*
X53885Y-38739D01*
X53864Y-38672D01*
X53844Y-38638D01*
X53804Y-38605D01*
X53723Y-38605D01*
X53683Y-38638D01*
X53662Y-38672D01*
X53642Y-38739D01*
X53642Y-38907D01*
X53662Y-38974D01*
X53683Y-39008D01*
X53723Y-39041D01*
X53804Y-39041D01*
X53844Y-39008D01*
X53864Y-38974D01*
X53885Y-38907D01*
G54D14*
G54D19*
X48035Y-45710D02*
X48035Y-45005D01*
X48277Y-45710D02*
X48095Y-45307D01*
X48277Y-45005D02*
X48035Y-45408D01*
X48681Y-45710D02*
X48438Y-45710D01*
X48560Y-45710D02*
X48560Y-45005D01*
X48519Y-45106D01*
X48479Y-45173D01*
X48438Y-45206D01*
X49064Y-45005D02*
X48862Y-45005D01*
X48842Y-45341D01*
X48862Y-45307D01*
X48903Y-45273D01*
X49004Y-45273D01*
X49044Y-45307D01*
X49064Y-45341D01*
X49085Y-45408D01*
X49085Y-45576D01*
X49064Y-45643D01*
X49044Y-45676D01*
X49004Y-45710D01*
X48903Y-45710D01*
X48862Y-45676D01*
X48842Y-45643D01*
G54D14*
G54D19*
X59435Y-45710D02*
X59435Y-45005D01*
X59677Y-45710D02*
X59495Y-45307D01*
X59677Y-45005D02*
X59435Y-45408D01*
X60081Y-45710D02*
X59838Y-45710D01*
X59960Y-45710D02*
X59960Y-45005D01*
X59919Y-45106D01*
X59879Y-45173D01*
X59838Y-45206D01*
X60323Y-45307D02*
X60283Y-45273D01*
X60262Y-45240D01*
X60242Y-45173D01*
X60242Y-45139D01*
X60262Y-45072D01*
X60283Y-45038D01*
X60323Y-45005D01*
X60404Y-45005D01*
X60444Y-45038D01*
X60464Y-45072D01*
X60485Y-45139D01*
X60485Y-45173D01*
X60464Y-45240D01*
X60444Y-45273D01*
X60404Y-45307D01*
X60323Y-45307D01*
X60283Y-45341D01*
X60262Y-45374D01*
X60242Y-45441D01*
X60242Y-45576D01*
X60262Y-45643D01*
X60283Y-45676D01*
X60323Y-45710D01*
X60404Y-45710D01*
X60444Y-45676D01*
X60464Y-45643D01*
X60485Y-45576D01*
X60485Y-45441D01*
X60464Y-45374D01*
X60444Y-45341D01*
X60404Y-45307D01*
G54D14*
G54D19*
X51835Y-45710D02*
X51835Y-45005D01*
X52077Y-45710D02*
X51895Y-45307D01*
X52077Y-45005D02*
X51835Y-45408D01*
X52481Y-45710D02*
X52238Y-45710D01*
X52360Y-45710D02*
X52360Y-45005D01*
X52319Y-45106D01*
X52279Y-45173D01*
X52238Y-45206D01*
X52844Y-45005D02*
X52763Y-45005D01*
X52723Y-45038D01*
X52703Y-45072D01*
X52662Y-45173D01*
X52642Y-45307D01*
X52642Y-45576D01*
X52662Y-45643D01*
X52683Y-45676D01*
X52723Y-45710D01*
X52804Y-45710D01*
X52844Y-45676D01*
X52864Y-45643D01*
X52885Y-45576D01*
X52885Y-45408D01*
X52864Y-45341D01*
X52844Y-45307D01*
X52804Y-45273D01*
X52723Y-45273D01*
X52683Y-45307D01*
X52662Y-45341D01*
X52642Y-45408D01*
G54D14*
G54D19*
X56635Y-39310D02*
X56635Y-38605D01*
X56877Y-39310D02*
X56695Y-38907D01*
X56877Y-38605D02*
X56635Y-39008D01*
X57038Y-38672D02*
X57059Y-38638D01*
X57099Y-38605D01*
X57200Y-38605D01*
X57240Y-38638D01*
X57261Y-38672D01*
X57281Y-38739D01*
X57281Y-38806D01*
X57261Y-38907D01*
X57018Y-39310D01*
X57281Y-39310D01*
X57543Y-38605D02*
X57584Y-38605D01*
X57624Y-38638D01*
X57644Y-38672D01*
X57664Y-38739D01*
X57685Y-38873D01*
X57685Y-39041D01*
X57664Y-39176D01*
X57644Y-39243D01*
X57624Y-39276D01*
X57584Y-39310D01*
X57543Y-39310D01*
X57503Y-39276D01*
X57483Y-39243D01*
X57462Y-39176D01*
X57442Y-39041D01*
X57442Y-38873D01*
X57462Y-38739D01*
X57483Y-38672D01*
X57503Y-38638D01*
X57543Y-38605D01*
G54D14*
G54D19*
X60435Y-39310D02*
X60435Y-38605D01*
X60677Y-39310D02*
X60495Y-38907D01*
X60677Y-38605D02*
X60435Y-39008D01*
X60838Y-38672D02*
X60859Y-38638D01*
X60899Y-38605D01*
X61000Y-38605D01*
X61040Y-38638D01*
X61061Y-38672D01*
X61081Y-38739D01*
X61081Y-38806D01*
X61061Y-38907D01*
X60818Y-39310D01*
X61081Y-39310D01*
X61485Y-39310D02*
X61242Y-39310D01*
X61363Y-39310D02*
X61363Y-38605D01*
X61323Y-38706D01*
X61283Y-38773D01*
X61242Y-38806D01*
G54D14*
G54D19*
X78262Y-43610D02*
X78262Y-42905D01*
X78504Y-43610D02*
X78322Y-43207D01*
X78504Y-42905D02*
X78262Y-43308D01*
X78867Y-43140D02*
X78867Y-43610D01*
X78767Y-42871D02*
X78666Y-43375D01*
X78928Y-43375D01*
G54D14*
G54D19*
X64235Y-39310D02*
X64235Y-38605D01*
X64477Y-39310D02*
X64295Y-38907D01*
X64477Y-38605D02*
X64235Y-39008D01*
X64638Y-38672D02*
X64659Y-38638D01*
X64699Y-38605D01*
X64800Y-38605D01*
X64840Y-38638D01*
X64861Y-38672D01*
X64881Y-38739D01*
X64881Y-38806D01*
X64861Y-38907D01*
X64618Y-39310D01*
X64881Y-39310D01*
X65042Y-38672D02*
X65062Y-38638D01*
X65103Y-38605D01*
X65204Y-38605D01*
X65244Y-38638D01*
X65264Y-38672D01*
X65285Y-38739D01*
X65285Y-38806D01*
X65264Y-38907D01*
X65022Y-39310D01*
X65285Y-39310D01*
G54D14*
G54D19*
X74460Y-45437D02*
X73755Y-45437D01*
X74460Y-45195D02*
X74057Y-45377D01*
X73755Y-45195D02*
X74158Y-45437D01*
X73755Y-44812D02*
X73755Y-45013D01*
X74091Y-45034D01*
X74057Y-45013D01*
X74024Y-44973D01*
X74024Y-44872D01*
X74057Y-44832D01*
X74091Y-44812D01*
X74158Y-44791D01*
X74326Y-44791D01*
X74393Y-44812D01*
X74426Y-44832D01*
X74460Y-44872D01*
X74460Y-44973D01*
X74426Y-45013D01*
X74393Y-45034D01*
G54D14*
G54D19*
X78262Y-36560D02*
X78262Y-35855D01*
X78504Y-36560D02*
X78322Y-36157D01*
X78504Y-35855D02*
X78262Y-36258D01*
X78867Y-35855D02*
X78787Y-35855D01*
X78746Y-35888D01*
X78726Y-35922D01*
X78686Y-36023D01*
X78666Y-36157D01*
X78666Y-36426D01*
X78686Y-36493D01*
X78706Y-36526D01*
X78746Y-36560D01*
X78827Y-36560D01*
X78867Y-36526D01*
X78888Y-36493D01*
X78908Y-36426D01*
X78908Y-36258D01*
X78888Y-36191D01*
X78867Y-36157D01*
X78827Y-36123D01*
X78746Y-36123D01*
X78706Y-36157D01*
X78686Y-36191D01*
X78666Y-36258D01*
G54D14*
G54D19*
X63235Y-45710D02*
X63235Y-45005D01*
X63477Y-45710D02*
X63295Y-45307D01*
X63477Y-45005D02*
X63235Y-45408D01*
X63638Y-45072D02*
X63659Y-45038D01*
X63699Y-45005D01*
X63800Y-45005D01*
X63840Y-45038D01*
X63861Y-45072D01*
X63881Y-45139D01*
X63881Y-45206D01*
X63861Y-45307D01*
X63618Y-45710D01*
X63881Y-45710D01*
X64022Y-45005D02*
X64285Y-45005D01*
X64143Y-45273D01*
X64204Y-45273D01*
X64244Y-45307D01*
X64264Y-45341D01*
X64285Y-45408D01*
X64285Y-45576D01*
X64264Y-45643D01*
X64244Y-45676D01*
X64204Y-45710D01*
X64083Y-45710D01*
X64042Y-45676D01*
X64022Y-45643D01*
G54D14*
G54D19*
X74460Y-38387D02*
X73755Y-38387D01*
X74460Y-38145D02*
X74057Y-38327D01*
X73755Y-38145D02*
X74158Y-38387D01*
X73755Y-38004D02*
X73755Y-37721D01*
X74460Y-37903D01*
G54D14*
G54D19*
X47237Y-52310D02*
X47237Y-51605D01*
X47479Y-52310D02*
X47297Y-51907D01*
X47479Y-51605D02*
X47237Y-52008D01*
X47620Y-51605D02*
X47883Y-51605D01*
X47741Y-51873D01*
X47802Y-51873D01*
X47842Y-51907D01*
X47862Y-51941D01*
X47883Y-52008D01*
X47883Y-52176D01*
X47862Y-52243D01*
X47842Y-52276D01*
X47802Y-52310D01*
X47681Y-52310D01*
X47640Y-52276D01*
X47620Y-52243D01*
G54D14*
G54D20*
X63730Y-42500D02*
X63730Y-41819D01*
X63893Y-41819D01*
X63934Y-41852D01*
X63954Y-41884D01*
X63974Y-41949D01*
X63974Y-42046D01*
X63954Y-42111D01*
X63934Y-42143D01*
X63893Y-42176D01*
X63730Y-42176D01*
X64137Y-41884D02*
X64158Y-41852D01*
X64199Y-41819D01*
X64300Y-41819D01*
X64341Y-41852D01*
X64362Y-41884D01*
X64382Y-41949D01*
X64382Y-42014D01*
X64362Y-42111D01*
X64117Y-42500D01*
X64382Y-42500D01*
X64647Y-41819D02*
X64688Y-41819D01*
X64728Y-41852D01*
X64749Y-41884D01*
X64769Y-41949D01*
X64790Y-42079D01*
X64790Y-42241D01*
X64769Y-42370D01*
X64749Y-42435D01*
X64728Y-42468D01*
X64688Y-42500D01*
X64647Y-42500D01*
X64606Y-42468D01*
X64586Y-42435D01*
X64565Y-42370D01*
X64545Y-42241D01*
X64545Y-42079D01*
X64565Y-41949D01*
X64586Y-41884D01*
X64606Y-41852D01*
X64647Y-41819D01*
G54D14*
G54D20*
X48330Y-42400D02*
X48330Y-41719D01*
X48493Y-41719D01*
X48534Y-41752D01*
X48554Y-41784D01*
X48574Y-41849D01*
X48574Y-41946D01*
X48554Y-42011D01*
X48534Y-42043D01*
X48493Y-42076D01*
X48330Y-42076D01*
X48982Y-42400D02*
X48737Y-42400D01*
X48860Y-42400D02*
X48860Y-41719D01*
X48819Y-41816D01*
X48778Y-41881D01*
X48737Y-41914D01*
X49145Y-41784D02*
X49165Y-41752D01*
X49206Y-41719D01*
X49308Y-41719D01*
X49349Y-41752D01*
X49369Y-41784D01*
X49390Y-41849D01*
X49390Y-41914D01*
X49369Y-42011D01*
X49125Y-42400D01*
X49390Y-42400D01*
G54D14*
G54D20*
X64730Y-36100D02*
X64730Y-35419D01*
X64893Y-35419D01*
X64934Y-35452D01*
X64954Y-35484D01*
X64974Y-35549D01*
X64974Y-35646D01*
X64954Y-35711D01*
X64934Y-35743D01*
X64893Y-35776D01*
X64730Y-35776D01*
X65382Y-36100D02*
X65137Y-36100D01*
X65260Y-36100D02*
X65260Y-35419D01*
X65219Y-35516D01*
X65178Y-35581D01*
X65137Y-35614D01*
X65586Y-36100D02*
X65667Y-36100D01*
X65708Y-36068D01*
X65728Y-36035D01*
X65769Y-35938D01*
X65790Y-35808D01*
X65790Y-35549D01*
X65769Y-35484D01*
X65749Y-35452D01*
X65708Y-35419D01*
X65627Y-35419D01*
X65586Y-35452D01*
X65565Y-35484D01*
X65545Y-35549D01*
X65545Y-35711D01*
X65565Y-35776D01*
X65586Y-35808D01*
X65627Y-35841D01*
X65708Y-35841D01*
X65749Y-35808D01*
X65769Y-35776D01*
X65790Y-35711D01*
G54D14*
G54D20*
X59930Y-42500D02*
X59930Y-41819D01*
X60093Y-41819D01*
X60134Y-41852D01*
X60154Y-41884D01*
X60174Y-41949D01*
X60174Y-42046D01*
X60154Y-42111D01*
X60134Y-42143D01*
X60093Y-42176D01*
X59930Y-42176D01*
X60582Y-42500D02*
X60337Y-42500D01*
X60460Y-42500D02*
X60460Y-41819D01*
X60419Y-41916D01*
X60378Y-41981D01*
X60337Y-42014D01*
X60969Y-41819D02*
X60765Y-41819D01*
X60745Y-42143D01*
X60765Y-42111D01*
X60806Y-42079D01*
X60908Y-42079D01*
X60949Y-42111D01*
X60969Y-42143D01*
X60990Y-42208D01*
X60990Y-42370D01*
X60969Y-42435D01*
X60949Y-42468D01*
X60908Y-42500D01*
X60806Y-42500D01*
X60765Y-42468D01*
X60745Y-42435D01*
G54D14*
G54D20*
X52330Y-42500D02*
X52330Y-41819D01*
X52493Y-41819D01*
X52534Y-41852D01*
X52554Y-41884D01*
X52574Y-41949D01*
X52574Y-42046D01*
X52554Y-42111D01*
X52534Y-42143D01*
X52493Y-42176D01*
X52330Y-42176D01*
X52982Y-42500D02*
X52737Y-42500D01*
X52860Y-42500D02*
X52860Y-41819D01*
X52819Y-41916D01*
X52778Y-41981D01*
X52737Y-42014D01*
X53125Y-41819D02*
X53390Y-41819D01*
X53247Y-42079D01*
X53308Y-42079D01*
X53349Y-42111D01*
X53369Y-42143D01*
X53390Y-42208D01*
X53390Y-42370D01*
X53369Y-42435D01*
X53349Y-42468D01*
X53308Y-42500D01*
X53186Y-42500D01*
X53145Y-42468D01*
X53125Y-42435D01*
G54D14*
G54D20*
X60930Y-36100D02*
X60930Y-35419D01*
X61093Y-35419D01*
X61134Y-35452D01*
X61154Y-35484D01*
X61174Y-35549D01*
X61174Y-35646D01*
X61154Y-35711D01*
X61134Y-35743D01*
X61093Y-35776D01*
X60930Y-35776D01*
X61582Y-36100D02*
X61337Y-36100D01*
X61460Y-36100D02*
X61460Y-35419D01*
X61419Y-35516D01*
X61378Y-35581D01*
X61337Y-35614D01*
X61827Y-35711D02*
X61786Y-35679D01*
X61765Y-35646D01*
X61745Y-35581D01*
X61745Y-35549D01*
X61765Y-35484D01*
X61786Y-35452D01*
X61827Y-35419D01*
X61908Y-35419D01*
X61949Y-35452D01*
X61969Y-35484D01*
X61990Y-35549D01*
X61990Y-35581D01*
X61969Y-35646D01*
X61949Y-35679D01*
X61908Y-35711D01*
X61827Y-35711D01*
X61786Y-35743D01*
X61765Y-35776D01*
X61745Y-35841D01*
X61745Y-35970D01*
X61765Y-36035D01*
X61786Y-36068D01*
X61827Y-36100D01*
X61908Y-36100D01*
X61949Y-36068D01*
X61969Y-36035D01*
X61990Y-35970D01*
X61990Y-35841D01*
X61969Y-35776D01*
X61949Y-35743D01*
X61908Y-35711D01*
G54D14*
G54D20*
X56130Y-42500D02*
X56130Y-41819D01*
X56293Y-41819D01*
X56334Y-41852D01*
X56354Y-41884D01*
X56374Y-41949D01*
X56374Y-42046D01*
X56354Y-42111D01*
X56334Y-42143D01*
X56293Y-42176D01*
X56130Y-42176D01*
X56782Y-42500D02*
X56537Y-42500D01*
X56660Y-42500D02*
X56660Y-41819D01*
X56619Y-41916D01*
X56578Y-41981D01*
X56537Y-42014D01*
X57149Y-42046D02*
X57149Y-42500D01*
X57047Y-41787D02*
X56945Y-42273D01*
X57210Y-42273D01*
G54D14*
G54D20*
X47734Y-49100D02*
X47734Y-48419D01*
X47897Y-48419D01*
X47937Y-48452D01*
X47958Y-48484D01*
X47978Y-48549D01*
X47978Y-48646D01*
X47958Y-48711D01*
X47937Y-48743D01*
X47897Y-48776D01*
X47734Y-48776D01*
X48121Y-48419D02*
X48406Y-48419D01*
X48223Y-49100D01*
G54D14*
G54D20*
X70330Y-52300D02*
X70330Y-51619D01*
X70493Y-51619D01*
X70534Y-51652D01*
X70554Y-51684D01*
X70574Y-51749D01*
X70574Y-51846D01*
X70554Y-51911D01*
X70534Y-51943D01*
X70493Y-51976D01*
X70330Y-51976D01*
X70982Y-52300D02*
X70737Y-52300D01*
X70860Y-52300D02*
X70860Y-51619D01*
X70819Y-51716D01*
X70778Y-51781D01*
X70737Y-51814D01*
X71390Y-52300D02*
X71145Y-52300D01*
X71267Y-52300D02*
X71267Y-51619D01*
X71227Y-51716D01*
X71186Y-51781D01*
X71145Y-51814D01*
G54D14*
G54D20*
X53330Y-36100D02*
X53330Y-35419D01*
X53493Y-35419D01*
X53534Y-35452D01*
X53554Y-35484D01*
X53574Y-35549D01*
X53574Y-35646D01*
X53554Y-35711D01*
X53534Y-35743D01*
X53493Y-35776D01*
X53330Y-35776D01*
X53982Y-36100D02*
X53737Y-36100D01*
X53860Y-36100D02*
X53860Y-35419D01*
X53819Y-35516D01*
X53778Y-35581D01*
X53737Y-35614D01*
X54349Y-35419D02*
X54267Y-35419D01*
X54227Y-35452D01*
X54206Y-35484D01*
X54165Y-35581D01*
X54145Y-35711D01*
X54145Y-35970D01*
X54165Y-36035D01*
X54186Y-36068D01*
X54227Y-36100D01*
X54308Y-36100D01*
X54349Y-36068D01*
X54369Y-36035D01*
X54390Y-35970D01*
X54390Y-35808D01*
X54369Y-35743D01*
X54349Y-35711D01*
X54308Y-35679D01*
X54227Y-35679D01*
X54186Y-35711D01*
X54165Y-35743D01*
X54145Y-35808D01*
G54D14*
G54D20*
X78850Y-45940D02*
X78169Y-45940D01*
X78169Y-45777D01*
X78202Y-45737D01*
X78234Y-45716D01*
X78299Y-45696D01*
X78396Y-45696D01*
X78461Y-45716D01*
X78494Y-45737D01*
X78526Y-45777D01*
X78526Y-45940D01*
X78169Y-45309D02*
X78169Y-45512D01*
X78494Y-45533D01*
X78461Y-45512D01*
X78429Y-45472D01*
X78429Y-45370D01*
X78461Y-45329D01*
X78494Y-45309D01*
X78558Y-45288D01*
X78721Y-45288D01*
X78785Y-45309D01*
X78818Y-45329D01*
X78850Y-45370D01*
X78850Y-45472D01*
X78818Y-45512D01*
X78785Y-45533D01*
G54D14*
G54D20*
X57130Y-36100D02*
X57130Y-35419D01*
X57293Y-35419D01*
X57334Y-35452D01*
X57354Y-35484D01*
X57374Y-35549D01*
X57374Y-35646D01*
X57354Y-35711D01*
X57334Y-35743D01*
X57293Y-35776D01*
X57130Y-35776D01*
X57782Y-36100D02*
X57537Y-36100D01*
X57660Y-36100D02*
X57660Y-35419D01*
X57619Y-35516D01*
X57578Y-35581D01*
X57537Y-35614D01*
X57925Y-35419D02*
X58210Y-35419D01*
X58027Y-36100D01*
G54D14*
G54D20*
X66530Y-52300D02*
X66530Y-51619D01*
X66693Y-51619D01*
X66734Y-51652D01*
X66754Y-51684D01*
X66774Y-51749D01*
X66774Y-51846D01*
X66754Y-51911D01*
X66734Y-51943D01*
X66693Y-51976D01*
X66530Y-51976D01*
X67182Y-52300D02*
X66937Y-52300D01*
X67060Y-52300D02*
X67060Y-51619D01*
X67019Y-51716D01*
X66978Y-51781D01*
X66937Y-51814D01*
X67447Y-51619D02*
X67488Y-51619D01*
X67528Y-51652D01*
X67549Y-51684D01*
X67569Y-51749D01*
X67590Y-51879D01*
X67590Y-52041D01*
X67569Y-52170D01*
X67549Y-52235D01*
X67528Y-52268D01*
X67488Y-52300D01*
X67447Y-52300D01*
X67406Y-52268D01*
X67386Y-52235D01*
X67365Y-52170D01*
X67345Y-52041D01*
X67345Y-51879D01*
X67365Y-51749D01*
X67386Y-51684D01*
X67406Y-51652D01*
X67447Y-51619D01*
G54D14*
G54D20*
X51534Y-49100D02*
X51534Y-48419D01*
X51697Y-48419D01*
X51737Y-48452D01*
X51758Y-48484D01*
X51778Y-48549D01*
X51778Y-48646D01*
X51758Y-48711D01*
X51737Y-48743D01*
X51697Y-48776D01*
X51534Y-48776D01*
X51921Y-48419D02*
X52186Y-48419D01*
X52043Y-48679D01*
X52104Y-48679D01*
X52145Y-48711D01*
X52165Y-48743D01*
X52186Y-48808D01*
X52186Y-48970D01*
X52165Y-49035D01*
X52145Y-49068D01*
X52104Y-49100D01*
X51982Y-49100D01*
X51941Y-49068D01*
X51921Y-49035D01*
G54D14*
G54D20*
X55334Y-49100D02*
X55334Y-48419D01*
X55497Y-48419D01*
X55537Y-48452D01*
X55558Y-48484D01*
X55578Y-48549D01*
X55578Y-48646D01*
X55558Y-48711D01*
X55537Y-48743D01*
X55497Y-48776D01*
X55334Y-48776D01*
X55782Y-49100D02*
X55864Y-49100D01*
X55904Y-49068D01*
X55925Y-49035D01*
X55965Y-48938D01*
X55986Y-48808D01*
X55986Y-48549D01*
X55965Y-48484D01*
X55945Y-48452D01*
X55904Y-48419D01*
X55823Y-48419D01*
X55782Y-48452D01*
X55762Y-48484D01*
X55741Y-48549D01*
X55741Y-48711D01*
X55762Y-48776D01*
X55782Y-48808D01*
X55823Y-48841D01*
X55904Y-48841D01*
X55945Y-48808D01*
X55965Y-48776D01*
X55986Y-48711D01*
G54D14*
G54D20*
X78850Y-38890D02*
X78169Y-38890D01*
X78169Y-38727D01*
X78202Y-38687D01*
X78234Y-38666D01*
X78299Y-38646D01*
X78396Y-38646D01*
X78461Y-38666D01*
X78494Y-38687D01*
X78526Y-38727D01*
X78526Y-38890D01*
X78169Y-38279D02*
X78169Y-38361D01*
X78202Y-38401D01*
X78234Y-38422D01*
X78331Y-38462D01*
X78461Y-38483D01*
X78721Y-38483D01*
X78785Y-38462D01*
X78818Y-38442D01*
X78850Y-38401D01*
X78850Y-38320D01*
X78818Y-38279D01*
X78785Y-38259D01*
X78721Y-38238D01*
X78558Y-38238D01*
X78494Y-38259D01*
X78461Y-38279D01*
X78429Y-38320D01*
X78429Y-38401D01*
X78461Y-38442D01*
X78494Y-38462D01*
X78558Y-38483D01*
G54D14*
G54D20*
X59134Y-49100D02*
X59134Y-48419D01*
X59297Y-48419D01*
X59337Y-48452D01*
X59358Y-48484D01*
X59378Y-48549D01*
X59378Y-48646D01*
X59358Y-48711D01*
X59337Y-48743D01*
X59297Y-48776D01*
X59134Y-48776D01*
X59623Y-48711D02*
X59582Y-48679D01*
X59562Y-48646D01*
X59541Y-48581D01*
X59541Y-48549D01*
X59562Y-48484D01*
X59582Y-48452D01*
X59623Y-48419D01*
X59704Y-48419D01*
X59745Y-48452D01*
X59765Y-48484D01*
X59786Y-48549D01*
X59786Y-48581D01*
X59765Y-48646D01*
X59745Y-48679D01*
X59704Y-48711D01*
X59623Y-48711D01*
X59582Y-48743D01*
X59562Y-48776D01*
X59541Y-48841D01*
X59541Y-48970D01*
X59562Y-49035D01*
X59582Y-49068D01*
X59623Y-49100D01*
X59704Y-49100D01*
X59745Y-49068D01*
X59765Y-49035D01*
X59786Y-48970D01*
X59786Y-48841D01*
X59765Y-48776D01*
X59745Y-48743D01*
X59704Y-48711D01*
G54D14*
G54D20*
X62934Y-52300D02*
X62934Y-51619D01*
X63097Y-51619D01*
X63137Y-51652D01*
X63158Y-51684D01*
X63178Y-51749D01*
X63178Y-51846D01*
X63158Y-51911D01*
X63137Y-51943D01*
X63097Y-51976D01*
X62934Y-51976D01*
X63545Y-51846D02*
X63545Y-52300D01*
X63443Y-51587D02*
X63341Y-52073D01*
X63606Y-52073D01*
G54D14*
G54D21*
X69924Y-42540D02*
X69924Y-42859D01*
X69943Y-42896D01*
X69962Y-42915D01*
X69999Y-42934D01*
X70074Y-42934D01*
X70112Y-42915D01*
X70130Y-42896D01*
X70149Y-42859D01*
X70149Y-42540D01*
X70506Y-42540D02*
X70431Y-42540D01*
X70393Y-42559D01*
X70374Y-42578D01*
X70337Y-42634D01*
X70318Y-42709D01*
X70318Y-42859D01*
X70337Y-42896D01*
X70356Y-42915D01*
X70393Y-42934D01*
X70468Y-42934D01*
X70506Y-42915D01*
X70524Y-42896D01*
X70543Y-42859D01*
X70543Y-42765D01*
X70524Y-42728D01*
X70506Y-42709D01*
X70468Y-42690D01*
X70393Y-42690D01*
X70356Y-42709D01*
X70337Y-42728D01*
X70318Y-42765D01*
G54D13*
X68798Y-42384D02*
X68798Y-41990D01*
X68930Y-42271D01*
X69061Y-41990D01*
X69061Y-42384D01*
X69230Y-42271D02*
X69418Y-42271D01*
X69192Y-42384D02*
X69324Y-41990D01*
X69455Y-42384D01*
X69549Y-41990D02*
X69812Y-42384D01*
X69812Y-41990D02*
X69549Y-42384D01*
X70130Y-42121D02*
X70130Y-42384D01*
X70037Y-41971D02*
X69943Y-42253D01*
X70187Y-42253D01*
X70506Y-42121D02*
X70506Y-42384D01*
X70412Y-41971D02*
X70318Y-42253D01*
X70562Y-42253D01*
X70693Y-42028D02*
X70712Y-42009D01*
X70750Y-41990D01*
X70843Y-41990D01*
X70881Y-42009D01*
X70900Y-42028D01*
X70918Y-42065D01*
X70918Y-42103D01*
X70900Y-42159D01*
X70675Y-42384D01*
X70918Y-42384D01*
X71275Y-41990D02*
X71087Y-41990D01*
X71069Y-42178D01*
X71087Y-42159D01*
X71125Y-42140D01*
X71219Y-42140D01*
X71256Y-42159D01*
X71275Y-42178D01*
X71294Y-42215D01*
X71294Y-42309D01*
X71275Y-42346D01*
X71256Y-42365D01*
X71219Y-42384D01*
X71125Y-42384D01*
X71087Y-42365D01*
X71069Y-42346D01*
X71669Y-42384D02*
X71444Y-42384D01*
X71556Y-42384D02*
X71556Y-41990D01*
X71519Y-42046D01*
X71481Y-42084D01*
X71444Y-42103D01*
G54D21*
X43899Y-42740D02*
X43899Y-43059D01*
X43918Y-43096D01*
X43937Y-43115D01*
X43974Y-43134D01*
X44049Y-43134D01*
X44087Y-43115D01*
X44106Y-43096D01*
X44124Y-43059D01*
X44124Y-42740D01*
X44518Y-43134D02*
X44293Y-43134D01*
X44406Y-43134D02*
X44406Y-42740D01*
X44368Y-42796D01*
X44331Y-42834D01*
X44293Y-42853D01*
G54D13*
X42971Y-43290D02*
X43196Y-43290D01*
X43083Y-43684D02*
X43083Y-43290D01*
X43327Y-43684D02*
X43327Y-43290D01*
X43477Y-43290D01*
X43515Y-43309D01*
X43533Y-43328D01*
X43552Y-43365D01*
X43552Y-43421D01*
X43533Y-43459D01*
X43515Y-43478D01*
X43477Y-43496D01*
X43327Y-43496D01*
X43702Y-43665D02*
X43759Y-43684D01*
X43852Y-43684D01*
X43890Y-43665D01*
X43909Y-43646D01*
X43927Y-43609D01*
X43927Y-43571D01*
X43909Y-43534D01*
X43890Y-43515D01*
X43852Y-43496D01*
X43777Y-43478D01*
X43740Y-43459D01*
X43721Y-43440D01*
X43702Y-43403D01*
X43702Y-43365D01*
X43721Y-43328D01*
X43740Y-43309D01*
X43777Y-43290D01*
X43871Y-43290D01*
X43927Y-43309D01*
X44059Y-43290D02*
X44321Y-43290D01*
X44153Y-43684D01*
X44453Y-43571D02*
X44640Y-43571D01*
X44415Y-43684D02*
X44547Y-43290D01*
X44678Y-43684D01*
X44978Y-43421D02*
X44978Y-43684D01*
X44884Y-43271D02*
X44791Y-43553D01*
X45034Y-43553D01*
X45203Y-43684D02*
X45278Y-43684D01*
X45316Y-43665D01*
X45335Y-43646D01*
X45372Y-43590D01*
X45391Y-43515D01*
X45391Y-43365D01*
X45372Y-43328D01*
X45353Y-43309D01*
X45316Y-43290D01*
X45241Y-43290D01*
X45203Y-43309D01*
X45185Y-43328D01*
X45166Y-43365D01*
X45166Y-43459D01*
X45185Y-43496D01*
X45203Y-43515D01*
X45241Y-43534D01*
X45316Y-43534D01*
X45353Y-43515D01*
X45372Y-43496D01*
X45391Y-43459D01*
G54D21*
X39499Y-42740D02*
X39499Y-43059D01*
X39518Y-43096D01*
X39537Y-43115D01*
X39574Y-43134D01*
X39649Y-43134D01*
X39687Y-43115D01*
X39706Y-43096D01*
X39724Y-43059D01*
X39724Y-42740D01*
X39875Y-42740D02*
X40118Y-42740D01*
X39987Y-42890D01*
X40043Y-42890D01*
X40081Y-42909D01*
X40100Y-42928D01*
X40118Y-42965D01*
X40118Y-43059D01*
X40100Y-43096D01*
X40081Y-43115D01*
X40043Y-43134D01*
X39931Y-43134D01*
X39893Y-43115D01*
X39875Y-43096D01*
G54D13*
X38571Y-43290D02*
X38796Y-43290D01*
X38683Y-43684D02*
X38683Y-43290D01*
X38927Y-43684D02*
X38927Y-43290D01*
X39077Y-43290D01*
X39115Y-43309D01*
X39133Y-43328D01*
X39152Y-43365D01*
X39152Y-43421D01*
X39133Y-43459D01*
X39115Y-43478D01*
X39077Y-43496D01*
X38927Y-43496D01*
X39302Y-43665D02*
X39359Y-43684D01*
X39452Y-43684D01*
X39490Y-43665D01*
X39509Y-43646D01*
X39527Y-43609D01*
X39527Y-43571D01*
X39509Y-43534D01*
X39490Y-43515D01*
X39452Y-43496D01*
X39377Y-43478D01*
X39340Y-43459D01*
X39321Y-43440D01*
X39302Y-43403D01*
X39302Y-43365D01*
X39321Y-43328D01*
X39340Y-43309D01*
X39377Y-43290D01*
X39471Y-43290D01*
X39527Y-43309D01*
X39659Y-43290D02*
X39921Y-43290D01*
X39753Y-43684D01*
X40053Y-43571D02*
X40240Y-43571D01*
X40015Y-43684D02*
X40147Y-43290D01*
X40278Y-43684D01*
X40372Y-43290D02*
X40616Y-43290D01*
X40484Y-43440D01*
X40541Y-43440D01*
X40578Y-43459D01*
X40597Y-43478D01*
X40616Y-43515D01*
X40616Y-43609D01*
X40597Y-43646D01*
X40578Y-43665D01*
X40541Y-43684D01*
X40428Y-43684D01*
X40391Y-43665D01*
X40372Y-43646D01*
X40860Y-43290D02*
X40897Y-43290D01*
X40935Y-43309D01*
X40953Y-43328D01*
X40972Y-43365D01*
X40991Y-43440D01*
X40991Y-43534D01*
X40972Y-43609D01*
X40953Y-43646D01*
X40935Y-43665D01*
X40897Y-43684D01*
X40860Y-43684D01*
X40822Y-43665D01*
X40803Y-43646D01*
X40785Y-43609D01*
X40766Y-43534D01*
X40766Y-43440D01*
X40785Y-43365D01*
X40803Y-43328D01*
X40822Y-43309D01*
X40860Y-43290D01*
G54D10*
X44265Y-39934D02*
X44134Y-39746D01*
X44040Y-39934D02*
X44040Y-39540D01*
X44190Y-39540D01*
X44228Y-39559D01*
X44246Y-39578D01*
X44265Y-39615D01*
X44265Y-39671D01*
X44246Y-39709D01*
X44228Y-39728D01*
X44190Y-39746D01*
X44040Y-39746D01*
X44378Y-39540D02*
X44509Y-39934D01*
X44640Y-39540D01*
X44978Y-39934D02*
X44753Y-39934D01*
X44865Y-39934D02*
X44865Y-39540D01*
X44828Y-39596D01*
X44790Y-39634D01*
X44753Y-39653D01*
X43165Y-40884D02*
X42940Y-40884D01*
X43053Y-40884D02*
X43053Y-40490D01*
X43015Y-40546D01*
X42978Y-40584D01*
X42940Y-40603D01*
X43409Y-40490D02*
X43446Y-40490D01*
X43484Y-40509D01*
X43503Y-40528D01*
X43521Y-40565D01*
X43540Y-40640D01*
X43540Y-40734D01*
X43521Y-40809D01*
X43503Y-40846D01*
X43484Y-40865D01*
X43446Y-40884D01*
X43409Y-40884D01*
X43371Y-40865D01*
X43353Y-40846D01*
X43334Y-40809D01*
X43315Y-40734D01*
X43315Y-40640D01*
X43334Y-40565D01*
X43353Y-40528D01*
X43371Y-40509D01*
X43409Y-40490D01*
X43709Y-40884D02*
X43709Y-40490D01*
X43746Y-40734D02*
X43859Y-40884D01*
X43859Y-40621D02*
X43709Y-40771D01*
X78034Y-45659D02*
X77847Y-45790D01*
X78034Y-45884D02*
X77640Y-45884D01*
X77640Y-45734D01*
X77659Y-45696D01*
X77678Y-45678D01*
X77715Y-45659D01*
X77772Y-45659D01*
X77809Y-45678D01*
X77828Y-45696D01*
X77847Y-45734D01*
X77847Y-45884D01*
X77640Y-45546D02*
X78034Y-45415D01*
X77640Y-45284D01*
X77640Y-44984D02*
X77640Y-45059D01*
X77659Y-45096D01*
X77678Y-45115D01*
X77734Y-45153D01*
X77809Y-45171D01*
X77959Y-45171D01*
X77997Y-45153D01*
X78015Y-45134D01*
X78034Y-45096D01*
X78034Y-45021D01*
X78015Y-44984D01*
X77997Y-44965D01*
X77959Y-44946D01*
X77865Y-44946D01*
X77828Y-44965D01*
X77809Y-44984D01*
X77790Y-45021D01*
X77790Y-45096D01*
X77809Y-45134D01*
X77828Y-45153D01*
X77865Y-45171D01*
X77084Y-44784D02*
X76690Y-44784D01*
X76690Y-44634D01*
X76709Y-44596D01*
X76728Y-44578D01*
X76765Y-44559D01*
X76822Y-44559D01*
X76859Y-44578D01*
X76878Y-44596D01*
X76897Y-44634D01*
X76897Y-44784D01*
X76690Y-44315D02*
X76690Y-44240D01*
X76709Y-44203D01*
X76747Y-44165D01*
X76822Y-44146D01*
X76953Y-44146D01*
X77028Y-44165D01*
X77065Y-44203D01*
X77084Y-44240D01*
X77084Y-44315D01*
X77065Y-44353D01*
X77028Y-44390D01*
X76953Y-44409D01*
X76822Y-44409D01*
X76747Y-44390D01*
X76709Y-44353D01*
X76690Y-44315D01*
X76690Y-44034D02*
X76690Y-43809D01*
X77084Y-43921D02*
X76690Y-43921D01*
X78034Y-38609D02*
X77847Y-38740D01*
X78034Y-38834D02*
X77640Y-38834D01*
X77640Y-38684D01*
X77659Y-38646D01*
X77678Y-38628D01*
X77715Y-38609D01*
X77772Y-38609D01*
X77809Y-38628D01*
X77828Y-38646D01*
X77847Y-38684D01*
X77847Y-38834D01*
X77640Y-38496D02*
X78034Y-38365D01*
X77640Y-38234D01*
X77640Y-38140D02*
X77640Y-37878D01*
X78034Y-38046D01*
X77084Y-37734D02*
X76690Y-37734D01*
X76690Y-37584D01*
X76709Y-37546D01*
X76728Y-37528D01*
X76765Y-37509D01*
X76822Y-37509D01*
X76859Y-37528D01*
X76878Y-37546D01*
X76897Y-37584D01*
X76897Y-37734D01*
X76690Y-37265D02*
X76690Y-37190D01*
X76709Y-37153D01*
X76747Y-37115D01*
X76822Y-37096D01*
X76953Y-37096D01*
X77028Y-37115D01*
X77065Y-37153D01*
X77084Y-37190D01*
X77084Y-37265D01*
X77065Y-37303D01*
X77028Y-37340D01*
X76953Y-37359D01*
X76822Y-37359D01*
X76747Y-37340D01*
X76709Y-37303D01*
X76690Y-37265D01*
X76690Y-36984D02*
X76690Y-36759D01*
X77084Y-36871D02*
X76690Y-36871D01*
X39865Y-39934D02*
X39734Y-39746D01*
X39640Y-39934D02*
X39640Y-39540D01*
X39790Y-39540D01*
X39828Y-39559D01*
X39846Y-39578D01*
X39865Y-39615D01*
X39865Y-39671D01*
X39846Y-39709D01*
X39828Y-39728D01*
X39790Y-39746D01*
X39640Y-39746D01*
X39978Y-39540D02*
X40109Y-39934D01*
X40240Y-39540D01*
X40334Y-39540D02*
X40578Y-39540D01*
X40446Y-39690D01*
X40503Y-39690D01*
X40540Y-39709D01*
X40559Y-39728D01*
X40578Y-39765D01*
X40578Y-39859D01*
X40559Y-39896D01*
X40540Y-39915D01*
X40503Y-39934D01*
X40390Y-39934D01*
X40353Y-39915D01*
X40334Y-39896D01*
X38765Y-40884D02*
X38540Y-40884D01*
X38653Y-40884D02*
X38653Y-40490D01*
X38615Y-40546D01*
X38578Y-40584D01*
X38540Y-40603D01*
X39009Y-40490D02*
X39046Y-40490D01*
X39084Y-40509D01*
X39103Y-40528D01*
X39121Y-40565D01*
X39140Y-40640D01*
X39140Y-40734D01*
X39121Y-40809D01*
X39103Y-40846D01*
X39084Y-40865D01*
X39046Y-40884D01*
X39009Y-40884D01*
X38971Y-40865D01*
X38953Y-40846D01*
X38934Y-40809D01*
X38915Y-40734D01*
X38915Y-40640D01*
X38934Y-40565D01*
X38953Y-40528D01*
X38971Y-40509D01*
X39009Y-40490D01*
X39309Y-40884D02*
X39309Y-40490D01*
X39346Y-40734D02*
X39459Y-40884D01*
X39459Y-40621D02*
X39309Y-40771D01*
G54D11*
X32311Y-50710D02*
X31911Y-50710D01*
X31911Y-50558D01*
X31930Y-50520D01*
X31950Y-50501D01*
X31988Y-50482D01*
X32045Y-50482D01*
X32083Y-50501D01*
X32102Y-50520D01*
X32121Y-50558D01*
X32121Y-50710D01*
X31950Y-50329D02*
X31930Y-50310D01*
X31911Y-50272D01*
X31911Y-50177D01*
X31930Y-50139D01*
X31950Y-50120D01*
X31988Y-50101D01*
X32026Y-50101D01*
X32083Y-50120D01*
X32311Y-50348D01*
X32311Y-50101D01*
X32311Y-49720D02*
X32311Y-49948D01*
X32311Y-49834D02*
X31911Y-49834D01*
X31969Y-49872D01*
X32007Y-49910D01*
X32026Y-49948D01*
X32311Y-34710D02*
X31911Y-34710D01*
X31911Y-34558D01*
X31930Y-34520D01*
X31950Y-34501D01*
X31988Y-34482D01*
X32045Y-34482D01*
X32083Y-34501D01*
X32102Y-34520D01*
X32121Y-34558D01*
X32121Y-34710D01*
X31950Y-34329D02*
X31930Y-34310D01*
X31911Y-34272D01*
X31911Y-34177D01*
X31930Y-34139D01*
X31950Y-34120D01*
X31988Y-34101D01*
X32026Y-34101D01*
X32083Y-34120D01*
X32311Y-34348D01*
X32311Y-34101D01*
X31950Y-33948D02*
X31930Y-33929D01*
X31911Y-33891D01*
X31911Y-33796D01*
X31930Y-33758D01*
X31950Y-33739D01*
X31988Y-33720D01*
X32026Y-33720D01*
X32083Y-33739D01*
X32311Y-33967D01*
X32311Y-33720D01*
X81711Y-34710D02*
X81311Y-34710D01*
X81311Y-34558D01*
X81330Y-34520D01*
X81350Y-34501D01*
X81388Y-34482D01*
X81445Y-34482D01*
X81483Y-34501D01*
X81502Y-34520D01*
X81521Y-34558D01*
X81521Y-34710D01*
X81350Y-34329D02*
X81330Y-34310D01*
X81311Y-34272D01*
X81311Y-34177D01*
X81330Y-34139D01*
X81350Y-34120D01*
X81388Y-34101D01*
X81426Y-34101D01*
X81483Y-34120D01*
X81711Y-34348D01*
X81711Y-34101D01*
X81311Y-33967D02*
X81311Y-33720D01*
X81464Y-33853D01*
X81464Y-33796D01*
X81483Y-33758D01*
X81502Y-33739D01*
X81540Y-33720D01*
X81635Y-33720D01*
X81673Y-33739D01*
X81692Y-33758D01*
X81711Y-33796D01*
X81711Y-33910D01*
X81692Y-33948D01*
X81673Y-33967D01*
X81711Y-50710D02*
X81311Y-50710D01*
X81311Y-50558D01*
X81330Y-50520D01*
X81350Y-50501D01*
X81388Y-50482D01*
X81445Y-50482D01*
X81483Y-50501D01*
X81502Y-50520D01*
X81521Y-50558D01*
X81521Y-50710D01*
X81350Y-50329D02*
X81330Y-50310D01*
X81311Y-50272D01*
X81311Y-50177D01*
X81330Y-50139D01*
X81350Y-50120D01*
X81388Y-50101D01*
X81426Y-50101D01*
X81483Y-50120D01*
X81711Y-50348D01*
X81711Y-50101D01*
X81445Y-49758D02*
X81711Y-49758D01*
X81292Y-49853D02*
X81578Y-49948D01*
X81578Y-49701D01*
M02*
