M48
INCH,TZ
T1C0.025
T2C0.039
T3C0.059
T4C0.063
%
G90
G05
T1
X41925Y-23725
X42500Y-21400
X42575Y-19725
X43226Y-19065
X44525Y-18475
X44650Y-16200
X45782Y-29857
X46440Y-24720
X49175Y-29475
X49207Y-20782
X49750Y-16750
X49750Y-33950
X50150Y-20150
X51050Y-22425
X51300Y-33925
X52825Y-21550
X52950Y-15350
X53292Y-29635
X53477Y-30290
X53496Y-23535
X53975Y-29300
X54126Y-20946
X54424Y-19374
X55425Y-20550
X56761Y-31800
X56875Y-20550
X57225Y-22350
X58051Y-25459
X58725Y-20950
X59100Y-25025
X59300Y-21150
X59675Y-16475
X59732Y-31723
X60100Y-25225
X60100Y-29500
X60250Y-33250
X60814Y-25726
X60950Y-31775
X61275Y-34300
X61366Y-19154
X62250Y-33825
X62486Y-26747
X63500Y-13725
X63624Y-25329
X63851Y-28814
X63956Y-20804
X64375Y-33850
X65120Y-19886
X66278Y-18986
X66582Y-20400
X66891Y-17098
X67178Y-22751
X67400Y-25850
X68350Y-18700
X69725Y-16025
X70000Y-25950
X70945Y-27736
X70973Y-28898
X71000Y-17400
X72829Y-24413
X72975Y-18400
X74709Y-21532
X75985Y-30763
X76800Y-26700
X77196Y-19964
X77954Y-20301
X78171Y-22478
X78171Y-26515
X78190Y-30320
X78615Y-28029
X78978Y-23128
X78978Y-24129
X79470Y-22285
X79650Y-14135
X81600Y-13800
X82450Y-23000
T2
X43700Y-31300
X43700Y-32300
X44700Y-31300
X44700Y-32300
X45700Y-31300
X45700Y-32300
X46700Y-31300
X46700Y-32300
X47700Y-31300
X47700Y-32300
X52300Y-31300
X52300Y-32300
X53300Y-31300
X53300Y-32300
X54300Y-31300
X54300Y-32300
X55300Y-31300
X55300Y-32300
X56300Y-31300
X56300Y-32300
X57300Y-31300
X57300Y-32300
X58300Y-31300
X58300Y-32300
X59300Y-31300
X59300Y-32300
X60300Y-31300
X60300Y-32300
X61300Y-31300
X61300Y-32300
X62300Y-31300
X62300Y-32300
X63300Y-31300
X63300Y-32300
X64300Y-31300
X64300Y-32300
T3
X42700Y-15100
X49000Y-27450
X51500Y-15100
X57200Y-27450
X59250Y-22750
X59700Y-15100
X68600Y-31700
X71150Y-25800
X72000Y-15100
X72000Y-20400
X80200Y-32600
X80650Y-16100
T4
X41700Y-14100
X41700Y-16100
X43700Y-14100
X43700Y-16100
X48000Y-26450
X48000Y-28450
X50000Y-26450
X50000Y-28450
X50500Y-14100
X50500Y-16100
X52500Y-14100
X52500Y-16100
X56200Y-26450
X56200Y-28450
X58200Y-26450
X58200Y-28450
X58250Y-21750
X58250Y-23750
X58700Y-14100
X58700Y-16100
X60250Y-21750
X60250Y-23750
X60700Y-14100
X60700Y-16100
X67600Y-30700
X67600Y-32700
X69600Y-30700
X69600Y-32700
X70150Y-24800
X70150Y-26800
X71000Y-14100
X71000Y-16100
X71000Y-19400
X71000Y-21400
X72150Y-24800
X72150Y-26800
X73000Y-14100
X73000Y-16100
X73000Y-19400
X73000Y-21400
X79200Y-31600
X79200Y-33600
X79650Y-15100
X79650Y-17100
X81200Y-31600
X81200Y-33600
X81650Y-15100
X81650Y-17100
T0
M30
