G04 (created by PCBNEW (2013-may-18)-stable) date 2014年03月12日 星期三 10时39分10秒*
%MOIN*%
G04 Gerber Fmt 3.4, Leading zero omitted, Abs format*
%FSLAX34Y34*%
G01*
G70*
G90*
G04 APERTURE LIST*
%ADD10C,0.00590551*%
%ADD11C,0.0944882*%
G04 APERTURE END LIST*
G54D10*
G54D11*
X42700Y-15100D03*
X41700Y-14100D03*
X43700Y-14100D03*
X43700Y-16100D03*
X41700Y-16100D03*
X71150Y-25800D03*
X70150Y-24800D03*
X72150Y-24800D03*
X72150Y-26800D03*
X70150Y-26800D03*
X80200Y-32600D03*
X79200Y-31600D03*
X81200Y-31600D03*
X81200Y-33600D03*
X79200Y-33600D03*
X59700Y-15100D03*
X58700Y-14100D03*
X60700Y-14100D03*
X60700Y-16100D03*
X58700Y-16100D03*
X72000Y-20400D03*
X71000Y-19400D03*
X73000Y-19400D03*
X73000Y-21400D03*
X71000Y-21400D03*
X68600Y-31700D03*
X67600Y-30700D03*
X69600Y-30700D03*
X69600Y-32700D03*
X67600Y-32700D03*
X59250Y-22750D03*
X58250Y-21750D03*
X60250Y-21750D03*
X60250Y-23750D03*
X58250Y-23750D03*
X57200Y-27450D03*
X56200Y-26450D03*
X58200Y-26450D03*
X58200Y-28450D03*
X56200Y-28450D03*
X49000Y-27450D03*
X48000Y-26450D03*
X50000Y-26450D03*
X50000Y-28450D03*
X48000Y-28450D03*
X80650Y-16100D03*
X79650Y-15100D03*
X81650Y-15100D03*
X81650Y-17100D03*
X79650Y-17100D03*
X72000Y-15100D03*
X71000Y-14100D03*
X73000Y-14100D03*
X73000Y-16100D03*
X71000Y-16100D03*
X51500Y-15100D03*
X50500Y-14100D03*
X52500Y-14100D03*
X52500Y-16100D03*
X50500Y-16100D03*
M02*
